<svg width="33" height="33" viewBox="0 0 33 33" fill="none" xmlns="http://www.w3.org/2000/svg">
<path fill-rule="evenodd" clip-rule="evenodd" d="M16.4084 1.17206C13.3949 1.17206 10.4491 2.10001 7.94346 3.83862C5.43782 5.57722 3.48491 8.0484 2.33169 10.9396C1.17847 13.8308 0.876743 17.0122 1.46465 20.0814C2.05255 23.1507 3.5037 25.97 5.63457 28.1829C7.76544 30.3957 10.4803 31.9027 13.4359 32.5132C16.3915 33.1237 19.4551 32.8103 22.2392 31.6128C25.0233 30.4152 27.403 28.3872 29.0772 25.7852C30.7514 23.1831 31.645 20.124 31.645 16.9946C31.6455 14.9166 31.2518 12.8589 30.4862 10.9389C29.7207 9.01901 28.5984 7.27451 27.1835 5.80514C25.7685 4.33576 24.0887 3.17028 22.2398 2.37532C20.391 1.58035 18.4095 1.17151 16.4084 1.17206Z" fill="#FFAA00"/>
<path d="M16.4086 32.8172C13.1633 32.8172 9.99086 31.8548 7.29248 30.0518C4.5941 28.2488 2.49096 25.6861 1.24904 22.6879C0.00710782 19.6896 -0.317835 16.3904 0.315295 13.2074C0.948424 10.0245 2.5112 7.10073 4.80598 4.80595C7.10077 2.51116 10.0245 0.948427 13.2075 0.315298C16.3904 -0.317832 19.6896 0.00709858 22.6879 1.24903C25.6862 2.49095 28.2489 4.59406 30.0519 7.29244C31.8549 9.99082 32.8172 13.1633 32.8172 16.4086C32.8118 20.7587 31.0812 24.9292 28.0052 28.0052C24.9292 31.0812 20.7588 32.8118 16.4086 32.8172ZM16.4086 1.58007C13.475 1.58007 10.6072 2.45001 8.16803 4.07984C5.72882 5.70967 3.82769 8.02619 2.70504 10.7365C1.58239 13.4468 1.28866 16.4292 1.86098 19.3064C2.4333 22.1837 3.84598 24.8266 5.92036 26.9009C7.99474 28.9753 10.6377 30.388 13.5149 30.9604C16.3922 31.5327 19.3745 31.2389 22.0848 30.1163C24.7951 28.9936 27.1117 27.0925 28.7415 24.6533C30.3713 22.214 31.2412 19.3463 31.2412 16.4127C31.238 12.4798 29.6742 8.70903 26.8932 5.92808C24.1123 3.14713 20.3415 1.58334 16.4086 1.58007Z" fill="#5956A5"/>
<path d="M3.09705 22.2688C3.0459 22.2694 2.99486 22.2638 2.9449 22.2521C2.8483 22.2314 2.75647 22.1905 2.6747 22.1317C2.59294 22.073 2.52284 21.9975 2.46845 21.9097C2.41406 21.8218 2.37645 21.7233 2.35778 21.6198C2.33911 21.5164 2.33975 21.41 2.35967 21.3068C2.57069 20.22 2.86294 19.1531 3.23361 18.1163C3.30662 17.9207 3.4487 17.7637 3.62909 17.6793C3.80949 17.5949 4.0137 17.5899 4.19754 17.6653C4.38139 17.7407 4.53007 17.8905 4.61144 18.0823C4.6928 18.2741 4.70029 18.4925 4.6323 18.6901C4.28939 19.6453 4.0193 20.6285 3.82468 21.6302C3.7899 21.8096 3.69872 21.9708 3.56632 22.087C3.43392 22.2032 3.2683 22.2673 3.09705 22.2688ZM6.02319 14.9655C5.87109 14.9644 5.7226 14.9158 5.59597 14.8257C5.43177 14.7052 5.31898 14.52 5.2824 14.3107C5.24582 14.1013 5.28844 13.8851 5.4009 13.7093C5.9912 12.7989 6.64806 11.94 7.36531 11.1407C7.43295 11.0638 7.51415 11.002 7.60423 10.9589C7.69431 10.9158 7.79147 10.8923 7.89012 10.8896C7.98876 10.8868 8.08694 10.9051 8.17897 10.9431C8.271 10.9812 8.35506 11.0384 8.4263 11.1115C8.49754 11.1845 8.55455 11.2719 8.59404 11.3686C8.63353 11.4654 8.6547 11.5695 8.65636 11.6751C8.65801 11.7806 8.64011 11.8854 8.60367 11.9835C8.56724 12.0816 8.513 12.171 8.44409 12.2466C7.78164 12.9856 7.175 13.7796 6.62987 14.6212C6.56293 14.7274 6.473 14.8147 6.3677 14.8758C6.26241 14.9368 6.14489 14.9698 6.02514 14.9718L6.02319 14.9655ZM11.3683 9.45672C11.2428 9.45737 11.1192 9.42404 11.009 9.35982C10.8989 9.29561 10.8057 9.20259 10.7382 9.08947C10.632 8.91025 10.5964 8.69339 10.6391 8.48619C10.6819 8.27899 10.7995 8.09832 10.9664 7.98358C11.8398 7.38629 12.7563 6.86432 13.7072 6.42272C13.7986 6.36772 13.8998 6.33394 14.0043 6.32354C14.1087 6.31314 14.214 6.3264 14.3133 6.36241C14.4127 6.39842 14.5038 6.45639 14.5808 6.53256C14.6578 6.60873 14.719 6.70138 14.7603 6.8045C14.8016 6.90761 14.8221 7.01887 14.8206 7.13104C14.8191 7.24322 14.7955 7.35378 14.7513 7.45555C14.7072 7.55733 14.6435 7.64802 14.5645 7.72173C14.4854 7.79545 14.3927 7.85051 14.2925 7.88338C13.4129 8.29245 12.5649 8.77531 11.7565 9.32737C11.6415 9.40903 11.5081 9.45588 11.3702 9.46298L11.3683 9.45672ZM28.5584 7.77696C28.4614 7.77719 28.3654 7.75739 28.2755 7.71858C27.3899 7.33217 26.4766 7.023 25.5444 6.79415C25.3592 6.73878 25.201 6.60937 25.1026 6.43266C25.0042 6.25595 24.973 6.04551 25.0156 5.84492C25.0582 5.64433 25.1714 5.46894 25.3315 5.3551C25.4917 5.24126 25.6867 5.19765 25.8761 5.23335C26.888 5.48058 27.8792 5.817 28.8393 6.23912C28.9989 6.30965 29.1308 6.43716 29.2124 6.59996C29.2941 6.76276 29.3205 6.95078 29.2872 7.13206C29.2538 7.31334 29.1628 7.4767 29.0296 7.59427C28.8963 7.71185 28.7291 7.77638 28.5564 7.77696H28.5584ZM18.2896 6.58549C18.1031 6.58317 17.9241 6.50652 17.7877 6.37056C17.6512 6.23459 17.5671 6.04912 17.5517 5.85032C17.5364 5.65153 17.5909 5.45374 17.7046 5.29565C17.8183 5.13756 17.9831 5.03054 18.1667 4.99549C19.1876 4.81452 20.2199 4.71684 21.2547 4.70333C21.6839 4.599 22.0058 5.05181 22.0116 5.49209C22.0132 5.59729 21.9952 5.70178 21.9588 5.79953C21.9224 5.89728 21.8683 5.98637 21.7996 6.06164C21.7309 6.1369 21.6489 6.19685 21.5584 6.23805C21.4679 6.27926 21.3706 6.30092 21.2723 6.30173C20.3145 6.31312 19.3589 6.40453 18.4144 6.5751C18.3741 6.58728 18.333 6.59632 18.2915 6.6022L18.2896 6.58549Z" fill="#5956A5"/>
<path d="M5.46503 26.9554C5.42796 26.9575 5.3908 26.9575 5.35372 26.9554C5.15 26.9243 4.96645 26.8111 4.8432 26.6406C4.71995 26.47 4.66703 26.2559 4.69597 26.045C4.84529 24.982 5.0733 23.9325 5.37801 22.9056C5.40586 22.802 5.45357 22.7051 5.5183 22.6209C5.58302 22.5366 5.66345 22.4666 5.75481 22.4151C5.84617 22.3636 5.94661 22.3316 6.05016 22.321C6.15371 22.3104 6.25827 22.3214 6.35763 22.3533C6.45699 22.3853 6.54912 22.4376 6.62858 22.5071C6.70804 22.5766 6.77321 22.6618 6.8202 22.7578C6.86719 22.8538 6.89505 22.9586 6.90214 23.066C6.90924 23.1733 6.89541 23.2811 6.86148 23.3828C6.57962 24.3258 6.36919 25.2901 6.23207 26.2669C6.20536 26.4577 6.11319 26.6323 5.97238 26.7587C5.83157 26.8851 5.6515 26.9549 5.46503 26.9554ZM8.00901 19.5716C7.86652 19.5739 7.72627 19.5347 7.60424 19.4586C7.42801 19.3494 7.30088 19.1724 7.25078 18.9664C7.20069 18.7603 7.23174 18.5422 7.33709 18.3598C7.88838 17.4027 8.51305 16.4928 9.2051 15.639C9.33828 15.4779 9.52762 15.3778 9.73187 15.3603C9.93613 15.3429 10.1388 15.4096 10.2957 15.5459C10.4526 15.6822 10.5511 15.8772 10.5697 16.0882C10.5884 16.2993 10.5256 16.5094 10.3951 16.6729C9.75604 17.4613 9.17877 18.3011 8.66879 19.1844C8.60056 19.3024 8.50391 19.4001 8.38827 19.468C8.27264 19.5359 8.14197 19.5716 8.00901 19.5716ZM13.188 13.6779C13.0248 13.6781 12.8657 13.6249 12.7334 13.5261C12.6011 13.4273 12.5024 13.2878 12.4512 13.1275C12.4001 12.9672 12.3992 12.7943 12.4486 12.6335C12.4981 12.4726 12.5953 12.332 12.7266 12.2317C13.5904 11.5677 14.5056 10.9783 15.4628 10.4695C15.6444 10.3845 15.8507 10.3749 16.0389 10.4428C16.2271 10.5106 16.383 10.6506 16.4742 10.8339C16.5654 11.0172 16.585 11.2297 16.529 11.4276C16.473 11.6254 16.3456 11.7934 16.1732 11.8968C15.2904 12.3699 14.4464 12.9166 13.6495 13.5314C13.515 13.6305 13.3531 13.6819 13.188 13.6779ZM30.8684 10.7625C30.7846 10.7625 30.7013 10.7491 30.6215 10.7227C29.6822 10.3967 28.7181 10.1523 27.7395 9.9923C27.6389 9.97581 27.5424 9.93897 27.4556 9.88392C27.3688 9.82888 27.2933 9.75668 27.2334 9.67146C27.1735 9.58624 27.1305 9.48968 27.1067 9.38726C27.083 9.28484 27.079 9.17858 27.0949 9.07455C27.1108 8.97052 27.1464 8.87075 27.1997 8.78095C27.2529 8.69115 27.3227 8.61306 27.4051 8.55116C27.4875 8.48927 27.5809 8.44478 27.68 8.4202C27.779 8.39563 27.8818 8.39145 27.9824 8.40794C29.047 8.58072 30.0957 8.84607 31.1173 9.20117C31.2917 9.26186 31.4395 9.38473 31.5344 9.54781C31.6292 9.71089 31.6648 9.90351 31.6349 10.0913C31.605 10.279 31.5114 10.4497 31.371 10.5727C31.2305 10.6956 31.0524 10.7629 30.8684 10.7625ZM20.1622 10.3083C19.9731 10.3073 19.7909 10.2347 19.6499 10.1044C19.5089 9.974 19.4188 9.79483 19.3967 9.60059C19.3745 9.40635 19.4218 9.2104 19.5296 9.04972C19.6375 8.88903 19.7984 8.77469 19.9821 8.72816C21.0269 8.46704 22.09 8.29208 23.1616 8.20493C23.3652 8.19664 23.5644 8.26812 23.7194 8.40508C23.8743 8.54204 23.9736 8.73439 23.9974 8.94374C24.0051 9.04874 23.9928 9.15425 23.9611 9.25431C23.9294 9.35437 23.8789 9.44703 23.8125 9.52691C23.7462 9.60679 23.6653 9.67237 23.5744 9.7199C23.4836 9.76744 23.3845 9.79596 23.283 9.8039C22.2928 9.886 21.3103 10.0477 20.3444 10.2874C20.2846 10.3016 20.2235 10.3086 20.1622 10.3083Z" fill="#5956A5"/>
</svg>
