<svg width="173" height="31" viewBox="0 0 173 31" fill="none" xmlns="http://www.w3.org/2000/svg">
<rect x="0.75" y="0.281738" width="30.1738" height="30" rx="2" fill="#00B67A"/>
<path d="M15.8451 3.77881L18.4431 11.7286H26.8504L20.0488 16.6418L22.6468 24.5916L15.8451 19.6784L9.04346 24.5916L11.6415 16.6418L4.8398 11.7286H13.2471L15.8451 3.77881Z" fill="white"/>
<rect x="36.2031" y="0.281738" width="30.1738" height="30" rx="2" fill="#00B67A"/>
<path d="M51.3139 3.77881L53.9119 11.7286H62.3192L55.5175 16.6418L58.1155 24.5916L51.3139 19.6784L44.5122 24.5916L47.1102 16.6418L40.3085 11.7286H48.7159L51.3139 3.77881Z" fill="white"/>
<rect x="71.6875" y="0.281738" width="30.1738" height="30" rx="2" fill="#00B67A"/>
<path d="M86.8061 3.77881L89.4041 11.7286H97.8114L91.0097 16.6418L93.6077 24.5916L86.8061 19.6784L80.0044 24.5916L82.6024 16.6418L75.8007 11.7286H84.2081L86.8061 3.77881Z" fill="white"/>
<rect x="107.086" y="0.281738" width="30.1738" height="30" rx="2" fill="#00B67A"/>
<path d="M122.197 3.77881L124.795 11.7286H133.202L126.4 16.6418L128.998 24.5916L122.197 19.6784L115.395 24.5916L117.993 16.6418L111.191 11.7286H119.599L122.197 3.77881Z" fill="white"/>
<rect x="142.578" y="0.281738" width="30.1738" height="30" rx="2" fill="#00B67A"/>
<path d="M157.642 3.77881L160.24 11.7286H168.647L161.846 16.6418L164.444 24.5916L157.642 19.6784L150.84 24.5916L153.438 16.6418L146.637 11.7286H155.044L157.642 3.77881Z" fill="white"/>
</svg>
