<svg xmlns="http://www.w3.org/2000/svg" width="50" height="50" fill="none" xmlns:v="https://vecta.io/nano"><path d="M24.999 2c12.702 0 22.999 10.297 22.999 22.999S37.701 47.997 24.999 47.997 2 37.701 2 24.999 12.297 2 24.999 2zm0 2.421c-11.365 0-20.578 9.213-20.578 20.578s9.213 20.578 20.578 20.578 20.578-9.213 20.578-20.578S36.364 4.421 24.999 4.421zm12.961 7.617c.436.436.515 1.223 0 1.712l-8.789 8.789a4.82 4.82 0 0 1 .67 2.46c0 2.674-2.168 4.842-4.842 4.842s-4.842-2.168-4.842-4.842 2.168-4.842 4.842-4.842a4.82 4.82 0 0 1 2.46.67l8.789-8.789a1.21 1.21 0 0 1 1.712 0zm-12.961 10.54a2.42 2.42 0 1 0 0 4.842 2.42 2.42 0 1 0 0-4.842zm14.305-4.145a15.68 15.68 0 0 1 1.431 6.565 1.21 1.21 0 1 1-2.421 0 13.26 13.26 0 0 0-1.21-5.554 1.21 1.21 0 1 1 2.2-1.011zM24.999 9.263a15.68 15.68 0 0 1 6.622 1.457 1.21 1.21 0 0 1-1.02 2.196 13.26 13.26 0 0 0-5.602-1.232c-7.354 0-13.315 5.961-13.315 13.315a1.21 1.21 0 1 1-2.421 0A15.74 15.74 0 0 1 24.999 9.263z" fill="#fff"/></svg>