<svg xmlns="http://www.w3.org/2000/svg" width="32" height="32" fill="none" xmlns:v="https://vecta.io/nano"><g clip-path="url(#A)" fill="#fff"><path d="M16 2.667c1.769.006 3.519.362 5.149 1.049a13.38 13.38 0 0 1 4.347 2.951h-4.163a1.33 1.33 0 0 0-.943.391c-.25.251-.39.589-.39.942s.14.693.39.943.589.391.943.391h5.524a2.48 2.48 0 0 0 2.476-2.476V1.334a1.33 1.33 0 0 0-.391-.943C28.691.141 28.353 0 28 0a1.33 1.33 0 0 0-.943.391c-.25.251-.39.589-.39.943v2.771C24.463 2.12 21.75.788 18.832.257s-5.926-.238-8.687.845a15.97 15.97 0 0 0-6.946 5.285C1.419 8.76.334 11.58.066 14.534c-.017.186.004.373.064.55s.154.339.28.477a1.35 1.35 0 0 0 .449.324A1.33 1.33 0 0 0 1.4 16a1.31 1.31 0 0 0 1.319-1.171A13.35 13.35 0 0 1 16 2.667zM30.601 16a1.31 1.31 0 0 0-1.319 1.171 13.31 13.31 0 0 1-2.719 6.976c-1.555 2.017-3.656 3.547-6.054 4.406s-4.992 1.013-7.474.442a13.32 13.32 0 0 1-6.531-3.661h4.163c.354 0 .693-.14.943-.39s.39-.589.39-.943-.14-.693-.39-.943-.589-.391-.943-.391H5.142a2.49 2.49 0 0 0-.948.188 2.45 2.45 0 0 0-.803.537c-.229.23-.412.503-.537.803s-.188.623-.188.948v5.524a1.33 1.33 0 0 0 .391.943c.251.25.589.391.943.391s.693-.141.943-.391.391-.589.391-.943v-2.771c2.204 1.985 4.917 3.317 7.835 3.847a15.97 15.97 0 0 0 15.633-6.13 15.98 15.98 0 0 0 3.132-8.147 1.34 1.34 0 0 0-.792-1.351 1.34 1.34 0 0 0-.54-.116z"/></g><defs><clipPath id="A"><path fill="#fff" d="M0 0h32v32H0z"/></clipPath></defs></svg>