<svg xmlns="http://www.w3.org/2000/svg" width="32" height="32" fill="none" xmlns:v="https://vecta.io/nano"><g clip-path="url(#A)" fill="#fff"><path d="M31 12.937h-1.92c-.031 0-.059-.02-.065-.048a13.27 13.27 0 0 0-1.612-3.888c-.016-.027-.013-.06.008-.081l1.361-1.361c.189-.189.293-.44.293-.707s-.104-.518-.293-.707l-2.917-2.917c-.189-.189-.44-.293-.707-.293s-.518.104-.707.293L23.08 4.589c-.021.021-.054.024-.081.008-1.207-.742-2.515-1.285-3.888-1.612-.028-.007-.048-.034-.048-.065V1a1 1 0 0 0-1-1h-4.125a1 1 0 0 0-1 1v1.92c0 .031-.02.059-.048.065a13.29 13.29 0 0 0-3.888 1.612c-.027.017-.06.013-.081-.008L7.559 3.228c-.189-.189-.44-.293-.707-.293s-.518.104-.707.293L3.228 6.145c-.189.189-.293.44-.293.707s.104.518.293.707L4.589 8.92c.021.021.024.054.008.081-.742 1.207-1.285 2.515-1.612 3.888-.007.028-.034.048-.065.048H1a1 1 0 0 0-1 1v4.125a1 1 0 0 0 1 1h1.92c.031 0 .059.02.065.048a13.27 13.27 0 0 0 1.612 3.888c.017.027.013.06-.008.081L3.228 24.44c-.189.189-.293.44-.293.707s.104.518.293.707l2.917 2.917c.189.189.44.293.707.293s.518-.104.707-.293L8.92 27.41c.021-.021.054-.024.081-.008 1.207.742 2.515 1.285 3.888 1.612.028.007.048.034.048.065V31a1 1 0 0 0 1 1h4.125a1 1 0 0 0 1-1v-1.92c0-.031.02-.059.048-.065a13.27 13.27 0 0 0 3.888-1.612c.027-.017.06-.013.081.008l1.361 1.361c.189.189.44.293.707.293s.518-.104.707-.293l.688-.688a.47.47 0 0 0 0-.661.47.47 0 0 0-.661 0l-.688.688c-.016.016-.033.019-.046.019s-.03-.003-.046-.019L23.74 26.75a1 1 0 0 0-1.233-.143c-1.122.69-2.338 1.195-3.614 1.499-.452.107-.767.508-.767.975V31c0 .036-.029.065-.065.065h-4.125c-.036 0-.065-.029-.065-.065v-1.92c0-.467-.315-.868-.767-.975-1.276-.304-2.492-.808-3.615-1.499a1 1 0 0 0-1.233.143L6.895 28.11c-.016.016-.033.019-.046.019s-.03-.003-.046-.019l-2.917-2.917c-.016-.015-.019-.033-.019-.046s.003-.03.019-.046l1.361-1.361a1 1 0 0 0 .143-1.233 12.35 12.35 0 0 1-1.499-3.615 1 1 0 0 0-.975-.767H1c-.036 0-.064-.029-.064-.065v-4.125c0-.036.029-.065.064-.065h1.92c.467 0 .868-.315.975-.767a12.35 12.35 0 0 1 1.499-3.615 1 1 0 0 0-.143-1.233L3.889 6.898c-.016-.016-.019-.033-.019-.046s.003-.03.019-.046l2.917-2.917c.016-.016.033-.019.046-.019s.03.003.046.019L8.259 5.25a1 1 0 0 0 1.233.143 12.35 12.35 0 0 1 3.615-1.499 1 1 0 0 0 .767-.975V1c0-.036.029-.064.065-.064h4.125c.036 0 .065.029.065.064v1.92c0 .467.315.868.767.975a12.35 12.35 0 0 1 3.615 1.499 1 1 0 0 0 1.233-.143l1.361-1.361c.016-.016.033-.019.046-.019s.03.003.046.019l2.917 2.917c.016.016.019.033.019.046s-.003.03-.019.046l-1.364 1.36a1 1 0 0 0-.143 1.233 12.35 12.35 0 0 1 1.499 3.615 1 1 0 0 0 .975.767H31c.036 0 .065.029.065.065v4.125c0 .036-.029.065-.065.065h-1.92c-.467 0-.868.315-.975.767a12.35 12.35 0 0 1-1.498 3.615 1 1 0 0 0 .143 1.233l1.361 1.361c.016.016.019.033.019.046s-.003.03-.019.046l-.696.696a.47.47 0 0 0 0 .662.47.47 0 0 0 .662 0l.696-.696c.189-.189.293-.44.293-.707s-.104-.518-.293-.707l-1.361-1.361c-.021-.021-.024-.054-.008-.081a13.29 13.29 0 0 0 1.612-3.888c.007-.028.034-.048.065-.048H31a1 1 0 0 0 1-1v-4.125a1 1 0 0 0-1-1zm-24.39 1.19a.47.47 0 0 0-.531.394A10.14 10.14 0 0 0 5.971 16c0 5.53 4.499 10.03 10.03 10.03S26.03 21.531 26.03 16 21.531 5.971 16 5.971a9.97 9.97 0 0 0-5.695 1.773 10.02 10.02 0 0 0-3.628 4.552l-.019.048a.47.47 0 0 0 .263.607.47.47 0 0 0 .607-.263l.018-.047c.666-1.672 1.803-3.099 3.29-4.127A9.04 9.04 0 0 1 16 6.906c5.015 0 9.094 4.08 9.094 9.094s-4.08 9.094-9.094 9.094S6.906 21.015 6.906 16a9.21 9.21 0 0 1 .098-1.342.47.47 0 0 0-.394-.531zm8.062 6.728l.058-.001a2.03 2.03 0 0 0 1.425-.648l5.239-5.675c.366-.396.555-.911.534-1.449a2 2 0 0 0-.648-1.402 2.02 2.02 0 0 0-2.852.114l-3.839 4.158-1.097-1.061a2.02 2.02 0 0 0-2.854.049 2.02 2.02 0 0 0 .049 2.854l2.582 2.496a2.01 2.01 0 0 0 1.402.567zm-3.361-5.266a1.08 1.08 0 0 1 1.531-.026l1.441 1.393a.47.47 0 0 0 .338.131c.126-.003.245-.058.33-.15l4.163-4.509c.405-.439 1.092-.466 1.53-.061a1.07 1.07 0 0 1 .347.753 1.08 1.08 0 0 1-.286.778l-5.239 5.675a1.09 1.09 0 0 1-.765.348 1.08 1.08 0 0 1-.783-.304l-2.582-2.496c-.429-.415-.441-1.102-.026-1.531z"/></g><defs><clipPath id="A"><path fill="#fff" d="M0 0h32v32H0z"/></clipPath></defs></svg>