<svg xmlns="http://www.w3.org/2000/svg" width="20" height="20" fill="none" xmlns:v="https://vecta.io/nano"><g clip-path="url(#A)" fill="#645cfc"><use href="#B"/><path d="M7.5 9.484a.5.5 0 0 1 .5-.5h1a.5.5 0 0 1 .5.5v1a.5.5 0 0 1-.5.5H8a.5.5 0 0 1-.5-.5v-1zm.5 2.5a.5.5 0 0 0-.5.5v1a.5.5 0 0 0 .5.5h1a.5.5 0 0 0 .5-.5v-1a.5.5 0 0 0-.5-.5H8z"/><use href="#C"/><path d="M11 8.984a.5.5 0 0 0-.5.5v1a.5.5 0 0 0 .5.5h1a.5.5 0 0 0 .5-.5v-1a.5.5 0 0 0-.5-.5h-1zm-.5 3.5a.5.5 0 0 1 .5-.5h1a.5.5 0 0 1 .5.5v1a.5.5 0 0 1-.5.5h-1a.5.5 0 0 1-.5-.5v-1z"/><path fill-rule="evenodd" d="M4.503 1.157A1 1 0 0 1 5.791.199l8.999 2.7a1 1 0 0 1 .713.958v2.338l2.996 1.712a1 1 0 0 1 .504.868v10.208h.5a.5.5 0 0 1 .5.5.5.5 0 0 1-.5.5H.504a.5.5 0 0 1-.5-.5.5.5 0 0 1 .5-.5h.5V3.984a1 1 0 0 1 1-1h2.5V1.157zm13.498 17.826V8.774l-2.5-1.428v11.637h2.5zm-3.5-12.508v12.508h-2.5v-2.5a1 1 0 0 0-1-1h-2a1 1 0 0 0-1 1v2.5h-2.5V1.157l8.999 2.7v2.618zM4.503 18.982h-2.5V3.984h2.5v14.998zm4.499 0h2v-2.5h-2v2.5z"/></g><defs><clipPath id="A"><path fill="#fff" d="M0 0h20v20H0z"/></clipPath><path id="B" d="M8 5.984a.5.5 0 0 0-.5.5v1a.5.5 0 0 0 .5.5h1a.5.5 0 0 0 .5-.5v-1a.5.5 0 0 0-.5-.5H8z"/><path id="C" d="M10.5 6.484a.5.5 0 0 1 .5-.5h1a.5.5 0 0 1 .5.5v1a.5.5 0 0 1-.5.5h-1a.5.5 0 0 1-.5-.5v-1z"/></defs></svg>