<svg xmlns="http://www.w3.org/2000/svg" width="50" height="50" fill="#fff" xmlns:v="https://vecta.io/nano"><path d="M47.656 48.438h-6.25c-.431 0-.781-.352-.781-.781V27.344a.78.78 0 0 1 .781-.781c.431 0 .781.352.781.781v19.531h4.688V13.281a.782.782 0 1 1 1.563 0v34.375a.78.78 0 0 1-.781.781zm-13.281-1.563h-4.687v-3.906a.781.781 0 1 0-1.562 0v4.687a.78.78 0 0 0 .781.781h6.25c.431 0 .781-.352.781-.781V36.719a.781.781 0 1 0-1.562 0v10.156z"/><path d="M46.084 46.875H2.334a.782.782 0 1 0 0 1.563h43.75a.781.781 0 1 0 0-1.562zm-29.678-3.906c-.431 0-.781-.352-.781-.781V25.781a.78.78 0 0 1 .781-.781h6.25a.78.78 0 0 1 .781.781v12.5a.78.78 0 0 1-.781.781c-.431 0-.781-.352-.781-.781V26.563h-4.687v15.625a.78.78 0 0 1-.781.781zm-12.5 2.344c-.431 0-.781-.352-.781-.781v-12.5a.78.78 0 0 1 .781-.781h6.25a.78.78 0 0 1 .781.781V43.75a.78.78 0 0 1-.781.781c-.431 0-.781-.352-.781-.781V32.813H4.688v11.719a.78.78 0 0 1-.781.781zm25-14.063a.78.78 0 0 1-.781-.781V19.531a.78.78 0 0 1 .781-.781h3.125a.78.78 0 1 1 0 1.562h-2.344v10.156a.78.78 0 0 1-.781.781z"/><path d="M5.469 48.437a.781.781 0 1 1 0-1.562c15.939 0 28.906-12.967 28.906-28.906v-3.906h-2.344a.78.78 0 0 1-.679-1.169l6.25-10.938c.281-.488 1.077-.488 1.358 0l6.25 10.938c.137.241.136.539-.003.78a.78.78 0 0 1-.675.389h-2.344v3.906a.781.781 0 1 1-1.562 0v-4.687a.78.78 0 0 1 .781-.781h1.78L38.282 3.92l-4.905 8.581h1.78a.78.78 0 0 1 .781.781v4.688c0 16.8-13.669 30.469-30.469 30.469zm35.937-26.562a.781.781 0 1 0 0-1.562.781.781 0 1 0 0 1.563z"/></svg>