<svg xmlns="http://www.w3.org/2000/svg" width="32" height="32" fill="none" xmlns:v="https://vecta.io/nano"><g clip-path="url(#A)" fill="#fff"><path d="M12.333 10.667h-10C1.047 10.667 0 9.62 0 8.333v-6C0 1.047 1.047 0 2.333 0h10c1.287 0 2.333 1.047 2.333 2.333v6c0 1.287-1.047 2.333-2.333 2.333zM2.333 2C2.149 2 2 2.149 2 2.333v6c0 .184.149.334.333.334h10c.184 0 .333-.149.333-.334v-6c0-.184-.149-.333-.333-.333h-10zm10 30.001h-10C1.047 32.001 0 30.954 0 29.668v-14c0-1.287 1.047-2.334 2.333-2.334h10c1.287 0 2.333 1.047 2.333 2.334v14c0 1.287-1.047 2.333-2.333 2.333zm-10-16.667c-.184 0-.333.149-.333.334v14c0 .184.149.333.333.333h10c.184 0 .333-.149.333-.333v-14c0-.184-.149-.334-.333-.334h-10zm27.335 16.667h-10c-1.287 0-2.334-1.047-2.334-2.333v-6c0-1.287 1.047-2.334 2.334-2.334h10c1.287 0 2.333 1.047 2.333 2.334v6c0 1.287-1.047 2.333-2.333 2.333zm-10-8.667c-.184 0-.334.149-.334.334v6c0 .184.149.333.334.333h10c.184 0 .333-.149.333-.333v-6c0-.184-.149-.334-.333-.334h-10zm10-4.667h-10c-1.287 0-2.334-1.047-2.334-2.333v-14C17.334 1.047 18.381 0 19.668 0h10c1.287 0 2.333 1.047 2.333 2.333v14c0 1.287-1.047 2.333-2.333 2.333zM19.668 2c-.184 0-.334.149-.334.333v14c0 .184.149.333.334.333h10c.184 0 .333-.149.333-.333v-14c0-.184-.149-.333-.333-.333h-10z"/></g><defs><clipPath id="A"><path fill="#fff" d="M0 0h32v32H0z"/></clipPath></defs></svg>