<svg xmlns="http://www.w3.org/2000/svg" width="20" height="20" fill="none" xmlns:v="https://vecta.io/nano"><g clip-path="url(#A)" fill="#645cfc"><path d="M14.375 19.999H2.292C1.028 19.999 0 18.971 0 17.707V8.124C0 6.86 1.028 5.832 2.292 5.832h12.083c1.264 0 2.292 1.028 2.292 2.292v9.583c0 1.264-1.027 2.292-2.292 2.292zM2.292 7.082c-.574 0-1.042.468-1.042 1.042v9.583c0 .574.468 1.042 1.042 1.042h12.083c.574 0 1.042-.468 1.042-1.042V8.124c0-.574-.468-1.042-1.042-1.042H2.292z"/><path d="M16.042 10H.625C.28 10 0 9.72 0 9.375s.28-.625.625-.625h15.417c.345 0 .625.28.625.625s-.28.625-.625.625zm3.332 4.167c-.345 0-.625-.28-.625-.625V2.292c0-.574-.468-1.042-1.042-1.042H5.624c-.574 0-1.042.468-1.042 1.042v1.25c0 .345-.28.625-.625.625s-.625-.28-.625-.625v-1.25C3.332 1.028 4.36 0 5.624 0h12.083c1.264 0 2.292 1.028 2.292 2.292v11.25c0 .345-.28.625-.625.625z"/><path d="M19.374 4.168H3.957c-.345 0-.625-.28-.625-.625s.28-.625.625-.625h15.417c.345 0 .625.28.625.625s-.28.625-.625.625z"/></g><defs><clipPath id="A"><path fill="#fff" d="M0 0h20v20H0z"/></clipPath></defs></svg>