<svg xmlns="http://www.w3.org/2000/svg" width="50" height="50" fill="none" xmlns:v="https://vecta.io/nano"><path d="M25.001 0C11.215 0 0 11.214 0 24.999S11.215 50 25 50s24.998-11.215 24.998-25.001S38.785 0 25.001 0zM2.523 24.999c0-3.258.699-6.352 1.946-9.147l10.722 29.377C7.694 41.585 2.523 33.896 2.523 24.999zm22.478 22.479c-2.206 0-4.336-.324-6.35-.916l6.744-19.596 6.91 18.928a1.88 1.88 0 0 0 .16.31c-2.336.822-4.847 1.274-7.464 1.274zm3.097-33.017c1.353-.071 2.573-.214 2.573-.214 1.21-.143 1.069-1.923-.144-1.852 0 0-3.64.285-5.991.285-2.208 0-5.921-.285-5.921-.285-1.211-.071-1.353 1.78-.142 1.852 0 0 1.147.143 2.357.214l3.502 9.595-4.919 14.752-8.184-24.347c1.355-.071 2.573-.214 2.573-.214 1.21-.143 1.068-1.923-.144-1.851 0 0-3.639.285-5.99.285-.422 0-.92-.011-1.446-.027 4.018-6.103 10.927-10.132 18.78-10.132a22.39 22.39 0 0 1 15.178 5.9c-.097-.005-.191-.018-.292-.018-2.207 0-3.774 1.923-3.774 3.989 0 1.852 1.068 3.42 2.207 5.271.856 1.497 1.853 3.421 1.853 6.199 0 1.924-.739 4.156-1.711 7.266l-2.242 7.492-8.123-24.162zM36.3 44.429l6.866-19.85c1.284-3.206 1.709-5.77 1.709-8.051a17.08 17.08 0 0 0-.152-2.311c1.756 3.202 2.755 6.877 2.754 10.785-.001 8.292-4.495 15.532-11.177 19.429z" fill="#fff"/></svg>