<svg xmlns="http://www.w3.org/2000/svg" width="20" height="20" fill="#645cfc" xmlns:v="https://vecta.io/nano"><path d="M16.813 18.435H3.521C2.13 18.435 1 17.305 1 15.914V5.372c0-1.391 1.13-2.521 2.521-2.521h13.292c1.391 0 2.521 1.13 2.521 2.521v10.542c0 1.391-1.13 2.521-2.521 2.521zM3.521 4.227a1.15 1.15 0 0 0-1.146 1.146v10.542a1.15 1.15 0 0 0 1.146 1.146h13.292a1.15 1.15 0 0 0 1.146-1.146V5.372a1.15 1.15 0 0 0-1.146-1.146H3.521z"/><path d="M18.646 7.434H1.688A.69.69 0 0 1 1 6.746a.69.69 0 0 1 .688-.687h16.958a.69.69 0 0 1 .688.688.69.69 0 0 1-.687.688z"/></svg>