<svg xmlns="http://www.w3.org/2000/svg" width="50" height="50" fill="none" xmlns:v="https://vecta.io/nano"><path d="M10.022 23.099h7.604v.758a1.79 1.79 0 0 0 1.785 1.785h11.18a1.79 1.79 0 0 0 1.785-1.785v-.758h7.603a1.79 1.79 0 0 0 1.785-1.785V18.27c0-2.573-2.023-4.684-4.563-4.821.95-.802 1.555-2 1.555-3.337 0-2.407-1.959-4.366-4.366-4.366s-4.366 1.959-4.366 4.366a4.36 4.36 0 0 0 1.556 3.338c-.936.052-1.819.374-2.557.905.222-.522.345-1.098.345-1.7 0-2.407-1.959-4.366-4.366-4.366s-4.366 1.959-4.366 4.366a4.35 4.35 0 0 0 .345 1.7c-.736-.532-1.62-.854-2.557-.905a4.36 4.36 0 0 0 1.556-3.338c0-2.407-1.959-4.366-4.366-4.366s-4.366 1.959-4.366 4.366c0 1.337.604 2.535 1.555 3.337-2.54.139-4.563 2.248-4.563 4.821v3.044a1.79 1.79 0 0 0 1.785 1.785zm21.182.759c0 .338-.275.613-.613.613H19.41c-.338 0-.613-.275-.613-.613v-3.044c0-2.017 1.641-3.657 3.657-3.657h5.092c2.017 0 3.657 1.641 3.657 3.657v3.044zm-.009-13.746a3.2 3.2 0 0 1 3.194-3.194 3.2 3.2 0 0 1 3.194 3.194 3.2 3.2 0 0 1-3.194 3.194 3.2 3.2 0 0 1-3.194-3.194zm.649 4.501h5.092c2.017 0 3.657 1.641 3.657 3.657v3.044c0 .338-.275.613-.613.613h-7.603v-1.114c0-2.208-1.49-4.074-3.518-4.646.678-.961 1.784-1.554 2.985-1.554zM25 9.46a3.2 3.2 0 0 1 3.194 3.194A3.2 3.2 0 0 1 25 15.849a3.2 3.2 0 0 1-3.194-3.194A3.2 3.2 0 0 1 25 9.46zm-12.583.651a3.2 3.2 0 0 1 3.194-3.194 3.2 3.2 0 0 1 3.194 3.194 3.2 3.2 0 0 1-3.194 3.194 3.2 3.2 0 0 1-3.194-3.194zM9.408 18.27c0-2.017 1.641-3.657 3.657-3.657h5.092c1.201 0 2.308.592 2.986 1.554-2.027.573-3.518 2.439-3.518 4.647v1.114h-7.603c-.338 0-.613-.275-.613-.613V18.27h-.001zm35.4-16.344H5.191a3.73 3.73 0 0 0-3.727 3.727v26.636a3.73 3.73 0 0 0 3.727 3.727h13.362c-.01 2.323-.498 4.622-1.455 6.847h-2.838a2.61 2.61 0 0 0-2.605 2.605 2.61 2.61 0 0 0 2.605 2.605h21.479a2.61 2.61 0 0 0 2.605-2.605 2.61 2.61 0 0 0-2.605-2.605h-2.838c-.957-2.225-1.445-4.522-1.455-6.847h13.362a3.73 3.73 0 0 0 3.727-3.727V5.652a3.73 3.73 0 0 0-3.727-3.727zM5.191 3.098h39.617a2.56 2.56 0 0 1 2.555 2.555V28.29H2.637V5.652a2.56 2.56 0 0 1 2.555-2.555zm31.981 42.369c0 .791-.644 1.434-1.434 1.434H14.261c-.791 0-1.434-.644-1.434-1.434s.644-1.434 1.434-1.434h3.219.002.001 15.035.001.002 3.219c.791 0 1.434.643 1.434 1.434zm-5.54-2.605H18.367a18.49 18.49 0 0 0 1.358-6.847h10.55c.008 2.322.464 4.619 1.357 6.847zm13.176-8.019H5.191a2.56 2.56 0 0 1-2.555-2.555v-2.826h44.727v2.826a2.56 2.56 0 0 1-2.555 2.555zm-17.379-2.69c0 .323-.263.586-.586.586h-3.689c-.323 0-.586-.263-.586-.586s.263-.586.586-.586h3.689c.324 0 .586.262.586.586z" fill="#fff"/></svg>