<svg xmlns="http://www.w3.org/2000/svg" width="151" height="30" fill="none" xmlns:v="https://vecta.io/nano"><g fill="#fa0"><path d="M14.642 1.992l4.32 7.999 9.605 1.308-6.935 6.252 1.616 8.808-8.606-4.135-8.606 4.135 1.616-8.808L.717 11.3l9.605-1.308 4.32-7.999z"/><use href="#B"/><use href="#B" x="30.381"/><use href="#C"/><use href="#C" x="30.585"/></g><defs ><path id="B" d="M45.023 1.992l4.32 7.999 9.605 1.308-6.935 6.252 1.616 8.808-8.606-4.135-8.606 4.135 1.616-8.808-6.935-6.252 9.605-1.308 4.32-7.999z"/><path id="C" d="M105.785 1.992l4.32 7.999 9.605 1.308-6.935 6.252 1.616 8.808-8.606-4.135-8.607 4.135 1.616-8.808-6.935-6.252 9.605-1.308 4.321-7.999z"/></defs></svg>