<svg width="94" height="32" viewBox="0 0 94 32" fill="none" xmlns="http://www.w3.org/2000/svg">
<g clip-path="url(#clip0_1214_9707)">
<path d="M34.8959 16.7622C34.8959 20.6487 31.8842 23.5126 28.1882 23.5126C24.4922 23.5126 21.4805 20.6487 21.4805 16.7622C21.4805 12.8482 24.4922 10.0117 28.1882 10.0117C31.8842 10.0117 34.8959 12.8482 34.8959 16.7622ZM31.9596 16.7622C31.9596 14.3335 30.2141 12.6717 28.1882 12.6717C26.1623 12.6717 24.4168 14.3335 24.4168 16.7622C24.4168 19.1665 26.1623 20.8526 28.1882 20.8526C30.2141 20.8526 31.9596 19.1635 31.9596 16.7622Z" fill="#212121"/>
<path d="M49.3647 16.7582C49.3647 20.6448 46.353 23.5087 42.6569 23.5087C38.9609 23.5087 35.9492 20.6448 35.9492 16.7582C35.9492 12.8474 38.9609 10.0078 42.6569 10.0078C46.353 10.0078 49.3647 12.8443 49.3647 16.7582ZM46.4283 16.7582C46.4283 14.3296 44.6828 12.6678 42.6569 12.6678C40.6311 12.6678 38.8855 14.3296 38.8855 16.7582C38.8855 19.1626 40.6311 20.8487 42.6569 20.8487C44.6828 20.8487 46.4283 19.1596 46.4283 16.7582Z" fill="#212121"/>
<path d="M63.2326 10.4156V22.5348C63.2326 27.52 60.3204 29.5561 56.8776 29.5561C53.6368 29.5561 51.6863 27.3678 50.9507 25.5782L53.5072 24.5039C53.9624 25.6026 55.0778 26.8991 56.8746 26.8991C59.0783 26.8991 60.444 25.5265 60.444 22.9426V21.9717H60.3415C59.6843 22.7904 58.4181 23.5056 56.8203 23.5056C53.477 23.5056 50.4141 20.5656 50.4141 16.7826C50.4141 12.9722 53.477 10.0078 56.8203 10.0078C58.4151 10.0078 59.6813 10.723 60.3415 11.5174H60.444V10.4187H63.2326V10.4156ZM60.652 16.7826C60.652 14.4056 59.0813 12.6678 57.0826 12.6678C55.0567 12.6678 53.3594 14.4056 53.3594 16.7826C53.3594 19.1352 55.0567 20.8487 57.0826 20.8487C59.0813 20.8487 60.652 19.1352 60.652 16.7826Z" fill="#212121"/>
<path d="M67.8288 3.3125V23.0951H64.9648V3.3125H67.8288Z" fill="#212121"/>
<path d="M78.9899 18.983L81.269 20.5169C80.5335 21.6156 78.7608 23.5087 75.6979 23.5087C71.8993 23.5087 69.0625 20.5443 69.0625 16.7582C69.0625 12.7439 71.9235 10.0078 75.3693 10.0078C78.8392 10.0078 80.5365 12.7956 81.0912 14.3022L81.3957 15.0691L72.4571 18.8065C73.1414 20.1609 74.2056 20.8517 75.6979 20.8517C77.1932 20.8517 78.2302 20.1091 78.9899 18.983ZM71.9747 16.5543L77.9499 14.0496C77.6213 13.2065 76.6324 12.6191 75.4688 12.6191C73.9765 12.6191 71.8993 13.9491 71.9747 16.5543Z" fill="#212121"/>
<path d="M10.6397 15.003V12.1391H20.1994C20.2928 12.6382 20.3411 13.2286 20.3411 13.8678C20.3411 16.0164 19.7592 18.6734 17.8841 20.5664C16.0602 22.4838 13.7298 23.5064 10.6428 23.5064C4.92085 23.5064 0.109375 18.8012 0.109375 13.0247C0.109375 7.24819 4.92085 2.54297 10.6428 2.54297C13.8082 2.54297 16.0632 3.79688 17.7575 5.43123L15.7557 7.4521C14.5408 6.30166 12.8947 5.40688 10.6397 5.40688C6.46136 5.40688 3.19342 8.80645 3.19342 13.0247C3.19342 17.243 6.46136 20.6425 10.6397 20.6425C13.35 20.6425 14.8935 19.5438 15.8823 18.5456C16.6842 17.736 17.2118 16.5795 17.4198 14.9999L10.6397 15.003Z" fill="#212121"/>
</g>
<defs>
<clipPath id="clip0_1214_9707">
<rect width="82" height="28" fill="white" transform="translate(0 2.40039)"/>
</clipPath>
</defs>
</svg>
