<svg xmlns="http://www.w3.org/2000/svg" width="149" height="30" fill="none" xmlns:v="https://vecta.io/nano"><rect y="1.537" width="25.963" height="25.963" rx="2" fill="#00b67a"/><path d="M12.985 4.563l2.236 6.88h7.234l-5.853 4.252 2.236 6.88-5.853-4.252-5.853 4.252 2.235-6.88-5.853-4.252h7.234l2.236-6.88z" fill="#fff"/><rect x="30.512" y="1.537" width="25.963" height="25.963" rx="2" fill="#00b67a"/><path d="M43.497 4.563l2.236 6.88h7.234l-5.853 4.252 2.236 6.88-5.853-4.252-5.852 4.252 2.235-6.88-5.852-4.252h7.234l2.235-6.88z" fill="#fff"/><rect x="61.02" y="1.537" width="25.963" height="25.963" rx="2" fill="#00b67a"/><path d="M74.006 4.563l2.236 6.88h7.234l-5.853 4.252 2.236 6.88-5.853-4.252-5.852 4.252 2.235-6.88-5.853-4.252h7.234l2.235-6.88z" fill="#fff"/><rect x="91.514" y="1.537" width="25.963" height="25.963" rx="2" fill="#00b67a"/><path d="M104.499 4.561l2.235 6.88h7.235l-5.853 4.252 2.236 6.88-5.853-4.252-5.853 4.252 2.236-6.88-5.853-4.252h7.235l2.235-6.88z" fill="#fff"/><rect x="122.037" y="1.537" width="25.963" height="25.963" rx="2" fill="#00b67a"/><path d="M135.023 4.561l2.236 6.88h7.234l-5.852 4.252 2.235 6.88-5.853-4.252-5.852 4.252 2.235-6.88-5.852-4.252h7.234l2.235-6.88z" fill="#fff"/></svg>