<svg xmlns="http://www.w3.org/2000/svg" width="129" height="32" fill="none" xmlns:v="https://vecta.io/nano"><path d="M32.971 11.841v1.152h2.523 2.523v6.692 6.692h1.316 1.316v-6.692-6.692h2.523 2.523v-1.152-1.152h-6.363-6.362v1.152zm64.939 0v1.152h1.207 1.207v-1.152-1.152h-1.207-1.207v1.152zm4.722 6.692v7.844h1.262 1.261v-7.844-7.844h-1.261-1.262v7.844zm-24.597-5.246l-.032 1.733-.9.033-.91.033v.867.878h.921.933l.032 3.971c.033 3.862.044 3.993.274 4.476.286.57.768.933 1.459 1.086.56.132 1.701.154 2.457.055l.505-.077v-.91-.911l-.593.066c-.34.033-.757 0-.998-.077-.68-.23-.713-.395-.713-4.279V16.83h1.152 1.153v-.878-.867l-1.119-.033-1.13-.033-.033-1.733-.032-1.722h-1.196-1.195l-.033 1.722zm43.247.033v1.755h-.931-.933v.878.878h.921.922l.055 3.861.175 4.278c.186.57.593 1.02 1.131 1.24.558.219 1.897.329 2.763.23l.615-.077v-.9-.899h-.833c-.78 0-.846-.022-1.098-.307l-.263-.307v-3.565-3.554h1.097H126v-.878-.878h-1.097-1.097V13.32v-1.755h-1.262-1.262v1.755zm-71.606 1.691c-.768.362-1.547 1.097-1.854 1.766l-.264.549v-1.13-1.119h-1.152-1.152v5.65 5.65h1.207 1.207V23.36c0-3.181.066-3.818.504-4.673.318-.625 1.096-1.338 1.667-1.503.241-.077.779-.132 1.217-.132h.779V15.9v-1.152h-.79c-.615 0-.933.066-1.371.263zm19.003-.157c-1.459.296-2.71 1.196-2.995 2.15-.274.944-.131 1.953.373 2.688.571.823 1.437 1.218 3.862 1.744 2.128.472 2.775.801 2.972 1.492.318 1.152-.614 1.821-2.523 1.821-1.469 0-2.38-.581-2.577-1.646l-.067-.351h-1.195-1.195v.384c0 .954.779 2.205 1.711 2.753 1.646.965 4.388 1.042 6.22.175 1.24-.581 1.844-1.305 2.063-2.479.23-1.24-.264-2.37-1.294-3.028-.647-.406-1.13-.57-3.192-1.042-1.799-.406-2.479-.702-2.721-1.174-.537-1.042.538-1.843 2.282-1.7.987.088 1.59.417 1.898 1.031l.219.472h1.251 1.24l-.077-.406c-.252-1.338-1.382-2.414-2.962-2.83-.691-.175-2.523-.208-3.291-.055zm20.309.114a3.21 3.21 0 0 0-1.733 1.24l-.319.439v-.779-.79h-1.152-1.152v7.789 7.789h1.207 1.207v-2.852l.054-2.852c.033 0 .23.197.45.439.856.943 2.676 1.481 4.213 1.218 1.788-.296 3.027-1.404 3.697-3.313.385-1.108.472-3.094.209-4.311-.471-2.117-1.777-3.587-3.631-4.081-.79-.219-2.281-.186-3.049.066zM91.5 16.92c.625.318 1.306 1.119 1.591 1.876.461 1.239.383 3.181-.176 4.289-.318.625-.965 1.251-1.525 1.481s-1.755.241-2.304.011c-1.13-.472-1.853-1.547-2.061-3.072-.319-2.216.58-4.245 2.106-4.728.669-.219 1.799-.154 2.369.143zm19.696-1.998c-1.261.34-2.49 1.207-3.126 2.227-1.097 1.733-1.229 4.564-.296 6.549 1.82 3.895 8.162 4.004 10.092.165.505-.987.703-1.876.703-3.137.01-2.984-1.503-5.145-4.038-5.814-.812-.208-2.545-.208-3.335.011zm2.656 1.843c1.557.559 2.347 2.051 2.248 4.223-.12 2.392-1.305 3.763-3.269 3.763-.889 0-1.371-.187-2.018-.79-2.063-1.909-1.416-6.428 1.03-7.186.637-.186 1.471-.198 2.009-.011zm-60.35 2.665c.033 4.289.044 4.377.296 5.024.351.9 1.163 1.7 1.986 1.953.977.296 2.051.351 2.808.142.812-.241 1.667-.79 2.019-1.316.154-.219.307-.395.363-.395.044 0 .076.34.076.768v.768h1.207 1.207v-5.65-5.65h-1.261-1.262v3.774c0 4.026-.032 4.278-.57 5.003-.395.549-1.229.889-2.161.889-1.294.011-1.941-.483-2.194-1.668-.077-.329-.121-2.03-.121-4.267v-3.73h-1.217-1.207l.032 4.355zm44.408 1.294v5.65h1.207 1.207v-5.65-5.65h-1.207-1.207v5.65z" fill="#1b1b1b"/><path d="M14.612.551c-.109.329-.165.647-.121.724.044.066.033.088-.022.055-.088-.044-.746 1.821-.757 2.139 0 .033-.033.099-.077.143s-.044.143-.01.23.01.154-.044.154c-.089 0-.45.954-.516 1.371-.011.055-.109.373-.22.68-.098.318-.153.636-.109.702.044.077.033.099-.033.066-.066-.044-.153.077-.197.285l-.11.406-.143.362c-.077.176-.109.362-.066.417.032.055 0 .099-.055.099-.066 0-.121.055-.121.121 0 .055.055.077.11.044.066-.033.109-.011.109.044 0 .066-.077.121-.186.121-.099 0-.143.033-.109.077.044.033.032.121-.022.187s-.208.483-.329.911l-.242.801-5.672.022-5.67.031.8.581c.439.318.856.549.922.505.076-.044.088-.033.044.044s.054.208.23.318l1.152.823c.461.351.899.636.955.636.066 0 .121.044.121.099 0 .132.79.625.932.581.067-.022.077 0 .033.044-.099.088.691.702.812.636.055-.033.088 0 .088.055 0 .066.208.252.472.417.252.165.493.34.526.395.033.044.143.055.23.022.121-.055.175-.011.165.132-.011.11.044.186.121.175.066-.022.131.011.131.055 0 .055.318.318.702.604l.713.527-.198.57-.208.625a.99.99 0 0 1-.066.219l-2.303 7.24c-.011.088-.044.186-.088.219s-.099.187-.132.329c-.022.154-.121.483-.219.735-.121.351-.132.472-.033.472.077 0 .044.055-.054.121-.11.055-.198.154-.198.219s.055.055.131-.011.373-.285.659-.483.483-.395.439-.439-.022-.066.033-.044c.142.044 1.371-.779 1.371-.921 0-.044.055-.088.11-.088.131 0 1.755-1.163 1.942-1.393.066-.088.165-.165.219-.165.198-.011 1.01-.68.944-.779-.033-.066-.011-.077.054-.033.121.066 1.47-.834 1.536-1.042.022-.055.088-.099.153-.099.055 0 .461-.263.889-.581l2.271-1.667 1.59-1.207c.066-.077.143-.143.198-.143.11-.022.888-.603.932-.713.022-.044.088-.077.143-.077.176 0 1.086-.735 1.01-.812-.033-.033.032-.066.153-.066s.351-.121.516-.274.318-.274.34-.274c.109 0 1.481-1.031 1.481-1.119 0-.044.077-.088.165-.088s.165-.055.165-.11c0-.066.054-.11.109-.11.22 0 1.646-1.119 1.58-1.229-.044-.077-.022-.088.044-.044.131.077 1.119-.559 1.119-.724 0-.044.066-.088.153-.088.077 0 .23-.11.329-.252.099-.132.153-.176.109-.088s.165-.033.461-.252c.296-.23.526-.461.504-.527-.011-.055.022-.077.077-.044.066.044.56-.263 1.119-.669l1.009-.746-5.66-.033-5.661-.022-.889-2.776-.987-2.819c-.044-.033-.077-.132-.077-.23s-.066-.406-.142-.691c-.121-.439-.165-.483-.307-.373-.143.121-.154.11-.044-.088.131-.252-.033-1.031-.22-1.031-.054 0-.077-.044-.044-.099.066-.099-.131-.79-.252-.889-.033-.033-.066-.121-.077-.197-.032-.428-.054-.472-.175-.395-.077.044-.088.033-.044-.055.076-.121-.099-.856-.252-1.02-.033-.044-.154.197-.264.527zm6.186 19.579l-.548.175c-.088.033-.208.055-.264.044-.044-.011-.153.044-.241.11-.088.077-.187.099-.22.066s-.219-.011-.405.055l-.461.132-2.249.636c0 .044-.066.055-.143.022-.088-.033-.296.011-.472.077-.296.121-.384.154-.647.186-.054.011.307.318.79.68.603.439.965.636 1.097.592.143-.044.153-.033.054.033-.098.077.23.384 1.24 1.119.768.548 1.437.976 1.491.932.055-.033.088 0 .077.088-.022.077.055.132.153.132.11-.011.176.022.143.066s.121.219.329.373c.209.165.384.274.384.241s.154.088.341.252a3.38 3.38 0 0 0 .625.461 1.77 1.77 0 0 1 .427.318c.076.088.143.132.143.088s.121.044.274.198.329.241.406.197.088-.033.044.044c-.077.121.066.186.296.143.055-.011.066.022.033.077s.098.209.274.34l.34.252-.077-.252c-.044-.143-.131-.384-.197-.538a1.28 1.28 0 0 1-.099-.362c.011-.044-.044-.11-.131-.143-.077-.033-.131-.143-.099-.241.022-.11-.011-.34-.088-.516l-.153-.494c-.044-.395-.439-1.382-.593-1.514-.099-.088-.109-.121-.032-.077.142.077.186-.077.054-.208-.087-.088-.098-.143-.131-.461 0-.099-.066-.132-.143-.088s-.087.033-.044-.044c.087-.154-.45-1.986-.659-2.227-.088-.099-.12-.198-.088-.241.044-.033.033-.154-.011-.263-.099-.23-.132-.318-.154-.472-.011-.132-.153-.132-.669.011z" fill="#00b67a"/><path d="M20.49 17.363l.789 2.759-6.701 1.577 5.912-4.336z" fill="#01522c"/></svg>