<?xml version="1.0" encoding="utf-8"?>
<!-- Generator: Adobe Illustrator 27.0.0, SVG Export Plug-In . SVG Version: 6.00 Build 0)  -->
<svg version="1.1" id="Layer_1" xmlns="http://www.w3.org/2000/svg" xmlns:xlink="http://www.w3.org/1999/xlink" x="0px" y="0px"
	 viewBox="0 0 512 512" style="enable-background:new 0 0 512 512;" xml:space="preserve">
<style type="text/css">
	.st0{fill:#FFB743;}
	.st1{fill:#FBC02E;}
</style>
<g id="Layer_1_00000183208365675027250790000008472441143723583368_">
	<g>
		<g>
			<path class="st0" d="M45.4,335.6c-9.7-63.3-19.5-126.5-29.2-189.8c-2.2-14,13.8-23.6,25.1-15.1c30.3,22.7,60.6,45.5,91,68.2
				c10,7.5,24.2,5.1,31.1-5.3l75.7-113.6c8-12,25.6-12,33.6,0l75.7,113.6c6.9,10.4,21.1,12.8,31.1,5.3c30.3-22.7,60.6-45.5,91-68.2
				c11.4-8.5,27.3,1.1,25.2,15.1c-9.7,63.3-19.5,126.5-29.2,189.8H45.4z"/>
			<path class="st1" d="M444.6,440.9H67.4c-12.1,0-22-9.8-22-22v-48.2h421.2V419C466.6,431.1,456.8,440.9,444.6,440.9z"/>
		</g>
	</g>
</g>
</svg>
