<svg xmlns="http://www.w3.org/2000/svg" width="32" height="32" fill="#fff" xmlns:v="https://vecta.io/nano"><path d="M26.275 0H5.725C2.568 0 0 2.568 0 5.725v20.551C0 29.432 2.568 32 5.725 32h20.551C29.432 32 32 29.432 32 26.275V5.725C32 2.568 29.432 0 26.275 0zm3.85 26.275c0 2.123-1.727 3.85-3.85 3.85H5.725c-2.123 0-3.85-1.727-3.85-3.85V5.725c0-2.123 1.727-3.85 3.85-3.85h20.551c2.123 0 3.85 1.727 3.85 3.85v20.55zM27.047 7.03H12.768a2.95 2.95 0 0 0-5.584 0H4.955a.94.94 0 0 0-.937.938.94.94 0 0 0 .938.938h2.229a2.95 2.95 0 0 0 5.584 0h14.279a.94.94 0 0 0 .938-.937.94.94 0 0 0-.938-.937zM9.976 9.038a1.071 1.071 0 1 1 0-2.142 1.071 1.071 0 1 1 0 2.142zm17.071 6.025h-2.229a2.95 2.95 0 0 0-5.584 0H4.955a.94.94 0 0 0-.937.937.94.94 0 0 0 .938.938h14.279a2.95 2.95 0 0 0 5.584 0h2.229a.94.94 0 0 0 .938-.937.94.94 0 0 0-.938-.937zm-5.021 2.008a1.071 1.071 0 1 1 0-2.142 1.071 1.071 0 1 1 0 2.142zm5.021 6.025H16.785a2.95 2.95 0 0 0-5.584 0H4.955a.94.94 0 0 0-.937.938.94.94 0 0 0 .938.938h6.246a2.95 2.95 0 0 0 5.584 0h10.262a.94.94 0 0 0 .938-.937.94.94 0 0 0-.938-.937zm-13.054 2.008a1.071 1.071 0 1 1 1.071-1.071c0 .59-.48 1.071-1.071 1.071z"/></svg>