<svg xmlns="http://www.w3.org/2000/svg" width="31" height="32" fill="none" xmlns:v="https://vecta.io/nano"><g clip-path="url(#A)" fill="#fff"><path d="M30.963 2.389A2.49 2.49 0 0 0 28.611.038c-2.565-.14-7.584-.004-12.383 2.478-2.447 1.266-5.034 3.411-7.099 5.887l-.075.092-4.686.362c-.771.06-1.458.464-1.885 1.109l-3.197 4.836c-.324.489-.375 1.102-.138 1.638s.725.91 1.305 1l3.948.612-.041.23c-.131.786.129 1.595.697 2.162l5.499 5.5a2.49 2.49 0 0 0 1.759.73c.134 0 .269-.011.404-.034l.23-.041.611 3.948c.09.58.464 1.068 1 1.305a1.71 1.71 0 0 0 1.638-.137l4.836-3.197c.645-.427 1.049-1.114 1.109-1.885l.362-4.686.092-.076c2.476-2.065 4.621-4.652 5.887-7.099 2.482-4.799 2.618-9.819 2.478-12.383zM20 26.954l-4.626 3.058-.596-3.848c1.955-.575 3.889-1.495 5.731-2.729l-.236 3.053a.61.61 0 0 1-.274.466zm-8.118-2.336l-5.5-5.5c-.14-.14-.205-.338-.173-.527a16.13 16.13 0 0 1 .732-2.785l8.252 8.252a16.25 16.25 0 0 1-2.783.734.61.61 0 0 1-.527-.173zm-7.37-13.892l3.053-.236c-1.233 1.842-2.154 3.776-2.729 5.731l-3.848-.596L4.046 11a.61.61 0 0 1 .465-.274zm16.885 9.705c-1.515 1.263-2.985 2.177-4.34 2.838L7.73 13.943c.866-1.769 1.923-3.242 2.839-4.339 1.911-2.291 4.288-4.267 6.521-5.422 4.405-2.278 9.045-2.401 11.42-2.272.314.017.564.267.581.581.129 2.374.007 7.015-2.272 11.42-1.155 2.233-3.131 4.61-5.422 6.521zm-.477-5.666a4.67 4.67 0 0 0 3.314-1.371c.885-.885 1.373-2.062 1.373-3.314s-.488-2.429-1.373-3.314c-1.828-1.828-4.801-1.828-6.629 0-.885.885-1.373 2.062-1.373 3.314s.488 2.429 1.373 3.314a4.67 4.67 0 0 0 3.314 1.371zm-1.989-6.674c.548-.548 1.268-.822 1.989-.822s1.44.274 1.989.822c.531.531.824 1.237.824 1.989s-.293 1.458-.824 1.989c-1.096 1.097-2.881 1.096-3.977 0-.531-.531-.824-1.237-.824-1.989s.293-1.458.824-1.989zM-.043 26.371a.93.93 0 0 0 .663-.275l3.061-3.061a.94.94 0 0 0 0-1.326.94.94 0 0 0-1.326 0L-.706 24.77a.94.94 0 0 0 0 1.326c.183.183.423.275.663.275zm6.528-1.856a.94.94 0 0 0-1.326 0L-.725 30.4a.94.94 0 0 0 0 1.326c.183.183.423.275.663.275a.93.93 0 0 0 .663-.275l5.885-5.885a.94.94 0 0 0 0-1.326zm1.479 2.805l-3.06 3.06a.94.94 0 0 0 0 1.326c.183.183.423.275.663.275a.93.93 0 0 0 .663-.275l3.061-3.061a.94.94 0 0 0 0-1.326.94.94 0 0 0-1.326 0z"/></g><defs><clipPath id="A"><path fill="#fff" transform="translate(-1)" d="M0 0h32v32H0z"/></clipPath></defs></svg>