<svg xmlns="http://www.w3.org/2000/svg" width="32" height="32" fill="none" xmlns:v="https://vecta.io/nano"><g clip-path="url(#A)" fill="#fff"><path d="M31.648 5.044a1.21 1.21 0 0 0-1.714-.003l-9.204 9.166-2.66-2.66a1.21 1.21 0 0 0-1.714 0L5.568 22.335a1.21 1.21 0 0 0 0 1.714c.236.237.547.355.857.355s.621-.118.857-.355l9.931-9.93 2.658 2.658a1.21 1.21 0 0 0 1.712.002l10.061-10.02c.474-.472.476-1.24.004-1.714zm-.901 23.078H2.424V2.667a1.212 1.212 0 0 0-2.424 0v26.667a1.21 1.21 0 0 0 1.212 1.212h29.535a1.212 1.212 0 1 0 0-2.424z"/><path d="M30.787 4.646h-9.091a1.21 1.21 0 0 0 0 2.424h7.879v7.879c0 .669.543 1.212 1.212 1.212S32 15.619 32 14.95V5.859a1.21 1.21 0 0 0-1.212-1.212z"/></g><defs><clipPath id="A"><path fill="#fff" d="M0 0h32v32H0z"/></clipPath></defs></svg>