<svg xmlns="http://www.w3.org/2000/svg" width="32" height="32" fill="none" xmlns:v="https://vecta.io/nano"><g clip-path="url(#A)" fill="#fff"><path d="M29.409 8.239l-.032-2.47a1.12 1.12 0 0 0-1.12-1.12c-4.79 0-8.437-1.377-11.477-4.332a1.12 1.12 0 0 0-1.562 0C12.178 3.273 8.531 4.65 3.741 4.65a1.12 1.12 0 0 0-1.12 1.12l-.032 2.47c-.154 8.04-.364 19.051 13.042 23.698a1.12 1.12 0 0 0 .734 0C29.772 27.291 29.562 16.28 29.409 8.239zm-13.41 21.452C4.501 25.515 4.675 16.365 4.829 8.283l.024-1.416c4.486-.189 8.074-1.549 11.145-4.224 3.072 2.675 6.66 4.035 11.146 4.224l.024 1.415c.154 8.083.328 17.233-11.171 21.409zm3.857-17.582l-5.406 5.406-2.307-2.307a1.12 1.12 0 1 0-1.584 1.584l3.099 3.099c.219.219.505.328.792.328s.573-.109.792-.328l6.198-6.198a1.12 1.12 0 0 0-1.584-1.584z"/></g><defs><clipPath id="A"><path fill="#fff" d="M0 0h32v32H0z"/></clipPath></defs></svg>