<svg width="18" height="13" viewBox="0 0 18 13" fill="none" xmlns="http://www.w3.org/2000/svg">
<path d="M0.1875 8.48828H17.9269V12.622H0.1875V8.48828Z" fill="#11892E"/>
<path d="M0.1875 0.373047H17.9269V4.50712H0.1875V0.373047Z" fill="#F2963B"/>
<path d="M0.1875 4.50781H17.928V8.48845H0.1875V4.50781Z" fill="white"/>
<path d="M10.6685 6.27897C10.5513 5.35699 9.73439 4.70768 8.84421 4.82904C7.953 4.95088 7.32665 5.7964 7.44377 6.71837C7.56095 7.64034 8.37777 8.28912 9.26892 8.16829C10.1591 8.04639 10.7856 7.201 10.6685 6.27897ZM10.4759 6.60763C10.4321 6.60285 10.3914 6.63445 10.3863 6.67984C10.3801 6.72522 10.4096 6.76685 10.4535 6.7737C10.4473 6.808 10.4392 6.84235 10.431 6.87604L9.68752 6.6239L9.33514 6.55262C9.33702 6.54207 9.33923 6.53158 9.3402 6.52096L9.69654 6.54678L10.4788 6.503C10.479 6.53797 10.4769 6.57273 10.4759 6.60763ZM7.63736 6.38971C7.68111 6.39448 7.72084 6.36227 7.72695 6.31749C7.73311 6.27211 7.70254 6.23096 7.65872 6.22309C7.66482 6.18934 7.673 6.15505 7.68111 6.12129L8.42464 6.37343L8.77806 6.44464C8.77605 6.45466 8.77397 6.46521 8.773 6.47631L8.41542 6.45049L7.63424 6.49426C7.63424 6.45937 7.63522 6.42454 7.63736 6.38971ZM7.65872 6.7737C7.70254 6.76685 7.73311 6.72516 7.72695 6.67984C7.72084 6.63445 7.68111 6.60278 7.63736 6.60763C7.63528 6.57273 7.63424 6.5375 7.63424 6.5032L8.41542 6.54698L8.77397 6.52116C8.77501 6.52647 8.77397 6.53171 8.77501 6.5375C8.77501 6.54281 8.77702 6.54745 8.77806 6.55283L8.42464 6.6241L7.68111 6.87624C7.673 6.84235 7.66579 6.80853 7.65872 6.7737ZM9.69674 6.45049L9.33923 6.47631C9.33819 6.47106 9.33923 6.46575 9.33819 6.45997C9.33819 6.45473 9.33618 6.44941 9.33514 6.44464L9.68752 6.37343L10.431 6.12129C10.4392 6.15505 10.4473 6.18934 10.4535 6.22363C10.4096 6.23102 10.3801 6.27217 10.3863 6.31749C10.3914 6.36234 10.431 6.39448 10.4749 6.38971C10.4768 6.42454 10.479 6.45984 10.479 6.49419L9.69674 6.45049ZM10.3996 6.01324C10.4098 6.04592 10.4209 6.07913 10.4302 6.11289L9.66324 6.28011L9.32507 6.40087C9.32098 6.39085 9.31592 6.38137 9.31196 6.37135L9.63487 6.20836L10.2899 5.7658C10.3072 5.79586 10.3225 5.82645 10.3376 5.85812C10.298 5.87708 10.2785 5.92509 10.2957 5.96732C10.3119 6.009 10.3588 6.02951 10.3996 6.01324ZM10.1205 5.65345C10.1469 5.68935 10.1969 5.69614 10.2315 5.67032C10.2518 5.69883 10.2691 5.72835 10.2855 5.75841L9.5878 6.12499L9.29041 6.33282C9.28417 6.32435 9.27918 6.31487 9.2721 6.30694L9.54197 6.06326L10.0644 5.45987C10.0878 5.48468 10.1114 5.50996 10.1337 5.53692C10.0991 5.56584 10.094 5.61707 10.1205 5.65345ZM9.87293 5.39653C9.90753 5.4245 9.95752 5.41764 9.98505 5.38281C10.0106 5.40547 10.0351 5.42921 10.0594 5.45402L9.47686 5.99522L9.24042 6.2758C9.2323 6.26895 9.22529 6.26209 9.21594 6.25631L9.41758 5.94775L9.77101 5.22514C9.79944 5.24256 9.82794 5.26158 9.85638 5.28108C9.83125 5.318 9.83729 5.36916 9.87293 5.39653ZM9.56943 5.21512C9.61014 5.23254 9.65597 5.21304 9.67428 5.17189C9.70485 5.18715 9.7353 5.20349 9.76393 5.2209L9.33618 5.89974L9.17933 6.23311C9.17005 6.22833 9.15992 6.22517 9.14979 6.22154L9.26782 5.86975L9.42784 5.07701C9.46043 5.08596 9.49302 5.09651 9.52561 5.10815C9.50938 5.1503 9.52873 5.19771 9.56943 5.21512ZM9.16096 5.02948C9.15687 5.07432 9.18744 5.11541 9.23127 5.12126C9.27509 5.12711 9.31475 5.09645 9.32189 5.05113C9.35565 5.05799 9.38818 5.06592 9.42064 5.07486L9.17725 5.84494L9.10896 6.21045C9.09766 6.20836 9.08864 6.20574 9.07741 6.20467L9.10292 5.83439L9.06027 5.02524C9.09377 5.02524 9.12837 5.02692 9.16096 5.02948ZM8.88089 5.12126C8.92471 5.11547 8.95627 5.07432 8.95224 5.02948C8.98483 5.02685 9.01943 5.02578 9.05209 5.02524L9.01028 5.83439L9.03469 6.20567C9.02963 6.20621 9.02456 6.20568 9.01943 6.20621C9.01437 6.20675 9.00827 6.20937 9.00314 6.21045L8.93491 5.84494L8.69146 5.07432C8.72405 5.06592 8.75664 5.05799 8.79027 5.05113C8.79741 5.09645 8.83714 5.12704 8.88089 5.12126ZM8.54279 5.21512C8.58454 5.19771 8.60291 5.1497 8.58759 5.107C8.61914 5.09591 8.65173 5.08596 8.68432 5.07695L8.84525 5.86969L8.96139 6.22047C8.95218 6.2247 8.94302 6.22941 8.93387 6.23418L8.77598 5.89981L8.3492 5.22043C8.3777 5.20356 8.40731 5.18715 8.43782 5.17189C8.45619 5.21304 8.50202 5.23254 8.54279 5.21512ZM8.24027 5.39653C8.27493 5.3691 8.28208 5.31746 8.25552 5.28048C8.28402 5.26091 8.31155 5.24249 8.34213 5.22507L8.69451 5.94768L8.89615 6.25624C8.88804 6.26202 8.87882 6.26841 8.8707 6.2752L8.63543 5.99515L8.05278 5.45395C8.07829 5.42914 8.10166 5.40541 8.12815 5.38275C8.1547 5.41764 8.20463 5.4245 8.24027 5.39653ZM7.99273 5.65345C8.01922 5.61707 8.01311 5.5659 7.97948 5.53692C7.99987 5.51057 8.02428 5.48522 8.04778 5.45987L8.57025 6.06326L8.84123 6.30747C8.83513 6.31541 8.82798 6.32435 8.82188 6.33282L8.52448 6.12499L7.82679 5.75841C7.84309 5.72835 7.8614 5.6983 7.88074 5.66979C7.91534 5.69614 7.96631 5.68929 7.99273 5.65345ZM7.81654 5.96725C7.83387 5.92509 7.8155 5.87708 7.77473 5.85805C7.78998 5.82692 7.8053 5.79579 7.82257 5.76574L8.47748 6.2083L8.80039 6.37128C8.7963 6.38076 8.79228 6.39132 8.78923 6.40134L8.44905 6.28004L7.68313 6.11336C7.69228 6.07907 7.70247 6.04639 7.7126 6.01317C7.75343 6.02951 7.80024 6.009 7.81654 5.96725ZM7.71266 6.98416C7.70254 6.95148 7.69234 6.91773 7.68319 6.88397L8.44911 6.71682L8.78825 6.59653C8.79137 6.60648 8.79643 6.6161 8.80046 6.62558L8.47755 6.78917L7.82264 7.2316C7.8053 7.20161 7.79005 7.17101 7.77479 7.13928C7.81556 7.12085 7.83387 7.07231 7.8166 7.03015C7.80024 6.98786 7.75343 6.96728 7.71266 6.98416ZM7.99273 7.34395C7.96631 7.30805 7.91534 7.30119 7.88068 7.32761C7.86133 7.2985 7.84302 7.26905 7.82673 7.23899L8.52442 6.87241L8.82182 6.66404C8.82792 6.67305 8.83402 6.68199 8.84116 6.69046L8.57019 6.93413L8.04772 7.53699C8.02428 7.51225 8.00084 7.48697 7.97942 7.46047C8.01318 7.43143 8.01928 7.38033 7.99273 7.34395ZM8.24027 7.60073C8.20463 7.57276 8.15477 7.57969 8.12822 7.61445C8.1027 7.59179 8.07829 7.56812 8.05284 7.54324L8.6355 7.00211L8.87181 6.72092C8.87992 6.72825 8.8881 6.73511 8.89622 6.74042L8.69457 7.04898L8.34219 7.77206C8.31265 7.75464 8.28409 7.73568 8.25559 7.71611C8.28201 7.67981 8.27493 7.62817 8.24027 7.60073ZM8.54279 7.7816C8.50202 7.76473 8.45619 7.78369 8.43788 7.82531C8.4073 7.80998 8.37777 7.7931 8.34927 7.77629L8.77605 7.09746L8.93393 6.76355C8.94309 6.76832 8.95328 6.77196 8.96243 6.77518L8.84525 7.12744L8.68432 7.92018C8.65173 7.91124 8.62018 7.90122 8.58759 7.88959C8.60291 7.84703 8.5835 7.79956 8.54279 7.7816ZM8.95224 7.96785C8.95633 7.92301 8.92471 7.88199 8.88089 7.87607C8.83714 7.86975 8.79741 7.90142 8.79027 7.94573C8.75657 7.93941 8.72398 7.93148 8.69146 7.92254L8.93491 7.15246L9.00314 6.78695C9.01437 6.78897 9.02456 6.79159 9.03469 6.79273L9.01028 7.16248L9.05209 7.97216C9.01839 7.97209 8.98483 7.97101 8.95224 7.96785ZM9.23127 7.87607C9.18744 7.88192 9.15687 7.92247 9.16096 7.96785C9.12733 7.96994 9.09377 7.97162 9.06014 7.97162L9.10285 7.16248L9.07728 6.79119C9.08234 6.79065 9.08864 6.79172 9.09253 6.79065C9.09747 6.79011 9.10376 6.78803 9.10883 6.78695L9.17712 7.15246L9.42051 7.92254C9.38792 7.93148 9.35533 7.93941 9.32176 7.94573C9.31482 7.90142 9.27509 7.86975 9.23127 7.87607ZM9.56943 7.7816C9.52866 7.79956 9.50932 7.84703 9.52561 7.88966C9.49302 7.90122 9.46043 7.91124 9.42784 7.92025L9.26782 7.12751L9.15076 6.7768C9.15992 6.77256 9.16894 6.76785 9.1792 6.76261L9.33605 7.09746L9.7638 7.77629C9.73537 7.79371 9.70472 7.81005 9.67415 7.82531C9.65597 7.78382 9.61014 7.76473 9.56943 7.7816ZM9.87293 7.60073C9.83729 7.62817 9.83119 7.67981 9.85664 7.71685C9.8282 7.73582 9.80068 7.75478 9.77114 7.77219L9.41784 7.04911L9.21633 6.74055C9.22555 6.73524 9.23451 6.72899 9.24185 6.7222L9.47712 7.00225L10.0597 7.54338C10.0353 7.56819 10.0108 7.59193 9.98531 7.61458C9.95746 7.57962 9.90753 7.57276 9.87293 7.60073ZM10.1205 7.34395C10.094 7.38033 10.1002 7.4315 10.1337 7.46C10.1124 7.4869 10.0878 7.51225 10.0644 7.53706L9.54197 6.9342L9.271 6.68999C9.27716 6.68159 9.28417 6.67312 9.29041 6.66411L9.5878 6.87248L10.2855 7.23852C10.2691 7.26911 10.2508 7.29863 10.2315 7.32768C10.1958 7.30112 10.1469 7.30798 10.1205 7.34395ZM10.2956 7.03015C10.2782 7.07231 10.2976 7.12032 10.3374 7.13934C10.3222 7.17041 10.3068 7.201 10.2896 7.2316L9.63468 6.78917L9.3128 6.62612C9.31689 6.61664 9.31995 6.60608 9.32404 6.59613L9.66324 6.71689L10.4293 6.88404C10.4211 6.91779 10.4098 6.95162 10.3998 6.98369C10.3588 6.96782 10.3119 6.9884 10.2956 7.03015Z" fill="#21296F"/>
</svg>
