<svg xmlns="http://www.w3.org/2000/svg" width="32" height="22" fill="none" xmlns:v="https://vecta.io/nano"><g clip-path="url(#A)"><path fill="#fff" d="M0 .477h32v21H0z"/><g clip-path="url(#B)"><g fill="#db2e2e"><path d="M32.109 6.246H0v1.447h32.109V6.246zm0-2.84H0v1.447h32.109V3.406zm0-2.929H0v1.447h32.109V.477zm0 8.699H0v1.447h32.109V9.176zm0 2.844H0v1.447h32.109V12.02z"/><use href="#C"/><path d="M32.109 17.883H0v1.447h32.109v-1.447zm0 2.867H0v1.447h32.109V20.75z"/></g><g fill="#fff"><path d="M32.109 4.828H0v1.447h32.109V4.828zm0-2.93H0v1.447h32.109V1.898zm0 5.856H0v1.447h32.109V7.754zm0 2.844H0v1.447h32.109v-1.447zm0 2.929H0v1.447h32.109v-1.447zm0 2.84H0v1.447h32.109v-1.447z"/></g><path d="M11.982.563H0v8.763h11.982V.563z" fill="#2e4593"/><g fill="#fff"><use href="#D"/><use href="#E"/><path d="M10.015 5.802l.094.355-.281-.266-.281.266.094-.355-.281-.178h.374l.094-.355.094.355h.374l-.281.178zm0 1.778l.094.355-.281-.266-.281.266.094-.355-.281-.178h.374l.094-.355.094.355h.374l-.281.178zM8.054 2.251l.094.355-.281-.178-.281.178.094-.355-.281-.178h.374l.094-.355.094.355h.374l-.281.178zm0 1.782l.094.355-.281-.266-.281.266.094-.355-.281-.178h.374l.094-.355.094.355h.374l-.281.178zm0 1.769l.094.355-.281-.266-.281.266.094-.355-.281-.178h.374l.094-.355.094.355h.374l-.281.178zm0 1.778l.094.355-.281-.266-.281.266.094-.355-.281-.178h.374l.094-.355.094.355h.374l-.281.178zM6.093 2.251l.094.355-.281-.178-.281.178.094-.355-.281-.178h.374l.094-.355.094.355h.374l-.281.178zm0 1.782l.094.355-.281-.266-.281.266.094-.355-.281-.178h.374l.094-.355.094.355h.374l-.281.178zm0 1.769l.094.355-.281-.266-.281.266.094-.355-.281-.178h.374l.094-.355.094.355h.374l-.281.178zm0 1.778l.094.355-.281-.266-.281.266.094-.355-.281-.178h.374l.094-.355.094.355h.374l-.281.178zM4.116 2.251l.094.355-.281-.178-.281.178.094-.355-.281-.178h.374l.094-.355.094.355h.374l-.281.178zm0 1.782l.094.355-.281-.266-.281.266.094-.355-.281-.178h.374l.094-.355.094.355h.374l-.281.178zm0 1.769l.094.355-.281-.266-.281.266.094-.355-.281-.178h.374l.094-.355.094.355h.374l-.281.178zm0 1.778l.094.355-.281-.266-.281.266.094-.355-.281-.178h.374l.094-.355.094.355h.374l-.281.178zM2.155 2.251l.094.355-.281-.178-.281.178.094-.355-.281-.178h.374l.094-.355.094.355h.374l-.281.178zm0 1.782l.094.355-.281-.266-.281.266.094-.355-.281-.178h.374l.094-.355.094.355h.374l-.281.178zm0 1.769l.094.355-.281-.266-.281.266.094-.355-.281-.178h.374l.094-.355.094.355h.374l-.281.178zm0 1.778l.094.355-.281-.266-.281.266.094-.355-.281-.178h.374l.094-.355.094.355h.374l-.281.178z"/><use href="#F"/><path d="M10.952 4.916l.187.355-.374-.266-.281.266.187-.355-.374-.178h.374l.094-.355.187.355h.374l-.374.178zm0 1.777l.187.355-.374-.266-.281.266.187-.355-.374-.178h.374l.094-.355.187.355h.374l-.374.178zm0 1.777l.187.355-.374-.266-.281.266.187-.355-.374-.178h.374l.094-.355.187.355h.374l-.374.178z"/><use href="#G"/><path d="M9.085 3.142l.094.355-.281-.266-.281.266.094-.355-.281-.178h.374l.094-.355.094.355h.374l-.281.178zm-.008 1.774l.094.355-.281-.266-.281.266.094-.355-.281-.178h.374l.094-.355.094.355h.374l-.281.178zm0 1.777l.094.355-.281-.266-.281.266.094-.355-.281-.178h.374l.094-.355.094.355h.374l-.281.178zm0 1.777l.094.355-.281-.266-.281.266.094-.355-.281-.178h.374l.094-.355.094.355h.374l-.281.178zm.008-7.105l.094.355-.281-.178-.281.178.094-.355-.281-.178h.374l.094-.355.094.355h.374l-.281.178zM7.022 3.142l.094.355-.281-.266-.281.266.094-.355-.281-.178h.374l.094-.355.094.355h.374l-.281.178zm0 1.774l.094.355-.281-.266-.281.266.094-.355-.281-.178h.374l.094-.355.094.355h.374l-.281.178zm0 1.777l.094.355-.281-.266-.281.266.094-.355-.281-.178h.374l.094-.355.094.355h.374l-.281.178zm0 1.777l.094.355-.281-.266-.281.266.094-.355-.281-.178h.374l.094-.355.094.355h.374l-.281.178zm0-7.105l.094.355-.281-.178-.281.178.094-.355-.281-.178h.374l.094-.355.094.355h.374l-.281.178zM5.046 3.142l.094.355-.281-.266-.281.266.094-.355-.281-.178h.374l.094-.355.094.355h.374l-.281.178zm0 1.774l.094.355-.281-.266-.281.266.094-.355-.281-.178h.374l.094-.355.094.355h.374l-.281.178zm0 1.777l.094.355-.281-.266-.281.266.094-.355-.281-.178h.374l.094-.355.094.355h.374l-.281.178zm0 1.777l.094.355-.281-.266-.281.266.094-.355-.281-.178h.374l.094-.355.094.355h.374l-.281.178zm0-7.105l.094.355-.281-.178-.281.178.094-.355-.281-.178h.374l.094-.355.094.355h.374l-.281.178zM3.093 3.142l.187.355-.374-.266-.281.266.187-.355-.374-.178h.374l.094-.355.187.355h.374l-.374.178zm0 1.774l.187.355-.374-.266-.281.266.187-.355-.374-.178h.374l.094-.355.187.355h.374l-.374.178zm0 1.777l.187.355-.374-.266-.281.266.187-.355-.374-.178h.374l.094-.355.187.355h.374l-.374.178zm0 1.777l.187.355-.374-.266-.281.266.187-.355-.374-.178h.374l.094-.355.187.355h.374l-.374.178zm0-7.105l.187.355-.374-.178-.281.178.187-.355-.374-.178h.374l.094-.355.187.355h.374l-.374.178z"/><use href="#H"/><path d="M1.124 4.916l.187.355-.281-.266-.374.266.187-.355-.374-.178h.374l.094-.355.187.355h.374l-.374.178zm0 1.777l.187.355-.281-.266-.374.266.187-.355-.374-.178h.374l.094-.355.187.355h.374l-.374.178zm0 1.777l.187.355-.281-.266-.374.266.187-.355-.374-.178h.374l.094-.355.187.355h.374l-.374.178zm0-7.105l.187.355-.281-.178-.374.178.187-.355-.374-.178h.374L.937.832l.187.355h.374l-.374.178z"/></g></g></g><defs><clipPath id="A"><path fill="#fff" transform="translate(0 .477)" d="M0 0h32v21H0z"/></clipPath><clipPath id="B"><path fill="#fff" transform="translate(0 .477)" d="M0 0h32.109v21H0z"/></clipPath><path id="C" d="M32.109 14.945H0v1.447h32.109v-1.447z"/><path id="D" d="M10.015 2.251l.094.355-.281-.178-.281.178.094-.355-.281-.178h.374l.094-.355.094.355h.374l-.281.178z"/><path id="E" d="M10.015 4.033l.094.355-.281-.266-.281.266.094-.355-.281-.178h.374l.094-.355.094.355h.374l-.281.178z"/><path id="F" d="M10.952 3.142l.187.355-.374-.266-.281.266.187-.355-.374-.178h.374l.094-.355.187.355h.374l-.374.178z"/><path id="G" d="M10.952 1.365l.187.355-.374-.178-.281.178.187-.355-.374-.178h.374l.094-.355.187.355h.374l-.374.178z"/><path id="H" d="M1.124 3.142l.187.355-.281-.266-.374.266.187-.355-.374-.178h.374l.094-.355.187.355h.374l-.374.178z"/></defs></svg>