<svg width="15" height="15" viewBox="0 0 15 15" fill="none" xmlns="http://www.w3.org/2000/svg">
<path d="M14.0219 13.5839L11.1528 10.4571C12.0262 9.37831 12.552 8.00749 12.552 6.51447C12.552 3.05407 9.73638 0.238449 6.27599 0.238449C2.81559 0.238449 0 3.05404 0 6.51444C0 9.97483 2.81563 12.7905 6.27602 12.7905C7.76904 12.7905 9.13986 12.2646 10.2187 11.3912L13.0878 14.518C13.2166 14.6469 13.3857 14.7116 13.5548 14.7116C13.724 14.7116 13.8931 14.6469 14.0219 14.518C14.2802 14.2597 14.2802 13.8422 14.0219 13.5839ZM6.27602 11.4692C3.54363 11.4692 1.32128 9.24682 1.32128 6.51444C1.32128 3.78205 3.54363 1.55969 6.27602 1.55969C9.0084 1.55969 11.2308 3.78205 11.2308 6.51444C11.2308 9.24682 9.00837 11.4692 6.27602 11.4692Z" fill="#63798F"/>
</svg>
