<svg width="32" height="22" viewBox="0 0 32 22" fill="none" xmlns="http://www.w3.org/2000/svg">
<g clip-path="url(#clip0_377_1025)">
<path d="M0 0.820312H32V21.8203H0V0.820312Z" fill="white"/>
<path d="M0 0.820312H32V7.82031H0V0.820312Z" fill="#F2963A"/>
<path d="M0 14.8203H32V21.8203H0V14.8203Z" fill="#31892D"/>
<path d="M15.9959 14.5609C17.8123 14.5609 19.2848 13.1115 19.2848 11.3234C19.2848 9.53542 17.8123 8.08594 15.9959 8.08594C14.1795 8.08594 12.707 9.53542 12.707 11.3234C12.707 13.1115 14.1795 14.5609 15.9959 14.5609Z" fill="#2C2C6F"/>
<path d="M15.9987 14.1195C17.5697 14.1195 18.8432 12.8659 18.8432 11.3195C18.8432 9.77313 17.5697 8.51953 15.9987 8.51953C14.4278 8.51953 13.1543 9.77313 13.1543 11.3195C13.1543 12.8659 14.4278 14.1195 15.9987 14.1195Z" fill="white"/>
<path d="M16.0005 11.8778C16.3147 11.8778 16.5694 11.6271 16.5694 11.3178C16.5694 11.0085 16.3147 10.7578 16.0005 10.7578C15.6863 10.7578 15.4316 11.0085 15.4316 11.3178C15.4316 11.6271 15.6863 11.8778 16.0005 11.8778Z" fill="#2C2C6F"/>
<path d="M15.9953 8.52759L16.102 10.2125L15.9953 11.0468L15.8887 10.2125L15.9953 8.52759Z" fill="#2C2C6F"/>
<path d="M16.3507 8.67296C16.4188 8.68179 16.4813 8.63457 16.4903 8.56749C16.4993 8.50042 16.4513 8.43888 16.3831 8.43005C16.315 8.42122 16.2525 8.46844 16.2435 8.53551C16.2346 8.60259 16.2825 8.66413 16.3507 8.67296Z" fill="#2C2C6F"/>
<path d="M15.9968 14.1287L15.8902 12.4437L15.9968 11.6095L16.1035 12.4437L15.9968 14.1287Z" fill="#2C2C6F"/>
<path d="M15.6415 13.9833C15.5734 13.9745 15.5109 14.0217 15.5019 14.0888C15.4929 14.1558 15.5409 14.2174 15.609 14.2262C15.6772 14.235 15.7397 14.1878 15.7487 14.1207C15.7576 14.0537 15.7097 13.9921 15.6415 13.9833Z" fill="#2C2C6F"/>
<path d="M16.7481 8.62044L16.4047 10.2753L16.0828 11.0547L16.2015 10.2219L16.7481 8.62044Z" fill="#2C2C6F"/>
<path d="M17.0516 8.85569C17.1149 8.88134 17.1877 8.85128 17.2142 8.78854C17.2407 8.72579 17.211 8.65413 17.1477 8.62848C17.0845 8.60283 17.0117 8.63289 16.9851 8.69564C16.9586 8.75838 16.9884 8.83004 17.0516 8.85569Z" fill="#2C2C6F"/>
<path d="M15.2597 14.0358L15.6031 12.381L15.925 11.6015L15.8063 12.4343L15.2597 14.0358Z" fill="#2C2C6F"/>
<path d="M14.9562 13.8006C14.893 13.7749 14.8202 13.805 14.7936 13.8677C14.7671 13.9305 14.7968 14.0021 14.8601 14.0278C14.9233 14.0534 14.9961 14.0234 15.0227 13.9606C15.0492 13.8979 15.0195 13.8262 14.9562 13.8006Z" fill="#2C2C6F"/>
<path d="M17.4198 8.89973L16.6547 10.4116L16.1388 11.0823L16.4714 10.3074L17.4198 8.89973Z" fill="#2C2C6F"/>
<path d="M17.6533 9.20286C17.7076 9.24387 17.7857 9.23346 17.8277 9.1796C17.8698 9.12575 17.8598 9.04885 17.8054 9.00784C17.7511 8.96684 17.673 8.97725 17.6309 9.0311C17.5889 9.08496 17.5989 9.16186 17.6533 9.20286Z" fill="#2C2C6F"/>
<path d="M14.5802 13.7526L15.3453 12.2408L15.8612 11.5701L15.5286 12.3449L14.5802 13.7526Z" fill="#2C2C6F"/>
<path d="M14.3467 13.4495C14.2924 13.4085 14.2143 13.4189 14.1723 13.4727C14.1302 13.5266 14.1402 13.6035 14.1946 13.6445C14.2489 13.6855 14.327 13.6751 14.3691 13.6212C14.4111 13.5674 14.4011 13.4905 14.3467 13.4495Z" fill="#2C2C6F"/>
<path d="M18.0125 9.35503L16.8764 10.6209L16.2019 11.1373L16.7265 10.4733L18.0125 9.35503Z" fill="#2C2C6F"/>
<path d="M18.1586 9.70366C18.2003 9.75717 18.2784 9.76703 18.3331 9.72568C18.3878 9.68433 18.3984 9.60743 18.3567 9.55392C18.315 9.50041 18.2369 9.49055 18.1822 9.5319C18.1275 9.57325 18.117 9.65015 18.1586 9.70366Z" fill="#2C2C6F"/>
<path d="M13.9954 13.3051L15.1314 12.0393L15.8059 11.5229L15.2813 12.1869L13.9954 13.3051Z" fill="#2C2C6F"/>
<path d="M13.8492 12.9565C13.8075 12.903 13.7294 12.8931 13.6747 12.9345C13.62 12.9758 13.6094 13.0527 13.6511 13.1062C13.6928 13.1597 13.7709 13.1696 13.8256 13.1283C13.8803 13.0869 13.8908 13.01 13.8492 12.9565Z" fill="#2C2C6F"/>
<path d="M18.4815 9.91596L17.0535 10.8491L16.2661 11.1742L16.946 10.6659L18.4815 9.91596Z" fill="#2C2C6F"/>
<path d="M18.5394 10.2926C18.5659 10.3553 18.6387 10.3853 18.702 10.3596C18.7653 10.3339 18.7952 10.2623 18.7687 10.1996C18.7422 10.1369 18.6694 10.1069 18.6061 10.1326C18.5428 10.1583 18.5129 10.2299 18.5394 10.2926Z" fill="#2C2C6F"/>
<path d="M13.5361 12.7248L14.9641 11.7916L15.7515 11.4666L15.0716 11.9749L13.5361 12.7248Z" fill="#2C2C6F"/>
<path d="M13.4781 12.3481C13.4516 12.2854 13.3788 12.2554 13.3155 12.2811C13.2522 12.3068 13.2224 12.3785 13.2489 12.4412C13.2754 12.5039 13.3482 12.5339 13.4115 12.5082C13.4748 12.4825 13.5046 12.4108 13.4781 12.3481Z" fill="#2C2C6F"/>
<path d="M18.7447 10.5711L17.1195 11.1083L16.2732 11.2215L17.0638 10.9039L18.7447 10.5711Z" fill="#2C2C6F"/>
<path d="M18.6941 10.9463C18.7032 11.0135 18.7657 11.0609 18.8337 11.0523C18.9017 11.0436 18.9495 10.982 18.9403 10.9148C18.9312 10.8476 18.8687 10.8001 18.8007 10.8088C18.7327 10.8175 18.685 10.879 18.6941 10.9463Z" fill="#2C2C6F"/>
<path d="M13.2768 12.058L14.9019 11.5207L15.7483 11.4075L14.9577 11.7251L13.2768 12.058Z" fill="#2C2C6F"/>
<path d="M13.3274 11.6828C13.3182 11.6156 13.2557 11.5681 13.1877 11.5768C13.1198 11.5855 13.072 11.647 13.0811 11.7142C13.0903 11.7814 13.1528 11.8289 13.2208 11.8202C13.2888 11.8115 13.3365 11.75 13.3274 11.6828Z" fill="#2C2C6F"/>
<path d="M18.8656 11.3239L17.1548 11.4197L16.3072 11.316L17.1541 11.2175L18.8656 11.3239Z" fill="#2C2C6F"/>
<path d="M18.7151 11.6667C18.7064 11.7335 18.7547 11.7951 18.823 11.8041C18.8914 11.8131 18.9539 11.7662 18.9627 11.6993C18.9714 11.6325 18.9231 11.5709 18.8547 11.5619C18.7864 11.5529 18.7239 11.5998 18.7151 11.6667Z" fill="#2C2C6F"/>
<path d="M13.1578 11.317L14.8686 11.2212L15.7162 11.3249L14.8694 11.4233L13.1578 11.317Z" fill="#2C2C6F"/>
<path d="M13.2986 10.9742C13.3073 10.9073 13.259 10.8458 13.1906 10.8368C13.1223 10.8277 13.0598 10.8746 13.051 10.9415C13.0422 11.0084 13.0906 11.0699 13.1589 11.079C13.2273 11.088 13.2898 11.0411 13.2986 10.9742Z" fill="#2C2C6F"/>
<path d="M18.7693 12.0468L17.0883 11.7118L16.2973 11.3945L17.1435 11.5092L18.7693 12.0468Z" fill="#2C2C6F"/>
<path d="M18.5368 12.3476C18.5106 12.4101 18.5408 12.4817 18.6043 12.5076C18.6678 12.5335 18.7406 12.5039 18.7669 12.4414C18.7932 12.3789 18.763 12.3072 18.6994 12.2813C18.6359 12.2554 18.5631 12.2851 18.5368 12.3476Z" fill="#2C2C6F"/>
<path d="M13.2639 10.5979L14.9449 10.9328L15.7359 11.2501L14.8897 11.1354L13.2639 10.5979Z" fill="#2C2C6F"/>
<path d="M13.4964 10.2971C13.5226 10.2346 13.4924 10.1629 13.4289 10.137C13.3654 10.1111 13.2926 10.1408 13.2663 10.2033C13.2401 10.2657 13.2702 10.3374 13.3338 10.3633C13.3973 10.3892 13.4701 10.3596 13.4964 10.2971Z" fill="#2C2C6F"/>
<path d="M18.456 12.6971L16.9205 11.9472L16.2406 11.4389L17.028 11.7639L18.456 12.6971Z" fill="#2C2C6F"/>
<path d="M18.1509 12.9256C18.1089 12.9794 18.1189 13.0563 18.1733 13.0973C18.2276 13.1383 18.3057 13.1279 18.3477 13.0741C18.3898 13.0202 18.3798 12.9433 18.3254 12.9023C18.2711 12.8613 18.193 12.8717 18.1509 12.9256Z" fill="#2C2C6F"/>
<path d="M13.5303 9.89679L15.0659 10.6467L15.7458 11.155L14.9583 10.83L13.5303 9.89679Z" fill="#2C2C6F"/>
<path d="M13.8354 9.6683C13.8774 9.61444 13.8674 9.53754 13.8131 9.49654C13.7587 9.45553 13.6806 9.46595 13.6386 9.5198C13.5966 9.57365 13.6066 9.65055 13.6609 9.69156C13.7152 9.73257 13.7934 9.72215 13.8354 9.6683Z" fill="#2C2C6F"/>
<path d="M18.0139 13.3052L16.7283 12.1893L16.2053 11.5249L16.8802 12.0397L18.0139 13.3052Z" fill="#2C2C6F"/>
<path d="M17.6603 13.4476C17.6055 13.489 17.595 13.5659 17.6366 13.6194C17.6783 13.6729 17.7564 13.6827 17.8111 13.6413C17.8658 13.5999 17.8764 13.523 17.8347 13.4696C17.7931 13.4161 17.715 13.4062 17.6603 13.4476Z" fill="#2C2C6F"/>
<path d="M13.9744 9.30817L15.26 10.4241L15.7829 11.0885L15.1081 10.5737L13.9744 9.30817Z" fill="#2C2C6F"/>
<path d="M14.328 9.1658C14.3827 9.12444 14.3933 9.04754 14.3517 8.99404C14.31 8.94055 14.2319 8.93072 14.1772 8.97209C14.1225 9.01346 14.1119 9.09036 14.1535 9.14385C14.1952 9.19734 14.2733 9.20717 14.328 9.1658Z" fill="#2C2C6F"/>
<path d="M17.4209 13.7325L16.4729 12.3263L16.1421 11.5513L16.6583 12.2209L17.4209 13.7325Z" fill="#2C2C6F"/>
<path d="M17.0361 13.7821C16.9725 13.8081 16.9421 13.8798 16.9683 13.9422C16.9946 14.0046 17.0673 14.0341 17.1309 14.0081C17.1945 13.9821 17.2249 13.9105 17.1986 13.8481C17.1724 13.7856 17.0996 13.7561 17.0361 13.7821Z" fill="#2C2C6F"/>
<path d="M14.5869 8.89272L15.535 10.2989L15.8657 11.074L15.3495 10.4043L14.5869 8.89272Z" fill="#2C2C6F"/>
<path d="M14.9718 8.84314C15.0354 8.81715 15.0657 8.74549 15.0395 8.68308C15.0133 8.62067 14.9405 8.59115 14.8769 8.61713C14.8133 8.64312 14.783 8.71478 14.8092 8.77719C14.8354 8.8396 14.9082 8.86912 14.9718 8.84314Z" fill="#2C2C6F"/>
<path d="M16.7638 13.9882L16.2179 12.3882L16.1021 11.5551L16.4246 12.3336L16.7638 13.9882Z" fill="#2C2C6F"/>
<path d="M16.3833 13.9375C16.3151 13.9464 16.267 14.0079 16.2759 14.0749C16.2848 14.142 16.3473 14.1891 16.4156 14.1802C16.4838 14.1713 16.5318 14.1097 16.5229 14.0427C16.514 13.9757 16.4515 13.9286 16.3833 13.9375Z" fill="#2C2C6F"/>
<path d="M15.2714 8.5783L15.8173 10.1784L15.933 11.0114L15.6105 10.233L15.2714 8.5783Z" fill="#2C2C6F"/>
<path d="M15.6518 8.62903C15.72 8.62013 15.7681 8.5586 15.7592 8.49158C15.7503 8.42457 15.6878 8.37746 15.6196 8.38636C15.5514 8.39525 15.5033 8.45679 15.5122 8.5238C15.5211 8.59081 15.5836 8.63792 15.6518 8.62903Z" fill="#2C2C6F"/>
</g>
<defs>
<clipPath id="clip0_377_1025">
<rect width="32" height="21" fill="white" transform="translate(0 0.820312)"/>
</clipPath>
</defs>
</svg>
