<svg width="32" height="22" viewBox="0 0 32 22" fill="none" xmlns="http://www.w3.org/2000/svg">
<g clip-path="url(#clip0_377_1151)">
<rect width="32" height="21" transform="translate(0 0.492188)" fill="white"/>
<g clip-path="url(#clip1_377_1151)">
<path d="M32.1086 6.26172H0V7.7089H32.1086V6.26172Z" fill="#DB2E2E"/>
<path d="M32.1086 3.42188H0V4.86906H32.1086V3.42188Z" fill="#DB2E2E"/>
<path d="M32.1086 0.492188H0V1.93937H32.1086V0.492188Z" fill="#DB2E2E"/>
<path d="M32.1086 9.19141H0V10.6386H32.1086V9.19141Z" fill="#DB2E2E"/>
<path d="M32.1086 12.0352H0V13.4823H32.1086V12.0352Z" fill="#DB2E2E"/>
<path d="M32.1086 14.9609H0V16.4081H32.1086V14.9609Z" fill="#DB2E2E"/>
<path d="M32.1086 17.8984H0V19.3456H32.1086V17.8984Z" fill="#DB2E2E"/>
<path d="M32.1086 20.7656H0V22.2128H32.1086V20.7656Z" fill="#DB2E2E"/>
<path d="M32.1086 4.84375H0V6.29093H32.1086V4.84375Z" fill="white"/>
<path d="M32.1086 1.91406H0V3.36125H32.1086V1.91406Z" fill="white"/>
<path d="M32.1086 7.76953H0V9.21671H32.1086V7.76953Z" fill="white"/>
<path d="M32.1086 10.6133H0V12.0605H32.1086V10.6133Z" fill="white"/>
<path d="M32.1086 13.543H0V14.9902H32.1086V13.543Z" fill="white"/>
<path d="M32.1086 16.3828H0V17.83H32.1086V16.3828Z" fill="white"/>
<path d="M11.9822 0.578125H0V9.34113H11.9822V0.578125Z" fill="#2E4593"/>
<path d="M10.0147 2.26708L10.1083 2.62222L9.82743 2.44465L9.5466 2.62222L9.64021 2.26708L9.35938 2.08951H9.73382L9.82743 1.73438L9.92104 2.08951H10.2955L10.0147 2.26708Z" fill="white"/>
<path d="M10.0147 4.04833L10.1083 4.40347L9.82743 4.13711L9.5466 4.40347L9.64021 4.04833L9.35938 3.87076H9.73382L9.82743 3.51562L9.92104 3.87076H10.2955L10.0147 4.04833Z" fill="white"/>
<path d="M10.0147 5.81786L10.1083 6.173L9.82743 5.90665L9.5466 6.173L9.64021 5.81786L9.35938 5.64029H9.73382L9.82743 5.28516L9.92104 5.64029H10.2955L10.0147 5.81786Z" fill="white"/>
<path d="M10.0147 7.59521L10.1083 7.95034L9.82743 7.68399L9.5466 7.95034L9.64021 7.59521L9.35938 7.41764H9.73382L9.82743 7.0625L9.92104 7.41764H10.2955L10.0147 7.59521Z" fill="white"/>
<path d="M8.05176 2.26708L8.14537 2.62222L7.86454 2.44465L7.58371 2.62222L7.67732 2.26708L7.39648 2.08951H7.77093L7.86454 1.73438L7.95815 2.08951H8.33259L8.05176 2.26708Z" fill="white"/>
<path d="M8.05176 4.04833L8.14537 4.40347L7.86454 4.13711L7.58371 4.40347L7.67732 4.04833L7.39648 3.87076H7.77093L7.86454 3.51562L7.95815 3.87076H8.33259L8.05176 4.04833Z" fill="white"/>
<path d="M8.05176 5.81786L8.14537 6.173L7.86454 5.90665L7.58371 6.173L7.67732 5.81786L7.39648 5.64029H7.77093L7.86454 5.28516L7.95815 5.64029H8.33259L8.05176 5.81786Z" fill="white"/>
<path d="M8.05176 7.59521L8.14537 7.95034L7.86454 7.68399L7.58371 7.95034L7.67732 7.59521L7.39648 7.41764H7.77093L7.86454 7.0625L7.95815 7.41764H8.33259L8.05176 7.59521Z" fill="white"/>
<path d="M6.08887 2.26708L6.18248 2.62222L5.90165 2.44465L5.62082 2.62222L5.71443 2.26708L5.43359 2.08951H5.80804L5.90165 1.73438L5.99526 2.08951H6.3697L6.08887 2.26708Z" fill="white"/>
<path d="M6.08887 4.04833L6.18248 4.40347L5.90165 4.13711L5.62082 4.40347L5.71443 4.04833L5.43359 3.87076H5.80804L5.90165 3.51562L5.99526 3.87076H6.3697L6.08887 4.04833Z" fill="white"/>
<path d="M6.08887 5.81786L6.18248 6.173L5.90165 5.90665L5.62082 6.173L5.71443 5.81786L5.43359 5.64029H5.80804L5.90165 5.28516L5.99526 5.64029H6.3697L6.08887 5.81786Z" fill="white"/>
<path d="M6.08887 7.59521L6.18248 7.95034L5.90165 7.68399L5.62082 7.95034L5.71443 7.59521L5.43359 7.41764H5.80804L5.90165 7.0625L5.99526 7.41764H6.3697L6.08887 7.59521Z" fill="white"/>
<path d="M4.11621 2.26708L4.20983 2.62222L3.92899 2.44465L3.64816 2.62222L3.74177 2.26708L3.46094 2.08951H3.83538L3.92899 1.73438L4.0226 2.08951H4.39705L4.11621 2.26708Z" fill="white"/>
<path d="M4.11621 4.04833L4.20983 4.40347L3.92899 4.13711L3.64816 4.40347L3.74177 4.04833L3.46094 3.87076H3.83538L3.92899 3.51562L4.0226 3.87076H4.39705L4.11621 4.04833Z" fill="white"/>
<path d="M4.11621 5.81786L4.20983 6.173L3.92899 5.90665L3.64816 6.173L3.74177 5.81786L3.46094 5.64029H3.83538L3.92899 5.28516L4.0226 5.64029H4.39705L4.11621 5.81786Z" fill="white"/>
<path d="M4.11621 7.59521L4.20983 7.95034L3.92899 7.68399L3.64816 7.95034L3.74177 7.59521L3.46094 7.41764H3.83538L3.92899 7.0625L4.0226 7.41764H4.39705L4.11621 7.59521Z" fill="white"/>
<path d="M2.15137 2.26708L2.24498 2.62222L1.96415 2.44465L1.68332 2.62222L1.77693 2.26708L1.49609 2.08951H1.87054L1.96415 1.73438L2.05776 2.08951H2.4322L2.15137 2.26708Z" fill="white"/>
<path d="M2.15137 4.04833L2.24498 4.40347L1.96415 4.13711L1.68332 4.40347L1.77693 4.04833L1.49609 3.87076H1.87054L1.96415 3.51562L2.05776 3.87076H2.4322L2.15137 4.04833Z" fill="white"/>
<path d="M2.15137 5.81786L2.24498 6.173L1.96415 5.90665L1.68332 6.173L1.77693 5.81786L1.49609 5.64029H1.87054L1.96415 5.28516L2.05776 5.64029H2.4322L2.15137 5.81786Z" fill="white"/>
<path d="M2.15137 7.59521L2.24498 7.95034L1.96415 7.68399L1.68332 7.95034L1.77693 7.59521L1.49609 7.41764H1.87054L1.96415 7.0625L2.05776 7.41764H2.4322L2.15137 7.59521Z" fill="white"/>
<path d="M10.9502 3.15771L11.1374 3.51284L10.763 3.24649L10.4821 3.51284L10.6694 3.15771L10.2949 2.98014H10.6694L10.763 2.625L10.9502 2.98014H11.3246L10.9502 3.15771Z" fill="white"/>
<path d="M10.9502 4.93114L11.1374 5.28628L10.763 5.01993L10.4821 5.28628L10.6694 4.93114L10.2949 4.75357H10.6694L10.763 4.39844L10.9502 4.75357H11.3246L10.9502 4.93114Z" fill="white"/>
<path d="M10.9502 6.70849L11.1374 7.06362L10.763 6.79727L10.4821 7.06362L10.6694 6.70849L10.2949 6.53092H10.6694L10.763 6.17578L10.9502 6.53092H11.3246L10.9502 6.70849Z" fill="white"/>
<path d="M10.9502 8.48583L11.1374 8.84097L10.763 8.57462L10.4821 8.84097L10.6694 8.48583L10.2949 8.30826H10.6694L10.763 7.95312L10.9502 8.30826H11.3246L10.9502 8.48583Z" fill="white"/>
<path d="M10.9502 1.38036L11.1374 1.7355L10.763 1.55793L10.4821 1.7355L10.6694 1.38036L10.2949 1.20279H10.6694L10.763 0.847656L10.9502 1.20279H11.3246L10.9502 1.38036Z" fill="white"/>
<path d="M9.08106 3.15771L9.17467 3.51284L8.89384 3.24649L8.613 3.51284L8.70661 3.15771L8.42578 2.98014H8.80022L8.89384 2.625L8.98745 2.98014H9.36189L9.08106 3.15771Z" fill="white"/>
<path d="M9.08106 4.93114L9.17467 5.28628L8.89384 5.01993L8.613 5.28628L8.70661 4.93114L8.42578 4.75357H8.80022L8.89384 4.39844L8.98745 4.75357H9.36189L9.08106 4.93114Z" fill="white"/>
<path d="M9.08106 6.70849L9.17467 7.06362L8.89384 6.79727L8.613 7.06362L8.70661 6.70849L8.42578 6.53092H8.80022L8.89384 6.17578L8.98745 6.53092H9.36189L9.08106 6.70849Z" fill="white"/>
<path d="M9.08106 8.48583L9.17467 8.84097L8.89384 8.57462L8.613 8.84097L8.70661 8.48583L8.42578 8.30826H8.80022L8.89384 7.95312L8.98745 8.30826H9.36189L9.08106 8.48583Z" fill="white"/>
<path d="M9.08106 1.38036L9.17467 1.7355L8.89384 1.55793L8.613 1.7355L8.70661 1.38036L8.42578 1.20279H8.80022L8.89384 0.847656L8.98745 1.20279H9.36189L9.08106 1.38036Z" fill="white"/>
<path d="M7.02051 3.15771L7.11412 3.51284L6.83329 3.24649L6.55246 3.51284L6.64607 3.15771L6.36523 2.98014H6.73968L6.83329 2.625L6.9269 2.98014H7.30134L7.02051 3.15771Z" fill="white"/>
<path d="M7.02051 4.93114L7.11412 5.28628L6.83329 5.01993L6.55246 5.28628L6.64607 4.93114L6.36523 4.75357H6.73968L6.83329 4.39844L6.9269 4.75357H7.30134L7.02051 4.93114Z" fill="white"/>
<path d="M7.02051 6.70849L7.11412 7.06362L6.83329 6.79727L6.55246 7.06362L6.64607 6.70849L6.36523 6.53092H6.73968L6.83329 6.17578L6.9269 6.53092H7.30134L7.02051 6.70849Z" fill="white"/>
<path d="M7.02051 8.48583L7.11412 8.84097L6.83329 8.57462L6.55246 8.84097L6.64607 8.48583L6.36523 8.30826H6.73968L6.83329 7.95312L6.9269 8.30826H7.30134L7.02051 8.48583Z" fill="white"/>
<path d="M7.02051 1.38036L7.11412 1.7355L6.83329 1.55793L6.55246 1.7355L6.64607 1.38036L6.36523 1.20279H6.73968L6.83329 0.847656L6.9269 1.20279H7.30134L7.02051 1.38036Z" fill="white"/>
<path d="M5.04786 3.15771L5.14147 3.51284L4.86063 3.24649L4.5798 3.51284L4.67341 3.15771L4.39258 2.98014H4.76702L4.86063 2.625L4.95424 2.98014H5.32869L5.04786 3.15771Z" fill="white"/>
<path d="M5.04786 4.93114L5.14147 5.28628L4.86063 5.01993L4.5798 5.28628L4.67341 4.93114L4.39258 4.75357H4.76702L4.86063 4.39844L4.95424 4.75357H5.32869L5.04786 4.93114Z" fill="white"/>
<path d="M5.04786 6.70849L5.14147 7.06362L4.86063 6.79727L4.5798 7.06362L4.67341 6.70849L4.39258 6.53092H4.76702L4.86063 6.17578L4.95424 6.53092H5.32869L5.04786 6.70849Z" fill="white"/>
<path d="M5.04786 8.48583L5.14147 8.84097L4.86063 8.57462L4.5798 8.84097L4.67341 8.48583L4.39258 8.30826H4.76702L4.86063 7.95312L4.95424 8.30826H5.32869L5.04786 8.48583Z" fill="white"/>
<path d="M5.04786 1.38036L5.14147 1.7355L4.86063 1.55793L4.5798 1.7355L4.67341 1.38036L4.39258 1.20279H4.76702L4.86063 0.847656L4.95424 1.20279H5.32869L5.04786 1.38036Z" fill="white"/>
<path d="M3.09473 3.15771L3.28195 3.51284L2.90751 3.24649L2.62668 3.51284L2.8139 3.15771L2.43945 2.98014H2.8139L2.90751 2.625L3.09473 2.98014H3.46917L3.09473 3.15771Z" fill="white"/>
<path d="M3.09473 4.93114L3.28195 5.28628L2.90751 5.01993L2.62668 5.28628L2.8139 4.93114L2.43945 4.75357H2.8139L2.90751 4.39844L3.09473 4.75357H3.46917L3.09473 4.93114Z" fill="white"/>
<path d="M3.09473 6.70849L3.28195 7.06362L2.90751 6.79727L2.62668 7.06362L2.8139 6.70849L2.43945 6.53092H2.8139L2.90751 6.17578L3.09473 6.53092H3.46917L3.09473 6.70849Z" fill="white"/>
<path d="M3.09473 8.48583L3.28195 8.84097L2.90751 8.57462L2.62668 8.84097L2.8139 8.48583L2.43945 8.30826H2.8139L2.90751 7.95312L3.09473 8.30826H3.46917L3.09473 8.48583Z" fill="white"/>
<path d="M3.09473 1.38036L3.28195 1.7355L2.90751 1.55793L2.62668 1.7355L2.8139 1.38036L2.43945 1.20279H2.8139L2.90751 0.847656L3.09473 1.20279H3.46917L3.09473 1.38036Z" fill="white"/>
<path d="M1.12207 3.15771L1.3093 3.51284L1.02846 3.24649L0.654019 3.51284L0.841241 3.15771L0.466797 2.98014H0.841241L0.934852 2.625L1.12207 2.98014H1.49652L1.12207 3.15771Z" fill="white"/>
<path d="M1.12207 4.93114L1.3093 5.28628L1.02846 5.01993L0.654019 5.28628L0.841241 4.93114L0.466797 4.75357H0.841241L0.934852 4.39844L1.12207 4.75357H1.49652L1.12207 4.93114Z" fill="white"/>
<path d="M1.12207 6.70849L1.3093 7.06362L1.02846 6.79727L0.654019 7.06362L0.841241 6.70849L0.466797 6.53092H0.841241L0.934852 6.17578L1.12207 6.53092H1.49652L1.12207 6.70849Z" fill="white"/>
<path d="M1.12207 8.48583L1.3093 8.84097L1.02846 8.57462L0.654019 8.84097L0.841241 8.48583L0.466797 8.30826H0.841241L0.934852 7.95312L1.12207 8.30826H1.49652L1.12207 8.48583Z" fill="white"/>
<path d="M1.12207 1.38036L1.3093 1.7355L1.02846 1.55793L0.654019 1.7355L0.841241 1.38036L0.466797 1.20279H0.841241L0.934852 0.847656L1.12207 1.20279H1.49652L1.12207 1.38036Z" fill="white"/>
</g>
</g>
<defs>
<clipPath id="clip0_377_1151">
<rect width="32" height="21" fill="white" transform="translate(0 0.492188)"/>
</clipPath>
<clipPath id="clip1_377_1151">
<rect width="32.1086" height="21" fill="white" transform="translate(0 0.492188)"/>
</clipPath>
</defs>
</svg>
