<svg width="23" height="23" viewBox="0 0 23 23" fill="none" xmlns="http://www.w3.org/2000/svg">
<g clip-path="url(#clip0_5706_6255)">
<path d="M13.5981 8.76228L13.2739 7.60544L14.1264 6.88586C14.4759 6.59253 14.615 6.09569 14.4807 5.62178C14.3584 5.18544 14.0223 4.74636 13.5488 4.74636H12.497L12.1856 3.69861C12.0529 3.22103 11.6866 2.91303 11.2513 2.91303C10.8159 2.91303 10.4497 3.22194 10.3202 3.69036L10.0056 4.74636H8.95455C8.48185 4.74636 8.1458 5.18544 8.02187 5.62178C7.88841 6.09569 8.02743 6.59161 8.3754 6.88494L9.22863 7.60544L8.90529 8.76228C8.77103 9.23986 8.91324 9.73578 9.26438 10.0282C9.60997 10.316 10.0739 10.3142 10.4187 10.0227L11.2513 9.31594L12.0839 10.0218C12.2594 10.1712 12.462 10.2454 12.6638 10.2454C12.8632 10.2454 13.0626 10.1739 13.2374 10.0291C13.5885 9.73761 13.73 9.24078 13.5973 8.76228H13.5981ZM12.7742 9.28386C12.7004 9.34619 12.6265 9.34528 12.555 9.28386L11.4872 8.37911C11.4173 8.32044 11.3347 8.29019 11.2521 8.29019C11.1695 8.29019 11.0868 8.31953 11.0169 8.37911L9.94919 9.28386C9.88087 9.34069 9.79666 9.34161 9.72993 9.28386C9.65684 9.22428 9.6338 9.14361 9.6616 9.04369L10.0739 7.57153C10.1264 7.38361 10.0692 7.17736 9.93013 7.06094L8.84492 6.14519C8.77262 6.08469 8.75038 6.00311 8.77739 5.90594C8.81949 5.75928 8.91244 5.66211 8.95534 5.66211H10.2908C10.4608 5.66211 10.611 5.53744 10.6666 5.35228L11.0765 3.97728C11.1305 3.78019 11.3728 3.77103 11.4332 3.98644L11.8392 5.35228C11.894 5.53744 12.0449 5.66211 12.2149 5.66211H13.5512C13.5941 5.66211 13.6863 5.75836 13.7284 5.90594C13.7554 6.00311 13.7331 6.08378 13.6608 6.14519L12.5756 7.06094C12.4366 7.17736 12.3794 7.38361 12.4318 7.57244L12.8441 9.04278C12.872 9.14269 12.8497 9.22336 12.7766 9.28386H12.7742ZM13.6537 14.8187C18.9105 14.6564 20.7854 11.4334 20.7854 8.69903C20.7854 7.20578 19.844 5.96736 18.611 5.71619C18.8057 5.18361 18.9685 4.67486 19.0845 4.22203C19.3292 3.26869 19.1703 2.26036 18.6499 1.45644C18.1177 0.634193 17.3026 0.162109 16.4144 0.162109H6.08819C5.20001 0.162109 4.38411 0.634193 3.85263 1.45644C3.33227 2.26036 3.17417 3.26869 3.41807 4.22203C3.53406 4.67394 3.69692 5.18361 3.89156 5.71619C2.65937 5.96828 1.71875 7.20669 1.71875 8.69903C1.71875 11.4334 3.59284 14.6564 8.85048 14.8187C8.85922 14.9498 8.86875 15.0809 8.86875 15.2138V18.9538C8.86875 21.1648 7.08443 21.2436 6.88105 21.2454H6.08819C5.86893 21.2454 5.69097 21.4508 5.69097 21.7038C5.69097 21.9568 5.86893 22.1621 6.08819 22.1621H16.416C16.6352 22.1621 16.8132 21.9568 16.8132 21.7038C16.8132 21.4508 16.6352 21.2454 16.416 21.2454H15.6231C15.4197 21.2436 13.6354 21.1648 13.6354 18.9538V15.2138C13.6354 15.0809 13.6449 14.9498 13.6537 14.8187ZM19.991 8.69903C19.991 11.1034 18.3496 13.6949 13.7927 13.8938C14.0175 12.9313 14.4807 12.0623 15.1464 11.4087C16.5121 10.0685 17.556 8.25811 18.2631 6.59161C19.2243 6.65853 19.991 7.57244 19.991 8.69903ZM2.51319 8.69903C2.51319 7.57428 3.27824 6.66036 4.23873 6.59253C4.94658 8.25903 5.99048 10.0676 7.35692 11.4087C8.02267 12.0623 8.48583 12.9313 8.71145 13.8938C4.15452 13.6949 2.51319 11.1034 2.51319 8.69903ZM8.88384 21.2464C9.33112 20.7504 9.66319 20.0263 9.66319 18.9547V15.2147C9.66319 13.4703 9.01095 11.8285 7.87252 10.7111C5.93566 8.81269 4.67329 5.88853 4.17994 3.96353C4.00675 3.28978 4.12036 2.57569 4.48898 2.00644C4.87031 1.41703 5.45343 1.07969 6.08899 1.07969H16.4144C17.0499 1.07969 17.6323 1.41703 18.0144 2.00644C18.383 2.57569 18.4958 3.28886 18.3234 3.96353C17.8301 5.89036 16.5669 8.81361 14.6324 10.7111C13.494 11.8285 12.8418 13.4703 12.8418 15.2147V18.9547C12.8418 20.0263 13.1738 20.7504 13.6211 21.2464H8.88543H8.88384Z" fill="#123455" stroke="#123455" stroke-width="0.5"/>
</g>
<defs>
<clipPath id="clip0_5706_6255">
<rect width="22" height="22" fill="white" transform="translate(0.25 0.164062)"/>
</clipPath>
</defs>
</svg>
