<svg width="23" height="23" viewBox="0 0 23 23" fill="none" xmlns="http://www.w3.org/2000/svg">
<g clip-path="url(#clip0_5706_6247)">
<path d="M13.5845 5.18006C14.6808 4.24506 15.8385 2.8444 15.8385 1.08073V0.164062H6.67188V1.08073C6.67188 2.8444 7.82963 4.24415 8.92596 5.18006C4.61304 6.71731 1.17188 12.1944 1.17188 16.6641C1.17188 19.6973 3.63862 22.1641 6.67188 22.1641H15.8385C18.8718 22.1641 21.3385 19.6973 21.3385 16.6641C21.3385 12.1944 17.8974 6.71731 13.5845 5.18006ZM8.69496 1.9974H13.8127C13.3351 3.14873 12.0802 4.1149 11.2616 4.61173C10.5723 4.19006 9.19821 3.22573 8.69588 1.9974H8.69496ZM15.8385 20.3307H6.67188C4.64971 20.3307 3.00521 18.6862 3.00521 16.6641C3.00521 11.9331 7.21271 6.59631 11.2534 6.59631C15.294 6.59631 19.5052 11.9341 19.5052 16.6641C19.5052 18.6862 17.8607 20.3307 15.8385 20.3307Z" fill="#123455"/>
</g>
<defs>
<clipPath id="clip0_5706_6247">
<rect width="22" height="22" fill="white" transform="translate(0.25 0.164062)"/>
</clipPath>
</defs>
</svg>
