<svg width="23" height="23" viewBox="0 0 23 23" fill="none" xmlns="http://www.w3.org/2000/svg">
<g clip-path="url(#clip0_5706_6251)">
<path d="M22.2508 21.2484C22.2508 21.7553 21.8402 22.1651 21.3342 22.1651H1.16751C0.661513 22.1651 0.250846 21.7553 0.250846 21.2484C0.250846 20.7415 0.661513 20.3318 1.16751 20.3318H21.3342C21.8402 20.3318 22.2508 20.7415 22.2508 21.2484ZM0.82193 16.6275C4.03943 17.9374 7.53468 18.6011 11.2105 18.602C11.2105 18.602 11.2142 18.602 11.2151 18.602C14.9496 18.602 18.4723 17.9264 21.6843 16.5954C22.1518 16.4011 22.3737 15.8648 22.1803 15.3973C21.9868 14.9298 21.4506 14.7071 20.9822 14.9014C17.9929 16.1408 14.7058 16.7687 11.2123 16.7687C7.77393 16.7687 4.50968 16.1499 1.51218 14.9298C1.04193 14.7364 0.50843 14.9638 0.317763 15.4331C0.127096 15.9024 0.352596 16.4368 0.821013 16.6275H0.82193ZM10.0445 10.2063C10.7109 10.8727 11.7953 10.8727 12.4627 10.2063L15.11 7.55893C15.4684 7.20051 15.4684 6.62118 15.11 6.26277C14.7516 5.90435 14.1723 5.90435 13.8138 6.26277L12.1693 7.90727L12.1675 1.08268C12.1675 0.576682 11.7568 0.166016 11.2508 0.166016C10.7448 0.166016 10.3342 0.576682 10.3342 1.08268L10.336 7.90543L8.69335 6.26277C8.33493 5.90435 7.7556 5.90435 7.39718 6.26277C7.03876 6.62118 7.03876 7.20051 7.39718 7.55893L10.0445 10.2063ZM11.2453 14.8318H11.2472C11.2472 14.8318 11.249 14.8318 11.2508 14.8318H11.2527C16.7655 14.829 20.6036 11.4273 21.9978 9.96426C22.3471 9.5976 22.3333 9.01735 21.9667 8.6681C21.6018 8.31885 21.0207 8.3326 20.6705 8.69927C19.4385 9.99177 16.0542 12.9975 11.249 12.9984C6.4576 12.9984 3.06593 9.99085 1.83026 8.69835C1.4801 8.3326 0.899846 8.31885 0.534096 8.66901C0.168346 9.01827 0.154596 9.59943 0.504763 9.96518C1.90268 11.4282 5.7481 14.829 11.2444 14.8318H11.2453Z" fill="#123455"/>
</g>
<defs>
<clipPath id="clip0_5706_6251">
<rect width="22" height="22" fill="white" transform="translate(0.25 0.164062)"/>
</clipPath>
</defs>
</svg>
