<svg width="23" height="23" viewBox="0 0 23 23" fill="none" xmlns="http://www.w3.org/2000/svg">
<g clip-path="url(#clip0_5706_6259)">
<path d="M6.85156 7.49896V14.8323C6.85156 15.0268 6.92882 15.2133 7.06635 15.3508C7.20388 15.4884 7.3904 15.5656 7.5849 15.5656H14.9182C15.1127 15.5656 15.2992 15.4884 15.4368 15.3508C15.5743 15.2133 15.6516 15.0268 15.6516 14.8323V7.49896C15.6516 7.30447 15.5743 7.11794 15.4368 6.98041C15.2992 6.84289 15.1127 6.76562 14.9182 6.76562H7.5849C7.3904 6.76562 7.20388 6.84289 7.06635 6.98041C6.92882 7.11794 6.85156 7.30447 6.85156 7.49896ZM7.5849 7.49896H14.9182V14.8323H7.5849V7.49896Z" fill="#123455" stroke="#123455" stroke-width="0.4"/>
<path d="M11.6203 8.23071H9.05365C8.85915 8.23071 8.67263 8.30797 8.5351 8.4455C8.39757 8.58303 8.32031 8.76955 8.32031 8.96405V10.064C8.32031 10.1613 8.35894 10.2546 8.42771 10.3233C8.49647 10.3921 8.58973 10.4307 8.68698 10.4307C8.78423 10.4307 8.87749 10.3921 8.94625 10.3233C9.01502 10.2546 9.05365 10.1613 9.05365 10.064V8.96405H11.6203C11.7176 8.96405 11.8108 8.92542 11.8796 8.85665C11.9483 8.78789 11.987 8.69463 11.987 8.59738C11.987 8.50013 11.9483 8.40687 11.8796 8.33811C11.8108 8.26934 11.7176 8.23071 11.6203 8.23071Z" fill="#123455" stroke="#123455" stroke-width="0.4"/>
<path d="M8.68698 11.1641C8.58973 11.1641 8.49647 11.2027 8.42771 11.2715C8.35894 11.3402 8.32031 11.4335 8.32031 11.5307V12.6307C8.32031 12.728 8.35894 12.8212 8.42771 12.89C8.49647 12.9588 8.58973 12.9974 8.68698 12.9974C8.78423 12.9974 8.87749 12.9588 8.94625 12.89C9.01502 12.8212 9.05365 12.728 9.05365 12.6307V11.5307C9.05365 11.4335 9.01502 11.3402 8.94625 11.2715C8.87749 11.2027 8.78423 11.1641 8.68698 11.1641Z" fill="#123455" stroke="#123455" stroke-width="0.4"/>
<path d="M0.616667 1.9974C0.713913 1.9974 0.807176 1.95876 0.875939 1.89C0.944703 1.82124 0.983333 1.72798 0.983333 1.63073V0.897396H1.71667C1.81391 0.897396 1.90718 0.858765 1.97594 0.790002C2.0447 0.721238 2.08333 0.627975 2.08333 0.530729C2.08333 0.433483 2.0447 0.34022 1.97594 0.271457C1.90718 0.202693 1.81391 0.164063 1.71667 0.164062H0.983333C0.788841 0.164063 0.602315 0.241324 0.464788 0.378851C0.327262 0.516378 0.25 0.702904 0.25 0.897396L0.25 1.63073C0.25 1.72798 0.288631 1.82124 0.357394 1.89C0.426158 1.95876 0.519421 1.9974 0.616667 1.9974Z" fill="#123455" stroke="#123455" stroke-width="0.5"/>
<path d="M10.5219 0.897396C10.6191 0.897396 10.7124 0.858765 10.7811 0.790002C10.8499 0.721238 10.8885 0.627975 10.8885 0.530729C10.8885 0.433483 10.8499 0.34022 10.7811 0.271457C10.7124 0.202693 10.6191 0.164063 10.5219 0.164062H9.78854C9.6913 0.164063 9.59803 0.202693 9.52927 0.271457C9.46051 0.34022 9.42188 0.433483 9.42188 0.530729C9.42188 0.627975 9.46051 0.721238 9.52927 0.790002C9.59803 0.858765 9.6913 0.897396 9.78854 0.897396H10.5219Z" fill="#123455" stroke="#123455" stroke-width="0.5"/>
<path d="M8.31875 0.897396C8.416 0.897396 8.50926 0.858765 8.57802 0.790002C8.64679 0.721238 8.68542 0.627975 8.68542 0.530729C8.68542 0.433483 8.64679 0.34022 8.57802 0.271457C8.50926 0.202693 8.416 0.164063 8.31875 0.164062H7.58542C7.48817 0.164063 7.39491 0.202693 7.32614 0.271457C7.25738 0.34022 7.21875 0.433483 7.21875 0.530729C7.21875 0.627975 7.25738 0.721238 7.32614 0.790002C7.39491 0.858765 7.48817 0.897396 7.58542 0.897396H8.31875Z" fill="#123455" stroke="#123455" stroke-width="0.5"/>
<path d="M6.11563 0.897396C6.21287 0.897396 6.30613 0.858765 6.3749 0.790002C6.44366 0.721238 6.48229 0.627975 6.48229 0.530729C6.48229 0.433483 6.44366 0.34022 6.3749 0.271457C6.30613 0.202693 6.21287 0.164063 6.11563 0.164062H5.38229C5.28505 0.164063 5.19178 0.202693 5.12302 0.271457C5.05426 0.34022 5.01562 0.433483 5.01562 0.530729C5.01562 0.627975 5.05426 0.721238 5.12302 0.790002C5.19178 0.858765 5.28505 0.897396 5.38229 0.897396H6.11563Z" fill="#123455" stroke="#123455" stroke-width="0.5"/>
<path d="M3.92031 0.897396C4.01756 0.897396 4.11082 0.858765 4.17959 0.790002C4.24835 0.721238 4.28698 0.627975 4.28698 0.530729C4.28698 0.433483 4.24835 0.34022 4.17959 0.271457C4.11082 0.202693 4.01756 0.164063 3.92031 0.164062H3.18698C3.08973 0.164063 2.99647 0.202693 2.92771 0.271457C2.85894 0.34022 2.82031 0.433483 2.82031 0.530729C2.82031 0.627975 2.85894 0.721238 2.92771 0.790002C2.99647 0.858765 3.08973 0.897396 3.18698 0.897396H3.92031Z" fill="#123455" stroke="#123455" stroke-width="0.5"/>
<path d="M21.5219 0.164063H20.7885C20.6913 0.164063 20.598 0.202693 20.5293 0.271457C20.4605 0.34022 20.4219 0.433483 20.4219 0.530729C20.4219 0.627975 20.4605 0.721238 20.5293 0.790002C20.598 0.858765 20.6913 0.897396 20.7885 0.897396H21.5219V1.63073C21.5219 1.72798 21.5605 1.82124 21.6293 1.89C21.698 1.95876 21.7913 1.9974 21.8885 1.9974C21.9858 1.9974 22.0791 1.95876 22.1478 1.89C22.2166 1.82124 22.2552 1.72798 22.2552 1.63073V0.897396C22.2552 0.702904 22.1779 0.516378 22.0404 0.378851C21.9029 0.241324 21.7164 0.164063 21.5219 0.164063Z" fill="#123455" stroke="#123455" stroke-width="0.5"/>
<path d="M12.7172 0.897396C12.8144 0.897396 12.9077 0.858765 12.9765 0.790002C13.0452 0.721238 13.0839 0.627975 13.0839 0.530729C13.0839 0.433483 13.0452 0.34022 12.9765 0.271457C12.9077 0.202693 12.8144 0.164063 12.7172 0.164062H11.9839C11.8866 0.164063 11.7933 0.202693 11.7246 0.271457C11.6558 0.34022 11.6172 0.433483 11.6172 0.530729C11.6172 0.627975 11.6558 0.721238 11.7246 0.790002C11.7933 0.858765 11.8866 0.897396 11.9839 0.897396H12.7172Z" fill="#123455" stroke="#123455" stroke-width="0.5"/>
<path d="M14.9203 0.897396C15.0176 0.897396 15.1108 0.858765 15.1796 0.790002C15.2483 0.721238 15.287 0.627975 15.287 0.530729C15.287 0.433483 15.2483 0.34022 15.1796 0.271457C15.1108 0.202693 15.0176 0.164063 14.9203 0.164062H14.187C14.0897 0.164063 13.9965 0.202693 13.9277 0.271457C13.8589 0.34022 13.8203 0.433483 13.8203 0.530729C13.8203 0.627975 13.8589 0.721238 13.9277 0.790002C13.9965 0.858765 14.0897 0.897396 14.187 0.897396H14.9203Z" fill="#123455" stroke="#123455" stroke-width="0.5"/>
<path d="M17.1156 0.897396C17.2129 0.897396 17.3061 0.858765 17.3749 0.790002C17.4437 0.721238 17.4823 0.627975 17.4823 0.530729C17.4823 0.433483 17.4437 0.34022 17.3749 0.271457C17.3061 0.202693 17.2129 0.164063 17.1156 0.164062H16.3823C16.285 0.164063 16.1918 0.202693 16.123 0.271457C16.0543 0.34022 16.0156 0.433483 16.0156 0.530729C16.0156 0.627975 16.0543 0.721238 16.123 0.790002C16.1918 0.858765 16.285 0.897396 16.3823 0.897396H17.1156Z" fill="#123455" stroke="#123455" stroke-width="0.5"/>
<path d="M19.3188 0.897396C19.416 0.897396 19.5093 0.858765 19.578 0.790002C19.6468 0.721238 19.6854 0.627975 19.6854 0.530729C19.6854 0.433483 19.6468 0.34022 19.578 0.271457C19.5093 0.202693 19.416 0.164063 19.3188 0.164062H18.5854C18.4882 0.164063 18.3949 0.202693 18.3261 0.271457C18.2574 0.34022 18.2188 0.433483 18.2188 0.530729C18.2188 0.627975 18.2574 0.721238 18.3261 0.790002C18.3949 0.858765 18.4882 0.897396 18.5854 0.897396H19.3188Z" fill="#123455" stroke="#123455" stroke-width="0.5"/>
<path d="M0.616667 10.7987C0.713913 10.7987 0.807176 10.7601 0.875939 10.6913C0.944703 10.6225 0.983333 10.5293 0.983333 10.432V9.6987C0.983333 9.60145 0.944703 9.50819 0.875939 9.43943C0.807176 9.37066 0.713913 9.33203 0.616667 9.33203C0.519421 9.33203 0.426158 9.37066 0.357394 9.43943C0.288631 9.50819 0.25 9.60145 0.25 9.6987L0.25 10.432C0.25 10.5293 0.288631 10.6225 0.357394 10.6913C0.426158 10.7601 0.519421 10.7987 0.616667 10.7987Z" fill="#123455" stroke="#123455" stroke-width="0.5"/>
<path d="M0.616667 8.59753C0.713913 8.59753 0.807176 8.5589 0.875939 8.49013C0.944703 8.42137 0.983333 8.32811 0.983333 8.23086V7.49753C0.983333 7.40028 0.944703 7.30702 0.875939 7.23825C0.807176 7.16949 0.713913 7.13086 0.616667 7.13086C0.519421 7.13086 0.426158 7.16949 0.357394 7.23825C0.288631 7.30702 0.25 7.40028 0.25 7.49753L0.25 8.23086C0.25 8.32811 0.288631 8.42137 0.357394 8.49013C0.426158 8.5589 0.519421 8.59753 0.616667 8.59753Z" fill="#123455" stroke="#123455" stroke-width="0.5"/>
<path d="M0.616667 6.39635C0.713913 6.39635 0.807176 6.35772 0.875939 6.28896C0.944703 6.2202 0.983333 6.12693 0.983333 6.02969V5.29635C0.983333 5.19911 0.944703 5.10585 0.875939 5.03708C0.807176 4.96832 0.713913 4.92969 0.616667 4.92969C0.519421 4.92969 0.426158 4.96832 0.357394 5.03708C0.288631 5.10585 0.25 5.19911 0.25 5.29635L0.25 6.02969C0.25 6.12693 0.288631 6.2202 0.357394 6.28896C0.426158 6.35772 0.519421 6.39635 0.616667 6.39635Z" fill="#123455" stroke="#123455" stroke-width="0.5"/>
<path d="M0.616667 4.19738C0.713913 4.19738 0.807176 4.15875 0.875939 4.08999C0.944703 4.02122 0.983333 3.92796 0.983333 3.83071V3.09738C0.983333 3.00013 0.944703 2.90687 0.875939 2.83811C0.807176 2.76934 0.713913 2.73071 0.616667 2.73071C0.519421 2.73071 0.426158 2.76934 0.357394 2.83811C0.288631 2.90687 0.25 3.00013 0.25 3.09738L0.25 3.83071C0.25 3.92796 0.288631 4.02122 0.357394 4.08999C0.426158 4.15875 0.519421 4.19738 0.616667 4.19738Z" fill="#123455" stroke="#123455" stroke-width="0.5"/>
<path d="M0.616667 12.9979C0.713913 12.9979 0.807176 12.9593 0.875939 12.8905C0.944703 12.8218 0.983333 12.7285 0.983333 12.6313V11.8979C0.983333 11.8007 0.944703 11.7074 0.875939 11.6386C0.807176 11.5699 0.713913 11.5312 0.616667 11.5312C0.519421 11.5312 0.426158 11.5699 0.357394 11.6386C0.288631 11.7074 0.25 11.8007 0.25 11.8979L0.25 12.6313C0.25 12.7285 0.288631 12.8218 0.357394 12.8905C0.426158 12.9593 0.519421 12.9979 0.616667 12.9979Z" fill="#123455" stroke="#123455" stroke-width="0.5"/>
<path d="M0.616667 15.1974C0.713913 15.1974 0.807176 15.1587 0.875939 15.09C0.944703 15.0212 0.983333 14.928 0.983333 14.8307V14.0974C0.983333 14.0001 0.944703 13.9069 0.875939 13.8381C0.807176 13.7693 0.713913 13.7307 0.616667 13.7307C0.519421 13.7307 0.426158 13.7693 0.357394 13.8381C0.288631 13.9069 0.25 14.0001 0.25 14.0974L0.25 14.8307C0.25 14.928 0.288631 15.0212 0.357394 15.09C0.426158 15.1587 0.519421 15.1974 0.616667 15.1974Z" fill="#123455" stroke="#123455" stroke-width="0.5"/>
<path d="M0.616667 17.3964C0.713913 17.3964 0.807176 17.3577 0.875939 17.289C0.944703 17.2202 0.983333 17.1269 0.983333 17.0297V16.2964C0.983333 16.1991 0.944703 16.1058 0.875939 16.0371C0.807176 15.9683 0.713913 15.9297 0.616667 15.9297C0.519421 15.9297 0.426158 15.9683 0.357394 16.0371C0.288631 16.1058 0.25 16.1991 0.25 16.2964L0.25 17.0297C0.25 17.1269 0.288631 17.2202 0.357394 17.289C0.426158 17.3577 0.519421 17.3964 0.616667 17.3964Z" fill="#123455" stroke="#123455" stroke-width="0.5"/>
<path d="M0.616667 19.5975C0.713913 19.5975 0.807176 19.5589 0.875939 19.4901C0.944703 19.4214 0.983333 19.3281 0.983333 19.2309V18.4975C0.983333 18.4003 0.944703 18.307 0.875939 18.2383C0.807176 18.1695 0.713913 18.1309 0.616667 18.1309C0.519421 18.1309 0.426158 18.1695 0.357394 18.2383C0.288631 18.307 0.25 18.4003 0.25 18.4975L0.25 19.2309C0.25 19.3281 0.288631 19.4214 0.357394 19.4901C0.426158 19.5589 0.519421 19.5975 0.616667 19.5975Z" fill="#123455" stroke="#123455" stroke-width="0.5"/>
<path d="M21.8823 9.33203C21.785 9.33203 21.6918 9.37066 21.623 9.43943C21.5543 9.50819 21.5156 9.60145 21.5156 9.6987V10.432C21.5156 10.5293 21.5543 10.6225 21.623 10.6913C21.6918 10.7601 21.785 10.7987 21.8823 10.7987C21.9795 10.7987 22.0728 10.7601 22.1416 10.6913C22.2103 10.6225 22.249 10.5293 22.249 10.432V9.6987C22.249 9.60145 22.2103 9.50819 22.1416 9.43943C22.0728 9.37066 21.9795 9.33203 21.8823 9.33203Z" fill="#123455" stroke="#123455" stroke-width="0.5"/>
<path d="M21.8823 7.13086C21.785 7.13086 21.6918 7.16949 21.623 7.23825C21.5543 7.30702 21.5156 7.40028 21.5156 7.49753V8.23086C21.5156 8.32811 21.5543 8.42137 21.623 8.49013C21.6918 8.5589 21.785 8.59753 21.8823 8.59753C21.9795 8.59753 22.0728 8.5589 22.1416 8.49013C22.2103 8.42137 22.249 8.32811 22.249 8.23086V7.49753C22.249 7.40028 22.2103 7.30702 22.1416 7.23825C22.0728 7.16949 21.9795 7.13086 21.8823 7.13086Z" fill="#123455" stroke="#123455" stroke-width="0.5"/>
<path d="M21.8823 4.92969C21.785 4.92969 21.6918 4.96832 21.623 5.03708C21.5543 5.10585 21.5156 5.19911 21.5156 5.29635V6.02969C21.5156 6.12693 21.5543 6.2202 21.623 6.28896C21.6918 6.35772 21.785 6.39635 21.8823 6.39635C21.9795 6.39635 22.0728 6.35772 22.1416 6.28896C22.2103 6.2202 22.249 6.12693 22.249 6.02969V5.29635C22.249 5.19911 22.2103 5.10585 22.1416 5.03708C22.0728 4.96832 21.9795 4.92969 21.8823 4.92969Z" fill="#123455" stroke="#123455" stroke-width="0.5"/>
<path d="M21.8823 2.73047C21.785 2.73047 21.6918 2.7691 21.623 2.83786C21.5543 2.90663 21.5156 2.99989 21.5156 3.09714V3.83047C21.5156 3.92771 21.5543 4.02098 21.623 4.08974C21.6918 4.1585 21.785 4.19714 21.8823 4.19714C21.9795 4.19714 22.0728 4.1585 22.1416 4.08974C22.2103 4.02098 22.249 3.92771 22.249 3.83047V3.09714C22.249 2.99989 22.2103 2.90663 22.1416 2.83786C22.0728 2.7691 21.9795 2.73047 21.8823 2.73047Z" fill="#123455" stroke="#123455" stroke-width="0.5"/>
<path d="M21.8823 11.5312C21.785 11.5312 21.6918 11.5699 21.623 11.6386C21.5543 11.7074 21.5156 11.8007 21.5156 11.8979V12.6313C21.5156 12.7285 21.5543 12.8218 21.623 12.8905C21.6918 12.9593 21.785 12.9979 21.8823 12.9979C21.9795 12.9979 22.0728 12.9593 22.1416 12.8905C22.2103 12.8218 22.249 12.7285 22.249 12.6313V11.8979C22.249 11.8007 22.2103 11.7074 22.1416 11.6386C22.0728 11.5699 21.9795 11.5312 21.8823 11.5312Z" fill="#123455" stroke="#123455" stroke-width="0.5"/>
<path d="M21.8823 13.7305C21.785 13.7305 21.6918 13.7691 21.623 13.8379C21.5543 13.9066 21.5156 13.9999 21.5156 14.0971V14.8305C21.5156 14.9277 21.5543 15.021 21.623 15.0897C21.6918 15.1585 21.785 15.1971 21.8823 15.1971C21.9795 15.1971 22.0728 15.1585 22.1416 15.0897C22.2103 15.021 22.249 14.9277 22.249 14.8305V14.0971C22.249 13.9999 22.2103 13.9066 22.1416 13.8379C22.0728 13.7691 21.9795 13.7305 21.8823 13.7305Z" fill="#123455" stroke="#123455" stroke-width="0.5"/>
<path d="M21.8823 15.9297C21.785 15.9297 21.6918 15.9683 21.623 16.0371C21.5543 16.1058 21.5156 16.1991 21.5156 16.2964V17.0297C21.5156 17.1269 21.5543 17.2202 21.623 17.289C21.6918 17.3577 21.785 17.3964 21.8823 17.3964C21.9795 17.3964 22.0728 17.3577 22.1416 17.289C22.2103 17.2202 22.249 17.1269 22.249 17.0297V16.2964C22.249 16.1991 22.2103 16.1058 22.1416 16.0371C22.0728 15.9683 21.9795 15.9297 21.8823 15.9297Z" fill="#123455" stroke="#123455" stroke-width="0.5"/>
<path d="M21.8823 18.1309C21.785 18.1309 21.6918 18.1695 21.623 18.2383C21.5543 18.307 21.5156 18.4003 21.5156 18.4975V19.2309C21.5156 19.3281 21.5543 19.4214 21.623 19.4901C21.6918 19.5589 21.785 19.5975 21.8823 19.5975C21.9795 19.5975 22.0728 19.5589 22.1416 19.4901C22.2103 19.4214 22.249 19.3281 22.249 19.2309V18.4975C22.249 18.4003 22.2103 18.307 22.1416 18.2383C22.0728 18.1695 21.9795 18.1309 21.8823 18.1309Z" fill="#123455" stroke="#123455" stroke-width="0.5"/>
<path d="M0.983333 22.1654H1.71667C1.81391 22.1654 1.90718 22.1267 1.97594 22.058C2.0447 21.9892 2.08333 21.8959 2.08333 21.7987C2.08333 21.7015 2.0447 21.6082 1.97594 21.5394C1.90718 21.4707 1.81391 21.432 1.71667 21.432H0.983333V20.6987C0.983333 20.6015 0.944703 20.5082 0.875939 20.4394C0.807176 20.3707 0.713913 20.332 0.616667 20.332C0.519421 20.332 0.426158 20.3707 0.357394 20.4394C0.288631 20.5082 0.25 20.6015 0.25 20.6987L0.25 21.432C0.25 21.6265 0.327262 21.8131 0.464788 21.9506C0.602315 22.0881 0.788841 22.1654 0.983333 22.1654Z" fill="#123455" stroke="#123455" stroke-width="0.5"/>
<path d="M9.78854 21.4297C9.6913 21.4297 9.59803 21.4683 9.52927 21.5371C9.46051 21.6058 9.42188 21.6991 9.42188 21.7964C9.42188 21.8936 9.46051 21.9869 9.52927 22.0556C9.59803 22.1244 9.6913 22.163 9.78854 22.163H10.5219C10.6191 22.163 10.7124 22.1244 10.7811 22.0556C10.8499 21.9869 10.8885 21.8936 10.8885 21.7964C10.8885 21.6991 10.8499 21.6058 10.7811 21.5371C10.7124 21.4683 10.6191 21.4297 10.5219 21.4297H9.78854Z" fill="#123455" stroke="#123455" stroke-width="0.5"/>
<path d="M7.58542 21.4297C7.48817 21.4297 7.39491 21.4683 7.32614 21.5371C7.25738 21.6058 7.21875 21.6991 7.21875 21.7964C7.21875 21.8936 7.25738 21.9869 7.32614 22.0556C7.39491 22.1244 7.48817 22.163 7.58542 22.163H8.31875C8.416 22.163 8.50926 22.1244 8.57802 22.0556C8.64679 21.9869 8.68542 21.8936 8.68542 21.7964C8.68542 21.6991 8.64679 21.6058 8.57802 21.5371C8.50926 21.4683 8.416 21.4297 8.31875 21.4297H7.58542Z" fill="#123455" stroke="#123455" stroke-width="0.5"/>
<path d="M5.38229 21.4297C5.28505 21.4297 5.19178 21.4683 5.12302 21.5371C5.05426 21.6058 5.01562 21.6991 5.01562 21.7964C5.01562 21.8936 5.05426 21.9869 5.12302 22.0556C5.19178 22.1244 5.28505 22.163 5.38229 22.163H6.11563C6.21287 22.163 6.30613 22.1244 6.3749 22.0556C6.44366 21.9869 6.48229 21.8936 6.48229 21.7964C6.48229 21.6991 6.44366 21.6058 6.3749 21.5371C6.30613 21.4683 6.21287 21.4297 6.11563 21.4297H5.38229Z" fill="#123455" stroke="#123455" stroke-width="0.5"/>
<path d="M3.17917 21.4297C3.08192 21.4297 2.98866 21.4683 2.91989 21.5371C2.85113 21.6058 2.8125 21.6991 2.8125 21.7964C2.8125 21.8936 2.85113 21.9869 2.91989 22.0556C2.98866 22.1244 3.08192 22.163 3.17917 22.163H3.9125C4.00975 22.163 4.10301 22.1244 4.17177 22.0556C4.24054 21.9869 4.27917 21.8936 4.27917 21.7964C4.27917 21.6991 4.24054 21.6058 4.17177 21.5371C4.10301 21.4683 4.00975 21.4297 3.9125 21.4297H3.17917Z" fill="#123455" stroke="#123455" stroke-width="0.5"/>
<path d="M21.8885 20.332C21.7913 20.332 21.698 20.3707 21.6293 20.4394C21.5605 20.5082 21.5219 20.6015 21.5219 20.6987V21.432H20.7885C20.6913 21.432 20.598 21.4707 20.5293 21.5394C20.4605 21.6082 20.4219 21.7015 20.4219 21.7987C20.4219 21.8959 20.4605 21.9892 20.5293 22.058C20.598 22.1267 20.6913 22.1654 20.7885 22.1654H21.5219C21.7164 22.1654 21.9029 22.0881 22.0404 21.9506C22.1779 21.8131 22.2552 21.6265 22.2552 21.432V20.6987C22.2552 20.6015 22.2166 20.5082 22.1478 20.4394C22.0791 20.3707 21.9858 20.332 21.8885 20.332Z" fill="#123455" stroke="#123455" stroke-width="0.5"/>
<path d="M11.9839 21.4297C11.8866 21.4297 11.7933 21.4683 11.7246 21.5371C11.6558 21.6058 11.6172 21.6991 11.6172 21.7964C11.6172 21.8936 11.6558 21.9869 11.7246 22.0556C11.7933 22.1244 11.8866 22.163 11.9839 22.163H12.7172C12.8144 22.163 12.9077 22.1244 12.9765 22.0556C13.0452 21.9869 13.0839 21.8936 13.0839 21.7964C13.0839 21.6991 13.0452 21.6058 12.9765 21.5371C12.9077 21.4683 12.8144 21.4297 12.7172 21.4297H11.9839Z" fill="#123455" stroke="#123455" stroke-width="0.5"/>
<path d="M14.1792 21.4297C14.0819 21.4297 13.9887 21.4683 13.9199 21.5371C13.8511 21.6058 13.8125 21.6991 13.8125 21.7964C13.8125 21.8936 13.8511 21.9869 13.9199 22.0556C13.9887 22.1244 14.0819 22.163 14.1792 22.163H14.9125C15.0097 22.163 15.103 22.1244 15.1718 22.0556C15.2405 21.9869 15.2792 21.8936 15.2792 21.7964C15.2792 21.6991 15.2405 21.6058 15.1718 21.5371C15.103 21.4683 15.0097 21.4297 14.9125 21.4297H14.1792Z" fill="#123455" stroke="#123455" stroke-width="0.5"/>
<path d="M17.1156 22.163C17.2129 22.163 17.3061 22.1244 17.3749 22.0556C17.4437 21.9869 17.4823 21.8936 17.4823 21.7964C17.4823 21.6991 17.4437 21.6058 17.3749 21.5371C17.3061 21.4683 17.2129 21.4297 17.1156 21.4297H16.3823C16.285 21.4297 16.1918 21.4683 16.123 21.5371C16.0543 21.6058 16.0156 21.6991 16.0156 21.7964C16.0156 21.8936 16.0543 21.9869 16.123 22.0556C16.1918 22.1244 16.285 22.163 16.3823 22.163H17.1156Z" fill="#123455" stroke="#123455" stroke-width="0.5"/>
<path d="M19.3188 21.4297H18.5854C18.4882 21.4297 18.3949 21.4683 18.3261 21.5371C18.2574 21.6058 18.2188 21.6991 18.2188 21.7964C18.2188 21.8936 18.2574 21.9869 18.3261 22.0556C18.3949 22.1244 18.4882 22.163 18.5854 22.163H19.3188C19.416 22.163 19.5093 22.1244 19.578 22.0556C19.6468 21.9869 19.6854 21.8936 19.6854 21.7964C19.6854 21.6991 19.6468 21.6058 19.578 21.5371C19.5093 21.4683 19.416 21.4297 19.3188 21.4297Z" fill="#123455" stroke="#123455" stroke-width="0.5"/>
<path d="M2.45312 2.72995V4.56328C2.45312 4.66053 2.49176 4.75379 2.56052 4.82255C2.62928 4.89132 2.72255 4.92995 2.81979 4.92995C2.91704 4.92995 3.0103 4.89132 3.07906 4.82255C3.14783 4.75379 3.18646 4.66053 3.18646 4.56328V3.61508L5.86056 6.28918C5.92971 6.35597 6.02233 6.39293 6.11847 6.3921C6.21461 6.39126 6.30658 6.3527 6.37456 6.28471C6.44254 6.21673 6.4811 6.12477 6.48194 6.02863C6.48277 5.93249 6.44582 5.83987 6.37903 5.77071L3.70492 3.09661H4.65313C4.75037 3.09661 4.84363 3.05798 4.9124 2.98922C4.98116 2.92046 5.01979 2.82719 5.01979 2.72995C5.01979 2.6327 4.98116 2.53944 4.9124 2.47068C4.84363 2.40191 4.75037 2.36328 4.65313 2.36328H2.81979C2.72255 2.36328 2.62928 2.40191 2.56052 2.47068C2.49176 2.53944 2.45312 2.6327 2.45312 2.72995Z" fill="#123455" stroke="#123455" stroke-width="0.5"/>
<path d="M2.45312 19.5977C2.45312 19.695 2.49176 19.7882 2.56052 19.857C2.62928 19.9257 2.72255 19.9644 2.81979 19.9644H4.65313C4.75037 19.9644 4.84363 19.9257 4.9124 19.857C4.98116 19.7882 5.01979 19.695 5.01979 19.5977C5.01979 19.5005 4.98116 19.4072 4.9124 19.3384C4.84363 19.2697 4.75037 19.231 4.65313 19.231H3.70492L6.37903 16.5569C6.44582 16.4878 6.48277 16.3952 6.48194 16.299C6.4811 16.2029 6.44254 16.1109 6.37456 16.0429C6.30658 15.975 6.21461 15.9364 6.11847 15.9356C6.02233 15.9347 5.92971 15.9717 5.86056 16.0385L3.18646 18.7126V17.7644C3.18646 17.6671 3.14783 17.5739 3.07906 17.5051C3.0103 17.4363 2.91704 17.3977 2.81979 17.3977C2.72255 17.3977 2.62928 17.4363 2.56052 17.5051C2.49176 17.5739 2.45312 17.6671 2.45312 17.7644V19.5977Z" fill="#123455" stroke="#123455" stroke-width="0.5"/>
<path d="M20.0523 19.5977V17.7644C20.0523 17.6671 20.0136 17.5739 19.9449 17.5051C19.8761 17.4363 19.7828 17.3977 19.6856 17.3977C19.5884 17.3977 19.4951 17.4363 19.4263 17.5051C19.3576 17.5739 19.3189 17.6671 19.3189 17.7644V18.7126L16.6448 16.0385C16.5757 15.9717 16.4831 15.9347 16.3869 15.9356C16.2908 15.9364 16.1988 15.975 16.1308 16.0429C16.0628 16.1109 16.0243 16.2029 16.0235 16.299C16.0226 16.3952 16.0596 16.4878 16.1264 16.5569L18.8005 19.231H17.8523C17.755 19.231 17.6618 19.2697 17.593 19.3384C17.5242 19.4072 17.4856 19.5005 17.4856 19.5977C17.4856 19.695 17.5242 19.7882 17.593 19.857C17.6618 19.9257 17.755 19.9644 17.8523 19.9644H19.6856C19.7828 19.9644 19.8761 19.9257 19.9449 19.857C20.0136 19.7882 20.0523 19.695 20.0523 19.5977Z" fill="#123455" stroke="#123455" stroke-width="0.5"/>
<path d="M20.0535 2.72995C20.0535 2.6327 20.0148 2.53944 19.9461 2.47068C19.8773 2.40191 19.784 2.36328 19.6868 2.36328H17.8535C17.7562 2.36328 17.663 2.40191 17.5942 2.47068C17.5254 2.53944 17.4868 2.6327 17.4868 2.72995C17.4868 2.82719 17.5254 2.92046 17.5942 2.98922C17.663 3.05798 17.7562 3.09661 17.8535 3.09661H18.8017L16.1276 5.77071C16.0925 5.80454 16.0646 5.845 16.0454 5.88973C16.0262 5.93447 16.0161 5.98258 16.0156 6.03127C16.0152 6.07995 16.0245 6.12824 16.0429 6.1733C16.0614 6.21836 16.0886 6.2593 16.123 6.29373C16.1574 6.32815 16.1984 6.35538 16.2434 6.37382C16.2885 6.39225 16.3368 6.40153 16.3855 6.40111C16.4342 6.40068 16.4823 6.39057 16.527 6.37135C16.5717 6.35213 16.6122 6.3242 16.646 6.28918L19.3201 3.61508V4.56328C19.3201 4.66053 19.3588 4.75379 19.4275 4.82255C19.4963 4.89132 19.5896 4.92995 19.6868 4.92995C19.784 4.92995 19.8773 4.89132 19.9461 4.82255C20.0148 4.75379 20.0535 4.66053 20.0535 4.56328V2.72995Z" fill="#123455" stroke="#123455" stroke-width="0.5"/>
</g>
<defs>
<clipPath id="clip0_5706_6259">
<rect width="22" height="22" fill="white" transform="translate(0.25 0.164062)"/>
</clipPath>
</defs>
</svg>
