<svg width="23" height="23" viewBox="0 0 23 23" fill="none" xmlns="http://www.w3.org/2000/svg">
<g clip-path="url(#clip0_5706_6243)">
<path d="M17.6667 1.08203H4.83333C3.6182 1.08349 2.45326 1.56684 1.59403 2.42607C0.734808 3.28529 0.251456 4.45024 0.25 5.66537L0.25 16.6654C0.251456 17.8805 0.734808 19.0454 1.59403 19.9047C2.45326 20.7639 3.6182 21.2472 4.83333 21.2487H17.6667C18.8818 21.2472 20.0467 20.7639 20.906 19.9047C21.7652 19.0454 22.2485 17.8805 22.25 16.6654V5.66537C22.2485 4.45024 21.7652 3.28529 20.906 2.42607C20.0467 1.56684 18.8818 1.08349 17.6667 1.08203ZM4.83333 2.91536H17.6667C18.396 2.91536 19.0955 3.2051 19.6112 3.72082C20.1269 4.23655 20.4167 4.93602 20.4167 5.66537V6.58203H2.08333V5.66537C2.08333 4.93602 2.37306 4.23655 2.88879 3.72082C3.40451 3.2051 4.10399 2.91536 4.83333 2.91536ZM17.6667 19.4154H4.83333C4.10399 19.4154 3.40451 19.1256 2.88879 18.6099C2.37306 18.0942 2.08333 17.3947 2.08333 16.6654V8.41537H20.4167V16.6654C20.4167 17.3947 20.1269 18.0942 19.6112 18.6099C19.0955 19.1256 18.396 19.4154 17.6667 19.4154ZM17.6667 12.082C17.6667 12.3251 17.5701 12.5583 17.3982 12.7302C17.2263 12.9021 16.9931 12.9987 16.75 12.9987H5.75C5.50688 12.9987 5.27373 12.9021 5.10182 12.7302C4.92991 12.5583 4.83333 12.3251 4.83333 12.082C4.83333 11.8389 4.92991 11.6058 5.10182 11.4339C5.27373 11.2619 5.50688 11.1654 5.75 11.1654H16.75C16.9931 11.1654 17.2263 11.2619 17.3982 11.4339C17.5701 11.6058 17.6667 11.8389 17.6667 12.082ZM14 15.7487C14 15.9918 13.9034 16.225 13.7315 16.3969C13.5596 16.5688 13.3264 16.6654 13.0833 16.6654H5.75C5.50688 16.6654 5.27373 16.5688 5.10182 16.3969C4.92991 16.225 4.83333 15.9918 4.83333 15.7487C4.83333 15.5056 4.92991 15.2724 5.10182 15.1005C5.27373 14.9286 5.50688 14.832 5.75 14.832H13.0833C13.3264 14.832 13.5596 14.9286 13.7315 15.1005C13.9034 15.2724 14 15.5056 14 15.7487ZM3 4.7487C3 4.5674 3.05376 4.39017 3.15449 4.23943C3.25521 4.08868 3.39837 3.97119 3.56587 3.90181C3.73337 3.83243 3.91768 3.81428 4.0955 3.84965C4.27332 3.88501 4.43665 3.97232 4.56485 4.10052C4.69305 4.22872 4.78035 4.39205 4.81572 4.56987C4.85109 4.74768 4.83294 4.93199 4.76356 5.09949C4.69418 5.26699 4.57668 5.41015 4.42594 5.51088C4.27519 5.6116 4.09797 5.66537 3.91667 5.66537C3.67355 5.66537 3.44039 5.56879 3.26849 5.39688C3.09658 5.22497 3 4.99181 3 4.7487ZM5.75 4.7487C5.75 4.5674 5.80376 4.39017 5.90449 4.23943C6.00521 4.08868 6.14837 3.97119 6.31587 3.90181C6.48337 3.83243 6.66768 3.81428 6.8455 3.84965C7.02332 3.88501 7.18665 3.97232 7.31485 4.10052C7.44305 4.22872 7.53035 4.39205 7.56572 4.56987C7.60109 4.74768 7.58294 4.93199 7.51356 5.09949C7.44418 5.26699 7.32668 5.41015 7.17594 5.51088C7.02519 5.6116 6.84797 5.66537 6.66667 5.66537C6.42355 5.66537 6.19039 5.56879 6.01849 5.39688C5.84658 5.22497 5.75 4.99181 5.75 4.7487ZM8.5 4.7487C8.5 4.5674 8.55376 4.39017 8.65449 4.23943C8.75521 4.08868 8.89837 3.97119 9.06587 3.90181C9.23337 3.83243 9.41768 3.81428 9.5955 3.84965C9.77332 3.88501 9.93665 3.97232 10.0648 4.10052C10.193 4.22872 10.2804 4.39205 10.3157 4.56987C10.3511 4.74768 10.3329 4.93199 10.2636 5.09949C10.1942 5.26699 10.0767 5.41015 9.92594 5.51088C9.77519 5.6116 9.59797 5.66537 9.41667 5.66537C9.17355 5.66537 8.94039 5.56879 8.76849 5.39688C8.59658 5.22497 8.5 4.99181 8.5 4.7487Z" fill="#123455"/>
</g>
<defs>
<clipPath id="clip0_5706_6243">
<rect width="22" height="22" fill="white" transform="translate(0.25 0.164062)"/>
</clipPath>
</defs>
</svg>
