<svg xmlns="http://www.w3.org/2000/svg" width="42" height="42" fill="#0d0d0d" xmlns:v="https://vecta.io/nano"><path d="M21.087 7.02c-7.886 0-14.278 6.259-14.278 13.981s6.392 13.981 14.278 13.981 14.278-6.259 14.278-13.981S28.974 7.02 21.087 7.02zm8.847 20.88c0 .131-.107.235-.24.235h-3.043c-.133 0-.24-.105-.24-.235v-8.258l-4.804 8.153c-.133.209-.36.353-.614.353H20.5c-.254 0-.494-.131-.614-.353l-4.777-8.14v8.258c0 .131-.107.235-.24.235h-3.043c-.133 0-.24-.105-.24-.235V14.546c0-.379.32-.692.707-.692h2.402c.254 0 .494.131.614.353l5.445 9.277 5.445-9.277c.12-.222.36-.353.614-.353h2.402c.387 0 .707.314.707.692V27.9h.013zm6.597-1.817c-2.162 6.324-8.247 10.871-15.439 10.871-8.994 0-16.28-7.134-16.28-15.941s7.286-15.941 16.28-15.941c7.673 0 14.105 5.187 15.826 12.191h4.083C39.214 8.064 30.98 1.139 21.092 1.139 9.896 1.139.809 10.024.809 21s9.074 19.861 20.283 19.861c9.408 0 17.308-6.272 19.603-14.765h-4.11v-.013h-.053z"/></svg>