<svg xmlns="http://www.w3.org/2000/svg" width="107" height="42" fill="none" xmlns:v="https://vecta.io/nano"><path d="M6.691 26.833L3 15h2.979l2.135 8.221h.107L10.576 15h2.551l2.349 8.239h.113L17.725 15h2.979l-3.691 11.833h-2.658l-2.456-7.736h-.101l-2.45 7.736H6.691zm15.472 0V15h8.691v2.063H24.89v2.819h5.517v2.063H24.89v2.825h5.989v2.063h-8.716zm10.859 0V15h5.164c.949 0 1.74.129 2.374.387s1.111.616 1.43 1.075.479.978.479 1.572c0 .462-.101.869-.302 1.219s-.479.632-.831.855a3.52 3.52 0 0 1-1.197.468v.116a3.08 3.08 0 0 1 1.379.381c.433.235.783.564 1.052.988s.403.921.403 1.502a2.89 2.89 0 0 1-.51 1.681c-.336.489-.833.876-1.493 1.161s-1.472.428-2.437.428h-5.511zm2.727-2.045h2.223c.76 0 1.314-.133 1.663-.399a1.29 1.29 0 0 0 .523-1.075 1.49 1.49 0 0 0-.258-.867c-.172-.25-.418-.447-.737-.589a2.74 2.74 0 0 0-1.127-.214H35.75v3.143zm0-4.836h2.022a2.6 2.6 0 0 0 .995-.179c.29-.119.525-.297.693-.52a1.3 1.3 0 0 0 .258-.803 1.25 1.25 0 0 0-.498-1.034c-.332-.262-.794-.393-1.398-.393h-2.072v2.929zm11.222 6.881h-2.922L48.501 15h3.514l4.446 11.833h-2.922l-3.231-9.129h-.101l-3.237 9.129zm-.183-4.651h6.902v1.953h-6.902v-1.953zm11.226 4.651V15h5.089c.974 0 1.805.16 2.494.479s1.22.765 1.581 1.346.548 1.258.548 2.04-.185 1.462-.554 2.028-.905.994-1.606 1.294-1.541.451-2.532.451h-3.407v-2.011h2.966c.521 0 .953-.065 1.297-.196s.6-.327.768-.589.258-.587.258-.976-.086-.724-.258-.994-.426-.474-.775-.612-.779-.214-1.304-.214H60.74v9.787h-2.727zm6.965-5.385l3.206 5.385h-3.01l-3.136-5.385h2.941zm4.182-4.385V15h10.593v2.063h-3.949v9.77H73.11v-9.77h-3.949z" fill="#010101"/><path d="M80.016 24.753v-1.97L85.401 15h1.852v2.727h-1.096l-3.395 4.928v.092h7.652v2.005H80.016zm6.191 2.08v-2.681l.05-.873V15h2.557v11.833h-2.607zM100.273 15H103v7.684c0 .863-.225 1.618-.674 2.265s-1.068 1.152-1.87 1.514S98.72 27 97.653 27s-2.007-.179-2.809-.537-1.425-.867-1.871-1.514-.668-1.402-.668-2.265V15h2.727v7.47a2.26 2.26 0 0 0 .321 1.202 2.26 2.26 0 0 0 .919.826c.395.2.854.3 1.379.3s.989-.1 1.379-.3.699-.476.913-.826.328-.751.328-1.202V15z" fill="#ff5130"/></svg>