<svg width="124" height="55" viewBox="0 0 124 55" fill="none" xmlns="http://www.w3.org/2000/svg">
<rect y="22" width="101" height="33" rx="16.5" fill="#31CE9A"/>
<path d="M36.7 44.18C35.67 44.18 34.78 43.955 34.03 43.505C33.29 43.045 32.715 42.41 32.305 41.6C31.905 40.78 31.705 39.83 31.705 38.75C31.705 37.68 31.905 36.735 32.305 35.915C32.715 35.095 33.29 34.46 34.03 34.01C34.78 33.55 35.67 33.32 36.7 33.32C37.93 33.32 38.925 33.615 39.685 34.205C40.455 34.795 40.945 35.625 41.155 36.695H39.505C39.355 36.075 39.045 35.58 38.575 35.21C38.115 34.84 37.49 34.655 36.7 34.655C35.99 34.655 35.375 34.82 34.855 35.15C34.335 35.48 33.935 35.95 33.655 36.56C33.375 37.17 33.235 37.9 33.235 38.75C33.235 39.6 33.375 40.335 33.655 40.955C33.935 41.565 34.335 42.035 34.855 42.365C35.375 42.685 35.99 42.845 36.7 42.845C37.49 42.845 38.115 42.67 38.575 42.32C39.045 41.96 39.355 41.475 39.505 40.865H41.155C40.955 41.905 40.47 42.72 39.7 43.31C38.93 43.89 37.93 44.18 36.7 44.18ZM46.3245 44.18C45.6145 44.18 44.9745 44.015 44.4045 43.685C43.8445 43.355 43.3995 42.895 43.0695 42.305C42.7495 41.715 42.5895 41.025 42.5895 40.235C42.5895 39.435 42.7545 38.74 43.0845 38.15C43.4145 37.56 43.8645 37.1 44.4345 36.77C45.0045 36.44 45.6445 36.275 46.3545 36.275C47.0645 36.275 47.6995 36.44 48.2595 36.77C48.8295 37.1 49.2745 37.56 49.5945 38.15C49.9245 38.74 50.0895 39.435 50.0895 40.235C50.0895 41.025 49.9245 41.715 49.5945 42.305C49.2645 42.895 48.8145 43.355 48.2445 43.685C47.6845 44.015 47.0445 44.18 46.3245 44.18ZM46.3245 42.89C46.7345 42.89 47.1045 42.79 47.4345 42.59C47.7745 42.39 48.0445 42.095 48.2445 41.705C48.4545 41.305 48.5595 40.815 48.5595 40.235C48.5595 39.635 48.4595 39.14 48.2595 38.75C48.0595 38.36 47.7895 38.065 47.4495 37.865C47.1195 37.665 46.7545 37.565 46.3545 37.565C45.9645 37.565 45.5945 37.665 45.2445 37.865C44.9045 38.065 44.6295 38.36 44.4195 38.75C44.2195 39.14 44.1195 39.635 44.1195 40.235C44.1195 40.815 44.2195 41.305 44.4195 41.705C44.6295 42.095 44.8995 42.39 45.2295 42.59C45.5695 42.79 45.9345 42.89 46.3245 42.89ZM51.8393 44V33.2H53.3393V44H51.8393ZM58.8489 44.18C58.1389 44.18 57.4989 44.015 56.9289 43.685C56.3689 43.355 55.9239 42.895 55.5939 42.305C55.2739 41.715 55.1139 41.025 55.1139 40.235C55.1139 39.435 55.2789 38.74 55.6089 38.15C55.9389 37.56 56.3889 37.1 56.9589 36.77C57.5289 36.44 58.1689 36.275 58.8789 36.275C59.5889 36.275 60.2239 36.44 60.7839 36.77C61.3539 37.1 61.7989 37.56 62.1189 38.15C62.4489 38.74 62.6139 39.435 62.6139 40.235C62.6139 41.025 62.4489 41.715 62.1189 42.305C61.7889 42.895 61.3389 43.355 60.7689 43.685C60.2089 44.015 59.5689 44.18 58.8489 44.18ZM58.8489 42.89C59.2589 42.89 59.6289 42.79 59.9589 42.59C60.2989 42.39 60.5689 42.095 60.7689 41.705C60.9789 41.305 61.0839 40.815 61.0839 40.235C61.0839 39.635 60.9839 39.14 60.7839 38.75C60.5839 38.36 60.3139 38.065 59.9739 37.865C59.6439 37.665 59.2789 37.565 58.8789 37.565C58.4889 37.565 58.1189 37.665 57.7689 37.865C57.4289 38.065 57.1539 38.36 56.9439 38.75C56.7439 39.14 56.6439 39.635 56.6439 40.235C56.6439 40.815 56.7439 41.305 56.9439 41.705C57.1539 42.095 57.4239 42.39 57.7539 42.59C58.0939 42.79 58.4589 42.89 58.8489 42.89ZM64.3638 44V36.455H65.7138L65.8488 37.88C66.0188 37.54 66.2338 37.255 66.4938 37.025C66.7638 36.785 67.0838 36.6 67.4538 36.47C67.8238 36.34 68.2388 36.275 68.6988 36.275V37.85H68.1738C67.8638 37.85 67.5688 37.89 67.2888 37.97C67.0088 38.05 66.7588 38.18 66.5388 38.36C66.3288 38.54 66.1638 38.785 66.0438 39.095C65.9238 39.405 65.8638 39.79 65.8638 40.25V44H64.3638Z" fill="white"/>
<path d="M96.0246 9.53904L117.044 0.697787C117.683 0.429038 118.338 1.04467 118.11 1.69904L110.837 22.5168C110.604 23.185 109.681 23.2432 109.366 22.6095L105.211 14.2639C105.116 14.0719 104.947 13.9263 104.743 13.8598L96.0867 11.037C95.3824 10.8074 95.3417 9.82628 96.0246 9.53904Z" fill="#31CE9A"/>
</svg>
