<svg width="120" height="54" viewBox="0 0 120 54" fill="none" xmlns="http://www.w3.org/2000/svg">
<rect x="18.8516" y="21" width="101" height="33" rx="16.5" fill="#B5ACFF"/>
<path d="M53.9388 43V32.5H55.4388V41.815H60.2388V43H53.9388ZM65.0188 43.18C64.3088 43.18 63.6688 43.015 63.0988 42.685C62.5388 42.355 62.0938 41.895 61.7638 41.305C61.4438 40.715 61.2838 40.025 61.2838 39.235C61.2838 38.435 61.4488 37.74 61.7788 37.15C62.1088 36.56 62.5588 36.1 63.1288 35.77C63.6988 35.44 64.3388 35.275 65.0488 35.275C65.7588 35.275 66.3938 35.44 66.9538 35.77C67.5238 36.1 67.9688 36.56 68.2888 37.15C68.6188 37.74 68.7838 38.435 68.7838 39.235C68.7838 40.025 68.6188 40.715 68.2888 41.305C67.9588 41.895 67.5088 42.355 66.9388 42.685C66.3788 43.015 65.7388 43.18 65.0188 43.18ZM65.0188 41.89C65.4288 41.89 65.7988 41.79 66.1288 41.59C66.4688 41.39 66.7388 41.095 66.9388 40.705C67.1488 40.305 67.2538 39.815 67.2538 39.235C67.2538 38.635 67.1538 38.14 66.9538 37.75C66.7538 37.36 66.4838 37.065 66.1438 36.865C65.8138 36.665 65.4488 36.565 65.0488 36.565C64.6588 36.565 64.2888 36.665 63.9388 36.865C63.5988 37.065 63.3238 37.36 63.1138 37.75C62.9138 38.14 62.8138 38.635 62.8138 39.235C62.8138 39.815 62.9138 40.305 63.1138 40.705C63.3238 41.095 63.5938 41.39 63.9238 41.59C64.2638 41.79 64.6288 41.89 65.0188 41.89ZM73.2278 46.48C72.5378 46.48 71.9278 46.39 71.3978 46.21C70.8678 46.04 70.4578 45.775 70.1678 45.415C69.8778 45.055 69.7328 44.615 69.7328 44.095C69.7328 43.825 69.7928 43.55 69.9128 43.27C70.0328 43 70.2278 42.74 70.4978 42.49C70.7678 42.24 71.1328 42.015 71.5928 41.815L72.4178 42.49C71.9178 42.68 71.5778 42.905 71.3978 43.165C71.2278 43.435 71.1428 43.695 71.1428 43.945C71.1428 44.245 71.2328 44.495 71.4128 44.695C71.5928 44.895 71.8378 45.045 72.1478 45.145C72.4678 45.245 72.8278 45.295 73.2278 45.295C73.6178 45.295 73.9528 45.24 74.2328 45.13C74.5228 45.02 74.7478 44.865 74.9078 44.665C75.0678 44.465 75.1478 44.23 75.1478 43.96C75.1478 43.64 75.0278 43.37 74.7878 43.15C74.5578 42.94 74.1028 42.815 73.4228 42.775C72.8528 42.735 72.3678 42.68 71.9678 42.61C71.5778 42.54 71.2428 42.455 70.9628 42.355C70.6928 42.255 70.4628 42.145 70.2728 42.025C70.0928 41.905 69.9378 41.78 69.8078 41.65V41.305L71.3078 39.76L72.5078 40.18L70.8878 41.695L71.2028 41.02C71.3128 41.1 71.4178 41.17 71.5178 41.23C71.6178 41.29 71.7528 41.345 71.9228 41.395C72.0928 41.445 72.3228 41.49 72.6128 41.53C72.9028 41.57 73.2828 41.61 73.7528 41.65C74.4228 41.7 74.9678 41.82 75.3878 42.01C75.8078 42.2 76.1128 42.455 76.3028 42.775C76.4928 43.095 76.5878 43.475 76.5878 43.915C76.5878 44.345 76.4678 44.755 76.2278 45.145C75.9878 45.535 75.6178 45.855 75.1178 46.105C74.6278 46.355 73.9978 46.48 73.2278 46.48ZM73.2128 40.675C72.5828 40.675 72.0428 40.555 71.5928 40.315C71.1528 40.075 70.8128 39.75 70.5728 39.34C70.3428 38.93 70.2278 38.475 70.2278 37.975C70.2278 37.475 70.3428 37.025 70.5728 36.625C70.8128 36.215 71.1528 35.89 71.5928 35.65C72.0428 35.4 72.5828 35.275 73.2128 35.275C73.8528 35.275 74.3928 35.4 74.8328 35.65C75.2828 35.89 75.6228 36.215 75.8528 36.625C76.0928 37.025 76.2128 37.475 76.2128 37.975C76.2128 38.475 76.0928 38.93 75.8528 39.34C75.6228 39.75 75.2828 40.075 74.8328 40.315C74.3928 40.555 73.8528 40.675 73.2128 40.675ZM73.2128 39.475C73.7028 39.475 74.0928 39.35 74.3828 39.1C74.6828 38.84 74.8328 38.465 74.8328 37.975C74.8328 37.495 74.6828 37.13 74.3828 36.88C74.0928 36.62 73.7028 36.49 73.2128 36.49C72.7328 36.49 72.3428 36.62 72.0428 36.88C71.7428 37.13 71.5928 37.495 71.5928 37.975C71.5928 38.465 71.7428 38.84 72.0428 39.1C72.3428 39.35 72.7328 39.475 73.2128 39.475ZM74.4578 36.64L74.0978 35.455H77.1878V36.49L74.4578 36.64ZM81.8499 43.18C81.1399 43.18 80.4999 43.015 79.9299 42.685C79.3699 42.355 78.9249 41.895 78.5949 41.305C78.2749 40.715 78.1149 40.025 78.1149 39.235C78.1149 38.435 78.2799 37.74 78.6099 37.15C78.9399 36.56 79.3899 36.1 79.9599 35.77C80.5299 35.44 81.1699 35.275 81.8799 35.275C82.5899 35.275 83.2249 35.44 83.7849 35.77C84.3549 36.1 84.7999 36.56 85.1199 37.15C85.4499 37.74 85.6149 38.435 85.6149 39.235C85.6149 40.025 85.4499 40.715 85.1199 41.305C84.7899 41.895 84.3399 42.355 83.7699 42.685C83.2099 43.015 82.5699 43.18 81.8499 43.18ZM81.8499 41.89C82.2599 41.89 82.6299 41.79 82.9599 41.59C83.2999 41.39 83.5699 41.095 83.7699 40.705C83.9799 40.305 84.0849 39.815 84.0849 39.235C84.0849 38.635 83.9849 38.14 83.7849 37.75C83.5849 37.36 83.3149 37.065 82.9749 36.865C82.6449 36.665 82.2799 36.565 81.8799 36.565C81.4899 36.565 81.1199 36.665 80.7699 36.865C80.4299 37.065 80.1549 37.36 79.9449 37.75C79.7449 38.14 79.6449 38.635 79.6449 39.235C79.6449 39.815 79.7449 40.305 79.9449 40.705C80.1549 41.095 80.4249 41.39 80.7549 41.59C81.0949 41.79 81.4599 41.89 81.8499 41.89Z" fill="white"/>
<path d="M27.3513 9.53936L6.33084 0.697786C5.6919 0.429039 5.03682 1.04467 5.26542 1.69905L12.5381 22.5174C12.7716 23.1857 13.6941 23.2438 14.0095 22.6101L18.1645 14.2643C18.2601 14.0723 18.4287 13.9267 18.6326 13.8602L27.2892 11.0374C27.9935 10.8077 28.0342 9.8266 27.3513 9.53936Z" fill="#B5ACFF"/>
</svg>
