<svg width="24" height="25" viewBox="0 0 24 25" fill="none" xmlns="http://www.w3.org/2000/svg">
<g clip-path="url(#clip0_2999_2946)">
<path d="M17 7.16577L12.5 6.66577L7 7.16577L6.5 12.1658L7 17.1658L12 17.7908L17 17.1658L17.5 12.0408L17 7.16577Z" fill="white"/>
<path d="M9.055 14.9241C8.68125 14.6716 8.4225 14.3028 8.28125 13.8153L9.14875 13.4578C9.2275 13.7578 9.365 13.9903 9.56125 14.1553C9.75625 14.3203 9.99375 14.4016 10.2712 14.4016C10.555 14.4016 10.7987 14.3153 11.0025 14.1428C11.2062 13.9703 11.3088 13.7503 11.3088 13.4841C11.3088 13.2116 11.2012 12.9891 10.9862 12.8166C10.7713 12.6441 10.5013 12.5578 10.1788 12.5578H9.6775V11.6991H10.1275C10.405 11.6991 10.6387 11.6241 10.8287 11.4741C11.0187 11.3241 11.1137 11.1191 11.1137 10.8578C11.1137 10.6253 11.0287 10.4403 10.8587 10.3016C10.6887 10.1628 10.4737 10.0928 10.2125 10.0928C9.9575 10.0928 9.755 10.1603 9.605 10.2966C9.455 10.4328 9.34625 10.6003 9.2775 10.7978L8.41875 10.4403C8.5325 10.1178 8.74125 9.8328 9.0475 9.58655C9.35375 9.3403 9.745 9.21655 10.22 9.21655C10.5713 9.21655 10.8875 9.28405 11.1675 9.4203C11.4475 9.55655 11.6675 9.7453 11.8263 9.9853C11.985 10.2266 12.0638 10.4966 12.0638 10.7966C12.0638 11.1028 11.99 11.3616 11.8425 11.5741C11.695 11.7866 11.5137 11.9491 11.2987 12.0628V12.1141C11.5825 12.2328 11.8138 12.4141 11.9963 12.6578C12.1775 12.9016 12.2688 13.1928 12.2688 13.5328C12.2688 13.8728 12.1825 14.1766 12.01 14.4428C11.8375 14.7091 11.5987 14.9191 11.2962 15.0716C10.9925 15.2241 10.6513 15.3016 10.2725 15.3016C9.83375 15.3028 9.42875 15.1766 9.055 14.9241Z" fill="#1A73E8"/>
<path d="M14.3769 10.6195L13.4294 11.3083L12.9531 10.5858L14.6619 9.35327H15.3169V15.167H14.3769V10.6195Z" fill="#1A73E8"/>
<path d="M17 21.6658L21.5 17.1658L19.25 16.1658L17 17.1658L16 19.4158L17 21.6658Z" fill="#EA4335"/>
<path d="M6 19.4158L7 21.6658H17V17.1658H7L6 19.4158Z" fill="#34A853"/>
<path d="M4 2.66577C3.17125 2.66577 2.5 3.33702 2.5 4.16577V17.1658L4.75 18.1658L7 17.1658V7.16577H17L18 4.91577L17 2.66577H4Z" fill="#4285F4"/>
<path d="M2.5 17.1658V20.1658C2.5 20.9945 3.17125 21.6658 4 21.6658H7V17.1658H2.5Z" fill="#188038"/>
<path d="M17 7.16577V17.1658H21.5V7.16577L19.25 6.16577L17 7.16577Z" fill="#FBBC04"/>
<path d="M21.5 7.16577V4.16577C21.5 3.33702 20.8288 2.66577 20 2.66577H17V7.16577H21.5Z" fill="#1967D2"/>
</g>
<defs>
<clipPath id="clip0_2999_2946">
<rect width="24" height="24" fill="white" transform="translate(0 0.165771)"/>
</clipPath>
</defs>
</svg>
