<svg width="24" height="25" viewBox="0 0 24 25" fill="none" xmlns="http://www.w3.org/2000/svg">
<g clip-path="url(#clip0_2999_2977)">
<path d="M4.91406 15.5382L6.9663 19.0931C7.29065 19.6555 7.89075 20.0017 8.53945 20.0017H12.9097L12.1232 17.6142L10.2326 15.5382L7.57334 15.0759L4.91406 15.5382Z" fill="#1967D2"/>
<path d="M20.5388 11.2582L18.546 7.8064L16.832 9.7039L15.8203 12.1668L16.9193 14.8022L18.5331 16.548L20.5388 13.0754C20.8631 12.5129 20.8631 11.8206 20.5388 11.2582Z" fill="#1967D2"/>
<path d="M12.9107 4.32983H8.54044C7.89174 4.32983 7.29164 4.67601 6.96729 5.23841L4.91406 8.79337L7.57334 9.25559L10.2326 8.79337L12.1738 6.71733L12.9107 4.32983Z" fill="#1967D2"/>
<path d="M8.21072 12.1671L10.2342 8.79468H4.91564L3.49326 11.2585C3.16891 11.821 3.16891 12.5133 3.49326 13.0757L4.91564 15.5396H10.2342L8.21072 12.1671Z" fill="#4285F4"/>
<path d="M13.7993 8.79337L15.8227 12.1658L18.5475 7.80544L17.0656 5.23841C16.7412 4.67601 16.1411 4.32983 15.4924 4.32983H12.9125L10.2344 8.79337H13.7993Z" fill="#4285F4"/>
<path d="M13.7993 15.5382H10.2344L12.9125 20.0018H15.4924C16.1411 20.0018 16.7412 19.6556 17.0656 19.0932L18.5356 16.547L15.8227 12.1658L13.7993 15.5382Z" fill="#4285F4"/>
</g>
<defs>
<clipPath id="clip0_2999_2977">
<rect width="24" height="24" fill="white" transform="translate(0 0.165771)"/>
</clipPath>
</defs>
</svg>
