<svg width="24" height="24" viewBox="0 0 24 24" fill="none" xmlns="http://www.w3.org/2000/svg">
<g clip-path="url(#clip0_2999_2912)">
<path d="M3 6.84496V8.48046L4.87572 10.2959L7.08876 11.547L7.49763 8.79427L7.08876 6.23164L5.94391 5.373C4.73057 4.46325 3 5.32905 3 6.84496Z" fill="#C5221F"/>
<path d="M16.9011 6.23164L16.4922 8.828L16.9011 11.547L18.9097 10.5524L20.9898 8.48046V6.84496C20.9898 5.32905 19.2593 4.46325 18.0459 5.373L16.9011 6.23164Z" fill="#FBBC04"/>
<path d="M4.22663 18.4996H7.08876V11.5487L3 8.48218V17.273C3 17.9507 3.54892 18.4996 4.22663 18.4996Z" fill="#4285F4"/>
<path d="M16.9062 18.4996H19.7684C20.4461 18.4996 20.995 17.9507 20.995 17.273V8.48218L16.9062 11.5487V18.4996Z" fill="#34A853"/>
<path d="M12.0003 9.91206L7.09375 6.23218V11.5476L12.0003 15.2274L16.9068 11.5476V6.23218L12.0003 9.91206Z" fill="#EA4335"/>
</g>
<defs>
<clipPath id="clip0_2999_2912">
<rect width="24" height="24" fill="white" transform="translate(0 0.00170898)"/>
</clipPath>
</defs>
</svg>
