<svg width="24" height="25" viewBox="0 0 24 25" fill="none" xmlns="http://www.w3.org/2000/svg">
<g clip-path="url(#clip0_2999_2931)">
<path d="M13.3125 12.1651L15.1697 14.2879L17.6669 15.8663L18.1023 12.1793L17.6669 8.5564L15.1218 9.95851L13.3125 12.1651Z" fill="#188038"/>
<path d="M2.53906 15.5415V18.6985C2.53906 19.4202 3.12364 20.0048 3.84538 20.0048H7.00232L7.65548 17.6186L7.00232 15.5415L4.83601 14.8884L2.53906 15.5415Z" fill="#1967D2"/>
<path d="M7.00232 4.32983L2.53906 8.79309L4.83601 9.44625L7.00232 8.79309L7.64459 6.74326L7.00232 4.32983Z" fill="#EA4335"/>
<path d="M7.00232 8.79102H2.53906V15.5403H7.00232V8.79102Z" fill="#4285F4"/>
<path d="M20.5229 6.21765L17.6719 8.55705V15.867L20.5349 18.3022C20.9638 18.6375 21.5908 18.3316 21.5908 17.7873V6.72276C21.5908 6.17084 20.9496 5.86821 20.5229 6.21765Z" fill="#34A853"/>
<path d="M13.3139 12.1658V15.5404H7V20.0037H16.362C17.0837 20.0037 17.6683 19.4191 17.6683 18.6974V15.867L13.3139 12.1658Z" fill="#34A853"/>
<path d="M16.362 4.32983H7V8.79309H13.3139V12.1678L17.6683 8.55904V5.63615C17.6683 4.91441 17.0837 4.32983 16.362 4.32983Z" fill="#FBBC04"/>
</g>
<defs>
<clipPath id="clip0_2999_2931">
<rect width="24" height="24" fill="white" transform="translate(0 0.165771)"/>
</clipPath>
</defs>
</svg>
