<svg width="24" height="24" viewBox="0 0 24 24" fill="none" xmlns="http://www.w3.org/2000/svg">
<mask id="mask0_2999_2900" style="mask-type:luminance" maskUnits="userSpaceOnUse" x="1" y="5" width="22" height="15">
<path fill-rule="evenodd" clip-rule="evenodd" d="M18.4016 10.665C20.7016 10.865 22.5016 12.665 22.5016 14.965C22.5016 17.365 20.5016 19.265 18.1016 19.265H6.80156C3.90156 19.265 1.60156 16.965 1.60156 14.065C1.60156 11.365 3.60156 9.16499 6.30156 8.96499C7.30156 6.86499 9.50156 5.36499 12.0016 5.36499C15.2016 5.36499 17.8016 7.66499 18.4016 10.665ZM18.1016 17.465C19.6016 17.465 20.7016 16.265 20.7016 14.865C20.7016 13.465 19.5016 12.265 18.1016 12.265H16.8016V11.865C16.8016 9.26499 14.7016 7.16499 12.0016 7.16499C9.80156 7.16499 7.90156 8.56499 7.40156 10.565H6.80156C4.80156 10.565 3.20156 12.165 3.20156 14.065C3.20156 15.965 4.80156 17.465 6.70156 17.465H18.1016Z" fill="white"/>
</mask>
<g mask="url(#mask0_2999_2900)">
<path fill-rule="evenodd" clip-rule="evenodd" d="M0 24.1658H24V0.165771H0V24.1658Z" fill="#5C85DE"/>
</g>
</svg>
