<svg width="31" height="31" viewBox="0 0 31 31" fill="none" xmlns="http://www.w3.org/2000/svg">
<path d="M7.41975 2.75733C7.27837 2.45078 7.0776 2.17969 6.69505 2.17969C6.12823 2.17969 5.98531 2.72548 5.81838 3.16034L4.534 6.50618C4.45262 6.67245 4.40269 6.85234 4.38672 7.03678C4.39025 7.12797 4.41955 7.21629 4.47124 7.29149C4.52294 7.3667 4.59489 7.42571 4.67876 7.46167C4.7632 7.50572 4.85977 7.52084 4.95364 7.50472C5.04751 7.48859 5.13349 7.4421 5.1984 7.3724C5.29945 7.20896 5.37993 7.03368 5.43803 6.85052L5.67788 6.18975H7.71924L7.95887 6.83649C7.9909 6.91614 8.02916 7.0081 8.07366 7.11238C8.16428 7.32415 8.29559 7.50781 8.54798 7.50781C8.61369 7.50867 8.67885 7.49583 8.73931 7.47009C8.79977 7.44436 8.8542 7.4063 8.89913 7.35835C8.94411 7.31609 8.98017 7.26525 9.00518 7.20883C9.03019 7.1524 9.04365 7.09154 9.04476 7.02984C9.02485 6.83849 8.97268 6.6519 8.89047 6.47797L7.57873 3.15326C7.53023 3.02719 7.48047 2.88899 7.41975 2.75733ZM5.94509 5.40604L6.68827 3.2798L7.44525 5.40604H5.94509Z" fill="#123455"/>
<path d="M13.6215 3.81447C13.63 3.59947 13.5937 3.38505 13.515 3.1848C13.4363 2.98455 13.3169 2.80282 13.1643 2.65114C12.7808 2.30283 12.2319 2.26804 11.7412 2.26804H10.4363C10.2601 2.25252 10.0847 2.3054 9.9465 2.41569C9.88906 2.48314 9.84579 2.56146 9.81928 2.64599C9.79277 2.73052 9.78357 2.81953 9.79221 2.9077V6.87914C9.78014 7.04741 9.83012 7.21428 9.9327 7.34822C9.97952 7.39869 10.0363 7.43893 10.0994 7.46639C10.1625 7.49386 10.2307 7.50796 10.2995 7.5078C10.3684 7.50764 10.4364 7.49324 10.4994 7.46549C10.5624 7.43774 10.619 7.39725 10.6656 7.34656C10.7706 7.21161 10.8219 7.04259 10.8096 6.87206V5.41357H11.7412C12.3645 5.41357 12.8337 5.27823 13.1488 5.00755C13.3118 4.85665 13.4388 4.67114 13.5206 4.46467C13.6024 4.2582 13.6369 4.03602 13.6215 3.81447ZM12.4638 4.29592C12.3721 4.41827 12.2427 4.50717 12.0956 4.54901C11.9004 4.60518 11.6977 4.63122 11.4946 4.62625H10.8096V3.05174H11.4946C11.9488 3.05174 12.2491 3.12791 12.3953 3.28024C12.5293 3.4334 12.5992 3.63219 12.5905 3.83546C12.5982 3.9985 12.5538 4.15974 12.4638 4.29592Z" fill="#123455"/>
<path d="M20.0031 2.33641C19.9562 2.28489 19.8987 2.24421 19.8345 2.21719C19.7703 2.19018 19.701 2.17749 19.6314 2.18C19.5626 2.17751 19.4942 2.19043 19.4311 2.2178C19.368 2.24517 19.3118 2.28631 19.2667 2.3382C19.1643 2.47427 19.115 2.64292 19.1278 2.8127V6.78054C19.1119 6.95603 19.1641 7.13092 19.2734 7.26907C19.3389 7.32504 19.4149 7.36727 19.497 7.39323C19.5791 7.4192 19.6656 7.42837 19.7513 7.4202H22.2072C22.3441 7.42984 22.4797 7.38782 22.5873 7.30241C22.6301 7.26376 22.6639 7.21621 22.6863 7.16311C22.7088 7.11 22.7193 7.05261 22.7172 6.99499C22.7187 6.937 22.7077 6.87937 22.6849 6.826C22.6622 6.77264 22.6282 6.72478 22.5854 6.68566C22.4799 6.59746 22.3444 6.55338 22.2072 6.5626H20.1452V2.8127C20.1587 2.64179 20.108 2.472 20.0031 2.33641Z" fill="#123455"/>
<path d="M23.7619 7.35183C23.8093 7.40142 23.8662 7.44085 23.9293 7.46774C23.9923 7.49463 24.0602 7.50841 24.1288 7.50824C24.1973 7.50807 24.2651 7.49396 24.3281 7.46676C24.391 7.43956 24.4477 7.39985 24.4948 7.35003C24.6006 7.21419 24.6519 7.04373 24.6386 6.87206V5.23782L25.8956 3.2591C26.0502 3.07204 26.1498 2.84577 26.1834 2.60547C26.1778 2.49042 26.1281 2.38195 26.0445 2.3027C25.9609 2.22345 25.8499 2.17954 25.7348 2.18012C25.6274 2.18988 25.5247 2.22875 25.4378 2.29254C25.3509 2.35632 25.283 2.4426 25.2415 2.5421C25.2027 2.60783 25.1548 2.68868 25.0977 2.78462L24.1488 4.34857L23.2104 2.78462C23.1156 2.6152 23.0074 2.45361 22.8869 2.30139C22.7968 2.22148 22.6802 2.17809 22.5598 2.17973C22.4394 2.18137 22.3239 2.22792 22.2361 2.31024C21.9357 2.59896 22.2245 3.01552 22.3953 3.28719L23.6214 5.23781V6.87205C23.6076 7.04381 23.6577 7.21463 23.7619 7.35183Z" fill="#123455"/>
<path d="M15.4854 5.41357H16.417C17.0403 5.41357 17.5095 5.27823 17.8246 5.00755C17.9875 4.85665 18.1146 4.67115 18.1964 4.46468C18.2782 4.25821 18.3127 4.03604 18.2973 3.81449C18.3007 3.58771 18.2612 3.36233 18.1809 3.15024C18.104 2.96135 17.9855 2.79219 17.8343 2.65529C17.6831 2.5184 17.5031 2.41729 17.3075 2.35944C17.0161 2.28911 16.7166 2.25837 16.417 2.26804H15.112C14.9359 2.25252 14.7605 2.30539 14.6223 2.41569C14.5648 2.48314 14.5216 2.56146 14.4951 2.64599C14.4686 2.73052 14.4593 2.81953 14.468 2.9077V6.30812C14.8236 6.33647 15.1697 6.43675 15.4854 6.60286L15.4854 5.41357ZM15.4854 3.05176H16.1704C16.6246 3.05176 16.9249 3.12792 17.0711 3.28026C17.205 3.43341 17.2749 3.63221 17.2663 3.83548C17.2739 3.99852 17.2296 4.15976 17.1396 4.29594C17.0479 4.41828 16.9185 4.50718 16.7714 4.54902C16.5762 4.60519 16.3735 4.63123 16.1704 4.62626H15.4854V3.05176Z" fill="#123455"/>
<path d="M27.3945 0H3.17578C2.79052 0.000420532 2.42115 0.153652 2.14873 0.426075C1.87631 0.698498 1.72308 1.06786 1.72266 1.45312V8.23438C1.72308 8.61964 1.87631 8.989 2.14873 9.26143C2.42115 9.53385 2.79052 9.68708 3.17578 9.6875H11.5398L11.5451 8.99156C11.5458 8.90042 11.5511 8.80936 11.5609 8.71875H3.17578C3.04736 8.71862 2.92423 8.66755 2.83342 8.57674C2.74261 8.48593 2.69153 8.3628 2.69141 8.23438V1.45312C2.69153 1.3247 2.74261 1.20157 2.83342 1.11076C2.92423 1.01995 3.04736 0.968878 3.17578 0.96875H27.3945C27.523 0.968878 27.6461 1.01995 27.7369 1.11076C27.8277 1.20157 27.8788 1.3247 27.8789 1.45312V8.23438C27.8788 8.3628 27.8277 8.48593 27.7369 8.57674C27.6461 8.66755 27.523 8.71862 27.3945 8.71875H16.9002C16.9089 8.81081 16.913 8.90324 16.9124 8.9957L16.9071 9.6875H27.3945C27.7798 9.68708 28.1492 9.53385 28.4216 9.26143C28.694 8.989 28.8472 8.61964 28.8477 8.23438V1.45312C28.8472 1.06786 28.694 0.698498 28.4216 0.426075C28.1492 0.153652 27.7798 0.000420532 27.3945 0Z" fill="#123455"/>
<path d="M21.5797 13.7078H21.5672C21.2696 13.7104 20.9779 13.7908 20.721 13.941C20.6369 13.7026 20.5006 13.4859 20.3219 13.307C20.1643 13.1471 19.9759 13.0209 19.7681 12.9357C19.5604 12.8506 19.3376 12.8084 19.1131 12.8117C18.7959 12.8146 18.4858 12.9059 18.2176 13.0753C18.1331 12.8843 18.0141 12.7105 17.8667 12.5625C17.7093 12.4024 17.5209 12.2759 17.3131 12.1908C17.1053 12.1057 16.8824 12.0637 16.6579 12.0674C16.401 12.0698 16.148 12.1303 15.9179 12.2445L15.9424 8.98837C15.942 8.53398 15.7622 8.09813 15.4422 7.77554C15.1222 7.45295 14.6878 7.2697 14.2334 7.26562C13.777 7.27256 13.3415 7.45779 13.0199 7.7817C12.6984 8.10561 12.5163 8.54249 12.5127 8.9989L12.4389 18.7283L11.1728 17.477C10.6929 17.0108 10.0502 16.7498 9.38114 16.7495C8.71204 16.7491 8.0691 17.0094 7.58866 17.4751C7.50439 17.5453 7.43546 17.632 7.38615 17.73C7.33685 17.828 7.30822 17.9351 7.30205 18.0446C7.29588 18.1541 7.3123 18.2637 7.35029 18.3666C7.38827 18.4694 7.44702 18.5634 7.52287 18.6426L9.54895 20.6912C10.5137 21.6755 11.4012 22.7328 12.2036 23.8535C12.7805 24.6658 13.2742 25.5341 13.6772 26.4453C13.9771 26.3132 14.2948 26.2256 14.62 26.1854C14.1851 25.1706 13.6429 24.2053 13.0027 23.3058C12.1684 22.1368 11.2439 21.0348 10.2377 20.01L8.34392 18.0952C8.63287 17.8413 9.00442 17.7014 9.38907 17.7016C9.59371 17.7011 9.79637 17.7416 9.98511 17.8207C10.1739 17.8998 10.3449 18.0158 10.488 18.1621L12.574 20.224C12.6418 20.2909 12.7278 20.3364 12.8212 20.3548C12.9147 20.3732 13.0115 20.3635 13.0995 20.3272C13.1875 20.2908 13.2629 20.2293 13.3161 20.1503C13.3694 20.0713 13.3982 19.9784 13.3989 19.8831L13.4814 9.00623C13.4821 8.80393 13.5619 8.60993 13.7038 8.4657C13.8456 8.32147 14.0382 8.23844 14.2405 8.23437C14.4364 8.23717 14.6233 8.31716 14.7606 8.45697C14.8979 8.59677 14.9745 8.7851 14.9737 8.98104L14.91 17.4338C14.9092 17.5622 14.9594 17.6855 15.0495 17.7769C15.1396 17.8682 15.2623 17.9201 15.3907 17.9211C15.519 17.922 15.6425 17.8721 15.734 17.7821C15.8255 17.6921 15.8775 17.5695 15.8787 17.4412L15.9061 13.806C15.9073 13.6041 15.9873 13.4106 16.129 13.2668C16.2708 13.123 16.4631 13.0402 16.665 13.0361C16.8603 13.0407 17.0462 13.1212 17.1831 13.2607C17.32 13.4001 17.3972 13.5874 17.3982 13.7828L17.371 17.4338C17.3702 17.5622 17.4204 17.6855 17.5105 17.7769C17.6007 17.8682 17.7234 17.9201 17.8517 17.9211C17.98 17.922 18.1035 17.8721 18.195 17.7821C18.2865 17.6921 18.3385 17.5695 18.3397 17.4412L18.3612 14.5511C18.3622 14.3491 18.4421 14.1554 18.5839 14.0114C18.7257 13.8674 18.9182 13.7845 19.1202 13.7805C19.3163 13.7825 19.5037 13.8623 19.6411 14.0022C19.7785 14.1422 19.8548 14.331 19.8533 14.5271L19.832 17.434C19.831 17.5624 19.8812 17.686 19.9714 17.7775C20.0615 17.869 20.1844 17.9209 20.3128 17.9219C20.4413 17.9228 20.5649 17.8727 20.6564 17.7825C20.7479 17.6923 20.7998 17.5695 20.8007 17.4411L20.8152 15.4484C20.8159 15.2462 20.8956 15.0522 21.0374 14.908C21.1793 14.7637 21.3719 14.6807 21.5741 14.6766C21.7697 14.6806 21.9559 14.7609 22.0929 14.9005C22.23 15.04 22.307 15.2277 22.3074 15.4233L22.2667 20.7854C22.2669 22.1041 22.0184 23.4109 21.5342 24.6374C21.3015 25.1457 21.111 25.6723 20.9646 26.2118C21.2848 26.2688 21.5951 26.3721 21.8857 26.5183C22.0224 26.0028 22.2031 25.5 22.426 25.0156C22.9595 23.6715 23.2341 22.2388 23.2355 20.7928L23.2762 15.4306C23.2718 14.9796 23.0924 14.5479 22.7759 14.2265C22.4595 13.9052 22.0306 13.7192 21.5797 13.7078Z" fill="#123455"/>
<path d="M20.3711 27.125H15.043C14.4009 27.1257 13.7853 27.3811 13.3312 27.8351C12.8772 28.2892 12.6218 28.9048 12.6211 29.5469V30.5156C12.6211 30.6441 12.6721 30.7673 12.763 30.8581C12.8538 30.949 12.977 31 13.1055 31H22.3086C22.4371 31 22.5603 30.949 22.6511 30.8581C22.7419 30.7673 22.793 30.6441 22.793 30.5156V29.5469C22.7923 28.9048 22.5369 28.2892 22.0828 27.8351C21.6288 27.3811 21.0132 27.1257 20.3711 27.125ZM21.8242 30.0312H13.5898V29.5469C13.5903 29.1616 13.7435 28.7922 14.0159 28.5198C14.2883 28.2474 14.6577 28.0942 15.043 28.0938H20.3711C20.7564 28.0942 21.1257 28.2474 21.3981 28.5198C21.6706 28.7922 21.8238 29.1616 21.8242 29.5469V30.0312Z" fill="#123455"/>
</svg>
