<svg width="31" height="31" viewBox="0 0 31 31" fill="none" xmlns="http://www.w3.org/2000/svg">
<path d="M18.601 30.6963C18.3808 30.6963 18.1782 30.5572 18.1079 30.3382C18.0779 30.2717 17.8981 30.1213 17.774 30.0486C16.2337 29.1553 14.4928 25.2056 14.2994 24.7585L12.665 18.5146C12.6071 18.2936 12.7043 18.0613 12.9028 17.9457C13.9107 17.3594 14.6871 17.4116 15.1647 17.5589C15.8336 17.7666 16.3836 18.2926 16.7516 19.0805L17.5673 20.7668V11.2547C17.5673 10.1261 18.4946 9.20825 19.6348 9.20825C20.7751 9.20825 21.7024 10.1261 21.7024 11.2547V16.6462C22.0063 16.4712 22.3599 16.3709 22.7362 16.3709C23.4878 16.3709 24.1453 16.769 24.5081 17.3635C24.8679 17.0637 25.3321 16.8826 25.8376 16.8826C26.738 16.8826 27.5061 17.4556 27.7894 18.2517C28.1181 18.0337 28.5141 17.9058 28.9389 17.9058C30.0792 17.9058 31.0065 18.8237 31.0065 19.9523V28.1382C31.0065 29.5483 29.8477 30.6963 28.4221 30.6963H23.2531C22.9678 30.6963 22.7362 30.4671 22.7362 30.1847C22.7362 29.9023 22.9678 29.6731 23.2531 29.6731H28.4221C29.277 29.6731 29.9727 28.9844 29.9727 28.1382V19.9523C29.9727 19.3885 29.5096 18.9291 28.9389 18.9291C28.3683 18.9291 27.9052 19.3885 27.9052 19.9523C27.9052 20.2347 27.6736 20.4639 27.3883 20.4639C27.1029 20.4639 26.8714 20.2347 26.8714 19.9523V18.9291C26.8714 18.3652 26.4082 17.9058 25.8376 17.9058C25.2669 17.9058 24.8038 18.3652 24.8038 18.9291C24.8038 19.2115 24.5722 19.4407 24.2869 19.4407C24.0016 19.4407 23.77 19.2115 23.77 18.9291V18.4174C23.77 17.8536 23.3069 17.3942 22.7362 17.3942C22.1656 17.3942 21.7024 17.8536 21.7024 18.4174C21.7024 18.6998 21.4708 18.9291 21.1855 18.9291C20.9002 18.9291 20.6686 18.6998 20.6686 18.4174V11.2547C20.6686 10.6909 20.2055 10.2315 19.6348 10.2315C19.0642 10.2315 18.601 10.6909 18.601 11.2547V23.022C18.601 23.2604 18.4336 23.4682 18.1979 23.5214C17.9601 23.5766 17.7223 23.4579 17.6169 23.243L15.816 19.5154C15.6444 19.148 15.3405 18.6845 14.8556 18.5351C14.5393 18.4379 14.1754 18.4768 13.7681 18.6538L15.2743 24.43C15.7374 25.487 17.2375 28.5537 18.2971 29.1676C18.448 29.2556 18.9474 29.5759 19.0931 30.0322C19.1789 30.3014 19.028 30.5889 18.7561 30.6738C18.7055 30.6892 18.6527 30.6963 18.601 30.6963Z" fill="#123455"/>
<path d="M19.1173 7.67487C18.9849 7.67487 18.8526 7.62473 18.7513 7.52547L16.1668 4.96737C15.9652 4.76784 15.9652 4.44347 16.1668 4.24394C16.3684 4.0444 16.6961 4.0444 16.8977 4.24394L19.1173 6.43981L24.954 0.662589C25.1556 0.463056 25.4833 0.463056 25.6849 0.662589C25.8865 0.862121 25.8865 1.18649 25.6849 1.38602L19.4822 7.52547C19.3819 7.62473 19.2496 7.67487 19.1173 7.67487Z" fill="#123455"/>
<path d="M9.8132 11.2557H1.54287C0.687929 11.2557 -0.0078125 10.567 -0.0078125 9.7208V1.53486C-0.0078125 0.688642 0.687929 0 1.54287 0H9.8132C10.6681 0 11.3639 0.688642 11.3639 1.53486V9.7208C11.3639 10.567 10.6681 11.2557 9.8132 11.2557ZM1.54287 1.02324C1.25858 1.02324 1.02598 1.25245 1.02598 1.53486V9.7208C1.02598 10.0032 1.25858 10.2324 1.54287 10.2324H9.8132C10.0975 10.2324 10.3301 10.0032 10.3301 9.7208V1.53486C10.3301 1.25245 10.0975 1.02324 9.8132 1.02324H1.54287Z" fill="#123455"/>
<path d="M9.8132 24.5574H1.54287C0.687929 24.5574 -0.0078125 23.8688 -0.0078125 23.0226V14.8366C-0.0078125 13.9904 0.687929 13.3018 1.54287 13.3018H9.8132C10.6681 13.3018 11.3639 13.9904 11.3639 14.8366V23.0226C11.3639 23.8688 10.6681 24.5574 9.8132 24.5574ZM1.54287 14.325C1.25858 14.325 1.02598 14.5542 1.02598 14.8366V23.0226C1.02598 23.305 1.25858 23.5342 1.54287 23.5342H9.8132C10.0975 23.5342 10.3301 23.305 10.3301 23.0226V14.8366C10.3301 14.5542 10.0975 14.325 9.8132 14.325H1.54287Z" fill="#123455"/>
<path d="M16.0181 11.2557H14.9843C14.1293 11.2557 13.4336 10.567 13.4336 9.7208V1.53486C13.4336 0.688642 14.1293 0 14.9843 0H23.2546C23.5399 0 23.7715 0.229206 23.7715 0.511621C23.7715 0.794036 23.5399 1.02324 23.2546 1.02324H14.9843C14.7 1.02324 14.4674 1.25245 14.4674 1.53486V9.7208C14.4674 10.0032 14.7 10.2324 14.9843 10.2324H16.0181C16.3034 10.2324 16.535 10.4616 16.535 10.744C16.535 11.0265 16.3034 11.2557 16.0181 11.2557Z" fill="#123455"/>
<path d="M23.2485 11.2547H21.181C20.8956 11.2547 20.6641 11.0255 20.6641 10.7431C20.6641 10.4607 20.8956 10.2315 21.181 10.2315H23.2485C23.5328 10.2315 23.7654 10.0023 23.7654 9.71987V4.60366C23.7654 4.32125 23.997 4.09204 24.2823 4.09204C24.5677 4.09204 24.7992 4.32125 24.7992 4.60366V9.71987C24.7992 10.5661 24.1035 11.2547 23.2485 11.2547Z" fill="#123455"/>
</svg>
