<svg width="19" height="20" viewBox="0 0 19 20" fill="none" xmlns="http://www.w3.org/2000/svg">
<path d="M13.875 0C13.7975 0 6.375 0 6.375 0C5.05249 0 3.87501 1.21313 3.87501 2.50001L3.15251 2.51689C1.83063 2.51689 0.75 3.71312 0.75 5V17.5C0.75 18.7869 1.92751 20 3.25001 20H12.625C13.9475 20 15.125 18.7869 15.125 17.5H15.75C17.0725 17.5 18.25 16.2869 18.25 15V5.01501L13.875 0ZM12.625 18.75H3.25001C2.59376 18.75 2.00002 18.1369 2.00002 17.5V5C2.00002 4.36314 2.5344 3.77062 3.19065 3.77062L3.87501 3.75001V15C3.87501 16.2869 5.05249 17.5 6.375 17.5H13.875C13.875 18.1369 13.2812 18.75 12.625 18.75ZM17 15C17 15.6369 16.4063 16.25 15.75 16.25H6.375C5.71875 16.25 5.125 15.6369 5.125 15V2.50001C5.125 1.86315 5.71875 1.25002 6.375 1.25002H12.625C12.615 2.6894 12.625 3.76565 12.625 3.76565C12.625 5.0644 13.7937 6.25002 15.125 6.25002C15.125 6.25002 15.7888 6.25002 17 6.25002V15ZM15.125 5C14.4594 5 13.875 3.79064 13.875 3.14188C13.875 3.14188 13.875 2.48437 13.875 1.26938V1.26812L17 5H15.125ZM13.875 8.76127H8.25001C7.90502 8.76127 7.62502 9.04064 7.62502 9.38564C7.62502 9.73064 7.90502 10.01 8.25001 10.01H13.875C14.22 10.01 14.5 9.73061 14.5 9.38564C14.5 9.04064 14.22 8.76127 13.875 8.76127ZM13.875 11.8831H8.25001C7.90502 11.8831 7.62502 12.1625 7.62502 12.5075C7.62502 12.8525 7.90502 13.1319 8.25001 13.1319H13.875C14.22 13.1319 14.5 12.8525 14.5 12.5075C14.5 12.1625 14.22 11.8831 13.875 11.8831Z" fill="#123455"/>
</svg>
