<svg width="31" height="31" viewBox="0 0 31 31" fill="none" xmlns="http://www.w3.org/2000/svg">
<g clip-path="url(#clip0_1296_7878)">
<path d="M8.28868 14.4453C7.1477 14.4453 6.22266 15.3704 6.22266 16.5113C6.22266 17.6524 7.1477 18.5774 8.28868 18.5774C9.42952 18.5774 10.3547 17.6524 10.3547 16.5113C10.3547 15.3704 9.42952 14.4453 8.28868 14.4453ZM8.28868 17.5443C7.71819 17.5443 7.25573 17.0817 7.25573 16.5113C7.25573 15.9407 7.71819 15.4783 8.28868 15.4783C8.85903 15.4783 9.32149 15.9407 9.32149 16.5113C9.32149 17.0817 8.85903 17.5443 8.28868 17.5443Z" fill="#123455"/>
<path d="M21.5606 8.31932C22.8134 5.9287 22.2115 2.98679 20.1207 1.28C18.0298 -0.426665 15.0268 -0.426665 12.9359 1.28C10.8449 2.98679 10.2433 5.9287 11.4958 8.31932C11.064 8.35888 10.635 8.42502 10.2109 8.51735C9.37639 7.09146 7.85038 6.2131 6.19819 6.20779C5.91288 6.20779 5.68165 6.43876 5.68165 6.72419V10.7564C3.93634 12.2506 2.74103 14.2856 2.28558 16.5379H0.516537C0.231359 16.5379 0 16.769 0 17.0544V21.1865C0 21.4718 0.231359 21.7029 0.516537 21.7029H2.55065C3.32942 24.1662 4.99834 26.2508 7.23126 27.5503V30.4836C7.23126 30.7688 7.46262 31 7.74767 31H12.3962C12.6816 31 12.9129 30.7688 12.9129 30.4836V28.934H20.1439V30.4836C20.1439 30.7688 20.3751 31 20.6602 31H25.3089C25.5942 31 25.8254 30.7688 25.8254 30.4836V27.5503C28.7252 25.8743 30.6316 22.8956 30.9387 19.5602C30.9719 19.416 30.9893 19.2684 30.9906 19.1203V18.604C30.9828 13.2518 26.892 8.79008 21.5606 8.31932ZM16.5283 1.04267C19.0957 1.04267 21.1769 3.12399 21.1769 5.69138C21.1769 8.25837 19.0957 10.34 16.5283 10.34C13.961 10.34 11.8798 8.25837 11.8798 5.69138C11.8826 3.12503 13.9621 1.04552 16.5283 1.04267ZM29.9223 19.3745C29.789 19.873 29.3081 20.1968 28.796 20.1329C28.284 20.0687 27.8978 19.6365 27.8913 19.1203V18.604H26.8585V19.1203C26.8585 20.2613 27.7834 21.1865 28.9244 21.1865C29.1648 21.1843 29.4031 21.1395 29.6278 21.0544C28.9567 23.5116 27.3067 25.5856 25.0635 26.7924C24.8965 26.8825 24.7924 27.0572 24.7924 27.2472V29.9671H21.1769V28.4175C21.1769 28.132 20.9455 27.9012 20.6602 27.9012H12.3962C12.1109 27.9012 11.8798 28.132 11.8798 28.4175V29.9671H8.26421V27.2472C8.26421 27.0572 8.15994 26.8825 7.99317 26.7924C5.75479 25.5796 4.10857 23.5058 3.43576 21.0504C3.37455 20.8259 3.17068 20.6697 2.93751 20.6701H1.0332V17.5708H2.71665C2.97071 17.5707 3.18702 17.3862 3.22683 17.1353C3.58269 14.8824 4.75712 12.8396 6.52448 11.3981C6.64482 11.2999 6.7146 11.153 6.7146 10.9977V7.27899C7.91963 7.45795 8.95491 8.22841 9.47223 9.33165C9.57727 9.55691 9.82821 9.67558 10.0694 9.61346C10.7517 9.43592 11.4517 9.33593 12.1566 9.31544C12.4822 9.70488 12.8579 10.0493 13.2745 10.34H11.3632V11.3729H21.6933V10.34H19.7849C20.1988 10.05 20.5728 9.70644 20.8967 9.31868C25.9331 9.44966 29.9497 13.5661 29.9573 18.604C29.9573 18.8621 29.943 19.1203 29.9223 19.3745Z" fill="#123455"/>
<path d="M16.5561 3.625V2.5918C14.8453 2.59348 13.459 3.98008 13.457 5.69102H14.4902C14.4902 4.54979 15.4153 3.625 16.5561 3.625Z" fill="#123455"/>
<path d="M16.5547 8.79037C18.2656 8.78843 19.652 7.40196 19.6538 5.69141H18.6207C18.6207 6.83238 17.6955 7.75717 16.5547 7.75717V8.79037Z" fill="#123455"/>
<path d="M25.3415 4.74355C25.3833 4.99216 25.5986 5.17385 25.8507 5.17385C26.1025 5.17385 26.3178 4.99216 26.3598 4.74355C26.5005 3.90215 27.1597 3.2427 28.0014 3.10225C28.2498 3.06011 28.4318 2.84483 28.4318 2.59285C28.4318 2.34074 28.2498 2.12572 28.0014 2.08344C27.1597 1.943 26.5005 1.28354 26.3598 0.442404C26.3178 0.193668 26.1025 0.0117188 25.8507 0.0117188C25.5986 0.0117188 25.3833 0.193668 25.3415 0.442404C25.2005 1.28354 24.5414 1.943 23.7 2.08344C23.4515 2.12572 23.2695 2.34074 23.2695 2.59285C23.2695 2.84483 23.4515 3.06011 23.7 3.10225C24.5414 3.2427 25.2005 3.90215 25.3415 4.74355ZM25.8507 1.85507C26.0519 2.14167 26.3014 2.39132 26.5882 2.59285C26.3014 2.79425 26.0519 3.0439 25.8507 3.3305C25.6491 3.0439 25.3996 2.79425 25.113 2.59285C25.3996 2.39132 25.6491 2.14167 25.8507 1.85507Z" fill="#123455"/>
</g>
<defs>
<clipPath id="clip0_1296_7878">
<rect width="31" height="31" fill="white"/>
</clipPath>
</defs>
</svg>
