<svg width="31" height="31" viewBox="0 0 31 31" fill="none" xmlns="http://www.w3.org/2000/svg">
<g clip-path="url(#clip0_1296_7860)">
<path d="M22.023 16.2417C18.9126 16.3161 18.9075 20.8752 22.0168 20.9578C25.1271 20.8824 25.1312 16.3254 22.023 16.2417ZM21.2118 18.6029C21.2128 17.5447 22.8217 17.5406 22.8279 18.5987C22.8238 19.6538 21.2201 19.6579 21.2118 18.6029Z" fill="#123455" stroke="#F3FCFF" stroke-width="0.6"/>
<path d="M15.8242 14.7567C18.9335 14.6781 18.9335 10.1191 15.8242 10.0405C12.7138 10.1201 12.7159 14.6761 15.8242 14.7567ZM15.8242 11.5916C16.8813 11.5957 16.8813 13.2036 15.8242 13.2077C14.7671 13.2025 14.7681 11.5978 15.8242 11.5916Z" fill="#123455" stroke="#F3FCFF" stroke-width="0.6"/>
<path d="M23.9578 10.4743C23.6551 10.1705 23.1622 10.1695 22.8584 10.4723L13.8787 19.4096C13.5697 19.7061 13.5604 20.197 13.857 20.5049C14.1598 20.8211 14.6671 20.8221 14.972 20.508L23.9527 11.5717C24.2575 11.27 24.2596 10.7792 23.9578 10.4743Z" fill="#123455" stroke="#F3FCFF" stroke-width="0.6"/>
<path d="M9.15 10.8882C8.7222 10.8882 8.375 11.2354 8.375 11.6632V13.6503C8.375 14.0781 8.7222 14.4253 9.15 14.4253C9.5778 14.4253 9.925 14.0781 9.925 13.6503V11.6632C9.925 11.2354 9.5778 10.8882 9.15 10.8882Z" fill="#123455" stroke="#F3FCFF" stroke-width="0.6"/>
<path d="M9.15 16.5747C8.7222 16.5747 8.375 16.9219 8.375 17.3497V19.3358C8.375 19.7636 8.7222 20.1108 9.15 20.1108C9.5778 20.1108 9.925 19.7636 9.925 19.3358V17.3497C9.925 16.9219 9.5778 16.5747 9.15 16.5747Z" fill="#123455" stroke="#F3FCFF" stroke-width="0.6"/>
<path d="M29.3206 12.9388C30.1958 12.4697 30.7404 11.5552 30.7373 10.5622V7.90443C30.7352 6.41126 29.5262 5.20226 28.033 5.2002H2.95816C1.465 5.20226 0.255996 6.41126 0.25393 7.90443V10.5601C0.25083 11.5531 0.795396 12.4676 1.67063 12.9368C3.08526 13.6942 3.61846 15.455 2.86103 16.8696C2.5903 17.3749 2.17593 17.7893 1.67063 18.06C0.794363 18.5302 0.249796 19.4447 0.25393 20.4388V23.0944C0.255996 24.5876 1.465 25.7966 2.95816 25.7987H28.033C29.5262 25.7966 30.7352 24.5876 30.7373 23.0944V20.4388C30.7404 19.4457 30.1958 18.5312 29.3206 18.0621C27.2911 17.0463 27.3066 13.9546 29.3206 12.9388ZM26.7682 17.6012C27.1826 18.3752 27.8171 19.0097 28.591 19.424C28.962 19.6245 29.1914 20.013 29.1873 20.4346V23.0903C29.1862 23.7279 28.6706 24.2435 28.033 24.2445H9.9156C9.87323 23.5729 10.1822 22.2874 9.1406 22.2616C8.09796 22.2864 8.40796 23.578 8.3656 24.2487H2.95816C2.3206 24.2476 1.80496 23.732 1.80393 23.0944V20.4388C1.7998 20.0172 2.0292 19.6286 2.40016 19.4282C4.56913 18.2667 5.38443 15.5666 4.22296 13.3976C3.8086 12.6237 3.17413 11.9892 2.40016 11.5748C2.0292 11.3744 1.7998 10.9858 1.80393 10.5642V7.90443C1.80496 7.26686 2.3206 6.75123 2.95816 6.7502H8.3656C8.40796 7.4229 8.09693 8.71146 9.1406 8.7373C10.1832 8.7125 9.87323 7.42083 9.9156 6.7502H28.033C28.6706 6.75123 29.1862 7.26686 29.1873 7.90443V10.5601C29.1914 10.9817 28.962 11.3702 28.591 11.5707C26.4221 12.7322 25.6057 15.4323 26.7682 17.6012Z" fill="#123455" stroke="#F3FCFF" stroke-width="0.6"/>
</g>
<defs>
<clipPath id="clip0_1296_7860">
<rect width="31" height="31" fill="white"/>
</clipPath>
</defs>
</svg>
