<svg width="220" height="80" viewBox="0 0 220 80" fill="none" xmlns="http://www.w3.org/2000/svg">
<g clip-path="url(#clip0_1148_916)">
<rect width="38.7455" height="39.38" transform="translate(0 40)" fill="white"/>
<rect y="40" width="40" height="40" fill="#00B67A"/>
<path d="M19.1685 45L22.574 55.4812H33.5946L24.6788 61.9589L28.0843 72.4401L19.1685 65.9623L10.2527 72.4401L13.6582 61.9589L4.7424 55.4812H15.763L19.1685 45Z" fill="white"/>
</g>
<g clip-path="url(#clip1_1148_916)">
<rect width="38.7455" height="39.38" transform="translate(43.6562 40)" fill="white"/>
<rect x="43.6562" y="40" width="40" height="40" fill="#00B67A"/>
<path d="M62.8247 45L66.2303 55.4812H77.2508L68.335 61.9589L71.7406 72.4401L62.8247 65.9623L53.9089 72.4401L57.3145 61.9589L48.3986 55.4812H59.4192L62.8247 45Z" fill="white"/>
</g>
<g clip-path="url(#clip2_1148_916)">
<rect width="38.7455" height="39.38" transform="translate(87.3125 40)" fill="white"/>
<rect x="87.3125" y="40" width="40" height="40" fill="#00B67A"/>
<path d="M106.481 45L109.887 55.4812H120.907L111.991 61.9589L115.397 72.4401L106.481 65.9623L97.5652 72.4401L100.971 61.9589L92.0549 55.4812H103.075L106.481 45Z" fill="white"/>
</g>
<g clip-path="url(#clip3_1148_916)">
<rect width="38.7455" height="39.38" transform="translate(130.965 40)" fill="white"/>
<rect x="130.965" y="40" width="40" height="40" fill="#00B67A"/>
<path d="M150.133 45L153.539 55.4812H164.559L155.644 61.9589L159.049 72.4401L150.133 65.9623L141.218 72.4401L144.623 61.9589L135.707 55.4812H146.728L150.133 45Z" fill="white"/>
</g>
<g clip-path="url(#clip4_1148_916)">
<rect width="38.7455" height="39.38" transform="translate(174.621 40)" fill="white"/>
<rect x="174.621" y="40" width="40" height="40" fill="#00B67A"/>
<path d="M194.17 45L197.576 55.4822H208.598L199.681 61.9606L203.087 72.4428L194.17 65.9644L185.253 72.4428L188.659 61.9606L179.742 55.4822H190.764L194.17 45Z" fill="white"/>
<mask id="mask0_1148_916" style="mask-type:alpha" maskUnits="userSpaceOnUse" x="179" y="45" width="30" height="28">
<path d="M194.17 45L197.576 55.4822L208.598 55.4822L199.681 61.9606L203.087 72.4428L194.17 65.9644L185.253 72.4428L188.659 61.9606L179.742 55.4822L190.764 55.4822L194.17 45Z" fill="white"/>
</mask>
<g mask="url(#mask0_1148_916)">
<rect x="195" y="43" width="18" height="36" fill="#00B67A"/>
</g>
</g>
<path d="M9.15261 20.653V18.1993H17.3646C17.4558 18.6955 17.5002 19.1993 17.4971 19.7038C17.4971 21.5434 16.9938 23.8216 15.3718 25.4423C13.7949 27.0851 11.7804 27.9615 9.10875 27.9615C4.16028 27.9615 0 23.931 0 18.9807C0 14.0304 4.16028 9.99994 9.10965 9.99994C11.8477 9.99994 13.7958 11.0735 15.2632 12.4753L13.5331 14.2054C12.4808 13.2201 11.0587 12.4531 9.10965 12.4531C5.49654 12.4531 2.67162 15.3662 2.67162 18.9807C2.67162 22.5952 5.49654 25.5105 9.10965 25.5105C11.453 25.5105 12.7888 24.5686 13.6425 23.7144C14.3385 23.0184 14.797 22.02 14.9747 20.6552L9.15261 20.653Z" fill="white"/>
<path d="M30.0038 22.1784C30.0038 25.5102 27.3973 27.9611 24.2011 27.9611C21.0049 27.9611 18.3984 25.5102 18.3984 22.1784C18.3984 18.8271 21.0045 16.3956 24.202 16.3956C27.3996 16.3956 30.0047 18.8271 30.0047 22.1784M27.4647 22.1784C27.4647 20.0982 25.9539 18.6738 24.202 18.6738C22.4502 18.6738 20.9389 20.0973 20.9389 22.1784C20.9389 24.2372 22.4497 25.6829 24.202 25.6829C25.9543 25.6829 27.4647 24.2359 27.4647 22.1784Z" fill="white"/>
<path d="M42.6761 22.1782C42.6761 25.5101 40.0719 27.961 36.8734 27.961C33.675 27.961 31.0703 25.5101 31.0703 22.1782C31.0703 18.8269 33.6759 16.3954 36.8734 16.3954C40.071 16.3954 42.6761 18.8269 42.6761 22.1782ZM40.1361 22.1782C40.1361 20.0981 38.6253 18.6737 36.8734 18.6737C35.1216 18.6737 33.6103 20.0972 33.6103 22.1782C33.6103 24.2371 35.1212 25.6828 36.8734 25.6828C38.6257 25.6828 40.1361 24.2358 40.1361 22.1782Z" fill="white"/>
<path d="M54.8138 16.7459V27.1285C54.8138 31.4 52.2955 33.1523 49.3173 33.1523C46.5136 33.1523 44.8278 31.2684 44.1929 29.7355L46.406 28.8152C46.7999 29.7572 47.7626 30.8741 49.3186 30.8741C51.2238 30.8741 52.4063 29.6912 52.4063 27.479V26.6469H52.3186C51.7492 27.3478 50.6545 27.961 49.2748 27.961C46.3838 27.961 43.7344 25.4418 43.7344 22.2004C43.7344 18.9364 46.3838 16.3954 49.2748 16.3954C50.6545 16.3954 51.7492 17.0086 52.3186 17.6878H52.4063V16.7459H54.8138ZM52.5799 22.2004C52.5799 20.1632 51.2233 18.6732 49.4923 18.6732C47.7405 18.6732 46.273 20.1628 46.273 22.2004C46.273 24.2154 47.7405 25.6824 49.4923 25.6824C51.2224 25.6824 52.5799 24.215 52.5799 22.2004Z" fill="white"/>
<path d="M59.1025 10.6699H56.5625V27.6108H59.1025V10.6699Z" fill="white"/>
<path d="M68.9206 24.0839L70.8913 25.3981C70.2582 26.34 68.7234 27.9611 66.0735 27.9611C62.7887 27.9611 60.3359 25.4202 60.3359 22.1784C60.3359 18.7416 62.8108 16.3956 65.7886 16.3956C68.789 16.3956 70.2559 18.7832 70.738 20.0756L71.0007 20.7327L63.268 23.9306C63.8595 25.0915 64.7793 25.6829 66.0717 25.6829C67.3641 25.6829 68.2617 25.0499 68.9206 24.0839ZM62.8543 22.0038L68.0225 19.8576C67.7376 19.1341 66.8839 18.6313 65.8763 18.6313C64.5844 18.6313 62.7887 19.7704 62.8543 22.0047" fill="white"/>
<defs>
<clipPath id="clip0_1148_916">
<rect width="38.7455" height="39.38" fill="white" transform="translate(0 40)"/>
</clipPath>
<clipPath id="clip1_1148_916">
<rect width="38.7455" height="39.38" fill="white" transform="translate(43.6562 40)"/>
</clipPath>
<clipPath id="clip2_1148_916">
<rect width="38.7455" height="39.38" fill="white" transform="translate(87.3125 40)"/>
</clipPath>
<clipPath id="clip3_1148_916">
<rect width="38.7455" height="39.38" fill="white" transform="translate(130.965 40)"/>
</clipPath>
<clipPath id="clip4_1148_916">
<rect width="38.7455" height="39.38" fill="white" transform="translate(174.621 40)"/>
</clipPath>
</defs>
</svg>
