<svg width="220" height="80" viewBox="0 0 220 80" fill="none" xmlns="http://www.w3.org/2000/svg">
<g clip-path="url(#clip0_1144_1062)">
<rect width="38.7455" height="39.38" transform="translate(0 40)" fill="white"/>
<rect y="40" width="40" height="40" fill="#00B67A"/>
<path d="M19.1685 45L22.574 55.4812H33.5946L24.6788 61.9589L28.0843 72.4401L19.1685 65.9623L10.2527 72.4401L13.6582 61.9589L4.7424 55.4812H15.763L19.1685 45Z" fill="white"/>
</g>
<g clip-path="url(#clip1_1144_1062)">
<rect width="38.7455" height="39.38" transform="translate(43.6562 40)" fill="white"/>
<rect x="43.6562" y="40" width="40" height="40" fill="#00B67A"/>
<path d="M62.8247 45L66.2303 55.4812H77.2508L68.335 61.9589L71.7406 72.4401L62.8247 65.9623L53.9089 72.4401L57.3145 61.9589L48.3986 55.4812H59.4192L62.8247 45Z" fill="white"/>
</g>
<g clip-path="url(#clip2_1144_1062)">
<rect width="38.7455" height="39.38" transform="translate(87.3125 40)" fill="white"/>
<rect x="87.3125" y="40" width="40" height="40" fill="#00B67A"/>
<path d="M106.481 45L109.887 55.4812H120.907L111.991 61.9589L115.397 72.4401L106.481 65.9623L97.5652 72.4401L100.971 61.9589L92.0549 55.4812H103.075L106.481 45Z" fill="white"/>
</g>
<g clip-path="url(#clip3_1144_1062)">
<rect width="38.7455" height="39.38" transform="translate(130.965 40)" fill="white"/>
<rect x="130.965" y="40" width="40" height="40" fill="#00B67A"/>
<path d="M150.133 45L153.539 55.4812H164.559L155.644 61.9589L159.049 72.4401L150.133 65.9623L141.218 72.4401L144.623 61.9589L135.707 55.4812H146.728L150.133 45Z" fill="white"/>
</g>
<g clip-path="url(#clip4_1144_1062)">
<rect width="38.7455" height="39.38" transform="translate(174.621 40)" fill="white"/>
<rect x="174.621" y="40" width="40" height="40" fill="#00B67A"/>
<path d="M194.17 45L197.576 55.4822H208.598L199.681 61.9606L203.087 72.4428L194.17 65.9644L185.253 72.4428L188.659 61.9606L179.742 55.4822H190.764L194.17 45Z" fill="white"/>
<mask id="mask0_1144_1062" style="mask-type:alpha" maskUnits="userSpaceOnUse" x="179" y="45" width="30" height="28">
<path d="M194.17 45L197.576 55.4822L208.598 55.4822L199.681 61.9606L203.087 72.4428L194.17 65.9644L185.253 72.4428L188.659 61.9606L179.742 55.4822L190.764 55.4822L194.17 45Z" fill="white"/>
</mask>
<g mask="url(#mask0_1144_1062)">
<rect x="200.871" y="43.016" width="12.1392" height="35.993" fill="#00B67A"/>
</g>
</g>
<path d="M4.17548 12.0552C4.17548 12.0736 3.88101 13.4723 3.53133 15.1287C3.18165 16.8035 2.42708 20.3555 1.87495 23.0425C1.30442 25.7295 0.807502 28.03 0.770694 28.1404C0.715481 28.3244 1.10197 28.3796 2.39027 28.3796H4.08346L4.48835 26.3C5.5742 20.7972 5.86867 19.9874 6.95452 19.196C7.81952 18.5519 9.21824 18.5335 9.73356 19.1776C10.1937 19.7481 10.1569 20.0794 9.18143 24.662C8.75813 26.6128 8.40845 28.2508 8.40845 28.306C8.40845 28.3428 9.14462 28.3796 10.0464 28.3796C11.4267 28.3796 11.7028 28.3244 11.7948 28.0668C12.1261 27.2386 13.5616 19.7665 13.5616 18.9752C13.5616 17.3556 12.8255 16.417 11.2795 16.0305C9.67835 15.644 7.87473 16.0857 6.82569 17.1163L6.32877 17.6132L6.4392 17.1531C6.49441 16.8955 6.71526 15.8281 6.91771 14.7606C7.13856 13.7116 7.35941 12.6441 7.41462 12.4233C7.52505 12 7.50664 12 5.85026 12C4.93005 12 4.17548 12.0184 4.17548 12.0552Z" fill="white"/>
<path d="M69.5056 13.9695C69.2848 15.0737 69.0087 16.362 68.9167 16.8773C68.8063 17.3742 68.6774 17.8343 68.6406 17.8712C68.6038 17.9264 68.3094 17.7055 67.9781 17.3926C66.1745 15.6627 63.0089 15.8835 60.8004 17.8896C58.3527 20.1165 57.2852 24.9199 58.7576 27.0916C59.5305 28.2511 60.4323 28.6559 62.236 28.6559C63.469 28.6559 63.8739 28.5823 64.7389 28.1406C65.3095 27.8646 65.9904 27.4413 66.2665 27.1836C66.7818 26.7051 66.837 26.8339 66.5794 27.791L66.3953 28.3799H67.2235C67.6652 28.3799 68.0333 28.3615 68.0333 28.3247C68.0333 28.3063 68.3278 26.9076 68.6774 25.2512C69.0455 23.5764 69.5424 21.2207 69.7817 20.006C70.0394 18.7914 70.5179 16.4908 70.8491 14.8897L71.4749 12.0002H70.7019H69.9289L69.5056 13.9695ZM66.3769 17.9816C68.2541 18.957 68.291 22.7666 66.4505 25.3064C65.4751 26.6499 64.5549 27.1652 62.9905 27.2388C61.8679 27.294 61.5918 27.2572 61.0397 26.8707C59.8434 26.061 59.4937 24.6623 59.9538 22.4538C60.3955 20.4109 61.6838 18.6073 63.1378 17.9632C63.9107 17.6319 65.7144 17.6319 66.3769 17.9816Z" fill="white"/>
<path d="M83.7635 12.847C83.7083 13.3255 83.5978 13.8224 83.5426 13.9513C83.469 14.1537 83.653 14.2089 84.2788 14.2089H85.0886L85.3278 13.3255C85.4383 12.847 85.5855 12.3501 85.6223 12.2213C85.6591 12.074 85.4199 12.0004 84.7941 12.0004H83.8923L83.7635 12.847Z" fill="white"/>
<path d="M42.5451 13.3252C42.4899 13.5644 42.3426 14.2822 42.2138 14.9448L41.9746 16.141L41.1464 16.1962L40.2998 16.2514L40.0237 17.3925C39.8765 18.0182 39.7845 18.5888 39.8213 18.6624C39.8581 18.7544 40.2262 18.8096 40.6311 18.8096C41.0175 18.8096 41.3488 18.8832 41.3488 18.9752C41.3488 19.0673 41.0544 20.5396 40.6863 22.2512C40.3182 23.9444 39.9501 25.6743 39.8581 26.0792C39.674 26.981 39.9133 27.8276 40.4654 28.1957C40.7415 28.3613 41.5513 28.4902 42.7475 28.527L44.6248 28.6006L44.8272 27.662C45.1769 26.0424 45.1401 25.9872 44.2015 25.9872C43.3917 25.9872 43.3733 25.9688 43.3733 25.3799C43.3733 25.067 43.4653 24.4597 43.5573 24.0548C43.7414 23.3186 44.6616 18.9937 44.6616 18.8832C44.6616 18.8464 45.1033 18.8096 45.6554 18.8096H46.6492L46.8517 17.8894C47.2014 16.2698 47.183 16.233 46.1155 16.233C45.2873 16.233 45.1953 16.1962 45.3057 15.9018C45.4162 15.6257 45.9499 13.1964 45.9499 12.9939C45.9499 12.9571 45.2137 12.9203 44.2935 12.9203C42.7291 12.9203 42.6371 12.9387 42.5451 13.3252Z" fill="white"/>
<path d="M19.915 16.0305C18.1113 16.4722 16.1237 18.1838 15.1851 20.1162C14.4305 21.6622 14.0624 23.7787 14.3201 25.0485C14.5593 26.2264 15.0194 27.2202 15.5163 27.6619C17.1359 29.079 20.3015 29.2631 22.7124 28.0852C26.0804 26.4473 27.9576 21.5886 26.5405 18.1838C26.2092 17.3924 24.9209 16.2882 24.0743 16.0489C23.3197 15.8465 20.7432 15.8281 19.915 16.0305ZM22.3443 18.8096C23.1173 19.0856 23.5038 19.8586 23.5038 21.1653C23.5038 23.8707 21.9026 25.9872 19.8413 25.9872C18.1298 25.9872 17.412 24.7909 17.7985 22.6376C18.3322 19.7114 20.2646 18.0918 22.3443 18.8096Z" fill="white"/>
<path d="M32.345 16.1041C30.5414 16.6194 29.0691 17.9997 28.5538 19.6377C27.8176 21.9382 28.7378 22.8584 32.7131 23.8706C34.756 24.3859 35.2529 25.0117 34.2591 25.7846C33.8726 26.0975 33.5045 26.1711 32.5107 26.1711C31.0936 26.1711 30.5046 25.8215 30.5046 24.9749C30.5046 24.5148 30.5046 24.5148 28.7562 24.5148H27.0078V25.2325C27.0078 27.6803 28.5906 28.8397 31.977 28.8213C33.3389 28.8029 33.983 28.7109 34.8848 28.3796C36.8909 27.6435 38.216 25.9319 38.2344 24.0915C38.2344 22.3247 37.3326 21.5333 34.4615 20.8339C31.8481 20.1898 31.3512 19.8033 32.1426 19.0119C32.5843 18.5702 33.5965 18.3494 34.4431 18.515C35.1609 18.6439 35.3817 18.8831 35.5658 19.6009C35.6946 20.0978 35.6946 20.0978 37.351 20.0978H39.0258L38.9154 18.9567C38.7313 16.8955 37.5718 16.0305 34.848 15.9385C33.8358 15.8832 32.842 15.9569 32.345 16.1041Z" fill="white"/>
<path d="M51.0715 16.5642C49.4887 17.1347 48.182 18.423 47.7588 19.8585C47.6483 20.245 47.7035 20.2818 48.4213 20.2818C49.1575 20.2818 49.2127 20.245 49.5256 19.5457C50.0409 18.3862 51.0347 17.8157 52.7095 17.7421C54.3107 17.6501 55.0468 17.9077 55.3413 18.6439C55.6174 19.288 55.4333 20.3739 54.9916 20.8156C54.7892 21.018 54.237 21.2204 53.6665 21.2941C51.2924 21.5885 49.3047 21.9934 48.5133 22.3247C46.4336 23.2265 45.3478 25.7847 46.36 27.4226C47.3723 29.079 50.5746 29.1894 53.004 27.6435C53.8137 27.1466 53.869 27.1282 53.869 27.4594C53.869 28.0852 54.5131 28.5637 55.3965 28.5637C56.3535 28.5637 56.556 28.4348 56.7032 27.7171C56.832 27.165 56.8136 27.165 56.1695 27.2386C55.691 27.2938 55.5253 27.2386 55.5253 27.0361C55.5253 26.8889 55.8934 24.9933 56.3535 22.84C57.3658 17.9629 57.3106 17.4292 55.5069 16.601C54.4763 16.1409 52.323 16.1225 51.0715 16.5642ZM54.6971 23.3553C54.3659 24.9013 54.1634 25.2877 53.4273 25.9503C52.3414 26.8889 51.6789 27.1466 50.0961 27.2386C48.7158 27.3122 48.5869 27.2938 48.1268 26.8521C47.4827 26.2448 47.4459 25.3614 48.0348 24.4964C48.6606 23.5578 49.7832 23.0977 52.1206 22.8584C53.2248 22.748 54.2554 22.5823 54.4211 22.4903C54.8996 22.1959 54.9364 22.2879 54.6971 23.3553Z" fill="white"/>
<path d="M89.8682 16.6011C86.9235 17.7606 84.9727 20.8525 84.9727 24.4228C84.9911 27.3491 86.629 28.8766 89.6105 28.7294C91.8374 28.6006 93.6595 27.4963 94.8189 25.5087C95.4815 24.386 95.4263 24.1468 94.5429 24.1468C93.8987 24.1468 93.7699 24.2204 93.6042 24.6253C93.2914 25.4903 92.3528 26.5025 91.4878 26.9074C90.8068 27.2387 90.4203 27.2939 89.3529 27.2387C88.1014 27.1651 88.0278 27.1467 87.4388 26.4657C87.0891 26.0608 86.7579 25.4535 86.7027 25.1038C86.5002 24.0732 86.7579 22.2512 87.2732 21.1101C88.2854 18.8096 89.721 17.7054 91.6718 17.7054C93.273 17.7054 93.9907 18.2391 94.3772 19.6746C94.5797 20.4292 94.6165 20.466 95.2974 20.466H96.0152V19.4906C96.0152 17.4477 94.5061 16.233 91.9847 16.233C91.2485 16.2514 90.4203 16.3803 89.8682 16.6011Z" fill="white"/>
<path d="M101.39 16.6195C99.9728 17.1717 98.3716 18.7176 97.5802 20.3556C96.2735 23.0058 96.292 26.0056 97.5987 27.4596C99.1814 29.2079 102.899 29.1527 104.997 27.3491C105.641 26.797 106.874 25.1406 106.874 24.8278C106.874 24.7542 106.525 24.6989 106.101 24.6989C105.402 24.7173 105.255 24.791 104.813 25.4351C103.985 26.6314 102.991 27.1651 101.464 27.2387C100.341 27.2939 100.065 27.2571 99.5127 26.8706C98.6109 26.2633 98.2244 25.3983 98.2244 23.9996V22.8585H102.807C105.954 22.8585 107.445 22.8033 107.537 22.6561C107.592 22.5457 107.666 21.6991 107.666 20.7605C107.703 18.9937 107.482 18.3127 106.617 17.3741C105.568 16.1963 103.341 15.8834 101.39 16.6195ZM104.997 18.0735C105.752 18.5336 106.138 19.417 106.138 20.65V21.5702H102.457C99.4943 21.5702 98.7765 21.515 98.7765 21.331C98.7765 20.8893 100.157 18.9017 100.727 18.5336C101.795 17.8342 102.2 17.7054 103.286 17.7054C104.077 17.7054 104.574 17.8158 104.997 18.0735Z" fill="white"/>
<path d="M71.7254 17.4659C72.3511 21.0363 72.6456 22.8767 72.9768 24.8827C73.1977 26.1526 73.4001 27.4593 73.4554 27.7722C73.5658 28.3611 73.6026 28.3795 74.4308 28.3795H75.2958L76.6761 26.079C77.4307 24.8091 78.4981 23.0423 79.0134 22.1589C79.5472 21.2755 80.1913 20.1897 80.449 19.7296C80.7066 19.2695 81.2035 18.4413 81.5532 17.8892C81.9029 17.3371 82.1974 16.8218 82.1974 16.7297C82.1974 16.6561 81.8477 16.6009 81.4244 16.6009C80.541 16.6009 80.9091 16.1224 78.2037 20.7418C77.6699 21.6436 76.989 22.8031 76.6761 23.3184C76.3632 23.8153 75.8295 24.7171 75.4982 25.3244C74.9093 26.3735 74.8909 26.3919 74.7989 25.8766C74.6516 25.122 73.7314 19.5272 73.4738 17.9812L73.2713 16.6929L72.4247 16.6377L71.5781 16.5825L71.7254 17.4659Z" fill="white"/>
<path d="M82.8011 17.7421C82.5803 19.012 80.8135 27.3122 80.6294 27.9563C80.519 28.3428 80.5742 28.3796 81.3288 28.3796H82.1386L82.838 25.0117C83.2244 23.1713 83.7214 20.7051 83.9606 19.5457C84.2183 18.3862 84.4575 17.2452 84.5311 17.0059C84.6416 16.6378 84.5864 16.601 83.8318 16.601H83.0036L82.8011 17.7421Z" fill="white"/>
<path d="M108.734 27.2754C108.623 27.7907 108.531 28.2508 108.531 28.2876C108.531 28.3428 108.936 28.3796 109.433 28.3796H110.335L110.537 27.4594C110.648 26.9441 110.74 26.484 110.74 26.4472C110.74 26.392 110.335 26.3552 109.838 26.3552H108.936L108.734 27.2754Z" fill="white"/>
<defs>
<clipPath id="clip0_1144_1062">
<rect width="38.7455" height="39.38" fill="white" transform="translate(0 40)"/>
</clipPath>
<clipPath id="clip1_1144_1062">
<rect width="38.7455" height="39.38" fill="white" transform="translate(43.6562 40)"/>
</clipPath>
<clipPath id="clip2_1144_1062">
<rect width="38.7455" height="39.38" fill="white" transform="translate(87.3125 40)"/>
</clipPath>
<clipPath id="clip3_1144_1062">
<rect width="38.7455" height="39.38" fill="white" transform="translate(130.965 40)"/>
</clipPath>
<clipPath id="clip4_1144_1062">
<rect width="38.7455" height="39.38" fill="white" transform="translate(174.621 40)"/>
</clipPath>
</defs>
</svg>
