<svg width="220" height="80" viewBox="0 0 220 80" fill="none" xmlns="http://www.w3.org/2000/svg">
<g clip-path="url(#clip0_1150_938)">
<rect width="38.7455" height="39.38" transform="translate(0 40)" fill="white"/>
<rect y="40" width="40" height="40" fill="#00B67A"/>
<path d="M19.1685 45L22.574 55.4812H33.5946L24.6788 61.9589L28.0843 72.4401L19.1685 65.9623L10.2527 72.4401L13.6582 61.9589L4.7424 55.4812H15.763L19.1685 45Z" fill="white"/>
</g>
<g clip-path="url(#clip1_1150_938)">
<rect width="38.7455" height="39.38" transform="translate(43.6562 40)" fill="white"/>
<rect x="43.6562" y="40" width="40" height="40" fill="#00B67A"/>
<path d="M62.8247 45L66.2303 55.4812H77.2508L68.335 61.9589L71.7406 72.4401L62.8247 65.9623L53.9089 72.4401L57.3145 61.9589L48.3986 55.4812H59.4192L62.8247 45Z" fill="white"/>
</g>
<g clip-path="url(#clip2_1150_938)">
<rect width="38.7455" height="39.38" transform="translate(87.3125 40)" fill="white"/>
<rect x="87.3125" y="40" width="40" height="40" fill="#00B67A"/>
<path d="M106.481 45L109.887 55.4812H120.907L111.991 61.9589L115.397 72.4401L106.481 65.9623L97.5652 72.4401L100.971 61.9589L92.0549 55.4812H103.075L106.481 45Z" fill="white"/>
</g>
<g clip-path="url(#clip3_1150_938)">
<rect width="38.7455" height="39.38" transform="translate(130.965 40)" fill="white"/>
<rect x="130.965" y="40" width="40" height="40" fill="#00B67A"/>
<path d="M150.133 45L153.539 55.4812H164.559L155.644 61.9589L159.049 72.4401L150.133 65.9623L141.218 72.4401L144.623 61.9589L135.707 55.4812H146.728L150.133 45Z" fill="white"/>
</g>
<g clip-path="url(#clip4_1150_938)">
<rect width="38.7455" height="39.38" transform="translate(174.621 40)" fill="white"/>
<rect x="174.621" y="40" width="40" height="40" fill="#00B67A"/>
<path d="M194.17 45L197.576 55.4822H208.598L199.681 61.9606L203.087 72.4428L194.17 65.9644L185.253 72.4428L188.659 61.9606L179.742 55.4822H190.764L194.17 45Z" fill="white"/>
<mask id="mask0_1150_938" style="mask-type:alpha" maskUnits="userSpaceOnUse" x="179" y="45" width="30" height="28">
<path d="M194.17 45L197.576 55.4822L208.598 55.4822L199.681 61.9606L203.087 72.4428L194.17 65.9644L185.253 72.4428L188.659 61.9606L179.742 55.4822L190.764 55.4822L194.17 45Z" fill="white"/>
</mask>
<g mask="url(#mask0_1150_938)">
<rect x="200.871" y="43.016" width="12.1392" height="35.993" fill="#00B67A"/>
</g>
</g>
<path d="M47.0664 21.7307V30.1935H48.544H50.0217V26.1367C50.0217 21.6232 50.2903 20.5486 51.6605 19.8501C52.9501 19.1784 54.0247 19.3396 54.9919 20.3605C56.0396 21.4889 56.2008 22.268 56.2008 26.7815V30.2203L57.6247 30.1397L59.0218 30.0591L59.1024 26.3248C59.1292 24.2561 59.0486 21.9456 58.8874 21.1665C58.3232 18.5336 56.6307 17.056 54.1053 17.0291C52.4665 17.0291 51.3918 17.4859 50.5858 18.5605L50.0485 19.3128L50.0217 16.7336C50.0217 13.7784 49.7261 13.2679 48.0604 13.2679H47.0664V21.7307Z" fill="#454545"/>
<path d="M17.393 17.0289C14.384 17.4856 12.6914 19.9036 12.6914 23.7185C12.6914 27.5066 14.5183 29.9514 17.6347 30.3276C20.1601 30.65 22.6587 29.5753 23.7065 27.7484C24.002 27.2111 24.2438 26.7007 24.2438 26.5932C24.2438 26.5126 23.6527 26.432 22.9005 26.432C21.8796 26.432 21.4228 26.5663 20.993 26.9962C19.193 28.7962 15.9153 27.6141 15.9153 25.1693V24.2827H20.2139H24.5124V23.2618C24.5124 20.9513 23.3035 18.4528 21.7721 17.6737C20.7243 17.1364 18.7362 16.8409 17.393 17.0289ZM20.5094 20.226C21.0199 20.7633 21.2885 21.3006 21.2885 21.8379V22.6708H18.4945H15.7004L15.9422 21.6499C16.4258 19.4737 18.9512 18.6677 20.5094 20.226Z" fill="#454545"/>
<path d="M65.7433 16.9213C65.5821 16.9481 65.0179 17.0556 64.4537 17.1631C62.0895 17.5392 60.4507 20.0915 60.4238 23.4497C60.3701 26.8885 61.4447 28.9304 63.8358 29.9513C66.3343 31.0259 69.7194 30.1662 71.1164 28.1244C72.0836 26.6736 72.003 26.4318 70.4985 26.4318C69.5314 26.4318 69.0478 26.5662 68.6985 26.9691C67.3283 28.5005 64.6149 28.1244 63.8626 26.3244C63.6477 25.787 63.4596 25.1154 63.4596 24.8199C63.4596 24.3094 63.6208 24.2826 67.9194 24.2826H72.3791L72.218 22.993C72.003 21.4616 71.3582 19.4735 70.9015 18.9094C70.203 18.0228 68.8597 17.2974 67.4358 17.0825C66.6567 16.975 65.8776 16.8944 65.7433 16.9213ZM68.1612 20.1452C68.5373 20.5482 68.8328 21.0049 68.8328 21.1661C68.8328 21.3273 68.9134 21.7303 68.994 22.0527C69.1552 22.6706 69.1284 22.6706 66.3074 22.6706C63.6208 22.6706 63.4596 22.6437 63.4596 22.1064C63.4596 20.6288 64.7223 19.4735 66.3612 19.4467C67.2746 19.4467 67.6507 19.6079 68.1612 20.1452Z" fill="#454545"/>
<path d="M77.6632 17.2172C75.8094 17.7008 74.4124 18.8023 74.0094 20.1456C73.8214 20.7635 73.687 23.074 73.687 25.7069L73.6602 30.2203L75.2184 30.1397L76.7497 30.0591L76.8841 25.2501L77.0184 20.4411L77.7706 19.9038C78.8184 19.0978 80.2155 19.1784 81.1289 20.065C81.8543 20.7904 81.8543 20.8441 81.9349 25.0352C82.0423 29.8442 82.1767 30.1935 83.923 30.1935H84.9976L84.8901 25.1427C84.8095 20.6829 84.7558 20.0113 84.2722 19.2322C83.2244 17.459 80.2423 16.5724 77.6632 17.2172Z" fill="#454545"/>
<path d="M2.87466 17.4047C1.66569 17.942 0.913443 18.7749 0.564185 19.957C0.161196 21.2734 0.402989 22.2674 1.37016 23.2078C2.06868 23.9063 2.90152 24.2287 6.58216 25.2227C8.22099 25.6794 8.54338 26.0287 8.27472 27.0765C8.08666 27.8556 6.42097 28.366 5.0508 28.0436C3.84183 27.775 3.57317 27.5869 3.27765 26.8078C3.03585 26.2436 2.84779 26.163 1.50449 26.163H0L0.188062 27.0227C0.725381 29.6825 3.97616 31.0258 7.89859 30.2198C10.5852 29.6556 12.0897 27.4526 11.3643 25.1152C10.9613 23.7451 9.94041 23.1003 7.01202 22.3749C4.29855 21.7033 3.54631 21.2734 3.54631 20.3868C3.54631 18.9629 6.2329 18.7211 7.6568 19.9838C8.40905 20.6286 8.8389 20.7898 9.83294 20.7898C10.5046 20.7898 11.0688 20.6555 11.0688 20.5212C11.0688 20.36 10.827 19.742 10.5046 19.151C9.75235 17.6465 8.35532 17.0286 5.69558 17.0555C4.59408 17.0555 3.33138 17.2166 2.87466 17.4047Z" fill="#454545"/>
<path d="M36.9425 17.5928C33.1275 19.4734 32.832 26.9153 36.4858 29.4676C39.3336 31.4825 44.3844 30.0855 45.2978 27.0228C45.4859 26.4586 45.4321 26.4317 44.1694 26.4317C43.1754 26.4317 42.6649 26.5929 42.1007 27.0765C40.6231 28.3661 38.7156 28.178 37.6141 26.6735C36.5126 25.1959 36.7813 21.4078 38.0709 20.0913C38.9843 19.1779 40.8112 19.1779 41.6978 20.1182C42.2351 20.6824 42.5843 20.7899 43.9008 20.7899H45.459L44.9485 19.769C44.6799 19.2316 44.2232 18.56 43.9276 18.3182C42.4231 16.948 38.9574 16.5988 36.9425 17.5928Z" fill="#454545"/>
<path d="M29.7921 17.7002C28.207 18.2912 27.3473 19.0166 26.6488 20.4405C26.0577 21.6226 25.9771 22.1062 25.8965 25.948L25.7891 30.1929H27.4279H29.0667V26.2704C29.0667 21.2734 29.3354 20.7092 31.8339 20.3599L33.0966 20.1719V18.748V17.2972L31.9682 17.3241C31.3235 17.3241 30.3563 17.5121 29.7921 17.7002Z" fill="#454545"/>
<defs>
<clipPath id="clip0_1150_938">
<rect width="38.7455" height="39.38" fill="white" transform="translate(0 40)"/>
</clipPath>
<clipPath id="clip1_1150_938">
<rect width="38.7455" height="39.38" fill="white" transform="translate(43.6562 40)"/>
</clipPath>
<clipPath id="clip2_1150_938">
<rect width="38.7455" height="39.38" fill="white" transform="translate(87.3125 40)"/>
</clipPath>
<clipPath id="clip3_1150_938">
<rect width="38.7455" height="39.38" fill="white" transform="translate(130.965 40)"/>
</clipPath>
<clipPath id="clip4_1150_938">
<rect width="38.7455" height="39.38" fill="white" transform="translate(174.621 40)"/>
</clipPath>
</defs>
</svg>
