<svg width="220" height="80" viewBox="0 0 220 80" fill="none" xmlns="http://www.w3.org/2000/svg">
<path d="M33.7109 15.9177V17.0604H36.214H38.7171V23.6992V30.3379H40.023H41.3288V23.6992V17.0604H43.8319H46.335V15.9177V14.7749H40.023H33.7109V15.9177Z" fill="#191919"/>
<path d="M98.1328 15.9177V17.0605H99.3301H100.527V15.9177V14.7749H99.3301H98.1328V15.9177Z" fill="#191919"/>
<path d="M102.812 22.5564V30.3379H104.065H105.316V22.5564V14.7749H104.065H102.812V22.5564Z" fill="#191919"/>
<path d="M78.4139 17.3527L78.3818 19.0723L77.4886 19.1049L76.5859 19.1375V19.9973V20.868H77.4999H78.4253L78.4574 24.8077C78.4904 28.6386 78.5008 28.7692 78.7293 29.248C79.0125 29.814 79.4913 30.1732 80.1767 30.3255C80.7319 30.456 81.864 30.4779 82.6147 30.3799L83.116 30.3037V29.4004V28.4971L82.5278 28.5624C82.1907 28.595 81.7772 28.5624 81.5373 28.4862C80.8632 28.2576 80.8302 28.0944 80.8302 24.2417V20.868H81.9726H83.116V19.9973V19.1375L82.0057 19.1049L80.8849 19.0723L80.8518 17.3527L80.8197 15.644H79.6329H78.4469L78.4139 17.3527Z" fill="#191919"/>
<path d="M121.318 17.3854V19.1267H120.394H119.469V19.9974V20.8681H120.383H121.297L121.351 24.6989C121.373 27.2565 121.438 28.6822 121.525 28.9434C121.71 29.5093 122.113 29.9555 122.647 30.1732C123.201 30.3908 124.53 30.4997 125.389 30.4018L125.999 30.3256V29.4331V28.5407H125.172C124.398 28.5407 124.333 28.5189 124.083 28.2359L123.822 27.9312V24.3942V20.8681H124.91H125.999V19.9974V19.1267H124.91H123.822V17.3854V15.644H122.57H121.318V17.3854Z" fill="#191919"/>
<path d="M50.2765 19.0627C49.5145 19.4217 48.7422 20.151 48.4372 20.8148L48.1756 21.359V20.238V19.1279H47.0331H45.8906V24.7328V30.3376H47.0879H48.2852V27.3448C48.2852 24.1887 48.3503 23.5574 48.7856 22.7085C49.1009 22.0882 49.8733 21.3808 50.4398 21.2175C50.6787 21.1413 51.2122 21.0869 51.6475 21.0869H52.4208V19.9442V18.8014H51.6371C51.0271 18.8014 50.7118 18.8667 50.2765 19.0627Z" fill="#191919"/>
<path d="M69.1314 18.9077C67.6839 19.2016 66.4432 20.0939 66.16 21.0408C65.888 21.9768 66.0297 22.978 66.5301 23.7072C67.0966 24.5234 67.9558 24.9152 70.3617 25.4376C72.4729 25.9056 73.115 26.2321 73.3104 26.9177C73.6258 28.0605 72.7015 28.7244 70.8074 28.7244C69.3495 28.7244 68.4459 28.1476 68.2505 27.0918L68.1844 26.7436H66.9984H65.8125V27.1245C65.8125 28.0714 66.5849 29.3121 67.5102 29.8562C69.1428 30.8139 71.863 30.8901 73.6806 30.0303C74.9109 29.4535 75.5095 28.7352 75.7267 27.5707C75.9552 26.3409 75.4652 25.2199 74.4426 24.5669C73.8005 24.1643 73.3218 24.0011 71.2757 23.533C69.4912 23.1304 68.816 22.8366 68.5762 22.3685C68.0437 21.3346 69.1097 20.5402 70.8404 20.6817C71.8196 20.7688 72.4182 21.0953 72.7232 21.7047L72.9403 22.1727H74.1811H75.4113L75.3349 21.77C75.0847 20.4422 73.9639 19.3757 72.3965 18.9621C71.711 18.788 69.8934 18.7553 69.1314 18.9077Z" fill="#191919"/>
<path d="M89.2816 19.0204C88.5414 19.249 88.0079 19.6407 87.5622 20.2502L87.2459 20.6855V19.9128V19.1292H86.1034H84.9609V26.8563V34.5834H86.1581H87.3554V31.7538C87.3554 30.1975 87.3771 28.9241 87.4092 28.9241C87.4423 28.9241 87.6378 29.12 87.8559 29.3595C88.7047 30.2954 90.511 30.8287 92.035 30.5675C93.8091 30.2737 95.0385 29.1744 95.7022 27.2808C96.0837 26.1815 96.1706 24.2116 95.909 23.0036C95.4416 20.9031 94.1462 19.4448 92.3069 18.955C91.5232 18.7374 90.0436 18.7701 89.2816 19.0204ZM91.7734 20.9576C92.3937 21.2732 93.0688 22.0677 93.3521 22.8186C93.8091 24.0484 93.7326 25.9748 93.1774 27.074C92.8621 27.6944 92.22 28.3146 91.6648 28.5432C91.1096 28.7718 89.9237 28.7827 89.3789 28.5541C88.2581 28.0861 87.5405 27.0195 87.3337 25.5068C87.0174 23.3084 87.9097 21.295 89.4232 20.8161C90.087 20.5984 91.2078 20.6638 91.7734 20.9576Z" fill="#191919"/>
<path d="M111.317 18.9749C110.065 19.3123 108.846 20.1721 108.215 21.1842C107.127 22.9038 106.996 25.7117 107.921 27.6815C109.727 31.5451 116.019 31.6539 117.934 27.8447C118.434 26.8653 118.63 25.9837 118.63 24.7321C118.641 21.7719 117.139 19.6279 114.625 18.9641C113.82 18.7573 112.1 18.7573 111.317 18.9749ZM113.951 20.8033C115.496 21.3584 116.279 22.8384 116.181 24.9933C116.062 27.3659 114.887 28.7263 112.939 28.7263C112.057 28.7263 111.578 28.5413 110.936 27.9427C108.89 26.049 109.532 21.5652 111.959 20.8142C112.59 20.6292 113.417 20.6183 113.951 20.8033Z" fill="#191919"/>
<path d="M54.079 23.4458C54.112 27.7011 54.1224 27.7882 54.3727 28.4303C54.7211 29.3228 55.5265 30.1172 56.3432 30.3675C57.312 30.6614 58.378 30.7158 59.1286 30.509C59.934 30.2695 60.7829 29.7254 61.1313 29.203C61.2842 28.9853 61.4363 28.8112 61.4911 28.8112C61.5345 28.8112 61.5665 29.1486 61.5665 29.5731V30.3349H62.7638H63.9611V24.73V19.1251H62.71H61.458V22.869C61.458 26.8631 61.4259 27.1134 60.8924 27.8318C60.5005 28.3759 59.6734 28.7133 58.7481 28.7133C57.464 28.7241 56.8219 28.2344 56.5717 27.059C56.4952 26.7325 56.4518 25.0456 56.4518 22.8255V19.1251H55.2441H54.0469L54.079 23.4458Z" fill="#191919"/>
<path d="M98.1328 24.73V30.3349H99.3301H100.527V24.73V19.1251H99.3301H98.1328V24.73Z" fill="#191919"/>
<path d="M15.4965 4.71746C15.3879 5.04395 15.3331 5.3596 15.3765 5.4357C15.42 5.50104 15.4096 5.52285 15.3548 5.49018C15.268 5.44665 14.6146 7.29674 14.6042 7.61239C14.6042 7.64505 14.5711 7.7103 14.5277 7.75383C14.4843 7.79745 14.4842 7.89536 14.5173 7.98242C14.5494 8.06948 14.5277 8.13482 14.4739 8.13482C14.3861 8.13482 14.0273 9.08167 13.9621 9.49523C13.9508 9.54962 13.8535 9.86517 13.744 10.17C13.6468 10.4855 13.592 10.8012 13.6354 10.8665C13.6789 10.9426 13.6684 10.9644 13.6023 10.9318C13.5372 10.8882 13.4504 11.008 13.4069 11.2147C13.3635 11.3998 13.3087 11.5848 13.2984 11.6174C13.287 11.6501 13.2218 11.8133 13.1567 11.9765C13.0802 12.1507 13.0481 12.3357 13.0916 12.3901C13.1237 12.4446 13.0915 12.4881 13.0368 12.4881C12.9716 12.4881 12.9168 12.5425 12.9168 12.6078C12.9168 12.6622 12.9716 12.6839 13.0264 12.6513C13.0915 12.6187 13.135 12.6404 13.135 12.6949C13.135 12.7601 13.0585 12.8146 12.9499 12.8146C12.8517 12.8146 12.8083 12.8472 12.8413 12.8907C12.8848 12.9234 12.8734 13.0104 12.8196 13.0758C12.7649 13.1411 12.6128 13.5547 12.4929 13.9791L12.2531 14.7736L6.62653 14.7953L1 14.8279L1.79408 15.4048C2.22936 15.7204 2.64292 15.9489 2.70902 15.9054C2.78455 15.8618 2.7959 15.8728 2.75247 15.9489C2.70904 16.0251 2.80629 16.1557 2.98097 16.2646C3.14432 16.3734 3.66643 16.7435 4.12343 17.0808C4.58043 17.429 5.0157 17.712 5.07046 17.712C5.13561 17.712 5.19039 17.7556 5.19039 17.8099C5.19039 17.9405 5.97409 18.4303 6.11478 18.3868C6.18087 18.365 6.19129 18.3868 6.14785 18.4303C6.04966 18.5173 6.83332 19.1268 6.95323 19.0616C7.008 19.0289 7.04008 19.0616 7.04008 19.116C7.04008 19.1812 7.24689 19.3663 7.50844 19.5295C7.75866 19.6928 7.99752 19.8669 8.03057 19.9213C8.06362 19.9648 8.1722 19.9758 8.25907 19.9431C8.37899 19.8886 8.43284 19.9322 8.42245 20.0737C8.41112 20.1825 8.46584 20.2587 8.54232 20.2478C8.60747 20.2261 8.67262 20.2587 8.67262 20.3022C8.67262 20.3567 8.98802 20.6178 9.36949 20.9008L10.0767 21.4232L9.88032 21.9891C9.77173 22.3048 9.67348 22.5768 9.67348 22.6095C9.67348 22.6421 9.64141 22.74 9.60836 22.8271C9.16269 24.1223 7.33378 29.8903 7.32339 30.0101C7.31206 30.0971 7.27992 30.195 7.23649 30.2277C7.19211 30.2604 7.13831 30.4128 7.10526 30.5542C7.08354 30.7066 6.98537 31.0331 6.88811 31.2834C6.7682 31.6317 6.75683 31.7514 6.85503 31.7514C6.93151 31.7514 6.89846 31.8058 6.80121 31.8711C6.69168 31.9255 6.6048 32.0235 6.6048 32.0887C6.6048 32.1541 6.65957 32.1431 6.7351 32.0779C6.81159 32.0125 7.10525 31.7949 7.38851 31.599C7.67178 31.4032 7.86723 31.2072 7.82379 31.1637C7.78036 31.1202 7.80211 31.0984 7.85687 31.1202C7.99756 31.1637 9.21654 30.3474 9.21654 30.206C9.21654 30.1625 9.27127 30.1189 9.32603 30.1189C9.45633 30.1189 11.0671 28.9653 11.2522 28.7367C11.3173 28.6497 11.4156 28.5735 11.4694 28.5735C11.6658 28.5626 12.4712 27.8987 12.4061 27.8008C12.373 27.7355 12.3947 27.7246 12.4599 27.7681C12.5798 27.8334 13.9187 26.941 13.9838 26.7342C14.0055 26.6797 14.0707 26.6362 14.1358 26.6362C14.1906 26.6362 14.5928 26.3751 15.0177 26.0594C15.453 25.733 16.4652 24.9929 17.2706 24.4052C18.076 23.8175 18.7936 23.2733 18.8484 23.2081C18.9136 23.1319 18.99 23.0665 19.0448 23.0665C19.1534 23.0448 19.9258 22.468 19.9692 22.3591C19.9909 22.3156 20.057 22.2829 20.1108 22.2829C20.2855 22.2829 21.1882 21.5538 21.1126 21.4776C21.0796 21.445 21.1447 21.4123 21.2646 21.4123C21.3845 21.4123 21.6131 21.2926 21.7764 21.1403C21.9398 20.9879 22.0918 20.8681 22.1135 20.8681C22.2221 20.8681 23.5827 19.8451 23.5827 19.758C23.5827 19.7145 23.6592 19.671 23.746 19.671C23.8329 19.671 23.9094 19.6166 23.9094 19.5622C23.9094 19.4969 23.9632 19.4533 24.0179 19.4533C24.236 19.4533 25.6505 18.3432 25.5853 18.2345C25.5419 18.1583 25.5636 18.1473 25.6287 18.1908C25.759 18.267 26.7392 17.6358 26.7392 17.4726C26.7392 17.429 26.8043 17.3855 26.8912 17.3855C26.9677 17.3855 27.1197 17.2767 27.2179 17.1352C27.3161 17.0046 27.3699 16.9611 27.3265 17.0482C27.283 17.1352 27.4898 17.0155 27.7835 16.7978C28.0771 16.5693 28.3056 16.3408 28.2839 16.2754C28.2735 16.221 28.3056 16.1992 28.3603 16.2319C28.4255 16.2754 28.9156 15.9707 29.4708 15.568L30.4716 14.8279L24.8564 14.7953L19.2402 14.7736L18.3583 12.02C17.8692 10.5182 17.434 9.25578 17.3792 9.22311C17.3358 9.19044 17.3027 9.09253 17.3027 8.99452C17.3027 8.8966 17.2376 8.59191 17.162 8.30893C17.0421 7.87355 16.9987 7.83003 16.8571 7.93889C16.7154 8.05862 16.7041 8.04776 16.8136 7.85184C16.9439 7.60153 16.7806 6.82879 16.5955 6.82879C16.5417 6.82879 16.519 6.78526 16.5521 6.73087C16.6172 6.63286 16.4218 5.94727 16.3019 5.84926C16.2688 5.81669 16.2367 5.72963 16.2254 5.65343C16.1933 5.22892 16.1715 5.18539 16.0516 5.26159C15.9751 5.30512 15.9648 5.29426 16.0082 5.2072C16.0838 5.08749 15.91 4.35831 15.758 4.19506C15.725 4.15153 15.6051 4.39096 15.4965 4.71746Z" fill="#00B67A"/>
<path d="M21.6336 24.1415C21.4268 24.2067 21.1766 24.2829 21.0897 24.3156C21.0029 24.3483 20.883 24.37 20.8282 24.3591C20.7848 24.3483 20.6762 24.4027 20.5893 24.4679C20.5015 24.5441 20.4043 24.5659 20.3712 24.5333C20.3391 24.5006 20.154 24.5224 19.9689 24.5876C19.7726 24.6421 19.5771 24.6965 19.5119 24.7183C17.7482 25.1427 17.2808 25.2733 17.2808 25.3495C17.2808 25.393 17.2156 25.4039 17.1391 25.3712C17.0523 25.3387 16.8455 25.3822 16.6708 25.4474C16.3772 25.5672 16.2903 25.5998 16.0288 25.6325C15.975 25.6434 16.3338 25.9481 16.8125 26.3072C17.4111 26.7425 17.7699 26.9384 17.9011 26.8949C18.0428 26.8514 18.0532 26.8622 17.955 26.9276C17.8577 27.0038 18.1835 27.3085 19.1853 28.0377C19.9473 28.5818 20.611 29.0063 20.6648 28.9627C20.7196 28.9301 20.7526 28.9627 20.7413 29.0498C20.7196 29.126 20.7961 29.1804 20.8933 29.1804C21.0029 29.1695 21.068 29.2022 21.035 29.2457C21.0029 29.2892 21.1549 29.4633 21.3617 29.6157C21.5685 29.779 21.7422 29.8878 21.7422 29.8552C21.7422 29.8225 21.8952 29.9423 22.0802 30.1055C22.2653 30.2796 22.5476 30.4864 22.7006 30.5626C22.8639 30.6497 23.049 30.7911 23.1245 30.8781C23.201 30.9652 23.2661 31.0087 23.2661 30.9652C23.2661 30.9217 23.3861 31.0087 23.5381 31.1611C23.691 31.3135 23.8648 31.4006 23.9413 31.3571C24.0168 31.3135 24.0281 31.3244 23.9847 31.4006C23.9082 31.5203 24.0498 31.5856 24.2783 31.542C24.3331 31.5312 24.3435 31.5638 24.3114 31.6182C24.2783 31.6726 24.4086 31.825 24.5833 31.9556L24.9204 32.2059L24.8439 31.9556C24.8005 31.8141 24.7136 31.5747 24.6484 31.4223C24.5833 31.27 24.5503 31.1067 24.5503 31.0632C24.5616 31.0197 24.5069 30.9543 24.42 30.9217C24.3435 30.8891 24.2897 30.7802 24.3218 30.6823C24.3435 30.5735 24.3114 30.3449 24.2349 30.1707C24.1697 29.9858 24.0933 29.768 24.0829 29.681C24.0394 29.2892 23.6476 28.3097 23.4946 28.1791C23.3964 28.0921 23.3861 28.0594 23.4625 28.1029C23.6032 28.1791 23.6476 28.0267 23.5164 27.8961C23.4295 27.8091 23.4191 27.7547 23.3861 27.4391C23.3861 27.3411 23.3209 27.3085 23.2444 27.352C23.1679 27.3955 23.1576 27.3847 23.201 27.3085C23.2879 27.1561 22.7544 25.3387 22.5476 25.0992C22.4607 25.0012 22.4286 24.9033 22.4608 24.8598C22.5042 24.8271 22.4938 24.7074 22.4503 24.5986C22.3521 24.37 22.3191 24.2829 22.2974 24.1305C22.287 24 22.1454 24 21.6336 24.1415Z" fill="#00B67A"/>
<path d="M21.3342 21.3955L22.1169 24.1328L15.4688 25.6969L21.3342 21.3955Z" fill="#01522C"/>
<rect x="1" y="41.0001" width="37.2597" height="37.2597" fill="#00B67A"/>
<path d="M19.6329 45.3408L22.841 55.2144H33.2227L24.8237 61.3166L28.0318 71.1901L19.6329 65.0879L11.2339 71.1901L14.4421 61.3166L6.04311 55.2144H16.4248L19.6329 45.3408Z" fill="white"/>
<rect x="44.7891" y="41" width="37.2597" height="37.2597" fill="#00B67A"/>
<path d="M63.4219 45.3407L66.6301 55.2142H77.0117L68.6128 61.3164L71.8209 71.19L63.4219 65.0878L55.023 71.19L58.2311 61.3164L49.8322 55.2142H60.2138L63.4219 45.3407Z" fill="white"/>
<rect x="88.5625" y="41" width="37.2597" height="37.2597" fill="#00B67A"/>
<path d="M107.195 45.3407L110.403 55.2142H120.785L112.386 61.3164L115.594 71.19L107.195 65.0878L98.7964 71.19L102.005 61.3164L93.6056 55.2142H103.987L107.195 45.3407Z" fill="white"/>
<rect x="132.336" y="41" width="37.2597" height="37.2597" fill="#00B67A"/>
<path d="M150.969 45.3407L154.177 55.2142H164.559L156.16 61.3164L159.368 71.19L150.969 65.0878L142.57 71.19L145.778 61.3164L137.379 55.2142H147.761L150.969 45.3407Z" fill="white"/>
<rect x="176.133" y="41" width="37.2597" height="37.2597" fill="#00B67A"/>
<path d="M194.766 45.3407L197.974 55.2142H208.355L199.957 61.3164L203.165 71.19L194.766 65.0878L186.367 71.19L189.575 61.3164L181.176 55.2142H191.558L194.766 45.3407Z" fill="white"/>
<mask id="mask0_5133_4247" style="mask-type:alpha" maskUnits="userSpaceOnUse" x="181" y="45" width="28" height="27">
<path d="M194.75 45.3406L197.958 55.2141H208.34L199.941 61.3163L203.149 71.1899L194.75 65.0877L186.351 71.1899L189.559 61.3163L181.16 55.2141H191.542L194.75 45.3406Z" fill="white"/>
</mask>
<g mask="url(#mask0_5133_4247)">
<rect x="207" y="44" width="3" height="30" fill="#00B67A"/>
</g>
</svg>
