<svg xmlns="http://www.w3.org/2000/svg" width="92" height="17" fill="none" xmlns:v="https://vecta.io/nano"><rect x=".266" y=".142" width="16.088" height="16.088" rx="2" fill="#1eb059"/><path d="M8.312 2.016l1.385 4.263h4.483l-3.626 2.635 1.385 4.263-3.626-2.635-3.626 2.635 1.385-4.263-3.626-2.635h4.483l1.385-4.263z" fill="#fff"/><rect x="19.172" y=".142" width="16.088" height="16.088" rx="2" fill="#1eb059"/><path d="M27.219 2.016l1.385 4.263h4.483L29.46 8.914l1.385 4.263-3.626-2.635-3.626 2.635 1.385-4.263-3.626-2.635h4.483l1.385-4.263z" fill="#fff"/><rect x="38.068" y=".142" width="16.088" height="16.088" rx="2" fill="#1eb059"/><path d="M46.115 2.016L47.5 6.279h4.483l-3.626 2.635 1.385 4.263-3.626-2.635-3.626 2.635 1.385-4.263-3.626-2.635h4.483l1.385-4.263z" fill="#fff"/><rect x="56.975" y=".142" width="16.088" height="16.088" rx="2" fill="#1eb059"/><path d="M65.021 2.016l1.385 4.263h4.483l-3.626 2.635 1.385 4.263-3.627-2.635-3.626 2.635 1.385-4.263-3.626-2.635h4.483l1.385-4.263z" fill="#fff"/><rect x="75.881" y=".142" width="16.088" height="16.088" rx="2" fill="#1eb059"/><path d="M83.928 2.016l1.385 4.263h4.483l-3.626 2.635 1.385 4.263-3.627-2.635-3.626 2.635 1.385-4.263-3.627-2.635h4.483l1.385-4.263z" fill="#fff"/></svg>