<svg width="220" height="80" viewBox="0 0 220 80" fill="none" xmlns="http://www.w3.org/2000/svg">
<g clip-path="url(#clip0_1685_1283)">
<rect width="38.7455" height="39.38" transform="translate(0 40)" fill="white"/>
<rect y="40" width="40" height="40" fill="#00B67A"/>
<path d="M19.1685 45L22.574 55.4812H33.5946L24.6788 61.9589L28.0843 72.4401L19.1685 65.9623L10.2527 72.4401L13.6582 61.9589L4.7424 55.4812H15.763L19.1685 45Z" fill="white"/>
</g>
<g clip-path="url(#clip1_1685_1283)">
<rect width="38.7455" height="39.38" transform="translate(43.6562 40)" fill="white"/>
<rect x="43.6562" y="40" width="40" height="40" fill="#00B67A"/>
<path d="M62.8247 45L66.2303 55.4812H77.2508L68.335 61.9589L71.7406 72.4401L62.8247 65.9623L53.9089 72.4401L57.3145 61.9589L48.3986 55.4812H59.4192L62.8247 45Z" fill="white"/>
</g>
<g clip-path="url(#clip2_1685_1283)">
<rect width="38.7455" height="39.38" transform="translate(87.3125 40)" fill="white"/>
<rect x="87.3125" y="40" width="40" height="40" fill="#00B67A"/>
<path d="M106.481 45L109.887 55.4812H120.907L111.991 61.9589L115.397 72.4401L106.481 65.9623L97.5652 72.4401L100.971 61.9589L92.0549 55.4812H103.075L106.481 45Z" fill="white"/>
</g>
<g clip-path="url(#clip3_1685_1283)">
<rect width="38.7455" height="39.38" transform="translate(130.965 40)" fill="white"/>
<rect x="130.965" y="40" width="40" height="40" fill="#00B67A"/>
<path d="M150.133 45L153.539 55.4812H164.559L155.644 61.9589L159.049 72.4401L150.133 65.9623L141.218 72.4401L144.623 61.9589L135.707 55.4812H146.728L150.133 45Z" fill="white"/>
</g>
<g clip-path="url(#clip4_1685_1283)">
<rect width="38.7455" height="39.38" transform="translate(174.621 40)" fill="white"/>
<rect x="174.621" y="40" width="40" height="40" fill="#00B67A"/>
<path d="M194.17 45L197.576 55.4822H208.598L199.681 61.9606L203.087 72.4428L194.17 65.9644L185.253 72.4428L188.659 61.9606L179.742 55.4822H190.764L194.17 45Z" fill="white"/>
</g>
<path d="M26.9531 20.6627V21.6043H29.0157H31.0782V27.0747V32.545H32.1542H33.2303V27.0747V21.6043H35.2928H37.3554V20.6627V19.7211H32.1542H26.9531V20.6627Z" fill="white"/>
<path d="M80.0352 20.6627V21.6043H81.0217H82.0082V20.6627V19.721H81.0217H80.0352V20.6627Z" fill="white"/>
<path d="M83.8945 26.133V32.545H84.9262H85.9571V26.133V19.7211H84.9262H83.8945V26.133Z" fill="white"/>
<path d="M63.7914 21.8457L63.7649 23.2626L63.0289 23.2895L62.2852 23.3164V24.0248V24.7423H63.0383H63.8008L63.8272 27.9886C63.8544 31.1453 63.863 31.2529 64.0512 31.6474C64.2847 32.1138 64.6791 32.4097 65.244 32.5352C65.7015 32.6428 66.6343 32.6608 67.2528 32.5801L67.666 32.5173V31.773V31.0287L67.1813 31.0825C66.9035 31.1093 66.5627 31.0825 66.3651 31.0197C65.8096 30.8314 65.7824 30.6968 65.7824 27.5222V24.7423H66.7238H67.666V24.0248V23.3164L66.751 23.2895L65.8275 23.2626L65.8002 21.8457L65.7738 20.4377H64.7958H63.8186L63.7914 21.8457Z" fill="white"/>
<path d="M99.1413 21.8726V23.3074H98.3796H97.6172V24.0249V24.7423H98.3703H99.1234L99.1685 27.899C99.1864 30.0064 99.2401 31.1812 99.3117 31.3964C99.4642 31.8627 99.7964 32.2304 100.236 32.4097C100.693 32.5891 101.787 32.6788 102.495 32.5981L102.998 32.5353V31.7999V31.0646H102.316C101.679 31.0646 101.626 31.0466 101.419 30.8135L101.204 30.5624V27.6479V24.7423H102.101H102.998V24.0249V23.3074H102.101H101.204V21.8726V20.4377H100.173H99.1413V21.8726Z" fill="white"/>
<path d="M40.6061 23.2542C39.9783 23.55 39.3419 24.1509 39.0905 24.6979L38.875 25.1463V24.2227V23.3079H37.9336H36.9922V27.9264V32.5448H37.9787H38.9653V30.0786C38.9653 27.478 39.0189 26.9578 39.3776 26.2584C39.6375 25.7472 40.2739 25.1643 40.7407 25.0298C40.9376 24.967 41.3771 24.9222 41.7358 24.9222H42.373V23.9805V23.0389H41.7273C41.2247 23.0389 40.9648 23.0927 40.6061 23.2542Z" fill="white"/>
<path d="M56.141 23.1279C54.9483 23.37 53.926 24.1053 53.6925 24.8855C53.4685 25.6568 53.5852 26.4818 53.9976 27.0827C54.4644 27.7552 55.1724 28.0781 57.1548 28.5085C58.8945 28.8942 59.4235 29.1632 59.5846 29.7281C59.8444 30.6698 59.0828 31.2168 57.5221 31.2168C56.3208 31.2168 55.5762 30.7415 55.4151 29.8716L55.3607 29.5847H54.3834H53.4062V29.8985C53.4062 30.6787 54.0427 31.7011 54.8052 32.1494C56.1504 32.9386 58.3919 33.0014 59.8896 32.2929C60.9033 31.8176 61.3966 31.2258 61.5756 30.2662C61.7638 29.2528 61.36 28.3292 60.5174 27.7911C59.9884 27.4593 59.5939 27.3248 57.9079 26.9391C56.4375 26.6074 55.8812 26.3653 55.6835 25.9796C55.2447 25.1276 56.1231 24.473 57.5493 24.5896C58.3561 24.6614 58.8494 24.9304 59.1007 25.4326L59.2796 25.8182H60.3019H61.3157L61.2527 25.4864C61.0465 24.3923 60.123 23.5135 58.8315 23.1727C58.2666 23.0292 56.7689 23.0023 56.141 23.1279Z" fill="white"/>
<path d="M72.7438 23.2186C72.1339 23.4069 71.6943 23.7297 71.3271 24.232L71.0664 24.5906V23.954V23.3083H70.125H69.1836V29.6754V36.0425H70.1701H71.1566V33.7109C71.1566 32.4285 71.1745 31.3792 71.201 31.3792C71.2282 31.3792 71.3893 31.5407 71.569 31.738C72.2685 32.5092 73.7568 32.9486 75.0126 32.7334C76.4745 32.4913 77.4875 31.5855 78.0344 30.0252C78.3488 29.1194 78.4203 27.4962 78.2048 26.5008C77.8197 24.77 76.7522 23.5683 75.2366 23.1647C74.5909 22.9854 73.3717 23.0123 72.7438 23.2186ZM74.797 24.8149C75.3082 25.0749 75.8645 25.7296 76.0979 26.3483C76.4745 27.3616 76.4115 28.949 75.954 29.8548C75.6941 30.3659 75.1651 30.877 74.7076 31.0654C74.2501 31.2537 73.2729 31.2627 72.824 31.0743C71.9004 30.6887 71.3092 29.8099 71.1388 28.5634C70.8781 26.7519 71.6133 25.0928 72.8605 24.6982C73.4075 24.5189 74.331 24.5727 74.797 24.8149Z" fill="white"/>
<path d="M90.8995 23.1823C89.8686 23.4603 88.8642 24.1687 88.3437 25.0027C87.4474 26.4196 87.3392 28.7333 88.1017 30.3565C89.5901 33.5401 94.7741 33.6297 96.3519 30.491C96.7643 29.6839 96.9261 28.9575 96.9261 27.9262C96.9347 25.487 95.6976 23.7204 93.6257 23.1733C92.9621 23.0029 91.5453 23.0029 90.8995 23.1823ZM93.0702 24.6888C94.3431 25.1462 94.9889 26.3658 94.9079 28.1414C94.8099 30.0965 93.8412 31.2174 92.2362 31.2174C91.5095 31.2174 91.1151 31.0649 90.586 30.5718C88.9 29.0113 89.429 25.3166 91.4286 24.6979C91.9491 24.5454 92.6306 24.5364 93.0702 24.6888Z" fill="white"/>
<path d="M43.7335 26.8677C43.7607 30.374 43.7693 30.4458 43.9755 30.9749C44.2626 31.7103 44.9262 32.3649 45.5992 32.5712C46.3975 32.8133 47.2759 32.8581 47.8944 32.6877C48.5581 32.4904 49.2575 32.0421 49.5446 31.6116C49.6706 31.4322 49.7959 31.2888 49.841 31.2888C49.8768 31.2888 49.9032 31.5668 49.9032 31.9166V32.5443H50.8898H51.8763V27.9259V23.3074H50.8454H49.8138V26.3924C49.8138 29.6835 49.7873 29.8898 49.3477 30.4817C49.0249 30.9301 48.3433 31.2081 47.5808 31.2081C46.5227 31.217 45.9937 30.8135 45.7875 29.845C45.7245 29.5759 45.6887 28.1859 45.6887 26.3565V23.3074H44.6936H43.707L43.7335 26.8677Z" fill="white"/>
<path d="M80.0352 27.9259V32.5443H81.0217H82.0082V27.9259V23.3074H81.0217H80.0352V27.9259Z" fill="white"/>
<path d="M11.9451 11.4347C11.8556 11.7037 11.8105 11.9638 11.8463 12.0265C11.8821 12.0803 11.8735 12.0983 11.8284 12.0714C11.7568 12.0355 11.2184 13.56 11.2099 13.8201C11.2099 13.847 11.1826 13.9008 11.1468 13.9366C11.111 13.9726 11.111 14.0533 11.1382 14.125C11.1647 14.1967 11.1468 14.2506 11.1025 14.2506C11.0301 14.2506 10.7345 15.0308 10.6808 15.3716C10.6715 15.4164 10.5913 15.6764 10.5011 15.9275C10.4209 16.1876 10.3758 16.4477 10.4116 16.5015C10.4474 16.5642 10.4388 16.5822 10.3843 16.5553C10.3307 16.5194 10.2591 16.618 10.2233 16.7884C10.1875 16.9409 10.1424 17.0933 10.1338 17.1203C10.1245 17.1472 10.0708 17.2816 10.0171 17.4161C9.9541 17.5597 9.92767 17.7121 9.96346 17.7569C9.98991 17.8018 9.96342 17.8377 9.9183 17.8377C9.86461 17.8377 9.81948 17.8825 9.81948 17.9363C9.81948 17.9811 9.86462 17.999 9.90975 17.9722C9.96343 17.9453 9.99922 17.9632 9.99922 18.0081C9.99922 18.0618 9.93621 18.1067 9.84674 18.1067C9.76582 18.1067 9.73004 18.1336 9.75727 18.1694C9.79306 18.1963 9.78371 18.2681 9.73937 18.3219C9.69424 18.3758 9.56897 18.7165 9.47016 19.0663L9.27257 19.7209L4.63626 19.7388L0 19.7657L0.654325 20.241C1.013 20.5011 1.35377 20.6894 1.40823 20.6535C1.47047 20.6177 1.47982 20.6267 1.44404 20.6894C1.40825 20.7522 1.48839 20.8598 1.63232 20.9495C1.76692 21.0392 2.19714 21.3441 2.57371 21.6221C2.95027 21.909 3.30894 22.1422 3.35406 22.1422C3.40775 22.1422 3.45288 22.1781 3.45288 22.2229C3.45288 22.3305 4.09865 22.734 4.21457 22.6982C4.26904 22.6803 4.27762 22.6982 4.24183 22.734C4.16092 22.8058 4.80665 23.308 4.90546 23.2542C4.95059 23.2273 4.97703 23.2542 4.97703 23.299C4.97703 23.3528 5.14744 23.5053 5.36296 23.6398C5.56913 23.7743 5.76596 23.9178 5.79319 23.9626C5.82042 23.9985 5.9099 24.0075 5.98147 23.9806C6.08028 23.9357 6.12466 23.9717 6.1161 24.0882C6.10676 24.1779 6.15185 24.2406 6.21487 24.2317C6.26856 24.2138 6.32224 24.2406 6.32224 24.2765C6.32224 24.3214 6.58213 24.5366 6.89646 24.7698L7.47917 25.2002L7.31738 25.6665C7.22791 25.9266 7.14695 26.1508 7.14695 26.1777C7.14695 26.2046 7.12052 26.2853 7.09329 26.357C6.72606 27.4242 5.21903 32.1771 5.21047 32.2758C5.20114 32.3475 5.17465 32.4282 5.13886 32.4551C5.1023 32.482 5.05797 32.6076 5.03074 32.7242C5.01284 32.8497 4.93194 33.1188 4.8518 33.325C4.75299 33.612 4.74363 33.7106 4.82455 33.7106C4.88757 33.7106 4.86033 33.7554 4.78019 33.8093C4.68994 33.8541 4.61836 33.9349 4.61836 33.9886C4.61836 34.0425 4.66348 34.0334 4.72573 33.9797C4.78875 33.9258 5.03073 33.7465 5.26413 33.5851C5.49754 33.4237 5.65859 33.2622 5.6228 33.2264C5.58702 33.1905 5.60494 33.1725 5.65006 33.1905C5.76599 33.2264 6.77043 32.5538 6.77043 32.4372C6.77043 32.4014 6.81553 32.3655 6.86065 32.3655C6.96802 32.3655 8.29532 31.4149 8.44781 31.2265C8.5015 31.1548 8.58244 31.092 8.62679 31.092C8.78862 31.0831 9.45228 30.536 9.3986 30.4554C9.37137 30.4015 9.38927 30.3926 9.44295 30.4284C9.54176 30.4822 10.645 29.7469 10.6987 29.5765C10.7165 29.5316 10.7702 29.4957 10.8239 29.4957C10.8691 29.4957 11.2005 29.2805 11.5506 29.0204C11.9093 28.7515 12.7433 28.1417 13.407 27.6574C14.0706 27.1731 14.662 26.7247 14.7071 26.6709C14.7608 26.6082 14.8238 26.5543 14.8689 26.5543C14.9584 26.5364 15.5948 26.0611 15.6306 25.9714C15.6485 25.9356 15.7029 25.9086 15.7473 25.9086C15.8912 25.9086 16.635 25.3078 16.5728 25.2451C16.5456 25.2181 16.5992 25.1912 16.698 25.1912C16.7968 25.1912 16.9852 25.0926 17.1198 24.9671C17.2544 24.8415 17.3796 24.7428 17.3975 24.7428C17.487 24.7428 18.6081 23.8998 18.6081 23.8281C18.6081 23.7922 18.6712 23.7564 18.7427 23.7564C18.8143 23.7564 18.8773 23.7116 18.8773 23.6667C18.8773 23.6129 18.9216 23.577 18.9668 23.577C19.1465 23.577 20.312 22.6623 20.2583 22.5727C20.2225 22.5099 20.2404 22.5009 20.2941 22.5367C20.4015 22.5995 21.2091 22.0794 21.2091 21.9449C21.2091 21.909 21.2628 21.8732 21.3343 21.8732C21.3974 21.8732 21.5226 21.7835 21.6035 21.6669C21.6845 21.5593 21.7288 21.5234 21.693 21.5952C21.6572 21.6669 21.8276 21.5682 22.0696 21.3889C22.3115 21.2006 22.4998 21.0123 22.4819 20.9584C22.4734 20.9136 22.4998 20.8956 22.5449 20.9226C22.5986 20.9584 23.0024 20.7074 23.4599 20.3755L24.2846 19.7657L19.6577 19.7388L15.03 19.7209L14.3033 17.452C13.9002 16.2145 13.5416 15.1743 13.4965 15.1473C13.4607 15.1204 13.4334 15.0397 13.4334 14.959C13.4334 14.8783 13.3798 14.6272 13.3175 14.394C13.2187 14.0353 13.1829 13.9994 13.0662 14.0891C12.9495 14.1878 12.9402 14.1788 13.0304 14.0174C13.1378 13.8111 13.0032 13.1744 12.8507 13.1744C12.8064 13.1744 12.7877 13.1385 12.8149 13.0937C12.8686 13.013 12.7075 12.448 12.6087 12.3673C12.5815 12.3404 12.555 12.2687 12.5457 12.2059C12.5193 11.8561 12.5013 11.8202 12.4025 11.883C12.3395 11.9189 12.331 11.91 12.3668 11.8382C12.429 11.7396 12.2859 11.1387 12.1606 11.0042C12.1334 10.9683 12.0346 11.1656 11.9451 11.4347Z" fill="#00B67A"/>
<path d="M17.0017 27.4415C16.8313 27.4952 16.6251 27.558 16.5535 27.5849C16.482 27.6119 16.3832 27.6298 16.338 27.6208C16.3023 27.6119 16.2128 27.6567 16.1412 27.7104C16.0688 27.7732 15.9887 27.7912 15.9615 27.7643C15.935 27.7374 15.7825 27.7553 15.63 27.8091C15.4682 27.854 15.3071 27.8988 15.2534 27.9168C13.8001 28.2665 13.415 28.3741 13.415 28.4369C13.415 28.4728 13.3613 28.4817 13.2982 28.4548C13.2267 28.4279 13.0563 28.4638 12.9124 28.5176C12.6704 28.6162 12.5988 28.6431 12.3833 28.6701C12.339 28.679 12.6346 28.9301 13.0291 29.226C13.5224 29.5847 13.818 29.7462 13.9261 29.7103C14.0428 29.6744 14.0514 29.6834 13.9705 29.7372C13.8903 29.8 14.1588 30.0511 14.9843 30.6519C15.6121 31.1003 16.1591 31.45 16.2034 31.4142C16.2485 31.3872 16.2758 31.4142 16.2664 31.4859C16.2485 31.5487 16.3116 31.5935 16.3917 31.5935C16.482 31.5846 16.5357 31.6115 16.5084 31.6473C16.482 31.6832 16.6072 31.8267 16.7776 31.9523C16.948 32.0868 17.0911 32.1764 17.0911 32.1496C17.0911 32.1226 17.2172 32.2213 17.3697 32.3558C17.5222 32.4993 17.7548 32.6697 17.8808 32.7325C18.0154 32.8042 18.168 32.9207 18.2302 32.9925C18.2932 33.0642 18.3469 33.1001 18.3469 33.0642C18.3469 33.0283 18.4457 33.1001 18.571 33.2257C18.697 33.3512 18.8402 33.423 18.9032 33.3871C18.9654 33.3512 18.9747 33.3602 18.939 33.423C18.8759 33.5216 18.9927 33.5754 19.181 33.5395C19.2261 33.5306 19.2346 33.5575 19.2082 33.6023C19.1809 33.6471 19.2883 33.7727 19.4323 33.8803L19.71 34.0865L19.647 33.8803C19.6112 33.7637 19.5396 33.5664 19.4859 33.4409C19.4322 33.3154 19.405 33.1808 19.405 33.145C19.4144 33.1091 19.3693 33.0553 19.2977 33.0283C19.2347 33.0015 19.1903 32.9118 19.2168 32.8311C19.2347 32.7414 19.2082 32.553 19.1451 32.4096C19.0915 32.2572 19.0284 32.0777 19.0199 32.006C18.9841 31.6832 18.6612 30.8761 18.5352 30.7685C18.4543 30.6967 18.4457 30.6698 18.5087 30.7057C18.6246 30.7685 18.6612 30.6429 18.5531 30.5353C18.4815 30.4636 18.4729 30.4188 18.4457 30.1587C18.4457 30.078 18.392 30.0511 18.329 30.0869C18.266 30.1228 18.2574 30.1139 18.2932 30.0511C18.3648 29.9255 17.9252 28.4279 17.7548 28.2306C17.6832 28.1499 17.6568 28.0692 17.6833 28.0333C17.719 28.0064 17.7104 27.9077 17.6747 27.8181C17.5937 27.6298 17.5665 27.558 17.5486 27.4325C17.5401 27.3248 17.4234 27.3249 17.0017 27.4415Z" fill="#00B67A"/>
<path d="M16.7511 25.1763L17.3961 27.4318L11.918 28.7207L16.7511 25.1763Z" fill="#01522C"/>
<defs>
<clipPath id="clip0_1685_1283">
<rect width="38.7455" height="39.38" fill="white" transform="translate(0 40)"/>
</clipPath>
<clipPath id="clip1_1685_1283">
<rect width="38.7455" height="39.38" fill="white" transform="translate(43.6562 40)"/>
</clipPath>
<clipPath id="clip2_1685_1283">
<rect width="38.7455" height="39.38" fill="white" transform="translate(87.3125 40)"/>
</clipPath>
<clipPath id="clip3_1685_1283">
<rect width="38.7455" height="39.38" fill="white" transform="translate(130.965 40)"/>
</clipPath>
<clipPath id="clip4_1685_1283">
<rect width="38.7455" height="39.38" fill="white" transform="translate(174.621 40)"/>
</clipPath>
</defs>
</svg>
