<svg xmlns="http://www.w3.org/2000/svg" width="163" height="73" fill="none" xmlns:v="https://vecta.io/nano"><path d="M32.387 12.385v1.126h2.467 2.466v6.542 6.542h1.287 1.287v-6.542-6.542h2.466 2.466v-1.126-1.126h-6.22-6.22v1.126zm63.476 0v1.126h1.18 1.18v-1.126-1.126h-1.18-1.18v1.126zm4.617 6.542v7.668h1.234 1.233v-7.668-7.668h-1.233-1.234v7.668zm-24.038-5.128l-.032 1.694-.88.032-.889.032v.847.858h.901.912l.032 3.882c.032 3.775.043 3.904.268 4.375.279.558.751.912 1.426 1.062.547.129 1.663.15 2.402.054l.494-.075v-.89-.89l-.58.064c-.332.032-.74 0-.976-.075-.664-.225-.697-.386-.697-4.182v-3.324h1.126 1.127v-.858-.847l-1.094-.032-1.104-.032-.033-1.694-.032-1.684h-1.169-1.169l-.032 1.684zm42.267.032v1.716h-.911-.911v.858.858h.9.901l.054 3.775.171 4.182a1.94 1.94 0 0 0 1.105 1.212c.547.215 1.856.322 2.702.225l.601-.075v-.879-.879h-.815c-.762 0-.826-.021-1.072-.3l-.258-.3v-3.485-3.475h1.073 1.072v-.858-.858h-1.072-1.073v-1.716-1.716h-1.233-1.234v1.716zm-69.993 1.653c-.751.354-1.512 1.072-1.812 1.727l-.258.536v-1.105-1.094H45.52h-1.126v5.523 5.523h1.18 1.18v-2.949c0-3.11.064-3.732.493-4.568.311-.611 1.072-1.308 1.63-1.469.235-.075.761-.129 1.19-.129h.762v-1.126-1.126h-.772c-.601 0-.912.064-1.341.257zm18.574-.151c-1.426.289-2.649 1.169-2.928 2.102-.268.922-.128 1.909.365 2.627.558.804 1.405 1.19 3.776 1.705 2.08.461 2.713.783 2.906 1.459.311 1.126-.6 1.78-2.466 1.78-1.437 0-2.327-.568-2.52-1.609l-.065-.343h-1.169-1.169v.375c0 .933.761 2.156 1.673 2.692 1.609.944 4.289 1.019 6.08.171 1.212-.568 1.802-1.276 2.016-2.424.225-1.212-.258-2.316-1.265-2.96-.633-.397-1.104-.557-3.121-1.019-1.758-.397-2.424-.686-2.66-1.148-.525-1.019.526-1.802 2.231-1.662.965.086 1.555.408 1.855 1.008l.214.461h1.223 1.212l-.075-.397c-.247-1.308-1.351-2.359-2.895-2.767-.675-.172-2.466-.204-3.217-.054zm19.862.108c-.729.225-1.255.611-1.694 1.212l-.312.429v-.761-.772H84.02h-1.126v7.614 7.614h1.18 1.18v-2.788l.053-2.788c.033 0 .225.193.44.429.836.922 2.616 1.448 4.118 1.19 1.748-.29 2.96-1.373 3.614-3.239.376-1.083.462-3.024.204-4.215-.461-2.07-1.737-3.507-3.55-3.989-.772-.214-2.23-.182-2.981.064zm2.455 1.909c.611.311 1.276 1.094 1.556 1.834.45 1.212.375 3.11-.172 4.193-.311.611-.943 1.223-1.49 1.448s-1.716.236-2.252.011c-1.104-.461-1.811-1.512-2.015-3.003-.312-2.166.567-4.15 2.059-4.622.654-.214 1.758-.15 2.316.139zm19.245-1.952c-1.233.332-2.434 1.18-3.057 2.177-1.072 1.694-1.201 4.461-.289 6.402 1.78 3.807 7.979 3.914 9.866.161.493-.965.686-1.834.686-3.067.011-2.917-1.469-5.03-3.946-5.684-.794-.204-2.488-.204-3.26.011zm2.595 1.802c1.523.547 2.295 2.005 2.198 4.129-.117 2.338-1.276 3.678-3.195 3.678-.869 0-1.341-.182-1.973-.772-2.016-1.866-1.384-6.284 1.007-7.024.623-.182 1.438-.193 1.963-.011zM52.45 19.805c.033 4.193.043 4.279.289 4.912.343.88 1.137 1.662 1.942 1.909.955.29 2.005.343 2.745.139.794-.236 1.63-.772 1.973-1.287.151-.215.301-.386.355-.386.043 0 .074.332.074.751v.751h1.18 1.18V21.07v-5.523h-1.233-1.234v3.689c0 3.936-.032 4.182-.557 4.89-.386.536-1.201.869-2.113.869-1.265.011-1.898-.472-2.145-1.63-.075-.322-.118-1.984-.118-4.172v-3.646h-1.19-1.18l.032 4.258zm43.413 1.265v5.523h1.18 1.18V21.07v-5.523h-1.18-1.18v5.523z" fill="#454545"/><path d="M14.441 1.349c-.107.322-.161.633-.118.708.043.064.033.086-.021.054-.086-.043-.729 1.78-.74 2.091 0 .032-.033.096-.075.139s-.043.139-.01.225.01.15-.043.15c-.087 0-.44.933-.504 1.341-.011.054-.107.365-.215.665-.096.311-.15.622-.107.686.043.075.033.096-.033.064-.064-.043-.15.075-.193.279l-.107.397-.14.354c-.075.172-.107.354-.064.408.032.054 0 .097-.054.097a.12.12 0 0 0-.118.118c0 .054.054.075.108.043.064-.032.107-.011.107.043 0 .064-.075.118-.182.118-.097 0-.14.032-.107.075.043.032.032.118-.021.182s-.204.472-.322.89l-.236.783-5.544.021-5.544.032.782.568c.429.311.836.536.902.493.074-.043.086-.032.043.043s.053.204.225.311l1.126.804c.45.343.879.622.933.622.064 0 .118.043.118.097 0 .129.772.611.911.568.065-.021.075 0 .033.043-.097.086.675.686.794.622.054-.032.086 0 .086.054 0 .064.204.247.462.408.247.161.482.332.514.386.033.043.14.054.225.021.118-.054.171-.011.161.129-.011.107.043.182.118.172.064-.021.128.011.128.054 0 .054.311.311.687.59l.697.515-.193.558-.204.611c0 .032-.032.129-.064.214L6.39 26.273c-.011.086-.043.182-.086.214s-.097.182-.129.322c-.021.15-.118.472-.214.719-.118.343-.129.461-.033.461.075 0 .043.054-.053.118-.108.054-.194.15-.194.214s.054.054.128-.011a12.17 12.17 0 0 1 .644-.472c.279-.193.472-.386.429-.429s-.021-.064.033-.043c.139.043 1.34-.761 1.34-.901 0-.043.054-.086.108-.086.128 0 1.716-1.137 1.898-1.362.064-.086.161-.161.214-.161.194-.011.987-.665.923-.761-.033-.064-.011-.075.053-.032.118.064 1.437-.815 1.502-1.019.021-.054.086-.096.15-.096.054 0 .45-.257.869-.568l2.22-1.63 1.555-1.18c.064-.075.14-.14.194-.14.107-.021.868-.59.911-.697.021-.043.087-.075.14-.075.172 0 1.062-.719.987-.794-.033-.032.032-.064.15-.064s.343-.118.504-.268.311-.268.332-.268c.107 0 1.448-1.008 1.448-1.094 0-.043.075-.086.161-.086s.161-.054.161-.107c0-.064.053-.107.107-.107.215 0 1.609-1.094 1.545-1.201-.043-.075-.021-.086.043-.043.128.075 1.094-.547 1.094-.708 0-.043.064-.086.15-.086.075 0 .225-.107.322-.247.097-.129.15-.172.107-.086s.161-.032.45-.247c.289-.225.515-.45.493-.515-.01-.054.021-.075.075-.043.064.043.547-.257 1.094-.654l.986-.729-5.533-.032-5.534-.021-.869-2.713-.965-2.756c-.043-.032-.075-.129-.075-.225s-.064-.397-.139-.676c-.118-.429-.161-.472-.301-.365-.14.118-.151.107-.043-.086.128-.247-.033-1.008-.215-1.008-.053 0-.075-.043-.043-.096.064-.097-.128-.772-.247-.869-.033-.032-.064-.118-.075-.193-.032-.418-.053-.461-.171-.386-.075.043-.085.032-.043-.054.074-.118-.097-.836-.247-.997-.033-.043-.151.193-.258.515zm6.04 19.142l-.536.171c-.086.032-.204.054-.258.043-.043-.011-.15.043-.235.107-.087.075-.182.097-.215.064s-.214-.011-.396.054l-.45.129-2.198.622c0 .043-.064.054-.14.021-.086-.032-.289.011-.461.075-.289.118-.375.15-.633.182-.053.011.301.311.772.665.59.429.943.622 1.073.579.14-.043.15-.032.053.032-.096.075.225.375 1.212 1.094.751.536 1.405.954 1.458.912.054-.032.087 0 .075.086-.021.075.054.129.15.129.108-.011.172.021.14.064s.118.215.322.365c.204.161.375.268.375.236s.151.086.333.247a3.25 3.25 0 0 0 .611.45c.161.086.343.225.418.311s.14.129.14.086.118.043.268.193.322.236.397.193.086-.032.043.043c-.075.118.064.182.289.139.054-.011.064.021.033.075s.096.204.268.332l.332.247-.075-.247a6.36 6.36 0 0 0-.193-.526 1.26 1.26 0 0 1-.097-.354c.011-.043-.043-.107-.128-.139a.2.2 0 0 1-.097-.236c.021-.107-.01-.332-.086-.504l-.15-.483c-.043-.386-.429-1.351-.58-1.48-.097-.086-.107-.118-.032-.075.139.075.182-.075.053-.204-.086-.086-.096-.139-.128-.45 0-.097-.064-.129-.14-.086s-.086.032-.043-.043c.086-.15-.44-1.941-.644-2.177-.086-.097-.117-.193-.086-.236.043-.032.033-.15-.01-.257-.097-.225-.129-.311-.151-.461-.01-.129-.15-.129-.654.011z" fill="#15c16b"/><path d="M20.19 17.782l.771 2.697-6.551 1.541 5.78-4.239z" fill="#01522c"/><rect x="2.199" y="44.776" width="28.211" height="28.211" rx="2" fill="#1eb059"/><path d="M16.307 48.063l2.429 7.476h7.861l-6.359 4.62 2.429 7.476-6.359-4.62-6.359 4.62 2.429-7.476-6.359-4.62h7.86l2.429-7.476z" fill="#fff"/><rect x="35.352" y="44.776" width="28.211" height="28.211" rx="2" fill="#1eb059"/><path d="M49.46 48.063l2.429 7.476h7.86l-6.359 4.62 2.429 7.476-6.359-4.62-6.359 4.62 2.429-7.476-6.359-4.62h7.861l2.429-7.476z" fill="#fff"/><rect x="68.496" y="44.776" width="28.211" height="28.211" rx="2" fill="#1eb059"/><path d="M82.604 48.063l2.429 7.476h7.861l-6.359 4.62 2.429 7.476-6.359-4.62-6.359 4.62 2.429-7.476-6.359-4.62h7.861l2.429-7.476z" fill="#fff"/><rect x="101.641" y="44.776" width="28.211" height="28.211" rx="2" fill="#1eb059"/><path d="M115.749 48.063l2.429 7.476h7.86l-6.359 4.62 2.429 7.476-6.359-4.62-6.36 4.62 2.43-7.476-6.36-4.62h7.861l2.429-7.476z" fill="#fff"/><rect x="134.797" y="44.776" width="28.211" height="28.211" rx="2" fill="#1eb059"/><path d="M148.905 48.063l2.429 7.476h7.861l-6.36 4.62 2.429 7.476-6.359-4.62-6.359 4.62 2.429-7.476-6.36-4.62h7.861l2.429-7.476z" fill="#fff"/><mask id="A" maskUnits="userSpaceOnUse" x="138" y="48" width="22" height="20" mask-type="alpha"><path d="M148.897 48.063l2.429 7.476h7.861l-6.359 4.62 2.429 7.476-6.36-4.62-6.359 4.62 2.429-7.476-6.359-4.62h7.86l2.429-7.476z" fill="#fff"/></mask><g mask="url(#A)"><path fill="#1eb059" d="M157.262 46.801h3.156v22.9h-3.156z"/></g></svg>