<svg width="30" height="30" viewBox="0 0 30 30" fill="none" xmlns="http://www.w3.org/2000/svg">
<g clip-path="url(#clip0_123_2656)">
<path d="M9.56945 23.3359C7.83968 23.3359 6.4375 24.7382 6.4375 26.4679C6.4375 28.1976 7.83975 29.5998 9.56945 29.5998C11.2992 29.5998 12.7014 28.1976 12.7014 26.4679C12.7015 24.7382 11.2992 23.3359 9.56945 23.3359ZM9.56945 28.2079C8.60848 28.2079 7.82949 27.4289 7.82949 26.4679C7.82949 25.507 8.60848 24.728 9.56945 24.728C10.5304 24.728 11.3094 25.507 11.3094 26.4679C11.3095 27.4289 10.5304 28.2079 9.56945 28.2079Z" fill="white"/>
<path d="M22.7921 23.3359C21.0623 23.3359 19.6602 24.7382 19.6602 26.4679C19.6602 28.1976 21.0624 29.5998 22.7921 29.5998C24.5218 29.5998 25.924 28.1976 25.924 26.4679C25.924 24.7382 24.5219 23.3359 22.7921 23.3359ZM22.7921 28.2079C21.8311 28.2079 21.0521 27.4289 21.0521 26.4679C21.0521 25.507 21.8311 24.728 22.7921 24.728C23.7531 24.728 24.5321 25.507 24.5321 26.4679C24.5321 27.4289 23.7531 28.2079 22.7921 28.2079Z" fill="white"/>
<path d="M29.8581 5.06556C29.7132 4.90723 29.5149 4.80812 29.3013 4.78713L6.64676 4.47394L6.02037 2.55994C5.57909 1.28045 4.38093 0.416665 3.02757 0.402344H0.695995C0.311596 0.402344 0 0.71394 0 1.09834C0 1.48274 0.311596 1.79433 0.695995 1.79433H3.02757C3.78431 1.81105 4.45067 2.29696 4.69798 3.01234L9.11755 16.3406L8.76958 17.141C8.38145 18.1419 8.49802 19.2683 9.08278 20.1686C9.66194 21.0527 10.6363 21.5984 11.6928 21.6302H25.2299C25.6143 21.6302 25.9259 21.3186 25.9259 20.9342C25.9259 20.5498 25.6143 20.2382 25.2299 20.2382H11.6927C11.0961 20.2233 10.5469 19.9094 10.2311 19.403C9.91885 18.9027 9.8547 18.2865 10.0571 17.7326L10.3356 17.1062L24.9862 15.575C26.5955 15.3977 27.9193 14.2273 28.2922 12.6518L29.9626 5.65704C30.0379 5.45562 29.9979 5.22908 29.8581 5.06556ZM26.935 12.3386C26.7091 13.3528 25.848 14.1009 24.8122 14.183L10.3356 15.6794L7.09917 5.86593L28.4314 6.17912L26.935 12.3386Z" fill="white"/>
</g>
<defs>
<clipPath id="clip0_123_2656">
<rect width="30" height="30" fill="white"/>
</clipPath>
</defs>
</svg>
