<svg width="14" height="14" viewBox="0 0 14 14" fill="none" xmlns="http://www.w3.org/2000/svg">
<g clip-path="url(#clip0_151_2004)">
<path d="M6.82324 0.100342C3.2307 0.100342 0.323242 3.00747 0.323242 6.60034C0.323242 10.1928 3.23037 13.1003 6.82324 13.1003C10.4158 13.1003 13.3232 10.1932 13.3232 6.60034C13.3232 3.0078 10.4161 0.100342 6.82324 0.100342ZM6.82324 12.1934C3.73925 12.1934 1.23022 9.68436 1.23022 6.60034C1.23022 3.51632 3.73925 1.00732 6.82324 1.00732C9.90726 1.00732 12.4163 3.51632 12.4163 6.60034C12.4163 9.68436 9.90726 12.1934 6.82324 12.1934Z" fill="#6E6E73"/>
<path d="M6.63072 8.32495C6.27137 8.32495 5.98047 8.62441 5.98047 8.98374C5.98047 9.33456 6.26281 9.64257 6.63072 9.64257C6.99863 9.64257 7.28951 9.33456 7.28951 8.98374C7.28951 8.62441 6.99005 8.32495 6.63072 8.32495Z" fill="#6E6E73"/>
<path d="M6.74217 3.33691C5.5871 3.33691 5.05664 4.02142 5.05664 4.48343C5.05664 4.81711 5.33898 4.97113 5.56999 4.97113C6.03202 4.97113 5.8438 4.31229 6.7165 4.31229C7.14428 4.31229 7.48655 4.50054 7.48655 4.89412C7.48655 5.35613 7.0074 5.62136 6.72506 5.86092C6.47692 6.07478 6.15181 6.42561 6.15181 7.16143C6.15181 7.60632 6.27161 7.73467 6.62238 7.73467C7.0416 7.73467 7.12717 7.54645 7.12717 7.38385C7.12717 6.93895 7.13573 6.68228 7.60632 6.31437C7.83732 6.13471 8.56456 5.55288 8.56456 4.74863C8.56456 3.94438 7.83732 3.33691 6.74217 3.33691Z" fill="#6E6E73"/>
</g>
<defs>
<clipPath id="clip0_151_2004">
<rect width="13" height="13" fill="white" transform="translate(0.323242 0.100342)"/>
</clipPath>
</defs>
</svg>
