<svg width="125" height="31" viewBox="0 0 125 31" fill="none" xmlns="http://www.w3.org/2000/svg">
<path fill-rule="evenodd" clip-rule="evenodd" d="M48.9325 7.70703V23.4958H47.8104V7.70703H48.9325ZM37.6923 7.71836V14.5014C38.6504 13.6833 39.8895 13.228 41.1757 13.2214C43.5134 13.2214 45.7693 14.7486 45.7693 18.4319C45.7693 22.2385 43.2332 23.6736 40.5211 23.6736C39.1162 23.6627 37.7384 23.3034 36.5234 22.6309V7.71836H37.6923ZM67.2792 13.2512H67.4732C70.2448 13.317 72.1544 15.4109 71.8758 18.4928L71.8565 18.6827H63.4176C63.3974 19.7365 63.826 20.7532 64.6057 21.5007C65.3853 22.2481 66.4493 22.6625 67.5549 22.6493C67.6263 22.6522 67.6974 22.6536 67.7682 22.6536C68.7659 22.6413 69.7471 22.4091 70.6349 21.975L70.8392 21.8744L71.2479 22.8179C70.1772 23.3789 68.9773 23.6778 67.7555 23.6877C67.6699 23.6877 67.5834 23.6861 67.4962 23.6828C63.9667 23.5737 62.1589 20.9132 62.2725 18.0721C62.2443 16.7938 62.761 15.5593 63.7046 14.6506C64.6483 13.742 65.9381 13.2371 67.2792 13.2512ZM108.172 13.3893V9.99778L107.003 10.0006V13.3921H105.122V14.3469H107.003V19.9506C107.003 22.5452 108.511 23.6566 110.405 23.6566C111.206 23.6496 112 23.4973 112.742 23.2075L112.404 22.2158C111.787 22.4936 111.11 22.6284 110.428 22.6089C108.896 22.553 108.172 21.4983 108.172 19.8691V14.3441H111.655V13.3893H108.172ZM89.8332 13.232C92.5446 13.232 94.8942 15.1637 94.8942 18.4312C94.8942 21.7774 92.5327 23.653 89.8332 23.653C86.806 23.653 84.7723 21.3155 84.7723 18.4312C84.7723 15.3655 87.0163 13.232 89.8332 13.232ZM52.829 19.5518V13.3893L51.6595 13.3886V19.6658C51.6595 22.7428 53.2489 23.6523 54.9089 23.6523C56.5217 23.6087 58.0122 22.8217 58.9065 21.5415V23.4958H60.0783V13.3864H58.9043V20.394C57.9227 21.7752 56.6602 22.6061 55.2811 22.6061C54.0566 22.6061 52.829 21.9552 52.829 19.5518ZM100.493 13.2547C101.515 13.2659 102.519 13.5167 103.415 13.985L102.969 14.8718C102.218 14.4856 101.379 14.2814 100.526 14.2768C98.7841 14.2768 97.9994 15.0964 97.9994 15.9499C97.9994 16.9511 99.085 17.3732 100.522 17.9319C100.649 17.9812 100.778 18.0315 100.91 18.0834C103.446 19.0382 103.984 20.1277 103.984 21.0584C103.984 22.6415 102.441 23.641 100.396 23.641C99.2143 23.628 98.0588 23.3097 97.052 22.7202L97.5543 21.7547C98.3806 22.2964 99.357 22.5922 100.359 22.6047C101.458 22.6047 102.826 22.1669 102.811 21.1002C102.811 20.1907 101.806 19.4831 100.194 18.8767C98.4051 18.1918 96.8395 17.5628 96.8395 15.9457C96.8395 14.3285 98.4237 13.254 100.492 13.254L100.493 13.2547ZM75.6676 15.3684V7.71836H74.498V23.4979H75.6669V16.5562C76.3809 15.4102 77.7474 14.2655 79.2789 14.2768C80.5413 14.2874 81.7101 15.0624 81.7101 17.2518V23.4958H82.8678V17.0167C82.8678 14.7592 81.6277 13.232 79.5241 13.232C77.9419 13.2753 76.4903 14.0794 75.6676 15.3684ZM37.6923 15.8252C38.5398 14.8761 39.7638 14.3066 41.0702 14.2534C43.0452 14.2534 44.5886 15.782 44.5997 18.4439C44.5997 21.465 42.6009 22.6777 40.4505 22.6777C39.489 22.6681 38.5437 22.4411 37.6923 22.0154V15.8252ZM89.8332 14.2761C87.3202 14.2761 85.953 16.1886 85.953 18.4312C85.953 20.666 87.3091 22.6104 89.8332 22.6104C92.2764 22.6104 93.7253 20.6561 93.7253 18.4312C93.7253 16.1851 92.2875 14.2761 89.8332 14.2761ZM63.48 17.601C63.6188 15.722 65.2572 14.2647 67.2331 14.2627C67.278 14.2627 67.3233 14.2634 67.3692 14.2648C68.3136 14.2826 69.2098 14.666 69.8513 15.3269C70.4929 15.9878 70.8247 16.8693 70.7701 17.7682H63.4651L63.48 17.601ZM67.2331 14.2627C67.2329 14.2627 67.2333 14.2627 67.2331 14.2627V14.2627Z" fill="#797979"/>
<path fill-rule="evenodd" clip-rule="evenodd" d="M29.6639 11.7395V7H24.7293V11.7395H29.6639ZM29.6639 13.1299V17.8701H24.7293V13.1299H29.6639ZM16.9324 24V19.2598H12V24H16.9324ZM23.2982 19.2598V24H18.3635V19.2598H23.2982ZM29.6639 19.2598V24H24.7293V19.2598H29.6639ZM23.2982 17.8701V13.1299H18.3635V17.8701H23.2982ZM16.9324 13.1299V17.8701H12V13.1299H16.9324ZM23.2944 7V11.7395H18.3635V7H23.2944ZM16.9324 11.7395V7H12V11.7395H16.9324Z" fill="#797979"/>
</svg>
