<svg width="125" height="31" viewBox="0 0 125 31" fill="none" xmlns="http://www.w3.org/2000/svg">
<path d="M13.1493 4.06406C11.8451 4.27338 10.4711 4.97112 9.49428 5.91039C8.42084 6.9409 7.76068 8.14316 7.29374 9.91435C6.8751 11.4762 6.9073 13.6875 7.36888 15.55C7.73385 17.0206 8.11491 18.0618 8.73214 19.2641C10.1598 22.0443 12.3711 24.4166 14.8239 25.8068C16.9171 26.9929 19.0639 27.4974 21.0927 27.272C21.9461 27.1808 23.4811 26.7836 24.0017 26.5206C24.1037 26.4723 24.3721 26.3488 24.5921 26.2522C25.0537 26.0536 25.9983 25.5008 26.5511 25.1036C28.274 23.8692 29.8573 22.1409 30.9898 20.2517C31.6929 19.0762 32.5087 17.1709 32.7985 16.0169C33.1903 14.4765 33.3674 12.6677 33.2386 11.5514C33.0508 9.96803 32.8093 9.0556 32.2564 7.91774C31.6339 6.63497 30.3994 5.3683 29.1596 4.73497C28.7785 4.54175 27.8285 4.20898 27.3723 4.107C26.68 3.95672 24.8229 3.97282 24.0661 4.13383C22.9068 4.3861 21.2698 5.03553 20.4165 5.57762L20.132 5.76011L19.8959 5.60446C19.1015 5.07847 17.3679 4.3861 16.2301 4.1392C15.5431 3.99429 13.8471 3.95135 13.1493 4.06406ZM15.8007 6.39344C16.4233 6.53299 17.3089 6.83356 17.7329 7.04825C17.9207 7.13949 18.0817 7.22537 18.0925 7.2361C18.1032 7.24684 17.7973 7.58497 17.4109 7.99288C17.0298 8.40079 16.6058 8.86774 16.4716 9.02876C16.1281 9.44204 15.4089 10.4511 15.2264 10.7731C15.1405 10.918 15.0171 11.1112 14.9527 11.2025C14.7648 11.4655 14.1852 12.657 13.8846 13.4084C13.4499 14.4765 13.101 15.7217 12.9078 16.8918C12.7575 17.8042 12.7736 19.8867 12.9346 20.7508C13.0044 21.0997 13.042 21.4002 13.0259 21.4164C13.0098 21.4325 12.9561 21.3895 12.9078 21.3144C12.8541 21.2446 12.7199 21.0836 12.6072 20.9601C12.0544 20.359 11.2118 19.087 10.7287 18.1262C9.30106 15.2923 8.91999 12.3511 9.66603 9.92509C10.1061 8.4974 11.0615 7.30588 12.2047 6.76378C12.5965 6.5813 13.3103 6.35051 13.6968 6.29147C14.1476 6.21633 15.2694 6.27536 15.8007 6.39344ZM27.1415 6.42565C28.6175 6.85503 29.6212 7.71915 30.2921 9.1361C31.1884 11.0307 31.1991 13.6392 30.3296 16.237C30.0559 17.0421 29.4279 18.3946 28.9771 19.146C28.5477 19.8599 27.3723 21.4164 27.2542 21.4217C27.2274 21.4271 27.222 21.3358 27.2381 21.2231C27.2542 21.1158 27.3186 20.6971 27.3777 20.3C27.5763 19.0226 27.5172 17.7666 27.1898 16.0598C27.0288 15.2494 26.9107 14.8361 26.5619 13.8593C26.3096 13.1562 25.7675 11.9646 25.6226 11.8036C25.4616 11.6211 25.1986 11.6855 24.619 12.0559C23.7709 12.5926 22.4184 13.4406 22.0749 13.6446C21.71 13.8646 21.0659 14.2672 20.5667 14.5839C20.3735 14.7073 20.1213 14.863 20.0032 14.9327C19.7295 15.0937 19.6007 15.244 19.606 15.4158C19.606 15.4909 19.7402 15.7539 19.9012 16.0062C20.0569 16.2584 20.2555 16.5751 20.336 16.7146C20.4862 16.9615 20.6419 17.0796 20.8297 17.0796C20.8834 17.0796 21.1249 16.9508 21.3611 16.7952C23.1806 15.6305 24.4418 14.8683 24.4848 14.9166C24.5062 14.9381 24.5975 15.1904 24.6887 15.4694C25.2791 17.2836 25.3382 19.8384 24.8283 21.3949C24.6565 21.9155 24.2701 22.6723 23.9856 23.0534C23.1752 24.1214 22.2145 24.7172 20.921 24.948C19.1981 25.2486 17.4538 24.5616 16.3321 23.1392C16.1335 22.887 15.7578 22.2161 15.6182 21.8565C15.4518 21.4378 15.2855 20.8206 15.1674 20.1658C15.0332 19.4358 15.0493 17.9921 15.1942 17.1601C15.6182 14.8307 16.4126 12.9629 17.8134 11.0415C18.8224 9.66209 20.4487 8.17 21.6939 7.48299C22.9015 6.81746 23.7226 6.52762 25.1288 6.27C25.204 6.25389 25.5797 6.25389 25.9608 6.26463C26.5189 6.28073 26.7551 6.30757 27.1415 6.42565Z" fill="white"/>
<path d="M44.5601 8.89457C43.4491 9.03412 42.7996 9.23808 41.9087 9.71576C41.0124 10.1988 40.2985 10.8053 39.7189 11.5728C39.37 12.0344 38.8655 12.9951 38.7099 13.5104C38.2322 15.0347 38.2698 17.0742 38.7957 18.4053C39.2573 19.57 39.8316 20.3805 40.7225 21.1372C41.1734 21.513 41.2968 21.5935 41.9033 21.8994C42.8479 22.3771 43.5296 22.5435 44.6996 22.5918C46.605 22.6669 48.1453 22.1409 49.3208 21.0138C49.6213 20.724 49.7716 20.6113 49.7931 20.6649C49.8092 20.7025 49.8199 21.0567 49.8199 21.4485C49.8199 22.4093 49.7662 22.3663 50.9416 22.3663C51.9936 22.361 52.0956 22.3449 52.1761 22.1248C52.2137 22.0175 52.2244 21.0299 52.219 19.2211L52.2083 16.4785L52.0795 16.3765C51.9614 16.2799 51.8326 16.2745 49.3798 16.2745C46.6103 16.2745 46.5459 16.2799 46.4708 16.5536C46.4547 16.6234 46.4386 17.0367 46.4386 17.4714C46.4386 18.2443 46.4439 18.2711 46.5728 18.3946C46.7016 18.5288 46.7177 18.5288 47.6194 18.5288C48.666 18.5288 48.6821 18.5341 48.2795 18.9152C47.9092 19.2533 47.5657 19.4788 47.1256 19.6613C45.8911 20.1711 44.662 20.1175 43.3847 19.511C43.0787 19.3661 42.8748 19.2104 42.5152 18.8562C42.1073 18.4483 42.016 18.3248 41.7799 17.831C41.635 17.5197 41.474 17.1065 41.4256 16.9132C41.2378 16.1457 41.2593 15.0669 41.4847 14.3692C41.7155 13.6499 42.279 12.7697 42.7513 12.3994C42.8748 12.3028 43.0143 12.1901 43.0573 12.1471C43.2022 12.0076 43.9912 11.6694 44.4527 11.546C44.8445 11.444 45.0002 11.4333 45.6335 11.4601C46.2615 11.4816 46.4225 11.5031 46.8304 11.648C47.7911 11.9807 48.3439 12.4101 48.8967 13.242C49.0953 13.5372 49.2778 13.7949 49.31 13.8163C49.4281 13.9022 49.6535 13.8432 50.4854 13.5158C50.9631 13.3279 51.4408 13.1454 51.5535 13.1079C51.9131 12.9951 51.9185 12.861 51.575 12.1418C51.3495 11.6641 50.7967 10.918 50.4264 10.5853C49.2671 9.53864 48.0917 9.06096 46.2346 8.8731C45.5584 8.80333 45.2846 8.80333 44.5601 8.89457Z" fill="white"/>
<path d="M64.0277 9.13608L63.8828 9.2488V15.7056V22.1624L63.9955 22.2644C64.1029 22.361 64.237 22.3663 67.1514 22.3663C69.3895 22.3663 70.3073 22.3449 70.6454 22.2966C72.1375 22.0658 73.4739 21.4432 74.3917 20.5468C75.5618 19.4144 76.1629 18.1047 76.3454 16.2906C76.4635 15.0723 76.2058 13.6231 75.6799 12.5711C74.7513 10.7194 73.1519 9.5762 70.887 9.15219C70.5488 9.08778 69.8028 9.06631 67.3178 9.04484L64.178 9.01801L64.0277 9.13608ZM70.5381 11.7338C70.7313 11.7875 71.0909 11.927 71.3378 12.0451C72.2019 12.4584 72.9855 13.4299 73.2539 14.4228C73.3344 14.7234 73.3559 14.9864 73.3559 15.711C73.3559 16.516 73.3398 16.6717 73.2324 17.0259C72.8514 18.2282 72.0087 19.1406 70.8709 19.5593L70.4039 19.731L68.5522 19.7364H66.7006L66.6898 15.7163C66.6791 13.505 66.6898 11.6748 66.7059 11.648C66.7274 11.6157 67.3876 11.605 68.4664 11.6211C69.8833 11.6372 70.2536 11.6587 70.5381 11.7338Z" fill="white"/>
<path d="M95.4018 9.08241C95.3374 9.10925 95.2622 9.17902 95.23 9.23806C95.1925 9.30784 95.171 10.1344 95.171 11.6855V14.031L94.8221 13.7036C94.1781 13.1078 93.5125 12.8717 92.4337 12.8771C91.092 12.8771 90.0615 13.3172 89.1598 14.2725C88.2903 15.1957 87.9361 16.0974 87.8878 17.509C87.8341 19.0547 88.2152 20.1711 89.149 21.1855C90.6841 22.8548 93.4535 23.1339 94.8221 21.7545C94.9993 21.5774 95.1603 21.4271 95.1871 21.4271C95.2086 21.4271 95.2247 21.5935 95.2247 21.7974C95.2247 22.1946 95.2837 22.3127 95.5145 22.3717C95.5789 22.3878 96.0995 22.3932 96.6684 22.3824C97.6828 22.3663 97.7043 22.3663 97.8063 22.2375C97.9029 22.1141 97.9083 21.9316 97.9083 15.7002V9.29174L97.7741 9.16292C97.6453 9.02874 97.6399 9.02874 96.5826 9.03411C95.9975 9.03411 95.4662 9.05558 95.4018 9.08241ZM93.5179 15.3943C93.6306 15.4158 93.8936 15.5285 94.1083 15.6519C94.9778 16.1457 95.4233 17.1869 95.2139 18.2443C95.1656 18.4805 95.0905 18.7595 95.0422 18.8562C94.7685 19.4358 94.119 19.9725 93.5662 20.0906C93.0832 20.1926 92.4498 20.1336 92.0849 19.9564C91.4677 19.6505 91.0007 19.0923 90.8504 18.4751C90.7377 18.0135 90.7592 17.2406 90.9041 16.8381C90.9953 16.5751 91.3013 16.1189 91.5374 15.8934C91.6609 15.7754 92.2083 15.4802 92.4337 15.4104C92.6001 15.3621 93.2496 15.3514 93.5179 15.3943Z" fill="white"/>
<path d="M106.253 9.09319C106.194 9.12539 106.13 9.17907 106.108 9.21127C106.087 9.24347 106.065 10.3277 106.065 11.6158C106.065 12.9093 106.044 13.9666 106.022 13.9666C106.001 13.9666 105.851 13.8432 105.69 13.6929C105.094 13.1347 104.337 12.8771 103.301 12.8771C101.686 12.8771 100.387 13.5695 99.5067 14.9059C98.6426 16.2155 98.4708 18.1638 99.0827 19.7364C99.2759 20.241 99.7482 20.9494 100.145 21.3251C101.332 22.4737 103.033 22.9192 104.482 22.463C104.954 22.3127 105.341 22.0873 105.695 21.7545L106.039 21.4271L106.065 21.8082C106.108 22.404 106.108 22.404 107.439 22.3825C108.416 22.3664 108.534 22.3556 108.636 22.2644L108.749 22.1624V15.7164C108.749 12.1686 108.727 9.24347 108.706 9.21127C108.604 9.05562 108.411 9.02878 107.396 9.02878C106.726 9.03415 106.323 9.05562 106.253 9.09319ZM104.868 15.5983C105.314 15.8344 105.539 16.0438 105.786 16.4517C106.055 16.8918 106.135 17.2729 106.108 17.9223C106.087 18.4054 106.065 18.5073 105.904 18.8347C105.679 19.291 105.233 19.7418 104.809 19.9511C104.557 20.0746 104.396 20.1121 104.037 20.1282C103.446 20.1604 103.103 20.0799 102.689 19.8062C101.986 19.3446 101.637 18.6684 101.637 17.7506C101.637 16.7952 102.061 16.0223 102.791 15.6359C103.248 15.3943 103.371 15.3675 103.972 15.3782C104.444 15.3943 104.509 15.4051 104.868 15.5983Z" fill="white"/>
<path d="M57.3819 12.8932C56.5822 12.9952 55.9703 13.2099 55.2994 13.6339C54.709 14.0042 54.2635 14.4282 53.8717 14.9864C53.4048 15.6519 53.1686 16.2853 53.0291 17.2514C52.9217 18.0135 53.1203 19.1782 53.4799 19.8974C53.9522 20.8313 54.9022 21.7491 55.8629 22.1839C56.287 22.3771 56.9095 22.5327 57.5643 22.6133C58.1172 22.683 58.6592 22.6347 59.3731 22.463C60.8813 22.0873 62.1103 21.0353 62.7168 19.6022C63.1784 18.5073 63.1999 17.1923 62.7866 16.0974C62.6041 15.6251 62.3465 15.1152 62.2284 14.9971C62.1747 14.9435 62.0567 14.7932 61.9601 14.6644C61.4502 13.9505 60.2748 13.226 59.2765 13.0005C58.7075 12.8771 57.8864 12.8288 57.3819 12.8932ZM58.7559 15.4963C59.3033 15.711 59.6253 15.9686 59.9205 16.398C60.8974 17.8364 60.0762 19.8169 58.3855 20.0853C57.1779 20.2785 56.0401 19.4627 55.7824 18.2175C55.7019 17.831 55.7073 17.5895 55.8039 17.2138C56.0025 16.4356 56.4211 15.9096 57.0759 15.6036C57.2906 15.507 57.5429 15.4158 57.6287 15.3997C57.9078 15.3514 58.5358 15.4051 58.7559 15.4963Z" fill="white"/>
<path d="M81.0093 12.8932C79.9412 13.0434 79.0664 13.4836 78.315 14.2564C77.1825 15.4211 76.7424 17.1494 77.1127 18.9528C77.3918 20.3053 78.3257 21.5291 79.5441 22.1463C80.1828 22.4737 81.2508 22.6937 81.8734 22.6347C82.3833 22.5864 83.0113 22.4146 83.3655 22.2268C83.5265 22.1409 83.811 21.9209 83.9934 21.7384L84.3262 21.411V21.7867C84.3262 22.3663 84.3208 22.361 85.5768 22.3824C86.1403 22.3932 86.6556 22.3878 86.72 22.3717C87.0259 22.2912 87.0098 22.5596 87.0098 17.7452C87.0098 13.3923 87.0098 13.3225 86.9025 13.2152C86.8005 13.1132 86.7253 13.1079 85.6948 13.1079C84.5946 13.1079 84.5892 13.1079 84.4604 13.242C84.3477 13.3547 84.3262 13.4192 84.3262 13.7144V14.0579L83.9881 13.7305C83.5802 13.3386 83.2581 13.1562 82.7268 13.0059C82.2706 12.8824 81.4816 12.8288 81.0093 12.8932ZM82.5497 15.4158C83.6714 15.6251 84.3853 16.5375 84.3853 17.7452C84.3853 18.7649 83.9612 19.4841 83.1186 19.9028C81.589 20.6542 79.8715 19.5163 79.8715 17.7505C79.8768 16.6019 80.5263 15.7324 81.5997 15.448C81.9432 15.3514 82.1847 15.346 82.5497 15.4158Z" fill="white"/>
<path d="M109.572 13.1884C109.389 13.3172 109.384 13.489 109.55 14.0257C109.636 14.3048 109.781 14.7825 109.878 15.0938C109.969 15.4051 110.119 15.872 110.205 16.1404C110.296 16.4034 110.495 17.0474 110.65 17.5627C110.919 18.4429 111.219 19.4037 111.831 21.3466C111.971 21.7921 112.132 22.2 112.191 22.259C112.282 22.3503 112.389 22.3717 113.017 22.3932L113.737 22.4201L113.559 22.946C113.264 23.8102 113.023 24.0517 112.373 24.1322C111.971 24.1859 111.574 24.0839 111.112 23.8155C110.667 23.5525 110.489 23.5203 110.318 23.6706C110.259 23.7189 110.028 24.0356 109.802 24.3737C109.303 25.1198 109.282 25.254 109.609 25.5653C110.527 26.4401 112.878 26.6709 114.177 26.0161C114.826 25.6833 115.411 25.0607 115.792 24.2986C115.921 24.0463 116.313 22.8011 116.64 21.615C116.721 21.3198 116.898 20.7133 117.032 20.2732C117.424 18.9528 117.767 17.7935 117.987 17.026C118.256 16.0706 118.594 14.9274 118.798 14.2618C118.889 13.9666 118.975 13.6231 118.991 13.5051C119.034 13.1294 118.964 13.1079 117.628 13.1079C116.517 13.1079 116.49 13.1133 116.372 13.2313C116.227 13.3816 116.136 13.6553 115.781 15.0133C115.508 16.0438 115.143 17.4178 114.649 19.2695C114.52 19.7472 114.391 20.1336 114.365 20.1229C114.338 20.1121 114.193 19.6506 114.037 19.087C113.887 18.5288 113.72 17.9491 113.672 17.8042C113.619 17.6539 113.463 17.1119 113.318 16.5966C112.379 13.2421 112.384 13.2689 112.191 13.1616C112.126 13.1294 111.606 13.1079 110.887 13.1079C109.915 13.1079 109.663 13.124 109.572 13.1884Z" fill="white"/>
</svg>
