<svg width="125" height="31" viewBox="0 0 125 31" fill="none" xmlns="http://www.w3.org/2000/svg">
<g clip-path="url(#clip0_1549_1219)">
<path d="M39.7835 11.2266H41.8282V19.9511H39.7835V16.2498H36.3495V19.9511H34.3047V11.2266H36.3495V14.5626H39.7835V11.2266Z" fill="white"/>
<path d="M46.6021 15.5853C46.6021 16.0131 46.6566 16.3991 46.7658 16.7433C46.875 17.0876 47.0325 17.3834 47.2379 17.6309C47.4428 17.8788 47.6942 18.0694 47.9915 18.2036C48.2884 18.3382 48.6291 18.4055 49.0138 18.4055C49.3893 18.4055 49.728 18.3382 50.0297 18.2036C50.3308 18.0694 50.5845 17.8788 50.7896 17.6309C50.9948 17.3834 51.1525 17.0876 51.2617 16.7433C51.3709 16.3991 51.4255 16.0131 51.4255 15.5853C51.4255 15.157 51.3709 14.7688 51.2617 14.4204C51.1525 14.0722 50.9948 13.7745 50.7896 13.5267C50.5845 13.2791 50.3308 13.088 50.0297 12.954C49.728 12.8196 49.3893 12.7526 49.0138 12.7526C48.6291 12.7526 48.2884 12.8217 47.9915 12.9601C47.6942 13.0987 47.4428 13.2918 47.2379 13.5395C47.0325 13.787 46.875 14.0849 46.7658 14.4331C46.6566 14.7816 46.6021 15.1656 46.6021 15.5853ZM53.536 15.5853C53.536 16.3321 53.42 16.9891 53.1889 17.5552C52.9571 18.1219 52.6402 18.5961 52.2385 18.9779C51.8365 19.36 51.358 19.6473 50.8032 19.8402C50.2485 20.0336 49.6519 20.1301 49.0143 20.1301C48.3937 20.1301 47.8085 20.0336 47.258 19.8402C46.7074 19.6473 46.2267 19.36 45.8162 18.9779C45.4052 18.5961 45.0823 18.1219 44.8463 17.5552C44.6104 16.9891 44.4922 16.3321 44.4922 15.5853C44.4922 14.8382 44.6146 14.1813 44.8593 13.615C45.1037 13.0483 45.4339 12.572 45.8489 12.1859C46.2637 11.7998 46.7444 11.5104 47.2908 11.3173C47.8366 11.124 48.4113 11.0273 49.0143 11.0273C49.6345 11.0273 50.2198 11.124 50.7706 11.3173C51.321 11.5104 51.8015 11.7998 52.2122 12.1859C52.6228 12.572 52.9462 13.0483 53.1821 13.615C53.4182 14.1813 53.536 14.8382 53.536 15.5853Z" fill="white"/>
<path d="M58.6737 18.4557C58.962 18.4557 59.2001 18.4328 59.3879 18.3863C59.5758 18.3404 59.7266 18.2775 59.8401 18.1972C59.9535 18.1178 60.0323 18.0235 60.0762 17.9143C60.1199 17.8053 60.1418 17.6835 60.1418 17.5492C60.1418 17.264 60.0018 17.0266 59.7222 16.838C59.4426 16.649 58.962 16.4456 58.2806 16.227C57.9834 16.1267 57.6862 16.0109 57.3892 15.881C57.0921 15.7512 56.8256 15.5874 56.5897 15.3901C56.354 15.1929 56.1616 14.9537 56.0131 14.6721C55.8645 14.3912 55.7903 14.0493 55.7903 13.6464C55.7903 13.2434 55.8689 12.8804 56.0262 12.5573C56.1836 12.2341 56.4063 11.9595 56.6948 11.7326C56.983 11.5058 57.3323 11.3321 57.7431 11.2101C58.1538 11.0886 58.6167 11.0273 59.1324 11.0273C59.7441 11.0273 60.2728 11.0907 60.7185 11.2164C61.1638 11.3423 61.531 11.481 61.8192 11.632L61.2297 13.1805C60.976 13.0547 60.6941 12.9434 60.3842 12.8468C60.0739 12.7504 59.7004 12.7019 59.2637 12.7019C58.7742 12.7019 58.4225 12.7674 58.2084 12.8973C57.9943 13.0274 57.8871 13.2268 57.8871 13.4951C57.8871 13.6548 57.9267 13.7893 58.0053 13.8981C58.0838 14.0072 58.1954 14.1058 58.3394 14.194C58.4837 14.2821 58.6497 14.3619 58.8378 14.4331C59.0253 14.5045 59.2329 14.5778 59.4603 14.6533C59.9319 14.8214 60.3426 14.9871 60.6923 15.1508C61.0416 15.3145 61.3323 15.5055 61.5639 15.7236C61.7952 15.9418 61.9679 16.1979 62.0817 16.4917C62.195 16.7857 62.2519 17.1422 62.2519 17.5615C62.2519 18.3757 61.9547 19.0074 61.3605 19.4563C60.7664 19.9056 59.8707 20.1302 58.6737 20.1302C58.2718 20.1302 57.9091 20.107 57.5858 20.0609C57.2625 20.0144 56.9764 19.9579 56.7274 19.8908C56.4784 19.8237 56.2642 19.7524 56.0849 19.6769C55.9059 19.6012 55.7553 19.5301 55.6328 19.4627L56.2098 17.9017C56.4803 18.0446 56.8146 18.1724 57.2125 18.2854C57.6099 18.399 58.0972 18.4557 58.6737 18.4557Z" fill="white"/>
<path d="M71.2579 11.2266V12.9011H68.5185V19.9511H66.4739V12.9011H63.7344V11.2266H71.2579Z" fill="white"/>
<path d="M73.5312 19.9513H75.576V11.2266H73.5312V19.9513Z" fill="white"/>
<path d="M84.7274 19.9511C84.1424 18.9524 83.5087 17.9664 82.8271 16.9926C82.1455 16.0188 81.4203 15.0999 80.6515 14.2353V19.9511H78.6328V11.2266H80.2976C80.5854 11.5033 80.9044 11.8432 81.2539 12.2462C81.6034 12.6492 81.9595 13.0794 82.3221 13.5368C82.6847 13.9941 83.0451 14.4684 83.4034 14.9592C83.7616 15.4502 84.0981 15.9222 84.4127 16.3755V11.2266H86.4445V19.9511H84.7274Z" fill="white"/>
<path d="M93.933 12.7401C92.9811 12.7401 92.2922 12.9939 91.8685 13.5016C91.4449 14.0095 91.2334 14.7038 91.2334 15.5854C91.2334 16.0131 91.285 16.4016 91.3904 16.7498C91.495 17.0979 91.6527 17.3978 91.862 17.6498C92.072 17.9017 92.3336 18.0969 92.6482 18.2354C92.9629 18.3738 93.3299 18.443 93.7491 18.443C93.9766 18.443 94.1713 18.4388 94.3327 18.4305C94.494 18.4222 94.6364 18.4055 94.7585 18.3801V15.3462H96.8033V19.6644C96.5584 19.7568 96.1653 19.8553 95.6239 19.96C95.0818 20.0647 94.4133 20.1176 93.6183 20.1176C92.9367 20.1176 92.3183 20.0167 91.7639 19.8154C91.2087 19.6137 90.7349 19.3202 90.3418 18.934C89.9487 18.5481 89.6449 18.0737 89.4306 17.5114C89.2162 16.9495 89.1094 16.3073 89.1094 15.5854C89.1094 14.8551 89.2278 14.2088 89.464 13.6463C89.6994 13.0842 90.0221 12.6075 90.4334 12.2174C90.8439 11.8271 91.3264 11.5314 91.8816 11.33C92.4368 11.1284 93.0283 11.0273 93.6576 11.0273C94.0856 11.0273 94.4722 11.055 94.8173 11.1094C95.1625 11.1641 95.4597 11.227 95.709 11.2985C95.9582 11.3696 96.1631 11.443 96.3252 11.5187C96.4865 11.5942 96.602 11.6532 96.6725 11.6951L96.0825 13.2685C95.8027 13.1259 95.4815 13.0024 95.1189 12.8973C94.7563 12.7924 94.361 12.7401 93.933 12.7401Z" fill="white"/>
<path d="M99.6641 19.9511V11.2266H105.799V12.8758H101.709V14.5878H105.339V16.1995H101.709V18.302H106.1V19.9511H99.6641Z" fill="white"/>
<path d="M111.348 12.8034C111.199 12.8034 111.066 12.8076 110.948 12.8159C110.83 12.8246 110.719 12.833 110.614 12.8411V15.2079H111.191C111.959 15.2079 112.51 15.1159 112.842 14.9311C113.174 14.7468 113.339 14.4319 113.339 13.9868C113.339 13.5586 113.172 13.2548 112.835 13.0739C112.499 12.8937 112.003 12.8034 111.348 12.8034ZM111.231 11.1289C112.594 11.1289 113.638 11.3616 114.363 11.8276C115.089 12.2935 115.451 13.0173 115.451 13.9995C115.451 14.6119 115.305 15.1096 115.012 15.4914C114.719 15.8731 114.298 16.1734 113.747 16.3914C113.931 16.6098 114.123 16.8595 114.324 17.1406C114.525 17.4219 114.724 17.7157 114.921 18.0221C115.117 18.3284 115.307 18.6472 115.49 18.9785C115.673 19.3104 115.844 19.6355 116.001 19.9543H113.716C113.549 19.669 113.38 19.3795 113.209 19.0857C113.038 18.7921 112.863 18.5066 112.683 18.2294C112.504 17.9524 112.325 17.6904 112.151 17.4429C111.975 17.195 111.799 16.9706 111.624 16.7688H110.614V19.9543H108.57V11.3553C109.016 11.2719 109.476 11.2127 109.952 11.1794C110.429 11.1456 110.855 11.1289 111.231 11.1289Z" fill="white"/>
<path d="M7.00018 14.8322V5.00035L12.1515 7.64632V12.076L18.9707 12.0792L24.2056 14.8322H7.00018ZM20.3652 11.2654V5L25.6553 7.58013V14.2258L20.3652 11.2654ZM20.3651 23.2824V18.8909L13.4933 18.8862C13.4997 18.9155 8.1716 16.0893 8.1716 16.0893L25.6553 16.1683V26L20.3651 23.2824ZM7 23.2824L7.00018 16.8575L12.1515 19.7478V25.8623L7 23.2824Z" fill="white"/>
</g>
<defs>
<clipPath id="clip0_1549_1219">
<rect width="109" height="21" fill="white" transform="translate(7 5)"/>
</clipPath>
</defs>
</svg>
