<svg width="179" height="44" viewBox="0 0 179 44" fill="none" xmlns="http://www.w3.org/2000/svg">
<path d="M59.4609 42.744C59.4609 42.195 59.906 41.75 60.4549 41.75H129.026C129.575 41.75 130.02 42.195 130.02 42.744C130.02 43.2929 129.575 43.738 129.026 43.738H60.4549C59.906 43.738 59.4609 43.2929 59.4609 42.744Z" fill="#FFBB00"/>
<path d="M3.5777 35.4118V33.0056C3.1788 32.3882 2.80302 31.7795 2.45037 31.1794C2.09772 30.5793 1.76531 29.9907 1.45312 29.4137H2.4417C2.66138 29.8869 2.90708 30.3687 3.1788 30.8591C3.45051 31.3438 3.7309 31.8112 4.01995 32.2613C4.30323 31.8112 4.58073 31.3438 4.85244 30.8591C5.12415 30.3687 5.37274 29.8869 5.59821 29.4137H6.53475C6.22257 29.9907 5.89016 30.5793 5.53751 31.1794C5.18486 31.7737 4.81197 32.3767 4.41885 32.9883V35.4118H3.5777Z" fill="#27235C"/>
<path d="M10.8344 33.1614C10.8344 33.5192 10.7824 33.8423 10.6783 34.1308C10.5743 34.4193 10.4269 34.6675 10.2361 34.8752C10.0511 35.0829 9.82852 35.2445 9.56837 35.3599C9.30821 35.4695 9.02494 35.5243 8.71854 35.5243C8.41214 35.5243 8.12886 35.4695 7.86871 35.3599C7.60856 35.2445 7.38309 35.0829 7.19231 34.8752C7.00732 34.6675 6.86279 34.4193 6.75873 34.1308C6.65467 33.8423 6.60264 33.5192 6.60264 33.1614C6.60264 32.8095 6.65467 32.4892 6.75873 32.2007C6.86279 31.9064 7.00732 31.6554 7.19231 31.4477C7.38309 31.24 7.60856 31.0813 7.86871 30.9716C8.12886 30.8562 8.41214 30.7985 8.71854 30.7985C9.02494 30.7985 9.30821 30.8562 9.56837 30.9716C9.82852 31.0813 10.0511 31.24 10.2361 31.4477C10.4269 31.6554 10.5743 31.9064 10.6783 32.2007C10.7824 32.4892 10.8344 32.8095 10.8344 33.1614ZM9.99328 33.1614C9.99328 32.6537 9.87766 32.2526 9.64641 31.9584C9.42095 31.6583 9.11165 31.5083 8.71854 31.5083C8.32542 31.5083 8.01324 31.6583 7.78199 31.9584C7.55653 32.2526 7.44379 32.6537 7.44379 33.1614C7.44379 33.6692 7.55653 34.0731 7.78199 34.3732C8.01324 34.6675 8.32542 34.8146 8.71854 34.8146C9.11165 34.8146 9.42095 34.6675 9.64641 34.3732C9.87766 34.0731 9.99328 33.6692 9.99328 33.1614Z" fill="#27235C"/>
<path d="M15.5592 35.282C15.3742 35.3281 15.1285 35.3772 14.8221 35.4291C14.5215 35.481 14.1717 35.507 13.7728 35.507C13.4259 35.507 13.134 35.458 12.897 35.3599C12.6599 35.256 12.4691 35.1118 12.3246 34.9271C12.1801 34.7425 12.076 34.5261 12.0124 34.278C11.9488 34.0241 11.917 33.7442 11.917 33.4384V30.9111H12.7235V33.2653C12.7235 33.8135 12.8102 34.2058 12.9837 34.4424C13.1571 34.679 13.449 34.7973 13.8595 34.7973C13.9462 34.7973 14.0358 34.7944 14.1283 34.7886C14.2208 34.7829 14.3076 34.7771 14.3885 34.7713C14.4694 34.7598 14.5417 34.7511 14.6053 34.7453C14.6747 34.7338 14.7238 34.7223 14.7527 34.7107V30.9111H15.5592V35.282Z" fill="#27235C"/>
<path d="M18.6135 30.8159C18.6829 30.8159 18.7609 30.8216 18.8476 30.8332C18.9401 30.8389 19.0298 30.8505 19.1165 30.8678C19.2032 30.8793 19.2812 30.8938 19.3506 30.9111C19.4258 30.9226 19.4807 30.9341 19.5154 30.9457L19.3766 31.6468C19.313 31.6237 19.2061 31.5977 19.0558 31.5689C18.9112 31.5342 18.7234 31.5169 18.4921 31.5169C18.3418 31.5169 18.1915 31.5342 18.0412 31.5689C17.8966 31.5977 17.8013 31.6179 17.755 31.6295V35.4118H16.9485V31.1015C17.1393 31.0322 17.3763 30.9688 17.6596 30.9111C17.9429 30.8476 18.2609 30.8159 18.6135 30.8159Z" fill="#27235C"/>
<path d="M26.1335 29.4137H26.9747V35.4118H26.1335V32.6421H23.1938V35.4118H22.3526V29.4137H23.1938V31.9151H26.1335V29.4137Z" fill="#27235C"/>
<path d="M32.3952 33.1614C32.3952 33.5192 32.3431 33.8423 32.2391 34.1308C32.135 34.4193 31.9876 34.6675 31.7968 34.8752C31.6118 35.0829 31.3893 35.2445 31.1291 35.3599C30.869 35.4695 30.5857 35.5243 30.2793 35.5243C29.9729 35.5243 29.6896 35.4695 29.4295 35.3599C29.1693 35.2445 28.9438 35.0829 28.7531 34.8752C28.5681 34.6675 28.4235 34.4193 28.3195 34.1308C28.2154 33.8423 28.1634 33.5192 28.1634 33.1614C28.1634 32.8095 28.2154 32.4892 28.3195 32.2007C28.4235 31.9064 28.5681 31.6554 28.7531 31.4477C28.9438 31.24 29.1693 31.0813 29.4295 30.9716C29.6896 30.8562 29.9729 30.7985 30.2793 30.7985C30.5857 30.7985 30.869 30.8562 31.1291 30.9716C31.3893 31.0813 31.6118 31.24 31.7968 31.4477C31.9876 31.6554 32.135 31.9064 32.2391 32.2007C32.3431 32.4892 32.3952 32.8095 32.3952 33.1614ZM31.554 33.1614C31.554 32.6537 31.4384 32.2526 31.2072 31.9584C30.9817 31.6583 30.6724 31.5083 30.2793 31.5083C29.8862 31.5083 29.574 31.6583 29.3427 31.9584C29.1173 32.2526 29.0045 32.6537 29.0045 33.1614C29.0045 33.6692 29.1173 34.0731 29.3427 34.3732C29.574 34.6675 29.8862 34.8146 30.2793 34.8146C30.6724 34.8146 30.9817 34.6675 31.2072 34.3732C31.4384 34.0731 31.554 33.6692 31.554 33.1614Z" fill="#27235C"/>
<path d="M34.5791 34.8319C34.9086 34.8319 35.1514 34.7886 35.3075 34.7021C35.4694 34.6155 35.5503 34.477 35.5503 34.2866C35.5503 34.0904 35.4723 33.9346 35.3162 33.8192C35.1601 33.7038 34.9028 33.574 34.5444 33.4297C34.371 33.3605 34.2033 33.2913 34.0415 33.222C33.8854 33.147 33.7495 33.0605 33.6339 32.9624C33.5183 32.8643 33.4258 32.746 33.3564 32.6075C33.287 32.469 33.2523 32.2988 33.2523 32.0968C33.2523 31.6987 33.3997 31.3842 33.6946 31.1534C33.9894 30.9168 34.3912 30.7985 34.9 30.7985C35.0271 30.7985 35.1543 30.8072 35.2815 30.8245C35.4087 30.8361 35.5272 30.8534 35.637 30.8764C35.7469 30.8938 35.8423 30.9139 35.9232 30.937C36.0099 30.9601 36.0764 30.9803 36.1227 30.9976L35.9752 31.69C35.8885 31.6439 35.7527 31.5977 35.5677 31.5516C35.3827 31.4996 35.1601 31.4737 34.9 31.4737C34.6745 31.4737 34.4779 31.5198 34.3103 31.6121C34.1426 31.6987 34.0588 31.8372 34.0588 32.0276C34.0588 32.1257 34.0761 32.2122 34.1108 32.2873C34.1513 32.3623 34.2091 32.4315 34.2843 32.495C34.3652 32.5527 34.4635 32.6075 34.5791 32.6594C34.6947 32.7114 34.8335 32.7662 34.9953 32.8239C35.2092 32.9047 35.4 32.9854 35.5677 33.0662C35.7353 33.1412 35.877 33.2307 35.9926 33.3345C36.114 33.4384 36.2065 33.5653 36.2701 33.7154C36.3337 33.8596 36.3655 34.0385 36.3655 34.252C36.3655 34.6675 36.2094 34.9819 35.8972 35.1954C35.5908 35.4089 35.1514 35.5157 34.5791 35.5157C34.1802 35.5157 33.868 35.481 33.6426 35.4118C33.4171 35.3483 33.2639 35.2993 33.183 35.2647L33.3304 34.5722C33.4229 34.6069 33.5703 34.6588 33.7726 34.728C33.975 34.7973 34.2438 34.8319 34.5791 34.8319Z" fill="#27235C"/>
<path d="M38.1544 30.9111H39.8627V31.5862H38.1544V33.6634C38.1544 33.8885 38.1717 34.076 38.2064 34.226C38.2411 34.3703 38.2931 34.4857 38.3625 34.5722C38.4318 34.653 38.5186 34.7107 38.6226 34.7453C38.7267 34.78 38.8481 34.7973 38.9868 34.7973C39.2296 34.7973 39.4233 34.7713 39.5678 34.7194C39.7182 34.6617 39.8222 34.6213 39.88 34.5982L40.0361 35.2647C39.9552 35.3051 39.8135 35.3541 39.6112 35.4118C39.4089 35.4753 39.1776 35.507 38.9175 35.507C38.6111 35.507 38.3567 35.4695 38.1544 35.3945C37.9578 35.3137 37.7988 35.1954 37.6774 35.0396C37.556 34.8838 37.4693 34.6934 37.4173 34.4684C37.371 34.2376 37.3479 33.9721 37.3479 33.6721V29.656L38.1544 29.5176V30.9111Z" fill="#27235C"/>
<path d="M41.6954 35.4118H40.8889V30.9111H41.6954V35.4118ZM41.2878 30.0975C41.1433 30.0975 41.019 30.0513 40.9149 29.959C40.8167 29.8609 40.7675 29.7311 40.7675 29.5695C40.7675 29.4079 40.8167 29.281 40.9149 29.1887C41.019 29.0906 41.1433 29.0415 41.2878 29.0415C41.4324 29.0415 41.5538 29.0906 41.652 29.1887C41.7561 29.281 41.8081 29.4079 41.8081 29.5695C41.8081 29.7311 41.7561 29.8609 41.652 29.959C41.5538 30.0513 41.4324 30.0975 41.2878 30.0975Z" fill="#27235C"/>
<path d="M43.0823 31.0409C43.2673 30.9947 43.513 30.9457 43.8194 30.8938C44.1258 30.8418 44.4784 30.8159 44.8773 30.8159C45.2357 30.8159 45.5335 30.8678 45.7705 30.9716C46.0075 31.0697 46.1954 31.2111 46.3342 31.3958C46.4787 31.5746 46.5799 31.791 46.6377 32.0449C46.6955 32.2988 46.7244 32.5786 46.7244 32.8845V35.4118H45.9179V33.0576C45.9179 32.7806 45.8977 32.544 45.8572 32.3478C45.8225 32.1517 45.7618 31.993 45.6751 31.8718C45.5884 31.7506 45.4728 31.6641 45.3282 31.6121C45.1837 31.5544 45.0045 31.5256 44.7906 31.5256C44.7039 31.5256 44.6143 31.5285 44.5218 31.5342C44.4293 31.54 44.3397 31.5487 44.2529 31.5602C44.172 31.566 44.0969 31.5746 44.0275 31.5862C43.9639 31.5977 43.9176 31.6064 43.8887 31.6121V35.4118H43.0823V31.0409Z" fill="#27235C"/>
<path d="M50.8887 34.9617C50.8193 35.0079 50.6835 35.0685 50.4811 35.1435C50.2846 35.2127 50.0533 35.2474 49.7874 35.2474C49.5157 35.2474 49.2584 35.2041 49.0156 35.1175C48.7786 35.031 48.5705 34.8983 48.3913 34.7194C48.212 34.5347 48.0704 34.3068 47.9663 34.0356C47.8623 33.7644 47.8102 33.4413 47.8102 33.0662C47.8102 32.7373 47.8594 32.4373 47.9577 32.1661C48.0559 31.8891 48.1976 31.6525 48.3826 31.4563C48.5734 31.2544 48.8046 31.0986 49.0763 30.989C49.348 30.8736 49.6544 30.8159 49.9955 30.8159C50.3713 30.8159 50.6979 30.8447 50.9754 30.9024C51.2587 30.9543 51.4957 31.0034 51.6865 31.0495V35.0656C51.6865 35.758 51.5073 36.26 51.1489 36.5716C50.7904 36.8832 50.247 37.039 49.5186 37.039C49.2353 37.039 48.9665 37.0159 48.7121 36.9698C48.4635 36.9236 48.2467 36.8688 48.0617 36.8053L48.2091 36.1042C48.371 36.1677 48.5676 36.2225 48.7988 36.2687C49.0359 36.3206 49.2815 36.3466 49.5359 36.3466C50.0158 36.3466 50.3597 36.2514 50.5679 36.061C50.7818 35.8705 50.8887 35.5676 50.8887 35.1521V34.9617ZM50.88 31.6208C50.7991 31.5977 50.6893 31.5775 50.5505 31.5602C50.4175 31.5371 50.2354 31.5256 50.0042 31.5256C49.5706 31.5256 49.2353 31.667 48.9983 31.9497C48.767 32.2324 48.6514 32.6075 48.6514 33.0749C48.6514 33.3345 48.6832 33.5567 48.7468 33.7413C48.8162 33.926 48.9058 34.0789 49.0156 34.2001C49.1312 34.3212 49.2613 34.4107 49.4058 34.4684C49.5562 34.5261 49.7094 34.5549 49.8654 34.5549C50.0793 34.5549 50.2759 34.5261 50.4551 34.4684C50.6343 34.4049 50.776 34.3328 50.88 34.252V31.6208Z" fill="#27235C"/>
<path d="M53.9249 34.4251C53.9307 34.4713 53.9336 34.5174 53.9336 34.5636C53.9336 34.604 53.9336 34.6473 53.9336 34.6934C53.9336 35.0569 53.8786 35.4147 53.7688 35.7667C53.6647 36.1244 53.5202 36.4649 53.3352 36.788L52.7109 36.5889C52.8554 36.2946 52.9508 35.9946 52.997 35.6888C53.0433 35.3887 53.0664 35.106 53.0664 34.8406C53.0664 34.7655 53.0635 34.6934 53.0577 34.6242C53.0577 34.5549 53.0548 34.4886 53.049 34.4251H53.9249Z" fill="#27235C"/>
<path d="M57.0254 32.4084C57.0254 31.8949 57.1005 31.4419 57.2508 31.0495C57.4069 30.6572 57.615 30.3312 57.8752 30.0715C58.1411 29.8061 58.4475 29.607 58.7944 29.4743C59.1471 29.3416 59.5199 29.2752 59.9131 29.2752C60.3004 29.2752 60.6646 29.3416 61.0057 29.4743C61.3526 29.607 61.6561 29.8061 61.9162 30.0715C62.1764 30.3312 62.3816 30.6572 62.5319 31.0495C62.688 31.4419 62.7661 31.8949 62.7661 32.4084C62.7661 32.922 62.688 33.3749 62.5319 33.7673C62.3816 34.1597 62.1764 34.4886 61.9162 34.754C61.6561 35.0137 61.3526 35.2098 61.0057 35.3426C60.6646 35.4753 60.3004 35.5416 59.9131 35.5416C59.5199 35.5416 59.1471 35.4753 58.7944 35.3426C58.4475 35.2098 58.1411 35.0137 57.8752 34.754C57.615 34.4886 57.4069 34.1597 57.2508 33.7673C57.1005 33.3749 57.0254 32.922 57.0254 32.4084ZM57.9099 32.4084C57.9099 32.7719 57.9561 33.1037 58.0486 33.4038C58.1411 33.6981 58.2712 33.9491 58.4389 34.1568C58.6123 34.3645 58.8204 34.5261 59.0632 34.6415C59.3118 34.7511 59.5893 34.8059 59.8957 34.8059C60.2021 34.8059 60.4767 34.7511 60.7195 34.6415C60.9623 34.5261 61.1676 34.3645 61.3352 34.1568C61.5087 33.9491 61.6416 33.6981 61.7341 33.4038C61.8266 33.1037 61.8729 32.7719 61.8729 32.4084C61.8729 32.0449 61.8266 31.716 61.7341 31.4217C61.6416 31.1217 61.5087 30.8678 61.3352 30.6601C61.1676 30.4523 60.9623 30.2937 60.7195 30.184C60.4767 30.0686 60.2021 30.0109 59.8957 30.0109C59.5893 30.0109 59.3118 30.0686 59.0632 30.184C58.8204 30.2937 58.6123 30.4523 58.4389 30.6601C58.2712 30.8678 58.1411 31.1217 58.0486 31.4217C57.9561 31.716 57.9099 32.0449 57.9099 32.4084Z" fill="#27235C"/>
<path d="M67.5556 35.282C67.3706 35.3281 67.1249 35.3772 66.8185 35.4291C66.5179 35.481 66.1681 35.507 65.7692 35.507C65.4224 35.507 65.1304 35.458 64.8934 35.3599C64.6564 35.256 64.4656 35.1118 64.3211 34.9271C64.1765 34.7425 64.0725 34.5261 64.0089 34.278C63.9453 34.0241 63.9135 33.7442 63.9135 33.4384V30.9111H64.72V33.2653C64.72 33.8135 64.8067 34.2058 64.9801 34.4424C65.1536 34.679 65.4455 34.7973 65.856 34.7973C65.9427 34.7973 66.0323 34.7944 66.1248 34.7886C66.2173 34.7829 66.304 34.7771 66.3849 34.7713C66.4659 34.7598 66.5381 34.7511 66.6017 34.7453C66.6711 34.7338 66.7202 34.7223 66.7492 34.7107V30.9111H67.5556V35.282Z" fill="#27235C"/>
<path d="M70.61 30.8159C70.6793 30.8159 70.7574 30.8216 70.8441 30.8332C70.9366 30.8389 71.0262 30.8505 71.1129 30.8678C71.1996 30.8793 71.2777 30.8938 71.3471 30.9111C71.4222 30.9226 71.4771 30.9341 71.5118 30.9457L71.3731 31.6468C71.3095 31.6237 71.2025 31.5977 71.0522 31.5689C70.9077 31.5342 70.7198 31.5169 70.4886 31.5169C70.3382 31.5169 70.1879 31.5342 70.0376 31.5689C69.8931 31.5977 69.7977 31.6179 69.7515 31.6295V35.4118H68.945V31.1015C69.1358 31.0322 69.3728 30.9688 69.6561 30.9111C69.9393 30.8476 70.2573 30.8159 70.61 30.8159Z" fill="#27235C"/>
<path d="M77.2888 32.9018C77.3813 33.0172 77.4969 33.1701 77.6357 33.3605C77.7802 33.5452 77.9276 33.7529 78.0779 33.9837C78.2282 34.2087 78.3757 34.4453 78.5202 34.6934C78.6705 34.9415 78.7977 35.181 78.9018 35.4118H77.9826C77.8669 35.1925 77.7397 34.9704 77.601 34.7453C77.468 34.5203 77.3322 34.3068 77.1934 34.1049C77.0547 33.8971 76.9159 33.7038 76.7772 33.525C76.6442 33.3461 76.5228 33.1903 76.413 33.0576C76.3378 33.0633 76.2598 33.0662 76.1788 33.0662C76.1037 33.0662 76.0256 33.0662 75.9447 33.0662H75.1902V35.4118H74.3491V29.5003C74.5861 29.4426 74.8492 29.405 75.1382 29.3877C75.4331 29.3647 75.7019 29.3531 75.9447 29.3531C76.7887 29.3531 77.4305 29.5118 77.8698 29.8292C78.315 30.1465 78.5375 30.6197 78.5375 31.2486C78.5375 31.6468 78.4306 31.9872 78.2167 32.2699C78.0086 32.5527 77.6993 32.7633 77.2888 32.9018ZM76.0141 30.0888C75.6556 30.0888 75.381 30.0975 75.1902 30.1148V32.3738H75.7886C76.0777 32.3738 76.3378 32.3594 76.5691 32.3305C76.8003 32.3017 76.994 32.2469 77.1501 32.1661C77.3119 32.0853 77.4362 31.9728 77.5229 31.8285C77.6097 31.6785 77.653 31.4823 77.653 31.24C77.653 31.0149 77.6097 30.8274 77.5229 30.6774C77.4362 30.5273 77.3177 30.4091 77.1674 30.3225C77.0229 30.236 76.8494 30.1754 76.6471 30.1407C76.4505 30.1061 76.2395 30.0888 76.0141 30.0888Z" fill="#27235C"/>
<path d="M79.4993 33.1701C79.4993 32.7719 79.5571 32.4257 79.6727 32.1315C79.7883 31.8314 79.9416 31.5833 80.1323 31.3871C80.3231 31.1909 80.5428 31.0438 80.7914 30.9457C81.04 30.8476 81.2943 30.7985 81.5545 30.7985C82.1615 30.7985 82.6269 30.989 82.9506 31.3698C83.2744 31.7449 83.4363 32.319 83.4363 33.0922C83.4363 33.1268 83.4363 33.173 83.4363 33.2307C83.4363 33.2826 83.4334 33.3317 83.4276 33.3778H80.3405C80.3751 33.8452 80.511 34.2001 80.748 34.4424C80.985 34.6848 81.355 34.8059 81.858 34.8059C82.1413 34.8059 82.3783 34.7829 82.5691 34.7367C82.7656 34.6848 82.9131 34.6357 83.0113 34.5896L83.1241 35.2647C83.0258 35.3166 82.8524 35.3714 82.6038 35.4291C82.361 35.4868 82.0835 35.5157 81.7713 35.5157C81.3782 35.5157 81.0371 35.458 80.748 35.3426C80.4647 35.2214 80.2306 35.0569 80.0456 34.8492C79.8606 34.6415 79.7219 34.3963 79.6294 34.1135C79.5426 33.825 79.4993 33.5105 79.4993 33.1701ZM82.5951 32.7287C82.6009 32.3651 82.5084 32.068 82.3176 31.8372C82.1326 31.6006 81.8753 31.4823 81.5458 31.4823C81.3608 31.4823 81.1961 31.5198 81.0515 31.5948C80.9128 31.6641 80.7943 31.7564 80.696 31.8718C80.5977 31.9872 80.5197 32.1199 80.4618 32.2699C80.4098 32.42 80.3751 32.5729 80.3578 32.7287H82.5951Z" fill="#27235C"/>
<path d="M85.644 34.8319C85.9735 34.8319 86.2163 34.7886 86.3724 34.7021C86.5343 34.6155 86.6152 34.477 86.6152 34.2866C86.6152 34.0904 86.5372 33.9346 86.3811 33.8192C86.225 33.7038 85.9678 33.574 85.6093 33.4297C85.4359 33.3605 85.2682 33.2913 85.1064 33.222C84.9503 33.147 84.8144 33.0605 84.6988 32.9624C84.5832 32.8643 84.4907 32.746 84.4213 32.6075C84.3519 32.469 84.3172 32.2988 84.3172 32.0968C84.3172 31.6987 84.4647 31.3842 84.7595 31.1534C85.0543 30.9168 85.4561 30.7985 85.9649 30.7985C86.0921 30.7985 86.2192 30.8072 86.3464 30.8245C86.4736 30.8361 86.5921 30.8534 86.702 30.8764C86.8118 30.8938 86.9072 30.9139 86.9881 30.937C87.0749 30.9601 87.1413 30.9803 87.1876 30.9976L87.0402 31.69C86.9534 31.6439 86.8176 31.5977 86.6326 31.5516C86.4476 31.4996 86.225 31.4737 85.9649 31.4737C85.7394 31.4737 85.5428 31.5198 85.3752 31.6121C85.2075 31.6987 85.1237 31.8372 85.1237 32.0276C85.1237 32.1257 85.1411 32.2122 85.1757 32.2873C85.2162 32.3623 85.274 32.4315 85.3492 32.495C85.4301 32.5527 85.5284 32.6075 85.644 32.6594C85.7596 32.7114 85.8984 32.7662 86.0603 32.8239C86.2742 32.9047 86.4649 32.9854 86.6326 33.0662C86.8002 33.1412 86.9419 33.2307 87.0575 33.3345C87.1789 33.4384 87.2714 33.5653 87.335 33.7154C87.3986 33.8596 87.4304 34.0385 87.4304 34.252C87.4304 34.6675 87.2743 34.9819 86.9621 35.1954C86.6557 35.4089 86.2164 35.5157 85.644 35.5157C85.2451 35.5157 84.9329 35.481 84.7075 35.4118C84.482 35.3483 84.3288 35.2993 84.2479 35.2647L84.3953 34.5722C84.4878 34.6069 84.6352 34.6588 84.8375 34.728C85.0399 34.7973 85.3087 34.8319 85.644 34.8319Z" fill="#27235C"/>
<path d="M91.5953 33.1701C91.5953 32.645 91.4652 32.2411 91.2051 31.9584C90.9449 31.6756 90.5981 31.5342 90.1645 31.5342C89.9217 31.5342 89.7309 31.5429 89.5922 31.5602C89.4592 31.5775 89.3522 31.5977 89.2713 31.6208V34.4597C89.3696 34.5405 89.5112 34.6184 89.6962 34.6934C89.8812 34.7684 90.0836 34.8059 90.3032 34.8059C90.5345 34.8059 90.731 34.7655 90.8929 34.6848C91.0606 34.5982 91.1964 34.4828 91.3005 34.3386C91.4045 34.1885 91.4797 34.0154 91.526 33.8192C91.5722 33.6173 91.5953 33.4009 91.5953 33.1701ZM92.4365 33.1701C92.4365 33.5105 92.3902 33.825 92.2977 34.1135C92.211 34.402 92.0809 34.6501 91.9075 34.8579C91.7341 35.0656 91.5202 35.2272 91.2658 35.3426C91.0172 35.458 90.731 35.5157 90.4073 35.5157C90.1471 35.5157 89.9159 35.481 89.7136 35.4118C89.517 35.3426 89.3696 35.2762 89.2713 35.2127V37.013H88.4648V31.0495C88.6556 31.0034 88.8926 30.9543 89.1759 30.9024C89.465 30.8447 89.7974 30.8159 90.1732 30.8159C90.52 30.8159 90.8322 30.8707 91.1097 30.9803C91.3872 31.0899 91.6242 31.2457 91.8208 31.4477C92.0173 31.6496 92.1677 31.8978 92.2717 32.192C92.3816 32.4806 92.4365 32.8066 92.4365 33.1701Z" fill="#27235C"/>
<path d="M97.5516 33.1614C97.5516 33.5192 97.4996 33.8423 97.3956 34.1308C97.2915 34.4193 97.1441 34.6675 96.9533 34.8752C96.7683 35.0829 96.5457 35.2445 96.2856 35.3599C96.0254 35.4695 95.7421 35.5243 95.4357 35.5243C95.1293 35.5243 94.8461 35.4695 94.5859 35.3599C94.3258 35.2445 94.1003 35.0829 93.9095 34.8752C93.7245 34.6675 93.58 34.4193 93.4759 34.1308C93.3719 33.8423 93.3198 33.5192 93.3198 33.1614C93.3198 32.8095 93.3719 32.4892 93.4759 32.2007C93.58 31.9064 93.7245 31.6554 93.9095 31.4477C94.1003 31.24 94.3258 31.0813 94.5859 30.9716C94.8461 30.8562 95.1293 30.7985 95.4357 30.7985C95.7421 30.7985 96.0254 30.8562 96.2856 30.9716C96.5457 31.0813 96.7683 31.24 96.9533 31.4477C97.1441 31.6554 97.2915 31.9064 97.3956 32.2007C97.4996 32.4892 97.5516 32.8095 97.5516 33.1614ZM96.7105 33.1614C96.7105 32.6537 96.5949 32.2526 96.3636 31.9584C96.1382 31.6583 95.8289 31.5083 95.4357 31.5083C95.0426 31.5083 94.7304 31.6583 94.4992 31.9584C94.2737 32.2526 94.161 32.6537 94.161 33.1614C94.161 33.6692 94.2737 34.0731 94.4992 34.3732C94.7304 34.6675 95.0426 34.8146 95.4357 34.8146C95.8289 34.8146 96.1382 34.6675 96.3636 34.3732C96.5949 34.0731 96.7105 33.6692 96.7105 33.1614Z" fill="#27235C"/>
<path d="M98.6863 31.0409C98.8713 30.9947 99.117 30.9457 99.4234 30.8938C99.7298 30.8418 100.082 30.8159 100.481 30.8159C100.84 30.8159 101.137 30.8678 101.375 30.9716C101.612 31.0697 101.799 31.2111 101.938 31.3958C102.083 31.5746 102.184 31.791 102.242 32.0449C102.3 32.2988 102.328 32.5786 102.328 32.8845V35.4118H101.522V33.0576C101.522 32.7806 101.502 32.544 101.461 32.3478C101.427 32.1517 101.366 31.993 101.279 31.8718C101.192 31.7506 101.077 31.6641 100.932 31.6121C100.788 31.5544 100.609 31.5256 100.395 31.5256C100.308 31.5256 100.218 31.5285 100.126 31.5342C100.033 31.54 99.9437 31.5487 99.857 31.5602C99.776 31.566 99.7009 31.5746 99.6315 31.5862C99.5679 31.5977 99.5217 31.6064 99.4928 31.6121V35.4118H98.6863V31.0409Z" fill="#27235C"/>
<path d="M104.715 34.8319C105.045 34.8319 105.287 34.7886 105.443 34.7021C105.605 34.6155 105.686 34.477 105.686 34.2866C105.686 34.0904 105.608 33.9346 105.452 33.8192C105.296 33.7038 105.039 33.574 104.68 33.4297C104.507 33.3605 104.339 33.2913 104.177 33.222C104.021 33.147 103.885 33.0605 103.77 32.9624C103.654 32.8643 103.562 32.746 103.492 32.6075C103.423 32.469 103.388 32.2988 103.388 32.0968C103.388 31.6987 103.536 31.3842 103.831 31.1534C104.125 30.9168 104.527 30.7985 105.036 30.7985C105.163 30.7985 105.29 30.8072 105.417 30.8245C105.545 30.8361 105.663 30.8534 105.773 30.8764C105.883 30.8938 105.978 30.9139 106.059 30.937C106.146 30.9601 106.212 30.9803 106.259 30.9976L106.111 31.69C106.024 31.6439 105.889 31.5977 105.704 31.5516C105.519 31.4996 105.296 31.4737 105.036 31.4737C104.81 31.4737 104.614 31.5198 104.446 31.6121C104.279 31.6987 104.195 31.8372 104.195 32.0276C104.195 32.1257 104.212 32.2122 104.247 32.2873C104.287 32.3623 104.345 32.4315 104.42 32.495C104.501 32.5527 104.599 32.6075 104.715 32.6594C104.831 32.7114 104.969 32.7662 105.131 32.8239C105.345 32.9047 105.536 32.9854 105.704 33.0662C105.871 33.1412 106.013 33.2307 106.129 33.3345C106.25 33.4384 106.342 33.5653 106.406 33.7154C106.47 33.8596 106.501 34.0385 106.501 34.252C106.501 34.6675 106.345 34.9819 106.033 35.1954C105.727 35.4089 105.287 35.5157 104.715 35.5157C104.316 35.5157 104.004 35.481 103.778 35.4118C103.553 35.3483 103.4 35.2993 103.319 35.2647L103.466 34.5722C103.559 34.6069 103.706 34.6588 103.909 34.728C104.111 34.7973 104.38 34.8319 104.715 34.8319Z" fill="#27235C"/>
<path d="M108.342 35.4118H107.536V30.9111H108.342V35.4118ZM107.935 30.0975C107.79 30.0975 107.666 30.0513 107.562 29.959C107.464 29.8609 107.414 29.7311 107.414 29.5695C107.414 29.4079 107.464 29.281 107.562 29.1887C107.666 29.0906 107.79 29.0415 107.935 29.0415C108.079 29.0415 108.201 29.0906 108.299 29.1887C108.403 29.281 108.455 29.4079 108.455 29.5695C108.455 29.7311 108.403 29.8609 108.299 29.959C108.201 30.0513 108.079 30.0975 107.935 30.0975Z" fill="#27235C"/>
<path d="M110.536 31.1101C110.634 31.0467 110.781 30.9803 110.978 30.9111C111.18 30.8418 111.411 30.8072 111.672 30.8072C111.995 30.8072 112.282 30.8649 112.53 30.9803C112.785 31.0957 112.998 31.2573 113.172 31.465C113.345 31.6727 113.475 31.9208 113.562 32.2094C113.655 32.4979 113.701 32.8152 113.701 33.1614C113.701 33.525 113.646 33.8539 113.536 34.1481C113.432 34.4366 113.282 34.6819 113.085 34.8838C112.889 35.0858 112.652 35.2416 112.374 35.3512C112.097 35.4609 111.784 35.5157 111.438 35.5157C111.062 35.5157 110.729 35.4897 110.44 35.4378C110.151 35.3858 109.914 35.3339 109.729 35.282V28.8338L110.536 28.6953V31.1101ZM110.536 34.7107C110.617 34.7338 110.729 34.7569 110.874 34.78C111.024 34.7973 111.209 34.8059 111.429 34.8059C111.862 34.8059 112.209 34.6646 112.469 34.3818C112.73 34.0933 112.86 33.6865 112.86 33.1614C112.86 32.9306 112.837 32.7142 112.79 32.5123C112.744 32.3103 112.669 32.1372 112.565 31.993C112.461 31.8429 112.325 31.7275 112.157 31.6468C111.995 31.5602 111.799 31.5169 111.568 31.5169C111.348 31.5169 111.146 31.5544 110.961 31.6295C110.776 31.7045 110.634 31.7824 110.536 31.8631V34.7107Z" fill="#27235C"/>
<path d="M115.642 35.4118H114.836V30.9111H115.642V35.4118ZM115.235 30.0975C115.09 30.0975 114.966 30.0513 114.862 29.959C114.763 29.8609 114.714 29.7311 114.714 29.5695C114.714 29.4079 114.763 29.281 114.862 29.1887C114.966 29.0906 115.09 29.0415 115.235 29.0415C115.379 29.0415 115.5 29.0906 115.599 29.1887C115.703 29.281 115.755 29.4079 115.755 29.5695C115.755 29.7311 115.703 29.8609 115.599 29.959C115.5 30.0513 115.379 30.0975 115.235 30.0975Z" fill="#27235C"/>
<path d="M118.382 35.4984C117.885 35.4868 117.532 35.3801 117.324 35.1781C117.116 34.9762 117.012 34.6617 117.012 34.2347V28.8338L117.818 28.6953V34.1049C117.818 34.2376 117.83 34.3472 117.853 34.4338C117.876 34.5203 117.914 34.5896 117.966 34.6415C118.018 34.6934 118.087 34.7338 118.174 34.7627C118.26 34.7857 118.367 34.8059 118.495 34.8232L118.382 35.4984Z" fill="#27235C"/>
<path d="M120.207 35.4118H119.4V30.9111H120.207V35.4118ZM119.799 30.0975C119.655 30.0975 119.53 30.0513 119.426 29.959C119.328 29.8609 119.279 29.7311 119.279 29.5695C119.279 29.4079 119.328 29.281 119.426 29.1887C119.53 29.0906 119.655 29.0415 119.799 29.0415C119.944 29.0415 120.065 29.0906 120.163 29.1887C120.267 29.281 120.319 29.4079 120.319 29.5695C120.319 29.7311 120.267 29.8609 120.163 29.959C120.065 30.0513 119.944 30.0975 119.799 30.0975Z" fill="#27235C"/>
<path d="M122.348 30.9111H124.056V31.5862H122.348V33.6634C122.348 33.8885 122.365 34.076 122.4 34.226C122.435 34.3703 122.487 34.4857 122.556 34.5722C122.625 34.653 122.712 34.7107 122.816 34.7453C122.92 34.78 123.042 34.7973 123.18 34.7973C123.423 34.7973 123.617 34.7713 123.761 34.7194C123.912 34.6617 124.016 34.6213 124.074 34.5982L124.23 35.2647C124.149 35.3051 124.007 35.3541 123.805 35.4118C123.602 35.4753 123.371 35.507 123.111 35.507C122.805 35.507 122.55 35.4695 122.348 35.3945C122.151 35.3137 121.992 35.1954 121.871 35.0396C121.75 34.8838 121.663 34.6934 121.611 34.4684C121.565 34.2376 121.541 33.9721 121.541 33.6721V29.656L122.348 29.5176V30.9111Z" fill="#27235C"/>
<path d="M124.554 36.2514C124.617 36.2802 124.698 36.3062 124.796 36.3293C124.9 36.3581 125.002 36.3725 125.1 36.3725C125.418 36.3725 125.666 36.3004 125.846 36.1562C126.025 36.0177 126.187 35.7898 126.331 35.4724C125.967 34.78 125.626 34.0472 125.308 33.274C124.996 32.495 124.736 31.7073 124.528 30.9111H125.395C125.458 31.1707 125.533 31.4506 125.62 31.7506C125.713 32.0507 125.814 32.3594 125.924 32.6767C126.034 32.9941 126.152 33.3115 126.279 33.6288C126.406 33.9462 126.539 34.252 126.678 34.5463C126.898 33.9404 127.089 33.3403 127.25 32.746C127.412 32.1517 127.566 31.54 127.71 30.9111H128.543C128.334 31.7593 128.103 32.5758 127.849 33.3605C127.594 34.1395 127.32 34.8694 127.025 35.5503C126.909 35.8099 126.788 36.0321 126.661 36.2167C126.539 36.4072 126.404 36.563 126.253 36.6841C126.103 36.8053 125.932 36.8947 125.742 36.9524C125.557 37.0101 125.346 37.039 125.109 37.039C125.045 37.039 124.978 37.0332 124.909 37.0217C124.84 37.0159 124.77 37.0044 124.701 36.9871C124.637 36.9755 124.577 36.9611 124.519 36.9438C124.467 36.9265 124.429 36.9121 124.406 36.9005L124.554 36.2514Z" fill="#27235C"/>
<path d="M130.11 34.9444C130.11 35.1002 130.058 35.2358 129.954 35.3512C129.85 35.4666 129.709 35.5243 129.529 35.5243C129.35 35.5243 129.209 35.4666 129.105 35.3512C129 35.2358 128.948 35.1002 128.948 34.9444C128.948 34.7886 129 34.653 129.105 34.5376C129.209 34.4222 129.35 34.3645 129.529 34.3645C129.709 34.3645 129.85 34.4222 129.954 34.5376C130.058 34.653 130.11 34.7886 130.11 34.9444Z" fill="#27235C"/>
<path d="M123.11 22.825C122.118 22.825 121.228 22.6328 120.439 22.2483C119.67 21.8435 119.013 21.2971 118.466 20.609C117.94 19.9209 117.536 19.1317 117.252 18.2412C116.989 17.3305 116.858 16.3591 116.858 15.327C116.878 14.2949 117.03 13.3336 117.313 12.4431C117.596 11.5324 118.001 10.7432 118.527 10.0753C119.073 9.38726 119.731 8.85096 120.5 8.46645C121.269 8.08193 122.139 7.88968 123.11 7.88968C124.041 7.88968 124.911 8.08193 125.72 8.46645C126.55 8.85096 127.278 9.38726 127.905 10.0753C128.553 10.7432 129.059 11.5324 129.423 12.4431C129.787 13.3336 129.969 14.2848 129.969 15.2966C129.969 16.349 129.787 17.3406 129.423 18.2716C129.059 19.1823 128.563 19.9816 127.936 20.6697C127.308 21.3376 126.58 21.8637 125.75 22.2483C124.921 22.6328 124.041 22.825 123.11 22.825ZM122.624 19.2733C123.332 19.2733 123.97 19.1114 124.536 18.7876C125.103 18.4436 125.548 17.9781 125.872 17.3912C126.216 16.8043 126.388 16.1365 126.388 15.3877C126.388 14.6187 126.216 13.9407 125.872 13.3538C125.548 12.7467 125.103 12.2812 124.536 11.9574C123.97 11.6134 123.332 11.4414 122.624 11.4414C121.936 11.4414 121.309 11.6134 120.743 11.9574C120.176 12.3015 119.721 12.7669 119.377 13.3538C119.053 13.9407 118.891 14.6187 118.891 15.3877C118.891 16.1365 119.053 16.8043 119.377 17.3912C119.721 17.9781 120.176 18.4436 120.743 18.7876C121.309 19.1114 121.936 19.2733 122.624 19.2733ZM117.009 22.8554C116.463 22.8554 116.058 22.7643 115.795 22.5822C115.532 22.4203 115.371 22.2078 115.31 21.9447C115.249 21.6614 115.219 21.3477 115.219 21.0036V2.91123C115.219 2.56719 115.249 2.26362 115.31 2.00053C115.371 1.71721 115.532 1.49459 115.795 1.33269C116.058 1.17079 116.463 1.08984 117.009 1.08984C117.576 1.08984 117.981 1.17079 118.223 1.33269C118.466 1.49459 118.618 1.71721 118.679 2.00053C118.739 2.28386 118.77 2.58743 118.77 2.91123V21.6108C118.689 22.056 118.517 22.3697 118.254 22.5518C118.011 22.7542 117.596 22.8554 117.009 22.8554Z" fill="#27235C" stroke="#27235C" stroke-width="0.2"/>
<path d="M106.18 23.031C104.865 23.031 103.712 22.8185 102.72 22.3935C101.749 21.9685 100.93 21.3917 100.262 20.6632C99.6144 19.9144 99.1186 19.0847 98.7747 18.174C98.4509 17.243 98.2891 16.2817 98.2891 15.2901C98.2891 13.833 98.6229 12.5378 99.2906 11.4045C99.9583 10.2712 100.879 9.38073 102.053 8.73312C103.246 8.08552 104.612 7.76172 106.15 7.76172C107.242 7.76172 108.204 7.93374 109.033 8.27778C109.863 8.62182 110.551 9.07716 111.097 9.64381C111.664 10.1902 112.088 10.7974 112.372 11.4652C112.675 12.133 112.827 12.7806 112.827 13.408C112.827 14.4806 112.564 15.2597 112.038 15.7455C111.532 16.2312 110.895 16.474 110.126 16.474H102.113C102.133 17.1621 102.346 17.7591 102.751 18.265C103.175 18.771 103.702 19.1656 104.329 19.4489C104.976 19.712 105.634 19.8436 106.302 19.8436C106.807 19.8436 107.253 19.8132 107.637 19.7525C108.042 19.6918 108.386 19.621 108.669 19.54C108.952 19.4388 109.195 19.3376 109.397 19.2364C109.62 19.1352 109.822 19.0442 110.004 18.9632C110.186 18.8823 110.358 18.8317 110.52 18.8114C110.743 18.7912 110.965 18.8418 111.188 18.9632C111.411 19.0847 111.593 19.2972 111.734 19.6007C111.856 19.8031 111.937 19.9953 111.977 20.1775C112.038 20.3394 112.068 20.5013 112.068 20.6632C112.068 21.0679 111.825 21.4525 111.34 21.8167C110.854 22.1608 110.166 22.4441 109.276 22.6667C108.406 22.9096 107.374 23.031 106.18 23.031ZM102.113 14.3187H108.335C108.679 14.3187 108.942 14.2681 109.124 14.1669C109.306 14.0455 109.397 13.8026 109.397 13.4384C109.397 12.9729 109.256 12.558 108.972 12.1938C108.689 11.8092 108.305 11.5158 107.819 11.3134C107.334 11.0908 106.767 10.9795 106.119 10.9795C105.371 10.9795 104.693 11.1313 104.086 11.4348C103.479 11.7182 102.993 12.1128 102.629 12.6187C102.285 13.1247 102.113 13.6913 102.113 14.3187Z" fill="#27235C" stroke="#27235C" stroke-width="0.2"/>
<path d="M79.0291 22.7655C78.6244 22.7655 78.3007 22.6947 78.0579 22.553C77.8151 22.3911 77.633 22.209 77.5116 22.0066C77.4104 21.8042 77.3396 21.6322 77.2991 21.4906L71.3504 4.06598C71.1481 3.41838 71.1177 2.93268 71.2594 2.60888C71.401 2.26484 71.8158 1.98151 72.5037 1.7589C72.9691 1.597 73.3434 1.52617 73.6267 1.5464C73.91 1.56664 74.1427 1.68807 74.3248 1.91068C74.5271 2.11306 74.6991 2.43686 74.8407 2.88209L79.2112 16.1175L83.1264 3.00351C83.1871 2.80113 83.268 2.59876 83.3692 2.39638C83.4906 2.17377 83.6727 1.99163 83.9155 1.84997C84.1583 1.70831 84.4922 1.63747 84.9171 1.63747C85.4027 1.63747 85.7669 1.71842 86.0097 1.88032C86.2525 2.04223 86.4245 2.22436 86.5257 2.42674C86.6471 2.60888 86.728 2.7809 86.7685 2.9428L90.6837 16.2085L95.0845 2.91244C95.2261 2.44698 95.388 2.10294 95.5701 1.88032C95.7724 1.65771 96.0254 1.53629 96.3289 1.51605C96.6324 1.47557 97.0067 1.53629 97.4518 1.69819C97.9172 1.86009 98.2511 2.04223 98.4534 2.2446C98.6557 2.42674 98.7569 2.66959 98.7569 2.97316C98.7569 3.25648 98.6861 3.62076 98.5444 4.06598L92.6261 21.5209C92.5856 21.6423 92.5047 21.8042 92.3833 22.0066C92.2821 22.209 92.1101 22.3911 91.8673 22.553C91.6245 22.6947 91.2907 22.7655 90.8658 22.7655C90.4409 22.7655 90.107 22.6745 89.8642 22.4923C89.6214 22.3102 89.4393 22.1078 89.3179 21.8852C89.1965 21.6626 89.1156 21.5007 89.0751 21.3995L84.9474 8.04267L80.8198 21.3691C80.7793 21.5108 80.6984 21.6929 80.577 21.9155C80.4758 22.1382 80.3038 22.3405 80.061 22.5227C79.8182 22.6846 79.4742 22.7655 79.0291 22.7655Z" fill="#27235C" stroke="#27235C" stroke-width="0.2"/>
<path d="M63.2381 23.0379C62.712 23.0379 62.1556 22.9772 61.5688 22.8558C60.982 22.7546 60.4155 22.6028 59.8692 22.4004C59.3229 22.1778 58.8474 21.9248 58.4427 21.6415C58.0583 21.3379 57.8155 21.004 57.7143 20.6398C57.6334 20.4374 57.603 20.2451 57.6233 20.063C57.6435 19.8606 57.7042 19.6582 57.8054 19.4559C57.9065 19.2332 58.0583 19.0106 58.2606 18.788C58.4427 18.5654 58.6248 18.444 58.8069 18.4237C59.0093 18.3833 59.2622 18.444 59.5657 18.6059C59.8287 18.7071 60.112 18.8386 60.4155 19.0005C60.7392 19.1624 61.063 19.3243 61.3867 19.4862C61.7307 19.6481 62.0747 19.7797 62.4186 19.8808C62.7828 19.982 63.1369 20.0326 63.4809 20.0326C64.2295 20.0326 64.8264 19.9112 65.2716 19.6683C65.7167 19.4053 65.9393 19.041 65.9393 18.5755C65.9393 18.3124 65.8685 18.0797 65.7268 17.8773C65.5852 17.6749 65.393 17.513 65.1502 17.3916C64.9276 17.25 64.6545 17.1285 64.3307 17.0273C64.0272 16.9059 63.6934 16.8047 63.3291 16.7238C62.9852 16.6226 62.621 16.5113 62.2365 16.3899C61.7307 16.2482 61.2248 16.0762 60.719 15.8738C60.2132 15.6714 59.7579 15.4083 59.3532 15.0845C58.9688 14.7607 58.6552 14.356 58.4124 13.8703C58.1696 13.3846 58.0482 12.7774 58.0482 12.0489C58.0482 11.1382 58.2606 10.3692 58.6855 9.7418C59.1307 9.0942 59.768 8.59838 60.5976 8.25434C61.4272 7.9103 62.4288 7.73828 63.6023 7.73828C64.007 7.73828 64.3914 7.76864 64.7556 7.82935C65.1401 7.89006 65.5043 7.98113 65.8482 8.10256C66.2124 8.20375 66.5564 8.33529 66.8802 8.49719C67.2241 8.65909 67.5479 8.84123 67.8514 9.04361C68.3572 9.32693 68.6202 9.66085 68.6405 10.0454C68.6607 10.4096 68.5191 10.8043 68.2156 11.2293C67.993 11.5126 67.7704 11.715 67.5479 11.8364C67.3253 11.9376 67.0926 11.9376 66.8498 11.8364C66.5261 11.6745 66.172 11.5025 65.7875 11.3203C65.4233 11.118 65.0389 10.9459 64.6342 10.8043C64.2498 10.6626 63.8451 10.5918 63.4202 10.5918C63.0155 10.5918 62.6513 10.6525 62.3276 10.7739C62.0038 10.8953 61.761 11.0674 61.5992 11.29C61.4373 11.5126 61.3564 11.7757 61.3564 12.0792C61.3564 12.3626 61.4373 12.5953 61.5992 12.7774C61.761 12.9596 61.9735 13.1114 62.2365 13.2328C62.4996 13.3542 62.8132 13.4655 63.1774 13.5667C63.5416 13.6477 63.926 13.7286 64.3307 13.8096C64.8973 13.931 65.4739 14.0828 66.0607 14.2649C66.6475 14.447 67.1837 14.7 67.6693 15.0238C68.1751 15.3476 68.5798 15.7827 68.8833 16.3291C69.1868 16.8553 69.3385 17.5434 69.3385 18.3934C69.3385 19.8707 68.7922 21.0141 67.6996 21.8237C66.6272 22.6332 65.1401 23.0379 63.2381 23.0379Z" fill="#27235C" stroke="#27235C" stroke-width="0.2"/>
<path d="M48.9146 23.031C47.5994 23.031 46.4461 22.8185 45.4546 22.3935C44.4834 21.9685 43.6639 21.3917 42.9962 20.6632C42.3487 19.9144 41.853 19.0847 41.509 18.174C41.1853 17.243 41.0234 16.2817 41.0234 15.2901C41.0234 13.833 41.3573 12.5378 42.025 11.4045C42.6927 10.2712 43.6133 9.38073 44.7869 8.73312C45.9807 8.08552 47.3465 7.76172 48.8842 7.76172C49.9768 7.76172 50.9379 7.93374 51.7675 8.27778C52.5971 8.62182 53.285 9.07716 53.8313 9.64381C54.3979 10.1902 54.8228 10.7974 55.1061 11.4652C55.4096 12.133 55.5613 12.7806 55.5613 13.408C55.5613 14.4806 55.2983 15.2597 54.7722 15.7455C54.2664 16.2312 53.629 16.474 52.8601 16.474H44.8476C44.8678 17.1621 45.0803 17.7591 45.485 18.265C45.9099 18.771 46.4359 19.1656 47.0632 19.4489C47.7107 19.712 48.3683 19.8436 49.036 19.8436C49.5418 19.8436 49.9869 19.8132 50.3714 19.7525C50.7761 19.6918 51.12 19.621 51.4033 19.54C51.6866 19.4388 51.9294 19.3376 52.1317 19.2364C52.3543 19.1352 52.5566 19.0442 52.7387 18.9632C52.9208 18.8823 53.0928 18.8317 53.2547 18.8114C53.4773 18.7912 53.6998 18.8418 53.9224 18.9632C54.145 19.0847 54.3271 19.2972 54.4687 19.6007C54.5901 19.8031 54.671 19.9953 54.7115 20.1775C54.7722 20.3394 54.8026 20.5013 54.8026 20.6632C54.8026 21.0679 54.5598 21.4525 54.0741 21.8167C53.5885 22.1608 52.9006 22.4441 52.0103 22.6667C51.1403 22.9096 50.1084 23.031 48.9146 23.031ZM44.8476 14.3187H51.0695C51.4134 14.3187 51.6765 14.2681 51.8586 14.1669C52.0407 14.0455 52.1317 13.8026 52.1317 13.4384C52.1317 12.9729 51.9901 12.558 51.7068 12.1938C51.4235 11.8092 51.0391 11.5158 50.5535 11.3134C50.0679 11.0908 49.5013 10.9795 48.8539 10.9795C48.1052 10.9795 47.4274 11.1313 46.8204 11.4348C46.2134 11.7182 45.7278 12.1128 45.3636 12.6187C45.0196 13.1247 44.8476 13.6913 44.8476 14.3187Z" fill="#27235C" stroke="#27235C" stroke-width="0.2"/>
<path d="M38.0779 22.8566C37.3292 22.8566 36.6615 22.806 36.0747 22.7048C35.5082 22.6036 35.0125 22.4316 34.5876 22.1888C34.1829 21.9459 33.849 21.6221 33.586 21.2174C33.3229 20.7924 33.1206 20.2763 32.979 19.6692C32.8576 19.0621 32.7969 18.3335 32.7969 17.4835V2.85174C32.7969 2.5077 32.8272 2.20414 32.8879 1.94105C32.9689 1.65772 33.1307 1.43511 33.3735 1.27321C33.6366 1.09107 34.0514 1 34.6179 1C35.1844 1 35.5891 1.08095 35.8319 1.24285C36.095 1.40475 36.2568 1.62737 36.3175 1.91069C36.3985 2.17378 36.4389 2.47734 36.4389 2.82138V17.3317C36.4389 17.7163 36.4592 18.0401 36.4996 18.3031C36.5603 18.546 36.6514 18.7484 36.7728 18.9103C36.9144 19.0519 37.0864 19.1531 37.2887 19.2138C37.5113 19.2745 37.7744 19.3049 38.0779 19.3049C38.3409 19.3049 38.5736 19.3353 38.7759 19.396C38.9985 19.4567 39.1705 19.6085 39.2919 19.8513C39.4335 20.0942 39.5043 20.4888 39.5043 21.0352C39.5043 21.6019 39.4335 22.0167 39.2919 22.2798C39.1705 22.5429 38.9985 22.7048 38.7759 22.7655C38.5534 22.8262 38.3207 22.8566 38.0779 22.8566Z" fill="#27235C" stroke="#27235C" stroke-width="0.2"/>
<path d="M27.7168 22.8506C27.1705 22.8506 26.7658 22.7595 26.5027 22.5774C26.2397 22.4155 26.0778 22.203 26.0171 21.9399C25.9564 21.6566 25.9261 21.3429 25.9261 20.9988V9.70626C25.9261 9.38246 25.9564 9.08901 26.0171 8.82592C26.0981 8.5426 26.2599 8.31999 26.5027 8.15808C26.7658 7.99618 27.1806 7.91523 27.7471 7.91523C28.3137 7.91523 28.7183 7.99618 28.9611 8.15808C29.2242 8.31999 29.386 8.5426 29.4467 8.82592C29.5074 9.10925 29.5378 9.42293 29.5378 9.76697V21.0292C29.5378 21.3732 29.5074 21.6869 29.4467 21.9702C29.386 22.2333 29.2242 22.4458 28.9611 22.6077C28.7183 22.7696 28.3035 22.8506 27.7168 22.8506ZM27.7168 4.97066C27.13 4.97066 26.695 4.88971 26.4117 4.72781C26.1487 4.54567 25.9767 4.30282 25.8957 3.99926C25.835 3.69569 25.8047 3.36177 25.8047 2.99749C25.8047 2.61298 25.835 2.27906 25.8957 1.99573C25.9767 1.71241 26.1588 1.48979 26.442 1.32789C26.7253 1.14576 27.1603 1.05469 27.7471 1.05469C28.3541 1.05469 28.7892 1.14576 29.0522 1.32789C29.3152 1.51003 29.4872 1.75288 29.5681 2.05645C29.6491 2.33977 29.6895 2.6737 29.6895 3.05821C29.6895 3.40225 29.6491 3.72605 29.5681 4.02961C29.4872 4.33318 29.3152 4.56591 29.0522 4.72781C28.7892 4.88971 28.344 4.97066 27.7168 4.97066Z" fill="#27235C" stroke="#27235C" stroke-width="0.2"/>
<path d="M2.79068 22.8255C2.2646 22.8255 1.87005 22.7445 1.60701 22.5826C1.34397 22.4207 1.17199 22.1981 1.09105 21.9148C1.03035 21.6315 1 21.3178 1 20.9737V3.4581C1 3.1343 1.03035 2.84085 1.09105 2.57777C1.17199 2.29444 1.34397 2.07183 1.60701 1.90993C1.87005 1.72779 2.28484 1.63672 2.85138 1.63672C3.27629 1.63672 3.58991 1.66708 3.79224 1.72779C4.01481 1.76826 4.1868 1.83909 4.3082 1.94028C4.4296 2.02123 4.55101 2.13254 4.67241 2.2742L12.0779 12.6257H11.3799L18.8157 2.24385C18.9574 2.08195 19.099 1.96052 19.2406 1.87957C19.3823 1.79862 19.5644 1.73791 19.787 1.69743C20.0095 1.65696 20.3029 1.63672 20.6671 1.63672C21.2134 1.63672 21.6181 1.72779 21.8811 1.90993C22.1442 2.07183 22.306 2.29444 22.3667 2.57777C22.4477 2.86109 22.4881 3.17478 22.4881 3.51881V21.0345C22.4881 21.338 22.4477 21.6315 22.3667 21.9148C22.306 22.1981 22.1442 22.4207 21.8811 22.5826C21.6181 22.7445 21.2033 22.8255 20.6368 22.8255C20.0905 22.8255 19.6858 22.7344 19.4227 22.5523C19.1597 22.3904 18.9877 22.1678 18.9068 21.8844C18.8461 21.6011 18.8157 21.2975 18.8157 20.9737V7.95085L13.2919 15.9346C13.2312 16.0155 13.1402 16.1268 13.0188 16.2685C12.8974 16.3899 12.7355 16.5012 12.5332 16.6024C12.3308 16.7036 12.0577 16.7542 11.7137 16.7542C11.39 16.7542 11.1269 16.7036 10.9246 16.6024C10.7223 16.5012 10.5604 16.3899 10.439 16.2685C10.3378 16.1471 10.2367 16.0256 10.1355 15.9042L4.64206 7.95085V21.0345C4.64206 21.338 4.60159 21.6315 4.52066 21.9148C4.45995 22.1981 4.29809 22.4207 4.03505 22.5826C3.77201 22.7445 3.35722 22.8255 2.79068 22.8255Z" fill="#27235C" stroke="#27235C" stroke-width="0.2"/>
<path d="M163.092 29L159.69 19.928H161.58L164.154 27.272L166.746 19.928H168.6L165.216 29H163.092ZM173.309 29.216C172.541 29.216 171.869 29.09 171.293 28.838C170.717 28.586 170.261 28.232 169.925 27.776C169.589 27.32 169.385 26.786 169.313 26.174H171.149C171.209 26.462 171.323 26.726 171.491 26.966C171.671 27.206 171.911 27.398 172.211 27.542C172.523 27.686 172.889 27.758 173.309 27.758C173.705 27.758 174.029 27.704 174.281 27.596C174.545 27.476 174.737 27.32 174.857 27.128C174.977 26.924 175.037 26.708 175.037 26.48C175.037 26.144 174.953 25.892 174.785 25.724C174.629 25.544 174.389 25.406 174.065 25.31C173.753 25.202 173.375 25.106 172.931 25.022C172.511 24.95 172.103 24.854 171.707 24.734C171.323 24.602 170.975 24.44 170.663 24.248C170.363 24.056 170.123 23.816 169.943 23.528C169.763 23.228 169.673 22.862 169.673 22.43C169.673 21.914 169.811 21.452 170.087 21.044C170.363 20.624 170.753 20.3 171.257 20.072C171.773 19.832 172.379 19.712 173.075 19.712C174.083 19.712 174.893 19.952 175.505 20.432C176.117 20.912 176.477 21.59 176.585 22.466H174.839C174.791 22.058 174.611 21.746 174.299 21.53C173.987 21.302 173.573 21.188 173.057 21.188C172.541 21.188 172.145 21.29 171.869 21.494C171.593 21.698 171.455 21.968 171.455 22.304C171.455 22.52 171.533 22.712 171.689 22.88C171.845 23.048 172.073 23.192 172.373 23.312C172.685 23.42 173.063 23.522 173.507 23.618C174.143 23.738 174.713 23.888 175.217 24.068C175.721 24.248 176.123 24.512 176.423 24.86C176.723 25.208 176.873 25.706 176.873 26.354C176.885 26.918 176.741 27.416 176.441 27.848C176.153 28.28 175.739 28.616 175.199 28.856C174.671 29.096 174.041 29.216 173.309 29.216Z" fill="#9AA0A6"/>
</svg>
