<svg width="117" height="40" viewBox="0 0 117 40" fill="none" xmlns="http://www.w3.org/2000/svg">
<path d="M53.1875 38.2582C53.1875 37.7683 53.5847 37.3711 54.0746 37.3711H115.286C115.776 37.3711 116.173 37.7683 116.173 38.2582C116.173 38.7481 115.776 39.1453 115.286 39.1453H54.0746C53.5847 39.1453 53.1875 38.7481 53.1875 38.2582Z" fill="#FFBB00"/>
<path d="M3.30277 31.7129V29.5655C2.94669 29.0145 2.61125 28.4712 2.29645 27.9357C1.98166 27.4001 1.68492 26.8748 1.40625 26.3599H2.28871C2.48481 26.7822 2.70414 27.2121 2.94669 27.6499C3.18923 28.0824 3.43952 28.4996 3.69755 28.9012C3.95042 28.4996 4.19813 28.0824 4.44068 27.6499C4.68322 27.2121 4.90513 26.7822 5.10639 26.3599H5.94241C5.66373 26.8748 5.367 27.4001 5.05221 27.9357C4.73741 28.4661 4.40455 29.0042 4.05363 29.5501V31.7129H3.30277Z" fill="#27235C"/>
<path d="M9.78055 29.7046C9.78055 30.0238 9.73411 30.3122 9.64122 30.5697C9.54833 30.8272 9.41673 31.0486 9.24643 31.234C9.08129 31.4194 8.88261 31.5636 8.65038 31.6666C8.41816 31.7644 8.16529 31.8133 7.89178 31.8133C7.61827 31.8133 7.3654 31.7644 7.13317 31.6666C6.90095 31.5636 6.69968 31.4194 6.52938 31.234C6.36424 31.0486 6.23523 30.8272 6.14234 30.5697C6.04945 30.3122 6.003 30.0238 6.003 29.7046C6.003 29.3904 6.04945 29.1046 6.14234 28.8472C6.23523 28.5845 6.36424 28.3605 6.52938 28.1751C6.69968 27.9897 6.90095 27.8481 7.13317 27.7503C7.3654 27.6473 7.61827 27.5958 7.89178 27.5958C8.16529 27.5958 8.41816 27.6473 8.65038 27.7503C8.88261 27.8481 9.08129 27.9897 9.24643 28.1751C9.41673 28.3605 9.54833 28.5845 9.64122 28.8472C9.73411 29.1046 9.78055 29.3904 9.78055 29.7046ZM9.02969 29.7046C9.02969 29.2514 8.92648 28.8935 8.72005 28.6309C8.51879 28.3631 8.2427 28.2292 7.89178 28.2292C7.54086 28.2292 7.26219 28.3631 7.05576 28.6309C6.8545 28.8935 6.75387 29.2514 6.75387 29.7046C6.75387 30.1577 6.8545 30.5182 7.05576 30.786C7.26219 31.0486 7.54086 31.1799 7.89178 31.1799C8.2427 31.1799 8.51879 31.0486 8.72005 30.786C8.92648 30.5182 9.02969 30.1577 9.02969 29.7046Z" fill="#27235C"/>
<path d="M13.9981 31.5971C13.833 31.6383 13.6137 31.682 13.3401 31.7284C13.0718 31.7747 12.7596 31.7979 12.4035 31.7979C12.0939 31.7979 11.8333 31.7541 11.6217 31.6666C11.4101 31.5739 11.2398 31.4451 11.1108 31.2804C10.9818 31.1156 10.8889 30.9225 10.8321 30.701C10.7753 30.4744 10.747 30.2247 10.747 29.9518V27.6962H11.4669V29.7973C11.4669 30.2865 11.5443 30.6367 11.6991 30.8478C11.8539 31.0589 12.1145 31.1645 12.4809 31.1645C12.5583 31.1645 12.6383 31.1619 12.7209 31.1568C12.8034 31.1516 12.8809 31.1465 12.9531 31.1413C13.0254 31.131 13.0899 31.1233 13.1466 31.1181C13.2086 31.1078 13.2524 31.0975 13.2782 31.0872V27.6962H13.9981V31.5971Z" fill="#27235C"/>
<path d="M16.7246 27.6112C16.7865 27.6112 16.8562 27.6164 16.9336 27.6267C17.0162 27.6318 17.0962 27.6421 17.1736 27.6576C17.251 27.6679 17.3207 27.6808 17.3826 27.6962C17.4497 27.7065 17.4987 27.7168 17.5297 27.7271L17.4058 28.3528C17.349 28.3322 17.2536 28.309 17.1194 28.2833C16.9904 28.2524 16.8227 28.2369 16.6162 28.2369C16.4821 28.2369 16.3479 28.2524 16.2137 28.2833C16.0847 28.309 15.9995 28.327 15.9583 28.3373V31.7129H15.2384V27.8661C15.4087 27.8044 15.6202 27.7477 15.8731 27.6962C16.126 27.6396 16.4098 27.6112 16.7246 27.6112Z" fill="#27235C"/>
<path d="M23.4374 26.3599H24.1883V31.7129H23.4374V29.2411H20.8132V31.7129H20.0624V26.3599H20.8132V28.5922H23.4374V26.3599Z" fill="#27235C"/>
<path d="M29.0269 29.7046C29.0269 30.0238 28.9805 30.3122 28.8876 30.5697C28.7947 30.8272 28.6631 31.0486 28.4928 31.234C28.3277 31.4194 28.129 31.5636 27.8968 31.6666C27.6645 31.7644 27.4117 31.8133 27.1381 31.8133C26.8646 31.8133 26.6118 31.7644 26.3795 31.6666C26.1473 31.5636 25.9461 31.4194 25.7758 31.234C25.6106 31.0486 25.4816 30.8272 25.3887 30.5697C25.2958 30.3122 25.2494 30.0238 25.2494 29.7046C25.2494 29.3904 25.2958 29.1046 25.3887 28.8472C25.4816 28.5845 25.6106 28.3605 25.7758 28.1751C25.9461 27.9897 26.1473 27.8481 26.3795 27.7503C26.6118 27.6473 26.8646 27.5958 27.1381 27.5958C27.4117 27.5958 27.6645 27.6473 27.8968 27.7503C28.129 27.8481 28.3277 27.9897 28.4928 28.1751C28.6631 28.3605 28.7947 28.5845 28.8876 28.8472C28.9805 29.1046 29.0269 29.3904 29.0269 29.7046ZM28.2761 29.7046C28.2761 29.2514 28.1728 28.8935 27.9664 28.6309C27.7652 28.3631 27.4891 28.2292 27.1381 28.2292C26.7872 28.2292 26.5086 28.3631 26.3021 28.6309C26.1009 28.8935 26.0002 29.2514 26.0002 29.7046C26.0002 30.1577 26.1009 30.5182 26.3021 30.786C26.5086 31.0486 26.7872 31.1799 27.1381 31.1799C27.4891 31.1799 27.7652 31.0486 27.9664 30.786C28.1728 30.5182 28.2761 30.1577 28.2761 29.7046Z" fill="#27235C"/>
<path d="M30.9764 31.1954C31.2706 31.1954 31.4873 31.1568 31.6267 31.0795C31.7712 31.0023 31.8434 30.8787 31.8434 30.7088C31.8434 30.5337 31.7737 30.3946 31.6344 30.2916C31.4951 30.1886 31.2654 30.0728 30.9455 29.944C30.7906 29.8822 30.641 29.8204 30.4965 29.7586C30.3571 29.6917 30.2359 29.6145 30.1327 29.5269C30.0294 29.4394 29.9469 29.3338 29.885 29.2102C29.823 29.0866 29.7921 28.9347 29.7921 28.7545C29.7921 28.3991 29.9237 28.1185 30.1868 27.9125C30.45 27.7014 30.8087 27.5958 31.2628 27.5958C31.3764 27.5958 31.4899 27.6035 31.6034 27.619C31.717 27.6293 31.8228 27.6447 31.9208 27.6653C32.0189 27.6808 32.104 27.6988 32.1763 27.7194C32.2537 27.74 32.313 27.758 32.3543 27.7735L32.2227 28.3914C32.1453 28.3502 32.024 28.309 31.8589 28.2678C31.6937 28.2215 31.4951 28.1983 31.2628 28.1983C31.0616 28.1983 30.8861 28.2395 30.7364 28.3219C30.5868 28.3991 30.512 28.5227 30.512 28.6927C30.512 28.7802 30.5274 28.8575 30.5584 28.9244C30.5945 28.9913 30.6461 29.0531 30.7132 29.1098C30.7855 29.1613 30.8732 29.2102 30.9764 29.2566C31.0796 29.3029 31.2035 29.3518 31.348 29.4033C31.5389 29.4754 31.7092 29.5475 31.8589 29.6196C32.0085 29.6865 32.135 29.7664 32.2382 29.8591C32.3466 29.9518 32.4291 30.065 32.4859 30.1989C32.5427 30.3277 32.571 30.4873 32.571 30.6779C32.571 31.0486 32.4317 31.3293 32.153 31.5198C31.8795 31.7104 31.4873 31.8056 30.9764 31.8056C30.6203 31.8056 30.3417 31.7747 30.1404 31.7129C29.9391 31.6563 29.8024 31.6125 29.7301 31.5816L29.8617 30.9637C29.9443 30.9946 30.0759 31.0409 30.2565 31.1027C30.4371 31.1645 30.6771 31.1954 30.9764 31.1954Z" fill="#27235C"/>
<path d="M34.1679 27.6962H35.6929V28.2987H34.1679V30.1526C34.1679 30.3534 34.1834 30.5208 34.2143 30.6547C34.2453 30.7834 34.2918 30.8864 34.3537 30.9637C34.4156 31.0358 34.493 31.0872 34.5859 31.1181C34.6788 31.149 34.7872 31.1645 34.911 31.1645C35.1278 31.1645 35.3006 31.1413 35.4297 31.095C35.5638 31.0435 35.6567 31.0074 35.7083 30.9868L35.8477 31.5816C35.7754 31.6177 35.649 31.6614 35.4684 31.7129C35.2877 31.7696 35.0813 31.7979 34.8491 31.7979C34.5756 31.7979 34.3485 31.7644 34.1679 31.6975C33.9924 31.6254 33.8505 31.5198 33.7421 31.3808C33.6338 31.2417 33.5564 31.0718 33.5099 30.871C33.4686 30.665 33.448 30.4281 33.448 30.1603V26.5762L34.1679 26.4526V27.6962Z" fill="#27235C"/>
<path d="M37.3288 31.7129H36.6089V27.6962H37.3288V31.7129ZM36.965 26.9701C36.836 26.9701 36.7251 26.9289 36.6322 26.8465C36.5444 26.759 36.5006 26.6431 36.5006 26.4989C36.5006 26.3547 36.5444 26.2414 36.6322 26.159C36.7251 26.0715 36.836 26.0277 36.965 26.0277C37.094 26.0277 37.2024 26.0715 37.2901 26.159C37.383 26.2414 37.4295 26.3547 37.4295 26.4989C37.4295 26.6431 37.383 26.759 37.2901 26.8465C37.2024 26.9289 37.094 26.9701 36.965 26.9701Z" fill="#27235C"/>
<path d="M38.5668 27.8121C38.732 27.7709 38.9513 27.7271 39.2248 27.6808C39.4983 27.6344 39.8131 27.6112 40.1692 27.6112C40.4892 27.6112 40.7549 27.6576 40.9665 27.7503C41.1781 27.8378 41.3458 27.964 41.4697 28.1288C41.5987 28.2884 41.689 28.4815 41.7406 28.7081C41.7922 28.9347 41.818 29.1845 41.818 29.4574V31.7129H41.0981V29.6119C41.0981 29.3647 41.08 29.1536 41.0439 28.9785C41.013 28.8034 40.9588 28.6618 40.8814 28.5536C40.804 28.4455 40.7007 28.3682 40.5717 28.3219C40.4427 28.2704 40.2827 28.2446 40.0918 28.2446C40.0144 28.2446 39.9344 28.2472 39.8518 28.2524C39.7693 28.2575 39.6893 28.2652 39.6119 28.2755C39.5396 28.2807 39.4725 28.2884 39.4106 28.2987C39.3538 28.309 39.3125 28.3167 39.2867 28.3219V31.7129H38.5668V27.8121Z" fill="#27235C"/>
<path d="M45.5353 31.3113C45.4734 31.3525 45.3521 31.4065 45.1715 31.4735C44.996 31.5353 44.7896 31.5662 44.5522 31.5662C44.3097 31.5662 44.08 31.5275 43.8633 31.4503C43.6517 31.3731 43.4659 31.2546 43.3059 31.095C43.146 30.9302 43.0195 30.7268 42.9266 30.4847C42.8338 30.2427 42.7873 29.9543 42.7873 29.6196C42.7873 29.3261 42.8312 29.0583 42.9189 28.8163C43.0066 28.5691 43.1331 28.3579 43.2982 28.1829C43.4685 28.0026 43.6749 27.8636 43.9175 27.7657C44.16 27.6627 44.4335 27.6112 44.738 27.6112C45.0735 27.6112 45.365 27.637 45.6127 27.6885C45.8656 27.7348 46.0772 27.7786 46.2475 27.8198V31.404C46.2475 32.0219 46.0875 32.4699 45.7676 32.748C45.4476 33.0261 44.9625 33.1651 44.3123 33.1651C44.0594 33.1651 43.8194 33.1445 43.5924 33.1033C43.3705 33.0621 43.1769 33.0132 43.0118 32.9566L43.1434 32.3309C43.2879 32.3875 43.4633 32.4365 43.6698 32.4777C43.8814 32.524 44.1007 32.5472 44.3277 32.5472C44.7561 32.5472 45.0631 32.4622 45.2489 32.2923C45.4398 32.1223 45.5353 31.852 45.5353 31.4812V31.3113ZM45.5276 28.3296C45.4553 28.309 45.3573 28.291 45.2334 28.2755C45.1147 28.2549 44.9522 28.2446 44.7458 28.2446C44.3587 28.2446 44.0594 28.3708 43.8478 28.6231C43.6414 28.8755 43.5382 29.2102 43.5382 29.6273C43.5382 29.8591 43.5666 30.0573 43.6233 30.2221C43.6853 30.3869 43.7652 30.5234 43.8633 30.6315C43.9665 30.7396 44.0826 30.8195 44.2116 30.871C44.3458 30.9225 44.4826 30.9482 44.6219 30.9482C44.8128 30.9482 44.9883 30.9225 45.1483 30.871C45.3083 30.8143 45.4347 30.7499 45.5276 30.6779V28.3296Z" fill="#27235C"/>
<path d="M48.2456 30.8323C48.2508 30.8735 48.2533 30.9147 48.2533 30.9559C48.2533 30.992 48.2533 31.0306 48.2533 31.0718C48.2533 31.3962 48.2043 31.7155 48.1063 32.0296C48.0134 32.3489 47.8844 32.6527 47.7192 32.9411L47.1619 32.7635C47.2909 32.5008 47.376 32.233 47.4173 31.9601C47.4586 31.6923 47.4793 31.44 47.4793 31.2031C47.4793 31.1362 47.4767 31.0718 47.4715 31.01C47.4715 30.9482 47.4689 30.889 47.4638 30.8323H48.2456Z" fill="#27235C"/>
<path d="M51.0133 29.0325C51.0133 28.5742 51.0804 28.17 51.2145 27.8198C51.3539 27.4696 51.5396 27.1787 51.7719 26.9469C52.0093 26.7101 52.2828 26.5324 52.5924 26.414C52.9072 26.2955 53.2401 26.2363 53.591 26.2363C53.9367 26.2363 54.2619 26.2955 54.5663 26.414C54.876 26.5324 55.1469 26.7101 55.3791 26.9469C55.6114 27.1787 55.7946 27.4696 55.9287 27.8198C56.0681 28.17 56.1377 28.5742 56.1377 29.0325C56.1377 29.4909 56.0681 29.8951 55.9287 30.2453C55.7946 30.5955 55.6114 30.889 55.3791 31.1259C55.1469 31.3576 54.876 31.5327 54.5663 31.6511C54.2619 31.7696 53.9367 31.8288 53.591 31.8288C53.2401 31.8288 52.9072 31.7696 52.5924 31.6511C52.2828 31.5327 52.0093 31.3576 51.7719 31.1259C51.5396 30.889 51.3539 30.5955 51.2145 30.2453C51.0804 29.8951 51.0133 29.4909 51.0133 29.0325ZM51.8028 29.0325C51.8028 29.357 51.8441 29.6531 51.9267 29.9209C52.0093 30.1835 52.1254 30.4075 52.275 30.5929C52.4298 30.7783 52.6156 30.9225 52.8324 31.0255C53.0543 31.1233 53.302 31.1722 53.5755 31.1722C53.849 31.1722 54.0941 31.1233 54.3109 31.0255C54.5276 30.9225 54.7108 30.7783 54.8605 30.5929C55.0153 30.4075 55.134 30.1835 55.2166 29.9209C55.2991 29.6531 55.3404 29.357 55.3404 29.0325C55.3404 28.7081 55.2991 28.4146 55.2166 28.152C55.134 27.8842 55.0153 27.6576 54.8605 27.4722C54.7108 27.2868 54.5276 27.1452 54.3109 27.0474C54.0941 26.9444 53.849 26.8929 53.5755 26.8929C53.302 26.8929 53.0543 26.9444 52.8324 27.0474C52.6156 27.1452 52.4298 27.2868 52.275 27.4722C52.1254 27.6576 52.0093 27.8842 51.9267 28.152C51.8441 28.4146 51.8028 28.7081 51.8028 29.0325Z" fill="#27235C"/>
<path d="M60.4132 31.5971C60.248 31.6383 60.0287 31.682 59.7552 31.7284C59.4869 31.7747 59.1746 31.7979 58.8186 31.7979C58.5089 31.7979 58.2483 31.7541 58.0367 31.6666C57.8251 31.5739 57.6548 31.4451 57.5258 31.2804C57.3968 31.1156 57.3039 30.9225 57.2472 30.701C57.1904 30.4744 57.162 30.2247 57.162 29.9518V27.6962H57.8819V29.7973C57.8819 30.2865 57.9593 30.6367 58.1141 30.8478C58.269 31.0589 58.5296 31.1645 58.896 31.1645C58.9734 31.1645 59.0534 31.1619 59.1359 31.1568C59.2185 31.1516 59.2959 31.1465 59.3682 31.1413C59.4404 31.131 59.5049 31.1233 59.5617 31.1181C59.6236 31.1078 59.6675 31.0975 59.6933 31.0872V27.6962H60.4132V31.5971Z" fill="#27235C"/>
<path d="M63.1397 27.6112C63.2016 27.6112 63.2712 27.6164 63.3487 27.6267C63.4312 27.6318 63.5112 27.6421 63.5886 27.6576C63.666 27.6679 63.7357 27.6808 63.7976 27.6962C63.8647 27.7065 63.9137 27.7168 63.9447 27.7271L63.8209 28.3528C63.7641 28.3322 63.6686 28.309 63.5344 28.2833C63.4054 28.2524 63.2377 28.2369 63.0313 28.2369C62.8971 28.2369 62.7629 28.2524 62.6288 28.2833C62.4997 28.309 62.4146 28.327 62.3733 28.3373V31.7129H61.6534V27.8661C61.8237 27.8044 62.0353 27.7477 62.2882 27.6962C62.541 27.6396 62.8249 27.6112 63.1397 27.6112Z" fill="#27235C"/>
<path d="M69.1016 29.4728C69.1842 29.5758 69.2874 29.7123 69.4112 29.8822C69.5402 30.047 69.6718 30.2324 69.806 30.4384C69.9402 30.6392 70.0718 30.8504 70.2008 31.0718C70.335 31.2932 70.4485 31.5069 70.5414 31.7129H69.7209C69.6177 31.5172 69.5041 31.319 69.3803 31.1181C69.2616 30.9173 69.1403 30.7268 69.0164 30.5465C68.8926 30.3611 68.7687 30.1886 68.6449 30.029C68.5262 29.8694 68.4178 29.7303 68.3198 29.6119C68.2527 29.617 68.183 29.6196 68.1108 29.6196C68.0437 29.6196 67.974 29.6196 67.9017 29.6196H67.2283V31.7129H66.4774V26.4371C66.689 26.3856 66.9238 26.3522 67.1819 26.3367C67.445 26.3161 67.685 26.3058 67.9017 26.3058C68.6552 26.3058 69.228 26.4474 69.6202 26.7307C70.0176 27.0139 70.2163 27.4362 70.2163 27.9975C70.2163 28.3528 70.1208 28.6566 69.9299 28.909C69.7441 29.1613 69.468 29.3492 69.1016 29.4728ZM67.9637 26.9624C67.6437 26.9624 67.3986 26.9701 67.2283 26.9856V29.0016H67.7624C68.0205 29.0016 68.2527 28.9888 68.4591 28.963C68.6655 28.9373 68.8384 28.8884 68.9777 28.8163C69.1222 28.7442 69.2332 28.6437 69.3106 28.515C69.388 28.3811 69.4267 28.206 69.4267 27.9897C69.4267 27.7889 69.388 27.6215 69.3106 27.4877C69.2332 27.3538 69.1274 27.2482 68.9932 27.1709C68.8642 27.0937 68.7094 27.0396 68.5288 27.0087C68.3533 26.9778 68.1649 26.9624 67.9637 26.9624Z" fill="#27235C"/>
<path d="M71.0748 29.7123C71.0748 29.357 71.1264 29.048 71.2296 28.7854C71.3328 28.5176 71.4696 28.2961 71.6399 28.1211C71.8102 27.946 72.0063 27.8147 72.2282 27.7271C72.4501 27.6396 72.6772 27.5958 72.9094 27.5958C73.4512 27.5958 73.8667 27.7657 74.1557 28.1056C74.4447 28.4403 74.5892 28.9527 74.5892 29.6428C74.5892 29.6737 74.5892 29.7149 74.5892 29.7664C74.5892 29.8127 74.5866 29.8565 74.5814 29.8977H71.8257C71.8566 30.3148 71.9779 30.6315 72.1895 30.8478C72.4011 31.0641 72.7313 31.1722 73.1803 31.1722C73.4332 31.1722 73.6448 31.1516 73.8151 31.1104C73.9905 31.0641 74.1221 31.0203 74.2098 30.9791L74.3105 31.5816C74.2227 31.628 74.0679 31.6769 73.846 31.7284C73.6293 31.7799 73.3816 31.8056 73.1029 31.8056C72.752 31.8056 72.4475 31.7541 72.1895 31.6511C71.9366 31.543 71.7276 31.3962 71.5625 31.2108C71.3973 31.0255 71.2735 30.8066 71.1909 30.5543C71.1135 30.2968 71.0748 30.0161 71.0748 29.7123ZM73.8383 29.3183C73.8434 28.9939 73.7609 28.7287 73.5906 28.5227C73.4254 28.3116 73.1958 28.206 72.9016 28.206C72.7365 28.206 72.5894 28.2395 72.4604 28.3064C72.3366 28.3682 72.2308 28.4506 72.143 28.5536C72.0553 28.6566 71.9856 28.7751 71.934 28.909C71.8876 29.0428 71.8566 29.1793 71.8411 29.3183H73.8383Z" fill="#27235C"/>
<path d="M76.5599 31.1954C76.8541 31.1954 77.0708 31.1568 77.2102 31.0795C77.3547 31.0023 77.4269 30.8787 77.4269 30.7088C77.4269 30.5337 77.3572 30.3946 77.2179 30.2916C77.0786 30.1886 76.8489 30.0728 76.529 29.944C76.3741 29.8822 76.2245 29.8204 76.08 29.7586C75.9407 29.6917 75.8194 29.6145 75.7162 29.5269C75.613 29.4394 75.5304 29.3338 75.4685 29.2102C75.4065 29.0866 75.3756 28.9347 75.3756 28.7545C75.3756 28.3991 75.5072 28.1185 75.7704 27.9125C76.0335 27.7014 76.3922 27.5958 76.8463 27.5958C76.9599 27.5958 77.0734 27.6035 77.1869 27.619C77.3005 27.6293 77.4063 27.6447 77.5043 27.6653C77.6024 27.6808 77.6875 27.6988 77.7598 27.7194C77.8372 27.74 77.8965 27.758 77.9378 27.7735L77.8062 28.3914C77.7288 28.3502 77.6075 28.309 77.4424 28.2678C77.2773 28.2215 77.0786 28.1983 76.8463 28.1983C76.6451 28.1983 76.4696 28.2395 76.32 28.3219C76.1703 28.3991 76.0955 28.5227 76.0955 28.6927C76.0955 28.7802 76.111 28.8575 76.1419 28.9244C76.178 28.9913 76.2297 29.0531 76.2967 29.1098C76.369 29.1613 76.4567 29.2102 76.5599 29.2566C76.6631 29.3029 76.787 29.3518 76.9315 29.4033C77.1224 29.4754 77.2927 29.5475 77.4424 29.6196C77.592 29.6865 77.7185 29.7664 77.8217 29.8591C77.9301 29.9518 78.0126 30.065 78.0694 30.1989C78.1262 30.3277 78.1546 30.4873 78.1546 30.6779C78.1546 31.0486 78.0152 31.3293 77.7365 31.5198C77.463 31.7104 77.0708 31.8056 76.5599 31.8056C76.2038 31.8056 75.9252 31.7747 75.7239 31.7129C75.5227 31.6563 75.3859 31.6125 75.3136 31.5816L75.4452 30.9637C75.5278 30.9946 75.6594 31.0409 75.84 31.1027C76.0206 31.1645 76.2606 31.1954 76.5599 31.1954Z" fill="#27235C"/>
<path d="M81.8724 29.7123C81.8724 29.2437 81.7563 28.8832 81.5241 28.6309C81.2918 28.3785 80.9822 28.2524 80.5952 28.2524C80.3784 28.2524 80.2081 28.2601 80.0843 28.2755C79.9656 28.291 79.8701 28.309 79.7979 28.3296V30.8632C79.8856 30.9353 80.012 31.0049 80.1772 31.0718C80.3423 31.1387 80.5229 31.1722 80.719 31.1722C80.9254 31.1722 81.1009 31.1362 81.2454 31.0641C81.3951 30.9868 81.5163 30.8838 81.6092 30.7551C81.7021 30.6212 81.7692 30.4667 81.8105 30.2916C81.8518 30.1114 81.8724 29.9183 81.8724 29.7123ZM82.6233 29.7123C82.6233 30.0161 82.582 30.2968 82.4994 30.5543C82.422 30.8117 82.3059 31.0332 82.1511 31.2186C81.9963 31.404 81.8053 31.5481 81.5783 31.6511C81.3563 31.7541 81.1009 31.8056 80.8119 31.8056C80.5797 31.8056 80.3733 31.7747 80.1926 31.7129C80.0172 31.6511 79.8856 31.5919 79.7979 31.5353V33.142H79.078V27.8198C79.2483 27.7786 79.4598 27.7348 79.7127 27.6885C79.9707 27.637 80.2675 27.6112 80.6029 27.6112C80.9125 27.6112 81.1912 27.6602 81.4389 27.758C81.6866 27.8559 81.8982 27.9949 82.0737 28.1751C82.2491 28.3554 82.3833 28.5768 82.4762 28.8394C82.5742 29.0969 82.6233 29.3879 82.6233 29.7123Z" fill="#27235C"/>
<path d="M87.1894 29.7046C87.1894 30.0238 87.1429 30.3122 87.05 30.5697C86.9571 30.8272 86.8256 31.0486 86.6553 31.234C86.4901 31.4194 86.2914 31.5636 86.0592 31.6666C85.827 31.7644 85.5741 31.8133 85.3006 31.8133C85.0271 31.8133 84.7742 31.7644 84.542 31.6666C84.3098 31.5636 84.1085 31.4194 83.9382 31.234C83.7731 31.0486 83.644 30.8272 83.5512 30.5697C83.4583 30.3122 83.4118 30.0238 83.4118 29.7046C83.4118 29.3904 83.4583 29.1046 83.5512 28.8472C83.644 28.5845 83.7731 28.3605 83.9382 28.1751C84.1085 27.9897 84.3098 27.8481 84.542 27.7503C84.7742 27.6473 85.0271 27.5958 85.3006 27.5958C85.5741 27.5958 85.827 27.6473 86.0592 27.7503C86.2914 27.8481 86.4901 27.9897 86.6553 28.1751C86.8256 28.3605 86.9571 28.5845 87.05 28.8472C87.1429 29.1046 87.1894 29.3904 87.1894 29.7046ZM86.4385 29.7046C86.4385 29.2514 86.3353 28.8935 86.1289 28.6309C85.9276 28.3631 85.6515 28.2292 85.3006 28.2292C84.9497 28.2292 84.671 28.3631 84.4646 28.6309C84.2633 28.8935 84.1627 29.2514 84.1627 29.7046C84.1627 30.1577 84.2633 30.5182 84.4646 30.786C84.671 31.0486 84.9497 31.1799 85.3006 31.1799C85.6515 31.1799 85.9276 31.0486 86.1289 30.786C86.3353 30.5182 86.4385 30.1577 86.4385 29.7046Z" fill="#27235C"/>
<path d="M88.2022 27.8121C88.3674 27.7709 88.5867 27.7271 88.8602 27.6808C89.1337 27.6344 89.4485 27.6112 89.8046 27.6112C90.1245 27.6112 90.3903 27.6576 90.6019 27.7503C90.8135 27.8378 90.9812 27.964 91.105 28.1288C91.2341 28.2884 91.3244 28.4815 91.376 28.7081C91.4276 28.9347 91.4534 29.1845 91.4534 29.4574V31.7129H90.7335V29.6119C90.7335 29.3647 90.7154 29.1536 90.6793 28.9785C90.6483 28.8034 90.5941 28.6618 90.5167 28.5536C90.4393 28.4455 90.3361 28.3682 90.2071 28.3219C90.0781 28.2704 89.9181 28.2446 89.7272 28.2446C89.6498 28.2446 89.5698 28.2472 89.4872 28.2524C89.4046 28.2575 89.3246 28.2652 89.2472 28.2755C89.175 28.2807 89.1079 28.2884 89.046 28.2987C88.9892 28.309 88.9479 28.3167 88.9221 28.3219V31.7129H88.2022V27.8121Z" fill="#27235C"/>
<path d="M93.5838 31.1954C93.878 31.1954 94.0947 31.1568 94.2341 31.0795C94.3786 31.0023 94.4508 30.8787 94.4508 30.7088C94.4508 30.5337 94.3811 30.3946 94.2418 30.2916C94.1025 30.1886 93.8728 30.0728 93.5529 29.944C93.398 29.8822 93.2484 29.8204 93.1039 29.7586C92.9646 29.6917 92.8433 29.6145 92.7401 29.5269C92.6369 29.4394 92.5543 29.3338 92.4924 29.2102C92.4304 29.0866 92.3995 28.9347 92.3995 28.7545C92.3995 28.3991 92.5311 28.1185 92.7943 27.9125C93.0574 27.7014 93.4161 27.5958 93.8702 27.5958C93.9838 27.5958 94.0973 27.6035 94.2108 27.619C94.3244 27.6293 94.4302 27.6447 94.5282 27.6653C94.6263 27.6808 94.7114 27.6988 94.7837 27.7194C94.8611 27.74 94.9204 27.758 94.9617 27.7735L94.8301 28.3914C94.7527 28.3502 94.6314 28.309 94.4663 28.2678C94.3011 28.2215 94.1025 28.1983 93.8702 28.1983C93.669 28.1983 93.4935 28.2395 93.3439 28.3219C93.1942 28.3991 93.1194 28.5227 93.1194 28.6927C93.1194 28.7802 93.1348 28.8575 93.1658 28.9244C93.2019 28.9913 93.2535 29.0531 93.3206 29.1098C93.3929 29.1613 93.4806 29.2102 93.5838 29.2566C93.687 29.3029 93.8109 29.3518 93.9554 29.4033C94.1463 29.4754 94.3166 29.5475 94.4663 29.6196C94.6159 29.6865 94.7424 29.7664 94.8456 29.8591C94.954 29.9518 95.0365 30.065 95.0933 30.1989C95.1501 30.3277 95.1784 30.4873 95.1784 30.6779C95.1784 31.0486 95.0391 31.3293 94.7604 31.5198C94.4869 31.7104 94.0947 31.8056 93.5838 31.8056C93.2277 31.8056 92.9491 31.7747 92.7478 31.7129C92.5465 31.6563 92.4098 31.6125 92.3375 31.5816L92.4691 30.9637C92.5517 30.9946 92.6833 31.0409 92.8639 31.1027C93.0445 31.1645 93.2845 31.1954 93.5838 31.1954Z" fill="#27235C"/>
<path d="M96.8217 31.7129H96.1018V27.6962H96.8217V31.7129ZM96.4579 26.9701C96.3289 26.9701 96.218 26.9289 96.1251 26.8465C96.0373 26.759 95.9935 26.6431 95.9935 26.4989C95.9935 26.3547 96.0373 26.2414 96.1251 26.159C96.218 26.0715 96.3289 26.0277 96.4579 26.0277C96.5869 26.0277 96.6953 26.0715 96.783 26.159C96.8759 26.2414 96.9224 26.3547 96.9224 26.4989C96.9224 26.6431 96.8759 26.759 96.783 26.8465C96.6953 26.9289 96.5869 26.9701 96.4579 26.9701Z" fill="#27235C"/>
<path d="M98.7796 27.8739C98.8674 27.8172 98.999 27.758 99.1744 27.6962C99.3551 27.6344 99.5615 27.6035 99.7937 27.6035C100.083 27.6035 100.338 27.655 100.56 27.758C100.787 27.861 100.978 28.0052 101.133 28.1906C101.288 28.376 101.404 28.5974 101.481 28.8549C101.564 29.1124 101.605 29.3956 101.605 29.7046C101.605 30.029 101.556 30.3225 101.458 30.5852C101.365 30.8426 101.231 31.0615 101.055 31.2417C100.88 31.422 100.668 31.561 100.421 31.6589C100.173 31.7567 99.8943 31.8056 99.5847 31.8056C99.2493 31.8056 98.9525 31.7825 98.6945 31.7361C98.4365 31.6898 98.2249 31.6434 98.0597 31.5971V25.8423L98.7796 25.7188V27.8739ZM98.7796 31.0872C98.8519 31.1078 98.9525 31.1284 99.0815 31.149C99.2157 31.1645 99.3809 31.1722 99.577 31.1722C99.964 31.1722 100.274 31.0461 100.506 30.7937C100.738 30.5362 100.854 30.1732 100.854 29.7046C100.854 29.4986 100.834 29.3055 100.792 29.1252C100.751 28.945 100.684 28.7905 100.591 28.6618C100.498 28.5279 100.377 28.4249 100.227 28.3528C100.083 28.2755 99.9072 28.2369 99.7008 28.2369C99.5047 28.2369 99.3241 28.2704 99.159 28.3373C98.9938 28.4043 98.8674 28.4738 98.7796 28.5459V31.0872Z" fill="#27235C"/>
<path d="M103.338 31.7129H102.618V27.6962H103.338V31.7129ZM102.974 26.9701C102.845 26.9701 102.734 26.9289 102.641 26.8465C102.554 26.759 102.51 26.6431 102.51 26.4989C102.51 26.3547 102.554 26.2414 102.641 26.159C102.734 26.0715 102.845 26.0277 102.974 26.0277C103.103 26.0277 103.212 26.0715 103.299 26.159C103.392 26.2414 103.439 26.3547 103.439 26.4989C103.439 26.6431 103.392 26.759 103.299 26.8465C103.212 26.9289 103.103 26.9701 102.974 26.9701Z" fill="#27235C"/>
<path d="M105.784 31.7902C105.34 31.7799 105.025 31.6846 104.839 31.5044C104.653 31.3241 104.561 31.0435 104.561 30.6624V25.8423L105.28 25.7188V30.5465C105.28 30.665 105.291 30.7628 105.311 30.8401C105.332 30.9173 105.366 30.9791 105.412 31.0255C105.458 31.0718 105.52 31.1078 105.598 31.1336C105.675 31.1542 105.771 31.1722 105.884 31.1877L105.784 31.7902Z" fill="#27235C"/>
<path d="M107.413 31.7129H106.693V27.6962H107.413V31.7129ZM107.049 26.9701C106.92 26.9701 106.809 26.9289 106.716 26.8465C106.628 26.759 106.584 26.6431 106.584 26.4989C106.584 26.3547 106.628 26.2414 106.716 26.159C106.809 26.0715 106.92 26.0277 107.049 26.0277C107.178 26.0277 107.286 26.0715 107.374 26.159C107.467 26.2414 107.513 26.3547 107.513 26.4989C107.513 26.6431 107.467 26.759 107.374 26.8465C107.286 26.9289 107.178 26.9701 107.049 26.9701Z" fill="#27235C"/>
<path d="M109.324 27.6962H110.849V28.2987H109.324V30.1526C109.324 30.3534 109.339 30.5208 109.37 30.6547C109.401 30.7834 109.448 30.8864 109.51 30.9637C109.572 31.0358 109.649 31.0872 109.742 31.1181C109.835 31.149 109.943 31.1645 110.067 31.1645C110.284 31.1645 110.457 31.1413 110.586 31.095C110.72 31.0435 110.813 31.0074 110.864 30.9868L111.004 31.5816C110.932 31.6177 110.805 31.6614 110.624 31.7129C110.444 31.7696 110.237 31.7979 110.005 31.7979C109.732 31.7979 109.505 31.7644 109.324 31.6975C109.149 31.6254 109.007 31.5198 108.898 31.3808C108.79 31.2417 108.712 31.0718 108.666 30.871C108.625 30.665 108.604 30.4281 108.604 30.1603V26.5762L109.324 26.4526V27.6962Z" fill="#27235C"/>
<path d="M111.293 32.4622C111.35 32.488 111.422 32.5111 111.51 32.5317C111.602 32.5575 111.693 32.5703 111.781 32.5703C112.064 32.5703 112.286 32.506 112.446 32.3772C112.606 32.2536 112.751 32.0502 112.88 31.767C112.555 31.149 112.25 30.495 111.966 29.805C111.688 29.1098 111.455 28.4069 111.27 27.6962H112.044C112.1 27.9279 112.168 28.1777 112.245 28.4455C112.328 28.7133 112.418 28.9888 112.516 29.272C112.614 29.5552 112.72 29.8385 112.833 30.1217C112.947 30.4049 113.065 30.6779 113.189 30.9405C113.385 30.3998 113.556 29.8642 113.7 29.3338C113.845 28.8034 113.981 28.2575 114.111 27.6962H114.854C114.668 28.4532 114.461 29.1819 114.234 29.8822C114.007 30.5774 113.762 31.2289 113.499 31.8365C113.396 32.0683 113.287 32.2665 113.174 32.4313C113.066 32.6012 112.944 32.7403 112.81 32.8484C112.676 32.9566 112.524 33.0364 112.353 33.0879C112.188 33.1394 112 33.1651 111.788 33.1651C111.731 33.1651 111.672 33.16 111.61 33.1497C111.548 33.1445 111.486 33.1342 111.424 33.1188C111.368 33.1085 111.313 33.0956 111.262 33.0802C111.215 33.0647 111.182 33.0518 111.161 33.0415L111.293 32.4622Z" fill="#27235C"/>
<path d="M116.253 31.2958C116.253 31.4348 116.207 31.5559 116.114 31.6589C116.021 31.7619 115.895 31.8133 115.735 31.8133C115.575 31.8133 115.448 31.7619 115.355 31.6589C115.262 31.5559 115.216 31.4348 115.216 31.2958C115.216 31.1568 115.262 31.0358 115.355 30.9328C115.448 30.8298 115.575 30.7783 115.735 30.7783C115.895 30.7783 116.021 30.8298 116.114 30.9328C116.207 31.0358 116.253 31.1568 116.253 31.2958Z" fill="#27235C"/>
<path d="M110.005 20.4797C109.12 20.4797 108.325 20.3082 107.621 19.965C106.935 19.6038 106.348 19.1161 105.86 18.502C105.39 17.888 105.029 17.1836 104.776 16.3889C104.541 15.5761 104.424 14.7092 104.424 13.7881C104.442 12.867 104.577 12.009 104.83 11.2144C105.083 10.4016 105.444 9.69722 105.914 9.1012C106.402 8.48712 106.989 8.0085 107.675 7.66533C108.361 7.32217 109.138 7.15059 110.005 7.15059C110.836 7.15059 111.613 7.32217 112.335 7.66533C113.076 8.0085 113.726 8.48712 114.286 9.1012C114.864 9.69722 115.315 10.4016 115.64 11.2144C115.965 12.009 116.128 12.8579 116.128 13.761C116.128 14.7002 115.965 15.5852 115.64 16.416C115.315 17.2287 114.873 17.9422 114.313 18.5562C113.753 19.1523 113.103 19.6218 112.362 19.965C111.622 20.3082 110.836 20.4797 110.005 20.4797ZM109.572 17.31C110.204 17.31 110.773 17.1655 111.278 16.8765C111.784 16.5695 112.181 16.1541 112.47 15.6303C112.777 15.1065 112.931 14.5105 112.931 13.8423C112.931 13.1559 112.777 12.5509 112.47 12.0271C112.181 11.4853 111.784 11.0699 111.278 10.7809C110.773 10.4738 110.204 10.3203 109.572 10.3203C108.957 10.3203 108.398 10.4738 107.892 10.7809C107.386 11.0879 106.98 11.5033 106.673 12.0271C106.384 12.5509 106.239 13.1559 106.239 13.8423C106.239 14.5105 106.384 15.1065 106.673 15.6303C106.98 16.1541 107.386 16.5695 107.892 16.8765C108.398 17.1655 108.957 17.31 109.572 17.31ZM104.559 20.5068C104.072 20.5068 103.711 20.4256 103.476 20.263C103.241 20.1185 103.096 19.9289 103.042 19.6941C102.988 19.4412 102.961 19.1613 102.961 18.8542V2.70754C102.961 2.4005 102.988 2.12958 103.042 1.89478C103.096 1.64193 103.241 1.44325 103.476 1.29876C103.711 1.15428 104.072 1.08203 104.559 1.08203C105.065 1.08203 105.426 1.15428 105.643 1.29876C105.86 1.44325 105.995 1.64193 106.049 1.89478C106.104 2.14764 106.131 2.41856 106.131 2.70754V19.3961C106.059 19.7934 105.905 20.0734 105.67 20.2359C105.453 20.4165 105.083 20.5068 104.559 20.5068Z" fill="#27235C" stroke="#27235C" stroke-width="0.2"/>
<path d="M94.8878 20.6662C93.7138 20.6662 92.6843 20.4766 91.7993 20.0973C90.9323 19.718 90.2008 19.2033 89.6048 18.5531C89.0268 17.8848 88.5843 17.1443 88.2772 16.3315C87.9882 15.5007 87.8438 14.6428 87.8438 13.7578C87.8438 12.4574 88.1418 11.3015 88.7378 10.2901C89.3338 9.27865 90.1557 8.48396 91.2032 7.906C92.2689 7.32804 93.488 7.03906 94.8607 7.03906C95.8361 7.03906 96.694 7.19258 97.4345 7.49962C98.1751 7.80666 98.7892 8.21304 99.2768 8.71875C99.7826 9.2064 100.162 9.74824 100.415 10.3443C100.686 10.9403 100.821 11.5182 100.821 12.0781C100.821 13.0354 100.586 13.7307 100.117 14.1642C99.6652 14.5977 99.0962 14.8144 98.4099 14.8144H91.2574C91.2755 15.4285 91.4651 15.9613 91.8264 16.4128C92.2057 16.8643 92.6753 17.2165 93.2352 17.4694C93.8132 17.7042 94.4002 17.8216 94.9962 17.8216C95.4477 17.8216 95.8451 17.7945 96.1883 17.7403C96.5495 17.6861 96.8566 17.6229 97.1094 17.5507C97.3623 17.4604 97.579 17.3701 97.7596 17.2798C97.9583 17.1894 98.1389 17.1082 98.3015 17.0359C98.4641 16.9637 98.6176 16.9185 98.7621 16.9005C98.9608 16.8824 99.1594 16.9276 99.3581 17.0359C99.5568 17.1443 99.7193 17.3339 99.8458 17.6049C99.9541 17.7855 100.026 17.9571 100.063 18.1196C100.117 18.2641 100.144 18.4086 100.144 18.5531C100.144 18.9143 99.9271 19.2575 99.4936 19.5826C99.0601 19.8896 98.446 20.1425 97.6513 20.3411C96.8746 20.5579 95.9535 20.6662 94.8878 20.6662ZM91.2574 12.8909H96.8114C97.1185 12.8909 97.3533 12.8457 97.5158 12.7554C97.6784 12.6471 97.7596 12.4303 97.7596 12.1052C97.7596 11.6898 97.6332 11.3196 97.3804 10.9945C97.1275 10.6513 96.7843 10.3894 96.3508 10.2088C95.9173 10.0101 95.4116 9.91079 94.8336 9.91079C94.1654 9.91079 93.5603 10.0462 93.0184 10.3172C92.4766 10.57 92.0431 10.9222 91.718 11.3737C91.4109 11.8253 91.2574 12.331 91.2574 12.8909Z" fill="#27235C" stroke="#27235C" stroke-width="0.2"/>
<path d="M70.6466 20.4243C70.2854 20.4243 69.9964 20.3611 69.7796 20.2347C69.5629 20.0902 69.4004 19.9276 69.292 19.747C69.2017 19.5664 69.1385 19.4129 69.1023 19.2864L63.7922 3.73576C63.6116 3.15781 63.5845 2.72434 63.7109 2.43536C63.8373 2.12832 64.2076 1.87546 64.8217 1.67679C65.2371 1.5323 65.5713 1.46909 65.8241 1.48715C66.077 1.50521 66.2847 1.61357 66.4473 1.81225C66.6279 1.99286 66.7814 2.28184 66.9078 2.67919L70.8092 14.4912L74.3041 2.78755C74.3583 2.60694 74.4305 2.42633 74.5208 2.24572C74.6292 2.04704 74.7918 1.88449 75.0085 1.75806C75.2253 1.63164 75.5233 1.56842 75.9026 1.56842C76.3361 1.56842 76.6612 1.64067 76.8779 1.78516C77.0947 1.92965 77.2482 2.0922 77.3385 2.27281C77.4469 2.43536 77.5191 2.58888 77.5552 2.73337L81.0502 14.5725L84.9786 2.70628C85.105 2.29087 85.2495 1.98383 85.4121 1.78516C85.5927 1.58648 85.8185 1.47812 86.0894 1.46006C86.3603 1.42393 86.6945 1.47812 87.0918 1.62261C87.5072 1.7671 87.8053 1.92965 87.9859 2.11026C88.1665 2.27281 88.2568 2.48954 88.2568 2.76046C88.2568 3.01332 88.1936 3.33842 88.0672 3.73576L82.7841 19.3135C82.748 19.4219 82.6757 19.5664 82.5674 19.747C82.4771 19.9276 82.3235 20.0902 82.1068 20.2347C81.89 20.3611 81.592 20.4243 81.2127 20.4243C80.8334 20.4243 80.5354 20.343 80.3187 20.1805C80.1019 20.0179 79.9394 19.8373 79.831 19.6386C79.7226 19.44 79.6504 19.2955 79.6143 19.2052L75.9297 7.28479L72.2451 19.1781C72.2089 19.3045 72.1367 19.4671 72.0283 19.6657C71.938 19.8644 71.7845 20.045 71.5678 20.2076C71.351 20.3521 71.044 20.4243 70.6466 20.4243Z" fill="#27235C" stroke="#27235C" stroke-width="0.2"/>
<path d="M56.5644 20.6699C56.0948 20.6699 55.5981 20.6157 55.0743 20.5073C54.5505 20.417 54.0448 20.2816 53.5571 20.101C53.0695 19.9023 52.645 19.6765 52.2838 19.4237C51.9406 19.1527 51.7239 18.8547 51.6336 18.5296C51.5613 18.349 51.5342 18.1774 51.5523 18.0149C51.5704 17.8343 51.6245 17.6537 51.7148 17.4731C51.8052 17.2744 51.9406 17.0757 52.1212 16.877C52.2838 16.6784 52.4464 16.57 52.6089 16.5519C52.7895 16.5158 53.0153 16.57 53.2862 16.7145C53.521 16.8048 53.7739 16.9222 54.0448 17.0667C54.3338 17.2112 54.6228 17.3557 54.9118 17.5001C55.2188 17.6446 55.5259 17.762 55.8329 17.8523C56.158 17.9426 56.4741 17.9878 56.7812 17.9878C57.4495 17.9878 57.9823 17.8794 58.3796 17.6627C58.777 17.4279 58.9757 17.1028 58.9757 16.6874C58.9757 16.4526 58.9125 16.2449 58.786 16.0643C58.6596 15.8837 58.488 15.7392 58.2713 15.6308C58.0726 15.5044 57.8287 15.396 57.5398 15.3057C57.2688 15.1973 56.9708 15.107 56.6457 15.0348C56.3387 14.9445 56.0135 14.8452 55.6704 14.7368C55.2188 14.6104 54.7673 14.4568 54.3157 14.2762C53.8642 14.0956 53.4578 13.8608 53.0966 13.5718C52.7534 13.2829 52.4734 12.9216 52.2567 12.4882C52.04 12.0547 51.9316 11.5129 51.9316 10.8627C51.9316 10.0499 52.1212 9.36358 52.5005 8.80368C52.8979 8.22573 53.4668 7.78323 54.2074 7.47619C54.9479 7.16915 55.842 7.01562 56.8895 7.01562C57.2508 7.01562 57.5939 7.04272 57.9191 7.0969C58.2622 7.15108 58.5873 7.23236 58.8944 7.34073C59.2195 7.43103 59.5266 7.54843 59.8155 7.69292C60.1226 7.83741 60.4116 7.99996 60.6825 8.18057C61.134 8.43343 61.3688 8.73144 61.3869 9.0746C61.405 9.3997 61.2785 9.7519 61.0076 10.1312C60.8089 10.384 60.6103 10.5646 60.4116 10.673C60.2129 10.7633 60.0052 10.7633 59.7884 10.673C59.4995 10.5285 59.1834 10.375 58.8402 10.2125C58.5151 10.0318 58.1719 9.87832 57.8107 9.7519C57.4675 9.62547 57.1063 9.56225 56.727 9.56225C56.3657 9.56225 56.0406 9.61644 55.7516 9.7248C55.4627 9.83317 55.2459 9.98669 55.1014 10.1854C54.9569 10.384 54.8847 10.6188 54.8847 10.8898C54.8847 11.1426 54.9569 11.3503 55.1014 11.5129C55.2459 11.6754 55.4356 11.8109 55.6704 11.9192C55.9052 12.0276 56.1851 12.1269 56.5102 12.2172C56.8354 12.2895 57.1785 12.3617 57.5398 12.434C58.0455 12.5423 58.5602 12.6778 59.084 12.8404C59.6078 13.0029 60.0865 13.2287 60.5199 13.5177C60.9715 13.8066 61.3327 14.1949 61.6037 14.6826C61.8746 15.1522 62.01 15.7663 62.01 16.5248C62.01 17.8433 61.5224 18.8638 60.547 19.5862C59.5898 20.3087 58.2622 20.6699 56.5644 20.6699Z" fill="#27235C" stroke="#27235C" stroke-width="0.2"/>
<path d="M43.7706 20.6662C42.5966 20.6662 41.5671 20.4766 40.6821 20.0973C39.8151 19.718 39.0836 19.2033 38.4876 18.5531C37.9096 17.8848 37.4671 17.1443 37.16 16.3315C36.8711 15.5007 36.7266 14.6428 36.7266 13.7578C36.7266 12.4574 37.0246 11.3015 37.6206 10.2901C38.2167 9.27865 39.0385 8.48396 40.086 7.906C41.1517 7.32804 42.3709 7.03906 43.7435 7.03906C44.7189 7.03906 45.5768 7.19258 46.3173 7.49962C47.0579 7.80666 47.672 8.21304 48.1596 8.71875C48.6654 9.2064 49.0447 9.74824 49.2975 10.3443C49.5685 10.9403 49.7039 11.5182 49.7039 12.0781C49.7039 13.0354 49.4691 13.7307 48.9995 14.1642C48.548 14.5977 47.979 14.8144 47.2927 14.8144H40.1402C40.1583 15.4285 40.3479 15.9613 40.7092 16.4128C41.0885 16.8643 41.5581 17.2165 42.118 17.4694C42.696 17.7042 43.283 17.8216 43.879 17.8216C44.3306 17.8216 44.7279 17.7945 45.0711 17.7403C45.4323 17.6861 45.7394 17.6229 45.9922 17.5507C46.2451 17.4604 46.4618 17.3701 46.6425 17.2798C46.8411 17.1894 47.0218 17.1082 47.1843 17.0359C47.3469 16.9637 47.5004 16.9185 47.6449 16.9005C47.8436 16.8824 48.0422 16.9276 48.2409 17.0359C48.4396 17.1443 48.6022 17.3339 48.7286 17.6049C48.837 17.7855 48.9092 17.9571 48.9453 18.1196C48.9995 18.2641 49.0266 18.4086 49.0266 18.5531C49.0266 18.9143 48.8099 19.2575 48.3764 19.5826C47.9429 19.8896 47.3288 20.1425 46.5341 20.3411C45.7574 20.5579 44.8363 20.6662 43.7706 20.6662ZM40.1402 12.8909H45.6942C46.0013 12.8909 46.2361 12.8457 46.3986 12.7554C46.5612 12.6471 46.6425 12.4303 46.6425 12.1052C46.6425 11.6898 46.516 11.3196 46.2632 10.9945C46.0103 10.6513 45.6671 10.3894 45.2336 10.2088C44.8002 10.0101 44.2944 9.91079 43.7165 9.91079C43.0482 9.91079 42.4431 10.0462 41.9012 10.3172C41.3594 10.57 40.9259 10.9222 40.6008 11.3737C40.2938 11.8253 40.1402 12.331 40.1402 12.8909Z" fill="#27235C" stroke="#27235C" stroke-width="0.2"/>
<path d="M34.1047 20.5061C33.4365 20.5061 32.8404 20.4609 32.3166 20.3706C31.8109 20.2803 31.3684 20.1268 30.9891 19.9101C30.6279 19.6933 30.3298 19.4043 30.095 19.0431C29.8602 18.6638 29.6796 18.2033 29.5532 17.6614C29.4448 17.1196 29.3906 16.4694 29.3906 15.7108V2.6526C29.3906 2.34556 29.4177 2.07464 29.4719 1.83984C29.5441 1.58699 29.6886 1.38832 29.9054 1.24383C30.1402 1.08127 30.5105 1 31.0162 1C31.5219 1 31.8831 1.07224 32.0999 1.21673C32.3347 1.36122 32.4792 1.5599 32.5334 1.81275C32.6056 2.04755 32.6417 2.31847 32.6417 2.62551V15.5754C32.6417 15.9185 32.6598 16.2075 32.6959 16.4423C32.7501 16.659 32.8314 16.8397 32.9398 16.9841C33.0662 17.1106 33.2197 17.2009 33.4003 17.2551C33.599 17.3092 33.8338 17.3363 34.1047 17.3363C34.3395 17.3363 34.5473 17.3634 34.7279 17.4176C34.9265 17.4718 35.0801 17.6073 35.1884 17.824C35.3149 18.0407 35.3781 18.3929 35.3781 18.8806C35.3781 19.3863 35.3149 19.7565 35.1884 19.9913C35.0801 20.2261 34.9265 20.3706 34.7279 20.4248C34.5292 20.479 34.3215 20.5061 34.1047 20.5061Z" fill="#27235C" stroke="#27235C" stroke-width="0.2"/>
<path d="M24.8475 20.5066C24.3598 20.5066 23.9986 20.4253 23.7638 20.2628C23.529 20.1183 23.3845 19.9286 23.3303 19.6938C23.2761 19.441 23.249 19.161 23.249 18.854V8.77585C23.249 8.48687 23.2761 8.22498 23.3303 7.99018C23.4025 7.73733 23.547 7.53865 23.7638 7.39416C23.9986 7.24967 24.3688 7.17743 24.8746 7.17743C25.3803 7.17743 25.7415 7.24967 25.9583 7.39416C26.1931 7.53865 26.3376 7.73733 26.3917 7.99018C26.4459 8.24304 26.473 8.52299 26.473 8.83003V18.8811C26.473 19.1881 26.4459 19.4681 26.3917 19.7209C26.3376 19.9557 26.1931 20.1454 25.9583 20.2899C25.7415 20.4343 25.3712 20.5066 24.8475 20.5066ZM24.8475 4.54953C24.3237 4.54953 23.9353 4.47728 23.6825 4.33279C23.4477 4.17024 23.2941 3.95351 23.2219 3.68259C23.1677 3.41167 23.1406 3.11366 23.1406 2.78856C23.1406 2.4454 23.1677 2.14739 23.2219 1.89453C23.2941 1.64167 23.4567 1.443 23.7096 1.29851C23.9624 1.13596 24.3508 1.05469 24.8746 1.05469C25.4164 1.05469 25.8047 1.13596 26.0395 1.29851C26.2743 1.46106 26.4279 1.6778 26.5001 1.94872C26.5724 2.20157 26.6085 2.49958 26.6085 2.84274C26.6085 3.14979 26.5724 3.43876 26.5001 3.70968C26.4279 3.9806 26.2743 4.1883 26.0395 4.33279C25.8047 4.47728 25.4074 4.54953 24.8475 4.54953Z" fill="#27235C" stroke="#27235C" stroke-width="0.2"/>
<path d="M2.59846 20.4765C2.12886 20.4765 1.77665 20.4042 1.54185 20.2597C1.30705 20.1152 1.15352 19.9166 1.08128 19.6637C1.02709 19.4109 1 19.1309 1 18.8239V3.19191C1 2.90293 1.02709 2.64105 1.08128 2.40625C1.15352 2.15339 1.30705 1.95472 1.54185 1.81023C1.77665 1.64768 2.14692 1.56641 2.65265 1.56641C3.03195 1.56641 3.3119 1.5935 3.49252 1.64768C3.6912 1.6838 3.84472 1.74702 3.95309 1.83732C4.06146 1.90957 4.16983 2.0089 4.2782 2.13533L10.8888 11.3736H10.2657L16.9034 2.10824C17.0298 1.96375 17.1562 1.85538 17.2827 1.78314C17.4091 1.71089 17.5716 1.65671 17.7703 1.62059C17.969 1.58447 18.2309 1.56641 18.556 1.56641C19.0437 1.56641 19.4049 1.64768 19.6397 1.81023C19.8745 1.95472 20.019 2.15339 20.0732 2.40625C20.1454 2.65911 20.1816 2.93906 20.1816 3.2461V18.878C20.1816 19.149 20.1454 19.4109 20.0732 19.6637C20.019 19.9166 19.8745 20.1152 19.6397 20.2597C19.4049 20.4042 19.0346 20.4765 18.5289 20.4765C18.0412 20.4765 17.68 20.3952 17.4452 20.2326C17.2104 20.0881 17.0569 19.8895 16.9846 19.6366C16.9305 19.3838 16.9034 19.1128 16.9034 18.8239V7.20149L11.9725 14.3266C11.9183 14.3989 11.837 14.4982 11.7287 14.6246C11.6203 14.733 11.4758 14.8323 11.2952 14.9227C11.1146 15.013 10.8707 15.0581 10.5637 15.0581C10.2747 15.0581 10.0399 15.013 9.85928 14.9227C9.67866 14.8323 9.53417 14.733 9.4258 14.6246C9.33549 14.5163 9.24518 14.4079 9.15487 14.2995L4.25111 7.20149V18.878C4.25111 19.149 4.21499 19.4109 4.14274 19.6637C4.08856 19.9166 3.94406 20.1152 3.70926 20.2597C3.47446 20.4042 3.10419 20.4765 2.59846 20.4765Z" fill="#27235C" stroke="#27235C" stroke-width="0.2"/>
</svg>
