<svg width="22" height="21" viewBox="0 0 22 21" fill="none" xmlns="http://www.w3.org/2000/svg">
<g clip-path="url(#clip0_3939_6051)">
<path d="M19.7271 6.0051C19.7162 5.46513 19.7059 4.95503 19.7059 4.46154C19.7059 4.07492 19.3751 3.76149 18.9669 3.76149C15.8067 3.76149 13.4006 2.90108 11.395 1.05369C11.1081 0.789349 10.6516 0.789442 10.3648 1.05369C8.35936 2.90108 5.95366 3.76149 2.79365 3.76149C2.38555 3.76149 2.0547 4.07492 2.0547 4.46154C2.0547 4.95512 2.04446 5.46541 2.03352 6.00548C1.93223 11.0305 1.79351 17.9126 10.6379 20.8169C10.7163 20.8426 10.7981 20.8555 10.8798 20.8555C10.9616 20.8555 11.0435 20.8426 11.1218 20.8169C19.9669 17.9125 19.8284 11.0303 19.7271 6.0051ZM10.8799 19.4126C3.29475 16.8021 3.40943 11.0836 3.51121 6.03217C3.51732 5.729 3.52323 5.43517 3.52737 5.14712C6.48708 5.02877 8.85386 4.17909 10.8799 2.50699C12.9062 4.17909 15.2734 5.02886 18.2333 5.14712C18.2375 5.43508 18.2434 5.72872 18.2495 6.03171C18.3512 11.0834 18.4657 16.802 10.8799 19.4126Z" fill="#FFE388"/>
<path d="M13.4231 8.42375L9.85657 11.8024L8.33464 10.3606C8.04606 10.0873 7.57816 10.0873 7.28968 10.3606C7.0011 10.634 7.0011 11.0772 7.28968 11.3506L9.33409 13.2874C9.47833 13.4241 9.6675 13.4924 9.85657 13.4924C10.0456 13.4924 10.2348 13.4241 10.3791 13.2874L14.468 9.41381C14.7566 9.14041 14.7566 8.69714 14.4681 8.42384C14.1796 8.15045 13.7117 8.15036 13.4231 8.42375Z" fill="#FFE388"/>
</g>
<defs>
<clipPath id="clip0_3939_6051">
<rect width="21.1111" height="20" fill="white" transform="translate(0.323242 0.855469)"/>
</clipPath>
</defs>
</svg>
