<svg width="137" height="29" viewBox="0 0 137 29" fill="none" xmlns="http://www.w3.org/2000/svg">
<g clip-path="url(#clip0_1281_1331)">
<path d="M79.4576 11.4144H74.0646V11.9481C75.7515 11.9481 76.0227 12.2854 76.0227 14.2812V17.8791C76.0227 19.8746 75.7518 20.2401 74.0646 20.2401C72.7695 20.0716 71.8955 19.4249 70.6904 18.1882L69.3046 16.783C71.1724 16.4734 72.1664 15.3775 72.1664 14.1406C72.1664 12.595 70.7507 11.4144 68.0993 11.4144H62.7969V11.9481C64.4838 11.9481 64.755 12.2854 64.755 14.2812V17.8791C64.755 19.8746 64.4838 20.2401 62.7969 20.2401V20.7741H68.7921V20.2401C67.1053 20.2401 66.8341 19.8746 66.8341 17.8791V16.8675H67.346L70.6904 20.7741H79.4576C83.7657 20.7741 85.6338 18.6382 85.6338 16.08C85.6338 13.5223 83.766 11.4144 79.4576 11.4144ZM66.8343 15.9955V12.2577H68.0693C69.4249 12.2577 70.0277 13.129 70.0277 14.1408C70.0277 15.1247 69.4249 15.9958 68.0693 15.9958L66.8343 15.9955ZM79.5482 19.9028H79.3371C78.2528 19.9028 78.1021 19.65 78.1021 18.357V12.2577C78.1021 12.2577 79.4277 12.2577 79.5482 12.2577C82.6814 12.2577 83.2535 14.3936 83.2535 16.0521C83.2535 17.7664 82.6812 19.9028 79.5482 19.9028Z" fill="white"/>
<path d="M46.0178 17.0368L48.0966 11.3025C48.6994 9.64425 48.4282 9.16661 46.5001 9.16661V8.60423H52.164V9.16661C50.266 9.16661 49.8142 9.58815 49.0609 11.64L45.626 21.2527H45.2346L42.1612 12.4549L39.0282 21.2527H38.6365L35.2924 11.64C34.5694 9.58815 34.0874 9.16661 32.3398 9.16661V8.60423H39.0282V9.16661C37.2505 9.16661 36.7682 9.55999 37.4012 11.3025L39.4197 17.0368L42.4626 8.60423H43.0352L46.0178 17.0368Z" fill="white"/>
<path d="M56.2559 21.1396C52.9421 21.1396 50.2305 18.8631 50.2305 16.0801C50.2305 13.3257 52.9423 11.0488 56.2559 11.0488C59.5701 11.0488 62.2814 13.3257 62.2814 16.0801C62.2814 18.8631 59.5701 21.1396 56.2559 21.1396ZM56.2559 11.9207C53.4845 11.9207 52.5201 14.2533 52.5201 16.0803C52.5201 17.9358 53.4845 20.2404 56.2559 20.2404C59.0581 20.2404 60.0222 17.9358 60.0222 16.0803C60.0222 14.2533 59.0581 11.9207 56.2559 11.9207Z" fill="white"/>
<path d="M93.075 20.2129V20.7751H86.1758V20.2129C88.1945 20.2129 88.556 19.7353 88.556 16.9241V12.4273C88.556 9.61608 88.1945 9.16661 86.1758 9.16661V8.60423H92.4121C95.5151 8.60423 97.2329 10.094 97.2329 12.09C97.2329 14.0294 95.5151 15.5471 92.4121 15.5471H90.6947V16.9239C90.6947 19.7353 91.0563 20.2129 93.075 20.2129ZM92.4121 9.61608H90.6947V14.5071H92.4121C94.0995 14.5071 94.8826 13.4109 94.8826 12.09C94.8826 10.7408 94.0995 9.61608 92.4121 9.61608Z" fill="white"/>
<path d="M118.004 17.7177L117.854 18.2235C117.583 19.1511 117.251 19.4884 115.112 19.4884H114.69C113.124 19.4884 112.852 19.1511 112.852 17.1556V15.8628C115.202 15.8628 115.383 16.0593 115.383 17.5211H115.956V13.3328H115.383C115.383 14.7944 115.202 14.9911 112.852 14.9911V11.8433H114.509C116.648 11.8433 116.98 12.1806 117.251 13.1082L117.402 13.6419H117.884L117.673 11H108.815V11.5337C110.502 11.5337 110.773 11.871 110.773 13.8668V17.4647C110.773 19.2903 110.543 19.7502 109.213 19.8158C107.949 19.6356 107.081 18.9923 105.893 17.7738L104.507 16.3686C106.375 16.059 107.37 14.9631 107.37 13.7262C107.37 12.1806 105.954 11 103.302 11H98V11.5337C99.6869 11.5337 99.9581 11.871 99.9581 13.8668V17.4647C99.9581 19.4603 99.6871 19.8257 98 19.8257V20.3597H103.996V19.8257C102.309 19.8257 102.037 19.4603 102.037 17.4647V16.4531H102.549L105.893 20.3597H118.276L118.457 17.718L118.004 17.7177ZM102.037 15.5811V11.8433H103.272C104.628 11.8433 105.231 12.7146 105.231 13.7264C105.231 14.7104 104.628 15.5814 103.272 15.5814L102.037 15.5811Z" fill="white"/>
<path d="M124.047 21.1394C122.842 21.1394 121.787 20.5493 121.336 20.1836C121.185 20.3244 120.914 20.746 120.854 21.1394H120.281V17.261H120.884C121.125 19.1159 122.511 20.212 124.288 20.212C125.252 20.212 126.036 19.7062 126.036 18.8631C126.036 18.1324 125.343 17.5701 124.108 17.0361L122.39 16.2773C121.185 15.7428 120.281 14.8152 120.281 13.5788C120.281 12.2296 121.637 11.0774 123.505 11.0774C124.499 11.0774 125.343 11.4147 125.855 11.8081C126.006 11.6957 126.156 11.3863 126.247 11.0488H126.819V14.3658H126.186C125.975 13.0446 125.192 11.9484 123.596 11.9484C122.752 11.9484 121.968 12.3982 121.968 13.1011C121.968 13.8318 122.601 14.2252 124.047 14.8436L125.704 15.6025C127.151 16.2489 127.723 17.2894 127.723 18.1324C127.723 19.9029 126.066 21.1394 124.047 21.1394Z" fill="white"/>
<path d="M133.325 21.1394C132.119 21.1394 131.065 20.5493 130.613 20.1836C130.463 20.3244 130.192 20.746 130.131 21.1394H129.559V17.261H130.161C130.402 19.1159 131.788 20.212 133.566 20.212C134.53 20.212 135.313 19.7062 135.313 18.8631C135.313 18.1324 134.62 17.5701 133.385 17.0361L131.668 16.2773C130.463 15.7428 129.559 14.8152 129.559 13.5788C129.559 12.2296 130.914 11.0774 132.782 11.0774C133.777 11.0774 134.62 11.4147 135.132 11.8081C135.283 11.6957 135.434 11.3863 135.524 11.0488H136.096V14.3658H135.464C135.253 13.0446 134.47 11.9484 132.873 11.9484C132.029 11.9484 131.246 12.3982 131.246 13.1011C131.246 13.8318 131.878 14.2252 133.325 14.8436L134.982 15.6025C136.428 16.2489 137 17.2894 137 18.1324C137 19.9029 135.343 21.1394 133.325 21.1394Z" fill="white"/>
<path d="M2.20703 14.4994C2.20703 19.4231 5.27406 23.678 9.72148 25.6944L3.36138 9.4371C2.62158 10.9841 2.20703 12.6961 2.20703 14.4994Z" fill="white"/>
<path d="M24.5434 13.8718C24.5434 12.3345 23.9515 11.2699 23.4438 10.4412C22.768 9.41657 22.1345 8.54886 22.1345 7.52423C22.1345 6.38078 23.064 5.31638 24.3734 5.31638C24.4325 5.31638 24.4886 5.32325 24.5462 5.32632C22.174 3.29883 19.0137 2.06094 15.5425 2.06094C10.8845 2.06094 6.7864 4.29057 4.40234 7.66766C4.71516 7.67642 5.00996 7.68257 5.26037 7.68257C6.65498 7.68257 8.81375 7.5247 8.81375 7.5247C9.53249 7.48517 9.61723 8.47004 8.89924 8.54933C8.89924 8.54933 8.17695 8.62862 7.37322 8.66792L12.2286 22.1415L15.1464 13.9774L13.0691 8.66744C12.3511 8.62815 11.671 8.54886 11.671 8.54886C10.9525 8.50957 11.0367 7.4847 11.7552 7.52423C11.7552 7.52423 13.9571 7.6821 15.2672 7.6821C16.6616 7.6821 18.8206 7.52423 18.8206 7.52423C19.5398 7.4847 19.6243 8.46957 18.9061 8.54886C18.9061 8.54886 18.1823 8.62815 17.3801 8.66744L22.1984 22.039L23.5283 17.8929C24.1047 16.1724 24.5434 14.9367 24.5434 13.8718Z" fill="white"/>
<path d="M15.7738 15.5878L11.7734 26.4327C12.9679 26.7602 14.2311 26.9394 15.5399 26.9394C17.0926 26.9394 18.5816 26.689 19.9676 26.2343C19.9318 26.1811 19.8993 26.1245 19.8727 26.063L15.7738 15.5878Z" fill="white"/>
<path d="M27.2389 8.53214C27.2962 8.92835 27.3287 9.35369 27.3287 9.81121C27.3287 11.0735 27.076 12.4924 26.3149 14.2667L22.2422 25.2522C26.2061 23.0957 28.8722 19.0892 28.8722 14.5003C28.8725 12.3376 28.2803 10.304 27.2389 8.53214Z" fill="white"/>
<path d="M15.5424 0C6.97254 0 0 6.50448 0 14.4996C0 22.4958 6.97254 29 15.5424 29C24.112 29 31.0856 22.4958 31.0856 14.4996C31.0853 6.50448 24.112 0 15.5424 0ZM15.5424 28.3354C7.36553 28.3354 0.712654 22.1286 0.712654 14.4996C0.712654 6.87112 7.36527 0.664863 15.5424 0.664863C23.719 0.664863 30.3714 6.87112 30.3714 14.4996C30.3714 22.1286 23.719 28.3354 15.5424 28.3354Z" fill="white"/>
</g>
<defs>
<clipPath id="clip0_1281_1331">
<rect width="137" height="29" fill="white"/>
</clipPath>
</defs>
</svg>
