<svg xmlns="http://www.w3.org/2000/svg" width="23" height="16" fill="none" xmlns:v="https://vecta.io/nano"><path d="M.648 8.065a7.5 7.5 0 0 1 7.5-7.5h6.548a7.5 7.5 0 0 1 0 15H8.148a7.5 7.5 0 0 1-7.5-7.5z" fill="#d6d4d1"/><path d="M.832 12.911a2.47 2.47 0 0 1 2.47-2.469h16.256a2.47 2.47 0 0 1 2.47 2.47 2.47 2.47 0 0 1-2.47 2.47H3.302a2.47 2.47 0 0 1-2.47-2.47z" fill="#11892e"/><path d="M.832 3.215a2.47 2.47 0 0 1 2.47-2.47h16.256a2.47 2.47 0 0 1 2.47 2.47 2.47 2.47 0 0 1-2.47 2.47H3.302a2.47 2.47 0 0 1-2.47-2.47z" fill="#f2963b"/><path d="M.832 8.064A2.38 2.38 0 0 1 3.21 5.686h16.441a2.38 2.38 0 0 1 2.378 2.378 2.38 2.38 0 0 1-2.378 2.378H3.21A2.38 2.38 0 0 1 .832 8.064z" fill="#fff"/><path d="M13.358 7.802c-.14-1.102-1.116-1.877-2.18-1.732S9.365 7.225 9.505 8.327s1.116 1.877 2.181 1.732 1.812-1.156 1.672-2.257zm-.228.329c-.001.034-.034.059-.063.077s-.043.041-.046.073.007.064.027.085.048.054.041.087-.043.053-.076.042l-.827-.28-.402-.081c-.01-.002-.017-.012-.015-.023s.011-.018.022-.018l.407.029.873-.049c.034-.002.062.025.06.058zm-3.397-.135c.001-.034.033-.058.062-.076s.043-.041.047-.073-.007-.065-.029-.086-.047-.053-.04-.085.043-.054.077-.043l.827.28.403.081c.011.002.017.012.015.022s-.011.019-.022.018l-.408-.029-.871.049c-.034.002-.063-.025-.062-.059zm.041.457c-.007-.033.018-.064.041-.088s.032-.052.028-.085-.022-.058-.047-.073-.062-.042-.063-.076.028-.061.062-.059l.871.049.411-.03c.01-.001.018.006.019.016s-.004.022-.013.023l-.405.082-.828.281c-.033.011-.068-.008-.075-.042zm2.422-.446l-.409.03c-.01.001-.018-.006-.019-.016s.004-.022.013-.023l.404-.082.827-.28c.033-.011.069.008.076.042s-.017.063-.041.086-.032.052-.028.085.021.058.046.073.062.042.063.076-.027.061-.061.059l-.872-.049zm.778-.52c.033.01.071.025.081.057s-.01.065-.043.072l-.856.187-.386.138c-.01.004-.022-.001-.027-.011s0-.021.009-.026l.369-.186.729-.493c.029-.019.068-.011.084.02s0 .065-.017.094-.019.06-.007.09.035.049.062.058zm-.272-.433c.018.025.046.038.075.039.034.001.074.004.092.034s.006.066-.024.082l-.779.409-.34.238c-.009.006-.02.004-.026-.005s-.005-.021.003-.028l.308-.278.582-.672c.023-.026.063-.028.087-.002s.016.062.007.093-.004.064.016.091zm-.296-.307c.024.02.055.025.083.017s.072-.015.097.008.023.062-.001.084l-.652.605-.271.321c-.007.008-.018.009-.026.002s-.011-.018-.005-.027l.231-.353.394-.806c.015-.031.053-.042.082-.023s.032.055.03.087.011.063.038.084zm-.363-.217c.029.012.06.009.085-.006s.066-.033.096-.017.037.053.02.081l-.479.76-.179.381c-.005.01-.016.014-.026.01s-.015-.014-.012-.024l.135-.403.179-.886c.007-.033.04-.054.072-.044s.046.046.053.078.027.056.057.069zm-.547-.225c.032.001.055.032.07.061s.04.048.073.052.062-.008.082-.03.053-.049.086-.041.05.041.04.073l-.273.862-.078.418c-.002.011-.012.017-.023.015s-.018-.011-.017-.022l.029-.424-.048-.905c-.002-.033.025-.061.059-.06zm-.276.113c.033-.004.06-.025.074-.054s.037-.058.069-.06.06.027.058.06l-.047.905.028.425c.001.01-.007.018-.017.019s-.021-.004-.023-.015l-.078-.417-.272-.863c-.01-.032.008-.065.04-.073s.063.016.085.041.051.034.083.03zm-.404.112c.031-.013.052-.04.058-.071s.02-.066.051-.076.066.011.072.044l.18.886.133.403c.003.009-.001.019-.01.023s-.021.001-.026-.009l-.18-.382-.478-.761c-.018-.028-.009-.064.02-.08s.065-.001.094.017.057.019.086.006zm-.361.217c.026-.02.039-.051.037-.083s.003-.071.03-.089.066-.007.081.024l.393.807.231.353c.006.009.004.02-.005.026s-.021.005-.028-.003l-.269-.32-.651-.605c-.025-.023-.025-.062-.001-.085s.064-.016.096-.008c.028.007.058.002.083-.018zm-.296.307c.02-.028.024-.062.015-.093s-.016-.066.005-.089a.06.06 0 0 1 .089.001l.581.671.31.279c.008.007.009.019.003.027s-.019.011-.028.005l-.339-.237-.78-.41c-.03-.016-.041-.052-.024-.081s.059-.034.093-.034c.028-.001.056-.014.075-.039zm-.21.375c.013-.031.009-.064-.006-.09s-.032-.065-.017-.094.055-.04.083-.02l.73.493.37.187a.02.02 0 0 1 .01.025c-.004.01-.015.016-.026.012l-.387-.138-.855-.186c-.033-.007-.052-.04-.043-.072s.048-.048.081-.058c.027-.008.051-.029.062-.057zm-.062 1.212c-.033-.01-.071-.025-.081-.058s.01-.065.043-.072l.855-.187.386-.137c.01-.004.022.002.026.012s0 .02-.009.024l-.37.187-.73.493c-.029.019-.067.011-.083-.02s.001-.066.017-.095.018-.06.006-.09-.035-.05-.062-.058zm.272.433c-.018-.025-.046-.038-.075-.039-.034-.001-.076-.005-.094-.035s-.006-.065.023-.08l.78-.41.339-.237c.009-.006.021-.004.028.005s.005.021-.002.028l-.309.278-.582.671c-.023.026-.064.027-.087.001s-.016-.06-.006-.091.005-.065-.015-.092zm.296.307c-.025-.019-.055-.025-.083-.018-.033.008-.072.015-.097-.008s-.024-.062 0-.085l.651-.605.27-.321c.007-.008.019-.008.027-.002s.01.017.004.026L11 8.722l-.393.807c-.015.031-.053.042-.081.023s-.032-.057-.031-.089-.012-.062-.037-.082zm.361.216c-.029-.012-.061-.009-.086.007s-.065.033-.094.017-.037-.053-.02-.08l.478-.76.181-.382c.004-.009.016-.013.026-.009s.014.014.011.023l-.134.404-.18.886c-.007.033-.04.054-.072.044s-.045-.045-.052-.077a.1.1 0 0 0-.057-.071zm.547.226c-.032-.001-.054-.031-.068-.06s-.042-.049-.074-.054-.062.008-.082.03-.053.048-.085.041-.05-.042-.04-.073l.272-.862.078-.418c.002-.011.013-.017.023-.015s.017.011.017.022l-.028.423.047.906c.002.033-.025.062-.059.06zm.276-.114c-.032.004-.059.024-.073.052s-.038.059-.071.061-.06-.026-.058-.06l.048-.906-.029-.427c-.001-.009.007-.016.016-.017s.022.004.024.014l.078.419.272.862c.01.032-.008.065-.04.073s-.063-.017-.085-.041-.051-.034-.082-.03zm.404-.113c-.03.013-.05.04-.057.07s-.021.068-.053.078-.066-.011-.072-.044l-.179-.886-.134-.402c-.003-.009.001-.02.01-.024s.023-.001.027.009l.179.382.479.76c.018.028.009.065-.02.08s-.067 0-.096-.017-.056-.018-.085-.006zm.363-.216c-.027.02-.039.052-.038.084s-.003.07-.03.088-.066.007-.081-.023l-.395-.808-.23-.353c-.006-.009-.002-.02.006-.026s.02-.005.026.003l.269.32.652.605c.024.023.025.061.001.084s-.064.017-.097.008-.059-.002-.083.017zm.296-.307c-.02.027-.024.061-.015.091s.015.068-.007.092-.065.025-.088-.002l-.581-.67-.31-.28c-.008-.007-.009-.018-.003-.027s.02-.011.029-.005l.339.237.78.409c.03.016.041.052.024.081s-.059.034-.094.035c-.028.001-.055.014-.073.039zm.209-.375c-.013.031-.009.064.007.09s.032.064.017.093-.055.04-.084.021l-.729-.493-.368-.186c-.01-.005-.014-.016-.01-.026s.015-.015.025-.012l.387.138.856.187c.033.007.053.04.043.072s-.048.048-.081.058c-.027.008-.051.029-.062.058z" fill="#21296f"/></svg>