<svg xmlns="http://www.w3.org/2000/svg" width="22" height="16" fill="none" xmlns:v="https://vecta.io/nano"><path d="M14.511.836H7.328C3.361.836.145 4.053.145 8.02s3.216 7.183 7.183 7.183h7.183c3.967 0 7.183-3.216 7.183-7.183S18.478.836 14.511.836z" fill="#f0f0f0"/><g fill="#d80027"><use href="#B"/><use href="#B" y="3.592"/><use href="#B" y="7.183"/><use href="#B" y="10.775"/></g><path d="M7.052.836H4.013A3.87 3.87 0 0 0 .145 4.704a3.87 3.87 0 0 0 3.868 3.868h3.039a3.87 3.87 0 0 0 3.868-3.868A3.87 3.87 0 0 0 7.052.836z" fill="#2e52b2"/><g fill="#f0f0f0"><use href="#C"/><use href="#D"/><use href="#D" x="-2.375"/><use href="#C" x="-2.375"/><use href="#C" y="-1.927"/><use href="#C" x="-2.375" y="-1.927"/><use href="#C" x="2.371"/><use href="#D" x="2.371"/><use href="#D" x="4.738"/><use href="#C" x="4.739"/><use href="#C" x="2.371" y="-1.927"/><use href="#C" x="4.739" y="-1.927"/></g><defs ><path id="B" d="M20.797 2.632H1.042a.9.9 0 0 0-.898.898.9.9 0 0 0 .898.898h19.754a.9.9 0 0 0 .898-.898.9.9 0 0 0-.898-.898z"/><path id="C" d="M4.488 4.438c-.044-.136-.236-.136-.281 0-.02.061-.076.102-.14.102-.143 0-.202.183-.087.267.052.038.073.104.054.165-.044.136.111.249.227.165.052-.038.122-.038.173 0 .116.084.271-.029.227-.165-.02-.061.002-.127.054-.165.116-.084.056-.267-.087-.267-.064 0-.121-.041-.14-.102z"/><path id="D" d="M4.629 6.466c-.064 0-.121-.041-.14-.102-.044-.136-.236-.136-.281 0-.02.061-.076.102-.14.102-.143 0-.202.183-.087.267.052.038.073.104.054.165-.044.136.111.249.227.165.052-.038.122-.038.173 0 .116.084.271-.029.227-.165-.02-.061.002-.127.054-.165.116-.084.056-.267-.087-.267z"/></defs></svg>