<svg xmlns="http://www.w3.org/2000/svg" width="103" height="37" fill="none" xmlns:v="https://vecta.io/nano"><g clip-path="url(#A)" fill-rule="evenodd" fill="#797979"><path d="M37.91 10.709v15.789h-1.121V10.709h1.121zm-11.234.011v6.783a5.41 5.41 0 0 1 3.482-1.28c2.336 0 4.591 1.527 4.591 5.211 0 3.807-2.535 5.242-5.245 5.242-1.404-.011-2.781-.37-3.995-1.043V10.72h1.168zm29.571 5.533h.194c2.77.066 4.679 2.16 4.4 5.242l-.019.19h-8.434c-.02 1.054.408 2.07 1.187 2.818a4.19 4.19 0 0 0 2.948 1.149l.213.004a6.71 6.71 0 0 0 2.865-.679l.204-.101.409.944c-1.07.561-2.269.86-3.49.87-.086 0-.172-.002-.259-.005-3.528-.109-5.334-2.77-5.221-5.611-.028-1.278.488-2.513 1.431-3.421s2.232-1.414 3.573-1.399zm40.87.138V13l-1.168.003v3.392h-1.88v.955h1.88v5.604c0 2.595 1.508 3.706 3.4 3.706.802-.007 1.594-.159 2.337-.449l-.339-.992a4.5 4.5 0 0 1-1.975.393c-1.531-.056-2.255-1.111-2.255-2.74v-5.525h3.481v-.955h-3.481zm-18.328-.157c2.71 0 5.058 1.932 5.058 5.199 0 3.346-2.36 5.222-5.058 5.222-3.026 0-5.058-2.338-5.058-5.222 0-3.066 2.243-5.199 5.058-5.199zm-36.984 6.32v-6.162h-1.169v6.277c0 3.077 1.589 3.986 3.248 3.986 1.612-.044 3.102-.831 3.996-2.111v1.954h1.171v-10.11h-1.173v7.008c-.981 1.381-2.243 2.212-3.621 2.212-1.224 0-2.451-.651-2.451-3.054zm47.638-6.297a6.46 6.46 0 0 1 2.92.73l-.446.887c-.751-.386-1.589-.59-2.442-.595-1.741 0-2.525.819-2.525 1.673 0 1.001 1.085 1.423 2.521 1.982l.388.152c2.535.955 3.072 2.044 3.072 2.975 0 1.583-1.542 2.582-3.586 2.582a6.76 6.76 0 0 1-3.342-.921l.502-.965a5.24 5.24 0 0 0 2.803.85c1.098 0 2.465-.438 2.451-1.505 0-.91-1.005-1.617-2.616-2.224-1.787-.685-3.352-1.314-3.352-2.931s1.583-2.692 3.651-2.692v.001zM64.631 18.37v-7.65h-1.169V26.5h1.168v-6.942c.714-1.146 2.079-2.291 3.61-2.279 1.262.011 2.43.785 2.43 2.975v6.244h1.157v-6.479c0-2.257-1.24-3.785-3.342-3.785-1.581.043-3.032.847-3.854 2.136zm-37.954.457c.847-.949 2.07-1.519 3.376-1.572 1.974 0 3.516 1.529 3.528 4.191 0 3.021-1.998 4.234-4.147 4.234a6.31 6.31 0 0 1-2.757-.662v-6.19zm52.112-1.549c-2.512 0-3.878 1.913-3.878 4.155 0 2.235 1.355 4.179 3.878 4.179 2.442 0 3.89-1.954 3.89-4.179 0-2.246-1.437-4.155-3.89-4.155zM52.45 20.603c.139-1.879 1.776-3.336 3.751-3.338l.136.002a3.55 3.55 0 0 1 2.481 1.062 3.22 3.22 0 0 1 .918 2.441h-7.301l.015-.167zm3.751-3.338h0zM18.654 14.74V10h-4.932v4.74h4.932zm0 1.39v4.74h-4.932v-4.74h4.932zM5.93 27v-4.74H1V27h4.93zm6.362-4.74V27H7.36v-4.74h4.932zm6.362 0V27h-4.932v-4.74h4.932zm-6.362-1.39v-4.74H7.36v4.74h4.932zM5.93 16.13v4.74H1v-4.74h4.93zM12.288 10v4.74H7.36V10h4.928zM5.93 14.74V10H1v4.74h4.93z"/></g><defs><clipPath id="A"><path fill="#fff" transform="translate(1 10)" d="M0 0h101v17H0z"/></clipPath></defs></svg>