<svg xmlns="http://www.w3.org/2000/svg" width="20" height="21" fill="#645cfc" xmlns:v="https://vecta.io/nano"><path d="M13.737 11.121a.77.77 0 0 0 .001-1.445l-1.394-.503a4.88 4.88 0 0 1-2.946-2.946l-.503-1.394a.77.77 0 0 0-1.444 0L6.95 6.227a4.88 4.88 0 0 1-2.947 2.946l-1.392.503a.77.77 0 0 0-.001 1.445l1.394.502a4.88 4.88 0 0 1 2.946 2.946l.502 1.394a.77.77 0 0 0 1.444-.001l.503-1.394a4.88 4.88 0 0 1 2.946-2.946l1.393-.502zm-1.816-.674a6.13 6.13 0 0 0-3.699 3.699l-.049.135-.049-.135a6.13 6.13 0 0 0-3.699-3.699l-.134-.049.135-.049c1.728-.622 3.076-1.971 3.699-3.699l.049-.135.049.135a6.13 6.13 0 0 0 3.698 3.699l.135.049-.135.049zm-.327-5.382l.706.254a2.16 2.16 0 0 1 1.306 1.306l.254.705a.7.7 0 0 0 .656.462.7.7 0 0 0 .656-.461l.254-.706a2.16 2.16 0 0 1 1.306-1.306l.706-.254a.7.7 0 0 0 .461-.654.7.7 0 0 0-.461-.657l-.706-.254c-.61-.22-1.086-.696-1.306-1.306l-.254-.706a.7.7 0 0 0-.656-.461.7.7 0 0 0-.656.461l-.254.706A2.16 2.16 0 0 1 12.3 3.5l-.707.255a.7.7 0 0 0-.459.657.7.7 0 0 0 .461.654zm2.923-1.88c.296.508.717.928 1.224 1.224-.508.296-.928.717-1.224 1.224-.296-.507-.717-.928-1.224-1.224a3.41 3.41 0 0 0 1.224-1.224zm2.922 12.552l-.706-.254c-.61-.22-1.086-.696-1.306-1.306l-.254-.706a.7.7 0 0 0-.656-.461.7.7 0 0 0-.656.461l-.254.706a2.16 2.16 0 0 1-1.306 1.306l-.705.254a.7.7 0 0 0-.462.655.7.7 0 0 0 .461.657l.706.254a2.16 2.16 0 0 1 1.306 1.306l.254.705a.7.7 0 0 0 1.314.001l.254-.706c.22-.61.696-1.086 1.306-1.306l.709-.255a.7.7 0 0 0 .458-.657.7.7 0 0 0-.462-.654zm-2.922 1.88a3.4 3.4 0 0 0-1.224-1.224c.507-.296.928-.717 1.224-1.224.296.507.717.928 1.224 1.224-.507.296-.928.717-1.224 1.224z"/></svg>