<svg xmlns="http://www.w3.org/2000/svg" width="20" height="21" fill="none" xmlns:v="https://vecta.io/nano"><path d="M17.918 15.401l-5.536-5m-4.762 0l-5.536 5m-.417-9.167l6.804 4.763c.551.386.826.579 1.126.653a1.67 1.67 0 0 0 .806 0c.3-.075.575-.268 1.126-.653l6.804-4.763M5.668 17.068h8.667c1.4 0 2.1 0 2.635-.272a2.5 2.5 0 0 0 1.093-1.093c.272-.535.272-1.235.272-2.635V7.734c0-1.4 0-2.1-.272-2.635a2.5 2.5 0 0 0-1.093-1.093c-.535-.272-1.235-.272-2.635-.272H5.668c-1.4 0-2.1 0-2.635.272A2.5 2.5 0 0 0 1.94 5.099c-.272.535-.272 1.235-.272 2.635v5.333c0 1.4 0 2.1.272 2.635a2.5 2.5 0 0 0 1.093 1.093c.535.272 1.235.272 2.635.272z" stroke="#645cfc" stroke-width="1.5" stroke-linecap="round" stroke-linejoin="round"/></svg>