<svg xmlns="http://www.w3.org/2000/svg" width="20" height="20" fill="none" xmlns:v="https://vecta.io/nano"><path d="M17.53 9.199c.596-3.252-1.909-6.23-5.187-6.23a5.27 5.27 0 0 0-4.523 2.56c-1.274-.412-2.584-.236-3.663.507S2.435 7.953 2.383 9.239C.942 9.918 0 11.353 0 12.93a4.13 4.13 0 0 0 .079.803 4.11 4.11 0 0 0 4.023 3.299h11.758c2.283 0 4.141-1.84 4.141-4.101 0-1.614-.979-3.071-2.47-3.73zm-1.671 6.66H4.102c-1.602 0-2.93-1.298-2.93-2.93 0-1.221.802-2.325 1.996-2.748l.416-.147-.027-.441a2.91 2.91 0 0 1 1.265-2.593c.904-.623 2.014-.666 3.029-.205l.528.239.245-.525a4.12 4.12 0 0 1 3.719-2.369 4.11 4.11 0 0 1 4.102 4.102c0 .669-.141 1.074-.297 1.61l.655.319c1.211.415 2.025 1.523 2.025 2.758 0 1.615-1.332 2.93-2.969 2.93z" fill="#645cfc"/></svg>