<svg width="32" height="32" viewBox="0 0 32 32" fill="none" xmlns="http://www.w3.org/2000/svg">
<g clip-path="url(#clip0_7175_9806)">
<path d="M16.0016 2.66703C17.7703 2.67284 19.5202 3.02935 21.1502 3.71595C22.7802 4.40255 24.2578 5.40559 25.4976 6.66704H21.3349C20.9813 6.66704 20.6421 6.80751 20.3921 7.05756C20.142 7.30761 20.0016 7.64675 20.0016 8.00037C20.0016 8.35399 20.142 8.69313 20.3921 8.94318C20.6421 9.19323 20.9813 9.3337 21.3349 9.3337H26.8589C27.5155 9.33335 28.145 9.07237 28.6093 8.60811C29.0736 8.14384 29.3346 7.51427 29.3349 6.8577V1.3337C29.3349 0.980079 29.1944 0.640941 28.9444 0.390892C28.6943 0.140844 28.3552 0.000367952 28.0016 0.000367952C27.648 0.000367952 27.3088 0.140844 27.0588 0.390892C26.8087 0.640941 26.6682 0.980079 26.6682 1.3337V4.10437C24.4645 2.11964 21.7517 0.787581 18.8337 0.257367C15.9157 -0.272848 12.9077 0.0197172 10.1466 1.1023C7.3855 2.18488 4.98026 4.01473 3.20025 6.38693C1.42025 8.75914 0.335761 11.58 0.0682388 14.5337C0.0510166 14.7194 0.0726598 14.9066 0.131789 15.0835C0.190919 15.2603 0.286238 15.4229 0.411674 15.5609C0.53711 15.6989 0.689911 15.8092 0.860343 15.8849C1.03077 15.9605 1.2151 15.9999 1.40157 16.0004C1.72769 16.0045 2.04362 15.8868 2.28752 15.6703C2.53142 15.4538 2.68572 15.154 2.72024 14.8297C3.01706 11.5107 4.5442 8.42264 7.00168 6.17215C9.45916 3.92167 12.6693 2.67143 16.0016 2.66703Z" fill="white"/>
<path d="M30.6026 16.0001C30.2765 15.996 29.9606 16.1137 29.7167 16.3302C29.4728 16.5467 29.3185 16.8465 29.284 17.1708C29.0636 19.7084 28.1199 22.1296 26.5648 24.147C25.0098 26.1645 22.9087 27.6936 20.5108 28.5528C18.1129 29.4121 15.5189 29.5655 13.0364 28.9949C10.554 28.4243 8.28729 27.1535 6.5053 25.3334H10.668C11.0216 25.3334 11.3607 25.193 11.6108 24.9429C11.8608 24.6929 12.0013 24.3537 12.0013 24.0001C12.0013 23.6465 11.8608 23.3073 11.6108 23.0573C11.3607 22.8072 11.0216 22.6668 10.668 22.6668H5.14397C4.81877 22.6666 4.49672 22.7305 4.19624 22.8549C3.89576 22.9793 3.62273 23.1616 3.39278 23.3916C3.16283 23.6215 2.98046 23.8946 2.85609 24.195C2.73172 24.4955 2.66779 24.8176 2.66797 25.1428V30.6668C2.66797 31.0204 2.80844 31.3595 3.05849 31.6096C3.30854 31.8596 3.64768 32.0001 4.0013 32.0001C4.35492 32.0001 4.69406 31.8596 4.94411 31.6096C5.19416 31.3595 5.33464 31.0204 5.33464 30.6668V27.8961C7.53841 29.8808 10.2512 31.2129 13.1692 31.7431C16.0872 32.2733 19.0951 31.9808 21.8563 30.8982C24.6174 29.8156 27.0226 27.9857 28.8026 25.6135C30.5826 23.2413 31.6671 20.4204 31.9346 17.4668C31.9519 17.2811 31.9302 17.0939 31.8711 16.917C31.812 16.7402 31.7166 16.5776 31.5912 16.4396C31.4658 16.3016 31.313 16.1913 31.1425 16.1156C30.9721 16.0399 30.7891 16.0006 30.6026 16.0001Z" fill="white"/>
</g>
<defs>
<clipPath id="clip0_7175_9806">
<rect width="32" height="32" fill="white"/>
</clipPath>
</defs>
</svg>
