<svg xmlns="http://www.w3.org/2000/svg" width="20" height="21" fill="none" xmlns:v="https://vecta.io/nano"><path d="M18.342 4.885a10 10 0 0 0-12.584-3.54A10 10 0 0 0 .423 13.28a10 10 0 0 0 11.031 7.014A10 10 0 0 0 20 10.401a9.99 9.99 0 0 0-1.658-5.516zM5.752 6.145a37.4 37.4 0 0 0 3.869.238v3.644H5.21c.023-1.311.205-2.614.541-3.882zm4.618.235c1.294-.01 2.587-.087 3.874-.232.335 1.266.515 2.568.538 3.878H10.37V6.38zm0-.749V1.177c1.475.229 2.83 1.798 3.649 4.237a36.45 36.45 0 0 1-3.649.214v.002zM5.753 14.66c-.214-.788-.365-1.592-.451-2.404l-.093-1.479h4.412v3.646l-1.562.043-2.305.195zm2.343.554l1.524-.045v4.459c-1.011-.158-1.981-.95-2.765-2.271a10.28 10.28 0 0 1-.887-1.973l2.127-.169zm2.273-4.439h4.413c-.024 1.311-.206 2.615-.543 3.882-1.285-.145-2.577-.223-3.87-.233v-3.649zm5.16-.749a17.08 17.08 0 0 0-.54-3.976l2.869-.531c.843 1.357 1.319 2.91 1.379 4.507h-3.709zm1.873-5.172l-2.627.47c-.535-1.654-1.313-2.966-2.231-3.818a9.24 9.24 0 0 1 4.858 3.348zM9.621 1.177v4.451l-3.649-.215c.819-2.439 2.173-4.007 3.649-4.236zm-2.17.323c-.92.851-1.698 2.167-2.235 3.824l-2.627-.47A9.24 9.24 0 0 1 7.451 1.5zM2.132 5.52a28.88 28.88 0 0 0 2.866.534c-.335 1.299-.516 2.632-.539 3.973H.747c.063-1.597.54-3.15 1.385-4.507zm2.327 5.256l.098 1.559a16.23 16.23 0 0 0 .441 2.414l-.82.123-2.046.411C1.287 13.926.81 12.373.747 10.776h3.711zm-1.873 5.169l1.712-.334.918-.134c.247.789.581 1.547.995 2.263.332.573.744 1.096 1.224 1.554a9.24 9.24 0 0 1-4.849-3.348zm7.784 3.68v-4.451l3.649.214c-.819 2.44-2.174 4.008-3.649 4.237zm2.17-.323c.921-.853 1.704-2.166 2.24-3.826l2.626.47c-1.211 1.621-2.92 2.8-4.866 3.357zm5.312-4.018a28.94 28.94 0 0 0-2.862-.532 17.08 17.08 0 0 0 .54-3.976h3.714c-.064 1.598-.544 3.152-1.392 4.508z" fill="#645cfc"/></svg>