<svg xmlns="http://www.w3.org/2000/svg" width="31" height="33" fill="none" xmlns:v="https://vecta.io/nano"><path d="M28.335 12.803H1.668m0-1.6v11.2c0 2.24 0 3.36.436 4.216a4 4 0 0 0 1.748 1.748c.856.436 1.976.436 4.216.436h13.867c2.24 0 3.36 0 4.216-.436a4 4 0 0 0 1.748-1.748c.436-.856.436-1.976.436-4.216v-11.2c0-2.24 0-3.36-.436-4.216a4 4 0 0 0-1.748-1.748c-.856-.436-1.976-.436-4.216-.436H8.068c-2.24 0-3.36 0-4.216.436a4 4 0 0 0-1.748 1.748c-.436.856-.436 1.976-.436 4.216z" stroke="#fff" stroke-width="1.867" stroke-linecap="round" stroke-linejoin="round"/></svg>