<svg xmlns="http://www.w3.org/2000/svg" width="32" height="32" fill="none" xmlns:v="https://vecta.io/nano"><path d="M28 28H6.133c-.747 0-1.12 0-1.405-.145-.251-.128-.455-.332-.583-.583C4 26.987 4 26.613 4 25.867V4m24 5.333l-7.246 7.246c-.264.264-.396.396-.548.445-.134.044-.278.044-.412 0-.152-.049-.284-.181-.548-.445l-2.492-2.492c-.264-.264-.396-.396-.548-.446-.134-.043-.278-.043-.412 0-.152.05-.284.182-.548.446L9.333 20M28 9.333h-5.333m5.333 0v5.333" stroke="#020205" stroke-width="2.667" stroke-linecap="round" stroke-linejoin="round"/></svg>