<svg xmlns="http://www.w3.org/2000/svg" width="33" height="33" fill="none" xmlns:v="https://vecta.io/nano"><path d="M29.168 24.803l-8.857-8m-7.619 0l-8.857 8m-.667-14.667l10.887 7.621c.882.617 1.322.926 1.802 1.045a2.67 2.67 0 0 0 1.29 0c.479-.119.92-.428 1.802-1.045l10.886-7.621M9.568 27.47h13.867c2.24 0 3.36 0 4.216-.436a4 4 0 0 0 1.748-1.748c.436-.856.436-1.976.436-4.216v-8.533c0-2.24 0-3.36-.436-4.216a4 4 0 0 0-1.748-1.748c-.856-.436-1.976-.436-4.216-.436H9.568c-2.24 0-3.36 0-4.216.436a4 4 0 0 0-1.748 1.748c-.436.856-.436 1.976-.436 4.216v8.533c0 2.24 0 3.36.436 4.216a4 4 0 0 0 1.748 1.748c.856.436 1.976.436 4.216.436z" stroke="#fff" stroke-width="1.867" stroke-linecap="round" stroke-linejoin="round"/></svg>