<svg width="32" height="32" viewBox="0 0 32 32" fill="none" xmlns="http://www.w3.org/2000/svg">
<g clip-path="url(#clip0_7175_9800)">
<path d="M16.6249 28.6295C16.6249 29.3199 16.0653 29.8795 15.3749 29.8795H4.99997C2.24291 29.8795 0 27.6366 0 24.8795V5.56247C0 2.80565 2.24291 0.5625 4.99997 0.5625L9.75116 0.564209C12.1193 0.564697 14.1081 2.22069 14.6212 4.43528L28.2498 4.43552H28.2503C29.2515 4.43552 30.1932 4.82541 30.9014 5.53366C31.6097 6.24191 31.9996 7.18355 31.9996 8.18526V16.0624C31.9996 16.7528 31.44 17.3124 30.7498 17.3124C30.0594 17.3124 29.4998 16.7528 29.4998 16.0624V11.9352L7.18746 11.9355C6.49703 11.9355 5.93746 11.3759 5.93746 10.6855C5.93746 9.99506 6.49703 9.43549 7.18746 9.43549L29.4998 9.43525V8.18526C29.4998 7.85127 29.3697 7.53756 29.1336 7.30147C28.8975 7.06539 28.5838 6.93551 28.2498 6.93551L13.6083 6.93526C13.5727 6.93819 13.5365 6.9399 13.4999 6.9399C12.811 6.9399 12.2521 6.38253 12.2499 5.69382C12.2499 5.6926 12.2499 5.69113 12.2499 5.68991V5.56393C12.2499 4.18577 11.1286 3.06444 9.75043 3.06419L4.99948 3.06248C3.62156 3.06248 2.49998 4.18406 2.49998 5.56247V24.8795C2.49998 26.2579 3.62156 27.3795 4.99997 27.3795H15.3749C16.0653 27.3795 16.6249 27.939 16.6249 28.6295ZM31.8665 26.9425L31.3611 27.9476C31.0897 28.4881 30.4698 28.7564 29.8897 28.5848L28.4691 28.1644C28.116 28.4573 27.7264 28.6993 27.3082 28.8843L27.078 30.3223C26.981 30.9288 26.4578 31.3748 25.8438 31.3748H24.7188C24.1139 31.3748 23.5958 30.9417 23.4886 30.3463L23.2228 28.8695C23.1971 28.858 23.1725 28.8448 23.1471 28.8328C23.1236 28.8218 23.1004 28.8104 23.0773 28.7989C23.0216 28.7716 22.9664 28.7435 22.9117 28.7139C22.8993 28.7073 22.8871 28.7003 22.8746 28.6934C22.6681 28.5797 22.4689 28.453 22.2799 28.3111L20.9215 28.8494C20.3365 29.0811 19.6708 28.8421 19.3666 28.2916L18.7806 27.2303C18.4855 26.6956 18.6198 26.0257 19.0988 25.6463L20.2963 24.6976C20.2943 24.6715 20.2933 24.6454 20.2916 24.6192C20.2902 24.5931 20.2885 24.5672 20.2872 24.5411C20.2836 24.4649 20.2814 24.3888 20.2814 24.3124C20.2814 24.2335 20.2833 24.1546 20.287 24.0755L19.0599 23.2633C18.5236 22.9083 18.3444 22.2045 18.6452 21.6361L19.2587 20.4774C19.5463 19.9345 20.1857 19.6808 20.7672 19.8795L22.2047 20.3702C22.5174 20.1259 22.8573 19.9198 23.2181 19.7565L23.4186 18.3266C23.505 17.7091 24.0331 17.2499 24.6563 17.2499H25.8438C26.4488 17.2499 26.9669 17.683 27.0741 18.2785L27.3399 19.7553C27.3643 19.7662 27.388 19.7789 27.4124 19.7904C27.4378 19.8024 27.463 19.8148 27.4879 19.827C27.5408 19.8532 27.5933 19.88 27.6453 19.9078C27.6622 19.9169 27.6788 19.9264 27.6954 19.9357C27.754 19.9679 27.8121 20.0009 27.8692 20.0355C27.8734 20.0382 27.8778 20.0409 27.8819 20.0436C28.0135 20.1239 28.1419 20.2089 28.2659 20.3014L29.6114 19.7736C30.1661 19.556 30.7972 19.7604 31.1192 20.2614L31.8013 21.3226C32.1536 21.8702 32.0262 22.5965 31.5086 22.9918L30.2674 23.9396C30.2693 23.9637 30.2701 23.9876 30.2715 24.0116C30.273 24.0357 30.2745 24.0602 30.2757 24.0846C30.2791 24.1605 30.2813 24.2364 30.2813 24.3124C30.2813 24.3749 30.2801 24.4376 30.2779 24.5001L31.4808 25.3668C31.9788 25.7259 32.1424 26.3939 31.8665 26.9425ZM24.6109 26.7203C24.8243 26.7799 25.0489 26.8123 25.2813 26.8123C25.4933 26.8123 25.6991 26.7855 25.8958 26.7357C25.9481 26.7225 25.9996 26.7071 26.0509 26.6908C26.0687 26.6849 26.0865 26.6788 26.1043 26.6724C26.1412 26.6598 26.1773 26.6458 26.2135 26.6314C26.2432 26.6192 26.2728 26.6065 26.3021 26.5936C26.3302 26.5811 26.3577 26.5682 26.3853 26.5545C26.4107 26.5421 26.4361 26.5291 26.4613 26.5157C26.4849 26.503 26.5081 26.4896 26.5313 26.4762C26.5697 26.4537 26.6075 26.4305 26.6446 26.4063C26.6649 26.3932 26.6851 26.3795 26.7052 26.3658C26.7279 26.3497 26.7511 26.3338 26.7733 26.317C26.8094 26.2901 26.8448 26.2621 26.8797 26.233C26.8966 26.2188 26.9132 26.2042 26.9298 26.1895C26.9613 26.162 26.992 26.1336 27.0221 26.1043C27.0306 26.0958 27.0396 26.088 27.0479 26.0794C27.0865 26.0409 27.1234 26.0006 27.1597 25.9593C27.4393 25.641 27.6397 25.2513 27.7291 24.8211C27.7347 24.7945 27.7391 24.7674 27.7437 24.7406C27.7464 24.7262 27.7493 24.7123 27.7515 24.6979C27.7574 24.6595 27.7623 24.6209 27.7664 24.5824C27.7669 24.5787 27.7674 24.575 27.7679 24.5714C27.7767 24.4852 27.7813 24.3988 27.7813 24.3124C27.7813 24.2645 27.7796 24.2167 27.7767 24.1688C27.776 24.1551 27.7747 24.1415 27.7738 24.1278C27.7711 24.0934 27.7681 24.0589 27.7642 24.0248C27.7623 24.0091 27.7603 23.9938 27.7581 23.9781C27.7537 23.9457 27.7489 23.9132 27.7432 23.8807C27.7403 23.8651 27.7379 23.8495 27.7347 23.8341C27.7283 23.8006 27.7208 23.7674 27.713 23.7345C27.608 23.2926 27.3858 22.8963 27.0806 22.5795C27.054 22.5519 27.0269 22.525 26.9991 22.4986C26.9884 22.4884 26.9779 22.4781 26.9671 22.4681C26.932 22.4359 26.8958 22.4049 26.8592 22.3751C26.8441 22.3627 26.8287 22.3507 26.8131 22.3387C26.7884 22.3194 26.7633 22.3006 26.7376 22.2823C26.7205 22.2699 26.7035 22.2574 26.6859 22.2455C26.6493 22.2206 26.6119 22.1964 26.5738 22.1732C26.5545 22.1615 26.5347 22.1507 26.5152 22.1395C26.4913 22.1258 26.4671 22.1124 26.443 22.0997C26.4217 22.0885 26.4005 22.0775 26.3787 22.0668C26.349 22.0521 26.3187 22.0384 26.2882 22.025C26.2608 22.0131 26.2335 22.0013 26.2057 21.9903C26.1759 21.9784 26.1458 21.9669 26.1153 21.9562C26.0955 21.9491 26.0753 21.9423 26.0553 21.9357C26.0208 21.9244 25.9864 21.9142 25.9515 21.9044C25.7381 21.8448 25.5135 21.8124 25.2813 21.8124C25.054 21.8124 24.8341 21.8434 24.6246 21.9005C24.5892 21.91 24.5541 21.9205 24.5191 21.9315C24.494 21.9396 24.4691 21.9481 24.4442 21.9569C24.4222 21.9647 24.4007 21.973 24.3792 21.9816C24.3272 22.0016 24.276 22.0236 24.2257 22.047C24.2147 22.0521 24.2037 22.0568 24.193 22.0621C24.161 22.0775 24.1295 22.0939 24.0985 22.1107C24.0904 22.1149 24.0829 22.1193 24.0748 22.1236C24.0099 22.1595 23.9466 22.1981 23.8854 22.2394C23.8849 22.2396 23.8846 22.2399 23.8844 22.2401C23.8526 22.2616 23.8214 22.2838 23.7909 22.3065C23.7857 22.3104 23.7809 22.3141 23.776 22.318C23.7208 22.3597 23.6676 22.4037 23.6163 22.4496C23.6097 22.4554 23.6031 22.461 23.5968 22.4669C23.5709 22.4903 23.546 22.5143 23.5213 22.5389C23.5118 22.5482 23.5025 22.558 23.4933 22.5675C23.1783 22.8902 22.9498 23.2977 22.8453 23.7521C22.8353 23.7955 22.8265 23.8392 22.819 23.8832C22.8185 23.8854 22.818 23.8876 22.8177 23.8898C22.8102 23.9337 22.8041 23.9774 22.7987 24.0213C22.7984 24.025 22.7977 24.0284 22.7975 24.0321C22.7928 24.0736 22.7892 24.1151 22.7867 24.1568C22.7862 24.1625 22.7857 24.1681 22.7853 24.1739C22.7828 24.2201 22.7814 24.2662 22.7814 24.3124C22.7814 24.3602 22.7831 24.4081 22.7857 24.4559C22.7865 24.4691 22.7879 24.4823 22.7887 24.4952C22.7914 24.5304 22.7943 24.5653 22.7984 24.6002C22.8002 24.6148 22.8021 24.6295 22.8041 24.6441C22.8087 24.6778 22.8138 24.7115 22.8197 24.745C22.8221 24.7594 22.8246 24.7738 22.8275 24.7882C22.8341 24.8231 22.8419 24.858 22.8502 24.8927C22.9552 25.3321 23.1764 25.7269 23.4796 26.0426C23.5018 26.0658 23.5245 26.0887 23.5477 26.1109C23.5628 26.1256 23.578 26.1405 23.5936 26.1549C23.6268 26.1851 23.6605 26.2144 23.6947 26.2428C23.713 26.2579 23.7318 26.2721 23.7503 26.2867C23.7711 26.3028 23.7921 26.3187 23.8133 26.3341C23.8341 26.3492 23.8548 26.3643 23.8761 26.3787C23.901 26.3956 23.9261 26.4117 23.9515 26.4278C23.9837 26.4481 24.0162 26.4676 24.0494 26.4864C24.0704 26.4984 24.0917 26.5103 24.1131 26.5216C24.1363 26.534 24.1595 26.546 24.1832 26.5577C24.2091 26.5702 24.2352 26.5821 24.2613 26.5938C24.2923 26.6078 24.3236 26.6212 24.3551 26.6336C24.3851 26.6456 24.4151 26.6573 24.4454 26.6681C24.4657 26.6754 24.4862 26.6822 24.5067 26.6888C24.5411 26.7 24.5758 26.7105 24.6109 26.7203Z" fill="white"/>
</g>
<defs>
<clipPath id="clip0_7175_9800">
<rect width="32" height="32" fill="white"/>
</clipPath>
</defs>
</svg>
