<svg xmlns="http://www.w3.org/2000/svg" width="124" height="61" fill="none" xmlns:v="https://vecta.io/nano"><g clip-path="url(#B)"><path d="M35.747 14.872c0 4.025-3.085 6.992-6.871 6.992s-6.871-2.966-6.871-6.991c0-4.054 3.085-6.992 6.871-6.992s6.871 2.938 6.871 6.992zm-3.008 0c0-2.516-1.788-4.237-3.863-4.237s-3.863 1.721-3.863 4.237c0 2.49 1.788 4.236 3.863 4.236s3.863-1.749 3.863-4.236z" fill="#ea4335"/><path d="M50.571 14.87c0 4.025-3.085 6.992-6.871 6.992s-6.871-2.966-6.871-6.992c0-4.05 3.085-6.991 6.871-6.991s6.871 2.938 6.871 6.991zm-3.008 0c0-2.515-1.788-4.236-3.863-4.236s-3.863 1.721-3.863 4.236c0 2.49 1.788 4.236 3.863 4.236s3.863-1.749 3.863-4.236z" fill="#fbbc05"/><path d="M64.78 8.301v12.552c0 5.163-2.983 7.272-6.51 7.272-3.32 0-5.318-2.266-6.071-4.12l2.619-1.113c.466 1.138 1.609 2.481 3.45 2.481 2.258 0 3.657-1.422 3.657-4.098V20.27h-.105c-.673.848-1.97 1.589-3.607 1.589-3.425 0-6.562-3.045-6.562-6.963 0-3.947 3.138-7.017 6.563-7.017 1.634 0 2.931.741 3.607 1.563h.105V8.304h2.857v-.003zm-2.644 6.594c0-2.462-1.609-4.262-3.657-4.262-2.075 0-3.814 1.8-3.814 4.262 0 2.437 1.739 4.211 3.814 4.211 2.047 0 3.657-1.775 3.657-4.211z" fill="#4285f4"/><path d="M69.489.945v20.489h-2.934V.945h2.934z" fill="#34a853"/><path d="M80.92 17.173l2.335 1.589c-.754 1.138-2.569 3.099-5.707 3.099-3.891 0-6.797-3.07-6.797-6.991 0-4.158 2.931-6.992 6.461-6.992 3.555 0 5.293 2.887 5.862 4.448l.312.794-9.157 3.871c.701 1.403 1.791 2.118 3.32 2.118s2.594-.769 3.372-1.935zm-7.186-2.515l6.121-2.594c-.337-.873-1.35-1.482-2.542-1.482-1.529 0-3.656 1.377-3.579 4.076z" fill="#ea4335"/><path d="M10.897 13.053v-2.966h9.793c.096.517.145 1.129.145 1.791 0 2.225-.596 4.977-2.517 6.938-1.868 1.986-4.256 3.045-7.418 3.045-5.861 0-10.79-4.873-10.79-10.856S5.038.148 10.9.148c3.243 0 5.553 1.299 7.288 2.991l-2.051 2.093c-1.245-1.192-2.931-2.118-5.241-2.118-4.28 0-7.628 3.521-7.628 7.89s3.348 7.89 7.628 7.89c2.776 0 4.358-1.138 5.37-2.172.822-.838 1.362-2.036 1.575-3.672l-6.945.003z" fill="#4285f4"/></g><path d="M12.009 38l3.544 6.561 7.878 1.073-5.688 5.128 1.325 7.224-7.059-3.392-7.059 3.392 1.325-7.224-5.688-5.128 7.878-1.073L12.009 38zm24.918 0l3.544 6.561 7.878 1.073-5.688 5.128 1.325 7.224-7.059-3.392-7.059 3.392 1.325-7.224-5.688-5.128 7.878-1.073L36.927 38zm24.918 0l3.544 6.561 7.878 1.073-5.688 5.128 1.325 7.224-7.059-3.392-7.059 3.392 1.325-7.224-5.688-5.128 7.878-1.073L61.845 38zm24.918 0l3.544 6.561 7.878 1.073-5.688 5.128 1.325 7.224-7.059-3.392-7.059 3.392 1.325-7.224-5.688-5.128 7.878-1.073L86.763 38zm25.086 0l3.544 6.561 7.878 1.073-5.688 5.128 1.325 7.224-7.059-3.392-7.059 3.392 1.326-7.224-5.688-5.128 7.878-1.073L111.849 38z" fill="#f8b805"/><mask id="A" maskUnits="userSpaceOnUse" x="100" y="38" width="24" height="20" mask-type="alpha"><path d="M114.953 44.799l.12.224.252.034 6.811.927-4.888 4.406-.208.188.051.274 1.147 6.257-6.173-2.966-.216-.104-.216.104-6.174 2.966 1.148-6.257.05-.274-.207-.187-4.888-4.406 6.811-.927.252-.034.12-.224 3.104-5.747 3.104 5.747z" fill="#d9d9d9" stroke="#000"/></mask><g mask="url(#A)"><path d="M112.5 35.049h13v27h-13v-27z" fill="#fff"/></g><path d="M115.173 44.68l.06.111.126.018 7.344 1-5.288 4.768-.103.093.025.138 1.236 6.739-6.616-3.178-.108-.052-.108.052-6.617 3.178 1.237-6.739.026-.138-.104-.093-5.289-4.768 7.345-1 .126-.018.06-.111 3.324-6.153 3.324 6.153z" stroke="#f8b805" stroke-width=".5"/><defs><clipPath id="B"><path fill="#fff" d="M0 0h84v29H0z"/></clipPath></defs></svg>