<svg width="127" height="65" viewBox="0 0 127 65" fill="none" xmlns="http://www.w3.org/2000/svg">
<path d="M2.97657 9.74154C2.97657 9.75761 2.71952 10.9786 2.41427 12.4245C2.10902 13.8865 1.45034 16.9871 0.968364 19.3327C0.470331 21.6783 0.0365558 23.6864 0.00442494 23.7828C-0.0437722 23.9434 0.293606 23.9916 1.4182 23.9916H2.89624L3.24968 22.1763C4.19755 17.3727 4.4546 16.6658 5.40248 15.975C6.15756 15.4127 7.37855 15.3967 7.82839 15.9589C8.23006 16.4569 8.19793 16.7461 7.34641 20.7464C6.9769 22.4493 6.67166 23.8792 6.67166 23.9274C6.67166 23.9595 7.31428 23.9916 8.10147 23.9916C9.30638 23.9916 9.5474 23.9434 9.62771 23.7186C9.91691 22.9956 11.17 16.473 11.17 15.7822C11.17 14.3684 10.5274 13.5491 9.17788 13.2117C7.78019 12.8743 6.20576 13.2599 5.29002 14.1595L4.85624 14.5933L4.95264 14.1917C5.00083 13.9668 5.19362 13.035 5.37034 12.1032C5.56313 11.1875 5.75592 10.2556 5.80411 10.0629C5.90051 9.69336 5.88444 9.69336 4.43853 9.69336C3.63525 9.69336 2.97657 9.70942 2.97657 9.74154Z" fill="#222426"/>
<path d="M60.0052 11.4124C59.8125 12.3763 59.5715 13.5009 59.4912 13.9507C59.3948 14.3845 59.2823 14.7861 59.2501 14.8183C59.218 14.8665 58.961 14.6737 58.6718 14.4005C57.0974 12.8905 54.3341 13.0832 52.4062 14.8344C50.2695 16.7783 49.3377 20.9714 50.623 22.8671C51.2977 23.8793 52.0849 24.2326 53.6594 24.2326C54.7357 24.2326 55.0891 24.1684 55.8442 23.7828C56.3423 23.5419 56.9367 23.1724 57.1777 22.9474C57.6275 22.5297 57.6757 22.6422 57.4509 23.4776L57.2901 23.9917H58.0131C58.3987 23.9917 58.72 23.9756 58.72 23.9435C58.72 23.9275 58.9771 22.7065 59.2823 21.2606C59.6036 19.7986 60.0373 17.7422 60.2462 16.6819C60.4712 15.6216 60.8889 13.6133 61.178 12.2157L61.7243 9.69336H61.0495H60.3747L60.0052 11.4124ZM57.2741 14.9147C58.9128 15.7662 58.945 19.0917 57.3383 21.3087C56.4869 22.4815 55.6836 22.9314 54.318 22.9956C53.338 23.0438 53.097 23.0117 52.6151 22.6743C51.5708 21.9675 51.2655 20.7465 51.6672 18.8186C52.0527 17.0353 53.1773 15.4609 54.4466 14.8986C55.1213 14.6094 56.6958 14.6094 57.2741 14.9147Z" fill="#222426"/>
<path d="M72.4514 10.4324C72.4032 10.8501 72.3067 11.2838 72.2586 11.3964C72.1943 11.573 72.3549 11.6212 72.9012 11.6212H73.6081L73.8169 10.8501C73.9134 10.4324 74.0419 9.99862 74.074 9.88619C74.1061 9.75761 73.8973 9.69336 73.351 9.69336H72.5638L72.4514 10.4324Z" fill="#222426"/>
<path d="M36.4706 10.8495C36.4224 11.0583 36.2938 11.6849 36.1814 12.2633L35.9726 13.3075L35.2496 13.3557L34.5106 13.4039L34.2696 14.4C34.1411 14.9462 34.0608 15.4443 34.0929 15.5085C34.125 15.5889 34.4463 15.637 34.7998 15.637C35.1371 15.637 35.4263 15.7013 35.4263 15.7816C35.4263 15.862 35.1693 17.1472 34.848 18.6413C34.5266 20.1194 34.2053 21.6295 34.125 21.9829C33.9643 22.7701 34.1732 23.5091 34.6551 23.8305C34.8962 23.975 35.6031 24.0875 36.6473 24.1197L38.286 24.1839L38.4627 23.3646C38.768 21.9508 38.7358 21.9026 37.9165 21.9026C37.2096 21.9026 37.1935 21.8865 37.1935 21.3725C37.1935 21.0993 37.2739 20.5692 37.3542 20.2157C37.5149 19.5731 38.3181 15.7978 38.3181 15.7013C38.3181 15.6692 38.7037 15.637 39.1857 15.637H40.0532L40.2299 14.8338C40.5352 13.42 40.5191 13.3879 39.5873 13.3879C38.8643 13.3879 38.784 13.3557 38.8804 13.0987C38.9768 12.8577 39.4427 10.7371 39.4427 10.5603C39.4427 10.5282 38.8001 10.4961 37.9968 10.4961C36.6312 10.4961 36.5509 10.5122 36.4706 10.8495Z" fill="#222426"/>
<path d="M16.7161 13.2126C15.1416 13.5982 13.4065 15.0923 12.5872 16.7792C11.9285 18.1287 11.6072 19.9763 11.8321 21.0847C12.0409 22.113 12.4426 22.9805 12.8763 23.366C14.2901 24.6031 17.0535 24.7638 19.158 23.7356C22.098 22.3058 23.7367 18.0645 22.4997 15.0923C22.2105 14.4015 21.0859 13.4376 20.3469 13.2287C19.6881 13.052 17.439 13.036 16.7161 13.2126ZM18.8367 15.6386C19.5115 15.8795 19.8489 16.5543 19.8489 17.695C19.8489 20.0566 18.4511 21.9042 16.6517 21.9042C15.1577 21.9042 14.5311 20.8599 14.8685 18.9802C15.3344 16.4258 17.0213 15.012 18.8367 15.6386Z" fill="#222426"/>
<path d="M27.5666 13.2758C25.9922 13.7256 24.707 14.9306 24.2571 16.3604C23.6145 18.3686 24.4178 19.1719 27.8879 20.0554C29.6712 20.5053 30.105 21.0515 29.2375 21.7262C28.9001 21.9994 28.5788 22.0636 27.7112 22.0636C26.4742 22.0636 25.9601 21.7584 25.9601 21.0194C25.9601 20.6178 25.9601 20.6178 24.4338 20.6178H22.9076V21.2443C22.9076 23.381 24.2893 24.3931 27.2454 24.3771C28.4342 24.361 28.9965 24.2807 29.7837 23.9915C31.5349 23.3489 32.6916 21.8548 32.7076 20.2483C32.7076 18.706 31.9204 18.0151 29.4142 17.4046C27.1328 16.8424 26.6991 16.505 27.3899 15.8141C27.7755 15.4286 28.6591 15.2358 29.3981 15.3804C30.0247 15.4929 30.2174 15.7017 30.3781 16.3283C30.4906 16.762 30.4906 16.762 31.9365 16.762H33.3985L33.3021 15.7659C33.1414 13.9667 32.1292 13.2116 29.7515 13.1313C28.868 13.083 28.0004 13.1473 27.5666 13.2758Z" fill="#222426"/>
<path d="M43.9135 13.6798C42.5319 14.1778 41.3912 15.3024 41.0218 16.5555C40.9253 16.8929 40.9735 16.925 41.6001 16.925C42.2427 16.925 42.2909 16.8929 42.5641 16.2825C43.0139 15.2703 43.8814 14.7723 45.3434 14.708C46.7411 14.6277 47.3837 14.8526 47.6408 15.4952C47.8818 16.0575 47.7211 17.0054 47.3355 17.391C47.1588 17.5677 46.6768 17.7443 46.1788 17.8087C44.1064 18.0657 42.3712 18.4191 41.6804 18.7083C39.865 19.4955 38.9171 21.7287 39.8007 23.1584C40.6844 24.6044 43.4798 24.7007 45.6005 23.3513C46.3073 22.9175 46.3556 22.9014 46.3556 23.1906C46.3556 23.7368 46.9178 24.1545 47.689 24.1545C48.5243 24.1545 48.7011 24.042 48.8296 23.4155C48.942 22.9336 48.926 22.9336 48.3637 22.9978C47.946 23.046 47.8014 22.9978 47.8014 22.8211C47.8014 22.6926 48.1227 21.0378 48.5244 19.1581C49.408 14.9008 49.3598 14.4349 47.7853 13.7119C46.8857 13.3103 45.006 13.2942 43.9135 13.6798ZM47.0784 19.608C46.7893 20.9575 46.6125 21.2948 45.97 21.8732C45.0221 22.6926 44.4437 22.9175 43.0621 22.9978C41.8572 23.0621 41.7446 23.046 41.343 22.6604C40.7808 22.1303 40.7486 21.3592 41.2627 20.6041C41.809 19.7847 42.7889 19.3831 44.8293 19.1742C45.7932 19.0778 46.6929 18.9332 46.8375 18.8529C47.2552 18.5959 47.2873 18.6762 47.0784 19.608Z" fill="#222426"/>
<path d="M77.7804 13.708C75.2098 14.7202 73.5069 17.4192 73.5069 20.5358C73.523 23.0903 74.9528 24.4237 77.5554 24.2952C79.4993 24.1828 81.0899 23.2188 82.102 21.4838C82.6804 20.5037 82.6322 20.2949 81.861 20.2949C81.2987 20.2949 81.1863 20.3592 81.0416 20.7126C80.7686 21.4677 79.9492 22.3513 79.1942 22.7047C78.5997 22.9939 78.2623 23.0421 77.3305 22.9939C76.2381 22.9297 76.1738 22.9136 75.6597 22.3192C75.3544 21.9657 75.0653 21.4356 75.0171 21.1303C74.8403 20.2307 75.0653 18.6402 75.5151 17.6441C76.3987 15.6359 77.6519 14.672 79.3548 14.672C80.7525 14.672 81.379 15.1379 81.7164 16.391C81.8932 17.0497 81.9253 17.0818 82.5197 17.0818H83.1463V16.2304C83.1463 14.4471 81.8289 13.3867 79.6279 13.3867C78.9853 13.4028 78.2623 13.5153 77.7804 13.708Z" fill="#222426"/>
<path d="M87.8381 13.7263C86.601 14.2083 85.2033 15.5578 84.5124 16.9877C83.3718 19.3011 83.3879 21.9197 84.5286 23.189C85.9102 24.7151 89.1554 24.6669 90.9868 23.0925C91.5489 22.6106 92.6253 21.1646 92.6253 20.8916C92.6253 20.8273 92.3206 20.7791 91.9505 20.7791C91.3403 20.7951 91.212 20.8595 90.8262 21.4217C90.1034 22.466 89.2357 22.9319 87.9027 22.9961C86.9224 23.0443 86.6815 23.0122 86.1994 22.6748C85.4121 22.1447 85.0748 21.3896 85.0748 20.1686V19.1725H89.075C91.8222 19.1725 93.1237 19.1243 93.204 18.9958C93.252 18.8995 93.3166 18.1605 93.3166 17.3411C93.3489 15.7988 93.156 15.2044 92.4009 14.385C91.4852 13.3569 89.5412 13.0838 87.8381 13.7263ZM90.9868 14.9956C91.6458 15.3972 91.9828 16.1683 91.9828 17.2447V18.0479H88.7695C86.1833 18.0479 85.5567 17.9997 85.5567 17.8391C85.5567 17.4536 86.7618 15.7185 87.2594 15.3972C88.1916 14.7867 88.5452 14.6742 89.4932 14.6742C90.1837 14.6742 90.6175 14.7706 90.9868 14.9956Z" fill="#222426"/>
<path d="M61.943 14.4645C62.4892 17.5812 62.7462 19.1878 63.0353 20.9389C63.2282 22.0474 63.4049 23.1881 63.4531 23.4612C63.5495 23.9753 63.5816 23.9913 64.3046 23.9913H65.0597L66.2646 21.9831C66.9233 20.8746 67.8551 19.3323 68.3049 18.5612C68.7708 17.79 69.3331 16.8422 69.5581 16.4406C69.7829 16.0389 70.2167 15.316 70.5219 14.834C70.8272 14.3521 71.0843 13.9023 71.0843 13.8219C71.0843 13.7576 70.779 13.7094 70.4095 13.7094C69.6384 13.7094 69.9597 13.2917 67.5981 17.3241C67.1321 18.1113 66.5377 19.1235 66.2646 19.5733C65.9914 20.0071 65.5256 20.7943 65.2364 21.3244C64.7223 22.2402 64.7062 22.2563 64.6259 21.8065C64.4973 21.1478 63.6941 16.2639 63.4692 14.9143L63.2924 13.7897L62.5534 13.7415L61.8144 13.6934L61.943 14.4645Z" fill="#222426"/>
<path d="M71.6113 14.707C71.4185 15.8156 69.8762 23.0611 69.7155 23.6233C69.6192 23.9607 69.6673 23.9928 70.3261 23.9928H71.033L71.6435 21.0529C71.9808 19.4464 72.4146 17.2935 72.6234 16.2815C72.8484 15.2693 73.0572 14.2733 73.1214 14.0644C73.2179 13.7431 73.1697 13.7109 72.511 13.7109H71.788L71.6113 14.707Z" fill="#222426"/>
<path d="M94.2489 23.0298C94.152 23.4797 94.0717 23.8813 94.0717 23.9134C94.0717 23.9616 94.4252 23.9937 94.8591 23.9937H95.6465L95.8228 23.1905C95.9197 22.7406 96 22.339 96 22.3069C96 22.2587 95.6465 22.2266 95.2126 22.2266H94.4252L94.2489 23.0298Z" fill="#222426"/>
<path d="M11.422 42L14.966 48.561L22.844 49.634L17.156 54.762L18.481 61.986L11.422 58.594L4.363 61.986L5.688 54.762L0 49.634L7.878 48.561L11.422 42ZM36.34 42L39.884 48.561L47.762 49.634L42.074 54.762L43.399 61.986L36.34 58.594L29.281 61.986L30.606 54.762L24.918 49.634L32.796 48.561L36.34 42ZM61.258 42L64.802 48.561L72.68 49.634L66.992 54.762L68.317 61.986L61.258 58.594L54.199 61.986L55.524 54.762L49.836 49.634L57.714 48.561L61.258 42ZM86.176 42L89.72 48.561L97.598 49.634L91.91 54.762L93.235 61.986L86.176 58.594L79.117 61.986L80.442 54.762L74.754 49.634L82.632 48.561L86.176 42ZM111.262 42L114.806 48.561L122.684 49.634L116.996 54.762L118.321 61.986L111.262 58.594L104.203 61.986L105.529 54.762L99.841 49.634L107.719 48.561L111.262 42Z" fill="#FFAA00"/>
<mask id="mask0_2017_6620" style="mask-type:alpha" maskUnits="userSpaceOnUse" x="100" y="42" width="24" height="20">
<path d="M114.953 48.7987L115.073 49.0227L115.325 49.0567L122.136 49.9837L117.248 54.3897L117.04 54.5777L117.091 54.8517L118.238 61.1087L112.065 58.1427L111.849 58.0387L111.633 58.1427L105.459 61.1087L106.607 54.8517L106.657 54.5777L106.45 54.3907L101.562 49.9847L108.373 49.0577L108.625 49.0237L108.745 48.7997L111.849 43.0527L114.953 48.7987Z" fill="#D9D9D9" stroke="black"/>
</mask>
<g mask="url(#mask0_2017_6620)">
<path d="M113.711 38.7266H125.168V65.7316H113.711V38.7266Z" fill="white"/>
</g>
<path d="M115.173 48.6803L115.233 48.7913L115.359 48.8093L122.703 49.8093L117.415 54.5773L117.312 54.6703L117.337 54.8083L118.573 61.5473L111.957 58.3693L111.849 58.3173L111.741 58.3693L105.124 61.5473L106.361 54.8083L106.387 54.6703L106.283 54.5773L100.994 49.8093L108.339 48.8093L108.465 48.7913L108.525 48.6803L111.849 42.5273L115.173 48.6803Z" stroke="#FFAA00" stroke-width="0.5"/>
</svg>
