<svg width="32" height="33" viewBox="0 0 32 33" fill="none" xmlns="http://www.w3.org/2000/svg">
<path d="M16.0159 0.515625C7.20162 0.515625 0.03125 7.68567 0.03125 16.4993C0.03125 25.3136 7.20196 32.4843 16.0156 32.4843C24.8289 32.4843 31.999 25.3136 31.999 16.4993C31.9993 7.686 24.8293 0.515625 16.0159 0.515625ZM1.6443 16.4993C1.6443 14.4162 2.09108 12.4378 2.88864 10.651L9.74411 29.4336C4.95046 27.1037 1.6443 22.1879 1.6443 16.4993ZM16.0159 30.8716C14.6052 30.8716 13.2436 30.6647 11.9561 30.286L16.2677 17.7566L20.686 29.8588C20.7146 29.9302 20.7495 29.9953 20.7883 30.0568C19.2945 30.5823 17.6895 30.8716 16.0159 30.8716ZM17.9961 9.76144C18.861 9.71593 19.6413 9.62458 19.6413 9.62458C20.4153 9.5329 20.3246 8.3952 19.5493 8.4407C19.5493 8.4407 17.2217 8.62307 15.7186 8.62307C14.3069 8.62307 11.9332 8.4407 11.9332 8.4407C11.1585 8.3952 11.0682 9.57908 11.8425 9.62458C11.8425 9.62458 12.5759 9.71593 13.3496 9.76144L15.5884 15.8964L12.4434 25.3286L7.21093 9.76177C8.07724 9.7166 8.85587 9.62492 8.85587 9.62492C9.62984 9.53357 9.53849 8.3952 8.76352 8.4417C8.76352 8.4417 6.43695 8.62407 4.93352 8.62407C4.66346 8.62407 4.34557 8.61709 4.00874 8.60679C6.5778 4.70471 10.9954 2.12868 16.0159 2.12868C19.7579 2.12868 23.1641 3.55903 25.7205 5.90121C25.6584 5.89789 25.5983 5.88959 25.5338 5.88959C24.1227 5.88959 23.1209 7.1193 23.1209 8.44037C23.1209 9.62425 23.8035 10.6268 24.532 11.8106C25.0791 12.768 25.7168 13.998 25.7168 15.7742C25.7168 17.0046 25.2445 18.4316 24.623 20.42L23.1896 25.2103L17.9961 9.76144ZM23.2405 28.9221L27.6302 16.2303C28.451 14.1804 28.723 12.5411 28.723 11.0825C28.723 10.554 28.6885 10.0627 28.626 9.60465C29.7488 11.6519 30.3876 14.0013 30.3869 16.5C30.3866 21.8015 27.5126 26.4307 23.2405 28.9221Z" fill="white"/>
</svg>
