<svg xmlns="http://www.w3.org/2000/svg" width="9" height="13" fill="none" xmlns:v="https://vecta.io/nano"><path d="M1.611.643c-.173-.004-.343.046-.487.144s-.253.237-.313.399-.069.339-.024.507.141.316.275.426l5.099 4.368-5.099 4.367a.83.83 0 0 0-.227.254c-.058.099-.094.209-.107.323s-.002.229.031.339.09.211.164.298.167.158.27.208.216.078.33.082a.83.83 0 0 0 .336-.057c.107-.042.204-.105.285-.186l5.838-4.995c.092-.078.165-.175.216-.285s.077-.229.077-.349-.026-.24-.077-.349-.124-.207-.216-.285l-5.838-5c-.147-.131-.337-.205-.534-.21z" fill="#fff"/></svg>