<svg xmlns="http://www.w3.org/2000/svg" width="33" height="33" fill="none" xmlns:v="https://vecta.io/nano"><path d="M12.749 16.137l2.667 2.667 6-6m6 4c0 6.545-7.139 11.305-9.736 12.82-.295.172-.443.258-.651.303-.162.035-.398.035-.559 0-.208-.045-.356-.131-.651-.303-2.597-1.515-9.736-6.275-9.736-12.82v-6.376c0-1.066 0-1.599.174-2.057.154-.405.404-.766.729-1.052.368-.324.867-.511 1.865-.886L16 3.751c.277-.104.416-.156.558-.177.127-.018.255-.018.381 0 .143.021.281.073.558.177l7.149 2.681c.998.374 1.497.561 1.865.886.325.286.575.647.729 1.052.174.458.174.991.174 2.057v6.377z" stroke="#fff" stroke-width="1.867" stroke-linecap="round" stroke-linejoin="round"/></svg>