<svg xmlns="http://www.w3.org/2000/svg" width="32" height="32" fill="none" xmlns:v="https://vecta.io/nano"><path d="M15.045 4.604c.307-.623.461-.934.67-1.033.181-.087.392-.087.574 0 .209.099.362.411.67 1.033l2.916 5.907c.091.184.136.276.202.347.059.063.129.114.207.151.088.041.19.056.392.085l6.522.953c.687.1 1.03.151 1.189.318.138.146.203.346.177.546-.03.229-.279.471-.776.955l-4.717 4.595c-.147.143-.221.215-.268.3a.67.67 0 0 0-.079.244c-.012.097.006.198.04.4l1.113 6.49c.117.684.176 1.027.066 1.23-.096.177-.267.301-.464.337-.227.042-.535-.12-1.149-.443l-5.83-3.066c-.182-.096-.273-.143-.368-.162-.085-.017-.172-.017-.257 0-.096.019-.186.066-.368.162l-5.83 3.066c-.615.323-.922.485-1.149.443-.198-.037-.368-.161-.464-.337-.11-.203-.052-.545.066-1.23l1.113-6.49c.035-.202.052-.303.04-.4a.67.67 0 0 0-.079-.244c-.047-.085-.121-.157-.268-.3l-4.717-4.595c-.497-.484-.746-.726-.776-.955-.026-.199.039-.4.177-.546.159-.168.502-.218 1.189-.318l6.522-.953c.203-.03.304-.044.393-.085.078-.036.149-.088.207-.151.066-.071.112-.163.202-.347l2.915-5.907z" stroke="#fff" stroke-width="2.667" stroke-linejoin="round"/></svg>