<svg width="32" height="32" viewBox="0 0 32 32" fill="none" xmlns="http://www.w3.org/2000/svg">
<path d="M30.7891 11.4165L27.0983 10.8725C26.781 10.1498 26.3783 9.44047 25.8783 8.72045L27.2823 5.12562C27.5423 4.4456 27.2743 3.69626 26.6623 3.35356L21.3621 0.204128C20.7474 -0.169198 19.9487 -0.0185677 19.5034 0.558829L17.2033 3.58163C16.3125 3.48831 15.6885 3.48831 14.7979 3.58163L12.4965 0.554829C12.0618 -0.00919239 11.2897 -0.162511 10.6457 0.200128L5.35489 3.34425C4.75218 3.68157 4.47754 4.44029 4.72155 5.12962L6.12292 8.71507C5.6389 9.40178 5.23088 10.1244 4.90418 10.8712L1.22536 11.4139C0.526707 11.5045 0 12.1219 0 12.8486V19.1541C0 19.8822 0.526707 20.4995 1.21336 20.5862L4.90418 21.1302C5.22151 21.8529 5.62421 22.5623 6.12423 23.2823L4.72018 26.8771C4.46017 27.5585 4.72818 28.3079 5.3402 28.6492L10.6604 31.812C10.8871 31.9387 11.1324 32 11.3737 32C11.8031 32 12.2205 31.8067 12.5005 31.4427L14.7992 28.4199C15.5086 28.4972 16.498 28.4972 17.206 28.4199L19.5074 31.4467C19.9407 32.0094 20.7128 32.164 21.3582 31.8027L22.8915 30.8906C23.2076 30.7026 23.3116 30.2933 23.1236 29.9773C22.9355 29.6613 22.5262 29.556 22.2102 29.7453L20.5661 30.6373L18.0367 27.3105C17.8927 27.1212 17.6607 27.0252 17.4207 27.0532C16.6127 27.1572 15.3939 27.1572 14.5859 27.0532C14.3472 27.0265 14.1139 27.1212 13.9699 27.3105L11.3298 30.6573L6.0096 27.4945C5.95891 27.4652 5.95091 27.4012 5.96829 27.3572L7.50166 23.4317C7.58435 23.2184 7.55366 22.9797 7.41896 22.7957C6.79894 21.9437 6.33361 21.1197 5.9976 20.2769C5.9096 20.0556 5.70959 19.8982 5.47489 19.8636L1.41205 19.2649C1.40805 19.2649 1.34136 19.1529 1.33736 19.1529V12.8473L1.41205 12.734L5.47489 12.1353C5.7109 12.1006 5.9096 11.9433 5.9976 11.7219C6.34692 10.8446 6.82294 9.99918 7.41496 9.20984C7.55228 9.02583 7.58566 8.78313 7.50166 8.5685L5.97491 4.66429C5.95622 4.60829 5.9736 4.52698 6.0256 4.4976L11.4418 1.36417L13.9712 4.69098C14.1152 4.87899 14.3472 4.97499 14.5872 4.94831C15.6966 4.80561 16.3126 4.80561 17.422 4.94831C17.6633 4.97631 17.894 4.8803 18.038 4.69098L20.6781 1.34555L25.997 4.50698C26.0477 4.53629 26.057 4.60029 26.0397 4.64429L24.5064 8.56975C24.4237 8.78307 24.4543 9.02177 24.589 9.20578C25.2091 10.0578 25.6744 10.8818 26.0104 11.7246C26.0984 11.9459 26.2984 12.1033 26.5331 12.1379L30.596 12.7366C30.6 12.7379 30.6666 12.8499 30.6706 12.8499V19.1555L30.596 19.2675L27.9905 19.6515C27.6252 19.7048 27.3732 20.0435 27.4278 20.4075C27.4812 20.7715 27.8172 21.0275 28.1839 20.9702L30.776 20.5875C31.4747 20.4982 32.0027 19.8822 32.0027 19.1541V12.8486C32.0012 12.1219 31.4759 11.5045 30.7891 11.4165Z" fill="white"/>
<path d="M23.7698 18.8262C23.0258 18.0822 22.6205 17.1382 22.6605 16.2355C22.7311 14.5901 22.0431 13.0193 20.5564 11.434C19.2843 10.0779 17.5763 9.30858 15.9149 9.33258C14.4335 9.35126 13.0215 9.8686 11.8307 10.8299C11.6614 10.9673 11.5694 11.178 11.584 11.3953C11.6 11.6126 11.72 11.8086 11.9067 11.9193L15.9816 14.3634C15.8603 15.5887 15.1362 16.6635 14.0282 17.2368L10.3801 15.0474C10.1787 14.9261 9.89873 14.9354 9.69072 15.0487C9.48802 15.1594 9.35739 15.3661 9.34402 15.5954C9.2347 17.4542 9.87604 19.2209 11.1481 20.5703C12.4041 21.901 14.1722 22.6637 16.0003 22.6637C16.491 22.6637 16.983 22.5997 17.523 22.4624L26.034 30.9734C26.694 31.6347 27.5714 31.9974 28.5061 31.9974C30.4329 31.9974 31.9996 30.4294 31.9996 28.5026C31.9996 27.5693 31.6355 26.6918 30.9755 26.0318L23.7698 18.8262ZM28.506 30.6653H28.5033C27.926 30.6653 27.3833 30.44 26.9752 30.032L18.1896 21.2463C18.0616 21.1196 17.8923 21.0516 17.7176 21.0516C17.6523 21.0516 17.5883 21.0596 17.5283 21.0783C16.9576 21.2503 16.4735 21.3303 16.0015 21.3303C14.5161 21.3303 13.1387 20.7356 12.1201 19.6556C11.3653 18.8556 10.8893 17.8715 10.728 16.8115L13.6574 18.5689C13.8534 18.6862 14.0934 18.6942 14.2988 18.5942L14.5801 18.4542C16.2775 17.6048 17.3335 15.8968 17.3335 13.998C17.3335 13.7633 17.2095 13.546 17.0095 13.426L13.4894 11.3139C14.2454 10.8979 15.0747 10.6752 15.9321 10.6646C17.2189 10.6459 18.5682 11.2606 19.5843 12.3446C20.8296 13.674 21.3843 14.8914 21.3283 16.1768C21.2723 17.4515 21.819 18.7609 22.8271 19.7689L30.0327 26.9759C30.442 27.3839 30.666 27.9266 30.666 28.5052C30.6674 29.696 29.6993 30.6653 28.506 30.6653Z" fill="white"/>
</svg>
