<svg xmlns="http://www.w3.org/2000/svg" width="125" height="42" fill="none" xmlns:v="https://vecta.io/nano"><path fill-rule="evenodd" d="M119.962 37.314l-.153-.102-5.02-3.124c-5.973-3.268-12.873-5.4-19.71-5.492-.286-.003-.562.107-.768.306s-.323.472-.328.759a1.08 1.08 0 0 0 1.066 1.095c6.488.084 13.034 2.125 18.701 5.226 1.717.94 3.337 2.015 4.961 3.092l2.424 1.584.169.11c.34.224 1.058.696 1.269.768.611.211 1-.091 1.162-.254.136-.135.268-.329.331-.61.05-.232.042-.694-.101-1.309-.296-1.3-1.142-3.68-1.741-5.366l-.622-1.814c-2.056-7.677-2.848-15.187-3.67-22.972l-.336-3.16c-.032-.285-.176-.545-.399-.725s-.509-.263-.793-.233c-.141.015-.278.058-.402.126a1.06 1.06 0 0 0-.323.271 1.08 1.08 0 0 0-.195.374c-.04.136-.052.279-.036.42l.325 3.05c.726 6.873 1.43 13.532 2.967 20.271-9.745-16.969-28.025-22.067-46.614-20.55-18.25 1.487-36.757 9.386-47.59 18.503l1.223-2.3c.365-.702.923-1.642 1.576-2.744 1.916-3.23 4.655-7.85 5.8-11.956 1.173-4.2.685-7.877-3.066-9.602-3.41-1.567-7.442-.086-11.398 3.216C10.156 11.281 1.769 26.686.439 31.993a1.08 1.08 0 0 0 .122.817 1.08 1.08 0 0 0 .664.492 1.08 1.08 0 0 0 .817-.122 1.08 1.08 0 0 0 .492-.664c1.278-5.093 9.348-19.865 17.522-26.69 3.195-2.667 6.356-4.176 9.11-2.91 2.719 1.249 2.738 4.015 1.888 7.06-1.108 3.978-3.774 8.44-5.647 11.575l-1.566 2.71a224.11 224.11 0 0 1-1.523 2.825c-1.32 2.429-2.94 5.405-3.054 5.817-.215.771.294 1.14.47 1.25.136.084.844.46 1.475-.291 9-10.724 30.238-20.957 51.09-22.658 19.966-1.628 39.629 4.614 47.664 26.109z" fill="url(#A)"/><defs><linearGradient id="A" x1="4.899" y1="8.813" x2="125.722" y2="32.068" gradientUnits="userSpaceOnUse"><stop stop-color="#ff2f2f" stop-opacity="0"/><stop offset=".363" stop-color="#ef7b16"/><stop offset=".698" stop-color="#8a43e1"/><stop offset="1" stop-color="#d511fd"/></linearGradient></defs></svg>