<svg xmlns="http://www.w3.org/2000/svg" width="24" height="26" fill="none" xmlns:v="https://vecta.io/nano"><g clip-path="url(#A)"><g clip-path="url(#B)"><path fill-rule="evenodd" d="M7.939 24.264c-2.266-.636-4.638-.957-6.94-1.25-.495-.062-.956.282-.991.766a.88.88 0 0 0 .168.648.88.88 0 0 0 .576.342c2.23.283 4.532.585 6.691 1.197a.9.9 0 0 0 1.098-.61.88.88 0 0 0-.074-.671.88.88 0 0 0-.528-.422zm6.869-9.015c-3.647-3.722-7.754-6.964-11.33-10.786a.87.87 0 0 0-.611-.281.87.87 0 0 0-.629.238.87.87 0 0 0-.283.619.87.87 0 0 0 .248.633c3.576 3.832 7.683 7.085 11.33 10.817.169.168.397.263.635.265s.468-.089.64-.254c.318-.342.354-.903 0-1.251zM21.642.934l.318 6.39c0 .489.425.865.92.842s.85-.44.85-.928l-.318-6.4a.91.91 0 0 0-.307-.614.91.91 0 0 0-.649-.223.88.88 0 0 0-.814.932v.001z" fill="#111"/></g></g><defs><clipPath id="A"><path fill="#fff" d="M0 0h24v26H0z"/></clipPath><clipPath id="B"><path fill="#fff" d="M0 0h24v26H0z"/></clipPath></defs></svg>