<svg xmlns="http://www.w3.org/2000/svg" width="22" height="22" fill="#123455" xmlns:v="https://vecta.io/nano"><path d="M19.25 21.908l-3.358-2.302-2.442 1.673-2.444-1.674-2.444 1.672-2.448-1.674-3.364 2.305V2.75A2.75 2.75 0 0 1 5.5 0h11a2.75 2.75 0 0 1 2.75 2.75v19.158zM6.114 17.382l2.448 1.674 2.445-1.674 2.444 1.674 2.443-1.675 1.523 1.044V2.75a.92.92 0 0 0-.268-.648c-.171-.172-.405-.268-.648-.268h-11a.92.92 0 0 0-.648.268c-.172.171-.268.405-.268.648v15.675l1.531-1.043zm9.471-10.048H6.418v1.833h9.167V7.334zM13.751 11H6.418v1.833h7.333V11z"/></svg>