<svg xmlns="http://www.w3.org/2000/svg" width="22" height="22" fill="none" xmlns:v="https://vecta.io/nano"><g clip-path="url(#A)"><path d="M17.417.916H4.583A4.59 4.59 0 0 0 0 5.499v11a4.59 4.59 0 0 0 4.583 4.583h12.833A4.59 4.59 0 0 0 22 16.499v-11A4.59 4.59 0 0 0 17.417.916zM4.583 2.749h12.833a2.75 2.75 0 0 1 2.548 1.73l-7.02 7.021c-.517.515-1.216.803-1.945.803s-1.429-.289-1.945-.803l-7.02-7.021a2.75 2.75 0 0 1 2.548-1.73zm12.833 16.5H4.583a2.75 2.75 0 0 1-2.75-2.75V6.874l5.925 5.922a4.59 4.59 0 0 0 6.483 0l5.925-5.922v9.625a2.75 2.75 0 0 1-2.75 2.75z" fill="#123455"/></g><defs><clipPath id="A"><path fill="#fff" d="M0 0h22v22H0z"/></clipPath></defs></svg>