<svg xmlns="http://www.w3.org/2000/svg" width="22" height="22" fill="none" xmlns:v="https://vecta.io/nano"><g clip-path="url(#A)"><path d="M13.75 5.5c0-3.033-2.467-5.5-5.5-5.5s-5.5 2.467-5.5 5.5S5.217 11 8.25 11s5.5-2.467 5.5-5.5zm-5.5 3.667A3.67 3.67 0 0 1 4.583 5.5 3.67 3.67 0 0 1 8.25 1.833 3.67 3.67 0 0 1 11.917 5.5 3.67 3.67 0 0 1 8.25 9.167zm11.917 6.417c0-.506-.082-.992-.235-1.447l1.668-.962-.915-1.588-1.671.962a4.59 4.59 0 0 0-2.514-1.457V9.166h-1.833v1.926c-.992.203-1.867.726-2.514 1.457l-1.671-.962-.915 1.588 1.668.962c-.152.456-.235.941-.235 1.447s.082.992.235 1.447l-1.668.962.915 1.589 1.671-.962a4.59 4.59 0 0 0 2.514 1.457v1.926H16.5v-1.926c.992-.203 1.867-.726 2.514-1.457l1.671.962.915-1.589-1.668-.962c.152-.456.235-.941.235-1.447zm-4.583 2.75c-1.516 0-2.75-1.234-2.75-2.75s1.234-2.75 2.75-2.75 2.75 1.234 2.75 2.75-1.234 2.75-2.75 2.75zm-11-5.5h2.75v1.833h-2.75c-1.516 0-2.75 1.234-2.75 2.75V22H0v-4.583a4.59 4.59 0 0 1 4.583-4.583z" fill="#123455"/></g><defs><clipPath id="A"><path fill="#fff" d="M0 0h22v22H0z"/></clipPath></defs></svg>