<svg width="18" height="19" viewBox="0 0 18 19" fill="none" xmlns="http://www.w3.org/2000/svg">
<g clip-path="url(#clip0_3379_7134)">
<path d="M11.5841 3.31641H3.21626C2.43109 3.31641 1.79337 3.95413 1.79337 4.7393V16.7454C1.79337 17.5306 2.43109 18.1683 3.21626 18.1683H11.5841C12.3692 18.1683 13.007 17.5306 13.007 16.7454V4.7393C13.0033 3.95413 12.3656 3.31641 11.5841 3.31641ZM12.008 16.7418C12.008 16.9777 11.8163 17.1694 11.5804 17.1694H3.21257C2.97665 17.1694 2.78497 16.9777 2.78497 16.7418V4.7393C2.78497 4.50338 2.97665 4.3117 3.21257 4.3117H11.5804C11.8163 4.3117 12.008 4.50338 12.008 4.7393V16.7418Z" fill="#88AE96"/>
<path d="M14.7837 0.167969H6.41594C5.63076 0.167969 4.99304 0.805691 4.99304 1.59086C4.99304 1.86733 5.21422 2.08851 5.49069 2.08851C5.76716 2.08851 5.98833 1.86733 5.98833 1.59086C5.98833 1.35494 6.18002 1.16326 6.41594 1.16326H14.7837C15.0197 1.16326 15.2114 1.35494 15.2114 1.59086V13.597C15.2114 13.8329 15.0197 14.0246 14.7837 14.0246C14.5073 14.0246 14.2861 14.2458 14.2861 14.5223C14.2861 14.7987 14.5073 15.0199 14.7837 15.0199C15.5689 15.0199 16.2066 14.3822 16.2066 13.597V1.59086C16.2066 0.805691 15.5689 0.167969 14.7837 0.167969Z" fill="#88AE96"/>
</g>
<defs>
<clipPath id="clip0_3379_7134">
<rect width="18" height="18" fill="white" transform="translate(0 0.167969)"/>
</clipPath>
</defs>
</svg>
