<svg width="27" height="27" viewBox="0 0 27 27" fill="none" xmlns="http://www.w3.org/2000/svg">
<path d="M26.5905 24.4786L19.1968 17.085C20.629 15.3159 21.4913 13.068 21.4913 10.6197C21.4913 4.94526 16.8742 0.328125 11.1997 0.328125C5.52529 0.328125 0.908203 4.94521 0.908203 10.6197C0.908203 16.2941 5.52534 20.9112 11.1998 20.9112C13.6481 20.9112 15.896 20.0489 17.665 18.6168L25.0587 26.0104C25.27 26.2217 25.5473 26.3279 25.8246 26.3279C26.102 26.3279 26.3793 26.2217 26.5906 26.0104C27.0141 25.5869 27.0141 24.9022 26.5905 24.4786ZM11.1998 18.7446C6.71915 18.7446 3.07487 15.1003 3.07487 10.6197C3.07487 6.13902 6.71915 2.49474 11.1998 2.49474C15.6804 2.49474 19.3247 6.13902 19.3247 10.6197C19.3247 15.1003 15.6804 18.7446 11.1998 18.7446Z" fill="white"/>
</svg>
