<svg xmlns="http://www.w3.org/2000/svg" width="107" height="20" fill="none" xmlns:v="https://vecta.io/nano"><g clip-path="url(#A)"><path d="M101.084.358l5.188 7.547-10.905 7.546L101.084.358z" fill="#008c44"/><path d="M97.449.358l5.183 7.547-10.91 7.546L97.449.358z" fill="#f47920"/><g fill="#6d6e71"><path d="M23.645 11.308c-.398.614-1.203 1.058-2.164 1.147h-.711H6.831L8.01 9.368h10.755 3.317.718c.539.098.962.41 1.085.805a1.52 1.52 0 0 1 .027.271 1.07 1.07 0 0 1-.009.139l-.003.058-.254.666zM10.312 3.331h10.744 3.365.709c.407.073.747.267.944.526.072.182.113.373.113.57 0 .107-.014.21-.036.313l-.038.099-.143.377c-.381.657-1.222 1.135-2.228 1.225h-.683H9.126l1.186-3.109zm15.435 11.623c.509-.286.845-.641 1.006-1.063l1.725-4.522c.158-.411.088-.756-.206-1.035s-.728-.418-1.302-.418a3.28 3.28 0 0 0 1.627-.429c.511-.286.842-.635.999-1.046l1.723-4.516c.169-.439.111-.801-.168-1.089s-.718-.432-1.314-.432H7.338l-5.717 14.98h22.5a3.27 3.27 0 0 0 1.626-.43zM54.89.416l-2.261 6.017H36.397L38.659.416h-4.035l-5.616 14.93h4.036l2.255-5.991h16.229l-2.252 5.991h4.036L58.927.416H54.89zm5.21 14.978h-4.063L61.687.467h4.062L60.1 15.394zM94.002.453L77.144 10.905l-5.88-7.149L68.547.453h-.073l-1.28 3.392-4.335 11.491h4.036l3.039-8.055 6.438 8.075L87.03 8.209l-2.673 7.127h4.037l3.94-10.446L94.009.453h-.007z"/></g><g fill="#414042"><path d="M1.32 18.124h.199c.247 0 .431-.024.549-.07a.37.37 0 0 0 .231-.235c.039-.122.019-.207-.059-.255s-.251-.073-.513-.073h-.199l-.208.634zm-.318.976h.179l.412-.014a.83.83 0 0 0 .232-.053.58.58 0 0 0 .187-.117.4.4 0 0 0 .106-.163.25.25 0 0 0-.003-.184c-.026-.052-.072-.093-.142-.122a.67.67 0 0 0-.157-.038c-.062-.008-.143-.012-.249-.012H1.41h-.179l-.23.704zm-.609.301l.722-2.209h.807c.229 0 .396.009.501.026a.71.71 0 0 1 .253.084.37.37 0 0 1 .166.198.42.42 0 0 1-.006.269.61.61 0 0 1-.215.296.97.97 0 0 1-.397.165c.18.02.308.079.382.176s.089.219.041.367c-.029.089-.08.175-.151.254a.97.97 0 0 1-.26.207c-.107.061-.229.104-.367.13s-.36.037-.666.037h-.81zm3.93-.001l.722-2.209h.519l-.266.815H6.87l.267-.815h.52L6.935 19.4h-.52l.352-1.073H5.193L4.842 19.4h-.519zm5.654-.868h.892l-.163-.504a.97.97 0 0 1-.023-.111l-.015-.139-.1.135-.098.116-.494.504zm1.153.868l-.175-.569H9.688l-.558.569h-.546l2.3-2.296.796 2.296h-.549zm3.136-1.268h.094c.275 0 .465-.021.57-.066s.175-.124.213-.235c.04-.122.019-.208-.062-.257s-.252-.075-.513-.075h-.094l-.208.633zm-.123.279l-.324.988h-.487l.723-2.208h.725a3.11 3.11 0 0 1 .486.028c.111.019.201.051.269.095a.38.38 0 0 1 .161.207.45.45 0 0 1-.009.278c-.058.177-.166.315-.323.416s-.358.16-.606.18l.772 1.004h-.588l-.741-.988h-.058zm4.004.121h.892l-.163-.504a.78.78 0 0 1-.023-.111l-.015-.139-.1.135-.098.116-.494.504zm1.153.868l-.175-.569h-1.267l-.558.569h-.546l2.3-2.296.794 2.296H19.3zm3.613-1.904l-.624 1.904h-.519l.623-1.904h-.85l.1-.304h2.215l-.099.304h-.846zm4.68 1.904l.722-2.209h.519l-.722 2.209h-.519zm2.618 0l.75-2.296 1.59 1.35.128.122.131.146.501-1.531h.481l-.75 2.295-1.623-1.375c-.044-.037-.084-.076-.122-.117a1.11 1.11 0 0 1-.106-.13l-.503 1.536h-.477zm6.6-1.904l-.623 1.904h-.519l.623-1.904h-.85l.1-.304h2.214l-.097.304h-.847zm1.971 1.904l.723-2.209h1.784l-.1.305h-1.265l-.181.554h1.265l-.103.315H39.64l-.233.714h1.265l-.105.321h-1.784zm4.666-1.268h.094c.275 0 .465-.021.57-.066s.175-.124.213-.235c.039-.122.019-.208-.062-.257s-.252-.075-.513-.075h-.094l-.208.633zm-.123.279L43 19.4h-.487l.722-2.208h.725a3.14 3.14 0 0 1 .486.028.71.71 0 0 1 .269.095.38.38 0 0 1 .162.207.45.45 0 0 1-.009.278c-.058.177-.166.315-.323.416s-.358.16-.606.18l.772 1.004h-.588l-.741-.988h-.058zm3.045.989l.723-2.209h1.784l-.1.305h-1.265l-.179.551h1.265l-.103.315H47.23l-.34 1.038h-.519zm4.498-.868h.891l-.163-.504a.97.97 0 0 1-.023-.111l-.015-.139-.1.135-.098.116-.492.504zm1.153.868l-.176-.569h-1.267l-.556.569h-.547l2.3-2.296.796 2.296h-.548zm5.236-1.672a1.29 1.29 0 0 0-.403-.195 1.8 1.8 0 0 0-.494-.065 1.83 1.83 0 0 0-.93.234c-.27.154-.445.355-.525.602-.079.238-.036.434.127.59s.407.233.732.233a2.3 2.3 0 0 0 .562-.071 2.66 2.66 0 0 0 .562-.21l-.134.407a2.53 2.53 0 0 1-.508.155 2.9 2.9 0 0 1-.552.051c-.245 0-.461-.028-.65-.083a1.21 1.21 0 0 1-.468-.245.74.74 0 0 1-.237-.373.82.82 0 0 1 .024-.458c.053-.162.145-.314.275-.456a1.92 1.92 0 0 1 .487-.376c.194-.108.403-.189.626-.246a2.88 2.88 0 0 1 .695-.083c.187 0 .36.019.518.057a1.68 1.68 0 0 1 .44.171l-.148.362zm1.448 1.672l.722-2.209h1.784l-.1.305h-1.265l-.18.554h1.265l-.103.315h-1.265l-.233.714h1.265l-.106.321h-1.784zm6.433 0l.722-2.209h1.784l-.1.305H66.28l-.18.551h1.265l-.103.315h-1.265l-.339 1.038h-.519zm6.795-1.1c.037-.111.042-.218.016-.318s-.081-.19-.166-.268a.82.82 0 0 0-.316-.178 1.39 1.39 0 0 0-.43-.064c-.156 0-.312.021-.468.063s-.302.1-.438.179a1.37 1.37 0 0 0-.341.267.9.9 0 0 0-.192.32.55.55 0 0 0-.015.317.54.54 0 0 0 .165.267.83.83 0 0 0 .319.179c.128.042.271.063.43.063a1.78 1.78 0 0 0 .465-.063 1.8 1.8 0 0 0 .438-.179 1.39 1.39 0 0 0 .341-.268.84.84 0 0 0 .192-.316zm.542 0a1.18 1.18 0 0 1-.274.445c-.13.139-.295.264-.494.374s-.415.194-.64.252a2.72 2.72 0 0 1-.679.087 2.17 2.17 0 0 1-.63-.088c-.19-.058-.347-.143-.472-.252s-.21-.234-.25-.372a.76.76 0 0 1 .02-.447c.051-.158.142-.306.273-.446a2.02 2.02 0 0 1 .495-.377 2.67 2.67 0 0 1 .635-.25 2.75 2.75 0 0 1 .685-.086c.231 0 .439.028.627.086s.344.14.472.25a.79.79 0 0 1 .249.379c.04.14.034.287-.017.444zm2.522-.168h.094c.274 0 .465-.021.569-.066a.37.37 0 0 0 .213-.235c.04-.122.02-.208-.062-.257s-.252-.075-.513-.075h-.094l-.207.633zm-.124.279l-.324.988h-.487l.722-2.208h.725a3.14 3.14 0 0 1 .486.028c.112.019.201.051.271.095.08.053.135.123.16.207a.45.45 0 0 1-.009.278.77.77 0 0 1-.322.416c-.156.1-.359.16-.607.18l.772 1.004h-.588l-.741-.988h-.058zm8.711-.102a1.29 1.29 0 0 1 .019-.142l.021-.16a1.12 1.12 0 0 1-.105.15 1.6 1.6 0 0 1-.142.155l-1.221 1.177-.444-1.201a.8.8 0 0 1-.043-.144l-.023-.138a.99.99 0 0 1-.064.145l-.094.16-.698 1.088h-.479l1.508-2.303.488 1.394.031.111.045.189a3.67 3.67 0 0 1 .223-.241l.059-.06 1.377-1.393.02 2.303h-.482l.002-1.091zm5.343-.009a.56.56 0 0 0 .016-.318.56.56 0 0 0-.167-.268.82.82 0 0 0-.316-.178 1.39 1.39 0 0 0-.429-.064 1.81 1.81 0 0 0-.469.063c-.156.041-.302.1-.438.179a1.34 1.34 0 0 0-.34.267c-.092.1-.156.207-.193.32a.54.54 0 0 0 .151.584.82.82 0 0 0 .32.179 1.44 1.44 0 0 0 .43.063 1.73 1.73 0 0 0 .463-.063 1.8 1.8 0 0 0 .438-.179 1.42 1.42 0 0 0 .343-.268.85.85 0 0 0 .192-.316zm.541 0a1.18 1.18 0 0 1-.274.445 1.95 1.95 0 0 1-.494.374c-.2.11-.413.194-.64.252a2.73 2.73 0 0 1-.679.087 2.15 2.15 0 0 1-.63-.088 1.25 1.25 0 0 1-.47-.252.75.75 0 0 1-.25-.372c-.04-.139-.033-.288.019-.447a1.2 1.2 0 0 1 .273-.446 1.99 1.99 0 0 1 .495-.377 2.68 2.68 0 0 1 .637-.25 2.75 2.75 0 0 1 .685-.086c.231 0 .439.028.626.086a1.31 1.31 0 0 1 .473.25c.125.112.208.239.247.379s.034.287-.017.444zm1.588 1.1l.75-2.296 1.591 1.35.128.122.13.146.502-1.531h.48l-.749 2.295-1.624-1.375a1.37 1.37 0 0 1-.122-.117c-.039-.042-.073-.085-.106-.13l-.503 1.536h-.477zm4.945 0l.722-2.209h1.784l-.1.305h-1.265l-.181.554h1.265l-.103.315h-1.265l-.233.714h1.265l-.105.321h-1.784zm4.419 0l.331-1.011-.686-1.198h.546l.425.75.036.076.041.101c.03-.035.063-.068.097-.099l.098-.087.931-.74h.52l-1.493 1.198-.332 1.011h-.514z"/></g></g><defs><clipPath id="A"><path fill="#fff" transform="translate(0 .333)" d="M0 0h106.667v19.167H0z"/></clipPath></defs></svg>