<svg xmlns="http://www.w3.org/2000/svg" width="60" height="40" fill="none" xmlns:v="https://vecta.io/nano"><g clip-path="url(#A)"><path d="M57 .5H3A2.5 2.5 0 0 0 .5 3v34A2.5 2.5 0 0 0 3 39.5h54a2.5 2.5 0 0 0 2.5-2.5V3A2.5 2.5 0 0 0 57 .5z" fill="#fff" stroke="#d7ebff"/><g fill-rule="evenodd"><g fill="#1a1919"><path d="M7.844 24.523c0-.877-.458-.82-.896-.829v-.254l1.15.018 1.686-.018c2.523 0 3.898 1.687 3.898 3.415 0 .967-.565 3.395-4.015 3.395-.497 0-.955-.019-1.413-.019l-1.306.019v-.254c.584-.059.868-.078.896-.742v-4.732zm.955 4.576c0 .752.537.839 1.014.839 2.106 0 2.796-1.59 2.796-3.044 0-1.824-1.169-3.141-3.05-3.141-.401 0-.585.029-.761.039v5.307zm5.224.898h.185c.273 0 .468 0 .468-.323V27.03c0-.429-.146-.488-.507-.683v-.156l1.043-.351c.069-.039.126-.05.176-.05s.068.059.068.137v3.745c0 .323.215.323.488.323h.165v.254c-.331 0-.673-.019-1.023-.019l-1.062.019v-.254zm1.043-5.708a.5.5 0 0 1-.477-.488.5.5 0 0 1 .477-.469c.253 0 .478.206.478.469a.49.49 0 0 1-.478.488zm1.969 2.8c0-.36-.108-.458-.565-.643v-.185l1.286-.469c.029 0 .058.02.058.097v.634c.556-.399 1.034-.732 1.688-.732.827 0 1.119.605 1.119 1.366v2.517c0 .323.215.323.488.323h.176v.254c-.342 0-.683-.019-1.033-.019l-1.053.019v-.254h.176c.273 0 .467 0 .467-.323v-2.526c0-.557-.339-.83-.896-.83-.312 0-.809.253-1.132.469v2.887c0 .323.215.323.488.323h.175v.254c-.341 0-.682-.019-1.033-.019l-1.052.019v-.254h.176c.273 0 .467 0 .467-.323v-2.585zm4.99.469c-.02.088-.02.234 0 .566.057.927.653 1.687 1.432 1.687.537 0 .956-.293 1.316-.653l.136.137c-.448.595-1.004 1.103-1.802 1.103-1.55 0-1.862-1.503-1.862-2.127 0-1.913 1.286-2.479 1.967-2.479.79 0 1.639.497 1.648 1.532 0 .059 0 .117-.009.176l-.088.059h-2.738zm1.726-.312c.243 0 .272-.127.272-.245 0-.497-.302-.897-.848-.897-.594 0-1.003.438-1.12 1.141h1.697z"/><path d="M25.084 29.997h.263c.272 0 .467 0 .467-.323v-2.741c0-.302-.36-.361-.507-.439v-.146l1.191-.557c.057 0 .086.029.086.127v.878h.02c.243-.38.653-1.006 1.247-1.006.244 0 .555.166.555.517 0 .263-.184.499-.457.499-.303 0-.303-.235-.645-.235-.165 0-.711.225-.711.811v2.291c0 .323.195.323.468.323h.545v.254l-1.363-.019-1.16.019v-.254zm3.752-1.103c.127.644.516 1.191 1.229 1.191.574 0 .788-.352.788-.693 0-1.152-2.124-.781-2.124-2.351 0-.547.439-1.249 1.511-1.249.311 0 .73.088 1.11.284l.069.994h-.224c-.097-.614-.438-.965-1.062-.965-.39 0-.76.224-.76.644 0 1.142 2.26.79 2.26 2.322 0 .643-.516 1.327-1.676 1.327a2.56 2.56 0 0 1-1.188-.332l-.108-1.122.175-.049zm11.596-3.688h-.243c-.185-1.14-.994-1.6-2.085-1.6-1.122 0-2.749.751-2.749 3.092 0 1.971 1.404 3.386 2.904 3.386.964 0 1.765-.664 1.959-1.689l.224.058-.224 1.425c-.409.254-1.511.518-2.155.518-2.279 0-3.721-1.474-3.721-3.669 0-2.001 1.783-3.435 3.693-3.435.789 0 1.549.254 2.299.518l.097 1.394zm.351 4.79h.185c.274 0 .468 0 .468-.323V24.24c0-.635-.146-.654-.517-.762v-.156a6.18 6.18 0 0 0 1.004-.42c.106-.058.184-.108.213-.108.06 0 .079.059.079.138v6.741c0 .323.215.323.487.323h.165v.254c-.33 0-.671-.019-1.022-.019l-1.062.019v-.254zm6.257-.283c0 .176.107.185.272.185l.391-.009v.206c-.419.038-1.219.243-1.404.302l-.049-.03v-.791c-.584.478-1.033.82-1.726.82-.526 0-1.071-.342-1.071-1.161v-2.498c0-.254-.039-.498-.584-.546v-.186l1.256-.068c.108 0 .108.068.108.283v2.517c0 .293 0 1.131.848 1.131.331 0 .769-.253 1.178-.594V26.65c0-.195-.468-.302-.818-.399v-.175l1.52-.137c.079 0 .079.068.079.176v3.6z"/><path d="M48.979 26.493c.39-.331.916-.703 1.452-.703 1.131 0 1.813.986 1.813 2.05 0 1.278-.936 2.556-2.33 2.556-.72 0-1.101-.235-1.354-.342l-.291.224-.204-.107c.087-.576.136-1.141.136-1.737v-4.195c0-.635-.147-.654-.517-.762v-.156c.39-.127.799-.302 1.003-.42.108-.058.185-.108.215-.108.058 0 .078.059.078.138v3.56zm0 2.654c0 .37.351.995 1.004.995 1.043 0 1.481-1.025 1.481-1.893 0-1.053-.798-1.931-1.558-1.931-.362 0-.664.235-.927.459v2.37zm-36.781 5.889l.011-.011v-1.99c0-.436-.303-.499-.462-.499h-.117v-.159l.742.021.652-.021v.159h-.079c-.223 0-.473.042-.473.674v2.415c0 .186.005.372.031.537h-.201l-2.73-3.048v2.188c0 .462.09.621.498.621h.09v.16c-.228 0-.456-.021-.684-.021l-.721.021v-.16h.075c.366 0 .477-.25.477-.673v-2.237c0-.297-.245-.477-.482-.477h-.069v-.159l.609.021.472-.021 2.36 2.659z"/><path d="M12.504 36.185l-.218-.007-2.691-3.003v2.128c.006.462.076.593.476.598h.114v.205h-.023c-.229 0-.458-.021-.684-.021l-.721.021h-.023V35.9h.098c.35-.002.451-.227.454-.65v-2.236c-.001-.283-.233-.455-.459-.455h-.093v-.206h.023l.609.021.49-.013 2.33 2.626v-1.953a.41.41 0 0 0-.438-.476h-.14v-.206h.023l.742.021.652-.021h.023v.206h-.102c-.219.006-.443.025-.45.651v2.416c0 .186.006.371.031.532l.005.026h-.028zm-.201-.046h.175a3.58 3.58 0 0 1-.028-.513V33.21c0-.637.267-.697.495-.698h.056V32.4l-.629.021c-.243 0-.479-.019-.719-.021l-.001.113h.094a.46.46 0 0 1 .484.523l-.007 2.007-.01.01-.018.017-2.358-2.67-.473.021c-.194 0-.393-.019-.586-.021l-.001.113h.047a.5.5 0 0 1 .505.501v2.236c0 .425-.118.696-.5.697l-.051-.001v.114l.698-.021.661.021v-.113h-.067c-.417-.001-.521-.183-.521-.645v-2.247l2.753 3.084zm-.118-1.113v-.002l-.004-.003.004.005z"/><path d="M13.819 32.643c-.398 0-.414.096-.493.483h-.159l.064-.451c.021-.149.032-.297.032-.451h.127c.043.159.175.154.319.154h2.735c.144 0 .276-.005.287-.165l.127.022-.058.43-.01.429-.159.059c-.011-.196-.037-.51-.392-.51h-.87v2.824c0 .41.186.456.44.456h.101v.16c-.207 0-.578-.021-.864-.021l-.897.021v-.16h.101c.292 0 .44-.026.44-.445v-2.835h-.87z"/><path d="M15.909 36.106c-.209 0-.58-.021-.864-.021l-.897.021h-.023V35.9h.124c.292-.007.41-.011.416-.422v-2.813h-.846v-.046h.892v2.859c0 .426-.171.469-.462.47h-.078v.112l.874-.021.84.021v-.112h-.078c-.256 0-.463-.064-.463-.481v-2.848h.893c.356.001.403.304.414.502l.115-.042.01-.417.055-.408-.081-.013c-.025.154-.174.163-.307.161H13.68c-.125 0-.261-.006-.309-.154h-.088c-.001.147-.011.289-.031.431l-.059.427h.113c.07-.37.115-.49.511-.485v.046c-.393.008-.384.074-.471.466l-.004.018h-.204l.003-.028.064-.451c.022-.147.032-.294.032-.447V32.2h.168l.004.017c.036.134.134.135.269.137h2.763c.148-.002.255-.004.264-.143l.002-.025.024.005.15.024-.004.024-.058.428-.01.428v.016l-.015.006-.188.069-.001-.031c-.015-.2-.035-.489-.37-.489h-.846v2.802c.005.4.164.428.417.434h.124v.205h-.023z"/><path d="M17.026 35.923h.075c.19 0 .393-.026.393-.302V32.84c0-.277-.202-.303-.393-.303h-.075v-.16l1.32.021 1.357-.021a8.87 8.87 0 0 0 .012.813l-.16.042c-.026-.345-.089-.62-.646-.62h-.736v1.39h.63c.318 0 .387-.18.419-.467h.159l-.016.621.016.605-.159.032c-.031-.318-.047-.525-.414-.525h-.635v1.236c0 .346.306.346.646.346.636 0 .917-.043 1.076-.647l.148.037-.18.844c-.34 0-.95-.02-1.426-.02l-1.411.02v-.16z"/><path d="M19.864 36.105c-.34 0-.951-.022-1.426-.022l-1.411.022h-.022V35.9h.097c.192-.003.366-.02.369-.28v-2.781c-.002-.259-.177-.277-.369-.28h-.097v-.206h.022l1.32.021 1.357-.021h.023l-.001.024-.006.274.016.536.001.019-.018.005-.186.049-.001-.027c-.031-.344-.077-.595-.623-.6h-.715v1.345h.609c.306-.003.36-.16.396-.446l.001-.021h.204v.024l-.016.621.016.604v.019l-.019.004-.185.037-.001-.025c-.037-.324-.039-.502-.391-.506h-.614v1.214c.001.323.279.321.624.323.638-.004.894-.035 1.054-.631l.005-.021.022.004.17.044-.005.022-.18.843-.004.019h-.018zm-.02-.046l.172-.804-.104-.026c-.159.594-.466.647-1.092.643-.334 0-.668 0-.67-.369v-1.259h.659c.37-.004.408.22.434.522l.114-.024-.015-.587.015-.599h-.114c-.03.277-.116.471-.439.467h-.654v-1.437h.761c.551-.005.643.281.667.615l.114-.031-.015-.52.005-.252-1.334.021c-.436 0-.972-.019-1.296-.021v.113h.051c.189 0 .414.033.416.327v2.781c-.001.293-.227.325-.416.327h-.051v.112l1.387-.021 1.406.021zm.916-3.12c0-.387-.212-.403-.377-.403h-.096v-.159l.822.021.853-.021c.667 0 1.262.18 1.262.935 0 .477-.318.769-.737.935l.906 1.358c.149.225.254.288.515.319v.16c-.175 0-.345-.02-.52-.02l-.498.02a14.69 14.69 0 0 1-1.103-1.721h-.349V35.5c0 .409.191.424.434.424h.096v.16c-.303 0-.609-.02-.912-.02l-.769.02v-.16h.096c.197 0 .377-.09.377-.286V32.94zm.678 1.231h.259c.531 0 .817-.201.817-.828a.72.72 0 0 0-.775-.775c-.159 0-.227.016-.301.022v1.581z"/><path d="M23.908 36.105c-.178 0-.346-.021-.521-.021l-.516.012c-.407-.535-.756-1.105-1.098-1.71h-.313v1.112c.006.4.166.397.411.402h.119v.205h-.023c-.303 0-.611-.021-.912-.021l-.769.021h-.023V35.9h.119c.191-.002.352-.085.353-.263v-2.698c-.004-.376-.188-.374-.353-.38h-.119v-.206h.023l.822.021.853-.021c.669.001 1.284.186 1.285.957 0 .479-.316.779-.725.946l.89 1.336c.148.22.241.275.499.308l.019.003v.202h-.022zm-2.471-1.766h.362l.007.012c.345.61.694 1.183 1.084 1.709l.497-.021.498.021v-.117c-.248-.03-.365-.105-.51-.325l-.923-1.382.026-.011c.415-.164.723-.447.723-.914 0-.736-.572-.907-1.239-.911l-.854.021c-.311 0-.626-.02-.8-.021v.113h.073c.165 0 .399.028.399.426v2.698c0 .213-.199.31-.399.31h-.073v.112l.746-.021.889.021v-.112h-.073c-.241 0-.457-.03-.457-.45v-1.159h.023zm0-.146h-.023v-1.625l.02-.002c.073-.006.144-.021.305-.021.483 0 .797.314.798.798-.001.634-.305.849-.84.849h-.259zm.259-.045c.525-.005.789-.187.795-.804a.7.7 0 0 0-.753-.754c-.143 0-.211.013-.279.02v1.538h.236z"/><path d="M27.509 35.036l.009-.011v-1.99c0-.436-.301-.499-.46-.499h-.116v-.159l.742.021.653-.021v.159h-.08c-.223 0-.472.042-.472.674v2.415c0 .186.005.372.031.537h-.201l-2.731-3.048v2.188c0 .462.09.621.498.621h.09v.16c-.228 0-.456-.021-.684-.021l-.721.021v-.16h.074c.366 0 .478-.25.478-.673v-2.237c0-.297-.244-.477-.483-.477h-.069v-.159l.61.021.471-.021 2.36 2.659z"/><path d="M27.815 36.185l-.218-.008-2.691-3.003v2.127c.006.462.076.593.476.598h.113v.205h-.023c-.229 0-.457-.022-.684-.022l-.721.022h-.024V35.9h.098c.35-.002.451-.228.454-.651v-2.236c-.001-.283-.232-.454-.459-.454h-.093v-.206h.024l.61.021.487-.014 2.331 2.628v-1.953c-.002-.422-.284-.474-.438-.476h-.14v-.206h.023l.743.021.652-.021h.024v.206h-.102c-.219.005-.444.025-.45.651v2.415c0 .186.005.37.032.533l.003.026h-.026zm-.201-.046h.174c-.023-.159-.028-.336-.028-.513v-2.415c0-.637.269-.696.496-.698h.056V32.4l-.629.021c-.244 0-.48-.019-.72-.021v.113h.094a.46.46 0 0 1 .485.523l-.008 2.007-.01.01-.017.017-2.359-2.67-.472.021c-.197 0-.395-.019-.588-.021v.113h.047a.5.5 0 0 1 .505.501v2.236c0 .426-.12.697-.5.699h-.051v.113l.698-.021.662.021v-.112h-.067c-.417 0-.521-.183-.523-.645v-2.246l2.755 3.083zm-.12-1.113v-.001l-.004-.004.004.005z"/><path d="M29.189 35.324c-.053.18-.117.319-.117.414 0 .16.223.186.398.186h.059v.159l-.643-.021-.572.021v-.159h.032a.48.48 0 0 0 .461-.346l.848-2.436c.069-.197.165-.462.197-.659.169-.058.382-.163.482-.228.017-.005.026-.011.042-.011s.026 0 .037.017l.048.132.976 2.777.194.542c.065.149.176.212.352.212h.032v.159l-.731-.021-.796.021v-.159h.058c.121 0 .329-.021.329-.154 0-.069-.048-.212-.107-.383l-.207-.615h-1.203l-.169.553zm.774-2.352h-.011l-.493 1.503h.991l-.487-1.503z"/><path d="M32.013 36.105l-.73-.022-.795.022-.024.001v-.207h.082c.123 0 .305-.028.305-.13.001-.061-.046-.206-.105-.375l-.202-.601h-1.17l-.165.536c-.053.181-.118.321-.117.407.002.13.2.162.376.162h.081v.207l-.024-.001-.64-.022-.571.022-.025.001v-.207h.055c.197-.001.362-.113.438-.329l.849-2.437.211-.673a2.74 2.74 0 0 0 .481-.228c.015-.005.03-.012.051-.012.013-.001.042.003.059.03l.048.134.976 2.777.195.539c.061.142.159.197.329.198h.054v.207l-.024-.001zm-1.503-.047l.773-.02.707.02v-.111h-.008c-.182.001-.307-.07-.372-.227l-.196-.543-.976-2.777-.045-.128-.018-.005c-.011 0-.017.003-.031.007a1.96 1.96 0 0 1-.472.212c-.032.201-.128.466-.197.663l-.848 2.436c-.081.231-.267.362-.482.361h-.009v.111l.549-.02.617.02v-.111h-.034c-.173-.002-.415-.021-.421-.209 0-.105.066-.241.117-.421l.175-.568h1.237l.212.631c.06.171.108.312.108.39-.008.163-.231.175-.351.178h-.035v.111zm-1.084-1.561l.508-1.549h.029.016l.504 1.549h-1.056zm.063-.046h.928l-.461-1.423-.467 1.423zm2.759-1.808c-.398 0-.414.096-.494.483h-.159l.064-.451c.021-.149.031-.297.031-.451h.128c.041.159.174.154.318.154h2.737c.142 0 .275-.005.285-.165l.127.022-.057.43c-.012.143-.012.286-.012.429l-.158.059c-.009-.196-.036-.51-.392-.51h-.869v2.824c0 .41.186.456.44.456h.101v.16c-.207 0-.578-.021-.865-.021l-.896.021v-.16h.101c.292 0 .44-.026.44-.445v-2.835h-.869z"/><path d="M34.337 36.106c-.208 0-.58-.021-.865-.021l-.896.021h-.023V35.9h.124c.292-.007.41-.011.417-.422v-2.813h-.845v-.046h.892v2.859c0 .426-.172.468-.463.469h-.078v.113l.873-.021.841.021v-.113h-.078c-.255-.001-.462-.062-.462-.48v-2.848h.892c.356.001.403.304.413.502l.115-.042.012-.417.054-.408-.08-.014c-.024.154-.174.163-.306.161h-2.764c-.125.001-.26-.006-.308-.154h-.087a3.11 3.11 0 0 1-.033.431l-.06.427h.114c.07-.37.116-.491.513-.485v.046c-.393.007-.385.074-.471.466l-.004.018h-.205l.003-.026.064-.451c.022-.148.031-.296.031-.448V32.2h.169l.004.017c.037.134.134.135.269.137h2.764c.147-.002.254-.004.263-.143l.001-.026.025.005.151.024-.004.024-.058.428c-.011.142-.011.285-.011.428v.016l-.016.006-.188.069v-.031c-.014-.2-.035-.489-.37-.489h-.847v2.802c.005.4.164.428.417.434h.124v.205h-.022z"/><path d="M35.482 35.923h.074c.191 0 .392-.026.392-.302V32.84c0-.277-.201-.303-.392-.303h-.074v-.16l.784.021.834-.021v.16h-.075c-.192 0-.393.026-.393.303v2.781c0 .276.201.302.393.302h.075v.16c-.255 0-.573-.02-.838-.02l-.78.02v-.16z"/><path d="M37.099 36.106c-.256 0-.574-.022-.838-.022l-.78.022h-.023V35.9h.097c.191-.003.367-.02.368-.28v-2.78c-.001-.259-.178-.277-.368-.28h-.097v-.206h.023l.784.021.834-.021h.022v.206h-.096c-.194.004-.369.021-.37.28v2.781c.002.259.176.276.37.28h.096v.205h-.022zm-.024-.046v-.112h-.05c-.19 0-.415-.033-.415-.326V32.84c0-.294.225-.326.415-.327h.05V32.4l-.81.021c-.252 0-.555-.019-.761-.021v.113h.051c.188 0 .414.033.415.327v2.781c-.001.293-.226.326-.415.326h-.051v.112l.757-.021.814.021zm2.139-3.763c1.13 0 2.031.702 2.031 1.832 0 1.221-.875 2.033-2.004 2.033s-1.983-.765-1.983-1.906a1.93 1.93 0 0 1 1.956-1.959zm.08 3.631c1.029 0 1.209-.908 1.209-1.683s-.418-1.715-1.298-1.715c-.928 0-1.204.828-1.204 1.539 0 .95.435 1.859 1.294 1.859z"/><path d="M37.234 34.256c.002-1.117.865-1.98 1.979-1.982v.046c-1.09 0-1.933.844-1.934 1.936.002 1.129.848 1.882 1.962 1.882s1.98-.8 1.981-2.01c-.001-1.117-.888-1.807-2.009-1.808v-.046c1.139.001 2.052.71 2.054 1.855-.001 1.234-.887 2.054-2.027 2.056-1.134-.002-2.005-.774-2.007-1.928zm.742-.186c.002-.714.28-1.563 1.227-1.563.9.002 1.32.959 1.322 1.739-.002.774-.184 1.704-1.232 1.704v-.045c1.008-.001 1.183-.885 1.185-1.659 0-.769-.414-1.69-1.276-1.692-.91.001-1.178.809-1.181 1.516 0 .946.432 1.834 1.271 1.835v.045c-.88-.001-1.316-.925-1.317-1.88zm6.842.966l.011-.011v-1.99c0-.436-.303-.499-.462-.499h-.115v-.159l.742.021.653-.021v.159h-.08c-.222 0-.472.042-.472.674v2.415c0 .186.005.372.032.537h-.202l-2.731-3.048v2.188c0 .462.091.621.498.621h.091v.16c-.228 0-.456-.021-.684-.021l-.721.021v-.16h.074c.367 0 .477-.25.477-.673v-2.237c0-.297-.243-.477-.483-.477h-.069v-.159l.61.021.471-.021 2.36 2.659z"/><path d="M45.127 36.185l-.219-.007-2.691-3.003v2.128c.006.462.076.592.474.597h.114v.206h-.023c-.23 0-.457-.021-.684-.021l-.722.021h-.022v-.206h.097c.35-.001.45-.227.454-.649v-2.237c0-.283-.232-.454-.46-.454h-.091v-.206h.022l.61.021.49-.013 2.33 2.626v-1.953a.41.41 0 0 0-.439-.476h-.14v-.206h.024l.741.021.654-.021h.022v.206h-.102c-.218.006-.444.026-.448.651v2.416a3.5 3.5 0 0 0 .03.533l.005.026h-.025zm-.202-.046h.174c-.022-.16-.028-.336-.028-.513V33.21c0-.638.268-.696.495-.698h.057V32.4l-.631.021c-.242 0-.479-.019-.719-.021v.113h.093a.46.46 0 0 1 .484.523l-.006 2.007-.01.01-.017.017-2.36-2.67-.472.021c-.195 0-.395-.019-.588-.021v.113h.047a.5.5 0 0 1 .505.501v2.237c0 .425-.118.696-.5.697h-.052v.113l.699-.021.661.021v-.112h-.068c-.416 0-.521-.183-.521-.645v-2.247l2.755 3.084zm-.119-1.113v-.001l-.004-.004.004.005z"/><path d="M46.498 35.324c-.052.18-.116.319-.116.414 0 .16.223.186.397.186h.059v.159l-.642-.021-.572.021v-.159h.03c.208 0 .384-.122.461-.346l.85-2.436c.069-.197.164-.462.195-.659.17-.058.382-.163.484-.228.015-.005.025-.011.042-.011s.025 0 .036.017l.048.132.976 2.777.197.542c.064.149.175.212.35.212h.033v.159l-.733-.021-.796.021v-.159h.059c.121 0 .329-.021.329-.154 0-.069-.048-.212-.107-.383l-.207-.615h-1.203l-.17.553zm.775-2.352h-.011l-.494 1.503h.993l-.488-1.503z"/><path d="M49.323 36.106l-.73-.021-.795.021-.023.001V35.9h.081c.123 0 .306-.029.306-.131.002-.06-.047-.205-.106-.375l-.201-.601h-1.171l-.164.537c-.053.182-.116.321-.115.407 0 .13.199.163.374.163h.081v.206l-.024-.001-.64-.021-.572.021-.023.001V35.9h.053c.198-.001.363-.114.441-.33l.848-2.437.21-.672a2.88 2.88 0 0 0 .483-.228c.014-.005.029-.012.05-.012a.06.06 0 0 1 .058.031l.049.133.975 2.777.196.54c.063.14.158.196.328.198h.055v.206l-.024-.001zm-1.503-.047l.773-.02.709.02-.001-.111h-.009c-.18 0-.305-.07-.371-.227s-.133-.358-.196-.543l-.976-2.777-.045-.127-.018-.006c-.011 0-.017.004-.03.007a2.04 2.04 0 0 1-.473.212c-.033.201-.129.466-.197.663l-.849 2.436c-.081.231-.266.362-.483.361h-.008v.111l.549-.02.619.02v-.111h-.036c-.173-.002-.414-.021-.421-.21.002-.105.067-.24.119-.42l.174-.568h1.236l.213.63c.058.171.107.312.107.39-.008.163-.231.175-.351.178h-.036v.111zm-1.083-1.562l.509-1.549h.027.016l.502 1.549h-1.054zm.064-.046h.928l-.461-1.422-.466 1.422z"/><path d="M50.661 35.562c0 .213.147.276.318.298a3.84 3.84 0 0 0 .7-.011c.222-.027.413-.153.508-.287.084-.117.132-.265.165-.382h.153l-.196.902c-.465 0-.934-.02-1.4-.02l-1.4.02v-.16h.073c.191 0 .399-.026.399-.355V32.84c0-.277-.208-.303-.399-.303h-.073v-.159l.837.021.807-.021v.159h-.133c-.202 0-.36.006-.36.287v2.739z"/><path d="M52.31 36.105c-.468 0-.935-.021-1.4-.021l-1.401.021h-.022V35.9h.097c.192-.005.374-.018.376-.332v-2.729c-.002-.258-.183-.276-.376-.279h-.097v-.206h.022l.838.021.807-.021h.021v.206h-.155c-.206.005-.333-.004-.338.264v2.739c.001.199.131.252.297.275l.294.01c.13 0 .264-.006.401-.021.216-.026.402-.151.494-.277.082-.114.128-.259.16-.374l.005-.017h.2l-.005.028-.197.902-.004.018h-.018zm-.019-.046l.188-.857h-.109c-.033.116-.08.258-.163.374a.79.79 0 0 1-.526.296l-.406.021c-.103 0-.202-.005-.298-.012-.172-.019-.339-.093-.339-.32v-2.739c0-.295.187-.31.384-.31h.109V32.4l-.783.021c-.274 0-.543-.02-.814-.021v.113h.051c.189 0 .421.033.421.326v2.729c0 .344-.23.379-.421.379h-.051v.113l1.377-.021 1.38.021z"/></g><path d="M19.322 13.634c0-4.966 4.021-8.991 8.981-8.991s8.981 4.026 8.981 8.991a8.99 8.99 0 0 1-8.981 8.992 8.99 8.99 0 0 1-8.98-8.992z" fill="#fffffe"/><path d="M33.734 13.457a5.41 5.41 0 0 0-3.467-5.044v10.088a5.41 5.41 0 0 0 3.467-5.044zm-7.331 5.042V8.414c-2.024.78-3.459 2.741-3.464 5.043a5.41 5.41 0 0 0 3.464 5.041zm1.933-13.568c-4.703.002-8.513 3.818-8.514 8.526s3.811 8.523 8.514 8.524 8.515-3.816 8.516-8.524-3.812-8.524-8.516-8.526zm-.021 17.855c-5.147.025-9.382-4.15-9.382-9.231 0-5.554 4.236-9.395 9.382-9.394h2.412c5.086-.001 9.727 3.838 9.727 9.394 0 5.08-4.642 9.231-9.727 9.231h-2.412z" fill="#0069aa"/><g fill="#1a1919"><path d="M6.938 35.923h.075c.191 0 .392-.026.392-.302V32.84c0-.277-.202-.303-.392-.303h-.075v-.16l.785.021.832-.021v.16H8.48c-.19 0-.392.026-.392.303v2.781c0 .276.202.302.392.302h.075v.16c-.254 0-.573-.02-.837-.02l-.78.02v-.16z"/><path d="M8.555 36.106c-.256 0-.574-.021-.838-.021l-.78.021h-.023V35.9h.097c.193-.005.368-.02.369-.28v-2.78c-.002-.26-.177-.277-.369-.28h-.097v-.206h.023l.785.021.832-.021h.024v.206H8.48c-.193.004-.369.02-.37.28v2.781c.001.259.177.275.37.28h.098v.205h-.024zm-.023-.045v-.113h-.051c-.19 0-.415-.033-.416-.326V32.84c.001-.294.227-.326.416-.326h.051V32.4l-.809.021c-.252 0-.557-.02-.762-.021v.113h.051c.189 0 .415.033.415.326v2.781c0 .293-.226.326-.415.326h-.051v.113l.756-.021.815.021zm43.909-3.835a.55.55 0 0 1 .559.56c0 .314-.239.557-.559.557s-.558-.243-.558-.557a.55.55 0 0 1 .558-.56zm0 1.014a.45.45 0 0 0 .442-.453.45.45 0 0 0-.442-.456c-.251 0-.442.215-.442.456a.45.45 0 0 0 .442.453zm-.278-.159v-.027c.068-.01.081-.008.081-.05v-.414c0-.058-.006-.078-.079-.075v-.029h.286c.098 0 .189.047.189.149 0 .083-.055.145-.132.169l.092.128a.6.6 0 0 0 .123.132v.018h-.109c-.052 0-.098-.11-.201-.257h-.062v.185c0 .037.013.035.081.045v.027h-.27zm.188-.295h.066c.072 0 .105-.054.105-.143s-.051-.12-.109-.12h-.062v.263z"/></g></g></g><defs><clipPath id="A"><path fill="#fff" d="M0 0h60v40H0z"/></clipPath></defs></svg>