<svg xmlns="http://www.w3.org/2000/svg" width="60" height="40" fill="none" xmlns:v="https://vecta.io/nano"><g clip-path="url(#A)"><path d="M59 28L24 39h32 1a2 2 0 0 0 2-2v-9z" fill="#fd6020"/><g fill-rule="evenodd"><path d="M52.032 15.19c1.863 0 2.887.829 2.887 2.395a2.24 2.24 0 0 1-1.863 2.395l2.515 3.408h-1.956l-2.142-3.316h-.186v3.316h-1.583V15.19h2.328zm-.745 3.776h.466c1.025 0 1.49-.461 1.49-1.29 0-.737-.466-1.197-1.49-1.197h-.466v2.487zm-7.078 4.421h4.47v-1.381h-2.887v-2.21h2.794v-1.382h-2.794v-1.842h2.887V15.19h-4.47v8.197zm-4.657-2.671L37.41 15.19h-1.676l3.446 8.381h.838l3.446-8.381h-1.676l-2.235 5.526zm-18.906-1.381c0 2.303 1.863 4.237 4.191 4.237.745 0 1.397-.184 2.049-.46v-1.842c-.466.553-1.118.921-1.863.921-1.49 0-2.701-1.105-2.701-2.579v-.184c-.093-1.474 1.118-2.763 2.608-2.855.745 0 1.49.368 1.956.921v-1.842c-.559-.368-1.304-.46-1.956-.46-2.421-.184-4.284 1.75-4.284 4.145zm-2.887-1.013c-.931-.368-1.211-.553-1.211-1.013.093-.553.559-1.013 1.118-.921.466 0 .931.276 1.304.645l.838-1.105c-.652-.553-1.49-.921-2.328-.921-1.304-.092-2.421.921-2.515 2.21v.092c0 1.105.466 1.75 1.956 2.21.373.092.745.276 1.118.46.279.184.466.461.466.829 0 .645-.559 1.197-1.118 1.197h-.093a1.84 1.84 0 0 1-1.676-1.105l-1.024 1.013c.559 1.013 1.676 1.566 2.794 1.566 1.49.092 2.701-1.013 2.794-2.487v-.276c-.093-1.105-.559-1.658-2.421-2.395zm-5.402 5.066h1.583V15.19h-1.583v8.197zM5 15.19h2.328.466c2.235.092 4.005 1.934 3.912 4.145 0 1.197-.559 2.303-1.49 3.131-.838.645-1.863 1.013-2.887.921H5V15.19zm2.049 6.816c.745.092 1.583-.184 2.142-.645.559-.553.838-1.29.838-2.118a2.84 2.84 0 0 0-.838-2.026c-.559-.46-1.397-.737-2.142-.645h-.466v5.434h.466z" fill="#000"/><path d="M31.636 15c-2.328 0-4.284 1.842-4.284 4.237 0 2.303 1.863 4.237 4.284 4.329s4.284-1.842 4.377-4.237C35.92 16.934 34.058 15 31.636 15z" fill="#fd6020"/></g><path d="M57 .5H3A2.5 2.5 0 0 0 .5 3v34A2.5 2.5 0 0 0 3 39.5h54a2.5 2.5 0 0 0 2.5-2.5V3A2.5 2.5 0 0 0 57 .5z" stroke="#d5dfff"/></g><rect x=".5" y=".5" width="59" height="39" rx="2.5" stroke="#d7ebff"/><defs><clipPath id="A"><rect width="60" height="40" rx="3" fill="#fff"/></clipPath></defs></svg>