<svg xmlns="http://www.w3.org/2000/svg" width="49" height="20" fill="none" xmlns:v="https://vecta.io/nano"><g clip-path="url(#A)"><g fill="#5f6368"><path d="M22.94 9.697v5.618h-1.784V1.44h4.731a4.28 4.28 0 0 1 3.063 1.201 3.86 3.86 0 0 1 1.28 2.928 3.84 3.84 0 0 1-.317 1.612c-.221.508-.549.963-.962 1.333-.827.788-1.848 1.182-3.063 1.181H22.94v.001zm0-6.548v4.843h2.991a2.36 2.36 0 0 0 1.765-.718c.227-.22.407-.484.53-.775s.187-.604.187-.92-.063-.629-.187-.92-.303-.555-.53-.775c-.225-.241-.499-.431-.803-.558a2.33 2.33 0 0 0-.962-.179H22.94v.001zm11.4 2.363c1.318 0 2.359.352 3.122 1.056s1.144 1.669 1.143 2.896v5.851h-1.706v-1.317h-.078c-.739 1.085-1.721 1.627-2.947 1.627-1.047 0-1.922-.31-2.627-.93a2.97 2.97 0 0 1-.791-1.043c-.183-.402-.274-.84-.266-1.282 0-.982.372-1.764 1.114-2.344s1.735-.871 2.976-.872c1.059 0 1.931.194 2.617.581v-.407c.002-.301-.063-.599-.19-.872a2.03 2.03 0 0 0-.546-.706 2.53 2.53 0 0 0-1.722-.65c-.996 0-1.785.42-2.365 1.26l-1.571-.989c.864-1.24 2.143-1.86 3.837-1.86zm-2.308 6.897c-.001.227.052.451.155.653s.253.377.437.51a2.18 2.18 0 0 0 1.386.465c.753-.001 1.474-.301 2.006-.832.591-.556.886-1.208.886-1.956-.556-.443-1.332-.664-2.327-.664-.724 0-1.329.175-1.812.524-.489.354-.731.785-.731 1.302zm16.367-6.587L42.443 19.5h-1.841l2.21-4.786-3.916-8.892h1.939l2.831 6.82h.039l2.753-6.82H48.4z"/></g><path d="M15.732 8.486c.001-.543-.045-1.085-.137-1.621H8.072v3.07h4.308c-.088.49-.275.958-.548 1.374a3.69 3.69 0 0 1-1.045 1.048v1.993h2.571c1.506-1.387 2.373-3.438 2.373-5.864z" fill="#4285f4"/><path d="M8.072 16.275c2.153 0 3.965-.706 5.287-1.924l-2.571-1.993c-.716.485-1.637.762-2.715.762-2.081 0-3.847-1.402-4.478-3.29H.945v2.054c.664 1.32 1.682 2.43 2.94 3.205a7.98 7.98 0 0 0 4.187 1.186z" fill="#34a853"/><path d="M3.594 9.83c-.334-.99-.334-2.061 0-3.051V4.725H.945C.386 5.836.095 7.061.095 8.304s.291 2.469.849 3.579L3.594 9.83z" fill="#fbbc04"/><path d="M8.072 3.489a4.33 4.33 0 0 1 3.06 1.196l2.277-2.275A7.67 7.67 0 0 0 8.072.334 7.98 7.98 0 0 0 3.886 1.52c-1.259.776-2.277 1.885-2.94 3.205l2.649 2.054c.631-1.889 2.397-3.29 4.478-3.29z" fill="#ea4335"/></g><defs><clipPath id="A"><path fill="#fff" transform="translate(.095 .333)" d="M0 0h48.3v19.167H0z"/></clipPath></defs></svg>