<svg width="61" height="40" viewBox="0 0 61 40" fill="none" xmlns="http://www.w3.org/2000/svg">
<g clip-path="url(#clip0_63_18)">
<path d="M57.5 0.5H3.5C2.11929 0.5 1 1.61929 1 3V37C1 38.3807 2.11929 39.5 3.5 39.5H57.5C58.8807 39.5 60 38.3807 60 37V3C60 1.61929 58.8807 0.5 57.5 0.5Z" fill="white" stroke="#D7EBFF"/>
<mask id="mask0_63_18" style="mask-type:luminance" maskUnits="userSpaceOnUse" x="13" y="11" width="35" height="19">
<path d="M47.5 11H13.5V30H47.5V11Z" fill="white"/>
</mask>
<g mask="url(#mask0_63_18)">
<path d="M13.5 20.2385V11.0023H15.221L19.7436 16.7541H19.8666V11H21.8334V20.2362H20.1333L15.5923 14.4566H15.4693V20.2385H13.5Z" fill="black"/>
<path d="M30.0412 20.2386H23.5259V11.0024H30.0412V12.6523H25.5825V14.8089H29.7892V16.3398H25.5825V18.5865H30.0412V20.2386Z" fill="black"/>
<path d="M33.8976 20.2385V12.6521H30.9473V11H38.9033V12.6521H35.953V20.2385H33.8976Z" fill="black"/>
<path d="M13.5 28.1979V21.9739H16.3975C16.6883 21.9704 16.9782 22.0066 17.258 22.0812C17.4917 22.1444 17.7103 22.2491 17.9021 22.3895C18.0757 22.5199 18.2142 22.6868 18.3066 22.8767C18.4029 23.0813 18.4507 23.303 18.4467 23.5267C18.4472 23.6881 18.4159 23.8482 18.3545 23.9989C18.2982 24.1456 18.215 24.282 18.1087 24.4018C18.0002 24.5204 17.8714 24.6211 17.7276 24.6997C17.582 24.7796 17.4212 24.8321 17.2543 24.8544V24.9329C17.4671 24.944 17.6756 24.993 17.8689 25.0772C18.0482 25.1549 18.2107 25.2629 18.3484 25.3959C18.4847 25.5288 18.5916 25.6857 18.6631 25.8577C18.7393 26.0368 18.7777 26.2282 18.7762 26.4211C18.7803 26.6752 18.7262 26.9272 18.6176 27.16C18.5139 27.378 18.3573 27.5702 18.1603 27.7211C17.946 27.8823 17.7006 28.0031 17.4375 28.0767C17.1285 28.1635 16.8073 28.206 16.4847 28.2025L13.5 28.1979ZM14.8867 24.5531H15.9291C16.3065 24.5531 16.5929 24.4849 16.7896 24.3476C16.8865 24.2807 16.9643 24.1924 17.016 24.0905C17.0677 23.9885 17.0917 23.8762 17.0859 23.7634C17.0918 23.6529 17.0704 23.5426 17.0232 23.4413C16.9761 23.3399 16.9045 23.2502 16.8142 23.1792C16.591 23.0273 16.3184 22.9534 16.0434 22.9702H14.8854L14.8867 24.5531ZM16.116 27.2015C16.5167 27.2015 16.8228 27.1253 17.0318 26.9706C17.1377 26.891 17.2215 26.7885 17.2763 26.672C17.3311 26.5554 17.3552 26.4282 17.3465 26.301C17.3548 26.1758 17.3295 26.0505 17.273 25.9368C17.2166 25.8231 17.1307 25.7244 17.0232 25.6499C16.8068 25.5032 16.4946 25.4305 16.084 25.4305H14.8805V27.1992L16.116 27.2015Z" fill="black"/>
<path d="M20.8044 28.2707C20.5765 28.2735 20.3498 28.2391 20.1345 28.1691C19.941 28.1069 19.7629 28.0087 19.6108 27.8804C19.4631 27.7555 19.346 27.6018 19.2678 27.4302C19.1839 27.2432 19.142 27.0419 19.1449 26.8391C19.1355 26.644 19.1766 26.4497 19.2646 26.2728C19.3526 26.0959 19.4849 25.9416 19.6501 25.8231C19.9869 25.5806 20.4725 25.4417 21.1068 25.4063L22.3361 25.3382V24.9514C22.3417 24.8637 22.3249 24.776 22.287 24.6957C22.2492 24.6154 22.1914 24.5447 22.1186 24.4896C21.9316 24.3702 21.7073 24.3132 21.4818 24.328C21.2761 24.3217 21.0718 24.3613 20.8856 24.4434C20.8123 24.4758 20.7466 24.5214 20.6922 24.5776C20.6377 24.6339 20.5957 24.6997 20.5684 24.7713H19.3391C19.3567 24.5612 19.4266 24.3579 19.5432 24.1779C19.6607 23.9979 19.8179 23.8435 20.0042 23.7253C20.2124 23.5935 20.4432 23.4963 20.6864 23.4378C20.9707 23.3692 21.2633 23.3358 21.5568 23.3385C21.8591 23.336 22.1601 23.3749 22.4505 23.454C22.6904 23.517 22.9145 23.6246 23.1094 23.7703C23.2851 23.907 23.4241 24.0806 23.515 24.2772C23.6116 24.4918 23.6594 24.723 23.6552 24.956V28.2049H22.357V27.5837H22.2734C22.138 27.8056 21.9339 27.9835 21.6883 28.094C21.4126 28.2176 21.1098 28.2781 20.8044 28.2707ZM21.2457 27.3263C21.3924 27.3275 21.5383 27.3056 21.6772 27.2616C21.8026 27.221 21.9192 27.1597 22.0214 27.0803C22.117 27.0056 22.1953 26.9133 22.2513 26.809C22.3067 26.7043 22.3349 26.5888 22.3337 26.4719V26.1256L21.3097 26.1856C20.7401 26.2225 20.4533 26.415 20.4492 26.7629C20.4459 26.8442 20.4644 26.925 20.5028 26.998C20.5412 27.071 20.5984 27.1338 20.6692 27.1808C20.8396 27.2864 21.0419 27.3374 21.2457 27.3263Z" fill="black"/>
<path d="M24.4951 23.4399H25.7908V24.203H25.8731C25.982 23.9418 26.1755 23.7192 26.4263 23.5669C26.7103 23.405 27.0385 23.3248 27.3704 23.336C27.9334 23.336 28.3629 23.4899 28.6587 23.7978C28.9546 24.1057 29.1021 24.5456 29.1013 25.1174V28.1931H27.765V25.4199C27.765 25.0882 27.6892 24.8388 27.5376 24.6718C27.386 24.5048 27.1512 24.4205 26.8332 24.4189C26.6901 24.4166 26.5479 24.4413 26.4152 24.4917C26.2952 24.5391 26.1877 24.6109 26.1005 24.7018C26.0104 24.797 25.9422 24.9086 25.9002 25.0297C25.8528 25.1669 25.8296 25.3104 25.8313 25.4546V28.1977H24.4951V23.4399Z" fill="black"/>
<path d="M33.0851 23.4401H34.6008L32.672 25.4801L34.7335 28.1979H33.1539L31.6787 26.2652L31.3099 26.6185V28.1979H29.9712V21.624H31.3075V25.2977H31.3911L33.0851 23.4401Z" fill="black"/>
<path d="M35.7934 22.7763C35.6828 22.7774 35.5727 22.7614 35.4676 22.7289C35.3778 22.6996 35.2944 22.655 35.2218 22.5973C35.1539 22.542 35.0998 22.4735 35.0632 22.3964C35.0258 22.3164 35.0069 22.2298 35.0079 22.1424C35.0066 22.0531 35.0254 21.9646 35.0632 21.8827C35.0995 21.8058 35.1537 21.7376 35.2218 21.6829C35.2937 21.6248 35.3773 21.5808 35.4676 21.5536C35.5728 21.5215 35.6828 21.5059 35.7934 21.5074C35.9032 21.5058 36.0124 21.5214 36.1167 21.5536C36.2071 21.5808 36.2907 21.6247 36.3626 21.6829C36.431 21.7378 36.4859 21.8059 36.5236 21.8827C36.5623 21.9644 36.5816 22.053 36.5801 22.1424C36.5817 22.2286 36.563 22.3141 36.5254 22.3927C36.4878 22.4713 36.4322 22.5412 36.3626 22.5973C36.2899 22.655 36.2066 22.6996 36.1167 22.7289C36.0125 22.7616 35.9032 22.7776 35.7934 22.7763ZM35.1222 23.4401H36.4597V28.1979H35.1222V23.4401Z" fill="black"/>
<path d="M37.3384 23.44H38.6341V24.2032H38.7165C38.8257 23.9412 39.0202 23.7182 39.2721 23.5659C39.5562 23.4043 39.8843 23.324 40.2162 23.335C40.7792 23.335 41.2087 23.4889 41.5045 23.7968C41.8004 24.1047 41.9479 24.5445 41.9471 25.1164V28.1921H40.6084V25.42C40.6084 25.0887 40.5334 24.8428 40.3809 24.6719C40.2285 24.501 39.9949 24.4191 39.6765 24.4191C39.5334 24.4167 39.3913 24.4414 39.2586 24.4918C39.1385 24.5393 39.0311 24.611 38.9439 24.7019C38.8537 24.7969 38.7859 24.9086 38.7447 25.0298C38.6964 25.1668 38.6727 25.3104 38.6747 25.4547V28.1978H37.3384V23.44Z" fill="black"/>
<path d="M45.0019 29.9998C44.6926 30.0027 44.3841 29.9693 44.0836 29.9005C43.8306 29.8438 43.5893 29.7482 43.3694 29.6177C43.1781 29.5051 43.015 29.355 42.8912 29.1778C42.7723 29.0043 42.7005 28.8061 42.6822 28.6005H44.0049C44.0266 28.6773 44.0667 28.7484 44.1221 28.8084C44.1775 28.8685 44.2467 28.9158 44.3245 28.9469C44.5452 29.0414 44.7866 29.0858 45.0289 29.0762C45.3904 29.0762 45.6698 29.0031 45.8673 28.8568C45.966 28.7821 46.0444 28.6864 46.0959 28.5776C46.1474 28.4687 46.1706 28.35 46.1636 28.2311V27.3513H46.0812C45.9496 27.5974 45.74 27.799 45.4813 27.9286C45.1946 28.0641 44.8765 28.1307 44.5557 28.1226C44.2621 28.1268 43.9712 28.07 43.7037 27.9563C43.4535 27.8471 43.2332 27.6856 43.0596 27.4841C42.8731 27.2648 42.7341 27.0134 42.6502 26.7441C42.5514 26.4285 42.5033 26.1009 42.5076 25.772C42.5034 25.4343 42.5514 25.0979 42.6502 24.7733C42.7334 24.4971 42.8728 24.2387 43.0608 24.0125C43.2368 23.8055 43.4609 23.6392 43.716 23.5264C43.9884 23.4101 44.2848 23.3522 44.5839 23.3567C44.7498 23.3562 44.915 23.3756 45.0757 23.4144C45.2273 23.4521 45.3731 23.508 45.5096 23.5807C45.7754 23.724 45.9894 23.9387 46.1242 24.1972H46.2078V23.434H47.5023V28.1838C47.5067 28.4443 47.4469 28.7023 47.3277 28.9377C47.2114 29.1642 47.04 29.3619 46.8274 29.5149C46.5913 29.6817 46.3241 29.8055 46.0394 29.8798C45.7014 29.9658 45.352 30.0063 45.0019 29.9998ZM46.1771 25.7777C46.1796 25.5861 46.1527 25.3952 46.0972 25.2109C46.0504 25.0553 45.9724 24.9095 45.8673 24.7814C45.7706 24.6654 45.6464 24.5721 45.5047 24.5089C45.3521 24.4465 45.1874 24.4142 45.0209 24.4142C44.8545 24.4142 44.6898 24.4465 44.5372 24.5089C44.3972 24.5725 44.2747 24.6658 44.1795 24.7814C44.076 24.9094 44.0004 25.0554 43.957 25.2109C43.8553 25.5812 43.8553 25.9697 43.957 26.34C44.0006 26.495 44.0753 26.6407 44.177 26.7695C44.2716 26.8858 44.3947 26.9789 44.536 27.0408C44.6878 27.1063 44.8533 27.1386 45.0203 27.1354C45.1897 27.1389 45.3578 27.1065 45.5121 27.0408C45.6563 26.9792 45.7827 26.8862 45.8808 26.7695C45.9852 26.6422 46.0625 26.4971 46.1083 26.3423C46.1595 26.1581 46.1826 25.968 46.1771 25.7777Z" fill="black"/>
</g>
</g>
<defs>
<clipPath id="clip0_63_18">
<rect width="60" height="40" fill="white" transform="translate(0.5)"/>
</clipPath>
</defs>
</svg>
