<svg xmlns="http://www.w3.org/2000/svg" width="60" height="40" fill="none" xmlns:v="https://vecta.io/nano"><g clip-path="url(#B)"><path d="M57 .5H3A2.5 2.5 0 0 0 .5 3v34A2.5 2.5 0 0 0 3 39.5h54a2.5 2.5 0 0 0 2.5-2.5V3A2.5 2.5 0 0 0 57 .5z" fill="#fff" stroke="#d7ebff"/><mask id="A" maskUnits="userSpaceOnUse" x="10" y="15" width="39" height="11"><path d="M49 15H10V26H49V15Z" fill="#fff"/></mask><g mask="url(#A)"><path d="M48.868 18.244a2.38 2.38 0 0 0-.949-1.134 2.8 2.8 0 0 0-1.503-.431h-.024c-.35-.001-.696.063-1.018.186a2.61 2.61 0 0 0-.855.531 2.63 2.63 0 0 0-.855-.532 2.85 2.85 0 0 0-1.018-.187h-.023a2.76 2.76 0 0 0-1.694.564v-.176a.33.33 0 0 0-.12-.229c-.071-.06-.164-.093-.262-.093h-1.738a.42.42 0 0 0-.147.026.39.39 0 0 0-.125.075c-.036.032-.064.07-.083.112s-.029.087-.029.133v8.498c0 .046.01.091.029.133s.048.08.083.113a.39.39 0 0 0 .125.075.42.42 0 0 0 .147.026h1.738a.41.41 0 0 0 .252-.085c.07-.055.115-.131.127-.214v-6.097a.48.48 0 0 1 0-.061.55.55 0 0 1 .19-.364.67.67 0 0 1 .409-.16h.32a.72.72 0 0 1 .367.128.58.58 0 0 1 .176.204c.04.079.061.166.059.253l.006 6.068a.33.33 0 0 0 .112.245.41.41 0 0 0 .272.102h1.738a.4.4 0 0 0 .264-.097.33.33 0 0 0 .117-.234V19.53c-.002-.096.022-.191.072-.277a.6.6 0 0 1 .211-.212c.096-.055.206-.088.32-.097h.321c.165.008.321.073.433.183a.54.54 0 0 1 .169.403l.007 6.06c0 .046.01.091.029.133s.048.08.083.113a.39.39 0 0 0 .125.075c.047.017.097.026.147.026h1.738c.102 0 .2-.037.272-.102a.33.33 0 0 0 .112-.245v-6.517c0-.444-.056-.634-.132-.828M37.101 16.77h-.994v-1.451-.004a.3.3 0 0 0-.103-.223c-.066-.059-.155-.093-.248-.093-.022.001-.044.003-.066.007-1.102.272-.882 1.646-2.893 1.763h-.196c-.028 0-.057.003-.084.009a.39.39 0 0 0-.216.121c-.055.061-.084.137-.085.215v1.564a.33.33 0 0 0 .113.244.41.41 0 0 0 .272.102h1.049v6.635c0 .091.04.178.111.242s.168.1.269.1h1.717c.101 0 .197-.036.269-.1s.111-.151.111-.242v-6.633h.974c.102 0 .199-.037.271-.102a.33.33 0 0 0 .113-.244v-1.564a.33.33 0 0 0-.113-.245c-.072-.065-.17-.101-.272-.101z" fill="#54c1f0"/><path d="M30.847 16.77h-1.738a.42.42 0 0 0-.147.026.39.39 0 0 0-.124.075c-.036.032-.064.07-.083.112a.32.32 0 0 0-.029.132v3.234a.35.35 0 0 1-.122.256c-.076.067-.179.105-.286.105h-.727c-.054 0-.107-.009-.157-.027a.41.41 0 0 1-.133-.079.38.38 0 0 1-.089-.119.33.33 0 0 1-.031-.141l-.007-3.225a.33.33 0 0 0-.113-.245c-.072-.065-.17-.101-.272-.101h-1.738c-.1.001-.196.038-.267.102a.33.33 0 0 0-.112.241v3.547c0 1.346 1.067 2.306 2.564 2.306l1.157.006c.1.008.194.049.263.116s.107.154.108.245-.036.178-.103.246-.16.11-.261.119l-.029.005-2.542.008a.41.41 0 0 0-.271.102.33.33 0 0 0-.113.244v1.561c0 .046.01.09.029.133s.048.08.083.112.078.058.125.075a.42.42 0 0 0 .147.026h2.837c1.498 0 2.564-.959 2.564-2.307v-6.544a.33.33 0 0 0-.113-.245c-.072-.065-.17-.101-.272-.101zm-16.824 2.866v.968a.35.35 0 0 1-.119.259.43.43 0 0 1-.288.107h-1.103v-1.935h1.103a.45.45 0 0 1 .156.028.43.43 0 0 1 .132.08.36.36 0 0 1 .088.119.34.34 0 0 1 .031.14v.234zm.152-2.867h-3.799a.4.4 0 0 0-.266.1c-.07.064-.11.15-.11.24v1.532.03 6.933a.32.32 0 0 0 .097.238.39.39 0 0 0 .254.109h1.771a.41.41 0 0 0 .272-.101.33.33 0 0 0 .113-.244l.006-2.377h1.663c1.391 0 2.362-.869 2.362-2.127v-2.203c0-1.257-.97-2.129-2.362-2.129zm7.06 6.539v.242a.31.31 0 0 1-.007.057c-.004.017-.009.034-.016.051-.029.072-.083.133-.153.176a.44.44 0 0 1-.238.063h-.717c-.105.003-.207-.031-.284-.096s-.122-.154-.126-.248v-1.339c.004-.094.05-.183.127-.247s.179-.098.284-.095h.717c.105-.003.207.031.284.096s.122.154.126.248l.004 1.093zm-.277-6.53h-2.412a.4.4 0 0 0-.267.09c-.072.06-.115.144-.119.233v.609.025.834a.34.34 0 0 0 .126.247c.077.064.178.099.283.096h2.297c.091.011.175.05.238.11s.101.138.108.221v.202a.33.33 0 0 1-.104.216.4.4 0 0 1-.232.107h-1.138c-1.515.002-2.59.906-2.59 2.176v1.819c0 1.263.926 2.161 2.429 2.161h3.152c.565 0 1.024-.385 1.024-.86v-5.935c0-1.44-.824-2.349-2.794-2.349z" fill="#233266"/></g></g><defs><clipPath id="B"><path fill="#fff" d="M0 0h60v40H0z"/></clipPath></defs></svg>