<svg width="46" height="30" viewBox="0 0 46 30" fill="none" xmlns="http://www.w3.org/2000/svg">
<rect x="1" y="0.5" width="44" height="29" rx="2.5" fill="white"/>
<rect x="1" y="0.5" width="44" height="29" rx="2.5" stroke="#D7EBFF"/>
<path d="M34.4599 17.706C35.9543 11.377 32.0352 5.03476 25.7062 3.54028C19.3772 2.04579 13.035 5.96496 11.5405 12.294C10.046 18.623 13.9652 24.9652 20.2942 26.4597C26.6232 27.9541 32.9654 24.035 34.4599 17.706Z" fill="#5F259F"/>
<path d="M28.3449 11.9273C28.3449 11.4668 27.9502 11.0721 27.4898 11.0721H25.911L22.293 6.92791C21.9641 6.53322 21.4379 6.40166 20.9116 6.53322L19.6618 6.92791C19.4645 6.99369 19.3987 7.25682 19.5302 7.38838L23.4771 11.1379H17.491C17.2937 11.1379 17.1621 11.2695 17.1621 11.4668V12.1246C17.1621 12.5851 17.5568 12.9798 18.0173 12.9798H18.9382V16.1373C18.9382 18.5054 20.188 19.8868 22.293 19.8868C22.9509 19.8868 23.4771 19.821 24.1349 19.5579V21.6629C24.1349 22.2549 24.5954 22.7154 25.1874 22.7154H26.1084C26.3057 22.7154 26.503 22.5181 26.503 22.3207V12.914H28.016C28.2134 12.914 28.3449 12.7824 28.3449 12.5851V11.9273ZM24.1349 17.5845C23.7402 17.7818 23.214 17.8476 22.8193 17.8476C21.7668 17.8476 21.2405 17.3213 21.2405 16.1373V12.9798H24.1349V17.5845Z" fill="white"/>
</svg>
