<svg xmlns="http://www.w3.org/2000/svg" width="147" height="30" fill="none" xmlns:v="https://vecta.io/nano"><g clip-path="url(#A)" fill-rule="evenodd"><g fill="#072654"><path d="M34.895 11.334c-.231.835-.678 1.447-1.342 1.838s-1.598.587-2.8.587h-3.822l1.342-4.85h3.821c1.202 0 2.027.196 2.476.587s.557 1.004.326 1.838zm3.958-.104c.486-1.755.285-3.102-.604-4.041s-2.446-1.408-4.67-1.408h-8.531l-5.134 18.564h4.145l2.07-7.483h2.718c.609 0 1.089.096 1.44.287s.557.531.621 1.017l.739 6.18h4.441l-.72-5.762c-.147-1.286-.754-2.043-1.822-2.268 1.361-.382 2.501-1.017 3.42-1.904s1.547-1.946 1.888-3.181zm10.072 6.466c-.346 1.251-.88 2.208-1.6 2.868s-1.584.991-2.588.991c-1.024 0-1.718-.326-2.084-.978s-.38-1.594-.038-2.829.885-2.199 1.634-2.895a3.74 3.74 0 0 1 2.629-1.043c1.004 0 1.684.335 2.037 1.004s.357 1.629.011 2.881zm1.817-6.571l-.519 1.877c-.225-.678-.659-1.217-1.301-1.616s-1.441-.6-2.391-.6c-1.166 0-2.287.291-3.363.874s-2.016 1.404-2.821 2.464a10.61 10.61 0 0 0-1.769 3.624c-.375 1.356-.45 2.551-.225 3.585s.714 1.83 1.467 2.386 1.72.834 2.904.834c.95 0 1.856-.191 2.715-.574s1.588-.912 2.189-1.59l-.541 1.955h4.009l3.656-13.219h-4.01zm18.427 0H57.516l-.814 2.947h6.781l-8.966 7.509-.765 2.764h12.029l.815-2.946h-7.265l9.102-7.614.736-2.659zm10.258 6.545c-.361 1.303-.895 2.278-1.602 2.921s-1.563.964-2.567.964c-2.1 0-2.79-1.294-2.075-3.885.356-1.286.893-2.255 1.611-2.907s1.589-.978 2.611-.978c1.004 0 1.682.326 2.031.978s.346 1.621-.01 2.907zm2.346-6.049c-.923-.556-2.101-.834-3.537-.834-1.453 0-2.799.278-4.039.834a8.71 8.71 0 0 0-3.165 2.399c-.87 1.043-1.5 2.26-1.885 3.65s-.43 2.607-.134 3.65a3.95 3.95 0 0 0 1.839 2.399c.932.556 2.124.834 3.577.834 1.436 0 2.768-.277 3.999-.834a8.77 8.77 0 0 0 3.152-2.399c.872-1.043 1.499-2.259 1.884-3.65s.43-2.607.135-3.65-.904-1.842-1.826-2.399zm41.936 6.075c-.346 1.251-.88 2.208-1.6 2.868a3.7 3.7 0 0 1-2.589.991c-1.022 0-1.718-.326-2.084-.978s-.38-1.594-.038-2.829.885-2.199 1.634-2.895 1.624-1.043 2.629-1.043 1.685.335 2.037 1.004.357 1.629.011 2.881zm1.817-6.571l-.519 1.877c-.225-.678-.659-1.217-1.301-1.616s-1.441-.6-2.392-.6c-1.166 0-2.287.291-3.363.874s-2.016 1.404-2.821 2.464-1.394 2.268-1.769 3.624-.45 2.551-.225 3.585.713 1.83 1.467 2.386 1.72.834 2.904.834c.95 0 1.856-.191 2.715-.574s1.589-.912 2.189-1.59l-.541 1.955h4.009l3.656-13.219h-4.009zm-29.458 3.546l1.022-3.598c-.347-.174-.807-.261-1.381-.261-.916 0-1.797.222-2.646.665-.729.38-1.351.915-1.875 1.584l.532-1.938-1.161.002h-2.847l-3.684 13.219h4.065l1.911-6.909c.278-1.008.778-1.795 1.5-2.359s1.62-.848 2.697-.848a4.08 4.08 0 0 1 1.869.443zm11.315 3.077c-.342 1.235-.872 2.177-1.59 2.829a3.71 3.71 0 0 1-2.584.978c-1.004 0-1.69-.33-2.054-.991s-.374-1.616-.028-2.868.885-2.212 1.617-2.881 1.601-1.004 2.606-1.004c.987 0 1.657.348 2.012 1.043s.362 1.66.021 2.894zm2.841-6.088c-.755-.582-1.715-.873-2.88-.873a6.55 6.55 0 0 0-2.919.678 6.02 6.02 0 0 0-2.248 1.851l.013-.087.683-2.105h-.786v.002h-3.182l-1.01 3.656-.033.125-4.168 15.071h4.064l2.099-7.587c.206.677.634 1.208 1.282 1.59s1.447.574 2.398.574a7.22 7.22 0 0 0 3.38-.834c1.068-.556 1.997-1.351 2.785-2.386s1.37-2.229 1.745-3.585.453-2.564.235-3.624-.704-1.881-1.457-2.464zm36.14-.531l.003-.004h-2.462l-.22.004h-1.277l-.654.882-.161.211-.071.102-5.192 7.006-1.077-8.205H131l2.154 12.467-4.756 6.384h.136 2.428 1.673l1.153-1.582.099-.136 1.345-1.848.039-.053 6.018-8.266 5.071-6.958.007-.005h-.003z"/></g><path d="M9.469 7.907l-1.217 4.338 6.961-4.362-4.553 16.458 4.623.004L22.01.036 9.469 7.907z" fill="#3395ff"/><path d="M1.976 17.426L.062 24.345h9.476l3.877-14.075-11.44 7.157z" fill="#072654"/></g><defs><clipPath id="A"><path fill="#fff" d="M0 0h146.4v30H0z"/></clipPath></defs></svg>