<svg width="60" height="40" viewBox="0 0 60 40" fill="none" xmlns="http://www.w3.org/2000/svg">
<g clip-path="url(#clip0_63_34)">
<path d="M57 0.5H3C1.61929 0.5 0.5 1.61929 0.5 3V37C0.5 38.3807 1.61929 39.5 3 39.5H57C58.3807 39.5 59.5 38.3807 59.5 37V3C59.5 1.61929 58.3807 0.5 57 0.5Z" fill="white" stroke="#D7EBFF"/>
<path d="M50.9234 14.9055L53.5496 20.1648L48.0288 25.4267L50.9234 14.9055Z" fill="#008C44"/>
<path d="M49.1048 14.9055L51.7271 20.1648L46.21 25.4267L49.1048 14.9055Z" fill="#F47920"/>
<path d="M7 23.5143L9.61843 14H13.8046C15.1129 14 15.9869 14.2089 16.4315 14.6393C16.8729 15.0663 16.958 15.7633 16.6919 16.743C16.5309 17.32 16.2863 17.8044 15.9503 18.1872C15.617 18.5706 15.1774 18.8738 14.6361 19.0967C15.0953 19.2081 15.3875 19.4292 15.5185 19.7607C15.6488 20.0923 15.6337 20.5758 15.4755 21.2096L15.157 22.5385L15.1561 22.5745C15.0642 22.9466 15.0914 23.1458 15.2412 23.162L15.1447 23.5143H12.3128C12.3224 23.2904 12.34 23.0903 12.3587 22.9222C12.3793 22.7502 12.4046 22.6169 12.4298 22.5254L12.6938 21.5753C12.8269 21.0812 12.8351 20.7365 12.7117 20.538C12.5871 20.3341 12.3082 20.2339 11.8679 20.2339H10.6778L9.77022 23.5143H7ZM11.2667 18.0899H12.5414C12.988 18.0899 13.3177 18.0256 13.5209 17.8925C13.7251 17.7583 13.8766 17.5317 13.9656 17.2038C14.0577 16.8705 14.0351 16.638 13.9029 16.5059C13.771 16.3718 13.4553 16.3065 12.959 16.3065H11.7575L11.2667 18.0899Z" fill="#1B3281"/>
<path d="M24.4642 16.4934L22.5339 23.5142H20.1882L20.4765 22.4856C20.0636 22.8947 19.6411 23.2052 19.2153 23.4037C18.7928 23.6057 18.347 23.7051 17.8777 23.7051C17.4898 23.7051 17.1567 23.6341 16.8885 23.4932C16.6172 23.3528 16.4151 23.1393 16.2791 22.8578C16.1584 22.6113 16.1058 22.307 16.1264 21.9434C16.1481 21.5855 16.2734 20.9819 16.5056 20.1367L17.506 16.4934H20.0718L19.0735 20.1196C18.9277 20.6504 18.8929 21.0234 18.964 21.2266C19.0381 21.4315 19.2358 21.5374 19.5568 21.5374C19.88 21.5374 20.1518 21.4193 20.3763 21.1784C20.604 20.9395 20.7798 20.5833 20.9119 20.1093L21.902 16.4934H24.4642Z" fill="#1B3281"/>
<path d="M23.5332 23.5143L26.1488 14H29.7471C30.541 14 31.1555 14.0472 31.5937 14.151C32.031 14.2504 32.374 14.4118 32.6288 14.6393C32.9482 14.937 33.1439 15.3054 33.2244 15.7474C33.3 16.1894 33.2552 16.7042 33.0895 17.3087C32.7964 18.3723 32.2827 19.1873 31.5507 19.7568C30.8165 20.3189 29.908 20.6014 28.8237 20.6014H27.1398L26.34 23.5143H23.5332ZM27.7774 18.2778H28.6822C29.2672 18.2778 29.6785 18.2049 29.9194 18.0643C30.1526 17.9218 30.3183 17.6686 30.4194 17.3087C30.5204 16.944 30.4944 16.689 30.3417 16.5465C30.1947 16.4047 29.8191 16.333 29.2181 16.333H28.3151L27.7774 18.2778Z" fill="#1B3281"/>
<path d="M36.1079 23.5145L36.134 22.8477C35.7202 23.1601 35.3012 23.3962 34.8798 23.5438C34.4604 23.6941 34.0137 23.7704 33.5352 23.7704C32.8085 23.7704 32.3017 23.5712 32.0086 23.1857C31.7192 22.7995 31.6716 22.245 31.8691 21.5377C32.0582 20.8395 32.3945 20.3256 32.8796 19.9971C33.3619 19.6646 34.1675 19.4267 35.2977 19.2745C35.4411 19.251 35.6331 19.2321 35.8736 19.2028C36.7091 19.1053 37.1782 18.8807 37.2793 18.5143C37.3319 18.3138 37.2999 18.1657 37.1764 18.0749C37.0573 17.9806 36.8346 17.9343 36.5132 17.9343C36.2464 17.9343 36.0318 17.99 35.8558 18.106C35.68 18.2231 35.5487 18.3942 35.4598 18.6349H32.9582C33.1841 17.8446 33.6456 17.2474 34.3385 16.8481C35.0289 16.4418 35.9392 16.2463 37.0667 16.2463C37.5968 16.2463 38.0716 16.2964 38.4913 16.4049C38.9117 16.5089 39.219 16.6572 39.4183 16.8366C39.6636 17.0604 39.8088 17.3157 39.8502 17.5979C39.8979 17.8794 39.8456 18.2829 39.6993 18.8108L38.6232 22.7251C38.5887 22.8532 38.5821 22.9676 38.6008 23.0716C38.6232 23.1707 38.6662 23.2556 38.7421 23.3162L38.6843 23.5145H36.1079ZM36.7315 20.3796C36.459 20.49 36.1049 20.5958 35.6649 20.712C34.9738 20.899 34.585 21.1485 34.5008 21.4572C34.4425 21.6557 34.4661 21.8086 34.5623 21.9248C34.6572 22.0352 34.822 22.091 35.0543 22.091C35.4802 22.091 35.8222 21.9824 36.077 21.768C36.3326 21.5508 36.5237 21.2098 36.6575 20.7395C36.6808 20.6394 36.7014 20.5675 36.7146 20.5138L36.7315 20.3796Z" fill="#1B3281"/>
<path d="M38.7041 26.281L39.2735 24.2029H40.0078C40.2531 24.2029 40.446 24.154 40.5827 24.0651C40.7215 23.9726 40.8159 23.8167 40.8703 23.6069C40.8975 23.5145 40.9142 23.4172 40.9256 23.3067C40.9329 23.1896 40.9329 23.0658 40.9256 22.9224L40.5338 16.4937H43.131L43.0907 20.7535L45.358 16.4937H47.7732L43.7649 23.4806C43.31 24.2615 42.9794 24.798 42.7695 25.0908C42.5624 25.3799 42.3658 25.6047 42.1749 25.7569C41.9276 25.9674 41.6514 26.1166 41.3533 26.2035C41.0546 26.2923 40.5996 26.3365 39.9881 26.3365C39.8121 26.3365 39.6096 26.3331 39.3906 26.3215C39.1732 26.313 38.9411 26.2999 38.7041 26.281Z" fill="#1B3281"/>
</g>
<defs>
<clipPath id="clip0_63_34">
<rect width="60" height="40" fill="white"/>
</clipPath>
</defs>
</svg>
