<svg width="30" height="31" viewBox="0 0 30 31" fill="none" xmlns="http://www.w3.org/2000/svg">
<path d="M8.02706 19.5354C7.87456 19.5357 7.72765 19.478 7.6162 19.3739C7.50475 19.2698 7.43712 19.1272 7.42706 18.975C7.37996 18.3748 7.39766 17.7713 7.47986 17.175C7.4912 17.097 7.5178 17.022 7.55814 16.9542C7.59847 16.8865 7.65175 16.8274 7.71493 16.7803C7.77811 16.7331 7.84996 16.6989 7.92637 16.6795C8.00277 16.6602 8.08225 16.656 8.16026 16.6674C8.23826 16.6787 8.31327 16.7053 8.38099 16.7457C8.44872 16.786 8.50784 16.8393 8.55497 16.9025C8.60211 16.9656 8.63634 17.0375 8.6557 17.1139C8.67507 17.1903 8.6792 17.2698 8.66786 17.3478C8.59834 17.8588 8.58386 18.3757 8.62466 18.8898C8.62987 18.9684 8.61954 19.0473 8.59426 19.122C8.56898 19.1966 8.52924 19.2655 8.47731 19.3248C8.42538 19.3841 8.36228 19.4326 8.29161 19.4675C8.22094 19.5024 8.1441 19.523 8.06546 19.5282L8.02706 19.5354Z" fill="#123455"/>
<path d="M26.9418 9.27278C26.8551 9.27279 26.7695 9.25402 26.6907 9.21777C26.612 9.18151 26.5421 9.12864 26.4858 9.06278C25.7965 8.25874 24.9761 7.57712 24.0594 7.04678C23.9288 6.96376 23.8353 6.83349 23.7985 6.68318C23.7617 6.53287 23.7843 6.37414 23.8618 6.24016C23.9392 6.10618 24.0655 6.00731 24.2141 5.96419C24.3627 5.92107 24.5222 5.93705 24.6594 6.00878C25.6935 6.60602 26.6186 7.37455 27.3954 8.28158C27.4702 8.36864 27.5185 8.47535 27.5346 8.58904C27.5506 8.70274 27.5337 8.81864 27.4858 8.923C27.4379 9.02736 27.3611 9.11578 27.2644 9.17779C27.1678 9.23979 27.0566 9.27275 26.9418 9.27278Z" fill="#123455"/>
<path d="M16.0684 26.9035C14.8513 26.931 13.6423 26.6984 12.5224 26.2212C11.4024 25.744 10.3972 25.0332 9.574 24.1363C8.88242 23.3849 8.34216 22.5073 7.9828 21.5515C7.95173 21.477 7.93599 21.3971 7.93654 21.3164C7.93708 21.2357 7.9539 21.1559 7.98597 21.0819C8.01805 21.0079 8.06472 20.9411 8.12321 20.8855C8.1817 20.8299 8.2508 20.7867 8.32638 20.7584C8.40195 20.7302 8.48245 20.7174 8.56306 20.721C8.64366 20.7246 8.72272 20.7444 8.7955 20.7792C8.86829 20.814 8.9333 20.8632 8.98665 20.9237C9.04 20.9842 9.08059 21.0549 9.106 21.1315C9.4124 21.9471 9.87321 22.696 10.4632 23.3371C11.1755 24.1075 12.0439 24.717 13.0105 25.1251C13.977 25.5332 15.0195 25.7304 16.0684 25.7035C18.5344 25.6241 20.8978 24.6979 22.7612 23.0806C24.6245 21.4634 25.874 19.2538 26.2996 16.8235C26.4952 15.7346 26.4502 14.6162 26.1679 13.5465C25.8856 12.4769 25.3727 11.482 24.6652 10.6315C23.9516 9.82016 23.0689 9.17513 22.0791 8.74182C21.0893 8.30851 20.0166 8.09744 18.9364 8.12349C16.4751 8.16363 14.1102 9.08694 12.2728 10.7251C10.9059 11.8952 9.85458 13.3896 9.2152 15.0715C9.15982 15.2208 9.04742 15.3419 8.90271 15.4083C8.75801 15.4747 8.59286 15.4809 8.4436 15.4255C8.29433 15.3701 8.17318 15.2577 8.10679 15.113C8.04041 14.9683 8.03422 14.8032 8.0896 14.6539C8.79965 12.7828 9.96818 11.1199 11.488 9.81789C13.5431 7.99058 16.1867 6.96327 18.9364 6.92349C20.1892 6.89575 21.4329 7.14301 22.5798 7.64786C23.7268 8.1527 24.7491 8.90285 25.5748 9.84549C26.397 10.8278 26.9938 11.9785 27.323 13.2165C27.6523 14.4545 27.706 15.7497 27.4804 17.0107C27.0036 19.7194 25.6089 22.1815 23.5307 23.983C21.4524 25.7846 18.8174 26.8159 16.0684 26.9035Z" fill="#123455"/>
<path d="M16.3451 25.0997C16.186 25.0997 16.0334 25.0365 15.9209 24.924C15.8083 24.8114 15.7451 24.6588 15.7451 24.4997C15.7451 24.3406 15.8083 24.1879 15.9209 24.0754C16.0334 23.9629 16.186 23.8997 16.3451 23.8997C18.3105 23.8358 20.1939 23.097 21.6785 21.8076C23.1631 20.5181 24.1583 18.7567 24.4967 16.8197C24.5247 16.6659 24.6116 16.5292 24.7389 16.4385C24.8661 16.3478 25.0238 16.3104 25.1782 16.3341C25.3327 16.3579 25.4718 16.441 25.5659 16.5657C25.6601 16.6905 25.7018 16.847 25.6823 17.0021C25.2933 19.2192 24.1525 21.2346 22.452 22.7094C20.7515 24.1841 18.5949 25.0282 16.3451 25.0997Z" fill="#123455"/>
<path d="M17.3564 18.4807C17.1501 18.483 16.9457 18.4406 16.7574 18.3562C16.5691 18.2719 16.4013 18.1478 16.2656 17.9923C16.131 17.8324 16.0326 17.6452 15.9773 17.4437C15.922 17.2421 15.9111 17.0309 15.9452 16.8247C16.0126 16.4182 16.2202 16.0481 16.5318 15.7785C16.8435 15.5089 17.2396 15.3569 17.6516 15.3487C17.8581 15.3465 18.0626 15.389 18.2511 15.4733C18.4396 15.5576 18.6076 15.6817 18.7436 15.8371C18.878 15.9972 18.9761 16.1844 19.0314 16.3859C19.0867 16.5874 19.0979 16.7985 19.064 17.0047C18.9966 17.4114 18.7889 17.7817 18.4769 18.0513C18.165 18.3209 17.7686 18.4728 17.3564 18.4807ZM17.6516 16.5487C17.527 16.5576 17.4087 16.607 17.3147 16.6893C17.2207 16.7716 17.1561 16.8824 17.1308 17.0047C17.1233 17.0403 17.1234 17.0771 17.1311 17.1126C17.1387 17.1482 17.1538 17.1818 17.1752 17.2111C17.1989 17.2347 17.2273 17.2531 17.2585 17.2651C17.2897 17.277 17.323 17.2824 17.3564 17.2807C17.4811 17.272 17.5995 17.2227 17.6936 17.1404C17.7876 17.058 17.8521 16.9472 17.8772 16.8247C17.8852 16.7892 17.8855 16.7524 17.878 16.7168C17.8706 16.6812 17.8556 16.6476 17.834 16.6183C17.8102 16.5946 17.7816 16.5761 17.7502 16.5641C17.7188 16.5521 17.6852 16.5469 17.6516 16.5487Z" fill="#123455"/>
<path d="M18.2932 16.8303C18.1708 16.8305 18.0513 16.7932 17.9507 16.7235C17.8501 16.6538 17.7732 16.5549 17.7303 16.4403C17.6875 16.3256 17.6807 16.2006 17.711 16.0819C17.7413 15.9633 17.8071 15.8568 17.8996 15.7767L21.994 12.2247C22.0536 12.1731 22.1228 12.1337 22.1975 12.1088C22.2723 12.0839 22.3513 12.074 22.4299 12.0797C22.5085 12.0853 22.5852 12.1063 22.6557 12.1416C22.7262 12.1769 22.789 12.2257 22.8406 12.2853C22.8923 12.3449 22.9316 12.414 22.9565 12.4888C22.9814 12.5636 22.9913 12.6425 22.9857 12.7211C22.9801 12.7998 22.959 12.8765 22.9237 12.947C22.8884 13.0174 22.8396 13.0803 22.78 13.1319L18.6856 16.6839C18.5767 16.7782 18.4374 16.8302 18.2932 16.8303Z" fill="#123455"/>
<path d="M11.8803 10.8835C11.7933 10.8834 11.7073 10.8643 11.6283 10.8277C11.5494 10.791 11.4794 10.7376 11.4231 10.6711L10.5123 9.59711C10.4593 9.53729 10.4188 9.46748 10.3931 9.39177C10.3674 9.31606 10.3572 9.23599 10.3629 9.15626C10.3686 9.07652 10.3902 8.99873 10.4264 8.92746C10.4625 8.85618 10.5126 8.79286 10.5736 8.7412C10.6346 8.68955 10.7054 8.65061 10.7816 8.62666C10.8579 8.60272 10.9382 8.59426 11.0178 8.60178C11.0973 8.6093 11.1746 8.63265 11.2451 8.67045C11.3155 8.70825 11.3777 8.75975 11.4279 8.82191L12.3387 9.90191C12.4108 9.9894 12.4567 10.0955 12.471 10.208C12.4852 10.3205 12.4673 10.4347 12.4194 10.5374C12.3714 10.6401 12.2953 10.7272 12.1999 10.7884C12.1045 10.8497 11.9937 10.8826 11.8803 10.8835Z" fill="#123455"/>
<path d="M12.784 21.9319H3.00039C2.84126 21.9319 2.68865 21.8687 2.57613 21.7562C2.4636 21.6437 2.40039 21.4911 2.40039 21.3319C2.40039 21.1728 2.4636 21.0202 2.57613 20.9077C2.68865 20.7951 2.84126 20.7319 3.00039 20.7319H12.784C12.9431 20.7319 13.0957 20.7951 13.2083 20.9077C13.3208 21.0202 13.384 21.1728 13.384 21.3319C13.384 21.4911 13.3208 21.6437 13.2083 21.7562C13.0957 21.8687 12.9431 21.9319 12.784 21.9319Z" fill="#123455"/>
<path d="M11.4265 17.8636H5.6293C5.47017 17.8636 5.31755 17.8004 5.20503 17.6878C5.09251 17.5753 5.0293 17.4227 5.0293 17.2636C5.0293 17.1044 5.09251 16.9518 5.20503 16.8393C5.31755 16.7268 5.47017 16.6636 5.6293 16.6636H11.4265C11.5856 16.6636 11.7382 16.7268 11.8508 16.8393C11.9633 16.9518 12.0265 17.1044 12.0265 17.2636C12.0265 17.4227 11.9633 17.5753 11.8508 17.6878C11.7382 17.8004 11.5856 17.8636 11.4265 17.8636Z" fill="#123455"/>
<path d="M12.431 7.01445H6.95059C6.79146 7.01445 6.63884 6.95124 6.52632 6.83872C6.4138 6.7262 6.35059 6.57358 6.35059 6.41445C6.35059 6.25532 6.4138 6.10271 6.52632 5.99019C6.63884 5.87767 6.79146 5.81445 6.95059 5.81445H12.431C12.5901 5.81445 12.7427 5.87767 12.8552 5.99019C12.9678 6.10271 13.031 6.25532 13.031 6.41445C13.031 6.57358 12.9678 6.7262 12.8552 6.83872C12.7427 6.95124 12.5901 7.01445 12.431 7.01445Z" fill="#123455"/>
<path d="M7.8913 25.5799H5.6293C5.47017 25.5799 5.31755 25.5167 5.20503 25.4041C5.09251 25.2916 5.0293 25.139 5.0293 24.9799C5.0293 24.8208 5.09251 24.6681 5.20503 24.5556C5.31755 24.4431 5.47017 24.3799 5.6293 24.3799H7.8913C8.05043 24.3799 8.20304 24.4431 8.31556 24.5556C8.42808 24.6681 8.4913 24.8208 8.4913 24.9799C8.4913 25.139 8.42808 25.2916 8.31556 25.4041C8.20304 25.5167 8.05043 25.5799 7.8913 25.5799Z" fill="#123455"/>
<path d="M6.26079 14.6995H3.00039C2.84126 14.6995 2.68865 14.6363 2.57613 14.5238C2.4636 14.4113 2.40039 14.2586 2.40039 14.0995C2.40039 13.9404 2.4636 13.7878 2.57613 13.6752C2.68865 13.5627 2.84126 13.4995 3.00039 13.4995H6.26079C6.41992 13.4995 6.57253 13.5627 6.68505 13.6752C6.79758 13.7878 6.86079 13.9404 6.86079 14.0995C6.86079 14.2586 6.79758 14.4113 6.68505 14.5238C6.57253 14.6363 6.41992 14.6995 6.26079 14.6995Z" fill="#123455"/>
<path d="M20.5206 6.53092H17.8398C17.6516 6.5347 17.465 6.49673 17.2933 6.41974C17.1216 6.34275 16.9691 6.22866 16.8468 6.08567C16.7244 5.94269 16.6353 5.77436 16.5858 5.59282C16.5363 5.41127 16.5277 5.22101 16.5606 5.03572C16.6205 4.67356 16.8054 4.34383 17.0832 4.10379C17.3609 3.86375 17.7139 3.72857 18.081 3.72172H20.7726C20.9587 3.7202 21.143 3.75887 21.3128 3.83508C21.4826 3.91129 21.634 4.02325 21.7566 4.16332C21.8781 4.30761 21.967 4.47648 22.0171 4.65834C22.0672 4.8402 22.0774 5.03075 22.047 5.21692C21.9864 5.57989 21.8005 5.91013 21.5216 6.1502C21.2427 6.39028 20.8885 6.525 20.5206 6.53092ZM18.0858 4.92172C18.0057 4.92865 17.93 4.96106 17.8698 5.0142C17.8095 5.06733 17.7679 5.13838 17.751 5.21692C17.751 5.21692 17.7246 5.33092 17.8398 5.33092H20.5206C20.6007 5.32437 20.6766 5.29209 20.737 5.23889C20.7973 5.1857 20.8388 5.11444 20.8554 5.03572C20.8554 5.03572 20.8746 4.92172 20.7678 4.92172H18.0858Z" fill="#123455"/>
</svg>
