<svg xmlns="http://www.w3.org/2000/svg" width="30" height="31" fill="#123455" xmlns:v="https://vecta.io/nano"><path d="M29.999 26.323h-19.55v-3.258h1.303v1.955h16.943V5.471H11.752v1.955h-1.303V4.167h19.549v22.156zm-18.245-4.561c-4.678.01-9.035-2.379-11.542-6.329L0 15.107l.187-.342a11.73 11.73 0 0 1 19.354-1.711l.285.35-.228.391a9.49 9.49 0 0 1-8.17 4.708c-2.506.008-4.911-.986-6.679-2.761l-.399-.399.334-.448c1.195-1.615 3.013-2.654 5.01-2.864a7.17 7.17 0 0 1 5.498 1.757l-.863.977c-2.406-2.13-6.079-1.926-8.235.456a8.09 8.09 0 0 0 5.335 1.979 8.18 8.18 0 0 0 6.81-3.674c-2.2-2.472-5.444-3.753-8.74-3.451s-6.252 2.151-7.967 4.982a12.33 12.33 0 0 0 10.223 5.4c3.796 0 7.201-1.678 9.587-4.716l1.026.806c-2.639 3.364-6.41 5.213-10.614 5.213z"/></svg>