<svg xmlns="http://www.w3.org/2000/svg" width="31" height="30" fill="#123455" xmlns:v="https://vecta.io/nano"><path d="M21.132 19.123h2.229a5.81 5.81 0 0 0 5.8-5.8c0-2.834-2.05-5.244-4.813-5.716a6.21 6.21 0 0 0-1.958-3.756c-1.153-1.061-2.652-1.646-4.219-1.646a6.22 6.22 0 0 0-5.039 2.565 5.19 5.19 0 0 0-1.789-.315 5.2 5.2 0 0 0-3.627 1.463 5.2 5.2 0 0 0-1.579 3.275 5.03 5.03 0 0 0-2.729 1.634 5.02 5.02 0 0 0-1.212 3.271 5.03 5.03 0 0 0 5.024 5.024h2.556v2.137l-.849.609c-.176-.125-.392-.2-.624-.2a1.08 1.08 0 0 0-1.079 1.079 1.08 1.08 0 0 0 1.079 1.079 1.08 1.08 0 0 0 1.079-1.079c0-.108-.016-.212-.046-.31l.994-.713a.35.35 0 0 0 .146-.285v-2.316h1.875v4.872l-.849.609c-.176-.125-.392-.2-.624-.2a1.08 1.08 0 0 0-1.079 1.079 1.08 1.08 0 0 0 1.079 1.079 1.08 1.08 0 0 0 1.079-1.079c0-.108-.016-.212-.046-.31l.994-.713a.35.35 0 0 0 .146-.285v-5.052h2.064v6.575a1.08 1.08 0 1 0 .701 0v-6.577h2.064v5.052a.35.35 0 0 0 .146.285l.994.713c-.03.098-.046.202-.046.31a1.08 1.08 0 0 0 1.079 1.079 1.08 1.08 0 0 0 1.079-1.079 1.08 1.08 0 0 0-1.079-1.079 1.07 1.07 0 0 0-.624.2l-.849-.609v-4.872h1.851v2.317a.35.35 0 0 0 .146.285l.994.713c-.03.098-.046.202-.046.31a1.08 1.08 0 0 0 1.079 1.079 1.08 1.08 0 0 0 1.079-1.079 1.08 1.08 0 0 0-1.079-1.079c-.233 0-.448.075-.624.2l-.849-.609v-2.136h-.001zm-12.83 4.002a.38.38 0 0 1-.379-.379.38.38 0 0 1 .379-.379.38.38 0 0 1 .379.379.38.38 0 0 1-.379.379zm2.576 2.734a.38.38 0 0 1-.379-.379.38.38 0 0 1 .379-.379.38.38 0 0 1 .379.379.38.38 0 0 1-.379.379zm4.587 1.236a.38.38 0 0 1-.379-.379.38.38 0 0 1 .377-.378h.002.002a.38.38 0 0 1 .377.378.38.38 0 0 1-.379.379zm4.966-1.614a.38.38 0 0 1-.379.379.38.38 0 0 1-.379-.379.38.38 0 0 1 .379-.379.38.38 0 0 1 .379.379zM2.896 14.099a4.32 4.32 0 0 1 1.042-2.815c.665-.774 1.583-1.29 2.585-1.452a.35.35 0 0 0 .294-.332c.097-2.436 2.084-4.345 4.524-4.345.618 0 1.217.123 1.781.364a.35.35 0 0 0 .43-.129 5.52 5.52 0 0 1 4.618-2.485c1.392 0 2.722.519 3.745 1.461 1.017.936 1.644 2.207 1.765 3.579a.35.35 0 0 0 .306.317 5.1 5.1 0 0 1 4.474 5.061c0 2.812-2.287 5.099-5.099 5.099H7.219a4.33 4.33 0 0 1-4.323-4.323zm20.087 8.648a.38.38 0 0 1-.379.379.38.38 0 0 1-.379-.379.38.38 0 0 1 .379-.379.38.38 0 0 1 .379.379zm-12.055-9.258a.35.35 0 1 0 0 .7h1.123v.107c0 .817.664 1.483 1.481 1.484v1.123a.35.35 0 1 0 .7 0V15.78h.948v1.123a.35.35 0 1 0 .7 0V15.78h1.131v1.123a.35.35 0 1 0 .7 0V15.78h.216c.818 0 1.484-.665 1.484-1.484v-.107h1.123a.35.35 0 1 0 0-.7h-1.123v-1.04h1.123a.35.35 0 1 0 0-.7h-1.123v-1.04h1.123a.35.35 0 1 0 0-.7h-1.123v-.107c0-.818-.665-1.484-1.484-1.484h-.107V7.296a.35.35 0 1 0-.7 0v1.123h-1.04V7.296a.35.35 0 1 0-.7 0v1.123h-1.039V7.296a.35.35 0 1 0-.7 0v1.123h-.107c-.818 0-1.484.665-1.484 1.484v.107h-1.123a.35.35 0 1 0 0 .7h1.123v1.04h-1.123a.35.35 0 1 0 0 .7h1.123v1.04h-1.123zm1.823-3.587c0-.432.351-.783.783-.783h4.394c.432 0 .783.351.783.783v4.394c0 .432-.351.783-.783.783h-4.394c-.432 0-.783-.351-.783-.783V9.903zm4.435 3.811a.35.35 0 0 0 .35-.35v-2.526a.35.35 0 1 0-.7 0v2.526a.35.35 0 0 0 .35.35zm-3.256-.35a.35.35 0 1 0 .7 0v-.736h.799v.736a.35.35 0 1 0 .7 0v-1.777a1.1 1.1 0 0 0-2.2 0v1.777h-.001zm1.1-2.176a.4.4 0 0 1 .399.399v.34h-.799v-.34a.4.4 0 0 1 .4-.399z"/></svg>