<svg width="31" height="30" viewBox="0 0 31 30" fill="none" xmlns="http://www.w3.org/2000/svg">
<g clip-path="url(#clip0_1877_5223)">
<path d="M15.0621 7.49999C8.91247 7.49999 2.6875 6.21197 2.6875 3.74999C2.6875 1.28802 8.91242 0 15.0621 0C21.2117 0 27.4366 1.28802 27.4366 3.74999C27.4366 6.21197 21.2117 7.49999 15.0621 7.49999ZM15.0621 1.07143C8.16499 1.07143 3.7636 2.65765 3.7636 3.74999C3.7636 4.84234 8.16499 6.42856 15.0621 6.42856C21.9591 6.42856 26.3605 4.84234 26.3605 3.74999C26.3605 2.65765 21.9591 1.07143 15.0621 1.07143Z" fill="#123455"/>
<path d="M2.6875 26.2501C2.6875 28.712 8.91247 30 15.0621 30C21.2117 30 27.4366 28.712 27.4365 26.2501H26.3605C26.3605 27.3424 21.9591 28.9286 15.062 28.9286C8.16494 28.9286 3.76355 27.3424 3.76355 26.2501V18.7501C3.76355 18.4542 3.52265 18.2144 3.22552 18.2144C2.92839 18.2144 2.6875 18.4542 2.6875 18.7501V26.2501Z" fill="#123455"/>
<path d="M2.6875 11.2501V18.7501C2.6875 19.7921 3.23242 20.5254 4.98503 21.1381V19.8567C3.76343 19.4065 3.76347 19.1805 3.76354 18.7599L3.76355 18.7501V11.2501C3.76355 10.9542 3.52265 10.7144 3.22552 10.7144C2.92839 10.7144 2.6875 10.9542 2.6875 11.2501Z" fill="#123455"/>
<path d="M26.8985 10.7144C26.6014 10.7144 26.3605 10.9542 26.3605 11.2501V16.7778L27.4365 16.9093V11.2501C27.4365 10.9542 27.1956 10.7144 26.8985 10.7144Z" fill="#123455"/>
<path d="M15.0621 15.0001C8.91247 15.0001 2.6875 13.7121 2.6875 11.2501V3.75007C2.6875 3.45422 2.92839 3.21436 3.22552 3.21436C3.52265 3.21436 3.76354 3.45422 3.76354 3.75007V11.2501C3.76354 12.3425 8.16494 13.9286 15.062 13.9286C21.9591 13.9286 26.3605 12.3424 26.3605 11.2501V3.75007C26.3605 3.45422 26.6014 3.21436 26.8985 3.21436C27.1956 3.21436 27.4365 3.45422 27.4365 3.75007V11.2501C27.4366 13.7121 21.2117 15.0001 15.0621 15.0001Z" fill="#123455"/>
<path d="M24.749 9.64272C25.0461 9.64272 25.287 9.40287 25.287 9.107C25.287 8.81114 25.0461 8.57129 24.749 8.57129C24.4518 8.57129 24.2109 8.81114 24.2109 9.107C24.2109 9.40287 24.4518 9.64272 24.749 9.64272Z" fill="#123455"/>
<rect x="5.8125" y="16.1499" width="21.625" height="10.772" rx="2" stroke="#123455"/>
<path d="M10.4632 19.07L8.59357 24.2113C8.47224 24.5448 8.64434 24.9136 8.97782 25.0349C9.05038 25.0613 9.12448 25.0737 9.19742 25.0737C9.46001 25.0737 9.70654 24.9116 9.8014 24.6505L9.97479 24.1738H12.4972L12.7215 24.6879C12.8634 25.0133 13.2424 25.1619 13.5675 25.0199C13.8929 24.878 14.0415 24.4991 13.8995 24.1739L13.5107 23.2829L13.5087 23.2781L11.6561 19.0326C11.551 18.7916 11.3105 18.6401 11.0469 18.6472C10.7843 18.6555 10.5531 18.8229 10.4632 19.07ZM11.1214 21.0209L11.9364 22.8885H10.4423L11.1214 21.0209Z" fill="#123455"/>
<path d="M17.1624 22.503H17.4194C17.7738 22.503 18.0621 22.7913 18.0621 23.1456C18.0621 23.5 17.7738 23.7883 17.4194 23.7883H16.4876C16.1327 23.7883 15.8449 24.0761 15.8449 24.431C15.8449 24.7858 16.1327 25.0736 16.4876 25.0736H17.4194C18.4825 25.0736 19.3474 24.2087 19.3474 23.1456C19.3474 22.0825 18.4825 21.2176 17.4194 21.2176H17.1624C16.808 21.2176 16.5197 20.9293 16.5197 20.575C16.5197 20.2206 16.808 19.9323 17.1624 19.9323H17.9014C18.2563 19.9323 18.5441 19.6445 18.5441 19.2896C18.5441 18.9348 18.2563 18.647 17.9014 18.647H17.1624C16.0993 18.647 15.2344 19.5119 15.2344 20.575C15.2344 21.6381 16.0993 22.503 17.1624 22.503Z" fill="#123455"/>
<path d="M21.2755 25.0736C21.6304 25.0736 21.9181 24.7858 21.9181 24.431V22.503H22.8179C23.881 22.503 24.7459 21.6381 24.7459 20.575C24.7459 19.5119 23.881 18.647 22.8179 18.647H21.2755C20.9206 18.647 20.6328 18.9348 20.6328 19.2896V20.8261V21.8603V24.431C20.6328 24.7858 20.9205 25.0736 21.2755 25.0736ZM21.9181 19.9323H22.8179C23.1722 19.9323 23.4605 20.2206 23.4605 20.575C23.4605 20.9293 23.1722 21.2176 22.8179 21.2176H21.9181V20.8261V19.9323Z" fill="#123455"/>
</g>
<defs>
<clipPath id="clip0_1877_5223">
<rect width="30.1293" height="30" fill="white"/>
</clipPath>
</defs>
</svg>
