<svg width="30" height="31" viewBox="0 0 30 31" fill="none" xmlns="http://www.w3.org/2000/svg">
<path d="M25.9102 27.5171C25.7874 27.5171 25.6674 27.4693 25.5783 27.3802L24.1055 25.9065C23.9227 25.7237 23.9227 25.4265 24.1055 25.2437C24.2883 25.0609 24.5855 25.0609 24.7683 25.2437L25.6561 26.1315L26.738 21.7993L22.4058 22.8821L23.2936 23.7709C23.4765 23.9537 23.4765 24.2509 23.2936 24.4337C23.1108 24.6165 22.8136 24.6165 22.6308 24.4337L21.158 22.9599C21.038 22.8409 20.9921 22.6665 21.038 22.5034C21.083 22.3412 21.2124 22.2146 21.3755 22.1743L27.2686 20.7015C27.4299 20.6602 27.5986 20.709 27.714 20.8243C27.8302 20.9405 27.8771 21.1093 27.8377 21.2696L26.3649 27.1618C26.3236 27.3259 26.1971 27.4552 26.0349 27.5002C25.9946 27.5115 25.9524 27.5171 25.9102 27.5171Z" fill="#123455"/>
<path d="M14.9268 27.9847C14.668 27.9847 14.458 27.7747 14.458 27.516C14.458 27.2572 14.668 27.0472 14.9268 27.0472C17.8536 27.0472 20.6268 25.9288 22.7333 23.8982C22.9189 23.7191 23.2161 23.7238 23.3961 23.9104C23.5752 24.0969 23.5705 24.3941 23.383 24.5732C21.1011 26.7735 18.0983 27.9847 14.9268 27.9847Z" fill="#123455"/>
<path d="M14.9268 29.8598C7.1727 29.8598 0.864258 23.5514 0.864258 15.7973C0.864258 15.4711 0.875508 15.1486 0.89707 14.828C0.91582 14.5692 1.13895 14.3761 1.39676 14.392C1.65457 14.4098 1.84957 14.633 1.8327 14.8917C1.81301 15.1908 1.80176 15.4927 1.80176 15.7973C1.80176 23.0348 7.68926 28.9223 14.9268 28.9223C18.313 28.9223 21.5277 27.6361 23.9783 25.3017C24.1658 25.1236 24.4621 25.1292 24.6411 25.3177C24.8193 25.5052 24.8127 25.8014 24.6243 25.9805C21.9993 28.4817 18.5549 29.8598 14.9268 29.8598Z" fill="#123455"/>
<path d="M2.47224 10.9081C2.34943 10.9081 2.22943 10.8594 2.14037 10.7712C2.02412 10.655 1.97724 10.4862 2.01662 10.3259L3.49037 4.43279C3.53162 4.26873 3.65818 4.13936 3.82037 4.09436C3.98256 4.05029 4.15787 4.09436 4.27693 4.21436L5.74974 5.68904C5.93256 5.87186 5.93256 6.16904 5.74974 6.35186C5.56693 6.53467 5.26974 6.53467 5.08693 6.35186L4.19912 5.46404L3.11631 9.79529L7.44849 8.71248L6.56068 7.82373C6.37787 7.64092 6.37787 7.34373 6.56068 7.16092C6.74349 6.97811 7.04068 6.97811 7.22349 7.16092L8.69724 8.63467C8.81631 8.75467 8.86224 8.92904 8.81631 9.09217C8.77131 9.25436 8.64193 9.38092 8.47881 9.42123L2.58568 10.894C2.54818 10.9034 2.50974 10.9081 2.47224 10.9081Z" fill="#123455"/>
<path d="M6.7961 7.82768C6.67328 7.82768 6.55047 7.77986 6.4586 7.68424C6.2786 7.49768 6.28422 7.20143 6.47078 7.02143C8.7536 4.82111 11.7564 3.60986 14.928 3.60986C15.1867 3.60986 15.3967 3.81986 15.3967 4.07861C15.3967 4.33736 15.1867 4.54736 14.928 4.54736C12.0011 4.54736 9.22797 5.6658 7.12141 7.69643C7.03047 7.78455 6.91328 7.82768 6.7961 7.82768Z" fill="#123455"/>
<path d="M28.4913 17.2017C28.4801 17.2017 28.4697 17.2017 28.4585 17.2008C28.2007 17.183 28.0057 16.9599 28.0226 16.7011C28.0422 16.4021 28.0535 16.1011 28.0535 15.7974C28.0535 8.55986 22.166 2.67236 14.9285 2.67236C11.5423 2.67236 8.32756 3.95861 5.87694 6.29299C5.68944 6.47111 5.39319 6.46549 5.21412 6.27705C5.036 6.08955 5.04256 5.7933 5.231 5.61424C7.856 3.11299 11.3004 1.73486 14.9285 1.73486C22.6826 1.73486 28.991 8.0433 28.991 15.7974C28.991 16.1227 28.9797 16.4452 28.9582 16.7649C28.9404 17.0114 28.7351 17.2017 28.4913 17.2017Z" fill="#123455"/>
<path d="M14.9268 22.3599C11.3089 22.3599 8.36426 19.4161 8.36426 15.7974C8.36426 12.1786 11.3089 9.23486 14.9268 9.23486C16.1952 9.23486 17.4233 9.59674 18.4818 10.2802C18.6983 10.4208 18.7611 10.7105 18.6205 10.928C18.4799 11.1464 18.1883 11.2074 17.9727 11.0667C17.0661 10.4817 16.0133 10.1724 14.9268 10.1724C11.8246 10.1724 9.30176 12.6952 9.30176 15.7974C9.30176 18.8996 11.8246 21.4224 14.9268 21.4224C18.0289 21.4224 20.5518 18.8996 20.5518 15.7974C20.5518 15.1955 20.4571 14.6039 20.2714 14.0377C20.1899 13.7921 20.3239 13.5267 20.5696 13.4461C20.8143 13.3655 21.0814 13.4996 21.1611 13.7452C21.3796 14.4061 21.4893 15.0961 21.4893 15.7974C21.4893 19.4161 18.5446 22.3599 14.9268 22.3599Z" fill="#123455"/>
<path d="M14.4582 18.3275C14.4545 18.3275 14.4507 18.3275 14.447 18.3275C14.311 18.3237 14.1845 18.2628 14.0973 18.1587L11.7535 15.3462C11.5885 15.1466 11.6157 14.8512 11.8135 14.6853C12.0132 14.5203 12.3076 14.5475 12.4745 14.7453L14.4741 17.1462L20.3007 10.7103C20.477 10.5191 20.7732 10.5078 20.9626 10.6812C21.1529 10.8566 21.166 11.1528 20.9907 11.3441L14.8032 18.1756C14.7141 18.2731 14.5904 18.3275 14.4582 18.3275Z" fill="#123455"/>
<path d="M13.0518 27.9849C13.3106 27.9849 13.5205 27.775 13.5205 27.5161C13.5205 27.2572 13.3106 27.0474 13.0518 27.0474C12.7929 27.0474 12.583 27.2572 12.583 27.5161C12.583 27.775 12.7929 27.9849 13.0518 27.9849Z" fill="#123455"/>
<path d="M16.8018 4.54736C17.0606 4.54736 17.2705 4.3375 17.2705 4.07861C17.2705 3.81973 17.0606 3.60986 16.8018 3.60986C16.5429 3.60986 16.333 3.81973 16.333 4.07861C16.333 4.3375 16.5429 4.54736 16.8018 4.54736Z" fill="#123455"/>
</svg>
