<svg xmlns="http://www.w3.org/2000/svg" width="31" height="30" fill="none" xmlns:v="https://vecta.io/nano"><g clip-path="url(#A)"><path d="M4.759 4.01a.65.65 0 1 1-1.302 0 .65.65 0 1 1 1.302 0zm15.161-.498h-6.183a.5.5 0 0 0-.498.498.5.5 0 0 0 .498.498h6.183a.5.5 0 0 0 .498-.498.5.5 0 0 0-.498-.498zM6.559 3.359a.65.65 0 1 0 0 1.302.65.65 0 1 0 0-1.302zm2.451 0a.65.65 0 1 0 0 1.302.65.65 0 1 0 0-1.302zm-4.901 9.219a.65.65 0 1 0 0 1.302.65.65 0 1 0 0-1.302zm2.451 0a.65.65 0 1 0 0 1.302.65.65 0 1 0 0-1.302zm2.451 0a.65.65 0 1 0 0 1.302.65.65 0 1 0 0-1.302zm-4.901 9.219a.65.65 0 1 0 0 1.302.65.65 0 1 0 0-1.302zm2.451 0a.65.65 0 1 0 0 1.302.65.65 0 1 0 0-1.302zm2.451 0a.65.65 0 1 0 0 1.302.65.65 0 1 0 0-1.302zm21.795-1.596a9.18 9.18 0 0 1-9.167 9.168c-2.936 0-5.554-1.388-7.233-3.542H2.519A1.6 1.6 0 0 1 .922 24.23v-3.565a1.6 1.6 0 0 1 1.597-1.597h1.354v-2.46H2.519a1.6 1.6 0 0 1-1.597-1.597v-3.565A1.6 1.6 0 0 1 2.519 9.85h1.354v-2.46H2.519A1.6 1.6 0 0 1 .922 5.793V2.228A1.6 1.6 0 0 1 2.519.631h19.195a1.6 1.6 0 0 1 1.597 1.597v3.565a1.6 1.6 0 0 1-1.597 1.597H20.36v2.46h1.354a1.6 1.6 0 0 1 1.575 1.334c4.27.78 7.516 4.527 7.516 9.018zM2.519 6.393h19.195a.6.6 0 0 0 .601-.601V2.228a.6.6 0 0 0-.601-.601H2.519a.6.6 0 0 0-.601.601v3.565a.6.6 0 0 0 .601.601zm2.35 3.456h14.495v-2.46H4.869v2.46zm-2.35 5.762h11.185c.401-.69.889-1.324 1.449-1.885h-1.416a.5.5 0 0 1-.498-.498.5.5 0 0 1 .498-.498h2.592c1.499-1.068 3.331-1.697 5.308-1.697a9.26 9.26 0 0 1 .526.016.6.6 0 0 0-.45-.204H2.519a.6.6 0 0 0-.601.601v3.565a.6.6 0 0 0 .601.601zm2.35 3.456h7.671a9.09 9.09 0 0 1 .664-2.46H4.869v2.46zm8.859 5.762a9.11 9.11 0 0 1-1.258-4.63l.002-.137H2.519a.6.6 0 0 0-.601.601v3.565a.6.6 0 0 0 .601.601h11.209zm16.081-4.63c0-4.506-3.666-8.171-8.171-8.171s-8.171 3.666-8.171 8.171 3.666 8.171 8.171 8.171 8.171-3.666 8.171-8.171zm-6.074 4.689a5.12 5.12 0 0 1-3.418.275c-1.59-.426-2.858-1.59-3.442-3.088l.546.317a.5.5 0 0 0 .681-.181.5.5 0 0 0-.181-.681l-1.581-.917a.5.5 0 0 0-.71.24l-.7 1.688a.5.5 0 0 0 .46.689.5.5 0 0 0 .46-.307l.149-.358a6.12 6.12 0 0 0 4.06 3.561c.517.139 1.048.207 1.578.207a6.11 6.11 0 0 0 2.506-.536.5.5 0 0 0 .25-.659.5.5 0 0 0-.659-.25zm3.643-6.753c-.422-1.155-1.171-2.145-2.164-2.862a.5.5 0 0 0-.695.112.5.5 0 0 0 .112.695 5.14 5.14 0 0 1 1.946 5.469c-.187.696-.511 1.333-.954 1.881l.001-.633a.5.5 0 0 0-.497-.499.5.5 0 0 0-.499.497l-.004 1.828a.5.5 0 0 0 .498.499.49.49 0 0 0 .065-.004l1.812-.238a.5.5 0 0 0 .429-.559.5.5 0 0 0-.559-.429l-.38.05c.483-.629.839-1.35 1.049-2.135.327-1.22.271-2.49-.161-3.672zm-11.369 2.02c.017.002.034.003.051.003a.5.5 0 0 0 .495-.447 5.17 5.17 0 0 1 .148-.807c.353-1.319 1.199-2.421 2.381-3.103a5.07 5.07 0 0 1 3.281-.632l-.504.271a.5.5 0 0 0 .236.937c.08 0 .16-.019.236-.06l1.609-.866a.5.5 0 0 0 .168-.731l-1.071-1.481a.5.5 0 0 0-.695-.112.5.5 0 0 0-.112.695l.257.355a6.06 6.06 0 0 0-3.902.76c-1.413.816-2.423 2.133-2.845 3.708a6.17 6.17 0 0 0-.177.963.5.5 0 0 0 .445.546z" fill="#123455"/></g><defs><clipPath id="A"><path fill="#fff" transform="translate(.859)" d="M0 0h30v30H0z"/></clipPath></defs></svg>