<svg xmlns="http://www.w3.org/2000/svg" width="30" height="29" fill="#123455" xmlns:v="https://vecta.io/nano"><path d="M11.52 14.131c-.198-.083-.425-.038-.576.114a.53.53 0 0 0-.113.577l1.68 3.748c.227.506 1.037.165.802-.36l-.293-.655 1.228-1.228.652.295a.44.44 0 0 0 .582-.22.44.44 0 0 0-.22-.581l-3.729-1.686zm1.871 1.81l-.756.756-.617-1.377 1.374.621zm-.298-3.805a.44.44 0 0 0 .078.515l2.741 2.741c.169.168.452.169.621 0a.44.44 0 0 0 0-.621l-1.744-1.744 3.15.577a.49.49 0 0 0 .537-.247c.1-.191.058-.432-.115-.605l-2.679-2.628a.44.44 0 0 0-.622.006.44.44 0 0 0 .006.621l1.797 1.762-3.303-.604a.44.44 0 0 0-.468.228zm5.933.144c.169.168.454.167.622-.002l.77-.781c.774-.801.657-2.062-.278-2.996-.445-.445-.951-.72-1.461-.794a1.81 1.81 0 0 0-1.568.537l-.755.755a.45.45 0 0 0 .001.622l1.331 1.327 1.34 1.333zm-1.295-3.415a.93.93 0 0 1 .821-.289c.317.046.66.239.966.545.692.693.633 1.385.267 1.764l-.452.461-1.025-1.021-1.02-1.017.443-.443zM5.305 19.885l-.798.797a.45.45 0 0 0 0 .622l2.746 2.746a.45.45 0 0 0 .623-.001 565.24 565.24 0 0 1 .932-.939c.579-.579.579-1.521 0-2.1-.34-.34-.806-.48-1.25-.421a1.33 1.33 0 0 0-.368-.704c-.52-.52-1.365-.52-1.885 0zm1.602 2.17l.423-.423c.236-.236.62-.236.857 0s.236.62 0 .857l-.624.628-.858-.858.202-.204zm-.338-.906l-.288.289-.199.199-.643-.643.487-.487c.177-.177.465-.177.642 0s.177.465 0 .642zm3.532-4.012c-.565-.565-1.502-.547-2.089.041l-.73.73a.44.44 0 0 0-.001.622l2.746 2.746a.44.44 0 0 0 .311.129c.113 0 .225-.043.311-.129a.44.44 0 0 0 0-.622l-.863-.863 2.009.128.028.001a.44.44 0 0 0 .438-.412.44.44 0 0 0-.411-.466l-1.565-.1c.354-.575.296-1.324-.185-1.805zm-.662 1.468l-.414.417-.809-.805.418-.418c.24-.24.628-.259.846-.04s.2.606-.04.846zm13.123-4.21L9.435 27.521c-.209.209-.549.209-.758 0l-5.473-5.473a.44.44 0 0 0-.621 0 .44.44 0 0 0 0 .622l5.473 5.473a1.41 1.41 0 0 0 2.001 0l13.126-13.126a.44.44 0 0 0 0-.622.44.44 0 0 0-.622 0zm6.162-12.736a4.37 4.37 0 0 0-6.858.887l-3.755-.822a1.41 1.41 0 0 0-1.303.382L.414 18.5c-.267.267-.414.622-.414 1a1.41 1.41 0 0 0 .414 1.001l.739.739c.086.086.198.129.311.129a.44.44 0 0 0 .311-.75l-.739-.739c-.209-.209-.209-.549 0-.758L17.429 2.728c.13-.13.314-.184.494-.145l6.27 1.372a.54.54 0 0 1 .409.409l.845 3.86a3.47 3.47 0 0 1-1.891-.683 1.75 1.75 0 0 0-.121-2.31c-1.059-1.058-2.951-.284-2.951 1.222 0 .462.18.896.506 1.222a1.72 1.72 0 0 0 1.222.506 1.73 1.73 0 0 0 .603-.108 4.35 4.35 0 0 0 2.823 1.033h.003l.334 1.526c.039.179-.015.364-.145.494l-1.818 1.818a.44.44 0 0 0 0 .621.44.44 0 0 0 .622 0l1.818-1.818a1.41 1.41 0 0 0 .382-1.303l-.312-1.427a4.34 4.34 0 0 0 2.204-1.187 4.37 4.37 0 0 0 0-6.173zm-5.806 5.268a3.47 3.47 0 0 1-.342-.513.44.44 0 0 0-.596-.175.44.44 0 0 0-.175.596 4.33 4.33 0 0 0 .29.461.84.84 0 0 1-.484-.241c-.16-.16-.249-.374-.249-.601a.86.86 0 0 1 .85-.85c.46 0 .85.392.85.85 0 .171-.05.334-.143.473zm3.414 1.234l-.872-3.984a1.42 1.42 0 0 0-1.08-1.08l-1.6-.35a3.47 3.47 0 0 1 .392-.466 3.49 3.49 0 0 1 4.93 0 3.49 3.49 0 0 1 0 4.93c-.502.502-1.121.819-1.77.95z"/></svg>