<svg width="26" height="26" viewBox="0 0 26 26" fill="none" xmlns="http://www.w3.org/2000/svg">
<g clip-path="url(#clip0_370_25647)">
<path d="M19.9926 16.3804C19.4808 15.8475 18.8635 15.5626 18.2092 15.5626C17.5602 15.5626 16.9376 15.8422 16.4047 16.3751L14.7373 18.0372C14.6001 17.9633 14.4629 17.8947 14.331 17.8261C14.1411 17.7312 13.9617 17.6415 13.8087 17.5465C12.2468 16.5545 10.8275 15.2618 9.46617 13.5892C8.80661 12.7555 8.3634 12.0537 8.04153 11.3414C8.4742 10.9457 8.87521 10.5341 9.26566 10.1384C9.4134 9.99065 9.56114 9.83764 9.70888 9.6899C10.8169 8.58185 10.8169 7.14666 9.70888 6.03861L8.26842 4.59815C8.10485 4.43458 7.93601 4.26574 7.77771 4.09689C7.46113 3.76975 7.12871 3.43206 6.78575 3.11548C6.27393 2.60894 5.66187 2.33984 5.01814 2.33984C4.37442 2.33984 3.7518 2.60894 3.22416 3.11548C3.21888 3.12075 3.21888 3.12075 3.21361 3.12603L1.41962 4.93584C0.744243 5.61123 0.359064 6.43435 0.274641 7.38938C0.148007 8.93009 0.601779 10.3653 0.950023 11.3045C1.8048 13.6103 3.0817 15.7472 4.98649 18.0372C7.29756 20.7968 10.0782 22.9759 13.2546 24.5114C14.4682 25.0865 16.0881 25.7672 17.8979 25.8832C18.0087 25.8885 18.1248 25.8938 18.2303 25.8938C19.4492 25.8938 20.4728 25.4558 21.2748 24.5852C21.2801 24.5747 21.2906 24.5694 21.2959 24.5589C21.5703 24.2264 21.8869 23.9257 22.2193 23.6038C22.4462 23.3875 22.6783 23.1606 22.9052 22.9232C23.4276 22.3797 23.702 21.7465 23.702 21.0975C23.702 20.4432 23.4223 19.8153 22.8894 19.2877L19.9926 16.3804ZM21.8816 21.9365C21.8763 21.9365 21.8763 21.9417 21.8816 21.9365C21.6758 22.1581 21.4648 22.3586 21.2379 22.5802C20.8949 22.9073 20.5467 23.2503 20.2195 23.6355C19.6866 24.2053 19.0587 24.4744 18.2356 24.4744C18.1564 24.4744 18.072 24.4744 17.9929 24.4692C16.4258 24.3689 14.9695 23.7568 13.8773 23.2345C10.8908 21.7887 8.26842 19.7362 6.08926 17.1349C4.29 14.9663 3.08697 12.9613 2.29023 10.8085C1.79953 9.49467 1.62013 8.47105 1.69928 7.50546C1.75204 6.88812 1.98948 6.37631 2.42742 5.93836L4.22668 4.1391C4.48523 3.89639 4.7596 3.76448 5.0287 3.76448C5.36111 3.76448 5.63021 3.96498 5.79905 4.13383C5.80433 4.1391 5.80961 4.14438 5.81488 4.14966C6.13675 4.45041 6.44278 4.76172 6.76464 5.09414C6.92821 5.26298 7.09705 5.43183 7.2659 5.60595L8.70636 7.04641C9.26566 7.60571 9.26566 8.1228 8.70636 8.6821C8.55335 8.83512 8.40561 8.98813 8.25259 9.13587C7.80937 9.58965 7.38726 10.0118 6.92821 10.4233C6.91766 10.4339 6.9071 10.4391 6.90183 10.4497C6.44805 10.9035 6.53248 11.3467 6.62745 11.6475C6.63273 11.6633 6.63801 11.6791 6.64328 11.6949C7.01791 12.6025 7.54555 13.4573 8.34757 14.4756L8.35284 14.4809C9.80914 16.2749 11.3446 17.6731 13.0383 18.7442C13.2546 18.8814 13.4762 18.9922 13.6873 19.0978C13.8773 19.1927 14.0567 19.2824 14.2097 19.3774C14.2308 19.388 14.2519 19.4038 14.273 19.4143C14.4524 19.504 14.6212 19.5463 14.7954 19.5463C15.2333 19.5463 15.5077 19.2719 15.5974 19.1822L17.4019 17.3776C17.5813 17.1982 17.8662 16.9819 18.1986 16.9819C18.5258 16.9819 18.7949 17.1877 18.9584 17.3671C18.9637 17.3724 18.9637 17.3724 18.969 17.3776L21.8763 20.285C22.4198 20.8231 22.4198 21.3772 21.8816 21.9365Z" fill="#123455"/>
<path d="M13.7455 6.84031C15.1279 7.07247 16.3837 7.72675 17.3862 8.72927C18.3888 9.73179 19.0378 10.9876 19.2752 12.37C19.3332 12.7182 19.634 12.961 19.977 12.961C20.0192 12.961 20.0561 12.9557 20.0983 12.9504C20.4888 12.8871 20.7473 12.5177 20.684 12.1273C20.3991 10.4547 19.6076 8.92977 18.3993 7.72147C17.191 6.51317 15.6661 5.72171 13.9935 5.43678C13.603 5.37347 13.239 5.63201 13.1704 6.01719C13.1018 6.40237 13.3551 6.77699 13.7455 6.84031Z" fill="#123455"/>
<path d="M25.2068 11.9216C24.7372 9.16729 23.4392 6.66099 21.4448 4.6665C19.4503 2.67202 16.944 1.37402 14.1897 0.904414C13.8045 0.835821 13.4404 1.09964 13.3718 1.48482C13.3085 1.87528 13.5671 2.23935 13.9575 2.30794C16.4163 2.72478 18.6588 3.89087 20.4422 5.66902C22.2257 7.45245 23.3865 9.69493 23.8033 12.1537C23.8614 12.502 24.1621 12.7447 24.5051 12.7447C24.5473 12.7447 24.5842 12.7394 24.6264 12.7342C25.0116 12.6761 25.2754 12.3068 25.2068 11.9216Z" fill="#123455"/>
</g>
<defs>
<clipPath id="clip0_370_25647">
<rect width="25" height="25" fill="white" transform="translate(0.234375 0.893555)"/>
</clipPath>
</defs>
</svg>
