<svg width="31" height="31" viewBox="0 0 31 31" fill="none" xmlns="http://www.w3.org/2000/svg">
<path d="M4.99725 6.57457H9.54979C9.8012 6.57457 10.005 6.37073 10.005 6.11932C10.005 5.8679 9.8012 5.66406 9.54979 5.66406H4.99725C4.74583 5.66406 4.54199 5.8679 4.54199 6.11932C4.54199 6.37073 4.74583 6.57457 4.99725 6.57457Z" fill="#123455"/>
<path d="M13.1918 8.39551H4.99725C4.74583 8.39551 4.54199 8.59935 4.54199 8.85076C4.54199 9.10217 4.74583 9.30602 4.99725 9.30602H13.1918C13.4432 9.30602 13.6471 9.10217 13.6471 8.85076C13.6471 8.59935 13.4432 8.39551 13.1918 8.39551Z" fill="#123455"/>
<path d="M12.2813 11.127H4.99725C4.74583 11.127 4.54199 11.3308 4.54199 11.5822C4.54199 11.8336 4.74583 12.0375 4.99725 12.0375H12.2813C12.5327 12.0375 12.7366 11.8336 12.7366 11.5822C12.7366 11.3308 12.5327 11.127 12.2813 11.127Z" fill="#123455"/>
<path d="M12.2813 13.8584H4.99725C4.74583 13.8584 4.54199 14.0622 4.54199 14.3137C4.54199 14.5651 4.74583 14.7689 4.99725 14.7689H12.2813C12.5327 14.7689 12.7366 14.5651 12.7366 14.3137C12.7366 14.0622 12.5327 13.8584 12.2813 13.8584Z" fill="#123455"/>
<path d="M12.2813 16.5898H4.99725C4.74583 16.5898 4.54199 16.7937 4.54199 17.0451C4.54199 17.2965 4.74583 17.5004 4.99725 17.5004H12.2813C12.5327 17.5004 12.7366 17.2965 12.7366 17.0451C12.7366 16.7937 12.5327 16.5898 12.2813 16.5898Z" fill="#123455"/>
<path d="M28.2105 14.2852C28.2083 14.2454 28.2003 14.2058 28.1872 14.1682C28.1823 14.1536 28.1785 14.1396 28.1723 14.1253C28.1503 14.0758 28.1194 14.0306 28.0811 13.992L24.4391 10.3499C24.3995 10.3115 24.3533 10.2806 24.3026 10.2588C24.2897 10.2535 24.277 10.2499 24.2639 10.2452C24.2241 10.2312 24.1826 10.223 24.1405 10.2206C24.1319 10.2206 24.1241 10.2157 24.1154 10.2157H16.3797V6.11926C16.3797 6.10926 16.3748 6.10059 16.3739 6.09059C16.3717 6.0508 16.3637 6.01123 16.3505 5.97366C16.3457 5.95899 16.3419 5.94498 16.3356 5.93076C16.3136 5.88119 16.2827 5.83606 16.2445 5.79738L12.6025 2.15535C12.5638 2.11734 12.5184 2.08644 12.4687 2.06421C12.4555 2.05843 12.4418 2.05465 12.4282 2.04976C12.3886 2.0362 12.3477 2.0282 12.3062 2.02553C12.2993 2.02642 12.2915 2.02197 12.2824 2.02197H4.0878C2.8314 2.02353 1.81308 3.04163 1.81152 4.29824V18.8664C1.81308 20.123 2.8314 21.1411 4.0878 21.1427H13.6481V27.061C13.6497 28.3176 14.668 29.3357 15.9244 29.3372H25.94C27.1966 29.3357 28.2149 28.3176 28.2163 27.061V14.3138C28.2163 14.3038 28.2114 14.2952 28.2105 14.2852ZM26.6622 13.8586H25.0295C24.7781 13.8586 24.5742 13.6547 24.5742 13.4033V11.7708L26.6622 13.8586ZM14.8256 5.66401H13.1929C12.9415 5.66401 12.7376 5.46017 12.7376 5.20875V3.57624L14.8256 5.66401ZM4.0878 20.2321C3.33356 20.2321 2.72203 19.6206 2.72203 18.8664V4.29824C2.72203 3.54401 3.33356 2.93248 4.0878 2.93248H11.8271V5.20875C11.8271 5.96299 12.4386 6.57452 13.1929 6.57452H15.4692V10.2621C15.4612 10.2621 15.4538 10.2675 15.4456 10.2695C15.316 10.2975 15.1891 10.337 15.0664 10.3873C15.0208 10.4051 14.9826 10.4291 14.9403 10.4497C14.8572 10.4886 14.7767 10.5327 14.6989 10.5811C14.6533 10.6105 14.612 10.6436 14.5686 10.6754C14.5011 10.7258 14.4359 10.7796 14.3739 10.8365C14.3335 10.8748 14.2957 10.9145 14.2579 10.9555C14.2014 11.0164 14.1485 11.0804 14.0994 11.1475C14.066 11.1931 14.0343 11.2387 14.0042 11.2842C13.9593 11.3567 13.9187 11.4318 13.8822 11.509C13.8586 11.5576 13.834 11.6045 13.814 11.6548C13.7804 11.7433 13.7522 11.8337 13.7297 11.9255C13.7179 11.9711 13.7024 12.0133 13.6933 12.0622C13.6646 12.2038 13.6495 12.3481 13.6481 12.4928V20.2321H4.0878ZM25.94 28.4267H15.9244C15.1702 28.4267 14.5586 27.8152 14.5586 27.061V12.4928C14.5586 11.7386 15.1702 11.1271 15.9244 11.1271H23.6637V13.4033C23.6637 14.1576 24.2753 14.7691 25.0295 14.7691H27.3058V27.061C27.3058 27.8152 26.6945 28.4267 25.94 28.4267Z" fill="#123455"/>
<path d="M16.8351 14.7689H21.3877C21.6391 14.7689 21.8429 14.5651 21.8429 14.3137C21.8429 14.0622 21.6391 13.8584 21.3877 13.8584H16.8351C16.5837 13.8584 16.3799 14.0622 16.3799 14.3137C16.3799 14.5651 16.5837 14.7689 16.8351 14.7689Z" fill="#123455"/>
<path d="M16.8351 17.5004H25.0297C25.2811 17.5004 25.485 17.2965 25.485 17.0451C25.485 16.7937 25.2811 16.5898 25.0297 16.5898H16.8351C16.5837 16.5898 16.3799 16.7937 16.3799 17.0451C16.3799 17.2965 16.5837 17.5004 16.8351 17.5004Z" fill="#123455"/>
<path d="M16.8351 20.2318H25.0297C25.2811 20.2318 25.485 20.028 25.485 19.7765C25.485 19.5251 25.2811 19.3213 25.0297 19.3213H16.8351C16.5837 19.3213 16.3799 19.5251 16.3799 19.7765C16.3799 20.028 16.5837 20.2318 16.8351 20.2318Z" fill="#123455"/>
<path d="M16.8351 22.9637H25.0297C25.2811 22.9637 25.485 22.7599 25.485 22.5085C25.485 22.2571 25.2811 22.0532 25.0297 22.0532H16.8351C16.5837 22.0532 16.3799 22.2571 16.3799 22.5085C16.3799 22.7599 16.5837 22.9637 16.8351 22.9637Z" fill="#123455"/>
<path d="M24.5745 25.2399C24.5745 24.9885 24.3706 24.7847 24.1192 24.7847H16.8351C16.5837 24.7847 16.3799 24.9885 16.3799 25.2399C16.3799 25.4913 16.5837 25.6952 16.8351 25.6952H24.1192C24.3706 25.6952 24.5745 25.4913 24.5745 25.2399Z" fill="#123455"/>
<path d="M18.2357 4.9285C18.2586 4.98363 18.2919 5.03364 18.3342 5.07566L20.2652 7.00649C20.3795 7.12475 20.5489 7.17209 20.708 7.13053C20.8672 7.08896 20.9915 6.96447 21.033 6.80531C21.0748 6.64615 21.0273 6.47699 20.909 6.36273L19.7544 5.20859H24.1184C24.8729 5.20859 25.4842 5.82011 25.4842 6.57435V9.76113C25.4842 10.0125 25.6881 10.2164 25.9395 10.2164C26.1909 10.2164 26.3947 10.0125 26.3947 9.76113V6.57435C26.3934 5.31773 25.3751 4.29964 24.1184 4.29808H19.7544L20.909 3.14394C21.0273 3.02968 21.0748 2.86052 21.033 2.70136C20.9915 2.54219 20.8672 2.41771 20.708 2.37614C20.5489 2.33457 20.3795 2.38192 20.2652 2.50018L18.3342 4.43101C18.2919 4.47302 18.2586 4.52304 18.2357 4.57817C18.1884 4.6902 18.1884 4.81646 18.2357 4.9285Z" fill="#123455"/>
<path d="M11.7911 26.8859C11.7682 26.8307 11.7348 26.7807 11.6926 26.7387L9.76154 24.8079C9.64706 24.6896 9.4779 24.6423 9.31874 24.6838C9.15957 24.7254 9.03531 24.8499 8.99352 25.009C8.95195 25.1682 8.9993 25.3374 9.11778 25.4516L10.2724 26.6058H5.90811C5.15387 26.6058 4.54234 25.9942 4.54234 25.24V22.5085C4.54234 22.2571 4.3385 22.0532 4.08709 22.0532C3.83568 22.0532 3.63184 22.2571 3.63184 22.5085V25.24C3.63339 26.4966 4.65171 27.5147 5.90811 27.5163H10.2724L9.11778 28.6704C8.9993 28.7847 8.95195 28.9538 8.99352 29.113C9.03531 29.2722 9.15957 29.3966 9.31874 29.4382C9.4779 29.4798 9.64706 29.4324 9.76154 29.3142L11.6926 27.3833C11.7348 27.3413 11.7682 27.2913 11.7911 27.2362C11.8384 27.1242 11.8384 26.9979 11.7911 26.8859Z" fill="#123455"/>
<path d="M25.9384 24.7847C25.687 24.7847 25.4831 24.9885 25.4831 25.2399V26.1504C25.4831 26.4018 25.2793 26.6057 25.0279 26.6057H24.1174C23.866 26.6057 23.6621 26.8095 23.6621 27.0609C23.6621 27.3124 23.866 27.5162 24.1174 27.5162H25.0279C25.7823 27.5162 26.3936 26.9047 26.3936 26.1504V25.2399C26.3936 24.9885 26.1898 24.7847 25.9384 24.7847Z" fill="#123455"/>
</svg>
