<svg width="31" height="31" viewBox="0 0 31 31" fill="none" xmlns="http://www.w3.org/2000/svg">
<g clip-path="url(#clip0_1170_3897)">
<path d="M15.3242 10.9336C12.9983 10.9336 11.1055 12.8264 11.1055 15.1523C11.1055 17.4783 12.9983 19.3711 15.3242 19.3711C17.6502 19.3711 19.543 17.4783 19.543 15.1523C19.543 12.8264 17.6502 10.9336 15.3242 10.9336ZM15.3242 18.4336C13.5148 18.4336 12.043 16.9617 12.043 15.1523C12.043 13.343 13.5148 11.8711 15.3242 11.8711C17.1336 11.8711 18.6055 13.343 18.6055 15.1523C18.6055 16.9617 17.1336 18.4336 15.3242 18.4336Z" fill="#123455"/>
<path d="M25.6367 8.12109H29.3867C29.6455 8.12109 29.8555 7.91109 29.8555 7.65234V3.90234C29.8555 3.64359 29.6455 3.43359 29.3867 3.43359H25.6367C25.378 3.43359 25.168 3.64359 25.168 3.90234V5.30859H23.7617C23.503 5.30859 23.293 5.51859 23.293 5.77734V14.6836H22.8242V14.2148C22.8242 13.98 22.6503 13.7812 22.4173 13.7503L21.215 13.59C21.0767 13.0669 20.8681 12.5658 20.5925 12.0938L21.3312 11.1281C21.4737 10.9416 21.4564 10.6781 21.2905 10.5122L19.9644 9.18609C19.7984 9.01969 19.5345 9.00234 19.3484 9.14531L18.3828 9.88406C17.9108 9.60891 17.4097 9.40031 16.8866 9.26156L16.7263 8.05922C16.6953 7.82625 16.4966 7.65234 16.2617 7.65234H14.3867C14.1519 7.65234 13.9531 7.82625 13.9222 8.05922L13.7619 9.26156C13.2387 9.39984 12.7377 9.60844 12.2656 9.88406L11.3 9.14531C11.1134 9.00281 10.85 9.02016 10.6841 9.18609L9.35797 10.5122C9.19203 10.6781 9.17422 10.942 9.31719 11.1281L10.0559 12.0938C9.78078 12.5658 9.57219 13.0669 9.43344 13.59L8.23109 13.7503C7.99813 13.7812 7.82422 13.98 7.82422 14.2148V14.6836H7.35547V5.77734C7.35547 5.51859 7.14547 5.30859 6.88672 5.30859H5.48047V3.90234C5.48047 3.64359 5.27047 3.43359 5.01172 3.43359H1.26172C1.00297 3.43359 0.792969 3.64359 0.792969 3.90234V7.65234C0.792969 7.91109 1.00297 8.12109 1.26172 8.12109H5.01172C5.27047 8.12109 5.48047 7.91109 5.48047 7.65234V6.24609H6.41797V14.6836H5.48047V13.2773C5.48047 13.0186 5.27047 12.8086 5.01172 12.8086H1.26172C1.00297 12.8086 0.792969 13.0186 0.792969 13.2773V17.0273C0.792969 17.2861 1.00297 17.4961 1.26172 17.4961H5.01172C5.27047 17.4961 5.48047 17.2861 5.48047 17.0273V15.6211H6.41797V24.0586H5.48047V22.6523C5.48047 22.3936 5.27047 22.1836 5.01172 22.1836H1.26172C1.00297 22.1836 0.792969 22.3936 0.792969 22.6523V26.4023C0.792969 26.6611 1.00297 26.8711 1.26172 26.8711H5.01172C5.27047 26.8711 5.48047 26.6611 5.48047 26.4023V24.9961H6.88672C7.14547 24.9961 7.35547 24.7861 7.35547 24.5273V15.6211H7.82422V16.0898C7.82422 16.3247 7.99813 16.5234 8.23109 16.5544L9.43344 16.7147C9.57172 17.2378 9.78031 17.7389 10.0559 18.2109L9.31719 19.1766C9.17469 19.3631 9.19203 19.6266 9.35797 19.7925L10.6841 21.1186C10.85 21.2845 11.113 21.3019 11.3 21.1594L12.2656 20.4206C12.7377 20.6958 13.2387 20.9044 13.7619 21.0431L13.9222 22.2455C13.9531 22.4784 14.1519 22.6523 14.3867 22.6523H16.2617C16.4966 22.6523 16.6953 22.4784 16.7263 22.2455L16.8866 21.0431C17.4097 20.9048 17.9108 20.6962 18.3828 20.4206L19.3484 21.1594C19.535 21.3023 19.7989 21.285 19.9644 21.1186L21.2905 19.7925C21.4564 19.6266 21.4742 19.3627 21.3312 19.1766L20.5925 18.2109C20.8677 17.7389 21.0763 17.2378 21.215 16.7147L22.4173 16.5544C22.6503 16.5234 22.8242 16.3247 22.8242 16.0898V15.6211H23.293V24.5273C23.293 24.7861 23.503 24.9961 23.7617 24.9961H25.168V26.4023C25.168 26.6611 25.378 26.8711 25.6367 26.8711H29.3867C29.6455 26.8711 29.8555 26.6611 29.8555 26.4023V22.6523C29.8555 22.3936 29.6455 22.1836 29.3867 22.1836H25.6367C25.378 22.1836 25.168 22.3936 25.168 22.6523V24.0586H24.2305V15.6211H25.168V17.0273C25.168 17.2861 25.378 17.4961 25.6367 17.4961H29.3867C29.6455 17.4961 29.8555 17.2861 29.8555 17.0273V13.2773C29.8555 13.0186 29.6455 12.8086 29.3867 12.8086H25.6367C25.378 12.8086 25.168 13.0186 25.168 13.2773V14.6836H24.2305V6.24609H25.168V7.65234C25.168 7.91109 25.378 8.12109 25.6367 8.12109ZM26.1055 4.37109H28.918V7.18359H26.1055V4.37109ZM4.54297 7.18359H1.73047V4.37109H4.54297V7.18359ZM4.54297 16.5586H1.73047V13.7461H4.54297V16.5586ZM4.54297 25.9336H1.73047V23.1211H4.54297V25.9336ZM21.8867 15.6797L20.7711 15.8283C20.5737 15.8545 20.4144 16.0031 20.3741 16.1986C20.2437 16.8323 19.9939 17.4323 19.6325 17.9812C19.5228 18.1477 19.5308 18.3652 19.6517 18.5236L20.3375 19.4203L19.5922 20.1656L18.6955 19.4798C18.537 19.3589 18.3191 19.3509 18.1531 19.4606C17.6042 19.822 17.0042 20.0719 16.3705 20.2022C16.175 20.2425 16.0269 20.4019 16.0002 20.5992L15.8516 21.7148H14.7973L14.6488 20.5992C14.6225 20.4019 14.4739 20.2425 14.2784 20.2022C13.6447 20.0719 13.0447 19.822 12.4958 19.4606C12.3298 19.3514 12.1123 19.3589 11.9534 19.4798L11.0567 20.1656L10.3114 19.4203L10.9972 18.5236C11.1181 18.3652 11.1261 18.1477 11.0164 17.9812C10.655 17.4323 10.4052 16.8323 10.2748 16.1986C10.2345 16.0031 10.0752 15.855 9.87781 15.8283L8.76172 15.6797V14.6255L9.87734 14.4769C10.0747 14.4506 10.2341 14.302 10.2744 14.1066C10.4047 13.4728 10.6545 12.8728 11.0159 12.3239C11.1256 12.1575 11.1177 11.94 10.9967 11.7816L10.3109 10.8848L11.0563 10.1395L11.953 10.8253C12.1109 10.9462 12.3289 10.9537 12.4953 10.8445C13.0442 10.4831 13.6442 10.2333 14.278 10.103C14.4734 10.0627 14.6216 9.90328 14.6483 9.70594L14.7969 8.58984H15.8511L15.9997 9.70547C16.0259 9.90281 16.1745 10.0622 16.37 10.1025C17.0037 10.2328 17.6038 10.4827 18.1527 10.8441C18.3195 10.9538 18.537 10.9462 18.695 10.8248L19.5917 10.1391L20.337 10.8844L19.6512 11.7811C19.5303 11.9395 19.5223 12.157 19.632 12.3234C19.9934 12.8723 20.2433 13.4723 20.3736 14.1061C20.4139 14.3016 20.5733 14.4497 20.7706 14.4764L21.8867 14.625V15.6797ZM26.1055 23.1211H28.918V25.9336H26.1055V23.1211ZM26.1055 13.7461H28.918V16.5586H26.1055V13.7461Z" fill="#123455"/>
</g>
<defs>
<clipPath id="clip0_1170_3897">
<rect width="30" height="30" fill="white" transform="translate(0.324219 0.152344)"/>
</clipPath>
</defs>
</svg>
