<svg xmlns="http://www.w3.org/2000/svg" width="30" height="30" fill="none" xmlns:v="https://vecta.io/nano"><g clip-path="url(#A)"><path d="M25.469 11.261a2.03 2.03 0 0 0 1.983 1.614 2.03 2.03 0 0 0 2.025-2.025 2.03 2.03 0 0 0-2.025-2.025 2.03 2.03 0 0 0-1.983 1.615l-2.886.002c-.27-.866-.964-1.546-1.837-1.799-.225-1.113-1.112-1.957-2.225-2.132V3.053l6.969-.003a2.03 2.03 0 0 0 1.963 1.526 2.03 2.03 0 0 0 2.025-2.025A2.03 2.03 0 0 0 27.452.527a2.03 2.03 0 0 0-1.999 1.703l-7.343.003a.41.41 0 0 0-.41.41v3.864c-1.295.195-2.325 1.344-2.325 2.684v1.57h-.742v-1.57c0-1.332-1.019-2.476-2.303-2.681V2.555a.41.41 0 0 0-.41-.41l-7.381-.003A2.03 2.03 0 0 0 2.556.527 2.03 2.03 0 0 0 .531 2.552a2.03 2.03 0 0 0 2.025 2.025 2.03 2.03 0 0 0 1.983-1.614l6.971.003v3.544c-1.124.168-2.021 1.015-2.247 2.136-.873.253-1.567.933-1.837 1.799l-2.886-.002a2.03 2.03 0 0 0-1.983-1.615 2.03 2.03 0 0 0-2.025 2.025 2.03 2.03 0 0 0 2.025 2.025 2.03 2.03 0 0 0 1.983-1.614l2.763.002a2.75 2.75 0 0 0 .053.522 3.03 3.03 0 0 0-1.095 2.332c0 .722.261 1.421.725 1.967a3.05 3.05 0 0 0-.476 1.639c0 .355.061.696.173 1.014l-2.143.002a2.03 2.03 0 0 0-1.983-1.614 2.03 2.03 0 0 0-2.025 2.025 2.03 2.03 0 0 0 2.025 2.025 2.03 2.03 0 0 0 1.983-1.615l2.58-.002a3.07 3.07 0 0 0 2.088 1.212v.04a2.72 2.72 0 0 0 2.303 2.682v3.544l-6.971.003a2.03 2.03 0 0 0-1.983-1.615 2.03 2.03 0 0 0-2.025 2.025 2.03 2.03 0 0 0 2.025 2.025 2.03 2.03 0 0 0 1.983-1.615l7.381-.003a.41.41 0 0 0 .41-.41v-3.954c.567-.087 1.093-.355 1.51-.775.512-.516.793-1.193.793-1.906v-1.57h.742v1.57c0 .713.282 1.39.793 1.906.417.421.942.688 1.51.775v3.954a.41.41 0 0 0 .41.41l7.381.003a2.03 2.03 0 0 0 1.983 1.615 2.03 2.03 0 0 0 2.025-2.025 2.03 2.03 0 0 0-2.025-2.025 2.03 2.03 0 0 0-1.983 1.615l-6.971-.003v-3.544a2.72 2.72 0 0 0 2.303-2.682v-.04a3.07 3.07 0 0 0 2.088-1.212l2.58.002a2.03 2.03 0 0 0 1.983 1.615 2.03 2.03 0 0 0 2.025-2.025 2.03 2.03 0 0 0-2.025-2.025 2.03 2.03 0 0 0-1.983 1.614l-2.143-.002c.111-.318.173-.659.173-1.014a3.05 3.05 0 0 0-.476-1.638c.464-.546.725-1.245.725-1.967a3.03 3.03 0 0 0-1.095-2.332 2.74 2.74 0 0 0 .053-.523l2.763-.002zm1.983-1.615c.664 0 1.204.54 1.204 1.204s-.54 1.205-1.204 1.205-1.204-.54-1.204-1.205.54-1.204 1.204-1.204zm0-8.299c.664 0 1.204.54 1.204 1.205s-.54 1.205-1.204 1.205-1.204-.54-1.204-1.205.54-1.205 1.204-1.205zM2.556 3.757c-.664 0-1.205-.54-1.205-1.204s.54-1.205 1.205-1.205 1.204.54 1.204 1.205-.54 1.204-1.204 1.204zm0 8.299c-.664 0-1.205-.54-1.205-1.204s.54-1.205 1.205-1.205 1.204.54 1.204 1.205-.54 1.204-1.204 1.204zm0 8.299c-.664 0-1.205-.54-1.205-1.204s.54-1.205 1.205-1.205 1.204.54 1.204 1.205-.54 1.204-1.204 1.204zm0 8.299c-.664 0-1.205-.54-1.205-1.204s.54-1.204 1.205-1.204 1.204.54 1.204 1.204-.54 1.204-1.204 1.204zm24.896-2.409c.664 0 1.204.54 1.204 1.204s-.54 1.204-1.204 1.204-1.204-.54-1.204-1.204.54-1.204 1.204-1.204zm0-8.299c.664 0 1.204.54 1.204 1.204s-.54 1.204-1.204 1.204-1.204-.54-1.204-1.204.54-1.204 1.204-1.204zM11.92 22.702c-1.044 0-1.893-.849-1.893-1.893l.002-.05c.648-.095 1.246-.393 1.717-.864a.41.41 0 1 0-.579-.581c-.425.424-.989.657-1.588.657a2.25 2.25 0 0 1-2.249-2.249 2.25 2.25 0 0 1 2.249-2.248.41.41 0 1 0 0-.82c-.79 0-1.511.3-2.055.792a2.19 2.19 0 0 1-.443-1.328 2.21 2.21 0 0 1 .589-1.502 2.72 2.72 0 0 0 .69.784.41.41 0 0 0 .575-.074.41.41 0 0 0-.074-.575c-.469-.362-.738-.909-.738-1.5 0-1.044.85-1.894 1.894-1.894a1.88 1.88 0 0 1 1.348.563.41.41 0 1 0 .584-.576 2.69 2.69 0 0 0-1.806-.804 1.88 1.88 0 0 1 1.779-1.242c1.008 0 1.893.885 1.893 1.893v2.559a.48.48 0 0 1-.123.076.43.43 0 0 1-.476-.094c-.258-.258-.678-.258-.936 0l-.541.541c-.125.125-.194.291-.194.468a.66.66 0 0 0 .194.468c.191.191.12.413.094.476s-.133.27-.403.27c-.365 0-.662.297-.662.662v.766c0 .365.297.662.662.662.271 0 .377.207.403.27s.097.285-.094.476a.66.66 0 0 0-.194.468c0 .177.069.343.194.468l.542.541c.258.258.678.258.936 0a.43.43 0 0 1 .477-.095c.025.011.074.034.123.076v2.559a1.92 1.92 0 0 1-1.893 1.893zm2.851-4.283c-.054-.449-.338-.825-.767-1.003s-.896-.112-1.251.167l-.331-.331c.279-.356.344-.822.166-1.251s-.554-.713-1.002-.767v-.467c.449-.054.825-.338 1.002-.767s.113-.896-.167-1.251l.331-.331c.356.279.822.344 1.251.166s.713-.554.767-1.002h.467c.054.449.338.825.767 1.002s.896.113 1.251-.166l.331.331c-.279.356-.344.822-.166 1.251s.554.713 1.002.767v.467c-.449.054-.825.338-1.002.767s-.113.895.166 1.251l-.331.331c-.356-.279-.822-.344-1.251-.166s-.713.553-.767 1.002h-.467zm8.157-4.301c0 .488-.155.948-.443 1.328-.544-.492-1.265-.792-2.055-.792a.41.41 0 1 0 0 .82 2.25 2.25 0 0 1 2.249 2.249 2.25 2.25 0 0 1-2.248 2.249c-.6 0-1.164-.233-1.588-.657a.41.41 0 1 0-.579.581c.472.471 1.07.769 1.717.864l.002.05c0 1.044-.849 1.893-1.893 1.893a1.92 1.92 0 0 1-1.893-1.893V18.25c.049-.042.098-.066.123-.076.063-.026.285-.097.476.094.258.258.678.258.936 0l.541-.542c.258-.258.258-.678 0-.936-.191-.191-.12-.413-.094-.476s.133-.27.403-.27c.365 0 .662-.297.662-.662v-.766c0-.365-.297-.662-.662-.662-.27 0-.377-.207-.403-.27s-.097-.285.094-.476c.258-.258.258-.678 0-.936l-.541-.541c-.258-.258-.678-.258-.936 0-.191.191-.413.12-.476.094a.48.48 0 0 1-.123-.077V9.191c0-1.008.884-1.893 1.893-1.893a1.88 1.88 0 0 1 1.779 1.242 2.69 2.69 0 0 0-1.806.804.41.41 0 1 0 .584.576 1.88 1.88 0 0 1 1.348-.563c1.044 0 1.894.85 1.894 1.894 0 .591-.269 1.138-.738 1.5a.41.41 0 0 0 .251.735.41.41 0 0 0 .25-.086 2.72 2.72 0 0 0 .69-.784 2.21 2.21 0 0 1 .588 1.502zM17.285 15c0-1.258-1.023-2.281-2.281-2.281S12.723 13.742 12.723 15s1.023 2.281 2.281 2.281 2.281-1.023 2.281-2.281zm-3.472-.844v1.688c-.169-.239-.27-.53-.27-.844a1.45 1.45 0 0 1 .27-.844zm.82 2.257v-2.826a1.46 1.46 0 0 1 .371-.048c.128 0 .252.017.371.048v2.826c-.119.031-.243.048-.371.048s-.252-.017-.371-.048zm1.562-.569v-1.688c.169.239.27.53.27.844s-.1.605-.27.844z" fill="#123455"/></g><defs><clipPath id="A"><path fill="#fff" d="M0 0h30v30H0z"/></clipPath></defs></svg>