<svg width="31" height="31" viewBox="0 0 31 31" fill="none" xmlns="http://www.w3.org/2000/svg">
<g clip-path="url(#clip0_1170_3908)">
<path d="M10.3477 9.52734H15.9727V10.4648H10.3477V9.52734Z" fill="#123455"/>
<path d="M16.9102 9.52734H17.8477V10.4648H16.9102V9.52734Z" fill="#123455"/>
<path d="M18.7852 9.52734H19.7227V10.4648H18.7852V9.52734Z" fill="#123455"/>
<path d="M10.3477 13.2773H15.9727V14.2148H10.3477V13.2773Z" fill="#123455"/>
<path d="M16.9102 13.2773H17.8477V14.2148H16.9102V13.2773Z" fill="#123455"/>
<path d="M18.7852 13.2773H19.7227V14.2148H18.7852V13.2773Z" fill="#123455"/>
<path d="M10.3477 17.0273H15.9727V17.9648H10.3477V17.0273Z" fill="#123455"/>
<path d="M16.9102 17.0273H17.8477V17.9648H16.9102V17.0273Z" fill="#123455"/>
<path d="M18.7852 17.0273H19.7227V17.9648H18.7852V17.0273Z" fill="#123455"/>
<path d="M27.2227 20.3085C26.8071 20.309 26.4034 20.4473 26.0749 20.7018C25.7463 20.9563 25.5115 21.3125 25.407 21.7147H20.1914V19.8397C20.5642 19.8393 20.9217 19.691 21.1853 19.4274C21.4489 19.1637 21.5972 18.8063 21.5977 18.4335V17.0272H24.4102C25.0578 17.0267 25.6982 16.8921 26.2912 16.6318C26.8842 16.3714 27.4167 15.991 27.8554 15.5146C28.294 15.0381 28.6291 14.476 28.8396 13.8636C29.0502 13.2511 29.1315 12.6017 29.0785 11.9563C29.0256 11.3109 28.8394 10.6834 28.5319 10.1135C28.2243 9.54362 27.802 9.04363 27.2916 8.64508C26.7812 8.24653 26.1937 7.95806 25.5662 7.79788C24.9387 7.63769 24.2849 7.60927 23.6459 7.71439C23.1873 5.98457 22.2184 4.43296 20.8653 3.26173C19.5123 2.09049 17.8378 1.35394 16.0601 1.14804C14.2825 0.94213 12.484 1.27642 10.899 2.10735C9.31405 2.93827 8.0161 4.22731 7.17428 5.80652C6.98269 5.78701 6.79023 5.77724 6.59766 5.77722C5.10581 5.77722 3.67507 6.36985 2.62018 7.42474C1.56529 8.47963 0.972656 9.91038 0.972656 11.4022C0.972656 12.8941 1.56529 14.3248 2.62018 15.3797C3.67507 16.4346 5.10581 17.0272 6.59766 17.0272H8.47266V18.4335C8.47309 18.8063 8.62139 19.1637 8.88502 19.4274C9.14865 19.691 9.50608 19.8393 9.87891 19.8397V21.7147H4.6633C4.54921 21.2728 4.27788 20.8878 3.90017 20.6316C3.52246 20.3755 3.06431 20.2659 2.61158 20.3234C2.15886 20.3809 1.74264 20.6016 1.44096 20.944C1.13928 21.2864 0.97284 21.7271 0.97284 22.1835C0.97284 22.6398 1.13928 23.0805 1.44096 23.423C1.74264 23.7654 2.15886 23.986 2.61158 24.0435C3.06431 24.101 3.52246 23.9914 3.90017 23.7353C4.27788 23.4792 4.54921 23.0941 4.6633 22.6522H10.3477C10.472 22.6522 10.5912 22.6028 10.6791 22.5149C10.767 22.427 10.8164 22.3078 10.8164 22.1835V19.8397H11.7539V23.5897H8.00391C7.87959 23.5897 7.76036 23.6391 7.67245 23.727C7.58454 23.8149 7.53516 23.9341 7.53516 24.0585V25.5241C7.09329 25.6382 6.70819 25.9095 6.45206 26.2872C6.19593 26.6649 6.08635 27.1231 6.14385 27.5758C6.20135 28.0285 6.422 28.4447 6.76442 28.7464C7.10685 29.0481 7.54754 29.2145 8.00391 29.2145C8.46027 29.2145 8.90097 29.0481 9.24339 28.7464C9.58581 28.4447 9.80646 28.0285 9.86396 27.5758C9.92147 27.1231 9.81188 26.6649 9.55575 26.2872C9.29962 25.9095 8.91453 25.6382 8.47266 25.5241V24.5272H12.2227C12.347 24.5272 12.4662 24.4778 12.5541 24.3899C12.642 24.302 12.6914 24.1828 12.6914 24.0585V19.8397H14.5664V24.5866C14.1245 24.7007 13.7394 24.972 13.4833 25.3497C13.2272 25.7274 13.1176 26.1856 13.1751 26.6383C13.2326 27.091 13.4532 27.5072 13.7957 27.8089C14.1381 28.1106 14.5788 28.277 15.0352 28.277C15.4915 28.277 15.9322 28.1106 16.2746 27.8089C16.6171 27.5072 16.8377 27.091 16.8952 26.6383C16.9527 26.1856 16.8431 25.7274 16.587 25.3497C16.3309 24.972 15.9458 24.7007 15.5039 24.5866V19.8397H17.3789V24.0585C17.3789 24.1828 17.4283 24.302 17.5162 24.3899C17.6041 24.4778 17.7233 24.5272 17.8477 24.5272H21.5977V25.5241C21.1558 25.6382 20.7707 25.9095 20.5146 26.2872C20.2584 26.6649 20.1488 27.1231 20.2064 27.5758C20.2639 28.0285 20.4845 28.4447 20.8269 28.7464C21.1693 29.0481 21.61 29.2145 22.0664 29.2145C22.5228 29.2145 22.9635 29.0481 23.3059 28.7464C23.6483 28.4447 23.869 28.0285 23.9265 27.5758C23.984 27.1231 23.8744 26.6649 23.6182 26.2872C23.3621 25.9095 22.977 25.6382 22.5352 25.5241V24.0585C22.5352 23.9341 22.4858 23.8149 22.3979 23.727C22.31 23.6391 22.1907 23.5897 22.0664 23.5897H18.3164V19.8397H19.2539V22.1835C19.2539 22.3078 19.3033 22.427 19.3912 22.5149C19.4791 22.6028 19.5983 22.6522 19.7227 22.6522H25.407C25.4947 22.9918 25.6758 23.2999 25.9298 23.5417C26.1839 23.7834 26.5006 23.9491 26.8441 24.0199C27.1875 24.0907 27.544 24.0637 27.8729 23.9421C28.2018 23.8204 28.49 23.609 28.7047 23.3317C28.9195 23.0545 29.0522 22.7226 29.0878 22.3737C29.1234 22.0249 29.0604 21.673 28.9061 21.3581C28.7517 21.0433 28.5121 20.778 28.2146 20.5924C27.917 20.4069 27.5733 20.3085 27.2227 20.3085ZM2.84766 23.121C2.66224 23.121 2.48098 23.066 2.32681 22.963C2.17264 22.86 2.05248 22.7135 1.98152 22.5422C1.91056 22.3709 1.892 22.1824 1.92817 22.0006C1.96434 21.8187 2.05363 21.6517 2.18474 21.5206C2.31586 21.3894 2.4829 21.3002 2.66476 21.264C2.84662 21.2278 3.03512 21.2464 3.20642 21.3173C3.37773 21.3883 3.52415 21.5084 3.62716 21.6626C3.73017 21.8168 3.78516 21.998 3.78516 22.1835C3.78486 22.432 3.68599 22.6703 3.51024 22.8461C3.33449 23.0218 3.09621 23.1207 2.84766 23.121ZM8.94141 27.3397C8.94141 27.5251 8.88642 27.7064 8.78341 27.8606C8.6804 28.0147 8.53398 28.1349 8.36267 28.2059C8.19137 28.2768 8.00287 28.2954 7.82101 28.2592C7.63915 28.223 7.47211 28.1337 7.34099 28.0026C7.20988 27.8715 7.12059 27.7045 7.08442 27.5226C7.04825 27.3408 7.06681 27.1523 7.13777 26.981C7.20873 26.8096 7.32889 26.6632 7.48306 26.5602C7.63723 26.4572 7.81849 26.4022 8.00391 26.4022C8.25246 26.4025 8.49074 26.5014 8.66649 26.6771C8.84224 26.8529 8.94111 27.0912 8.94141 27.3397ZM15.9727 26.4022C15.9727 26.5876 15.9177 26.7689 15.8147 26.9231C15.7116 27.0772 15.5652 27.1974 15.3939 27.2684C15.2226 27.3393 15.0341 27.3579 14.8523 27.3217C14.6704 27.2855 14.5034 27.1962 14.3722 27.0651C14.2411 26.934 14.1518 26.767 14.1157 26.5851C14.0795 26.4033 14.0981 26.2148 14.169 26.0435C14.24 25.8721 14.3601 25.7257 14.5143 25.6227C14.6685 25.5197 14.8497 25.4647 15.0352 25.4647C15.2837 25.465 15.522 25.5639 15.6977 25.7396C15.8735 25.9154 15.9724 26.1537 15.9727 26.4022ZM23.0039 27.3397C23.0039 27.5251 22.9489 27.7064 22.8459 27.8606C22.7429 28.0147 22.5965 28.1349 22.4252 28.2059C22.2539 28.2768 22.0654 28.2954 21.8835 28.2592C21.7017 28.223 21.5346 28.1337 21.4035 28.0026C21.2724 27.8715 21.1831 27.7045 21.1469 27.5226C21.1107 27.3408 21.1293 27.1523 21.2003 26.981C21.2712 26.8096 21.3914 26.6632 21.5456 26.5602C21.6997 26.4572 21.881 26.4022 22.0664 26.4022C22.315 26.4025 22.5532 26.5014 22.729 26.6771C22.9047 26.8529 23.0036 27.0912 23.0039 27.3397ZM9.41016 10.9335V9.05847C9.4103 8.93419 9.45973 8.81504 9.5476 8.72717C9.63548 8.63929 9.75463 8.58986 9.87891 8.58972H20.1914C20.3157 8.58986 20.4348 8.63929 20.5227 8.72717C20.6106 8.81504 20.66 8.93419 20.6602 9.05847V10.9335C20.66 11.0577 20.6106 11.1769 20.5227 11.2648C20.4348 11.3526 20.3157 11.4021 20.1914 11.4022H9.87891C9.75463 11.4021 9.63548 11.3526 9.5476 11.2648C9.45973 11.1769 9.4103 11.0577 9.41016 10.9335ZM9.41016 14.6835V12.8085C9.4103 12.6842 9.45973 12.565 9.5476 12.4772C9.63548 12.3893 9.75463 12.3399 9.87891 12.3397H20.1914C20.3157 12.3399 20.4348 12.3893 20.5227 12.4772C20.6106 12.565 20.66 12.6842 20.6602 12.8085V14.6835C20.66 14.8077 20.6106 14.9269 20.5227 15.0148C20.4348 15.1026 20.3157 15.1521 20.1914 15.1522H9.87891C9.75463 15.1521 9.63548 15.1026 9.5476 15.0148C9.45973 14.9269 9.4103 14.8077 9.41016 14.6835ZM1.91016 11.4022C1.91157 10.1594 2.40588 8.96798 3.28465 8.08921C4.16342 7.21044 5.35489 6.71613 6.59766 6.71472C6.85478 6.71466 7.11149 6.73551 7.36523 6.77706C7.46495 6.79358 7.56734 6.7774 7.65711 6.73093C7.74687 6.68446 7.8192 6.61021 7.86328 6.51925C8.58914 5.02283 9.76491 3.79095 11.2259 2.99616C12.6869 2.20137 14.3599 1.8835 16.0105 2.08705C17.6612 2.29061 19.2068 3.00541 20.431 4.13132C21.6551 5.25723 22.4963 6.73785 22.8369 8.36577C22.85 8.42852 22.8757 8.48793 22.9126 8.54033C22.9495 8.59273 22.9968 8.637 23.0515 8.67042C23.1062 8.70383 23.1671 8.72568 23.2306 8.73461C23.294 8.74353 23.3587 8.73935 23.4205 8.72232C23.9361 8.58143 24.4758 8.55241 25.0036 8.63718C25.5313 8.72196 26.0349 8.91858 26.4804 9.21386C26.926 9.50914 27.3033 9.89626 27.587 10.3493C27.8707 10.8023 28.0543 11.3107 28.1254 11.8404C28.1966 12.3702 28.1537 12.9091 27.9996 13.4209C27.8455 13.9327 27.5838 14.4057 27.2319 14.808C26.8801 15.2104 26.4463 15.533 25.9596 15.754C25.473 15.9751 24.9447 16.0895 24.4102 16.0897H21.517C21.4556 15.9168 21.361 15.7576 21.2384 15.621C21.4699 15.3636 21.5979 15.0296 21.5977 14.6835V12.8085C21.5979 12.4623 21.4699 12.1283 21.2384 11.871C21.4699 11.6136 21.5979 11.2796 21.5977 10.9335V9.05847C21.5972 8.68564 21.4489 8.32821 21.1853 8.06458C20.9217 7.80095 20.5642 7.65265 20.1914 7.65222H9.87891C9.50608 7.65265 9.14865 7.80095 8.88502 8.06458C8.62139 8.32821 8.47309 8.68564 8.47266 9.05847V10.9335C8.47242 11.2796 8.60039 11.6136 8.83189 11.871C8.60039 12.1283 8.47242 12.4623 8.47266 12.8085V14.6835C8.47242 15.0296 8.60039 15.3636 8.83189 15.621C8.70935 15.7576 8.6147 15.9168 8.55328 16.0897H6.59766C5.35489 16.0883 4.16342 15.594 3.28465 14.7152C2.40588 13.8365 1.91157 12.645 1.91016 11.4022ZM9.41016 18.4335V16.5585C9.4103 16.4342 9.45973 16.315 9.5476 16.2272C9.63548 16.1393 9.75463 16.0899 9.87891 16.0897H20.1914C20.3157 16.0899 20.4348 16.1393 20.5227 16.2272C20.6106 16.315 20.66 16.4342 20.6602 16.5585V18.4335C20.66 18.5577 20.6106 18.6769 20.5227 18.7648C20.4348 18.8526 20.3157 18.9021 20.1914 18.9022H9.87891C9.75463 18.9021 9.63548 18.8526 9.5476 18.7648C9.45973 18.6769 9.4103 18.5577 9.41016 18.4335ZM27.2227 23.121C27.0372 23.121 26.856 23.066 26.7018 22.963C26.5476 22.86 26.4275 22.7135 26.3565 22.5422C26.2856 22.3709 26.267 22.1824 26.3032 22.0006C26.3393 21.8187 26.4286 21.6517 26.5597 21.5206C26.6909 21.3894 26.8579 21.3002 27.0398 21.264C27.2216 21.2278 27.4101 21.2464 27.5814 21.3173C27.7527 21.3883 27.8991 21.5084 28.0022 21.6626C28.1052 21.8168 28.1602 21.998 28.1602 22.1835C28.1599 22.432 28.061 22.6703 27.8852 22.8461C27.7095 23.0218 27.4712 23.1207 27.2227 23.121Z" fill="#123455"/>
</g>
<defs>
<clipPath id="clip0_1170_3908">
<rect width="30" height="30" fill="white" transform="translate(0.0351562 0.152344)"/>
</clipPath>
</defs>
</svg>
