<svg width="30" height="31" viewBox="0 0 30 31" fill="none" xmlns="http://www.w3.org/2000/svg">
<path d="M16.6798 6.91351C16.1473 7.03407 15.6617 7.4192 15.434 7.90144C15.3469 8.08228 15.1159 8.90276 14.5867 10.882C14.1882 12.3823 13.7997 13.829 13.7294 14.0969C13.6591 14.3648 13.5486 14.7767 13.4849 15.0179C13.4213 15.2556 13.3376 15.5738 13.2974 15.7211C13.2572 15.8685 13.1668 16.2067 13.0965 16.4746C12.929 17.1042 12.6477 18.1625 12.3765 19.1705C12.2559 19.6126 12.0784 20.2857 11.9746 20.6675C11.8741 21.0526 11.7067 21.6755 11.6029 22.0573C11.4254 22.727 11.2881 23.2361 11.0302 24.2106C10.9666 24.4584 10.9096 24.6862 10.9063 24.713C10.9029 24.7565 11.1072 24.7632 12.5439 24.7632C14.3289 24.7632 14.3691 24.7598 14.7609 24.5723C15.0321 24.4417 15.4441 24.0499 15.5814 23.792C15.6684 23.6279 15.7957 23.216 16.0067 22.4189C16.1205 21.9936 16.5592 20.3627 16.9511 18.9026C17.0817 18.4237 17.3194 17.5329 17.4835 16.9267C17.6476 16.3172 17.8419 15.5939 17.9156 15.3193C17.9892 15.0413 18.1567 14.4251 18.2873 13.9462C18.4145 13.4673 18.6322 12.6602 18.7662 12.1546L19.014 11.2336H20.4674C22.105 11.2336 22.105 11.2336 22.6074 11.4781C22.8719 11.6053 22.9757 11.6824 23.2135 11.9201C23.4446 12.1479 23.5283 12.2617 23.6422 12.4894C23.8933 13.0052 23.9905 13.5109 23.9168 13.9295C23.7594 14.8069 23.2972 15.4365 22.5471 15.7915C22.1519 15.979 21.9677 16.0058 20.9798 16.0058C20.4976 16.0058 20.0187 16.0225 19.9081 16.0426C19.3489 16.1464 18.8465 16.5215 18.5887 17.0306C18.515 17.1712 18.3509 17.7305 18.0696 18.7753C17.8452 19.6193 17.6677 20.3192 17.6744 20.3326C17.6979 20.3728 22.1285 20.3661 22.4299 20.3259C23.237 20.2187 23.8933 20.0211 24.6 19.6728C25.2932 19.3346 25.819 18.9528 26.3648 18.3969C27.182 17.5597 27.6944 16.6588 28.0326 15.4633C28.344 14.3648 28.4278 13.5644 28.3206 12.7373C28.1163 11.1901 27.4633 9.84716 26.4184 8.81569C25.8424 8.24638 25.3635 7.90144 24.6703 7.54981C24.2651 7.34552 23.5786 7.09436 23.237 7.02738C22.4801 6.88003 22.6208 6.88672 19.6938 6.87668C17.3563 6.86663 16.8606 6.87333 16.6798 6.91351Z" stroke="#123455"/>
<path d="M7.65421 11.3172C6.68638 11.4043 5.55445 11.7994 4.70718 12.3453C3.48483 13.1356 2.51699 14.3747 2.06489 15.7377C1.75009 16.6855 1.62953 17.3653 1.63288 18.2327C1.63288 19.2842 1.84386 20.1951 2.30266 21.1127C2.84184 22.1978 3.67571 23.1154 4.73397 23.7852C5.02867 23.9727 5.61138 24.2574 5.94627 24.3779C6.80359 24.6827 7.49681 24.7798 8.84977 24.7798C9.63677 24.7798 9.71379 24.7731 9.74058 24.7195C9.75733 24.6894 9.87119 24.2942 9.9951 23.8421C10.1157 23.39 10.3132 22.6566 10.4338 22.2145C10.7185 21.163 10.7185 21.0123 10.4338 20.7008C10.2094 20.4496 10.0922 20.4262 9.01722 20.4262C7.97571 20.4262 7.77477 20.3994 7.3863 20.2119C6.70982 19.8904 6.27446 19.3412 6.07688 18.5508C6.03334 18.3867 6.02664 18.236 6.03669 17.9313C6.05344 17.5796 6.06683 17.4959 6.16395 17.2447C6.22423 17.0907 6.318 16.8864 6.37493 16.7926C6.66963 16.2903 7.19206 15.8884 7.77812 15.7143C7.92213 15.6708 8.24697 15.6574 9.56309 15.6373C11.0534 15.6172 11.184 15.6105 11.3581 15.5502C11.8504 15.3727 12.2489 15.0043 12.4699 14.5221C12.5034 14.4484 12.6106 14.0767 12.7111 13.6916C12.8115 13.3064 12.9254 12.8811 12.9589 12.7505C13.1096 12.1912 13.3306 11.3239 13.3306 11.3038C13.3306 11.277 7.9891 11.287 7.65421 11.3172Z" stroke="#123455"/>
</svg>
