<svg xmlns="http://www.w3.org/2000/svg" width="31" height="31" fill="none" xmlns:v="https://vecta.io/nano"><g clip-path="url(#A)" fill="#123455"><path d="M15.324 8.635C11.286 8.635 8 11.92 8 15.959s3.286 7.324 7.324 7.324 7.324-3.286 7.324-7.324-3.286-7.324-7.324-7.324zm-3.506 12.377a4.05 4.05 0 0 1 3.506-2.045c1.449 0 2.797.795 3.506 2.045a6.12 6.12 0 0 1-7.012 0zm3.506-3.477a1.58 1.58 0 0 1-1.577-1.577 1.58 1.58 0 0 1 1.577-1.577 1.58 1.58 0 0 1 1.577 1.577 1.58 1.58 0 0 1-1.577 1.577zm4.411 2.708a5.24 5.24 0 0 0-2.683-2.149c.622-.504 1.02-1.274 1.02-2.136 0-1.515-1.233-2.748-2.749-2.748s-2.749 1.233-2.749 2.749c0 .861.398 1.631 1.02 2.136a5.24 5.24 0 0 0-2.683 2.149A6.13 6.13 0 0 1 9.17 15.96a6.16 6.16 0 0 1 6.152-6.152 6.16 6.16 0 0 1 6.152 6.152 6.13 6.13 0 0 1-1.741 4.284zm7.973-2.254c.114.114.264.172.414.172a.58.58 0 0 0 .414-.172l1.616-1.616c.11-.11.172-.259.172-.414s-.062-.304-.172-.414l-1.616-1.616c-.229-.229-.6-.229-.829 0s-.229.6 0 .829l.616.615h-3.055a9.92 9.92 0 0 0-2.501-6.028l3.408-3.408a2.69 2.69 0 0 0 1.449.423c1.489 0 2.7-1.211 2.7-2.7s-1.211-2.7-2.7-2.7-2.7 1.211-2.7 2.7a2.68 2.68 0 0 0 .423 1.449l-3.408 3.408a9.92 9.92 0 0 0-6.028-2.502V2.96l.616.616c.229.229.6.229.829 0s.229-.6 0-.829L15.74 1.131c-.11-.11-.259-.172-.414-.172s-.304.062-.414.172l-1.616 1.616c-.229.229-.229.6 0 .829.114.114.264.172.414.172a.58.58 0 0 0 .414-.172l.616-.616v3.056a9.92 9.92 0 0 0-6.028 2.502l-3.41-3.409a2.69 2.69 0 0 0 .423-1.449c0-1.489-1.211-2.7-2.7-2.7s-2.7 1.211-2.7 2.7 1.211 2.7 2.7 2.7a2.68 2.68 0 0 0 1.449-.423l3.408 3.408a9.92 9.92 0 0 0-2.502 6.028H2.325l.616-.615c.229-.229.229-.6 0-.829s-.6-.229-.829 0L.496 15.545c-.11.11-.172.259-.172.414s.062.304.172.414l1.616 1.616c.114.114.264.172.414.172a.58.58 0 0 0 .414-.172c.229-.229.229-.6 0-.829l-.616-.616H5.38a9.92 9.92 0 0 0 2.501 6.028L4.473 25.98a2.69 2.69 0 0 0-1.449-.423c-1.489 0-2.7 1.211-2.7 2.7s1.211 2.7 2.7 2.7 2.7-1.211 2.7-2.7a2.68 2.68 0 0 0-.423-1.449L8.709 23.4a9.92 9.92 0 0 0 6.028 2.502v3.056l-.616-.616c-.229-.229-.6-.229-.829 0s-.229.6 0 .829l1.616 1.616c.114.114.264.172.414.172a.58.58 0 0 0 .414-.172l1.616-1.616c.229-.229.229-.6 0-.829s-.6-.229-.829 0l-.616.616v-3.056a9.92 9.92 0 0 0 6.028-2.501l3.408 3.408a2.69 2.69 0 0 0-.423 1.449c0 1.489 1.211 2.7 2.7 2.7s2.7-1.211 2.7-2.7-1.211-2.7-2.7-2.7a2.68 2.68 0 0 0-1.449.423l-3.408-3.408a9.92 9.92 0 0 0 2.502-6.028h3.056l-.616.616c-.229.229-.229.6 0 .829zm-.084-15.858a1.53 1.53 0 0 1 1.529 1.528 1.53 1.53 0 0 1-1.529 1.529 1.53 1.53 0 0 1-1.529-1.529 1.53 1.53 0 0 1 1.529-1.528zM1.496 3.659A1.53 1.53 0 0 1 3.025 2.13a1.53 1.53 0 0 1 1.529 1.529 1.53 1.53 0 0 1-1.529 1.529 1.53 1.53 0 0 1-1.529-1.529zm1.529 26.128a1.53 1.53 0 0 1-1.529-1.528 1.53 1.53 0 0 1 1.529-1.529 1.53 1.53 0 0 1 1.528 1.529 1.53 1.53 0 0 1-1.528 1.528zm26.128-1.528a1.53 1.53 0 0 1-1.529 1.528 1.53 1.53 0 0 1-1.528-1.528 1.53 1.53 0 0 1 1.528-1.529 1.53 1.53 0 0 1 1.529 1.529zm-13.828-3.511a8.8 8.8 0 0 1-8.789-8.789 8.8 8.8 0 0 1 8.789-8.789 8.8 8.8 0 0 1 8.789 8.789 8.8 8.8 0 0 1-8.789 8.789z"/></g><defs><clipPath id="A"><path fill="#fff" transform="translate(.324 .959)" d="M0 0h30v30H0z"/></clipPath></defs></svg>