<svg width="30" height="30" viewBox="0 0 30 30" fill="none" xmlns="http://www.w3.org/2000/svg">
<path d="M1.875 6.09473H3.28125V17.8135C3.28125 17.9378 3.33064 18.057 3.41854 18.1449C3.50645 18.2328 3.62568 18.2822 3.75 18.2822C3.87432 18.2822 3.99355 18.2328 4.08146 18.1449C4.16936 18.057 4.21875 17.9378 4.21875 17.8135V15.4697H12.1875C12.3118 15.4697 12.431 15.4203 12.519 15.3324C12.6069 15.2445 12.6562 15.1253 12.6562 15.001C12.6562 14.8767 12.6069 14.7574 12.519 14.6695C12.431 14.5816 12.3118 14.5322 12.1875 14.5322H4.21875V6.09473H5.625C5.68657 6.09476 5.74754 6.08266 5.80443 6.05912C5.86131 6.03557 5.913 6.00105 5.95654 5.95751C6.00007 5.91398 6.0346 5.86229 6.05814 5.8054C6.08169 5.74851 6.09379 5.68754 6.09375 5.62598V4.21973H14.5312V9.37598C14.5312 9.5003 14.5806 9.61953 14.6685 9.70743C14.7565 9.79534 14.8757 9.84473 15 9.84473C15.1243 9.84473 15.2435 9.79534 15.3315 9.70743C15.4194 9.61953 15.4688 9.5003 15.4688 9.37598V4.21973H19.6875C19.8118 4.21973 19.931 4.17034 20.019 4.08243C20.1069 3.99453 20.1562 3.8753 20.1562 3.75098C20.1562 3.62666 20.1069 3.50743 20.019 3.41952C19.931 3.33161 19.8118 3.28223 19.6875 3.28223H6.09375V1.87598C6.09379 1.81441 6.08169 1.75344 6.05814 1.69655C6.0346 1.63966 6.00007 1.58798 5.95654 1.54444C5.913 1.50091 5.86131 1.46638 5.80443 1.44284C5.74754 1.41929 5.68657 1.40719 5.625 1.40723H1.875C1.81343 1.40719 1.75246 1.41929 1.69557 1.44284C1.63869 1.46638 1.587 1.50091 1.54346 1.54444C1.49993 1.58798 1.4654 1.63966 1.44186 1.69655C1.41831 1.75344 1.40621 1.81441 1.40625 1.87598V5.62598C1.40621 5.68754 1.41831 5.74851 1.44186 5.8054C1.4654 5.86229 1.49993 5.91398 1.54346 5.95751C1.587 6.00105 1.63869 6.03557 1.69557 6.05912C1.75246 6.08266 1.81343 6.09476 1.875 6.09473ZM2.34375 2.34473H5.15625V5.15723H2.34375V2.34473Z" fill="#123455"/>
<path d="M28.125 23.9072H26.7188V9.37598C26.7188 9.25166 26.6694 9.13243 26.5815 9.04452C26.4935 8.95661 26.3743 8.90723 26.25 8.90723C26.1257 8.90723 26.0065 8.95661 25.9185 9.04452C25.8306 9.13243 25.7812 9.25166 25.7812 9.37598V14.5322H20.625C20.5007 14.5322 20.3815 14.5816 20.2935 14.6695C20.2056 14.7574 20.1562 14.8767 20.1562 15.001C20.1562 15.1253 20.2056 15.2445 20.2935 15.3324C20.3815 15.4203 20.5007 15.4697 20.625 15.4697H25.7812V23.9072H24.375C24.3134 23.9072 24.2525 23.9193 24.1956 23.9428C24.1387 23.9664 24.087 24.0009 24.0435 24.0444C23.9999 24.088 23.9654 24.1397 23.9419 24.1966C23.9183 24.2534 23.9062 24.3144 23.9062 24.376V25.7822H15.4688V17.8135C15.4688 17.6892 15.4194 17.5699 15.3315 17.482C15.2435 17.3941 15.1243 17.3447 15 17.3447C14.8757 17.3447 14.7565 17.3941 14.6685 17.482C14.5806 17.5699 14.5312 17.6892 14.5312 17.8135V25.7822H6.09375V24.376C6.09379 24.3144 6.08169 24.2534 6.05814 24.1966C6.0346 24.1397 6.00007 24.088 5.95654 24.0444C5.913 24.0009 5.86131 23.9664 5.80443 23.9428C5.74754 23.9193 5.68657 23.9072 5.625 23.9072H4.21875V21.5635C4.21875 21.4392 4.16936 21.3199 4.08146 21.232C3.99355 21.1441 3.87432 21.0947 3.75 21.0947C3.62568 21.0947 3.50645 21.1441 3.41854 21.232C3.33064 21.3199 3.28125 21.4392 3.28125 21.5635V23.9072H1.875C1.81343 23.9072 1.75246 23.9193 1.69557 23.9428C1.63869 23.9664 1.587 24.0009 1.54346 24.0444C1.49993 24.088 1.4654 24.1397 1.44186 24.1966C1.41831 24.2534 1.40621 24.3144 1.40625 24.376V28.126C1.40621 28.1875 1.41831 28.2485 1.44186 28.3054C1.4654 28.3623 1.49993 28.414 1.54346 28.4575C1.587 28.501 1.63869 28.5356 1.69557 28.5591C1.75246 28.5827 1.81343 28.5948 1.875 28.5947H5.625C5.68657 28.5948 5.74754 28.5827 5.80443 28.5591C5.86131 28.5356 5.913 28.501 5.95654 28.4575C6.00007 28.414 6.0346 28.3623 6.05814 28.3054C6.08169 28.2485 6.09379 28.1875 6.09375 28.126V26.7197H23.9062V28.126C23.9062 28.1875 23.9183 28.2485 23.9419 28.3054C23.9654 28.3623 23.9999 28.414 24.0435 28.4575C24.087 28.501 24.1387 28.5356 24.1956 28.5591C24.2525 28.5827 24.3134 28.5948 24.375 28.5947H28.125C28.1866 28.5948 28.2475 28.5827 28.3044 28.5591C28.3613 28.5356 28.413 28.501 28.4565 28.4575C28.5001 28.414 28.5346 28.3623 28.5581 28.3054C28.5817 28.2485 28.5938 28.1875 28.5938 28.126V24.376C28.5938 24.3144 28.5817 24.2534 28.5581 24.1966C28.5346 24.1397 28.5001 24.088 28.4565 24.0444C28.413 24.0009 28.3613 23.9664 28.3044 23.9428C28.2475 23.9193 28.1866 23.9072 28.125 23.9072ZM5.15625 27.6572H2.34375V24.8447H5.15625V27.6572ZM27.6562 27.6572H24.8438V24.8447H27.6562V27.6572Z" fill="#123455"/>
<path d="M14.5313 12.1884V15.0009C14.5312 15.0625 14.5433 15.1235 14.5669 15.1804C14.5904 15.2372 14.6249 15.2889 14.6685 15.3325C14.712 15.376 14.7637 15.4105 14.8206 15.4341C14.8775 15.4576 14.9384 15.4697 15 15.4697H17.8125C17.8741 15.4697 17.935 15.4576 17.9919 15.434C18.0487 15.4104 18.1004 15.3759 18.1439 15.3324L27.8741 5.60212C28.104 5.37429 28.2866 5.10331 28.4114 4.80473C28.5362 4.50615 28.6008 4.18586 28.6015 3.86224C28.6022 3.53862 28.539 3.21804 28.4155 2.91892C28.292 2.6198 28.1106 2.34802 27.8818 2.11918C27.6529 1.89035 27.3812 1.70896 27.082 1.58545C26.7829 1.46193 26.4623 1.39871 26.1387 1.39942C25.8151 1.40013 25.4948 1.46475 25.1962 1.58958C24.8976 1.7144 24.6267 1.89698 24.3988 2.12681L14.6686 11.857C14.625 11.9005 14.5905 11.9522 14.5669 12.009C14.5434 12.0659 14.5312 12.1269 14.5313 12.1884ZM25.0616 2.78962C25.2028 2.64847 25.3704 2.53651 25.5548 2.46012C25.7392 2.38373 25.9369 2.34441 26.1365 2.34441C26.3361 2.34441 26.5338 2.38373 26.7182 2.46012C26.9026 2.53651 27.0702 2.64847 27.2113 2.78962C27.3525 2.93078 27.4644 3.09835 27.5408 3.28277C27.6172 3.46719 27.6565 3.66485 27.6565 3.86447C27.6565 4.06409 27.6172 4.26175 27.5408 4.44617C27.4644 4.63059 27.3525 4.79816 27.2113 4.93931L26.1365 6.01411L23.9868 3.86442L25.0616 2.78962ZM15.4688 12.3825L23.324 4.52726L24.0674 5.2707L16.5436 12.7945C16.4988 12.8377 16.4631 12.8895 16.4386 12.9467C16.414 13.0038 16.4011 13.0654 16.4005 13.1276C16.4 13.1898 16.4118 13.2516 16.4354 13.3092C16.459 13.3668 16.4938 13.4191 16.5378 13.4631C16.5818 13.5071 16.6341 13.5419 16.6917 13.5655C16.7494 13.5891 16.8111 13.6009 16.8733 13.6004C16.9356 13.5999 16.9971 13.5869 17.0543 13.5624C17.1115 13.5378 17.1632 13.5021 17.2064 13.4573L24.7302 5.9335L25.4737 6.67694L17.6184 14.5322H15.4688V12.3825Z" fill="#123455"/>
<path d="M3.75 20.1572C4.00888 20.1572 4.21875 19.9474 4.21875 19.6885C4.21875 19.4296 4.00888 19.2197 3.75 19.2197C3.49112 19.2197 3.28125 19.4296 3.28125 19.6885C3.28125 19.9474 3.49112 20.1572 3.75 20.1572Z" fill="#123455"/>
</svg>
