<svg width="30" height="30" viewBox="0 0 30 30" fill="none" xmlns="http://www.w3.org/2000/svg">
<g clip-path="url(#clip0_1595_8174)">
<path d="M29.0904 27.2269H29.0565V21.0373C29.0565 20.2725 28.4344 19.6504 27.6696 19.6504H19.8568C19.0923 19.6504 18.4704 20.2725 18.4704 21.0373V23.6412C18.4704 23.8839 18.6672 24.0807 18.9099 24.0807C19.1526 24.0807 19.3493 23.8839 19.3493 23.6412V21.0373C19.3493 20.7572 19.577 20.5293 19.8568 20.5293H27.6696C27.9498 20.5293 28.1777 20.7572 28.1777 21.0373V27.2269H19.3493V25.6979C19.3493 25.4552 19.1526 25.2584 18.9099 25.2584C18.6672 25.2584 18.4704 25.4552 18.4704 25.6979V27.2269H18.4364C17.933 27.2269 17.5234 27.6364 17.5234 28.1398V29.0869C17.5234 29.5903 17.933 29.9999 18.4364 29.9999H29.0904C29.5939 29.9999 30.0034 29.5903 30.0034 29.0869V28.1398C30.0034 27.6364 29.5939 27.2269 29.0904 27.2269ZM29.1245 29.0868C29.1245 29.1056 29.1092 29.1209 29.0904 29.1209H18.4364C18.4176 29.1209 18.4023 29.1056 18.4023 29.0868V28.1397C18.4023 28.121 18.4176 28.1057 18.4364 28.1057H29.0904C29.1092 28.1057 29.1245 28.121 29.1245 28.1397V29.0868Z" fill="#123455"/>
<path d="M9.34295 11.3303C9.34295 11.0876 9.14619 10.8908 8.9035 10.8908H8.33344L8.1068 10.4829C7.98615 10.2657 7.92246 10.0197 7.92246 9.77133V9.28359H11.0936C11.858 9.28359 12.4799 8.66168 12.4799 7.89726V1.38633C12.4799 0.621914 11.858 0 11.0936 0H4.65117C4.40848 0 4.21172 0.196758 4.21172 0.439453C4.21172 0.682148 4.40848 0.878906 4.65117 0.878906H11.0936C11.3733 0.878906 11.601 1.10654 11.601 1.38633V7.89726C11.601 8.17705 11.3733 8.40469 11.0936 8.40469H1.38633C1.10654 8.40469 0.878906 8.17705 0.878906 7.89726V1.38633C0.878906 1.10654 1.10654 0.878906 1.38633 0.878906H2.59453C2.83723 0.878906 3.03398 0.682148 3.03398 0.439453C3.03398 0.196758 2.83723 0 2.59453 0H1.38633C0.621914 0 0 0.621914 0 1.38633V7.89726C0 8.66168 0.621914 9.28359 1.38633 9.28359H4.5576V9.77133C4.5576 10.0196 4.49385 10.2657 4.3732 10.4829L4.14656 10.8908H3.5765C3.33381 10.8908 3.13705 11.0876 3.13705 11.3303C3.13705 11.573 3.33381 11.7697 3.5765 11.7697H8.90355C9.14619 11.7697 9.34295 11.573 9.34295 11.3303ZM5.4365 9.77133V9.28359H7.04355V9.77133C7.04355 10.1616 7.14246 10.548 7.32879 10.8908H5.15121C5.3376 10.548 5.4365 10.1616 5.4365 9.77133Z" fill="#123455"/>
<path d="M15.002 4.96289H22.5782C22.9886 4.96289 23.3225 5.29682 23.3225 5.70721V16.0698L22.2971 15.0444C22.1254 14.8727 21.8472 14.8727 21.6756 15.0444C21.504 15.216 21.504 15.4942 21.6756 15.6658L23.4513 17.4415C23.5371 17.5273 23.6496 17.5702 23.762 17.5702C23.8745 17.5702 23.987 17.5273 24.0727 17.4415L25.8484 15.6658C26.02 15.4942 26.02 15.2159 25.8484 15.0444C25.6768 14.8727 25.3985 14.8727 25.227 15.0444L24.2015 16.0699V5.70721C24.2015 4.81219 23.4733 4.08398 22.5782 4.08398H15.002C14.7593 4.08398 14.5625 4.28074 14.5625 4.52344C14.5625 4.76613 14.7593 4.96289 15.002 4.96289Z" fill="#123455"/>
<path d="M14.9986 25.0368H7.42239C7.012 25.0368 6.67807 24.7029 6.67807 24.2925V15.1137L7.70352 16.1391C7.87514 16.3107 8.1534 16.3107 8.32497 16.1391C8.49659 15.9675 8.49659 15.6892 8.32497 15.5177L6.54928 13.742C6.37772 13.5704 6.09946 13.5704 5.92784 13.742L4.15215 15.5177C3.98053 15.6893 3.98053 15.9676 4.15215 16.1391C4.23793 16.225 4.35043 16.2679 4.46288 16.2679C4.57532 16.2679 4.68782 16.225 4.7736 16.1391L5.79911 15.1136V24.2924C5.79911 25.1875 6.52731 25.9157 7.42233 25.9157H14.9986C15.2413 25.9157 15.4381 25.7189 15.4381 25.4762C15.4381 25.2335 15.2413 25.0368 14.9986 25.0368Z" fill="#123455"/>
<path fill-rule="evenodd" clip-rule="evenodd" d="M13.1319 12.8332H16.8638C16.8663 12.7681 16.8681 12.6939 16.8681 12.6126C16.8681 12.2976 16.8421 11.8855 16.7423 11.4794C16.642 11.0713 16.4731 10.6931 16.2044 10.4197C15.9441 10.1549 15.5679 9.96509 14.9978 9.96509C14.4278 9.96509 14.0515 10.1549 13.7913 10.4197C13.5226 10.6931 13.3537 11.0713 13.2534 11.4794C13.1536 11.8855 13.1276 12.2976 13.1276 12.6126C13.1276 12.6939 13.1293 12.7681 13.1319 12.8332ZM17.5148 12.8332C17.5171 12.7666 17.5186 12.6926 17.5186 12.6126C17.5186 12.2657 17.4904 11.7953 17.3734 11.3189C17.2568 10.8445 17.0462 10.3402 16.6644 9.95171C16.2741 9.55466 15.7288 9.30322 14.9978 9.30322C14.2669 9.30322 13.7215 9.55466 13.3313 9.95171C12.9495 10.3402 12.7389 10.8445 12.6223 11.3189C12.5052 11.7953 12.4771 12.2657 12.4771 12.6126C12.4771 12.6926 12.4786 12.7666 12.4809 12.8332H12.3957C11.7371 12.8332 11.2031 13.3765 11.2031 14.0466V17.5766C11.2031 18.2467 11.7371 18.79 12.3957 18.79H17.5999C18.2586 18.79 18.7925 18.2467 18.7925 17.5766V14.0466C18.7925 13.3765 18.2586 12.8332 17.5999 12.8332H17.5148ZM13.1522 13.1234C13.1522 13.1235 13.1522 13.1235 13.1522 13.1234V13.1234ZM12.3957 13.495C12.0964 13.495 11.8536 13.742 11.8536 14.0466V17.5766C11.8536 17.8812 12.0964 18.1281 12.3957 18.1281H17.5999C17.8993 18.1281 18.142 17.8812 18.142 17.5766V14.0466C18.142 13.742 17.8993 13.495 17.5999 13.495H12.3957Z" fill="#123455" stroke="#123455" stroke-width="0.4"/>
</g>
<defs>
<clipPath id="clip0_1595_8174">
<rect width="30" height="30" fill="white"/>
</clipPath>
</defs>
</svg>
