<svg width="30" height="31" viewBox="0 0 30 31" fill="none" xmlns="http://www.w3.org/2000/svg">
<path d="M26.9508 23.0345C26.9831 22.9967 27.0082 22.9532 27.0246 22.9063C28.2444 20.7995 28.8867 18.4081 28.8867 15.9737C28.8867 13.5392 28.2444 11.1479 27.0246 9.04111C27.0082 8.99417 26.9831 8.9507 26.9508 8.9129C25.1468 5.8707 22.2543 3.62762 18.8588 2.63775C18.8242 2.62199 18.7876 2.61118 18.75 2.60564C16.2978 1.91401 13.7022 1.91401 11.25 2.60564C11.213 2.61088 11.1769 2.62113 11.1427 2.63611C7.74629 3.62592 4.85311 5.86969 3.04923 8.9129C3.0169 8.9507 2.99186 8.99417 2.9754 9.04111C1.75561 11.1479 1.11328 13.5392 1.11328 15.9737C1.11328 18.4081 1.75561 20.7995 2.9754 22.9063C2.99186 22.9532 3.0169 22.9967 3.04923 23.0345C4.85174 26.0754 7.74193 28.3182 11.1352 29.3092C11.171 29.3252 11.209 29.336 11.2479 29.3413C13.7008 30.0333 16.2973 30.0333 18.7502 29.3413C18.7912 29.3361 18.8311 29.3248 18.8686 29.3077C22.2602 28.3161 25.1488 26.074 26.9508 23.0345ZM15.4102 29.0298V23.1807H21.0148C20.4054 25.4096 19.5286 27.2617 18.4622 28.5713C17.4666 28.8446 16.4421 28.9985 15.4102 29.0298ZM11.5378 28.5709C10.4714 27.2617 9.59462 25.4099 8.98525 23.1802H14.5899V29.0293C13.5579 28.9981 12.5334 28.8442 11.5378 28.5709ZM1.94392 16.3834H3.75001V19.6065C3.75008 19.7153 3.79331 19.8195 3.87021 19.8965C3.94712 19.9734 4.05141 20.0166 4.16017 20.0167H7.51525C7.624 20.8189 7.76509 21.6034 7.93712 22.3604H3.60704C2.57759 20.532 2.00691 18.4812 1.94392 16.3838V16.3834ZM3.60798 9.5865H7.93736C7.76509 10.3435 7.624 11.1282 7.51548 11.9302H4.16017C4.10628 11.9303 4.05292 11.9409 4.00314 11.9616C3.95336 11.9822 3.90813 12.0125 3.87005 12.0506C3.83196 12.0887 3.80176 12.134 3.78116 12.1838C3.76057 12.2336 3.74998 12.287 3.75001 12.3409V15.5635H1.94392C2.00691 13.4662 2.57759 11.4154 3.60704 9.58697L3.60798 9.5865ZM14.5899 2.91759V8.76665H8.98525C9.59462 6.53775 10.4714 4.68571 11.5378 3.37603C12.5334 3.10273 13.5579 2.94884 14.5899 2.91759ZM18.4622 3.3765C19.5286 4.68571 20.4054 6.53751 21.0148 8.76712H15.4102V2.91759C16.4421 2.94899 17.4667 3.10304 18.4622 3.3765ZM28.0561 15.564H26.25V12.3409C26.25 12.2321 26.2067 12.1278 26.1298 12.0509C26.0529 11.974 25.9486 11.9308 25.8399 11.9307H22.4848C22.376 11.1284 22.2349 10.344 22.0629 9.58697H26.393C27.4224 11.4154 27.9931 13.4662 28.0561 15.5635V15.564ZM26.392 22.3609H22.0627C22.2349 21.6038 22.376 20.8192 22.4845 20.0171H25.8399C25.8938 20.0171 25.9471 20.0064 25.9969 19.9858C26.0467 19.9651 26.0919 19.9349 26.13 19.8968C26.1681 19.8586 26.1983 19.8134 26.2189 19.7636C26.2395 19.7138 26.25 19.6604 26.25 19.6065V16.3838H28.0561C27.9931 18.4812 27.4224 20.532 26.393 22.3604L26.392 22.3609ZM15.4092 22.3609V20.0171H21.6563C21.544 20.8213 21.3985 21.6059 21.2199 22.3609H15.4092ZM4.57033 19.1963V12.751H25.4297V19.1963H4.57033ZM21.6563 11.9307H15.4102V9.58697H21.2206C21.3985 10.3417 21.5445 11.1266 21.6563 11.9307ZM14.5892 9.58697V11.9307H8.34376C8.45603 11.1266 8.60158 10.3419 8.78017 9.58697H14.5892ZM8.34376 20.0167H14.5899V22.3604H8.77947C8.60158 21.6055 8.45556 20.8208 8.34376 20.0167ZM19.7944 28.126C20.736 26.5946 21.4342 24.9263 21.8639 23.1807H25.8926C24.4112 25.412 22.2832 27.1372 19.7937 28.1251L19.7944 28.126ZM25.8926 8.76665H21.8632C21.4333 7.02111 20.7351 5.35284 19.7937 3.82134C22.283 4.80969 24.4107 6.53519 25.8919 8.76665H25.8926ZM10.207 3.82134C9.26557 5.35281 8.56742 7.0211 8.13751 8.76665H4.10814C5.58934 6.53538 7.71711 4.81011 10.2063 3.82204L10.207 3.82134ZM4.10814 23.1807H8.13681C8.56653 24.9263 9.26461 26.5946 10.2061 28.126C7.71692 27.1376 5.58925 25.4121 4.10814 23.1807Z" fill="#123455"/>
<path d="M10.7313 16.7208L9.91609 14.2451H9.23172L8.41164 16.7208L7.67195 14.2451H6.98242L8.07953 17.7021H8.70344L9.57391 15.136L10.4395 17.7021H11.0685L12.1602 14.2451H11.4709L10.7313 16.7208Z" fill="#123455"/>
<path d="M15.8672 17.7021H16.496L17.588 14.2451H16.8984L16.159 16.7208L15.3438 14.2451H14.6595L13.8391 16.7208L13.0997 14.2451H12.4102L13.507 17.7021H14.1312L15.0016 15.136L15.8672 17.7021Z" fill="#123455"/>
<path d="M19.5609 17.7021L20.4311 15.136L21.2966 17.7021H21.9257L23.0177 14.2451H22.3281L21.5884 16.7208L20.7733 14.2451H20.0889L19.2688 16.7208L18.5291 14.2451H17.8398L18.9367 17.7021H19.5609Z" fill="#123455"/>
</svg>
