<svg width="30" height="30" viewBox="0 0 30 30" fill="none" xmlns="http://www.w3.org/2000/svg">
<g clip-path="url(#clip0_2273_4282)">
<path d="M23.6103 12.5819C23.1321 12.5819 22.6896 12.7367 22.33 12.9989C22.0855 12.064 21.2336 11.3721 20.2231 11.3721C19.7176 11.3721 19.2516 11.5454 18.8817 11.8355C18.5764 11.0014 17.7747 10.4044 16.8361 10.4044C16.3888 10.4044 15.9726 10.54 15.6264 10.7721V6.53336C15.6264 5.33277 14.6496 4.35596 13.4489 4.35596C12.2483 4.35596 11.2715 5.33272 11.2715 6.53336V18.0773C11.2715 18.2257 11.1846 18.362 11.05 18.4247C10.8687 18.5087 10.6565 18.442 10.5566 18.2688L9.10473 15.754C8.2376 14.2521 6.31033 13.7358 4.80846 14.6029C4.52861 14.7644 4.32846 15.0254 4.24484 15.3375C4.16123 15.6496 4.20418 15.9756 4.36578 16.2555L9.83609 25.7277C11.3584 28.3638 14.195 30.0012 17.2389 30.0012C21.9527 30.0012 25.7877 26.1663 25.7877 21.4526V14.7592C25.7877 13.5586 24.8109 12.5819 23.6103 12.5819ZM24.8199 21.4526C24.8199 25.6327 21.4191 29.0335 17.2389 29.0335C14.5396 29.0335 12.0241 27.5814 10.6741 25.2438L5.20379 15.7715C5.1602 15.696 5.16992 15.6241 5.17959 15.588C5.18926 15.5518 5.2168 15.4847 5.29232 15.441C5.62783 15.2473 6.00014 15.1483 6.37742 15.1483C6.5665 15.1483 6.75693 15.1732 6.94449 15.2235C7.50629 15.374 7.9758 15.7343 8.2666 16.2379L9.7185 18.7527C10.071 19.3632 10.8188 19.5996 11.4581 19.3021C11.9326 19.0814 12.2393 18.6006 12.2393 18.0773V6.53342C12.2393 5.86639 12.7819 5.32381 13.4489 5.32381C14.116 5.32381 14.6586 5.86645 14.6586 6.53342V15.4851C14.6586 15.7524 14.8752 15.969 15.1425 15.969C15.4097 15.969 15.6263 15.7524 15.6263 15.4851V12.5819C15.6263 11.9148 16.169 11.3723 16.836 11.3723C17.503 11.3723 18.0457 11.9149 18.0457 12.5819V15.4851C18.0457 15.7524 18.2623 15.969 18.5295 15.969C18.7968 15.969 19.0134 15.7524 19.0134 15.4851V13.5496C19.0134 12.8826 19.5561 12.34 20.2231 12.34C20.89 12.34 21.4327 12.8826 21.4327 13.5496V15.7271C21.4327 15.9943 21.6494 16.2109 21.9166 16.2109C22.1838 16.2109 22.4005 15.9943 22.4005 15.7271V14.7592C22.4005 14.0922 22.9432 13.5496 23.6101 13.5496C24.2771 13.5496 24.8198 14.0922 24.8198 14.7592L24.8199 21.4526Z" fill="#123455"/>
<path d="M13.4466 3.38805C13.7138 3.38805 13.9304 3.17143 13.9304 2.90418V1.65297L15.1609 2.88344C15.2554 2.97789 15.3792 3.02512 15.5031 3.02512C15.627 3.02512 15.7508 2.97789 15.8453 2.88344C16.0342 2.69447 16.0342 2.38809 15.8453 2.19912L13.7887 0.142656C13.5997 -0.04625 13.2934 -0.04625 13.1044 0.142656L11.048 2.19912C10.859 2.38809 10.859 2.69447 11.048 2.88344C11.2369 3.07234 11.5433 3.07234 11.7322 2.88344L12.9626 1.65297V2.90418C12.9627 3.17143 13.1793 3.38805 13.4466 3.38805Z" fill="#123455"/>
<path d="M10.3012 6.53295C10.3012 6.2657 10.0846 6.04908 9.81731 6.04908H8.5661L9.79651 4.81867C9.98547 4.62971 9.98547 4.32332 9.79651 4.13436C9.60754 3.94545 9.30122 3.94545 9.11225 4.13436L7.05579 6.19082C6.86682 6.37979 6.86682 6.68617 7.05579 6.87514L9.11225 8.9316C9.20676 9.02605 9.33057 9.07328 9.45438 9.07328C9.57819 9.07328 9.70206 9.02605 9.79651 8.9316C9.98547 8.74264 9.98547 8.43625 9.79651 8.24728L8.5661 7.01688H9.81731C10.0846 7.01682 10.3012 6.8002 10.3012 6.53295Z" fill="#123455"/>
<path d="M17.0983 8.93209C17.1928 9.02654 17.3166 9.07377 17.4405 9.07377C17.5644 9.07377 17.6882 9.02654 17.7827 8.93209L19.8391 6.87563C20.0281 6.68666 20.0281 6.38027 19.8391 6.19131L17.7827 4.13484C17.5937 3.94594 17.2874 3.94594 17.0984 4.13484C16.9094 4.32381 16.9094 4.6302 17.0984 4.81916L18.3288 6.04951H17.0776C16.8104 6.04951 16.5938 6.26613 16.5938 6.53338C16.5938 6.80063 16.8104 7.01725 17.0776 7.01725H18.3289L17.0984 8.24772C16.9093 8.43674 16.9093 8.74312 17.0983 8.93209Z" fill="#123455"/>
</g>
<defs>
<clipPath id="clip0_2273_4282">
<rect width="30" height="30" fill="white" transform="translate(0 0.000976562)"/>
</clipPath>
</defs>
</svg>
