<svg width="30" height="31" viewBox="0 0 30 31" fill="none" xmlns="http://www.w3.org/2000/svg">
<path d="M26.9508 22.4837C26.9831 22.4459 27.0082 22.4024 27.0246 22.3555C28.2444 20.2487 28.8867 17.8573 28.8867 15.4229C28.8867 12.9885 28.2444 10.5971 27.0246 8.49032C27.0082 8.44339 26.9831 8.39992 26.9508 8.36212C25.1468 5.31992 22.2543 3.07684 18.8588 2.08696C18.8242 2.07121 18.7876 2.0604 18.75 2.05486C16.2978 1.36323 13.7022 1.36323 11.25 2.05486C11.213 2.0601 11.1769 2.07035 11.1427 2.08532C7.74629 3.07513 4.85311 5.31891 3.04923 8.36212C3.0169 8.39992 2.99186 8.44339 2.9754 8.49032C1.75561 10.5971 1.11328 12.9885 1.11328 15.4229C1.11328 17.8573 1.75561 20.2487 2.9754 22.3555C2.99186 22.4024 3.0169 22.4459 3.04923 22.4837C4.85174 25.5246 7.74193 27.7674 11.1352 28.7584C11.171 28.7744 11.209 28.7852 11.2479 28.7905C13.7008 29.4825 16.2973 29.4825 18.7502 28.7905C18.7912 28.7853 18.8311 28.774 18.8686 28.757C22.2602 27.7653 25.1488 25.5232 26.9508 22.4837ZM15.4102 28.479V22.6299H21.0148C20.4054 24.8588 19.5286 26.7109 18.4622 28.0206C17.4666 28.2939 16.4421 28.4477 15.4102 28.479ZM11.5378 28.0201C10.4714 26.7109 9.59462 24.8591 8.98525 22.6295H14.5899V28.4785C13.5579 28.4473 12.5334 28.2934 11.5378 28.0201ZM1.94392 15.8326H3.75001V19.0557C3.75008 19.1645 3.79331 19.2688 3.87021 19.3457C3.94712 19.4226 4.05141 19.4658 4.16017 19.4659H7.51525C7.624 20.2681 7.76509 21.0526 7.93712 21.8096H3.60704C2.57759 19.9812 2.00691 17.9304 1.94392 15.8331V15.8326ZM3.60798 9.03571H7.93736C7.76509 9.79275 7.624 10.5774 7.51548 11.3795H4.16017C4.10628 11.3795 4.05292 11.3901 4.00314 11.4108C3.95336 11.4314 3.90813 11.4617 3.87005 11.4998C3.83196 11.538 3.80176 11.5832 3.78116 11.633C3.76057 11.6828 3.74998 11.7362 3.75001 11.7901V15.0127H1.94392C2.00691 12.9154 2.57759 10.8646 3.60704 9.03618L3.60798 9.03571ZM14.5899 2.36681V8.21587H8.98525C9.59462 5.98696 10.4714 4.13493 11.5378 2.82525C12.5334 2.55195 13.5579 2.39806 14.5899 2.36681ZM18.4622 2.82571C19.5286 4.13493 20.4054 5.98673 21.0148 8.21634H15.4102V2.36681C16.4421 2.39821 17.4667 2.55226 18.4622 2.82571ZM28.0561 15.0132H26.25V11.7901C26.25 11.6813 26.2067 11.577 26.1298 11.5001C26.0529 11.4232 25.9486 11.38 25.8399 11.3799H22.4848C22.376 10.5777 22.2349 9.79321 22.0629 9.03618H26.393C27.4224 10.8646 27.9931 12.9154 28.0561 15.0127V15.0132ZM26.392 21.8101H22.0627C22.2349 21.0531 22.376 20.2684 22.4845 19.4663H25.8399C25.8938 19.4663 25.9471 19.4557 25.9969 19.435C26.0467 19.4144 26.0919 19.3841 26.13 19.346C26.1681 19.3078 26.1983 19.2626 26.2189 19.2128C26.2395 19.163 26.25 19.1096 26.25 19.0557V15.8331H28.0561C27.9931 17.9304 27.4224 19.9812 26.393 21.8096L26.392 21.8101ZM15.4092 21.8101V19.4663H21.6563C21.544 20.2705 21.3985 21.0552 21.2199 21.8101H15.4092ZM4.57033 18.6456V12.2002H25.4297V18.6456H4.57033ZM21.6563 11.3799H15.4102V9.03618H21.2206C21.3985 9.79087 21.5445 10.5758 21.6563 11.3799ZM14.5892 9.03618V11.3799H8.34376C8.45603 10.5758 8.60158 9.79111 8.78017 9.03618H14.5892ZM8.34376 19.4659H14.5899V21.8096H8.77947C8.60158 21.0547 8.45556 20.27 8.34376 19.4659ZM19.7944 27.5752C20.736 26.0439 21.4342 24.3755 21.8639 22.6299H25.8926C24.4112 24.8613 22.2832 26.5865 19.7937 27.5743L19.7944 27.5752ZM25.8926 8.21587H21.8632C21.4333 6.47033 20.7351 4.80206 19.7937 3.27056C22.283 4.25891 24.4107 5.98441 25.8919 8.21587H25.8926ZM10.207 3.27056C9.26557 4.80203 8.56742 6.47031 8.13751 8.21587H4.10814C5.58934 5.9846 7.71711 4.25933 10.2063 3.27126L10.207 3.27056ZM4.10814 22.6299H8.13681C8.56653 24.3755 9.26461 26.0438 10.2061 27.5752C7.71692 26.5869 5.58925 24.8614 4.10814 22.6299Z" fill="#123455"/>
<path d="M10.7322 16.17L9.91707 13.6943H9.23269L8.41262 16.17L7.67293 13.6943H6.9834L8.08051 17.1514H8.70441L9.57488 14.5852L10.4404 17.1514H11.0695L12.1612 13.6943H11.4719L10.7322 16.17Z" fill="#123455"/>
<path d="M15.8682 17.1514H16.497L17.5889 13.6943H16.8994L16.16 16.17L15.3448 13.6943H14.6604L13.8401 16.17L13.1007 13.6943H12.4111L13.508 17.1514H14.1321L15.0026 14.5852L15.8682 17.1514Z" fill="#123455"/>
<path d="M19.5599 17.1514L20.4301 14.5852L21.2957 17.1514H21.9247L23.0167 13.6943H22.3271L21.5875 16.17L20.7723 13.6943H20.0879L19.2679 16.17L18.5282 13.6943H17.8389L18.9357 17.1514H19.5599Z" fill="#123455"/>
</svg>
