<svg width="31" height="30" viewBox="0 0 31 30" fill="none" xmlns="http://www.w3.org/2000/svg">
<g clip-path="url(#clip0_853_1929)">
<path d="M15.4827 0.00146484C14.9449 0.00146484 14.4075 0.0303731 13.8729 0.088002C13.3828 0.13806 12.8987 0.220154 12.4212 0.319769C12.3288 0.339104 12.2363 0.359502 12.1439 0.380839C9.3302 1.02145 6.76099 2.46005 4.74435 4.52411C4.55682 4.71633 4.37323 4.91425 4.19372 5.1178C-1.25381 11.3718 -0.600058 20.8577 5.65396 26.3052C11.6414 31.5205 20.6539 31.1735 26.2226 25.5133C26.4105 25.3211 26.594 25.1232 26.7732 24.9196C29.1773 22.1818 30.5022 18.6622 30.5 15.0187C30.5 6.72483 23.7765 0.00140227 15.4827 0.00146484ZM5.41162 5.27498C5.49071 5.19288 5.5728 5.11429 5.6534 5.0347C5.7465 4.94309 5.83911 4.85099 5.93422 4.76239C6.01782 4.6843 6.10392 4.60921 6.18951 4.53312C6.28613 4.44752 6.38224 4.36193 6.48135 4.27933C6.56845 4.20575 6.65805 4.13516 6.74716 4.06408C6.84727 3.98399 6.94739 3.9039 7.05051 3.82681C7.14161 3.75823 7.23422 3.69165 7.32733 3.62658C7.43094 3.55249 7.53507 3.47641 7.64069 3.40733C7.7353 3.34325 7.83091 3.28118 7.92702 3.21961C8.03414 3.15103 8.14176 3.08345 8.25039 3.01938C8.34819 2.961 8.44661 2.90356 8.54573 2.84718C8.65654 2.78411 8.7678 2.72254 8.87961 2.66247C8.97973 2.60909 9.07984 2.55685 9.17996 2.50579C9.29409 2.44822 9.40922 2.39266 9.52486 2.33809C9.62497 2.29054 9.72909 2.24298 9.83221 2.19793C9.94985 2.14788 10.069 2.09782 10.1881 2.04776C10.2917 2.00521 10.3949 1.96366 10.4995 1.92362C10.6206 1.87756 10.7433 1.83451 10.8659 1.79146C10.9705 1.75492 11.0751 1.71838 11.1813 1.68384C11.3059 1.64379 11.4316 1.60675 11.5577 1.57021C11.6633 1.53967 11.7679 1.50814 11.8741 1.47961C11.9146 1.46909 11.9552 1.46058 11.9957 1.45007C10.514 2.88879 9.41442 4.67435 8.79652 6.64506C7.6084 6.33169 6.4582 5.88906 5.36657 5.32504C5.38309 5.30751 5.3971 5.28999 5.41162 5.27498ZM4.69179 6.08091C5.89424 6.73241 7.16933 7.23987 8.49067 7.59265C7.84292 9.84499 7.5029 12.1746 7.48 14.5181H1.47809C1.58715 11.4278 2.71726 8.46071 4.69179 6.08091ZM4.69179 23.9565C2.71739 21.5766 1.58727 18.6096 1.47809 15.5193H7.48C7.5029 17.8628 7.84286 20.1924 8.49067 22.4448C7.16939 22.7977 5.8943 23.3051 4.69179 23.9565ZM11.8711 28.5598C11.7699 28.5343 11.6653 28.5012 11.5612 28.4707C11.4346 28.4337 11.3074 28.3966 11.1823 28.3561C11.0766 28.322 10.9725 28.2855 10.8684 28.2489C10.7453 28.2064 10.6221 28.1628 10.5005 28.1163C10.3964 28.0767 10.2937 28.0352 10.1906 27.9931C10.071 27.9431 9.95135 27.893 9.83271 27.843C9.73059 27.7979 9.62898 27.7516 9.52786 27.7038C9.41123 27.6488 9.29509 27.5927 9.17746 27.5346C9.07734 27.4846 8.97723 27.4345 8.87711 27.3799C8.76398 27.3194 8.65185 27.2573 8.53972 27.1932C8.43961 27.1377 8.3445 27.0806 8.24789 27.0225C8.13776 26.9565 8.02963 26.8884 7.92151 26.8188C7.8264 26.7582 7.73129 26.6967 7.63768 26.6336C7.53106 26.5615 7.42544 26.4864 7.32082 26.4113C7.22921 26.3458 7.13761 26.2802 7.0475 26.2111C6.94388 26.133 6.84227 26.0524 6.74115 25.9713C6.65255 25.9007 6.56445 25.8307 6.47785 25.7581C6.37773 25.675 6.28112 25.5884 6.18401 25.5023C6.09891 25.4267 6.01331 25.3521 5.93022 25.275C5.83461 25.1859 5.742 25.0933 5.64889 25.0017C5.5683 24.9221 5.4862 24.8435 5.40711 24.7619C5.3926 24.7464 5.37858 24.7304 5.36406 24.7154C6.45563 24.1511 7.60583 23.7083 8.79401 23.3949C9.41204 25.3655 10.5116 27.151 11.9932 28.5898C11.9527 28.5793 11.9116 28.5708 11.8711 28.5598ZM14.9821 28.9953C12.8402 28.691 10.9625 26.4554 9.78115 23.1541C11.4891 22.7716 13.2321 22.5665 14.9821 22.5419V28.9953ZM14.9821 21.5407C13.1256 21.5651 11.2769 21.7856 9.46679 22.1985C8.83825 20.0268 8.50668 17.7799 8.48115 15.5193H14.9821V21.5407ZM14.9821 14.5181H8.48115C8.50662 12.2575 8.83819 10.0106 9.46679 7.83893C11.2769 8.25172 13.1257 8.47222 14.9821 8.49669V14.5181ZM14.9821 7.49554C13.232 7.47113 11.4891 7.26596 9.78115 6.88333C10.9625 3.58203 12.8402 1.34645 14.9821 1.0421V7.49554ZM26.2737 6.08091C28.2481 8.46077 29.3782 11.4278 29.4874 14.5181H23.4854C23.4625 12.1746 23.1226 9.84499 22.4748 7.59265C23.7961 7.23968 25.0711 6.73228 26.2737 6.08091ZM19.0904 1.4771C19.1955 1.50313 19.3001 1.53617 19.4042 1.56671C19.5309 1.60375 19.658 1.64079 19.7832 1.68134C19.8888 1.71538 19.9929 1.75192 20.097 1.78846C20.2202 1.83101 20.3433 1.87456 20.465 1.92111C20.5691 1.96066 20.6717 2.00221 20.7748 2.04426C20.8945 2.09431 21.0141 2.14437 21.1327 2.19443C21.2348 2.23948 21.3365 2.28585 21.4376 2.33359C21.5542 2.38865 21.6704 2.44472 21.788 2.50278C21.8881 2.55284 21.9882 2.6029 22.0883 2.65746C22.2015 2.71803 22.3136 2.7801 22.4257 2.84418C22.5258 2.89974 22.6209 2.95681 22.7176 3.01487C22.8277 3.08095 22.9358 3.14903 23.0439 3.21861C23.139 3.27918 23.2342 3.34075 23.3278 3.40382C23.4344 3.4759 23.5395 3.55049 23.6441 3.62558C23.7362 3.69115 23.8278 3.75723 23.9184 3.82581C24.0216 3.9034 24.1227 3.98399 24.2243 4.06508C24.3124 4.13516 24.401 4.20525 24.4876 4.27833C24.5877 4.36142 24.6843 4.44802 24.7814 4.53412C24.8665 4.60971 24.9521 4.6843 25.0352 4.76139C25.1308 4.85049 25.2234 4.94309 25.3166 5.0347C25.3971 5.11429 25.4792 5.19288 25.5583 5.27448C25.5728 5.28999 25.5869 5.30601 25.6014 5.32103C24.5098 5.88531 23.3596 6.32813 22.1714 6.64155C21.5522 4.67066 20.4513 2.88529 18.9682 1.44707C19.0088 1.45758 19.0498 1.46609 19.0904 1.4771ZM15.9833 1.0421C18.1253 1.34645 20.0029 3.58203 21.1843 6.88333C19.4763 7.26577 17.7334 7.47094 15.9833 7.49554V1.0421ZM15.9833 8.49669C17.8398 8.47229 19.6885 8.25178 21.4987 7.83893C22.1272 10.0106 22.4588 12.2575 22.4843 14.5181H15.9833V8.49669ZM15.9833 15.5193H22.4843C22.4588 17.7799 22.1273 20.0268 21.4987 22.1985C19.6885 21.7857 17.8398 21.5652 15.9833 21.5407V15.5193ZM15.9833 28.9953V22.5419C17.7334 22.5663 19.4763 22.7714 21.1843 23.1541C20.0029 26.4554 18.1253 28.691 15.9833 28.9953ZM25.5538 24.7624C25.4747 24.844 25.3931 24.9226 25.3125 25.0022C25.2194 25.0938 25.1263 25.1864 25.0307 25.2755C24.9476 25.3531 24.862 25.4257 24.7769 25.5033C24.6798 25.5894 24.5832 25.6755 24.4841 25.7586C24.3965 25.8317 24.3074 25.9022 24.2183 25.9733C24.1182 26.0534 24.0181 26.1335 23.9149 26.2106C23.8238 26.2792 23.7312 26.3458 23.6381 26.4108C23.5345 26.4849 23.4304 26.561 23.3248 26.6301C23.2301 26.6942 23.1345 26.7562 23.0384 26.8173C22.9313 26.8864 22.8234 26.9531 22.7146 27.0175C22.6144 27.0761 22.5188 27.1332 22.4202 27.1897C22.3094 27.2528 22.198 27.3144 22.0858 27.3744C21.9857 27.4278 21.8856 27.4801 21.7855 27.5311C21.6714 27.5887 21.5562 27.6442 21.4406 27.6988C21.3405 27.7464 21.2364 27.7939 21.1332 27.839C21.0156 27.889 20.8965 27.9391 20.7773 27.9891C20.6737 28.0312 20.5706 28.0732 20.4665 28.1128C20.3443 28.1593 20.2217 28.2029 20.0985 28.2454C19.9944 28.282 19.8903 28.3185 19.7847 28.3526C19.6595 28.3931 19.5344 28.4302 19.4067 28.4667C19.3021 28.4977 19.197 28.5288 19.0914 28.5573C19.0508 28.5678 19.0103 28.5763 18.9697 28.5868C20.4514 27.1481 21.551 25.3626 22.1689 23.3918C23.357 23.7052 24.5072 24.1478 25.5989 24.7119C25.5824 24.7299 25.5683 24.7474 25.5538 24.7624ZM26.2737 23.9565C25.0712 23.305 23.7961 22.7975 22.4748 22.4448C23.1225 20.1924 23.4625 17.8628 23.4854 15.5193H29.4874C29.3784 18.6096 28.2482 21.5767 26.2737 23.9565Z" fill="#123455"/>
<rect x="3.16406" y="10.48" width="24.6699" height="9.04004" fill="white" stroke="#123455"/>
<path d="M6.35478 17.8662V12.3222H9.85878V13.1782H7.36278V14.5942H9.57878V15.4502H7.36278V17.8662H6.35478ZM12.529 12.2662C13.329 12.2662 13.9397 12.4129 14.361 12.7062C14.7877 12.9995 15.001 13.4475 15.001 14.0502C15.001 14.8022 14.6304 15.3115 13.889 15.5782C13.9904 15.7009 14.105 15.8502 14.233 16.0262C14.361 16.2022 14.4917 16.3942 14.625 16.6022C14.7584 16.8049 14.8864 17.0155 15.009 17.2342C15.1317 17.4475 15.241 17.6582 15.337 17.8662H14.209C14.1077 17.6742 13.9984 17.4822 13.881 17.2902C13.7637 17.0929 13.6437 16.9035 13.521 16.7222C13.4037 16.5355 13.2864 16.3622 13.169 16.2022C13.0517 16.0369 12.9424 15.8902 12.841 15.7622C12.7664 15.7675 12.7024 15.7702 12.649 15.7702C12.5957 15.7702 12.545 15.7702 12.497 15.7702H12.009V17.8662H11.001V12.4022C11.2464 12.3489 11.5077 12.3142 11.785 12.2982C12.0624 12.2769 12.3104 12.2662 12.529 12.2662ZM12.601 13.1382C12.3877 13.1382 12.1904 13.1462 12.009 13.1622V14.9542H12.449C12.6944 14.9542 12.9104 14.9409 13.097 14.9142C13.2837 14.8875 13.4384 14.8395 13.561 14.7702C13.689 14.7009 13.785 14.6075 13.849 14.4902C13.913 14.3729 13.945 14.2235 13.945 14.0422C13.945 13.8715 13.913 13.7275 13.849 13.6102C13.785 13.4929 13.6917 13.3995 13.569 13.3302C13.4517 13.2609 13.3104 13.2129 13.145 13.1862C12.9797 13.1542 12.7984 13.1382 12.601 13.1382ZM16.3582 17.8662V12.3222H19.9182V13.1782H17.3662V14.5462H19.6382V15.3862H17.3662V17.0102H20.1102V17.8662H16.3582ZM21.2857 17.8662V12.3222H24.8457V13.1782H22.2937V14.5462H24.5657V15.3862H22.2937V17.0102H25.0377V17.8662H21.2857Z" fill="#123455"/>
</g>
<defs>
<clipPath id="clip0_853_1929">
<rect width="30" height="30" fill="white" transform="translate(0.5)"/>
</clipPath>
</defs>
</svg>
