<svg width="30" height="31" viewBox="0 0 30 31" fill="none" xmlns="http://www.w3.org/2000/svg">
<g clip-path="url(#clip0_370_35313)">
<path d="M14.9993 15.3071C13.7843 15.3071 12.7959 16.2961 12.7959 17.5116C12.7959 18.12 13.0448 18.6953 13.4833 19.1104V20.8959C13.4833 21.7319 14.1634 22.4119 15.0005 22.4119C15.8364 22.4119 16.5164 21.7319 16.5164 20.8959V19.1104C16.9549 18.695 17.2038 18.1197 17.2038 17.5116C17.2038 16.2961 16.2149 15.3071 14.9993 15.3071ZM16.0481 18.7638C15.9834 18.8178 15.9459 18.8981 15.9459 18.9825V20.8958C15.9459 21.4171 15.5217 21.8413 14.9993 21.8413C14.478 21.8413 14.0538 21.4171 14.0538 20.8958V18.9825C14.0538 18.898 14.0164 18.8178 13.9516 18.7635C13.5797 18.4526 13.3664 17.9963 13.3664 17.5115C13.3664 16.6106 14.0988 15.8777 14.9992 15.8777C15.9001 15.8777 16.6333 16.6106 16.6333 17.5115C16.6333 17.9963 16.42 18.4527 16.0481 18.7638Z" fill="#123455" stroke="#123455" stroke-width="0.4"/>
<path d="M1.69434 25.1068V27.779C1.69434 28.9268 2.62803 29.8606 3.77582 29.8606H26.2235C27.3713 29.8606 28.3051 28.9268 28.3051 27.779V25.1068C28.3051 23.959 27.3713 23.0252 26.2235 23.0252H25.2549C25.2676 22.7948 25.2575 22.7772 25.2617 14.8266C25.2617 12.9734 24.1221 11.3826 22.5076 10.7144V8.27061C22.5076 4.13078 19.1396 0.762695 14.9997 0.762695C10.8599 0.762695 7.49189 4.13078 7.49189 8.27061V10.7144C5.87734 11.3826 4.73781 12.9734 4.73781 14.8266C4.73875 17.654 4.73447 22.8043 4.74215 23.0252H3.77576C2.62797 23.0252 1.69434 23.959 1.69434 25.1068ZM27.7345 25.1068V27.779C27.7345 28.6122 27.0567 29.2901 26.2234 29.2901H3.77576C2.94268 29.2901 2.26486 28.6122 2.26486 27.779V25.1068C2.26486 24.2735 2.94268 23.5957 3.77576 23.5957H26.2234C27.0567 23.5957 27.7345 24.2735 27.7345 25.1068ZM8.06236 8.27066C8.06236 4.44537 11.1745 1.33328 14.9996 1.33328C18.8249 1.33328 21.937 4.44537 21.937 8.27066V10.5267C21.1908 10.3312 20.6308 10.3865 20.4346 10.3771V8.27066C20.4346 5.27389 17.9965 2.83574 14.9996 2.83574C12.0026 2.83574 9.56465 5.27395 9.56465 8.27066V10.3771C9.325 10.3887 8.82561 10.3268 8.06236 10.5267V8.27066ZM19.864 10.3771H10.1352V8.27066C10.1352 5.58842 12.3174 3.40627 14.9996 3.40627C17.6819 3.40627 19.864 5.58842 19.864 8.27066V10.3771ZM5.30828 14.8266C5.30828 12.6876 7.04846 10.9476 9.1873 10.9476H20.812C22.9509 10.9476 24.691 12.6876 24.691 14.8266C24.6896 17.3729 24.6963 22.7862 24.6843 23.0252H5.31502C5.3023 22.7293 5.31326 23.2238 5.30828 14.8266Z" fill="#123455" stroke="#123455" stroke-width="0.4"/>
<path d="M4.89882 27.4459L5.85396 26.8943V27.9548C5.85396 28.1125 5.98169 28.2401 6.13925 28.2401C6.29681 28.2401 6.42454 28.1125 6.42454 27.9548V26.8943L7.3798 27.4459C7.51632 27.5245 7.69058 27.4778 7.76956 27.3414C7.84825 27.2049 7.80161 27.0305 7.66509 26.9516L6.70989 26.4001L7.51767 25.9337C7.65419 25.8548 7.70083 25.6804 7.62214 25.5439C7.54315 25.4074 7.36837 25.3604 7.23237 25.4395L6.42448 25.906V24.9308C6.42448 24.7731 6.29675 24.6455 6.13919 24.6455C5.98163 24.6455 5.8539 24.7731 5.8539 24.9308V25.9059L5.04612 25.4395C4.90907 25.3604 4.73511 25.4078 4.65636 25.544C4.57767 25.6805 4.62431 25.8549 4.76083 25.9337L5.5686 26.4002L4.61341 26.9517C4.47689 27.0306 4.43024 27.2049 4.50894 27.3415C4.58839 27.4788 4.76353 27.524 4.89882 27.4459Z" fill="#123455" stroke="#123455" stroke-width="0.4"/>
<path d="M10.8059 27.4459L11.7612 26.8943V27.9549C11.7612 28.1126 11.8889 28.2402 12.0465 28.2402C12.204 28.2402 12.3318 28.1126 12.3318 27.9549V26.8943L13.287 27.4459C13.4235 27.5246 13.5978 27.4778 13.6768 27.3415C13.7555 27.2049 13.7088 27.0306 13.5723 26.9517L12.6171 26.4002L13.425 25.9337C13.5615 25.8549 13.6081 25.6805 13.5294 25.544C13.4504 25.4075 13.2759 25.3604 13.1397 25.4395L12.3318 25.906V24.9308C12.3318 24.7731 12.204 24.6455 12.0465 24.6455C11.8889 24.6455 11.7612 24.7731 11.7612 24.9308V25.9059L10.9534 25.4395C10.8167 25.3604 10.6424 25.4078 10.5636 25.544C10.485 25.6805 10.5316 25.8549 10.6681 25.9337L11.4759 26.4002L10.5206 26.9517C10.3841 27.0306 10.3375 27.2049 10.4162 27.3415C10.4955 27.4788 10.6706 27.524 10.8059 27.4459Z" fill="#123455" stroke="#123455" stroke-width="0.4"/>
<path d="M16.7123 27.4459L17.6675 26.8943V27.9548C17.6675 28.1125 17.7953 28.2401 17.9528 28.2401C18.1104 28.2401 18.2381 28.1125 18.2381 27.9548V26.8943L19.1933 27.4459C19.3298 27.5245 19.5041 27.4778 19.583 27.3414C19.6617 27.2049 19.6151 27.0305 19.4786 26.9516L18.5234 26.4001L19.3311 25.9337C19.4677 25.8548 19.5143 25.6804 19.4356 25.5439C19.3566 25.4074 19.1821 25.3604 19.0459 25.4395L18.2381 25.9059V24.9308C18.2381 24.7731 18.1103 24.6455 17.9528 24.6455C17.7952 24.6455 17.6675 24.7731 17.6675 24.9308V25.906L16.8596 25.4395C16.7227 25.3604 16.5486 25.4077 16.4698 25.5439C16.3911 25.6804 16.4378 25.8548 16.5743 25.9337L17.3821 26.4001L16.4269 26.9516C16.2904 27.0305 16.2437 27.2049 16.3224 27.3414C16.4019 27.4788 16.5771 27.524 16.7123 27.4459Z" fill="#123455" stroke="#123455" stroke-width="0.4"/>
<path d="M22.6195 27.4461L23.5746 26.8946V27.9551C23.5746 28.1127 23.7023 28.2404 23.8599 28.2404C24.0175 28.2404 24.1452 28.1127 24.1452 27.9551V26.8945L25.1004 27.4461C25.237 27.5248 25.4112 27.478 25.4902 27.3417C25.5689 27.2051 25.5223 27.0308 25.3857 26.9519L24.4305 26.4003L25.2383 25.9339C25.3748 25.8551 25.4215 25.6807 25.3428 25.5442C25.2638 25.4076 25.089 25.3606 24.953 25.4397L24.1451 25.9062V24.931C24.1451 24.5534 23.5746 24.5538 23.5746 24.931V25.9062L22.7668 25.4398C22.6298 25.3607 22.4558 25.408 22.3771 25.5442C22.2984 25.6808 22.345 25.8551 22.4815 25.934L23.2893 26.4004L22.3341 26.9519C22.1976 27.0308 22.1509 27.2052 22.2296 27.3417C22.3091 27.4791 22.4842 27.5242 22.6195 27.4461Z" fill="#123455" stroke="#123455" stroke-width="0.4"/>
</g>
<defs>
<clipPath id="clip0_370_35313">
<rect width="30" height="30" fill="white" transform="translate(0 0.311523)"/>
</clipPath>
</defs>
</svg>
