<svg width="30" height="31" viewBox="0 0 30 31" fill="none" xmlns="http://www.w3.org/2000/svg">
<path d="M21.471 6.15828C21.3856 6.07293 21.2698 6.02495 21.1491 6.0249H8.8587C8.73797 6.02495 8.62219 6.07293 8.53681 6.15828L6.10213 8.59323C6.01679 8.67851 5.96881 8.7942 5.96875 8.91485V21.2053C5.96881 21.3259 6.01679 21.4416 6.10213 21.5269L8.53681 23.9618C8.62219 24.0472 8.73797 24.0952 8.8587 24.0952H21.1491C21.2698 24.0952 21.3856 24.0472 21.471 23.9618L23.9057 21.5269C23.991 21.4416 24.039 21.3259 24.0391 21.2053V8.91485C24.039 8.7942 23.991 8.67851 23.9057 8.59323L21.471 6.15828ZM23.129 21.0168L20.9606 23.1852H9.0472L6.87877 21.0168V9.10336L9.0472 6.93492H20.9606L23.129 9.10336V21.0168Z" fill="#123455" stroke="#123455" stroke-width="0.2"/>
<path d="M28.3633 12.5797C28.4721 12.5797 28.5764 12.5365 28.6533 12.4595C28.7302 12.3826 28.7734 12.2783 28.7734 12.1695C28.7734 12.0607 28.7302 11.9564 28.6533 11.8795C28.5764 11.8026 28.4721 11.7594 28.3633 11.7594H25.9609V9.68889H28.3633C28.4721 9.68889 28.5764 9.64567 28.6533 9.56876C28.7302 9.49184 28.7734 9.38751 28.7734 9.27873C28.7734 9.16995 28.7302 9.06563 28.6533 8.98871C28.5764 8.91179 28.4721 8.86857 28.3633 8.86857H25.9609V5.56787C25.9605 5.1795 25.806 4.80717 25.5314 4.53255C25.2568 4.25793 24.8845 4.10346 24.4961 4.10303H21.1954V1.70068C21.1954 1.5919 21.1522 1.48758 21.0753 1.41066C20.9983 1.33374 20.894 1.29053 20.7852 1.29053C20.6765 1.29053 20.5721 1.33374 20.4952 1.41066C20.4183 1.48758 20.3751 1.5919 20.3751 1.70068V4.10303H18.3046V1.70068C18.3046 1.5919 18.2614 1.48758 18.1845 1.41066C18.1076 1.33374 18.0032 1.29053 17.8945 1.29053C17.7857 1.29053 17.6813 1.33374 17.6044 1.41066C17.5275 1.48758 17.4843 1.5919 17.4843 1.70068V4.10303H15.4141V1.70068C15.4141 1.5919 15.3708 1.48758 15.2939 1.41066C15.217 1.33374 15.1127 1.29053 15.0039 1.29053C14.8951 1.29053 14.7908 1.33374 14.7139 1.41066C14.637 1.48758 14.5938 1.5919 14.5938 1.70068V4.10303H12.5235V1.70068C12.5235 1.5919 12.4803 1.48758 12.4034 1.41066C12.3265 1.33374 12.2221 1.29053 12.1134 1.29053C12.0046 1.29053 11.9003 1.33374 11.8233 1.41066C11.7464 1.48758 11.7032 1.5919 11.7032 1.70068V4.10303H9.63273V1.70068C9.63273 1.5919 9.58952 1.48758 9.5126 1.41066C9.43568 1.33374 9.33136 1.29053 9.22258 1.29053C9.1138 1.29053 9.00947 1.33374 8.93255 1.41066C8.85563 1.48758 8.81242 1.5919 8.81242 1.70068V4.10303H5.51172C5.12335 4.10346 4.75101 4.25793 4.4764 4.53255C4.20178 4.80717 4.04731 5.1795 4.04688 5.56787V8.86857H1.64453C1.53575 8.86857 1.43143 8.91179 1.35451 8.98871C1.27759 9.06563 1.23438 9.16995 1.23438 9.27873C1.23438 9.38751 1.27759 9.49184 1.35451 9.56876C1.43143 9.64567 1.53575 9.68889 1.64453 9.68889H4.04688V11.7594H1.64453C1.53575 11.7594 1.43143 11.8026 1.35451 11.8795C1.27759 11.9564 1.23438 12.0607 1.23438 12.1695C1.23438 12.2783 1.27759 12.3826 1.35451 12.4595C1.43143 12.5365 1.53575 12.5797 1.64453 12.5797H4.04688V14.6499H1.64453C1.53575 14.6499 1.43143 14.6931 1.35451 14.77C1.27759 14.847 1.23438 14.9513 1.23438 15.0601C1.23438 15.1688 1.27759 15.2732 1.35451 15.3501C1.43143 15.427 1.53575 15.4702 1.64453 15.4702H4.04688V17.5404H1.64453C1.53575 17.5404 1.43143 17.5837 1.35451 17.6606C1.27759 17.7375 1.23438 17.8418 1.23438 17.9506C1.23438 18.0594 1.27759 18.1637 1.35451 18.2406C1.43143 18.3175 1.53575 18.3608 1.64453 18.3608H4.04688V20.4312H1.64453C1.53575 20.4312 1.43143 20.4744 1.35451 20.5514C1.27759 20.6283 1.23438 20.7326 1.23438 20.8414C1.23438 20.9502 1.27759 21.0545 1.35451 21.1314C1.43143 21.2083 1.53575 21.2515 1.64453 21.2515H4.04688V24.5522C4.04731 24.9406 4.20178 25.313 4.4764 25.5876C4.75101 25.8622 5.12335 26.0167 5.51172 26.0171H8.81242V28.4194C8.81242 28.5282 8.85563 28.6325 8.93255 28.7095C9.00947 28.7864 9.1138 28.8296 9.22258 28.8296C9.33136 28.8296 9.43568 28.7864 9.5126 28.7095C9.58952 28.6325 9.63273 28.5282 9.63273 28.4194V26.0171H11.7032V28.4194C11.7032 28.5282 11.7464 28.6325 11.8233 28.7095C11.9003 28.7864 12.0046 28.8296 12.1134 28.8296C12.2221 28.8296 12.3265 28.7864 12.4034 28.7095C12.4803 28.6325 12.5235 28.5282 12.5235 28.4194V26.0171H14.5938V28.4194C14.5938 28.5282 14.637 28.6325 14.7139 28.7095C14.7908 28.7864 14.8951 28.8296 15.0039 28.8296C15.1127 28.8296 15.217 28.7864 15.2939 28.7095C15.3708 28.6325 15.4141 28.5282 15.4141 28.4194V26.0171H17.4843V28.4194C17.4843 28.5282 17.5275 28.6325 17.6044 28.7095C17.6813 28.7864 17.7857 28.8296 17.8945 28.8296C18.0032 28.8296 18.1076 28.7864 18.1845 28.7095C18.2614 28.6325 18.3046 28.5282 18.3046 28.4194V26.0171H20.3751V28.4194C20.3751 28.5282 20.4183 28.6325 20.4952 28.7095C20.5721 28.7864 20.6765 28.8296 20.7852 28.8296C20.894 28.8296 20.9983 28.7864 21.0753 28.7095C21.1522 28.6325 21.1954 28.5282 21.1954 28.4194V26.0171H24.4961C24.8845 26.0167 25.2568 25.8622 25.5314 25.5876C25.806 25.313 25.9605 24.9406 25.9609 24.5522V21.2515H28.3633C28.4721 21.2515 28.5764 21.2083 28.6533 21.1314C28.7302 21.0545 28.7734 20.9502 28.7734 20.8414C28.7734 20.7326 28.7302 20.6283 28.6533 20.5514C28.5764 20.4744 28.4721 20.4312 28.3633 20.4312H25.9609V18.3608H28.3633C28.4721 18.3608 28.5764 18.3175 28.6533 18.2406C28.7302 18.1637 28.7734 18.0594 28.7734 17.9506C28.7734 17.8418 28.7302 17.7375 28.6533 17.6606C28.5764 17.5837 28.4721 17.5404 28.3633 17.5404H25.9609V15.4702H28.3633C28.4721 15.4702 28.5764 15.427 28.6533 15.3501C28.7302 15.2732 28.7734 15.1688 28.7734 15.0601C28.7734 14.9513 28.7302 14.847 28.6533 14.77C28.5764 14.6931 28.4721 14.6499 28.3633 14.6499H25.9609V12.5797H28.3633ZM25.1406 24.5522C25.1404 24.7231 25.0725 24.887 24.9516 25.0078C24.8308 25.1286 24.667 25.1966 24.4961 25.1968H5.51172C5.34084 25.1966 5.177 25.1286 5.05617 25.0078C4.93534 24.887 4.86737 24.7231 4.86719 24.5522V5.56787C4.86737 5.39699 4.93534 5.23316 5.05617 5.11232C5.177 4.99149 5.34084 4.92353 5.51172 4.92334H24.4961C24.667 4.92353 24.8308 4.99149 24.9516 5.11232C25.0725 5.23316 25.1404 5.39699 25.1406 5.56787V24.5522Z" fill="#123455" stroke="#123455" stroke-width="0.2"/>
<path d="M15.265 12.5249H13.705C13.5844 12.525 13.4687 12.5729 13.3833 12.6582C13.298 12.7436 13.2501 12.8593 13.25 12.9799V17.14C13.25 17.2607 13.2979 17.3764 13.3833 17.4617C13.4686 17.5471 13.5843 17.595 13.705 17.595C13.8257 17.595 13.9414 17.5471 14.0267 17.4617C14.1121 17.3764 14.16 17.2607 14.16 17.14V15.515H15.265C15.6615 15.515 16.0418 15.3574 16.3222 15.0771C16.6025 14.7967 16.7601 14.4164 16.7601 14.0199C16.7601 13.6234 16.6025 13.2432 16.3222 12.9628C16.0418 12.6824 15.6615 12.5249 15.265 12.5249ZM15.265 14.6049H14.16V13.4349H15.265C15.4202 13.4349 15.569 13.4966 15.6787 13.6063C15.7884 13.716 15.85 13.8648 15.85 14.0199C15.85 14.1751 15.7884 14.3239 15.6787 14.4336C15.569 14.5433 15.4202 14.6049 15.265 14.6049Z" fill="#123455" stroke="#123455" stroke-width="0.2"/>
<path d="M9.5419 13.4349H11.6219C11.7426 13.4349 11.8583 13.387 11.9437 13.3016C12.029 13.2163 12.0769 13.1006 12.0769 12.9799C12.0769 12.8592 12.029 12.7435 11.9437 12.6582C11.8583 12.5728 11.7426 12.5249 11.6219 12.5249H9.5419C9.14554 12.5254 8.76556 12.683 8.48529 12.9633C8.20502 13.2436 8.04736 13.6236 8.04688 14.0199V16.1C8.04736 16.4963 8.20502 16.8763 8.48529 17.1566C8.76556 17.4368 9.14554 17.5945 9.5419 17.595H10.5819C10.9783 17.5945 11.3583 17.4368 11.6385 17.1566C11.9188 16.8763 12.0765 16.4963 12.0769 16.1V15.0599C12.0769 14.9393 12.029 14.8235 11.9437 14.7382C11.8583 14.6529 11.7426 14.6049 11.6219 14.6049H10.5819C10.4612 14.6049 10.3455 14.6529 10.2602 14.7382C10.1748 14.8235 10.1269 14.9393 10.1269 15.0599C10.1269 15.1806 10.1748 15.2964 10.2602 15.3817C10.3455 15.467 10.4612 15.515 10.5819 15.515H11.1669V16.1C11.1667 16.2551 11.105 16.4037 10.9954 16.5134C10.8857 16.6231 10.737 16.6848 10.5819 16.685H9.5419C9.38681 16.6848 9.23813 16.6231 9.12846 16.5134C9.0188 16.4037 8.9571 16.2551 8.95689 16.1V14.0199C8.9571 13.8648 9.0188 13.7162 9.12846 13.6065C9.23813 13.4968 9.38681 13.4351 9.5419 13.4349Z" fill="#123455" stroke="#123455" stroke-width="0.2"/>
<path d="M20.4647 16.685H19.4247C19.2696 16.6848 19.1209 16.6231 19.0113 16.5134C18.9016 16.4037 18.8399 16.2551 18.8397 16.1V12.9799C18.8397 12.8592 18.7918 12.7435 18.7064 12.6582C18.6211 12.5728 18.5054 12.5249 18.3847 12.5249C18.264 12.5249 18.1483 12.5728 18.063 12.6582C17.9776 12.7435 17.9297 12.8592 17.9297 12.9799V16.1C17.9302 16.4963 18.0878 16.8763 18.3681 17.1566C18.6484 17.4368 19.0284 17.5945 19.4247 17.595H20.4647C20.8611 17.5945 21.2411 17.4368 21.5213 17.1566C21.8016 16.8763 21.9593 16.4963 21.9598 16.1V12.9799C21.9598 12.8592 21.9118 12.7435 21.8265 12.6582C21.7412 12.5728 21.6254 12.5249 21.5047 12.5249C21.3841 12.5249 21.2683 12.5728 21.183 12.6582C21.0977 12.7435 21.0497 12.8592 21.0497 12.9799V16.1C21.0495 16.2551 20.9878 16.4037 20.8782 16.5134C20.7685 16.6231 20.6198 16.6848 20.4647 16.685Z" fill="#123455" stroke="#123455" stroke-width="0.2"/>
</svg>
