<svg xmlns="http://www.w3.org/2000/svg" width="31" height="31" fill="none" xmlns:v="https://vecta.io/nano"><g clip-path="url(#A)" fill="#123455"><path d="M30.422 21.975l-3.075-1.537-1.957-5.091a.47.47 0 0 0-.262-.267l-12.143-4.854a.47.47 0 0 0-.504.103l-1.62 1.62a.47.47 0 0 0-.101.502l4.854 12.143a.47.47 0 0 0 .267.262l5.091 1.957 1.538 3.075a.47.47 0 0 0 .345.26.41.41 0 0 0 .075 0 .47.47 0 0 0 .33-.138l7.284-7.284a.47.47 0 0 0 .138-.405.47.47 0 0 0-.26-.345zm-18.68-9.586l.26-.258 6.045 6.044a2.76 2.76 0 0 0 4.205 3.542 2.76 2.76 0 0 0-3.541-4.205l-6.045-6.044.258-.26 11.665 4.666 1.84 4.786-5.234 5.234-4.786-1.84-4.667-11.665zm8.557 5.555a1.82 1.82 0 0 1 .692 3.504 1.82 1.82 0 0 1-1.981-2.972c.342-.341.806-.532 1.289-.532zm2.759 10.943l-1.172-2.344 5.187-5.187 2.344 1.172-6.359 6.359zM9.644 25.226a.48.48 0 0 0-.332-.132.48.48 0 0 0-.332.132l-.595.595a12.87 12.87 0 0 1-.234-14.939 2.4 2.4 0 0 0 1.495.274 2.41 2.41 0 0 0 1.361-.677 2.4 2.4 0 0 0 .416-2.853 12.87 12.87 0 0 1 14.939.234l-.605.588a.47.47 0 0 0 0 .663l2.067 2.051a.47.47 0 0 0 .661 0l2.055-2.055a.47.47 0 0 0 0-.664l-2.055-2.055a.47.47 0 0 0-.661 0l-.795.79a13.8 13.8 0 0 0-6.708-2.682c-2.435-.283-4.9.087-7.144 1.072l2.702-2.695a1.44 1.44 0 0 0 1.794-.469 1.44 1.44 0 0 0 .256-.954c-.03-.338-.179-.655-.421-.894a1.44 1.44 0 0 0-.898-.411c-.339-.027-.676.068-.951.266s-.472.488-.555.817a1.43 1.43 0 0 0 .104.982l-4.561 4.568c-.463-.311-1.02-.451-1.575-.397a2.4 2.4 0 0 0-1.468.694c-.394.395-.639.913-.694 1.468a2.4 2.4 0 0 0 .397 1.575l-4.568 4.561a1.44 1.44 0 0 0-1.648 2.311 1.44 1.44 0 0 0 2.311-1.648l2.702-2.695c-.986 2.243-1.357 4.709-1.076 7.143a13.8 13.8 0 0 0 2.679 6.709l-.792.794a.47.47 0 0 0 0 .661l2.055 2.055a.47.47 0 0 0 .33.138c.062 0 .123-.012.18-.036s.109-.058.153-.102l2.058-2.055a.47.47 0 0 0 0-.661L9.64 25.226zM28.159 7.378l1.392 1.392-1.392 1.392-1.392-1.392 1.392-1.392zM16.148 1.233a.5.5 0 0 1 .853.352.5.5 0 0 1-.853.352.5.5 0 0 1-.108-.161c-.025-.06-.038-.125-.038-.19s.013-.13.038-.19a.5.5 0 0 1 .108-.161zM8.273 7.741a1.46 1.46 0 0 1 .476-.319c.178-.074.369-.112.562-.112s.384.038.562.112.34.183.476.319a1.47 1.47 0 0 1-1.038 2.51 1.47 1.47 0 0 1-1.038-2.51zM2.47 16.319a.5.5 0 0 1-.703-.703.5.5 0 0 1 .703 0 .5.5 0 0 1 .108.161c.025.06.038.125.038.19s-.013.13-.038.19a.5.5 0 0 1-.108.161zm6.841 12.687l-1.392-1.392 1.392-1.392 1.392 1.392-1.392 1.392z"/></g><defs><clipPath id="A"><path fill="#fff" transform="translate(.68 .147)" d="M0 0h30v30H0z"/></clipPath></defs></svg>