<svg xmlns="http://www.w3.org/2000/svg" width="31" height="31" fill="#123455" xmlns:v="https://vecta.io/nano"><path d="M4.498 15.148c.28-2.544 1.409-4.832 3.098-6.575l1.91 1.91.884-.884-1.875-1.875c1.796-1.485 4.061-2.423 6.541-2.558v3.108h1.25V5.165c2.479.136 4.745 1.074 6.541 2.558l-1.8 1.799.884.884 1.834-1.834c1.689 1.744 2.818 4.032 3.098 6.575h-2.629v1.25h2.697a11.19 11.19 0 0 1-2.566 7.142l-2.138-2.138-.884.884 2.173 2.173-.008.008.87.898c2.344-2.27 3.803-5.452 3.803-8.974a12.5 12.5 0 1 0-25 0 12.45 12.45 0 0 0 3.619 8.791l.888-.88 1.867-1.89-.884-.884-1.824 1.824a11.19 11.19 0 0 1-2.415-6.955h2.533v-1.25H4.498z"/><path fill-rule="evenodd" d="M22.858 18.036l-8.727.805a1.01 1.01 0 0 0-.608.374L12.5 20.733c-.114.759-.033 1.061.415 1.55l1.646.803a1.01 1.01 0 0 0 .713.02l7.947-3.67c1.182-.41.866-1.636-.363-1.4zm-7.915 3.846l5.034-2.325-5.52.509-.751 1.114-.002.097 1.239.605zm-1.249-.621zm9.178-3.032l.002-.001z"/></svg>