<svg width="31" height="30" viewBox="0 0 31 30" fill="none" xmlns="http://www.w3.org/2000/svg">
<g clip-path="url(#clip0_857_1991)">
<path d="M26.2996 21.3026C26.914 20.885 27.3784 20.2815 27.6245 19.5807C27.8706 18.8798 27.8856 18.1184 27.6672 17.4084C27.4487 16.6984 27.0084 16.0771 26.4109 15.6358C25.8134 15.1945 25.0901 14.9563 24.3473 14.9563C23.6044 14.9563 22.8811 15.1945 22.2836 15.6358C21.6861 16.0771 21.2458 16.6984 21.0274 17.4084C20.809 18.1184 20.8239 18.8798 21.07 19.5807C21.3162 20.2815 21.7805 20.885 22.3949 21.3026C21.7625 21.5239 21.1727 21.8521 20.6512 22.2729C19.7558 21.4918 18.702 20.9137 17.5621 20.5784C18.4864 20.0651 19.214 19.2593 19.6308 18.2877C20.0476 17.316 20.1298 16.2335 19.8647 15.21C19.5996 14.1865 19.0021 13.2801 18.166 12.633C17.3299 11.9859 16.3026 11.6348 15.2453 11.6348C14.1881 11.6348 13.1607 11.9859 12.3246 12.633C11.4886 13.2801 10.891 14.1865 10.6259 15.21C10.3608 16.2335 10.4431 17.316 10.8598 18.2877C11.2766 19.2593 12.0042 20.0651 12.9285 20.5784C11.7886 20.9137 10.7348 21.4918 9.83945 22.2729C9.31796 21.8521 8.72816 21.5239 8.0957 21.3026C8.71082 20.885 9.17581 20.2811 9.4224 19.5797C9.66899 18.8783 9.68417 18.1163 9.46572 17.4057C9.24728 16.695 8.80671 16.0731 8.20872 15.6313C7.61073 15.1895 6.88684 14.9511 6.14336 14.9511C5.39988 14.9511 4.67599 15.1895 4.078 15.6313C3.48001 16.0731 3.03944 16.695 2.82099 17.4057C2.60255 18.1163 2.61773 18.8783 2.86432 19.5797C3.11091 20.2811 3.5759 20.885 4.19102 21.3026C3.03976 21.7078 2.04224 22.4596 1.33551 23.4546C0.628782 24.4496 0.24753 25.6391 0.244141 26.8596C0.244141 26.9839 0.293527 27.1032 0.381434 27.1911C0.469342 27.279 0.58857 27.3284 0.712891 27.3284C0.837211 27.3284 0.956439 27.279 1.04435 27.1911C1.13225 27.1032 1.18164 26.9839 1.18164 26.8596C1.18343 25.9345 1.44381 25.0284 1.93337 24.2434C2.42293 23.4585 3.12217 22.8261 3.95216 22.4176C4.78215 22.009 5.70982 21.8407 6.63043 21.9315C7.55105 22.0223 8.42794 22.3687 9.16211 22.9315C7.77028 24.4472 6.99897 26.4307 7.00117 28.4885C7.00117 28.6128 7.05056 28.7321 7.13847 28.82C7.22637 28.9079 7.3456 28.9573 7.46992 28.9573C7.59424 28.9573 7.71347 28.9079 7.80138 28.82C7.88929 28.7321 7.93867 28.6128 7.93867 28.4885C7.97297 26.574 8.7576 24.7494 10.1237 23.4076C11.4898 22.0657 13.3281 21.3139 15.243 21.3139C17.1578 21.3139 18.9962 22.0657 20.3622 23.4076C21.7283 24.7494 22.513 26.574 22.5473 28.4885C22.5473 28.6128 22.5967 28.7321 22.6846 28.82C22.7725 28.9079 22.8917 28.9573 23.016 28.9573C23.1403 28.9573 23.2596 28.9079 23.3475 28.82C23.4354 28.7321 23.4848 28.6128 23.4848 28.4885C23.487 26.4307 22.7157 24.4472 21.3238 22.9315C22.058 22.368 22.9351 22.021 23.8561 21.9298C24.7771 21.8387 25.7052 22.0069 26.5356 22.4155C27.366 22.8241 28.0656 23.4568 28.5552 24.2422C29.0449 25.0275 29.3052 25.9341 29.3066 26.8596C29.3066 26.9839 29.356 27.1032 29.4439 27.1911C29.5318 27.279 29.6511 27.3284 29.7754 27.3284C29.8997 27.3284 30.0189 27.279 30.1068 27.1911C30.1948 27.1032 30.2441 26.9839 30.2441 26.8596C30.2409 25.6394 29.86 24.4501 29.1537 23.4551C28.4474 22.4601 27.4504 21.7082 26.2996 21.3026ZM3.60508 18.4221C3.60647 17.9204 3.75652 17.4303 4.03627 17.0138C4.31602 16.5973 4.71293 16.2731 5.17686 16.0821C5.64079 15.891 6.15094 15.8418 6.64285 15.9405C7.13476 16.0392 7.58638 16.2815 7.94067 16.6368C8.29495 16.9921 8.536 17.4443 8.63337 17.9365C8.73074 18.4287 8.68007 18.9387 8.48775 19.4021C8.29542 19.8655 7.97008 20.2615 7.55282 20.5401C7.13556 20.8187 6.64508 20.9674 6.14336 20.9674C5.80952 20.9671 5.47902 20.901 5.17074 20.7729C4.86246 20.6448 4.58245 20.4572 4.34672 20.2208C4.11099 19.9844 3.92416 19.7039 3.7969 19.3953C3.66965 19.0866 3.60446 18.7559 3.60508 18.4221ZM11.4098 16.4018C11.4116 15.6438 11.6381 14.9034 12.0605 14.2741C12.483 13.6448 13.0825 13.1548 13.7833 12.866C14.4841 12.5772 15.2547 12.5026 15.9979 12.6516C16.7411 12.8006 17.4234 13.1666 17.9588 13.7032C18.4941 14.2398 18.8583 14.923 19.0055 15.6666C19.1527 16.4101 19.0762 17.1806 18.7857 17.8807C18.4952 18.5808 18.0038 19.1791 17.3734 19.6C16.7431 20.0209 16.0021 20.2455 15.2441 20.2455C14.2276 20.2443 13.253 19.8399 12.5342 19.1211C11.8154 18.4023 11.411 17.4277 11.4098 16.4112V16.4018ZM21.8066 18.4221C21.8066 17.9201 21.9555 17.4293 22.2344 17.0119C22.5133 16.5945 22.9098 16.2692 23.3736 16.077C23.8374 15.8849 24.3477 15.8347 24.8401 15.9326C25.3325 16.0305 25.7848 16.2723 26.1398 16.6273C26.4947 16.9823 26.7365 17.4345 26.8344 17.9269C26.9324 18.4193 26.8821 18.9297 26.69 19.3935C26.4979 19.8573 26.1725 20.2537 25.7551 20.5326C25.3377 20.8115 24.8469 20.9604 24.3449 20.9604C23.6719 20.9598 23.0267 20.6921 22.5508 20.2163C22.0749 19.7404 21.8073 19.0951 21.8066 18.4221Z" fill="#123455"/>
<path d="M4.45898 0.5H26.0293C27.41 0.5 28.5293 1.61929 28.5293 3V6.46631C28.5293 7.84702 27.41 8.96631 26.0293 8.96631H12.6584C11.7637 8.96631 10.9029 9.30897 10.253 9.92389L8.38051 11.6955L5.94856 9.67068C5.4019 9.21554 4.71304 8.96631 4.0017 8.96631C2.87354 8.96631 1.95898 8.05175 1.95898 6.92359V3C1.95898 1.61929 3.07827 0.5 4.45898 0.5Z" stroke="#123455"/>
<circle cx="9.96484" cy="4.84424" r="1.25" fill="#123455"/>
<circle cx="14.9844" cy="4.84424" r="1.25" fill="#123455"/>
<circle cx="20.0039" cy="4.84424" r="1.25" fill="#123455"/>
</g>
<defs>
<clipPath id="clip0_857_1991">
<rect width="30" height="30" fill="white" transform="translate(0.244141)"/>
</clipPath>
</defs>
</svg>
