<svg xmlns="http://www.w3.org/2000/svg" width="31" height="31" fill="#123455" stroke="#123455" stroke-width=".2" xmlns:v="https://vecta.io/nano"><path d="M28.309 18.005a1.47 1.47 0 0 0 .481-1.09V13.38a1.48 1.48 0 0 0-1.476-1.477h-.9c-.248-.87-.596-1.709-1.037-2.501l.637-.637a1.47 1.47 0 0 0 .432-1.046 1.46 1.46 0 0 0-.432-1.042l-2.5-2.5c-.278-.279-.649-.432-1.045-.432s-.767.154-1.044.432l-.637.636a11.79 11.79 0 0 0-2.501-1.037v-.9A1.48 1.48 0 0 0 16.812 1.4h-3.535A1.48 1.48 0 0 0 11.8 2.875v.9c-.87.248-1.709.596-2.501 1.037l-.636-.636a1.48 1.48 0 0 0-1.046-.432 1.46 1.46 0 0 0-1.042.432l-2.5 2.5c-.278.277-.432.648-.432 1.043a1.47 1.47 0 0 0 .432 1.046l.636.637c-.441.792-.789 1.631-1.037 2.501h-.9a1.48 1.48 0 0 0-1.475 1.477v3.536a1.48 1.48 0 0 0 1.475 1.477h.9c.248.871.596 1.709 1.037 2.501l-.636.636c-.279.278-.432.649-.432 1.045s.154.767.432 1.044l2.5 2.5c.277.278.648.432 1.043.432a1.47 1.47 0 0 0 1.046-.432l.636-.637a11.79 11.79 0 0 0 2.501 1.037v.9a1.48 1.48 0 0 0 1.477 1.476h3.535a1.48 1.48 0 0 0 1.477-1.476v-.9a11.89 11.89 0 0 0 1.644-.605c1.049 1.088 2.52 1.765 4.147 1.765.944 0 1.882-.234 2.711-.677a.42.42 0 0 0 .172-.566.42.42 0 0 0-.566-.172 4.94 4.94 0 0 1-2.318.578c-2.717 0-4.927-2.21-4.927-4.927s2.21-4.927 4.927-4.927 4.927 2.21 4.927 4.927c0 1.208-.443 2.371-1.247 3.275a.42.42 0 0 0 .035.59.42.42 0 0 0 .59-.035 5.76 5.76 0 0 0 1.459-3.831 5.74 5.74 0 0 0-1.534-3.911zm-4.919-1.811a8.51 8.51 0 0 0 .065-1.047c0-4.638-3.774-8.411-8.412-8.411a8.43 8.43 0 0 0-3.948.983.42.42 0 0 0-.173.566.42.42 0 0 0 .566.173 7.59 7.59 0 0 1 3.555-.885c4.177 0 7.576 3.398 7.576 7.574a7.66 7.66 0 0 1-.098 1.22c-2.423.682-4.204 2.911-4.204 5.549l.001.064a7.47 7.47 0 0 1-1.198.456v-4.275a4.82 4.82 0 0 0 2.865-4.386c0-1.584-.786-3.065-2.101-3.961-.19-.13-.767-.525-1.244-.25-.466.268-.418.913-.395 1.223.002.03.005.056.005.072v2.628a1.33 1.33 0 0 1-1.207 1.321 1.33 1.33 0 0 1-1.207-1.321V10.86c0-.018.003-.043.005-.073.023-.31.071-.955-.394-1.223-.476-.274-1.053.12-1.243.25-1.316.897-2.101 2.378-2.101 3.962a4.82 4.82 0 0 0 2.865 4.386v4.273a7.59 7.59 0 0 1-5.5-7.287 7.57 7.57 0 0 1 2.626-5.734.42.42 0 0 0 .043-.59.42.42 0 0 0-.59-.043c-1.853 1.599-2.916 3.92-2.916 6.367 0 4.639 3.773 8.412 8.411 8.412a8.31 8.31 0 0 0 3.352-.695 5.74 5.74 0 0 0 .983 2.381 11.06 11.06 0 0 1-1.611.549.42.42 0 0 0-.314.405v1.22a.64.64 0 0 1-.641.639h-3.535a.64.64 0 0 1-.641-.639V26.2a.42.42 0 0 0-.315-.405 10.96 10.96 0 0 1-2.879-1.194.42.42 0 0 0-.509.064l-.863.863c-.121.121-.281.187-.453.187a.63.63 0 0 1-.452-.187l-2.501-2.501c-.12-.12-.186-.28-.186-.452s.066-.332.187-.453l.863-.863a.42.42 0 0 0 .064-.509c-.534-.899-.935-1.867-1.194-2.879a.42.42 0 0 0-.405-.315h-1.22a.64.64 0 0 1-.639-.641V13.38a.64.64 0 0 1 .639-.641h1.22a.42.42 0 0 0 .405-.315 10.95 10.95 0 0 1 1.194-2.879.42.42 0 0 0-.064-.509l-.863-.863c-.121-.121-.187-.282-.187-.454a.63.63 0 0 1 .187-.451l2.501-2.501c.12-.12.28-.186.451-.186h.001c.172 0 .333.066.453.187l.863.863a.42.42 0 0 0 .509.064 10.96 10.96 0 0 1 2.879-1.194.42.42 0 0 0 .315-.405v-1.22a.64.64 0 0 1 .641-.639h3.535a.64.64 0 0 1 .641.639v1.22a.42.42 0 0 0 .315.405 10.95 10.95 0 0 1 2.879 1.194.42.42 0 0 0 .509-.064l.864-.864c.12-.12.28-.186.452-.186s.332.066.453.187l2.501 2.501c.12.12.186.28.186.451a.64.64 0 0 1-.187.454l-.863.863a.42.42 0 0 0-.064.509 10.95 10.95 0 0 1 1.194 2.879.42.42 0 0 0 .405.315h1.22a.64.64 0 0 1 .639.641v3.536c0 .204-.101.395-.261.514-.989-.798-2.246-1.277-3.613-1.277-.233 0-.464.014-.69.041zm-9.858 1.293a3.98 3.98 0 0 1-2.592-3.713 3.96 3.96 0 0 1 1.736-3.271 1.41 1.41 0 0 1 .333-.182c.013.082.013.217-.001.403a1.85 1.85 0 0 0-.007.135v2.628a2.17 2.17 0 0 0 2.014 2.157.54.54 0 0 0 .057 0 2.17 2.17 0 0 0 2.014-2.157v-2.628c0-.039-.003-.081-.007-.134-.014-.186-.014-.322-.001-.404a1.48 1.48 0 0 1 .334.183 3.96 3.96 0 0 1 1.736 3.271 3.98 3.98 0 0 1-2.592 3.712.42.42 0 0 0-.273.392v4.743c-.406.066-.819.1-1.24.1a7.59 7.59 0 0 1-1.238-.102v-4.74a.42.42 0 0 0-.273-.392zm13.369 1.867c-.607-.506-1.512-.426-2.019.179l-1.456 1.736-.241-.204c-.602-.511-1.508-.436-2.02.168s-.434 1.509.167 2.019l1.339 1.137a1.4 1.4 0 0 0 .92.34l.129-.005a1.4 1.4 0 0 0 .977-.508l2.38-2.84a1.42 1.42 0 0 0 .329-1.047 1.42 1.42 0 0 0-.507-.973zm-.464 1.483l-2.381 2.841a.56.56 0 0 1-.406.211c-.169.014-.308-.03-.437-.139l-1.339-1.137a.6.6 0 0 1 .386-1.052c.136 0 .273.046.385.141l.561.476a.42.42 0 0 0 .591-.05l1.726-2.058a.6.6 0 0 1 .841-.074.59.59 0 0 1 .21.404c.014.159-.035.315-.137.437z"/></svg>