<svg width="30" height="30" viewBox="0 0 30 30" fill="none" xmlns="http://www.w3.org/2000/svg">
<path d="M28.237 14.8229L23.9352 4.5268L19.7845 6.26105C19.8365 5.7715 19.8365 5.07884 19.5709 4.57888C18.9772 3.46958 17.5919 3.04774 16.4826 3.64145C15.3733 4.23515 14.9515 5.62047 15.5452 6.72976C15.7535 7.12036 16.066 7.43804 16.4514 7.65157L12.0142 9.50039C11.9152 9.18792 11.7642 8.89106 11.5715 8.62546C11.6288 8.59421 11.6757 8.55775 11.7225 8.51088C11.8319 8.40151 11.8996 8.25569 11.8996 8.09945L11.8788 6.38083H12.2329C12.3163 6.38083 12.3944 6.34437 12.4517 6.28709C12.5142 6.2298 12.5454 6.14647 12.5454 6.06314L12.4829 1.50098L11.858 1.51139L11.9152 5.75587L3.56689 5.81837L3.50961 1.50098L2.88465 1.51139L2.94194 6.14126C2.94715 6.31313 3.08255 6.44332 3.25442 6.44853H3.61897C3.61897 6.46416 3.6398 8.16716 3.6398 8.16716C3.64501 8.35464 3.73876 8.5265 3.88979 8.63587L3.66064 9.00043C3.5721 9.14104 3.45232 9.48998 3.45232 9.48998H3.44711L2.53572 12.8908L2.77528 13.6303L2.43677 13.7813C2.12429 13.9219 1.87431 14.1771 1.75453 14.5C1.63474 14.8229 1.64516 15.1771 1.78577 15.4895L6.41564 25.8325L10.7539 23.89C10.9101 23.8223 11.0195 23.6764 11.0351 23.5046C11.0507 23.3327 10.9726 23.1661 10.832 23.0723C10.2747 22.6817 9.88935 22.2599 9.77477 21.9162C9.48313 21.0516 9.94664 20.109 10.8164 19.8173C11.6809 19.5257 12.6235 19.9892 12.9152 20.8589C13.0558 21.2704 13.0245 21.7235 12.8318 22.1141C12.7485 22.2807 12.7798 22.4786 12.91 22.6088C13.035 22.7442 13.2329 22.7859 13.3995 22.7078L17.0034 21.0933C17.1753 21.0204 17.3211 20.8954 17.4253 20.7392L17.9721 20.5152C18.0346 21.0308 18.2273 21.5203 18.5345 21.9422C18.4773 21.9734 18.4304 22.0151 18.3835 22.062C18.2689 22.1713 18.2064 22.3224 18.2064 22.4786L18.2325 24.192H17.8783C17.795 24.192 17.7169 24.2285 17.6596 24.2858C17.5971 24.3431 17.5659 24.4264 17.5711 24.5097L17.6284 28.4417H18.2533L18.196 24.8222L26.5444 24.7545L26.6017 28.4469H27.2266L27.1693 24.442C27.1641 24.2701 27.0287 24.1347 26.8569 24.1295H26.4923C26.4923 24.1191 26.4975 24.1035 26.4975 24.0931L26.4715 22.4161C26.4715 22.2286 26.3777 22.0516 26.2215 21.9474C26.3413 21.7547 26.435 21.6089 26.4506 21.5776C26.5392 21.4422 26.6069 21.2912 26.6485 21.1298L26.659 21.0933H26.6642L27.5756 17.6873L27.2422 16.6353L27.5443 16.5103C28.2005 16.2395 28.513 15.4947 28.2422 14.8385C28.2422 14.8333 28.237 14.8281 28.237 14.8229ZM6.42085 12.0002L6.36877 12.0887C6.01463 12.7137 5.37405 12.9897 5.36884 12.9897L5.13969 13.0835C5.13969 13.0835 5.49904 15.2552 5.59799 15.8853C5.65528 16.2603 5.58758 16.6457 5.40009 16.9738C5.26469 17.1665 5.04595 17.2811 4.81159 17.2811C4.65015 17.2759 4.58244 17.1925 4.5564 17.1457L3.54085 13.974L3.34816 13.3751L3.18671 12.8751L4.06686 9.59934C4.0929 9.5056 4.13456 9.41706 4.18664 9.33374C4.18664 9.33374 4.34809 9.07334 4.53036 8.79211L10.8632 8.74003C11.134 9.02647 11.332 9.3754 11.4413 9.75558L6.42085 12.0002ZM11.1601 8.12028H11.1497V8.10987L4.39496 8.16195C4.34809 8.16716 4.30642 8.15153 4.26997 8.12549V8.063L4.24913 6.4902C4.28559 6.46936 4.32725 6.45374 4.36892 6.45374L11.134 6.40166C11.1809 6.39645 11.2226 6.41208 11.259 6.43812L11.2851 8.08383C11.2486 8.10466 11.2018 8.12028 11.1601 8.12028ZM16.7482 20.5204L13.5557 21.9526C13.863 20.7287 13.1235 19.4892 11.8996 19.182C10.6757 18.8747 9.43626 19.6142 9.12899 20.8381C9.01962 21.2599 9.04045 21.7078 9.17586 22.1193C9.35293 22.6348 9.82685 23.0931 10.2591 23.4265L6.72291 25.0097L2.34823 15.2343C2.27532 15.0729 2.27011 14.8906 2.33782 14.724C2.40031 14.5573 2.5253 14.4271 2.68675 14.3542L2.96277 14.2292L3.98353 17.4113C4.13977 17.7081 4.44183 17.9008 4.78035 17.906C4.78035 17.906 5.59279 17.9217 5.9261 17.3019V17.2915C6.18649 16.8332 6.28544 16.302 6.20212 15.7812C6.124 15.2812 5.91047 13.974 5.82194 13.448C6.23857 13.2189 6.59271 12.8856 6.85311 12.4898L12.1392 10.1201C12.1392 10.1201 12.285 10.0368 12.3996 10.0629C12.4673 10.0889 12.5298 10.167 12.561 10.2347L14.1963 13.974C14.264 14.1459 14.4359 14.25 14.6182 14.2396C14.8004 14.2292 14.9567 14.1042 15.014 13.9324C15.1546 13.4584 15.4983 13.0783 15.9566 12.8908C16.7691 12.5262 17.7273 12.8856 18.0919 13.698C18.4304 14.4479 18.1544 15.3281 17.4461 15.7499C16.993 16.0051 16.2014 15.9426 15.8837 15.9062C15.717 15.8853 15.5504 15.9583 15.4462 16.0937C15.4462 16.0989 15.2952 16.2707 15.3942 16.5676L16.9409 20.0152C16.9982 20.1454 16.9774 20.3017 16.8888 20.4111C16.8576 20.4579 16.8055 20.4996 16.7482 20.5204ZM25.8465 22.5047L25.8726 24.0775C25.8361 24.1035 25.7944 24.1191 25.7476 24.1139L18.9824 24.166C18.9356 24.1712 18.8939 24.1556 18.8574 24.1295L18.8314 22.5099L25.8465 22.5047ZM26.0444 20.9683C26.0184 21.062 25.9767 21.1506 25.9246 21.2339V21.2443C25.9246 21.2443 25.7684 21.4995 25.5861 21.7807L25.5236 21.8797H19.3001L19.248 21.8276C18.847 21.4006 18.6075 20.8433 18.5762 20.2548L23.0863 18.3747C22.9874 18.5518 22.8936 18.7393 22.8051 18.9268L23.3727 19.1924C23.4873 18.9476 23.6123 18.7081 23.7425 18.4789C23.8727 18.2498 24.0498 18.0519 24.2529 17.8852C24.4039 17.7602 24.5654 17.6613 24.7424 17.5779L24.9716 17.4842L24.9351 17.2394C24.9299 17.2342 24.9143 17.1196 24.883 16.9478C24.7893 16.3853 24.5914 15.1666 24.5133 14.6875C24.456 14.3125 24.5237 13.9272 24.7112 13.5991C24.8466 13.4064 25.0653 13.2866 25.2997 13.2866C25.4611 13.2918 25.5288 13.3751 25.5549 13.4272L26.4715 16.2811L26.6642 16.8801L26.9246 17.6977L26.0444 20.9683ZM27.6641 15.5729C27.5964 15.7343 27.4662 15.8645 27.3047 15.9322L27.0496 16.0416L26.1225 13.1564C25.9663 12.8595 25.6642 12.672 25.3309 12.6616C24.5289 12.6825 24.18 13.271 24.18 13.271C23.9196 13.7292 23.8206 14.2605 23.9039 14.7813C23.9821 15.2864 24.1956 16.5884 24.2841 17.1144C24.1643 17.1821 24.0498 17.2602 23.9404 17.3436L17.5867 19.9996C17.5711 19.9163 16.1233 16.6561 16.1233 16.6561C16.6389 16.6926 17.2326 16.6665 17.6752 16.4322L17.8731 16.3124C18.1127 16.1509 18.321 15.9478 18.4825 15.7083L18.5502 15.6041C18.67 15.4062 18.7585 15.1927 18.8158 14.9687C18.821 14.9583 18.821 14.9479 18.821 14.9375H18.8262C18.8835 14.7344 18.9095 14.5261 18.9095 14.3125C18.9095 14.0834 18.8731 13.849 18.8054 13.6303C18.4304 12.4273 17.1492 11.7606 15.9462 12.1356C15.3681 12.3179 14.8838 12.7241 14.6025 13.2657L14.2328 12.4377C14.113 12.1408 13.3162 10.391 13.1391 9.98473C13.0974 9.90661 13.0506 9.82849 12.9933 9.76079L17.1128 8.063C17.2846 7.99009 17.3888 7.81822 17.3784 7.63595C17.3732 7.45367 17.2482 7.29743 17.0763 7.24535C16.2014 6.97974 15.7066 6.05794 15.9722 5.17779C15.9983 5.09446 16.0295 5.01634 16.066 4.93823C16.2691 4.51117 16.6441 4.18828 17.1024 4.06329C17.8523 3.84976 18.6491 4.18307 19.0189 4.87052C19.2637 5.32882 19.1803 6.11522 19.1335 6.43291C19.1126 6.60477 19.1803 6.77142 19.3157 6.87558C19.4511 6.97974 19.6282 7.00578 19.7845 6.93808L23.5967 5.34445L27.6589 15.0625C27.7318 15.2239 27.7318 15.4114 27.6641 15.5729Z" fill="#123455" stroke="#123455" stroke-width="0.4"/>
<path d="M8.66471 25.9732L8.10938 26.2598L8.83066 27.6574L9.386 27.3708L8.66471 25.9732Z" fill="#123455" stroke="#123455" stroke-width="0.4"/>
<path d="M4.32285 25.9984L3.60156 27.396L4.1569 27.6826L4.87818 26.285L4.32285 25.9984Z" fill="#123455" stroke="#123455" stroke-width="0.4"/>
<path d="M6.18686 26.894L6.14844 28.4663L6.7732 28.4816L6.81163 26.9092L6.18686 26.894Z" fill="#123455" stroke="#123455" stroke-width="0.4"/>
<path d="M21.8835 2.38283L21.3281 2.66943L22.0494 4.06703L22.6047 3.78042L21.8835 2.38283Z" fill="#123455" stroke="#123455" stroke-width="0.4"/>
<path d="M26.5494 2.40417L25.8281 3.80176L26.3835 4.08836L27.1047 2.69077L26.5494 2.40417Z" fill="#123455" stroke="#123455" stroke-width="0.4"/>
<path d="M23.8978 1.56829L23.8594 3.14062L24.4841 3.15589L24.5226 1.58356L23.8978 1.56829Z" fill="#123455" stroke="#123455" stroke-width="0.4"/>
</svg>
