<svg xmlns="http://www.w3.org/2000/svg" width="31" height="32" fill="#123455" stroke="#fff" stroke-width=".5" xmlns:v="https://vecta.io/nano"><path d="M21.877 14.34s-.248-2.135-2.532-2.135-3.848.298-3.848 1.564 4.444 1.266 6.132 1.763 3.178 1.787 2.433 4.072-3.029 2.532-6.554 2.532-4.32-2.93-4.32-4.072h1.986s-.248 1.787 2.085 2.085 4.565.465 4.866-1.34c.397-2.383-7.547-1.192-8.242-3.525-.587-1.972-.248-4.568 3.724-4.965s6.157 1.356 6.157 3.972l-1.886.05zM2.696 23.648l4.391 2.535c2.206 1.274 4.964-.319 4.964-2.866v-4.442V10.7h-1.79v12.119a1.81 1.81 0 0 1-2.711 1.565l-3.065-1.769V9.68l11.201-6.466L26.887 9.68v12.934L15.686 29.08l-3.227-1.863-2.107.85 5.334 3.079 12.991-7.501V8.648l-12.991-7.5-12.991 7.5v15h0z"/></svg>