<svg xmlns="http://www.w3.org/2000/svg" width="24" height="30" fill="#123455" xmlns:v="https://vecta.io/nano"><path d="M12 0C5.889 0 .918 4.971.918 11.082c0 2.012.902 4.175.94 4.267a17.88 17.88 0 0 0 1.281 2.396l7.598 11.513c.311.472.771.742 1.263.742s.952-.27 1.263-.742l7.599-11.514c.415-.63.99-1.704 1.281-2.396.038-.091.939-2.254.939-4.267C23.082 4.971 18.111 0 12 0zm8.941 14.843a16.37 16.37 0 0 1-1.168 2.184L12.174 28.54c-.15.227-.198.227-.348 0L4.228 17.027a16.38 16.38 0 0 1-1.168-2.185c-.011-.027-.838-2.018-.838-3.76 0-5.392 4.387-9.778 9.778-9.778s9.778 4.387 9.778 9.778c0 1.744-.829 3.741-.838 3.761zM12 5.216c-3.235 0-5.867 2.632-5.867 5.867S8.764 16.95 12 16.95s5.867-2.632 5.867-5.867S15.235 5.216 12 5.216zm0 10.43a4.57 4.57 0 0 1-4.563-4.563A4.57 4.57 0 0 1 12 6.52a4.57 4.57 0 0 1 4.563 4.563A4.57 4.57 0 0 1 12 15.646z"/></svg>