<svg width="31" height="31" viewBox="0 0 31 31" fill="none" xmlns="http://www.w3.org/2000/svg">
<g clip-path="url(#clip0_1170_3903)">
<path fill-rule="evenodd" clip-rule="evenodd" d="M29.0352 15.1523C29.0352 15.0591 29.0722 14.9697 29.1381 14.9038C29.2041 14.8378 29.2935 14.8008 29.3867 14.8008C29.48 14.8008 29.5694 14.8378 29.6353 14.9038C29.7012 14.9697 29.7383 15.0591 29.7383 15.1523C29.7387 17.7716 29.0252 20.3415 27.6747 22.5858C26.3241 24.8301 24.3875 26.6639 22.073 27.8901L23.5408 28.2832C23.6308 28.3072 23.7075 28.366 23.7541 28.4466C23.8007 28.5272 23.8134 28.6231 23.7894 28.713C23.7654 28.803 23.7066 28.8797 23.626 28.9263C23.5454 28.9729 23.4496 28.9856 23.3596 28.9616L20.9877 28.326C20.9432 28.3141 20.9014 28.2936 20.8648 28.2655C20.8282 28.2375 20.7975 28.2025 20.7744 28.1626C20.7513 28.1227 20.7363 28.0786 20.7303 28.0329C20.7242 27.9872 20.7273 27.9407 20.7392 27.8962L21.3747 25.5244C21.3987 25.4344 21.4575 25.3577 21.5381 25.3111C21.6187 25.2644 21.7145 25.2518 21.8045 25.2758C21.8944 25.2998 21.9712 25.3586 22.0178 25.4392C22.0644 25.5198 22.0771 25.6156 22.0531 25.7056L21.6155 27.3386C23.8518 26.1842 25.7271 24.4365 27.0359 22.2869C28.3446 20.1373 29.0363 17.669 29.0352 15.1523ZM12.6842 15.3988C12.6198 15.3326 12.584 15.2437 12.5846 15.1513C12.5853 15.0588 12.6222 14.9704 12.6876 14.9051C12.7529 14.8397 12.8414 14.8027 12.9338 14.8021C13.0262 14.8015 13.1152 14.8373 13.1814 14.9017L14.5285 16.2488L17.4671 13.3102C17.5334 13.2462 17.6222 13.2107 17.7144 13.2115C17.8066 13.2123 17.8948 13.2493 17.9599 13.3145C18.0251 13.3797 18.0621 13.4679 18.0629 13.56C18.0637 13.6522 18.0283 13.741 17.9642 13.8073L14.777 16.9948C14.7111 17.0607 14.6217 17.0978 14.5285 17.0978C14.4352 17.0978 14.3458 17.0607 14.2799 16.9948L12.6842 15.3991V15.3988ZM14.371 4.78588C14.1451 4.7863 13.9285 4.87622 13.7688 5.03595C13.609 5.19569 13.5191 5.41222 13.5187 5.63812V7.16543C12.6091 7.37027 11.7414 7.72977 10.9535 8.22826L9.8733 7.14803C9.71329 6.98856 9.4966 6.89901 9.27069 6.89901C9.04479 6.89901 8.82809 6.98856 8.66809 7.14803L7.3199 8.49609C7.16042 8.65608 7.07087 8.87277 7.07087 9.09867C7.07087 9.32457 7.16042 9.54126 7.3199 9.70125L8.40008 10.7815C7.9016 11.5694 7.54205 12.437 7.33707 13.3465H5.81C5.58409 13.347 5.36756 13.4369 5.20783 13.5967C5.04809 13.7564 4.95817 13.9729 4.95775 14.1988V16.1057C4.95819 16.3316 5.04812 16.5481 5.20785 16.7078C5.36758 16.8675 5.5841 16.9575 5.81 16.9579H7.33725C7.54185 17.8676 7.90139 18.7353 8.40014 19.523L7.31996 20.6032C7.16046 20.7632 7.07089 20.9799 7.07089 21.2058C7.07089 21.4318 7.16046 21.6485 7.31996 21.8085L8.66797 23.1567C8.82797 23.3161 9.04465 23.4057 9.27055 23.4057C9.49644 23.4057 9.71313 23.3161 9.87313 23.1567L10.9534 22.0764C11.7413 22.5749 12.6089 22.9344 13.5184 23.1394V24.6666C13.5189 24.8925 13.6088 25.1091 13.7685 25.2688C13.9283 25.4285 14.1448 25.5184 14.3707 25.5189H16.2772C16.5032 25.5184 16.7197 25.4285 16.8795 25.2688C17.0392 25.1091 17.1292 24.8925 17.1296 24.6666V23.1393C18.0392 22.9347 18.9069 22.5751 19.6947 22.0764L20.7749 23.1567C20.9349 23.3161 21.1516 23.4057 21.3775 23.4057C21.6034 23.4057 21.8201 23.3161 21.9801 23.1567L23.3285 21.8086C23.488 21.6486 23.5776 21.4319 23.5776 21.206C23.5776 20.9801 23.488 20.7634 23.3285 20.6034L22.2482 19.523C22.747 18.7352 23.1065 17.8676 23.3112 16.9579H24.8384C25.0643 16.9575 25.2809 16.8676 25.4406 16.7078C25.6003 16.5481 25.6903 16.3316 25.6907 16.1057V14.1991C25.6903 13.9732 25.6003 13.7566 25.4406 13.5969C25.2809 13.4371 25.0643 13.3472 24.8384 13.3468H23.3111C23.1063 12.4372 22.7468 11.5696 22.2483 10.7817L23.3285 9.70143C23.488 9.54142 23.5775 9.32472 23.5775 9.09882C23.5775 8.87291 23.488 8.65622 23.3285 8.49621L21.9805 7.14803C21.8205 6.98856 21.6038 6.89902 21.3779 6.89902C21.152 6.89902 20.9353 6.98856 20.7753 7.14803L19.6948 8.22832C18.907 7.72985 18.0394 7.37032 17.1298 7.16537V5.63812C17.1294 5.41221 17.0394 5.19568 16.8797 5.03595C16.7199 4.87622 16.5034 4.7863 16.2775 4.78588H14.371ZM16.2775 5.489H14.371C14.3315 5.48936 14.2938 5.50518 14.2659 5.53307C14.238 5.56095 14.2221 5.59868 14.2218 5.63812V7.45084H14.2209C14.2209 7.53265 14.1923 7.61188 14.14 7.67483C14.0878 7.73777 14.0151 7.78047 13.9347 7.79555C12.9277 7.98491 11.9705 8.37995 11.123 8.956C11.0554 9.00871 10.9708 9.03488 10.8853 9.02959C10.7997 9.02431 10.719 8.98792 10.6583 8.92729L9.37625 7.64525C9.34807 7.61767 9.31021 7.60222 9.27078 7.60222C9.23135 7.60222 9.19349 7.61767 9.16531 7.64525L7.81713 8.9935C7.78954 9.02167 7.7741 9.05953 7.7741 9.09896C7.7741 9.1384 7.78954 9.17626 7.81713 9.20443L9.09922 10.4865L9.09875 10.487C9.15653 10.5448 9.19231 10.621 9.19992 10.7024C9.20752 10.7838 9.18648 10.8653 9.14041 10.9328C8.56221 11.778 8.16444 12.7333 7.97193 13.739C7.96198 13.8246 7.9209 13.9036 7.85652 13.961C7.79213 14.0183 7.70893 14.05 7.62271 14.05H5.81C5.77056 14.0503 5.73282 14.0661 5.70493 14.094C5.67703 14.1219 5.66122 14.1596 5.66088 14.1991V16.1057C5.66122 16.1451 5.67703 16.1828 5.70493 16.2107C5.73282 16.2386 5.77056 16.2544 5.81 16.2548H7.62271V16.2557C7.70452 16.2557 7.78376 16.2843 7.8467 16.3366C7.90965 16.3888 7.95235 16.4614 7.96742 16.5418C8.15677 17.5489 8.55184 18.5061 9.12793 19.3535C9.18064 19.4212 9.20681 19.5057 9.20153 19.5913C9.19624 19.6769 9.15985 19.7576 9.09922 19.8182L7.81713 21.1003C7.78954 21.1285 7.7741 21.1664 7.7741 21.2058C7.7741 21.2452 7.78954 21.2831 7.81713 21.3113L9.16531 22.6594C9.19349 22.687 9.23135 22.7024 9.27078 22.7024C9.31021 22.7024 9.34807 22.687 9.37625 22.6594L10.6584 21.3772L10.6589 21.3776C10.7167 21.3198 10.7929 21.2841 10.8743 21.2765C10.9557 21.2688 11.0372 21.2899 11.1047 21.336C11.9499 21.9141 12.9051 22.3119 13.9109 22.5045C13.9965 22.5144 14.0755 22.5555 14.1328 22.6199C14.1902 22.6843 14.2218 22.7675 14.2218 22.8537V24.6664C14.2222 24.7058 14.238 24.7436 14.2659 24.7714C14.2938 24.7993 14.3316 24.8152 14.371 24.8155H16.2775C16.317 24.8152 16.3547 24.7993 16.3826 24.7714C16.4105 24.7436 16.4264 24.7058 16.4267 24.6664V22.8538H16.4276C16.4276 22.772 16.4562 22.6928 16.5085 22.6299C16.5607 22.5669 16.6334 22.5242 16.7138 22.5091C17.7208 22.3197 18.6779 21.9247 19.5254 21.3486C19.593 21.2959 19.6776 21.2697 19.7632 21.275C19.8488 21.2803 19.9295 21.3167 19.9901 21.3773L21.2722 22.6594C21.3004 22.687 21.3383 22.7025 21.3777 22.7025C21.4171 22.7025 21.455 22.687 21.4832 22.6594L22.8314 21.3113C22.859 21.2831 22.8744 21.2452 22.8744 21.2058C22.8744 21.1664 22.859 21.1285 22.8314 21.1003L21.5492 19.8182L21.5496 19.8177C21.4918 19.7599 21.4561 19.6837 21.4484 19.6023C21.4408 19.5209 21.4619 19.4394 21.508 19.3719C22.0861 18.5267 22.4839 17.5715 22.6765 16.5657C22.6865 16.4801 22.7275 16.4011 22.7919 16.3438C22.8563 16.2865 22.9395 16.2548 23.0257 16.2548H24.8384C24.8779 16.2544 24.9156 16.2386 24.9435 16.2107C24.9714 16.1828 24.9872 16.1451 24.9876 16.1057V14.1991C24.9872 14.1596 24.9714 14.1219 24.9435 14.094C24.9156 14.0661 24.8779 14.0503 24.8384 14.05H23.0257V14.0491C22.9439 14.0491 22.8647 14.0204 22.8017 13.9682C22.7388 13.9159 22.6961 13.8433 22.681 13.7629C22.4917 12.7558 22.0966 11.7986 21.5206 10.9512C21.4679 10.8835 21.4417 10.799 21.447 10.7134C21.4523 10.6278 21.4887 10.5472 21.5493 10.4865L22.8313 9.20438C22.8589 9.1762 22.8743 9.13834 22.8743 9.09891C22.8743 9.05947 22.8589 9.02161 22.8313 8.99344L21.4831 7.64525C21.4549 7.61767 21.417 7.60222 21.3776 7.60222C21.3382 7.60222 21.3003 7.61767 21.2721 7.64525L19.9901 8.92734L19.9896 8.92688C19.9318 8.98466 19.8556 9.02045 19.7742 9.02806C19.6928 9.03566 19.6113 9.01461 19.5438 8.96854C18.6986 8.39042 17.7433 7.99266 16.7376 7.80006C16.652 7.7901 16.573 7.74903 16.5157 7.68464C16.4583 7.62026 16.4267 7.53705 16.4267 7.45084V5.63812C16.4263 5.59868 16.4105 5.56095 16.3826 5.53307C16.3547 5.50518 16.3169 5.48936 16.2775 5.489ZM15.3242 9.7933C14.2643 9.7933 13.2282 10.1076 12.3469 10.6965C11.4656 11.2853 10.7787 12.1223 10.3731 13.1015C9.96749 14.0808 9.86137 15.1583 10.0681 16.1978C10.2749 17.2374 10.7853 18.1923 11.5348 18.9418C12.2843 19.6912 13.2392 20.2016 14.2787 20.4084C15.3183 20.6152 16.3958 20.5091 17.375 20.1035C18.3543 19.6978 19.1912 19.011 19.7801 18.1297C20.369 17.2484 20.6833 16.2123 20.6833 15.1523C20.6832 13.731 20.1186 12.368 19.1136 11.363C18.1086 10.358 16.7455 9.79333 15.3242 9.7933ZM18.6165 11.8601C17.9653 11.2089 17.1357 10.7655 16.2325 10.5858C15.3294 10.4062 14.3932 10.4984 13.5424 10.8508C12.6917 11.2032 11.9645 11.7999 11.4529 12.5656C10.9413 13.3313 10.6682 14.2315 10.6682 15.1523C10.6682 16.0732 10.9413 16.9734 11.4529 17.7391C11.9645 18.5047 12.6917 19.1015 13.5424 19.4539C14.3932 19.8063 15.3294 19.8985 16.2325 19.7189C17.1357 19.5392 17.9653 19.0958 18.6165 18.4446C19.4896 17.5714 19.9801 16.3872 19.9801 15.1523C19.9801 13.9175 19.4896 12.7333 18.6165 11.8601ZM15.3242 1.44141C15.231 1.44141 15.1416 1.40437 15.0756 1.33844C15.0097 1.27251 14.9727 1.18308 14.9727 1.08984C14.9727 0.996604 15.0097 0.907182 15.0756 0.841252C15.1416 0.775321 15.231 0.738281 15.3242 0.738281C17.9435 0.737893 20.5134 1.45131 22.7577 2.80186C25.0019 4.15242 26.8357 6.08903 28.062 8.40357L28.4551 6.93574C28.4791 6.84578 28.5379 6.76905 28.6185 6.72244C28.6991 6.67583 28.795 6.66315 28.8849 6.68719C28.9749 6.71123 29.0516 6.77002 29.0982 6.85063C29.1448 6.93124 29.1575 7.02707 29.1335 7.11703L28.4979 9.48885C28.486 9.53339 28.4654 9.57516 28.4374 9.61176C28.4094 9.64835 28.3744 9.67907 28.3345 9.70215C28.2946 9.72523 28.2505 9.74022 28.2048 9.74627C28.1591 9.75232 28.1126 9.74931 28.0681 9.7374L25.6965 9.10189C25.6519 9.08999 25.6102 9.06944 25.5736 9.0414C25.537 9.01336 25.5063 8.97838 25.4832 8.93847C25.4601 8.89856 25.4451 8.85449 25.439 8.80878C25.433 8.76308 25.436 8.71662 25.4479 8.67208C25.4598 8.62754 25.4804 8.58577 25.5084 8.54917C25.5364 8.51257 25.5714 8.48185 25.6113 8.45877C25.6512 8.43569 25.6953 8.42069 25.741 8.41464C25.7867 8.40859 25.8332 8.4116 25.8777 8.4235L27.5107 8.86102C26.3563 6.62472 24.6085 4.74941 22.4589 3.44065C20.3093 2.13189 17.8409 1.4402 15.3242 1.44141ZM1.61328 15.1523C1.61328 15.2456 1.57624 15.335 1.51031 15.4009C1.44438 15.4669 1.35496 15.5039 1.26172 15.5039C1.16848 15.5039 1.07906 15.4669 1.01313 15.4009C0.947196 15.335 0.910156 15.2456 0.910156 15.1523C0.909768 12.533 1.62319 9.96315 2.97374 7.71888C4.32429 5.47461 6.26091 3.64082 8.57545 2.41459L7.10762 2.02148C7.01766 1.99745 6.94093 1.93867 6.89431 1.85806C6.84769 1.77745 6.835 1.68163 6.85903 1.59167C6.88307 1.50171 6.94185 1.42498 7.02246 1.37836C7.10306 1.33174 7.19889 1.31905 7.28885 1.34309L9.66072 1.97865C9.70527 1.99056 9.74703 2.01112 9.78363 2.03916C9.82023 2.0672 9.85095 2.10218 9.87403 2.1421C9.89711 2.18201 9.9121 2.22608 9.91815 2.27179C9.9242 2.3175 9.92118 2.36395 9.90928 2.4085L9.27377 4.78008C9.24974 4.87004 9.19095 4.94677 9.11035 4.99339C9.02974 5.04001 8.93392 5.05269 8.84396 5.02866C8.75399 5.00463 8.67726 4.94584 8.63065 4.86524C8.58403 4.78463 8.57134 4.68881 8.59537 4.59885L9.03295 2.9659C6.79664 4.12027 4.92131 5.86805 3.61254 8.01764C2.30376 10.1672 1.61207 12.6357 1.61328 15.1523ZM15.3242 28.8633C15.4175 28.8633 15.5069 28.9003 15.5728 28.9663C15.6387 29.0322 15.6758 29.1216 15.6758 29.2148C15.6758 29.3081 15.6387 29.3975 15.5728 29.4634C15.5069 29.5294 15.4175 29.5664 15.3242 29.5664C12.7049 29.5668 10.135 28.8534 7.89076 27.5028C5.64649 26.1523 3.81269 24.2157 2.58647 21.9011L2.19336 23.3689C2.16932 23.4589 2.11053 23.5356 2.02991 23.5822C1.9493 23.6289 1.85348 23.6415 1.76352 23.6175C1.67355 23.5935 1.59683 23.5347 1.55021 23.4541C1.5036 23.3734 1.49092 23.2776 1.51496 23.1877L2.15053 20.8158C2.16243 20.7713 2.18299 20.7295 2.21103 20.6929C2.23908 20.6563 2.27406 20.6256 2.31397 20.6025C2.35389 20.5795 2.39796 20.5645 2.44366 20.5584C2.48937 20.5524 2.53583 20.5554 2.58037 20.5673L4.95195 21.2028C5.04191 21.2268 5.11864 21.2856 5.16526 21.3662C5.21188 21.4468 5.22457 21.5426 5.20054 21.6326C5.1765 21.7226 5.11772 21.7993 5.03711 21.8459C4.95651 21.8925 4.86068 21.9052 4.77072 21.8812L3.13771 21.4437C4.29211 23.68 6.03991 25.5553 8.18951 26.864C10.3391 28.1728 12.8075 28.8645 15.3242 28.8633Z" fill="#123455" stroke="#123455" stroke-width="0.3"/>
</g>
<defs>
<clipPath id="clip0_1170_3903">
<rect width="30" height="30" fill="white" transform="translate(0.324219 0.152344)"/>
</clipPath>
</defs>
</svg>
