<svg width="31" height="31" viewBox="0 0 31 31" fill="none" xmlns="http://www.w3.org/2000/svg">
<path d="M5.21307 6.57457H9.76561C10.017 6.57457 10.2209 6.37073 10.2209 6.11932C10.2209 5.8679 10.017 5.66406 9.76561 5.66406H5.21307C4.96165 5.66406 4.75781 5.8679 4.75781 6.11932C4.75781 6.37073 4.96165 6.57457 5.21307 6.57457Z" fill="#123455"/>
<path d="M13.4076 8.39551H5.21307C4.96165 8.39551 4.75781 8.59935 4.75781 8.85076C4.75781 9.10217 4.96165 9.30602 5.21307 9.30602H13.4076C13.6591 9.30602 13.8629 9.10217 13.8629 8.85076C13.8629 8.59935 13.6591 8.39551 13.4076 8.39551Z" fill="#123455"/>
<path d="M12.4971 11.127H5.21307C4.96165 11.127 4.75781 11.3308 4.75781 11.5822C4.75781 11.8336 4.96165 12.0375 5.21307 12.0375H12.4971C12.7485 12.0375 12.9524 11.8336 12.9524 11.5822C12.9524 11.3308 12.7485 11.127 12.4971 11.127Z" fill="#123455"/>
<path d="M12.4971 13.8584H5.21307C4.96165 13.8584 4.75781 14.0622 4.75781 14.3137C4.75781 14.5651 4.96165 14.7689 5.21307 14.7689H12.4971C12.7485 14.7689 12.9524 14.5651 12.9524 14.3137C12.9524 14.0622 12.7485 13.8584 12.4971 13.8584Z" fill="#123455"/>
<path d="M12.4971 16.5898H5.21307C4.96165 16.5898 4.75781 16.7937 4.75781 17.0451C4.75781 17.2965 4.96165 17.5004 5.21307 17.5004H12.4971C12.7485 17.5004 12.9524 17.2965 12.9524 17.0451C12.9524 16.7937 12.7485 16.5898 12.4971 16.5898Z" fill="#123455"/>
<path d="M28.4263 14.2852C28.4241 14.2454 28.4161 14.2058 28.403 14.1682C28.3981 14.1536 28.3943 14.1396 28.3881 14.1253C28.3661 14.0758 28.3352 14.0306 28.2969 13.992L24.6549 10.3499C24.6153 10.3115 24.5691 10.2806 24.5184 10.2588C24.5055 10.2535 24.4929 10.2499 24.4797 10.2452C24.44 10.2312 24.3984 10.223 24.3564 10.2206C24.3477 10.2206 24.3399 10.2157 24.3312 10.2157H16.5955V6.11926C16.5955 6.10926 16.5906 6.10059 16.5897 6.09059C16.5875 6.0508 16.5795 6.01123 16.5664 5.97366C16.5615 5.95899 16.5577 5.94498 16.5515 5.93076C16.5295 5.88119 16.4986 5.83606 16.4603 5.79738L12.8183 2.15535C12.7796 2.11734 12.7343 2.08644 12.6845 2.06421C12.6714 2.05843 12.6576 2.05465 12.644 2.04976C12.6044 2.0362 12.5635 2.0282 12.522 2.02553C12.5151 2.02642 12.5073 2.02197 12.4982 2.02197H4.30362C3.04722 2.02353 2.0289 3.04163 2.02734 4.29824V18.8664C2.0289 20.123 3.04722 21.1411 4.30362 21.1427H13.864V27.061C13.8655 28.3176 14.8838 29.3357 16.1402 29.3372H26.1558C27.4124 29.3357 28.4308 28.3176 28.4321 27.061V14.3138C28.4321 14.3038 28.4272 14.2952 28.4263 14.2852ZM26.8781 13.8586H25.2453C24.9939 13.8586 24.7901 13.6547 24.7901 13.4033V11.7708L26.8781 13.8586ZM15.0414 5.66401H13.4087C13.1573 5.66401 12.9534 5.46017 12.9534 5.20875V3.57624L15.0414 5.66401ZM4.30362 20.2321C3.54938 20.2321 2.93785 19.6206 2.93785 18.8664V4.29824C2.93785 3.54401 3.54938 2.93248 4.30362 2.93248H12.0429V5.20875C12.0429 5.96299 12.6545 6.57452 13.4087 6.57452H15.685V10.2621C15.677 10.2621 15.6696 10.2675 15.6614 10.2695C15.5318 10.2975 15.4049 10.337 15.2822 10.3873C15.2366 10.4051 15.1984 10.4291 15.1561 10.4497C15.073 10.4886 14.9925 10.5327 14.9147 10.5811C14.8692 10.6105 14.8278 10.6436 14.7845 10.6754C14.7169 10.7258 14.6518 10.7796 14.5897 10.8365C14.5493 10.8748 14.5115 10.9145 14.4737 10.9555C14.4172 11.0164 14.3643 11.0804 14.3152 11.1475C14.2819 11.1931 14.2501 11.2387 14.2201 11.2842C14.1752 11.3567 14.1345 11.4318 14.098 11.509C14.0745 11.5576 14.0498 11.6045 14.0298 11.6548C13.9962 11.7433 13.968 11.8337 13.9455 11.9255C13.9338 11.9711 13.9182 12.0133 13.9091 12.0622C13.8804 12.2038 13.8653 12.3481 13.864 12.4928V20.2321H4.30362ZM26.1558 28.4267H16.1402C15.386 28.4267 14.7745 27.8152 14.7745 27.061V12.4928C14.7745 11.7386 15.386 11.1271 16.1402 11.1271H23.8796V13.4033C23.8796 14.1576 24.4911 14.7691 25.2453 14.7691H27.5216V27.061C27.5216 27.8152 26.9103 28.4267 26.1558 28.4267Z" fill="#123455"/>
<path d="M17.049 14.7689H21.6015C21.853 14.7689 22.0568 14.5651 22.0568 14.3137C22.0568 14.0622 21.853 13.8584 21.6015 13.8584H17.049C16.7976 13.8584 16.5938 14.0622 16.5938 14.3137C16.5938 14.5651 16.7976 14.7689 17.049 14.7689Z" fill="#123455"/>
<path d="M17.049 17.5004H25.2436C25.495 17.5004 25.6988 17.2965 25.6988 17.0451C25.6988 16.7937 25.495 16.5898 25.2436 16.5898H17.049C16.7976 16.5898 16.5938 16.7937 16.5938 17.0451C16.5938 17.2965 16.7976 17.5004 17.049 17.5004Z" fill="#123455"/>
<path d="M17.049 20.2318H25.2436C25.495 20.2318 25.6988 20.028 25.6988 19.7765C25.6988 19.5251 25.495 19.3213 25.2436 19.3213H17.049C16.7976 19.3213 16.5938 19.5251 16.5938 19.7765C16.5938 20.028 16.7976 20.2318 17.049 20.2318Z" fill="#123455"/>
<path d="M17.049 22.9637H25.2436C25.495 22.9637 25.6988 22.7599 25.6988 22.5085C25.6988 22.2571 25.495 22.0532 25.2436 22.0532H17.049C16.7976 22.0532 16.5938 22.2571 16.5938 22.5085C16.5938 22.7599 16.7976 22.9637 17.049 22.9637Z" fill="#123455"/>
<path d="M24.7883 25.2399C24.7883 24.9885 24.5845 24.7847 24.3331 24.7847H17.049C16.7976 24.7847 16.5938 24.9885 16.5938 25.2399C16.5938 25.4913 16.7976 25.6952 17.049 25.6952H24.3331C24.5845 25.6952 24.7883 25.4913 24.7883 25.2399Z" fill="#123455"/>
<path d="M18.4496 4.9285C18.4725 4.98363 18.5058 5.03364 18.548 5.07566L20.4791 7.00649C20.5934 7.12475 20.7627 7.17209 20.9219 7.13053C21.0811 7.08896 21.2053 6.96447 21.2469 6.80531C21.2887 6.64615 21.2411 6.47699 21.1229 6.36273L19.9683 5.20859H24.3323C25.0868 5.20859 25.6981 5.82011 25.6981 6.57435V9.76113C25.6981 10.0125 25.9019 10.2164 26.1533 10.2164C26.4047 10.2164 26.6086 10.0125 26.6086 9.76113V6.57435C26.6073 5.31773 25.5889 4.29964 24.3323 4.29808H19.9683L21.1229 3.14394C21.2411 3.02968 21.2887 2.86052 21.2469 2.70136C21.2053 2.54219 21.0811 2.41771 20.9219 2.37614C20.7627 2.33457 20.5934 2.38192 20.4791 2.50018L18.548 4.43101C18.5058 4.47302 18.4725 4.52304 18.4496 4.57817C18.4022 4.6902 18.4022 4.81646 18.4496 4.9285Z" fill="#123455"/>
<path d="M12.0069 26.8859C11.984 26.8307 11.9507 26.7807 11.9084 26.7387L9.97736 24.8079C9.86288 24.6896 9.69372 24.6423 9.53456 24.6838C9.3754 24.7254 9.25113 24.8499 9.20934 25.009C9.16777 25.1682 9.21512 25.3374 9.3336 25.4516L10.4882 26.6058H6.12393C5.36969 26.6058 4.75816 25.9942 4.75816 25.24V22.5085C4.75816 22.2571 4.55432 22.0532 4.30291 22.0532C4.0515 22.0532 3.84766 22.2571 3.84766 22.5085V25.24C3.84921 26.4966 4.86753 27.5147 6.12393 27.5163H10.4882L9.3336 28.6704C9.21512 28.7847 9.16777 28.9538 9.20934 29.113C9.25113 29.2722 9.3754 29.3966 9.53456 29.4382C9.69372 29.4798 9.86288 29.4324 9.97736 29.3142L11.9084 27.3833C11.9507 27.3413 11.984 27.2913 12.0069 27.2362C12.0542 27.1242 12.0542 26.9979 12.0069 26.8859Z" fill="#123455"/>
<path d="M26.1552 24.7847C25.9038 24.7847 25.6999 24.9885 25.6999 25.2399V26.1504C25.6999 26.4018 25.4961 26.6057 25.2447 26.6057H24.3342C24.0827 26.6057 23.8789 26.8095 23.8789 27.0609C23.8789 27.3124 24.0827 27.5162 24.3342 27.5162H25.2447C25.9991 27.5162 26.6104 26.9047 26.6104 26.1504V25.2399C26.6104 24.9885 26.4066 24.7847 26.1552 24.7847Z" fill="#123455"/>
</svg>
