<svg width="31" height="30" viewBox="0 0 31 30" fill="none" xmlns="http://www.w3.org/2000/svg">
<g clip-path="url(#clip0_1807_3599)">
<path d="M8.06078 3.55164C3.91488 5.50862 0.493791 7.13219 0.464799 7.16118C0.435807 7.19742 1.92166 7.92948 3.77717 8.8065C5.63268 9.67627 7.15478 10.4156 7.15478 10.4373C7.15478 10.4591 5.63993 11.1984 3.78442 12.0681C1.92891 12.9379 0.414062 13.67 0.414062 13.6917C0.414062 13.7134 1.94341 14.4455 3.81341 15.3225C5.68342 16.1995 7.20551 16.9243 7.19102 16.9388C7.18377 16.9533 5.66892 17.6709 3.83516 18.5334C1.99414 19.3959 0.486543 20.1352 0.486543 20.1715C0.479295 20.2295 15.2871 27.2456 15.4103 27.2456C15.4756 27.2456 15.9974 26.1584 15.9974 26.0424C15.9974 25.9989 13.2432 24.6653 9.8728 23.078C6.50245 21.4906 3.76267 20.1787 3.77717 20.157C3.79891 20.1425 4.94411 19.5916 6.33574 18.9321C8.66962 17.8304 8.87257 17.7434 9.07552 17.8159C9.19873 17.8593 10.6773 18.5479 12.3661 19.3452C14.0549 20.1425 15.4466 20.7876 15.4538 20.7803C15.4683 20.7658 15.5988 20.4904 15.7437 20.157C15.9177 19.7801 15.9974 19.5337 15.9539 19.4902C15.9177 19.4539 13.1779 18.1493 9.8728 16.5909C6.56043 15.0326 3.83516 13.7352 3.80616 13.7062C3.78442 13.6772 4.92237 13.1119 6.33574 12.445L8.91606 11.2274L12.3154 12.8292L15.7148 14.4238L19.1069 12.8292L22.5062 11.2346L25.2822 12.5393C26.8116 13.2641 28.3047 13.9599 28.5946 14.0976L29.1237 14.3368L29.4209 13.7279C29.6166 13.3365 29.7035 13.0901 29.6601 13.0466C29.6166 13.0104 28.3916 12.416 26.9275 11.7347C25.4562 11.0462 24.2602 10.4591 24.2602 10.4373C24.2602 10.4156 25.7606 9.69076 27.6016 8.82824C29.4354 7.96572 30.9357 7.23366 30.943 7.19742C30.943 7.12494 15.8235 -0.00716609 15.6858 8.19899e-05C15.635 8.19899e-05 12.2067 1.60191 8.06078 3.55164ZM21.6799 4.34893C24.9126 5.87102 27.5799 7.13219 27.6161 7.16118C27.6451 7.19017 25.1518 8.4006 22.0713 9.85022C18.9909 11.2998 16.3018 12.5682 16.0917 12.6697L15.7148 12.8509L9.72784 10.0242C5.7269 8.14692 3.76992 7.18293 3.83516 7.14669C4.09609 6.97998 15.6133 1.58741 15.7003 1.58741C15.7582 1.58741 18.4473 2.82683 21.6799 4.34893Z" fill="#123455"/>
<path d="M22.6002 13.4379C21.31 13.8003 20.2735 14.8296 19.8604 16.156C19.7952 16.3517 19.7372 16.9678 19.7154 17.7216L19.6719 18.961L19.1646 19.0045C18.3021 19.0769 17.744 19.4321 17.3526 20.1714C17.1931 20.4686 17.1931 20.5121 17.1714 24.3391C17.1496 28.8401 17.1351 28.7531 17.7729 29.391C18.4035 30.0288 18.1498 29.9998 23.6801 29.9998H28.5146L28.9567 29.7751C29.4206 29.5432 29.754 29.2025 29.9715 28.7169C30.0802 28.4632 30.0947 28.0863 30.0947 24.5275V20.6135L29.9207 20.2366C29.7323 19.809 29.2394 19.3161 28.848 19.1494C28.703 19.0914 28.3479 19.0262 28.058 19.0045L27.5361 18.961L27.5071 17.6491C27.4854 16.5256 27.4564 16.2792 27.3187 15.9023C26.9128 14.8078 26.0285 13.9236 24.934 13.5322C24.3759 13.3292 23.1583 13.2857 22.6002 13.4379ZM24.2237 14.8151C25.1008 15.0398 25.8111 15.7501 26.0358 16.6271C26.1082 16.9098 26.1445 17.3881 26.1445 18.0187V18.9827H23.6366H21.1288L21.1578 17.765C21.1795 16.6126 21.1868 16.5401 21.3825 16.1777C21.7594 15.4529 22.303 14.9963 23.0206 14.8078C23.4699 14.6846 23.7164 14.6846 24.2237 14.8151ZM28.4711 20.6425L28.6813 20.8527V24.4478C28.6813 26.557 28.6523 28.1081 28.6088 28.2168C28.4566 28.6299 28.5218 28.6299 23.5279 28.6082L18.9544 28.5864L18.7804 28.3835L18.6065 28.1805V24.484V20.7875L18.7877 20.6135L18.9616 20.4323H23.6076H28.2609L28.4711 20.6425Z" fill="#123455"/>
<path d="M23.3196 22.6066C22.4715 22.7588 21.8627 23.5706 21.9642 24.4331C22.0222 24.897 22.3121 25.3898 22.6745 25.629L22.9572 25.8175V26.4915V27.1729H23.6457H24.3343V26.5133V25.8537L24.6605 25.5638C25.1171 25.1579 25.2838 24.8027 25.2838 24.2374C25.2838 23.1574 24.3923 22.4181 23.3196 22.6066ZM23.8342 24.0997C23.9574 24.2519 23.8342 24.4548 23.6022 24.4548C23.4065 24.4548 23.3341 24.2519 23.4645 24.0924C23.5805 23.9547 23.711 23.9547 23.8342 24.0997Z" fill="#123455"/>
</g>
<defs>
<clipPath id="clip0_1807_3599">
<rect width="30" height="30" fill="white" transform="translate(0.679688)"/>
</clipPath>
</defs>
</svg>
