<svg width="31" height="31" viewBox="0 0 31 31" fill="none" xmlns="http://www.w3.org/2000/svg">
<g clip-path="url(#clip0_1877_5198)">
<path d="M6.33198 14.683C4.4128 14.683 2.85156 13.1359 2.85156 11.2349C2.85156 9.33369 4.4128 7.78662 6.33198 7.78662C8.25093 7.78662 9.81193 9.33345 9.81193 11.2349C9.81193 13.1361 8.25093 14.683 6.33198 14.683ZM6.33198 8.75436C4.94629 8.75436 3.8193 9.86717 3.8193 11.2349C3.8193 12.6024 4.94629 13.7152 6.33198 13.7152C7.71721 13.7152 8.84419 12.6024 8.84419 11.2349C8.84419 9.86717 7.71721 8.75436 6.33198 8.75436Z" fill="#123455"/>
<path d="M7.73282 24.23H1.66316C0.96571 24.23 0.398438 23.6663 0.398438 22.9733V21.3905C0.398438 18.1504 3.06044 15.5142 6.33271 15.5142C7.61964 15.5142 8.84468 15.9158 9.87432 16.6754C10.0893 16.8342 10.1352 17.1371 9.97639 17.3523C9.81762 17.5671 9.51496 17.6129 9.29973 17.4544C8.43759 16.8183 7.41173 16.4819 6.33271 16.4819C3.59416 16.4819 1.36618 18.6841 1.36618 21.3905V22.9733C1.36618 23.1325 1.49943 23.2622 1.66316 23.2622H7.73305C8.00003 23.2622 8.21692 23.4789 8.21692 23.7461C8.21692 24.0131 8.00003 24.23 7.73282 24.23Z" fill="#123455"/>
<path d="M29.133 23.8635H23.0634C22.7964 23.8635 22.5795 23.6469 22.5795 23.3797C22.5795 23.1127 22.7964 22.8958 23.0634 22.8958H29.1333C29.297 22.8958 29.4302 22.7663 29.4302 22.6071V21.0243C29.4302 18.3174 27.2023 16.1157 24.4637 16.1157C23.32 16.1157 22.2034 16.5095 21.3195 17.225C21.1121 17.3929 20.8075 17.361 20.639 17.1534C20.4711 16.9457 20.5027 16.6409 20.7109 16.4727C21.7663 15.6186 23.099 15.1479 24.4637 15.1479C27.7357 15.1479 30.3977 17.784 30.3977 21.0243V22.6071C30.3977 23.2998 29.8305 23.8635 29.133 23.8635Z" fill="#123455"/>
<path d="M24.4643 14.4437C22.5454 14.4437 20.9844 12.8969 20.9844 10.9957C20.9844 9.09443 22.5454 7.54736 24.4643 7.54736C26.3835 7.54736 27.9447 9.09419 27.9447 10.9957C27.9447 12.8971 26.3833 14.4437 24.4643 14.4437ZM24.4643 8.51511C23.0791 8.51511 21.9521 9.62791 21.9521 10.9957C21.9521 12.3634 23.0791 13.476 24.4643 13.476C25.85 13.476 26.977 12.3634 26.977 10.9957C26.977 9.62791 25.8498 8.51511 24.4643 8.51511Z" fill="#123455"/>
<path d="M21.9667 25.8045H8.83227C7.95974 25.8045 7.25 25.0999 7.25 24.2338V22.0077C7.25 17.5588 10.9055 13.9395 15.3995 13.9395C19.8935 13.9395 23.549 17.5588 23.549 22.0077V24.2338C23.549 25.0999 22.8392 25.8045 21.9667 25.8045ZM15.3995 14.9074C11.4395 14.9074 8.21774 18.0928 8.21774 22.0079V24.234C8.21774 24.5664 8.49346 24.8369 8.83227 24.8369H21.9665C22.3053 24.8369 22.581 24.5664 22.581 24.234V22.0079C22.5812 18.0928 19.3595 14.9074 15.3995 14.9074Z" fill="#123455"/>
<path d="M15.2298 13.3741C12.7642 13.3741 10.7578 11.3869 10.7578 8.9439C10.7578 6.50115 12.7639 4.51416 15.2298 4.51416C17.696 4.51416 19.7021 6.50139 19.7021 8.94413C19.7021 11.3871 17.6957 13.3741 15.2298 13.3741ZM15.2298 5.4819C13.2977 5.4819 11.7256 7.03511 11.7256 8.94413C11.7256 10.8534 13.2977 12.4066 15.2298 12.4066C17.1623 12.4066 18.7344 10.8534 18.7344 8.94413C18.7344 7.03511 17.1623 5.4819 15.2298 5.4819Z" fill="#123455"/>
</g>
<defs>
<clipPath id="clip0_1877_5198">
<rect width="30" height="30" fill="white" transform="translate(0.398438 0.15918)"/>
</clipPath>
</defs>
</svg>
