<svg width="19" height="19" viewBox="0 0 19 19" fill="none" xmlns="http://www.w3.org/2000/svg">
<g clip-path="url(#clip0_7025_6246)">
<path d="M12.2117 15.2095C12.6792 15.6771 12.3481 16.4765 11.6868 16.4765H2.96875C1.32912 16.4765 0 15.1474 0 13.5078V5.49218C0 5.26271 0.0262375 5.03919 0.0758132 4.82465C0.206566 4.25786 0.912223 4.0584 1.32361 4.46979C1.50452 4.6507 1.57889 4.91177 1.52177 5.1611C1.49727 5.26764 1.48437 5.37839 1.48437 5.49218V6.46152H3.15632C3.35303 6.46152 3.54191 6.53965 3.68107 6.67896C4.14856 7.14645 3.81748 7.9414 3.15632 7.9414H1.48437V13.5078C1.48437 14.3275 2.14901 14.9922 2.96875 14.9922H11.6868C11.8837 14.9922 12.0726 15.0703 12.2117 15.2095ZM17.5156 9.80136V7.94589H8.99554L16.0415 14.9919C16.8553 14.9862 17.5156 14.3228 17.5156 13.5078C17.5156 13.0979 17.8479 12.7656 18.2578 12.7656C18.6677 12.7656 19 13.0979 19 13.5078C19 14.7069 18.2849 15.7415 17.2592 16.2095L18.7825 17.7329C19.0725 18.0228 19.0725 18.4928 18.7825 18.7825C18.6377 18.9275 18.4478 19 18.2578 19C18.0679 19 17.8779 18.9275 17.733 18.7825L0.217438 1.26694C-0.0724792 0.977164 -0.0724792 0.507209 0.217438 0.217438C0.507209 -0.0724792 0.977164 -0.0724792 1.26694 0.217438L3.57308 2.52343H16.0312C17.6682 2.52343 19 3.85517 19 5.49218V9.80136C19 10.2113 18.6677 10.5435 18.2578 10.5435C17.8479 10.5435 17.5156 10.2113 17.5156 9.80136ZM17.5156 6.46152V5.49218C17.5156 4.6736 16.8497 4.00781 16.0312 4.00781H5.05745L7.51116 6.46152H17.5156Z" fill="#1BFF9C"/>
</g>
<defs>
<clipPath id="clip0_7025_6246">
<rect width="19" height="19" fill="white"/>
</clipPath>
</defs>
</svg>
