<svg width="30" height="31" viewBox="0 0 30 31" fill="none" xmlns="http://www.w3.org/2000/svg">
<g clip-path="url(#clip0_370_25358)">
<path d="M23.8579 12.2551H23.8158C23.2404 12.2519 22.6845 12.4634 22.2565 12.848C21.91 11.8892 21.0296 11.2 19.9983 11.2C19.3663 11.2044 18.7626 11.4639 18.3247 11.92C17.922 11.1049 17.1143 10.5519 16.1856 10.5519H16.1407C15.643 10.5443 15.1573 10.7062 14.7635 11.0107V5.19953C14.7635 3.79521 13.6702 2.65283 12.3403 2.65283C11.0118 2.65283 9.92415 3.79447 9.92341 5.19781L9.91232 16.7276L9.25982 15.9351C8.68764 15.2227 7.8454 14.7804 6.93415 14.7136C6.04164 14.6525 5.16366 14.963 4.5082 15.5721L3.94046 16.0425C3.75737 16.1943 3.70513 16.4531 3.81478 16.664L9.33473 27.2744C10.344 29.2134 12.2644 30.4231 14.3463 30.4231H20.5671V30.4176C23.7212 30.4176 26.2785 27.6807 26.2817 24.3201C26.2829 22.8165 26.2772 21.6958 26.2782 20.7875C26.2814 18.3574 26.279 17.4606 26.2728 14.7833C26.2696 13.3822 25.1841 12.2551 23.8579 12.2551ZM25.2615 20.784C25.2605 21.6926 25.2591 22.8177 25.2576 24.3213C25.2549 27.1263 23.1374 29.4135 20.5375 29.4135H14.3466C12.6424 29.4135 11.0651 28.4118 10.2304 26.8082L4.89827 16.562L5.16144 16.3424C5.1681 16.337 5.1745 16.3306 5.18091 16.3249C5.63357 15.8989 6.24271 15.6801 6.86294 15.7207C7.49696 15.7693 8.08195 16.0792 8.47844 16.5763L10.0232 18.4559C10.1582 18.6208 10.3825 18.6826 10.5831 18.6109C10.7836 18.5392 10.9177 18.349 10.9177 18.1361L10.9268 5.1983C10.9273 4.35112 11.568 3.6619 12.3407 3.6619C13.1135 3.6619 13.7542 4.35186 13.7542 5.19953V13.0003C13.7542 13.0274 13.7529 13.0547 13.7529 13.0823C13.7529 13.0942 13.7542 13.1062 13.7542 13.1178V16.4531C13.7542 16.7318 13.9801 16.9577 14.2588 16.9577C14.5375 16.9577 14.7635 16.7318 14.7635 16.4531V13.0173C14.7635 12.1999 15.3879 11.5612 16.1407 11.5612H16.1856C16.9588 11.5612 17.6022 12.2352 17.6022 13.0828V16.1347C17.6022 16.4134 17.8282 16.6393 18.1069 16.6393C18.3855 16.6393 18.6115 16.4134 18.6115 16.1347V13.7403C18.6115 12.8924 19.2241 12.2026 20.0015 12.2026C20.7745 12.2026 21.3871 12.8921 21.3871 13.7403V15.9992C21.3871 16.2779 21.6131 16.5038 21.8918 16.5038C22.1705 16.5038 22.3964 16.2779 22.3964 15.9992V14.776C22.3964 13.928 23.0425 13.2644 23.8158 13.2644H23.8579C24.6292 13.2644 25.2578 13.9394 25.2598 14.7846C25.2659 17.4599 25.2647 18.3556 25.2615 20.784Z" fill="#123455"/>
<path d="M8.32009 5.41719C8.59878 5.41719 8.82475 5.19123 8.82475 4.91253C8.83288 2.9868 10.3964 1.4302 12.3219 1.4302C14.2476 1.4302 15.8109 2.9868 15.819 4.91253C15.819 5.19123 16.045 5.41719 16.3236 5.41719C16.6023 5.41719 16.8283 5.19123 16.8283 4.91253C16.8189 2.43015 14.8043 0.422852 12.3219 0.422852C9.83973 0.422852 7.82479 2.43015 7.81543 4.91253C7.81543 5.19123 8.04139 5.41719 8.32009 5.41719Z" fill="#123455"/>
</g>
<defs>
<clipPath id="clip0_370_25358">
<rect width="30" height="30" fill="white" transform="translate(0 0.422852)"/>
</clipPath>
</defs>
</svg>
