<svg width="30" height="31" viewBox="0 0 30 31" fill="none" xmlns="http://www.w3.org/2000/svg">
<path d="M11.5893 9.80029H10.926C9.73419 9.80029 8.76465 10.7701 8.76465 11.9619V18.6612C8.76465 19.853 9.73419 20.8228 10.926 20.8228H11.5893C12.7811 20.8228 13.7508 19.853 13.7508 18.6612V11.9619C13.7508 10.7701 12.7811 9.80029 11.5893 9.80029ZM12.8133 18.6612C12.8133 19.3362 12.2643 19.8853 11.5893 19.8853H10.926C10.2512 19.8853 9.70215 19.3362 9.70215 18.6612V11.9619C9.70215 11.2869 10.2512 10.7378 10.926 10.7378H11.5893C12.2643 10.7378 12.8133 11.2869 12.8133 11.9619V18.6612Z" fill="#123455"/>
<path d="M18.7422 9.80029C18.6214 9.80029 18.5024 9.80899 18.3866 9.8257C17.6457 9.93167 17.0169 10.4137 16.7045 11.1154C16.3694 11.8678 16.4408 12.722 16.8956 13.3999L19.8102 17.7455C20.08 18.1478 20.1235 18.677 19.9235 19.1263C19.7404 19.5376 19.3909 19.8084 18.9652 19.8695C18.8924 19.8798 18.818 19.8853 18.7422 19.8853C17.8844 19.8853 17.1865 19.1874 17.1865 18.3296C17.1865 18.0707 16.9766 17.8608 16.7178 17.8608C16.4589 17.8608 16.249 18.0707 16.249 18.3296C16.249 19.7042 17.3676 20.8228 18.7422 20.8228C18.8629 20.8228 18.9816 20.8141 19.0979 20.7974C19.8388 20.6914 20.4675 20.2092 20.78 19.5076C21.1151 18.7551 21.0434 17.9011 20.5889 17.2232L17.6743 12.8776C17.4042 12.4752 17.3609 11.9461 17.561 11.4968C17.7441 11.0855 18.0934 10.8147 18.5193 10.7536C18.5921 10.7433 18.6667 10.7378 18.7422 10.7378C19.5999 10.7378 20.2977 11.4357 20.2977 12.2935C20.2977 12.5524 20.5076 12.7623 20.7665 12.7623C21.0253 12.7623 21.2352 12.5524 21.2352 12.2935C21.2352 10.9188 20.1169 9.80029 18.7422 9.80029Z" fill="#123455"/>
<path d="M15 1.24902C7.24594 1.24902 0.9375 7.55746 0.9375 15.3115C0.9375 23.0656 7.24594 29.374 15 29.374C22.7541 29.374 29.0625 23.0656 29.0625 15.3115C29.0625 7.55746 22.7541 1.24902 15 1.24902ZM15 28.4365C7.76276 28.4365 1.875 22.5488 1.875 15.3115C1.875 8.07428 7.76276 2.18652 15 2.18652C22.2372 2.18652 28.125 8.07428 28.125 15.3115C28.125 22.5488 22.2372 28.4365 15 28.4365Z" fill="#123455"/>
</svg>
