<svg xmlns="http://www.w3.org/2000/svg" width="30" height="31" fill="none" xmlns:v="https://vecta.io/nano"><g clip-path="url(#A)" fill="#123455"><path d="M26.789 8.585c-.122-.22-.399-.3-.619-.178s-.3.398-.178.619a12.64 12.64 0 0 1-2.1 15.019c-3.459 3.459-8.644 4.575-13.191 2.93l1.795-.614a.454.454 0 1 0-.295-.858l-2.864.98a.47.47 0 0 0-.267.244.46.46 0 0 0-.005.361l1.186 2.789c.075.174.244.277.417.277a.38.38 0 0 0 .178-.038c.23-.098.338-.366.239-.595l-.727-1.702c1.495.544 3.056.816 4.612.816 3.516 0 6.984-1.364 9.563-3.942 4.247-4.247 5.17-10.87 2.255-16.106zM6.11 6.255C9.574 2.791 14.754 1.68 19.301 3.33l-1.786.609a.45.45 0 0 0-.281.577c.066.188.239.309.431.309a.52.52 0 0 0 .145-.023l2.864-.98a.47.47 0 0 0 .267-.244.46.46 0 0 0 .005-.361L19.76.433c-.098-.23-.366-.337-.595-.239s-.337.366-.239.595l.727 1.706C14.768.71 9.195 1.9 5.473 5.622 1.221 9.855.298 16.474 3.213 21.71c.084.15.239.234.398.234a.47.47 0 0 0 .22-.056.45.45 0 0 0 .173-.619A12.63 12.63 0 0 1 6.11 6.255zM23.928 20.43a.454.454 0 1 0 0-.909h-.998v-9.202a.45.45 0 0 0-.455-.455h-2.189a.45.45 0 0 0-.455.455v9.202h-1.158v-7.537a.45.45 0 0 0-.455-.455H16.03a.45.45 0 0 0-.455.455v7.537h-1.158v-5.466a.45.45 0 0 0-.455-.455h-2.189a.45.45 0 0 0-.455.455v5.461H10.16v-3.384a.45.45 0 0 0-.455-.455H7.517a.45.45 0 0 0-.455.455v3.389h-.998a.454.454 0 1 0 0 .909h17.864zm-3.183-9.656h1.28v8.747h-1.28v-8.747zm-4.256 1.664h1.28v7.083h-1.28v-7.083zm-4.256 2.072h1.28v5.006h-1.28V14.51zm-4.256 2.076h1.28v2.934h-1.28v-2.934z"/></g><defs><clipPath id="A"><path fill="#fff" transform="translate(0 .147)" d="M0 0h30v30H0z"/></clipPath></defs></svg>