<svg xmlns="http://www.w3.org/2000/svg" width="31" height="31" fill="none" xmlns:v="https://vecta.io/nano"><g clip-path="url(#A)" fill="#123455"><path d="M28.805 1.696H15.112a.441.441 0 1 0 0 .882h13.693c.547 0 .992.445.992.992v18.89c0 .547-.445.992-.992.992H15.112a.441.441 0 0 0 0 .882h3.781v1.536h-3.781a.441.441 0 0 0 0 .882h3.935l.45 1.023h-4.385-4.898a.441.441 0 1 0 0 .882h4.898 5.06 1.094a.441.441 0 1 0 0-.882h-.806l-.685-1.557v-1.884h9.029c1.033 0 1.874-.841 1.874-1.874V3.57c0-1.033-.841-1.874-1.874-1.874zM15.113 20.038a.441.441 0 1 0 0 .882h13.362a.44.44 0 0 0 .441-.441V3.901a.44.44 0 0 0-.441-.441h-1.376a.441.441 0 1 0 0 .882h.935v15.696h-12.92zM25.219 3.46H15.113a.441.441 0 1 0 0 .882h10.106a.441.441 0 1 0 0-.882zm-9.524 19.273c.323 0 .586-.262.586-.586s-.262-.586-.586-.586-.586.262-.586.586.262.586.586.586zm-5.154 2.046a.82.82 0 0 0 .817.817h1.792a.441.441 0 0 0 0-.882h-1.727v-1.268a.44.44 0 0 0-.367-.435 9.41 9.41 0 0 1-3.906-1.618.44.44 0 0 0-.567.048l-.897.897-1.748-1.748.897-.897a.44.44 0 0 0 .048-.567 9.41 9.41 0 0 1-1.618-3.906.44.44 0 0 0-.435-.367H1.562v-2.472H2.83a.44.44 0 0 0 .435-.367 9.41 9.41 0 0 1 1.618-3.906.44.44 0 0 0-.048-.567l-.897-.897 1.748-1.748.897.897a.44.44 0 0 0 .567.048 9.41 9.41 0 0 1 3.906-1.618.44.44 0 0 0 .367-.435V2.519h1.727a.441.441 0 1 0 0-.882h-1.792a.82.82 0 0 0-.817.817v.968c-1.274.264-2.503.774-3.593 1.489l-.685-.684a.81.81 0 0 0-.578-.239.81.81 0 0 0-.578.239l-1.84 1.84a.82.82 0 0 0 0 1.156l.684.684c-.715 1.09-1.224 2.319-1.489 3.593h-.968a.82.82 0 0 0-.817.817v2.602a.82.82 0 0 0 .817.817h.968c.264 1.274.774 2.503 1.489 3.593l-.684.684a.82.82 0 0 0 0 1.156l1.84 1.84a.81.81 0 0 0 .578.239.81.81 0 0 0 .578-.239l.684-.684a10.45 10.45 0 0 0 3.593 1.488v.968zm2.116-18.336a.441.441 0 1 0 0-.882 8.07 8.07 0 0 0-8.056 8.056 8.01 8.01 0 0 0 1.404 4.544.44.44 0 1 0 .728-.498c-.817-1.194-1.249-2.593-1.249-4.046 0-3.956 3.218-7.174 7.174-7.174zM7.345 19.67a8.05 8.05 0 0 0 5.314 2.002.441.441 0 1 0 0-.882c-1.743 0-3.424-.633-4.732-1.783a.441.441 0 1 0-.582.663zM25.37 7.635v-1.06a.79.79 0 0 0-.787-.787h-1.06a.79.79 0 0 0-.787.787v.089h-3.779a.44.44 0 0 0-.312.129l-1.969 1.969h-6.464a.441.441 0 1 0 0 .882h6.646a.44.44 0 0 0 .312-.129l1.969-1.969h3.596v.089a.79.79 0 0 0 .787.787h1.06a.79.79 0 0 0 .787-.787zm-.882-.095h-.869v-.87h.869v.869zM23.3 13.107h.858a.79.79 0 0 0 .787-.787v-.858a.79.79 0 0 0-.787-.787H23.3a.79.79 0 0 0-.783.72h-1.979a.44.44 0 0 0-.312.129l-1.362 1.362H10.69a.441.441 0 1 0 0 .882h8.356a.44.44 0 0 0 .312-.129l1.362-1.362h1.793v.042a.79.79 0 0 0 .787.787zm.095-1.549h.667v.667h-.667v-.667zm2.026 4.52h-.857c-.43 0-.779.346-.786.774h-1.79l-1.362-1.362a.44.44 0 0 0-.312-.129h-8.17a.441.441 0 1 0 0 .882h7.987l1.362 1.362a.44.44 0 0 0 .312.129h1.973c.007.428.356.774.786.774h.858a.79.79 0 0 0 .787-.787v-.858a.79.79 0 0 0-.787-.787zm-.095 1.549h-.667v-.667h.667v.667zm-8.161-5.892a.441.441 0 1 0 0-.882h-6.028a.441.441 0 1 0 0 .882h6.028z"/></g><defs><clipPath id="A"><path fill="#fff" transform="translate(.68 .147)" d="M0 0h30v30H0z"/></clipPath></defs></svg>