<svg xmlns="http://www.w3.org/2000/svg" width="30" height="30" fill="#123455" fill-rule="evenodd" xmlns:v="https://vecta.io/nano"><path d="M14.909 3.662A11.31 11.31 0 0 0 3.6 14.971 11.31 11.31 0 0 0 14.909 26.28a11.31 11.31 0 0 0 11.309-11.309A11.31 11.31 0 0 0 14.909 3.662zM2.117 14.971c0-7.065 5.727-12.792 12.792-12.792s12.792 5.727 12.792 12.792-5.727 12.792-12.792 12.792S2.117 22.036 2.117 14.971zm14.616 6.021a.74.74 0 0 0 .051-1.047l-3.348-3.692h.889c1.825 0 3.304-1.479 3.304-3.304a3.29 3.29 0 0 0-.547-1.821h1.603a.742.742 0 1 0 0-1.483h-7.553a.742.742 0 1 0 0 1.483h3.193a1.821 1.821 0 1 1 0 3.642h-2.563a.74.74 0 0 0-.549 1.24l4.473 4.932a.74.74 0 0 0 1.048.051z"/><path d="M10.391 12.949a.74.74 0 0 0 .742.742h7.553a.74.74 0 1 0 0-1.483h-7.553a.74.74 0 0 0-.742.742z"/></svg>