<svg width="30" height="30" viewBox="0 0 30 30" fill="none" xmlns="http://www.w3.org/2000/svg">
<g clip-path="url(#clip0_2273_4259)">
<path d="M24.0193 15.5143C23.7806 15.4704 23.5516 15.6285 23.5078 15.8672C23.4641 16.1059 23.6221 16.3349 23.8608 16.3787C26.3446 16.8341 28.1473 18.9987 28.1473 21.5256C28.1473 24.0655 26.3282 26.1882 23.9246 26.6601C23.9199 26.6609 23.9151 26.6612 23.9103 26.6621C23.5801 26.7259 23.245 26.7583 22.9146 26.7583C20.0292 26.7583 17.6817 24.4109 17.6817 21.5256C17.6817 18.9658 19.5253 16.8266 21.9683 16.3787C22.2071 16.3349 22.3651 16.1059 22.3213 15.8672C22.2775 15.6285 22.0482 15.4703 21.8098 15.5143C20.4092 15.7711 19.1949 16.4941 18.3124 17.5045L15.58 16.4462V14.9212C16.5702 14.1631 17.253 13.0239 17.408 11.7245C18.5848 11.6723 19.4611 10.7307 19.4611 9.61117C19.4611 9.09244 19.2705 8.59768 18.9317 8.21576V6.28703C18.9318 2.82086 16.112 0.000976562 12.6459 0.000976562C9.17984 0.000976562 6.3599 2.82086 6.3599 6.28697V8.26562C6.01725 8.64432 5.83074 9.11348 5.83074 9.61111C5.83074 10.7294 6.7052 11.6721 7.88357 11.7244C8.03797 13.032 8.72814 14.2186 9.81512 14.9948V16.4462L3.63969 18.8403C3.63693 18.8414 3.63418 18.8425 3.63143 18.8436C3.52273 18.8883 0.96875 19.9726 0.96875 22.9577V29.0055C0.96875 29.5544 1.41529 30.001 1.96426 30.001C2.23672 30.001 23.1529 30.001 23.4425 30.001C23.9888 30.001 24.4332 29.5566 24.4332 29.0103V27.4464C27.071 26.7694 29.0263 24.3716 29.0263 21.5257C29.0263 18.5744 26.9205 16.0462 24.0193 15.5143ZM16.8655 17.8865L15.2823 21.0593C15.2609 21.0441 14.8637 20.7619 13.3339 19.6755C14.4572 18.289 14.081 18.7533 15.2805 17.2727L16.8655 17.8865ZM13.8313 21.107L13.3787 21.7882H12.0201L11.5675 21.107L12.6994 20.3031L13.8313 21.107ZM10.6941 16.5874V15.4905C11.288 15.746 11.9924 15.8951 12.7082 15.8951C13.3979 15.8951 14.0809 15.7441 14.7012 15.4546V16.5916L12.6993 19.0626L10.6941 16.5874ZM18.1571 10.5396C17.9573 10.7114 17.7114 10.8138 17.4428 10.8405V8.38211C18.5684 8.49109 18.9613 9.84795 18.1571 10.5396ZM7.84918 10.8405C7.17348 10.7736 6.70977 10.2324 6.70977 9.61117C6.70977 8.98826 7.25059 8.50023 7.84918 8.40209V10.8405ZM7.86354 7.51398C7.65875 7.53268 7.41529 7.59314 7.23887 7.66188V6.28697C7.23887 3.30555 9.66441 0.879941 12.6458 0.879941C15.6272 0.879941 18.0529 3.30549 18.0529 6.28697V7.62332C17.859 7.55436 17.6544 7.51258 17.4428 7.50004C17.4428 6.97188 17.507 7.12217 15.9758 5.47943C15.8534 5.34807 15.7098 5.15535 15.406 5.09154C15.1948 5.04713 14.968 5.08481 14.7755 5.21061C13.0486 6.33871 10.8815 6.97199 8.79986 6.83559C8.29115 6.80201 7.94193 7.09129 7.86354 7.51398ZM8.72815 11.1606C8.72815 10.7925 8.72815 8.09377 8.72815 7.71197C10.9644 7.86174 13.3239 7.19975 15.2272 5.96529C16.0214 6.81859 16.4486 7.26145 16.5639 7.40998C16.5639 11.7938 16.5649 11.0137 16.5614 11.257C16.5102 13.3287 14.8118 15.0162 12.7082 15.0162C10.3679 15.0162 8.72815 13.2119 8.72815 11.1606ZM10.1156 17.2738L12.0626 19.677C11.4283 20.1275 10.4463 20.8251 10.1163 21.0595L8.53314 17.8867L10.1156 17.2738ZM5.91611 29.1221V23.8946C5.91611 23.6519 5.71941 23.4551 5.47666 23.4551C5.23391 23.4551 5.03721 23.6519 5.03721 23.8946V29.1221H1.96426C1.89998 29.1221 1.84771 29.0697 1.84771 29.0055V22.9578C1.84771 20.5935 3.84471 19.7081 3.96295 19.6578L7.70979 18.2052L9.35803 21.5085C9.35803 21.5085 9.35803 21.5085 9.35809 21.5086C9.46584 21.7245 9.66189 21.8819 9.89598 21.9404C10.3243 22.0475 10.5794 21.8087 10.8504 21.6162L11.322 22.326L10.1718 29.1221H5.91611ZM19.4861 29.122H15.227L14.8325 26.7913C14.7921 26.5521 14.566 26.3911 14.3259 26.4313C14.0866 26.4718 13.9255 26.6987 13.966 26.938L14.3356 29.122H11.0633L12.1558 22.6671H13.2431L13.6188 24.887C13.6593 25.1263 13.8858 25.2875 14.1255 25.247C14.3648 25.2065 14.5259 24.9797 14.4854 24.7404L14.0768 22.326L14.5484 21.6162L14.8251 21.8127C15.2379 22.106 15.8148 21.9611 16.0406 21.5086C16.0407 21.5086 16.0407 21.5086 16.0407 21.5086L17.6888 18.2055L17.7638 18.2345C17.1529 19.1903 16.8029 20.328 16.8029 21.5257C16.8029 23.626 17.8679 25.4822 19.4862 26.5827L19.4861 29.122ZM23.5544 29.0103C23.5544 29.072 23.5043 29.1221 23.4426 29.1221H20.3651V27.0795C21.1415 27.4374 22.0051 27.6375 22.9147 27.6375C23.1307 27.6375 23.3441 27.6261 23.5544 27.6041L23.5544 29.0103Z" fill="#123455"/>
<path d="M24.9921 20.227C24.8226 20.0532 24.5445 20.0496 24.3706 20.219L22.6428 21.9031L21.919 21.1937C21.7457 21.0238 21.4674 21.0265 21.2975 21.1999C21.1276 21.3732 21.1304 21.6515 21.3037 21.8214L22.3343 22.8314C22.4197 22.9151 22.5308 22.957 22.6419 22.957C22.7526 22.957 22.8633 22.9155 22.9487 22.8323L24.984 20.8484C25.1579 20.679 25.1614 20.4008 24.9921 20.227Z" fill="#123455"/>
<path d="M22.9175 16.96C20.3998 16.96 18.3516 19.0082 18.3516 21.5259C18.3516 24.0435 20.3998 26.0918 22.9175 26.0918C25.4351 26.0918 27.4834 24.0435 27.4834 21.5259C27.4834 19.0082 25.4351 16.96 22.9175 16.96ZM22.9175 25.2128C20.8845 25.2128 19.2305 23.5588 19.2305 21.5258C19.2305 19.4929 20.8845 17.8389 22.9175 17.8389C24.9504 17.8389 26.6044 19.4929 26.6044 21.5258C26.6044 23.5588 24.9504 25.2128 22.9175 25.2128Z" fill="#123455"/>
</g>
<defs>
<clipPath id="clip0_2273_4259">
<rect width="30" height="30" fill="white" transform="translate(0 0.000976562)"/>
</clipPath>
</defs>
</svg>
