<svg xmlns="http://www.w3.org/2000/svg" width="31" height="31" fill="#123455" xmlns:v="https://vecta.io/nano"><path d="M24.868 18.75v-1.868c.39.184.766.396 1.125.635a.47.47 0 0 0 .654-.125.47.47 0 0 0-.13-.653c-.522-.344-1.074-.64-1.649-.886V7.961a.47.47 0 0 0-.236-.407L15.91 2.563c-.071-.039-.152-.059-.233-.059a.49.49 0 0 0-.233.059L6.722 7.554a.47.47 0 0 0-.235.432l.413 7.71-.355.136c-2.574 1.109-3.991 2.657-3.991 4.357 0 3.073 5.027 5.082 9.862 5.705l-1.048 1.1a.47.47 0 0 0 .022.656.47.47 0 0 0 .657-.01l1.75-1.837a.47.47 0 0 0 0-.647l-1.75-1.836a.47.47 0 0 0-.656-.009.47.47 0 0 0-.022.656l.915.96c-7.41-.983-12.518-4.955-5.33-8.248l.083 1.546c.006.077.031.152.071.218s.096.122.162.162c.098.036 2.336 1.415 2.376 1.3a.47.47 0 0 0 .235-.875l-1.41-.815 7.202-3.832 7.711 4.33-7.685 3.675-4.196-2.422a.47.47 0 0 0-.634.175.47.47 0 0 0 .166.637l4.41 2.545a.47.47 0 0 0 .437.017c.013-.009 8.727-4.167 8.735-4.181.075-.04.139-.099.183-.172a.49.49 0 0 0 .071-.241zm-.937-.801l-7.785-4.371V6.611a.47.47 0 0 0-.469-.469.47.47 0 0 0-.469.469v6.96l-7.276 3.871-.494-9.218 7.77-4.446v.959a.47.47 0 0 0 .469.469.47.47 0 0 0 .469-.469v-.959l7.785 4.455v9.716zm3.435.064a.47.47 0 0 0-.165.495.47.47 0 0 0 .082.164c2.272 3.14-2.739 5.444-8.202 6.251l.907-.952a.47.47 0 0 0-.022-.656.47.47 0 0 0-.656.009l-1.75 1.836a.47.47 0 0 0 0 .647l1.75 1.837a.47.47 0 0 0 .657.01.47.47 0 0 0 .022-.656l-1.054-1.106c4.838-.62 9.868-2.627 9.868-5.703.066-.513-.588-2.741-1.436-2.174z"/></svg>