<svg xmlns="http://www.w3.org/2000/svg" width="31" height="30" fill="none" xmlns:v="https://vecta.io/nano"><g clip-path="url(#A)"><path fill-rule="evenodd" d="M16.698 12.387a1.19 1.19 0 0 0-1.69 0 1.19 1.19 0 0 0 0 1.69 1.19 1.19 0 0 0 1.69 0 1.19 1.19 0 0 0 0-1.69zm-.845-2.98c1.378 0 2.626.559 3.53 1.462s1.462 2.151 1.462 3.53-.559 2.626-1.462 3.53-2.151 1.462-3.53 1.462-2.626-.559-3.53-1.462-1.462-2.151-1.462-3.53.559-2.626 1.462-3.53 2.151-1.462 3.53-1.462zm3.176 7.805a3.68 3.68 0 0 0-1.242-1.285c-.56-.349-1.223-.551-1.934-.551s-1.373.202-1.934.551a3.68 3.68 0 0 0-1.242 1.285l.176.187a4.23 4.23 0 0 0 6.001 0l.176-.187zm-6.825-.648c-.377-.634-.594-1.375-.594-2.166a4.23 4.23 0 0 1 4.243-4.243 4.23 4.23 0 0 1 4.243 4.243c0 .791-.216 1.532-.594 2.166-.347-.511-.797-.945-1.321-1.271a4.39 4.39 0 0 0-1.16-.508c.073-.055.141-.115.206-.179a1.94 1.94 0 0 0 0-2.749 1.94 1.94 0 0 0-2.749 0 1.94 1.94 0 0 0 0 2.749c.064.064.133.124.206.179a4.39 4.39 0 0 0-1.16.508c-.524.326-.974.76-1.321 1.271h0zm5.308-11.047c.061 0 .117.025.158.066s.066.097.066.158v1.238c0 .18.128.331.298.366l.643.233.65.307c.148.079.326.048.439-.065l.001.001.875-.875c.043-.043.101-.065.159-.065s.115.022.159.065l2.346 2.346c.043.043.065.101.065.159s-.022.115-.065.159l-.875.875c-.127.127-.144.324-.049.469l.291.621.243.675c.049.161.197.265.357.265v.002h1.237c.061 0 .117.025.158.066s.066.097.066.158v3.317c0 .061-.025.117-.066.158s-.097.066-.158.066h-1.237c-.181 0-.331.128-.367.298l-.233.643-.307.651c-.079.148-.048.326.065.439l-.001.001.876.875c.043.043.065.101.065.159s-.022.115-.065.159l-2.346 2.346c-.043.043-.101.065-.159.065s-.115-.022-.159-.065l-.875-.875c-.127-.127-.324-.144-.469-.049l-.621.291-.675.243c-.161.049-.265.197-.265.357h-.002v1.238c0 .061-.025.117-.066.158s-.097.066-.158.066h-3.317c-.061 0-.117-.025-.158-.066s-.066-.097-.066-.158v-1.238c0-.181-.128-.331-.298-.366l-.643-.233-.65-.307c-.148-.079-.326-.048-.439.065l-.001-.001-.875.875c-.043.043-.101.065-.159.065s-.115-.022-.159-.065L8.4 19.506c-.043-.043-.065-.101-.065-.159s.022-.115.065-.159l.875-.875c.127-.127.144-.324.049-.469l-.291-.621-.243-.675c-.049-.161-.197-.265-.357-.265v-.002H7.196c-.061 0-.117-.025-.158-.066s-.066-.097-.066-.158V12.74c0-.061.025-.117.066-.158s.097-.066.158-.066h1.237c.18 0 .331-.128.366-.298l.233-.643.307-.65c.079-.148.048-.326-.065-.439l.001-.001-.875-.875c-.043-.043-.065-.101-.065-.159s.022-.115.065-.159l2.346-2.346c.043-.043.101-.065.159-.065s.115.022.159.065l.875.875c.127.127.324.144.469.049l.621-.291.676-.243c.161-.049.265-.197.265-.357h.002V5.741c0-.061.025-.117.066-.158s.097-.066.158-.066h3.317 0zm-3.317-.749h3.317a.97.97 0 0 1 .973.973v.966l.479.18.466.212.684-.684a.97.97 0 0 1 1.376 0l2.346 2.346a.97.97 0 0 1 0 1.376l-.684.684.211.466.181.48h.966a.97.97 0 0 1 .973.973v3.317a.97.97 0 0 1-.973.973h-.966l-.18.479-.212.466.684.684a.97.97 0 0 1 0 1.376l-2.346 2.346a.97.97 0 0 1-1.376 0l-.684-.684-.466.211-.479.181v.966a.97.97 0 0 1-.973.973h-3.317a.97.97 0 0 1-.973-.973v-.966l-.479-.18-.466-.212-.684.684a.97.97 0 0 1-1.376 0l-2.346-2.346a.97.97 0 0 1 0-1.376l.684-.683-.211-.466-.181-.48h-.966a.97.97 0 0 1-.973-.973V12.74a.97.97 0 0 1 .973-.973h.966l.18-.479.212-.466-.684-.684a.97.97 0 0 1 0-1.376l2.346-2.346a.97.97 0 0 1 1.376 0l.684.684.466-.211.48-.181v-.966a.97.97 0 0 1 .973-.973h0zm1.875 23.445c.207-.055.392-.19.508-.389h0c.115-.199.138-.427.083-.634-.054-.2-.181-.38-.37-.496-.015-.008-.03-.016-.044-.026-.193-.103-.411-.122-.61-.069s-.38.181-.496.37c-.008.015-.016.029-.026.044-.103.193-.122.411-.069.61s.181.38.37.497c.013.006.026.014.038.022.195.106.415.126.616.072h0zm1.154-.015a1.58 1.58 0 0 1-2.163.579h0a1.58 1.58 0 0 1-.737-.961l-.027-.12c-3.294-.382-6.223-1.958-8.342-4.284-2.086-2.29-3.389-5.306-3.483-8.625l-.698.804c-.135.156-.37.173-.526.038s-.173-.37-.038-.526l1.361-1.568c.134-.154.366-.172.522-.042l1.572 1.364c.156.135.173.37.038.526s-.37.173-.526.038l-.96-.833a12.59 12.59 0 0 0 3.291 8.32 12.61 12.61 0 0 0 7.831 4.041 1.59 1.59 0 0 1 .145-.334l.001-.001h-.001a1.58 1.58 0 0 1 .961-.738c.389-.104.818-.06 1.196.156l.006.003v-.001a1.58 1.58 0 0 1 .579 2.163h0zM27.709 7.304c-.151-.151-.36-.245-.591-.245s-.44.094-.591.245-.245.36-.245.591.094.44.245.591.36.245.591.245.44-.094.591-.245.245-.36.245-.591-.093-.44-.245-.591zm-.591-.993a1.58 1.58 0 0 0-1.584 1.584 1.58 1.58 0 0 0 1.584 1.584 1.59 1.59 0 0 0 .365-.042 12.56 12.56 0 0 1 .72 2.255 12.7 12.7 0 0 1 .29 2.707 12.58 12.58 0 0 1-1.837 6.568c-1.07 1.755-2.555 3.23-4.319 4.286L22.579 24c.039-.203-.094-.398-.297-.437s-.398.094-.437.297l-.395 2.038c-.039.203.094.398.297.437l2.038.395c.203.039.398-.094.437-.297s-.094-.398-.297-.437l-1.043-.202c1.797-1.111 3.311-2.635 4.411-4.439 1.236-2.029 1.948-4.41 1.948-6.956a13.43 13.43 0 0 0-.308-2.865c-.184-.843-.448-1.658-.784-2.436l.089-.082a1.58 1.58 0 0 0 0-2.24 1.58 1.58 0 0 0-1.12-.464h0zM3.781 7.678c-.055.207-.032.435.083.634h-.001v.001c.115.199.3.333.508.388s.435.032.634-.083h0c.2-.115.334-.301.39-.508s.032-.435-.083-.634-.301-.334-.508-.39-.435-.032-.634.083v-.001l-.004.002c-.197.115-.33.3-.386.507zM3.238 8.72a1.58 1.58 0 0 0 2.115.56c.018-.009.036-.019.053-.03a1.58 1.58 0 0 0 .554-2.147v-.001a1.59 1.59 0 0 0-.216-.292 12.7 12.7 0 0 1 4.315-3.649c1.735-.897 3.705-1.403 5.796-1.403 1.24 0 2.436.178 3.565.509a12.56 12.56 0 0 1 2.594 1.09l-1.205.416c-.195.067-.298.279-.231.474s.279.298.474.231l1.937-.669a.37.37 0 0 0 .201-.137l.005-.006h0c.068-.095.091-.22.05-.339l-.677-1.962c-.067-.195-.279-.298-.474-.231s-.298.279-.231.474l.347 1.005a13.31 13.31 0 0 0-2.58-1.062 13.39 13.39 0 0 0-3.775-.541 13.33 13.33 0 0 0-6.138 1.488C7.9 3.436 6.328 4.777 5.116 6.402l-.118-.037a1.58 1.58 0 0 0-1.174.143.37.37 0 0 0-.061.036 1.58 1.58 0 0 0-.561 2.115c.01.021.022.042.036.061h0z" fill="#123455" stroke="#123455" stroke-width=".3"/></g><defs><clipPath id="A"><path fill="#fff" transform="translate(.18)" d="M0 0h30v30H0z"/></clipPath></defs></svg>