<svg xmlns="http://www.w3.org/2000/svg" width="30" height="30" fill="#123455" stroke="#123455" stroke-width=".3" xmlns:v="https://vecta.io/nano"><path d="M15.57 2.421l.683-.683a.47.47 0 0 0 0-.663.47.47 0 0 0-.663 0l-1.469 1.469a.47.47 0 0 0 0 .663l1.469 1.469a.47.47 0 0 0 .663 0 .47.47 0 0 0 0-.663l-.653-.654c6.557.311 11.796 5.742 11.796 12.374a.47.47 0 0 0 .469.469.47.47 0 0 0 .469-.469c0-7.159-5.675-13.016-12.763-13.312h0zM4.806 20.182a.47.47 0 0 0-.574.331l-.239.893C.983 15.573 3.067 8.32 8.811 5.004a.47.47 0 0 0 .172-.64.47.47 0 0 0-.64-.172c-6.2 3.58-8.434 11.423-5.147 17.709l-.933-.25a.47.47 0 0 0-.574.331.47.47 0 0 0 .331.574l2.007.538a.47.47 0 0 0 .574-.331l.538-2.007a.47.47 0 0 0-.332-.574zm22.066 1.38c-.067-.25-.323-.399-.574-.331l-2.006.538a.47.47 0 0 0-.331.574.47.47 0 0 0 .574.331l.892-.239a12.41 12.41 0 0 1-16.614 4.029.47.47 0 0 0-.64.172.47.47 0 0 0 .172.64 13.24 13.24 0 0 0 6.641 1.783c4.433 0 8.751-2.217 11.268-6.186l.252.939a.47.47 0 0 0 .574.331.47.47 0 0 0 .331-.574l-.538-2.006zM9.845 22.804l1.002-1.002a7.85 7.85 0 0 0 2.276.94v1.419a.47.47 0 0 0 .469.469h2.813a.47.47 0 0 0 .469-.469v-1.419c.808-.194 1.571-.509 2.275-.94l1.002 1.002a.47.47 0 0 0 .331.137c.124 0 .244-.049.331-.137l1.989-1.989a.47.47 0 0 0 .137-.331c0-.124-.049-.244-.137-.331L21.8 19.15a7.85 7.85 0 0 0 .94-2.276h1.419a.47.47 0 0 0 .469-.469v-2.812a.47.47 0 0 0-.469-.469H22.74a7.86 7.86 0 0 0-.94-2.276l1.002-1.002a.47.47 0 0 0 .137-.331c0-.124-.049-.244-.137-.331l-1.989-1.989c-.176-.176-.488-.175-.663 0l-1.002 1.002c-.705-.431-1.468-.746-2.275-.94V5.838a.47.47 0 0 0-.469-.469h-2.812a.47.47 0 0 0-.469.469v1.419a7.86 7.86 0 0 0-2.276.94L9.845 7.195a.47.47 0 0 0-.331-.137c-.124 0-.244.049-.331.137l-1.99 1.989a.47.47 0 0 0-.137.331c0 .124.049.244.137.331l1.002 1.002a7.85 7.85 0 0 0-.94 2.276H5.836a.47.47 0 0 0-.469.469v2.812a.47.47 0 0 0 .469.469h1.419a7.87 7.87 0 0 0 .94 2.276l-1.002 1.002a.47.47 0 0 0-.137.331c0 .124.049.244.137.331l1.989 1.989c.176.176.487.176.663 0zm-.72-3.258a.47.47 0 0 0 .056-.595 6.96 6.96 0 0 1-1.088-2.632.47.47 0 0 0-.46-.381H6.305v-1.875h1.329a.47.47 0 0 0 .46-.381c.181-.952.547-1.838 1.088-2.632a.47.47 0 0 0-.056-.595l-.938-.937 1.326-1.326.938.938a.47.47 0 0 0 .595.056 6.96 6.96 0 0 1 2.632-1.088.47.47 0 0 0 .381-.46v-1.33h1.875v1.329a.47.47 0 0 0 .381.46 6.95 6.95 0 0 1 2.632 1.088.47.47 0 0 0 .595-.056l.938-.938 1.326 1.326-.938.937a.47.47 0 0 0-.056.595 6.95 6.95 0 0 1 1.087 2.632.47.47 0 0 0 .46.381h1.329v1.875H22.36a.47.47 0 0 0-.46.381 6.96 6.96 0 0 1-1.087 2.632.47.47 0 0 0 .056.595l.938.938-1.326 1.326-.937-.938a.47.47 0 0 0-.595-.056 6.95 6.95 0 0 1-2.632 1.087.47.47 0 0 0-.381.46v1.329H14.06v-1.329a.47.47 0 0 0-.381-.46c-.952-.181-1.837-.547-2.632-1.087a.47.47 0 0 0-.595.056l-.938.938-1.326-1.326.938-.937zm5.875.61c2.843 0 5.156-2.313 5.156-5.156S17.843 9.844 15 9.844 9.844 12.157 9.844 15s2.313 5.156 5.156 5.156zm0-9.375c2.326 0 4.219 1.893 4.219 4.219S17.326 19.219 15 19.219 10.781 17.326 10.781 15s1.893-4.219 4.219-4.219z"/></svg>