<svg width="31" height="31" viewBox="0 0 31 31" fill="none" xmlns="http://www.w3.org/2000/svg">
<g clip-path="url(#clip0_370_35296)">
<path d="M9.33605 3.0559H21.6643C21.9071 3.0559 22.1039 2.85908 22.1039 2.61633C22.1039 2.37357 21.9071 2.17676 21.6643 2.17676H9.33605C9.0933 2.17676 8.89648 2.37357 8.89648 2.61633C8.89648 2.85908 9.0933 3.0559 9.33605 3.0559Z" fill="#123455"/>
<path d="M25.7774 0.311523C25.1763 0.311523 5.52947 0.311523 5.22285 0.311523C4.32889 0.311523 3.60156 1.03885 3.60156 1.93281V28.6902C3.60156 29.5842 4.32889 30.3115 5.22285 30.3115H25.7774C26.6713 30.3115 27.3987 29.5842 27.3987 28.6902V1.93281C27.3987 1.03885 26.6714 0.311523 25.7774 0.311523ZM7.88025 1.19061H23.1201V4.02584C23.1201 4.03814 23.1101 4.04811 23.0978 4.04811H7.90252C7.89021 4.04811 7.88025 4.03814 7.88025 4.02584V1.19061ZM23.12 29.4324H21.6643V28.0891C21.6643 27.8464 21.4675 27.6496 21.2247 27.6496C20.982 27.6496 20.7852 27.8464 20.7852 28.0891V29.4324H18.802V28.0891C18.802 27.8464 18.6052 27.6496 18.3625 27.6496C18.1197 27.6496 17.9229 27.8464 17.9229 28.0891V29.4324H15.9397V28.0891C15.9397 27.8464 15.7429 27.6496 15.5001 27.6496C15.2574 27.6496 15.0606 27.8464 15.0606 28.0891V29.4324H13.0773V28.0891C13.0773 27.8464 12.8805 27.6496 12.6378 27.6496C12.395 27.6496 12.1982 27.8464 12.1982 28.0891V29.4324H10.215V28.0891C10.215 27.8464 10.0182 27.6496 9.77541 27.6496C9.53266 27.6496 9.33584 27.8464 9.33584 28.0891V29.4324H7.88014V26.5911C7.88014 26.5788 7.8901 26.5688 7.9024 26.5688H23.0977C23.11 26.5688 23.12 26.5788 23.12 26.5911L23.12 29.4324ZM26.5196 28.6902C26.5196 29.0995 26.1866 29.4324 25.7774 29.4324H23.9991V26.5911C23.9991 26.0941 23.5947 25.6898 23.0978 25.6898H7.90252C7.40553 25.6898 7.00117 26.0941 7.00117 26.5911V29.4324H5.22285C4.81363 29.4324 4.48064 29.0995 4.48064 28.6902V1.93281C4.48064 1.52359 4.81357 1.19061 5.22285 1.19061H7.00111V4.02584C7.00111 4.52283 7.40547 4.92719 7.90246 4.92719H23.0978C23.5947 4.92719 23.9991 4.52283 23.9991 4.02584V1.19061H25.7774C26.1866 1.19061 26.5196 1.52354 26.5196 1.93281V28.6902Z" fill="#123455"/>
<path d="M23.5595 20.195C23.3168 20.195 23.12 20.3918 23.12 20.6345V21.4188C23.12 21.6094 22.965 21.7643 22.7745 21.7643H8.22565C8.0351 21.7643 7.88012 21.6093 7.88012 21.4188V12.3409C7.88012 12.0982 7.6833 11.9014 7.44055 11.9014C7.19779 11.9014 7.00098 12.0982 7.00098 12.3409V21.4188C7.00098 22.094 7.55029 22.6434 8.22559 22.6434H22.7745C23.4497 22.6434 23.9991 22.094 23.9991 21.4188V20.6345C23.999 20.3918 23.8023 20.195 23.5595 20.195Z" fill="#123455"/>
<path d="M22.7744 7.97998H8.22559C7.55035 7.97998 7.00098 8.5293 7.00098 9.20459V10.2857C7.00098 10.5285 7.19779 10.7253 7.44055 10.7253C7.6833 10.7253 7.88012 10.5285 7.88012 10.2857V9.20459C7.88012 9.01404 8.0351 8.85906 8.22564 8.85906H22.7744C22.965 8.85906 23.1199 9.01404 23.1199 9.20459V18.5792C23.1199 18.822 23.3168 19.0188 23.5595 19.0188C23.8022 19.0188 23.999 18.822 23.999 18.5792V9.20453C23.999 8.5293 23.4496 7.97998 22.7744 7.97998Z" fill="#123455"/>
<path d="M19.8198 12.8755H18.6963C18.4534 12.8755 18.2564 13.0728 18.2568 13.3158V13.3186V13.319V17.2173C18.2568 17.5428 18.4693 17.7212 18.7043 17.7212H18.706C18.7399 17.7211 19.5406 17.718 19.8603 17.7125C21.0197 17.6922 21.8612 16.6769 21.8612 15.2983C21.8612 13.8492 21.0408 12.8755 19.8198 12.8755ZM19.8449 16.8337C19.6844 16.8365 19.3913 16.8387 19.1422 16.8402C19.1407 16.3713 19.1386 15.6488 19.1386 15.294C19.1386 14.9979 19.1373 14.2418 19.1365 13.7544H19.8198C20.6769 13.7544 20.9823 14.552 20.9823 15.2984C20.9823 16.0282 20.6263 16.82 19.8449 16.8337Z" fill="#123455"/>
<path d="M11.5107 14.9183C10.9971 14.7289 10.5198 14.5223 10.3857 14.4635C10.1529 14.285 10.2024 13.8673 10.6268 13.7395C11.2417 13.5541 11.8044 14.0019 11.8178 14.0127C12.0036 14.1671 12.2794 14.1427 12.435 13.9575C12.5911 13.7717 12.5671 13.4945 12.3813 13.3383C12.3439 13.3069 11.4537 12.5725 10.3732 12.8979C9.09877 13.2818 9.1167 14.8602 9.99028 15.2497C10.0138 15.2603 10.5747 15.5099 11.2064 15.7429C12.254 16.1292 11.7145 16.9028 11.0036 16.9028C10.5775 16.9028 10.1667 16.7303 9.90473 16.4412C9.74178 16.2615 9.46387 16.2477 9.28399 16.4107C9.10416 16.5737 9.09051 16.8516 9.25346 17.0314C9.67926 17.5012 10.3335 17.7817 11.0036 17.7817C12.7397 17.7817 13.4497 15.6335 11.5107 14.9183Z" fill="#123455"/>
<path d="M16.0028 14.9183C15.4893 14.7289 15.0121 14.5223 14.8778 14.4635C14.6451 14.2849 14.6945 13.8673 15.119 13.7394C15.7337 13.5544 16.2961 14.0016 16.3099 14.0127C16.4957 14.1671 16.7715 14.1426 16.9271 13.9575C17.0833 13.7717 17.0593 13.4945 16.8735 13.3383C16.8361 13.3069 15.9458 12.5725 14.8655 12.8979C13.598 13.2797 13.6027 14.8574 14.4824 15.2497C14.506 15.2603 15.0668 15.5099 15.6986 15.7429C16.7462 16.1292 16.2067 16.9028 15.4957 16.9028C15.0697 16.9028 14.6589 16.7303 14.3969 16.4412C14.234 16.2614 13.9561 16.2477 13.7762 16.4107C13.5964 16.5737 13.5827 16.8516 13.7457 17.0314C14.1715 17.5013 14.8257 17.7818 15.4958 17.7818C17.2319 17.7817 17.9419 15.6335 16.0028 14.9183Z" fill="#123455"/>
</g>
<defs>
<clipPath id="clip0_370_35296">
<rect width="30" height="30" fill="white" transform="translate(0.5 0.311523)"/>
</clipPath>
</defs>
</svg>
