<svg xmlns="http://www.w3.org/2000/svg" width="30" height="31" fill="none" xmlns:v="https://vecta.io/nano"><g clip-path="url(#A)" fill="#123455"><path d="M28.385 8.585c-.014-.965-.748-1.786-1.708-1.91-5.489-.709-9.307-3.798-10.693-5.093-.594-.554-1.523-.554-2.115 0-1.387 1.295-5.205 4.384-10.694 5.093-.96.124-1.694.945-1.708 1.91-.06 4.325.722 18.681 13.288 21.822a.7.7 0 0 0 .341 0C27.663 27.266 28.445 12.91 28.385 8.585zM14.926 28.999C3.527 26.02 2.818 12.648 2.874 8.605c.004-.27.211-.5.481-.535 5.894-.762 9.987-4.072 11.473-5.46.028-.026.063-.038.098-.038s.07.013.098.038c1.486 1.388 5.579 4.698 11.473 5.46.271.035.479.265.482.535.056 4.043-.652 17.415-12.052 20.394zm-3.604-13.08c-.135-.147-.289-.273-.462-.379a5.19 5.19 0 0 0-.529-.283l-.529-.236a3.62 3.62 0 0 1-.465-.239c-.137-.084-.246-.181-.327-.291a.63.63 0 0 1-.122-.387.76.76 0 0 1 .054-.285.6.6 0 0 1 .166-.231c.074-.064.167-.114.278-.15a1.26 1.26 0 0 1 .389-.054c.19 0 .365.023.524.07a2.84 2.84 0 0 1 .42.156l.306.158c.083.049.143.073.181.073s.069-.01.091-.031.039-.053.051-.098a.94.94 0 0 0 .026-.171l.008-.254-.005-.225a1.01 1.01 0 0 0-.018-.15.4.4 0 0 0-.031-.096.4.4 0 0 0-.07-.088c-.034-.035-.105-.078-.213-.13a2.57 2.57 0 0 0-.368-.14c-.138-.041-.287-.074-.446-.098s-.318-.037-.477-.037a3.14 3.14 0 0 0-.874.119c-.275.08-.514.2-.716.361a1.74 1.74 0 0 0-.482.607c-.12.244-.179.526-.179.848 0 .28.041.521.125.721a1.78 1.78 0 0 0 .324.521 2.15 2.15 0 0 0 .454.379 4.79 4.79 0 0 0 .524.283l.524.236a3.45 3.45 0 0 1 .454.239c.133.084.241.181.324.291a.63.63 0 0 1 .125.391.86.86 0 0 1-.073.358.71.71 0 0 1-.21.27 1.01 1.01 0 0 1-.335.168 1.54 1.54 0 0 1-.446.059c-.253 0-.475-.029-.667-.086s-.357-.12-.495-.189l-.34-.189c-.088-.057-.157-.086-.205-.086a.15.15 0 0 0-.09.029c-.026.019-.047.051-.062.096a.82.82 0 0 0-.034.176 2.91 2.91 0 0 0-.01.27 1.76 1.76 0 0 0 .029.366.39.39 0 0 0 .096.195c.045.045.118.097.22.156a2.33 2.33 0 0 0 .381.168 3.66 3.66 0 0 0 .527.137 3.44 3.44 0 0 0 .646.057c.342 0 .664-.045.965-.135a2.33 2.33 0 0 0 .789-.402 1.93 1.93 0 0 0 .534-.667 2.07 2.07 0 0 0 .197-.929 1.82 1.82 0 0 0-.125-.703 1.81 1.81 0 0 0-.327-.518zm5.49 0a2.15 2.15 0 0 0-.462-.379 4.99 4.99 0 0 0-.529-.283l-.529-.236a3.62 3.62 0 0 1-.465-.239c-.137-.084-.246-.181-.327-.291a.63.63 0 0 1-.122-.387.76.76 0 0 1 .054-.285.6.6 0 0 1 .166-.231.8.8 0 0 1 .277-.15c.11-.036.24-.054.389-.054a1.86 1.86 0 0 1 .524.07 2.88 2.88 0 0 1 .42.156l.307.158c.082.049.143.073.181.073s.068-.01.09-.031.04-.053.052-.098a.99.99 0 0 0 .026-.171l.008-.254-.006-.225c-.004-.06-.01-.111-.018-.15a.4.4 0 0 0-.031-.096.39.39 0 0 0-.069-.088c-.034-.035-.106-.078-.213-.13a2.56 2.56 0 0 0-.368-.14 3.3 3.3 0 0 0-.446-.098 3.15 3.15 0 0 0-.478-.037 3.14 3.14 0 0 0-.874.119c-.275.08-.514.2-.716.361a1.74 1.74 0 0 0-.482.607 1.91 1.91 0 0 0-.179.848c0 .28.041.521.125.721a1.78 1.78 0 0 0 .324.521c.133.147.284.273.454.379a4.79 4.79 0 0 0 .524.283l.524.236c.169.075.321.154.454.239s.241.181.324.291a.63.63 0 0 1 .125.391.86.86 0 0 1-.073.358.71.71 0 0 1-.21.27c-.091.072-.203.128-.335.168a1.54 1.54 0 0 1-.446.059c-.253 0-.475-.029-.667-.086s-.357-.12-.495-.189l-.34-.189c-.088-.057-.157-.086-.205-.086a.15.15 0 0 0-.09.029c-.026.019-.047.051-.062.096a.77.77 0 0 0-.034.176 2.91 2.91 0 0 0-.01.27 1.76 1.76 0 0 0 .029.366.39.39 0 0 0 .096.195c.045.045.118.097.22.156a2.33 2.33 0 0 0 .381.168c.152.053.328.099.527.137a3.44 3.44 0 0 0 .646.057 3.35 3.35 0 0 0 .965-.135c.301-.09.564-.224.789-.402a1.91 1.91 0 0 0 .534-.667 2.07 2.07 0 0 0 .198-.929c0-.27-.042-.504-.125-.703a1.77 1.77 0 0 0-.327-.518zm5.599 2.23a.21.21 0 0 0-.065-.093.15.15 0 0 0-.091-.029h-2.111v-5.4c0-.035-.011-.066-.034-.093a.24.24 0 0 0-.111-.068 1.11 1.11 0 0 0-.208-.042c-.087-.01-.197-.016-.332-.016l-.33.016a1.08 1.08 0 0 0-.21.042c-.052.017-.089.04-.111.068s-.034.059-.034.093v6.096c0 .152.039.262.117.329a.42.42 0 0 0 .288.101h3.076a.14.14 0 0 0 .091-.031.23.23 0 0 0 .065-.101.81.81 0 0 0 .039-.176c.009-.071.013-.159.013-.262a2.28 2.28 0 0 0-.013-.262.8.8 0 0 0-.04-.171z"/></g><defs><clipPath id="A"><path fill="#fff" transform="translate(0 .938)" d="M0 0h30v30H0z"/></clipPath></defs></svg>