<svg width="30" height="30" viewBox="0 0 30 30" fill="none" xmlns="http://www.w3.org/2000/svg">
<g clip-path="url(#clip0_857_1941)">
<path d="M29.5605 26.3029H27.6515V10.3031C27.6515 9.28381 26.8223 8.45459 25.803 8.45459H20.1669C19.9242 8.45459 19.7274 8.65135 19.7274 8.89404C19.7274 9.13674 19.9242 9.3335 20.1669 9.3335H25.803C26.3377 9.3335 26.7726 9.7685 26.7726 10.3031V26.303H25.2684C25.2911 26.1371 25.303 25.9701 25.303 25.8031C25.303 23.7479 23.6309 22.0758 21.5757 22.0758C21.2994 22.0758 21.0234 22.1073 20.7514 22.1699C20.2773 21.2563 19.3328 20.6666 18.2879 20.6666C17.947 20.6666 17.6159 20.7288 17.3041 20.8496C17.1761 19.6915 16.1916 18.7878 15 18.7878C13.8084 18.7878 12.8239 19.6915 12.6959 20.8496C12.3841 20.7288 12.053 20.6666 11.7121 20.6666C10.6672 20.6666 9.72264 21.2563 9.24855 22.1699C8.9765 22.1073 8.70064 22.0758 8.42432 22.0758C6.36902 22.0758 4.69699 23.7479 4.69699 25.8031C4.69699 25.9701 4.70889 26.1371 4.73156 26.303H3.2274V10.3031C3.2274 9.76844 3.66234 9.3335 4.19701 9.3335H9.83332C10.076 9.3335 10.2728 9.13674 10.2728 8.89404C10.2728 8.65135 10.076 8.45459 9.83332 8.45459H4.19701C3.17771 8.45459 2.3485 9.28387 2.3485 10.3031V26.303H0.439453C0.196758 26.303 0 26.4998 0 26.7425V27.6818C0 28.4422 0.618574 29.0607 1.37883 29.0607H28.6212C29.3815 29.0607 30 28.4421 30 27.6818V26.7425C30 26.4997 29.8032 26.3029 29.5605 26.3029ZM29.1211 27.6818C29.1211 27.9575 28.8968 28.1818 28.6212 28.1818H1.37883C1.10314 28.1818 0.878906 27.9575 0.878906 27.6818V27.1819H6.54533C6.78803 27.1819 6.98479 26.9852 6.98479 26.7425C6.98479 26.4998 6.78803 26.303 6.54533 26.303H5.62084C5.59102 26.1374 5.57584 25.9701 5.57584 25.8031C5.57584 24.2325 6.85365 22.9547 8.42426 22.9547C8.73709 22.9547 9.05033 23.0082 9.35531 23.1138C9.46576 23.1521 9.58682 23.1447 9.69188 23.0935C9.79688 23.0423 9.87715 22.9513 9.915 22.8408C10.1799 22.0661 10.9021 21.5456 11.7122 21.5456C12.1564 21.5456 12.5783 21.7028 12.9323 22.0003C13.0818 22.1259 13.2961 22.1378 13.4586 22.0296C13.6211 21.9214 13.6927 21.719 13.6344 21.5327C13.5841 21.3718 13.5607 21.2363 13.5607 21.1062C13.5607 20.3125 14.2064 19.6669 15 19.6669C15.7936 19.6669 16.4393 20.3126 16.4393 21.1062C16.4393 21.2363 16.4159 21.3718 16.3656 21.5327C16.3073 21.719 16.379 21.9214 16.5414 22.0296C16.7039 22.1378 16.9182 22.1259 17.0677 22.0003C17.4217 21.7029 17.8437 21.5456 18.2878 21.5456C19.0979 21.5456 19.8201 22.0661 20.085 22.8408C20.1229 22.9513 20.2031 23.0423 20.3081 23.0935C20.4132 23.1448 20.5343 23.1521 20.6447 23.1138C20.9497 23.0082 21.2629 22.9547 21.5757 22.9547C23.1464 22.9547 24.4242 24.2325 24.4242 25.8031C24.4242 25.9701 24.4089 26.1374 24.3792 26.303H8.42443C8.18174 26.303 7.98498 26.4998 7.98498 26.7425C7.98498 26.9852 8.18174 27.1819 8.42443 27.1819H29.1211V27.6818Z" fill="#123455"/>
<path d="M9.35227 13.8571C9.076 14.1886 8.92383 14.6089 8.92383 15.0405V16.4092C8.92383 16.5654 9.0068 16.7099 9.14168 16.7887C9.21012 16.8286 9.2867 16.8486 9.36328 16.8486C9.43775 16.8486 9.51223 16.8298 9.57926 16.7919L12.7087 15.0261C12.828 15.2438 12.9544 15.458 13.088 15.6683L12.6946 17.242C12.6617 17.3733 12.6912 17.5123 12.7745 17.619C12.8578 17.7257 12.9855 17.7881 13.1209 17.7881H16.8785C17.0138 17.7881 17.1415 17.7257 17.2249 17.619C17.3081 17.5124 17.3377 17.3733 17.3048 17.242L16.9114 15.6683C17.0449 15.458 17.1714 15.2439 17.2906 15.0261L20.4201 16.7919C20.4872 16.8298 20.5616 16.8486 20.6361 16.8486C20.7127 16.8486 20.7892 16.8286 20.8577 16.7887C20.9926 16.7099 21.0755 16.5654 21.0755 16.4092V15.0405C21.0755 14.6089 20.9234 14.1886 20.6471 13.8571L18.5609 11.3545C18.6708 10.7017 18.727 10.0362 18.727 9.36374C18.727 7.76114 18.4168 6.21204 17.8049 4.75956C17.2147 3.3587 16.3747 2.11593 15.308 1.06575C15.137 0.897354 14.8625 0.897354 14.6914 1.06575C13.6248 2.11587 12.7847 3.35864 12.1946 4.75956C11.5827 6.2121 11.2724 7.76114 11.2724 9.36374C11.2724 10.0351 11.3285 10.6997 11.438 11.3515L9.35227 13.8571ZM9.80273 15.6566V15.0405C9.80273 14.8141 9.88254 14.5937 10.0274 14.4198L11.6746 12.4432C11.8392 13.0589 12.0531 13.6594 12.3154 14.2389L9.80273 15.6566ZM13.6837 16.9091L13.9337 15.9092H16.0656L16.3155 16.9091H13.6837ZM19.9717 14.4198C20.1166 14.5937 20.1964 14.8141 20.1964 15.0405V15.6566L17.6838 14.2388C17.946 13.6593 18.16 13.0589 18.3246 12.4431L19.9717 14.4198ZM14.9996 2.00923C15.7376 2.80253 16.3462 3.71214 16.8088 4.69704H13.1903C13.6529 3.71214 14.2616 2.80253 14.9996 2.00923ZM12.8241 5.57589H17.175C17.6144 6.77384 17.8479 8.05815 17.8479 9.36368C17.8479 11.3845 17.3043 13.3383 16.2734 15.0303H13.7257C12.6948 13.3383 12.1512 11.3845 12.1512 9.36368C12.1512 8.05815 12.3848 6.7739 12.8241 5.57589Z" fill="#123455"/>
<path d="M16.8494 8.89393C16.8494 7.87463 16.0202 7.04541 15.0009 7.04541C13.9816 7.04541 13.1523 7.87469 13.1523 8.89393C13.1523 9.91316 13.9816 10.7424 15.0009 10.7424C16.0202 10.7424 16.8494 9.91322 16.8494 8.89393ZM14.0312 8.89393C14.0312 8.35926 14.4662 7.92432 15.0009 7.92432C15.5355 7.92432 15.9705 8.35932 15.9705 8.89393C15.9705 9.42853 15.5355 9.86354 15.0009 9.86354C14.4662 9.86354 14.0312 9.42859 14.0312 8.89393Z" fill="#123455"/>
</g>
<defs>
<clipPath id="clip0_857_1941">
<rect width="30" height="30" fill="white"/>
</clipPath>
</defs>
</svg>
