<svg width="30" height="31" viewBox="0 0 30 31" fill="none" xmlns="http://www.w3.org/2000/svg">
<g clip-path="url(#clip0_656_8768)">
<path d="M27.8928 13.9518C27.778 10.6795 26.4528 7.61947 24.1259 5.2926C21.687 2.85322 18.4456 1.51025 14.9994 1.51025C8.03891 1.51025 2.35156 7.05041 2.10641 13.9518C1.04422 14.4238 0.300781 15.487 0.300781 16.7226V20.1267C0.300781 21.7982 1.66063 23.1585 3.33266 23.1585C4.41453 23.1585 5.29438 22.2787 5.29438 21.1968V15.652C5.29438 14.6362 4.51531 13.8079 3.52484 13.7095C3.89047 7.69682 8.89578 2.9165 14.9994 2.9165C18.0706 2.9165 20.9586 4.11369 23.1322 6.28729C25.1281 8.28322 26.2962 10.8848 26.472 13.7099C25.4825 13.8093 24.7048 14.6371 24.7048 15.652V21.1963C24.7048 22.2206 25.4961 23.054 26.4983 23.1407V24.5418C26.4983 26.1196 25.2144 27.4031 23.6366 27.4031H21.5173C21.4133 27.1059 21.2502 26.8312 21.0214 26.6034C20.6206 26.2007 20.0863 25.979 19.5172 25.979H17.3328C17.0192 25.979 16.7183 26.0456 16.4427 26.174C15.6908 26.5195 15.2052 27.2779 15.2052 28.1062C15.2052 28.6753 15.4269 29.2096 15.8286 29.6095C16.2303 30.0121 16.7647 30.2338 17.3328 30.2338H19.5172C20.4228 30.2338 21.2211 29.6484 21.5188 28.8093H23.6366C25.9902 28.8093 27.9045 26.8949 27.9045 24.5418V22.8904C28.9602 22.4156 29.698 21.3562 29.698 20.1257V16.7217C29.698 15.487 28.9545 14.4238 27.8928 13.9518ZM3.88766 15.652V21.1963C3.88766 21.5024 3.63875 21.7518 3.33219 21.7518C2.43594 21.7518 1.70656 21.0224 1.70656 20.1262V16.7221C1.70656 15.8254 2.43594 15.0965 3.33219 15.0965C3.63875 15.0965 3.88766 15.3459 3.88766 15.652ZM20.2227 28.2571C20.1528 28.5881 19.8556 28.8285 19.5167 28.8285H17.3323C17.1402 28.8285 16.9597 28.7535 16.8219 28.6157C16.6859 28.4803 16.6109 28.2993 16.6109 28.1071C16.6109 27.8263 16.7755 27.5699 17.0333 27.4513C17.1252 27.4082 17.2259 27.3862 17.3323 27.3862H19.5167C19.7089 27.3862 19.8894 27.4607 20.0267 27.5985C20.1627 27.734 20.2377 27.9149 20.2377 28.1071C20.2381 28.1587 20.2325 28.2103 20.2227 28.2571ZM28.2917 20.1262C28.2917 21.0224 27.5623 21.7518 26.6661 21.7518C26.36 21.7518 26.1106 21.5029 26.1106 21.1963V15.652C26.1106 15.3459 26.3595 15.0965 26.6661 15.0965C27.5623 15.0965 28.2917 15.8259 28.2917 16.7221V20.1262Z" fill="#123455"/>
<path d="M19.5521 20.3684C21.1951 20.3684 22.5315 19.0315 22.5315 17.389V11.3182C22.5315 10.5242 22.2212 9.77605 21.6577 9.21262C21.0943 8.64918 20.3466 8.33887 19.5521 8.33887H10.4462C8.8032 8.33887 7.4668 9.67527 7.4668 11.3182V17.389C7.4668 19.032 8.8032 20.3684 10.4462 20.3684H10.502V21.9415C10.502 22.5415 10.8596 23.074 11.4127 23.2986C11.5913 23.3703 11.777 23.4059 11.9607 23.4059C12.3437 23.4059 12.7168 23.254 12.9901 22.9714L15.6071 20.3684H19.5521ZM14.822 19.1665L11.9898 21.9832C11.9771 21.9964 11.9677 22.0062 11.941 21.9945C11.9087 21.9814 11.9087 21.9603 11.9087 21.9415V19.6653C11.9087 19.2771 11.5941 18.9621 11.2055 18.9621H10.4466C9.57898 18.9621 8.87352 18.2562 8.87352 17.389V11.3182C8.87352 10.4506 9.57898 9.74512 10.4466 9.74512H19.5526C19.9716 9.74512 20.3659 9.90918 20.664 10.2068C20.9621 10.505 21.1257 10.8996 21.1257 11.3182V17.389C21.1257 18.2567 20.4198 18.9621 19.5526 18.9621H15.3179C15.1318 18.9621 14.9537 19.0357 14.822 19.1665Z" fill="#123455"/>
<path d="M11.5842 13.4287C11.0123 13.4287 10.5469 13.8946 10.5469 14.4661C10.5469 15.0375 11.0128 15.5034 11.5842 15.5034C12.1566 15.5034 12.6225 15.0375 12.6225 14.4661C12.6225 13.8946 12.157 13.4287 11.5842 13.4287Z" fill="#123455"/>
<path d="M14.9983 13.4287C14.4264 13.4287 13.9609 13.8946 13.9609 14.4661C13.9609 15.0375 14.4269 15.5034 14.9983 15.5034C15.5711 15.5034 16.0366 15.0375 16.0366 14.4661C16.0366 13.8946 15.5711 13.4287 14.9983 13.4287Z" fill="#123455"/>
<path d="M18.4143 13.4287C17.8424 13.4287 17.377 13.8946 17.377 14.4661C17.377 15.0375 17.8429 15.5034 18.4143 15.5034C18.9866 15.5034 19.4526 15.0375 19.4526 14.4661C19.4526 13.8946 18.9866 13.4287 18.4143 13.4287Z" fill="#123455"/>
</g>
<defs>
<clipPath id="clip0_656_8768">
<rect width="30" height="30" fill="white" transform="translate(0 0.87207)"/>
</clipPath>
</defs>
</svg>
