<svg xmlns="http://www.w3.org/2000/svg" width="31" height="30" fill="none" xmlns:v="https://vecta.io/nano"><g clip-path="url(#A)" fill="#123455"><path d="M2.134 12.377a1.4 1.4 0 0 0-1.165 1.207 12.94 12.94 0 0 0-.003 2.81 1.41 1.41 0 0 0 1.169 1.233l1.591.261a12.29 12.29 0 0 0 1.526 3.678l-.936 1.308c-.373.506-.364 1.198.022 1.694a13.42 13.42 0 0 0 .95 1.045l1.054.959c.492.378 1.175.386 1.676.019l1.314-.943c1.134.705 2.375 1.221 3.675 1.527l.261 1.594a1.4 1.4 0 0 0 1.207 1.165l.866.067h.043a1.02 1.02 0 0 0 .7-.28.99.99 0 0 0 .306-.719v-4.007c-.003-.535-.426-.974-.96-.997a9.01 9.01 0 0 1 0-17.99c.536-.023.959-.464.96-1V1.001a.99.99 0 0 0-.307-.719.99.99 0 0 0-.74-.281l-.875.062c-.616.079-1.106.557-1.2 1.171l-.261 1.592a12.29 12.29 0 0 0-3.675 1.528l-1.314-.941a1.4 1.4 0 0 0-1.688.027c-.363.297-.709.612-1.039.945a12.09 12.09 0 0 0-.959 1.055 1.4 1.4 0 0 0-.024 1.682l.942 1.316a12.28 12.28 0 0 0-1.524 3.678l-1.592.261zm2.496.279c.291-1.412.848-2.756 1.643-3.959a.5.5 0 0 0-.012-.567l-1.14-1.592a.4.4 0 0 1-.008-.473 11.02 11.02 0 0 1 .88-.968 12.51 12.51 0 0 1 .955-.872.4.4 0 0 1 .485 0l1.59 1.141a.5.5 0 0 0 .567.011 11.31 11.31 0 0 1 3.956-1.644.5.5 0 0 0 .393-.409l.314-1.925c.023-.173.155-.31.327-.339a12.67 12.67 0 0 1 .809-.058l-.011 4.005a10.01 10.01 0 0 0-9.496 9.999 10.01 10.01 0 0 0 9.507 9.988l-.007 4.007a11.27 11.27 0 0 1-.797-.062.39.39 0 0 1-.332-.334l-.315-1.927a.5.5 0 0 0-.393-.409 11.31 11.31 0 0 1-3.956-1.644.5.5 0 0 0-.567.011l-1.591 1.142c-.136.105-.324.111-.466.012l-.973-.886a12.64 12.64 0 0 1-.872-.954c-.108-.144-.108-.342 0-.486l1.139-1.591a.5.5 0 0 0 .011-.566 11.32 11.32 0 0 1-1.643-3.959.5.5 0 0 0-.409-.393l-1.925-.316c-.179-.03-.317-.175-.336-.355-.094-.86-.093-1.728.003-2.587.025-.173.161-.308.333-.333l1.924-.315a.5.5 0 0 0 .409-.394zm24.764.845a1.5 1.5 0 0 0-1.408 1H16.394v-1.5h8a1.5 1.5 0 0 0 1.5-1.5V8.909a1.5 1.5 0 1 0-1 0v2.592a.5.5 0 0 1-.5.5h-8v-1.5h5.5a.5.5 0 1 0 0-1h-5.5v-1h3a1.5 1.5 0 0 0 1.5-1.5V3.909a1.5 1.5 0 1 0-1 0v3.092a.5.5 0 0 1-.5.5h-3.132c-.172-.32-.515-.509-.877-.484a8 8 0 0 0 0 15.968h.059a.92.92 0 0 0 .819-.484h3.132a.5.5 0 0 1 .5.5v3.092a1.5 1.5 0 1 0 1 0v-3.092a1.5 1.5 0 0 0-1.5-1.5h-3v-1h5.5a.5.5 0 1 0 0-1h-5.5v-1.5h8a.5.5 0 0 1 .5.5v2.592a1.5 1.5 0 1 0 1 0v-2.592a1.5 1.5 0 0 0-1.5-1.5h-8v-1.5h11.592a1.5 1.5 0 0 0 1.75.956 1.5 1.5 0 0 0 1.148-1.631 1.5 1.5 0 0 0-1.49-1.325zm-4-6.5a.5.5 0 1 1 0 1 .5.5 0 1 1 0-1zm-5-5a.5.5 0 0 1 0 1 .5.5 0 0 1 0-1zm0 26a.5.5 0 1 1 0-1 .5.5 0 1 1 0 1zm5-5a.5.5 0 1 1 0-1 .5.5 0 1 1 0 1zm-16.5-8a7.01 7.01 0 0 1 6.5-6.982v13.964a7.01 7.01 0 0 1-6.5-6.982zm20.5.5a.5.5 0 1 1 0-1 .5.5 0 1 1 0 1z"/></g><defs><clipPath id="A"><path fill="#fff" transform="translate(.891)" d="M0 0h30v30H0z"/></clipPath></defs></svg>