<svg xmlns="http://www.w3.org/2000/svg" width="30" height="30" fill="none" xmlns:v="https://vecta.io/nano"><g fill="#123455"><path d="M27.726 7.955h-.468c-.186 0-.341.155-.341.341s.155.341.341.341h.468c.564 0 1.023.459 1.023 1.023v17.245c0 .564-.459 1.023-1.023 1.023H2.271c-.564 0-1.023-.459-1.023-1.023V9.659c0-.564.459-1.023 1.023-1.023h15.527c.186 0 .341-.155.341-.341s-.154-.341-.341-.341H2.271c-.941 0-1.705.764-1.705 1.705v17.245c0 .941.764 1.705 1.705 1.705h25.455c.941 0 1.704-.764 1.704-1.705V9.659c0-.941-.764-1.705-1.704-1.705z"/><use href="#B"/><use href="#B" y="1.959"/><path d="M3.63 14.827h1.795c.186 0 .341-.154.341-.341s-.155-.341-.341-.341H3.63c-.186 0-.341.155-.341.341s.155.341.341.341z"/><use href="#C"/><use href="#C" y="-1.959"/><use href="#C" y="-3.918"/><path d="M8.311 10.909h7.214c.186 0 .341-.155.341-.341s-.155-.341-.341-.341H8.311a.8.8 0 0 0-.795.795V25.54a.8.8 0 0 0 .795.795h18.05a.8.8 0 0 0 .795-.795V11.023a.8.8 0 0 0-.795-.795h-1.377c-.186 0-.341.155-.341.341s.154.341.341.341h1.377c.064 0 .114.05.114.114v14.518c0 .064-.05.114-.114.114H8.311c-.064 0-.114-.05-.114-.114V11.023c0-.064.05-.114.114-.114zm-3.78 5.682c-.932 0-1.691.759-1.691 1.691s.759 1.691 1.691 1.691 1.691-.759 1.691-1.691-.759-1.691-1.691-1.691zm0 2.7a1.01 1.01 0 0 1-1.009-1.009c0-.555.455-1.009 1.009-1.009s1.009.455 1.009 1.009-.455 1.009-1.009 1.009zm9.904-6.136l-1.195 3.941c-.314.3-.505.718-.523 1.2a2.2 2.2 0 0 0 .645 1.659c.686.664 1.777.905 2.914.645.864-.195 1.636-.632 2.382-1.05l.223-.127c.759-.423 1.573-.845 2.441-.923.9-.082 1.8.273 2.291.895.527.668.55 1.659.054 2.255-.504.609-1.373.714-1.845.723-.459.009-.896-.05-1.368-.109l-.923-.1c-1.046-.068-1.846.105-2.459.541-.155.109-.191.323-.082.477a.34.34 0 0 0 .277.146.31.31 0 0 0 .195-.064c.477-.341 1.136-.477 2.018-.414l.886.095c.477.059.977.127 1.468.114 1.014-.018 1.85-.364 2.355-.968.695-.832.677-2.2-.041-3.109-.641-.814-1.745-1.255-2.886-1.154-1 .091-1.886.545-2.714 1.009l-.227.127c-.705.396-1.432.805-2.2.982-.705.159-1.673.123-2.286-.473a1.53 1.53 0 0 1-.436-1.136 1.09 1.09 0 0 1 .314-.745l3.941-1.191c.059-.023.104-.045.141-.082L28.749 5.364c.905-.905.905-2.377 0-3.282s-2.377-.905-3.282 0L14.512 13.036a.27.27 0 0 0-.077.118zm3.118 2.432l-.918-.918 9.491-9.491.918.918-9.491 9.491zm7.173-11.809l.918.918-9.491 9.491-.918-.918 9.491-9.491zM14.917 13.91l.995.995.995.995-2.859.864.868-2.854zM25.949 2.554a1.64 1.64 0 0 1 2.318 0 1.64 1.64 0 0 1 0 2.318l-.741.741-1.159-1.159-1.159-1.159.741-.741z"/></g><defs ><path id="B" d="M3.63 10.909h1.795c.186 0 .341-.155.341-.341s-.155-.341-.341-.341H3.63c-.186 0-.341.155-.341.341s.155.341.341.341z"/><path id="C" d="M5.425 25.654H3.63c-.186 0-.341.155-.341.341s.155.341.341.341h1.795c.186 0 .341-.154.341-.341a.34.34 0 0 0-.341-.341z"/></defs></svg>