<svg width="31" height="31" viewBox="0 0 31 31" fill="none" xmlns="http://www.w3.org/2000/svg">
<g clip-path="url(#clip0_1190_2451)">
<path fill-rule="evenodd" clip-rule="evenodd" d="M13.6141 26.8218C13.175 26.8727 12.7284 26.8988 12.2761 26.8988C5.88673 26.8988 0.675781 21.6878 0.675781 15.2985C0.675781 8.90912 5.88673 3.69824 12.2761 3.69824C16.3905 3.69824 20.0166 5.85872 22.0767 9.10372L23.3739 7.33565C23.4618 7.21576 23.6 7.14299 23.7486 7.13821C23.8972 7.13349 24.0398 7.19731 24.1352 7.31133L30.5662 14.9951C30.6868 15.1392 30.7131 15.3402 30.6335 15.5104C30.554 15.6807 30.383 15.7895 30.1951 15.7895H27.87C27.7773 19.9838 26.4801 23.066 24.6121 25.0809C21.6432 28.2835 17.2206 28.8297 13.6646 26.8541C13.647 26.8443 13.6301 26.8335 13.6141 26.8218ZM21.4579 9.94726C19.6098 6.79275 16.1835 4.66609 12.2761 4.66609C6.41977 4.66609 1.64363 9.44223 1.64363 15.2985C1.64363 21.1548 6.41977 25.9309 12.2761 25.9309C13.2226 25.9309 14.1409 25.8062 15.0154 25.5722C17.981 24.4429 19.3662 22.3696 20.0095 20.1735C18.3908 22.7367 15.5327 24.4386 12.2761 24.4386C7.22695 24.4386 3.13599 20.3476 3.13599 15.2985C3.13599 10.2493 7.22695 6.15845 12.2761 6.15845C15.8806 6.15845 18.9967 8.24349 20.4848 11.2736L21.4579 9.94726ZM20.4338 15.7895H18.1268C17.9444 15.7895 17.7775 15.687 17.6951 15.5244C17.6127 15.3616 17.6287 15.1664 17.7366 15.0194L19.828 12.1688C18.6001 9.20795 15.6818 7.12629 12.2761 7.12629C7.76156 7.12629 4.10383 10.784 4.10383 15.2985C4.10383 19.8129 7.76156 23.4707 12.2761 23.4707C16.6256 23.4707 20.1799 20.0753 20.4338 15.7895ZM21.5271 15.3056C21.5271 19.0059 21.0903 24.3851 15.2441 26.5219C18.1883 27.6287 21.5545 26.9556 23.9023 24.423C25.7086 22.4745 26.9074 19.4433 26.9074 15.3056C26.9074 15.0384 27.1241 14.8217 27.3914 14.8217H29.159L23.7891 8.40585C22.6257 9.99148 19.082 14.8217 19.082 14.8217H21.0432C21.3104 14.8217 21.5271 15.0384 21.5271 15.3056ZM17.4933 19.8314C17.6822 20.0202 17.6822 20.3269 17.4933 20.5158C17.3045 20.7046 16.9978 20.7046 16.8089 20.5158L16.2796 19.9864C16.0907 19.7975 16.0907 19.4909 16.2796 19.302C16.4684 19.1132 16.7751 19.1132 16.964 19.302L17.4933 19.8314ZM16.8089 10.0812C16.9978 9.8924 17.3045 9.8924 17.4933 10.0812C17.6822 10.2701 17.6822 10.5768 17.4933 10.7656L16.964 11.295C16.7751 11.4838 16.4684 11.4838 16.2796 11.295C16.0907 11.1061 16.0907 10.7994 16.2796 10.6106L16.8089 10.0812ZM7.74318 20.5158C7.55432 20.7046 7.24764 20.7046 7.05879 20.5158C6.86994 20.3269 6.86994 20.0202 7.05879 19.8314L7.58814 19.302C7.77699 19.1132 8.08368 19.1132 8.27253 19.302C8.46138 19.4909 8.46138 19.7975 8.27253 19.9864L7.74318 20.5158ZM11.7922 8.40687C11.7922 8.13981 12.009 7.92295 12.2761 7.92295C12.5431 7.92295 12.76 8.13981 12.76 8.40687V9.15302C12.76 9.42009 12.5431 9.63695 12.2761 9.63695C12.009 9.63695 11.7922 9.42009 11.7922 9.15302V8.40687ZM11.7922 12.0241C11.7922 11.757 12.009 11.5402 12.2761 11.5402C12.5431 11.5402 12.76 11.757 12.76 12.0241V15.0191L14.7059 16.1423C14.9372 16.2758 15.0167 16.572 14.8832 16.8033C14.7497 17.0346 14.4534 17.114 14.2221 16.9805L12.0341 15.7176C11.8844 15.6312 11.7922 15.4714 11.7922 15.2985V12.0241ZM7.05879 10.7656C6.86994 10.5768 6.86994 10.2701 7.05879 10.0812C7.24764 9.8924 7.55432 9.8924 7.74318 10.0812L8.27253 10.6106C8.46138 10.7994 8.46138 11.1061 8.27253 11.295C8.08368 11.4838 7.77699 11.4838 7.58814 11.295L7.05879 10.7656ZM12.76 22.1902C12.76 22.4572 12.5431 22.6741 12.2761 22.6741C12.009 22.6741 11.7922 22.4572 11.7922 22.1902V21.444C11.7922 21.1769 12.009 20.9601 12.2761 20.9601C12.5431 20.9601 12.76 21.1769 12.76 21.444V22.1902ZM5.38441 15.7824C5.11735 15.7824 4.90049 15.5656 4.90049 15.2985C4.90049 15.0314 5.11735 14.8146 5.38441 14.8146H6.13056C6.39763 14.8146 6.61449 15.0314 6.61449 15.2985C6.61449 15.5656 6.39763 15.7824 6.13056 15.7824H5.38441Z" fill="#123455"/>
</g>
<defs>
<clipPath id="clip0_1190_2451">
<rect width="30" height="30" fill="white" transform="translate(0.679688 0.852539)"/>
</clipPath>
</defs>
</svg>
