<svg width="31" height="31" viewBox="0 0 31 31" fill="none" xmlns="http://www.w3.org/2000/svg">
<g clip-path="url(#clip0_370_25373)">
<path d="M26.6886 4.88941C27.2841 4.88941 27.7659 4.40759 27.7659 3.81214C27.7659 3.21668 27.2841 2.73486 26.6886 2.73486C26.0931 2.73486 25.6113 3.21668 25.6113 3.81214C25.6113 4.40759 26.0977 4.88941 26.6886 4.88941ZM26.6886 3.50305C26.8613 3.50305 27.0022 3.64395 27.0022 3.81668C27.0022 3.98941 26.8613 4.13032 26.6886 4.13032C26.5113 4.13032 26.375 3.99395 26.375 3.81668C26.375 3.63941 26.5159 3.50305 26.6886 3.50305Z" fill="#123455"/>
<path d="M27.8842 0.994141H5.73874C4.89783 0.994141 4.21147 1.6805 4.21147 2.52141V4.85323H2.69329C1.85238 4.85323 1.16602 5.5396 1.16602 6.3805V25.5305C1.16602 26.3714 1.85238 27.0578 2.69329 27.0578H12.8433V29.2669C12.8433 29.476 13.016 29.6487 13.2251 29.6487H20.3978C20.6069 29.6487 20.7797 29.476 20.7797 29.2669V27.0578H24.8387C25.6797 27.0578 26.366 26.3714 26.366 25.5305V23.1987H27.8842C28.7251 23.1987 29.4115 22.5123 29.4115 21.6714V2.52141C29.4115 1.6805 28.7251 0.994141 27.8842 0.994141ZM4.97511 2.52141C4.97511 2.09869 5.32056 1.75778 5.73874 1.75778H27.8842C28.3069 1.75778 28.6478 2.10323 28.6478 2.52141V5.87141H14.1569L12.4524 4.10323C12.3206 3.96687 12.1387 3.8896 11.9524 3.8896H8.19783C7.81602 3.8896 7.50238 4.20323 7.50238 4.58505V5.87141H4.97511V2.52141ZM2.69329 26.2987C2.27056 26.2987 1.92965 25.9532 1.92965 25.5351V6.3805C1.92965 5.95778 2.27511 5.61687 2.69329 5.61687H4.21147V21.676C4.21147 22.5169 4.89783 23.2032 5.73874 23.2032H14.0297C14.1797 23.4941 14.2478 23.8214 14.2206 24.1578H13.6297C13.1933 24.1578 12.8433 24.5123 12.8433 24.9441V26.2987H2.69329ZM16.4342 18.3032C16.5115 18.1669 16.6524 18.0805 16.8115 18.0805C17.0478 18.0805 17.2387 18.2714 17.2387 18.5078C17.2387 18.6623 17.1569 18.8032 17.0251 18.8805C16.8797 18.9669 16.7069 18.9578 16.5297 18.8578C16.5069 18.8441 16.4842 18.826 16.4751 18.8032C16.3297 18.5714 16.3887 18.3896 16.4342 18.3032ZM16.4297 17.3896C16.1524 17.4851 15.916 17.6714 15.7706 17.9351C15.5524 18.326 15.5797 18.8032 15.8342 19.2123C15.916 19.3396 16.0251 19.4441 16.1569 19.5214C16.366 19.6396 16.5933 19.7032 16.816 19.7032C17.0251 19.7032 17.2297 19.6487 17.4115 19.5441C17.7751 19.3305 18.0024 18.9351 18.0024 18.5123C18.0024 17.9896 17.6615 17.5487 17.1933 17.3896V15.426L20.5706 21.5214C20.566 21.526 20.5615 21.5351 20.5478 21.5396C19.3524 21.8487 18.5706 22.9669 18.6342 24.1578H14.9933C15.0615 22.9623 14.2751 21.8441 13.0569 21.5032L16.4297 15.426V17.3896ZM20.016 28.8851H13.6069L13.6297 24.9169H19.9933C20.0069 24.9169 20.016 24.926 20.016 24.9396V28.8851ZM25.6024 25.5305C25.6024 25.9532 25.2569 26.2941 24.8387 26.2941H20.7797V24.9396C20.7797 24.5032 20.4251 24.1532 19.9933 24.1532H19.4024C19.3751 23.8169 19.4478 23.4896 19.5933 23.1987H25.6024V25.5305ZM27.8842 22.4396H20.3342C20.4569 22.3714 20.5887 22.3123 20.7342 22.276C20.9751 22.2123 21.1706 22.0441 21.2706 21.8169C21.366 21.5941 21.3524 21.3441 21.2342 21.1305L17.3251 14.0896C17.2251 13.9032 17.0297 13.7851 16.816 13.7851C16.5978 13.7896 16.4024 13.8987 16.2978 14.0851L12.3842 21.1305C12.266 21.3441 12.2569 21.5987 12.3524 21.8214C12.4478 22.0487 12.6433 22.2123 12.8842 22.276C13.0297 22.3123 13.1569 22.3714 13.2842 22.4396H5.73874C5.31602 22.4396 4.97511 22.0941 4.97511 21.676V6.63505H7.56602C7.94783 6.63505 8.26147 6.32141 8.26147 5.93959V4.65323H11.9206L13.6251 6.42141C13.7569 6.55778 13.9387 6.63505 14.1251 6.63505H28.6478V21.6714C28.6478 22.0941 28.3069 22.4396 27.8842 22.4396Z" fill="#123455"/>
<path d="M24.089 4.88941C24.6844 4.88941 25.1663 4.40759 25.1663 3.81214C25.1663 3.21668 24.6844 2.73486 24.089 2.73486C23.4935 2.73486 23.0117 3.21668 23.0117 3.81214C23.0117 4.40759 23.4935 4.88941 24.089 4.88941ZM24.089 3.50305C24.2617 3.50305 24.4026 3.64395 24.4026 3.81668C24.4026 3.98941 24.2617 4.13032 24.089 4.13032C23.9117 4.13032 23.7754 3.99395 23.7754 3.81668C23.7754 3.63941 23.9163 3.50305 24.089 3.50305Z" fill="#123455"/>
<path d="M21.4845 4.88941C22.08 4.88941 22.5618 4.40759 22.5618 3.81214C22.5618 3.21668 22.08 2.73486 21.4845 2.73486C20.889 2.73486 20.4072 3.21668 20.4072 3.81214C20.4072 4.40759 20.889 4.88941 21.4845 4.88941ZM21.4845 3.50305C21.6572 3.50305 21.7981 3.64395 21.7981 3.81668C21.7981 3.98941 21.6572 4.13032 21.4845 4.13032C21.3072 4.13032 21.1709 3.99395 21.1709 3.81668C21.1709 3.63941 21.3118 3.50305 21.4845 3.50305Z" fill="#123455"/>
<path d="M24.1702 9.96214C23.9474 10.1849 23.8065 10.4667 23.752 10.7667H18.4111V10.1667C18.4111 9.7576 18.0792 9.42578 17.6702 9.42578H15.9474C15.5383 9.42578 15.2065 9.7576 15.2065 10.1667V10.7667H9.87015C9.82015 10.4712 9.67924 10.1894 9.45197 9.9576C8.8747 9.38942 7.88833 9.39851 7.3247 9.96214C7.03833 10.2485 6.88379 10.6258 6.88379 11.0258C6.88379 11.4303 7.04288 11.8121 7.3247 12.0894C7.61106 12.3849 7.99288 12.5349 8.38833 12.5349C8.63833 12.5349 8.89288 12.4758 9.13379 12.3531C9.39288 12.2212 9.60652 12.0031 9.73379 11.7349C9.76561 11.6667 9.79288 11.5985 9.81561 11.5303H13.5202C11.5065 12.5121 9.98833 14.3576 9.46106 16.5849H8.87015C8.46106 16.5849 8.12924 16.9167 8.12924 17.3258V19.0485C8.12924 19.4576 8.46106 19.7894 8.87015 19.7894H10.5929C11.002 19.7894 11.3338 19.4576 11.3338 19.0485V17.3258C11.3338 16.9167 11.002 16.5849 10.5929 16.5849H10.2474C10.8838 14.1849 12.8065 12.3031 15.2202 11.7212V11.8849C15.2202 12.294 15.552 12.6258 15.9611 12.6258H17.6838C18.0929 12.6258 18.4247 12.294 18.4247 11.8849V11.7212C20.8338 12.3031 22.7565 14.1849 23.3974 16.5849H23.0838C22.6747 16.5849 22.3429 16.9167 22.3429 17.3258V19.0485C22.3429 19.4576 22.6747 19.7894 23.0838 19.7894H24.8065C25.2156 19.7894 25.5474 19.4576 25.5474 19.0485V17.3258C25.5474 16.9167 25.2156 16.5849 24.8065 16.5849H24.1838C23.652 14.3576 22.1338 12.5076 20.1247 11.5303H23.8383C23.9111 11.7394 24.0292 11.9303 24.1883 12.0894C24.4747 12.3849 24.8565 12.5349 25.252 12.5349C25.502 12.5349 25.7565 12.4758 25.9974 12.3531C26.2565 12.2212 26.4702 12.0031 26.5974 11.7349C26.8929 11.1121 26.7883 10.4349 26.3202 9.9576C25.7247 9.39396 24.7383 9.39851 24.1702 9.96214ZM9.03833 11.4121C8.98379 11.5212 8.89288 11.6167 8.78379 11.6712C8.38833 11.8712 8.04743 11.744 7.86106 11.5485C7.72015 11.4121 7.64288 11.2258 7.64288 11.0258C7.64288 10.8303 7.72015 10.644 7.86106 10.4985C8.00197 10.3576 8.18833 10.2803 8.38833 10.2803C8.58379 10.2803 8.7747 10.3576 8.91106 10.494C9.14743 10.7394 9.19288 11.0803 9.03833 11.4121ZM10.5838 19.0258L8.88379 19.0485L8.86106 17.3485H10.5611L10.5838 19.0258ZM24.7929 19.0258L23.0929 19.0485L23.0702 17.3485H24.7702L24.7929 19.0258ZM15.9747 11.8894L15.9656 11.3167C15.9747 11.2758 15.9747 11.2349 15.9702 11.1894V11.1849C15.9702 11.1712 15.9792 11.1621 15.9792 11.1485C15.9792 11.1258 15.9702 11.1076 15.9656 11.0894L15.952 10.194H17.652L17.6656 11.0894C17.6611 11.1121 17.652 11.1303 17.652 11.1531C17.652 11.1667 17.6565 11.1758 17.6611 11.1894V11.194C17.652 11.2531 17.6565 11.3076 17.6702 11.3576L17.6792 11.8712L15.9747 11.8894ZM25.8883 11.4121C25.8338 11.5212 25.7429 11.6167 25.6338 11.6712C25.2383 11.8712 24.8974 11.744 24.7111 11.5485C24.5702 11.4121 24.4929 11.2258 24.4929 11.0258C24.4929 10.8303 24.5702 10.644 24.7111 10.4985C24.852 10.3576 25.0383 10.2803 25.2383 10.2803C25.4338 10.2803 25.6247 10.3576 25.7611 10.494C25.9974 10.7394 26.0429 11.0803 25.8883 11.4121Z" fill="#123455"/>
</g>
<defs>
<clipPath id="clip0_370_25373">
<rect width="30" height="30" fill="white" transform="translate(0.289062 0.321289)"/>
</clipPath>
</defs>
</svg>
