<svg xmlns="http://www.w3.org/2000/svg" width="31" height="31" fill="none" xmlns:v="https://vecta.io/nano"><g clip-path="url(#A)"><path d="M26.828 20.787H4.524a3.28 3.28 0 0 1-3.274-3.274V9.845A3.28 3.28 0 0 1 4.524 6.57h22.304a3.28 3.28 0 0 1 3.274 3.274v7.668a3.28 3.28 0 0 1-3.274 3.274z" fill="#123455"/><path d="M4.384 18.016s.644 2.631 1.931.867 2.519-4.533 2.519-4.533.084-.7.448.839 1.931 3.582 1.931 3.582 1.427 1.763 2.015-.084c-.224-2.463.644-6.94 1.511-9.095.364-1.903-1.651-1.371-1.819-.896s-1.455 3.274-1.539 6.269c0 0-1.063-2.854-1.147-3.918-.084-1.035-1.175-1.315-1.819-.308s-2.575 4.897-2.575 4.897L4.607 9.284s-1.231-1.623-1.959.364l1.735 8.368zm16.483-6.968c-1.931-3.19-4.757-.784-4.757-.784s-2.155 2.491-1.175 5.877c1.567 3.358 3.722 1.847 4.31 1.595.588-.28 3.162-3.19 1.623-6.688zm-1.455 2.799c0 1.343-1.091 2.575-2.015 2.295-.504-.28-.811-1.091-.811-2.407.448-2.183 1.455-2.463 1.959-2.407.951.504.895 1.651.867 2.519zm8.619-2.799c-1.931-3.19-4.757-.784-4.757-.784s-2.155 2.491-1.175 5.877c1.567 3.358 3.722 1.847 4.31 1.595.616-.28 3.19-3.19 1.623-6.688zm-1.455 2.799c0 1.343-1.091 2.575-2.015 2.295-.504-.28-.812-1.091-.812-2.407.448-2.183 1.455-2.463 1.959-2.407.951.504.923 1.651.867 2.519z" fill="#fff"/><path d="M15.07 20.787l5.009 2.938-1.035-2.938-2.883-.812-1.091.812z" fill="#123455"/></g><defs><clipPath id="A"><path fill="#fff" transform="translate(.68 .147)" d="M0 0h30v30H0z"/></clipPath></defs></svg>