<svg xmlns="http://www.w3.org/2000/svg" width="33" height="31" fill="none" xmlns:v="https://vecta.io/nano"><path d="M16.364 2.468c-7.716 0-13.993 6.004-13.993 13.384s6.277 13.385 13.993 13.385 13.992-6.004 13.992-13.385S24.079 2.468 16.364 2.468zM3.783 15.852c0-1.744.391-3.401 1.089-4.897l6.001 15.727c-4.196-1.951-7.09-6.067-7.09-10.83zm12.581 12.034c-1.235 0-2.427-.173-3.554-.49l3.774-10.491 3.868 10.134a1 1 0 0 0 .09.166 13.08 13.08 0 0 1-4.178.682zm1.733-17.676c.757-.038 1.44-.115 1.44-.115a.5.5 0 0 0-.081-.991s-2.038.153-3.353.153c-1.236 0-3.314-.153-3.314-.153-.678-.038-.757.953-.079.991 0 0 .642.077 1.319.115l1.96 5.137-2.753 7.898-4.58-13.035c.758-.038 1.44-.115 1.44-.115a.5.5 0 0 0-.081-.991s-2.037.153-3.353.153c-.236 0-.515-.006-.81-.014 2.249-3.267 6.116-5.424 10.511-5.424 3.276 0 6.257 1.198 8.495 3.159-.054-.003-.107-.01-.163-.01-1.235 0-2.112 1.03-2.112 2.136 0 .991.598 1.831 1.235 2.822.479.802 1.037 1.832 1.037 3.319 0 1.03-.413 2.225-.957 3.89l-1.255 4.011-4.546-12.936zm4.591 16.044l3.843-10.627c.719-1.716.957-3.089.957-4.31a8.75 8.75 0 0 0-.085-1.237c.983 1.714 1.542 3.681 1.541 5.774 0 4.439-2.516 8.315-6.256 10.401z" fill="#123455"/></svg>