<svg width="300" height="80" viewBox="0 0 300 80" fill="none" xmlns="http://www.w3.org/2000/svg">
<path d="M139.904 74.1871C139.904 73.2773 140.642 72.5398 141.551 72.5398H255.216C256.126 72.5398 256.863 73.2773 256.863 74.1871C256.863 75.0969 256.126 75.8344 255.216 75.8344H141.551C140.642 75.8344 139.904 75.0969 139.904 74.1871Z" fill="#FFBB00"/>
<path d="M47.2788 62.0395V58.0518C46.6176 57.0286 45.9947 56.0197 45.4101 55.0252C44.8256 54.0306 44.2746 53.0552 43.7571 52.0989H45.3957C45.7599 52.8831 46.1672 53.6816 46.6176 54.4944C47.068 55.2977 47.5327 56.0723 48.0119 56.8182C48.4814 56.0723 48.9414 55.2977 49.3918 54.4944C49.8422 53.6816 50.2543 52.8831 50.628 52.0989H52.1804C51.6629 53.0552 51.1119 54.0306 50.5274 55.0252C49.9428 56.0101 49.3247 57.0094 48.6731 58.0231V62.0395H47.2788Z" fill="white"/>
<path d="M59.3077 58.31C59.3077 58.9029 59.2214 59.4384 59.0489 59.9165C58.8765 60.3947 58.6321 60.8059 58.3159 61.1501C58.0092 61.4944 57.6403 61.7622 57.209 61.9534C56.7778 62.1351 56.3082 62.226 55.8004 62.226C55.2925 62.226 54.8229 62.1351 54.3917 61.9534C53.9604 61.7622 53.5867 61.4944 53.2705 61.1501C52.9638 60.8059 52.7243 60.3947 52.5518 59.9165C52.3793 59.4384 52.293 58.9029 52.293 58.31C52.293 57.7267 52.3793 57.1959 52.5518 56.7178C52.7243 56.2301 52.9638 55.8141 53.2705 55.4698C53.5867 55.1256 53.9604 54.8626 54.3917 54.6809C54.8229 54.4896 55.2925 54.394 55.8004 54.394C56.3082 54.394 56.7778 54.4896 57.209 54.6809C57.6403 54.8626 58.0092 55.1256 58.3159 55.4698C58.6321 55.8141 58.8765 56.2301 59.0489 56.7178C59.2214 57.1959 59.3077 57.7267 59.3077 58.31ZM57.9134 58.31C57.9134 57.4685 57.7217 56.8038 57.3384 56.3161C56.9647 55.8189 56.452 55.5702 55.8004 55.5702C55.1487 55.5702 54.6312 55.8189 54.2479 56.3161C53.8742 56.8038 53.6873 57.4685 53.6873 58.31C53.6873 59.1515 53.8742 59.8209 54.2479 60.3182C54.6312 60.8059 55.1487 61.0497 55.8004 61.0497C56.452 61.0497 56.9647 60.8059 57.3384 60.3182C57.7217 59.8209 57.9134 59.1515 57.9134 58.31Z" fill="white"/>
<path d="M67.1392 61.8243C66.8326 61.9008 66.4254 61.9821 65.9175 62.0682C65.4192 62.1542 64.8394 62.1973 64.1782 62.1973C63.6032 62.1973 63.1192 62.116 62.7263 61.9534C62.3334 61.7813 62.0172 61.5422 61.7776 61.2362C61.538 60.9302 61.3656 60.5716 61.2602 60.1604C61.1548 59.7396 61.1021 59.2758 61.1021 58.769V54.5805H62.4389V58.4821C62.4389 59.3906 62.5827 60.0409 62.8702 60.4329C63.1576 60.825 63.6415 61.021 64.3219 61.021C64.4656 61.021 64.6142 61.0163 64.7676 61.0067C64.9209 60.9971 65.0645 60.9876 65.1987 60.978C65.3329 60.9589 65.4526 60.9445 65.558 60.935C65.673 60.9159 65.7545 60.8967 65.8024 60.8776V54.5805H67.1392V61.8243Z" fill="white"/>
<path d="M72.2023 54.4227C72.3173 54.4227 72.4467 54.4323 72.5904 54.4514C72.7437 54.461 72.8923 54.4801 73.036 54.5088C73.1798 54.5279 73.3091 54.5518 73.4241 54.5805C73.5487 54.5996 73.6397 54.6187 73.6972 54.6379L73.4672 55.7997C73.3618 55.7615 73.1846 55.7185 72.9354 55.6707C72.6958 55.6133 72.3844 55.5846 72.0011 55.5846C71.7519 55.5846 71.5028 55.6133 71.2536 55.6707C71.014 55.7185 70.8559 55.7519 70.7793 55.7711V62.0395H69.4424V54.8961C69.7587 54.7813 70.1516 54.6761 70.6211 54.5805C71.0907 54.4753 71.6178 54.4227 72.2023 54.4227Z" fill="white"/>
<path d="M84.6673 52.0989H86.0616V62.0395H84.6673V57.4493H79.7944V62.0395H78.4001V52.0989H79.7944V56.2444H84.6673V52.0989Z" fill="white"/>
<path d="M95.0467 58.31C95.0467 58.9029 94.9604 59.4384 94.7879 59.9165C94.6154 60.3947 94.3711 60.8059 94.0548 61.1501C93.7482 61.4944 93.3792 61.7622 92.948 61.9534C92.5168 62.1351 92.0472 62.226 91.5393 62.226C91.0314 62.226 90.5619 62.1351 90.1307 61.9534C89.6994 61.7622 89.3257 61.4944 89.0095 61.1501C88.7028 60.8059 88.4632 60.3947 88.2907 59.9165C88.1183 59.4384 88.032 58.9029 88.032 58.31C88.032 57.7267 88.1183 57.1959 88.2907 56.7178C88.4632 56.2301 88.7028 55.8141 89.0095 55.4698C89.3257 55.1256 89.6994 54.8626 90.1307 54.6809C90.5619 54.4896 91.0314 54.394 91.5393 54.394C92.0472 54.394 92.5168 54.4896 92.948 54.6809C93.3792 54.8626 93.7482 55.1256 94.0548 55.4698C94.3711 55.8141 94.6154 56.2301 94.7879 56.7178C94.9604 57.1959 95.0467 57.7267 95.0467 58.31ZM93.6524 58.31C93.6524 57.4685 93.4607 56.8038 93.0774 56.3161C92.7037 55.8189 92.191 55.5702 91.5393 55.5702C90.8877 55.5702 90.3702 55.8189 89.9869 56.3161C89.6132 56.8038 89.4263 57.4685 89.4263 58.31C89.4263 59.1515 89.6132 59.8209 89.9869 60.3182C90.3702 60.8059 90.8877 61.0497 91.5393 61.0497C92.191 61.0497 92.7037 60.8059 93.0774 60.3182C93.4607 59.8209 93.6524 59.1515 93.6524 58.31Z" fill="white"/>
<path d="M98.6667 61.0784C99.213 61.0784 99.6154 61.0067 99.8742 60.8633C100.143 60.7198 100.277 60.4903 100.277 60.1747C100.277 59.8496 100.147 59.5914 99.8885 59.4001C99.6298 59.2089 99.2034 58.9937 98.6092 58.7547C98.3217 58.6399 98.0438 58.5252 97.7755 58.4104C97.5168 58.2861 97.2916 58.1426 97.0999 57.9801C96.9083 57.8175 96.755 57.6215 96.64 57.392C96.525 57.1625 96.4675 56.8803 96.4675 56.5456C96.4675 55.8858 96.7118 55.3646 97.2006 54.9821C97.6893 54.5901 98.3553 54.394 99.1986 54.394C99.4094 54.394 99.6202 54.4084 99.831 54.437C100.042 54.4562 100.238 54.4849 100.42 54.5231C100.603 54.5518 100.761 54.5853 100.895 54.6235C101.039 54.6618 101.149 54.6952 101.225 54.7239L100.981 55.8715C100.837 55.795 100.612 55.7185 100.306 55.642C99.9987 55.5559 99.6298 55.5129 99.1986 55.5129C98.8249 55.5129 98.499 55.5894 98.2211 55.7424C97.9432 55.8858 97.8043 56.1153 97.8043 56.4309C97.8043 56.5935 97.833 56.7369 97.8905 56.8612C97.9576 56.9855 98.0534 57.1003 98.178 57.2055C98.3122 57.3011 98.4751 57.392 98.6667 57.478C98.8584 57.5641 99.0884 57.6549 99.3567 57.7506C99.7113 57.8844 100.028 58.0183 100.306 58.1522C100.583 58.2765 100.818 58.4247 101.01 58.5969C101.211 58.769 101.364 58.9794 101.47 59.228C101.575 59.4671 101.628 59.7635 101.628 60.1174C101.628 60.8059 101.369 61.3271 100.852 61.6809C100.344 62.0347 99.6154 62.2116 98.6667 62.2116C98.0055 62.2116 97.488 62.1542 97.1143 62.0395C96.7406 61.9343 96.4866 61.853 96.3525 61.7956L96.5968 60.6481C96.7502 60.7055 96.9945 60.7915 97.3299 60.9063C97.6653 61.021 98.1109 61.0784 98.6667 61.0784Z" fill="white"/>
<path d="M104.593 54.5805H107.425V55.6993H104.593V59.142C104.593 59.5149 104.622 59.8257 104.679 60.0743C104.737 60.3134 104.823 60.5047 104.938 60.6481C105.053 60.782 105.197 60.8776 105.369 60.935C105.542 60.9924 105.743 61.021 105.973 61.021C106.376 61.021 106.697 60.978 106.936 60.8919C107.185 60.7963 107.358 60.7294 107.454 60.6911L107.712 61.7956C107.578 61.8626 107.343 61.9439 107.008 62.0395C106.673 62.1447 106.289 62.1973 105.858 62.1973C105.35 62.1973 104.929 62.1351 104.593 62.0108C104.267 61.8769 104.004 61.6809 103.803 61.4227C103.601 61.1645 103.458 60.8489 103.371 60.476C103.295 60.0935 103.256 59.6536 103.256 59.1563V52.5006L104.593 52.2711V54.5805Z" fill="white"/>
<path d="M110.463 62.0395H109.126V54.5805H110.463V62.0395ZM109.787 53.2321C109.548 53.2321 109.342 53.1556 109.169 53.0026C109.006 52.8401 108.925 52.6249 108.925 52.3571C108.925 52.0894 109.006 51.879 109.169 51.726C109.342 51.5634 109.548 51.4821 109.787 51.4821C110.027 51.4821 110.228 51.5634 110.391 51.726C110.563 51.879 110.65 52.0894 110.65 52.3571C110.65 52.6249 110.563 52.8401 110.391 53.0026C110.228 53.1556 110.027 53.2321 109.787 53.2321Z" fill="white"/>
<path d="M112.762 54.7957C113.068 54.7192 113.476 54.6379 113.984 54.5518C114.491 54.4657 115.076 54.4227 115.737 54.4227C116.331 54.4227 116.825 54.5088 117.218 54.6809C117.611 54.8435 117.922 55.0778 118.152 55.3838C118.392 55.6802 118.559 56.0388 118.655 56.4596C118.751 56.8803 118.799 57.3441 118.799 57.851V62.0395H117.462V58.1379C117.462 57.6788 117.429 57.2868 117.361 56.9616C117.304 56.6365 117.203 56.3735 117.06 56.1727C116.916 55.9719 116.724 55.8284 116.485 55.7424C116.245 55.6467 115.948 55.5989 115.593 55.5989C115.45 55.5989 115.301 55.6037 115.148 55.6133C114.995 55.6228 114.846 55.6372 114.702 55.6563C114.568 55.6659 114.444 55.6802 114.329 55.6993C114.223 55.7185 114.146 55.7328 114.099 55.7424V62.0395H112.762V54.7957Z" fill="white"/>
<path d="M125.702 61.2936C125.587 61.3701 125.362 61.4705 125.026 61.5948C124.7 61.7096 124.317 61.7669 123.876 61.7669C123.426 61.7669 122.999 61.6952 122.597 61.5518C122.204 61.4083 121.859 61.1884 121.562 60.8919C121.265 60.5859 121.03 60.2082 120.858 59.7588C120.685 59.3093 120.599 58.7738 120.599 58.1522C120.599 57.6071 120.68 57.1099 120.843 56.6604C121.006 56.2014 121.241 55.8093 121.548 55.4842C121.864 55.1495 122.247 54.8913 122.697 54.7096C123.148 54.5183 123.656 54.4227 124.221 54.4227C124.844 54.4227 125.385 54.4705 125.845 54.5661C126.315 54.6522 126.708 54.7335 127.024 54.81V61.4657C127.024 62.6133 126.727 63.4452 126.133 63.9616C125.539 64.478 124.638 64.7362 123.431 64.7362C122.961 64.7362 122.515 64.6979 122.094 64.6214C121.682 64.5449 121.322 64.4541 121.016 64.3489L121.26 63.187C121.528 63.2922 121.854 63.3831 122.238 63.4596C122.63 63.5456 123.038 63.5887 123.459 63.5887C124.255 63.5887 124.825 63.4309 125.17 63.1153C125.524 62.7997 125.702 62.2977 125.702 61.6092V61.2936ZM125.687 55.7567C125.553 55.7185 125.371 55.685 125.141 55.6563C124.921 55.6181 124.619 55.5989 124.236 55.5989C123.517 55.5989 122.961 55.8332 122.568 56.3018C122.185 56.7704 121.993 57.392 121.993 58.1665C121.993 58.5969 122.046 58.965 122.151 59.2711C122.266 59.5771 122.415 59.8305 122.597 60.0313C122.789 60.2321 123.004 60.3803 123.244 60.476C123.493 60.5716 123.747 60.6194 124.006 60.6194C124.36 60.6194 124.686 60.5716 124.983 60.476C125.28 60.3708 125.515 60.2512 125.687 60.1174V55.7567Z" fill="white"/>
<path d="M130.735 60.4042C130.744 60.4807 130.749 60.5572 130.749 60.6338C130.749 60.7007 130.749 60.7724 130.749 60.8489C130.749 61.4514 130.658 62.0443 130.476 62.6276C130.303 63.2205 130.064 63.7847 129.757 64.3202L128.722 63.9903C128.962 63.5026 129.12 63.0053 129.196 62.4985C129.273 62.0012 129.311 61.5327 129.311 61.0928C129.311 60.9684 129.307 60.8489 129.297 60.7342C129.297 60.6194 129.292 60.5094 129.283 60.4042H130.735Z" fill="white"/>
<path d="M135.874 57.062C135.874 56.211 135.998 55.4603 136.248 54.81C136.506 54.1597 136.851 53.6194 137.283 53.1891C137.723 52.7492 138.231 52.4193 138.806 52.1994C139.391 51.9794 140.009 51.8694 140.661 51.8694C141.303 51.8694 141.906 51.9794 142.472 52.1994C143.047 52.4193 143.55 52.7492 143.981 53.1891C144.412 53.6194 144.752 54.1597 145.002 54.81C145.26 55.4603 145.39 56.211 145.39 57.062C145.39 57.9131 145.26 58.6638 145.002 59.3141C144.752 59.9644 144.412 60.5094 143.981 60.9493C143.55 61.3797 143.047 61.7048 142.472 61.9247C141.906 62.1447 141.303 62.2546 140.661 62.2546C140.009 62.2546 139.391 62.1447 138.806 61.9247C138.231 61.7048 137.723 61.3797 137.283 60.9493C136.851 60.5094 136.506 59.9644 136.248 59.3141C135.998 58.6638 135.874 57.9131 135.874 57.062ZM137.34 57.062C137.34 57.6645 137.417 58.2144 137.57 58.7116C137.723 59.1993 137.939 59.6153 138.217 59.9596C138.504 60.3038 138.849 60.5716 139.252 60.7628C139.664 60.9445 140.124 61.0354 140.632 61.0354C141.14 61.0354 141.595 60.9445 141.997 60.7628C142.4 60.5716 142.74 60.3038 143.018 59.9596C143.305 59.6153 143.526 59.1993 143.679 58.7116C143.832 58.2144 143.909 57.6645 143.909 57.062C143.909 56.4596 143.832 55.9145 143.679 55.4268C143.526 54.9295 143.305 54.5088 143.018 54.1645C142.74 53.8202 142.4 53.5573 141.997 53.3756C141.595 53.1843 141.14 53.0887 140.632 53.0887C140.124 53.0887 139.664 53.1843 139.252 53.3756C138.849 53.5573 138.504 53.8202 138.217 54.1645C137.939 54.5088 137.723 54.9295 137.57 55.4268C137.417 55.9145 137.34 56.4596 137.34 57.062Z" fill="white"/>
<path d="M153.329 61.8243C153.022 61.9008 152.615 61.9821 152.107 62.0682C151.609 62.1542 151.029 62.1973 150.368 62.1973C149.793 62.1973 149.309 62.116 148.916 61.9534C148.523 61.7813 148.207 61.5422 147.967 61.2362C147.728 60.9302 147.555 60.5716 147.45 60.1604C147.344 59.7396 147.292 59.2758 147.292 58.769V54.5805H148.628V58.4821C148.628 59.3906 148.772 60.0409 149.06 60.4329C149.347 60.825 149.831 61.021 150.511 61.021C150.655 61.021 150.804 61.0163 150.957 61.0067C151.11 60.9971 151.254 60.9876 151.388 60.978C151.522 60.9589 151.642 60.9445 151.748 60.935C151.863 60.9159 151.944 60.8967 151.992 60.8776V54.5805H153.329V61.8243Z" fill="white"/>
<path d="M158.392 54.4227C158.507 54.4227 158.636 54.4323 158.78 54.4514C158.933 54.461 159.082 54.4801 159.225 54.5088C159.369 54.5279 159.499 54.5518 159.614 54.5805C159.738 54.5996 159.829 54.6187 159.887 54.6379L159.657 55.7997C159.551 55.7615 159.374 55.7185 159.125 55.6707C158.885 55.6133 158.574 55.5846 158.191 55.5846C157.941 55.5846 157.692 55.6133 157.443 55.6707C157.203 55.7185 157.045 55.7519 156.969 55.7711V62.0395H155.632V54.8961C155.948 54.7813 156.341 54.6761 156.811 54.5805C157.28 54.4753 157.807 54.4227 158.392 54.4227Z" fill="white"/>
<path d="M169.463 57.8797C169.616 58.0709 169.808 58.3243 170.038 58.6399C170.277 58.9459 170.522 59.2902 170.771 59.6727C171.02 60.0456 171.264 60.4377 171.504 60.8489C171.753 61.2601 171.964 61.657 172.136 62.0395H170.613C170.421 61.6761 170.21 61.3079 169.98 60.935C169.76 60.562 169.535 60.2082 169.305 59.8735C169.075 59.5292 168.845 59.2089 168.615 58.9124C168.394 58.616 168.193 58.3578 168.011 58.1379C167.886 58.1474 167.757 58.1522 167.623 58.1522C167.498 58.1522 167.369 58.1522 167.235 58.1522H165.984V62.0395H164.59V52.2424C164.983 52.1468 165.419 52.0846 165.898 52.0559C166.387 52.0177 166.832 51.9985 167.235 51.9985C168.634 51.9985 169.697 52.2615 170.426 52.7875C171.164 53.3134 171.533 54.0976 171.533 55.1399C171.533 55.7997 171.355 56.364 171.001 56.8325C170.656 57.3011 170.143 57.6502 169.463 57.8797ZM167.35 53.2178C166.755 53.2178 166.3 53.2321 165.984 53.2608V57.0047H166.976C167.455 57.0047 167.886 56.9808 168.27 56.9329C168.653 56.8851 168.974 56.7943 169.233 56.6604C169.501 56.5265 169.707 56.34 169.851 56.101C169.994 55.8523 170.066 55.5272 170.066 55.1256C170.066 54.7526 169.994 54.4418 169.851 54.1932C169.707 53.9446 169.511 53.7485 169.261 53.6051C169.022 53.4616 168.734 53.3612 168.399 53.3039C168.073 53.2465 167.723 53.2178 167.35 53.2178Z" fill="white"/>
<path d="M173.127 58.3243C173.127 57.6645 173.223 57.0907 173.414 56.603C173.606 56.1058 173.86 55.6946 174.176 55.3694C174.492 55.0443 174.856 54.8004 175.268 54.6379C175.681 54.4753 176.102 54.394 176.533 54.394C177.54 54.394 178.311 54.7096 178.848 55.3407C179.384 55.9623 179.653 56.9138 179.653 58.1952C179.653 58.2526 179.653 58.3291 179.653 58.4247C179.653 58.5108 179.648 58.5921 179.638 58.6686H174.521C174.579 59.4432 174.804 60.0313 175.197 60.4329C175.59 60.8346 176.203 61.0354 177.037 61.0354C177.506 61.0354 177.899 60.9971 178.215 60.9206C178.541 60.8346 178.785 60.7533 178.948 60.6768L179.135 61.7956C178.972 61.8817 178.685 61.9725 178.273 62.0682C177.87 62.1638 177.41 62.2116 176.893 62.2116C176.241 62.2116 175.676 62.116 175.197 61.9247C174.727 61.7239 174.339 61.4514 174.032 61.1071C173.726 60.7628 173.496 60.3564 173.342 59.8879C173.199 59.4097 173.127 58.8885 173.127 58.3243ZM178.258 57.5928C178.268 56.9903 178.115 56.4978 177.798 56.1153C177.492 55.7232 177.065 55.5272 176.519 55.5272C176.212 55.5272 175.939 55.5894 175.7 55.7137C175.47 55.8284 175.273 55.9814 175.11 56.1727C174.947 56.364 174.818 56.5839 174.722 56.8325C174.636 57.0812 174.579 57.3346 174.55 57.5928H178.258Z" fill="white"/>
<path d="M183.312 61.0784C183.858 61.0784 184.261 61.0067 184.52 60.8633C184.788 60.7198 184.922 60.4903 184.922 60.1747C184.922 59.8496 184.793 59.5914 184.534 59.4001C184.275 59.2089 183.849 58.9937 183.255 58.7547C182.967 58.6399 182.689 58.5252 182.421 58.4104C182.162 58.2861 181.937 58.1426 181.745 57.9801C181.554 57.8175 181.4 57.6215 181.285 57.392C181.17 57.1625 181.113 56.8803 181.113 56.5456C181.113 55.8858 181.357 55.3646 181.846 54.9821C182.335 54.5901 183.001 54.394 183.844 54.394C184.055 54.394 184.266 54.4084 184.477 54.437C184.687 54.4562 184.884 54.4849 185.066 54.5231C185.248 54.5518 185.406 54.5853 185.54 54.6235C185.684 54.6618 185.794 54.6952 185.871 54.7239L185.627 55.8715C185.483 55.795 185.258 55.7185 184.951 55.642C184.644 55.5559 184.275 55.5129 183.844 55.5129C183.47 55.5129 183.145 55.5894 182.867 55.7424C182.589 55.8858 182.45 56.1153 182.45 56.4309C182.45 56.5935 182.479 56.7369 182.536 56.8612C182.603 56.9855 182.699 57.1003 182.824 57.2055C182.958 57.3011 183.121 57.392 183.312 57.478C183.504 57.5641 183.734 57.6549 184.002 57.7506C184.357 57.8844 184.673 58.0183 184.951 58.1522C185.229 58.2765 185.464 58.4247 185.655 58.5969C185.856 58.769 186.01 58.9794 186.115 59.228C186.221 59.4671 186.273 59.7635 186.273 60.1174C186.273 60.8059 186.015 61.3271 185.497 61.6809C184.989 62.0347 184.261 62.2116 183.312 62.2116C182.651 62.2116 182.134 62.1542 181.76 62.0395C181.386 61.9343 181.132 61.853 180.998 61.7956L181.242 60.6481C181.396 60.7055 181.64 60.7915 181.975 60.9063C182.311 61.021 182.756 61.0784 183.312 61.0784Z" fill="white"/>
<path d="M193.177 58.3243C193.177 57.4541 192.962 56.7847 192.53 56.3161C192.099 55.8476 191.524 55.6133 190.805 55.6133C190.403 55.6133 190.087 55.6276 189.857 55.6563C189.636 55.685 189.459 55.7185 189.325 55.7567V60.4616C189.488 60.5955 189.723 60.7246 190.029 60.8489C190.336 60.9732 190.671 61.0354 191.035 61.0354C191.419 61.0354 191.745 60.9684 192.013 60.8346C192.291 60.6911 192.516 60.4999 192.688 60.2608C192.861 60.0122 192.986 59.7253 193.062 59.4001C193.139 59.0654 193.177 58.7068 193.177 58.3243ZM194.571 58.3243C194.571 58.8885 194.495 59.4097 194.341 59.8879C194.198 60.366 193.982 60.7772 193.695 61.1215C193.407 61.4657 193.053 61.7335 192.631 61.9247C192.219 62.116 191.745 62.2116 191.208 62.2116C190.777 62.2116 190.393 62.1542 190.058 62.0395C189.732 61.9247 189.488 61.8148 189.325 61.7096V64.6932H187.988V54.81C188.304 54.7335 188.697 54.6522 189.167 54.5661C189.646 54.4705 190.197 54.4227 190.82 54.4227C191.395 54.4227 191.912 54.5136 192.372 54.6952C192.832 54.8769 193.225 55.1351 193.551 55.4698C193.877 55.8045 194.126 56.2157 194.298 56.7034C194.48 57.1816 194.571 57.7219 194.571 58.3243Z" fill="white"/>
<path d="M203.05 58.31C203.05 58.9029 202.964 59.4384 202.792 59.9165C202.619 60.3947 202.375 60.8059 202.059 61.1501C201.752 61.4944 201.383 61.7622 200.952 61.9534C200.521 62.1351 200.051 62.226 199.543 62.226C199.035 62.226 198.566 62.1351 198.134 61.9534C197.703 61.7622 197.329 61.4944 197.013 61.1501C196.707 60.8059 196.467 60.3947 196.294 59.9165C196.122 59.4384 196.036 58.9029 196.036 58.31C196.036 57.7267 196.122 57.1959 196.294 56.7178C196.467 56.2301 196.707 55.8141 197.013 55.4698C197.329 55.1256 197.703 54.8626 198.134 54.6809C198.566 54.4896 199.035 54.394 199.543 54.394C200.051 54.394 200.521 54.4896 200.952 54.6809C201.383 54.8626 201.752 55.1256 202.059 55.4698C202.375 55.8141 202.619 56.2301 202.792 56.7178C202.964 57.1959 203.05 57.7267 203.05 58.31ZM201.656 58.31C201.656 57.4685 201.464 56.8038 201.081 56.3161C200.707 55.8189 200.195 55.5702 199.543 55.5702C198.891 55.5702 198.374 55.8189 197.991 56.3161C197.617 56.8038 197.43 57.4685 197.43 58.31C197.43 59.1515 197.617 59.8209 197.991 60.3182C198.374 60.8059 198.891 61.0497 199.543 61.0497C200.195 61.0497 200.707 60.8059 201.081 60.3182C201.464 59.8209 201.656 59.1515 201.656 58.31Z" fill="white"/>
<path d="M204.931 54.7957C205.238 54.7192 205.645 54.6379 206.153 54.5518C206.661 54.4657 207.245 54.4227 207.907 54.4227C208.501 54.4227 208.994 54.5088 209.387 54.6809C209.78 54.8435 210.092 55.0778 210.322 55.3838C210.561 55.6802 210.729 56.0388 210.825 56.4596C210.92 56.8803 210.968 57.3441 210.968 57.851V62.0395H209.632V58.1379C209.632 57.6788 209.598 57.2868 209.531 56.9616C209.473 56.6365 209.373 56.3735 209.229 56.1727C209.085 55.9719 208.894 55.8284 208.654 55.7424C208.415 55.6467 208.117 55.5989 207.763 55.5989C207.619 55.5989 207.471 55.6037 207.317 55.6133C207.164 55.6228 207.015 55.6372 206.872 55.6563C206.738 55.6659 206.613 55.6802 206.498 55.6993C206.393 55.7185 206.316 55.7328 206.268 55.7424V62.0395H204.931V54.7957Z" fill="white"/>
<path d="M214.924 61.0784C215.471 61.0784 215.873 61.0067 216.132 60.8633C216.4 60.7198 216.534 60.4903 216.534 60.1747C216.534 59.8496 216.405 59.5914 216.146 59.4001C215.888 59.2089 215.461 58.9937 214.867 58.7547C214.579 58.6399 214.302 58.5252 214.033 58.4104C213.774 58.2861 213.549 58.1426 213.358 57.9801C213.166 57.8175 213.013 57.6215 212.898 57.392C212.783 57.1625 212.725 56.8803 212.725 56.5456C212.725 55.8858 212.97 55.3646 213.458 54.9821C213.947 54.5901 214.613 54.394 215.456 54.394C215.667 54.394 215.878 54.4084 216.089 54.437C216.3 54.4562 216.496 54.4849 216.678 54.5231C216.86 54.5518 217.018 54.5853 217.152 54.6235C217.296 54.6618 217.406 54.6952 217.483 54.7239L217.239 55.8715C217.095 55.795 216.87 55.7185 216.563 55.642C216.256 55.5559 215.888 55.5129 215.456 55.5129C215.083 55.5129 214.757 55.5894 214.479 55.7424C214.201 55.8858 214.062 56.1153 214.062 56.4309C214.062 56.5935 214.091 56.7369 214.148 56.8612C214.215 56.9855 214.311 57.1003 214.436 57.2055C214.57 57.3011 214.733 57.392 214.924 57.478C215.116 57.5641 215.346 57.6549 215.614 57.7506C215.969 57.8844 216.285 58.0183 216.563 58.1522C216.841 58.2765 217.076 58.4247 217.267 58.5969C217.469 58.769 217.622 58.9794 217.727 59.228C217.833 59.4671 217.886 59.7635 217.886 60.1174C217.886 60.8059 217.627 61.3271 217.109 61.6809C216.601 62.0347 215.873 62.2116 214.924 62.2116C214.263 62.2116 213.746 62.1542 213.372 62.0395C212.998 61.9343 212.744 61.853 212.61 61.7956L212.855 60.6481C213.008 60.7055 213.252 60.7915 213.588 60.9063C213.923 61.021 214.369 61.0784 214.924 61.0784Z" fill="white"/>
<path d="M220.937 62.0395H219.6V54.5805H220.937V62.0395ZM220.261 53.2321C220.022 53.2321 219.816 53.1556 219.643 53.0026C219.48 52.8401 219.399 52.6249 219.399 52.3571C219.399 52.0894 219.48 51.879 219.643 51.726C219.816 51.5634 220.022 51.4821 220.261 51.4821C220.501 51.4821 220.702 51.5634 220.865 51.726C221.038 51.879 221.124 52.0894 221.124 52.3571C221.124 52.6249 221.038 52.8401 220.865 53.0026C220.702 53.1556 220.501 53.2321 220.261 53.2321Z" fill="white"/>
<path d="M224.573 54.9104C224.736 54.8052 224.98 54.6952 225.306 54.5805C225.641 54.4657 226.025 54.4084 226.456 54.4084C226.992 54.4084 227.467 54.504 227.879 54.6952C228.3 54.8865 228.655 55.1543 228.943 55.4985C229.23 55.8428 229.446 56.254 229.589 56.7321C229.743 57.2103 229.819 57.7362 229.819 58.31C229.819 58.9124 229.728 59.4575 229.546 59.9452C229.374 60.4234 229.125 60.8298 228.799 61.1645C228.473 61.4992 228.08 61.7574 227.62 61.9391C227.16 62.1208 226.643 62.2116 226.068 62.2116C225.445 62.2116 224.894 62.1686 224.415 62.0825C223.935 61.9965 223.543 61.9104 223.236 61.8243V51.1379L224.573 50.9084V54.9104ZM224.573 60.8776C224.707 60.9159 224.894 60.9541 225.133 60.9924C225.382 61.021 225.689 61.0354 226.053 61.0354C226.772 61.0354 227.347 60.8011 227.778 60.3325C228.209 59.8544 228.425 59.1802 228.425 58.31C228.425 57.9275 228.387 57.5689 228.31 57.2342C228.233 56.8995 228.109 56.6126 227.936 56.3735C227.764 56.1249 227.539 55.9336 227.261 55.7997C226.992 55.6563 226.667 55.5846 226.283 55.5846C225.919 55.5846 225.584 55.6467 225.277 55.7711C224.97 55.8954 224.736 56.0245 224.573 56.1584V60.8776Z" fill="white"/>
<path d="M233.037 62.0395H231.7V54.5805H233.037V62.0395ZM232.362 53.2321C232.122 53.2321 231.916 53.1556 231.744 53.0026C231.581 52.8401 231.499 52.6249 231.499 52.3571C231.499 52.0894 231.581 51.879 231.744 51.726C231.916 51.5634 232.122 51.4821 232.362 51.4821C232.601 51.4821 232.802 51.5634 232.965 51.726C233.138 51.879 233.224 52.0894 233.224 52.3571C233.224 52.6249 233.138 52.8401 232.965 53.0026C232.802 53.1556 232.601 53.2321 232.362 53.2321Z" fill="white"/>
<path d="M237.579 62.1829C236.754 62.1638 236.17 61.9869 235.825 61.6522C235.48 61.3175 235.307 60.7963 235.307 60.0887V51.1379L236.644 50.9084V59.8735C236.644 60.0935 236.663 60.2751 236.702 60.4186C236.74 60.562 236.802 60.6768 236.889 60.7628C236.975 60.8489 237.09 60.9159 237.234 60.9637C237.377 61.0019 237.555 61.0354 237.765 61.0641L237.579 62.1829Z" fill="white"/>
<path d="M240.603 62.0395H239.267V54.5805H240.603V62.0395ZM239.928 53.2321C239.688 53.2321 239.482 53.1556 239.31 53.0026C239.147 52.8401 239.065 52.6249 239.065 52.3571C239.065 52.0894 239.147 51.879 239.31 51.726C239.482 51.5634 239.688 51.4821 239.928 51.4821C240.167 51.4821 240.369 51.5634 240.532 51.726C240.704 51.879 240.79 52.0894 240.79 52.3571C240.79 52.6249 240.704 52.8401 240.532 53.0026C240.369 53.1556 240.167 53.2321 239.928 53.2321Z" fill="white"/>
<path d="M244.153 54.5805H246.985V55.6993H244.153V59.142C244.153 59.5149 244.182 59.8257 244.239 60.0743C244.297 60.3134 244.383 60.5047 244.498 60.6481C244.613 60.782 244.757 60.8776 244.929 60.935C245.102 60.9924 245.303 61.021 245.533 61.021C245.935 61.021 246.256 60.978 246.496 60.8919C246.745 60.7963 246.917 60.7294 247.013 60.6911L247.272 61.7956C247.138 61.8626 246.903 61.9439 246.568 62.0395C246.232 62.1447 245.849 62.1973 245.418 62.1973C244.91 62.1973 244.488 62.1351 244.153 62.0108C243.827 61.8769 243.564 61.6809 243.362 61.4227C243.161 61.1645 243.017 60.8489 242.931 60.476C242.854 60.0935 242.816 59.6536 242.816 59.1563V52.5006L244.153 52.2711V54.5805Z" fill="white"/>
<path d="M247.809 63.4309C247.914 63.4787 248.048 63.5217 248.211 63.56C248.384 63.6078 248.552 63.6317 248.714 63.6317C249.242 63.6317 249.654 63.5122 249.951 63.2731C250.248 63.0436 250.516 62.6658 250.756 62.1399C250.152 60.9924 249.586 59.7779 249.059 58.4965C248.542 57.2055 248.111 55.9002 247.766 54.5805H249.203C249.309 55.0108 249.433 55.4746 249.577 55.9719C249.73 56.4691 249.898 56.9808 250.08 57.5067C250.262 58.0327 250.459 58.5586 250.669 59.0846C250.88 59.6105 251.101 60.1174 251.331 60.6051C251.695 59.601 252.011 58.6064 252.279 57.6215C252.548 56.6365 252.802 55.6228 253.041 54.5805H254.421C254.076 55.9862 253.693 57.3394 253.271 58.6399C252.849 59.9309 252.394 61.1406 251.906 62.269C251.714 62.6993 251.513 63.0675 251.302 63.3735C251.101 63.6891 250.875 63.9473 250.626 64.1481C250.377 64.3489 250.094 64.4971 249.778 64.5928C249.471 64.6884 249.122 64.7362 248.729 64.7362C248.623 64.7362 248.513 64.7266 248.398 64.7075C248.283 64.6979 248.168 64.6788 248.053 64.6501C247.948 64.631 247.847 64.6071 247.751 64.5784C247.665 64.5497 247.603 64.5258 247.564 64.5067L247.809 63.4309Z" fill="white"/>
<path d="M257.02 61.2649C257.02 61.5231 256.934 61.7478 256.761 61.9391C256.589 62.1303 256.354 62.226 256.057 62.226C255.76 62.226 255.525 62.1303 255.353 61.9391C255.18 61.7478 255.094 61.5231 255.094 61.2649C255.094 61.0067 255.18 60.782 255.353 60.5907C255.525 60.3995 255.76 60.3038 256.057 60.3038C256.354 60.3038 256.589 60.3995 256.761 60.5907C256.934 60.782 257.02 61.0067 257.02 61.2649Z" fill="white"/>
<path d="M245.418 41.1701C243.775 41.1701 242.299 40.8515 240.991 40.2142C239.717 39.5434 238.627 38.6379 237.721 37.4975C236.849 36.3572 236.178 35.0491 235.709 33.5734C235.273 32.0641 235.055 30.4543 235.055 28.7437C235.088 27.0332 235.34 25.4401 235.809 23.9644C236.279 22.4551 236.95 21.1471 237.822 20.0403C238.727 18.8999 239.817 18.0111 241.092 17.3739C242.366 16.7366 243.808 16.418 245.418 16.418C246.961 16.418 248.403 16.7366 249.745 17.3739C251.12 18.0111 252.327 18.8999 253.367 20.0403C254.44 21.1471 255.279 22.4551 255.883 23.9644C256.486 25.4401 256.788 27.0165 256.788 28.6934C256.788 30.4375 256.486 32.0809 255.883 33.6237C255.279 35.133 254.457 36.4578 253.417 37.5981C252.378 38.7049 251.17 39.577 249.795 40.2142C248.42 40.8515 246.961 41.1701 245.418 41.1701ZM244.613 35.2839C245.787 35.2839 246.844 35.0156 247.783 34.479C248.722 33.9088 249.46 33.1374 249.996 32.1648C250.567 31.1921 250.852 30.0853 250.852 28.8444C250.852 27.5699 250.567 26.4463 249.996 25.4737C249.46 24.4675 248.722 23.6961 247.783 23.1594C246.844 22.5893 245.787 22.3042 244.613 22.3042C243.473 22.3042 242.433 22.5893 241.494 23.1594C240.555 23.7296 239.8 24.501 239.23 25.4737C238.694 26.4463 238.425 27.5699 238.425 28.8444C238.425 30.0853 238.694 31.1921 239.23 32.1648C239.8 33.1374 240.555 33.9088 241.494 34.479C242.433 35.0156 243.473 35.2839 244.613 35.2839ZM235.306 41.2204C234.401 41.2204 233.73 41.0695 233.294 40.7676C232.858 40.4993 232.589 40.1471 232.489 39.7111C232.388 39.2416 232.338 38.7217 232.338 38.1515V8.16734C232.338 7.59717 232.388 7.09408 232.489 6.65807C232.589 6.18852 232.858 5.81958 233.294 5.55127C233.73 5.28296 234.401 5.1488 235.306 5.1488C236.245 5.1488 236.916 5.28296 237.318 5.55127C237.721 5.81958 237.973 6.18852 238.073 6.65807C238.174 7.12762 238.224 7.63071 238.224 8.16734V39.1577C238.09 39.8956 237.805 40.4154 237.369 40.7173C236.966 41.0527 236.279 41.2204 235.306 41.2204Z" fill="white" stroke="white" stroke-width="0.2"/>
<path d="M217.343 41.5229C215.163 41.5229 213.252 41.1708 211.608 40.4664C209.998 39.7621 208.64 38.8062 207.533 37.5988C206.46 36.3579 205.638 34.9828 205.068 33.4735C204.531 31.9307 204.263 30.3376 204.263 28.6941C204.263 26.2793 204.816 24.1328 205.923 22.2546C207.03 20.3764 208.556 18.9006 210.501 17.8274C212.48 16.7541 214.744 16.2175 217.293 16.2175C219.104 16.2175 220.697 16.5026 222.072 17.0727C223.447 17.6429 224.588 18.3975 225.493 19.3366C226.432 20.2422 227.137 21.2484 227.606 22.3552C228.109 23.462 228.361 24.5352 228.361 25.575C228.361 27.3525 227.925 28.6438 227.053 29.4488C226.214 30.2537 225.158 30.6562 223.883 30.6562H210.602C210.635 31.7965 210.988 32.7859 211.658 33.6244C212.363 34.4629 213.235 35.1169 214.274 35.5865C215.348 36.0225 216.438 36.2405 217.545 36.2405C218.383 36.2405 219.121 36.1902 219.758 36.0896C220.429 35.9889 220.999 35.8715 221.469 35.7374C221.938 35.5697 222.341 35.402 222.676 35.2343C223.045 35.0666 223.38 34.9157 223.682 34.7815C223.984 34.6474 224.269 34.5635 224.538 34.53C224.906 34.4964 225.275 34.5803 225.644 34.7815C226.013 34.9828 226.315 35.3349 226.55 35.838C226.751 36.1734 226.885 36.492 226.952 36.7939C227.053 37.0622 227.103 37.3305 227.103 37.5988C227.103 38.2696 226.701 38.9069 225.896 39.5106C225.091 40.0807 223.951 40.5503 222.475 40.9192C221.033 41.3217 219.322 41.5229 217.343 41.5229ZM210.602 27.0842H220.915C221.485 27.0842 221.921 27.0004 222.223 26.8327C222.525 26.6315 222.676 26.229 222.676 25.6253C222.676 24.8539 222.441 24.1663 221.972 23.5626C221.502 22.9254 220.865 22.439 220.06 22.1036C219.255 21.7347 218.316 21.5502 217.243 21.5502C216.002 21.5502 214.878 21.8018 213.872 22.3049C212.866 22.7744 212.061 23.4284 211.457 24.2669C210.887 25.1054 210.602 26.0445 210.602 27.0842Z" fill="white" stroke="white" stroke-width="0.2"/>
<path d="M172.333 41.0714C171.663 41.0714 171.126 40.954 170.724 40.7192C170.321 40.4509 170.019 40.149 169.818 39.8136C169.65 39.4782 169.533 39.1932 169.466 38.9584L159.605 10.081C159.27 9.00772 159.22 8.20278 159.454 7.66615C159.689 7.09598 160.377 6.62643 161.517 6.25749C162.288 5.98918 162.909 5.87179 163.378 5.90533C163.848 5.93887 164.234 6.14011 164.536 6.50904C164.871 6.84443 165.156 7.38107 165.391 8.11893L172.635 30.0537L179.125 8.32016C179.226 7.98477 179.36 7.64938 179.528 7.31399C179.729 6.94505 180.031 6.6432 180.433 6.40842C180.836 6.17365 181.389 6.05626 182.093 6.05626C182.898 6.05626 183.502 6.19042 183.905 6.45873C184.307 6.72705 184.592 7.0289 184.76 7.36429C184.961 7.66615 185.095 7.95123 185.162 8.21955L191.652 30.2046L198.947 8.16924C199.182 7.39783 199.45 6.82767 199.752 6.45873C200.087 6.0898 200.507 5.88856 201.01 5.85502C201.513 5.78794 202.133 5.88856 202.871 6.15688C203.642 6.42519 204.196 6.72705 204.531 7.06244C204.867 7.3643 205.034 7.76677 205.034 8.26986C205.034 8.73941 204.917 9.34312 204.682 10.081L194.872 39.0087C194.805 39.2099 194.671 39.4782 194.469 39.8136C194.302 40.149 194.017 40.4509 193.614 40.7192C193.212 40.954 192.658 41.0714 191.954 41.0714C191.25 41.0714 190.696 40.9204 190.294 40.6186C189.891 40.3167 189.589 39.9813 189.388 39.6124C189.187 39.2435 189.053 38.9752 188.986 38.8075L182.144 16.6715L175.302 38.7571C175.235 38.9919 175.1 39.2938 174.899 39.6627C174.732 40.0316 174.446 40.367 174.044 40.6689C173.641 40.9372 173.071 41.0714 172.333 41.0714Z" fill="white" stroke="white" stroke-width="0.2"/>
<path d="M146.174 41.5234C145.302 41.5234 144.379 41.4228 143.407 41.2215C142.434 41.0538 141.495 40.8023 140.59 40.4669C139.684 40.098 138.896 39.6787 138.225 39.2092C137.588 38.7061 137.185 38.1527 137.018 37.549C136.883 37.2136 136.833 36.895 136.867 36.5931C136.9 36.2577 137.001 35.9223 137.168 35.5869C137.336 35.218 137.588 34.8491 137.923 34.4801C138.225 34.1112 138.527 33.91 138.829 33.8764C139.164 33.8093 139.583 33.91 140.086 34.1783C140.522 34.346 140.992 34.564 141.495 34.8323C142.032 35.1006 142.568 35.3689 143.105 35.6372C143.675 35.9055 144.245 36.1235 144.815 36.2912C145.419 36.4589 146.006 36.5428 146.576 36.5428C147.817 36.5428 148.807 36.3416 149.545 35.9391C150.282 35.5031 150.651 34.8994 150.651 34.128C150.651 33.6919 150.534 33.3062 150.299 32.9708C150.064 32.6355 149.746 32.3671 149.343 32.1659C148.974 31.9311 148.522 31.7299 147.985 31.5622C147.482 31.361 146.928 31.1933 146.325 31.0591C145.755 30.8914 145.151 30.7069 144.514 30.5057C143.675 30.2709 142.837 29.9858 141.998 29.6505C141.16 29.3151 140.405 28.879 139.734 28.3424C139.097 27.8058 138.577 27.135 138.175 26.3301C137.772 25.5251 137.571 24.5189 137.571 23.3115C137.571 21.8022 137.923 20.5277 138.627 19.488C139.365 18.4148 140.422 17.593 141.797 17.0229C143.172 16.4527 144.832 16.1676 146.778 16.1676C147.448 16.1676 148.086 16.2179 148.689 16.3185C149.327 16.4192 149.93 16.5701 150.5 16.7713C151.104 16.939 151.674 17.157 152.211 17.4253C152.781 17.6937 153.318 17.9955 153.821 18.3309C154.659 18.8005 155.095 19.3539 155.129 19.9911C155.162 20.5948 154.928 21.2488 154.425 21.9532C154.056 22.4227 153.687 22.7581 153.318 22.9593C152.949 23.127 152.563 23.127 152.161 22.9593C151.624 22.691 151.037 22.4059 150.4 22.1041C149.796 21.7687 149.159 21.4836 148.488 21.2488C147.851 21.0141 147.18 20.8967 146.476 20.8967C145.805 20.8967 145.201 20.9973 144.665 21.1985C144.128 21.3998 143.725 21.6848 143.457 22.0538C143.189 22.4227 143.055 22.8587 143.055 23.3618C143.055 23.8314 143.189 24.2171 143.457 24.5189C143.725 24.8208 144.078 25.0723 144.514 25.2736C144.95 25.4748 145.469 25.6593 146.073 25.827C146.677 25.9611 147.314 26.0953 147.985 26.2294C148.924 26.4307 149.88 26.6822 150.853 26.9841C151.825 27.2859 152.714 27.7052 153.519 28.2418C154.357 28.7784 155.028 29.4995 155.531 30.4051C156.034 31.2771 156.286 32.4174 156.286 33.8261C156.286 36.2745 155.38 38.1695 153.569 39.511C151.792 40.8526 149.327 41.5234 146.174 41.5234Z" fill="white" stroke="white" stroke-width="0.2"/>
<path d="M122.425 41.5226C120.245 41.5226 118.333 41.1705 116.689 40.4661C115.079 39.7618 113.721 38.8059 112.614 37.5985C111.541 36.3576 110.719 34.9825 110.149 33.4732C109.613 31.9304 109.344 30.3372 109.344 28.6938C109.344 26.279 109.898 24.1325 111.004 22.2543C112.111 20.3761 113.637 18.9003 115.583 17.8271C117.561 16.7538 119.825 16.2172 122.374 16.2172C124.185 16.2172 125.779 16.5023 127.154 17.0724C128.529 17.6426 129.669 18.3972 130.575 19.3363C131.514 20.2419 132.218 21.2481 132.688 22.3549C133.191 23.4617 133.442 24.5349 133.442 25.5747C133.442 27.3522 133.006 28.6435 132.134 29.4485C131.296 30.2534 130.239 30.6559 128.965 30.6559H115.683C115.717 31.7962 116.069 32.7856 116.74 33.6241C117.444 34.4626 118.316 35.1166 119.356 35.5862C120.429 36.0222 121.519 36.2402 122.626 36.2402C123.464 36.2402 124.202 36.1899 124.839 36.0893C125.51 35.9886 126.08 35.8712 126.55 35.7371C127.02 35.5694 127.422 35.4017 127.757 35.234C128.126 35.0663 128.462 34.9154 128.764 34.7812C129.065 34.6471 129.35 34.5632 129.619 34.5297C129.988 34.4961 130.357 34.58 130.726 34.7812C131.095 34.9825 131.396 35.3346 131.631 35.8377C131.832 36.1731 131.967 36.4917 132.034 36.7936C132.134 37.0619 132.185 37.3302 132.185 37.5985C132.185 38.2693 131.782 38.9066 130.977 39.5103C130.172 40.0804 129.032 40.55 127.556 40.9189C126.114 41.3214 124.403 41.5226 122.425 41.5226ZM115.683 27.0839H125.997C126.567 27.0839 127.003 27.0001 127.305 26.8324C127.606 26.6311 127.757 26.2287 127.757 25.625C127.757 24.8536 127.523 24.166 127.053 23.5623C126.583 22.925 125.946 22.4387 125.141 22.1033C124.336 21.7344 123.397 21.5499 122.324 21.5499C121.083 21.5499 119.959 21.8015 118.953 22.3046C117.947 22.7741 117.142 23.4281 116.538 24.2666C115.968 25.1051 115.683 26.0442 115.683 27.0839Z" fill="white" stroke="white" stroke-width="0.2"/>
<path d="M104.464 41.2225C103.223 41.2225 102.117 41.1387 101.144 40.971C100.205 40.8033 99.3832 40.5182 98.6789 40.1157C98.0081 39.7133 97.4547 39.1766 97.0187 38.5058C96.5827 37.8015 96.2473 36.9463 96.0125 35.9401C95.8113 34.9339 95.7107 33.7265 95.7107 32.3178V8.06885C95.7107 7.49868 95.761 6.99559 95.8616 6.55958C95.9958 6.09003 96.2641 5.7211 96.6665 5.45278C97.1026 5.15093 97.7901 5 98.7292 5C99.6683 5 100.339 5.13416 100.741 5.40247C101.177 5.67079 101.446 6.03972 101.546 6.50927C101.681 6.94528 101.748 7.44837 101.748 8.01854V32.0663C101.748 32.7035 101.781 33.2402 101.848 33.6762C101.949 34.0786 102.1 34.414 102.301 34.6824C102.536 34.9171 102.821 35.0848 103.156 35.1854C103.525 35.2861 103.961 35.3364 104.464 35.3364C104.9 35.3364 105.286 35.3867 105.621 35.4873C105.99 35.5879 106.275 35.8395 106.477 36.2419C106.711 36.6444 106.829 37.2984 106.829 38.204C106.829 39.1431 106.711 39.8306 106.477 40.2667C106.275 40.7027 105.99 40.971 105.621 41.0716C105.253 41.1722 104.867 41.2225 104.464 41.2225Z" fill="white" stroke="white" stroke-width="0.2"/>
<path d="M87.2879 41.2219C86.3823 41.2219 85.7115 41.0709 85.2755 40.7691C84.8395 40.5008 84.5712 40.1486 84.4706 39.7126C84.37 39.243 84.3196 38.7232 84.3196 38.153V19.438C84.3196 18.9014 84.37 18.4151 84.4706 17.9791C84.6047 17.5095 84.873 17.1406 85.2755 16.8723C85.7115 16.604 86.3991 16.4698 87.3382 16.4698C88.2773 16.4698 88.9481 16.604 89.3506 16.8723C89.7866 17.1406 90.0549 17.5095 90.1555 17.9791C90.2561 18.4486 90.3064 18.9685 90.3064 19.5386V38.2033C90.3064 38.7735 90.2561 39.2933 90.1555 39.7629C90.0549 40.1989 89.7866 40.5511 89.3506 40.8194C88.9481 41.0877 88.2605 41.2219 87.2879 41.2219ZM87.2879 11.5898C86.3152 11.5898 85.5941 11.4557 85.1246 11.1873C84.6886 10.8855 84.4035 10.483 84.2693 9.97996C84.1687 9.47686 84.1184 8.92346 84.1184 8.31975C84.1184 7.6825 84.1687 7.12911 84.2693 6.65955C84.4035 6.19 84.7053 5.82107 85.1749 5.55275C85.6445 5.2509 86.3655 5.09998 87.3382 5.09998C88.3444 5.09998 89.0655 5.2509 89.5015 5.55275C89.9375 5.85461 90.2226 6.25708 90.3567 6.76017C90.4909 7.22972 90.558 7.78312 90.558 8.42037C90.558 8.99054 90.4909 9.52717 90.3567 10.0302C90.2226 10.5333 89.9375 10.919 89.5015 11.1873C89.0655 11.4557 88.3276 11.5898 87.2879 11.5898Z" fill="white" stroke="white" stroke-width="0.2"/>
<path d="M45.9682 41.1711C45.0962 41.1711 44.4422 41.0369 44.0062 40.7686C43.5702 40.5003 43.2851 40.1314 43.1509 39.6618C43.0503 39.1923 43 38.6724 43 38.1022V9.0739C43 8.53727 43.0503 8.05095 43.1509 7.61494C43.2851 7.14539 43.5702 6.77645 44.0062 6.50814C44.4422 6.20629 45.1298 6.05536 46.0689 6.05536C46.7732 6.05536 47.293 6.10567 47.6284 6.20628C47.9974 6.27336 48.2825 6.39075 48.4837 6.55845C48.6849 6.69261 48.8862 6.87707 49.0874 7.11185L61.3628 24.2672H60.2057L72.5314 7.06154C72.7662 6.79322 73.001 6.59199 73.2358 6.45783C73.4705 6.32367 73.7724 6.22305 74.1413 6.15598C74.5103 6.0889 74.9966 6.05536 75.6003 6.05536C76.5059 6.05536 77.1766 6.20629 77.6127 6.50814C78.0487 6.77645 78.317 7.14539 78.4176 7.61494C78.5518 8.08449 78.6188 8.60435 78.6188 9.17452V38.2028C78.6188 38.7059 78.5518 39.1923 78.4176 39.6618C78.317 40.1314 78.0487 40.5003 77.6127 40.7686C77.1766 41.0369 76.4891 41.1711 75.55 41.1711C74.6444 41.1711 73.9736 41.0202 73.5376 40.7183C73.1016 40.45 72.8165 40.081 72.6824 39.6115C72.5817 39.1419 72.5314 38.6389 72.5314 38.1022V16.5196L63.3752 29.7509C63.2746 29.8851 63.1236 30.0695 62.9224 30.3043C62.7212 30.5056 62.4529 30.69 62.1175 30.8577C61.7821 31.0254 61.3293 31.1093 60.7591 31.1093C60.2225 31.1093 59.7865 31.0254 59.4511 30.8577C59.1157 30.69 58.8474 30.5056 58.6461 30.3043C58.4784 30.1031 58.3107 29.9019 58.143 29.7006L49.0371 16.5196V38.2028C49.0371 38.7059 48.97 39.1923 48.8359 39.6618C48.7352 40.1314 48.4669 40.5003 48.0309 40.7686C47.5949 41.0369 46.9073 41.1711 45.9682 41.1711Z" fill="white" stroke="white" stroke-width="0.2"/>
</svg>
