<svg width="170" height="50" viewBox="0 0 170 50" fill="none" xmlns="http://www.w3.org/2000/svg">
<path d="M78.734 45.2207C78.734 44.6786 79.1734 44.2392 79.7155 44.2392H147.435C147.977 44.2392 148.417 44.6786 148.417 45.2207V45.2207C148.417 45.7627 147.977 46.2021 147.435 46.2021H79.7155C79.1734 46.2021 78.734 45.7627 78.734 45.2207V45.2207Z" fill="#FFBB00"/>
<path d="M23.5492 37.9833V35.6075C23.1553 34.9979 22.7842 34.3968 22.4359 33.8043C22.0876 33.2117 21.7594 32.6306 21.451 32.0609H22.4273C22.6443 32.528 22.8869 33.0038 23.1553 33.4881C23.4236 33.9666 23.7005 34.4281 23.986 34.8725C24.2657 34.4281 24.5398 33.9666 24.8081 33.4881C25.0765 33.0038 25.322 32.528 25.5446 32.0609H26.4695C26.1612 32.6306 25.833 33.2117 25.4847 33.8043C25.1364 34.3911 24.7682 34.9865 24.3799 35.5904V37.9833H23.5492Z" fill="#27235C"/>
<path d="M30.7158 35.7613C30.7158 36.1146 30.6644 36.4336 30.5617 36.7185C30.4589 37.0033 30.3133 37.2483 30.1249 37.4534C29.9422 37.6585 29.7224 37.8181 29.4655 37.932C29.2086 38.0403 28.9288 38.0944 28.6262 38.0944C28.3236 38.0944 28.0438 38.0403 27.7869 37.932C27.53 37.8181 27.3073 37.6585 27.1189 37.4534C26.9362 37.2483 26.7935 37.0033 26.6907 36.7185C26.588 36.4336 26.5366 36.1146 26.5366 35.7613C26.5366 35.4138 26.588 35.0976 26.6907 34.8127C26.7935 34.5221 26.9362 34.2743 27.1189 34.0692C27.3073 33.8641 27.53 33.7074 27.7869 33.5992C28.0438 33.4852 28.3236 33.4282 28.6262 33.4282C28.9288 33.4282 29.2086 33.4852 29.4655 33.5992C29.7224 33.7074 29.9422 33.8641 30.1249 34.0692C30.3133 34.2743 30.4589 34.5221 30.5617 34.8127C30.6644 35.0976 30.7158 35.4138 30.7158 35.7613ZM29.8851 35.7613C29.8851 35.2599 29.7709 34.864 29.5425 34.5734C29.3199 34.2771 29.0144 34.129 28.6262 34.129C28.238 34.129 27.9297 34.2771 27.7013 34.5734C27.4786 34.864 27.3673 35.2599 27.3673 35.7613C27.3673 36.2627 27.4786 36.6615 27.7013 36.9578C27.9297 37.2483 28.238 37.3936 28.6262 37.3936C29.0144 37.3936 29.3199 37.2483 29.5425 36.9578C29.7709 36.6615 29.8851 36.2627 29.8851 35.7613Z" fill="#27235C"/>
<path d="M35.3818 37.8551C35.1991 37.9007 34.9565 37.9491 34.6539 38.0004C34.357 38.0517 34.0116 38.0773 33.6177 38.0773C33.2751 38.0773 32.9868 38.0289 32.7527 37.932C32.5186 37.8295 32.3302 37.687 32.1875 37.5047C32.0447 37.3224 31.942 37.1087 31.8792 36.8638C31.8164 36.6131 31.785 36.3368 31.785 36.0348V33.5393H32.5814V35.8639C32.5814 36.4051 32.6671 36.7925 32.8383 37.0261C33.0096 37.2597 33.2979 37.3765 33.7033 37.3765C33.7889 37.3765 33.8774 37.3737 33.9688 37.368C34.0601 37.3623 34.1458 37.3566 34.2257 37.3509C34.3056 37.3395 34.377 37.3309 34.4398 37.3252C34.5083 37.3139 34.5568 37.3025 34.5854 37.2911V33.5393H35.3818V37.8551Z" fill="#27235C"/>
<path d="M38.3982 33.4453C38.4668 33.4453 38.5438 33.451 38.6295 33.4624C38.7208 33.4681 38.8093 33.4795 38.895 33.4966C38.9806 33.508 39.0577 33.5222 39.1262 33.5393C39.2004 33.5507 39.2546 33.5621 39.2889 33.5735L39.1519 34.2658C39.0891 34.243 38.9834 34.2173 38.835 34.1888C38.6923 34.1547 38.5067 34.1376 38.2783 34.1376C38.1299 34.1376 37.9815 34.1547 37.833 34.1888C37.6903 34.2173 37.5961 34.2373 37.5504 34.2487V37.9833H36.754V33.7273C36.9424 33.659 37.1764 33.5963 37.4562 33.5393C37.736 33.4767 38.05 33.4453 38.3982 33.4453Z" fill="#27235C"/>
<path d="M45.8248 32.0609H46.6555V37.9833H45.8248V35.2485H42.9216V37.9833H42.0909V32.0609H42.9216V34.5307H45.8248V32.0609Z" fill="#27235C"/>
<path d="M52.0087 35.7613C52.0087 36.1146 51.9573 36.4336 51.8545 36.7185C51.7518 37.0033 51.6062 37.2483 51.4178 37.4534C51.2351 37.6585 51.0153 37.8181 50.7584 37.932C50.5014 38.0403 50.2217 38.0944 49.9191 38.0944C49.6165 38.0944 49.3367 38.0403 49.0798 37.932C48.8229 37.8181 48.6002 37.6585 48.4118 37.4534C48.2291 37.2483 48.0864 37.0033 47.9836 36.7185C47.8809 36.4336 47.8295 36.1146 47.8295 35.7613C47.8295 35.4138 47.8809 35.0976 47.9836 34.8127C48.0864 34.5221 48.2291 34.2743 48.4118 34.0692C48.6002 33.8641 48.8229 33.7074 49.0798 33.5992C49.3367 33.4852 49.6165 33.4282 49.9191 33.4282C50.2217 33.4282 50.5014 33.4852 50.7584 33.5992C51.0153 33.7074 51.2351 33.8641 51.4178 34.0692C51.6062 34.2743 51.7518 34.5221 51.8545 34.8127C51.9573 35.0976 52.0087 35.4138 52.0087 35.7613ZM51.178 35.7613C51.178 35.2599 51.0638 34.864 50.8354 34.5734C50.6128 34.2771 50.3073 34.129 49.9191 34.129C49.5308 34.129 49.2225 34.2771 48.9942 34.5734C48.7715 34.864 48.6602 35.2599 48.6602 35.7613C48.6602 36.2627 48.7715 36.6615 48.9942 36.9578C49.2225 37.2483 49.5308 37.3936 49.9191 37.3936C50.3073 37.3936 50.6128 37.2483 50.8354 36.9578C51.0638 36.6615 51.178 36.2627 51.178 35.7613Z" fill="#27235C"/>
<path d="M54.1655 37.4107C54.4909 37.4107 54.7307 37.368 54.8849 37.2825C55.0447 37.1971 55.1246 37.0603 55.1246 36.8723C55.1246 36.6786 55.0476 36.5248 54.8934 36.4108C54.7393 36.2969 54.4852 36.1687 54.1312 36.0262C53.9599 35.9579 53.7944 35.8895 53.6345 35.8211C53.4804 35.7471 53.3462 35.6616 53.232 35.5648C53.1178 35.4679 53.0265 35.3511 52.958 35.2144C52.8894 35.0776 52.8552 34.9096 52.8552 34.7101C52.8552 34.317 53.0008 34.0065 53.292 33.7786C53.5831 33.545 53.9799 33.4282 54.4823 33.4282C54.608 33.4282 54.7336 33.4368 54.8592 33.4539C54.9848 33.4653 55.1018 33.4824 55.2103 33.5052C55.3188 33.5222 55.413 33.5422 55.4929 33.565C55.5785 33.5878 55.6442 33.6077 55.6899 33.6248L55.5443 34.3085C55.4586 34.2629 55.3245 34.2173 55.1418 34.1717C54.9591 34.1205 54.7393 34.0948 54.4823 34.0948C54.2597 34.0948 54.0656 34.1404 53.9 34.2316C53.7344 34.317 53.6516 34.4538 53.6516 34.6418C53.6516 34.7386 53.6688 34.8241 53.703 34.8982C53.743 34.9722 53.8001 35.0406 53.8743 35.1033C53.9542 35.1602 54.0513 35.2144 54.1655 35.2656C54.2797 35.3169 54.4167 35.371 54.5766 35.428C54.7878 35.5078 54.9762 35.5875 55.1418 35.6673C55.3073 35.7414 55.4472 35.8297 55.5614 35.9322C55.6813 36.0348 55.7727 36.1601 55.8355 36.3083C55.8983 36.4507 55.9297 36.6273 55.9297 36.8381C55.9297 37.2483 55.7755 37.5588 55.4672 37.7696C55.1646 37.9804 54.7307 38.0858 54.1655 38.0858C53.7715 38.0858 53.4632 38.0517 53.2406 37.9833C53.0179 37.9206 52.8666 37.8722 52.7867 37.838L52.9323 37.1543C53.0236 37.1885 53.1692 37.2398 53.369 37.3082C53.5689 37.3765 53.8343 37.4107 54.1655 37.4107Z" fill="#27235C"/>
<path d="M57.6963 33.5393H59.3834V34.2059H57.6963V36.257C57.6963 36.4792 57.7134 36.6644 57.7477 36.8125C57.782 36.9549 57.8333 37.0689 57.9019 37.1543C57.9704 37.2341 58.056 37.2911 58.1588 37.3252C58.2615 37.3594 58.3814 37.3765 58.5185 37.3765C58.7583 37.3765 58.9495 37.3509 59.0923 37.2996C59.2407 37.2426 59.3435 37.2028 59.4006 37.18L59.5547 37.838C59.4748 37.8779 59.3349 37.9263 59.1351 37.9833C58.9352 38.046 58.7069 38.0773 58.45 38.0773C58.1474 38.0773 57.8961 38.0403 57.6963 37.9662C57.5022 37.8864 57.3452 37.7696 57.2253 37.6158C57.1054 37.462 57.0198 37.274 56.9684 37.0518C56.9227 36.8239 56.8999 36.5618 56.8999 36.2655V32.3002L57.6963 32.1634V33.5393Z" fill="#27235C"/>
<path d="M61.1934 37.9833H60.3969V33.5393H61.1934V37.9833ZM60.7909 32.736C60.6481 32.736 60.5254 32.6904 60.4226 32.5993C60.3256 32.5024 60.277 32.3742 60.277 32.2147C60.277 32.0552 60.3256 31.9298 60.4226 31.8387C60.5254 31.7418 60.6481 31.6934 60.7909 31.6934C60.9336 31.6934 61.0535 31.7418 61.1505 31.8387C61.2533 31.9298 61.3047 32.0552 61.3047 32.2147C61.3047 32.3742 61.2533 32.5024 61.1505 32.5993C61.0535 32.6904 60.9336 32.736 60.7909 32.736Z" fill="#27235C"/>
<path d="M62.563 33.6675C62.7457 33.6219 62.9884 33.5735 63.2909 33.5222C63.5935 33.471 63.9418 33.4453 64.3358 33.4453C64.6897 33.4453 64.9838 33.4966 65.2178 33.5992C65.4519 33.696 65.6375 33.8356 65.7745 34.0179C65.9172 34.1945 66.0171 34.4082 66.0742 34.6589C66.1313 34.9096 66.1599 35.1859 66.1599 35.4878V37.9833H65.3634V35.6588C65.3634 35.3853 65.3434 35.1517 65.3035 34.958C65.2692 34.7643 65.2093 34.6076 65.1236 34.4879C65.038 34.3683 64.9238 34.2828 64.7811 34.2316C64.6383 34.1746 64.4614 34.1461 64.2501 34.1461C64.1645 34.1461 64.076 34.149 63.9846 34.1547C63.8933 34.1603 63.8048 34.1689 63.7191 34.1803C63.6392 34.186 63.565 34.1945 63.4965 34.2059C63.4337 34.2173 63.388 34.2259 63.3595 34.2316V37.9833H62.563V33.6675Z" fill="#27235C"/>
<path d="M70.2725 37.5389C70.204 37.5845 70.0698 37.6443 69.87 37.7184C69.6758 37.7867 69.4475 37.8209 69.1848 37.8209C68.9165 37.8209 68.6624 37.7782 68.4226 37.6927C68.1886 37.6073 67.983 37.4762 67.806 37.2996C67.629 37.1173 67.4892 36.8922 67.3864 36.6245C67.2836 36.3567 67.2323 36.0376 67.2323 35.6673C67.2323 35.3426 67.2808 35.0463 67.3778 34.7785C67.4749 34.505 67.6148 34.2714 67.7975 34.0777C67.9859 33.8783 68.2143 33.7245 68.4826 33.6162C68.7509 33.5023 69.0535 33.4453 69.3904 33.4453C69.7615 33.4453 70.0841 33.4738 70.3581 33.5308C70.6379 33.5821 70.8719 33.6305 71.0604 33.6761V37.6415C71.0604 38.3251 70.8834 38.8208 70.5294 39.1285C70.1754 39.4361 69.6387 39.59 68.9194 39.59C68.6396 39.59 68.3741 39.5672 68.1229 39.5216C67.8774 39.476 67.6633 39.4219 67.4806 39.3592L67.6262 38.667C67.7861 38.7297 67.9802 38.7838 68.2085 38.8294C68.4426 38.8806 68.6853 38.9063 68.9365 38.9063C69.4104 38.9063 69.7501 38.8123 69.9556 38.6243C70.1668 38.4362 70.2725 38.1371 70.2725 37.7269V37.5389ZM70.2639 34.2401C70.184 34.2173 70.0755 34.1974 69.9385 34.1803C69.8072 34.1575 69.6273 34.1461 69.3989 34.1461C68.9707 34.1461 68.6396 34.2857 68.4055 34.5649C68.1771 34.844 68.063 35.2144 68.063 35.6759C68.063 35.9322 68.0944 36.1516 68.1572 36.3339C68.2257 36.5162 68.3142 36.6672 68.4226 36.7868C68.5368 36.9065 68.6653 36.9948 68.808 37.0518C68.9565 37.1087 69.1078 37.1372 69.2619 37.1372C69.4732 37.1372 69.6673 37.1087 69.8443 37.0518C70.0213 36.9891 70.1611 36.9179 70.2639 36.8381V34.2401Z" fill="#27235C"/>
<path d="M73.2709 37.009C73.2766 37.0546 73.2795 37.1002 73.2795 37.1458C73.2795 37.1857 73.2795 37.2284 73.2795 37.274C73.2795 37.6329 73.2253 37.9861 73.1168 38.3337C73.014 38.6869 72.8713 39.0231 72.6886 39.3421L72.072 39.1456C72.2147 38.855 72.3089 38.5587 72.3546 38.2568C72.4003 37.9605 72.4231 37.6813 72.4231 37.4193C72.4231 37.3452 72.4202 37.274 72.4145 37.2056C72.4145 37.1372 72.4117 37.0717 72.406 37.009H73.2709Z" fill="#27235C"/>
<path d="M76.3329 35.0178C76.3329 34.5107 76.4071 34.0635 76.5556 33.6761C76.7097 33.2887 76.9152 32.9667 77.1722 32.7104C77.4348 32.4483 77.7374 32.2517 78.0799 32.1207C78.4282 31.9896 78.7965 31.9241 79.1847 31.9241C79.5672 31.9241 79.9269 31.9896 80.2638 32.1207C80.6063 32.2517 80.9061 32.4483 81.163 32.7104C81.4199 32.9667 81.6226 33.2887 81.771 33.6761C81.9252 34.0635 82.0023 34.5107 82.0023 35.0178C82.0023 35.5249 81.9252 35.9721 81.771 36.3595C81.6226 36.747 81.4199 37.0717 81.163 37.3338C80.9061 37.5902 80.6063 37.7839 80.2638 37.9149C79.9269 38.046 79.5672 38.1115 79.1847 38.1115C78.7965 38.1115 78.4282 38.046 78.0799 37.9149C77.7374 37.7839 77.4348 37.5902 77.1722 37.3338C76.9152 37.0717 76.7097 36.747 76.5556 36.3595C76.4071 35.9721 76.3329 35.5249 76.3329 35.0178ZM77.2064 35.0178C77.2064 35.3767 77.2521 35.7043 77.3434 36.0006C77.4348 36.2912 77.5633 36.539 77.7288 36.7441C77.9001 36.9492 78.1056 37.1087 78.3454 37.2227C78.5909 37.3309 78.865 37.3851 79.1676 37.3851C79.4702 37.3851 79.7414 37.3309 79.9812 37.2227C80.2209 37.1087 80.4236 36.9492 80.5892 36.7441C80.7605 36.539 80.8918 36.2912 80.9831 36.0006C81.0745 35.7043 81.1202 35.3767 81.1202 35.0178C81.1202 34.6589 81.0745 34.3341 80.9831 34.0436C80.8918 33.7473 80.7605 33.4966 80.5892 33.2915C80.4236 33.0864 80.2209 32.9297 79.9812 32.8215C79.7414 32.7075 79.4702 32.6505 79.1676 32.6505C78.865 32.6505 78.5909 32.7075 78.3454 32.8215C78.1056 32.9297 77.9001 33.0864 77.7288 33.2915C77.5633 33.4966 77.4348 33.7473 77.3434 34.0436C77.2521 34.3341 77.2064 34.6589 77.2064 35.0178Z" fill="#27235C"/>
<path d="M86.7323 37.8551C86.5496 37.9007 86.307 37.9491 86.0044 38.0004C85.7075 38.0517 85.3621 38.0773 84.9681 38.0773C84.6256 38.0773 84.3373 38.0289 84.1032 37.932C83.8691 37.8295 83.6807 37.687 83.538 37.5047C83.3952 37.3224 83.2925 37.1087 83.2296 36.8638C83.1668 36.6131 83.1354 36.3368 83.1354 36.0348V33.5393H83.9319V35.8639C83.9319 36.4051 84.0175 36.7925 84.1888 37.0261C84.3601 37.2597 84.6484 37.3765 85.0538 37.3765C85.1394 37.3765 85.2279 37.3737 85.3193 37.368C85.4106 37.3623 85.4963 37.3566 85.5762 37.3509C85.6561 37.3395 85.7275 37.3309 85.7903 37.3252C85.8588 37.3139 85.9073 37.3025 85.9359 37.2911V33.5393H86.7323V37.8551Z" fill="#27235C"/>
<path d="M89.7487 33.4453C89.8172 33.4453 89.8943 33.451 89.9799 33.4624C90.0713 33.4681 90.1598 33.4795 90.2454 33.4966C90.3311 33.508 90.4081 33.5222 90.4767 33.5393C90.5509 33.5507 90.6051 33.5621 90.6394 33.5735L90.5023 34.2658C90.4395 34.243 90.3339 34.2173 90.1855 34.1888C90.0427 34.1547 89.8572 34.1376 89.6288 34.1376C89.4804 34.1376 89.3319 34.1547 89.1835 34.1888C89.0408 34.2173 88.9466 34.2373 88.9009 34.2487V37.9833H88.1044V33.7273C88.2928 33.659 88.5269 33.5963 88.8067 33.5393C89.0864 33.4767 89.4004 33.4453 89.7487 33.4453Z" fill="#27235C"/>
<path d="M96.3446 35.5049C96.4359 35.6189 96.5501 35.7699 96.6871 35.9579C96.8299 36.1402 96.9755 36.3453 97.1239 36.5732C97.2724 36.7954 97.4179 37.029 97.5607 37.274C97.7091 37.519 97.8347 37.7554 97.9375 37.9833H97.0297C96.9155 37.7668 96.7899 37.5474 96.6529 37.3252C96.5216 37.103 96.3874 36.8922 96.2504 36.6928C96.1134 36.4877 95.9763 36.2969 95.8393 36.1202C95.708 35.9436 95.5881 35.7898 95.4796 35.6588C95.4054 35.6645 95.3283 35.6673 95.2484 35.6673C95.1742 35.6673 95.0971 35.6673 95.0172 35.6673H94.2721V37.9833H93.4414V32.1463C93.6755 32.0894 93.9353 32.0523 94.2207 32.0352C94.5119 32.0124 94.7774 32.001 95.0172 32.001C95.8507 32.001 96.4845 32.1577 96.9184 32.4711C97.358 32.7844 97.5778 33.2516 97.5778 33.8726C97.5778 34.2658 97.4722 34.6019 97.2609 34.8811C97.0554 35.1602 96.75 35.3682 96.3446 35.5049ZM95.0857 32.7275C94.7317 32.7275 94.4605 32.736 94.2721 32.7531V34.9836H94.863C95.1485 34.9836 95.4054 34.9694 95.6338 34.9409C95.8622 34.9124 96.0534 34.8583 96.2076 34.7785C96.3674 34.6988 96.4902 34.5877 96.5758 34.4452C96.6615 34.2971 96.7043 34.1034 96.7043 33.8641C96.7043 33.6419 96.6615 33.4567 96.5758 33.3086C96.4902 33.1605 96.3731 33.0437 96.2247 32.9582C96.082 32.8727 95.9107 32.8129 95.7109 32.7787C95.5167 32.7446 95.3083 32.7275 95.0857 32.7275Z" fill="#27235C"/>
<path d="M98.5276 35.7699C98.5276 35.3767 98.5847 35.0349 98.6989 34.7443C98.8131 34.4481 98.9644 34.2031 99.1528 34.0094C99.3412 33.8157 99.5581 33.6704 99.8036 33.5735C100.049 33.4767 100.3 33.4282 100.557 33.4282C101.157 33.4282 101.616 33.6162 101.936 33.9923C102.256 34.3626 102.416 34.9295 102.416 35.6929C102.416 35.7271 102.416 35.7727 102.416 35.8297C102.416 35.881 102.413 35.9294 102.407 35.975H99.3583C99.3926 36.4365 99.5267 36.7868 99.7608 37.0261C99.9949 37.2654 100.36 37.3851 100.857 37.3851C101.137 37.3851 101.371 37.3623 101.559 37.3167C101.753 37.2654 101.899 37.217 101.996 37.1714L102.107 37.838C102.01 37.8893 101.839 37.9434 101.594 38.0004C101.354 38.0574 101.08 38.0858 100.771 38.0858C100.383 38.0858 100.046 38.0289 99.7608 37.9149C99.4811 37.7953 99.2498 37.6329 99.0671 37.4278C98.8844 37.2227 98.7474 36.9806 98.6561 36.7014C98.5704 36.4165 98.5276 36.106 98.5276 35.7699ZM101.585 35.334C101.591 34.9751 101.499 34.6817 101.311 34.4538C101.128 34.2202 100.874 34.1034 100.549 34.1034C100.366 34.1034 100.203 34.1404 100.061 34.2145C99.9235 34.2828 99.8065 34.374 99.7094 34.4879C99.6124 34.6019 99.5353 34.7329 99.4782 34.8811C99.4268 35.0292 99.3926 35.1802 99.3754 35.334H101.585Z" fill="#27235C"/>
<path d="M104.596 37.4107C104.921 37.4107 105.161 37.368 105.315 37.2825C105.475 37.1971 105.555 37.0603 105.555 36.8723C105.555 36.6786 105.478 36.5248 105.324 36.4108C105.17 36.2969 104.916 36.1687 104.562 36.0262C104.39 35.9579 104.225 35.8895 104.065 35.8211C103.911 35.7471 103.777 35.6616 103.663 35.5648C103.548 35.4679 103.457 35.3511 103.388 35.2144C103.32 35.0776 103.286 34.9096 103.286 34.7101C103.286 34.317 103.431 34.0065 103.722 33.7786C104.014 33.545 104.41 33.4282 104.913 33.4282C105.038 33.4282 105.164 33.4368 105.29 33.4539C105.415 33.4653 105.532 33.4824 105.641 33.5052C105.749 33.5222 105.843 33.5422 105.923 33.565C106.009 33.5878 106.075 33.6077 106.12 33.6248L105.975 34.3085C105.889 34.2629 105.755 34.2173 105.572 34.1717C105.39 34.1205 105.17 34.0948 104.913 34.0948C104.69 34.0948 104.496 34.1404 104.331 34.2316C104.165 34.317 104.082 34.4538 104.082 34.6418C104.082 34.7386 104.099 34.8241 104.134 34.8982C104.174 34.9722 104.231 35.0406 104.305 35.1033C104.385 35.1602 104.482 35.2144 104.596 35.2656C104.71 35.3169 104.847 35.371 105.007 35.428C105.218 35.5078 105.407 35.5875 105.572 35.6673C105.738 35.7414 105.878 35.8297 105.992 35.9322C106.112 36.0348 106.203 36.1601 106.266 36.3083C106.329 36.4507 106.36 36.6273 106.36 36.8381C106.36 37.2483 106.206 37.5588 105.898 37.7696C105.595 37.9804 105.161 38.0858 104.596 38.0858C104.202 38.0858 103.894 38.0517 103.671 37.9833C103.448 37.9206 103.297 37.8722 103.217 37.838L103.363 37.1543C103.454 37.1885 103.6 37.2398 103.8 37.3082C103.999 37.3765 104.265 37.4107 104.596 37.4107Z" fill="#27235C"/>
<path d="M110.473 35.7699C110.473 35.2514 110.345 34.8526 110.088 34.5734C109.831 34.2942 109.489 34.1547 109.06 34.1547C108.821 34.1547 108.632 34.1632 108.495 34.1803C108.364 34.1974 108.258 34.2173 108.178 34.2401V37.0432C108.275 37.123 108.415 37.1999 108.598 37.274C108.781 37.348 108.98 37.3851 109.197 37.3851C109.426 37.3851 109.62 37.3452 109.78 37.2654C109.945 37.18 110.079 37.066 110.182 36.9236C110.285 36.7754 110.359 36.6045 110.405 36.4108C110.451 36.2114 110.473 35.9978 110.473 35.7699ZM111.304 35.7699C111.304 36.106 111.258 36.4165 111.167 36.7014C111.081 36.9863 110.953 37.2312 110.782 37.4363C110.61 37.6415 110.399 37.801 110.148 37.9149C109.902 38.0289 109.62 38.0858 109.3 38.0858C109.043 38.0858 108.815 38.0517 108.615 37.9833C108.421 37.9149 108.275 37.8494 108.178 37.7867V39.5643H107.382V33.6761C107.57 33.6305 107.804 33.5821 108.084 33.5308C108.369 33.4738 108.698 33.4453 109.069 33.4453C109.411 33.4453 109.72 33.4995 109.994 33.6077C110.268 33.716 110.502 33.8698 110.696 34.0692C110.89 34.2686 111.039 34.5136 111.141 34.8042C111.25 35.089 111.304 35.4109 111.304 35.7699Z" fill="#27235C"/>
<path d="M116.356 35.7613C116.356 36.1146 116.304 36.4336 116.202 36.7185C116.099 37.0033 115.953 37.2483 115.765 37.4534C115.582 37.6585 115.362 37.8181 115.105 37.932C114.848 38.0403 114.569 38.0944 114.266 38.0944C113.963 38.0944 113.684 38.0403 113.427 37.932C113.17 37.8181 112.947 37.6585 112.759 37.4534C112.576 37.2483 112.433 37.0033 112.331 36.7185C112.228 36.4336 112.176 36.1146 112.176 35.7613C112.176 35.4138 112.228 35.0976 112.331 34.8127C112.433 34.5221 112.576 34.2743 112.759 34.0692C112.947 33.8641 113.17 33.7074 113.427 33.5992C113.684 33.4852 113.963 33.4282 114.266 33.4282C114.569 33.4282 114.848 33.4852 115.105 33.5992C115.362 33.7074 115.582 33.8641 115.765 34.0692C115.953 34.2743 116.099 34.5221 116.202 34.8127C116.304 35.0976 116.356 35.4138 116.356 35.7613ZM115.525 35.7613C115.525 35.2599 115.411 34.864 115.182 34.5734C114.96 34.2771 114.654 34.129 114.266 34.129C113.878 34.129 113.57 34.2771 113.341 34.5734C113.119 34.864 113.007 35.2599 113.007 35.7613C113.007 36.2627 113.119 36.6615 113.341 36.9578C113.57 37.2483 113.878 37.3936 114.266 37.3936C114.654 37.3936 114.96 37.2483 115.182 36.9578C115.411 36.6615 115.525 36.2627 115.525 35.7613Z" fill="#27235C"/>
<path d="M117.476 33.6675C117.659 33.6219 117.902 33.5735 118.204 33.5222C118.507 33.471 118.855 33.4453 119.249 33.4453C119.603 33.4453 119.897 33.4966 120.131 33.5992C120.365 33.696 120.551 33.8356 120.688 34.0179C120.83 34.1945 120.93 34.4082 120.987 34.6589C121.045 34.9096 121.073 35.1859 121.073 35.4878V37.9833H120.277V35.6588C120.277 35.3853 120.257 35.1517 120.217 34.958C120.182 34.7643 120.122 34.6076 120.037 34.4879C119.951 34.3683 119.837 34.2828 119.694 34.2316C119.552 34.1746 119.375 34.1461 119.163 34.1461C119.078 34.1461 118.989 34.149 118.898 34.1547C118.807 34.1603 118.718 34.1689 118.632 34.1803C118.552 34.186 118.478 34.1945 118.41 34.2059C118.347 34.2173 118.301 34.2259 118.273 34.2316V37.9833H117.476V33.6675Z" fill="#27235C"/>
<path d="M123.43 37.4107C123.756 37.4107 123.995 37.368 124.149 37.2825C124.309 37.1971 124.389 37.0603 124.389 36.8723C124.389 36.6786 124.312 36.5248 124.158 36.4108C124.004 36.2969 123.75 36.1687 123.396 36.0262C123.225 35.9579 123.059 35.8895 122.899 35.8211C122.745 35.7471 122.611 35.6616 122.497 35.5648C122.382 35.4679 122.291 35.3511 122.223 35.2144C122.154 35.0776 122.12 34.9096 122.12 34.7101C122.12 34.317 122.265 34.0065 122.557 33.7786C122.848 33.545 123.245 33.4282 123.747 33.4282C123.873 33.4282 123.998 33.4368 124.124 33.4539C124.249 33.4653 124.366 33.4824 124.475 33.5052C124.583 33.5222 124.678 33.5422 124.757 33.565C124.843 33.5878 124.909 33.6077 124.954 33.6248L124.809 34.3085C124.723 34.2629 124.589 34.2173 124.406 34.1717C124.224 34.1205 124.004 34.0948 123.747 34.0948C123.524 34.0948 123.33 34.1404 123.165 34.2316C122.999 34.317 122.916 34.4538 122.916 34.6418C122.916 34.7386 122.933 34.8241 122.968 34.8982C123.008 34.9722 123.065 35.0406 123.139 35.1033C123.219 35.1602 123.316 35.2144 123.43 35.2656C123.544 35.3169 123.681 35.371 123.841 35.428C124.052 35.5078 124.241 35.5875 124.406 35.6673C124.572 35.7414 124.712 35.8297 124.826 35.9322C124.946 36.0348 125.037 36.1601 125.1 36.3083C125.163 36.4507 125.194 36.6273 125.194 36.8381C125.194 37.2483 125.04 37.5588 124.732 37.7696C124.429 37.9804 123.995 38.0858 123.43 38.0858C123.036 38.0858 122.728 38.0517 122.505 37.9833C122.282 37.9206 122.131 37.8722 122.051 37.838L122.197 37.1543C122.288 37.1885 122.434 37.2398 122.634 37.3082C122.833 37.3765 123.099 37.4107 123.43 37.4107Z" fill="#27235C"/>
<path d="M127.012 37.9833H126.216V33.5393H127.012V37.9833ZM126.61 32.736C126.467 32.736 126.344 32.6904 126.242 32.5993C126.144 32.5024 126.096 32.3742 126.096 32.2147C126.096 32.0552 126.144 31.9298 126.242 31.8387C126.344 31.7418 126.467 31.6934 126.61 31.6934C126.753 31.6934 126.872 31.7418 126.969 31.8387C127.072 31.9298 127.124 32.0552 127.124 32.2147C127.124 32.3742 127.072 32.5024 126.969 32.5993C126.872 32.6904 126.753 32.736 126.61 32.736Z" fill="#27235C"/>
<path d="M129.178 33.7359C129.275 33.6732 129.421 33.6077 129.615 33.5393C129.815 33.471 130.043 33.4368 130.3 33.4368C130.62 33.4368 130.903 33.4938 131.148 33.6077C131.399 33.7217 131.611 33.8812 131.782 34.0863C131.953 34.2914 132.082 34.5364 132.167 34.8212C132.259 35.1061 132.304 35.4195 132.304 35.7613C132.304 36.1203 132.25 36.445 132.142 36.7356C132.039 37.0204 131.89 37.2626 131.696 37.462C131.502 37.6614 131.268 37.8152 130.994 37.9235C130.72 38.0317 130.412 38.0858 130.069 38.0858C129.698 38.0858 129.37 38.0602 129.084 38.0089C128.799 37.9577 128.565 37.9064 128.382 37.8551V31.4883L129.178 31.3515V33.7359ZM129.178 37.2911C129.258 37.3139 129.37 37.3366 129.512 37.3594C129.661 37.3765 129.844 37.3851 130.06 37.3851C130.489 37.3851 130.831 37.2455 131.088 36.9663C131.345 36.6814 131.474 36.2798 131.474 35.7613C131.474 35.5334 131.451 35.3198 131.405 35.1204C131.359 34.921 131.285 34.75 131.182 34.6076C131.08 34.4595 130.945 34.3455 130.78 34.2658C130.62 34.1803 130.426 34.1376 130.197 34.1376C129.981 34.1376 129.781 34.1746 129.598 34.2487C129.415 34.3227 129.275 34.3996 129.178 34.4794V37.2911Z" fill="#27235C"/>
<path d="M134.221 37.9833H133.425V33.5393H134.221V37.9833ZM133.819 32.736C133.676 32.736 133.553 32.6904 133.451 32.5993C133.354 32.5024 133.305 32.3742 133.305 32.2147C133.305 32.0552 133.354 31.9298 133.451 31.8387C133.553 31.7418 133.676 31.6934 133.819 31.6934C133.962 31.6934 134.082 31.7418 134.179 31.8387C134.281 31.9298 134.333 32.0552 134.333 32.2147C134.333 32.3742 134.281 32.5024 134.179 32.5993C134.082 32.6904 133.962 32.736 133.819 32.736Z" fill="#27235C"/>
<path d="M136.927 38.0688C136.436 38.0574 136.088 37.952 135.882 37.7526C135.677 37.5531 135.574 37.2426 135.574 36.821V31.4883L136.37 31.3515V36.6928C136.37 36.8239 136.382 36.9321 136.405 37.0176C136.427 37.103 136.465 37.1714 136.516 37.2227C136.567 37.274 136.636 37.3139 136.722 37.3423C136.807 37.3651 136.913 37.3851 137.038 37.4022L136.927 38.0688Z" fill="#27235C"/>
<path d="M138.729 37.9833H137.933V33.5393H138.729V37.9833ZM138.327 32.736C138.184 32.736 138.061 32.6904 137.958 32.5993C137.861 32.5024 137.813 32.3742 137.813 32.2147C137.813 32.0552 137.861 31.9298 137.958 31.8387C138.061 31.7418 138.184 31.6934 138.327 31.6934C138.469 31.6934 138.589 31.7418 138.686 31.8387C138.789 31.9298 138.841 32.0552 138.841 32.2147C138.841 32.3742 138.789 32.5024 138.686 32.5993C138.589 32.6904 138.469 32.736 138.327 32.736Z" fill="#27235C"/>
<path d="M140.844 33.5393H142.531V34.2059H140.844V36.257C140.844 36.4792 140.861 36.6644 140.895 36.8125C140.93 36.9549 140.981 37.0689 141.049 37.1543C141.118 37.2341 141.204 37.2911 141.306 37.3252C141.409 37.3594 141.529 37.3765 141.666 37.3765C141.906 37.3765 142.097 37.3509 142.24 37.2996C142.388 37.2426 142.491 37.2028 142.548 37.18L142.702 37.838C142.622 37.8779 142.483 37.9263 142.283 37.9833C142.083 38.046 141.854 38.0773 141.598 38.0773C141.295 38.0773 141.044 38.0403 140.844 37.9662C140.65 37.8864 140.493 37.7696 140.373 37.6158C140.253 37.462 140.167 37.274 140.116 37.0518C140.07 36.8239 140.047 36.5618 140.047 36.2655V32.3002L140.844 32.1634V33.5393Z" fill="#27235C"/>
<path d="M143.022 38.8123C143.085 38.8408 143.165 38.8664 143.262 38.8892C143.365 38.9177 143.465 38.9319 143.562 38.9319C143.876 38.9319 144.121 38.8607 144.298 38.7183C144.475 38.5815 144.635 38.3565 144.778 38.0431C144.418 37.3594 144.081 36.6359 143.767 35.8724C143.459 35.1033 143.202 34.3256 142.996 33.5393H143.853C143.916 33.7957 143.99 34.072 144.076 34.3683C144.167 34.6646 144.267 34.9694 144.375 35.2827C144.484 35.5961 144.601 35.9094 144.726 36.2228C144.852 36.5362 144.983 36.8381 145.12 37.1287C145.337 36.5305 145.526 35.9379 145.686 35.3511C145.845 34.7643 145.997 34.1604 146.139 33.5393H146.962C146.756 34.3769 146.528 35.183 146.276 35.9579C146.025 36.727 145.754 37.4477 145.463 38.12C145.349 38.3764 145.229 38.5958 145.103 38.7781C144.983 38.9661 144.849 39.1199 144.701 39.2396C144.552 39.3592 144.384 39.4475 144.195 39.5045C144.013 39.5615 143.804 39.59 143.57 39.59C143.507 39.59 143.442 39.5843 143.373 39.5729C143.305 39.5672 143.236 39.5558 143.168 39.5387C143.105 39.5273 143.045 39.513 142.988 39.496C142.936 39.4789 142.899 39.4646 142.877 39.4532L143.022 38.8123Z" fill="#27235C"/>
<path d="M148.51 37.5218C148.51 37.6756 148.459 37.8095 148.356 37.9235C148.253 38.0374 148.113 38.0944 147.936 38.0944C147.759 38.0944 147.619 38.0374 147.517 37.9235C147.414 37.8095 147.362 37.6756 147.362 37.5218C147.362 37.368 147.414 37.2341 147.517 37.1201C147.619 37.0062 147.759 36.9492 147.936 36.9492C148.113 36.9492 148.253 37.0062 148.356 37.1201C148.459 37.2341 148.51 37.368 148.51 37.5218Z" fill="#27235C"/>
<path d="M141.598 25.5496C140.619 25.5496 139.739 25.3598 138.96 24.9801C138.201 24.5805 137.551 24.041 137.012 23.3616C136.492 22.6822 136.093 21.9029 135.813 21.0236C135.553 20.1244 135.423 19.1653 135.423 18.1462C135.443 17.1271 135.593 16.1779 135.873 15.2987C136.153 14.3995 136.552 13.6202 137.072 12.9608C137.611 12.2814 138.261 11.7519 139.02 11.3722C139.779 10.9925 140.639 10.8027 141.598 10.8027C142.517 10.8027 143.376 10.9925 144.176 11.3722C144.995 11.7519 145.714 12.2814 146.334 12.9608C146.973 13.6202 147.473 14.3995 147.832 15.2987C148.192 16.1779 148.372 17.1171 148.372 18.1162C148.372 19.1553 148.192 20.1344 147.832 21.0536C147.473 21.9528 146.983 22.7421 146.364 23.4215C145.744 24.0809 145.025 24.6005 144.206 24.9801C143.386 25.3598 142.517 25.5496 141.598 25.5496ZM141.118 22.0427C141.818 22.0427 142.447 21.8829 143.007 21.5632C143.566 21.2235 144.006 20.7639 144.325 20.1844C144.665 19.6049 144.835 18.9455 144.835 18.2061C144.835 17.4468 144.665 16.7774 144.325 16.1979C144.006 15.5984 143.566 15.1389 143.007 14.8191C142.447 14.4794 141.818 14.3096 141.118 14.3096C140.439 14.3096 139.819 14.4794 139.26 14.8191C138.7 15.1588 138.251 15.6184 137.911 16.1979C137.591 16.7774 137.432 17.4468 137.432 18.2061C137.432 18.9455 137.591 19.6049 137.911 20.1844C138.251 20.7639 138.7 21.2235 139.26 21.5632C139.819 21.8829 140.439 22.0427 141.118 22.0427ZM135.573 25.5796C135.034 25.5796 134.634 25.4897 134.374 25.3098C134.114 25.15 133.955 24.9402 133.895 24.6804C133.835 24.4006 133.805 24.0909 133.805 23.7512V5.88706C133.805 5.54736 133.835 5.24762 133.895 4.98785C133.955 4.7081 134.114 4.4883 134.374 4.32844C134.634 4.16858 135.034 4.08865 135.573 4.08865C136.133 4.08865 136.532 4.16858 136.772 4.32844C137.012 4.4883 137.162 4.7081 137.222 4.98785C137.282 5.26761 137.312 5.56734 137.312 5.88706V24.3507C137.232 24.7903 137.062 25.1 136.802 25.2799C136.562 25.4797 136.153 25.5796 135.573 25.5796Z" fill="#27235C" stroke="#27235C" stroke-width="0.2"/>
<path d="M124.871 25.7598C123.572 25.7598 122.433 25.55 121.454 25.1304C120.495 24.7108 119.686 24.1413 119.026 23.4219C118.387 22.6826 117.897 21.8633 117.558 20.9641C117.238 20.0449 117.078 19.0957 117.078 18.1166C117.078 16.6779 117.408 15.399 118.067 14.28C118.727 13.161 119.636 12.2818 120.795 11.6424C121.974 11.0029 123.323 10.6832 124.841 10.6832C125.92 10.6832 126.869 10.8531 127.689 11.1928C128.508 11.5325 129.187 11.9821 129.727 12.5416C130.286 13.0811 130.706 13.6805 130.986 14.34C131.285 14.9994 131.435 15.6388 131.435 16.2583C131.435 17.3173 131.176 18.0866 130.656 18.5662C130.156 19.0458 129.527 19.2856 128.768 19.2856H120.855C120.875 19.965 121.085 20.5544 121.484 21.054C121.904 21.5536 122.423 21.9432 123.043 22.223C123.682 22.4827 124.332 22.6126 124.991 22.6126C125.491 22.6126 125.93 22.5826 126.31 22.5227C126.71 22.4628 127.049 22.3928 127.329 22.3129C127.609 22.213 127.849 22.1131 128.048 22.0132C128.268 21.9132 128.468 21.8233 128.648 21.7434C128.828 21.6635 128.998 21.6135 129.157 21.5935C129.377 21.5735 129.597 21.6235 129.817 21.7434C130.037 21.8633 130.216 22.0731 130.356 22.3728C130.476 22.5727 130.556 22.7625 130.596 22.9423C130.656 23.1022 130.686 23.262 130.686 23.4219C130.686 23.8215 130.446 24.2012 129.967 24.5609C129.487 24.9006 128.808 25.1803 127.928 25.4002C127.069 25.6399 126.05 25.7598 124.871 25.7598ZM120.855 17.1575H126.999C127.339 17.1575 127.599 17.1075 127.779 17.0076C127.958 16.8877 128.048 16.6479 128.048 16.2882C128.048 15.8286 127.908 15.419 127.629 15.0593C127.349 14.6797 126.969 14.3899 126.49 14.1901C126.01 13.9703 125.451 13.8604 124.811 13.8604C124.072 13.8604 123.402 14.0103 122.803 14.31C122.204 14.5897 121.724 14.9794 121.364 15.4789C121.025 15.9785 120.855 16.538 120.855 17.1575Z" fill="#27235C" stroke="#27235C" stroke-width="0.2"/>
<path d="M98.055 25.4908C97.6554 25.4908 97.3356 25.4209 97.0959 25.281C96.8561 25.1211 96.6762 24.9413 96.5563 24.7415C96.4564 24.5417 96.3865 24.3718 96.3465 24.2319L90.4717 7.02719C90.2719 6.38776 90.2419 5.90818 90.3818 5.58847C90.5217 5.24877 90.9313 4.96902 91.6107 4.74921C92.0703 4.58935 92.44 4.51942 92.7197 4.5394C92.9995 4.55938 93.2293 4.67927 93.4091 4.89908C93.6089 5.0989 93.7788 5.41862 93.9187 5.85823L98.2348 18.9266L102.101 5.97812C102.161 5.7783 102.241 5.57848 102.341 5.37865C102.461 5.15885 102.641 4.97901 102.881 4.83913C103.121 4.69926 103.45 4.62932 103.87 4.62932C104.349 4.62932 104.709 4.70925 104.949 4.86911C105.189 5.02896 105.359 5.2088 105.458 5.40863C105.578 5.58847 105.658 5.75832 105.698 5.91818L109.565 19.0166L113.911 5.8882C114.051 5.42861 114.211 5.08891 114.391 4.86911C114.59 4.6493 114.84 4.52941 115.14 4.50943C115.44 4.46946 115.809 4.52941 116.249 4.68927C116.708 4.84912 117.038 5.02897 117.238 5.22879C117.438 5.40863 117.538 5.64842 117.538 5.94815C117.538 6.2279 117.468 6.58758 117.328 7.02719L111.483 24.2619C111.443 24.3818 111.363 24.5417 111.243 24.7415C111.143 24.9413 110.974 25.1211 110.734 25.281C110.494 25.4209 110.164 25.4908 109.745 25.4908C109.325 25.4908 108.995 25.4009 108.756 25.2211C108.516 25.0412 108.336 24.8414 108.216 24.6216C108.096 24.4018 108.016 24.2419 107.976 24.142L103.9 10.9537L99.8234 24.112C99.7835 24.2519 99.7035 24.4318 99.5836 24.6516C99.4837 24.8714 99.3139 25.0712 99.0741 25.251C98.8343 25.4109 98.4946 25.4908 98.055 25.4908Z" fill="#27235C" stroke="#27235C" stroke-width="0.2"/>
<path d="M82.4694 25.7601C81.9499 25.7601 81.4004 25.7002 80.8209 25.5803C80.2414 25.4804 79.6819 25.3305 79.1424 25.1307C78.6028 24.9109 78.1333 24.6611 77.7336 24.3813C77.3539 24.0816 77.1142 23.7519 77.0142 23.3922C76.9343 23.1924 76.9043 23.0026 76.9243 22.8227C76.9443 22.6229 77.0043 22.4231 77.1042 22.2232C77.2041 22.0034 77.3539 21.7836 77.5538 21.5638C77.7336 21.344 77.9135 21.2241 78.0933 21.2041C78.2931 21.1642 78.5429 21.2241 78.8426 21.384C79.1024 21.4839 79.3822 21.6138 79.6819 21.7736C80.0016 21.9335 80.3213 22.0934 80.641 22.2532C80.9807 22.4131 81.3204 22.543 81.6601 22.6429C82.0198 22.7428 82.3695 22.7927 82.7092 22.7927C83.4485 22.7927 84.038 22.6728 84.4776 22.4331C84.9172 22.1733 85.137 21.8136 85.137 21.354C85.137 21.0942 85.0671 20.8644 84.9272 20.6646C84.7874 20.4648 84.5975 20.3049 84.3577 20.1851C84.1379 20.0452 83.8682 19.9253 83.5485 19.8254C83.2487 19.7055 82.919 19.6056 82.5593 19.5256C82.2196 19.4257 81.86 19.3158 81.4803 19.1959C80.9807 19.0561 80.4812 18.8862 79.9816 18.6864C79.4821 18.4866 79.0325 18.2268 78.6328 17.9071C78.2532 17.5874 77.9434 17.1877 77.7036 16.7081C77.4639 16.2286 77.344 15.6291 77.344 14.9097C77.344 14.0105 77.5538 13.2512 77.9734 12.6317C78.413 11.9923 79.0425 11.5028 79.8617 11.1631C80.681 10.8234 81.6701 10.6535 82.8291 10.6535C83.2287 10.6535 83.6084 10.6835 83.9681 10.7434C84.3477 10.8034 84.7074 10.8933 85.0471 11.0132C85.4068 11.1131 85.7465 11.243 86.0662 11.4028C86.4059 11.5627 86.7256 11.7425 87.0254 11.9424C87.5249 12.2221 87.7847 12.5518 87.8047 12.9315C87.8247 13.2912 87.6848 13.6808 87.3851 14.1004C87.1653 14.3802 86.9454 14.58 86.7256 14.6999C86.5058 14.7998 86.276 14.7998 86.0363 14.6999C85.7165 14.5401 85.3668 14.3702 84.9872 14.1904C84.6275 13.9905 84.2478 13.8207 83.8482 13.6808C83.4685 13.5409 83.0689 13.471 82.6493 13.471C82.2496 13.471 81.8899 13.531 81.5702 13.6508C81.2505 13.7707 81.0107 13.9406 80.8508 14.1604C80.691 14.3802 80.6111 14.64 80.6111 14.9397C80.6111 15.2195 80.691 15.4492 80.8508 15.6291C81.0107 15.8089 81.2205 15.9588 81.4803 16.0787C81.7401 16.1986 82.0498 16.3085 82.4095 16.4084C82.7691 16.4883 83.1488 16.5683 83.5485 16.6482C84.108 16.7681 84.6775 16.9179 85.2569 17.0978C85.8364 17.2776 86.366 17.5274 86.8455 17.8471C87.3451 18.1668 87.7447 18.5965 88.0445 19.136C88.3442 19.6555 88.4941 20.3349 88.4941 21.1742C88.4941 22.6329 87.9546 23.7619 86.8755 24.5612C85.8164 25.3605 84.3477 25.7601 82.4694 25.7601Z" fill="#27235C" stroke="#27235C" stroke-width="0.2"/>
<path d="M68.32 25.7597C67.0211 25.7597 65.8821 25.5498 64.903 25.1302C63.9439 24.7106 63.1346 24.1411 62.4752 23.4217C61.8357 22.6824 61.3462 21.8631 61.0065 20.9639C60.6867 20.0447 60.5269 19.0956 60.5269 18.1164C60.5269 16.6777 60.8566 15.3988 61.516 14.2798C62.1754 13.1608 63.0846 12.2816 64.2436 11.6422C65.4225 11.0027 66.7714 10.683 68.29 10.683C69.369 10.683 70.3182 10.8529 71.1375 11.1926C71.9568 11.5323 72.6361 11.9819 73.1757 12.5414C73.7352 13.0809 74.1548 13.6804 74.4346 14.3398C74.7343 14.9992 74.8842 15.6386 74.8842 16.2581C74.8842 17.3171 74.6244 18.0865 74.1048 18.566C73.6053 19.0456 72.9758 19.2854 72.2165 19.2854H64.3035C64.3235 19.9648 64.5333 20.5543 64.933 21.0538C65.3526 21.5534 65.8721 21.943 66.4916 22.2228C67.131 22.4826 67.7805 22.6124 68.4399 22.6124C68.9394 22.6124 69.379 22.5825 69.7587 22.5225C70.1583 22.4626 70.498 22.3926 70.7778 22.3127C71.0576 22.2128 71.2973 22.1129 71.4972 22.013C71.717 21.9131 71.9168 21.8231 72.0966 21.7432C72.2765 21.6633 72.4463 21.6133 72.6062 21.5934C72.826 21.5734 73.0458 21.6233 73.2656 21.7432C73.4854 21.8631 73.6652 22.0729 73.8051 22.3727C73.925 22.5725 74.0049 22.7623 74.0449 22.9422C74.1048 23.102 74.1348 23.2619 74.1348 23.4217C74.1348 23.8214 73.895 24.201 73.4155 24.5607C72.9359 24.9004 72.2565 25.1802 71.3773 25.4C70.518 25.6398 69.4989 25.7597 68.32 25.7597ZM64.3035 17.1573H70.4481C70.7878 17.1573 71.0476 17.1073 71.2274 17.0074C71.4072 16.8875 71.4972 16.6477 71.4972 16.2881C71.4972 15.8285 71.3573 15.4188 71.0775 15.0591C70.7978 14.6795 70.4181 14.3897 69.9385 14.1899C69.459 13.9701 68.8995 13.8602 68.26 13.8602C67.5207 13.8602 66.8513 14.0101 66.2518 14.3098C65.6523 14.5896 65.1728 14.9792 64.8131 15.4788C64.4734 15.9783 64.3035 16.5378 64.3035 17.1573Z" fill="#27235C" stroke="#27235C" stroke-width="0.2"/>
<path d="M57.6196 25.5809C56.8803 25.5809 56.2209 25.5309 55.6414 25.431C55.0819 25.3311 54.5923 25.1612 54.1727 24.9215C53.773 24.6817 53.4433 24.3619 53.1835 23.9623C52.9238 23.5427 52.724 23.0331 52.5841 22.4337C52.4642 21.8342 52.4042 21.1148 52.4042 20.2756V5.82838C52.4042 5.48869 52.4342 5.18895 52.4942 4.92918C52.5741 4.64943 52.7339 4.42963 52.9737 4.26977C53.2335 4.08993 53.6431 4.00001 54.2026 4.00001C54.7621 4.00001 55.1618 4.07994 55.4016 4.23979C55.6613 4.39965 55.8212 4.61946 55.8812 4.89921C55.9611 5.15898 56.001 5.45871 56.001 5.79841V20.1257C56.001 20.5054 56.021 20.8251 56.061 21.0849C56.1209 21.3246 56.2109 21.5245 56.3308 21.6843C56.4706 21.8242 56.6405 21.9241 56.8403 21.9841C57.0601 22.044 57.3199 22.074 57.6196 22.074C57.8794 22.074 58.1092 22.104 58.309 22.1639C58.5288 22.2238 58.6987 22.3737 58.8185 22.6135C58.9584 22.8533 59.0284 23.2429 59.0284 23.7825C59.0284 24.342 58.9584 24.7516 58.8185 25.0114C58.6987 25.2711 58.5288 25.431 58.309 25.4909C58.0892 25.5509 57.8594 25.5809 57.6196 25.5809Z" fill="#27235C" stroke="#27235C" stroke-width="0.2"/>
<path d="M47.3861 25.5805C46.8465 25.5805 46.4469 25.4905 46.1871 25.3107C45.9274 25.1508 45.7675 24.941 45.7076 24.6813C45.6476 24.4015 45.6176 24.0918 45.6176 23.7521V12.602C45.6176 12.2823 45.6476 11.9925 45.7076 11.7327C45.7875 11.453 45.9473 11.2332 46.1871 11.0733C46.4469 10.9135 46.8565 10.8335 47.416 10.8335C47.9755 10.8335 48.3752 10.9135 48.615 11.0733C48.8747 11.2332 49.0346 11.453 49.0946 11.7327C49.1545 12.0125 49.1845 12.3222 49.1845 12.6619V23.7821C49.1845 24.1218 49.1545 24.4315 49.0946 24.7112C49.0346 24.971 48.8747 25.1808 48.615 25.3407C48.3752 25.5005 47.9656 25.5805 47.3861 25.5805ZM47.3861 7.92612C46.8066 7.92612 46.377 7.8462 46.0972 7.68634C45.8374 7.5065 45.6676 7.26671 45.5877 6.96698C45.5277 6.66724 45.4977 6.33753 45.4977 5.97785C45.4977 5.59819 45.5277 5.26848 45.5877 4.98873C45.6676 4.70898 45.8474 4.48917 46.1272 4.32931C46.4069 4.14947 46.8366 4.05956 47.416 4.05956C48.0155 4.05956 48.4451 4.14947 48.7049 4.32931C48.9647 4.50915 49.1345 4.74894 49.2144 5.04868C49.2944 5.32843 49.3343 5.65814 49.3343 6.0378C49.3343 6.3775 49.2944 6.69722 49.2144 6.99695C49.1345 7.29668 48.9647 7.52648 48.7049 7.68634C48.4451 7.8462 48.0055 7.92612 47.3861 7.92612Z" fill="#27235C" stroke="#27235C" stroke-width="0.2"/>
<path d="M22.7684 25.5502C22.2489 25.5502 21.8592 25.4703 21.5995 25.3104C21.3397 25.1506 21.1698 24.9307 21.0899 24.651C21.03 24.3712 21 24.0615 21 23.7218V6.42717C21 6.10745 21.03 5.81771 21.0899 5.55794C21.1698 5.27818 21.3397 5.05838 21.5995 4.89852C21.8592 4.71868 22.2689 4.62876 22.8284 4.62876C23.248 4.62876 23.5577 4.65873 23.7576 4.71868C23.9774 4.75865 24.1472 4.82858 24.2671 4.92849C24.387 5.00842 24.5069 5.11833 24.6268 5.2582L31.9403 15.4791H31.2509L38.5944 5.22823C38.7343 5.06837 38.8742 4.94848 39.014 4.86855C39.1539 4.78862 39.3337 4.72867 39.5536 4.68871C39.7734 4.64874 40.0631 4.62876 40.4228 4.62876C40.9623 4.62876 41.3619 4.71868 41.6217 4.89852C41.8815 5.05838 42.0413 5.27818 42.1013 5.55794C42.1812 5.83769 42.2212 6.14741 42.2212 6.48711V23.7818C42.2212 24.0815 42.1812 24.3712 42.1013 24.651C42.0413 24.9307 41.8815 25.1506 41.6217 25.3104C41.3619 25.4703 40.9523 25.5502 40.3928 25.5502C39.8533 25.5502 39.4536 25.4603 39.1939 25.2804C38.9341 25.1206 38.7643 24.9008 38.6843 24.621C38.6244 24.3413 38.5944 24.0415 38.5944 23.7218V10.8632L33.1392 18.7462C33.0793 18.8262 32.9894 18.9361 32.8695 19.0759C32.7496 19.1958 32.5897 19.3057 32.3899 19.4057C32.1901 19.5056 31.9203 19.5555 31.5806 19.5555C31.2609 19.5555 31.0011 19.5056 30.8013 19.4057C30.6015 19.3057 30.4416 19.1958 30.3217 19.0759C30.2218 18.956 30.1219 18.8362 30.022 18.7163L24.5968 10.8632V23.7818C24.5968 24.0815 24.5568 24.3712 24.4769 24.651C24.417 24.9307 24.2571 25.1506 23.9973 25.3104C23.7376 25.4703 23.3279 25.5502 22.7684 25.5502Z" fill="#27235C" stroke="#27235C" stroke-width="0.2"/>
</svg>
