<svg width="277" height="66" viewBox="0 0 277 66" fill="none" xmlns="http://www.w3.org/2000/svg">
<path d="M129.929 62.6365C129.929 61.8392 130.575 61.1928 131.372 61.1928H230.99C231.787 61.1928 232.433 61.8392 232.433 62.6365V62.6365C232.433 63.4339 231.787 64.0802 230.99 64.0802H131.372C130.575 64.0802 129.929 63.4339 129.929 62.6365V62.6365Z" fill="#FFBB00"/>
<path d="M48.7505 51.9902V48.4953C48.171 47.5985 47.6251 46.7143 47.1128 45.8427C46.6005 44.9711 46.1176 44.1162 45.6641 43.2781H47.1002C47.4194 43.9654 47.7763 44.6652 48.171 45.3776C48.5658 46.0816 48.9731 46.7604 49.393 47.4141C49.8045 46.7604 50.2077 46.0816 50.6024 45.3776C50.9971 44.6652 51.3583 43.9654 51.6858 43.2781H53.0464C52.5929 44.1162 52.1099 44.9711 51.5976 45.8427C51.0853 46.7059 50.5436 47.5818 49.9725 48.4701V51.9902H48.7505Z" fill="white"/>
<path d="M59.2927 48.7216C59.2927 49.2412 59.2171 49.7105 59.066 50.1296C58.9148 50.5486 58.7006 50.909 58.4235 51.2107C58.1547 51.5124 57.8314 51.7471 57.4535 51.9147C57.0755 52.074 56.664 52.1536 56.2189 52.1536C55.7737 52.1536 55.3622 52.074 54.9843 51.9147C54.6063 51.7471 54.2788 51.5124 54.0017 51.2107C53.7329 50.909 53.5229 50.5486 53.3718 50.1296C53.2206 49.7105 53.145 49.2412 53.145 48.7216C53.145 48.2103 53.2206 47.7452 53.3718 47.3261C53.5229 46.8987 53.7329 46.5341 54.0017 46.2324C54.2788 45.9307 54.6063 45.7002 54.9843 45.541C55.3622 45.3734 55.7737 45.2896 56.2189 45.2896C56.664 45.2896 57.0755 45.3734 57.4535 45.541C57.8314 45.7002 58.1547 45.9307 58.4235 46.2324C58.7006 46.5341 58.9148 46.8987 59.066 47.3261C59.2171 47.7452 59.2927 48.2103 59.2927 48.7216ZM58.0707 48.7216C58.0707 47.984 57.9028 47.4016 57.5668 46.9741C57.2393 46.5383 56.79 46.3204 56.2189 46.3204C55.6478 46.3204 55.1942 46.5383 54.8583 46.9741C54.5308 47.4016 54.367 47.984 54.367 48.7216C54.367 49.4591 54.5308 50.0458 54.8583 50.4816C55.1942 50.909 55.6478 51.1227 56.2189 51.1227C56.79 51.1227 57.2393 50.909 57.5668 50.4816C57.9028 50.0458 58.0707 49.4591 58.0707 48.7216Z" fill="white"/>
<path d="M66.1566 51.8016C65.8878 51.8686 65.5309 51.9399 65.0858 52.0153C64.649 52.0907 64.1409 52.1284 63.5614 52.1284C63.0575 52.1284 62.6334 52.0572 62.289 51.9147C61.9447 51.7639 61.6676 51.5543 61.4576 51.2862C61.2476 51.018 61.0965 50.7037 61.0041 50.3433C60.9117 49.9745 60.8655 49.5681 60.8655 49.1239V45.453H62.0371V48.8724C62.0371 49.6686 62.1631 50.2385 62.415 50.5821C62.667 50.9258 63.0911 51.0976 63.6874 51.0976C63.8134 51.0976 63.9436 51.0934 64.0779 51.085C64.2123 51.0766 64.3383 51.0682 64.4559 51.0599C64.5734 51.0431 64.6784 51.0305 64.7708 51.0221C64.8716 51.0054 64.943 50.9886 64.985 50.9719V45.453H66.1566V51.8016Z" fill="white"/>
<path d="M70.5938 45.3147C70.6945 45.3147 70.8079 45.3231 70.9339 45.3398C71.0683 45.3482 71.1985 45.365 71.3244 45.3901C71.4504 45.4069 71.5638 45.4278 71.6646 45.453C71.7738 45.4698 71.8535 45.4865 71.9039 45.5033L71.7024 46.5216C71.61 46.488 71.4546 46.4503 71.2362 46.4084C71.0263 46.3581 70.7533 46.333 70.4174 46.333C70.199 46.333 69.9807 46.3581 69.7623 46.4084C69.5523 46.4503 69.4138 46.4797 69.3466 46.4964V51.9902H68.175V45.7296C68.4521 45.629 68.7965 45.5368 69.208 45.453C69.6195 45.3608 70.0815 45.3147 70.5938 45.3147Z" fill="white"/>
<path d="M81.5184 43.2781H82.7404V51.9902H81.5184V47.9673H77.2478V51.9902H76.0258V43.2781H77.2478V46.9113H81.5184V43.2781Z" fill="white"/>
<path d="M90.615 48.7216C90.615 49.2412 90.5394 49.7105 90.3883 50.1296C90.2371 50.5486 90.0229 50.909 89.7458 51.2107C89.477 51.5124 89.1537 51.7471 88.7758 51.9147C88.3978 52.074 87.9863 52.1536 87.5412 52.1536C87.096 52.1536 86.6845 52.074 86.3066 51.9147C85.9287 51.7471 85.6011 51.5124 85.324 51.2107C85.0552 50.909 84.8452 50.5486 84.6941 50.1296C84.5429 49.7105 84.4673 49.2412 84.4673 48.7216C84.4673 48.2103 84.5429 47.7452 84.6941 47.3261C84.8452 46.8987 85.0552 46.5341 85.324 46.2324C85.6011 45.9307 85.9287 45.7002 86.3066 45.541C86.6845 45.3734 87.096 45.2896 87.5412 45.2896C87.9863 45.2896 88.3978 45.3734 88.7758 45.541C89.1537 45.7002 89.477 45.9307 89.7458 46.2324C90.0229 46.5341 90.2371 46.8987 90.3883 47.3261C90.5394 47.7452 90.615 48.2103 90.615 48.7216ZM89.393 48.7216C89.393 47.984 89.2251 47.4016 88.8891 46.9741C88.5616 46.5383 88.1123 46.3204 87.5412 46.3204C86.9701 46.3204 86.5165 46.5383 86.1806 46.9741C85.8531 47.4016 85.6893 47.984 85.6893 48.7216C85.6893 49.4591 85.8531 50.0458 86.1806 50.4816C86.5165 50.909 86.9701 51.1227 87.5412 51.1227C88.1123 51.1227 88.5616 50.909 88.8891 50.4816C89.2251 50.0458 89.393 49.4591 89.393 48.7216Z" fill="white"/>
<path d="M93.7877 51.1479C94.2664 51.1479 94.6192 51.085 94.8459 50.9593C95.0811 50.8336 95.1987 50.6324 95.1987 50.3559C95.1987 50.0709 95.0853 49.8446 94.8585 49.677C94.6318 49.5094 94.258 49.3208 93.7373 49.1113C93.4854 49.0107 93.2418 48.9101 93.0067 48.8096C92.7799 48.7006 92.5825 48.5749 92.4146 48.4324C92.2466 48.29 92.1122 48.1181 92.0114 47.917C91.9106 47.7159 91.8602 47.4686 91.8602 47.1753C91.8602 46.597 92.0744 46.1402 92.5027 45.805C92.9311 45.4614 93.5148 45.2896 94.2538 45.2896C94.4386 45.2896 94.6234 45.3021 94.8081 45.3273C94.9929 45.344 95.1651 45.3692 95.3247 45.4027C95.4842 45.4278 95.6228 45.4572 95.7404 45.4907C95.8664 45.5242 95.9629 45.5536 96.0301 45.5787L95.816 46.5844C95.69 46.5174 95.4926 46.4503 95.2239 46.3833C94.9551 46.3079 94.6318 46.2701 94.2538 46.2701C93.9263 46.2701 93.6407 46.3372 93.3972 46.4713C93.1536 46.597 93.0318 46.7981 93.0318 47.0747C93.0318 47.2172 93.057 47.3429 93.1074 47.4519C93.1662 47.5608 93.2502 47.6614 93.3594 47.7536C93.477 47.8374 93.6197 47.917 93.7877 47.9924C93.9557 48.0679 94.1573 48.1475 94.3924 48.2313C94.7032 48.3486 94.9803 48.466 95.2239 48.5833C95.4674 48.6922 95.6732 48.8221 95.8412 48.973C96.0175 49.1239 96.1519 49.3082 96.2443 49.5261C96.3367 49.7357 96.3829 49.9955 96.3829 50.3056C96.3829 50.909 96.1561 51.3658 95.7026 51.6759C95.2575 51.986 94.6192 52.141 93.7877 52.141C93.2082 52.141 92.7547 52.0907 92.4272 51.9902C92.0996 51.898 91.877 51.8267 91.7595 51.7764L91.9736 50.7707C92.108 50.821 92.3222 50.8964 92.6161 50.997C92.9101 51.0976 93.3006 51.1479 93.7877 51.1479Z" fill="white"/>
<path d="M98.9817 45.453H101.463V46.4336H98.9817V49.4507C98.9817 49.7776 99.0069 50.05 99.0572 50.2679C99.1076 50.4774 99.1832 50.645 99.284 50.7707C99.3848 50.8881 99.5108 50.9719 99.6619 51.0221C99.8131 51.0724 99.9895 51.0976 100.191 51.0976C100.544 51.0976 100.825 51.0599 101.035 50.9844C101.253 50.9006 101.405 50.842 101.489 50.8084L101.715 51.7764C101.598 51.8351 101.392 51.9063 101.098 51.9902C100.804 52.0823 100.468 52.1284 100.09 52.1284C99.6451 52.1284 99.2756 52.074 98.9817 51.965C98.6961 51.8477 98.4651 51.6759 98.2888 51.4496C98.1124 51.2233 97.9864 50.9467 97.9108 50.6199C97.8437 50.2846 97.8101 49.8991 97.8101 49.4633V43.6301L98.9817 43.429V45.453Z" fill="white"/>
<path d="M104.126 51.9902H102.954V45.453H104.126V51.9902ZM103.534 44.2713C103.324 44.2713 103.143 44.2042 102.992 44.0701C102.849 43.9277 102.778 43.7391 102.778 43.5044C102.778 43.2697 102.849 43.0854 102.992 42.9513C103.143 42.8088 103.324 42.7376 103.534 42.7376C103.744 42.7376 103.92 42.8088 104.063 42.9513C104.214 43.0854 104.29 43.2697 104.29 43.5044C104.29 43.7391 104.214 43.9277 104.063 44.0701C103.92 44.2042 103.744 44.2713 103.534 44.2713Z" fill="white"/>
<path d="M106.141 45.6416C106.409 45.5745 106.766 45.5033 107.211 45.4278C107.657 45.3524 108.169 45.3147 108.748 45.3147C109.269 45.3147 109.702 45.3901 110.046 45.541C110.39 45.6835 110.663 45.8888 110.865 46.157C111.075 46.4168 111.222 46.7311 111.306 47.0999C111.39 47.4686 111.432 47.8751 111.432 48.3193V51.9902H110.26V48.5707C110.26 48.1684 110.231 47.8248 110.172 47.5399C110.122 47.2549 110.033 47.0244 109.907 46.8484C109.781 46.6724 109.613 46.5467 109.403 46.4713C109.194 46.3875 108.933 46.3456 108.622 46.3456C108.496 46.3456 108.366 46.3498 108.232 46.3581C108.098 46.3665 107.967 46.3791 107.841 46.3959C107.724 46.4042 107.615 46.4168 107.514 46.4336C107.421 46.4503 107.354 46.4629 107.312 46.4713V51.9902H106.141V45.6416Z" fill="white"/>
<path d="M117.481 51.3364C117.381 51.4035 117.183 51.4915 116.889 51.6004C116.604 51.701 116.268 51.7513 115.882 51.7513C115.487 51.7513 115.113 51.6884 114.76 51.5627C114.416 51.437 114.114 51.2442 113.853 50.9844C113.593 50.7162 113.387 50.3852 113.236 49.9913C113.085 49.5974 113.009 49.128 113.009 48.5833C113.009 48.1056 113.081 47.6698 113.223 47.2759C113.366 46.8736 113.572 46.5299 113.841 46.245C114.118 45.9517 114.454 45.7254 114.849 45.5661C115.243 45.3985 115.688 45.3147 116.184 45.3147C116.73 45.3147 117.204 45.3566 117.607 45.4404C118.019 45.5158 118.363 45.5871 118.64 45.6541V51.4873C118.64 52.493 118.38 53.2222 117.859 53.6747C117.339 54.1273 116.549 54.3536 115.491 54.3536C115.079 54.3536 114.689 54.3201 114.319 54.253C113.958 54.186 113.643 54.1063 113.375 54.0142L113.589 52.9959C113.824 53.0881 114.109 53.1677 114.445 53.2347C114.79 53.3102 115.147 53.3479 115.516 53.3479C116.213 53.3479 116.713 53.2096 117.015 52.933C117.326 52.6564 117.481 52.2164 117.481 51.613V51.3364ZM117.469 46.4839C117.351 46.4503 117.192 46.421 116.99 46.3959C116.797 46.3623 116.532 46.3456 116.196 46.3456C115.567 46.3456 115.079 46.5509 114.735 46.9616C114.399 47.3722 114.231 47.917 114.231 48.5959C114.231 48.973 114.277 49.2957 114.37 49.5639C114.471 49.8321 114.601 50.0541 114.76 50.2301C114.928 50.4061 115.117 50.5361 115.327 50.6199C115.546 50.7037 115.768 50.7456 115.995 50.7456C116.306 50.7456 116.591 50.7037 116.852 50.6199C117.112 50.5277 117.318 50.4229 117.469 50.3056V46.4839Z" fill="white"/>
<path d="M121.892 50.557C121.901 50.6241 121.905 50.6911 121.905 50.7581C121.905 50.8168 121.905 50.8797 121.905 50.9467C121.905 51.4747 121.825 51.9943 121.666 52.5056C121.514 53.0252 121.304 53.5197 121.036 53.989L120.129 53.6999C120.339 53.2724 120.477 52.8366 120.544 52.3924C120.611 51.9566 120.645 51.546 120.645 51.1604C120.645 51.0515 120.641 50.9467 120.632 50.8461C120.632 50.7456 120.628 50.6492 120.62 50.557H121.892Z" fill="white"/>
<path d="M126.396 47.6279C126.396 46.8819 126.506 46.224 126.724 45.6541C126.951 45.0842 127.253 44.6107 127.631 44.2336C128.017 43.848 128.463 43.5589 128.966 43.3661C129.479 43.1734 130.02 43.077 130.592 43.077C131.154 43.077 131.683 43.1734 132.179 43.3661C132.683 43.5589 133.124 43.848 133.502 44.2336C133.88 44.6107 134.178 45.0842 134.396 45.6541C134.623 46.224 134.736 46.8819 134.736 47.6279C134.736 48.3738 134.623 49.0317 134.396 49.6016C134.178 50.1715 133.88 50.6492 133.502 51.0347C133.124 51.4119 132.683 51.6968 132.179 51.8896C131.683 52.0823 131.154 52.1787 130.592 52.1787C130.02 52.1787 129.479 52.0823 128.966 51.8896C128.463 51.6968 128.017 51.4119 127.631 51.0347C127.253 50.6492 126.951 50.1715 126.724 49.6016C126.506 49.0317 126.396 48.3738 126.396 47.6279ZM127.681 47.6279C127.681 48.1559 127.749 48.6378 127.883 49.0736C128.017 49.501 128.206 49.8656 128.45 50.1673C128.702 50.469 129.004 50.7037 129.357 50.8713C129.718 51.0305 130.121 51.1102 130.566 51.1102C131.011 51.1102 131.41 51.0305 131.763 50.8713C132.116 50.7037 132.414 50.469 132.658 50.1673C132.91 49.8656 133.103 49.501 133.237 49.0736C133.371 48.6378 133.439 48.1559 133.439 47.6279C133.439 47.0999 133.371 46.6221 133.237 46.1947C133.103 45.7589 132.91 45.3901 132.658 45.0884C132.414 44.7867 132.116 44.5562 131.763 44.397C131.41 44.2294 131.011 44.1456 130.566 44.1456C130.121 44.1456 129.718 44.2294 129.357 44.397C129.004 44.5562 128.702 44.7867 128.45 45.0884C128.206 45.3901 128.017 45.7589 127.883 46.1947C127.749 46.6221 127.681 47.0999 127.681 47.6279Z" fill="white"/>
<path d="M141.694 51.8016C141.426 51.8686 141.069 51.9399 140.623 52.0153C140.187 52.0907 139.679 52.1284 139.099 52.1284C138.595 52.1284 138.171 52.0572 137.827 51.9147C137.482 51.7639 137.205 51.5543 136.995 51.2862C136.785 51.018 136.634 50.7037 136.542 50.3433C136.449 49.9745 136.403 49.5681 136.403 49.1239V45.453H137.575V48.8724C137.575 49.6686 137.701 50.2385 137.953 50.5821C138.205 50.9258 138.629 51.0976 139.225 51.0976C139.351 51.0976 139.481 51.0934 139.616 51.085C139.75 51.0766 139.876 51.0682 139.994 51.0599C140.111 51.0431 140.216 51.0305 140.308 51.0221C140.409 51.0054 140.481 50.9886 140.523 50.9719V45.453H141.694V51.8016Z" fill="white"/>
<path d="M146.131 45.3147C146.232 45.3147 146.346 45.3231 146.472 45.3398C146.606 45.3482 146.736 45.365 146.862 45.3901C146.988 45.4069 147.101 45.4278 147.202 45.453C147.311 45.4698 147.391 45.4865 147.442 45.5033L147.24 46.5216C147.148 46.488 146.992 46.4503 146.774 46.4084C146.564 46.3581 146.291 46.333 145.955 46.333C145.737 46.333 145.518 46.3581 145.3 46.4084C145.09 46.4503 144.951 46.4797 144.884 46.4964V51.9902H143.713V45.7296C143.99 45.629 144.334 45.5368 144.746 45.453C145.157 45.3608 145.619 45.3147 146.131 45.3147Z" fill="white"/>
<path d="M155.834 48.3444C155.969 48.512 156.136 48.7341 156.338 49.0107C156.548 49.2789 156.762 49.5806 156.981 49.9159C157.199 50.2427 157.413 50.5863 157.623 50.9467C157.841 51.3071 158.026 51.6549 158.177 51.9902H156.842C156.674 51.6717 156.489 51.349 156.288 51.0221C156.094 50.6953 155.897 50.3852 155.696 50.0919C155.494 49.7901 155.292 49.5094 155.091 49.2496C154.898 48.9898 154.721 48.7635 154.562 48.5707C154.453 48.5791 154.339 48.5833 154.222 48.5833C154.112 48.5833 153.999 48.5833 153.881 48.5833H152.785V51.9902H151.563V43.4038C151.908 43.32 152.29 43.2656 152.71 43.2404C153.138 43.2069 153.529 43.1901 153.881 43.1901C155.108 43.1901 156.04 43.4206 156.678 43.8816C157.325 44.3425 157.648 45.0298 157.648 45.9433C157.648 46.5216 157.493 47.016 157.182 47.4267C156.88 47.8374 156.43 48.1433 155.834 48.3444ZM153.982 44.2587C153.462 44.2587 153.063 44.2713 152.785 44.2964V47.5776H153.655C154.075 47.5776 154.453 47.5566 154.789 47.5147C155.124 47.4728 155.406 47.3932 155.633 47.2759C155.868 47.1585 156.048 46.9951 156.174 46.7856C156.3 46.5677 156.363 46.2827 156.363 45.9307C156.363 45.6038 156.3 45.3315 156.174 45.1136C156.048 44.8957 155.876 44.7238 155.658 44.5981C155.448 44.4724 155.196 44.3844 154.902 44.3341C154.616 44.2838 154.31 44.2587 153.982 44.2587Z" fill="white"/>
<path d="M159.045 48.7341C159.045 48.1559 159.129 47.653 159.297 47.2256C159.465 46.7898 159.688 46.4294 159.965 46.1444C160.242 45.8595 160.561 45.6458 160.922 45.5033C161.284 45.3608 161.653 45.2896 162.031 45.2896C162.913 45.2896 163.589 45.5661 164.059 46.1193C164.53 46.664 164.765 47.4979 164.765 48.621C164.765 48.6713 164.765 48.7383 164.765 48.8221C164.765 48.8976 164.761 48.9688 164.752 49.0359H160.267C160.318 49.7147 160.515 50.2301 160.859 50.5821C161.204 50.9341 161.741 51.1102 162.472 51.1102C162.884 51.1102 163.228 51.0766 163.505 51.0096C163.791 50.9341 164.005 50.8629 164.147 50.7959L164.311 51.7764C164.169 51.8519 163.917 51.9315 163.555 52.0153C163.203 52.0991 162.8 52.141 162.346 52.141C161.775 52.141 161.279 52.0572 160.859 51.8896C160.448 51.7136 160.108 51.4747 159.839 51.173C159.57 50.8713 159.369 50.5151 159.234 50.1044C159.108 49.6854 159.045 49.2286 159.045 48.7341ZM163.543 48.093C163.551 47.565 163.417 47.1334 163.14 46.7981C162.871 46.4545 162.497 46.2827 162.018 46.2827C161.75 46.2827 161.51 46.3372 161.3 46.4461C161.099 46.5467 160.927 46.6808 160.784 46.8484C160.641 47.016 160.528 47.2088 160.444 47.4267C160.368 47.6446 160.318 47.8667 160.293 48.093H163.543Z" fill="white"/>
<path d="M167.972 51.1479C168.451 51.1479 168.804 51.085 169.03 50.9593C169.265 50.8336 169.383 50.6324 169.383 50.3559C169.383 50.0709 169.27 49.8446 169.043 49.677C168.816 49.5094 168.442 49.3208 167.922 49.1113C167.67 49.0107 167.426 48.9101 167.191 48.8096C166.964 48.7006 166.767 48.5749 166.599 48.4324C166.431 48.29 166.297 48.1181 166.196 47.917C166.095 47.7159 166.045 47.4686 166.045 47.1753C166.045 46.597 166.259 46.1402 166.687 45.805C167.115 45.4614 167.699 45.2896 168.438 45.2896C168.623 45.2896 168.808 45.3021 168.993 45.3273C169.177 45.344 169.349 45.3692 169.509 45.4027C169.669 45.4278 169.807 45.4572 169.925 45.4907C170.051 45.5242 170.147 45.5536 170.215 45.5787L170 46.5844C169.874 46.5174 169.677 46.4503 169.408 46.3833C169.14 46.3079 168.816 46.2701 168.438 46.2701C168.111 46.2701 167.825 46.3372 167.582 46.4713C167.338 46.597 167.216 46.7981 167.216 47.0747C167.216 47.2172 167.241 47.3429 167.292 47.4519C167.351 47.5608 167.435 47.6614 167.544 47.7536C167.661 47.8374 167.804 47.917 167.972 47.9924C168.14 48.0679 168.342 48.1475 168.577 48.2313C168.888 48.3486 169.165 48.466 169.408 48.5833C169.652 48.6922 169.858 48.8221 170.026 48.973C170.202 49.1239 170.336 49.3082 170.429 49.5261C170.521 49.7357 170.567 49.9955 170.567 50.3056C170.567 50.909 170.341 51.3658 169.887 51.6759C169.442 51.986 168.804 52.141 167.972 52.141C167.393 52.141 166.939 52.0907 166.612 51.9902C166.284 51.898 166.061 51.8267 165.944 51.7764L166.158 50.7707C166.292 50.821 166.507 50.8964 166.801 50.997C167.094 51.0976 167.485 51.1479 167.972 51.1479Z" fill="white"/>
<path d="M176.618 48.7341C176.618 47.9715 176.429 47.3848 176.051 46.9741C175.673 46.5635 175.169 46.3581 174.539 46.3581C174.186 46.3581 173.909 46.3707 173.708 46.3959C173.515 46.421 173.359 46.4503 173.242 46.4839V50.6073C173.384 50.7246 173.59 50.8378 173.859 50.9467C174.128 51.0557 174.422 51.1102 174.741 51.1102C175.077 51.1102 175.362 51.0515 175.597 50.9341C175.841 50.8084 176.038 50.6408 176.19 50.4313C176.341 50.2134 176.45 49.962 176.517 49.677C176.584 49.3837 176.618 49.0694 176.618 48.7341ZM177.84 48.7341C177.84 49.2286 177.773 49.6854 177.638 50.1044C177.512 50.5235 177.323 50.8839 177.071 51.1856C176.819 51.4873 176.509 51.722 176.139 51.8896C175.778 52.0572 175.362 52.141 174.892 52.141C174.514 52.141 174.178 52.0907 173.884 51.9902C173.599 51.8896 173.384 51.7932 173.242 51.701V54.3159H172.07V45.6541C172.347 45.5871 172.692 45.5158 173.103 45.4404C173.523 45.3566 174.006 45.3147 174.552 45.3147C175.056 45.3147 175.509 45.3943 175.912 45.5536C176.316 45.7128 176.66 45.9391 176.945 46.2324C177.231 46.5258 177.449 46.8861 177.6 47.3136C177.76 47.7326 177.84 48.2061 177.84 48.7341Z" fill="white"/>
<path d="M185.271 48.7216C185.271 49.2412 185.195 49.7105 185.044 50.1296C184.893 50.5486 184.679 50.909 184.402 51.2107C184.133 51.5124 183.81 51.7471 183.432 51.9147C183.054 52.074 182.642 52.1536 182.197 52.1536C181.752 52.1536 181.34 52.074 180.962 51.9147C180.585 51.7471 180.257 51.5124 179.98 51.2107C179.711 50.909 179.501 50.5486 179.35 50.1296C179.199 49.7105 179.123 49.2412 179.123 48.7216C179.123 48.2103 179.199 47.7452 179.35 47.3261C179.501 46.8987 179.711 46.5341 179.98 46.2324C180.257 45.9307 180.585 45.7002 180.962 45.541C181.34 45.3734 181.752 45.2896 182.197 45.2896C182.642 45.2896 183.054 45.3734 183.432 45.541C183.81 45.7002 184.133 45.9307 184.402 46.2324C184.679 46.5341 184.893 46.8987 185.044 47.3261C185.195 47.7452 185.271 48.2103 185.271 48.7216ZM184.049 48.7216C184.049 47.984 183.881 47.4016 183.545 46.9741C183.217 46.5383 182.768 46.3204 182.197 46.3204C181.626 46.3204 181.172 46.5383 180.836 46.9741C180.509 47.4016 180.345 47.984 180.345 48.7216C180.345 49.4591 180.509 50.0458 180.836 50.4816C181.172 50.909 181.626 51.1227 182.197 51.1227C182.768 51.1227 183.217 50.909 183.545 50.4816C183.881 50.0458 184.049 49.4591 184.049 48.7216Z" fill="white"/>
<path d="M186.919 45.6416C187.188 45.5745 187.545 45.5033 187.99 45.4278C188.435 45.3524 188.947 45.3147 189.527 45.3147C190.048 45.3147 190.48 45.3901 190.825 45.541C191.169 45.6835 191.442 45.8888 191.643 46.157C191.853 46.4168 192 46.7311 192.084 47.0999C192.168 47.4686 192.21 47.8751 192.21 48.3193V51.9902H191.039V48.5707C191.039 48.1684 191.009 47.8248 190.951 47.5399C190.9 47.2549 190.812 47.0244 190.686 46.8484C190.56 46.6724 190.392 46.5467 190.182 46.4713C189.972 46.3875 189.712 46.3456 189.401 46.3456C189.275 46.3456 189.145 46.3498 189.01 46.3581C188.876 46.3665 188.746 46.3791 188.62 46.3959C188.502 46.4042 188.393 46.4168 188.292 46.4336C188.2 46.4503 188.133 46.4629 188.091 46.4713V51.9902H186.919V45.6416Z" fill="white"/>
<path d="M195.677 51.1479C196.156 51.1479 196.509 51.085 196.736 50.9593C196.971 50.8336 197.088 50.6324 197.088 50.3559C197.088 50.0709 196.975 49.8446 196.748 49.677C196.522 49.5094 196.148 49.3208 195.627 49.1113C195.375 49.0107 195.132 48.9101 194.896 48.8096C194.67 48.7006 194.472 48.5749 194.304 48.4324C194.136 48.29 194.002 48.1181 193.901 47.917C193.8 47.7159 193.75 47.4686 193.75 47.1753C193.75 46.597 193.964 46.1402 194.392 45.805C194.821 45.4614 195.405 45.2896 196.144 45.2896C196.328 45.2896 196.513 45.3021 196.698 45.3273C196.883 45.344 197.055 45.3692 197.214 45.4027C197.374 45.4278 197.513 45.4572 197.63 45.4907C197.756 45.5242 197.853 45.5536 197.92 45.5787L197.706 46.5844C197.58 46.5174 197.382 46.4503 197.114 46.3833C196.845 46.3079 196.522 46.2701 196.144 46.2701C195.816 46.2701 195.53 46.3372 195.287 46.4713C195.043 46.597 194.922 46.7981 194.922 47.0747C194.922 47.2172 194.947 47.3429 194.997 47.4519C195.056 47.5608 195.14 47.6614 195.249 47.7536C195.367 47.8374 195.509 47.917 195.677 47.9924C195.845 48.0679 196.047 48.1475 196.282 48.2313C196.593 48.3486 196.87 48.466 197.114 48.5833C197.357 48.6922 197.563 48.8221 197.731 48.973C197.907 49.1239 198.042 49.3082 198.134 49.5261C198.226 49.7357 198.273 49.9955 198.273 50.3056C198.273 50.909 198.046 51.3658 197.592 51.6759C197.147 51.986 196.509 52.141 195.677 52.141C195.098 52.141 194.644 52.0907 194.317 51.9902C193.989 51.898 193.767 51.8267 193.649 51.7764L193.863 50.7707C193.998 50.821 194.212 50.8964 194.506 50.997C194.8 51.0976 195.19 51.1479 195.677 51.1479Z" fill="white"/>
<path d="M200.947 51.9902H199.775V45.453H200.947V51.9902ZM200.355 44.2713C200.145 44.2713 199.964 44.2042 199.813 44.0701C199.67 43.9277 199.599 43.7391 199.599 43.5044C199.599 43.2697 199.67 43.0854 199.813 42.9513C199.964 42.8088 200.145 42.7376 200.355 42.7376C200.565 42.7376 200.741 42.8088 200.884 42.9513C201.035 43.0854 201.111 43.2697 201.111 43.5044C201.111 43.7391 201.035 43.9277 200.884 44.0701C200.741 44.2042 200.565 44.2713 200.355 44.2713Z" fill="white"/>
<path d="M204.133 45.7421C204.276 45.6499 204.49 45.5536 204.776 45.453C205.07 45.3524 205.406 45.3021 205.784 45.3021C206.254 45.3021 206.67 45.3859 207.031 45.5536C207.4 45.7212 207.711 45.9558 207.963 46.2576C208.215 46.5593 208.404 46.9197 208.53 47.3387C208.664 47.7578 208.732 48.2187 208.732 48.7216C208.732 49.2496 208.652 49.7273 208.492 50.1547C208.341 50.5738 208.123 50.93 207.837 51.2233C207.552 51.5166 207.207 51.7429 206.804 51.9022C206.401 52.0614 205.947 52.141 205.444 52.141C204.898 52.141 204.415 52.1033 203.995 52.0279C203.575 51.9524 203.231 51.877 202.962 51.8016V42.4358L204.133 42.2347V45.7421ZM204.133 50.9719C204.251 51.0054 204.415 51.0389 204.625 51.0724C204.843 51.0976 205.112 51.1102 205.431 51.1102C206.061 51.1102 206.565 50.9048 206.943 50.4941C207.321 50.0751 207.51 49.4842 207.51 48.7216C207.51 48.3863 207.476 48.072 207.409 47.7787C207.342 47.4854 207.232 47.2339 207.081 47.0244C206.93 46.8065 206.733 46.6389 206.489 46.5216C206.254 46.3959 205.968 46.333 205.633 46.333C205.313 46.333 205.019 46.3875 204.751 46.4964C204.482 46.6054 204.276 46.7185 204.133 46.8359V50.9719Z" fill="white"/>
<path d="M211.552 51.9902H210.38V45.453H211.552V51.9902ZM210.96 44.2713C210.75 44.2713 210.569 44.2042 210.418 44.0701C210.275 43.9277 210.204 43.7391 210.204 43.5044C210.204 43.2697 210.275 43.0854 210.418 42.9513C210.569 42.8088 210.75 42.7376 210.96 42.7376C211.17 42.7376 211.346 42.8088 211.489 42.9513C211.64 43.0854 211.716 43.2697 211.716 43.5044C211.716 43.7391 211.64 43.9277 211.489 44.0701C211.346 44.2042 211.17 44.2713 210.96 44.2713Z" fill="white"/>
<path d="M215.532 52.1159C214.81 52.0991 214.297 51.9441 213.995 51.6507C213.693 51.3574 213.541 50.9006 213.541 50.2804V42.4358L214.713 42.2347V50.0919C214.713 50.2846 214.73 50.4439 214.763 50.5696C214.797 50.6953 214.852 50.7959 214.927 50.8713C215.003 50.9467 215.104 51.0054 215.229 51.0473C215.355 51.0808 215.511 51.1102 215.696 51.1353L215.532 52.1159Z" fill="white"/>
<path d="M218.183 51.9902H217.011V45.453H218.183V51.9902ZM217.591 44.2713C217.381 44.2713 217.2 44.2042 217.049 44.0701C216.906 43.9277 216.835 43.7391 216.835 43.5044C216.835 43.2697 216.906 43.0854 217.049 42.9513C217.2 42.8088 217.381 42.7376 217.591 42.7376C217.801 42.7376 217.977 42.8088 218.12 42.9513C218.271 43.0854 218.347 43.2697 218.347 43.5044C218.347 43.7391 218.271 43.9277 218.12 44.0701C217.977 44.2042 217.801 44.2713 217.591 44.2713Z" fill="white"/>
<path d="M221.294 45.453H223.775V46.4336H221.294V49.4507C221.294 49.7776 221.319 50.05 221.369 50.2679C221.42 50.4774 221.495 50.645 221.596 50.7707C221.697 50.8881 221.823 50.9719 221.974 51.0221C222.125 51.0724 222.301 51.0976 222.503 51.0976C222.856 51.0976 223.137 51.0599 223.347 50.9844C223.565 50.9006 223.717 50.842 223.801 50.8084L224.027 51.7764C223.91 51.8351 223.704 51.9063 223.41 51.9902C223.116 52.0823 222.78 52.1284 222.402 52.1284C221.957 52.1284 221.588 52.074 221.294 51.965C221.008 51.8477 220.777 51.6759 220.601 51.4496C220.424 51.2233 220.298 50.9467 220.223 50.6199C220.156 50.2846 220.122 49.8991 220.122 49.4633V43.6301L221.294 43.429V45.453Z" fill="white"/>
<path d="M224.498 53.2096C224.59 53.2515 224.708 53.2892 224.851 53.3227C225.002 53.3646 225.149 53.3856 225.291 53.3856C225.753 53.3856 226.115 53.2808 226.375 53.0713C226.635 52.8702 226.87 52.5391 227.08 52.0782C226.551 51.0724 226.056 50.0081 225.594 48.885C225.14 47.7536 224.762 46.6096 224.46 45.453H225.72C225.812 45.8301 225.921 46.2366 226.047 46.6724C226.182 47.1082 226.329 47.5566 226.488 48.0176C226.648 48.4785 226.82 48.9395 227.005 49.4004C227.19 49.8614 227.383 50.3056 227.584 50.733C227.903 49.853 228.181 48.9814 228.416 48.1181C228.651 47.2549 228.873 46.3665 229.083 45.453H230.293C229.99 46.685 229.655 47.8709 229.285 49.0107C228.915 50.1421 228.517 51.2023 228.088 52.1913C227.92 52.5684 227.744 52.8911 227.559 53.1593C227.383 53.4359 227.185 53.6622 226.967 53.8382C226.749 54.0142 226.501 54.1441 226.224 54.2279C225.955 54.3117 225.648 54.3536 225.304 54.3536C225.212 54.3536 225.115 54.3452 225.014 54.3284C224.914 54.3201 224.813 54.3033 224.712 54.2782C224.62 54.2614 224.531 54.2404 224.447 54.2153C224.372 54.1902 224.317 54.1692 224.284 54.1524L224.498 53.2096Z" fill="white"/>
<path d="M232.571 51.3113C232.571 51.5376 232.495 51.7345 232.344 51.9022C232.193 52.0698 231.987 52.1536 231.727 52.1536C231.466 52.1536 231.26 52.0698 231.109 51.9022C230.958 51.7345 230.882 51.5376 230.882 51.3113C230.882 51.085 230.958 50.8881 231.109 50.7204C231.26 50.5528 231.466 50.469 231.727 50.469C231.987 50.469 232.193 50.5528 232.344 50.7204C232.495 50.8881 232.571 51.085 232.571 51.3113Z" fill="white"/>
<path d="M222.401 33.6999C220.961 33.6999 219.668 33.4207 218.521 32.8622C217.404 32.2743 216.449 31.4807 215.655 30.4813C214.891 29.4818 214.303 28.3355 213.892 27.0421C213.51 25.7194 213.318 24.3084 213.318 22.8093C213.348 21.3102 213.568 19.914 213.98 18.6206C214.391 17.2979 214.979 16.1515 215.743 15.1815C216.537 14.1821 217.492 13.4031 218.609 12.8446C219.726 12.2861 220.99 12.0069 222.401 12.0069C223.753 12.0069 225.017 12.2861 226.193 12.8446C227.398 13.4031 228.457 14.1821 229.368 15.1815C230.308 16.1515 231.043 17.2979 231.572 18.6206C232.101 19.914 232.366 21.2955 232.366 22.7652C232.366 24.2937 232.101 25.7341 231.572 27.0862C231.043 28.4089 230.323 29.57 229.412 30.5694C228.501 31.5394 227.442 32.3037 226.237 32.8622C225.032 33.4207 223.753 33.6999 222.401 33.6999ZM221.696 28.5412C222.725 28.5412 223.651 28.3061 224.474 27.8358C225.297 27.3361 225.943 26.66 226.414 25.8075C226.913 24.9551 227.163 23.9851 227.163 22.8975C227.163 21.7805 226.913 20.7958 226.414 19.9434C225.943 19.0615 225.297 18.3855 224.474 17.9152C223.651 17.4155 222.725 17.1656 221.696 17.1656C220.696 17.1656 219.785 17.4155 218.962 17.9152C218.139 18.4149 217.478 19.0909 216.978 19.9434C216.508 20.7958 216.273 21.7805 216.273 22.8975C216.273 23.9851 216.508 24.9551 216.978 25.8075C217.478 26.66 218.139 27.3361 218.962 27.8358C219.785 28.3061 220.696 28.5412 221.696 28.5412ZM213.539 33.744C212.745 33.744 212.157 33.6118 211.775 33.3472C211.393 33.112 211.158 32.8034 211.07 32.4213C210.982 32.0098 210.938 31.5541 210.938 31.0544V4.77588C210.938 4.27617 210.982 3.83526 211.07 3.45313C211.158 3.04161 211.393 2.71827 211.775 2.48312C212.157 2.24796 212.745 2.13039 213.539 2.13039C214.362 2.13039 214.95 2.24796 215.303 2.48312C215.655 2.71827 215.876 3.04161 215.964 3.45313C216.052 3.86465 216.096 4.30557 216.096 4.77588V31.9363C215.979 32.5829 215.729 33.0386 215.347 33.3031C214.994 33.5971 214.391 33.744 213.539 33.744Z" fill="white" stroke="white" stroke-width="0.4"/>
<path d="M197.797 34.0092C195.886 34.0092 194.211 33.7005 192.77 33.0833C191.359 32.466 190.169 31.6282 189.199 30.5701C188.258 29.4825 187.538 28.2773 187.038 26.9545C186.568 25.6024 186.333 24.2062 186.333 22.7658C186.333 20.6495 186.818 18.7682 187.788 17.1221C188.758 15.476 190.095 14.1827 191.8 13.2421C193.535 12.3015 195.519 11.8311 197.753 11.8311C199.34 11.8311 200.736 12.081 201.941 12.5807C203.147 13.0804 204.146 13.7418 204.94 14.5648C205.763 15.3585 206.38 16.2403 206.792 17.2103C207.232 18.1803 207.453 19.1209 207.453 20.0322C207.453 21.5901 207.071 22.7218 206.306 23.4272C205.572 24.1327 204.646 24.4854 203.529 24.4854H191.889C191.918 25.4848 192.227 26.352 192.814 27.0868C193.432 27.8217 194.196 28.3949 195.107 28.8064C196.048 29.1885 197.003 29.3796 197.973 29.3796C198.708 29.3796 199.355 29.3355 199.913 29.2473C200.501 29.1591 201.001 29.0562 201.412 28.9387C201.824 28.7917 202.177 28.6447 202.471 28.4977C202.794 28.3508 203.088 28.2185 203.352 28.1009C203.617 27.9833 203.867 27.9099 204.102 27.8805C204.425 27.8511 204.749 27.9246 205.072 28.1009C205.395 28.2773 205.66 28.5859 205.866 29.0268C206.042 29.3208 206.16 29.6 206.218 29.8646C206.306 30.0997 206.351 30.3349 206.351 30.5701C206.351 31.1579 205.998 31.7164 205.292 32.2455C204.587 32.7452 203.588 33.1568 202.294 33.4801C201.03 33.8328 199.531 34.0092 197.797 34.0092ZM191.889 21.3549H200.927C201.427 21.3549 201.809 21.2814 202.074 21.1345C202.338 20.9581 202.471 20.6054 202.471 20.0763C202.471 19.4002 202.265 18.7976 201.853 18.2685C201.442 17.71 200.883 17.2838 200.178 16.9899C199.472 16.6665 198.649 16.5048 197.709 16.5048C196.621 16.5048 195.636 16.7253 194.754 17.1662C193.873 17.5777 193.167 18.1509 192.638 18.8858C192.138 19.6207 191.889 20.4437 191.889 21.3549Z" fill="white" stroke="white" stroke-width="0.4"/>
<path d="M158.35 33.6134C157.762 33.6134 157.292 33.5105 156.939 33.3048C156.586 33.0696 156.322 32.8051 156.146 32.5111C155.999 32.2172 155.896 31.9673 155.837 31.7616L147.195 6.45304C146.901 5.51242 146.857 4.80696 147.063 4.33665C147.268 3.83695 147.871 3.42542 148.87 3.10209C149.546 2.86693 150.09 2.76405 150.502 2.79345C150.913 2.82284 151.251 2.99921 151.516 3.32255C151.81 3.61649 152.06 4.0868 152.265 4.73348L158.615 23.9574L164.302 4.90984C164.391 4.6159 164.508 4.32195 164.655 4.02801C164.832 3.70467 165.096 3.44012 165.449 3.23436C165.802 3.0286 166.287 2.92572 166.904 2.92572C167.609 2.92572 168.138 3.0433 168.491 3.27845C168.844 3.51361 169.094 3.77816 169.241 4.0721C169.417 4.33665 169.535 4.5865 169.593 4.82166L175.281 24.0897L181.675 4.77757C181.88 4.1015 182.115 3.60179 182.38 3.27845C182.674 2.95512 183.041 2.77875 183.482 2.74936C183.923 2.69057 184.467 2.77875 185.114 3.01391C185.79 3.24906 186.275 3.51361 186.569 3.80755C186.863 4.0721 187.01 4.42483 187.01 4.86575C187.01 5.27727 186.907 5.80637 186.701 6.45304L178.103 31.8057C178.044 31.982 177.927 32.2172 177.75 32.5111C177.603 32.8051 177.354 33.0696 177.001 33.3048C176.648 33.5105 176.163 33.6134 175.546 33.6134C174.929 33.6134 174.444 33.4812 174.091 33.2166C173.738 32.9521 173.473 32.6581 173.297 32.3348C173.121 32.0114 173.003 31.7763 172.944 31.6293L166.948 12.229L160.951 31.5852C160.893 31.791 160.775 32.0555 160.599 32.3789C160.452 32.7022 160.202 32.9961 159.849 33.2607C159.496 33.4959 158.997 33.6134 158.35 33.6134Z" fill="white" stroke="white" stroke-width="0.4"/>
<path d="M135.424 34.0096C134.659 34.0096 133.851 33.9214 132.999 33.745C132.146 33.598 131.323 33.3776 130.529 33.0836C129.736 32.7603 129.045 32.3929 128.457 31.9814C127.899 31.5404 127.546 31.0554 127.399 30.5263C127.281 30.2324 127.237 29.9531 127.267 29.6886C127.296 29.3947 127.384 29.1007 127.531 28.8068C127.678 28.4834 127.899 28.1601 128.193 27.8368C128.457 27.5134 128.722 27.337 128.986 27.3077C129.28 27.2489 129.648 27.337 130.088 27.5722C130.471 27.7192 130.882 27.9102 131.323 28.1454C131.793 28.3805 132.264 28.6157 132.734 28.8509C133.234 29.086 133.733 29.2771 134.233 29.424C134.762 29.571 135.277 29.6445 135.776 29.6445C136.864 29.6445 137.731 29.4681 138.378 29.1154C139.024 28.7333 139.348 28.2042 139.348 27.5281C139.348 27.146 139.245 26.8079 139.039 26.514C138.833 26.2201 138.554 25.9849 138.201 25.8085C137.878 25.6028 137.481 25.4264 137.011 25.2794C136.57 25.1031 136.085 24.9561 135.556 24.8385C135.056 24.6916 134.527 24.5299 133.969 24.3535C133.234 24.1478 132.499 23.8979 131.764 23.604C131.029 23.31 130.368 22.9279 129.78 22.4576C129.221 21.9873 128.766 21.3994 128.413 20.6939C128.06 19.9885 127.884 19.1066 127.884 18.0484C127.884 16.7257 128.193 15.6087 128.81 14.6975C129.457 13.7569 130.382 13.0367 131.588 12.537C132.793 12.0373 134.248 11.7874 135.953 11.7874C136.541 11.7874 137.099 11.8315 137.628 11.9197C138.187 12.0079 138.716 12.1402 139.215 12.3165C139.745 12.4635 140.244 12.6546 140.715 12.8897C141.214 13.1249 141.685 13.3894 142.125 13.6834C142.86 14.0949 143.242 14.5799 143.272 15.1384C143.301 15.6675 143.096 16.2407 142.655 16.858C142.331 17.2695 142.008 17.5634 141.685 17.7398C141.361 17.8868 141.023 17.8868 140.67 17.7398C140.2 17.5046 139.686 17.2548 139.127 16.9902C138.598 16.6963 138.04 16.4464 137.452 16.2407C136.893 16.0349 136.305 15.932 135.688 15.932C135.1 15.932 134.571 16.0202 134.101 16.1966C133.631 16.373 133.278 16.6228 133.043 16.9461C132.807 17.2695 132.69 17.6516 132.69 18.0925C132.69 18.504 132.807 18.8421 133.043 19.1066C133.278 19.3712 133.586 19.5916 133.969 19.768C134.351 19.9444 134.806 20.106 135.335 20.253C135.864 20.3706 136.423 20.4882 137.011 20.6057C137.834 20.7821 138.672 21.0026 139.524 21.2671C140.377 21.5317 141.155 21.8991 141.861 22.3694C142.596 22.8397 143.184 23.4717 143.625 24.2653C144.066 25.0296 144.286 26.029 144.286 27.2636C144.286 29.4093 143.492 31.0701 141.905 32.2459C140.347 33.4217 138.187 34.0096 135.424 34.0096Z" fill="white" stroke="white" stroke-width="0.4"/>
<path d="M114.609 34.0089C112.699 34.0089 111.023 33.7003 109.583 33.083C108.172 32.4657 106.981 31.628 106.011 30.5698C105.071 29.4822 104.351 28.277 103.851 26.9543C103.381 25.6021 103.146 24.2059 103.146 22.7656C103.146 20.6492 103.631 18.7679 104.601 17.1219C105.571 15.4758 106.908 14.1824 108.613 13.2418C110.347 12.3012 112.331 11.8309 114.565 11.8309C116.153 11.8309 117.549 12.0807 118.754 12.5804C119.959 13.0801 120.959 13.7415 121.752 14.5645C122.575 15.3582 123.192 16.24 123.604 17.21C124.045 18.1801 124.265 19.1207 124.265 20.0319C124.265 21.5898 123.883 22.7215 123.119 23.4269C122.384 24.1324 121.458 24.4851 120.341 24.4851H108.701C108.73 25.4846 109.039 26.3517 109.627 27.0865C110.244 27.8214 111.009 28.3946 111.92 28.8061C112.86 29.1882 113.816 29.3793 114.786 29.3793C115.521 29.3793 116.167 29.3352 116.726 29.247C117.314 29.1588 117.813 29.056 118.225 28.9384C118.636 28.7914 118.989 28.6444 119.283 28.4975C119.606 28.3505 119.9 28.2182 120.165 28.1006C120.429 27.9831 120.679 27.9096 120.914 27.8802C121.238 27.8508 121.561 27.9243 121.884 28.1006C122.208 28.277 122.472 28.5857 122.678 29.0266C122.854 29.3205 122.972 29.5998 123.031 29.8643C123.119 30.0995 123.163 30.3346 123.163 30.5698C123.163 31.1577 122.81 31.7162 122.105 32.2453C121.399 32.745 120.4 33.1565 119.107 33.4798C117.843 33.8326 116.344 34.0089 114.609 34.0089ZM108.701 21.3546H117.74C118.24 21.3546 118.622 21.2812 118.886 21.1342C119.151 20.9578 119.283 20.6051 119.283 20.076C119.283 19.3999 119.077 18.7973 118.666 18.2682C118.254 17.7097 117.696 17.2835 116.99 16.9896C116.285 16.6662 115.462 16.5046 114.521 16.5046C113.434 16.5046 112.449 16.725 111.567 17.1659C110.685 17.5775 109.98 18.1507 109.451 18.8855C108.951 19.6204 108.701 20.4434 108.701 21.3546Z" fill="white" stroke="white" stroke-width="0.4"/>
<path d="M98.8682 33.7459C97.7806 33.7459 96.8106 33.6724 95.9582 33.5255C95.1351 33.3785 94.415 33.1286 93.7977 32.7759C93.2098 32.4232 92.7248 31.9529 92.3427 31.365C91.9605 30.7477 91.6666 29.9981 91.4608 29.1163C91.2845 28.2345 91.1963 27.1763 91.1963 25.9417V4.68958C91.1963 4.18988 91.2404 3.74896 91.3286 3.36684C91.4461 2.95532 91.6813 2.63198 92.034 2.39682C92.4162 2.13227 93.0187 2 93.8418 2C94.6648 2 95.2527 2.11758 95.6054 2.35273C95.9876 2.58789 96.2227 2.91123 96.3109 3.32275C96.4285 3.70487 96.4873 4.14579 96.4873 4.64549V25.7212C96.4873 26.2797 96.5167 26.7501 96.5755 27.1322C96.6636 27.4849 96.7959 27.7789 96.9723 28.014C97.178 28.2198 97.4279 28.3667 97.7218 28.4549C98.0452 28.5431 98.4273 28.5872 98.8682 28.5872C99.2503 28.5872 99.5884 28.6313 99.8823 28.7195C100.206 28.8077 100.456 29.0281 100.632 29.3808C100.838 29.7336 100.941 30.3068 100.941 31.1004C100.941 31.9235 100.838 32.526 100.632 32.9082C100.456 33.2903 100.206 33.5255 99.8823 33.6136C99.559 33.7018 99.221 33.7459 98.8682 33.7459Z" fill="white" stroke="white" stroke-width="0.4"/>
<path d="M83.8139 33.7453C83.0203 33.7453 82.4324 33.613 82.0502 33.3485C81.6681 33.1133 81.433 32.8047 81.3448 32.4226C81.2566 32.011 81.2125 31.5554 81.2125 31.0557V14.6537C81.2125 14.1834 81.2566 13.7571 81.3448 13.375C81.4624 12.9635 81.6975 12.6402 82.0502 12.405C82.4324 12.1699 83.0349 12.0523 83.858 12.0523C84.681 12.0523 85.2689 12.1699 85.6217 12.405C86.0038 12.6402 86.2389 12.9635 86.3271 13.375C86.4153 13.7865 86.4594 14.2422 86.4594 14.7419V31.0998C86.4594 31.5995 86.4153 32.0551 86.3271 32.4667C86.2389 32.8488 86.0038 33.1574 85.6217 33.3926C85.2689 33.6277 84.6663 33.7453 83.8139 33.7453ZM83.8139 7.77539C82.9615 7.77539 82.3295 7.65782 81.918 7.42266C81.5358 7.15811 81.286 6.80538 81.1684 6.36447C81.0802 5.92355 81.0361 5.43854 81.0361 4.90944C81.0361 4.35095 81.0802 3.86594 81.1684 3.45442C81.286 3.0429 81.5505 2.71956 81.9621 2.48441C82.3736 2.21986 83.0056 2.08759 83.858 2.08759C84.7398 2.08759 85.3718 2.21986 85.7539 2.48441C86.1361 2.74896 86.3859 3.10169 86.5035 3.54261C86.6211 3.95413 86.6799 4.43913 86.6799 4.99763C86.6799 5.49733 86.6211 5.96764 86.5035 6.40856C86.3859 6.84947 86.1361 7.18751 85.7539 7.42266C85.3718 7.65782 84.7251 7.77539 83.8139 7.77539Z" fill="white" stroke="white" stroke-width="0.4"/>
<path d="M47.6014 33.7008C46.8371 33.7008 46.264 33.5832 45.8818 33.3481C45.4997 33.1129 45.2499 32.7896 45.1323 32.3781C45.0441 31.9665 45 31.5109 45 31.0112V5.57042C45 5.10011 45.0441 4.67389 45.1323 4.29176C45.2499 3.88024 45.4997 3.5569 45.8818 3.32175C46.264 3.0572 46.8665 2.92493 47.6896 2.92493C48.3069 2.92493 48.7625 2.96902 49.0564 3.0572C49.3798 3.11599 49.6296 3.21887 49.806 3.36584C49.9823 3.48342 50.1587 3.64509 50.3351 3.85085L61.0934 18.8861H60.0793L70.8817 3.80676C71.0875 3.5716 71.2933 3.39523 71.499 3.27766C71.7048 3.16008 71.9693 3.0719 72.2927 3.01311C72.616 2.95432 73.0422 2.92493 73.5713 2.92493C74.365 2.92493 74.9529 3.0572 75.335 3.32175C75.7171 3.5569 75.9523 3.88024 76.0405 4.29176C76.158 4.70328 76.2168 5.1589 76.2168 5.6586V31.0994C76.2168 31.5403 76.158 31.9665 76.0405 32.3781C75.9523 32.7896 75.7171 33.1129 75.335 33.3481C74.9529 33.5832 74.3503 33.7008 73.5272 33.7008C72.7336 33.7008 72.1457 33.5685 71.7636 33.304C71.3815 33.0688 71.1316 32.7455 71.014 32.334C70.9258 31.9225 70.8817 31.4815 70.8817 31.0112V12.096L62.8571 23.692C62.7689 23.8096 62.6366 23.9713 62.4603 24.177C62.2839 24.3534 62.0487 24.5151 61.7548 24.6621C61.4609 24.809 61.064 24.8825 60.5643 24.8825C60.094 24.8825 59.7119 24.809 59.4179 24.6621C59.124 24.5151 58.8888 24.3534 58.7125 24.177C58.5655 24.0007 58.4185 23.8243 58.2716 23.6479L50.291 12.096V31.0994C50.291 31.5403 50.2322 31.9665 50.1146 32.3781C50.0264 32.7896 49.7913 33.1129 49.4092 33.3481C49.027 33.5832 48.4244 33.7008 47.6014 33.7008Z" fill="white" stroke="white" stroke-width="0.4"/>
</svg>
