<svg width="1047" height="1047" viewBox="0 0 1047 1047" fill="none" xmlns="http://www.w3.org/2000/svg">
<path d="M480.146 665.945C480.146 663.184 482.385 660.945 485.146 660.945H973.782C976.543 660.945 978.782 663.184 978.782 665.945V669.991C978.782 672.753 976.543 674.991 973.782 674.991H485.146C482.385 674.991 480.146 672.753 480.146 669.991V665.945Z" fill="#FFBB00"/>
<path d="M85.2437 616.179V599.178C82.4247 594.816 79.7691 590.514 77.277 586.274C74.7848 582.034 72.4357 577.876 70.2295 573.799H77.2157C78.7682 577.142 80.5045 580.546 82.4247 584.012C84.3449 587.436 86.3263 590.739 88.3691 593.919C90.3709 590.739 92.332 587.436 94.2522 584.012C96.1723 580.546 97.9291 577.142 99.5224 573.799H106.141C103.935 577.876 101.586 582.034 99.0935 586.274C96.6013 590.474 93.9662 594.734 91.188 599.056V616.179H85.2437Z" fill="#27235C"/>
<path d="M136.526 600.279C136.526 602.806 136.159 605.089 135.423 607.128C134.688 609.166 133.646 610.919 132.298 612.387C130.991 613.855 129.418 614.996 127.579 615.812C125.741 616.586 123.739 616.974 121.574 616.974C119.408 616.974 117.406 616.586 115.568 615.812C113.729 614.996 112.136 613.855 110.788 612.387C109.48 610.919 108.459 609.166 107.724 607.128C106.988 605.089 106.621 602.806 106.621 600.279C106.621 597.792 106.988 595.529 107.724 593.491C108.459 591.411 109.48 589.638 110.788 588.17C112.136 586.702 113.729 585.581 115.568 584.807C117.406 583.991 119.408 583.584 121.574 583.584C123.739 583.584 125.741 583.991 127.579 584.807C129.418 585.581 130.991 586.702 132.298 588.17C133.646 589.638 134.688 591.411 135.423 593.491C136.159 595.529 136.526 597.792 136.526 600.279ZM130.582 600.279C130.582 596.691 129.765 593.857 128.131 591.778C126.537 589.658 124.352 588.598 121.574 588.598C118.795 588.598 116.589 589.658 114.955 591.778C113.362 593.857 112.565 596.691 112.565 600.279C112.565 603.866 113.362 606.72 114.955 608.84C116.589 610.919 118.795 611.959 121.574 611.959C124.352 611.959 126.537 610.919 128.131 608.84C129.765 606.72 130.582 603.866 130.582 600.279Z" fill="#27235C"/>
<path d="M169.916 615.261C168.608 615.588 166.872 615.934 164.707 616.301C162.582 616.668 160.111 616.851 157.292 616.851C154.84 616.851 152.777 616.505 151.102 615.812C149.427 615.078 148.079 614.059 147.057 612.754C146.036 611.449 145.301 609.921 144.851 608.168C144.402 606.374 144.177 604.396 144.177 602.236V584.379H149.876V601.012C149.876 604.886 150.489 607.658 151.715 609.329C152.941 611.001 155.004 611.837 157.904 611.837C158.517 611.837 159.15 611.816 159.804 611.776C160.458 611.735 161.071 611.694 161.643 611.653C162.215 611.572 162.725 611.511 163.175 611.47C163.665 611.388 164.012 611.307 164.216 611.225V584.379H169.916V615.261Z" fill="#27235C"/>
<path d="M191.5 583.706C191.991 583.706 192.542 583.747 193.155 583.828C193.809 583.869 194.442 583.95 195.055 584.073C195.668 584.154 196.219 584.256 196.709 584.379C197.241 584.46 197.629 584.542 197.874 584.623L196.893 589.577C196.444 589.414 195.688 589.23 194.626 589.026C193.605 588.782 192.277 588.659 190.643 588.659C189.58 588.659 188.518 588.782 187.456 589.026C186.434 589.23 185.76 589.373 185.434 589.454V616.179H179.734V585.724C181.082 585.235 182.758 584.786 184.759 584.379C186.761 583.93 189.008 583.706 191.5 583.706Z" fill="#27235C"/>
<path d="M244.644 573.799H250.588V616.179H244.644V596.609H223.869V616.179H217.925V573.799H223.869V591.472H244.644V573.799Z" fill="#27235C"/>
<path d="M288.894 600.279C288.894 602.806 288.527 605.089 287.791 607.128C287.056 609.166 286.014 610.919 284.666 612.387C283.359 613.855 281.786 614.996 279.947 615.812C278.109 616.586 276.107 616.974 273.941 616.974C271.776 616.974 269.774 616.586 267.936 615.812C266.097 614.996 264.504 613.855 263.156 612.387C261.848 610.919 260.827 609.166 260.092 607.128C259.356 605.089 258.989 602.806 258.989 600.279C258.989 597.792 259.356 595.529 260.092 593.491C260.827 591.411 261.848 589.638 263.156 588.17C264.504 586.702 266.097 585.581 267.936 584.807C269.774 583.991 271.776 583.584 273.941 583.584C276.107 583.584 278.109 583.991 279.947 584.807C281.786 585.581 283.359 586.702 284.666 588.17C286.014 589.638 287.056 591.411 287.791 593.491C288.527 595.529 288.894 597.792 288.894 600.279ZM282.95 600.279C282.95 596.691 282.133 593.857 280.499 591.778C278.905 589.658 276.72 588.598 273.941 588.598C271.163 588.598 268.957 589.658 267.323 591.778C265.73 593.857 264.933 596.691 264.933 600.279C264.933 603.866 265.73 606.72 267.323 608.84C268.957 610.919 271.163 611.959 273.941 611.959C276.72 611.959 278.905 610.919 280.499 608.84C282.133 606.72 282.95 603.866 282.95 600.279Z" fill="#27235C"/>
<path d="M304.328 612.081C306.657 612.081 308.373 611.776 309.476 611.164C310.62 610.553 311.192 609.574 311.192 608.229C311.192 606.843 310.64 605.742 309.537 604.926C308.434 604.111 306.616 603.194 304.083 602.174C302.857 601.685 301.672 601.196 300.528 600.707C299.425 600.177 298.465 599.565 297.648 598.872C296.831 598.179 296.177 597.343 295.687 596.365C295.197 595.386 294.952 594.184 294.952 592.757C294.952 589.944 295.994 587.722 298.077 586.091C300.161 584.419 303 583.584 306.595 583.584C307.494 583.584 308.393 583.645 309.292 583.767C310.191 583.849 311.028 583.971 311.804 584.134C312.581 584.256 313.255 584.399 313.827 584.562C314.439 584.725 314.909 584.868 315.236 584.99L314.194 589.882C313.582 589.556 312.621 589.23 311.314 588.904C310.007 588.537 308.434 588.354 306.595 588.354C305.002 588.354 303.613 588.68 302.428 589.332C301.243 589.944 300.651 590.922 300.651 592.267C300.651 592.961 300.774 593.572 301.019 594.102C301.305 594.632 301.713 595.121 302.244 595.57C302.816 595.977 303.511 596.365 304.328 596.732C305.145 597.099 306.126 597.486 307.269 597.894C308.781 598.464 310.129 599.035 311.314 599.606C312.499 600.136 313.5 600.768 314.317 601.502C315.175 602.236 315.829 603.132 316.278 604.193C316.727 605.212 316.952 606.476 316.952 607.984C316.952 610.919 315.849 613.141 313.643 614.65C311.478 616.158 308.373 616.913 304.328 616.913C301.509 616.913 299.303 616.668 297.709 616.179C296.116 615.73 295.033 615.384 294.461 615.139L295.503 610.247C296.157 610.491 297.199 610.858 298.629 611.348C300.059 611.837 301.958 612.081 304.328 612.081Z" fill="#27235C"/>
<path d="M329.594 584.379H341.667V589.149H329.594V603.826C329.594 605.416 329.716 606.741 329.962 607.801C330.207 608.82 330.574 609.635 331.065 610.247C331.555 610.818 332.168 611.225 332.903 611.47C333.639 611.714 334.497 611.837 335.477 611.837C337.193 611.837 338.562 611.653 339.583 611.286C340.645 610.879 341.381 610.593 341.789 610.43L342.892 615.139C342.32 615.425 341.319 615.771 339.889 616.179C338.459 616.627 336.825 616.851 334.987 616.851C332.821 616.851 331.024 616.586 329.594 616.056C328.205 615.486 327.081 614.65 326.223 613.549C325.365 612.448 324.753 611.103 324.385 609.513C324.058 607.882 323.895 606.007 323.895 603.887V575.511L329.594 574.533V584.379Z" fill="#27235C"/>
<path d="M354.618 616.179H348.919V584.379H354.618V616.179ZM351.738 578.63C350.717 578.63 349.838 578.304 349.103 577.652C348.408 576.958 348.061 576.041 348.061 574.9C348.061 573.758 348.408 572.861 349.103 572.209C349.838 571.516 350.717 571.169 351.738 571.169C352.759 571.169 353.617 571.516 354.312 572.209C355.047 572.861 355.415 573.758 355.415 574.9C355.415 576.041 355.047 576.958 354.312 577.652C353.617 578.304 352.759 578.63 351.738 578.63Z" fill="#27235C"/>
<path d="M364.419 585.296C365.726 584.97 367.463 584.623 369.628 584.256C371.793 583.889 374.286 583.706 377.104 583.706C379.637 583.706 381.742 584.073 383.417 584.807C385.092 585.5 386.419 586.499 387.4 587.803C388.421 589.067 389.136 590.596 389.545 592.39C389.953 594.184 390.158 596.161 390.158 598.322V616.179H384.458V599.545C384.458 597.588 384.315 595.916 384.029 594.53C383.784 593.144 383.355 592.023 382.742 591.167C382.13 590.31 381.313 589.699 380.291 589.332C379.27 588.924 378.003 588.72 376.492 588.72C375.879 588.72 375.246 588.741 374.592 588.782C373.938 588.822 373.305 588.884 372.692 588.965C372.12 589.006 371.589 589.067 371.099 589.149C370.649 589.23 370.323 589.291 370.118 589.332V616.179H364.419V585.296Z" fill="#27235C"/>
<path d="M419.587 612.999C419.096 613.325 418.136 613.753 416.706 614.283C415.317 614.772 413.683 615.017 411.804 615.017C409.883 615.017 408.065 614.711 406.35 614.1C404.675 613.488 403.204 612.55 401.937 611.286C400.671 609.982 399.67 608.371 398.934 606.455C398.199 604.539 397.831 602.256 397.831 599.606C397.831 597.282 398.179 595.162 398.873 593.246C399.568 591.289 400.569 589.617 401.876 588.231C403.224 586.804 404.858 585.704 406.779 584.929C408.699 584.114 410.864 583.706 413.274 583.706C415.93 583.706 418.238 583.91 420.199 584.317C422.201 584.684 423.876 585.031 425.225 585.357V613.733C425.225 618.625 423.958 622.172 421.425 624.373C418.892 626.575 415.052 627.676 409.904 627.676C407.902 627.676 406.002 627.513 404.205 627.187C402.448 626.86 400.916 626.473 399.609 626.025L400.65 621.071C401.794 621.52 403.183 621.907 404.818 622.233C406.493 622.6 408.229 622.783 410.026 622.783C413.417 622.783 415.848 622.111 417.319 620.765C418.831 619.42 419.587 617.28 419.587 614.344V612.999ZM419.525 589.393C418.953 589.23 418.177 589.087 417.197 588.965C416.257 588.802 414.97 588.72 413.336 588.72C410.272 588.72 407.902 589.719 406.227 591.717C404.593 593.715 403.776 596.365 403.776 599.667C403.776 601.502 404 603.071 404.45 604.376C404.94 605.681 405.573 606.761 406.35 607.617C407.167 608.473 408.086 609.105 409.107 609.513C410.169 609.921 411.252 610.124 412.355 610.124C413.867 610.124 415.256 609.921 416.522 609.513C417.789 609.064 418.79 608.555 419.525 607.984V589.393Z" fill="#27235C"/>
<path d="M441.043 609.207C441.084 609.533 441.104 609.859 441.104 610.186C441.104 610.471 441.104 610.777 441.104 611.103C441.104 613.671 440.716 616.199 439.94 618.686C439.205 621.214 438.183 623.619 436.876 625.902L432.463 624.496C433.485 622.416 434.159 620.296 434.486 618.136C434.813 616.016 434.976 614.018 434.976 612.143C434.976 611.613 434.956 611.103 434.915 610.614C434.915 610.124 434.894 609.656 434.853 609.207H441.043Z" fill="#27235C"/>
<path d="M462.954 594.958C462.954 591.33 463.485 588.129 464.547 585.357C465.65 582.585 467.121 580.281 468.959 578.447C470.839 576.571 473.004 575.165 475.455 574.227C477.948 573.289 480.583 572.82 483.361 572.82C486.098 572.82 488.672 573.289 491.082 574.227C493.534 575.165 495.679 576.571 497.517 578.447C499.356 580.281 500.806 582.585 501.868 585.357C502.971 588.129 503.523 591.33 503.523 594.958C503.523 598.587 502.971 601.787 501.868 604.559C500.806 607.332 499.356 609.656 497.517 611.531C495.679 613.366 493.534 614.752 491.082 615.69C488.672 616.627 486.098 617.096 483.361 617.096C480.583 617.096 477.948 616.627 475.455 615.69C473.004 614.752 470.839 613.366 468.959 611.531C467.121 609.656 465.65 607.332 464.547 604.559C463.485 601.787 462.954 598.587 462.954 594.958ZM469.205 594.958C469.205 597.527 469.531 599.871 470.185 601.991C470.839 604.07 471.758 605.844 472.943 607.311C474.168 608.779 475.639 609.921 477.355 610.736C479.112 611.511 481.073 611.898 483.238 611.898C485.404 611.898 487.344 611.511 489.06 610.736C490.776 609.921 492.226 608.779 493.411 607.311C494.637 605.844 495.576 604.07 496.23 601.991C496.884 599.871 497.211 597.527 497.211 594.958C497.211 592.39 496.884 590.066 496.23 587.987C495.576 585.867 494.637 584.073 493.411 582.605C492.226 581.137 490.776 580.016 489.06 579.242C487.344 578.426 485.404 578.018 483.238 578.018C481.073 578.018 479.112 578.426 477.355 579.242C475.639 580.016 474.168 581.137 472.943 582.605C471.758 584.073 470.839 585.867 470.185 587.987C469.531 590.066 469.205 592.39 469.205 594.958Z" fill="#27235C"/>
<path d="M537.37 615.261C536.063 615.588 534.326 615.934 532.161 616.301C530.037 616.668 527.565 616.851 524.746 616.851C522.295 616.851 520.232 616.505 518.557 615.812C516.881 615.078 515.533 614.059 514.512 612.754C513.491 611.449 512.755 609.921 512.306 608.168C511.856 606.374 511.632 604.396 511.632 602.236V584.379H517.331V601.012C517.331 604.886 517.944 607.658 519.169 609.329C520.395 611.001 522.458 611.837 525.359 611.837C525.972 611.837 526.605 611.816 527.259 611.776C527.912 611.735 528.525 611.694 529.097 611.653C529.669 611.572 530.18 611.511 530.629 611.47C531.119 611.388 531.467 611.307 531.671 611.225V584.379H537.37V615.261Z" fill="#27235C"/>
<path d="M558.955 583.706C559.445 583.706 559.997 583.747 560.61 583.828C561.263 583.869 561.897 583.95 562.509 584.073C563.122 584.154 563.674 584.256 564.164 584.379C564.695 584.46 565.083 584.542 565.328 584.623L564.348 589.577C563.898 589.414 563.143 589.23 562.08 589.026C561.059 588.782 559.731 588.659 558.097 588.659C557.035 588.659 555.973 588.782 554.91 589.026C553.889 589.23 553.215 589.373 552.888 589.454V616.179H547.189V585.724C548.537 585.235 550.212 584.786 552.214 584.379C554.216 583.93 556.463 583.706 558.955 583.706Z" fill="#27235C"/>
<path d="M606.154 598.444C606.808 599.259 607.625 600.34 608.605 601.685C609.626 602.99 610.668 604.458 611.731 606.088C612.793 607.678 613.835 609.35 614.856 611.103C615.918 612.856 616.817 614.548 617.552 616.179H611.056C610.239 614.63 609.34 613.06 608.36 611.47C607.42 609.88 606.46 608.371 605.48 606.944C604.499 605.477 603.519 604.111 602.538 602.847C601.598 601.583 600.741 600.482 599.964 599.545C599.433 599.586 598.882 599.606 598.31 599.606C597.779 599.606 597.227 599.606 596.655 599.606H591.323V616.179H585.379V574.41C587.054 574.003 588.913 573.738 590.956 573.615C593.039 573.452 594.939 573.371 596.655 573.371C602.62 573.371 607.155 574.492 610.26 576.734C613.406 578.977 614.978 582.32 614.978 586.764C614.978 589.577 614.223 591.982 612.711 593.98C611.24 595.977 609.055 597.466 606.154 598.444ZM597.145 578.569C594.612 578.569 592.672 578.63 591.323 578.752V594.714H595.552C597.595 594.714 599.433 594.612 601.067 594.408C602.702 594.204 604.07 593.817 605.173 593.246C606.317 592.675 607.196 591.88 607.808 590.861C608.421 589.801 608.728 588.415 608.728 586.702C608.728 585.112 608.421 583.787 607.808 582.727C607.196 581.667 606.358 580.832 605.296 580.22C604.275 579.608 603.049 579.18 601.619 578.936C600.23 578.691 598.739 578.569 597.145 578.569Z" fill="#27235C"/>
<path d="M621.775 600.34C621.775 597.527 622.184 595.081 623.001 593.001C623.818 590.881 624.9 589.128 626.249 587.742C627.597 586.356 629.149 585.316 630.906 584.623C632.663 583.93 634.461 583.584 636.299 583.584C640.589 583.584 643.878 584.929 646.165 587.62C648.453 590.27 649.597 594.326 649.597 599.789C649.597 600.034 649.597 600.36 649.597 600.768C649.597 601.135 649.577 601.481 649.536 601.807H627.719C627.965 605.11 628.925 607.617 630.6 609.329C632.275 611.042 634.89 611.898 638.444 611.898C640.446 611.898 642.121 611.735 643.469 611.409C644.858 611.042 645.9 610.695 646.594 610.369L647.391 615.139C646.697 615.506 645.471 615.893 643.714 616.301C641.998 616.709 640.037 616.913 637.831 616.913C635.053 616.913 632.642 616.505 630.6 615.69C628.598 614.833 626.943 613.671 625.636 612.204C624.328 610.736 623.348 609.003 622.694 607.006C622.081 604.967 621.775 602.745 621.775 600.34ZM643.653 597.221C643.694 594.652 643.04 592.553 641.692 590.922C640.384 589.25 638.566 588.415 636.238 588.415C634.93 588.415 633.766 588.68 632.745 589.21C631.764 589.699 630.927 590.351 630.232 591.167C629.538 591.982 628.986 592.92 628.577 593.98C628.21 595.04 627.965 596.12 627.842 597.221H643.653Z" fill="#27235C"/>
<path d="M665.199 612.081C667.528 612.081 669.244 611.776 670.347 611.164C671.491 610.553 672.063 609.574 672.063 608.229C672.063 606.843 671.511 605.742 670.408 604.926C669.305 604.111 667.487 603.194 664.954 602.174C663.729 601.685 662.544 601.196 661.4 600.707C660.297 600.177 659.337 599.565 658.52 598.872C657.702 598.179 657.049 597.343 656.559 596.365C656.068 595.386 655.823 594.184 655.823 592.757C655.823 589.944 656.865 587.722 658.949 586.091C661.032 584.419 663.872 583.584 667.467 583.584C668.366 583.584 669.264 583.645 670.163 583.767C671.062 583.849 671.9 583.971 672.676 584.134C673.452 584.256 674.126 584.399 674.698 584.562C675.311 584.725 675.781 584.868 676.108 584.99L675.066 589.882C674.453 589.556 673.493 589.23 672.186 588.904C670.878 588.537 669.305 588.354 667.467 588.354C665.873 588.354 664.484 588.68 663.3 589.332C662.115 589.944 661.522 590.922 661.522 592.267C661.522 592.961 661.645 593.572 661.89 594.102C662.176 594.632 662.585 595.121 663.116 595.57C663.688 595.977 664.382 596.365 665.199 596.732C666.016 597.099 666.997 597.486 668.141 597.894C669.653 598.464 671.001 599.035 672.186 599.606C673.37 600.136 674.371 600.768 675.188 601.502C676.046 602.236 676.7 603.132 677.149 604.193C677.599 605.212 677.824 606.476 677.824 607.984C677.824 610.919 676.72 613.141 674.514 614.65C672.349 616.158 669.244 616.913 665.199 616.913C662.38 616.913 660.174 616.668 658.581 616.179C656.987 615.73 655.905 615.384 655.333 615.139L656.375 610.247C657.028 610.491 658.07 610.858 659.5 611.348C660.93 611.837 662.83 612.081 665.199 612.081Z" fill="#27235C"/>
<path d="M707.257 600.34C707.257 596.63 706.337 593.776 704.499 591.778C702.661 589.78 700.209 588.782 697.145 588.782C695.429 588.782 694.081 588.843 693.101 588.965C692.161 589.087 691.405 589.23 690.833 589.393V609.452C691.528 610.023 692.529 610.573 693.836 611.103C695.143 611.633 696.573 611.898 698.126 611.898C699.76 611.898 701.149 611.613 702.293 611.042C703.478 610.43 704.438 609.615 705.173 608.596C705.909 607.536 706.44 606.313 706.766 604.926C707.093 603.499 707.257 601.971 707.257 600.34ZM713.201 600.34C713.201 602.745 712.874 604.967 712.221 607.006C711.608 609.044 710.688 610.797 709.463 612.265C708.237 613.733 706.726 614.874 704.928 615.69C703.171 616.505 701.149 616.913 698.861 616.913C697.023 616.913 695.388 616.668 693.958 616.179C692.569 615.69 691.528 615.221 690.833 614.772V627.492H685.134V585.357C686.482 585.031 688.157 584.684 690.159 584.317C692.202 583.91 694.551 583.706 697.206 583.706C699.658 583.706 701.864 584.093 703.825 584.868C705.786 585.642 707.461 586.743 708.85 588.17C710.239 589.597 711.301 591.35 712.037 593.429C712.813 595.468 713.201 597.771 713.201 600.34Z" fill="#27235C"/>
<path d="M749.35 600.279C749.35 602.806 748.982 605.089 748.246 607.128C747.511 609.166 746.469 610.919 745.121 612.387C743.814 613.855 742.241 614.996 740.402 615.812C738.564 616.586 736.562 616.974 734.397 616.974C732.231 616.974 730.229 616.586 728.391 615.812C726.553 614.996 724.959 613.855 723.611 612.387C722.304 610.919 721.282 609.166 720.547 607.128C719.811 605.089 719.444 602.806 719.444 600.279C719.444 597.792 719.811 595.529 720.547 593.491C721.282 591.411 722.304 589.638 723.611 588.17C724.959 586.702 726.553 585.581 728.391 584.807C730.229 583.991 732.231 583.584 734.397 583.584C736.562 583.584 738.564 583.991 740.402 584.807C742.241 585.581 743.814 586.702 745.121 588.17C746.469 589.638 747.511 591.411 748.246 593.491C748.982 595.529 749.35 597.792 749.35 600.279ZM743.405 600.279C743.405 596.691 742.588 593.857 740.954 591.778C739.36 589.658 737.175 588.598 734.397 588.598C731.619 588.598 729.412 589.658 727.778 591.778C726.185 593.857 725.388 596.691 725.388 600.279C725.388 603.866 726.185 606.72 727.778 608.84C729.412 610.919 731.619 611.959 734.397 611.959C737.175 611.959 739.36 610.919 740.954 608.84C742.588 606.72 743.405 603.866 743.405 600.279Z" fill="#27235C"/>
<path d="M757.368 585.296C758.675 584.97 760.412 584.623 762.577 584.256C764.742 583.889 767.234 583.706 770.053 583.706C772.586 583.706 774.69 584.073 776.365 584.807C778.041 585.5 779.368 586.499 780.349 587.803C781.37 589.067 782.085 590.596 782.494 592.39C782.902 594.184 783.107 596.161 783.107 598.322V616.179H777.407V599.545C777.407 597.588 777.264 595.916 776.978 594.53C776.733 593.144 776.304 592.023 775.691 591.167C775.079 590.31 774.261 589.699 773.24 589.332C772.219 588.924 770.952 588.72 769.441 588.72C768.828 588.72 768.194 588.741 767.541 588.782C766.887 588.822 766.254 588.884 765.641 588.965C765.069 589.006 764.538 589.067 764.048 589.149C763.598 589.23 763.271 589.291 763.067 589.332V616.179H757.368V585.296Z" fill="#27235C"/>
<path d="M799.973 612.081C802.301 612.081 804.017 611.776 805.12 611.164C806.264 610.553 806.836 609.574 806.836 608.229C806.836 606.843 806.285 605.742 805.182 604.926C804.078 604.111 802.26 603.194 799.727 602.174C798.502 601.685 797.317 601.196 796.173 600.707C795.07 600.177 794.11 599.565 793.293 598.872C792.476 598.179 791.822 597.343 791.332 596.365C790.841 595.386 790.596 594.184 790.596 592.757C790.596 589.944 791.638 587.722 793.722 586.091C795.805 584.419 798.645 583.584 802.24 583.584C803.139 583.584 804.038 583.645 804.936 583.767C805.835 583.849 806.673 583.971 807.449 584.134C808.225 584.256 808.899 584.399 809.471 584.562C810.084 584.725 810.554 584.868 810.881 584.99L809.839 589.882C809.226 589.556 808.266 589.23 806.959 588.904C805.651 588.537 804.078 588.354 802.24 588.354C800.647 588.354 799.258 588.68 798.073 589.332C796.888 589.944 796.296 590.922 796.296 592.267C796.296 592.961 796.418 593.572 796.663 594.102C796.949 594.632 797.358 595.121 797.889 595.57C798.461 595.977 799.155 596.365 799.973 596.732C800.79 597.099 801.77 597.486 802.914 597.894C804.426 598.464 805.774 599.035 806.959 599.606C808.144 600.136 809.144 600.768 809.962 601.502C810.82 602.236 811.473 603.132 811.923 604.193C812.372 605.212 812.597 606.476 812.597 607.984C812.597 610.919 811.494 613.141 809.287 614.65C807.122 616.158 804.017 616.913 799.973 616.913C797.154 616.913 794.947 616.668 793.354 616.179C791.761 615.73 790.678 615.384 790.106 615.139L791.148 610.247C791.802 610.491 792.843 610.858 794.273 611.348C795.703 611.837 797.603 612.081 799.973 612.081Z" fill="#27235C"/>
<path d="M825.606 616.179H819.907V584.379H825.606V616.179ZM822.726 578.63C821.705 578.63 820.826 578.304 820.091 577.652C819.396 576.958 819.049 576.041 819.049 574.9C819.049 573.758 819.396 572.861 820.091 572.209C820.826 571.516 821.705 571.169 822.726 571.169C823.747 571.169 824.605 571.516 825.3 572.209C826.035 572.861 826.403 573.758 826.403 574.9C826.403 576.041 826.035 576.958 825.3 577.652C824.605 578.304 823.747 578.63 822.726 578.63Z" fill="#27235C"/>
<path d="M841.106 585.785C841.801 585.337 842.843 584.868 844.232 584.379C845.662 583.889 847.296 583.645 849.134 583.645C851.422 583.645 853.445 584.052 855.201 584.868C856.999 585.683 858.511 586.825 859.736 588.292C860.962 589.76 861.881 591.513 862.494 593.552C863.148 595.59 863.474 597.832 863.474 600.279C863.474 602.847 863.086 605.171 862.31 607.25C861.575 609.289 860.512 611.021 859.123 612.448C857.734 613.875 856.059 614.976 854.098 615.751C852.137 616.525 849.931 616.913 847.48 616.913C844.824 616.913 842.475 616.729 840.432 616.362C838.389 615.995 836.714 615.628 835.407 615.261V569.701L841.106 568.723V585.785ZM841.106 611.225C841.678 611.388 842.475 611.551 843.496 611.714C844.559 611.837 845.866 611.898 847.418 611.898C850.483 611.898 852.934 610.899 854.772 608.901C856.611 606.863 857.53 603.989 857.53 600.279C857.53 598.648 857.367 597.119 857.04 595.692C856.713 594.265 856.182 593.042 855.446 592.023C854.711 590.963 853.751 590.147 852.566 589.577C851.422 588.965 850.033 588.659 848.399 588.659C846.846 588.659 845.417 588.924 844.109 589.454C842.802 589.984 841.801 590.535 841.106 591.105V611.225Z" fill="#27235C"/>
<path d="M877.194 616.179H871.494V584.379H877.194V616.179ZM874.313 578.63C873.292 578.63 872.413 578.304 871.678 577.652C870.984 576.958 870.636 576.041 870.636 574.9C870.636 573.758 870.984 572.861 871.678 572.209C872.413 571.516 873.292 571.169 874.313 571.169C875.335 571.169 876.193 571.516 876.887 572.209C877.622 572.861 877.99 573.758 877.99 574.9C877.99 576.041 877.622 576.958 876.887 577.652C876.193 578.304 875.335 578.63 874.313 578.63Z" fill="#27235C"/>
<path d="M896.554 616.79C893.041 616.709 890.549 615.955 889.078 614.528C887.607 613.101 886.872 610.879 886.872 607.862V569.701L892.571 568.723V606.944C892.571 607.882 892.653 608.657 892.816 609.268C892.98 609.88 893.245 610.369 893.613 610.736C893.981 611.103 894.471 611.388 895.084 611.592C895.696 611.755 896.452 611.898 897.351 612.02L896.554 616.79Z" fill="#27235C"/>
<path d="M909.451 616.179H903.751V584.379H909.451V616.179ZM906.57 578.63C905.549 578.63 904.67 578.304 903.935 577.652C903.241 576.958 902.893 576.041 902.893 574.9C902.893 573.758 903.241 572.861 903.935 572.209C904.67 571.516 905.549 571.169 906.57 571.169C907.592 571.169 908.45 571.516 909.144 572.209C909.879 572.861 910.247 573.758 910.247 574.9C910.247 576.041 909.879 576.958 909.144 577.652C908.45 578.304 907.592 578.63 906.57 578.63Z" fill="#27235C"/>
<path d="M924.583 584.379H936.656V589.149H924.583V603.826C924.583 605.416 924.705 606.741 924.951 607.801C925.196 608.82 925.563 609.635 926.054 610.247C926.544 610.818 927.157 611.225 927.892 611.47C928.628 611.714 929.486 611.837 930.466 611.837C932.182 611.837 933.55 611.653 934.572 611.286C935.634 610.879 936.369 610.593 936.778 610.43L937.881 615.139C937.309 615.425 936.308 615.771 934.878 616.179C933.448 616.627 931.814 616.851 929.976 616.851C927.811 616.851 926.013 616.586 924.583 616.056C923.194 615.486 922.07 614.65 921.212 613.549C920.355 612.448 919.742 611.103 919.374 609.513C919.047 607.882 918.884 606.007 918.884 603.887V575.511L924.583 574.533V584.379Z" fill="#27235C"/>
<path d="M940.17 622.111C940.619 622.315 941.191 622.498 941.886 622.661C942.621 622.865 943.336 622.967 944.031 622.967C946.278 622.967 948.034 622.457 949.301 621.438C950.567 620.46 951.711 618.849 952.733 616.607C950.159 611.714 947.748 606.537 945.501 601.074C943.295 595.57 941.457 590.005 939.986 584.379H946.114C946.563 586.213 947.095 588.19 947.707 590.31C948.361 592.43 949.076 594.612 949.852 596.854C950.629 599.096 951.466 601.339 952.365 603.581C953.264 605.823 954.203 607.984 955.184 610.063C956.736 605.783 958.085 601.542 959.229 597.343C960.372 593.144 961.455 588.822 962.476 584.379H968.36C966.889 590.372 965.255 596.141 963.457 601.685C961.659 607.189 959.719 612.346 957.635 617.157C956.818 618.992 955.96 620.561 955.061 621.866C954.203 623.211 953.243 624.312 952.181 625.168C951.119 626.025 949.914 626.657 948.565 627.064C947.258 627.472 945.767 627.676 944.092 627.676C943.642 627.676 943.173 627.635 942.682 627.553C942.192 627.513 941.702 627.431 941.211 627.309C940.762 627.227 940.333 627.125 939.925 627.003C939.557 626.881 939.291 626.779 939.128 626.697L940.17 622.111Z" fill="#27235C"/>
<path d="M979.44 612.876C979.44 613.977 979.072 614.935 978.337 615.751C977.601 616.566 976.6 616.974 975.334 616.974C974.067 616.974 973.066 616.566 972.331 615.751C971.596 614.935 971.228 613.977 971.228 612.876C971.228 611.776 971.596 610.818 972.331 610.002C973.066 609.187 974.067 608.779 975.334 608.779C976.6 608.779 977.601 609.187 978.337 610.002C979.072 610.818 979.44 611.776 979.44 612.876Z" fill="#27235C"/>
<path d="M929.973 527.205C922.966 527.205 916.675 525.847 911.098 523.13C905.665 520.27 901.018 516.41 897.157 511.548C893.439 506.686 890.579 501.11 888.577 494.818C886.719 488.384 885.789 481.52 885.789 474.228C885.932 466.935 887.005 460.143 889.006 453.852C891.008 447.417 893.868 441.841 897.586 437.122C901.447 432.26 906.094 428.471 911.527 425.754C916.961 423.037 923.109 421.679 929.973 421.679C936.55 421.679 942.699 423.037 948.419 425.754C954.281 428.471 959.429 432.26 963.861 437.122C968.437 441.841 972.012 447.417 974.586 453.852C977.159 460.143 978.446 466.864 978.446 474.013C978.446 481.449 977.159 488.455 974.586 495.033C972.012 501.467 968.509 507.115 964.076 511.977C959.643 516.696 954.496 520.413 948.633 523.13C942.771 525.847 936.55 527.205 929.973 527.205ZM926.541 502.111C931.546 502.111 936.05 500.967 940.054 498.679C944.057 496.248 947.203 492.959 949.491 488.813C951.922 484.666 953.137 479.947 953.137 474.657C953.137 469.223 951.922 464.433 949.491 460.286C947.203 455.997 944.057 452.708 940.054 450.42C936.05 447.989 931.546 446.774 926.541 446.774C921.68 446.774 917.247 447.989 913.243 450.42C909.239 452.851 906.022 456.139 903.591 460.286C901.304 464.433 900.16 469.223 900.16 474.657C900.16 479.947 901.304 484.666 903.591 488.813C906.022 492.959 909.239 496.248 913.243 498.679C917.247 500.967 921.68 502.111 926.541 502.111ZM886.862 527.42C883.001 527.42 880.141 526.776 878.282 525.49C876.423 524.346 875.279 522.844 874.85 520.985C874.422 518.984 874.207 516.767 874.207 514.336V386.503C874.207 384.073 874.422 381.928 874.85 380.069C875.279 378.067 876.423 376.494 878.282 375.35C880.141 374.206 883.001 373.634 886.862 373.634C890.865 373.634 893.725 374.206 895.441 375.35C897.157 376.494 898.229 378.067 898.658 380.069C899.087 382.071 899.302 384.216 899.302 386.503V518.626C898.73 521.772 897.514 523.988 895.655 525.275C893.94 526.705 891.008 527.42 886.862 527.42Z" fill="#27235C" stroke="#27235C" stroke-width="0.2"/>
<path d="M810.278 528.71C800.983 528.71 792.833 527.209 785.826 524.206C778.963 521.203 773.172 517.128 768.453 511.98C763.878 506.689 760.374 500.827 757.943 494.392C755.656 487.815 754.512 481.023 754.512 474.016C754.512 463.721 756.871 454.57 761.59 446.562C766.308 438.555 772.814 432.263 781.108 427.688C789.544 423.112 799.196 420.824 810.063 420.824C817.785 420.824 824.577 422.039 830.439 424.47C836.302 426.901 841.163 430.118 845.024 434.122C849.028 437.983 852.031 442.273 854.032 446.991C856.177 451.71 857.25 456.286 857.25 460.718C857.25 468.297 855.391 473.802 851.673 477.234C848.098 480.665 843.594 482.381 838.161 482.381H781.537C781.68 487.243 783.181 491.461 786.041 495.036C789.044 498.611 792.761 501.399 797.194 503.401C801.77 505.26 806.417 506.189 811.136 506.189C814.71 506.189 817.856 505.975 820.573 505.546C823.433 505.117 825.864 504.616 827.865 504.044C829.867 503.329 831.583 502.614 833.013 501.899C834.586 501.184 836.016 500.541 837.303 499.969C838.59 499.397 839.805 499.04 840.949 498.897C842.522 498.754 844.095 499.111 845.668 499.969C847.24 500.827 848.527 502.328 849.528 504.473C850.386 505.903 850.958 507.261 851.244 508.548C851.673 509.692 851.888 510.836 851.888 511.98C851.888 514.84 850.172 517.557 846.74 520.131C843.308 522.561 838.447 524.563 832.155 526.136C826.006 527.852 818.714 528.71 810.278 528.71ZM781.537 467.153H825.506C827.937 467.153 829.796 466.795 831.083 466.08C832.37 465.222 833.013 463.507 833.013 460.933C833.013 457.644 832.012 454.713 830.01 452.139C828.008 449.422 825.292 447.349 821.86 445.919C818.428 444.346 814.424 443.559 809.849 443.559C804.558 443.559 799.768 444.632 795.478 446.777C791.189 448.779 787.757 451.567 785.183 455.142C782.752 458.716 781.537 462.72 781.537 467.153Z" fill="#27235C" stroke="#27235C" stroke-width="0.2"/>
<path d="M618.401 526.784C615.541 526.784 613.254 526.284 611.538 525.283C609.822 524.139 608.535 522.852 607.677 521.422C606.962 519.992 606.462 518.777 606.176 517.776L564.137 394.662C562.707 390.086 562.492 386.654 563.493 384.367C564.494 381.936 567.425 379.934 572.287 378.361C575.576 377.217 578.221 376.717 580.223 376.86C582.225 377.003 583.869 377.861 585.156 379.433C586.586 380.863 587.801 383.151 588.802 386.297L619.688 479.812L647.357 387.155C647.786 385.725 648.357 384.295 649.072 382.865C649.93 381.292 651.217 380.005 652.933 379.004C654.649 378.004 657.008 377.503 660.011 377.503C663.443 377.503 666.017 378.075 667.733 379.219C669.448 380.363 670.664 381.65 671.379 383.08C672.237 384.367 672.809 385.582 673.095 386.726L700.763 480.456L731.863 386.511C732.864 383.223 734.008 380.792 735.295 379.219C736.725 377.646 738.512 376.788 740.657 376.645C742.802 376.359 745.447 376.788 748.593 377.932C751.882 379.076 754.241 380.363 755.671 381.793C757.101 383.08 757.816 384.796 757.816 386.94C757.816 388.942 757.315 391.516 756.315 394.662L714.49 517.991C714.204 518.848 713.632 519.992 712.774 521.422C712.059 522.852 710.844 524.139 709.128 525.283C707.412 526.284 705.053 526.784 702.05 526.784C699.047 526.784 696.688 526.141 694.972 524.854C693.256 523.567 691.969 522.137 691.111 520.564C690.253 518.991 689.681 517.848 689.395 517.133L660.226 422.759L631.056 516.918C630.77 517.919 630.198 519.206 629.34 520.779C628.625 522.352 627.41 523.782 625.694 525.069C623.978 526.212 621.547 526.784 618.401 526.784Z" fill="#27235C" stroke="#27235C" stroke-width="0.2"/>
<path d="M506.863 528.712C503.145 528.712 499.213 528.283 495.066 527.425C490.92 526.71 486.916 525.637 483.055 524.208C479.195 522.635 475.834 520.847 472.975 518.845C470.258 516.701 468.542 514.341 467.827 511.767C467.255 510.337 467.041 508.979 467.184 507.692C467.327 506.262 467.755 504.832 468.47 503.402C469.185 501.83 470.258 500.257 471.688 498.684C472.975 497.111 474.262 496.253 475.548 496.11C476.978 495.824 478.766 496.253 480.911 497.397C482.769 498.112 484.771 499.041 486.916 500.185C489.204 501.329 491.492 502.473 493.78 503.617C496.21 504.761 498.641 505.69 501.072 506.405C503.646 507.12 506.148 507.478 508.579 507.478C513.87 507.478 518.088 506.62 521.234 504.904C524.379 503.045 525.952 500.471 525.952 497.182C525.952 495.324 525.452 493.679 524.451 492.249C523.45 490.819 522.091 489.675 520.376 488.818C518.803 487.817 516.872 486.959 514.585 486.244C512.44 485.386 510.08 484.671 507.507 484.099C505.076 483.384 502.502 482.597 499.785 481.74C496.21 480.739 492.636 479.523 489.061 478.093C485.486 476.663 482.269 474.805 479.409 472.517C476.692 470.229 474.476 467.369 472.76 463.937C471.044 460.506 470.186 456.216 470.186 451.068C470.186 444.634 471.688 439.2 474.69 434.767C477.836 430.192 482.34 426.688 488.203 424.258C494.066 421.827 501.144 420.611 509.437 420.611C512.297 420.611 515.014 420.826 517.587 421.255C520.304 421.684 522.878 422.327 525.309 423.185C527.883 423.9 530.313 424.83 532.601 425.974C535.032 427.117 537.32 428.404 539.465 429.834C543.039 431.836 544.898 434.195 545.041 436.912C545.184 439.486 544.183 442.274 542.039 445.277C540.466 447.279 538.893 448.709 537.32 449.567C535.747 450.282 534.103 450.282 532.387 449.567C530.099 448.423 527.597 447.208 524.88 445.921C522.306 444.491 519.589 443.275 516.729 442.274C514.013 441.273 511.153 440.773 508.15 440.773C505.29 440.773 502.716 441.202 500.429 442.06C498.141 442.918 496.425 444.133 495.281 445.706C494.137 447.279 493.565 449.138 493.565 451.283C493.565 453.285 494.137 454.929 495.281 456.216C496.425 457.503 497.926 458.575 499.785 459.433C501.644 460.291 503.86 461.078 506.434 461.792C509.008 462.364 511.725 462.936 514.585 463.508C518.588 464.366 522.663 465.439 526.81 466.726C530.957 468.013 534.746 469.8 538.178 472.088C541.753 474.376 544.612 477.45 546.757 481.311C548.902 485.028 549.974 489.89 549.974 495.896C549.974 506.334 546.114 514.413 538.392 520.132C530.814 525.852 520.304 528.712 506.863 528.712Z" fill="#27235C" stroke="#27235C" stroke-width="0.2"/>
<path d="M405.616 528.708C396.321 528.708 388.171 527.207 381.164 524.204C374.301 521.201 368.51 517.126 363.791 511.979C359.215 506.688 355.712 500.825 353.281 494.391C350.994 487.813 349.85 481.021 349.85 474.015C349.85 463.72 352.209 454.568 356.928 446.561C361.646 438.553 368.152 432.262 376.446 427.686C384.882 423.11 394.534 420.823 405.401 420.823C413.122 420.823 419.914 422.038 425.777 424.469C431.64 426.9 436.501 430.117 440.362 434.121C444.366 437.981 447.368 442.271 449.37 446.99C451.515 451.708 452.588 456.284 452.588 460.717C452.588 468.295 450.729 473.8 447.011 477.232C443.436 480.664 438.932 482.38 433.498 482.38H376.875C377.018 487.241 378.519 491.46 381.379 495.034C384.382 498.609 388.099 501.397 392.532 503.399C397.108 505.258 401.755 506.187 406.473 506.187C410.048 506.187 413.194 505.973 415.911 505.544C418.771 505.115 421.201 504.615 423.203 504.043C425.205 503.328 426.921 502.613 428.351 501.898C429.924 501.183 431.354 500.539 432.641 499.967C433.927 499.395 435.143 499.038 436.287 498.895C437.86 498.752 439.433 499.109 441.005 499.967C442.578 500.825 443.865 502.327 444.866 504.472C445.724 505.902 446.296 507.26 446.582 508.547C447.011 509.691 447.225 510.835 447.225 511.979C447.225 514.838 445.51 517.555 442.078 520.129C438.646 522.56 433.784 524.562 427.493 526.135C421.344 527.85 414.052 528.708 405.616 528.708ZM376.875 467.151H420.844C423.275 467.151 425.134 466.794 426.42 466.079C427.707 465.221 428.351 463.505 428.351 460.931C428.351 457.642 427.35 454.711 425.348 452.137C423.346 449.421 420.629 447.347 417.198 445.917C413.766 444.344 409.762 443.558 405.187 443.558C399.896 443.558 395.106 444.63 390.816 446.775C386.526 448.777 383.095 451.565 380.521 455.14C378.09 458.715 376.875 462.719 376.875 467.151Z" fill="#27235C" stroke="#27235C" stroke-width="0.2"/>
<path d="M329.051 527.429C323.76 527.429 319.041 527.072 314.895 526.357C310.891 525.642 307.388 524.426 304.385 522.71C301.525 520.994 299.166 518.707 297.307 515.847C295.448 512.844 294.018 509.198 293.017 504.908C292.159 500.618 291.73 495.471 291.73 489.465V386.084C291.73 383.653 291.945 381.508 292.374 379.649C292.946 377.647 294.09 376.074 295.806 374.93C297.665 373.643 300.596 373 304.6 373C308.603 373 311.463 373.572 313.179 374.716C315.038 375.86 316.182 377.433 316.611 379.435C317.183 381.293 317.469 383.438 317.469 385.869V488.393C317.469 491.11 317.612 493.397 317.898 495.256C318.326 496.972 318.97 498.402 319.828 499.546C320.829 500.547 322.044 501.262 323.474 501.691C325.047 502.12 326.906 502.334 329.051 502.334C330.91 502.334 332.554 502.549 333.984 502.978C335.557 503.407 336.772 504.479 337.63 506.195C338.631 507.911 339.131 510.699 339.131 514.56C339.131 518.564 338.631 521.495 337.63 523.354C336.772 525.213 335.557 526.357 333.984 526.786C332.411 527.214 330.767 527.429 329.051 527.429Z" fill="#27235C" stroke="#27235C" stroke-width="0.2"/>
<path d="M255.802 527.426C251.941 527.426 249.081 526.783 247.222 525.496C245.363 524.352 244.219 522.85 243.79 520.992C243.361 518.99 243.147 516.773 243.147 514.343V434.554C243.147 432.266 243.361 430.193 243.79 428.334C244.362 426.332 245.506 424.759 247.222 423.616C249.081 422.472 252.012 421.9 256.016 421.9C260.02 421.9 262.88 422.472 264.595 423.616C266.454 424.759 267.598 426.332 268.027 428.334C268.456 430.336 268.671 432.552 268.671 434.983V514.557C268.671 516.988 268.456 519.204 268.027 521.206C267.598 523.065 266.454 524.566 264.595 525.71C262.88 526.854 259.948 527.426 255.802 527.426ZM255.802 401.095C251.655 401.095 248.581 400.523 246.579 399.379C244.72 398.092 243.504 396.376 242.933 394.231C242.504 392.086 242.289 389.727 242.289 387.153C242.289 384.436 242.504 382.077 242.933 380.075C243.504 378.073 244.791 376.5 246.793 375.356C248.795 374.07 251.869 373.426 256.016 373.426C260.306 373.426 263.38 374.07 265.239 375.356C267.098 376.643 268.313 378.359 268.885 380.504C269.457 382.506 269.743 384.865 269.743 387.582C269.743 390.013 269.457 392.301 268.885 394.446C268.313 396.59 267.098 398.235 265.239 399.379C263.38 400.523 260.234 401.095 255.802 401.095Z" fill="#27235C" stroke="#27235C" stroke-width="0.2"/>
<path d="M79.6546 527.21C75.9368 527.21 73.1485 526.638 71.2897 525.494C69.4308 524.35 68.2154 522.777 67.6435 520.775C67.2145 518.773 67 516.557 67 514.126V390.368C67 388.081 67.2145 386.007 67.6435 384.148C68.2154 382.147 69.4308 380.574 71.2897 379.43C73.1485 378.143 76.0798 377.499 80.0835 377.499C83.0863 377.499 85.3027 377.714 86.7326 378.143C88.3054 378.429 89.5208 378.929 90.3788 379.644C91.2367 380.216 92.0947 381.003 92.9526 382.004L145.287 455.143H140.354L192.902 381.789C193.903 380.645 194.904 379.787 195.905 379.215C196.906 378.643 198.193 378.214 199.766 377.928C201.339 377.642 203.412 377.499 205.986 377.499C209.847 377.499 212.706 378.143 214.565 379.43C216.424 380.574 217.568 382.147 217.997 384.148C218.569 386.15 218.855 388.367 218.855 390.797V514.555C218.855 516.7 218.569 518.773 217.997 520.775C217.568 522.777 216.424 524.35 214.565 525.494C212.706 526.638 209.775 527.21 205.771 527.21C201.911 527.21 199.051 526.566 197.192 525.279C195.333 524.135 194.118 522.562 193.546 520.561C193.117 518.559 192.902 516.414 192.902 514.126V422.112L153.866 478.522C153.437 479.094 152.794 479.88 151.936 480.881C151.078 481.739 149.934 482.525 148.504 483.24C147.074 483.955 145.144 484.313 142.713 484.313C140.425 484.313 138.566 483.955 137.136 483.24C135.706 482.525 134.563 481.739 133.705 480.881C132.99 480.023 132.275 479.165 131.56 478.307L92.7381 422.112V514.555C92.7381 516.7 92.4521 518.773 91.8802 520.775C91.4512 522.777 90.3073 524.35 88.4484 525.494C86.5896 526.638 83.6583 527.21 79.6546 527.21Z" fill="#27235C" stroke="#27235C" stroke-width="0.2"/>
</svg>
