<svg width="800" height="800" viewBox="0 0 800 800" fill="none" xmlns="http://www.w3.org/2000/svg">
<path d="M364.365 518.222C364.365 515.461 366.604 513.222 369.365 513.222H770.162C772.924 513.222 775.162 515.461 775.162 518.222V519.794C775.162 522.556 772.924 524.794 770.162 524.794H369.365C366.604 524.794 364.365 522.556 364.365 519.794V518.222Z" fill="#FFBB00"/>
<path d="M39.0324 476.342V462.336C36.71 458.742 34.5222 455.198 32.4691 451.705C30.416 448.212 28.4806 444.786 26.6631 441.427H32.4186C33.6976 444.182 35.1281 446.986 36.71 449.841C38.2919 452.662 39.9243 455.383 41.6072 458.003C43.2565 455.383 44.8721 452.662 46.454 449.841C48.0359 446.986 49.4832 444.182 50.7959 441.427H56.2485C54.4309 444.786 52.4956 448.212 50.4425 451.705C48.3893 455.165 46.2184 458.675 43.9296 462.235V476.342H39.0324Z" fill="#27235C"/>
<path d="M81.2813 463.243C81.2813 465.325 80.9784 467.206 80.3726 468.885C79.7667 470.565 78.9085 472.009 77.7977 473.218C76.7207 474.427 75.4248 475.368 73.9102 476.04C72.3956 476.678 70.7464 476.997 68.9625 476.997C67.1786 476.997 65.5294 476.678 64.0148 476.04C62.5002 475.368 61.1875 474.427 60.0768 473.218C58.9997 472.009 58.1583 470.565 57.5525 468.885C56.9466 467.206 56.6437 465.325 56.6437 463.243C56.6437 461.194 56.9466 459.33 57.5525 457.65C58.1583 455.937 58.9997 454.476 60.0768 453.267C61.1875 452.058 62.5002 451.134 64.0148 450.496C65.5294 449.824 67.1786 449.488 68.9625 449.488C70.7464 449.488 72.3956 449.824 73.9102 450.496C75.4248 451.134 76.7207 452.058 77.7977 453.267C78.9085 454.476 79.7667 455.937 80.3726 457.65C80.9784 459.33 81.2813 461.194 81.2813 463.243ZM76.3841 463.243C76.3841 460.287 75.7109 457.953 74.3646 456.24C73.052 454.493 71.2513 453.62 68.9625 453.62C66.6738 453.62 64.8562 454.493 63.5099 456.24C62.1973 457.953 61.5409 460.287 61.5409 463.243C61.5409 466.198 62.1973 468.549 63.5099 470.296C64.8562 472.009 66.6738 472.866 68.9625 472.866C71.2513 472.866 73.052 472.009 74.3646 470.296C75.7109 468.549 76.3841 466.198 76.3841 463.243Z" fill="#27235C"/>
<path d="M108.789 475.586C107.712 475.855 106.281 476.14 104.497 476.443C102.747 476.745 100.711 476.896 98.3885 476.896C96.3691 476.896 94.6693 476.611 93.2894 476.04C91.9094 475.435 90.7987 474.595 89.9572 473.52C89.1158 472.446 88.5099 471.186 88.1397 469.742C87.7694 468.264 87.5843 466.635 87.5843 464.855V450.143H92.2796V463.847C92.2796 467.038 92.7845 469.322 93.7942 470.699C94.804 472.076 96.5037 472.765 98.8934 472.765C99.3983 472.765 99.92 472.748 100.459 472.714C100.997 472.681 101.502 472.647 101.973 472.614C102.444 472.546 102.865 472.496 103.235 472.462C103.639 472.395 103.925 472.328 104.094 472.261V450.143H108.789V475.586Z" fill="#27235C"/>
<path d="M126.571 449.589C126.975 449.589 127.43 449.623 127.934 449.69C128.473 449.724 128.995 449.791 129.5 449.891C130.004 449.959 130.459 450.043 130.863 450.143C131.3 450.211 131.62 450.278 131.822 450.345L131.014 454.426C130.644 454.291 130.021 454.14 129.146 453.972C128.305 453.771 127.211 453.67 125.865 453.67C124.989 453.67 124.114 453.771 123.239 453.972C122.398 454.14 121.842 454.258 121.573 454.325V476.342H116.878V451.252C117.989 450.849 119.369 450.479 121.018 450.143C122.667 449.774 124.518 449.589 126.571 449.589Z" fill="#27235C"/>
<path d="M170.353 441.427H175.25V476.342H170.353V460.22H153.238V476.342H148.341V441.427H153.238V455.988H170.353V441.427Z" fill="#27235C"/>
<path d="M206.809 463.243C206.809 465.325 206.506 467.206 205.9 468.885C205.294 470.565 204.436 472.009 203.325 473.218C202.248 474.427 200.952 475.368 199.437 476.04C197.923 476.678 196.274 476.997 194.49 476.997C192.706 476.997 191.057 476.678 189.542 476.04C188.027 475.368 186.715 474.427 185.604 473.218C184.527 472.009 183.686 470.565 183.08 468.885C182.474 467.206 182.171 465.325 182.171 463.243C182.171 461.194 182.474 459.33 183.08 457.65C183.686 455.937 184.527 454.476 185.604 453.267C186.715 452.058 188.027 451.134 189.542 450.496C191.057 449.824 192.706 449.488 194.49 449.488C196.274 449.488 197.923 449.824 199.437 450.496C200.952 451.134 202.248 452.058 203.325 453.267C204.436 454.476 205.294 455.937 205.9 457.65C206.506 459.33 206.809 461.194 206.809 463.243ZM201.911 463.243C201.911 460.287 201.238 457.953 199.892 456.24C198.579 454.493 196.778 453.62 194.49 453.62C192.201 453.62 190.383 454.493 189.037 456.24C187.724 457.953 187.068 460.287 187.068 463.243C187.068 466.198 187.724 468.549 189.037 470.296C190.383 472.009 192.201 472.866 194.49 472.866C196.778 472.866 198.579 472.009 199.892 470.296C201.238 468.549 201.911 466.198 201.911 463.243Z" fill="#27235C"/>
<path d="M219.523 472.966C221.442 472.966 222.856 472.714 223.764 472.211C224.707 471.707 225.178 470.901 225.178 469.792C225.178 468.65 224.724 467.743 223.815 467.072C222.906 466.4 221.408 465.644 219.321 464.804C218.312 464.401 217.336 463.998 216.393 463.595C215.484 463.159 214.694 462.655 214.02 462.084C213.347 461.513 212.809 460.824 212.405 460.018C212.001 459.212 211.799 458.221 211.799 457.046C211.799 454.728 212.657 452.898 214.374 451.554C216.09 450.177 218.43 449.488 221.391 449.488C222.132 449.488 222.872 449.539 223.613 449.64C224.353 449.707 225.043 449.807 225.683 449.942C226.322 450.043 226.878 450.16 227.349 450.295C227.854 450.429 228.241 450.546 228.51 450.647L227.652 454.678C227.147 454.409 226.356 454.14 225.279 453.872C224.202 453.569 222.906 453.418 221.391 453.418C220.079 453.418 218.934 453.687 217.958 454.224C216.982 454.728 216.494 455.534 216.494 456.643C216.494 457.214 216.595 457.717 216.797 458.154C217.033 458.591 217.369 458.994 217.807 459.363C218.278 459.699 218.85 460.018 219.523 460.32C220.197 460.623 221.004 460.942 221.947 461.278C223.192 461.748 224.303 462.218 225.279 462.688C226.255 463.125 227.08 463.646 227.753 464.25C228.46 464.855 228.998 465.594 229.368 466.467C229.739 467.307 229.924 468.348 229.924 469.591C229.924 472.009 229.015 473.84 227.197 475.082C225.414 476.325 222.856 476.946 219.523 476.946C217.201 476.946 215.383 476.745 214.071 476.342C212.758 475.972 211.866 475.687 211.395 475.485L212.253 471.455C212.792 471.656 213.65 471.959 214.828 472.362C216.006 472.765 217.571 472.966 219.523 472.966Z" fill="#27235C"/>
<path d="M240.339 450.143H250.285V454.073H240.339V466.165C240.339 467.475 240.44 468.566 240.642 469.44C240.844 470.279 241.146 470.951 241.55 471.455C241.954 471.925 242.459 472.261 243.065 472.462C243.671 472.664 244.378 472.765 245.185 472.765C246.599 472.765 247.727 472.614 248.568 472.311C249.443 471.975 250.049 471.74 250.386 471.606L251.294 475.485C250.823 475.72 249.999 476.006 248.82 476.342C247.642 476.711 246.296 476.896 244.782 476.896C242.998 476.896 241.517 476.678 240.339 476.241C239.194 475.771 238.269 475.082 237.562 474.175C236.855 473.269 236.35 472.16 236.047 470.85C235.778 469.507 235.643 467.962 235.643 466.215V442.838L240.339 442.032V450.143Z" fill="#27235C"/>
<path d="M260.955 476.342H256.259V450.143H260.955V476.342ZM258.582 445.407C257.74 445.407 257.017 445.139 256.411 444.601C255.839 444.03 255.553 443.275 255.553 442.334C255.553 441.394 255.839 440.655 256.411 440.117C257.017 439.546 257.74 439.261 258.582 439.261C259.423 439.261 260.13 439.546 260.702 440.117C261.308 440.655 261.611 441.394 261.611 442.334C261.611 443.275 261.308 444.03 260.702 444.601C260.13 445.139 259.423 445.407 258.582 445.407Z" fill="#27235C"/>
<path d="M269.029 450.899C270.106 450.63 271.537 450.345 273.32 450.043C275.104 449.74 277.157 449.589 279.48 449.589C281.567 449.589 283.3 449.891 284.68 450.496C286.06 451.067 287.154 451.89 287.962 452.965C288.803 454.006 289.392 455.266 289.729 456.743C290.065 458.221 290.234 459.85 290.234 461.63V476.342H285.538V462.638C285.538 461.026 285.421 459.649 285.185 458.507C284.983 457.365 284.63 456.441 284.125 455.736C283.62 455.03 282.947 454.527 282.105 454.224C281.264 453.888 280.22 453.72 278.975 453.72C278.47 453.72 277.948 453.737 277.41 453.771C276.871 453.804 276.35 453.855 275.845 453.922C275.374 453.956 274.936 454.006 274.532 454.073C274.162 454.14 273.893 454.191 273.724 454.224V476.342H269.029V450.899Z" fill="#27235C"/>
<path d="M314.478 473.722C314.075 473.991 313.284 474.343 312.106 474.78C310.961 475.183 309.615 475.385 308.067 475.385C306.485 475.385 304.987 475.133 303.573 474.629C302.193 474.125 300.982 473.353 299.938 472.311C298.895 471.237 298.07 469.91 297.464 468.331C296.858 466.753 296.556 464.872 296.556 462.688C296.556 460.774 296.842 459.027 297.414 457.449C297.986 455.837 298.811 454.459 299.888 453.317C300.998 452.142 302.345 451.235 303.927 450.597C305.509 449.925 307.292 449.589 309.278 449.589C311.466 449.589 313.368 449.757 314.983 450.093C316.633 450.395 318.013 450.681 319.123 450.949V474.327C319.123 478.357 318.08 481.279 315.993 483.093C313.906 484.907 310.742 485.814 306.501 485.814C304.852 485.814 303.287 485.679 301.806 485.411C300.359 485.142 299.097 484.823 298.02 484.453L298.878 480.372C299.82 480.742 300.965 481.061 302.311 481.33C303.691 481.632 305.122 481.783 306.602 481.783C309.396 481.783 311.399 481.229 312.61 480.12C313.856 479.012 314.478 477.249 314.478 474.83V473.722ZM314.428 454.275C313.957 454.14 313.317 454.023 312.509 453.922C311.735 453.788 310.675 453.72 309.329 453.72C306.804 453.72 304.852 454.543 303.472 456.189C302.126 457.835 301.453 460.018 301.453 462.739C301.453 464.25 301.638 465.543 302.008 466.618C302.412 467.693 302.934 468.583 303.573 469.288C304.246 469.994 305.004 470.514 305.845 470.85C306.72 471.186 307.612 471.354 308.521 471.354C309.766 471.354 310.911 471.186 311.954 470.85C312.997 470.481 313.822 470.061 314.428 469.591V454.275Z" fill="#27235C"/>
<path d="M332.155 470.598C332.189 470.867 332.206 471.136 332.206 471.404C332.206 471.64 332.206 471.891 332.206 472.16C332.206 474.276 331.886 476.359 331.246 478.408C330.641 480.49 329.799 482.472 328.722 484.353L325.087 483.194C325.928 481.481 326.484 479.734 326.753 477.954C327.022 476.208 327.157 474.562 327.157 473.017C327.157 472.58 327.14 472.16 327.106 471.757C327.106 471.354 327.09 470.968 327.056 470.598H332.155Z" fill="#27235C"/>
<path d="M350.206 458.859C350.206 455.87 350.644 453.233 351.519 450.949C352.428 448.666 353.639 446.768 355.154 445.256C356.702 443.711 358.486 442.553 360.506 441.78C362.559 441.007 364.73 440.621 367.018 440.621C369.274 440.621 371.394 441.007 373.38 441.78C375.399 442.553 377.166 443.711 378.681 445.256C380.196 446.768 381.39 448.666 382.266 450.949C383.174 453.233 383.629 455.87 383.629 458.859C383.629 461.849 383.174 464.485 382.266 466.769C381.39 469.053 380.196 470.968 378.681 472.513C377.166 474.024 375.399 475.166 373.38 475.939C371.394 476.711 369.274 477.098 367.018 477.098C364.73 477.098 362.559 476.711 360.506 475.939C358.486 475.166 356.702 474.024 355.154 472.513C353.639 470.968 352.428 469.053 351.519 466.769C350.644 464.485 350.206 461.849 350.206 458.859ZM355.356 458.859C355.356 460.975 355.625 462.907 356.164 464.653C356.702 466.366 357.46 467.827 358.436 469.037C359.445 470.246 360.657 471.186 362.071 471.858C363.518 472.496 365.134 472.815 366.917 472.815C368.701 472.815 370.3 472.496 371.714 471.858C373.127 471.186 374.322 470.246 375.298 469.037C376.308 467.827 377.082 466.366 377.621 464.653C378.159 462.907 378.428 460.975 378.428 458.859C378.428 456.743 378.159 454.829 377.621 453.116C377.082 451.369 376.308 449.891 375.298 448.682C374.322 447.473 373.127 446.549 371.714 445.911C370.3 445.24 368.701 444.904 366.917 444.904C365.134 444.904 363.518 445.24 362.071 445.911C360.657 446.549 359.445 447.473 358.436 448.682C357.46 449.891 356.702 451.369 356.164 453.116C355.625 454.829 355.356 456.743 355.356 458.859Z" fill="#27235C"/>
<path d="M411.514 475.586C410.437 475.855 409.006 476.14 407.222 476.443C405.472 476.745 403.436 476.896 401.113 476.896C399.094 476.896 397.394 476.611 396.014 476.04C394.634 475.435 393.523 474.595 392.682 473.52C391.841 472.446 391.235 471.186 390.864 469.742C390.494 468.264 390.309 466.635 390.309 464.855V450.143H395.004V463.847C395.004 467.038 395.509 469.322 396.519 470.699C397.529 472.076 399.228 472.765 401.618 472.765C402.123 472.765 402.645 472.748 403.183 472.714C403.722 472.681 404.227 472.647 404.698 472.614C405.169 472.546 405.59 472.496 405.96 472.462C406.364 472.395 406.65 472.328 406.818 472.261V450.143H411.514V475.586Z" fill="#27235C"/>
<path d="M429.296 449.589C429.7 449.589 430.154 449.623 430.659 449.69C431.198 449.724 431.719 449.791 432.224 449.891C432.729 449.959 433.184 450.043 433.588 450.143C434.025 450.211 434.345 450.278 434.547 450.345L433.739 454.426C433.369 454.291 432.746 454.14 431.871 453.972C431.03 453.771 429.936 453.67 428.589 453.67C427.714 453.67 426.839 453.771 425.964 453.972C425.122 454.14 424.567 454.258 424.298 454.325V476.342H419.603V451.252C420.713 450.849 422.093 450.479 423.743 450.143C425.392 449.774 427.243 449.589 429.296 449.589Z" fill="#27235C"/>
<path d="M468.181 461.731C468.719 462.403 469.392 463.293 470.2 464.401C471.041 465.476 471.9 466.685 472.775 468.029C473.65 469.339 474.508 470.716 475.35 472.16C476.225 473.604 476.965 474.998 477.571 476.342H472.22C471.546 475.066 470.806 473.772 469.998 472.462C469.224 471.153 468.433 469.91 467.625 468.734C466.817 467.525 466.01 466.4 465.202 465.359C464.428 464.317 463.721 463.411 463.081 462.638C462.644 462.672 462.189 462.688 461.718 462.688C461.281 462.688 460.826 462.688 460.355 462.688H455.963V476.342H451.066V441.931C452.445 441.595 453.977 441.377 455.66 441.276C457.376 441.142 458.941 441.075 460.355 441.075C465.269 441.075 469.005 441.998 471.563 443.846C474.155 445.693 475.451 448.447 475.451 452.108C475.451 454.426 474.828 456.407 473.583 458.053C472.371 459.699 470.57 460.925 468.181 461.731ZM460.759 445.357C458.672 445.357 457.073 445.407 455.963 445.508V458.658H459.446C461.129 458.658 462.644 458.574 463.99 458.406C465.336 458.238 466.464 457.919 467.373 457.449C468.315 456.978 469.039 456.324 469.544 455.484C470.049 454.611 470.301 453.469 470.301 452.058C470.301 450.748 470.049 449.656 469.544 448.783C469.039 447.91 468.349 447.221 467.474 446.717C466.632 446.214 465.623 445.861 464.445 445.659C463.3 445.458 462.072 445.357 460.759 445.357Z" fill="#27235C"/>
<path d="M481.05 463.293C481.05 460.975 481.387 458.96 482.06 457.247C482.733 455.501 483.625 454.056 484.736 452.914C485.846 451.772 487.125 450.916 488.573 450.345C490.02 449.774 491.501 449.488 493.015 449.488C496.55 449.488 499.259 450.597 501.144 452.814C503.029 454.997 503.971 458.339 503.971 462.84C503.971 463.041 503.971 463.31 503.971 463.646C503.971 463.948 503.954 464.233 503.921 464.502H485.947C486.149 467.223 486.94 469.288 488.32 470.699C489.7 472.11 491.854 472.815 494.783 472.815C496.432 472.815 497.812 472.681 498.922 472.412C500.067 472.11 500.925 471.824 501.497 471.556L502.154 475.485C501.581 475.788 500.572 476.107 499.124 476.443C497.711 476.779 496.095 476.946 494.278 476.946C491.989 476.946 490.003 476.611 488.32 475.939C486.671 475.233 485.308 474.276 484.231 473.067C483.154 471.858 482.346 470.43 481.807 468.785C481.302 467.105 481.05 465.275 481.05 463.293ZM499.074 460.724C499.108 458.607 498.569 456.878 497.458 455.534C496.381 454.157 494.883 453.469 492.965 453.469C491.888 453.469 490.929 453.687 490.087 454.124C489.279 454.527 488.589 455.064 488.017 455.736C487.445 456.407 486.991 457.18 486.654 458.053C486.351 458.927 486.149 459.817 486.048 460.724H499.074Z" fill="#27235C"/>
<path d="M516.825 472.966C518.743 472.966 520.157 472.714 521.066 472.211C522.008 471.707 522.479 470.901 522.479 469.792C522.479 468.65 522.025 467.743 521.116 467.072C520.207 466.4 518.71 465.644 516.623 464.804C515.613 464.401 514.637 463.998 513.695 463.595C512.786 463.159 511.995 462.655 511.322 462.084C510.649 461.513 510.11 460.824 509.706 460.018C509.302 459.212 509.1 458.221 509.1 457.046C509.1 454.728 509.959 452.898 511.675 451.554C513.392 450.177 515.731 449.488 518.693 449.488C519.433 449.488 520.174 449.539 520.914 449.64C521.655 449.707 522.345 449.807 522.984 449.942C523.624 450.043 524.179 450.16 524.65 450.295C525.155 450.429 525.542 450.546 525.811 450.647L524.953 454.678C524.448 454.409 523.657 454.14 522.58 453.872C521.503 453.569 520.207 453.418 518.693 453.418C517.38 453.418 516.236 453.687 515.26 454.224C514.284 454.728 513.796 455.534 513.796 456.643C513.796 457.214 513.897 457.717 514.099 458.154C514.334 458.591 514.671 458.994 515.108 459.363C515.579 459.699 516.152 460.018 516.825 460.32C517.498 460.623 518.306 460.942 519.248 461.278C520.494 461.748 521.604 462.218 522.58 462.688C523.556 463.125 524.381 463.646 525.054 464.25C525.761 464.855 526.3 465.594 526.67 466.467C527.04 467.307 527.225 468.348 527.225 469.591C527.225 472.009 526.316 473.84 524.499 475.082C522.715 476.325 520.157 476.946 516.825 476.946C514.502 476.946 512.685 476.745 511.372 476.342C510.06 475.972 509.168 475.687 508.696 475.485L509.555 471.455C510.093 471.656 510.951 471.959 512.129 472.362C513.308 472.765 514.873 472.966 516.825 472.966Z" fill="#27235C"/>
<path d="M551.473 463.293C551.473 460.237 550.716 457.885 549.202 456.24C547.687 454.594 545.667 453.771 543.143 453.771C541.73 453.771 540.619 453.821 539.811 453.922C539.037 454.023 538.414 454.14 537.943 454.275V470.8C538.515 471.27 539.34 471.724 540.417 472.16C541.494 472.597 542.672 472.815 543.951 472.815C545.297 472.815 546.442 472.58 547.384 472.11C548.36 471.606 549.151 470.934 549.757 470.095C550.363 469.221 550.8 468.214 551.07 467.072C551.339 465.896 551.473 464.637 551.473 463.293ZM556.371 463.293C556.371 465.275 556.101 467.105 555.563 468.785C555.058 470.464 554.301 471.908 553.291 473.117C552.281 474.327 551.036 475.267 549.555 475.939C548.108 476.611 546.442 476.946 544.557 476.946C543.042 476.946 541.696 476.745 540.518 476.342C539.373 475.939 538.515 475.553 537.943 475.183V485.662H533.248V450.949C534.358 450.681 535.738 450.395 537.388 450.093C539.07 449.757 541.006 449.589 543.194 449.589C545.213 449.589 547.031 449.908 548.646 450.546C550.262 451.185 551.642 452.091 552.786 453.267C553.931 454.443 554.806 455.887 555.411 457.6C556.051 459.279 556.371 461.177 556.371 463.293Z" fill="#27235C"/>
<path d="M586.151 463.243C586.151 465.325 585.848 467.206 585.243 468.885C584.637 470.565 583.778 472.009 582.668 473.218C581.591 474.427 580.295 475.368 578.78 476.04C577.266 476.678 575.616 476.997 573.833 476.997C572.049 476.997 570.399 476.678 568.885 476.04C567.37 475.368 566.058 474.427 564.947 473.218C563.87 472.009 563.028 470.565 562.422 468.885C561.817 467.206 561.514 465.325 561.514 463.243C561.514 461.194 561.817 459.33 562.422 457.65C563.028 455.937 563.87 454.476 564.947 453.267C566.058 452.058 567.37 451.134 568.885 450.496C570.399 449.824 572.049 449.488 573.833 449.488C575.616 449.488 577.266 449.824 578.78 450.496C580.295 451.134 581.591 452.058 582.668 453.267C583.778 454.476 584.637 455.937 585.243 457.65C585.848 459.33 586.151 461.194 586.151 463.243ZM581.254 463.243C581.254 460.287 580.581 457.953 579.235 456.24C577.922 454.493 576.121 453.62 573.833 453.62C571.544 453.62 569.726 454.493 568.38 456.24C567.067 457.953 566.411 460.287 566.411 463.243C566.411 466.198 567.067 468.549 568.38 470.296C569.726 472.009 571.544 472.866 573.833 472.866C576.121 472.866 577.922 472.009 579.235 470.296C580.581 468.549 581.254 466.198 581.254 463.243Z" fill="#27235C"/>
<path d="M592.757 450.899C593.834 450.63 595.265 450.345 597.049 450.043C598.832 449.74 600.886 449.589 603.208 449.589C605.295 449.589 607.028 449.891 608.408 450.496C609.788 451.067 610.882 451.89 611.69 452.965C612.531 454.006 613.12 455.266 613.457 456.743C613.794 458.221 613.962 459.85 613.962 461.63V476.342H609.267V462.638C609.267 461.026 609.149 459.649 608.913 458.507C608.711 457.365 608.358 456.441 607.853 455.736C607.348 455.03 606.675 454.527 605.833 454.224C604.992 453.888 603.949 453.72 602.703 453.72C602.198 453.72 601.677 453.737 601.138 453.771C600.6 453.804 600.078 453.855 599.573 453.922C599.102 453.956 598.664 454.006 598.26 454.073C597.89 454.14 597.621 454.191 597.453 454.224V476.342H592.757V450.899Z" fill="#27235C"/>
<path d="M627.857 472.966C629.775 472.966 631.189 472.714 632.098 472.211C633.04 471.707 633.511 470.901 633.511 469.792C633.511 468.65 633.057 467.743 632.148 467.072C631.239 466.4 629.742 465.644 627.655 464.804C626.645 464.401 625.669 463.998 624.727 463.595C623.818 463.159 623.027 462.655 622.354 462.084C621.681 461.513 621.142 460.824 620.738 460.018C620.334 459.212 620.132 458.221 620.132 457.046C620.132 454.728 620.991 452.898 622.707 451.554C624.424 450.177 626.763 449.488 629.725 449.488C630.465 449.488 631.206 449.539 631.946 449.64C632.687 449.707 633.377 449.807 634.016 449.942C634.656 450.043 635.211 450.16 635.682 450.295C636.187 450.429 636.574 450.546 636.843 450.647L635.985 454.678C635.48 454.409 634.689 454.14 633.612 453.872C632.535 453.569 631.239 453.418 629.725 453.418C628.412 453.418 627.268 453.687 626.292 454.224C625.316 454.728 624.828 455.534 624.828 456.643C624.828 457.214 624.928 457.717 625.13 458.154C625.366 458.591 625.703 458.994 626.14 459.363C626.611 459.699 627.184 460.018 627.857 460.32C628.53 460.623 629.338 460.942 630.28 461.278C631.525 461.748 632.636 462.218 633.612 462.688C634.588 463.125 635.413 463.646 636.086 464.25C636.793 464.855 637.331 465.594 637.702 466.467C638.072 467.307 638.257 468.348 638.257 469.591C638.257 472.009 637.348 473.84 635.531 475.082C633.747 476.325 631.189 476.946 627.857 476.946C625.534 476.946 623.717 476.745 622.404 476.342C621.091 475.972 620.2 475.687 619.728 475.485L620.587 471.455C621.125 471.656 621.983 471.959 623.161 472.362C624.34 472.765 625.905 472.966 627.857 472.966Z" fill="#27235C"/>
<path d="M648.975 476.342H644.28V450.143H648.975V476.342ZM646.602 445.407C645.761 445.407 645.037 445.139 644.431 444.601C643.859 444.03 643.573 443.275 643.573 442.334C643.573 441.394 643.859 440.655 644.431 440.117C645.037 439.546 645.761 439.261 646.602 439.261C647.443 439.261 648.15 439.546 648.722 440.117C649.328 440.655 649.631 441.394 649.631 442.334C649.631 443.275 649.328 444.03 648.722 444.601C648.15 445.139 647.443 445.407 646.602 445.407Z" fill="#27235C"/>
<path d="M661.745 451.302C662.317 450.933 663.175 450.546 664.319 450.143C665.497 449.74 666.844 449.539 668.358 449.539C670.243 449.539 671.909 449.875 673.357 450.546C674.838 451.218 676.083 452.159 677.093 453.368C678.102 454.577 678.86 456.021 679.365 457.701C679.903 459.38 680.172 461.227 680.172 463.243C680.172 465.359 679.853 467.273 679.213 468.986C678.607 470.666 677.732 472.093 676.588 473.269C675.443 474.444 674.063 475.351 672.448 475.989C670.832 476.627 669.015 476.946 666.995 476.946C664.807 476.946 662.872 476.795 661.189 476.493C659.506 476.191 658.126 475.888 657.049 475.586V438.052L661.745 437.246V451.302ZM661.745 472.261C662.216 472.395 662.872 472.53 663.714 472.664C664.589 472.765 665.666 472.815 666.945 472.815C669.469 472.815 671.489 471.992 673.003 470.346C674.518 468.667 675.275 466.299 675.275 463.243C675.275 461.899 675.14 460.64 674.871 459.464C674.602 458.288 674.164 457.281 673.559 456.441C672.953 455.568 672.162 454.896 671.186 454.426C670.243 453.922 669.099 453.67 667.753 453.67C666.474 453.67 665.296 453.888 664.218 454.325C663.141 454.762 662.317 455.215 661.745 455.685V472.261Z" fill="#27235C"/>
<path d="M691.475 476.342H686.779V450.143H691.475V476.342ZM689.102 445.407C688.26 445.407 687.537 445.139 686.931 444.601C686.359 444.03 686.073 443.275 686.073 442.334C686.073 441.394 686.359 440.655 686.931 440.117C687.537 439.546 688.26 439.261 689.102 439.261C689.943 439.261 690.65 439.546 691.222 440.117C691.828 440.655 692.131 441.394 692.131 442.334C692.131 443.275 691.828 444.03 691.222 444.601C690.65 445.139 689.943 445.407 689.102 445.407Z" fill="#27235C"/>
<path d="M707.425 476.846C704.53 476.779 702.477 476.157 701.266 474.982C700.054 473.806 699.448 471.975 699.448 469.49V438.052L704.143 437.246V468.734C704.143 469.507 704.211 470.145 704.345 470.649C704.48 471.153 704.699 471.556 705.002 471.858C705.305 472.16 705.709 472.395 706.213 472.563C706.718 472.698 707.341 472.815 708.081 472.916L707.425 476.846Z" fill="#27235C"/>
<path d="M718.049 476.342H713.354V450.143H718.049V476.342ZM715.676 445.407C714.835 445.407 714.111 445.139 713.506 444.601C712.933 444.03 712.647 443.275 712.647 442.334C712.647 441.394 712.933 440.655 713.506 440.117C714.111 439.546 714.835 439.261 715.676 439.261C716.518 439.261 717.225 439.546 717.797 440.117C718.403 440.655 718.706 441.394 718.706 442.334C718.706 443.275 718.403 444.03 717.797 444.601C717.225 445.139 716.518 445.407 715.676 445.407Z" fill="#27235C"/>
<path d="M730.516 450.143H740.462V454.073H730.516V466.165C730.516 467.475 730.617 468.566 730.819 469.44C731.021 470.279 731.324 470.951 731.728 471.455C732.132 471.925 732.637 472.261 733.242 472.462C733.848 472.664 734.555 472.765 735.363 472.765C736.777 472.765 737.904 472.614 738.745 472.311C739.621 471.975 740.226 471.74 740.563 471.606L741.472 475.485C741.001 475.72 740.176 476.006 738.998 476.342C737.82 476.711 736.474 476.896 734.959 476.896C733.175 476.896 731.694 476.678 730.516 476.241C729.372 475.771 728.446 475.082 727.739 474.175C727.033 473.269 726.528 472.16 726.225 470.85C725.956 469.507 725.821 467.962 725.821 466.215V442.838L730.516 442.032V450.143Z" fill="#27235C"/>
<path d="M743.357 481.229C743.727 481.397 744.199 481.548 744.771 481.682C745.377 481.85 745.966 481.934 746.538 481.934C748.389 481.934 749.836 481.514 750.88 480.675C751.923 479.869 752.866 478.542 753.707 476.695C751.587 472.664 749.601 468.398 747.75 463.898C745.932 459.363 744.417 454.778 743.206 450.143H748.254C748.625 451.655 749.062 453.284 749.567 455.03C750.106 456.777 750.695 458.574 751.334 460.421C751.974 462.269 752.664 464.116 753.404 465.963C754.145 467.811 754.919 469.591 755.726 471.304C757.005 467.777 758.116 464.284 759.059 460.824C760.001 457.365 760.893 453.804 761.734 450.143H766.581C765.37 455.081 764.023 459.833 762.542 464.401C761.061 468.936 759.463 473.185 757.746 477.148C757.073 478.659 756.366 479.953 755.626 481.027C754.919 482.136 754.128 483.043 753.253 483.748C752.378 484.453 751.385 484.974 750.274 485.31C749.197 485.646 747.968 485.814 746.588 485.814C746.218 485.814 745.831 485.78 745.427 485.713C745.023 485.679 744.619 485.612 744.215 485.511C743.845 485.444 743.492 485.36 743.155 485.259C742.852 485.159 742.633 485.075 742.499 485.008L743.357 481.229Z" fill="#27235C"/>
<path d="M775.71 473.621C775.71 474.528 775.407 475.317 774.801 475.989C774.195 476.661 773.37 476.997 772.327 476.997C771.283 476.997 770.459 476.661 769.853 475.989C769.247 475.317 768.944 474.528 768.944 473.621C768.944 472.714 769.247 471.925 769.853 471.253C770.459 470.582 771.283 470.246 772.327 470.246C773.37 470.246 774.195 470.582 774.801 471.253C775.407 471.925 775.71 472.714 775.71 473.621Z" fill="#27235C"/>
<path d="M734.958 403.042C729.186 403.042 724.002 401.922 719.408 399.684C714.932 397.328 711.103 394.148 707.923 390.142C704.86 386.137 702.504 381.543 700.855 376.359C699.323 371.058 698.557 365.404 698.557 359.396C698.675 353.388 699.559 347.793 701.208 342.609C702.857 337.308 705.213 332.714 708.276 328.827C711.457 324.821 715.285 321.7 719.762 319.461C724.238 317.223 729.304 316.104 734.958 316.104C740.377 316.104 745.442 317.223 750.154 319.461C754.984 321.7 759.225 324.821 762.877 328.827C766.646 332.714 769.591 337.308 771.712 342.609C773.832 347.793 774.892 353.329 774.892 359.219C774.892 365.345 773.832 371.117 771.712 376.536C769.591 381.837 766.705 386.49 763.053 390.496C759.402 394.383 755.161 397.446 750.331 399.684C745.501 401.922 740.377 403.042 734.958 403.042ZM732.131 382.367C736.254 382.367 739.964 381.425 743.263 379.54C746.561 377.537 749.153 374.828 751.038 371.412C753.04 367.996 754.042 364.108 754.042 359.749C754.042 355.273 753.04 351.327 751.038 347.91C749.153 344.376 746.561 341.667 743.263 339.782C739.964 337.779 736.254 336.778 732.131 336.778C728.126 336.778 724.474 337.779 721.175 339.782C717.877 341.785 715.226 344.494 713.224 347.91C711.339 351.327 710.396 355.273 710.396 359.749C710.396 364.108 711.339 367.996 713.224 371.412C715.226 374.828 717.877 377.537 721.175 379.54C724.474 381.425 728.126 382.367 732.131 382.367ZM699.441 403.218C696.26 403.218 693.904 402.688 692.373 401.628C690.842 400.685 689.899 399.449 689.546 397.917C689.192 396.268 689.016 394.442 689.016 392.439V287.125C689.016 285.122 689.192 283.355 689.546 281.824C689.899 280.174 690.842 278.879 692.373 277.936C693.904 276.994 696.26 276.523 699.441 276.523C702.739 276.523 705.095 276.994 706.509 277.936C707.923 278.879 708.806 280.174 709.16 281.824C709.513 283.473 709.69 285.24 709.69 287.125V395.973C709.218 398.565 708.217 400.391 706.686 401.451C705.272 402.629 702.857 403.218 699.441 403.218Z" fill="#27235C" stroke="#27235C" stroke-width="0.2"/>
<path d="M636.345 404.281C628.688 404.281 621.973 403.044 616.201 400.57C610.546 398.096 605.775 394.739 601.888 390.498C598.118 386.139 595.232 381.31 593.23 376.009C591.345 370.59 590.402 364.994 590.402 359.222C590.402 350.74 592.346 343.201 596.234 336.604C600.121 330.007 605.481 324.824 612.313 321.054C619.264 317.284 627.215 315.4 636.168 315.4C642.529 315.4 648.125 316.401 652.955 318.404C657.784 320.406 661.79 323.057 664.97 326.355C668.269 329.536 670.743 333.07 672.392 336.957C674.159 340.845 675.042 344.614 675.042 348.266C675.042 354.51 673.511 359.045 670.448 361.872C667.503 364.7 663.792 366.113 659.316 366.113H612.667C612.785 370.118 614.021 373.594 616.377 376.539C618.851 379.484 621.914 381.781 625.566 383.43C629.336 384.961 633.164 385.727 637.052 385.727C639.997 385.727 642.588 385.55 644.826 385.197C647.182 384.844 649.185 384.431 650.834 383.96C652.483 383.371 653.897 382.782 655.075 382.193C656.371 381.604 657.549 381.074 658.609 380.603C659.669 380.132 660.671 379.837 661.613 379.719C662.909 379.601 664.205 379.896 665.5 380.603C666.796 381.31 667.856 382.547 668.681 384.314C669.388 385.492 669.859 386.611 670.095 387.671C670.448 388.613 670.625 389.556 670.625 390.498C670.625 392.854 669.211 395.092 666.384 397.213C663.557 399.215 659.551 400.865 654.368 402.16C649.303 403.574 643.295 404.281 636.345 404.281ZM612.667 353.567H648.89C650.893 353.567 652.425 353.273 653.485 352.684C654.545 351.977 655.075 350.563 655.075 348.443C655.075 345.734 654.25 343.319 652.601 341.198C650.952 338.96 648.714 337.252 645.887 336.074C643.059 334.778 639.761 334.13 635.991 334.13C631.633 334.13 627.686 335.014 624.152 336.781C620.618 338.43 617.791 340.727 615.671 343.672C613.668 346.617 612.667 349.915 612.667 353.567Z" fill="#27235C" stroke="#27235C" stroke-width="0.2"/>
<path d="M478.266 402.695C475.91 402.695 474.026 402.282 472.612 401.458C471.198 400.515 470.138 399.455 469.431 398.277C468.842 397.099 468.43 396.098 468.194 395.273L433.561 293.846C432.383 290.076 432.206 287.249 433.031 285.364C433.855 283.362 436.27 281.712 440.276 280.417C442.985 279.474 445.164 279.062 446.813 279.18C448.463 279.298 449.817 280.004 450.878 281.3C452.056 282.478 453.057 284.363 453.882 286.955L479.327 363.997L502.121 287.661C502.474 286.483 502.946 285.305 503.535 284.127C504.241 282.832 505.302 281.771 506.715 280.947C508.129 280.122 510.073 279.71 512.546 279.71C515.374 279.71 517.494 280.181 518.908 281.123C520.321 282.066 521.323 283.126 521.912 284.304C522.618 285.364 523.09 286.366 523.325 287.308L546.12 364.527L571.741 287.131C572.566 284.422 573.508 282.419 574.569 281.123C575.747 279.828 577.219 279.121 578.986 279.003C580.753 278.767 582.932 279.121 585.524 280.063C588.234 281.006 590.177 282.066 591.355 283.244C592.533 284.304 593.122 285.718 593.122 287.485C593.122 289.134 592.71 291.254 591.885 293.846L557.429 395.45C557.193 396.157 556.722 397.099 556.015 398.277C555.426 399.455 554.425 400.515 553.011 401.458C551.597 402.282 549.654 402.695 547.18 402.695C544.706 402.695 542.762 402.165 541.349 401.104C539.935 400.044 538.875 398.866 538.168 397.57C537.461 396.274 536.99 395.332 536.754 394.743L512.723 316.994L488.692 394.566C488.456 395.391 487.985 396.451 487.278 397.747C486.689 399.043 485.688 400.221 484.274 401.281C482.861 402.223 480.858 402.695 478.266 402.695Z" fill="#27235C" stroke="#27235C" stroke-width="0.2"/>
<path d="M386.38 404.282C383.318 404.282 380.078 403.929 376.662 403.222C373.246 402.633 369.947 401.75 366.767 400.572C363.586 399.276 360.818 397.803 358.462 396.154C356.223 394.387 354.81 392.443 354.221 390.323C353.75 389.145 353.573 388.026 353.691 386.966C353.808 385.788 354.162 384.61 354.751 383.432C355.34 382.136 356.223 380.84 357.401 379.544C358.462 378.248 359.522 377.541 360.582 377.424C361.76 377.188 363.232 377.542 364.999 378.484C366.531 379.073 368.18 379.839 369.947 380.781C371.832 381.723 373.717 382.666 375.602 383.608C377.604 384.551 379.607 385.316 381.609 385.905C383.73 386.494 385.791 386.789 387.794 386.789C392.153 386.789 395.628 386.082 398.219 384.668C400.811 383.137 402.107 381.017 402.107 378.307C402.107 376.776 401.694 375.421 400.87 374.243C400.045 373.065 398.926 372.123 397.513 371.416C396.217 370.591 394.626 369.884 392.742 369.295C390.975 368.589 389.031 368 386.91 367.528C384.908 366.939 382.787 366.291 380.549 365.585C377.604 364.76 374.659 363.759 371.714 362.581C368.769 361.403 366.119 359.871 363.763 357.986C361.524 356.102 359.698 353.746 358.285 350.918C356.871 348.091 356.164 344.557 356.164 340.316C356.164 335.015 357.401 330.539 359.875 326.887C362.467 323.117 366.178 320.231 371.007 318.228C375.837 316.226 381.668 315.224 388.501 315.224C390.857 315.224 393.095 315.401 395.215 315.755C397.454 316.108 399.574 316.638 401.577 317.345C403.697 317.934 405.7 318.7 407.585 319.642C409.587 320.584 411.472 321.645 413.239 322.823C416.184 324.472 417.715 326.416 417.833 328.654C417.951 330.774 417.126 333.071 415.359 335.545C414.064 337.194 412.768 338.372 411.472 339.079C410.176 339.668 408.821 339.668 407.408 339.079C405.523 338.137 403.462 337.136 401.223 336.075C399.103 334.897 396.865 333.896 394.509 333.071C392.27 332.247 389.914 331.834 387.441 331.834C385.085 331.834 382.964 332.188 381.079 332.895C379.195 333.602 377.781 334.603 376.838 335.899C375.896 337.194 375.425 338.726 375.425 340.493C375.425 342.142 375.896 343.497 376.838 344.557C377.781 345.617 379.018 346.501 380.549 347.208C382.081 347.914 383.907 348.562 386.027 349.151C388.147 349.623 390.386 350.094 392.742 350.565C396.04 351.272 399.397 352.155 402.814 353.215C406.23 354.276 409.352 355.748 412.179 357.633C415.124 359.518 417.48 362.051 419.247 365.231C421.014 368.294 421.897 372.299 421.897 377.247C421.897 385.847 418.717 392.502 412.355 397.214C406.112 401.926 397.454 404.282 386.38 404.282Z" fill="#27235C" stroke="#27235C" stroke-width="0.2"/>
<path d="M302.965 404.28C295.308 404.28 288.593 403.043 282.821 400.569C277.166 398.095 272.395 394.738 268.508 390.497C264.738 386.138 261.852 381.308 259.85 376.007C257.965 370.589 257.022 364.993 257.022 359.221C257.022 350.739 258.966 343.2 262.854 336.603C266.741 330.006 272.101 324.823 278.933 321.053C285.884 317.283 293.835 315.398 302.788 315.398C309.149 315.398 314.745 316.4 319.575 318.402C324.405 320.405 328.41 323.056 331.59 326.354C334.889 329.535 337.363 333.069 339.012 336.956C340.779 340.844 341.662 344.613 341.662 348.265C341.662 354.509 340.131 359.044 337.068 361.871C334.123 364.698 330.412 366.112 325.936 366.112H279.287C279.405 370.117 280.642 373.592 282.998 376.537C285.471 379.483 288.534 381.78 292.186 383.429C295.956 384.96 299.784 385.726 303.672 385.726C306.617 385.726 309.208 385.549 311.446 385.196C313.802 384.843 315.805 384.43 317.454 383.959C319.104 383.37 320.517 382.781 321.695 382.192C322.991 381.603 324.169 381.073 325.229 380.602C326.289 380.13 327.291 379.836 328.233 379.718C329.529 379.6 330.825 379.895 332.121 380.602C333.416 381.308 334.477 382.545 335.301 384.312C336.008 385.49 336.479 386.61 336.715 387.67C337.068 388.612 337.245 389.555 337.245 390.497C337.245 392.853 335.831 395.091 333.004 397.212C330.177 399.214 326.172 400.864 320.988 402.159C315.923 403.573 309.915 404.28 302.965 404.28ZM279.287 353.566H315.511C317.513 353.566 319.045 353.272 320.105 352.683C321.165 351.976 321.695 350.562 321.695 348.442C321.695 345.732 320.871 343.317 319.221 341.197C317.572 338.959 315.334 337.251 312.507 336.073C309.679 334.777 306.381 334.129 302.611 334.129C298.253 334.129 294.306 335.012 290.772 336.779C287.238 338.429 284.411 340.726 282.291 343.671C280.288 346.616 279.287 349.914 279.287 353.566Z" fill="#27235C" stroke="#27235C" stroke-width="0.2"/>
<path d="M239.884 403.226C235.525 403.226 231.638 402.931 228.221 402.342C224.923 401.753 222.037 400.752 219.563 399.338C217.207 397.925 215.263 396.04 213.732 393.684C212.201 391.21 211.022 388.206 210.198 384.672C209.491 381.138 209.138 376.897 209.138 371.949V286.779C209.138 284.776 209.314 283.009 209.668 281.478C210.139 279.829 211.081 278.533 212.495 277.59C214.026 276.53 216.441 276 219.74 276C223.038 276 225.394 276.471 226.808 277.414C228.339 278.356 229.282 279.652 229.635 281.301C230.106 282.832 230.342 284.6 230.342 286.602V371.066C230.342 373.304 230.46 375.189 230.695 376.72C231.049 378.134 231.579 379.312 232.286 380.254C233.11 381.079 234.111 381.668 235.289 382.021C236.585 382.375 238.117 382.552 239.884 382.552C241.415 382.552 242.77 382.728 243.948 383.082C245.244 383.435 246.245 384.319 246.952 385.732C247.776 387.146 248.189 389.443 248.189 392.624C248.189 395.922 247.776 398.337 246.952 399.868C246.245 401.4 245.244 402.342 243.948 402.696C242.652 403.049 241.297 403.226 239.884 403.226Z" fill="#27235C" stroke="#27235C" stroke-width="0.2"/>
<path d="M179.545 403.223C176.365 403.223 174.009 402.693 172.477 401.633C170.946 400.691 170.003 399.454 169.65 397.922C169.297 396.273 169.12 394.447 169.12 392.445V326.711C169.12 324.826 169.297 323.118 169.65 321.587C170.121 319.938 171.064 318.642 172.477 317.699C174.009 316.757 176.424 316.286 179.722 316.286C183.02 316.286 185.376 316.757 186.79 317.699C188.321 318.642 189.264 319.938 189.617 321.587C189.971 323.236 190.147 325.062 190.147 327.065V392.621C190.147 394.624 189.971 396.45 189.617 398.099C189.264 399.63 188.321 400.867 186.79 401.81C185.376 402.752 182.961 403.223 179.545 403.223ZM179.545 299.146C176.129 299.146 173.596 298.675 171.947 297.732C170.416 296.672 169.414 295.258 168.943 293.491C168.59 291.724 168.413 289.781 168.413 287.66C168.413 285.422 168.59 283.478 168.943 281.829C169.414 280.18 170.475 278.884 172.124 277.941C173.773 276.881 176.306 276.351 179.722 276.351C183.256 276.351 185.789 276.881 187.32 277.941C188.852 279.002 189.853 280.415 190.324 282.182C190.795 283.832 191.031 285.775 191.031 288.013C191.031 290.016 190.795 291.901 190.324 293.668C189.853 295.435 188.852 296.79 187.32 297.732C185.789 298.675 183.197 299.146 179.545 299.146Z" fill="#27235C" stroke="#27235C" stroke-width="0.2"/>
<path d="M34.4254 403.045C31.3626 403.045 29.0654 402.574 27.534 401.631C26.0026 400.689 25.0013 399.393 24.5301 397.744C24.1767 396.095 24 394.269 24 392.266V290.309C24 288.424 24.1767 286.716 24.5301 285.185C25.0013 283.535 26.0026 282.24 27.534 281.297C29.0654 280.237 31.4804 279.707 34.7788 279.707C37.2526 279.707 39.0785 279.884 40.2565 280.237C41.5523 280.473 42.5536 280.885 43.2604 281.474C43.9672 281.945 44.6741 282.593 45.3809 283.418L88.496 343.673H84.4319L127.724 283.241C128.548 282.298 129.373 281.592 130.197 281.12C131.022 280.649 132.082 280.296 133.378 280.06C134.674 279.825 136.382 279.707 138.502 279.707C141.683 279.707 144.039 280.237 145.571 281.297C147.102 282.24 148.044 283.535 148.398 285.185C148.869 286.834 149.105 288.66 149.105 290.662V392.62C149.105 394.387 148.869 396.095 148.398 397.744C148.044 399.393 147.102 400.689 145.571 401.631C144.039 402.574 141.624 403.045 138.326 403.045C135.145 403.045 132.789 402.515 131.258 401.455C129.726 400.512 128.725 399.216 128.254 397.567C127.9 395.918 127.724 394.151 127.724 392.266V316.461L95.564 362.934C95.2106 363.405 94.6805 364.053 93.9737 364.877C93.2669 365.584 92.3245 366.232 91.1465 366.821C89.9685 367.41 88.3782 367.705 86.3756 367.705C84.4908 367.705 82.9593 367.41 81.7813 366.821C80.6033 366.232 79.6609 365.584 78.9541 364.877C78.3651 364.171 77.7761 363.464 77.1871 362.757L45.2042 316.461V392.62C45.2042 394.387 44.9686 396.095 44.4974 397.744C44.144 399.393 43.2015 400.689 41.6701 401.631C40.1387 402.574 37.7238 403.045 34.4254 403.045Z" fill="#27235C" stroke="#27235C" stroke-width="0.2"/>
</svg>
