<svg width="592" height="148" viewBox="0 0 592 148" fill="none" xmlns="http://www.w3.org/2000/svg">
<path d="M277.013 137.238C277.013 135.539 278.391 134.161 280.09 134.161H492.41C494.11 134.161 495.488 135.539 495.488 137.238V137.238C495.488 138.938 494.11 140.316 492.41 140.316H280.09C278.391 140.316 277.013 138.938 277.013 137.238V137.238Z" fill="#FFBB00"/>
<path d="M103.993 114.547V107.098C102.758 105.187 101.594 103.303 100.502 101.445C99.4102 99.5871 98.3809 97.765 97.4143 95.9788H100.475C101.155 97.4435 101.916 98.9351 102.758 100.453C103.599 101.954 104.467 103.401 105.362 104.794C106.239 103.401 107.098 101.954 107.94 100.453C108.781 98.9351 109.551 97.4435 110.249 95.9788H113.149C112.182 97.765 111.153 99.5871 110.061 101.445C108.969 103.285 107.814 105.151 106.597 107.045V114.547H103.993Z" fill="#27235C"/>
<path d="M126.462 107.581C126.462 108.688 126.301 109.689 125.979 110.582C125.656 111.475 125.2 112.243 124.609 112.886C124.036 113.529 123.347 114.029 122.542 114.386C121.736 114.726 120.859 114.896 119.91 114.896C118.962 114.896 118.085 114.726 117.279 114.386C116.474 114.029 115.775 113.529 115.185 112.886C114.612 112.243 114.164 111.475 113.842 110.582C113.52 109.689 113.359 108.688 113.359 107.581C113.359 106.491 113.52 105.5 113.842 104.607C114.164 103.696 114.612 102.918 115.185 102.275C115.775 101.632 116.474 101.141 117.279 100.802C118.085 100.444 118.962 100.266 119.91 100.266C120.859 100.266 121.736 100.444 122.542 100.802C123.347 101.141 124.036 101.632 124.609 102.275C125.2 102.918 125.656 103.696 125.979 104.607C126.301 105.5 126.462 106.491 126.462 107.581ZM123.857 107.581C123.857 106.009 123.499 104.767 122.783 103.856C122.085 102.927 121.128 102.463 119.91 102.463C118.693 102.463 117.727 102.927 117.011 103.856C116.312 104.767 115.963 106.009 115.963 107.581C115.963 109.153 116.312 110.403 117.011 111.332C117.727 112.243 118.693 112.698 119.91 112.698C121.128 112.698 122.085 112.243 122.783 111.332C123.499 110.403 123.857 109.153 123.857 107.581Z" fill="#27235C"/>
<path d="M141.091 114.145C140.519 114.288 139.758 114.44 138.809 114.601C137.878 114.762 136.795 114.842 135.56 114.842C134.486 114.842 133.582 114.69 132.848 114.386C132.114 114.065 131.524 113.618 131.076 113.047C130.629 112.475 130.306 111.805 130.109 111.037C129.913 110.251 129.814 109.385 129.814 108.438V100.614H132.311V107.902C132.311 109.599 132.58 110.814 133.117 111.546C133.654 112.279 134.558 112.645 135.829 112.645C136.097 112.645 136.375 112.636 136.661 112.618C136.947 112.6 137.216 112.582 137.467 112.564C137.717 112.529 137.941 112.502 138.138 112.484C138.353 112.448 138.505 112.413 138.594 112.377V100.614H141.091V114.145Z" fill="#27235C"/>
<path d="M150.549 100.319C150.763 100.319 151.005 100.337 151.274 100.373C151.56 100.391 151.837 100.427 152.106 100.48C152.374 100.516 152.616 100.561 152.831 100.614C153.064 100.65 153.234 100.686 153.341 100.721L152.911 102.892C152.715 102.82 152.383 102.74 151.918 102.651C151.47 102.543 150.889 102.49 150.173 102.49C149.707 102.49 149.242 102.543 148.776 102.651C148.329 102.74 148.034 102.802 147.89 102.838V114.547H145.393V101.204C145.984 100.989 146.718 100.793 147.595 100.614C148.472 100.418 149.457 100.319 150.549 100.319Z" fill="#27235C"/>
<path d="M173.833 95.9788H176.438V114.547H173.833V105.973H164.731V114.547H162.126V95.9788H164.731V103.722H173.833V95.9788Z" fill="#27235C"/>
<path d="M193.221 107.581C193.221 108.688 193.06 109.689 192.738 110.582C192.416 111.475 191.959 112.243 191.369 112.886C190.796 113.529 190.107 114.029 189.301 114.386C188.496 114.726 187.618 114.896 186.67 114.896C185.721 114.896 184.844 114.726 184.038 114.386C183.233 114.029 182.535 113.529 181.944 112.886C181.371 112.243 180.924 111.475 180.601 110.582C180.279 109.689 180.118 108.688 180.118 107.581C180.118 106.491 180.279 105.5 180.601 104.607C180.924 103.696 181.371 102.918 181.944 102.275C182.535 101.632 183.233 101.141 184.038 100.802C184.844 100.444 185.721 100.266 186.67 100.266C187.618 100.266 188.496 100.444 189.301 100.802C190.107 101.141 190.796 101.632 191.369 102.275C191.959 102.918 192.416 103.696 192.738 104.607C193.06 105.5 193.221 106.491 193.221 107.581ZM190.617 107.581C190.617 106.009 190.259 104.767 189.543 103.856C188.845 102.927 187.887 102.463 186.67 102.463C185.452 102.463 184.486 102.927 183.77 103.856C183.072 104.767 182.723 106.009 182.723 107.581C182.723 109.153 183.072 110.403 183.77 111.332C184.486 112.243 185.452 112.698 186.67 112.698C187.887 112.698 188.845 112.243 189.543 111.332C190.259 110.403 190.617 109.153 190.617 107.581Z" fill="#27235C"/>
<path d="M199.983 112.752C201.004 112.752 201.756 112.618 202.239 112.35C202.74 112.082 202.991 111.653 202.991 111.064C202.991 110.457 202.749 109.974 202.266 109.617C201.782 109.26 200.986 108.858 199.876 108.411C199.339 108.197 198.82 107.983 198.319 107.768C197.835 107.536 197.415 107.268 197.057 106.964C196.699 106.661 196.412 106.295 196.197 105.866C195.983 105.437 195.875 104.91 195.875 104.285C195.875 103.052 196.332 102.079 197.245 101.364C198.158 100.632 199.402 100.266 200.977 100.266C201.371 100.266 201.764 100.293 202.158 100.346C202.552 100.382 202.919 100.436 203.259 100.507C203.599 100.561 203.895 100.623 204.145 100.695C204.414 100.766 204.62 100.829 204.763 100.882L204.306 103.026C204.038 102.883 203.617 102.74 203.044 102.597C202.472 102.436 201.782 102.356 200.977 102.356C200.279 102.356 199.67 102.499 199.151 102.785C198.632 103.052 198.372 103.481 198.372 104.071C198.372 104.374 198.426 104.642 198.533 104.874C198.659 105.107 198.838 105.321 199.07 105.518C199.321 105.696 199.625 105.866 199.983 106.027C200.341 106.187 200.771 106.357 201.272 106.536C201.935 106.786 202.525 107.036 203.044 107.286C203.563 107.518 204.002 107.795 204.36 108.117C204.736 108.438 205.022 108.831 205.219 109.296C205.416 109.742 205.515 110.296 205.515 110.957C205.515 112.243 205.031 113.216 204.065 113.877C203.116 114.538 201.756 114.869 199.983 114.869C198.748 114.869 197.782 114.762 197.084 114.547C196.385 114.351 195.911 114.199 195.66 114.092L196.117 111.948C196.403 112.055 196.86 112.216 197.486 112.43C198.113 112.645 198.945 112.752 199.983 112.752Z" fill="#27235C"/>
<path d="M211.054 100.614H216.343V102.704H211.054V109.135C211.054 109.831 211.107 110.412 211.215 110.876C211.322 111.323 211.483 111.68 211.698 111.948C211.913 112.198 212.181 112.377 212.503 112.484C212.826 112.591 213.202 112.645 213.631 112.645C214.383 112.645 214.983 112.564 215.43 112.404C215.896 112.225 216.218 112.1 216.397 112.029L216.88 114.092C216.63 114.217 216.191 114.369 215.564 114.547C214.938 114.744 214.222 114.842 213.416 114.842C212.468 114.842 211.68 114.726 211.054 114.494C210.445 114.244 209.953 113.877 209.577 113.395C209.201 112.913 208.932 112.323 208.771 111.627C208.628 110.912 208.556 110.09 208.556 109.162V96.729L211.054 96.3003V100.614Z" fill="#27235C"/>
<path d="M222.018 114.547H219.521V100.614H222.018V114.547ZM220.756 98.0955C220.308 98.0955 219.923 97.9526 219.601 97.6668C219.297 97.3631 219.145 96.9612 219.145 96.4611C219.145 95.9609 219.297 95.5679 219.601 95.2821C219.923 94.9784 220.308 94.8266 220.756 94.8266C221.203 94.8266 221.579 94.9784 221.884 95.2821C222.206 95.5679 222.367 95.9609 222.367 96.4611C222.367 96.9612 222.206 97.3631 221.884 97.6668C221.579 97.9526 221.203 98.0955 220.756 98.0955Z" fill="#27235C"/>
<path d="M226.312 101.016C226.885 100.873 227.646 100.721 228.594 100.561C229.543 100.4 230.635 100.319 231.87 100.319C232.98 100.319 233.902 100.48 234.636 100.802C235.37 101.105 235.951 101.543 236.381 102.115C236.828 102.668 237.142 103.338 237.321 104.124C237.5 104.91 237.589 105.777 237.589 106.723V114.547H235.092V107.259C235.092 106.402 235.029 105.669 234.904 105.062C234.797 104.455 234.609 103.963 234.34 103.588C234.072 103.213 233.714 102.945 233.266 102.785C232.819 102.606 232.264 102.517 231.602 102.517C231.333 102.517 231.056 102.526 230.769 102.543C230.483 102.561 230.205 102.588 229.937 102.624C229.686 102.642 229.454 102.668 229.239 102.704C229.042 102.74 228.899 102.767 228.809 102.785V114.547H226.312V101.016Z" fill="#27235C"/>
<path d="M250.483 113.154C250.269 113.297 249.848 113.484 249.221 113.717C248.613 113.931 247.897 114.038 247.073 114.038C246.232 114.038 245.435 113.904 244.684 113.636C243.95 113.368 243.305 112.957 242.75 112.404C242.195 111.832 241.757 111.127 241.435 110.287C241.113 109.447 240.951 108.447 240.951 107.286C240.951 106.268 241.104 105.339 241.408 104.499C241.712 103.642 242.151 102.91 242.724 102.302C243.314 101.677 244.03 101.195 244.872 100.855C245.713 100.498 246.662 100.319 247.718 100.319C248.881 100.319 249.893 100.409 250.752 100.587C251.629 100.748 252.363 100.9 252.954 101.043V113.475C252.954 115.619 252.399 117.173 251.289 118.138C250.179 119.102 248.496 119.585 246.241 119.585C245.364 119.585 244.531 119.513 243.744 119.37C242.974 119.227 242.303 119.058 241.73 118.861L242.187 116.691C242.688 116.887 243.296 117.057 244.012 117.2C244.746 117.361 245.507 117.441 246.295 117.441C247.78 117.441 248.845 117.146 249.49 116.557C250.152 115.967 250.483 115.03 250.483 113.743V113.154ZM250.457 102.811C250.206 102.74 249.866 102.677 249.436 102.624C249.024 102.552 248.461 102.517 247.745 102.517C246.402 102.517 245.364 102.954 244.63 103.83C243.914 104.705 243.556 105.866 243.556 107.313C243.556 108.117 243.654 108.804 243.851 109.376C244.066 109.948 244.344 110.421 244.684 110.796C245.042 111.171 245.444 111.448 245.892 111.627C246.357 111.805 246.832 111.895 247.315 111.895C247.977 111.895 248.586 111.805 249.141 111.627C249.696 111.43 250.134 111.207 250.457 110.957V102.811Z" fill="#27235C"/>
<path d="M259.884 111.493C259.902 111.636 259.911 111.778 259.911 111.921C259.911 112.046 259.911 112.18 259.911 112.323C259.911 113.449 259.741 114.556 259.401 115.646C259.079 116.753 258.631 117.807 258.059 118.808L256.125 118.191C256.573 117.28 256.868 116.351 257.011 115.405C257.155 114.476 257.226 113.601 257.226 112.779C257.226 112.547 257.217 112.323 257.199 112.109C257.199 111.895 257.19 111.689 257.172 111.493H259.884Z" fill="#27235C"/>
<path d="M269.485 105.25C269.485 103.66 269.717 102.258 270.183 101.043C270.666 99.8282 271.31 98.819 272.116 98.0151C272.939 97.1934 273.888 96.5772 274.962 96.1663C276.054 95.7555 277.209 95.55 278.426 95.55C279.625 95.55 280.753 95.7555 281.809 96.1663C282.883 96.5772 283.823 97.1934 284.628 98.0151C285.434 98.819 286.069 99.8282 286.535 101.043C287.018 102.258 287.26 103.66 287.26 105.25C287.26 106.839 287.018 108.242 286.535 109.456C286.069 110.671 285.434 111.689 284.628 112.511C283.823 113.315 282.883 113.922 281.809 114.333C280.753 114.744 279.625 114.949 278.426 114.949C277.209 114.949 276.054 114.744 274.962 114.333C273.888 113.922 272.939 113.315 272.116 112.511C271.31 111.689 270.666 110.671 270.183 109.456C269.717 108.242 269.485 106.839 269.485 105.25ZM272.223 105.25C272.223 106.375 272.366 107.402 272.653 108.331C272.939 109.242 273.342 110.019 273.861 110.662C274.398 111.305 275.043 111.805 275.794 112.163C276.564 112.502 277.423 112.672 278.372 112.672C279.321 112.672 280.171 112.502 280.923 112.163C281.675 111.805 282.31 111.305 282.829 110.662C283.366 110.019 283.778 109.242 284.064 108.331C284.351 107.402 284.494 106.375 284.494 105.25C284.494 104.124 284.351 103.106 284.064 102.195C283.778 101.266 283.366 100.48 282.829 99.8371C282.31 99.1941 281.675 98.7028 280.923 98.3635C280.171 98.0062 279.321 97.8276 278.372 97.8276C277.423 97.8276 276.564 98.0062 275.794 98.3635C275.043 98.7028 274.398 99.1941 273.861 99.8371C273.342 100.48 272.939 101.266 272.653 102.195C272.366 103.106 272.223 104.124 272.223 105.25Z" fill="#27235C"/>
<path d="M302.09 114.145C301.517 114.288 300.756 114.44 299.807 114.601C298.877 114.762 297.794 114.842 296.558 114.842C295.484 114.842 294.58 114.69 293.847 114.386C293.113 114.065 292.522 113.618 292.074 113.047C291.627 112.475 291.305 111.805 291.108 111.037C290.911 110.251 290.812 109.385 290.812 108.438V100.614H293.31V107.902C293.31 109.599 293.578 110.814 294.115 111.546C294.652 112.279 295.556 112.645 296.827 112.645C297.095 112.645 297.373 112.636 297.659 112.618C297.946 112.6 298.214 112.582 298.465 112.564C298.715 112.529 298.939 112.502 299.136 112.484C299.351 112.448 299.503 112.413 299.593 112.377V100.614H302.09V114.145Z" fill="#27235C"/>
<path d="M311.547 100.319C311.762 100.319 312.003 100.337 312.272 100.373C312.558 100.391 312.836 100.427 313.104 100.48C313.373 100.516 313.614 100.561 313.829 100.614C314.062 100.65 314.232 100.686 314.339 100.721L313.91 102.892C313.713 102.82 313.382 102.74 312.916 102.651C312.469 102.543 311.887 102.49 311.171 102.49C310.706 102.49 310.24 102.543 309.775 102.651C309.327 102.74 309.032 102.802 308.889 102.838V114.547H306.392V101.204C306.982 100.989 307.716 100.793 308.593 100.614C309.47 100.418 310.455 100.319 311.547 100.319Z" fill="#27235C"/>
<path d="M332.227 106.777C332.513 107.134 332.871 107.608 333.301 108.197C333.748 108.769 334.205 109.412 334.67 110.126C335.136 110.823 335.592 111.555 336.04 112.323C336.505 113.091 336.899 113.833 337.221 114.547H334.375C334.017 113.868 333.623 113.181 333.194 112.484C332.782 111.787 332.361 111.127 331.932 110.501C331.502 109.858 331.072 109.26 330.643 108.706C330.231 108.152 329.855 107.67 329.515 107.259C329.282 107.277 329.041 107.286 328.79 107.286C328.557 107.286 328.316 107.286 328.065 107.286H325.729V114.547H323.125V96.2467C323.858 96.0681 324.673 95.952 325.568 95.8984C326.481 95.8269 327.313 95.7912 328.065 95.7912C330.679 95.7912 332.665 96.2824 334.026 97.2649C335.404 98.2473 336.093 99.7121 336.093 101.659C336.093 102.892 335.762 103.946 335.1 104.821C334.455 105.696 333.498 106.348 332.227 106.777ZM328.28 98.0687C327.17 98.0687 326.32 98.0955 325.729 98.1491V105.142H327.582C328.477 105.142 329.282 105.098 329.998 105.008C330.714 104.919 331.314 104.749 331.797 104.499C332.298 104.249 332.683 103.901 332.952 103.454C333.22 102.99 333.355 102.383 333.355 101.632C333.355 100.936 333.22 100.355 332.952 99.8907C332.683 99.4263 332.316 99.0601 331.851 98.7922C331.403 98.5242 330.866 98.3367 330.24 98.2295C329.631 98.1223 328.978 98.0687 328.28 98.0687Z" fill="#27235C"/>
<path d="M339.071 107.608C339.071 106.375 339.25 105.303 339.608 104.392C339.966 103.463 340.441 102.695 341.031 102.088C341.622 101.481 342.302 101.025 343.072 100.721C343.842 100.418 344.629 100.266 345.435 100.266C347.314 100.266 348.755 100.855 349.758 102.034C350.76 103.195 351.261 104.973 351.261 107.366C351.261 107.474 351.261 107.616 351.261 107.795C351.261 107.956 351.252 108.108 351.235 108.251H341.676C341.783 109.697 342.204 110.796 342.938 111.546C343.672 112.297 344.817 112.672 346.375 112.672C347.252 112.672 347.986 112.6 348.576 112.457C349.185 112.297 349.641 112.145 349.946 112.002L350.295 114.092C349.99 114.253 349.453 114.422 348.684 114.601C347.932 114.779 347.073 114.869 346.106 114.869C344.889 114.869 343.833 114.69 342.938 114.333C342.061 113.958 341.336 113.449 340.763 112.806C340.19 112.163 339.76 111.403 339.474 110.528C339.205 109.635 339.071 108.661 339.071 107.608ZM348.657 106.241C348.675 105.116 348.388 104.196 347.798 103.481C347.225 102.749 346.428 102.383 345.408 102.383C344.835 102.383 344.325 102.499 343.878 102.731C343.448 102.945 343.081 103.231 342.777 103.588C342.472 103.946 342.231 104.356 342.052 104.821C341.891 105.285 341.783 105.759 341.729 106.241H348.657Z" fill="#27235C"/>
<path d="M358.097 112.752C359.118 112.752 359.87 112.618 360.353 112.35C360.854 112.082 361.105 111.653 361.105 111.064C361.105 110.457 360.863 109.974 360.38 109.617C359.896 109.26 359.1 108.858 357.99 108.411C357.453 108.197 356.934 107.983 356.433 107.768C355.949 107.536 355.529 107.268 355.171 106.964C354.813 106.661 354.526 106.295 354.311 105.866C354.097 105.437 353.989 104.91 353.989 104.285C353.989 103.052 354.446 102.079 355.359 101.364C356.272 100.632 357.516 100.266 359.091 100.266C359.485 100.266 359.878 100.293 360.272 100.346C360.666 100.382 361.033 100.436 361.373 100.507C361.713 100.561 362.009 100.623 362.259 100.695C362.528 100.766 362.734 100.829 362.877 100.882L362.42 103.026C362.152 102.883 361.731 102.74 361.158 102.597C360.586 102.436 359.896 102.356 359.091 102.356C358.393 102.356 357.784 102.499 357.265 102.785C356.746 103.052 356.486 103.481 356.486 104.071C356.486 104.374 356.54 104.642 356.647 104.874C356.773 105.107 356.952 105.321 357.184 105.518C357.435 105.696 357.739 105.866 358.097 106.027C358.455 106.187 358.885 106.357 359.386 106.536C360.049 106.786 360.639 107.036 361.158 107.286C361.677 107.518 362.116 107.795 362.474 108.117C362.85 108.438 363.136 108.831 363.333 109.296C363.53 109.742 363.629 110.296 363.629 110.957C363.629 112.243 363.145 113.216 362.179 113.877C361.23 114.538 359.87 114.869 358.097 114.869C356.862 114.869 355.896 114.762 355.198 114.547C354.499 114.351 354.025 114.199 353.774 114.092L354.231 111.948C354.517 112.055 354.974 112.216 355.6 112.43C356.227 112.645 357.059 112.752 358.097 112.752Z" fill="#27235C"/>
<path d="M376.525 107.608C376.525 105.982 376.122 104.732 375.316 103.856C374.511 102.981 373.437 102.543 372.094 102.543C371.342 102.543 370.752 102.57 370.322 102.624C369.91 102.677 369.579 102.74 369.329 102.811V111.6C369.633 111.85 370.072 112.091 370.644 112.323C371.217 112.556 371.844 112.672 372.524 112.672C373.24 112.672 373.849 112.547 374.35 112.297C374.869 112.029 375.289 111.671 375.612 111.225C375.934 110.76 376.167 110.224 376.31 109.617C376.453 108.992 376.525 108.322 376.525 107.608ZM379.129 107.608C379.129 108.661 378.986 109.635 378.7 110.528C378.431 111.421 378.028 112.189 377.491 112.832C376.954 113.475 376.292 113.976 375.504 114.333C374.735 114.69 373.848 114.869 372.846 114.869C372.041 114.869 371.325 114.762 370.698 114.547C370.089 114.333 369.633 114.127 369.329 113.931V119.504H366.832V101.043C367.422 100.9 368.156 100.748 369.033 100.587C369.928 100.409 370.958 100.319 372.121 100.319C373.195 100.319 374.162 100.489 375.021 100.829C375.88 101.168 376.614 101.65 377.223 102.275C377.831 102.901 378.297 103.669 378.619 104.58C378.959 105.473 379.129 106.482 379.129 107.608Z" fill="#27235C"/>
<path d="M394.967 107.581C394.967 108.688 394.806 109.689 394.484 110.582C394.162 111.475 393.705 112.243 393.115 112.886C392.542 113.529 391.853 114.029 391.047 114.386C390.242 114.726 389.365 114.896 388.416 114.896C387.467 114.896 386.59 114.726 385.784 114.386C384.979 114.029 384.281 113.529 383.69 112.886C383.117 112.243 382.67 111.475 382.348 110.582C382.025 109.689 381.864 108.688 381.864 107.581C381.864 106.491 382.025 105.5 382.348 104.607C382.67 103.696 383.117 102.918 383.69 102.275C384.281 101.632 384.979 101.141 385.784 100.802C386.59 100.444 387.467 100.266 388.416 100.266C389.365 100.266 390.242 100.444 391.047 100.802C391.853 101.141 392.542 101.632 393.115 102.275C393.705 102.918 394.162 103.696 394.484 104.607C394.806 105.5 394.967 106.491 394.967 107.581ZM392.363 107.581C392.363 106.009 392.005 104.767 391.289 103.856C390.591 102.927 389.633 102.463 388.416 102.463C387.199 102.463 386.232 102.927 385.516 103.856C384.818 104.767 384.469 106.009 384.469 107.581C384.469 109.153 384.818 110.403 385.516 111.332C386.232 112.243 387.199 112.698 388.416 112.698C389.633 112.698 390.591 112.243 391.289 111.332C392.005 110.403 392.363 109.153 392.363 107.581Z" fill="#27235C"/>
<path d="M398.481 101.016C399.053 100.873 399.814 100.721 400.763 100.561C401.712 100.4 402.804 100.319 404.039 100.319C405.148 100.319 406.07 100.48 406.804 100.802C407.538 101.105 408.12 101.543 408.55 102.115C408.997 102.668 409.31 103.338 409.489 104.124C409.668 104.91 409.758 105.777 409.758 106.723V114.547H407.261V107.259C407.261 106.402 407.198 105.669 407.073 105.062C406.965 104.455 406.777 103.963 406.509 103.588C406.24 103.213 405.882 102.945 405.435 102.785C404.987 102.606 404.432 102.517 403.77 102.517C403.502 102.517 403.224 102.526 402.938 102.543C402.651 102.561 402.374 102.588 402.105 102.624C401.855 102.642 401.622 102.668 401.407 102.704C401.21 102.74 401.067 102.767 400.978 102.785V114.547H398.481V101.016Z" fill="#27235C"/>
<path d="M417.148 112.752C418.168 112.752 418.92 112.618 419.403 112.35C419.904 112.082 420.155 111.653 420.155 111.064C420.155 110.457 419.913 109.974 419.43 109.617C418.947 109.26 418.15 108.858 417.04 108.411C416.503 108.197 415.984 107.983 415.483 107.768C415 107.536 414.579 107.268 414.221 106.964C413.863 106.661 413.576 106.295 413.362 105.866C413.147 105.437 413.039 104.91 413.039 104.285C413.039 103.052 413.496 102.079 414.409 101.364C415.322 100.632 416.566 100.266 418.141 100.266C418.535 100.266 418.929 100.293 419.323 100.346C419.716 100.382 420.083 100.436 420.423 100.507C420.763 100.561 421.059 100.623 421.309 100.695C421.578 100.766 421.784 100.829 421.927 100.882L421.471 103.026C421.202 102.883 420.781 102.74 420.209 102.597C419.636 102.436 418.947 102.356 418.141 102.356C417.443 102.356 416.834 102.499 416.315 102.785C415.796 103.052 415.537 103.481 415.537 104.071C415.537 104.374 415.59 104.642 415.698 104.874C415.823 105.107 416.002 105.321 416.235 105.518C416.485 105.696 416.79 105.866 417.148 106.027C417.506 106.187 417.935 106.357 418.436 106.536C419.099 106.786 419.689 107.036 420.209 107.286C420.728 107.518 421.166 107.795 421.524 108.117C421.9 108.438 422.187 108.831 422.383 109.296C422.58 109.742 422.679 110.296 422.679 110.957C422.679 112.243 422.196 113.216 421.229 113.877C420.28 114.538 418.92 114.869 417.148 114.869C415.912 114.869 414.946 114.762 414.248 114.547C413.55 114.351 413.075 114.199 412.825 114.092L413.281 111.948C413.568 112.055 414.024 112.216 414.65 112.43C415.277 112.645 416.109 112.752 417.148 112.752Z" fill="#27235C"/>
<path d="M428.379 114.547H425.882V100.614H428.379V114.547ZM427.117 98.0955C426.669 98.0955 426.285 97.9526 425.962 97.6668C425.658 97.3631 425.506 96.9612 425.506 96.4611C425.506 95.9609 425.658 95.5679 425.962 95.2821C426.285 94.9784 426.669 94.8266 427.117 94.8266C427.564 94.8266 427.94 94.9784 428.245 95.2821C428.567 95.5679 428.728 95.9609 428.728 96.4611C428.728 96.9612 428.567 97.3631 428.245 97.6668C427.94 97.9526 427.564 98.0955 427.117 98.0955Z" fill="#27235C"/>
<path d="M435.17 101.23C435.474 101.034 435.931 100.829 436.54 100.614C437.166 100.4 437.882 100.293 438.688 100.293C439.69 100.293 440.576 100.471 441.346 100.829C442.133 101.186 442.796 101.686 443.333 102.329C443.87 102.972 444.272 103.74 444.541 104.633C444.827 105.526 444.971 106.509 444.971 107.581C444.971 108.706 444.801 109.724 444.46 110.635C444.138 111.528 443.673 112.288 443.064 112.913C442.456 113.538 441.722 114.02 440.862 114.36C440.003 114.699 439.037 114.869 437.963 114.869C436.799 114.869 435.77 114.788 434.875 114.628C433.98 114.467 433.246 114.306 432.673 114.145V94.1835L435.17 93.7548V101.23ZM435.17 112.377C435.421 112.448 435.77 112.52 436.217 112.591C436.683 112.645 437.256 112.672 437.936 112.672C439.278 112.672 440.352 112.234 441.158 111.359C441.963 110.466 442.366 109.206 442.366 107.581C442.366 106.866 442.295 106.196 442.151 105.571C442.008 104.946 441.775 104.41 441.453 103.963C441.131 103.499 440.71 103.142 440.191 102.892C439.69 102.624 439.081 102.49 438.365 102.49C437.685 102.49 437.059 102.606 436.486 102.838C435.913 103.07 435.474 103.311 435.17 103.562V112.377Z" fill="#27235C"/>
<path d="M450.982 114.547H448.484V100.614H450.982V114.547ZM449.72 98.0955C449.272 98.0955 448.887 97.9526 448.565 97.6668C448.261 97.3631 448.109 96.9612 448.109 96.4611C448.109 95.9609 448.261 95.5679 448.565 95.2821C448.887 94.9784 449.272 94.8266 449.72 94.8266C450.167 94.8266 450.543 94.9784 450.847 95.2821C451.17 95.5679 451.331 95.9609 451.331 96.4611C451.331 96.9612 451.17 97.3631 450.847 97.6668C450.543 97.9526 450.167 98.0955 449.72 98.0955Z" fill="#27235C"/>
<path d="M459.464 114.815C457.925 114.779 456.833 114.449 456.189 113.824C455.544 113.199 455.222 112.225 455.222 110.903V94.1835L457.719 93.7548V110.501C457.719 110.912 457.755 111.252 457.827 111.519C457.898 111.787 458.015 112.002 458.176 112.163C458.337 112.323 458.552 112.448 458.82 112.538C459.089 112.609 459.42 112.672 459.814 112.725L459.464 114.815Z" fill="#27235C"/>
<path d="M465.115 114.547H462.618V100.614H465.115V114.547ZM463.853 98.0955C463.405 98.0955 463.02 97.9526 462.698 97.6668C462.394 97.3631 462.242 96.9612 462.242 96.4611C462.242 95.9609 462.394 95.5679 462.698 95.2821C463.02 94.9784 463.405 94.8266 463.853 94.8266C464.3 94.8266 464.676 94.9784 464.981 95.2821C465.303 95.5679 465.464 95.9609 465.464 96.4611C465.464 96.9612 465.303 97.3631 464.981 97.6668C464.676 97.9526 464.3 98.0955 463.853 98.0955Z" fill="#27235C"/>
<path d="M471.745 100.614H477.035V102.704H471.745V109.135C471.745 109.831 471.799 110.412 471.906 110.876C472.014 111.323 472.175 111.68 472.389 111.948C472.604 112.198 472.873 112.377 473.195 112.484C473.517 112.591 473.893 112.645 474.323 112.645C475.074 112.645 475.674 112.564 476.122 112.404C476.587 112.225 476.909 112.1 477.088 112.029L477.572 114.092C477.321 114.217 476.882 114.369 476.256 114.547C475.629 114.744 474.913 114.842 474.108 114.842C473.159 114.842 472.372 114.726 471.745 114.494C471.136 114.244 470.644 113.877 470.268 113.395C469.892 112.913 469.624 112.323 469.463 111.627C469.32 110.912 469.248 110.09 469.248 109.162V96.729L471.745 96.3003V100.614Z" fill="#27235C"/>
<path d="M478.574 117.146C478.771 117.236 479.022 117.316 479.326 117.387C479.648 117.477 479.962 117.521 480.266 117.521C481.25 117.521 482.02 117.298 482.575 116.852C483.13 116.423 483.631 115.717 484.079 114.735C482.951 112.591 481.895 110.323 480.91 107.929C479.944 105.518 479.138 103.079 478.494 100.614H481.179C481.376 101.418 481.608 102.284 481.877 103.213C482.163 104.142 482.477 105.098 482.817 106.08C483.157 107.063 483.524 108.045 483.918 109.028C484.311 110.01 484.723 110.957 485.153 111.868C485.833 109.992 486.424 108.134 486.925 106.295C487.426 104.455 487.9 102.561 488.348 100.614H490.926C490.281 103.24 489.565 105.768 488.777 108.197C487.99 110.608 487.14 112.868 486.227 114.976C485.869 115.78 485.493 116.468 485.099 117.039C484.723 117.629 484.302 118.111 483.837 118.486C483.372 118.861 482.844 119.138 482.253 119.317C481.68 119.495 481.027 119.585 480.293 119.585C480.096 119.585 479.89 119.567 479.675 119.531C479.46 119.513 479.246 119.477 479.031 119.424C478.834 119.388 478.646 119.343 478.467 119.29C478.306 119.236 478.189 119.192 478.118 119.156L478.574 117.146Z" fill="#27235C"/>
<path d="M495.78 113.1C495.78 113.583 495.619 114.002 495.297 114.36C494.975 114.717 494.536 114.896 493.981 114.896C493.426 114.896 492.988 114.717 492.666 114.36C492.343 114.002 492.182 113.583 492.182 113.1C492.182 112.618 492.343 112.198 492.666 111.841C492.988 111.484 493.426 111.305 493.981 111.305C494.536 111.305 494.975 111.484 495.297 111.841C495.619 112.198 495.78 112.618 495.78 113.1Z" fill="#27235C"/>
<path d="M474.109 75.5641C471.039 75.5641 468.282 74.9689 465.839 73.7786C463.458 72.5256 461.422 70.834 459.73 68.7039C458.102 66.5738 456.848 64.1304 455.971 61.3738C455.157 58.5546 454.75 55.5474 454.75 52.3522C454.812 49.1571 455.282 46.1812 456.159 43.4246C457.036 40.6053 458.289 38.162 459.918 36.0945C461.61 33.9644 463.646 32.3042 466.027 31.1138C468.407 29.9235 471.101 29.3283 474.109 29.3283C476.991 29.3283 479.684 29.9235 482.19 31.1138C484.759 32.3042 487.015 33.9644 488.957 36.0945C490.962 38.162 492.528 40.6053 493.655 43.4246C494.783 46.1812 495.347 49.1258 495.347 52.2583C495.347 55.5161 494.783 58.5859 493.655 61.4678C492.528 64.2871 490.993 66.7618 489.051 68.8919C487.109 70.9593 484.853 72.5882 482.284 73.7786C479.716 74.9689 476.991 75.5641 474.109 75.5641ZM472.605 64.569C474.798 64.569 476.771 64.0678 478.525 63.0654C480.28 62.0003 481.658 60.5594 482.66 58.7425C483.725 56.9257 484.258 54.8582 484.258 52.5402C484.258 50.1595 483.725 48.0607 482.66 46.2438C481.658 44.3643 480.28 42.9234 478.525 41.921C476.771 40.8559 474.798 40.3234 472.605 40.3234C470.475 40.3234 468.533 40.8559 466.779 41.921C465.024 42.986 463.615 44.427 462.55 46.2438C461.547 48.0607 461.046 50.1595 461.046 52.5402C461.046 54.8582 461.547 56.9257 462.55 58.7425C463.615 60.5594 465.024 62.0003 466.779 63.0654C468.533 64.0678 470.475 64.569 472.605 64.569ZM455.22 75.6581C453.528 75.6581 452.275 75.3761 451.461 74.8123C450.646 74.3111 450.145 73.6533 449.957 72.8388C449.769 71.9617 449.675 70.9906 449.675 69.9256V13.9164C449.675 12.8513 449.769 11.9116 449.957 11.0971C450.145 10.22 450.646 9.53089 451.461 9.02969C452.275 8.52849 453.528 8.27789 455.22 8.27789C456.974 8.27789 458.227 8.52849 458.979 9.02969C459.73 9.53089 460.2 10.22 460.388 11.0971C460.576 11.9742 460.67 12.914 460.67 13.9164V71.8051C460.42 73.1834 459.887 74.1545 459.073 74.7183C458.321 75.3448 457.036 75.6581 455.22 75.6581Z" fill="#27235C" stroke="#27235C" stroke-width="0.2"/>
<path d="M421.665 76.2232C417.593 76.2232 414.022 75.5654 410.952 74.2497C407.945 72.9341 405.408 71.1486 403.34 68.8932C401.336 66.5751 399.801 64.0065 398.736 61.1872C397.733 58.3053 397.232 55.3294 397.232 52.2596C397.232 47.7488 398.266 43.7392 400.333 40.2307C402.401 36.7223 405.251 33.9657 408.885 31.9609C412.581 29.9561 416.81 28.9537 421.572 28.9537C424.955 28.9537 427.931 29.4863 430.499 30.5513C433.068 31.6164 435.198 33.026 436.889 34.7802C438.644 36.4717 439.959 38.3512 440.836 40.4187C441.776 42.4862 442.246 44.491 442.246 46.4331C442.246 49.7536 441.432 52.1656 439.803 53.6692C438.236 55.1728 436.263 55.9246 433.882 55.9246H409.073C409.135 58.0547 409.793 59.9029 411.046 61.4691C412.362 63.0354 413.991 64.257 415.933 65.1342C417.938 65.9486 419.974 66.3558 422.041 66.3558C423.608 66.3558 424.986 66.2619 426.176 66.0739C427.429 65.886 428.494 65.6667 429.371 65.4161C430.249 65.1028 431 64.7896 431.627 64.4763C432.316 64.1631 432.943 63.8811 433.506 63.6305C434.07 63.3799 434.603 63.2233 435.104 63.1607C435.793 63.098 436.482 63.2546 437.171 63.6305C437.861 64.0065 438.424 64.6643 438.863 65.604C439.239 66.2305 439.489 66.8257 439.615 67.3896C439.803 67.8908 439.897 68.392 439.897 68.8932C439.897 70.1462 439.145 71.3365 437.641 72.4642C436.138 73.5293 434.008 74.4064 431.251 75.0955C428.557 75.8473 425.362 76.2232 421.665 76.2232ZM409.073 49.2524H428.338C429.403 49.2524 430.217 49.0957 430.781 48.7825C431.345 48.4066 431.627 47.6548 431.627 46.5271C431.627 45.0861 431.188 43.8018 430.311 42.6741C429.434 41.4837 428.244 40.5753 426.74 39.9488C425.237 39.2597 423.482 38.9151 421.478 38.9151C419.16 38.9151 417.061 39.385 415.181 40.3247C413.302 41.2018 411.798 42.4235 410.67 43.9898C409.605 45.556 409.073 47.3102 409.073 49.2524Z" fill="#27235C" stroke="#27235C" stroke-width="0.2"/>
<path d="M337.589 75.3797C336.336 75.3797 335.334 75.1605 334.582 74.7219C333.83 74.2207 333.266 73.6569 332.891 73.0304C332.577 72.4039 332.358 71.8713 332.233 71.4328L313.814 17.4911C313.187 15.4863 313.093 13.9827 313.532 12.9803C313.97 11.9152 315.254 11.0381 317.385 10.349C318.826 9.84776 319.985 9.62848 320.862 9.69113C321.739 9.75378 322.459 10.1297 323.023 10.8188C323.65 11.4453 324.182 12.4477 324.621 13.826L338.153 54.7992L350.276 14.2019C350.464 13.5754 350.714 12.9489 351.028 12.3224C351.404 11.6333 351.967 11.0694 352.719 10.6309C353.471 10.1923 354.505 9.97306 355.82 9.97306C357.324 9.97306 358.452 10.2237 359.204 10.7249C359.955 11.2261 360.488 11.7899 360.801 12.4164C361.177 12.9803 361.428 13.5128 361.553 14.014L373.676 55.0811L387.302 13.92C387.741 12.4791 388.242 11.414 388.806 10.7249C389.432 10.0357 390.215 9.65981 391.155 9.59716C392.095 9.47186 393.254 9.65981 394.632 10.161C396.073 10.6622 397.107 11.2261 397.733 11.8526C398.36 12.4164 398.673 13.1682 398.673 14.108C398.673 14.9851 398.454 16.1128 398.015 17.4911L379.69 71.5268C379.565 71.9027 379.314 72.4039 378.938 73.0304C378.625 73.6569 378.093 74.2207 377.341 74.7219C376.589 75.1605 375.555 75.3797 374.24 75.3797C372.924 75.3797 371.89 75.0978 371.138 74.534C370.387 73.9701 369.823 73.3436 369.447 72.6545C369.071 71.9653 368.82 71.4641 368.695 71.1509L355.914 29.8018L343.134 71.0569C343.009 71.4954 342.758 72.0593 342.382 72.7484C342.069 73.4376 341.536 74.0641 340.784 74.6279C340.033 75.1291 338.968 75.3797 337.589 75.3797Z" fill="#27235C" stroke="#27235C" stroke-width="0.2"/>
<path d="M288.725 76.224C287.096 76.224 285.373 76.036 283.556 75.6601C281.739 75.3469 279.985 74.877 278.293 74.2505C276.602 73.5614 275.129 72.7782 273.876 71.9011C272.686 70.9614 271.934 69.9277 271.621 68.8C271.37 68.1735 271.276 67.5783 271.339 67.0144C271.402 66.3879 271.59 65.7614 271.903 65.1349C272.216 64.4458 272.686 63.7566 273.313 63.0675C273.876 62.3783 274.44 62.0024 275.004 61.9398C275.631 61.8145 276.414 62.0024 277.354 62.5036C278.168 62.8169 279.045 63.2241 279.985 63.7253C280.987 64.2265 281.99 64.7277 282.992 65.2289C284.057 65.7301 285.122 66.1373 286.187 66.4506C287.315 66.7638 288.411 66.9205 289.476 66.9205C291.794 66.9205 293.643 66.5446 295.021 65.7928C296.399 64.9783 297.088 63.8506 297.088 62.4097C297.088 61.5952 296.869 60.8747 296.431 60.2482C295.992 59.6217 295.397 59.1205 294.645 58.7446C293.956 58.3061 293.11 57.9302 292.108 57.6169C291.168 57.241 290.134 56.9278 289.006 56.6772C287.941 56.3639 286.814 56.0194 285.623 55.6435C284.057 55.2049 282.491 54.6724 280.925 54.0459C279.358 53.4194 277.949 52.6049 276.696 51.6025C275.505 50.6001 274.534 49.3471 273.782 47.8435C273.031 46.3399 272.655 44.4604 272.655 42.205C272.655 39.3857 273.313 37.005 274.628 35.0629C276.007 33.0581 277.98 31.5232 280.549 30.4581C283.117 29.3931 286.219 28.8605 289.852 28.8605C291.105 28.8605 292.296 28.9545 293.423 29.1425C294.614 29.3304 295.741 29.6123 296.806 29.9882C297.934 30.3015 298.999 30.7087 300.002 31.2099C301.067 31.7111 302.069 32.275 303.009 32.9015C304.575 33.7786 305.389 34.8123 305.452 36.0026C305.515 37.1303 305.076 38.352 304.136 39.6677C303.447 40.5448 302.758 41.1713 302.069 41.5472C301.38 41.8604 300.659 41.8604 299.908 41.5472C298.905 41.046 297.809 40.5135 296.618 39.9496C295.491 39.3231 294.3 38.7906 293.047 38.352C291.857 37.9135 290.604 37.6942 289.288 37.6942C288.035 37.6942 286.908 37.8822 285.905 38.2581C284.903 38.634 284.151 39.1665 283.65 39.8556C283.149 40.5448 282.898 41.3592 282.898 42.299C282.898 43.1761 283.149 43.8966 283.65 44.4604C284.151 45.0243 284.809 45.4941 285.623 45.87C286.438 46.2459 287.409 46.5905 288.537 46.9038C289.664 47.1544 290.855 47.405 292.108 47.6556C293.862 48.0315 295.647 48.5013 297.464 49.0652C299.281 49.629 300.941 50.4122 302.445 51.4146C304.011 52.417 305.264 53.7639 306.204 55.4555C307.144 57.0844 307.614 59.2145 307.614 61.8458C307.614 66.4193 305.922 69.959 302.539 72.465C299.218 74.971 294.614 76.224 288.725 76.224Z" fill="#27235C" stroke="#27235C" stroke-width="0.2"/>
<path d="M244.362 76.2226C240.289 76.2226 236.718 75.5648 233.648 74.2491C230.641 72.9335 228.104 71.148 226.036 68.8925C224.032 66.5745 222.497 64.0058 221.432 61.1866C220.429 58.3047 219.928 55.3288 219.928 52.259C219.928 47.7481 220.962 43.7385 223.029 40.2301C225.097 36.7217 227.947 33.9651 231.581 31.9603C235.277 29.9555 239.506 28.9531 244.268 28.9531C247.651 28.9531 250.627 29.4856 253.195 30.5507C255.764 31.6158 257.894 33.0254 259.586 34.7796C261.34 36.4711 262.655 38.3506 263.532 40.4181C264.472 42.4855 264.942 44.4903 264.942 46.4325C264.942 49.7529 264.128 52.165 262.499 53.6686C260.933 55.1722 258.959 55.924 256.578 55.924H231.769C231.832 58.0541 232.489 59.9023 233.742 61.4685C235.058 63.0348 236.687 64.2564 238.629 65.1335C240.634 65.948 242.67 66.3552 244.737 66.3552C246.304 66.3552 247.682 66.2612 248.872 66.0733C250.125 65.8853 251.19 65.6661 252.068 65.4155C252.945 65.1022 253.696 64.789 254.323 64.4757C255.012 64.1625 255.639 63.8805 256.202 63.6299C256.766 63.3793 257.299 63.2227 257.8 63.1601C258.489 63.0974 259.178 63.254 259.867 63.6299C260.557 64.0058 261.12 64.6637 261.559 65.6034C261.935 66.2299 262.186 66.8251 262.311 67.3889C262.499 67.8901 262.593 68.3913 262.593 68.8925C262.593 70.1456 261.841 71.3359 260.337 72.4636C258.834 73.5287 256.704 74.4058 253.947 75.0949C251.253 75.8467 248.058 76.2226 244.362 76.2226ZM231.769 49.2517H251.034C252.099 49.2517 252.913 49.0951 253.477 48.7819C254.041 48.406 254.323 47.6542 254.323 46.5265C254.323 45.0855 253.884 43.8012 253.007 42.6735C252.13 41.4831 250.94 40.5747 249.436 39.9482C247.933 39.2591 246.178 38.9145 244.174 38.9145C241.856 38.9145 239.757 39.3844 237.877 40.3241C235.998 41.2012 234.494 42.4229 233.366 43.9891C232.301 45.5554 231.769 47.3096 231.769 49.2517Z" fill="#27235C" stroke="#27235C" stroke-width="0.2"/>
<path d="M210.813 75.6621C208.495 75.6621 206.427 75.5055 204.611 75.1922C202.856 74.879 201.321 74.3464 200.006 73.5946C198.753 72.8428 197.719 71.8404 196.905 70.5874C196.09 69.2718 195.464 67.6742 195.025 65.7947C194.649 63.9152 194.461 61.6598 194.461 59.0285V13.7325C194.461 12.6674 194.555 11.7277 194.743 10.9132C194.994 10.0361 195.495 9.34698 196.247 8.84577C197.061 8.28192 198.345 8 200.1 8C201.854 8 203.107 8.2506 203.859 8.7518C204.673 9.253 205.174 9.94215 205.362 10.8193C205.613 11.6337 205.738 12.5735 205.738 13.6385V58.5586C205.738 59.749 205.801 60.7514 205.926 61.5658C206.114 62.3176 206.396 62.9441 206.772 63.4453C207.21 63.8839 207.743 64.1971 208.37 64.3851C209.059 64.573 209.873 64.667 210.813 64.667C211.627 64.667 212.348 64.761 212.974 64.9489C213.663 65.1369 214.196 65.6068 214.572 66.3586C215.01 67.1104 215.23 68.332 215.23 70.0236C215.23 71.7778 215.01 73.0621 214.572 73.8766C214.196 74.691 213.663 75.1922 212.974 75.3802C212.285 75.5681 211.565 75.6621 210.813 75.6621Z" fill="#27235C" stroke="#27235C" stroke-width="0.2"/>
<path d="M178.728 75.6608C177.036 75.6608 175.783 75.3789 174.969 74.815C174.155 74.3138 173.653 73.656 173.465 72.8415C173.277 71.9644 173.184 70.9934 173.184 69.9283V34.9696C173.184 33.9672 173.277 33.0587 173.465 32.2443C173.716 31.3672 174.217 30.678 174.969 30.1768C175.783 29.6756 177.068 29.425 178.822 29.425C180.576 29.425 181.829 29.6756 182.581 30.1768C183.395 30.678 183.897 31.3672 184.085 32.2443C184.273 33.1214 184.367 34.0925 184.367 35.1575V70.0223C184.367 71.0873 184.273 72.0584 184.085 72.9355C183.897 73.75 183.395 74.4078 182.581 74.909C181.829 75.4102 180.545 75.6608 178.728 75.6608ZM178.728 20.3094C176.911 20.3094 175.564 20.0588 174.687 19.5576C173.873 18.9938 173.34 18.242 173.09 17.3022C172.902 16.3625 172.808 15.3287 172.808 14.201C172.808 13.0107 172.902 11.977 173.09 11.0999C173.34 10.2228 173.904 9.53362 174.781 9.03242C175.658 8.46857 177.005 8.18665 178.822 8.18665C180.702 8.18665 182.049 8.46857 182.863 9.03242C183.677 9.59627 184.21 10.3481 184.461 11.2878C184.711 12.1649 184.836 13.1987 184.836 14.389C184.836 15.4541 184.711 16.4565 184.461 17.3962C184.21 18.336 183.677 19.0564 182.863 19.5576C182.049 20.0588 180.67 20.3094 178.728 20.3094Z" fill="#27235C" stroke="#27235C" stroke-width="0.2"/>
<path d="M101.545 75.5659C99.9156 75.5659 98.694 75.3153 97.8795 74.8141C97.0651 74.3129 96.5325 73.6238 96.2819 72.7467C96.094 71.8696 96 70.8985 96 69.8335V15.6098C96 14.6074 96.094 13.699 96.2819 12.8845C96.5325 12.0074 97.0651 11.3183 97.8795 10.8171C98.694 10.2532 99.9783 9.97131 101.732 9.97131C103.048 9.97131 104.019 10.0653 104.646 10.2532C105.335 10.3785 105.867 10.5978 106.243 10.9111C106.619 11.1617 106.995 11.5062 107.371 11.9448L130.301 43.9903H128.14L151.163 11.8508C151.602 11.3496 152.041 10.9737 152.479 10.7231C152.918 10.4725 153.482 10.2846 154.171 10.1593C154.86 10.034 155.768 9.97131 156.896 9.97131C158.588 9.97131 159.841 10.2532 160.655 10.8171C161.469 11.3183 161.971 12.0074 162.159 12.8845C162.409 13.7616 162.534 14.7327 162.534 15.7978V70.0214C162.534 70.9611 162.409 71.8696 162.159 72.7467C161.971 73.6238 161.469 74.3129 160.655 74.8141C159.841 75.3153 158.556 75.5659 156.802 75.5659C155.11 75.5659 153.857 75.284 153.043 74.7202C152.229 74.219 151.696 73.5298 151.445 72.6527C151.257 71.7756 151.163 70.8359 151.163 69.8335V29.5181L134.06 54.2336C133.872 54.4842 133.59 54.8288 133.214 55.2673C132.838 55.6432 132.337 55.9878 131.711 56.301C131.084 56.6143 130.238 56.7709 129.173 56.7709C128.171 56.7709 127.356 56.6143 126.73 56.301C126.103 55.9878 125.602 55.6432 125.226 55.2673C124.913 54.8914 124.6 54.5155 124.287 54.1396L107.277 29.5181V70.0214C107.277 70.9611 107.152 71.8696 106.901 72.7467C106.713 73.6238 106.212 74.3129 105.398 74.8141C104.583 75.3153 103.299 75.5659 101.545 75.5659Z" fill="#27235C" stroke="#27235C" stroke-width="0.2"/>
</svg>
