<svg width="180" height="181" viewBox="0 0 180 181" fill="none" xmlns="http://www.w3.org/2000/svg">
<path d="M82.2441 116.722C82.2441 116.015 82.8168 115.443 83.5232 115.443H171.78C172.486 115.443 173.059 116.015 173.059 116.722V116.722C173.059 117.428 172.486 118.001 171.78 118.001H83.5232C82.8168 118.001 82.2441 117.428 82.2441 116.722V116.722Z" fill="#FFBB00"/>
<path d="M10.3233 107.289V104.193C9.80993 103.399 9.32628 102.615 8.8724 101.843C8.41851 101.071 7.99067 100.313 7.58887 99.5709H8.86124C9.14398 100.18 9.46022 100.8 9.80993 101.431C10.1596 102.055 10.5205 102.656 10.8926 103.235C11.2572 102.656 11.6143 102.055 11.964 101.431C12.3137 100.8 12.6337 100.18 12.9239 99.5709H14.1293C13.7275 100.313 13.2996 101.071 12.8458 101.843C12.3919 102.608 11.9119 103.384 11.406 104.171V107.289H10.3233Z" fill="#27235C"/>
<path d="M19.6633 104.394C19.6633 104.854 19.5963 105.27 19.4624 105.641C19.3285 106.012 19.1387 106.332 18.8932 106.599C18.6551 106.866 18.3686 107.074 18.0338 107.223C17.6989 107.364 17.3343 107.434 16.94 107.434C16.5456 107.434 16.181 107.364 15.8462 107.223C15.5113 107.074 15.2212 106.866 14.9756 106.599C14.7375 106.332 14.5515 106.012 14.4176 105.641C14.2836 105.27 14.2167 104.854 14.2167 104.394C14.2167 103.941 14.2836 103.529 14.4176 103.157C14.5515 102.779 14.7375 102.456 14.9756 102.188C15.2212 101.921 15.5113 101.717 15.8462 101.576C16.181 101.427 16.5456 101.353 16.94 101.353C17.3343 101.353 17.6989 101.427 18.0338 101.576C18.3686 101.717 18.6551 101.921 18.8932 102.188C19.1387 102.456 19.3285 102.779 19.4624 103.157C19.5963 103.529 19.6633 103.941 19.6633 104.394ZM18.5807 104.394C18.5807 103.74 18.4318 103.224 18.1342 102.845C17.844 102.459 17.4459 102.266 16.94 102.266C16.434 102.266 16.0322 102.459 15.7346 102.845C15.4444 103.224 15.2993 103.74 15.2993 104.394C15.2993 105.047 15.4444 105.567 15.7346 105.953C16.0322 106.332 16.434 106.521 16.94 106.521C17.4459 106.521 17.844 106.332 18.1342 105.953C18.4318 105.567 18.5807 105.047 18.5807 104.394Z" fill="#27235C"/>
<path d="M25.7444 107.122C25.5063 107.182 25.19 107.245 24.7957 107.312C24.4087 107.379 23.9586 107.412 23.4452 107.412C22.9987 107.412 22.623 107.349 22.3179 107.223C22.0128 107.089 21.7673 106.903 21.5813 106.666C21.3952 106.428 21.2613 106.15 21.1795 105.83C21.0976 105.504 21.0567 105.144 21.0567 104.75V101.498H22.0947V104.527C22.0947 105.233 22.2063 105.738 22.4295 106.042C22.6527 106.346 23.0285 106.499 23.5568 106.499C23.6684 106.499 23.7837 106.495 23.9028 106.487C24.0218 106.48 24.1334 106.473 24.2376 106.465C24.3418 106.45 24.4348 106.439 24.5166 106.432C24.6059 106.417 24.6692 106.402 24.7064 106.387V101.498H25.7444V107.122Z" fill="#27235C"/>
<path d="M29.6755 101.375C29.7648 101.375 29.8653 101.383 29.9769 101.398C30.0959 101.405 30.2112 101.42 30.3229 101.442C30.4345 101.457 30.5349 101.475 30.6242 101.498C30.7209 101.513 30.7916 101.527 30.8363 101.542L30.6577 102.444C30.5758 102.415 30.4382 102.381 30.2447 102.344C30.0587 102.3 29.8169 102.277 29.5193 102.277C29.3258 102.277 29.1323 102.3 28.9389 102.344C28.7529 102.381 28.6301 102.407 28.5706 102.422V107.289H27.5326V101.743C27.7781 101.654 28.0832 101.572 28.4478 101.498C28.8124 101.416 29.2216 101.375 29.6755 101.375Z" fill="#27235C"/>
<path d="M39.3543 99.5709H40.4369V107.289H39.3543V103.725H35.5707V107.289H34.4881V99.5709H35.5707V102.79H39.3543V99.5709Z" fill="#27235C"/>
<path d="M47.4135 104.394C47.4135 104.854 47.3465 105.27 47.2126 105.641C47.0787 106.012 46.8889 106.332 46.6434 106.599C46.4053 106.866 46.1188 107.074 45.784 107.223C45.4491 107.364 45.0845 107.434 44.6902 107.434C44.2958 107.434 43.9312 107.364 43.5964 107.223C43.2616 107.074 42.9714 106.866 42.7258 106.599C42.4877 106.332 42.3017 106.012 42.1678 105.641C42.0338 105.27 41.9669 104.854 41.9669 104.394C41.9669 103.941 42.0338 103.529 42.1678 103.157C42.3017 102.779 42.4877 102.456 42.7258 102.188C42.9714 101.921 43.2616 101.717 43.5964 101.576C43.9312 101.427 44.2958 101.353 44.6902 101.353C45.0845 101.353 45.4491 101.427 45.784 101.576C46.1188 101.717 46.4053 101.921 46.6434 102.188C46.8889 102.456 47.0787 102.779 47.2126 103.157C47.3465 103.529 47.4135 103.941 47.4135 104.394ZM46.3309 104.394C46.3309 103.74 46.1821 103.224 45.8844 102.845C45.5942 102.459 45.1962 102.266 44.6902 102.266C44.1842 102.266 43.7824 102.459 43.4848 102.845C43.1946 103.224 43.0495 103.74 43.0495 104.394C43.0495 105.047 43.1946 105.567 43.4848 105.953C43.7824 106.332 44.1842 106.521 44.6902 106.521C45.1962 106.521 45.5942 106.332 45.8844 105.953C46.1821 105.567 46.3309 105.047 46.3309 104.394Z" fill="#27235C"/>
<path d="M50.2244 106.543C50.6485 106.543 50.961 106.487 51.1619 106.376C51.3702 106.265 51.4744 106.087 51.4744 105.842C51.4744 105.589 51.374 105.389 51.1731 105.24C50.9722 105.092 50.641 104.924 50.1797 104.739C49.9565 104.65 49.7407 104.561 49.5324 104.472C49.3315 104.375 49.1566 104.264 49.0078 104.137C48.859 104.011 48.7399 103.859 48.6506 103.681C48.5614 103.503 48.5167 103.284 48.5167 103.024C48.5167 102.511 48.7065 102.107 49.0859 101.81C49.4654 101.505 49.9825 101.353 50.6373 101.353C50.801 101.353 50.9647 101.364 51.1284 101.386C51.2921 101.401 51.4446 101.423 51.586 101.453C51.7274 101.475 51.8502 101.501 51.9543 101.531C52.0659 101.561 52.1515 101.587 52.211 101.609L52.0213 102.5C51.9097 102.441 51.7348 102.381 51.4967 102.322C51.2586 102.255 50.9722 102.222 50.6373 102.222C50.3471 102.222 50.0941 102.281 49.8784 102.4C49.6626 102.511 49.5547 102.689 49.5547 102.935C49.5547 103.061 49.577 103.172 49.6217 103.269C49.6738 103.365 49.7482 103.454 49.8449 103.536C49.9491 103.61 50.0756 103.681 50.2244 103.748C50.3732 103.814 50.5518 103.885 50.7601 103.959C51.0354 104.063 51.281 104.167 51.4967 104.271C51.7125 104.368 51.8948 104.483 52.0436 104.616C52.1999 104.75 52.3189 104.913 52.4008 105.106C52.4826 105.292 52.5236 105.522 52.5236 105.797C52.5236 106.332 52.3227 106.736 51.9209 107.011C51.5265 107.286 50.961 107.423 50.2244 107.423C49.711 107.423 49.3091 107.379 49.019 107.289C48.7288 107.208 48.5316 107.145 48.4274 107.1L48.6172 106.209C48.7362 106.254 48.926 106.32 49.1864 106.41C49.4468 106.499 49.7928 106.543 50.2244 106.543Z" fill="#27235C"/>
<path d="M54.826 101.498H57.0247V102.366H54.826V105.04C54.826 105.329 54.8483 105.57 54.8929 105.764C54.9376 105.949 55.0046 106.098 55.0938 106.209C55.1831 106.313 55.2947 106.387 55.4287 106.432C55.5626 106.476 55.7189 106.499 55.8974 106.499C56.21 106.499 56.4592 106.465 56.6452 106.398C56.8387 106.324 56.9726 106.272 57.047 106.242L57.2479 107.1C57.1438 107.152 56.9615 107.215 56.701 107.289C56.4406 107.371 56.143 107.412 55.8082 107.412C55.4138 107.412 55.0864 107.364 54.826 107.267C54.573 107.163 54.3684 107.011 54.2121 106.81C54.0559 106.61 53.9442 106.365 53.8773 106.075C53.8177 105.778 53.788 105.437 53.788 105.051V99.8828L54.826 99.7045V101.498Z" fill="#27235C"/>
<path d="M59.3835 107.289H58.3456V101.498H59.3835V107.289ZM58.859 100.451C58.673 100.451 58.513 100.391 58.379 100.273C58.2526 100.146 58.1893 99.9793 58.1893 99.7714C58.1893 99.5635 58.2526 99.4001 58.379 99.2813C58.513 99.1551 58.673 99.092 58.859 99.092C59.045 99.092 59.2013 99.1551 59.3277 99.2813C59.4617 99.4001 59.5286 99.5635 59.5286 99.7714C59.5286 99.9793 59.4617 100.146 59.3277 100.273C59.2013 100.391 59.045 100.451 58.859 100.451Z" fill="#27235C"/>
<path d="M61.1685 101.665C61.4067 101.605 61.7229 101.542 62.1172 101.475C62.5116 101.409 62.9655 101.375 63.4789 101.375C63.9402 101.375 64.3234 101.442 64.6285 101.576C64.9336 101.702 65.1754 101.884 65.354 102.121C65.54 102.352 65.6702 102.63 65.7446 102.957C65.819 103.284 65.8562 103.644 65.8562 104.037V107.289H64.8182V104.26C64.8182 103.904 64.7922 103.599 64.7401 103.347C64.6955 103.094 64.6173 102.89 64.5057 102.734C64.3941 102.578 64.2453 102.467 64.0593 102.4C63.8733 102.326 63.6426 102.289 63.3673 102.289C63.2557 102.289 63.1403 102.292 63.0213 102.3C62.9022 102.307 62.7869 102.318 62.6753 102.333C62.5711 102.341 62.4744 102.352 62.3851 102.366C62.3033 102.381 62.2437 102.392 62.2065 102.4V107.289H61.1685V101.665Z" fill="#27235C"/>
<path d="M71.216 106.71C71.1267 106.77 70.9519 106.848 70.6914 106.944C70.4384 107.033 70.1408 107.078 69.7985 107.078C69.4488 107.078 69.1177 107.022 68.8052 106.911C68.5001 106.799 68.2323 106.629 68.0016 106.398C67.7709 106.161 67.5886 105.867 67.4547 105.519C67.3208 105.17 67.2538 104.754 67.2538 104.271C67.2538 103.848 67.317 103.462 67.4435 103.113C67.57 102.756 67.7523 102.452 67.9904 102.199C68.236 101.94 68.5336 101.739 68.8833 101.598C69.233 101.449 69.6274 101.375 70.0664 101.375C70.5501 101.375 70.9705 101.412 71.3276 101.487C71.6922 101.553 71.9973 101.617 72.2428 101.676V106.844C72.2428 107.735 72.0122 108.381 71.5508 108.782C71.0895 109.183 70.3901 109.383 69.4525 109.383C69.0879 109.383 68.7419 109.354 68.4146 109.294C68.0946 109.235 67.8156 109.164 67.5775 109.083L67.7672 108.18C67.9755 108.262 68.2285 108.333 68.5262 108.392C68.8312 108.459 69.1475 108.492 69.4749 108.492C70.0924 108.492 70.5352 108.37 70.803 108.125C71.0783 107.88 71.216 107.49 71.216 106.955V106.71ZM71.2048 102.411C71.1007 102.381 70.9593 102.355 70.7807 102.333C70.6096 102.303 70.3752 102.289 70.0776 102.289C69.5195 102.289 69.0879 102.47 68.7829 102.834C68.4852 103.198 68.3364 103.681 68.3364 104.282C68.3364 104.616 68.3774 104.902 68.4592 105.14C68.5485 105.377 68.6638 105.574 68.8052 105.73C68.954 105.886 69.1214 106.001 69.3074 106.075C69.5009 106.15 69.6981 106.187 69.899 106.187C70.1743 106.187 70.4273 106.15 70.6579 106.075C70.8886 105.994 71.0709 105.901 71.2048 105.797V102.411Z" fill="#27235C"/>
<path d="M75.1238 106.02C75.1312 106.079 75.1349 106.139 75.1349 106.198C75.1349 106.25 75.1349 106.306 75.1349 106.365C75.1349 106.833 75.0643 107.293 74.9229 107.746C74.789 108.206 74.6029 108.645 74.3648 109.06L73.5612 108.804C73.7472 108.425 73.87 108.039 73.9296 107.646C73.9891 107.26 74.0188 106.896 74.0188 106.554C74.0188 106.458 74.0151 106.365 74.0077 106.276C74.0077 106.187 74.004 106.101 73.9965 106.02H75.1238Z" fill="#27235C"/>
<path d="M79.1143 103.425C79.1143 102.764 79.2111 102.181 79.4045 101.676C79.6054 101.171 79.8733 100.752 80.2081 100.417C80.5504 100.076 80.9448 99.8196 81.3912 99.6489C81.8451 99.4781 82.325 99.3927 82.831 99.3927C83.3295 99.3927 83.7983 99.4781 84.2373 99.6489C84.6837 99.8196 85.0744 100.076 85.4092 100.417C85.744 100.752 86.0082 101.171 86.2016 101.676C86.4025 102.181 86.503 102.764 86.503 103.425C86.503 104.085 86.4025 104.668 86.2016 105.173C86.0082 105.678 85.744 106.101 85.4092 106.443C85.0744 106.777 84.6837 107.03 84.2373 107.2C83.7983 107.371 83.3295 107.456 82.831 107.456C82.325 107.456 81.8451 107.371 81.3912 107.2C80.9448 107.03 80.5504 106.777 80.2081 106.443C79.8733 106.101 79.6054 105.678 79.4045 105.173C79.2111 104.668 79.1143 104.085 79.1143 103.425ZM80.2528 103.425C80.2528 103.892 80.3123 104.319 80.4313 104.705C80.5504 105.084 80.7178 105.407 80.9336 105.674C81.1568 105.942 81.4247 106.15 81.7372 106.298C82.0571 106.439 82.4143 106.51 82.8087 106.51C83.203 106.51 83.5565 106.439 83.869 106.298C84.1815 106.15 84.4456 105.942 84.6614 105.674C84.8846 105.407 85.0558 105.084 85.1748 104.705C85.2939 104.319 85.3534 103.892 85.3534 103.425C85.3534 102.957 85.2939 102.534 85.1748 102.155C85.0558 101.769 84.8846 101.442 84.6614 101.175C84.4456 100.907 84.1815 100.703 83.869 100.562C83.5565 100.414 83.203 100.339 82.8087 100.339C82.4143 100.339 82.0571 100.414 81.7372 100.562C81.4247 100.703 81.1568 100.907 80.9336 101.175C80.7178 101.442 80.5504 101.769 80.4313 102.155C80.3123 102.534 80.2528 102.957 80.2528 103.425Z" fill="#27235C"/>
<path d="M92.6675 107.122C92.4294 107.182 92.1132 107.245 91.7188 107.312C91.3319 107.379 90.8817 107.412 90.3683 107.412C89.9219 107.412 89.5461 107.349 89.241 107.223C88.936 107.089 88.6904 106.903 88.5044 106.666C88.3184 106.428 88.1845 106.15 88.1026 105.83C88.0208 105.504 87.9798 105.144 87.9798 104.75V101.498H89.0178V104.527C89.0178 105.233 89.1294 105.738 89.3527 106.042C89.5759 106.346 89.9516 106.499 90.4799 106.499C90.5915 106.499 90.7069 106.495 90.8259 106.487C90.945 106.48 91.0566 106.473 91.1608 106.465C91.2649 106.45 91.3579 106.439 91.4398 106.432C91.5291 106.417 91.5923 106.402 91.6295 106.387V101.498H92.6675V107.122Z" fill="#27235C"/>
<path d="M96.5987 101.375C96.688 101.375 96.7884 101.383 96.9 101.398C97.0191 101.405 97.1344 101.42 97.246 101.442C97.3576 101.457 97.4581 101.475 97.5474 101.498C97.6441 101.513 97.7148 101.527 97.7594 101.542L97.5808 102.444C97.499 102.415 97.3613 102.381 97.1679 102.344C96.9819 102.3 96.74 102.277 96.4424 102.277C96.249 102.277 96.0555 102.3 95.862 102.344C95.676 102.381 95.5532 102.407 95.4937 102.422V107.289H94.4557V101.743C94.7013 101.654 95.0063 101.572 95.3709 101.498C95.7355 101.416 96.1448 101.375 96.5987 101.375Z" fill="#27235C"/>
<path d="M105.195 104.059C105.314 104.208 105.463 104.405 105.641 104.65C105.827 104.887 106.017 105.155 106.21 105.452C106.404 105.741 106.594 106.046 106.78 106.365C106.973 106.684 107.137 106.992 107.271 107.289H106.088C105.939 107.007 105.775 106.721 105.597 106.432C105.425 106.142 105.251 105.867 105.072 105.608C104.893 105.34 104.715 105.092 104.536 104.861C104.365 104.631 104.209 104.431 104.068 104.26C103.971 104.267 103.87 104.271 103.766 104.271C103.669 104.271 103.569 104.271 103.465 104.271H102.494V107.289H101.411V99.6823C101.716 99.608 102.055 99.5598 102.427 99.5375C102.806 99.5078 103.152 99.4929 103.465 99.4929C104.551 99.4929 105.377 99.6971 105.943 100.106C106.516 100.514 106.802 101.123 106.802 101.932C106.802 102.444 106.664 102.883 106.389 103.246C106.121 103.61 105.723 103.881 105.195 104.059ZM103.554 100.44C103.093 100.44 102.739 100.451 102.494 100.473V103.38H103.264C103.636 103.38 103.971 103.361 104.268 103.324C104.566 103.287 104.815 103.217 105.016 103.113C105.225 103.009 105.385 102.864 105.496 102.678C105.608 102.485 105.664 102.233 105.664 101.921C105.664 101.631 105.608 101.39 105.496 101.197C105.385 101.004 105.232 100.852 105.039 100.74C104.853 100.629 104.629 100.551 104.369 100.506C104.116 100.462 103.844 100.44 103.554 100.44Z" fill="#27235C"/>
<path d="M108.04 104.405C108.04 103.892 108.114 103.447 108.263 103.068C108.412 102.682 108.609 102.363 108.855 102.11C109.1 101.858 109.383 101.669 109.703 101.542C110.023 101.416 110.35 101.353 110.685 101.353C111.466 101.353 112.065 101.598 112.482 102.088C112.899 102.571 113.107 103.309 113.107 104.304C113.107 104.349 113.107 104.408 113.107 104.483C113.107 104.55 113.103 104.613 113.096 104.672H109.122C109.167 105.273 109.342 105.73 109.647 106.042C109.952 106.354 110.428 106.51 111.076 106.51C111.44 106.51 111.745 106.48 111.991 106.421C112.244 106.354 112.434 106.291 112.56 106.231L112.705 107.1C112.579 107.167 112.355 107.237 112.036 107.312C111.723 107.386 111.366 107.423 110.964 107.423C110.458 107.423 110.019 107.349 109.647 107.2C109.282 107.044 108.981 106.833 108.743 106.565C108.505 106.298 108.326 105.983 108.207 105.619C108.096 105.247 108.04 104.843 108.04 104.405ZM112.024 103.837C112.032 103.369 111.913 102.987 111.667 102.689C111.429 102.385 111.098 102.233 110.674 102.233C110.436 102.233 110.224 102.281 110.038 102.378C109.859 102.467 109.707 102.586 109.58 102.734C109.454 102.883 109.353 103.053 109.279 103.246C109.212 103.439 109.167 103.636 109.145 103.837H112.024Z" fill="#27235C"/>
<path d="M115.949 106.543C116.373 106.543 116.685 106.487 116.886 106.376C117.094 106.265 117.199 106.087 117.199 105.842C117.199 105.589 117.098 105.389 116.897 105.24C116.696 105.092 116.365 104.924 115.904 104.739C115.681 104.65 115.465 104.561 115.257 104.472C115.056 104.375 114.881 104.264 114.732 104.137C114.583 104.011 114.464 103.859 114.375 103.681C114.286 103.503 114.241 103.284 114.241 103.024C114.241 102.511 114.431 102.107 114.81 101.81C115.19 101.505 115.707 101.353 116.362 101.353C116.525 101.353 116.689 101.364 116.853 101.386C117.016 101.401 117.169 101.423 117.31 101.453C117.452 101.475 117.574 101.501 117.679 101.531C117.79 101.561 117.876 101.587 117.935 101.609L117.746 102.5C117.634 102.441 117.459 102.381 117.221 102.322C116.983 102.255 116.696 102.222 116.362 102.222C116.071 102.222 115.818 102.281 115.603 102.4C115.387 102.511 115.279 102.689 115.279 102.935C115.279 103.061 115.301 103.172 115.346 103.269C115.398 103.365 115.472 103.454 115.569 103.536C115.673 103.61 115.8 103.681 115.949 103.748C116.097 103.814 116.276 103.885 116.484 103.959C116.76 104.063 117.005 104.167 117.221 104.271C117.437 104.368 117.619 104.483 117.768 104.616C117.924 104.75 118.043 104.913 118.125 105.106C118.207 105.292 118.248 105.522 118.248 105.797C118.248 106.332 118.047 106.736 117.645 107.011C117.251 107.286 116.685 107.423 115.949 107.423C115.435 107.423 115.033 107.379 114.743 107.289C114.453 107.208 114.256 107.145 114.152 107.1L114.341 106.209C114.46 106.254 114.65 106.32 114.911 106.41C115.171 106.499 115.517 106.543 115.949 106.543Z" fill="#27235C"/>
<path d="M123.608 104.405C123.608 103.729 123.441 103.209 123.106 102.845C122.771 102.482 122.325 102.3 121.767 102.3C121.454 102.3 121.209 102.311 121.03 102.333C120.859 102.355 120.721 102.381 120.617 102.411V106.064C120.744 106.168 120.926 106.268 121.164 106.365C121.402 106.462 121.663 106.51 121.945 106.51C122.243 106.51 122.496 106.458 122.704 106.354C122.92 106.242 123.095 106.094 123.229 105.908C123.363 105.715 123.46 105.493 123.519 105.24C123.579 104.98 123.608 104.702 123.608 104.405ZM124.691 104.405C124.691 104.843 124.631 105.247 124.512 105.619C124.401 105.99 124.233 106.309 124.01 106.577C123.787 106.844 123.512 107.052 123.184 107.2C122.864 107.349 122.496 107.423 122.079 107.423C121.744 107.423 121.447 107.379 121.186 107.289C120.933 107.2 120.744 107.115 120.617 107.033V109.35H119.579V101.676C119.825 101.617 120.13 101.553 120.494 101.487C120.866 101.412 121.294 101.375 121.778 101.375C122.224 101.375 122.626 101.446 122.983 101.587C123.34 101.728 123.646 101.928 123.899 102.188C124.152 102.448 124.345 102.767 124.479 103.146C124.62 103.517 124.691 103.937 124.691 104.405Z" fill="#27235C"/>
<path d="M131.275 104.394C131.275 104.854 131.208 105.27 131.074 105.641C130.94 106.012 130.75 106.332 130.504 106.599C130.266 106.866 129.98 107.074 129.645 107.223C129.31 107.364 128.946 107.434 128.551 107.434C128.157 107.434 127.792 107.364 127.457 107.223C127.123 107.074 126.832 106.866 126.587 106.599C126.349 106.332 126.163 106.012 126.029 105.641C125.895 105.27 125.828 104.854 125.828 104.394C125.828 103.941 125.895 103.529 126.029 103.157C126.163 102.779 126.349 102.456 126.587 102.188C126.832 101.921 127.123 101.717 127.457 101.576C127.792 101.427 128.157 101.353 128.551 101.353C128.946 101.353 129.31 101.427 129.645 101.576C129.98 101.717 130.266 101.921 130.504 102.188C130.75 102.456 130.94 102.779 131.074 103.157C131.208 103.529 131.275 103.941 131.275 104.394ZM130.192 104.394C130.192 103.74 130.043 103.224 129.745 102.845C129.455 102.459 129.057 102.266 128.551 102.266C128.045 102.266 127.643 102.459 127.346 102.845C127.056 103.224 126.911 103.74 126.911 104.394C126.911 105.047 127.056 105.567 127.346 105.953C127.643 106.332 128.045 106.521 128.551 106.521C129.057 106.521 129.455 106.332 129.745 105.953C130.043 105.567 130.192 105.047 130.192 104.394Z" fill="#27235C"/>
<path d="M132.735 101.665C132.973 101.605 133.289 101.542 133.684 101.475C134.078 101.409 134.532 101.375 135.045 101.375C135.507 101.375 135.89 101.442 136.195 101.576C136.5 101.702 136.742 101.884 136.92 102.121C137.106 102.352 137.237 102.63 137.311 102.957C137.385 103.284 137.423 103.644 137.423 104.037V107.289H136.385V104.26C136.385 103.904 136.359 103.599 136.306 103.347C136.262 103.094 136.184 102.89 136.072 102.734C135.96 102.578 135.812 102.467 135.626 102.4C135.44 102.326 135.209 102.289 134.934 102.289C134.822 102.289 134.707 102.292 134.588 102.3C134.469 102.307 134.353 102.318 134.242 102.333C134.137 102.341 134.041 102.352 133.951 102.366C133.87 102.381 133.81 102.392 133.773 102.4V107.289H132.735V101.665Z" fill="#27235C"/>
<path d="M140.494 106.543C140.918 106.543 141.231 106.487 141.432 106.376C141.64 106.265 141.744 106.087 141.744 105.842C141.744 105.589 141.644 105.389 141.443 105.24C141.242 105.092 140.911 104.924 140.45 104.739C140.226 104.65 140.011 104.561 139.802 104.472C139.601 104.375 139.427 104.264 139.278 104.137C139.129 104.011 139.01 103.859 138.921 103.681C138.831 103.503 138.787 103.284 138.787 103.024C138.787 102.511 138.976 102.107 139.356 101.81C139.735 101.505 140.252 101.353 140.907 101.353C141.071 101.353 141.235 101.364 141.398 101.386C141.562 101.401 141.715 101.423 141.856 101.453C141.997 101.475 142.12 101.501 142.224 101.531C142.336 101.561 142.421 101.587 142.481 101.609L142.291 102.5C142.18 102.441 142.005 102.381 141.767 102.322C141.529 102.255 141.242 102.222 140.907 102.222C140.617 102.222 140.364 102.281 140.148 102.4C139.933 102.511 139.825 102.689 139.825 102.935C139.825 103.061 139.847 103.172 139.892 103.269C139.944 103.365 140.018 103.454 140.115 103.536C140.219 103.61 140.346 103.681 140.494 103.748C140.643 103.814 140.822 103.885 141.03 103.959C141.305 104.063 141.551 104.167 141.767 104.271C141.982 104.368 142.165 104.483 142.314 104.616C142.47 104.75 142.589 104.913 142.671 105.106C142.753 105.292 142.794 105.522 142.794 105.797C142.794 106.332 142.593 106.736 142.191 107.011C141.796 107.286 141.231 107.423 140.494 107.423C139.981 107.423 139.579 107.379 139.289 107.289C138.999 107.208 138.802 107.145 138.697 107.1L138.887 106.209C139.006 106.254 139.196 106.32 139.456 106.41C139.717 106.499 140.063 106.543 140.494 106.543Z" fill="#27235C"/>
<path d="M145.163 107.289H144.125V101.498H145.163V107.289ZM144.638 100.451C144.452 100.451 144.292 100.391 144.158 100.273C144.032 100.146 143.969 99.9793 143.969 99.7714C143.969 99.5635 144.032 99.4001 144.158 99.2813C144.292 99.1551 144.452 99.092 144.638 99.092C144.824 99.092 144.981 99.1551 145.107 99.2813C145.241 99.4001 145.308 99.5635 145.308 99.7714C145.308 99.9793 145.241 100.146 145.107 100.273C144.981 100.391 144.824 100.451 144.638 100.451Z" fill="#27235C"/>
<path d="M147.986 101.754C148.112 101.672 148.302 101.587 148.555 101.498C148.816 101.409 149.113 101.364 149.448 101.364C149.865 101.364 150.233 101.438 150.553 101.587C150.88 101.735 151.156 101.943 151.379 102.211C151.602 102.478 151.769 102.797 151.881 103.168C152 103.54 152.06 103.948 152.06 104.394C152.06 104.861 151.989 105.285 151.848 105.663C151.714 106.035 151.52 106.35 151.267 106.61C151.014 106.87 150.709 107.07 150.352 107.211C149.995 107.353 149.593 107.423 149.147 107.423C148.663 107.423 148.235 107.39 147.863 107.323C147.491 107.256 147.186 107.189 146.948 107.122V98.8247L147.986 98.6465V101.754ZM147.986 106.387C148.09 106.417 148.235 106.447 148.421 106.476C148.615 106.499 148.853 106.51 149.135 106.51C149.694 106.51 150.14 106.328 150.475 105.964C150.81 105.593 150.977 105.069 150.977 104.394C150.977 104.097 150.947 103.818 150.888 103.558C150.828 103.298 150.732 103.076 150.598 102.89C150.464 102.697 150.289 102.548 150.073 102.444C149.865 102.333 149.612 102.277 149.314 102.277C149.031 102.277 148.771 102.326 148.533 102.422C148.295 102.519 148.112 102.619 147.986 102.723V106.387Z" fill="#27235C"/>
<path d="M154.558 107.289H153.52V101.498H154.558V107.289ZM154.034 100.451C153.848 100.451 153.688 100.391 153.554 100.273C153.427 100.146 153.364 99.9793 153.364 99.7714C153.364 99.5635 153.427 99.4001 153.554 99.2813C153.688 99.1551 153.848 99.092 154.034 99.092C154.22 99.092 154.376 99.1551 154.502 99.2813C154.636 99.4001 154.703 99.5635 154.703 99.7714C154.703 99.9793 154.636 100.146 154.502 100.273C154.376 100.391 154.22 100.451 154.034 100.451Z" fill="#27235C"/>
<path d="M158.084 107.401C157.445 107.386 156.991 107.249 156.723 106.989C156.455 106.729 156.321 106.324 156.321 105.775V98.8247L157.359 98.6465V105.608C157.359 105.778 157.374 105.919 157.404 106.031C157.433 106.142 157.482 106.231 157.549 106.298C157.616 106.365 157.705 106.417 157.817 106.454C157.928 106.484 158.066 106.51 158.23 106.532L158.084 107.401Z" fill="#27235C"/>
<path d="M160.433 107.289H159.395V101.498H160.433V107.289ZM159.909 100.451C159.723 100.451 159.563 100.391 159.429 100.273C159.302 100.146 159.239 99.9793 159.239 99.7714C159.239 99.5635 159.302 99.4001 159.429 99.2813C159.563 99.1551 159.723 99.092 159.909 99.092C160.095 99.092 160.251 99.1551 160.377 99.2813C160.511 99.4001 160.578 99.5635 160.578 99.7714C160.578 99.9793 160.511 100.146 160.377 100.273C160.251 100.391 160.095 100.451 159.909 100.451Z" fill="#27235C"/>
<path d="M163.189 101.498H165.388V102.366H163.189V105.04C163.189 105.329 163.211 105.57 163.256 105.764C163.301 105.949 163.368 106.098 163.457 106.209C163.546 106.313 163.658 106.387 163.792 106.432C163.926 106.476 164.082 106.499 164.261 106.499C164.573 106.499 164.822 106.465 165.008 106.398C165.202 106.324 165.336 106.272 165.41 106.242L165.611 107.1C165.507 107.152 165.325 107.215 165.064 107.289C164.804 107.371 164.506 107.412 164.171 107.412C163.777 107.412 163.45 107.364 163.189 107.267C162.936 107.163 162.732 107.011 162.575 106.81C162.419 106.61 162.307 106.365 162.24 106.075C162.181 105.778 162.151 105.437 162.151 105.051V99.8828L163.189 99.7045V101.498Z" fill="#27235C"/>
<path d="M166.028 108.37C166.11 108.407 166.214 108.44 166.34 108.47C166.474 108.507 166.605 108.526 166.731 108.526C167.14 108.526 167.46 108.433 167.691 108.247C167.922 108.069 168.13 107.776 168.316 107.367C167.847 106.476 167.408 105.533 166.999 104.538C166.597 103.536 166.262 102.522 165.994 101.498H167.111C167.192 101.832 167.289 102.192 167.401 102.578C167.52 102.964 167.65 103.361 167.791 103.77C167.933 104.178 168.085 104.587 168.249 104.995C168.413 105.403 168.584 105.797 168.762 106.176C169.045 105.396 169.291 104.624 169.499 103.859C169.707 103.094 169.905 102.307 170.091 101.498H171.162C170.894 102.589 170.597 103.64 170.269 104.65C169.942 105.652 169.588 106.591 169.209 107.468C169.06 107.802 168.904 108.088 168.74 108.325C168.584 108.57 168.409 108.771 168.215 108.927C168.022 109.083 167.803 109.198 167.557 109.272C167.319 109.346 167.047 109.383 166.742 109.383C166.66 109.383 166.575 109.376 166.486 109.361C166.396 109.354 166.307 109.339 166.218 109.317C166.136 109.302 166.058 109.283 165.983 109.261C165.916 109.239 165.868 109.22 165.838 109.205L166.028 108.37Z" fill="#27235C"/>
<path d="M173.18 106.688C173.18 106.888 173.113 107.063 172.979 107.211C172.845 107.36 172.663 107.434 172.432 107.434C172.202 107.434 172.019 107.36 171.885 107.211C171.751 107.063 171.684 106.888 171.684 106.688C171.684 106.487 171.751 106.313 171.885 106.165C172.019 106.016 172.202 105.942 172.432 105.942C172.663 105.942 172.845 106.016 172.979 106.165C173.113 106.313 173.18 106.487 173.18 106.688Z" fill="#27235C"/>
<path d="M164.171 91.085C162.895 91.085 161.749 90.8376 160.734 90.3428C159.744 89.8219 158.898 89.1188 158.194 88.2333C157.517 87.3479 156.996 86.3323 156.632 85.1864C156.293 84.0145 156.124 82.7645 156.124 81.4363C156.15 80.1081 156.345 78.8711 156.71 77.7253C157.075 76.5534 157.595 75.5377 158.273 74.6783C158.976 73.7929 159.822 73.1028 160.812 72.608C161.801 72.1132 162.921 71.8658 164.171 71.8658C165.369 71.8658 166.489 72.1132 167.531 72.608C168.598 73.1028 169.536 73.7929 170.343 74.6783C171.176 75.5377 171.827 76.5534 172.296 77.7253C172.765 78.8711 172.999 80.0951 172.999 81.3972C172.999 82.7514 172.765 84.0275 172.296 85.2255C171.827 86.3974 171.189 87.426 170.382 88.3115C169.575 89.1709 168.637 89.848 167.57 90.3428C166.502 90.8376 165.369 91.085 164.171 91.085ZM163.546 86.5146C164.458 86.5146 165.278 86.3062 166.007 85.8895C166.736 85.4468 167.309 84.8478 167.726 84.0926C168.169 83.3374 168.39 82.478 168.39 81.5144C168.39 80.5248 168.169 79.6524 167.726 78.8972C167.309 78.1159 166.736 77.5169 166.007 77.1003C165.278 76.6575 164.458 76.4362 163.546 76.4362C162.661 76.4362 161.853 76.6575 161.124 77.1003C160.395 77.543 159.809 78.1419 159.366 78.8972C158.95 79.6524 158.741 80.5248 158.741 81.5144C158.741 82.478 158.95 83.3374 159.366 84.0926C159.809 84.8478 160.395 85.4468 161.124 85.8895C161.853 86.3062 162.661 86.5146 163.546 86.5146ZM156.319 91.124C155.616 91.124 155.095 91.0069 154.757 90.7725C154.418 90.5641 154.21 90.2907 154.132 89.9521C154.054 89.5875 154.015 89.1839 154.015 88.7412V65.4593C154.015 65.0166 154.054 64.626 154.132 64.2874C154.21 63.9228 154.418 63.6364 154.757 63.428C155.095 63.2197 155.616 63.1155 156.319 63.1155C157.049 63.1155 157.569 63.2197 157.882 63.428C158.194 63.6364 158.39 63.9228 158.468 64.2874C158.546 64.652 158.585 65.0427 158.585 65.4593V89.5224C158.481 90.0954 158.26 90.499 157.921 90.7334C157.608 90.9938 157.075 91.124 156.319 91.124Z" fill="#27235C" stroke="#27235C" stroke-width="0.2"/>
<path d="M142.37 91.359C140.678 91.359 139.193 91.0855 137.917 90.5386C136.667 89.9918 135.612 89.2495 134.753 88.312C133.92 87.3485 133.282 86.2807 132.839 85.1088C132.422 83.9109 132.214 82.6739 132.214 81.3978C132.214 79.5227 132.644 77.856 133.503 76.3977C134.362 74.9393 135.547 73.7934 137.058 72.9601C138.594 72.1267 140.352 71.7101 142.331 71.7101C143.738 71.7101 144.975 71.9314 146.042 72.3741C147.11 72.8169 147.995 73.4028 148.699 74.132C149.428 74.8351 149.975 75.6164 150.339 76.4758C150.73 77.3352 150.925 78.1685 150.925 78.9759C150.925 80.3561 150.587 81.3587 149.91 81.9837C149.258 82.6088 148.438 82.9213 147.449 82.9213H137.136C137.162 83.8067 137.435 84.575 137.956 85.226C138.503 85.8771 139.18 86.3849 139.987 86.7495C140.821 87.088 141.667 87.2573 142.527 87.2573C143.178 87.2573 143.751 87.2182 144.245 87.1401C144.766 87.062 145.209 86.9708 145.574 86.8667C145.938 86.7365 146.251 86.6063 146.511 86.476C146.797 86.3458 147.058 86.2286 147.292 86.1245C147.527 86.0203 147.748 85.9552 147.956 85.9292C148.243 85.9031 148.529 85.9682 148.816 86.1245C149.102 86.2807 149.337 86.5542 149.519 86.9448C149.675 87.2052 149.779 87.4526 149.831 87.687C149.91 87.8953 149.949 88.1037 149.949 88.312C149.949 88.8329 149.636 89.3277 149.011 89.7964C148.386 90.2392 147.501 90.6037 146.355 90.8902C145.235 91.2027 143.907 91.359 142.37 91.359ZM137.136 80.1478H145.144C145.587 80.1478 145.925 80.0827 146.159 79.9524C146.394 79.7962 146.511 79.4837 146.511 79.0149C146.511 78.4159 146.329 77.8821 145.964 77.4133C145.6 76.9185 145.105 76.5409 144.48 76.2805C143.855 75.994 143.126 75.8508 142.292 75.8508C141.329 75.8508 140.456 76.0461 139.675 76.4367C138.894 76.8013 138.269 77.3091 137.8 77.9602C137.357 78.6113 137.136 79.3404 137.136 80.1478Z" fill="#27235C" stroke="#27235C" stroke-width="0.2"/>
<path d="M107.424 91.0083C106.903 91.0083 106.487 90.9171 106.174 90.7349C105.862 90.5265 105.627 90.2921 105.471 90.0317C105.341 89.7713 105.25 89.5499 105.198 89.3676L97.5413 66.9452C97.2809 66.1119 97.2418 65.4868 97.4241 65.0702C97.6064 64.6274 98.1403 64.2629 99.0257 63.9764C99.6247 63.768 100.106 63.6769 100.471 63.7029C100.836 63.729 101.135 63.8852 101.37 64.1717C101.63 64.4321 101.851 64.8488 102.034 65.4217L107.659 82.4534L112.698 65.578C112.776 65.3176 112.88 65.0571 113.01 64.7967C113.167 64.5103 113.401 64.2759 113.713 64.0936C114.026 63.9113 114.456 63.8201 115.003 63.8201C115.628 63.8201 116.096 63.9243 116.409 64.1326C116.721 64.341 116.943 64.5754 117.073 64.8358C117.229 65.0702 117.333 65.2915 117.385 65.4999L122.425 82.5706L128.089 65.4608C128.271 64.8618 128.479 64.4191 128.714 64.1326C128.974 63.8462 129.3 63.6899 129.69 63.6639C130.081 63.6118 130.563 63.6899 131.136 63.8983C131.735 64.1066 132.164 64.341 132.425 64.6014C132.685 64.8358 132.815 65.1483 132.815 65.5389C132.815 65.9035 132.724 66.3723 132.542 66.9452L124.925 89.4067C124.873 89.5629 124.768 89.7713 124.612 90.0317C124.482 90.2921 124.261 90.5265 123.948 90.7349C123.636 90.9171 123.206 91.0083 122.659 91.0083C122.112 91.0083 121.682 90.8911 121.37 90.6567C121.057 90.4223 120.823 90.1619 120.667 89.8755C120.51 89.589 120.406 89.3807 120.354 89.2504L115.042 72.0625L109.729 89.2114C109.677 89.3937 109.573 89.6281 109.417 89.9145C109.286 90.201 109.065 90.4614 108.752 90.6958C108.44 90.9041 107.997 91.0083 107.424 91.0083Z" fill="#27235C" stroke="#27235C" stroke-width="0.2"/>
<path d="M87.1115 91.3593C86.4344 91.3593 85.7182 91.2812 84.963 91.1249C84.2078 90.9947 83.4786 90.7994 82.7754 90.539C82.0723 90.2525 81.4603 89.927 80.9395 89.5624C80.4447 89.1718 80.1322 88.7421 80.002 88.2733C79.8978 88.0129 79.8587 87.7655 79.8848 87.5311C79.9108 87.2707 79.9889 87.0102 80.1191 86.7498C80.2494 86.4634 80.4447 86.1769 80.7051 85.8904C80.9395 85.604 81.1739 85.4477 81.4082 85.4217C81.6687 85.3696 81.9942 85.4477 82.3848 85.656C82.7234 85.7863 83.088 85.9555 83.4786 86.1639C83.8953 86.3722 84.3119 86.5805 84.7286 86.7889C85.1713 86.9972 85.614 87.1665 86.0568 87.2967C86.5255 87.4269 86.9813 87.492 87.424 87.492C88.3875 87.492 89.1558 87.3358 89.7287 87.0233C90.3016 86.6847 90.5881 86.216 90.5881 85.617C90.5881 85.2784 90.4969 84.9789 90.3147 84.7185C90.1324 84.4581 89.885 84.2498 89.5724 84.0935C89.286 83.9112 88.9344 83.755 88.5177 83.6247C88.1271 83.4685 87.6974 83.3383 87.2287 83.2341C86.7859 83.1039 86.3172 82.9607 85.8224 82.8044C85.1713 82.6221 84.5203 82.4008 83.8692 82.1403C83.2182 81.8799 82.6322 81.5414 82.1114 81.1247C81.6166 80.708 81.2129 80.1872 80.9004 79.5621C80.5879 78.9371 80.4316 78.1559 80.4316 77.2183C80.4316 76.0464 80.7051 75.0568 81.252 74.2495C81.8249 73.4162 82.6452 72.7781 83.713 72.3354C84.7807 71.8927 86.0698 71.6713 87.5802 71.6713C88.1011 71.6713 88.5959 71.7104 89.0646 71.7885C89.5594 71.8666 90.0282 71.9838 90.4709 72.1401C90.9397 72.2703 91.3824 72.4396 91.7991 72.6479C92.2418 72.8563 92.6584 73.0906 93.0491 73.3511C93.7001 73.7156 94.0387 74.1453 94.0647 74.6401C94.0908 75.1089 93.9085 75.6167 93.5178 76.1636C93.2314 76.5282 92.9449 76.7886 92.6584 76.9449C92.372 77.0751 92.0725 77.0751 91.76 76.9449C91.3433 76.7366 90.8876 76.5152 90.3928 76.2808C89.924 76.0204 89.4292 75.799 88.9084 75.6167C88.4136 75.4344 87.8927 75.3433 87.3458 75.3433C86.825 75.3433 86.3562 75.4214 85.9396 75.5777C85.5229 75.7339 85.2104 75.9553 85.0021 76.2417C84.7937 76.5282 84.6895 76.8668 84.6895 77.2574C84.6895 77.622 84.7937 77.9215 85.0021 78.1559C85.2104 78.3902 85.4838 78.5856 85.8224 78.7418C86.1609 78.8981 86.5646 79.0413 87.0333 79.1715C87.5021 79.2757 87.9969 79.3798 88.5177 79.484C89.2469 79.6403 89.9891 79.8356 90.7443 80.07C91.4996 80.3043 92.1897 80.6299 92.8147 81.0466C93.4658 81.4632 93.9866 82.0231 94.3772 82.7263C94.7679 83.4034 94.9632 84.2888 94.9632 85.3826C94.9632 87.2837 94.26 88.7551 92.8538 89.7968C91.4735 90.8385 89.5594 91.3593 87.1115 91.3593Z" fill="#27235C" stroke="#27235C" stroke-width="0.2"/>
<path d="M68.6701 91.3587C66.9774 91.3587 65.493 91.0853 64.2169 90.5384C62.9669 89.9915 61.9122 89.2493 61.0528 88.3118C60.2194 87.3482 59.5814 86.2805 59.1387 85.1086C58.722 83.9106 58.5137 82.6736 58.5137 81.3975C58.5137 79.5225 58.9434 77.8558 59.8028 76.3974C60.6621 74.9391 61.8471 73.7932 63.3575 72.9598C64.894 72.1265 66.6518 71.7098 68.6311 71.7098C70.0373 71.7098 71.2743 71.9312 72.3421 72.3739C73.4098 72.8166 74.2952 73.4026 74.9984 74.1317C75.7275 74.8349 76.2744 75.6162 76.639 76.4756C77.0296 77.3349 77.225 78.1683 77.225 78.9756C77.225 80.3559 76.8864 81.3585 76.2093 81.9835C75.5583 82.6085 74.7379 82.921 73.7483 82.921H63.4356C63.4617 83.8065 63.7351 84.5747 64.256 85.2258C64.8029 85.8768 65.48 86.3846 66.2873 86.7492C67.1206 87.0878 67.967 87.2571 68.8264 87.2571C69.4774 87.2571 70.0503 87.218 70.5452 87.1399C71.066 87.0618 71.5087 86.9706 71.8733 86.8664C72.2379 86.7362 72.5504 86.606 72.8108 86.4758C73.0973 86.3456 73.3577 86.2284 73.5921 86.1242C73.8265 86.0201 74.0478 85.955 74.2562 85.9289C74.5426 85.9029 74.8291 85.968 75.1155 86.1242C75.402 86.2805 75.6364 86.5539 75.8187 86.9446C75.9749 87.205 76.0791 87.4524 76.1312 87.6868C76.2093 87.8951 76.2484 88.1034 76.2484 88.3118C76.2484 88.8326 75.9359 89.3274 75.3109 89.7962C74.6858 90.2389 73.8004 90.6035 72.6546 90.89C71.5348 91.2025 70.2066 91.3587 68.6701 91.3587ZM63.4356 80.1475H71.4436C71.8863 80.1475 72.2249 80.0824 72.4592 79.9522C72.6936 79.7959 72.8108 79.4834 72.8108 79.0147C72.8108 78.4157 72.6285 77.8818 72.2639 77.4131C71.8993 76.9183 71.4045 76.5407 70.7795 76.2802C70.1545 75.9938 69.4253 75.8505 68.592 75.8505C67.6284 75.8505 66.756 76.0459 65.9747 76.4365C65.1935 76.8011 64.5685 77.3089 64.0997 77.96C63.657 78.611 63.4356 79.3402 63.4356 80.1475Z" fill="#27235C" stroke="#27235C" stroke-width="0.2"/>
<path d="M54.7257 91.1257C53.7622 91.1257 52.9028 91.0606 52.1475 90.9304C51.4184 90.8002 50.7803 90.5788 50.2334 90.2663C49.7126 89.9538 49.2829 89.5371 48.9444 89.0163C48.6058 88.4694 48.3454 87.8053 48.1631 87.024C48.0068 86.2428 47.9287 85.3052 47.9287 84.2115V65.3829C47.9287 64.9402 47.9678 64.5495 48.0459 64.211C48.1501 63.8464 48.3584 63.5599 48.6709 63.3516C49.0095 63.1172 49.5433 63 50.2725 63C51.0017 63 51.5225 63.1042 51.835 63.3125C52.1736 63.5208 52.3819 63.8073 52.46 64.1719C52.5642 64.5105 52.6163 64.9011 52.6163 65.3438V84.0161C52.6163 84.5109 52.6423 84.9276 52.6944 85.2662C52.7725 85.5787 52.8897 85.8391 53.046 86.0474C53.2283 86.2297 53.4496 86.3599 53.7101 86.4381C53.9965 86.5162 54.3351 86.5553 54.7257 86.5553C55.0643 86.5553 55.3637 86.5943 55.6242 86.6725C55.9106 86.7506 56.132 86.9459 56.2882 87.2584C56.4705 87.5709 56.5617 88.0787 56.5617 88.7819C56.5617 89.5111 56.4705 90.0449 56.2882 90.3835C56.132 90.722 55.9106 90.9304 55.6242 91.0085C55.3377 91.0866 55.0382 91.1257 54.7257 91.1257Z" fill="#27235C" stroke="#27235C" stroke-width="0.2"/>
<path d="M41.3868 91.1252C40.6836 91.1252 40.1628 91.008 39.8242 90.7736C39.4857 90.5653 39.2773 90.2918 39.1992 89.9533C39.1211 89.5887 39.082 89.185 39.082 88.7423V74.2107C39.082 73.794 39.1211 73.4164 39.1992 73.0779C39.3034 72.7133 39.5117 72.4268 39.8242 72.2185C40.1628 72.0101 40.6966 71.906 41.4258 71.906C42.155 71.906 42.6759 72.0101 42.9884 72.2185C43.3269 72.4268 43.5352 72.7133 43.6134 73.0779C43.6915 73.4425 43.7306 73.8461 43.7306 74.2888V88.7814C43.7306 89.2241 43.6915 89.6278 43.6134 89.9924C43.5352 90.3309 43.3269 90.6044 42.9884 90.8127C42.6759 91.021 42.142 91.1252 41.3868 91.1252ZM41.3868 68.1168C40.6315 68.1168 40.0716 68.0127 39.707 67.8043C39.3685 67.5699 39.1471 67.2574 39.043 66.8668C38.9648 66.4762 38.9258 66.0465 38.9258 65.5777C38.9258 65.0829 38.9648 64.6532 39.043 64.2886C39.1471 63.924 39.3815 63.6375 39.7461 63.4292C40.1107 63.1948 40.6706 63.0776 41.4258 63.0776C42.2071 63.0776 42.767 63.1948 43.1055 63.4292C43.4441 63.6636 43.6655 63.9761 43.7696 64.3667C43.8738 64.7313 43.9259 65.161 43.9259 65.6558C43.9259 66.0985 43.8738 66.5152 43.7696 66.9059C43.6655 67.2965 43.4441 67.596 43.1055 67.8043C42.767 68.0127 42.1941 68.1168 41.3868 68.1168Z" fill="#27235C" stroke="#27235C" stroke-width="0.2"/>
<path d="M9.30473 91.0857C8.62763 91.0857 8.11981 90.9816 7.78126 90.7732C7.44272 90.5649 7.22136 90.2784 7.11719 89.9138C7.03906 89.5493 7 89.1456 7 88.7029V66.1633C7 65.7466 7.03906 65.369 7.11719 65.0304C7.22136 64.6658 7.44272 64.3794 7.78126 64.171C8.11981 63.9366 8.65368 63.8195 9.38286 63.8195C9.92974 63.8195 10.3334 63.8585 10.5938 63.9366C10.8803 63.9887 11.1016 64.0799 11.2579 64.2101C11.4141 64.3143 11.5704 64.4575 11.7267 64.6398L21.2581 77.9604H20.3596L29.9301 64.6007C30.1124 64.3924 30.2947 64.2361 30.477 64.132C30.6593 64.0278 30.8937 63.9497 31.1801 63.8976C31.4666 63.8455 31.8442 63.8195 32.313 63.8195C33.0161 63.8195 33.537 63.9366 33.8755 64.171C34.2141 64.3794 34.4224 64.6658 34.5005 65.0304C34.6047 65.395 34.6568 65.7987 34.6568 66.2414V88.781C34.6568 89.1716 34.6047 89.5493 34.5005 89.9138C34.4224 90.2784 34.2141 90.5649 33.8755 90.7732C33.537 90.9816 33.0031 91.0857 32.2739 91.0857C31.5708 91.0857 31.0499 90.9686 30.7114 90.7342C30.3728 90.5258 30.1515 90.2394 30.0473 89.8748C29.9692 89.5102 29.9301 89.1196 29.9301 88.7029V71.9447L22.8206 82.2183C22.7425 82.3225 22.6253 82.4657 22.469 82.648C22.3128 82.8043 22.1045 82.9475 21.844 83.0777C21.5836 83.208 21.232 83.2731 20.7893 83.2731C20.3726 83.2731 20.0341 83.208 19.7737 83.0777C19.5133 82.9475 19.3049 82.8043 19.1487 82.648C19.0185 82.4918 18.8882 82.3355 18.758 82.1793L11.6876 71.9447V88.781C11.6876 89.1716 11.6355 89.5493 11.5313 89.9138C11.4532 90.2784 11.2449 90.5649 10.9063 90.7732C10.5678 90.9816 10.0339 91.0857 9.30473 91.0857Z" fill="#27235C" stroke="#27235C" stroke-width="0.2"/>
</svg>
