<svg width="100" height="100" viewBox="0 0 100 100" fill="none" xmlns="http://www.w3.org/2000/svg">
<path d="M45.4669 65.0343C45.4669 64.6262 45.7977 64.2954 46.2058 64.2954H97.1907C97.5988 64.2954 97.9296 64.6262 97.9296 65.0343V65.0343C97.9296 65.4424 97.5988 65.7732 97.1907 65.7732H46.2058C45.7977 65.7732 45.4669 65.4424 45.4669 65.0343V65.0343Z" fill="#FFBB00"/>
<path d="M3.91928 59.5854V57.7967C3.62269 57.3377 3.34329 56.8852 3.08108 56.4391C2.81888 55.993 2.57172 55.5555 2.3396 55.1265H3.07463C3.23798 55.4783 3.42066 55.8364 3.62269 56.201C3.82471 56.5614 4.03319 56.9088 4.24811 57.2434C4.45873 56.9088 4.66506 56.5614 4.86709 56.201C5.06911 55.8364 5.25395 55.4783 5.42159 55.1265H6.11793C5.88582 55.5555 5.63866 55.993 5.37645 56.4391C5.11425 56.8809 4.837 57.3292 4.5447 57.7838V59.5854H3.91928Z" fill="#27235C"/>
<path d="M9.31487 57.9125C9.31487 58.1785 9.27619 58.4187 9.19881 58.6332C9.12144 58.8476 9.01183 59.0321 8.86998 59.1865C8.73243 59.3409 8.56694 59.461 8.37351 59.5468C8.18008 59.6283 7.96946 59.6691 7.74164 59.6691C7.51382 59.6691 7.3032 59.6283 7.10977 59.5468C6.91634 59.461 6.7487 59.3409 6.60685 59.1865C6.4693 59.0321 6.36184 58.8476 6.28447 58.6332C6.20709 58.4187 6.16841 58.1785 6.16841 57.9125C6.16841 57.6509 6.20709 57.4128 6.28447 57.1983C6.36184 56.9796 6.4693 56.793 6.60685 56.6386C6.7487 56.4841 6.91634 56.3662 7.10977 56.2847C7.3032 56.1989 7.51382 56.156 7.74164 56.156C7.96946 56.156 8.18008 56.1989 8.37351 56.2847C8.56694 56.3662 8.73243 56.4841 8.86998 56.6386C9.01183 56.793 9.12144 56.9796 9.19881 57.1983C9.27619 57.4128 9.31487 57.6509 9.31487 57.9125ZM8.68945 57.9125C8.68945 57.5351 8.60348 57.2369 8.43154 57.0182C8.2639 56.7951 8.03393 56.6836 7.74164 56.6836C7.44935 56.6836 7.21723 56.7951 7.04529 57.0182C6.87765 57.2369 6.79383 57.5351 6.79383 57.9125C6.79383 58.29 6.87765 58.5903 7.04529 58.8133C7.21723 59.0321 7.44935 59.1415 7.74164 59.1415C8.03393 59.1415 8.2639 59.0321 8.43154 58.8133C8.60348 58.5903 8.68945 58.29 8.68945 57.9125Z" fill="#27235C"/>
<path d="M12.8278 59.4889C12.6903 59.5232 12.5076 59.5597 12.2798 59.5983C12.0563 59.6369 11.7962 59.6562 11.4996 59.6562C11.2417 59.6562 11.0246 59.6197 10.8484 59.5468C10.6722 59.4696 10.5303 59.3624 10.4229 59.2251C10.3154 59.0878 10.238 58.927 10.1907 58.7425C10.1435 58.5538 10.1198 58.3458 10.1198 58.1184V56.2396H10.7195V57.9897C10.7195 58.3972 10.7839 58.6889 10.9129 58.8648C11.0418 59.0407 11.2589 59.1286 11.5641 59.1286C11.6286 59.1286 11.6952 59.1264 11.764 59.1222C11.8328 59.1179 11.8972 59.1136 11.9574 59.1093C12.0176 59.1007 12.0713 59.0943 12.1186 59.09C12.1702 59.0814 12.2067 59.0728 12.2282 59.0642V56.2396H12.8278V59.4889Z" fill="#27235C"/>
<path d="M15.0988 56.1689C15.1504 56.1689 15.2084 56.1732 15.2729 56.1817C15.3417 56.186 15.4083 56.1946 15.4728 56.2075C15.5373 56.216 15.5953 56.2268 15.6469 56.2396C15.7028 56.2482 15.7436 56.2568 15.7694 56.2654L15.6662 56.7865C15.6189 56.7694 15.5394 56.7501 15.4277 56.7286C15.3202 56.7029 15.1805 56.69 15.0086 56.69C14.8968 56.69 14.785 56.7029 14.6733 56.7286C14.5658 56.7501 14.4949 56.7651 14.4605 56.7737V59.5854H13.8609V56.3812C14.0027 56.3297 14.179 56.2825 14.3896 56.2396C14.6002 56.1925 14.8366 56.1689 15.0988 56.1689Z" fill="#27235C"/>
<path d="M20.6902 55.1265H21.3156V59.5854H20.6902V57.5265H18.5044V59.5854H17.879V55.1265H18.5044V56.986H20.6902V55.1265Z" fill="#27235C"/>
<path d="M25.3459 57.9125C25.3459 58.1785 25.3072 58.4187 25.2298 58.6332C25.1525 58.8476 25.0429 59.0321 24.901 59.1865C24.7635 59.3409 24.598 59.461 24.4045 59.5468C24.2111 59.6283 24.0005 59.6691 23.7727 59.6691C23.5448 59.6691 23.3342 59.6283 23.1408 59.5468C22.9474 59.461 22.7797 59.3409 22.6379 59.1865C22.5003 59.0321 22.3929 58.8476 22.3155 58.6332C22.2381 58.4187 22.1994 58.1785 22.1994 57.9125C22.1994 57.6509 22.2381 57.4128 22.3155 57.1983C22.3929 56.9796 22.5003 56.793 22.6379 56.6386C22.7797 56.4841 22.9474 56.3662 23.1408 56.2847C23.3342 56.1989 23.5448 56.156 23.7727 56.156C24.0005 56.156 24.2111 56.1989 24.4045 56.2847C24.598 56.3662 24.7635 56.4841 24.901 56.6386C25.0429 56.793 25.1525 56.9796 25.2298 57.1983C25.3072 57.4128 25.3459 57.6509 25.3459 57.9125ZM24.7205 57.9125C24.7205 57.5351 24.6345 57.2369 24.4626 57.0182C24.2949 56.7951 24.065 56.6836 23.7727 56.6836C23.4804 56.6836 23.2483 56.7951 23.0763 57.0182C22.9087 57.2369 22.8249 57.5351 22.8249 57.9125C22.8249 58.29 22.9087 58.5903 23.0763 58.8133C23.2483 59.0321 23.4804 59.1415 23.7727 59.1415C24.065 59.1415 24.2949 59.0321 24.4626 58.8133C24.6345 58.5903 24.7205 58.29 24.7205 57.9125Z" fill="#27235C"/>
<path d="M26.9697 59.1543C27.2147 59.1543 27.3953 59.1222 27.5113 59.0578C27.6317 58.9935 27.6918 58.8905 27.6918 58.749C27.6918 58.6031 27.6338 58.4873 27.5178 58.4015C27.4017 58.3157 27.2104 58.2192 26.9439 58.112C26.815 58.0605 26.6903 58.009 26.5699 57.9576C26.4539 57.9018 26.3529 57.8375 26.2669 57.7645C26.1809 57.6916 26.1122 57.6037 26.0606 57.5007C26.009 57.3978 25.9832 57.2713 25.9832 57.1211C25.9832 56.8252 26.0928 56.5914 26.312 56.4198C26.5313 56.2439 26.83 56.156 27.2083 56.156C27.3028 56.156 27.3974 56.1624 27.492 56.1753C27.5865 56.1839 27.6746 56.1967 27.7563 56.2139C27.838 56.2268 27.9089 56.2418 27.9691 56.2589C28.0336 56.2761 28.083 56.2911 28.1174 56.304L28.0078 56.8187C27.9433 56.7844 27.8423 56.7501 27.7047 56.7158C27.5672 56.6772 27.4017 56.6579 27.2083 56.6579C27.0406 56.6579 26.8945 56.6922 26.7698 56.7608C26.6452 56.8252 26.5828 56.9281 26.5828 57.0697C26.5828 57.1426 26.5957 57.2069 26.6215 57.2627C26.6516 57.3184 26.6946 57.3699 26.7505 57.4171C26.8107 57.46 26.8837 57.5007 26.9697 57.5393C27.0557 57.578 27.1588 57.6187 27.2792 57.6616C27.4382 57.7216 27.5801 57.7817 27.7047 57.8418C27.8294 57.8975 27.9347 57.964 28.0207 58.0412C28.1109 58.1184 28.1797 58.2128 28.227 58.3243C28.2743 58.4316 28.2979 58.5645 28.2979 58.7232C28.2979 59.0321 28.1819 59.2659 27.9497 59.4246C27.7219 59.5833 27.3953 59.6626 26.9697 59.6626C26.6731 59.6626 26.441 59.6369 26.2734 59.5854C26.1057 59.5382 25.9918 59.5018 25.9316 59.476L26.0412 58.9613C26.11 58.987 26.2196 59.0256 26.3701 59.0771C26.5205 59.1286 26.7204 59.1543 26.9697 59.1543Z" fill="#27235C"/>
<path d="M29.628 56.2396H30.8982V56.7415H29.628V58.2857C29.628 58.453 29.6409 58.5924 29.6667 58.7039C29.6925 58.8112 29.7312 58.897 29.7828 58.9613C29.8343 59.0214 29.8988 59.0642 29.9762 59.09C30.0536 59.1157 30.1438 59.1286 30.247 59.1286C30.4275 59.1286 30.5715 59.1093 30.679 59.0707C30.7907 59.0278 30.8681 58.9978 30.9111 58.9806L31.0272 59.476C30.967 59.5061 30.8617 59.5425 30.7112 59.5854C30.5608 59.6326 30.3888 59.6562 30.1954 59.6562C29.9676 59.6562 29.7785 59.6283 29.628 59.5726C29.4819 59.5125 29.3637 59.4246 29.2734 59.3087C29.1831 59.1929 29.1186 59.0514 29.08 58.8841C29.0456 58.7125 29.0284 58.5152 29.0284 58.2921V55.3067L29.628 55.2037V56.2396Z" fill="#27235C"/>
<path d="M32.2609 59.5854H31.6612V56.2396H32.2609V59.5854ZM31.9578 55.6348C31.8504 55.6348 31.758 55.6005 31.6806 55.5319C31.6075 55.459 31.571 55.3624 31.571 55.2423C31.571 55.1222 31.6075 55.0279 31.6806 54.9592C31.758 54.8863 31.8504 54.8499 31.9578 54.8499C32.0653 54.8499 32.1556 54.8863 32.2286 54.9592C32.306 55.0279 32.3447 55.1222 32.3447 55.2423C32.3447 55.3624 32.306 55.459 32.2286 55.5319C32.1556 55.6005 32.0653 55.6348 31.9578 55.6348Z" fill="#27235C"/>
<path d="M33.292 56.3362C33.4296 56.3018 33.6123 56.2654 33.8401 56.2268C34.0679 56.1882 34.3301 56.1689 34.6267 56.1689C34.8932 56.1689 35.1146 56.2075 35.2908 56.2847C35.4671 56.3576 35.6068 56.4627 35.7099 56.6C35.8174 56.7329 35.8926 56.8938 35.9356 57.0825C35.9786 57.2713 36.0001 57.4793 36.0001 57.7066V59.5854H35.4004V57.8353C35.4004 57.6294 35.3854 57.4536 35.3553 57.3077C35.3295 57.1619 35.2844 57.0439 35.2199 56.9538C35.1554 56.8638 35.0695 56.7994 34.962 56.7608C34.8545 56.7179 34.7213 56.6965 34.5622 56.6965C34.4978 56.6965 34.4311 56.6986 34.3624 56.7029C34.2936 56.7072 34.227 56.7136 34.1625 56.7222C34.1023 56.7265 34.0464 56.7329 33.9948 56.7415C33.9476 56.7501 33.9132 56.7565 33.8917 56.7608V59.5854H33.292V56.3362Z" fill="#27235C"/>
<path d="M39.0964 59.2508C39.0448 59.2852 38.9438 59.3302 38.7933 59.386C38.6472 59.4374 38.4752 59.4632 38.2775 59.4632C38.0755 59.4632 37.8842 59.431 37.7037 59.3667C37.5274 59.3023 37.3727 59.2037 37.2394 59.0707C37.1062 58.9334 37.0009 58.764 36.9235 58.5624C36.8461 58.3608 36.8074 58.1206 36.8074 57.8418C36.8074 57.5973 36.844 57.3742 36.9171 57.1726C36.9901 56.9667 37.0954 56.7908 37.233 56.645C37.3748 56.4949 37.5468 56.379 37.7488 56.2975C37.9508 56.2118 38.1786 56.1689 38.4323 56.1689C38.7117 56.1689 38.9545 56.1903 39.1608 56.2332C39.3715 56.2718 39.5477 56.3083 39.6895 56.3426V59.3281C39.6895 59.8428 39.5563 60.216 39.2898 60.4476C39.0233 60.6792 38.6192 60.795 38.0776 60.795C37.867 60.795 37.6671 60.7779 37.478 60.7436C37.2932 60.7093 37.132 60.6685 36.9944 60.6213L37.104 60.1002C37.2244 60.1473 37.3705 60.1881 37.5425 60.2224C37.7187 60.261 37.9014 60.2803 38.0905 60.2803C38.4473 60.2803 38.7031 60.2095 38.8578 60.068C39.0168 59.9264 39.0964 59.7012 39.0964 59.3924V59.2508ZM39.0899 56.7672C39.0297 56.7501 38.9481 56.7351 38.8449 56.7222C38.746 56.705 38.6106 56.6965 38.4387 56.6965C38.1163 56.6965 37.867 56.8016 37.6908 57.0117C37.5188 57.2219 37.4329 57.5007 37.4329 57.8482C37.4329 58.0412 37.4565 58.2064 37.5038 58.3436C37.5554 58.4809 37.622 58.5946 37.7037 58.6846C37.7896 58.7747 37.8863 58.8412 37.9938 58.8841C38.1056 58.927 38.2195 58.9484 38.3355 58.9484C38.4946 58.9484 38.6407 58.927 38.774 58.8841C38.9072 58.8369 39.0125 58.7833 39.0899 58.7232V56.7672Z" fill="#27235C"/>
<path d="M41.3539 58.8519C41.3582 58.8862 41.3603 58.9206 41.3603 58.9549C41.3603 58.9849 41.3603 59.0171 41.3603 59.0514C41.3603 59.3216 41.3195 59.5876 41.2378 59.8492C41.1604 60.1152 41.053 60.3682 40.9154 60.6085L40.4512 60.4605C40.5586 60.2417 40.6296 60.0187 40.664 59.7913C40.6983 59.5683 40.7155 59.3581 40.7155 59.1608C40.7155 59.105 40.7134 59.0514 40.7091 58.9999C40.7091 58.9484 40.7069 58.8991 40.7026 58.8519H41.3539Z" fill="#27235C"/>
<path d="M43.6591 57.3528C43.6591 56.971 43.715 56.6343 43.8268 56.3426C43.9428 56.0509 44.0976 55.8086 44.291 55.6155C44.4887 55.4182 44.7166 55.2702 44.9745 55.1716C45.2367 55.0729 45.5139 55.0236 45.8062 55.0236C46.0942 55.0236 46.365 55.0729 46.6186 55.1716C46.8765 55.2702 47.1022 55.4182 47.2956 55.6155C47.4891 55.8086 47.6417 56.0509 47.7534 56.3426C47.8695 56.6343 47.9275 56.971 47.9275 57.3528C47.9275 57.7345 47.8695 58.0712 47.7534 58.3629C47.6417 58.6546 47.4891 58.8991 47.2956 59.0964C47.1022 59.2894 46.8765 59.4353 46.6186 59.5339C46.365 59.6326 46.0942 59.6819 45.8062 59.6819C45.5139 59.6819 45.2367 59.6326 44.9745 59.5339C44.7166 59.4353 44.4887 59.2894 44.291 59.0964C44.0976 58.8991 43.9428 58.6546 43.8268 58.3629C43.715 58.0712 43.6591 57.7345 43.6591 57.3528ZM44.3168 57.3528C44.3168 57.623 44.3512 57.8696 44.42 58.0927C44.4887 58.3114 44.5855 58.498 44.7101 58.6525C44.8391 58.8069 44.9938 58.927 45.1743 59.0128C45.3592 59.0943 45.5655 59.135 45.7933 59.135C46.0211 59.135 46.2253 59.0943 46.4059 59.0128C46.5864 58.927 46.739 58.8069 46.8636 58.6525C46.9926 58.498 47.0915 58.3114 47.1602 58.0927C47.229 57.8696 47.2634 57.623 47.2634 57.3528C47.2634 57.0825 47.229 56.838 47.1602 56.6193C47.0915 56.3962 46.9926 56.2075 46.8636 56.053C46.739 55.8986 46.5864 55.7807 46.4059 55.6992C46.2253 55.6134 46.0211 55.5705 45.7933 55.5705C45.5655 55.5705 45.3592 55.6134 45.1743 55.6992C44.9938 55.7807 44.8391 55.8986 44.7101 56.053C44.5855 56.2075 44.4887 56.3962 44.42 56.6193C44.3512 56.838 44.3168 57.0825 44.3168 57.3528Z" fill="#27235C"/>
<path d="M51.4887 59.4889C51.3511 59.5232 51.1685 59.5597 50.9406 59.5983C50.7171 59.6369 50.4571 59.6562 50.1605 59.6562C49.9026 59.6562 49.6855 59.6197 49.5093 59.5468C49.333 59.4696 49.1912 59.3624 49.0837 59.2251C48.9762 59.0878 48.8989 58.927 48.8516 58.7425C48.8043 58.5538 48.7807 58.3458 48.7807 58.1184V56.2396H49.3803V57.9897C49.3803 58.3972 49.4448 58.6889 49.5737 58.8648C49.7027 59.0407 49.9198 59.1286 50.2249 59.1286C50.2894 59.1286 50.356 59.1264 50.4248 59.1222C50.4936 59.1179 50.5581 59.1136 50.6183 59.1093C50.6784 59.1007 50.7322 59.0943 50.7794 59.09C50.831 59.0814 50.8676 59.0728 50.8891 59.0642V56.2396H51.4887V59.4889Z" fill="#27235C"/>
<path d="M53.7597 56.1689C53.8113 56.1689 53.8693 56.1732 53.9338 56.1817C54.0025 56.186 54.0692 56.1946 54.1336 56.2075C54.1981 56.216 54.2561 56.2268 54.3077 56.2396C54.3636 56.2482 54.4044 56.2568 54.4302 56.2654L54.3271 56.7865C54.2798 56.7694 54.2003 56.7501 54.0885 56.7286C53.981 56.7029 53.8413 56.69 53.6694 56.69C53.5577 56.69 53.4459 56.7029 53.3341 56.7286C53.2267 56.7501 53.1557 56.7651 53.1214 56.7737V59.5854H52.5217V56.3812C52.6636 56.3297 52.8398 56.2825 53.0504 56.2396C53.2611 56.1925 53.4975 56.1689 53.7597 56.1689Z" fill="#27235C"/>
<path d="M58.7256 57.7195C58.7944 57.8053 58.8803 57.919 58.9835 58.0605C59.091 58.1978 59.2006 58.3522 59.3123 58.5238C59.4241 58.6911 59.5337 58.8669 59.6412 59.0514C59.7529 59.2358 59.8475 59.4138 59.9249 59.5854H59.2414C59.1554 59.4224 59.0609 59.2573 58.9577 59.09C58.8588 58.9227 58.7578 58.764 58.6547 58.6139C58.5515 58.4594 58.4483 58.3157 58.3452 58.1828C58.2463 58.0498 58.156 57.934 58.0744 57.8353C58.0185 57.8396 57.9605 57.8418 57.9003 57.8418C57.8444 57.8418 57.7864 57.8418 57.7262 57.8418H57.1653V59.5854H56.5398V55.1909C56.7161 55.148 56.9116 55.1201 57.1266 55.1072C57.3458 55.0901 57.5457 55.0815 57.7262 55.0815C58.3538 55.0815 58.8309 55.1994 59.1576 55.4354C59.4886 55.6713 59.6541 56.023 59.6541 56.4906C59.6541 56.7865 59.5745 57.0396 59.4155 57.2498C59.2608 57.46 59.0308 57.6166 58.7256 57.7195ZM57.7778 55.6284C57.5113 55.6284 57.3071 55.6348 57.1653 55.6477V57.327H57.6101C57.8251 57.327 58.0185 57.3163 58.1904 57.2948C58.3624 57.2734 58.5064 57.2327 58.6224 57.1726C58.7428 57.1125 58.8352 57.0289 58.8997 56.9217C58.9642 56.8101 58.9964 56.6643 58.9964 56.4841C58.9964 56.3169 58.9642 56.1774 58.8997 56.0659C58.8352 55.9544 58.7471 55.8665 58.6353 55.8021C58.5279 55.7378 58.3989 55.6927 58.2485 55.667C58.1023 55.6413 57.9454 55.6284 57.7778 55.6284Z" fill="#27235C"/>
<path d="M60.3691 57.919C60.3691 57.623 60.4121 57.3656 60.4981 57.1469C60.5841 56.9238 60.698 56.7394 60.8398 56.5935C60.9817 56.4477 61.145 56.3383 61.3298 56.2654C61.5147 56.1925 61.7038 56.156 61.8972 56.156C62.3486 56.156 62.6946 56.2975 62.9353 56.5807C63.176 56.8595 63.2964 57.2863 63.2964 57.8611C63.2964 57.8868 63.2964 57.9211 63.2964 57.964C63.2964 58.0026 63.2942 58.0391 63.2899 58.0734H60.9946C61.0204 58.4208 61.1214 58.6846 61.2976 58.8648C61.4738 59.0449 61.749 59.135 62.1229 59.135C62.3335 59.135 62.5098 59.1179 62.6516 59.0836C62.7978 59.0449 62.9074 59.0085 62.9804 58.9742L63.0643 59.476C62.9912 59.5146 62.8622 59.5554 62.6774 59.5983C62.4969 59.6412 62.2906 59.6626 62.0584 59.6626C61.7661 59.6626 61.5125 59.6197 61.2976 59.5339C61.087 59.4439 60.9129 59.3216 60.7753 59.1672C60.6378 59.0128 60.5346 58.8305 60.4659 58.6203C60.4014 58.4058 60.3691 58.172 60.3691 57.919ZM62.671 57.5908C62.6753 57.3206 62.6065 57.0997 62.4646 56.9281C62.3271 56.7522 62.1358 56.6643 61.8908 56.6643C61.7532 56.6643 61.6307 56.6922 61.5233 56.7479C61.4201 56.7994 61.332 56.868 61.2589 56.9538C61.1859 57.0396 61.1278 57.1383 61.0848 57.2498C61.0461 57.3613 61.0204 57.475 61.0075 57.5908H62.671Z" fill="#27235C"/>
<path d="M64.9379 59.1543C65.1829 59.1543 65.3635 59.1222 65.4795 59.0578C65.5999 58.9935 65.6601 58.8905 65.6601 58.749C65.6601 58.6031 65.602 58.4873 65.486 58.4015C65.3699 58.3157 65.1786 58.2192 64.9121 58.112C64.7832 58.0605 64.6585 58.009 64.5382 57.9576C64.4221 57.9018 64.3211 57.8375 64.2351 57.7645C64.1492 57.6916 64.0804 57.6037 64.0288 57.5007C63.9772 57.3978 63.9514 57.2713 63.9514 57.1211C63.9514 56.8252 64.061 56.5914 64.2803 56.4198C64.4995 56.2439 64.7982 56.156 65.1765 56.156C65.2711 56.156 65.3656 56.1624 65.4602 56.1753C65.5548 56.1839 65.6429 56.1967 65.7245 56.2139C65.8062 56.2268 65.8771 56.2418 65.9373 56.2589C66.0018 56.2761 66.0512 56.2911 66.0856 56.304L65.976 56.8187C65.9115 56.7844 65.8105 56.7501 65.673 56.7158C65.5354 56.6772 65.3699 56.6579 65.1765 56.6579C65.0088 56.6579 64.8627 56.6922 64.738 56.7608C64.6134 56.8252 64.5511 56.9281 64.5511 57.0697C64.5511 57.1426 64.564 57.2069 64.5897 57.2627C64.6198 57.3184 64.6628 57.3699 64.7187 57.4171C64.7789 57.46 64.852 57.5007 64.9379 57.5393C65.0239 57.578 65.1271 57.6187 65.2474 57.6616C65.4065 57.7216 65.5483 57.7817 65.673 57.8418C65.7976 57.8975 65.9029 57.964 65.9889 58.0412C66.0792 58.1184 66.1479 58.2128 66.1952 58.3243C66.2425 58.4316 66.2661 58.5645 66.2661 58.7232C66.2661 59.0321 66.1501 59.2659 65.918 59.4246C65.6902 59.5833 65.3635 59.6626 64.9379 59.6626C64.6413 59.6626 64.4092 59.6369 64.2416 59.5854C64.0739 59.5382 63.96 59.5018 63.8998 59.476L64.0095 58.9613C64.0782 58.987 64.1878 59.0256 64.3383 59.0771C64.4887 59.1286 64.6886 59.1543 64.9379 59.1543Z" fill="#27235C"/>
<path d="M69.3629 57.919C69.3629 57.5286 69.2662 57.2284 69.0727 57.0182C68.8793 56.808 68.6214 56.7029 68.299 56.7029C68.1185 56.7029 67.9766 56.7093 67.8735 56.7222C67.7746 56.7351 67.6951 56.7501 67.6349 56.7672V58.8777C67.708 58.9377 67.8133 58.9956 67.9508 59.0514C68.0884 59.1071 68.2388 59.135 68.4022 59.135C68.5741 59.135 68.7203 59.105 68.8406 59.0449C68.9653 58.9806 69.0663 58.8948 69.1437 58.7876C69.221 58.6761 69.2769 58.5474 69.3113 58.4015C69.3457 58.2514 69.3629 58.0905 69.3629 57.919ZM69.9883 57.919C69.9883 58.172 69.9539 58.4058 69.8851 58.6203C69.8207 58.8348 69.724 59.0192 69.595 59.1736C69.466 59.3281 69.307 59.4482 69.1179 59.5339C68.933 59.6197 68.7203 59.6626 68.4796 59.6626C68.2861 59.6626 68.1142 59.6369 67.9637 59.5854C67.8176 59.5339 67.708 59.4846 67.6349 59.4374V60.7757H67.0353V56.3426C67.1771 56.3083 67.3534 56.2718 67.564 56.2332C67.7789 56.1903 68.0261 56.1689 68.3055 56.1689C68.5634 56.1689 68.7955 56.2096 69.0018 56.2911C69.2081 56.3726 69.3844 56.4884 69.5305 56.6386C69.6767 56.7887 69.7884 56.9731 69.8658 57.1919C69.9475 57.4064 69.9883 57.6487 69.9883 57.919Z" fill="#27235C"/>
<path d="M73.7916 57.9125C73.7916 58.1785 73.7529 58.4187 73.6755 58.6332C73.5982 58.8476 73.4885 59.0321 73.3467 59.1865C73.2091 59.3409 73.0437 59.461 72.8502 59.5468C72.6568 59.6283 72.4462 59.6691 72.2184 59.6691C71.9905 59.6691 71.7799 59.6283 71.5865 59.5468C71.3931 59.461 71.2254 59.3409 71.0836 59.1865C70.946 59.0321 70.8385 58.8476 70.7612 58.6332C70.6838 58.4187 70.6451 58.1785 70.6451 57.9125C70.6451 57.6509 70.6838 57.4128 70.7612 57.1983C70.8385 56.9796 70.946 56.793 71.0836 56.6386C71.2254 56.4841 71.3931 56.3662 71.5865 56.2847C71.7799 56.1989 71.9905 56.156 72.2184 56.156C72.4462 56.156 72.6568 56.1989 72.8502 56.2847C73.0437 56.3662 73.2091 56.4841 73.3467 56.6386C73.4885 56.793 73.5982 56.9796 73.6755 57.1983C73.7529 57.4128 73.7916 57.6509 73.7916 57.9125ZM73.1662 57.9125C73.1662 57.5351 73.0802 57.2369 72.9082 57.0182C72.7406 56.7951 72.5106 56.6836 72.2184 56.6836C71.9261 56.6836 71.6939 56.7951 71.522 57.0182C71.3544 57.2369 71.2705 57.5351 71.2705 57.9125C71.2705 58.29 71.3544 58.5903 71.522 58.8133C71.6939 59.0321 71.9261 59.1415 72.2184 59.1415C72.5106 59.1415 72.7406 59.0321 72.9082 58.8133C73.0802 58.5903 73.1662 58.29 73.1662 57.9125Z" fill="#27235C"/>
<path d="M74.6352 56.3362C74.7728 56.3018 74.9555 56.2654 75.1833 56.2268C75.4111 56.1882 75.6733 56.1689 75.9699 56.1689C76.2364 56.1689 76.4578 56.2075 76.634 56.2847C76.8102 56.3576 76.9499 56.4627 77.0531 56.6C77.1606 56.7329 77.2358 56.8938 77.2788 57.0825C77.3218 57.2713 77.3432 57.4793 77.3432 57.7066V59.5854H76.7436V57.8353C76.7436 57.6294 76.7286 57.4536 76.6985 57.3077C76.6727 57.1619 76.6275 57.0439 76.5631 56.9538C76.4986 56.8638 76.4126 56.7994 76.3052 56.7608C76.1977 56.7179 76.0645 56.6965 75.9054 56.6965C75.8409 56.6965 75.7743 56.6986 75.7055 56.7029C75.6368 56.7072 75.5701 56.7136 75.5057 56.7222C75.4455 56.7265 75.3896 56.7329 75.338 56.7415C75.2907 56.7501 75.2563 56.7565 75.2349 56.7608V59.5854H74.6352V56.3362Z" fill="#27235C"/>
<path d="M79.1178 59.1543C79.3628 59.1543 79.5433 59.1222 79.6594 59.0578C79.7797 58.9935 79.8399 58.8905 79.8399 58.749C79.8399 58.6031 79.7819 58.4873 79.6658 58.4015C79.5498 58.3157 79.3585 58.2192 79.092 58.112C78.963 58.0605 78.8384 58.009 78.718 57.9576C78.6019 57.9018 78.5009 57.8375 78.415 57.7645C78.329 57.6916 78.2602 57.6037 78.2086 57.5007C78.1571 57.3978 78.1313 57.2713 78.1313 57.1211C78.1313 56.8252 78.2409 56.5914 78.4601 56.4198C78.6793 56.2439 78.9781 56.156 79.3563 56.156C79.4509 56.156 79.5455 56.1624 79.64 56.1753C79.7346 56.1839 79.8227 56.1967 79.9044 56.2139C79.9861 56.2268 80.057 56.2418 80.1172 56.2589C80.1816 56.2761 80.2311 56.2911 80.2654 56.304L80.1558 56.8187C80.0914 56.7844 79.9903 56.7501 79.8528 56.7158C79.7152 56.6772 79.5498 56.6579 79.3563 56.6579C79.1887 56.6579 79.0425 56.6922 78.9179 56.7608C78.7932 56.8252 78.7309 56.9281 78.7309 57.0697C78.7309 57.1426 78.7438 57.2069 78.7696 57.2627C78.7997 57.3184 78.8427 57.3699 78.8985 57.4171C78.9587 57.46 79.0318 57.5007 79.1178 57.5393C79.2037 57.578 79.3069 57.6187 79.4273 57.6616C79.5863 57.7216 79.7281 57.7817 79.8528 57.8418C79.9775 57.8975 80.0828 57.964 80.1687 58.0412C80.259 58.1184 80.3278 58.2128 80.3751 58.3243C80.4223 58.4316 80.446 58.5645 80.446 58.7232C80.446 59.0321 80.3299 59.2659 80.0978 59.4246C79.87 59.5833 79.5433 59.6626 79.1178 59.6626C78.8212 59.6626 78.5891 59.6369 78.4214 59.5854C78.2538 59.5382 78.1399 59.5018 78.0797 59.476L78.1893 58.9613C78.2581 58.987 78.3677 59.0256 78.5181 59.0771C78.6686 59.1286 78.8685 59.1543 79.1178 59.1543Z" fill="#27235C"/>
<path d="M81.8148 59.5854H81.2151V56.2396H81.8148V59.5854ZM81.5117 55.6348C81.4042 55.6348 81.3118 55.6005 81.2345 55.5319C81.1614 55.459 81.1249 55.3624 81.1249 55.2423C81.1249 55.1222 81.1614 55.0279 81.2345 54.9592C81.3118 54.8863 81.4042 54.8499 81.5117 54.8499C81.6192 54.8499 81.7094 54.8863 81.7825 54.9592C81.8599 55.0279 81.8986 55.1222 81.8986 55.2423C81.8986 55.3624 81.8599 55.459 81.7825 55.5319C81.7094 55.6005 81.6192 55.6348 81.5117 55.6348Z" fill="#27235C"/>
<path d="M83.4456 56.3876C83.5186 56.3404 83.6282 56.2911 83.7744 56.2396C83.9248 56.1882 84.0968 56.1624 84.2902 56.1624C84.5309 56.1624 84.7437 56.2053 84.9285 56.2911C85.1177 56.3769 85.2767 56.497 85.4057 56.6514C85.5346 56.8058 85.6313 56.9903 85.6958 57.2048C85.7646 57.4192 85.799 57.6552 85.799 57.9125C85.799 58.1828 85.7581 58.4273 85.6765 58.646C85.5991 58.8605 85.4873 59.0428 85.3412 59.1929C85.195 59.3431 85.0188 59.4589 84.8125 59.5404C84.6061 59.6219 84.374 59.6626 84.1161 59.6626C83.8367 59.6626 83.5896 59.6433 83.3746 59.6047C83.1597 59.5661 82.9835 59.5275 82.8459 59.4889V54.6954L83.4456 54.5925V56.3876ZM83.4456 59.0642C83.5057 59.0814 83.5896 59.0986 83.697 59.1157C83.8088 59.1286 83.9463 59.135 84.1097 59.135C84.4321 59.135 84.69 59.0299 84.8834 58.8198C85.0768 58.6053 85.1735 58.3029 85.1735 57.9125C85.1735 57.741 85.1563 57.5801 85.122 57.43C85.0876 57.2798 85.0317 57.1512 84.9543 57.0439C84.8769 56.9324 84.7759 56.8466 84.6513 56.7865C84.5309 56.7222 84.3848 56.69 84.2128 56.69C84.0495 56.69 83.8991 56.7179 83.7615 56.7737C83.624 56.8294 83.5186 56.8873 83.4456 56.9474V59.0642Z" fill="#27235C"/>
<path d="M87.2424 59.5854H86.6427V56.2396H87.2424V59.5854ZM86.9393 55.6348C86.8319 55.6348 86.7395 55.6005 86.6621 55.5319C86.589 55.459 86.5525 55.3624 86.5525 55.2423C86.5525 55.1222 86.589 55.0279 86.6621 54.9592C86.7395 54.8863 86.8319 54.8499 86.9393 54.8499C87.0468 54.8499 87.1371 54.8863 87.2101 54.9592C87.2875 55.0279 87.3262 55.1222 87.3262 55.2423C87.3262 55.3624 87.2875 55.459 87.2101 55.5319C87.1371 55.6005 87.0468 55.6348 86.9393 55.6348Z" fill="#27235C"/>
<path d="M89.2794 59.6498C88.9097 59.6412 88.6475 59.5618 88.4928 59.4117C88.338 59.2616 88.2607 59.0278 88.2607 58.7104V54.6954L88.8603 54.5925V58.6139C88.8603 58.7125 88.8689 58.794 88.8861 58.8584C88.9033 58.9227 88.9312 58.9742 88.9699 59.0128C89.0086 59.0514 89.0602 59.0814 89.1247 59.1029C89.1891 59.12 89.2686 59.135 89.3632 59.1479L89.2794 59.6498Z" fill="#27235C"/>
<path d="M90.6362 59.5854H90.0366V56.2396H90.6362V59.5854ZM90.3332 55.6348C90.2257 55.6348 90.1333 55.6005 90.0559 55.5319C89.9829 55.459 89.9463 55.3624 89.9463 55.2423C89.9463 55.1222 89.9829 55.0279 90.0559 54.9592C90.1333 54.8863 90.2257 54.8499 90.3332 54.8499C90.4406 54.8499 90.5309 54.8863 90.604 54.9592C90.6814 55.0279 90.72 55.1222 90.72 55.2423C90.72 55.3624 90.6814 55.459 90.604 55.5319C90.5309 55.6005 90.4406 55.6348 90.3332 55.6348Z" fill="#27235C"/>
<path d="M92.2283 56.2396H93.4985V56.7415H92.2283V58.2857C92.2283 58.453 92.2412 58.5924 92.267 58.7039C92.2928 58.8112 92.3315 58.897 92.3831 58.9613C92.4347 59.0214 92.4991 59.0642 92.5765 59.09C92.6539 59.1157 92.7442 59.1286 92.8473 59.1286C93.0279 59.1286 93.1718 59.1093 93.2793 59.0707C93.3911 59.0278 93.4684 58.9978 93.5114 58.9806L93.6275 59.476C93.5673 59.5061 93.462 59.5425 93.3115 59.5854C93.1611 59.6326 92.9892 59.6562 92.7957 59.6562C92.5679 59.6562 92.3788 59.6283 92.2283 59.5726C92.0822 59.5125 91.964 59.4246 91.8737 59.3087C91.7835 59.1929 91.719 59.0514 91.6803 58.8841C91.6459 58.7125 91.6287 58.5152 91.6287 58.2921V55.3067L92.2283 55.2037V56.2396Z" fill="#27235C"/>
<path d="M93.8683 60.2095C93.9155 60.231 93.9757 60.2503 94.0488 60.2674C94.1262 60.2889 94.2014 60.2996 94.2745 60.2996C94.5109 60.2996 94.6957 60.246 94.829 60.1388C94.9622 60.0358 95.0826 59.8664 95.19 59.6305C94.9192 59.1157 94.6656 58.571 94.4292 57.9962C94.1971 57.4171 94.0037 56.8316 93.8489 56.2396H94.4937C94.541 56.4327 94.5969 56.6407 94.6613 56.8638C94.7301 57.0868 94.8053 57.3163 94.887 57.5522C94.9687 57.7881 95.0568 58.0241 95.1514 58.26C95.2459 58.4959 95.3448 58.7232 95.4479 58.942C95.6113 58.4916 95.7531 58.0455 95.8735 57.6037C95.9939 57.1619 96.1078 56.7072 96.2152 56.2396H96.8342C96.6795 56.8702 96.5075 57.4772 96.3184 58.0605C96.1293 58.6396 95.9251 59.1822 95.7059 59.6884C95.6199 59.8814 95.5296 60.0465 95.4351 60.1838C95.3448 60.3254 95.2438 60.4412 95.132 60.5312C95.0203 60.6213 94.8935 60.6878 94.7516 60.7307C94.6141 60.7736 94.4572 60.795 94.2809 60.795C94.2336 60.795 94.1842 60.7908 94.1326 60.7822C94.081 60.7779 94.0295 60.7693 93.9779 60.7564C93.9306 60.7479 93.8855 60.7371 93.8425 60.7243C93.8038 60.7114 93.7758 60.7007 93.7587 60.6921L93.8683 60.2095Z" fill="#27235C"/>
<path d="M98 59.238C98 59.3538 97.9613 59.4546 97.8839 59.5404C97.8065 59.6262 97.7012 59.6691 97.568 59.6691C97.4347 59.6691 97.3294 59.6262 97.252 59.5404C97.1747 59.4546 97.136 59.3538 97.136 59.238C97.136 59.1222 97.1747 59.0214 97.252 58.9356C97.3294 58.8498 97.4347 58.8069 97.568 58.8069C97.7012 58.8069 97.8065 58.8498 97.8839 58.9356C97.9613 59.0214 98 59.1222 98 59.238Z" fill="#27235C"/>
<path d="M92.796 50.2243C92.0588 50.2243 91.3969 50.0814 90.8101 49.7956C90.2385 49.4947 89.7495 49.0885 89.3433 48.577C88.9522 48.0655 88.6513 47.4787 88.4407 46.8168C88.2451 46.1398 88.1473 45.4177 88.1473 44.6504C88.1623 43.8831 88.2752 43.1685 88.4858 42.5066C88.6964 41.8296 88.9973 41.2429 89.3885 40.7464C89.7946 40.2349 90.2836 39.8362 90.8553 39.5504C91.427 39.2645 92.0739 39.1216 92.796 39.1216C93.488 39.1216 94.1349 39.2645 94.7367 39.5504C95.3535 39.8362 95.8951 40.2349 96.3615 40.7464C96.8429 41.2429 97.219 41.8296 97.4898 42.5066C97.7606 43.1685 97.896 43.8756 97.896 44.6278C97.896 45.4101 97.7606 46.1473 97.4898 46.8394C97.219 47.5163 96.8504 48.1106 96.3841 48.6221C95.9177 49.1186 95.3761 49.5097 94.7593 49.7956C94.1425 50.0814 93.488 50.2243 92.796 50.2243ZM92.4349 47.584C92.9615 47.584 93.4354 47.4637 93.8566 47.223C94.2778 46.9672 94.6088 46.6212 94.8495 46.1849C95.1053 45.7486 95.2332 45.2522 95.2332 44.6955C95.2332 44.1239 95.1053 43.6199 94.8495 43.1836C94.6088 42.7323 94.2778 42.3862 93.8566 42.1455C93.4354 41.8898 92.9615 41.7619 92.4349 41.7619C91.9234 41.7619 91.457 41.8898 91.0358 42.1455C90.6146 42.4013 90.2761 42.7473 90.0203 43.1836C89.7796 43.6199 89.6592 44.1239 89.6592 44.6955C89.6592 45.2522 89.7796 45.7486 90.0203 46.1849C90.2761 46.6212 90.6146 46.9672 91.0358 47.223C91.457 47.4637 91.9234 47.584 92.4349 47.584ZM88.2601 50.2469C87.8539 50.2469 87.5531 50.1792 87.3575 50.0438C87.1619 49.9234 87.0415 49.7655 86.9964 49.5699C86.9513 49.3593 86.9287 49.1261 86.9287 48.8703V35.4207C86.9287 35.165 86.9513 34.9393 86.9964 34.7437C87.0415 34.5331 87.1619 34.3676 87.3575 34.2473C87.5531 34.1269 87.8539 34.0667 88.2601 34.0667C88.6814 34.0667 88.9823 34.1269 89.1628 34.2473C89.3433 34.3676 89.4562 34.5331 89.5013 34.7437C89.5464 34.9544 89.569 35.18 89.569 35.4207V49.3217C89.5088 49.6526 89.3809 49.8858 89.1854 50.0212C89.0048 50.1717 88.6964 50.2469 88.2601 50.2469Z" fill="#27235C" stroke="#27235C" stroke-width="0.2"/>
<path d="M80.2027 50.3826C79.2248 50.3826 78.3673 50.2246 77.6302 49.9087C76.908 49.5928 76.2987 49.164 75.8023 48.6224C75.3209 48.0658 74.9523 47.4489 74.6965 46.772C74.4558 46.0799 74.3354 45.3653 74.3354 44.6281C74.3354 43.545 74.5837 42.5821 75.0801 41.7396C75.5766 40.8972 76.2611 40.2352 77.1337 39.7538C78.0213 39.2724 79.0368 39.0317 80.1802 39.0317C80.9926 39.0317 81.7072 39.1595 82.324 39.4153C82.9408 39.671 83.4523 40.0095 83.8585 40.4308C84.2797 40.837 84.5957 41.2883 84.8063 41.7848C85.0319 42.2812 85.1448 42.7627 85.1448 43.229C85.1448 44.0264 84.9492 44.6056 84.5581 44.9666C84.1819 45.3277 83.708 45.5082 83.1364 45.5082H77.1788C77.1939 46.0197 77.3518 46.4635 77.6527 46.8397C77.9686 47.2158 78.3598 47.5091 78.8262 47.7197C79.3076 47.9153 79.7965 48.0131 80.293 48.0131C80.6691 48.0131 81.0001 47.9905 81.2859 47.9454C81.5868 47.9003 81.8426 47.8476 82.0532 47.7874C82.2638 47.7122 82.4443 47.637 82.5948 47.5618C82.7603 47.4866 82.9107 47.4189 83.0461 47.3587C83.1815 47.2985 83.3094 47.2609 83.4297 47.2459C83.5952 47.2308 83.7607 47.2684 83.9262 47.3587C84.0917 47.4489 84.2271 47.6069 84.3324 47.8326C84.4227 47.983 84.4828 48.1259 84.5129 48.2613C84.558 48.3817 84.5806 48.5021 84.5806 48.6224C84.5806 48.9233 84.4001 49.2091 84.039 49.4799C83.678 49.7357 83.1665 49.9463 82.5045 50.1118C81.8576 50.2923 81.0903 50.3826 80.2027 50.3826ZM77.1788 43.906H81.8049C82.0607 43.906 82.2563 43.8684 82.3917 43.7932C82.5271 43.7029 82.5948 43.5224 82.5948 43.2516C82.5948 42.9056 82.4895 42.5972 82.2788 42.3264C82.0682 42.0405 81.7824 41.8224 81.4213 41.6719C81.0602 41.5065 80.639 41.4237 80.1576 41.4237C79.601 41.4237 79.097 41.5365 78.6456 41.7622C78.1943 41.9728 77.8333 42.2662 77.5625 42.6423C77.3067 43.0184 77.1788 43.4396 77.1788 43.906Z" fill="#27235C" stroke="#27235C" stroke-width="0.2"/>
<path d="M60.0133 50.18C59.7124 50.18 59.4717 50.1274 59.2912 50.0221C59.1107 49.9017 58.9753 49.7663 58.885 49.6159C58.8098 49.4654 58.7571 49.3376 58.727 49.2323L54.304 36.2791C54.1536 35.7977 54.131 35.4366 54.2363 35.1959C54.3416 34.9402 54.65 34.7296 55.1615 34.5641C55.5076 34.4437 55.7859 34.3911 55.9965 34.4061C56.2071 34.4211 56.3801 34.5114 56.5155 34.6769C56.666 34.8273 56.7938 35.0681 56.8992 35.399L60.1487 45.238L63.0598 35.4893C63.1049 35.3388 63.1651 35.1884 63.2403 35.038C63.3306 34.8725 63.466 34.7371 63.6465 34.6318C63.8271 34.5265 64.0753 34.4738 64.3912 34.4738C64.7523 34.4738 65.0231 34.534 65.2036 34.6543C65.3841 34.7747 65.512 34.9101 65.5872 35.0605C65.6775 35.1959 65.7377 35.3238 65.7678 35.4442L68.6788 45.3057L71.951 35.4216C72.0563 35.0756 72.1766 34.8198 72.312 34.6543C72.4625 34.4888 72.6505 34.3986 72.8762 34.3835C73.1019 34.3534 73.3802 34.3986 73.7112 34.5189C74.0572 34.6393 74.3054 34.7747 74.4558 34.9251C74.6063 35.0605 74.6815 35.2411 74.6815 35.4667C74.6815 35.6773 74.6289 35.9481 74.5235 36.2791L70.1231 49.2548C70.093 49.3451 70.0328 49.4654 69.9426 49.6159C69.8673 49.7663 69.7395 49.9017 69.5589 50.0221C69.3784 50.1274 69.1302 50.18 68.8142 50.18C68.4983 50.18 68.2501 50.1123 68.0695 49.9769C67.889 49.8416 67.7536 49.6911 67.6633 49.5256C67.5731 49.3601 67.5129 49.2398 67.4828 49.1646L64.4138 39.2353L61.3447 49.142C61.3147 49.2473 61.2545 49.3827 61.1642 49.5482C61.089 49.7137 60.9611 49.8641 60.7806 49.9995C60.6 50.1199 60.3443 50.18 60.0133 50.18Z" fill="#27235C" stroke="#27235C" stroke-width="0.2"/>
<path d="M48.2793 50.3828C47.8881 50.3828 47.4744 50.3377 47.0381 50.2474C46.6018 50.1722 46.1806 50.0593 45.7744 49.9089C45.3682 49.7434 45.0147 49.5554 44.7138 49.3447C44.4279 49.1191 44.2474 48.8708 44.1722 48.6C44.112 48.4496 44.0894 48.3067 44.1045 48.1713C44.1195 48.0208 44.1647 47.8704 44.2399 47.72C44.3151 47.5545 44.4279 47.389 44.5784 47.2235C44.7138 47.058 44.8492 46.9677 44.9846 46.9527C45.135 46.9226 45.3231 46.9677 45.5487 47.0881C45.7443 47.1633 45.9549 47.2611 46.1806 47.3815C46.4213 47.5018 46.662 47.6222 46.9027 47.7425C47.1585 47.8629 47.4142 47.9607 47.67 48.0359C47.9408 48.1111 48.2041 48.1487 48.4598 48.1487C49.0165 48.1487 49.4603 48.0585 49.7912 47.8779C50.1222 47.6823 50.2877 47.4115 50.2877 47.0655C50.2877 46.87 50.235 46.6969 50.1297 46.5465C50.0244 46.3961 49.8815 46.2757 49.701 46.1854C49.5355 46.0801 49.3324 45.9899 49.0917 45.9146C48.866 45.8244 48.6178 45.7492 48.347 45.689C48.0912 45.6138 47.8204 45.531 47.5346 45.4407C47.1585 45.3354 46.7824 45.2076 46.4063 45.0571C46.0302 44.9067 45.6917 44.7111 45.3908 44.4704C45.1049 44.2297 44.8717 43.9288 44.6912 43.5677C44.5107 43.2067 44.4204 42.7553 44.4204 42.2137C44.4204 41.5367 44.5784 40.9651 44.8943 40.4987C45.2253 40.0173 45.6992 39.6487 46.316 39.3929C46.9328 39.1372 47.6775 39.0093 48.5501 39.0093C48.851 39.0093 49.1368 39.0319 49.4076 39.077C49.6934 39.1221 49.9642 39.1898 50.22 39.2801C50.4908 39.3553 50.7465 39.4531 50.9873 39.5735C51.243 39.6938 51.4837 39.8292 51.7094 39.9797C52.0855 40.1903 52.2811 40.4385 52.2961 40.7244C52.3112 40.9952 52.2058 41.2885 51.9802 41.6044C51.8147 41.8151 51.6492 41.9655 51.4837 42.0558C51.3182 42.131 51.1452 42.131 50.9647 42.0558C50.724 41.9354 50.4607 41.8075 50.1749 41.6721C49.9041 41.5217 49.6182 41.3938 49.3173 41.2885C49.0315 41.1832 48.7306 41.1306 48.4147 41.1306C48.1138 41.1306 47.843 41.1757 47.6023 41.266C47.3616 41.3562 47.181 41.4841 47.0607 41.6496C46.9403 41.8151 46.8802 42.0106 46.8802 42.2363C46.8802 42.4469 46.9403 42.6199 47.0607 42.7553C47.181 42.8907 47.339 43.0036 47.5346 43.0938C47.7302 43.1841 47.9634 43.2668 48.2341 43.3421C48.5049 43.4022 48.7908 43.4624 49.0917 43.5226C49.5129 43.6129 49.9417 43.7257 50.378 43.8611C50.8142 43.9965 51.2129 44.1845 51.574 44.4253C51.9501 44.666 52.251 44.9894 52.4766 45.3956C52.7023 45.7868 52.8151 46.2983 52.8151 46.9301C52.8151 48.0284 52.4089 48.8784 51.5966 49.4801C50.7992 50.0819 49.6934 50.3828 48.2793 50.3828Z" fill="#27235C" stroke="#27235C" stroke-width="0.2"/>
<path d="M37.6264 50.3825C36.6486 50.3825 35.791 50.2245 35.0539 49.9086C34.3317 49.5926 33.7224 49.1639 33.226 48.6223C32.7446 48.0656 32.376 47.4488 32.1202 46.7718C31.8795 46.0798 31.7592 45.3652 31.7592 44.628C31.7592 43.5448 32.0074 42.582 32.5038 41.7395C33.0003 40.897 33.6848 40.2351 34.5574 39.7537C35.445 39.2722 36.4605 39.0315 37.6039 39.0315C38.4163 39.0315 39.1309 39.1594 39.7477 39.4152C40.3645 39.6709 40.876 40.0094 41.2822 40.4307C41.7034 40.8368 42.0194 41.2882 42.23 41.7846C42.4557 42.2811 42.5685 42.7625 42.5685 43.2289C42.5685 44.0262 42.3729 44.6054 41.9818 44.9665C41.6056 45.3276 41.1318 45.5081 40.5601 45.5081H34.6025C34.6176 46.0196 34.7755 46.4634 35.0764 46.8395C35.3924 47.2156 35.7835 47.509 36.2499 47.7196C36.7313 47.9152 37.2202 48.013 37.7167 48.013C38.0928 48.013 38.4238 47.9904 38.7096 47.9453C39.0105 47.9001 39.2663 47.8475 39.4769 47.7873C39.6875 47.7121 39.868 47.6369 40.0185 47.5617C40.184 47.4864 40.3344 47.4187 40.4698 47.3586C40.6052 47.2984 40.7331 47.2608 40.8534 47.2457C41.0189 47.2307 41.1844 47.2683 41.3499 47.3586C41.5154 47.4488 41.6508 47.6068 41.7561 47.8324C41.8464 47.9829 41.9065 48.1258 41.9366 48.2612C41.9818 48.3816 42.0043 48.5019 42.0043 48.6223C42.0043 48.9232 41.8238 49.209 41.4627 49.4798C41.1017 49.7356 40.5902 49.9462 39.9282 50.1117C39.2813 50.2922 38.514 50.3825 37.6264 50.3825ZM34.6025 43.9059H39.2287C39.4844 43.9059 39.68 43.8683 39.8154 43.7931C39.9508 43.7028 40.0185 43.5223 40.0185 43.2515C40.0185 42.9054 39.9132 42.597 39.7025 42.3262C39.4919 42.0404 39.2061 41.8223 38.845 41.6718C38.484 41.5063 38.0627 41.4236 37.5813 41.4236C37.0247 41.4236 36.5207 41.5364 36.0693 41.7621C35.618 41.9727 35.257 42.2661 34.9862 42.6422C34.7304 43.0183 34.6025 43.4395 34.6025 43.9059Z" fill="#27235C" stroke="#27235C" stroke-width="0.2"/>
<path d="M29.5702 50.2478C29.0136 50.2478 28.5171 50.2102 28.0809 50.135C27.6596 50.0598 27.291 49.9319 26.9751 49.7514C26.6742 49.5709 26.426 49.3301 26.2304 49.0293C26.0348 48.7133 25.8844 48.3297 25.7791 47.8784C25.6888 47.427 25.6437 46.8854 25.6437 46.2536V35.3766C25.6437 35.1208 25.6662 34.8951 25.7114 34.6996C25.7716 34.4889 25.8919 34.3235 26.0724 34.2031C26.268 34.0677 26.5764 34 26.9977 34C27.4189 34 27.7198 34.0602 27.9003 34.1805C28.0959 34.3009 28.2163 34.4664 28.2614 34.677C28.3216 34.8726 28.3517 35.0982 28.3517 35.354V46.1408C28.3517 46.4266 28.3667 46.6673 28.3968 46.8629C28.4419 47.0434 28.5096 47.1939 28.5999 47.3142C28.7052 47.4195 28.8331 47.4947 28.9835 47.5399C29.149 47.585 29.3446 47.6076 29.5702 47.6076C29.7658 47.6076 29.9388 47.6301 30.0893 47.6753C30.2548 47.7204 30.3826 47.8332 30.4729 48.0138C30.5782 48.1943 30.6309 48.4877 30.6309 48.8939C30.6309 49.3151 30.5782 49.6235 30.4729 49.8191C30.3826 50.0147 30.2548 50.135 30.0893 50.1801C29.9238 50.2253 29.7508 50.2478 29.5702 50.2478Z" fill="#27235C" stroke="#27235C" stroke-width="0.2"/>
<path d="M21.8657 50.2475C21.4595 50.2475 21.1586 50.1798 20.963 50.0445C20.7674 49.9241 20.6471 49.7661 20.6019 49.5706C20.5568 49.3599 20.5342 49.1267 20.5342 48.871V40.4763C20.5342 40.2356 20.5568 40.0174 20.6019 39.8218C20.6621 39.6112 20.7825 39.4457 20.963 39.3254C21.1586 39.205 21.467 39.1449 21.8882 39.1449C22.3095 39.1449 22.6103 39.205 22.7909 39.3254C22.9865 39.4457 23.1068 39.6112 23.1519 39.8218C23.1971 40.0325 23.2196 40.2657 23.2196 40.5214V48.8936C23.2196 49.1493 23.1971 49.3825 23.1519 49.5931C23.1068 49.7887 22.9865 49.9467 22.7909 50.067C22.6103 50.1874 22.3019 50.2475 21.8657 50.2475ZM21.8657 36.9559C21.4294 36.9559 21.1059 36.8957 20.8953 36.7754C20.6997 36.64 20.5718 36.4594 20.5117 36.2338C20.4665 36.0081 20.444 35.7599 20.444 35.4891C20.444 35.2032 20.4665 34.955 20.5117 34.7444C20.5718 34.5338 20.7072 34.3683 20.9179 34.2479C21.1285 34.1125 21.4519 34.0448 21.8882 34.0448C22.3396 34.0448 22.663 34.1125 22.8586 34.2479C23.0542 34.3833 23.182 34.5639 23.2422 34.7895C23.3024 35.0002 23.3325 35.2484 23.3325 35.5342C23.3325 35.79 23.3024 36.0307 23.2422 36.2563C23.182 36.482 23.0542 36.655 22.8586 36.7754C22.663 36.8957 22.332 36.9559 21.8657 36.9559Z" fill="#27235C" stroke="#27235C" stroke-width="0.2"/>
<path d="M3.33142 50.2248C2.94027 50.2248 2.6469 50.1646 2.45133 50.0442C2.25575 49.9239 2.12788 49.7584 2.0677 49.5478C2.02257 49.3371 2 49.104 2 48.8482V35.8274C2 35.5867 2.02257 35.3685 2.0677 35.1729C2.12788 34.9623 2.25575 34.7968 2.45133 34.6765C2.6469 34.5411 2.95531 34.4734 3.37655 34.4734C3.69248 34.4734 3.92567 34.4959 4.07611 34.5411C4.2416 34.5712 4.36948 34.6238 4.45974 34.699C4.55001 34.7592 4.64027 34.842 4.73054 34.9473L10.2368 42.6424H9.71773L15.2465 34.9247C15.3518 34.8044 15.4571 34.7141 15.5624 34.6539C15.6677 34.5937 15.8031 34.5486 15.9686 34.5185C16.1341 34.4884 16.3523 34.4734 16.6231 34.4734C17.0293 34.4734 17.3301 34.5411 17.5257 34.6765C17.7213 34.7968 17.8416 34.9623 17.8868 35.1729C17.947 35.3836 17.977 35.6167 17.977 35.8725V48.8933C17.977 49.119 17.947 49.3371 17.8868 49.5478C17.8416 49.7584 17.7213 49.9239 17.5257 50.0442C17.3301 50.1646 17.0217 50.2248 16.6005 50.2248C16.1943 50.2248 15.8934 50.1571 15.6978 50.0217C15.5023 49.9013 15.3744 49.7358 15.3142 49.5252C15.2691 49.3146 15.2465 49.0889 15.2465 48.8482V39.1672L11.1394 45.1022C11.0943 45.1624 11.0266 45.2451 10.9363 45.3504C10.846 45.4407 10.7257 45.5234 10.5753 45.5986C10.4248 45.6739 10.2217 45.7115 9.96596 45.7115C9.72525 45.7115 9.52967 45.6739 9.37923 45.5986C9.22879 45.5234 9.10843 45.4407 9.01817 45.3504C8.94294 45.2601 8.86772 45.1699 8.7925 45.0796L4.70797 39.1672V48.8933C4.70797 49.119 4.67789 49.3371 4.61771 49.5478C4.57258 49.7584 4.45222 49.9239 4.25664 50.0442C4.06107 50.1646 3.75266 50.2248 3.33142 50.2248Z" fill="#27235C" stroke="#27235C" stroke-width="0.2"/>
</svg>
