<svg width="547" height="123" viewBox="0 0 547 123" fill="none" xmlns="http://www.w3.org/2000/svg">
<path d="M256.231 117.829C256.231 116.306 257.466 115.071 258.989 115.071H449.28C450.803 115.071 452.038 116.306 452.038 117.829V117.829C452.038 119.352 450.803 120.587 449.28 120.587H258.989C257.466 120.587 256.231 119.352 256.231 117.829V117.829Z" fill="#FFBB00"/>
<path d="M101.163 97.4922V90.8162C100.056 89.1032 99.0136 87.4142 98.035 85.7492C97.0564 84.0842 96.1339 82.4513 95.2676 80.8503H98.0109C98.6206 82.1631 99.3024 83.4999 100.056 84.8607C100.81 86.2055 101.589 87.5023 102.391 88.751C103.177 87.5023 103.947 86.2055 104.701 84.8607C105.455 83.4999 106.145 82.1631 106.77 80.8503H109.369C108.503 82.4513 107.581 84.0842 106.602 85.7492C105.623 87.3982 104.589 89.0712 103.498 90.7682V97.4922H101.163Z" fill="white"/>
<path d="M121.301 91.2485C121.301 92.2411 121.157 93.1376 120.868 93.9381C120.579 94.7385 120.17 95.427 119.641 96.0033C119.128 96.5796 118.51 97.0279 117.788 97.3481C117.066 97.6523 116.28 97.8044 115.43 97.8044C114.579 97.8044 113.793 97.6523 113.071 97.3481C112.349 97.0279 111.724 96.5796 111.194 96.0033C110.681 95.427 110.28 94.7385 109.991 93.9381C109.702 93.1376 109.558 92.2411 109.558 91.2485C109.558 90.2719 109.702 89.3834 109.991 88.5829C110.28 87.7664 110.681 87.07 111.194 86.4937C111.724 85.9173 112.349 85.477 113.071 85.1729C113.793 84.8527 114.579 84.6926 115.43 84.6926C116.28 84.6926 117.066 84.8527 117.788 85.1729C118.51 85.477 119.128 85.9173 119.641 86.4937C120.17 87.07 120.579 87.7664 120.868 88.5829C121.157 89.3834 121.301 90.2719 121.301 91.2485ZM118.967 91.2485C118.967 89.8396 118.646 88.727 118.004 87.9105C117.379 87.078 116.521 86.6618 115.43 86.6618C114.339 86.6618 113.472 87.078 112.831 87.9105C112.205 88.727 111.892 89.8396 111.892 91.2485C111.892 92.6573 112.205 93.778 112.831 94.6105C113.472 95.427 114.339 95.8352 115.43 95.8352C116.521 95.8352 117.379 95.427 118.004 94.6105C118.646 93.778 118.967 92.6573 118.967 91.2485Z" fill="white"/>
<path d="M134.413 97.132C133.899 97.26 133.218 97.3961 132.367 97.5402C131.533 97.6843 130.562 97.7563 129.455 97.7563C128.493 97.7563 127.683 97.6203 127.025 97.3481C126.367 97.0599 125.838 96.6597 125.437 96.1474C125.036 95.6351 124.747 95.0347 124.57 94.3463C124.394 93.6419 124.306 92.8654 124.306 92.0169V85.0048H126.544V91.5366C126.544 93.0576 126.784 94.1462 127.266 94.8026C127.747 95.459 128.557 95.7872 129.696 95.7872C129.937 95.7872 130.185 95.7792 130.442 95.7632C130.699 95.7471 130.939 95.7311 131.164 95.7151C131.389 95.6831 131.589 95.6591 131.766 95.6431C131.958 95.6111 132.095 95.579 132.175 95.547V85.0048H134.413V97.132Z" fill="white"/>
<path d="M142.889 84.7406C143.081 84.7406 143.298 84.7566 143.539 84.7886C143.795 84.8046 144.044 84.8367 144.285 84.8847C144.525 84.9167 144.742 84.9567 144.934 85.0048C145.143 85.0368 145.295 85.0688 145.391 85.1008L145.006 87.046C144.83 86.9819 144.533 86.9099 144.116 86.8299C143.715 86.7338 143.194 86.6858 142.552 86.6858C142.135 86.6858 141.718 86.7338 141.301 86.8299C140.899 86.9099 140.635 86.9659 140.506 86.998V97.4922H138.268V85.5331C138.798 85.341 139.456 85.1649 140.242 85.0048C141.028 84.8287 141.91 84.7406 142.889 84.7406Z" fill="white"/>
<path d="M163.757 80.8503H166.092V97.4922H163.757V89.8076H155.599V97.4922H153.265V80.8503H155.599V87.7904H163.757V80.8503Z" fill="white"/>
<path d="M181.134 91.2485C181.134 92.2411 180.989 93.1376 180.701 93.9381C180.412 94.7385 180.003 95.427 179.473 96.0033C178.96 96.5796 178.342 97.0279 177.62 97.3481C176.898 97.6523 176.112 97.8044 175.262 97.8044C174.412 97.8044 173.626 97.6523 172.904 97.3481C172.182 97.0279 171.556 96.5796 171.027 96.0033C170.513 95.427 170.112 94.7385 169.823 93.9381C169.535 93.1376 169.39 92.2411 169.39 91.2485C169.39 90.2719 169.535 89.3834 169.823 88.5829C170.112 87.7664 170.513 87.07 171.027 86.4937C171.556 85.9173 172.182 85.477 172.904 85.1729C173.626 84.8527 174.412 84.6926 175.262 84.6926C176.112 84.6926 176.898 84.8527 177.62 85.1729C178.342 85.477 178.96 85.9173 179.473 86.4937C180.003 87.07 180.412 87.7664 180.701 88.5829C180.989 89.3834 181.134 90.2719 181.134 91.2485ZM178.8 91.2485C178.8 89.8396 178.479 88.727 177.837 87.9105C177.211 87.078 176.353 86.6618 175.262 86.6618C174.171 86.6618 173.305 87.078 172.663 87.9105C172.037 88.727 171.725 89.8396 171.725 91.2485C171.725 92.6573 172.037 93.778 172.663 94.6105C173.305 95.427 174.171 95.8352 175.262 95.8352C176.353 95.8352 177.211 95.427 177.837 94.6105C178.479 93.778 178.8 92.6573 178.8 91.2485Z" fill="white"/>
<path d="M187.194 95.8832C188.109 95.8832 188.783 95.7632 189.216 95.523C189.665 95.2829 189.89 94.8986 189.89 94.3703C189.89 93.826 189.673 93.3938 189.24 93.0736C188.807 92.7534 188.093 92.3932 187.098 91.9929C186.617 91.8008 186.152 91.6087 185.702 91.4166C185.269 91.2085 184.892 90.9683 184.571 90.6961C184.25 90.424 183.994 90.0958 183.801 89.7116C183.609 89.3273 183.512 88.8551 183.512 88.2947C183.512 87.1901 183.922 86.3175 184.74 85.6772C185.558 85.0208 186.673 84.6926 188.085 84.6926C188.438 84.6926 188.791 84.7166 189.144 84.7646C189.497 84.7966 189.825 84.8447 190.13 84.9087C190.435 84.9567 190.7 85.0128 190.924 85.0768C191.165 85.1408 191.349 85.1969 191.478 85.2449L191.069 87.1661C190.828 87.038 190.451 86.9099 189.938 86.7818C189.424 86.6377 188.807 86.5657 188.085 86.5657C187.459 86.5657 186.914 86.6938 186.448 86.9499C185.983 87.1901 185.75 87.5743 185.75 88.1026C185.75 88.3748 185.799 88.6149 185.895 88.823C186.007 89.0312 186.168 89.2233 186.376 89.3994C186.601 89.5595 186.873 89.7116 187.194 89.8556C187.515 89.9997 187.9 90.1518 188.349 90.3119C188.943 90.5361 189.472 90.7602 189.938 90.9843C190.403 91.1924 190.796 91.4406 191.117 91.7288C191.454 92.0169 191.71 92.3691 191.887 92.7854C192.063 93.1856 192.152 93.6819 192.152 94.2743C192.152 95.427 191.718 96.2995 190.852 96.8918C190.002 97.4842 188.783 97.7804 187.194 97.7804C186.087 97.7804 185.221 97.6843 184.595 97.4922C183.97 97.3161 183.545 97.18 183.32 97.0839L183.729 95.1628C183.986 95.2589 184.395 95.4029 184.956 95.5951C185.518 95.7872 186.264 95.8832 187.194 95.8832Z" fill="white"/>
<path d="M197.116 85.0048H201.857V86.8779H197.116V92.6413C197.116 93.2657 197.164 93.786 197.26 94.2022C197.357 94.6025 197.501 94.9227 197.693 95.1628C197.886 95.3869 198.127 95.547 198.415 95.6431C198.704 95.7391 199.041 95.7872 199.426 95.7872C200.1 95.7872 200.637 95.7151 201.038 95.571C201.456 95.4109 201.744 95.2989 201.905 95.2348L202.338 97.0839C202.113 97.196 201.72 97.3321 201.159 97.4922C200.597 97.6683 199.956 97.7563 199.234 97.7563C198.383 97.7563 197.677 97.6523 197.116 97.4442C196.57 97.22 196.129 96.8918 195.792 96.4596C195.455 96.0273 195.215 95.499 195.07 94.8746C194.942 94.2343 194.878 93.4978 194.878 92.6653V81.5227L197.116 81.1385V85.0048Z" fill="white"/>
<path d="M206.943 97.4922H204.705V85.0048H206.943V97.4922ZM205.811 82.7474C205.41 82.7474 205.065 82.6194 204.777 82.3632C204.504 82.091 204.368 81.7308 204.368 81.2826C204.368 80.8343 204.504 80.4821 204.777 80.2259C205.065 79.9538 205.41 79.8177 205.811 79.8177C206.213 79.8177 206.549 79.9538 206.822 80.2259C207.111 80.4821 207.255 80.8343 207.255 81.2826C207.255 81.7308 207.111 82.091 206.822 82.3632C206.549 82.6194 206.213 82.7474 205.811 82.7474Z" fill="white"/>
<path d="M210.791 85.365C211.305 85.2369 211.986 85.1008 212.837 84.9567C213.687 84.8127 214.666 84.7406 215.773 84.7406C216.767 84.7406 217.593 84.8847 218.251 85.1729C218.909 85.445 219.43 85.8373 219.815 86.3496C220.216 86.8459 220.497 87.4462 220.658 88.1506C220.818 88.8551 220.898 89.6315 220.898 90.48V97.4922H218.66V90.9603C218.66 90.1918 218.604 89.5355 218.492 88.9911C218.396 88.4468 218.227 88.0066 217.986 87.6704C217.746 87.3342 217.425 87.094 217.024 86.9499C216.623 86.7898 216.125 86.7098 215.532 86.7098C215.291 86.7098 215.043 86.7178 214.786 86.7338C214.529 86.7498 214.281 86.7738 214.04 86.8058C213.815 86.8218 213.607 86.8459 213.414 86.8779C213.238 86.9099 213.109 86.9339 213.029 86.9499V97.4922H210.791V85.365Z" fill="white"/>
<path d="M232.455 96.2434C232.262 96.3715 231.885 96.5396 231.324 96.7477C230.778 96.9399 230.136 97.0359 229.398 97.0359C228.644 97.0359 227.93 96.9158 227.257 96.6757C226.599 96.4356 226.021 96.0673 225.524 95.571C225.027 95.0587 224.634 94.4264 224.345 93.6739C224.056 92.9215 223.912 92.0249 223.912 90.9843C223.912 90.0718 224.048 89.2393 224.321 88.4868C224.593 87.7184 224.987 87.062 225.5 86.5177C226.029 85.9573 226.671 85.5251 227.425 85.2209C228.179 84.9007 229.029 84.7406 229.976 84.7406C231.019 84.7406 231.925 84.8207 232.695 84.9808C233.481 85.1248 234.139 85.2609 234.669 85.389V96.5316C234.669 98.4528 234.171 99.8456 233.177 100.71C232.182 101.575 230.674 102.007 228.652 102.007C227.866 102.007 227.12 101.943 226.414 101.815C225.725 101.687 225.123 101.535 224.61 101.358L225.019 99.4133C225.468 99.5894 226.013 99.7415 226.655 99.8696C227.313 100.014 227.995 100.086 228.7 100.086C230.032 100.086 230.987 99.8216 231.564 99.2933C232.158 98.7649 232.455 97.9244 232.455 96.7718V96.2434ZM232.431 86.9739C232.206 86.9099 231.901 86.8539 231.516 86.8058C231.147 86.7418 230.642 86.7098 230 86.7098C228.797 86.7098 227.866 87.102 227.208 87.8865C226.567 88.6709 226.246 89.7116 226.246 91.0083C226.246 91.7288 226.334 92.3451 226.511 92.8574C226.703 93.3697 226.952 93.794 227.257 94.1302C227.577 94.4664 227.938 94.7145 228.34 94.8746C228.757 95.0347 229.182 95.1148 229.615 95.1148C230.209 95.1148 230.754 95.0347 231.251 94.8746C231.749 94.6985 232.142 94.4984 232.431 94.2743V86.9739Z" fill="white"/>
<path d="M240.88 94.7546C240.896 94.8826 240.904 95.0107 240.904 95.1388C240.904 95.2509 240.904 95.3709 240.904 95.499C240.904 96.5076 240.752 97.5002 240.447 98.4768C240.158 99.4694 239.757 100.414 239.244 101.31L237.511 100.758C237.912 99.9416 238.177 99.1091 238.305 98.2606C238.434 97.4281 238.498 96.6437 238.498 95.9072C238.498 95.6991 238.49 95.499 238.474 95.3069C238.474 95.1148 238.466 94.9307 238.45 94.7546H240.88Z" fill="white"/>
<path d="M249.484 89.1592C249.484 87.7344 249.693 86.4776 250.11 85.389C250.543 84.3003 251.121 83.3958 251.843 82.6754C252.581 81.9389 253.431 81.3866 254.393 81.0184C255.372 80.6502 256.407 80.4661 257.498 80.4661C258.573 80.4661 259.583 80.6502 260.53 81.0184C261.492 81.3866 262.335 81.9389 263.057 82.6754C263.779 83.3958 264.348 84.3003 264.765 85.389C265.198 86.4776 265.415 87.7344 265.415 89.1592C265.415 90.5841 265.198 91.8408 264.765 92.9295C264.348 94.0181 263.779 94.9307 263.057 95.6671C262.335 96.3875 261.492 96.9319 260.53 97.3001C259.583 97.6683 258.573 97.8524 257.498 97.8524C256.407 97.8524 255.372 97.6683 254.393 97.3001C253.431 96.9319 252.581 96.3875 251.843 95.6671C251.121 94.9307 250.543 94.0181 250.11 92.9295C249.693 91.8408 249.484 90.5841 249.484 89.1592ZM251.939 89.1592C251.939 90.1678 252.067 91.0884 252.324 91.9209C252.581 92.7374 252.942 93.4338 253.407 94.0101C253.888 94.5865 254.466 95.0347 255.139 95.3549C255.829 95.6591 256.599 95.8112 257.45 95.8112C258.3 95.8112 259.062 95.6591 259.736 95.3549C260.41 95.0347 260.979 94.5865 261.444 94.0101C261.926 93.4338 262.295 92.7374 262.551 91.9209C262.808 91.0884 262.936 90.1678 262.936 89.1592C262.936 88.1506 262.808 87.2381 262.551 86.4216C262.295 85.5891 261.926 84.8847 261.444 84.3084C260.979 83.732 260.41 83.2918 259.736 82.9876C259.062 82.6674 258.3 82.5073 257.45 82.5073C256.599 82.5073 255.829 82.6674 255.139 82.9876C254.466 83.2918 253.888 83.732 253.407 84.3084C252.942 84.8847 252.581 85.5891 252.324 86.4216C252.067 87.2381 251.939 88.1506 251.939 89.1592Z" fill="white"/>
<path d="M278.706 97.132C278.193 97.26 277.511 97.3961 276.661 97.5402C275.827 97.6843 274.856 97.7563 273.749 97.7563C272.786 97.7563 271.976 97.6203 271.319 97.3481C270.661 97.0599 270.131 96.6597 269.73 96.1474C269.329 95.6351 269.04 95.0347 268.864 94.3463C268.687 93.6419 268.599 92.8654 268.599 92.0169V85.0048H270.837V91.5366C270.837 93.0576 271.078 94.1462 271.559 94.8026C272.04 95.459 272.851 95.7872 273.99 95.7872C274.23 95.7872 274.479 95.7792 274.736 95.7632C274.992 95.7471 275.233 95.7311 275.458 95.7151C275.682 95.6831 275.883 95.6591 276.059 95.6431C276.252 95.6111 276.388 95.579 276.468 95.547V85.0048H278.706V97.132Z" fill="white"/>
<path d="M287.182 84.7406C287.375 84.7406 287.591 84.7566 287.832 84.7886C288.089 84.8046 288.337 84.8367 288.578 84.8847C288.819 84.9167 289.035 84.9567 289.228 85.0048C289.436 85.0368 289.589 85.0688 289.685 85.1008L289.3 87.046C289.124 86.9819 288.827 86.9099 288.41 86.8299C288.009 86.7338 287.487 86.6858 286.845 86.6858C286.428 86.6858 286.011 86.7338 285.594 86.8299C285.193 86.9099 284.928 86.9659 284.8 86.998V97.4922H282.562V85.5331C283.091 85.341 283.749 85.1649 284.535 85.0048C285.321 84.8287 286.204 84.7406 287.182 84.7406Z" fill="white"/>
<path d="M305.717 90.528C305.973 90.8482 306.294 91.2725 306.679 91.8008C307.08 92.3131 307.489 92.8895 307.906 93.5298C308.324 94.1542 308.733 94.8106 309.134 95.499C309.551 96.1874 309.904 96.8518 310.193 97.4922H307.642C307.321 96.8838 306.968 96.2675 306.583 95.6431C306.214 95.0187 305.837 94.4264 305.452 93.866C305.067 93.2897 304.682 92.7534 304.297 92.2571C303.928 91.7608 303.591 91.3285 303.286 90.9603C303.078 90.9763 302.861 90.9843 302.636 90.9843C302.428 90.9843 302.211 90.9843 301.987 90.9843H299.893V97.4922H297.559V81.0904C298.216 80.9303 298.946 80.8263 299.749 80.7783C300.567 80.7142 301.313 80.6822 301.987 80.6822C304.329 80.6822 306.11 81.1225 307.329 82.003C308.564 82.8835 309.182 84.1963 309.182 85.9413C309.182 87.046 308.885 87.9905 308.292 88.775C307.714 89.5595 306.856 90.1438 305.717 90.528ZM302.179 82.7234C301.184 82.7234 300.422 82.7474 299.893 82.7955V89.0632H301.553C302.356 89.0632 303.078 89.0232 303.719 88.9431C304.361 88.8631 304.898 88.711 305.332 88.4868C305.781 88.2627 306.126 87.9505 306.366 87.5503C306.607 87.134 306.727 86.5897 306.727 85.9173C306.727 85.2929 306.607 84.7726 306.366 84.3564C306.126 83.9401 305.797 83.6119 305.38 83.3718C304.979 83.1317 304.497 82.9636 303.936 82.8675C303.39 82.7714 302.805 82.7234 302.179 82.7234Z" fill="white"/>
<path d="M311.851 91.2725C311.851 90.1678 312.011 89.2073 312.332 88.3908C312.653 87.5583 313.078 86.8699 313.608 86.3256C314.137 85.7812 314.747 85.373 315.436 85.1008C316.126 84.8287 316.832 84.6926 317.554 84.6926C319.239 84.6926 320.53 85.2209 321.429 86.2775C322.327 87.3181 322.776 88.9111 322.776 91.0564C322.776 91.1524 322.776 91.2805 322.776 91.4406C322.776 91.5847 322.768 91.7208 322.752 91.8488H314.185C314.281 93.1456 314.658 94.1302 315.316 94.8026C315.974 95.475 317.001 95.8112 318.396 95.8112C319.183 95.8112 319.84 95.7471 320.37 95.6191C320.915 95.475 321.324 95.3389 321.597 95.2108L321.91 97.0839C321.637 97.228 321.156 97.3801 320.466 97.5402C319.792 97.7003 319.022 97.7804 318.156 97.7804C317.065 97.7804 316.118 97.6203 315.316 97.3001C314.53 96.9639 313.88 96.5076 313.367 95.9313C312.854 95.3549 312.468 94.6745 312.212 93.89C311.971 93.0896 311.851 92.2171 311.851 91.2725ZM320.442 90.0478C320.458 89.0392 320.201 88.2147 319.672 87.5743C319.158 86.9179 318.445 86.5897 317.53 86.5897C317.017 86.5897 316.559 86.6938 316.158 86.9019C315.773 87.094 315.444 87.3502 315.172 87.6704C314.899 87.9905 314.682 88.3588 314.522 88.775C314.378 89.1913 314.281 89.6155 314.233 90.0478H320.442Z" fill="white"/>
<path d="M328.903 95.8832C329.817 95.8832 330.491 95.7632 330.924 95.523C331.373 95.2829 331.598 94.8986 331.598 94.3703C331.598 93.826 331.381 93.3938 330.948 93.0736C330.515 92.7534 329.801 92.3932 328.807 91.9929C328.325 91.8008 327.86 91.6087 327.411 91.4166C326.978 91.2085 326.601 90.9683 326.28 90.6961C325.959 90.424 325.702 90.0958 325.51 89.7116C325.317 89.3273 325.221 88.8551 325.221 88.2947C325.221 87.1901 325.63 86.3175 326.448 85.6772C327.266 85.0208 328.381 84.6926 329.793 84.6926C330.146 84.6926 330.499 84.7166 330.852 84.7646C331.205 84.7966 331.534 84.8447 331.839 84.9087C332.144 84.9567 332.408 85.0128 332.633 85.0768C332.874 85.1408 333.058 85.1969 333.186 85.2449L332.777 87.1661C332.537 87.038 332.16 86.9099 331.646 86.7818C331.133 86.6377 330.515 86.5657 329.793 86.5657C329.168 86.5657 328.622 86.6938 328.157 86.9499C327.692 87.1901 327.459 87.5743 327.459 88.1026C327.459 88.3748 327.507 88.6149 327.603 88.823C327.716 89.0312 327.876 89.2233 328.085 89.3994C328.309 89.5595 328.582 89.7116 328.903 89.8556C329.224 89.9997 329.609 90.1518 330.058 90.3119C330.652 90.5361 331.181 90.7602 331.646 90.9843C332.111 91.1924 332.505 91.4406 332.825 91.7288C333.162 92.0169 333.419 92.3691 333.595 92.7854C333.772 93.1856 333.86 93.6819 333.86 94.2743C333.86 95.427 333.427 96.2995 332.561 96.8918C331.71 97.4842 330.491 97.7804 328.903 97.7804C327.796 97.7804 326.93 97.6843 326.304 97.4922C325.678 97.3161 325.253 97.18 325.028 97.0839L325.438 95.1628C325.694 95.2589 326.103 95.4029 326.665 95.5951C327.226 95.7872 327.972 95.8832 328.903 95.8832Z" fill="white"/>
<path d="M345.418 91.2725C345.418 89.8156 345.057 88.695 344.335 87.9105C343.613 87.126 342.651 86.7338 341.447 86.7338C340.774 86.7338 340.244 86.7578 339.859 86.8058C339.49 86.8539 339.193 86.9099 338.969 86.9739V94.8506C339.242 95.0748 339.635 95.2909 340.148 95.499C340.661 95.7071 341.223 95.8112 341.832 95.8112C342.474 95.8112 343.02 95.6991 343.469 95.475C343.934 95.2348 344.311 94.9147 344.6 94.5144C344.889 94.0982 345.097 93.6179 345.226 93.0736C345.354 92.5132 345.418 91.9129 345.418 91.2725ZM347.752 91.2725C347.752 92.2171 347.624 93.0896 347.367 93.89C347.127 94.6905 346.766 95.3789 346.284 95.9553C345.803 96.5316 345.21 96.9799 344.504 97.3001C343.814 97.6203 343.02 97.7804 342.121 97.7804C341.399 97.7804 340.758 97.6843 340.196 97.4922C339.651 97.3001 339.242 97.116 338.969 96.9399V101.935H336.731V85.389C337.26 85.2609 337.918 85.1248 338.704 84.9808C339.506 84.8207 340.429 84.7406 341.472 84.7406C342.434 84.7406 343.3 84.8927 344.071 85.1969C344.841 85.5011 345.498 85.9333 346.044 86.4937C346.589 87.054 347.006 87.7424 347.295 88.5589C347.6 89.3594 347.752 90.2639 347.752 91.2725Z" fill="white"/>
<path d="M361.947 91.2485C361.947 92.2411 361.803 93.1376 361.514 93.9381C361.225 94.7385 360.816 95.427 360.287 96.0033C359.773 96.5796 359.156 97.0279 358.434 97.3481C357.712 97.6523 356.926 97.8044 356.076 97.8044C355.225 97.8044 354.439 97.6523 353.717 97.3481C352.995 97.0279 352.37 96.5796 351.84 96.0033C351.327 95.427 350.926 94.7385 350.637 93.9381C350.348 93.1376 350.204 92.2411 350.204 91.2485C350.204 90.2719 350.348 89.3834 350.637 88.5829C350.926 87.7664 351.327 87.07 351.84 86.4937C352.37 85.9173 352.995 85.477 353.717 85.1729C354.439 84.8527 355.225 84.6926 356.076 84.6926C356.926 84.6926 357.712 84.8527 358.434 85.1729C359.156 85.477 359.773 85.9173 360.287 86.4937C360.816 87.07 361.225 87.7664 361.514 88.5829C361.803 89.3834 361.947 90.2719 361.947 91.2485ZM359.613 91.2485C359.613 89.8396 359.292 88.727 358.65 87.9105C358.025 87.078 357.166 86.6618 356.076 86.6618C354.985 86.6618 354.118 87.078 353.477 87.9105C352.851 88.727 352.538 89.8396 352.538 91.2485C352.538 92.6573 352.851 93.778 353.477 94.6105C354.118 95.427 354.985 95.8352 356.076 95.8352C357.166 95.8352 358.025 95.427 358.65 94.6105C359.292 93.778 359.613 92.6573 359.613 91.2485Z" fill="white"/>
<path d="M365.096 85.365C365.609 85.2369 366.291 85.1008 367.141 84.9567C367.992 84.8127 368.97 84.7406 370.077 84.7406C371.072 84.7406 371.898 84.8847 372.556 85.1729C373.214 85.445 373.735 85.8373 374.12 86.3496C374.521 86.8459 374.802 87.4462 374.962 88.1506C375.123 88.8551 375.203 89.6315 375.203 90.48V97.4922H372.965V90.9603C372.965 90.1918 372.909 89.5355 372.797 88.9911C372.7 88.4468 372.532 88.0066 372.291 87.6704C372.051 87.3342 371.73 87.094 371.329 86.9499C370.928 86.7898 370.43 86.7098 369.837 86.7098C369.596 86.7098 369.347 86.7178 369.091 86.7338C368.834 86.7498 368.585 86.7738 368.345 86.8058C368.12 86.8218 367.912 86.8459 367.719 86.8779C367.543 86.9099 367.414 86.9339 367.334 86.9499V97.4922H365.096V85.365Z" fill="white"/>
<path d="M381.826 95.8832C382.741 95.8832 383.414 95.7632 383.848 95.523C384.297 95.2829 384.521 94.8986 384.521 94.3703C384.521 93.826 384.305 93.3938 383.872 93.0736C383.438 92.7534 382.725 92.3932 381.73 91.9929C381.249 91.8008 380.783 91.6087 380.334 91.4166C379.901 91.2085 379.524 90.9683 379.203 90.6961C378.882 90.424 378.626 90.0958 378.433 89.7116C378.241 89.3273 378.144 88.8551 378.144 88.2947C378.144 87.1901 378.553 86.3175 379.372 85.6772C380.19 85.0208 381.305 84.6926 382.717 84.6926C383.069 84.6926 383.422 84.7166 383.775 84.7646C384.128 84.7966 384.457 84.8447 384.762 84.9087C385.067 84.9567 385.332 85.0128 385.556 85.0768C385.797 85.1408 385.981 85.1969 386.11 85.2449L385.701 87.1661C385.46 87.038 385.083 86.9099 384.57 86.7818C384.056 86.6377 383.438 86.5657 382.717 86.5657C382.091 86.5657 381.545 86.6938 381.08 86.9499C380.615 87.1901 380.382 87.5743 380.382 88.1026C380.382 88.3748 380.43 88.6149 380.527 88.823C380.639 89.0312 380.799 89.2233 381.008 89.3994C381.233 89.5595 381.505 89.7116 381.826 89.8556C382.147 89.9997 382.532 90.1518 382.981 90.3119C383.575 90.5361 384.104 90.7602 384.57 90.9843C385.035 91.1924 385.428 91.4406 385.749 91.7288C386.086 92.0169 386.342 92.3691 386.519 92.7854C386.695 93.1856 386.783 93.6819 386.783 94.2743C386.783 95.427 386.35 96.2995 385.484 96.8918C384.634 97.4842 383.414 97.7804 381.826 97.7804C380.719 97.7804 379.853 97.6843 379.227 97.4922C378.602 97.3161 378.176 97.18 377.952 97.0839L378.361 95.1628C378.618 95.2589 379.027 95.4029 379.588 95.5951C380.15 95.7872 380.896 95.8832 381.826 95.8832Z" fill="white"/>
<path d="M391.892 97.4922H389.654V85.0048H391.892V97.4922ZM390.761 82.7474C390.36 82.7474 390.015 82.6194 389.726 82.3632C389.454 82.091 389.317 81.7308 389.317 81.2826C389.317 80.8343 389.454 80.4821 389.726 80.2259C390.015 79.9538 390.36 79.8177 390.761 79.8177C391.162 79.8177 391.499 79.9538 391.772 80.2259C392.061 80.4821 392.205 80.8343 392.205 81.2826C392.205 81.7308 392.061 82.091 391.772 82.3632C391.499 82.6194 391.162 82.7474 390.761 82.7474Z" fill="white"/>
<path d="M397.979 85.5571C398.251 85.381 398.661 85.1969 399.206 85.0048C399.768 84.8127 400.409 84.7166 401.131 84.7166C402.03 84.7166 402.824 84.8767 403.514 85.1969C404.22 85.5171 404.813 85.9653 405.294 86.5417C405.776 87.118 406.137 87.8064 406.377 88.6069C406.634 89.4074 406.762 90.2879 406.762 91.2485C406.762 92.2571 406.61 93.1696 406.305 93.9861C406.016 94.7866 405.599 95.467 405.054 96.0273C404.508 96.5876 403.851 97.0199 403.08 97.3241C402.31 97.6283 401.444 97.7804 400.481 97.7804C399.439 97.7804 398.516 97.7083 397.714 97.5642C396.912 97.4201 396.254 97.2761 395.741 97.132V79.2413L397.979 78.8571V85.5571ZM397.979 95.547C398.203 95.6111 398.516 95.6751 398.917 95.7391C399.334 95.7872 399.848 95.8112 400.457 95.8112C401.661 95.8112 402.623 95.419 403.345 94.6345C404.067 93.834 404.428 92.7053 404.428 91.2485C404.428 90.6081 404.364 90.0077 404.236 89.4474C404.107 88.8871 403.899 88.4068 403.61 88.0066C403.321 87.5903 402.944 87.2701 402.479 87.046C402.03 86.8058 401.484 86.6858 400.842 86.6858C400.233 86.6858 399.671 86.7898 399.158 86.998C398.645 87.2061 398.251 87.4222 397.979 87.6463V95.547Z" fill="white"/>
<path d="M412.15 97.4922H409.912V85.0048H412.15V97.4922ZM411.019 82.7474C410.618 82.7474 410.273 82.6194 409.984 82.3632C409.711 82.091 409.575 81.7308 409.575 81.2826C409.575 80.8343 409.711 80.4821 409.984 80.2259C410.273 79.9538 410.618 79.8177 411.019 79.8177C411.42 79.8177 411.757 79.9538 412.029 80.2259C412.318 80.4821 412.462 80.8343 412.462 81.2826C412.462 81.7308 412.318 82.091 412.029 82.3632C411.757 82.6194 411.42 82.7474 411.019 82.7474Z" fill="white"/>
<path d="M419.752 97.7323C418.373 97.7003 417.394 97.4041 416.816 96.8438C416.239 96.2835 415.95 95.4109 415.95 94.2262V79.2413L418.188 78.8571V93.866C418.188 94.2342 418.22 94.5384 418.284 94.7786C418.349 95.0187 418.453 95.2108 418.597 95.3549C418.742 95.499 418.934 95.6111 419.175 95.6911C419.415 95.7552 419.712 95.8112 420.065 95.8592L419.752 97.7323Z" fill="white"/>
<path d="M424.816 97.4922H422.578V85.0048H424.816V97.4922ZM423.685 82.7474C423.284 82.7474 422.939 82.6194 422.651 82.3632C422.378 82.091 422.242 81.7308 422.242 81.2826C422.242 80.8343 422.378 80.4821 422.651 80.2259C422.939 79.9538 423.284 79.8177 423.685 79.8177C424.086 79.8177 424.423 79.9538 424.696 80.2259C424.985 80.4821 425.129 80.8343 425.129 81.2826C425.129 81.7308 424.985 82.091 424.696 82.3632C424.423 82.6194 424.086 82.7474 423.685 82.7474Z" fill="white"/>
<path d="M430.759 85.0048H435.499V86.8779H430.759V92.6413C430.759 93.2657 430.807 93.786 430.903 94.2022C430.999 94.6025 431.144 94.9227 431.336 95.1628C431.529 95.3869 431.769 95.547 432.058 95.6431C432.347 95.7391 432.684 95.7872 433.069 95.7872C433.743 95.7872 434.28 95.7151 434.681 95.571C435.098 95.4109 435.387 95.2989 435.548 95.2348L435.981 97.0839C435.756 97.196 435.363 97.3321 434.802 97.4922C434.24 97.6683 433.598 97.7563 432.876 97.7563C432.026 97.7563 431.32 97.6523 430.759 97.4442C430.213 97.22 429.772 96.8918 429.435 96.4596C429.098 96.0273 428.858 95.499 428.713 94.8746C428.585 94.2343 428.521 93.4978 428.521 92.6653V81.5227L430.759 81.1385V85.0048Z" fill="white"/>
<path d="M436.879 99.8216C437.056 99.9016 437.28 99.9737 437.553 100.038C437.842 100.118 438.123 100.158 438.395 100.158C439.278 100.158 439.968 99.9577 440.465 99.5574C440.962 99.1732 441.412 98.5408 441.813 97.6603C440.802 95.7391 439.855 93.7059 438.973 91.5607C438.107 89.3994 437.385 87.2141 436.807 85.0048H439.214C439.39 85.7252 439.599 86.5017 439.839 87.3342C440.096 88.1666 440.377 89.0232 440.682 89.9037C440.986 90.7842 441.315 91.6647 441.668 92.5452C442.021 93.4258 442.39 94.2743 442.775 95.0908C443.385 93.4098 443.914 91.7448 444.363 90.0958C444.813 88.4468 445.238 86.7498 445.639 85.0048H447.949C447.372 87.3582 446.73 89.6235 446.024 91.8008C445.318 93.9621 444.556 95.9873 443.738 97.8764C443.417 98.5968 443.08 99.2132 442.727 99.7255C442.39 100.254 442.013 100.686 441.596 101.022C441.179 101.358 440.706 101.607 440.176 101.767C439.663 101.927 439.077 102.007 438.42 102.007C438.243 102.007 438.059 101.991 437.866 101.959C437.673 101.943 437.481 101.911 437.288 101.863C437.112 101.831 436.944 101.791 436.783 101.743C436.639 101.695 436.534 101.655 436.47 101.623L436.879 99.8216Z" fill="white"/>
<path d="M452.3 96.1954C452.3 96.6277 452.156 97.0039 451.867 97.3241C451.578 97.6443 451.185 97.8044 450.688 97.8044C450.19 97.8044 449.797 97.6443 449.509 97.3241C449.22 97.0039 449.075 96.6277 449.075 96.1954C449.075 95.7632 449.22 95.3869 449.509 95.0667C449.797 94.7466 450.19 94.5865 450.688 94.5865C451.185 94.5865 451.578 94.7466 451.867 95.0667C452.156 95.3869 452.3 95.7632 452.3 96.1954Z" fill="white"/>
<path d="M432.877 62.5538C430.126 62.5538 427.655 62.0204 425.465 60.9536C423.331 59.8306 421.507 58.3145 419.991 56.4055C418.531 54.4964 417.408 52.3065 416.622 49.8359C415.892 47.3092 415.527 44.614 415.527 41.7504C415.583 38.8868 416.004 36.2196 416.79 33.749C417.576 31.2223 418.699 29.0325 420.159 27.1795C421.675 25.2704 423.5 23.7825 425.634 22.7156C427.767 21.6488 430.182 21.1154 432.877 21.1154C435.46 21.1154 437.874 21.6488 440.12 22.7156C442.422 23.7825 444.444 25.2704 446.184 27.1795C447.981 29.0325 449.385 31.2223 450.396 33.749C451.406 36.2196 451.912 38.8587 451.912 41.6662C451.912 44.5859 451.406 47.3373 450.396 49.9202C449.385 52.4469 448.009 54.6648 446.269 56.5739C444.528 58.4268 442.507 59.8867 440.204 60.9536C437.902 62.0204 435.46 62.5538 432.877 62.5538ZM431.529 52.6996C433.495 52.6996 435.263 52.2504 436.835 51.352C438.408 50.3974 439.643 49.106 440.541 47.4777C441.496 45.8493 441.973 43.9964 441.973 41.9188C441.973 39.7851 441.496 37.9041 440.541 36.2758C439.643 34.5913 438.408 33.2999 436.835 32.4015C435.263 31.4469 433.495 30.9696 431.529 30.9696C429.62 30.9696 427.88 31.4469 426.307 32.4015C424.735 33.356 423.472 34.6474 422.517 36.2758C421.619 37.9041 421.17 39.7851 421.17 41.9188C421.17 43.9964 421.619 45.8493 422.517 47.4777C423.472 49.106 424.735 50.3974 426.307 51.352C427.88 52.2504 429.62 52.6996 431.529 52.6996ZM415.948 62.6381C414.432 62.6381 413.309 62.3854 412.579 61.8801C411.849 61.4309 411.4 60.8413 411.231 60.1113C411.063 59.3252 410.979 58.4549 410.979 57.5004V7.30254C410.979 6.348 411.063 5.50575 411.231 4.7758C411.4 3.98971 411.849 3.37206 412.579 2.92286C413.309 2.47367 414.432 2.24907 415.948 2.24907C417.52 2.24907 418.643 2.47367 419.317 2.92286C419.991 3.37206 420.412 3.98971 420.58 4.7758C420.749 5.5619 420.833 6.40415 420.833 7.30254V59.1849C420.608 60.4202 420.131 61.2905 419.401 61.7958C418.727 62.3573 417.576 62.6381 415.948 62.6381Z" fill="white" stroke="white" stroke-width="0.2"/>
<path d="M385.875 63.1446C382.226 63.1446 379.025 62.555 376.274 61.3759C373.579 60.1967 371.305 58.5965 369.452 56.5751C367.655 54.4975 366.279 52.1954 365.325 49.6687C364.426 47.0858 363.977 44.4187 363.977 41.6673C363.977 37.6246 364.904 34.031 366.756 30.8866C368.609 27.7422 371.164 25.2716 374.421 23.4748C377.734 21.6781 381.524 20.7797 385.791 20.7797C388.823 20.7797 391.49 21.2569 393.793 22.2115C396.095 23.166 398.004 24.4294 399.52 26.0016C401.092 27.5176 402.271 29.2021 403.057 31.055C403.9 32.908 404.321 34.7048 404.321 36.4454C404.321 39.4213 403.591 41.5831 402.131 42.9307C400.727 44.2783 398.958 44.9521 396.825 44.9521H374.589C374.646 46.8612 375.235 48.5176 376.358 49.9213C377.537 51.3251 378.997 52.42 380.738 53.2061C382.535 53.936 384.359 54.301 386.212 54.301C387.616 54.301 388.851 54.2168 389.918 54.0483C391.041 53.8799 391.996 53.6834 392.782 53.4588C393.568 53.178 394.242 52.8973 394.803 52.6165C395.421 52.3358 395.982 52.0831 396.488 51.8585C396.993 51.6339 397.47 51.4935 397.92 51.4374C398.537 51.3812 399.155 51.5216 399.773 51.8585C400.39 52.1954 400.896 52.785 401.289 53.6272C401.625 54.1887 401.85 54.7221 401.962 55.2275C402.131 55.6767 402.215 56.1259 402.215 56.5751C402.215 57.6981 401.541 58.7649 400.194 59.7756C398.846 60.7302 396.937 61.5163 394.466 62.1339C392.052 62.8077 389.188 63.1446 385.875 63.1446ZM374.589 38.9722H391.855C392.81 38.9722 393.54 38.8318 394.045 38.551C394.551 38.2141 394.803 37.5403 394.803 36.5296C394.803 35.2382 394.41 34.0871 393.624 33.0764C392.838 32.0096 391.771 31.1954 390.424 30.6339C389.076 30.0163 387.504 29.7075 385.707 29.7075C383.629 29.7075 381.748 30.1286 380.064 30.9708C378.379 31.7569 377.032 32.8518 376.021 34.2556C375.067 35.6593 374.589 37.2315 374.589 38.9722Z" fill="white" stroke="white" stroke-width="0.2"/>
<path d="M310.523 62.3886C309.4 62.3886 308.501 62.1921 307.827 61.799C307.154 61.3498 306.648 60.8445 306.311 60.283C306.031 59.7215 305.834 59.2442 305.722 58.8512L289.214 10.5063C288.652 8.70951 288.568 7.36192 288.961 6.46352C289.354 5.50898 290.505 4.72288 292.414 4.10523C293.706 3.65604 294.744 3.45951 295.531 3.51566C296.317 3.57181 296.962 3.90871 297.468 4.52636C298.029 5.08786 298.506 5.98625 298.9 7.22155L311.028 43.9434L321.893 7.55844C322.061 6.99694 322.286 6.43545 322.567 5.87395C322.904 5.25631 323.409 4.75096 324.083 4.35791C324.756 3.96486 325.683 3.76834 326.862 3.76834C328.21 3.76834 329.22 3.99294 329.894 4.44213C330.568 4.89133 331.045 5.39668 331.326 5.95817C331.663 6.46352 331.887 6.94079 332 7.38999L342.865 44.1961L355.077 7.30577C355.47 6.01433 355.92 5.05978 356.425 4.44213C356.986 3.82449 357.688 3.48759 358.531 3.43144C359.373 3.31914 360.412 3.48759 361.647 3.93679C362.938 4.38599 363.865 4.89133 364.426 5.45283C364.988 5.95818 365.269 6.63197 365.269 7.47422C365.269 8.26031 365.072 9.271 364.679 10.5063L348.255 58.9354C348.143 59.2723 347.918 59.7215 347.581 60.283C347.301 60.8445 346.823 61.3498 346.15 61.799C345.476 62.1921 344.549 62.3886 343.37 62.3886C342.191 62.3886 341.265 62.1359 340.591 61.6306C339.917 61.1252 339.412 60.5638 339.075 59.9461C338.738 59.3285 338.513 58.8793 338.401 58.5985L326.946 21.5397L315.492 58.5143C315.379 58.9073 315.155 59.4127 314.818 60.0303C314.537 60.648 314.06 61.2095 313.386 61.7148C312.712 62.164 311.758 62.3886 310.523 62.3886Z" fill="white" stroke="white" stroke-width="0.2"/>
<path d="M266.728 63.1453C265.268 63.1453 263.724 62.9769 262.095 62.64C260.467 62.3592 258.895 61.9381 257.379 61.3766C255.863 60.759 254.543 60.0571 253.42 59.271C252.353 58.4287 251.68 57.5023 251.399 56.4916C251.174 55.9301 251.09 55.3967 251.146 54.8913C251.202 54.3298 251.371 53.7683 251.652 53.2068C251.932 52.5892 252.353 51.9715 252.915 51.3539C253.42 50.7362 253.926 50.3993 254.431 50.3432C254.992 50.2309 255.694 50.3993 256.537 50.8485C257.267 51.1293 258.053 51.4943 258.895 51.9435C259.793 52.3926 260.692 52.8418 261.59 53.291C262.545 53.7402 263.499 54.1052 264.454 54.386C265.464 54.6667 266.447 54.8071 267.402 54.8071C269.479 54.8071 271.136 54.4702 272.371 53.7964C273.606 53.0664 274.224 52.0557 274.224 50.7643C274.224 50.0344 274.027 49.3886 273.634 48.8271C273.241 48.2656 272.708 47.8165 272.034 47.4796C271.416 47.0865 270.658 46.7496 269.76 46.4689C268.918 46.132 267.991 45.8512 266.98 45.6266C266.026 45.3459 265.015 45.037 263.948 44.7001C262.545 44.3071 261.141 43.8298 259.737 43.2683C258.333 42.7068 257.07 41.9769 255.947 41.0785C254.88 40.1801 254.01 39.0571 253.336 37.7095C252.662 36.3619 252.325 34.6774 252.325 32.656C252.325 30.1293 252.915 27.9956 254.094 26.255C255.329 24.4582 257.098 23.0825 259.4 22.128C261.702 21.1734 264.482 20.6961 267.738 20.6961C268.861 20.6961 269.928 20.7804 270.939 20.9488C272.006 21.1173 273.017 21.3699 273.971 21.7068C274.982 21.9876 275.936 22.3526 276.835 22.8018C277.789 23.251 278.688 23.7563 279.53 24.3178C280.934 25.1039 281.664 26.0304 281.72 27.0972C281.776 28.1079 281.383 29.2028 280.541 30.382C279.923 31.1681 279.305 31.7296 278.688 32.0665C278.07 32.3472 277.424 32.3472 276.751 32.0665C275.852 31.6173 274.87 31.14 273.803 30.6346C272.792 30.0731 271.725 29.5959 270.602 29.2028C269.535 28.8098 268.412 28.6133 267.233 28.6133C266.11 28.6133 265.099 28.7817 264.201 29.1186C263.303 29.4555 262.629 29.9328 262.18 30.5504C261.73 31.1681 261.506 31.898 261.506 32.7403C261.506 33.5264 261.73 34.1721 262.18 34.6774C262.629 35.1828 263.218 35.6039 263.948 35.9408C264.678 36.2777 265.549 36.5865 266.559 36.8673C267.57 37.0919 268.637 37.3165 269.76 37.5411C271.332 37.878 272.932 38.2991 274.561 38.8044C276.189 39.3098 277.677 40.0116 279.025 40.91C280.428 41.8084 281.551 43.0156 282.394 44.5317C283.236 45.9916 283.657 47.9007 283.657 50.259C283.657 54.3579 282.141 57.5303 279.109 59.7763C276.133 62.0223 272.006 63.1453 266.728 63.1453Z" fill="white" stroke="white" stroke-width="0.2"/>
<path d="M226.968 63.1441C223.318 63.1441 220.118 62.5545 217.367 61.3754C214.671 60.1962 212.397 58.5959 210.544 56.5746C208.748 54.497 207.372 52.1949 206.417 49.6681C205.519 47.0853 205.07 44.4181 205.07 41.6668C205.07 37.624 205.996 34.0305 207.849 30.8861C209.702 27.7417 212.257 25.2711 215.514 23.4743C218.827 21.6775 222.617 20.7791 226.884 20.7791C229.916 20.7791 232.583 21.2564 234.885 22.2109C237.187 23.1655 239.097 24.4289 240.613 26.001C242.185 27.5171 243.364 29.2016 244.15 31.0545C244.992 32.9075 245.413 34.7042 245.413 36.4449C245.413 39.4208 244.683 41.5826 243.224 42.9302C241.82 44.2778 240.051 44.9516 237.917 44.9516H215.682C215.738 46.8607 216.328 48.5171 217.451 49.9208C218.63 51.3246 220.09 52.4195 221.831 53.2056C223.627 53.9355 225.452 54.3005 227.305 54.3005C228.709 54.3005 229.944 54.2163 231.011 54.0478C232.134 53.8794 233.089 53.6828 233.875 53.4582C234.661 53.1775 235.335 52.8968 235.896 52.616C236.514 52.3353 237.075 52.0826 237.581 51.858C238.086 51.6334 238.563 51.493 239.012 51.4369C239.63 51.3807 240.248 51.5211 240.865 51.858C241.483 52.1949 241.988 52.7845 242.381 53.6267C242.718 54.1882 242.943 54.7216 243.055 55.227C243.224 55.6762 243.308 56.1254 243.308 56.5746C243.308 57.6976 242.634 58.7644 241.286 59.7751C239.939 60.7296 238.03 61.5157 235.559 62.1334C233.145 62.8072 230.281 63.1441 226.968 63.1441ZM215.682 38.9716H232.948C233.903 38.9716 234.633 38.8313 235.138 38.5505C235.643 38.2136 235.896 37.5398 235.896 36.5291C235.896 35.2377 235.503 34.0866 234.717 33.0759C233.931 32.0091 232.864 31.1949 231.516 30.6334C230.169 30.0158 228.597 29.7069 226.8 29.7069C224.722 29.7069 222.841 30.128 221.157 30.9703C219.472 31.7564 218.125 32.8513 217.114 34.2551C216.159 35.6588 215.682 37.231 215.682 38.9716Z" fill="white" stroke="white" stroke-width="0.2"/>
<path d="M196.9 62.6417C194.823 62.6417 192.97 62.5013 191.341 62.2205C189.769 61.9398 188.394 61.4625 187.214 60.7887C186.091 60.1149 185.165 59.2165 184.435 58.0935C183.705 56.9144 183.144 55.4826 182.75 53.7981C182.414 52.1136 182.245 50.0922 182.245 47.7339V7.13769C182.245 6.18315 182.329 5.34091 182.498 4.61096C182.722 3.82486 183.172 3.20722 183.845 2.75802C184.575 2.25267 185.726 2 187.299 2C188.871 2 189.994 2.2246 190.668 2.6738C191.398 3.12299 191.847 3.74064 192.015 4.52674C192.24 5.25668 192.352 6.09892 192.352 7.05347V47.3128C192.352 48.3796 192.408 49.278 192.521 50.008C192.689 50.6818 192.942 51.2433 193.279 51.6925C193.672 52.0855 194.149 52.3663 194.71 52.5347C195.328 52.7032 196.058 52.7874 196.9 52.7874C197.63 52.7874 198.276 52.8716 198.837 53.0401C199.455 53.2085 199.932 53.6296 200.269 54.3034C200.662 54.9772 200.859 56.0722 200.859 57.5882C200.859 59.1604 200.662 60.3115 200.269 61.0414C199.932 61.7714 199.455 62.2205 198.837 62.389C198.22 62.5574 197.574 62.6417 196.9 62.6417Z" fill="white" stroke="white" stroke-width="0.2"/>
<path d="M168.144 62.6405C166.628 62.6405 165.505 62.3879 164.775 61.8825C164.045 61.4333 163.596 60.8437 163.427 60.1138C163.259 59.3277 163.175 58.4574 163.175 57.5028V26.1713C163.175 25.2729 163.259 24.4587 163.427 23.7288C163.652 22.9427 164.101 22.3251 164.775 21.8759C165.505 21.4267 166.656 21.2021 168.228 21.2021C169.8 21.2021 170.923 21.4267 171.597 21.8759C172.327 22.3251 172.776 22.9427 172.945 23.7288C173.113 24.5149 173.198 25.3852 173.198 26.3398V57.5871C173.198 58.5416 173.113 59.4119 172.945 60.198C172.776 60.928 172.327 61.5175 171.597 61.9667C170.923 62.4159 169.772 62.6405 168.144 62.6405ZM168.144 13.0323C166.516 13.0323 165.308 12.8077 164.522 12.3585C163.792 11.8531 163.315 11.1793 163.091 10.3371C162.922 9.49485 162.838 8.56837 162.838 7.55768C162.838 6.49083 162.922 5.56437 163.091 4.77827C163.315 3.99217 163.821 3.37453 164.607 2.92533C165.393 2.41999 166.6 2.16731 168.228 2.16731C169.913 2.16731 171.12 2.41999 171.85 2.92533C172.58 3.43068 173.057 4.10447 173.282 4.94672C173.506 5.73282 173.619 6.65929 173.619 7.72613C173.619 8.68068 173.506 9.57907 173.282 10.4213C173.057 11.2636 172.58 11.9093 171.85 12.3585C171.12 12.8077 169.885 13.0323 168.144 13.0323Z" fill="white" stroke="white" stroke-width="0.2"/>
<path d="M98.9693 62.5555C97.5094 62.5555 96.4144 62.3309 95.6845 61.8817C94.9545 61.4325 94.4773 60.8149 94.2527 60.0288C94.0842 59.2427 94 58.3724 94 57.4178V8.82029C94 7.92189 94.0842 7.10772 94.2527 6.37777C94.4773 5.59168 94.9545 4.97403 95.6845 4.52483C96.4144 4.01949 97.5655 3.76682 99.1377 3.76682C100.317 3.76682 101.187 3.85104 101.749 4.01949C102.366 4.13179 102.844 4.32831 103.18 4.60906C103.517 4.83366 103.854 5.14248 104.191 5.53553L124.742 34.2561H122.805L143.44 5.4513C143.833 5.00211 144.226 4.66521 144.619 4.44061C145.012 4.21601 145.517 4.04756 146.135 3.93526C146.753 3.82296 147.567 3.76682 148.578 3.76682C150.094 3.76682 151.217 4.01949 151.947 4.52483C152.676 4.97403 153.126 5.59168 153.294 6.37777C153.519 7.16387 153.631 8.03419 153.631 8.98873V57.5863C153.631 58.4285 153.519 59.2427 153.294 60.0288C153.126 60.8149 152.676 61.4325 151.947 61.8817C151.217 62.3309 150.066 62.5555 148.493 62.5555C146.977 62.5555 145.854 62.3029 145.124 61.7975C144.394 61.3483 143.917 60.7307 143.693 59.9446C143.524 59.1585 143.44 58.3162 143.44 57.4178V21.2855L128.111 43.4366C127.943 43.6612 127.69 43.97 127.353 44.363C127.016 44.6999 126.567 45.0088 126.005 45.2895C125.444 45.5703 124.686 45.7106 123.731 45.7106C122.833 45.7106 122.103 45.5703 121.541 45.2895C120.98 45.0088 120.531 44.6999 120.194 44.363C119.913 44.0261 119.632 43.6892 119.352 43.3523L104.107 21.2855V57.5863C104.107 58.4285 103.995 59.2427 103.77 60.0288C103.602 60.8149 103.152 61.4325 102.422 61.8817C101.693 62.3309 100.541 62.5555 98.9693 62.5555Z" fill="white" stroke="white" stroke-width="0.2"/>
</svg>
