<svg width="337" height="111" viewBox="0 0 337 111" fill="none" xmlns="http://www.w3.org/2000/svg">
<path d="M153.58 106.653C153.58 105.277 154.696 104.162 156.072 104.162H328.003C329.379 104.162 330.494 105.277 330.494 106.653V106.653C330.494 108.03 329.379 109.145 328.003 109.145H156.072C154.696 109.145 153.58 108.03 153.58 106.653V106.653Z" fill="#FFBB00"/>
<path d="M13.4735 88.2788V82.2469C12.4733 80.6992 11.5311 79.1732 10.6469 77.6688C9.7627 76.1645 8.92922 74.6891 8.14648 73.2426H10.6252C11.176 74.4287 11.792 75.6365 12.4733 76.866C13.1546 78.0811 13.8576 79.2527 14.5823 80.381C15.2926 79.2527 15.9884 78.0811 16.6696 76.866C17.3509 75.6365 17.9742 74.4287 18.5395 73.2426H20.8877C20.105 74.6891 19.2715 76.1645 18.3873 77.6688C17.5031 79.1587 16.5682 80.6703 15.5825 82.2036V88.2788H13.4735Z" fill="#27235C"/>
<path d="M31.6684 82.6375C31.6684 83.5343 31.538 84.3444 31.2771 85.0676C31.0161 85.7908 30.6465 86.4128 30.1682 86.9336C29.7043 87.4543 29.1463 87.8593 28.494 88.1486C27.8417 88.4234 27.1314 88.5609 26.3632 88.5609C25.5949 88.5609 24.8847 88.4234 24.2324 88.1486C23.5801 87.8593 23.0148 87.4543 22.5365 86.9336C22.0726 86.4128 21.7102 85.7908 21.4493 85.0676C21.1884 84.3444 21.058 83.5343 21.058 82.6375C21.058 81.7551 21.1884 80.9523 21.4493 80.2291C21.7102 79.4914 22.0726 78.8622 22.5365 78.3414C23.0148 77.8207 23.5801 77.4229 24.2324 77.1481C24.8847 76.8588 25.5949 76.7141 26.3632 76.7141C27.1314 76.7141 27.8417 76.8588 28.494 77.1481C29.1463 77.4229 29.7043 77.8207 30.1682 78.3414C30.6465 78.8622 31.0161 79.4914 31.2771 80.2291C31.538 80.9523 31.6684 81.7551 31.6684 82.6375ZM29.5594 82.6375C29.5594 81.3646 29.2695 80.3593 28.6897 79.6216C28.1243 78.8694 27.3489 78.4933 26.3632 78.4933C25.3775 78.4933 24.5948 78.8694 24.015 79.6216C23.4497 80.3593 23.167 81.3646 23.167 82.6375C23.167 83.9104 23.4497 84.9229 24.015 85.6751C24.5948 86.4128 25.3775 86.7817 26.3632 86.7817C27.3489 86.7817 28.1243 86.4128 28.6897 85.6751C29.2695 84.9229 29.5594 83.9104 29.5594 82.6375Z" fill="#27235C"/>
<path d="M43.5148 87.9533C43.051 88.0691 42.4349 88.192 41.6667 88.3222C40.9129 88.4524 40.036 88.5175 39.0358 88.5175C38.1661 88.5175 37.4341 88.3945 36.8398 88.1486C36.2455 87.8882 35.7672 87.5266 35.4048 87.0637C35.0424 86.6009 34.7815 86.0584 34.622 85.4364C34.4626 84.8 34.3829 84.0984 34.3829 83.3318V76.9962H36.4049V82.8979C36.4049 84.272 36.6224 85.2556 37.0572 85.8487C37.4921 86.4418 38.2241 86.7383 39.2532 86.7383C39.4707 86.7383 39.6954 86.7311 39.9273 86.7166C40.1592 86.7021 40.3766 86.6877 40.5796 86.6732C40.7825 86.6443 40.9637 86.6226 41.1231 86.6081C41.2971 86.5792 41.4203 86.5502 41.4928 86.5213V76.9962H43.5148V87.9533Z" fill="#27235C"/>
<path d="M51.173 76.7575C51.347 76.7575 51.5427 76.772 51.7601 76.8009C51.992 76.8154 52.2167 76.8443 52.4341 76.8877C52.6516 76.9166 52.8472 76.9528 53.0212 76.9962C53.2096 77.0251 53.3473 77.0541 53.4343 77.083L53.0864 78.8405C52.927 78.7826 52.6588 78.7175 52.2819 78.6452C51.9195 78.5584 51.4484 78.515 50.8686 78.515C50.4918 78.515 50.1149 78.5584 49.738 78.6452C49.3756 78.7175 49.1365 78.7681 49.0205 78.7971V88.2788H46.9984V77.4735C47.4768 77.3 48.0711 77.1409 48.7813 76.9962C49.4916 76.8371 50.2888 76.7575 51.173 76.7575Z" fill="#27235C"/>
<path d="M70.0281 73.2426H72.1371V88.2788H70.0281V81.3357H62.6573V88.2788H60.5483V73.2426H62.6573V79.5131H70.0281V73.2426Z" fill="#27235C"/>
<path d="M85.7281 82.6375C85.7281 83.5343 85.5976 84.3444 85.3367 85.0676C85.0758 85.7908 84.7062 86.4128 84.2278 86.9336C83.764 87.4543 83.2059 87.8593 82.5536 88.1486C81.9013 88.4234 81.1911 88.5609 80.4228 88.5609C79.6546 88.5609 78.9443 88.4234 78.292 88.1486C77.6398 87.8593 77.0745 87.4543 76.5961 86.9336C76.1323 86.4128 75.7699 85.7908 75.509 85.0676C75.2481 84.3444 75.1176 83.5343 75.1176 82.6375C75.1176 81.7551 75.2481 80.9523 75.509 80.2291C75.7699 79.4914 76.1323 78.8622 76.5961 78.3414C77.0745 77.8207 77.6398 77.4229 78.292 77.1481C78.9443 76.8588 79.6546 76.7141 80.4228 76.7141C81.1911 76.7141 81.9013 76.8588 82.5536 77.1481C83.2059 77.4229 83.764 77.8207 84.2278 78.3414C84.7062 78.8622 85.0758 79.4914 85.3367 80.2291C85.5976 80.9523 85.7281 81.7551 85.7281 82.6375ZM83.619 82.6375C83.619 81.3646 83.3291 80.3593 82.7493 79.6216C82.184 78.8694 81.4085 78.4933 80.4228 78.4933C79.4372 78.4933 78.6544 78.8694 78.0746 79.6216C77.5093 80.3593 77.2267 81.3646 77.2267 82.6375C77.2267 83.9104 77.5093 84.9229 78.0746 85.6751C78.6544 86.4128 79.4372 86.7817 80.4228 86.7817C81.4085 86.7817 82.184 86.4128 82.7493 85.6751C83.3291 84.9229 83.619 83.9104 83.619 82.6375Z" fill="#27235C"/>
<path d="M91.2039 86.8251C92.0301 86.8251 92.6389 86.7166 93.0302 86.4996C93.4361 86.2826 93.639 85.9355 93.639 85.4581C93.639 84.9663 93.4434 84.5758 93.052 84.2865C92.6606 83.9972 92.0156 83.6717 91.1169 83.3101C90.682 83.1365 90.2617 82.963 89.8558 82.7894C89.4644 82.6013 89.1238 82.3844 88.8339 82.1385C88.544 81.8926 88.3121 81.596 88.1381 81.2489C87.9642 80.9017 87.8772 80.475 87.8772 79.9687C87.8772 78.9707 88.2468 78.1823 88.9861 77.6037C89.7253 77.0107 90.7328 76.7141 92.0083 76.7141C92.3272 76.7141 92.6461 76.7358 92.965 76.7792C93.2839 76.8082 93.5811 76.8516 93.8565 76.9094C94.1319 76.9528 94.371 77.0034 94.574 77.0613C94.7914 77.1192 94.9581 77.1698 95.0741 77.2132L94.7044 78.949C94.487 78.8332 94.1464 78.7175 93.6825 78.6018C93.2187 78.4716 92.6606 78.4065 92.0083 78.4065C91.443 78.4065 90.9502 78.5222 90.5298 78.7537C90.1095 78.9707 89.8993 79.3178 89.8993 79.7952C89.8993 80.0411 89.9428 80.258 90.0297 80.4461C90.1312 80.6341 90.2762 80.8077 90.4646 80.9668C90.6675 81.1115 90.9139 81.2489 91.2039 81.3791C91.4938 81.5092 91.8416 81.6467 92.2475 81.7913C92.7838 81.9938 93.2622 82.1963 93.6825 82.3988C94.1029 82.5869 94.458 82.8111 94.7479 83.0714C95.0523 83.3318 95.2842 83.65 95.4437 84.0261C95.6031 84.3877 95.6829 84.8362 95.6829 85.3714C95.6829 86.4128 95.2915 87.2012 94.5087 87.7364C93.7405 88.2716 92.6389 88.5392 91.2039 88.5392C90.2037 88.5392 89.4209 88.4524 88.8556 88.2788C88.2903 88.1197 87.9062 87.9967 87.7033 87.9099L88.0729 86.1742C88.3048 86.2609 88.6744 86.3911 89.1818 86.5647C89.6891 86.7383 90.3631 86.8251 91.2039 86.8251Z" fill="#27235C"/>
<path d="M100.168 76.9962H104.451V78.6886H100.168V83.8959C100.168 84.4601 100.212 84.9302 100.299 85.3063C100.386 85.6679 100.516 85.9572 100.69 86.1742C100.864 86.3767 101.081 86.5213 101.342 86.6081C101.603 86.6949 101.908 86.7383 102.255 86.7383C102.864 86.7383 103.35 86.6732 103.712 86.543C104.089 86.3984 104.35 86.2971 104.495 86.2392L104.886 87.9099C104.683 88.0112 104.328 88.1341 103.821 88.2788C103.314 88.4379 102.734 88.5175 102.082 88.5175C101.313 88.5175 100.675 88.4234 100.168 88.2354C99.6753 88.0329 99.2767 87.7364 98.9723 87.3458C98.6679 86.9553 98.4505 86.4779 98.32 85.9138C98.2041 85.3352 98.1461 84.6698 98.1461 83.9176V73.8501L100.168 73.5029V76.9962Z" fill="#27235C"/>
<path d="M109.047 88.2788H107.025V76.9962H109.047V88.2788ZM108.025 74.9567C107.662 74.9567 107.351 74.8409 107.09 74.6095C106.843 74.3636 106.72 74.0381 106.72 73.6331C106.72 73.2281 106.843 72.9099 107.09 72.6784C107.351 72.4325 107.662 72.3096 108.025 72.3096C108.387 72.3096 108.692 72.4325 108.938 72.6784C109.199 72.9099 109.329 73.2281 109.329 73.6331C109.329 74.0381 109.199 74.3636 108.938 74.6095C108.692 74.8409 108.387 74.9567 108.025 74.9567Z" fill="#27235C"/>
<path d="M112.524 77.3217C112.988 77.2059 113.604 77.083 114.372 76.9528C115.14 76.8226 116.025 76.7575 117.025 76.7575C117.923 76.7575 118.67 76.8877 119.264 77.1481C119.859 77.394 120.33 77.7484 120.678 78.2113C121.04 78.6597 121.294 79.2021 121.439 79.8385C121.583 80.475 121.656 81.1765 121.656 81.9432V88.2788H119.634V82.3771C119.634 81.6828 119.583 81.0898 119.482 80.598C119.395 80.1061 119.243 79.7084 119.025 79.4046C118.808 79.1008 118.518 78.8839 118.155 78.7537C117.793 78.609 117.344 78.5367 116.807 78.5367C116.59 78.5367 116.365 78.5439 116.133 78.5584C115.901 78.5729 115.677 78.5946 115.459 78.6235C115.256 78.638 115.068 78.6597 114.894 78.6886C114.735 78.7175 114.619 78.7392 114.546 78.7537V88.2788H112.524V77.3217Z" fill="#27235C"/>
<path d="M132.097 87.1505C131.923 87.2663 131.583 87.4181 131.075 87.6062C130.582 87.7798 130.003 87.8665 129.336 87.8665C128.655 87.8665 128.01 87.7581 127.401 87.5411C126.806 87.3241 126.285 86.9914 125.835 86.543C125.386 86.0801 125.031 85.5088 124.77 84.8289C124.509 84.1491 124.379 83.339 124.379 82.3988C124.379 81.5743 124.502 80.8222 124.748 80.1423C124.995 79.448 125.35 78.8549 125.814 78.3631C126.292 77.8569 126.872 77.4663 127.553 77.1915C128.234 76.9022 129.003 76.7575 129.858 76.7575C130.8 76.7575 131.619 76.8299 132.315 76.9745C133.025 77.1047 133.619 77.2276 134.098 77.3434V87.4109C134.098 89.1467 133.648 90.4051 132.75 91.1862C131.851 91.9673 130.488 92.3579 128.662 92.3579C127.952 92.3579 127.278 92.3 126.64 92.1843C126.017 92.0686 125.473 91.9312 125.009 91.7721L125.379 90.0146C125.785 90.1737 126.277 90.3111 126.857 90.4268C127.452 90.557 128.068 90.6221 128.705 90.6221C129.908 90.6221 130.771 90.3834 131.293 89.9061C131.829 89.4288 132.097 88.6693 132.097 87.6279V87.1505ZM132.075 78.7754C131.873 78.7175 131.597 78.6669 131.249 78.6235C130.916 78.5656 130.459 78.5367 129.879 78.5367C128.792 78.5367 127.952 78.8911 127.357 79.5999C126.778 80.3087 126.488 81.2489 126.488 82.4205C126.488 83.0714 126.567 83.6283 126.727 84.0912C126.901 84.5541 127.125 84.9374 127.401 85.2412C127.691 85.5449 128.017 85.7691 128.379 85.9138C128.756 86.0584 129.14 86.1308 129.532 86.1308C130.068 86.1308 130.561 86.0584 131.01 85.9138C131.459 85.7547 131.815 85.5739 132.075 85.3714V78.7754Z" fill="#27235C"/>
<path d="M139.71 85.8053C139.724 85.921 139.732 86.0367 139.732 86.1525C139.732 86.2537 139.732 86.3622 139.732 86.4779C139.732 87.3892 139.594 88.286 139.319 89.1684C139.058 90.0652 138.695 90.9186 138.231 91.7287L136.666 91.2296C137.028 90.4919 137.267 89.7397 137.383 88.9731C137.499 88.2209 137.557 87.5122 137.557 86.8468C137.557 86.6587 137.55 86.4779 137.536 86.3043C137.536 86.1308 137.528 85.9644 137.514 85.8053H139.71Z" fill="#27235C"/>
<path d="M147.484 80.7498C147.484 79.4625 147.672 78.327 148.049 77.3434C148.44 76.3597 148.962 75.5425 149.615 74.8916C150.281 74.2262 151.05 73.7271 151.919 73.3945C152.804 73.0618 153.738 72.8954 154.724 72.8954C155.695 72.8954 156.609 73.0618 157.464 73.3945C158.333 73.7271 159.094 74.2262 159.747 74.8916C160.399 75.5425 160.914 76.3597 161.29 77.3434C161.682 78.327 161.878 79.4625 161.878 80.7498C161.878 82.0372 161.682 83.1727 161.29 84.1563C160.914 85.1399 160.399 85.9644 159.747 86.6298C159.094 87.2807 158.333 87.7725 157.464 88.1052C156.609 88.4379 155.695 88.6043 154.724 88.6043C153.738 88.6043 152.804 88.4379 151.919 88.1052C151.05 87.7725 150.281 87.2807 149.615 86.6298C148.962 85.9644 148.44 85.1399 148.049 84.1563C147.672 83.1727 147.484 82.0372 147.484 80.7498ZM149.702 80.7498C149.702 81.6611 149.818 82.4928 150.049 83.245C150.281 83.9827 150.608 84.612 151.028 85.1327C151.463 85.6534 151.985 86.0584 152.593 86.3477C153.217 86.6226 153.912 86.76 154.681 86.76C155.449 86.76 156.137 86.6226 156.746 86.3477C157.355 86.0584 157.87 85.6534 158.29 85.1327C158.725 84.612 159.058 83.9827 159.29 83.245C159.522 82.4928 159.638 81.6611 159.638 80.7498C159.638 79.8385 159.522 79.014 159.29 78.2763C159.058 77.5242 158.725 76.8877 158.29 76.367C157.87 75.8462 157.355 75.4485 156.746 75.1736C156.137 74.8843 155.449 74.7397 154.681 74.7397C153.912 74.7397 153.217 74.8843 152.593 75.1736C151.985 75.4485 151.463 75.8462 151.028 76.367C150.608 76.8877 150.281 77.5242 150.049 78.2763C149.818 79.014 149.702 79.8385 149.702 80.7498Z" fill="#27235C"/>
<path d="M173.887 87.9533C173.423 88.0691 172.807 88.192 172.038 88.3222C171.285 88.4524 170.408 88.5175 169.407 88.5175C168.538 88.5175 167.806 88.3945 167.211 88.1486C166.617 87.8882 166.139 87.5266 165.776 87.0637C165.414 86.6009 165.153 86.0584 164.994 85.4364C164.834 84.8 164.755 84.0984 164.755 83.3318V76.9962H166.777V82.8979C166.777 84.272 166.994 85.2556 167.429 85.8487C167.864 86.4418 168.596 86.7383 169.625 86.7383C169.842 86.7383 170.067 86.7311 170.299 86.7166C170.531 86.7021 170.748 86.6877 170.951 86.6732C171.154 86.6443 171.335 86.6226 171.495 86.6081C171.669 86.5792 171.792 86.5502 171.864 86.5213V76.9962H173.887V87.9533Z" fill="#27235C"/>
<path d="M181.545 76.7575C181.719 76.7575 181.914 76.772 182.132 76.8009C182.364 76.8154 182.588 76.8443 182.806 76.8877C183.023 76.9166 183.219 76.9528 183.393 76.9962C183.581 77.0251 183.719 77.0541 183.806 77.083L183.458 78.8405C183.299 78.7826 183.03 78.7175 182.654 78.6452C182.291 78.5584 181.82 78.515 181.24 78.515C180.863 78.515 180.487 78.5584 180.11 78.6452C179.747 78.7175 179.508 78.7681 179.392 78.7971V88.2788H177.37V77.4735C177.848 77.3 178.443 77.1409 179.153 76.9962C179.863 76.8371 180.66 76.7575 181.545 76.7575Z" fill="#27235C"/>
<path d="M198.291 81.9866C198.523 82.2759 198.813 82.6592 199.16 83.1365C199.523 83.5994 199.892 84.1201 200.269 84.6987C200.646 85.2629 201.016 85.8559 201.378 86.4779C201.755 87.0999 202.074 87.7002 202.335 88.2788H200.03C199.74 87.7291 199.421 87.1722 199.073 86.6081C198.74 86.044 198.399 85.5088 198.052 85.0025C197.704 84.4818 197.356 83.9972 197.008 83.5488C196.674 83.1004 196.37 82.7098 196.095 82.3771C195.906 82.3916 195.711 82.3988 195.508 82.3988C195.319 82.3988 195.124 82.3988 194.921 82.3988H193.029V88.2788H190.92V73.4595C191.514 73.3149 192.174 73.2209 192.899 73.1775C193.638 73.1196 194.312 73.0907 194.921 73.0907C197.037 73.0907 198.646 73.4885 199.747 74.284C200.864 75.0796 201.422 76.2657 201.422 77.8424C201.422 78.8405 201.154 79.6939 200.617 80.4027C200.095 81.1115 199.32 81.6394 198.291 81.9866ZM195.095 74.935C194.196 74.935 193.507 74.9567 193.029 75.0001V80.663H194.529C195.254 80.663 195.906 80.6269 196.486 80.5546C197.066 80.4822 197.551 80.3448 197.943 80.1423C198.349 79.9398 198.66 79.6577 198.878 79.2961C199.095 78.92 199.204 78.4282 199.204 77.8207C199.204 77.2566 199.095 76.7865 198.878 76.4104C198.66 76.0343 198.363 75.7378 197.986 75.5208C197.624 75.3038 197.189 75.1519 196.682 75.0651C196.189 74.9784 195.66 74.935 195.095 74.935Z" fill="#27235C"/>
<path d="M203.833 82.6592C203.833 81.6611 203.978 80.7932 204.268 80.0555C204.558 79.3033 204.942 78.6814 205.42 78.1896C205.899 77.6977 206.449 77.3289 207.073 77.083C207.696 76.8371 208.334 76.7141 208.986 76.7141C210.508 76.7141 211.675 77.1915 212.487 78.1462C213.298 79.0864 213.704 80.5256 213.704 82.4639C213.704 82.5507 213.704 82.6664 213.704 82.8111C213.704 82.9413 213.697 83.0642 213.683 83.1799H205.942C206.029 84.3516 206.37 85.2412 206.964 85.8487C207.558 86.4562 208.486 86.76 209.747 86.76C210.457 86.76 211.052 86.7021 211.53 86.5864C212.023 86.4562 212.392 86.3333 212.639 86.2175L212.922 87.9099C212.675 88.0401 212.24 88.1775 211.617 88.3222C211.008 88.4668 210.312 88.5392 209.53 88.5392C208.544 88.5392 207.689 88.3945 206.964 88.1052C206.254 87.8015 205.667 87.3892 205.203 86.8685C204.739 86.3477 204.391 85.733 204.159 85.0242C203.942 84.301 203.833 83.5126 203.833 82.6592ZM211.595 81.5526C211.61 80.6413 211.378 79.8964 210.899 79.3178C210.436 78.7248 209.791 78.4282 208.964 78.4282C208.501 78.4282 208.087 78.5222 207.725 78.7103C207.377 78.8839 207.08 79.1153 206.834 79.4046C206.587 79.6939 206.391 80.0266 206.247 80.4027C206.116 80.7788 206.029 81.1621 205.986 81.5526H211.595Z" fill="#27235C"/>
<path d="M219.24 86.8251C220.066 86.8251 220.675 86.7166 221.066 86.4996C221.472 86.2826 221.675 85.9355 221.675 85.4581C221.675 84.9663 221.479 84.5758 221.088 84.2865C220.697 83.9972 220.052 83.6717 219.153 83.3101C218.718 83.1365 218.298 82.963 217.892 82.7894C217.5 82.6013 217.16 82.3844 216.87 82.1385C216.58 81.8926 216.348 81.596 216.174 81.2489C216 80.9017 215.913 80.475 215.913 79.9687C215.913 78.9707 216.283 78.1823 217.022 77.6037C217.761 77.0107 218.769 76.7141 220.044 76.7141C220.363 76.7141 220.682 76.7358 221.001 76.7792C221.32 76.8082 221.617 76.8516 221.892 76.9094C222.168 76.9528 222.407 77.0034 222.61 77.0613C222.827 77.1192 222.994 77.1698 223.11 77.2132L222.74 78.949C222.523 78.8332 222.182 78.7175 221.719 78.6018C221.255 78.4716 220.697 78.4065 220.044 78.4065C219.479 78.4065 218.986 78.5222 218.566 78.7537C218.145 78.9707 217.935 79.3178 217.935 79.7952C217.935 80.0411 217.979 80.258 218.066 80.4461C218.167 80.6341 218.312 80.8077 218.501 80.9668C218.704 81.1115 218.95 81.2489 219.24 81.3791C219.53 81.5092 219.878 81.6467 220.284 81.7913C220.82 81.9938 221.298 82.1963 221.719 82.3988C222.139 82.5869 222.494 82.8111 222.784 83.0714C223.088 83.3318 223.32 83.65 223.48 84.0261C223.639 84.3877 223.719 84.8362 223.719 85.3714C223.719 86.4128 223.328 87.2012 222.545 87.7364C221.777 88.2716 220.675 88.5392 219.24 88.5392C218.24 88.5392 217.457 88.4524 216.892 88.2788C216.326 88.1197 215.942 87.9967 215.739 87.9099L216.109 86.1742C216.341 86.2609 216.71 86.3911 217.218 86.5647C217.725 86.7383 218.399 86.8251 219.24 86.8251Z" fill="#27235C"/>
<path d="M234.162 82.6592C234.162 81.3429 233.836 80.3304 233.183 79.6216C232.531 78.9128 231.661 78.5584 230.574 78.5584C229.965 78.5584 229.487 78.5801 229.139 78.6235C228.806 78.6669 228.538 78.7175 228.335 78.7754V85.8921C228.581 86.0946 228.936 86.2899 229.4 86.4779C229.864 86.666 230.371 86.76 230.922 86.76C231.502 86.76 231.995 86.6587 232.401 86.4562C232.821 86.2392 233.162 85.95 233.422 85.5883C233.683 85.2122 233.872 84.7783 233.988 84.2865C234.104 83.7802 234.162 83.2378 234.162 82.6592ZM236.271 82.6592C236.271 83.5126 236.155 84.301 235.923 85.0242C235.705 85.7474 235.379 86.3694 234.944 86.8902C234.51 87.4109 233.973 87.8159 233.335 88.1052C232.712 88.3945 231.995 88.5392 231.183 88.5392C230.531 88.5392 229.951 88.4524 229.443 88.2788C228.951 88.1052 228.581 87.9389 228.335 87.7798V92.2928H226.313V77.3434C226.791 77.2276 227.385 77.1047 228.095 76.9745C228.82 76.8299 229.654 76.7575 230.596 76.7575C231.466 76.7575 232.248 76.8949 232.944 77.1698C233.64 77.4446 234.234 77.8352 234.727 78.3414C235.22 78.8477 235.597 79.4697 235.858 80.2074C236.133 80.9306 236.271 81.7479 236.271 82.6592Z" fill="#27235C"/>
<path d="M249.096 82.6375C249.096 83.5343 248.966 84.3444 248.705 85.0676C248.444 85.7908 248.074 86.4128 247.596 86.9336C247.132 87.4543 246.574 87.8593 245.922 88.1486C245.269 88.4234 244.559 88.5609 243.791 88.5609C243.023 88.5609 242.312 88.4234 241.66 88.1486C241.008 87.8593 240.442 87.4543 239.964 86.9336C239.5 86.4128 239.138 85.7908 238.877 85.0676C238.616 84.3444 238.486 83.5343 238.486 82.6375C238.486 81.7551 238.616 80.9523 238.877 80.2291C239.138 79.4914 239.5 78.8622 239.964 78.3414C240.442 77.8207 241.008 77.4229 241.66 77.1481C242.312 76.8588 243.023 76.7141 243.791 76.7141C244.559 76.7141 245.269 76.8588 245.922 77.1481C246.574 77.4229 247.132 77.8207 247.596 78.3414C248.074 78.8622 248.444 79.4914 248.705 80.2291C248.966 80.9523 249.096 81.7551 249.096 82.6375ZM246.987 82.6375C246.987 81.3646 246.697 80.3593 246.117 79.6216C245.552 78.8694 244.777 78.4933 243.791 78.4933C242.805 78.4933 242.022 78.8694 241.443 79.6216C240.877 80.3593 240.595 81.3646 240.595 82.6375C240.595 83.9104 240.877 84.9229 241.443 85.6751C242.022 86.4128 242.805 86.7817 243.791 86.7817C244.777 86.7817 245.552 86.4128 246.117 85.6751C246.697 84.9229 246.987 83.9104 246.987 82.6375Z" fill="#27235C"/>
<path d="M251.941 77.3217C252.405 77.2059 253.021 77.083 253.789 76.9528C254.557 76.8226 255.442 76.7575 256.442 76.7575C257.34 76.7575 258.087 76.8877 258.681 77.1481C259.276 77.394 259.747 77.7484 260.095 78.2113C260.457 78.6597 260.711 79.2021 260.856 79.8385C261 80.475 261.073 81.1765 261.073 81.9432V88.2788H259.051V82.3771C259.051 81.6828 259 81.0898 258.899 80.598C258.812 80.1061 258.659 79.7084 258.442 79.4046C258.225 79.1008 257.935 78.8839 257.572 78.7537C257.21 78.609 256.761 78.5367 256.224 78.5367C256.007 78.5367 255.782 78.5439 255.55 78.5584C255.318 78.5729 255.094 78.5946 254.876 78.6235C254.673 78.638 254.485 78.6597 254.311 78.6886C254.152 78.7175 254.036 78.7392 253.963 78.7537V88.2788H251.941V77.3217Z" fill="#27235C"/>
<path d="M267.057 86.8251C267.883 86.8251 268.492 86.7166 268.883 86.4996C269.289 86.2826 269.492 85.9355 269.492 85.4581C269.492 84.9663 269.296 84.5758 268.905 84.2865C268.514 83.9972 267.869 83.6717 266.97 83.3101C266.535 83.1365 266.115 82.963 265.709 82.7894C265.318 82.6013 264.977 82.3844 264.687 82.1385C264.397 81.8926 264.165 81.596 263.991 81.2489C263.817 80.9017 263.73 80.475 263.73 79.9687C263.73 78.9707 264.1 78.1823 264.839 77.6037C265.578 77.0107 266.586 76.7141 267.861 76.7141C268.18 76.7141 268.499 76.7358 268.818 76.7792C269.137 76.8082 269.434 76.8516 269.71 76.9094C269.985 76.9528 270.224 77.0034 270.427 77.0613C270.645 77.1192 270.811 77.1698 270.927 77.2132L270.558 78.949C270.34 78.8332 269.999 78.7175 269.536 78.6018C269.072 78.4716 268.514 78.4065 267.861 78.4065C267.296 78.4065 266.803 78.5222 266.383 78.7537C265.963 78.9707 265.752 79.3178 265.752 79.7952C265.752 80.0411 265.796 80.258 265.883 80.4461C265.984 80.6341 266.129 80.8077 266.318 80.9668C266.521 81.1115 266.767 81.2489 267.057 81.3791C267.347 81.5092 267.695 81.6467 268.101 81.7913C268.637 81.9938 269.115 82.1963 269.536 82.3988C269.956 82.5869 270.311 82.8111 270.601 83.0714C270.905 83.3318 271.137 83.65 271.297 84.0261C271.456 84.3877 271.536 84.8362 271.536 85.3714C271.536 86.4128 271.145 87.2012 270.362 87.7364C269.594 88.2716 268.492 88.5392 267.057 88.5392C266.057 88.5392 265.274 88.4524 264.709 88.2788C264.143 88.1197 263.759 87.9967 263.556 87.9099L263.926 86.1742C264.158 86.2609 264.528 86.3911 265.035 86.5647C265.542 86.7383 266.216 86.8251 267.057 86.8251Z" fill="#27235C"/>
<path d="M276.152 88.2788H274.13V76.9962H276.152V88.2788ZM275.13 74.9567C274.767 74.9567 274.456 74.8409 274.195 74.6095C273.948 74.3636 273.825 74.0381 273.825 73.6331C273.825 73.2281 273.948 72.9099 274.195 72.6784C274.456 72.4325 274.767 72.3096 275.13 72.3096C275.492 72.3096 275.797 72.4325 276.043 72.6784C276.304 72.9099 276.434 73.2281 276.434 73.6331C276.434 74.0381 276.304 74.3636 276.043 74.6095C275.797 74.8409 275.492 74.9567 275.13 74.9567Z" fill="#27235C"/>
<path d="M281.651 77.4952C281.898 77.3361 282.267 77.1698 282.76 76.9962C283.267 76.8226 283.847 76.7358 284.499 76.7358C285.311 76.7358 286.029 76.8805 286.652 77.1698C287.29 77.4591 287.826 77.8641 288.261 78.3848C288.696 78.9056 289.022 79.5276 289.239 80.2508C289.471 80.974 289.587 81.7696 289.587 82.6375C289.587 83.5488 289.45 84.3733 289.174 85.111C288.913 85.8342 288.536 86.449 288.043 86.9553C287.551 87.4615 286.956 87.8521 286.261 88.1269C285.565 88.4017 284.782 88.5392 283.912 88.5392C282.97 88.5392 282.137 88.4741 281.412 88.3439C280.687 88.2137 280.093 88.0835 279.629 87.9533V71.7889L281.651 71.4417V77.4952ZM281.651 86.5213C281.854 86.5792 282.137 86.637 282.499 86.6949C282.876 86.7383 283.34 86.76 283.891 86.76C284.978 86.76 285.847 86.4056 286.5 85.6968C287.152 84.9736 287.478 83.9538 287.478 82.6375C287.478 82.0589 287.42 81.5165 287.304 81.0102C287.188 80.5039 287 80.07 286.739 79.7084C286.478 79.3323 286.137 79.043 285.717 78.8405C285.311 78.6235 284.818 78.515 284.239 78.515C283.688 78.515 283.18 78.609 282.717 78.7971C282.253 78.9851 281.898 79.1804 281.651 79.3829V86.5213Z" fill="#27235C"/>
<path d="M294.455 88.2788H292.433V76.9962H294.455V88.2788ZM293.433 74.9567C293.07 74.9567 292.759 74.8409 292.498 74.6095C292.251 74.3636 292.128 74.0381 292.128 73.6331C292.128 73.2281 292.251 72.9099 292.498 72.6784C292.759 72.4325 293.07 72.3096 293.433 72.3096C293.795 72.3096 294.1 72.4325 294.346 72.6784C294.607 72.9099 294.737 73.2281 294.737 73.6331C294.737 74.0381 294.607 74.3636 294.346 74.6095C294.1 74.8409 293.795 74.9567 293.433 74.9567Z" fill="#27235C"/>
<path d="M301.324 88.4958C300.077 88.4668 299.193 88.1992 298.671 87.693C298.149 87.1867 297.889 86.3984 297.889 85.328V71.7889L299.911 71.4417V85.0025C299.911 85.3352 299.94 85.61 299.998 85.827C300.056 86.044 300.15 86.2176 300.28 86.3477C300.411 86.4779 300.585 86.5792 300.802 86.6515C301.02 86.7094 301.288 86.76 301.607 86.8034L301.324 88.4958Z" fill="#27235C"/>
<path d="M305.899 88.2788H303.877V76.9962H305.899V88.2788ZM304.877 74.9567C304.515 74.9567 304.203 74.8409 303.943 74.6095C303.696 74.3636 303.573 74.0381 303.573 73.6331C303.573 73.2281 303.696 72.9099 303.943 72.6784C304.203 72.4325 304.515 72.3096 304.877 72.3096C305.24 72.3096 305.544 72.4325 305.791 72.6784C306.052 72.9099 306.182 73.2281 306.182 73.6331C306.182 74.0381 306.052 74.3636 305.791 74.6095C305.544 74.8409 305.24 74.9567 304.877 74.9567Z" fill="#27235C"/>
<path d="M311.268 76.9962H315.552V78.6886H311.268V83.8959C311.268 84.4601 311.312 84.9302 311.399 85.3063C311.486 85.6679 311.616 85.9572 311.79 86.1742C311.964 86.3767 312.182 86.5213 312.442 86.6081C312.703 86.6949 313.008 86.7383 313.356 86.7383C313.964 86.7383 314.45 86.6732 314.812 86.543C315.189 86.3984 315.45 86.2971 315.595 86.2392L315.987 87.9099C315.784 88.0112 315.428 88.1341 314.921 88.2788C314.414 88.4379 313.834 88.5175 313.182 88.5175C312.413 88.5175 311.776 88.4234 311.268 88.2354C310.775 88.0329 310.377 87.7364 310.072 87.3458C309.768 86.9553 309.551 86.4779 309.42 85.9138C309.304 85.3352 309.246 84.6698 309.246 83.9176V73.8501L311.268 73.5029V76.9962Z" fill="#27235C"/>
<path d="M316.798 90.3834C316.958 90.4558 317.161 90.5208 317.407 90.5787C317.668 90.651 317.922 90.6872 318.168 90.6872C318.966 90.6872 319.589 90.5064 320.038 90.1448C320.487 89.7976 320.893 89.2262 321.256 88.4307C320.343 86.6949 319.487 84.8579 318.69 82.9196C317.907 80.9668 317.255 78.9924 316.733 76.9962H318.908C319.067 77.6471 319.255 78.3487 319.473 79.1008C319.705 79.853 319.958 80.6269 320.234 81.4224C320.509 82.218 320.806 83.0136 321.125 83.8092C321.444 84.6047 321.778 85.3714 322.125 86.1091C322.676 84.5903 323.155 83.0859 323.56 81.596C323.966 80.1061 324.35 78.5729 324.713 76.9962H326.8C326.278 79.1225 325.698 81.1693 325.061 83.1365C324.423 85.0893 323.734 86.9191 322.995 88.6259C322.705 89.2769 322.401 89.8338 322.082 90.2966C321.778 90.774 321.437 91.1645 321.06 91.4683C320.683 91.7721 320.256 91.9963 319.777 92.1409C319.313 92.2856 318.784 92.3579 318.19 92.3579C318.031 92.3579 317.864 92.3434 317.69 92.3145C317.516 92.3 317.342 92.2711 317.168 92.2277C317.009 92.1988 316.856 92.1626 316.712 92.1192C316.581 92.0758 316.487 92.0397 316.429 92.0107L316.798 90.3834Z" fill="#27235C"/>
<path d="M330.731 87.1071C330.731 87.4977 330.601 87.8376 330.34 88.1269C330.079 88.4162 329.724 88.5609 329.275 88.5609C328.825 88.5609 328.47 88.4162 328.209 88.1269C327.948 87.8376 327.818 87.4977 327.818 87.1071C327.818 86.7166 327.948 86.3767 328.209 86.0874C328.47 85.7981 328.825 85.6534 329.275 85.6534C329.724 85.6534 330.079 85.7981 330.34 86.0874C330.601 86.3767 330.731 86.7166 330.731 87.1071Z" fill="#27235C"/>
<path d="M313.18 56.7114C310.694 56.7114 308.462 56.2295 306.483 55.2656C304.556 54.2509 302.907 52.8811 301.537 51.1562C300.218 49.4313 299.203 47.4528 298.493 45.2206C297.834 42.9376 297.504 40.5025 297.504 37.9151C297.555 35.3278 297.935 32.918 298.645 30.6858C299.356 28.4028 300.37 26.4243 301.689 24.7501C303.059 23.0252 304.708 21.6808 306.636 20.7169C308.563 19.753 310.745 19.2711 313.18 19.2711C315.514 19.2711 317.695 19.753 319.725 20.7169C321.805 21.6808 323.631 23.0252 325.204 24.7501C326.827 26.4243 328.095 28.4028 329.009 30.6858C329.922 32.918 330.378 35.3024 330.378 37.839C330.378 40.4771 329.922 42.963 329.009 45.2967C328.095 47.5796 326.852 49.5835 325.28 51.3084C323.707 52.9826 321.881 54.3016 319.801 55.2656C317.721 56.2295 315.514 56.7114 313.18 56.7114ZM311.963 47.8079C313.738 47.8079 315.336 47.4021 316.757 46.5903C318.177 45.7279 319.293 44.5611 320.105 43.0898C320.967 41.6186 321.399 39.9444 321.399 38.0673C321.399 36.1395 320.967 34.44 320.105 32.9687C319.293 31.4468 318.177 30.2799 316.757 29.4682C315.336 28.6058 313.738 28.1746 311.963 28.1746C310.238 28.1746 308.665 28.6058 307.244 29.4682C305.824 30.3307 304.682 31.4975 303.82 32.9687C303.008 34.44 302.602 36.1395 302.602 38.0673C302.602 39.9444 303.008 41.6186 303.82 43.0898C304.682 44.5611 305.824 45.7279 307.244 46.5903C308.665 47.4021 310.238 47.8079 311.963 47.8079ZM297.884 56.7875C296.515 56.7875 295.5 56.5592 294.84 56.1026C294.181 55.6968 293.775 55.1641 293.623 54.5046C293.471 53.7943 293.395 53.008 293.395 52.1455V6.79093C293.395 5.92849 293.471 5.1675 293.623 4.50798C293.775 3.79773 294.181 3.23968 294.84 2.83382C295.5 2.42796 296.515 2.22504 297.884 2.22504C299.305 2.22504 300.319 2.42796 300.928 2.83382C301.537 3.23968 301.918 3.79773 302.07 4.50798C302.222 5.21823 302.298 5.97922 302.298 6.79093V53.6675C302.095 54.7836 301.664 55.5699 301.004 56.0265C300.396 56.5339 299.356 56.7875 297.884 56.7875Z" fill="#27235C" stroke="#27235C" stroke-width="0.4"/>
<path d="M270.714 57.2452C267.417 57.2452 264.525 56.7125 262.039 55.6471C259.604 54.5817 257.549 53.1359 255.875 51.3095C254.252 49.4324 253.009 47.3524 252.146 45.0694C251.335 42.7358 250.929 40.326 250.929 37.8401C250.929 34.1874 251.766 30.9405 253.44 28.0995C255.114 25.2585 257.422 23.0263 260.365 21.4029C263.358 19.7794 266.783 18.9677 270.638 18.9677C273.378 18.9677 275.788 19.399 277.868 20.2614C279.948 21.1238 281.672 22.2653 283.042 23.6858C284.463 25.0556 285.528 26.5776 286.238 28.2517C286.999 29.9259 287.38 31.5493 287.38 33.122C287.38 35.8108 286.72 37.764 285.401 38.9816C284.133 40.1991 282.535 40.8079 280.607 40.8079H260.517C260.568 42.5328 261.101 44.0294 262.115 45.2977C263.181 46.566 264.5 47.5553 266.072 48.2656C267.696 48.9251 269.345 49.2548 271.019 49.2548C272.287 49.2548 273.403 49.1787 274.367 49.0266C275.382 48.8744 276.244 48.6968 276.954 48.4939C277.665 48.2402 278.273 47.9865 278.781 47.7329C279.339 47.4792 279.846 47.2509 280.303 47.048C280.759 46.8451 281.19 46.7182 281.596 46.6675C282.154 46.6168 282.712 46.7436 283.271 47.048C283.829 47.3524 284.285 47.8851 284.64 48.6461C284.945 49.1534 285.148 49.6353 285.249 50.0919C285.401 50.4978 285.477 50.9036 285.477 51.3095C285.477 52.3241 284.869 53.2881 283.651 54.2012C282.433 55.0637 280.709 55.7739 278.476 56.332C276.295 56.9408 273.707 57.2452 270.714 57.2452ZM260.517 35.405H276.117C276.98 35.405 277.639 35.2781 278.096 35.0245C278.552 34.7201 278.781 34.1113 278.781 33.1981C278.781 32.0313 278.426 30.9913 277.715 30.0781C277.005 29.1142 276.041 28.3785 274.824 27.8712C273.606 27.3132 272.186 27.0341 270.562 27.0341C268.685 27.0341 266.985 27.4146 265.463 28.1756C263.942 28.8859 262.724 29.8751 261.811 31.1435C260.948 32.4118 260.517 33.8323 260.517 35.405Z" fill="#27235C" stroke="#27235C" stroke-width="0.4"/>
<path d="M202.633 56.5621C201.618 56.5621 200.807 56.3845 200.198 56.0294C199.589 55.6236 199.133 55.167 198.828 54.6597C198.575 54.1523 198.397 53.7211 198.296 53.366L183.38 9.68557C182.873 8.06214 182.797 6.84457 183.152 6.03285C183.507 5.17041 184.547 4.46015 186.272 3.9021C187.439 3.49624 188.377 3.31868 189.088 3.36941C189.798 3.42014 190.381 3.72454 190.838 4.28259C191.345 4.78992 191.776 5.60163 192.132 6.71774L203.09 39.8966L212.906 7.02213C213.059 6.51481 213.262 6.00749 213.515 5.50017C213.82 4.94211 214.276 4.48552 214.885 4.1304C215.494 3.77527 216.331 3.59771 217.396 3.59771C218.614 3.59771 219.527 3.80064 220.136 4.20649C220.745 4.61235 221.176 5.06894 221.429 5.57626C221.734 6.03285 221.937 6.46408 222.038 6.86994L231.855 40.1249L242.889 6.79384C243.244 5.627 243.65 4.76455 244.107 4.20649C244.614 3.64844 245.248 3.34405 246.009 3.29332C246.77 3.19185 247.709 3.34405 248.825 3.74991C249.992 4.15576 250.829 4.61235 251.336 5.11968C251.843 5.57627 252.097 6.18505 252.097 6.94603C252.097 7.65628 251.919 8.56946 251.564 9.68557L236.725 53.4421C236.624 53.7465 236.421 54.1523 236.116 54.6597C235.863 55.167 235.432 55.6236 234.823 56.0294C234.214 56.3845 233.377 56.5621 232.311 56.5621C231.246 56.5621 230.409 56.3338 229.8 55.8772C229.191 55.4206 228.735 54.9133 228.43 54.3553C228.126 53.7972 227.923 53.3913 227.822 53.1377L217.472 19.6544L207.123 53.0616C207.021 53.4167 206.819 53.8733 206.514 54.4314C206.26 54.9894 205.829 55.4967 205.22 55.9533C204.612 56.3592 203.749 56.5621 202.633 56.5621Z" fill="#27235C" stroke="#27235C" stroke-width="0.4"/>
<path d="M163.063 57.2458C161.744 57.2458 160.349 57.0936 158.878 56.7892C157.406 56.5356 155.986 56.1551 154.616 55.6477C153.246 55.0897 152.054 54.4555 151.04 53.7453C150.076 52.9843 149.467 52.1472 149.213 51.234C149.01 50.7267 148.934 50.2448 148.985 49.7882C149.036 49.2809 149.188 48.7735 149.442 48.2662C149.695 47.7082 150.076 47.1501 150.583 46.5921C151.04 46.034 151.496 45.7296 151.953 45.6789C152.46 45.5774 153.094 45.7296 153.855 46.1355C154.515 46.3891 155.225 46.7189 155.986 47.1247C156.798 47.5306 157.609 47.9365 158.421 48.3423C159.284 48.7482 160.146 49.0779 161.008 49.3316C161.922 49.5852 162.809 49.7121 163.672 49.7121C165.549 49.7121 167.046 49.4077 168.162 48.7989C169.278 48.1394 169.836 47.2262 169.836 46.0594C169.836 45.3998 169.658 44.8164 169.303 44.3091C168.948 43.8018 168.466 43.3959 167.857 43.0915C167.299 42.7364 166.614 42.432 165.803 42.1783C165.042 41.874 164.205 41.6203 163.291 41.4174C162.429 41.1637 161.516 40.8847 160.552 40.5803C159.284 40.2252 158.015 39.7939 156.747 39.2866C155.479 38.7793 154.337 38.1198 153.323 37.3081C152.359 36.4963 151.572 35.4817 150.964 34.2641C150.355 33.0466 150.05 31.5246 150.05 29.6982C150.05 27.4153 150.583 25.4875 151.648 23.9148C152.765 22.2913 154.363 21.0484 156.443 20.1859C158.523 19.3235 161.034 18.8923 163.976 18.8923C164.991 18.8923 165.955 18.9684 166.868 19.1206C167.832 19.2728 168.745 19.5011 169.608 19.8055C170.521 20.0591 171.383 20.3889 172.195 20.7947C173.057 21.2006 173.869 21.6572 174.63 22.1645C175.898 22.8748 176.558 23.7118 176.609 24.6757C176.659 25.5889 176.304 26.5782 175.543 27.6436C174.985 28.3538 174.427 28.8612 173.869 29.1655C173.311 29.4192 172.728 29.4192 172.119 29.1655C171.307 28.7597 170.419 28.3285 169.455 27.8719C168.542 27.3645 167.578 26.9333 166.564 26.5782C165.6 26.2231 164.585 26.0455 163.52 26.0455C162.505 26.0455 161.592 26.1977 160.78 26.5021C159.968 26.8065 159.36 27.2377 158.954 27.7958C158.548 28.3538 158.345 29.0133 158.345 29.7743C158.345 30.4846 158.548 31.068 158.954 31.5246C159.36 31.9812 159.892 32.3617 160.552 32.6661C161.211 32.9705 161.998 33.2495 162.911 33.5031C163.824 33.7061 164.788 33.909 165.803 34.1119C167.223 34.4163 168.669 34.7968 170.14 35.2534C171.612 35.71 172.956 36.3441 174.173 37.1559C175.442 37.9676 176.456 39.0583 177.217 40.4281C177.978 41.7471 178.359 43.472 178.359 45.6028C178.359 49.3062 176.989 52.1726 174.25 54.2019C171.561 56.2312 167.832 57.2458 163.063 57.2458Z" fill="#27235C" stroke="#27235C" stroke-width="0.4"/>
<path d="M127.14 57.2447C123.842 57.2447 120.951 56.712 118.465 55.6466C116.03 54.5813 113.975 53.1354 112.301 51.309C110.677 49.4319 109.435 47.3519 108.572 45.069C107.76 42.7353 107.354 40.3255 107.354 37.8396C107.354 34.1869 108.192 30.9401 109.866 28.099C111.54 25.258 113.848 23.0258 116.791 21.4024C119.784 19.779 123.208 18.9673 127.064 18.9673C129.804 18.9673 132.213 19.3985 134.293 20.2609C136.373 21.1234 138.098 22.2648 139.468 23.6853C140.888 25.0551 141.954 26.5771 142.664 28.2512C143.425 29.9254 143.806 31.5488 143.806 33.1215C143.806 35.8103 143.146 37.7635 141.827 38.9811C140.559 40.1987 138.961 40.8075 137.033 40.8075H116.943C116.994 42.5324 117.526 44.029 118.541 45.2973C119.606 46.5656 120.925 47.5548 122.498 48.2651C124.121 48.9246 125.77 49.2544 127.444 49.2544C128.713 49.2544 129.829 49.1783 130.793 49.0261C131.807 48.8739 132.67 48.6963 133.38 48.4934C134.09 48.2397 134.699 47.9861 135.206 47.7324C135.765 47.4787 136.272 47.2504 136.728 47.0475C137.185 46.8446 137.616 46.7178 138.022 46.667C138.58 46.6163 139.138 46.7431 139.696 47.0475C140.254 47.3519 140.711 47.8846 141.066 48.6456C141.37 49.1529 141.573 49.6349 141.675 50.0915C141.827 50.4973 141.903 50.9032 141.903 51.309C141.903 52.3237 141.294 53.2876 140.077 54.2008C138.859 55.0632 137.134 55.7735 134.902 56.3315C132.721 56.9403 130.133 57.2447 127.14 57.2447ZM116.943 35.4045H132.543C133.405 35.4045 134.065 35.2777 134.522 35.024C134.978 34.7196 135.206 34.1108 135.206 33.1976C135.206 32.0308 134.851 30.9908 134.141 30.0776C133.431 29.1137 132.467 28.3781 131.249 27.8708C130.032 27.3127 128.611 27.0337 126.988 27.0337C125.111 27.0337 123.411 27.4142 121.889 28.1751C120.367 28.8854 119.15 29.8747 118.237 31.143C117.374 32.4113 116.943 33.8318 116.943 35.4045Z" fill="#27235C" stroke="#27235C" stroke-width="0.4"/>
<path d="M99.9716 56.7908C98.0945 56.7908 96.4203 56.6639 94.9491 56.4103C93.5286 56.1566 92.2856 55.7254 91.2203 55.1166C90.2056 54.5078 89.3685 53.6961 88.709 52.6815C88.0495 51.6161 87.5422 50.3224 87.1871 48.8004C86.8827 47.2785 86.7305 45.4521 86.7305 43.3214V6.64199C86.7305 5.77955 86.8066 5.01857 86.9588 4.35905C87.1617 3.6488 87.5675 3.09074 88.1763 2.68488C88.8359 2.22829 89.8759 2 91.2964 2C92.7169 2 93.7315 2.20293 94.3403 2.60879C94.9998 3.01464 95.4057 3.5727 95.5579 4.28295C95.7608 4.94246 95.8623 5.70345 95.8623 6.56589V42.9409C95.8623 43.9048 95.913 44.7165 96.0145 45.376C96.1667 45.9848 96.395 46.4921 96.6993 46.898C97.0545 47.2531 97.4857 47.5068 97.993 47.659C98.5511 47.8112 99.2106 47.8873 99.9716 47.8873C100.631 47.8873 101.215 47.9634 101.722 48.1156C102.28 48.2678 102.711 48.6482 103.015 49.257C103.371 49.8658 103.548 50.8551 103.548 52.2249C103.548 53.6454 103.371 54.6854 103.015 55.3449C102.711 56.0044 102.28 56.4103 101.722 56.5625C101.164 56.7147 100.58 56.7908 99.9716 56.7908Z" fill="#27235C" stroke="#27235C" stroke-width="0.4"/>
<path d="M73.9895 56.7897C72.6197 56.7897 71.6051 56.5615 70.9456 56.1049C70.2861 55.699 69.8802 55.1663 69.728 54.5068C69.5758 53.7965 69.4997 53.0102 69.4997 52.1477V23.8392C69.4997 23.0275 69.5758 22.2918 69.728 21.6323C69.9309 20.9221 70.3368 20.364 70.9456 19.9582C71.6051 19.5523 72.6451 19.3494 74.0656 19.3494C75.4861 19.3494 76.5007 19.5523 77.1095 19.9582C77.7691 20.364 78.1749 20.9221 78.3271 21.6323C78.4793 22.3426 78.5554 23.1289 78.5554 23.9914V52.2238C78.5554 53.0863 78.4793 53.8726 78.3271 54.5829C78.1749 55.2424 77.7691 55.7751 77.1095 56.1809C76.5007 56.5868 75.4607 56.7897 73.9895 56.7897ZM73.9895 11.9678C72.5183 11.9678 71.4275 11.7649 70.7173 11.3591C70.0578 10.9025 69.6265 10.2937 69.4236 9.5327C69.2714 8.77172 69.1953 7.93463 69.1953 7.02145C69.1953 6.05754 69.2714 5.22046 69.4236 4.51021C69.6265 3.79996 70.0831 3.24191 70.7934 2.83605C71.5036 2.37946 72.5944 2.15117 74.0656 2.15117C75.5876 2.15117 76.6783 2.37946 77.3378 2.83605C77.9974 3.29264 78.4286 3.90143 78.6315 4.66241C78.8344 5.37266 78.9359 6.20974 78.9359 7.17365C78.9359 8.0361 78.8344 8.84782 78.6315 9.6088C78.4286 10.3698 77.9974 10.9532 77.3378 11.3591C76.6783 11.7649 75.5622 11.9678 73.9895 11.9678Z" fill="#27235C" stroke="#27235C" stroke-width="0.4"/>
<path d="M11.4898 56.7129C10.1708 56.7129 9.18149 56.51 8.52197 56.1041C7.86245 55.6983 7.43122 55.1402 7.2283 54.43C7.0761 53.7197 7 52.9334 7 52.0709V8.16224C7 7.35052 7.0761 6.61491 7.2283 5.95539C7.43122 5.24514 7.86245 4.68708 8.52197 4.28123C9.18149 3.82464 10.2215 3.59634 11.642 3.59634C12.7074 3.59634 13.4937 3.67244 14.001 3.82464C14.5591 3.9261 14.9903 4.10366 15.2947 4.35732C15.5991 4.56025 15.9035 4.83928 16.2079 5.1944L34.7759 31.1439H33.0256L51.6697 5.11831C52.0248 4.71245 52.38 4.40806 52.7351 4.20513C53.0902 4.0022 53.5468 3.85 54.1049 3.74854C54.6629 3.64708 55.3985 3.59634 56.3117 3.59634C57.6815 3.59634 58.6961 3.82464 59.3556 4.28123C60.0152 4.68708 60.421 5.24514 60.5732 5.95539C60.7762 6.66564 60.8776 7.45199 60.8776 8.31444V52.2231C60.8776 52.9841 60.7762 53.7197 60.5732 54.43C60.421 55.1402 60.0152 55.6983 59.3556 56.1041C58.6961 56.51 57.6561 56.7129 56.2356 56.7129C54.8658 56.7129 53.8512 56.4846 53.1917 56.028C52.5322 55.6222 52.1009 55.0641 51.898 54.3539C51.7458 53.6436 51.6697 52.8827 51.6697 52.0709V19.4248L37.8198 39.4386C37.6676 39.6416 37.4393 39.9206 37.1349 40.2757C36.8305 40.5801 36.4247 40.8591 35.9174 41.1128C35.41 41.3665 34.7252 41.4933 33.8627 41.4933C33.051 41.4933 32.3915 41.3665 31.8842 41.1128C31.3768 40.8591 30.971 40.5801 30.6666 40.2757C30.4129 39.9713 30.1593 39.6669 29.9056 39.3625L16.1318 19.4248V52.2231C16.1318 52.9841 16.0303 53.7197 15.8274 54.43C15.6752 55.1402 15.2694 55.6983 14.6098 56.1041C13.9503 56.51 12.9103 56.7129 11.4898 56.7129Z" fill="#27235C" stroke="#27235C" stroke-width="0.4"/>
</svg>
