<svg width="400" height="400" viewBox="0 0 400 400" fill="none" xmlns="http://www.w3.org/2000/svg">
<path d="M182.115 258.314C182.115 256.745 183.387 255.473 184.956 255.473H380.971C382.54 255.473 383.812 256.745 383.812 258.314V258.314C383.812 259.883 382.54 261.155 380.971 261.155H184.956C183.387 261.155 182.115 259.883 182.115 258.314V258.314Z" fill="#FFBB00"/>
<path d="M22.3808 237.365V230.488C21.2405 228.724 20.1664 226.984 19.1583 225.269C18.1502 223.554 17.2 221.872 16.3076 220.223H19.1335C19.7615 221.575 20.4638 222.952 21.2405 224.354C22.0172 225.739 22.8187 227.075 23.645 228.361C24.4548 227.075 25.248 225.739 26.0247 224.354C26.8014 222.952 27.512 221.575 28.1565 220.223H30.8337C29.9413 221.872 28.9911 223.554 27.983 225.269C26.9749 226.968 25.909 228.691 24.7853 230.439V237.365H22.3808Z" fill="#27235C"/>
<path d="M43.1245 230.934C43.1245 231.956 42.9758 232.88 42.6783 233.704C42.3809 234.529 41.9594 235.238 41.4141 235.832C40.8853 236.425 40.249 236.887 39.5054 237.217C38.7617 237.53 37.952 237.687 37.0761 237.687C36.2003 237.687 35.3905 237.53 34.6468 237.217C33.9032 236.887 33.2587 236.425 32.7133 235.832C32.1845 235.238 31.7714 234.529 31.4739 233.704C31.1765 232.88 31.0277 231.956 31.0277 230.934C31.0277 229.928 31.1765 229.012 31.4739 228.188C31.7714 227.347 32.1845 226.63 32.7133 226.036C33.2587 225.442 33.9032 224.989 34.6468 224.675C35.3905 224.345 36.2003 224.181 37.0761 224.181C37.952 224.181 38.7617 224.345 39.5054 224.675C40.249 224.989 40.8853 225.442 41.4141 226.036C41.9594 226.63 42.3809 227.347 42.6783 228.188C42.9758 229.012 43.1245 229.928 43.1245 230.934ZM40.72 230.934C40.72 229.482 40.3895 228.336 39.7285 227.495C39.084 226.638 38.1999 226.209 37.0761 226.209C35.9524 226.209 35.06 226.638 34.399 227.495C33.7545 228.336 33.4322 229.482 33.4322 230.934C33.4322 232.385 33.7545 233.539 34.399 234.397C35.06 235.238 35.9524 235.658 37.0761 235.658C38.1999 235.658 39.084 235.238 39.7285 234.397C40.3895 233.539 40.72 232.385 40.72 230.934Z" fill="#27235C"/>
<path d="M56.6304 236.994C56.1015 237.126 55.3992 237.266 54.5233 237.415C53.664 237.563 52.6642 237.637 51.5239 237.637C50.5324 237.637 49.6978 237.497 49.0203 237.217C48.3427 236.92 47.7974 236.508 47.3843 235.98C46.9711 235.452 46.6737 234.834 46.4919 234.125C46.3101 233.399 46.2192 232.599 46.2192 231.725V224.502H48.5245V231.231C48.5245 232.797 48.7724 233.919 49.2682 234.595C49.764 235.271 50.5985 235.609 51.7718 235.609C52.0197 235.609 52.2759 235.601 52.5403 235.584C52.8047 235.568 53.0526 235.551 53.2839 235.535C53.5153 235.502 53.7218 235.477 53.9036 235.461C54.1019 235.428 54.2424 235.395 54.325 235.362V224.502H56.6304V236.994Z" fill="#27235C"/>
<path d="M65.3613 224.23C65.5596 224.23 65.7827 224.247 66.0306 224.28C66.295 224.296 66.5512 224.329 66.7991 224.378C67.047 224.411 67.2701 224.453 67.4684 224.502C67.6832 224.535 67.8402 224.568 67.9393 224.601L67.5427 226.605C67.3609 226.539 67.0552 226.465 66.6255 226.382C66.2124 226.283 65.6753 226.234 65.0143 226.234C64.5846 226.234 64.155 226.283 63.7253 226.382C63.3122 226.465 63.0395 226.522 62.9073 226.555V237.365H60.6019V225.046C61.1473 224.848 61.8248 224.667 62.6346 224.502C63.4444 224.321 64.3533 224.23 65.3613 224.23Z" fill="#27235C"/>
<path d="M86.8576 220.223H89.2621V237.365H86.8576V229.45H78.4543V237.365H76.0498V220.223H78.4543V227.372H86.8576V220.223Z" fill="#27235C"/>
<path d="M104.757 230.934C104.757 231.956 104.608 232.88 104.311 233.704C104.013 234.529 103.592 235.238 103.046 235.832C102.518 236.425 101.881 236.887 101.138 237.217C100.394 237.53 99.5843 237.687 98.7084 237.687C97.8326 237.687 97.0228 237.53 96.2792 237.217C95.5355 236.887 94.891 236.425 94.3457 235.832C93.8169 235.238 93.4037 234.529 93.1062 233.704C92.8088 232.88 92.6601 231.956 92.6601 230.934C92.6601 229.928 92.8088 229.012 93.1062 228.188C93.4037 227.347 93.8169 226.63 94.3457 226.036C94.891 225.442 95.5355 224.989 96.2792 224.675C97.0228 224.345 97.8326 224.181 98.7084 224.181C99.5843 224.181 100.394 224.345 101.138 224.675C101.881 224.989 102.518 225.442 103.046 226.036C103.592 226.63 104.013 227.347 104.311 228.188C104.608 229.012 104.757 229.928 104.757 230.934ZM102.352 230.934C102.352 229.482 102.022 228.336 101.361 227.495C100.716 226.638 99.8322 226.209 98.7084 226.209C97.5847 226.209 96.6923 226.638 96.0313 227.495C95.3868 228.336 95.0645 229.482 95.0645 230.934C95.0645 232.385 95.3868 233.539 96.0313 234.397C96.6923 235.238 97.5847 235.658 98.7084 235.658C99.8322 235.658 100.716 235.238 101.361 234.397C102.022 233.539 102.352 232.385 102.352 230.934Z" fill="#27235C"/>
<path d="M111 235.708C111.942 235.708 112.636 235.584 113.082 235.337C113.545 235.089 113.776 234.694 113.776 234.149C113.776 233.589 113.553 233.144 113.107 232.814C112.66 232.484 111.925 232.113 110.901 231.701C110.405 231.503 109.925 231.305 109.463 231.107C109.017 230.892 108.628 230.645 108.298 230.365C107.967 230.084 107.703 229.746 107.504 229.351C107.306 228.955 107.207 228.468 107.207 227.891C107.207 226.753 107.628 225.854 108.471 225.195C109.314 224.519 110.463 224.181 111.917 224.181C112.28 224.181 112.644 224.205 113.008 224.255C113.371 224.288 113.71 224.337 114.024 224.403C114.338 224.453 114.611 224.51 114.842 224.576C115.09 224.642 115.28 224.7 115.412 224.75L114.991 226.728C114.743 226.597 114.354 226.465 113.826 226.333C113.297 226.184 112.66 226.11 111.917 226.11C111.272 226.11 110.71 226.242 110.231 226.506C109.752 226.753 109.512 227.149 109.512 227.693C109.512 227.974 109.562 228.221 109.661 228.435C109.777 228.65 109.942 228.848 110.157 229.029C110.388 229.194 110.669 229.351 111 229.499C111.33 229.647 111.727 229.804 112.19 229.969C112.801 230.2 113.346 230.431 113.826 230.662C114.305 230.876 114.71 231.132 115.04 231.428C115.387 231.725 115.652 232.088 115.833 232.517C116.015 232.929 116.106 233.44 116.106 234.051C116.106 235.238 115.66 236.137 114.768 236.747C113.892 237.357 112.636 237.662 111 237.662C109.859 237.662 108.967 237.563 108.323 237.365C107.678 237.184 107.24 237.044 107.009 236.945L107.43 234.966C107.695 235.065 108.116 235.213 108.694 235.411C109.273 235.609 110.041 235.708 111 235.708Z" fill="#27235C"/>
<path d="M121.22 224.502H126.103V226.432H121.22V232.368C121.22 233.012 121.269 233.548 121.368 233.976C121.468 234.389 121.616 234.718 121.815 234.966C122.013 235.197 122.261 235.362 122.558 235.461C122.856 235.559 123.203 235.609 123.599 235.609C124.293 235.609 124.847 235.535 125.26 235.386C125.69 235.221 125.987 235.106 126.153 235.04L126.599 236.945C126.367 237.06 125.963 237.2 125.384 237.365C124.806 237.547 124.145 237.637 123.401 237.637C122.525 237.637 121.798 237.53 121.22 237.316C120.658 237.085 120.203 236.747 119.856 236.302C119.509 235.856 119.261 235.312 119.113 234.669C118.98 234.009 118.914 233.251 118.914 232.393V220.915L121.22 220.52V224.502Z" fill="#27235C"/>
<path d="M131.342 237.365H129.037V224.502H131.342V237.365ZM130.177 222.177C129.764 222.177 129.408 222.045 129.111 221.781C128.83 221.501 128.69 221.13 128.69 220.668C128.69 220.206 128.83 219.843 129.111 219.58C129.408 219.299 129.764 219.159 130.177 219.159C130.59 219.159 130.937 219.299 131.218 219.58C131.515 219.843 131.664 220.206 131.664 220.668C131.664 221.13 131.515 221.501 131.218 221.781C130.937 222.045 130.59 222.177 130.177 222.177Z" fill="#27235C"/>
<path d="M135.306 224.873C135.835 224.741 136.538 224.601 137.413 224.453C138.289 224.304 139.297 224.23 140.438 224.23C141.462 224.23 142.313 224.378 142.991 224.675C143.668 224.956 144.205 225.36 144.602 225.887C145.015 226.399 145.304 227.017 145.47 227.743C145.635 228.468 145.718 229.268 145.718 230.142V237.365H143.412V230.637C143.412 229.845 143.354 229.169 143.239 228.608C143.139 228.048 142.966 227.594 142.718 227.248C142.47 226.902 142.14 226.654 141.727 226.506C141.313 226.341 140.801 226.258 140.19 226.258C139.942 226.258 139.686 226.267 139.421 226.283C139.157 226.3 138.901 226.324 138.653 226.357C138.421 226.374 138.207 226.399 138.008 226.432C137.826 226.465 137.694 226.489 137.612 226.506V237.365H135.306V224.873Z" fill="#27235C"/>
<path d="M157.621 236.079C157.423 236.211 157.035 236.384 156.456 236.598C155.894 236.796 155.233 236.895 154.473 236.895C153.697 236.895 152.961 236.772 152.267 236.524C151.59 236.277 150.995 235.898 150.482 235.386C149.97 234.859 149.565 234.207 149.268 233.432C148.97 232.657 148.821 231.734 148.821 230.662C148.821 229.722 148.962 228.864 149.243 228.089C149.524 227.297 149.929 226.621 150.458 226.061C151.003 225.483 151.664 225.038 152.441 224.725C153.217 224.395 154.093 224.23 155.068 224.23C156.142 224.23 157.076 224.313 157.869 224.477C158.679 224.626 159.357 224.766 159.902 224.898V236.376C159.902 238.355 159.39 239.789 158.365 240.68C157.34 241.571 155.787 242.016 153.705 242.016C152.895 242.016 152.127 241.95 151.399 241.818C150.689 241.686 150.069 241.529 149.54 241.348L149.962 239.344C150.424 239.526 150.986 239.682 151.647 239.814C152.325 239.963 153.027 240.037 153.754 240.037C155.126 240.037 156.109 239.765 156.704 239.221C157.316 238.676 157.621 237.811 157.621 236.623V236.079ZM157.597 226.531C157.365 226.465 157.051 226.407 156.655 226.357C156.275 226.291 155.754 226.258 155.093 226.258C153.854 226.258 152.895 226.662 152.218 227.471C151.556 228.279 151.226 229.351 151.226 230.686C151.226 231.428 151.317 232.063 151.499 232.591C151.697 233.119 151.953 233.556 152.267 233.902C152.598 234.248 152.969 234.504 153.383 234.669C153.812 234.834 154.25 234.916 154.696 234.916C155.308 234.916 155.87 234.834 156.382 234.669C156.894 234.488 157.299 234.281 157.597 234.051V226.531Z" fill="#27235C"/>
<path d="M166.3 234.545C166.317 234.677 166.325 234.809 166.325 234.941C166.325 235.057 166.325 235.18 166.325 235.312C166.325 236.351 166.168 237.374 165.854 238.379C165.557 239.402 165.144 240.375 164.615 241.298L162.83 240.729C163.243 239.888 163.516 239.031 163.648 238.157C163.78 237.299 163.846 236.491 163.846 235.733C163.846 235.518 163.838 235.312 163.822 235.114C163.822 234.916 163.813 234.727 163.797 234.545H166.3Z" fill="#27235C"/>
<path d="M175.163 228.782C175.163 227.314 175.378 226.019 175.808 224.898C176.254 223.777 176.849 222.845 177.593 222.103C178.353 221.344 179.229 220.775 180.22 220.396C181.228 220.017 182.294 219.827 183.418 219.827C184.525 219.827 185.566 220.017 186.541 220.396C187.533 220.775 188.4 221.344 189.144 222.103C189.888 222.845 190.474 223.777 190.904 224.898C191.35 226.019 191.573 227.314 191.573 228.782C191.573 230.249 191.35 231.544 190.904 232.665C190.474 233.787 189.888 234.727 189.144 235.485C188.4 236.227 187.533 236.788 186.541 237.167C185.566 237.547 184.525 237.736 183.418 237.736C182.294 237.736 181.228 237.547 180.22 237.167C179.229 236.788 178.353 236.227 177.593 235.485C176.849 234.727 176.254 233.787 175.808 232.665C175.378 231.544 175.163 230.249 175.163 228.782ZM177.692 228.782C177.692 229.821 177.824 230.769 178.088 231.626C178.353 232.467 178.725 233.185 179.204 233.778C179.7 234.372 180.295 234.834 180.989 235.164C181.699 235.477 182.492 235.634 183.368 235.634C184.244 235.634 185.029 235.477 185.723 235.164C186.417 234.834 187.004 234.372 187.483 233.778C187.979 233.185 188.359 232.467 188.623 231.626C188.888 230.769 189.02 229.821 189.02 228.782C189.02 227.743 188.888 226.803 188.623 225.962C188.359 225.104 187.979 224.378 187.483 223.785C187.004 223.191 186.417 222.738 185.723 222.424C185.029 222.094 184.244 221.93 183.368 221.93C182.492 221.93 181.699 222.094 180.989 222.424C180.295 222.738 179.7 223.191 179.204 223.785C178.725 224.378 178.353 225.104 178.088 225.962C177.824 226.803 177.692 227.743 177.692 228.782Z" fill="#27235C"/>
<path d="M205.265 236.994C204.736 237.126 204.033 237.266 203.157 237.415C202.298 237.563 201.298 237.637 200.158 237.637C199.167 237.637 198.332 237.497 197.654 237.217C196.977 236.92 196.432 236.508 196.018 235.98C195.605 235.452 195.308 234.834 195.126 234.125C194.944 233.399 194.853 232.599 194.853 231.725V224.502H197.159V231.231C197.159 232.797 197.407 233.919 197.902 234.595C198.398 235.271 199.233 235.609 200.406 235.609C200.654 235.609 200.91 235.601 201.174 235.584C201.439 235.568 201.687 235.551 201.918 235.535C202.149 235.502 202.356 235.477 202.538 235.461C202.736 235.428 202.877 235.395 202.959 235.362V224.502H205.265V236.994Z" fill="#27235C"/>
<path d="M213.995 224.23C214.194 224.23 214.417 224.247 214.665 224.28C214.929 224.296 215.185 224.329 215.433 224.378C215.681 224.411 215.904 224.453 216.103 224.502C216.317 224.535 216.474 224.568 216.573 224.601L216.177 226.605C215.995 226.539 215.689 226.465 215.26 226.382C214.847 226.283 214.309 226.234 213.648 226.234C213.219 226.234 212.789 226.283 212.359 226.382C211.946 226.465 211.674 226.522 211.541 226.555V237.365H209.236V225.046C209.781 224.848 210.459 224.667 211.269 224.502C212.078 224.321 212.987 224.23 213.995 224.23Z" fill="#27235C"/>
<path d="M233.087 230.192C233.352 230.521 233.682 230.958 234.079 231.503C234.492 232.03 234.913 232.624 235.343 233.284C235.773 233.927 236.194 234.603 236.607 235.312C237.037 236.021 237.4 236.706 237.698 237.365H235.07C234.74 236.739 234.376 236.104 233.98 235.461C233.6 234.817 233.211 234.207 232.815 233.63C232.418 233.036 232.021 232.484 231.625 231.973C231.245 231.461 230.898 231.016 230.584 230.637C230.369 230.653 230.146 230.662 229.914 230.662C229.7 230.662 229.476 230.662 229.245 230.662H227.088V237.365H224.684V220.47C225.362 220.305 226.113 220.198 226.94 220.148C227.783 220.083 228.551 220.05 229.245 220.05C231.658 220.05 233.492 220.503 234.748 221.41C236.021 222.317 236.657 223.669 236.657 225.467C236.657 226.605 236.351 227.578 235.74 228.386C235.145 229.194 234.261 229.796 233.087 230.192ZM229.443 222.152C228.419 222.152 227.634 222.177 227.088 222.226V228.683H228.799C229.625 228.683 230.369 228.641 231.03 228.559C231.691 228.477 232.244 228.32 232.691 228.089C233.153 227.858 233.509 227.537 233.757 227.124C234.004 226.695 234.128 226.135 234.128 225.442C234.128 224.799 234.004 224.263 233.757 223.834C233.509 223.405 233.17 223.067 232.74 222.82C232.327 222.573 231.831 222.4 231.253 222.301C230.691 222.202 230.088 222.152 229.443 222.152Z" fill="#27235C"/>
<path d="M239.406 230.958C239.406 229.821 239.571 228.831 239.902 227.99C240.232 227.132 240.67 226.423 241.216 225.863C241.761 225.302 242.389 224.881 243.099 224.601C243.81 224.321 244.537 224.181 245.281 224.181C247.016 224.181 248.346 224.725 249.272 225.813C250.197 226.885 250.66 228.526 250.66 230.736C250.66 230.835 250.66 230.967 250.66 231.132C250.66 231.28 250.652 231.42 250.635 231.552H241.811C241.91 232.888 242.298 233.902 242.976 234.595C243.653 235.287 244.711 235.634 246.148 235.634C246.958 235.634 247.636 235.568 248.181 235.436C248.743 235.287 249.164 235.147 249.445 235.015L249.768 236.945C249.487 237.093 248.991 237.25 248.28 237.415C247.586 237.58 246.793 237.662 245.901 237.662C244.777 237.662 243.802 237.497 242.976 237.167C242.166 236.821 241.496 236.351 240.968 235.757C240.439 235.164 240.042 234.463 239.778 233.655C239.53 232.83 239.406 231.931 239.406 230.958ZM248.256 229.697C248.272 228.658 248.008 227.809 247.462 227.149C246.933 226.473 246.198 226.135 245.256 226.135C244.727 226.135 244.256 226.242 243.843 226.456C243.447 226.654 243.108 226.918 242.827 227.248C242.546 227.578 242.323 227.957 242.158 228.386C242.009 228.815 241.91 229.252 241.86 229.697H248.256Z" fill="#27235C"/>
<path d="M256.971 235.708C257.913 235.708 258.607 235.584 259.053 235.337C259.516 235.089 259.747 234.694 259.747 234.149C259.747 233.589 259.524 233.144 259.078 232.814C258.632 232.484 257.896 232.113 256.872 231.701C256.376 231.503 255.897 231.305 255.434 231.107C254.988 230.892 254.6 230.645 254.269 230.365C253.939 230.084 253.674 229.746 253.476 229.351C253.277 228.955 253.178 228.468 253.178 227.891C253.178 226.753 253.6 225.854 254.443 225.195C255.285 224.519 256.434 224.181 257.888 224.181C258.252 224.181 258.615 224.205 258.979 224.255C259.342 224.288 259.681 224.337 259.995 224.403C260.309 224.453 260.582 224.51 260.813 224.576C261.061 224.642 261.251 224.7 261.383 224.75L260.962 226.728C260.714 226.597 260.326 226.465 259.797 226.333C259.268 226.184 258.632 226.11 257.888 226.11C257.244 226.11 256.682 226.242 256.203 226.506C255.723 226.753 255.484 227.149 255.484 227.693C255.484 227.974 255.533 228.221 255.632 228.435C255.748 228.65 255.913 228.848 256.128 229.029C256.36 229.194 256.64 229.351 256.971 229.499C257.302 229.647 257.698 229.804 258.161 229.969C258.772 230.2 259.318 230.431 259.797 230.662C260.276 230.876 260.681 231.132 261.011 231.428C261.359 231.725 261.623 232.088 261.805 232.517C261.987 232.929 262.077 233.44 262.077 234.051C262.077 235.238 261.631 236.137 260.739 236.747C259.863 237.357 258.607 237.662 256.971 237.662C255.831 237.662 254.938 237.563 254.294 237.365C253.649 237.184 253.211 237.044 252.98 236.945L253.401 234.966C253.666 235.065 254.087 235.213 254.666 235.411C255.244 235.609 256.013 235.708 256.971 235.708Z" fill="#27235C"/>
<path d="M273.983 230.958C273.983 229.458 273.611 228.303 272.868 227.495C272.124 226.687 271.132 226.283 269.893 226.283C269.199 226.283 268.654 226.308 268.257 226.357C267.877 226.407 267.571 226.465 267.34 226.531V234.644C267.621 234.875 268.026 235.098 268.554 235.312C269.083 235.527 269.662 235.634 270.29 235.634C270.951 235.634 271.512 235.518 271.975 235.287C272.454 235.04 272.843 234.71 273.14 234.298C273.438 233.869 273.653 233.374 273.785 232.814C273.917 232.237 273.983 231.618 273.983 230.958ZM276.388 230.958C276.388 231.931 276.255 232.83 275.991 233.655C275.743 234.479 275.371 235.188 274.875 235.782C274.38 236.376 273.768 236.838 273.041 237.167C272.33 237.497 271.512 237.662 270.587 237.662C269.843 237.662 269.182 237.563 268.604 237.365C268.042 237.167 267.621 236.978 267.34 236.796V241.942H265.034V224.898C265.58 224.766 266.257 224.626 267.067 224.477C267.893 224.313 268.844 224.23 269.918 224.23C270.909 224.23 271.802 224.387 272.595 224.7C273.388 225.013 274.066 225.459 274.628 226.036C275.189 226.613 275.619 227.322 275.917 228.163C276.231 228.988 276.388 229.92 276.388 230.958Z" fill="#27235C"/>
<path d="M291.009 230.934C291.009 231.956 290.861 232.88 290.563 233.704C290.266 234.529 289.844 235.238 289.299 235.832C288.77 236.425 288.134 236.887 287.39 237.217C286.647 237.53 285.837 237.687 284.961 237.687C284.085 237.687 283.275 237.53 282.532 237.217C281.788 236.887 281.144 236.425 280.598 235.832C280.069 235.238 279.656 234.529 279.359 233.704C279.061 232.88 278.913 231.956 278.913 230.934C278.913 229.928 279.061 229.012 279.359 228.188C279.656 227.347 280.069 226.63 280.598 226.036C281.144 225.442 281.788 224.989 282.532 224.675C283.275 224.345 284.085 224.181 284.961 224.181C285.837 224.181 286.647 224.345 287.39 224.675C288.134 224.989 288.77 225.442 289.299 226.036C289.844 226.63 290.266 227.347 290.563 228.188C290.861 229.012 291.009 229.928 291.009 230.934ZM288.605 230.934C288.605 229.482 288.274 228.336 287.613 227.495C286.969 226.638 286.085 226.209 284.961 226.209C283.837 226.209 282.945 226.638 282.284 227.495C281.639 228.336 281.317 229.482 281.317 230.934C281.317 232.385 281.639 233.539 282.284 234.397C282.945 235.238 283.837 235.658 284.961 235.658C286.085 235.658 286.969 235.238 287.613 234.397C288.274 233.539 288.605 232.385 288.605 230.934Z" fill="#27235C"/>
<path d="M294.253 224.873C294.782 224.741 295.484 224.601 296.36 224.453C297.236 224.304 298.244 224.23 299.384 224.23C300.409 224.23 301.26 224.378 301.937 224.675C302.615 224.956 303.152 225.36 303.549 225.887C303.962 226.399 304.251 227.017 304.416 227.743C304.581 228.468 304.664 229.268 304.664 230.142V237.365H302.359V230.637C302.359 229.845 302.301 229.169 302.185 228.608C302.086 228.048 301.913 227.594 301.665 227.248C301.417 226.902 301.086 226.654 300.673 226.506C300.26 226.341 299.748 226.258 299.136 226.258C298.888 226.258 298.632 226.267 298.368 226.283C298.103 226.3 297.847 226.324 297.599 226.357C297.368 226.374 297.153 226.399 296.955 226.432C296.773 226.465 296.641 226.489 296.558 226.506V237.365H294.253V224.873Z" fill="#27235C"/>
<path d="M311.486 235.708C312.428 235.708 313.122 235.584 313.569 235.337C314.031 235.089 314.263 234.694 314.263 234.149C314.263 233.589 314.04 233.144 313.593 232.814C313.147 232.484 312.412 232.113 311.387 231.701C310.891 231.503 310.412 231.305 309.949 231.107C309.503 230.892 309.115 230.645 308.784 230.365C308.454 230.084 308.189 229.746 307.991 229.351C307.793 228.955 307.694 228.468 307.694 227.891C307.694 226.753 308.115 225.854 308.958 225.195C309.801 224.519 310.949 224.181 312.403 224.181C312.767 224.181 313.131 224.205 313.494 224.255C313.858 224.288 314.197 224.337 314.511 224.403C314.824 224.453 315.097 224.51 315.329 224.576C315.576 224.642 315.766 224.7 315.899 224.75L315.477 226.728C315.229 226.597 314.841 226.465 314.312 226.333C313.783 226.184 313.147 226.11 312.403 226.11C311.759 226.11 311.197 226.242 310.718 226.506C310.239 226.753 309.999 227.149 309.999 227.693C309.999 227.974 310.049 228.221 310.148 228.435C310.263 228.65 310.429 228.848 310.643 229.029C310.875 229.194 311.156 229.351 311.486 229.499C311.817 229.647 312.213 229.804 312.676 229.969C313.288 230.2 313.833 230.431 314.312 230.662C314.791 230.876 315.196 231.132 315.527 231.428C315.874 231.725 316.138 232.088 316.32 232.517C316.502 232.929 316.593 233.44 316.593 234.051C316.593 235.238 316.147 236.137 315.254 236.747C314.378 237.357 313.122 237.662 311.486 237.662C310.346 237.662 309.454 237.563 308.809 237.365C308.165 237.184 307.727 237.044 307.495 236.945L307.917 234.966C308.181 235.065 308.603 235.213 309.181 235.411C309.759 235.609 310.528 235.708 311.486 235.708Z" fill="#27235C"/>
<path d="M321.855 237.365H319.55V224.502H321.855V237.365ZM320.69 222.177C320.277 222.177 319.922 222.045 319.624 221.781C319.343 221.501 319.203 221.13 319.203 220.668C319.203 220.206 319.343 219.843 319.624 219.58C319.922 219.299 320.277 219.159 320.69 219.159C321.103 219.159 321.45 219.299 321.731 219.58C322.029 219.843 322.177 220.206 322.177 220.668C322.177 221.13 322.029 221.501 321.731 221.781C321.45 222.045 321.103 222.177 320.69 222.177Z" fill="#27235C"/>
<path d="M328.125 225.071C328.406 224.89 328.827 224.7 329.389 224.502C329.967 224.304 330.628 224.205 331.372 224.205C332.298 224.205 333.116 224.37 333.826 224.7C334.553 225.03 335.165 225.492 335.661 226.085C336.156 226.679 336.528 227.388 336.776 228.213C337.04 229.037 337.173 229.944 337.173 230.934C337.173 231.973 337.016 232.913 336.702 233.754C336.404 234.578 335.975 235.279 335.413 235.856C334.851 236.434 334.173 236.879 333.38 237.192C332.587 237.505 331.694 237.662 330.703 237.662C329.629 237.662 328.678 237.588 327.852 237.439C327.026 237.291 326.348 237.143 325.819 236.994V218.565L328.125 218.17V225.071ZM328.125 235.362C328.356 235.428 328.678 235.494 329.092 235.559C329.521 235.609 330.05 235.634 330.678 235.634C331.917 235.634 332.909 235.23 333.653 234.422C334.396 233.597 334.768 232.434 334.768 230.934C334.768 230.274 334.702 229.656 334.57 229.078C334.438 228.501 334.223 228.007 333.925 227.594C333.628 227.165 333.239 226.836 332.76 226.605C332.298 226.357 331.736 226.234 331.075 226.234C330.447 226.234 329.868 226.341 329.339 226.555C328.811 226.77 328.406 226.992 328.125 227.223V235.362Z" fill="#27235C"/>
<path d="M342.722 237.365H340.417V224.502H342.722V237.365ZM341.557 222.177C341.144 222.177 340.788 222.045 340.491 221.781C340.21 221.501 340.07 221.13 340.07 220.668C340.07 220.206 340.21 219.843 340.491 219.58C340.788 219.299 341.144 219.159 341.557 219.159C341.97 219.159 342.317 219.299 342.598 219.58C342.895 219.843 343.044 220.206 343.044 220.668C343.044 221.13 342.895 221.501 342.598 221.781C342.317 222.045 341.97 222.177 341.557 222.177Z" fill="#27235C"/>
<path d="M350.553 237.613C349.132 237.58 348.124 237.275 347.529 236.697C346.934 236.12 346.637 235.221 346.637 234.001V218.565L348.942 218.17V233.63C348.942 234.009 348.975 234.323 349.041 234.57C349.107 234.817 349.215 235.015 349.364 235.164C349.512 235.312 349.711 235.428 349.958 235.51C350.206 235.576 350.512 235.634 350.876 235.683L350.553 237.613Z" fill="#27235C"/>
<path d="M355.77 237.365H353.464V224.502H355.77V237.365ZM354.605 222.177C354.192 222.177 353.836 222.045 353.539 221.781C353.258 221.501 353.117 221.13 353.117 220.668C353.117 220.206 353.258 219.843 353.539 219.58C353.836 219.299 354.192 219.159 354.605 219.159C355.018 219.159 355.365 219.299 355.646 219.58C355.943 219.843 356.092 220.206 356.092 220.668C356.092 221.13 355.943 221.501 355.646 221.781C355.365 222.045 355.018 222.177 354.605 222.177Z" fill="#27235C"/>
<path d="M361.891 224.502H366.774V226.432H361.891V232.368C361.891 233.012 361.94 233.548 362.04 233.976C362.139 234.389 362.287 234.718 362.486 234.966C362.684 235.197 362.932 235.362 363.229 235.461C363.527 235.559 363.874 235.609 364.27 235.609C364.965 235.609 365.518 235.535 365.931 235.386C366.361 235.221 366.658 235.106 366.824 235.04L367.27 236.945C367.039 237.06 366.634 237.2 366.055 237.365C365.477 237.547 364.816 237.637 364.072 237.637C363.196 237.637 362.469 237.53 361.891 237.316C361.329 237.085 360.874 236.747 360.527 236.302C360.18 235.856 359.933 235.312 359.784 234.669C359.652 234.009 359.585 233.251 359.585 232.393V220.915L361.891 220.52V224.502Z" fill="#27235C"/>
<path d="M368.196 239.765C368.377 239.847 368.609 239.921 368.89 239.987C369.187 240.07 369.476 240.111 369.757 240.111C370.666 240.111 371.377 239.905 371.889 239.493C372.401 239.097 372.864 238.445 373.277 237.538C372.236 235.559 371.261 233.465 370.352 231.255C369.46 229.029 368.716 226.778 368.121 224.502H370.6C370.782 225.244 370.997 226.044 371.245 226.902C371.509 227.759 371.798 228.641 372.112 229.548C372.426 230.455 372.765 231.362 373.129 232.269C373.492 233.177 373.872 234.051 374.269 234.892C374.897 233.16 375.442 231.445 375.905 229.746C376.368 228.048 376.805 226.3 377.219 224.502H379.598C379.003 226.926 378.342 229.26 377.615 231.503C376.888 233.729 376.103 235.815 375.26 237.761C374.93 238.503 374.583 239.138 374.219 239.666C373.872 240.21 373.484 240.655 373.054 241.002C372.624 241.348 372.137 241.604 371.592 241.768C371.063 241.933 370.46 242.016 369.782 242.016C369.6 242.016 369.41 241.999 369.212 241.966C369.014 241.95 368.815 241.917 368.617 241.867C368.435 241.834 368.262 241.793 368.096 241.744C367.948 241.694 367.84 241.653 367.774 241.62L368.196 239.765Z" fill="#27235C"/>
<path d="M384.08 236.029C384.08 236.475 383.931 236.862 383.634 237.192C383.337 237.522 382.932 237.687 382.419 237.687C381.907 237.687 381.502 237.522 381.205 237.192C380.907 236.862 380.759 236.475 380.759 236.029C380.759 235.584 380.907 235.197 381.205 234.867C381.502 234.537 381.907 234.372 382.419 234.372C382.932 234.372 383.337 234.537 383.634 234.867C383.931 235.197 384.08 235.584 384.08 236.029Z" fill="#27235C"/>
<path d="M364.072 201.376C361.238 201.376 358.693 200.826 356.437 199.727C354.239 198.571 352.359 197.009 350.798 195.042C349.294 193.076 348.137 190.82 347.327 188.275C346.576 185.672 346.2 182.896 346.2 179.946C346.257 176.997 346.691 174.249 347.501 171.704C348.311 169.102 349.467 166.846 350.971 164.937C352.533 162.971 354.413 161.438 356.611 160.339C358.808 159.24 361.296 158.691 364.072 158.691C366.732 158.691 369.219 159.24 371.533 160.339C373.904 161.438 375.987 162.971 377.78 164.937C379.63 166.846 381.076 169.102 382.117 171.704C383.159 174.249 383.679 176.968 383.679 179.86C383.679 182.867 383.159 185.701 382.117 188.362C381.076 190.965 379.659 193.249 377.866 195.216C376.073 197.125 373.991 198.628 371.62 199.727C369.248 200.826 366.732 201.376 364.072 201.376ZM362.684 191.225C364.708 191.225 366.53 190.762 368.149 189.837C369.769 188.854 371.041 187.523 371.967 185.846C372.95 184.169 373.442 182.26 373.442 180.12C373.442 177.922 372.95 175.984 371.967 174.307C371.041 172.572 369.769 171.242 368.149 170.316C366.53 169.333 364.708 168.841 362.684 168.841C360.717 168.841 358.924 169.333 357.305 170.316C355.685 171.299 354.384 172.63 353.401 174.307C352.475 175.984 352.012 177.922 352.012 180.12C352.012 182.26 352.475 184.169 353.401 185.846C354.384 187.523 355.685 188.854 357.305 189.837C358.924 190.762 360.717 191.225 362.684 191.225ZM346.633 201.463C345.072 201.463 343.915 201.202 343.163 200.682C342.411 200.219 341.948 199.612 341.775 198.86C341.601 198.05 341.515 197.154 341.515 196.17V144.462C341.515 143.479 341.601 142.611 341.775 141.859C341.948 141.05 342.411 140.413 343.163 139.951C343.915 139.488 345.072 139.257 346.633 139.257C348.253 139.257 349.41 139.488 350.104 139.951C350.798 140.413 351.232 141.05 351.405 141.859C351.579 142.669 351.665 143.537 351.665 144.462V197.905C351.434 199.178 350.942 200.074 350.19 200.595C349.496 201.173 348.311 201.463 346.633 201.463Z" fill="#27235C" stroke="#27235C" stroke-width="0.2"/>
<path d="M315.654 201.984C311.894 201.984 308.597 201.377 305.763 200.162C302.987 198.948 300.645 197.299 298.736 195.217C296.885 193.077 295.468 190.706 294.485 188.103C293.559 185.442 293.097 182.695 293.097 179.861C293.097 175.696 294.051 171.995 295.96 168.756C297.868 165.517 300.5 162.972 303.855 161.121C307.267 159.27 311.171 158.345 315.567 158.345C318.69 158.345 321.438 158.836 323.809 159.82C326.18 160.803 328.147 162.104 329.709 163.724C331.328 165.285 332.543 167.021 333.352 168.929C334.22 170.838 334.654 172.689 334.654 174.482C334.654 177.547 333.902 179.774 332.398 181.162C330.952 182.55 329.13 183.244 326.932 183.244H304.028C304.086 185.211 304.693 186.917 305.85 188.363C307.065 189.809 308.569 190.937 310.362 191.747C312.212 192.499 314.092 192.875 316.001 192.875C317.447 192.875 318.719 192.788 319.818 192.614C320.975 192.441 321.958 192.238 322.768 192.007C323.578 191.718 324.272 191.429 324.85 191.139C325.486 190.85 326.065 190.59 326.585 190.359C327.106 190.127 327.598 189.983 328.06 189.925C328.696 189.867 329.333 190.012 329.969 190.359C330.605 190.706 331.126 191.313 331.531 192.181C331.878 192.759 332.109 193.308 332.225 193.829C332.398 194.292 332.485 194.754 332.485 195.217C332.485 196.374 331.791 197.473 330.403 198.514C329.015 199.497 327.048 200.307 324.503 200.943C322.016 201.637 319.066 201.984 315.654 201.984ZM304.028 177.085H321.814C322.797 177.085 323.549 176.94 324.069 176.651C324.59 176.304 324.85 175.61 324.85 174.569C324.85 173.238 324.445 172.053 323.636 171.011C322.826 169.913 321.727 169.074 320.339 168.495C318.951 167.859 317.331 167.541 315.48 167.541C313.34 167.541 311.403 167.975 309.667 168.843C307.932 169.652 306.544 170.78 305.503 172.226C304.52 173.672 304.028 175.292 304.028 177.085Z" fill="#27235C" stroke="#27235C" stroke-width="0.2"/>
<path d="M238.039 201.205C236.882 201.205 235.957 201.003 235.263 200.598C234.569 200.135 234.048 199.615 233.701 199.036C233.412 198.458 233.21 197.966 233.094 197.562L216.089 147.762C215.511 145.911 215.424 144.523 215.829 143.598C216.234 142.614 217.42 141.805 219.386 141.169C220.717 140.706 221.787 140.503 222.596 140.561C223.406 140.619 224.071 140.966 224.592 141.602C225.17 142.181 225.662 143.106 226.067 144.379L238.56 182.205L249.752 144.726C249.925 144.147 250.156 143.569 250.446 142.99C250.793 142.354 251.313 141.834 252.007 141.429C252.701 141.024 253.656 140.821 254.87 140.821C256.258 140.821 257.3 141.053 257.994 141.516C258.688 141.978 259.179 142.499 259.469 143.077C259.816 143.598 260.047 144.089 260.163 144.552L271.354 182.466L283.934 144.465C284.339 143.135 284.802 142.152 285.322 141.516C285.901 140.879 286.624 140.532 287.491 140.474C288.359 140.359 289.429 140.532 290.701 140.995C292.032 141.458 292.986 141.978 293.565 142.557C294.143 143.077 294.432 143.771 294.432 144.639C294.432 145.449 294.23 146.49 293.825 147.762L276.907 197.648C276.791 197.995 276.56 198.458 276.213 199.036C275.924 199.615 275.432 200.135 274.738 200.598C274.044 201.003 273.09 201.205 271.875 201.205C270.66 201.205 269.706 200.945 269.012 200.425C268.318 199.904 267.797 199.326 267.45 198.689C267.103 198.053 266.872 197.591 266.756 197.301L254.957 159.128L243.158 197.215C243.042 197.619 242.811 198.14 242.464 198.776C242.175 199.412 241.683 199.991 240.989 200.511C240.295 200.974 239.312 201.205 238.039 201.205Z" fill="#27235C" stroke="#27235C" stroke-width="0.2"/>
<path d="M192.924 201.985C191.42 201.985 189.83 201.812 188.152 201.464C186.475 201.175 184.856 200.741 183.294 200.163C181.732 199.527 180.373 198.804 179.216 197.994C178.117 197.127 177.423 196.172 177.134 195.131C176.903 194.553 176.816 194.003 176.874 193.483C176.932 192.904 177.105 192.326 177.394 191.748C177.684 191.111 178.117 190.475 178.696 189.839C179.216 189.203 179.737 188.856 180.257 188.798C180.836 188.682 181.559 188.856 182.426 189.318C183.178 189.607 183.988 189.983 184.856 190.446C185.781 190.909 186.706 191.372 187.632 191.834C188.615 192.297 189.598 192.673 190.582 192.962C191.623 193.251 192.635 193.396 193.618 193.396C195.758 193.396 197.464 193.049 198.737 192.355C200.009 191.603 200.646 190.562 200.646 189.232C200.646 188.48 200.443 187.814 200.038 187.236C199.633 186.658 199.084 186.195 198.39 185.848C197.754 185.443 196.973 185.096 196.047 184.807C195.18 184.46 194.225 184.171 193.184 183.939C192.201 183.65 191.16 183.332 190.061 182.985C188.615 182.58 187.169 182.088 185.723 181.51C184.277 180.932 182.976 180.18 181.819 179.254C180.72 178.329 179.824 177.172 179.13 175.784C178.435 174.396 178.088 172.661 178.088 170.578C178.088 167.976 178.696 165.778 179.91 163.985C181.183 162.134 183.005 160.717 185.376 159.734C187.747 158.75 190.611 158.259 193.965 158.259C195.122 158.259 196.221 158.345 197.262 158.519C198.361 158.693 199.402 158.953 200.385 159.3C201.426 159.589 202.41 159.965 203.335 160.428C204.318 160.89 205.244 161.411 206.111 161.989C207.557 162.799 208.309 163.753 208.367 164.852C208.425 165.893 208.02 167.021 207.152 168.236C206.516 169.046 205.88 169.624 205.244 169.971C204.608 170.26 203.942 170.26 203.248 169.971C202.323 169.508 201.311 169.017 200.212 168.496C199.171 167.918 198.072 167.426 196.915 167.021C195.816 166.616 194.659 166.414 193.445 166.414C192.288 166.414 191.247 166.588 190.321 166.935C189.396 167.282 188.702 167.773 188.239 168.409C187.776 169.046 187.545 169.798 187.545 170.665C187.545 171.475 187.776 172.14 188.239 172.661C188.702 173.181 189.309 173.615 190.061 173.962C190.813 174.309 191.709 174.627 192.751 174.916C193.792 175.148 194.891 175.379 196.047 175.61C197.667 175.957 199.315 176.391 200.993 176.912C202.67 177.432 204.203 178.155 205.591 179.081C207.037 180.006 208.194 181.25 209.061 182.811C209.929 184.315 210.362 186.282 210.362 188.711C210.362 192.933 208.801 196.201 205.678 198.515C202.612 200.828 198.361 201.985 192.924 201.985Z" fill="#27235C" stroke="#27235C" stroke-width="0.2"/>
<path d="M151.968 201.984C148.209 201.984 144.912 201.376 142.078 200.162C139.302 198.947 136.959 197.299 135.05 195.217C133.2 193.077 131.783 190.705 130.799 188.102C129.874 185.442 129.411 182.694 129.411 179.86C129.411 175.696 130.365 171.994 132.274 168.755C134.183 165.516 136.815 162.971 140.169 161.12C143.582 159.27 147.486 158.344 151.882 158.344C155.005 158.344 157.752 158.836 160.124 159.819C162.495 160.802 164.461 162.104 166.023 163.723C167.643 165.285 168.857 167.02 169.667 168.929C170.535 170.837 170.968 172.688 170.968 174.481C170.968 177.547 170.216 179.774 168.713 181.162C167.267 182.55 165.445 183.244 163.247 183.244H140.343C140.401 185.21 141.008 186.917 142.165 188.363C143.379 189.809 144.883 190.936 146.676 191.746C148.527 192.498 150.407 192.874 152.315 192.874C153.761 192.874 155.034 192.787 156.133 192.614C157.289 192.44 158.273 192.238 159.082 192.006C159.892 191.717 160.586 191.428 161.165 191.139C161.801 190.85 162.379 190.589 162.9 190.358C163.42 190.127 163.912 189.982 164.375 189.924C165.011 189.866 165.647 190.011 166.283 190.358C166.92 190.705 167.44 191.312 167.845 192.18C168.192 192.758 168.423 193.308 168.539 193.828C168.713 194.291 168.799 194.754 168.799 195.217C168.799 196.373 168.105 197.472 166.717 198.513C165.329 199.497 163.363 200.306 160.818 200.943C158.331 201.637 155.381 201.984 151.968 201.984ZM140.343 177.084H158.128C159.111 177.084 159.863 176.939 160.384 176.65C160.904 176.303 161.165 175.609 161.165 174.568C161.165 173.238 160.76 172.052 159.95 171.011C159.14 169.912 158.041 169.073 156.653 168.495C155.265 167.859 153.646 167.541 151.795 167.541C149.655 167.541 147.717 167.974 145.982 168.842C144.247 169.652 142.859 170.78 141.818 172.226C140.834 173.671 140.343 175.291 140.343 177.084Z" fill="#27235C" stroke="#27235C" stroke-width="0.2"/>
<path d="M120.996 201.466C118.856 201.466 116.948 201.322 115.27 201.032C113.651 200.743 112.234 200.252 111.019 199.557C109.862 198.863 108.908 197.938 108.156 196.781C107.404 195.567 106.826 194.092 106.421 192.357C106.074 190.621 105.9 188.539 105.9 186.11V144.292C105.9 143.309 105.987 142.441 106.161 141.69C106.392 140.88 106.855 140.244 107.549 139.781C108.301 139.26 109.486 139 111.106 139C112.725 139 113.882 139.231 114.576 139.694C115.328 140.157 115.791 140.793 115.964 141.603C116.196 142.355 116.311 143.222 116.311 144.206V185.676C116.311 186.775 116.369 187.7 116.485 188.452C116.658 189.146 116.919 189.725 117.266 190.188C117.671 190.592 118.162 190.882 118.741 191.055C119.377 191.229 120.129 191.315 120.996 191.315C121.748 191.315 122.413 191.402 122.992 191.576C123.628 191.749 124.12 192.183 124.467 192.877C124.872 193.571 125.074 194.699 125.074 196.261C125.074 197.88 124.872 199.066 124.467 199.818C124.12 200.57 123.628 201.032 122.992 201.206C122.356 201.379 121.69 201.466 120.996 201.466Z" fill="#27235C" stroke="#27235C" stroke-width="0.2"/>
<path d="M91.371 201.465C89.8094 201.465 88.6526 201.205 87.9007 200.684C87.1488 200.222 86.6861 199.614 86.5126 198.862C86.3391 198.053 86.2523 197.156 86.2523 196.173V163.899C86.2523 162.973 86.3391 162.135 86.5126 161.383C86.7439 160.573 87.2066 159.937 87.9007 159.474C88.6526 159.011 89.8383 158.78 91.4578 158.78C93.0773 158.78 94.2341 159.011 94.9281 159.474C95.68 159.937 96.1427 160.573 96.3163 161.383C96.4898 162.192 96.5765 163.089 96.5765 164.072V196.26C96.5765 197.243 96.4898 198.139 96.3163 198.949C96.1427 199.701 95.68 200.308 94.9281 200.771C94.2341 201.234 93.0484 201.465 91.371 201.465ZM91.371 150.364C89.6937 150.364 88.4502 150.133 87.6404 149.67C86.8885 149.15 86.3969 148.456 86.1655 147.588C85.992 146.72 85.9053 145.766 85.9053 144.725C85.9053 143.626 85.992 142.672 86.1655 141.862C86.3969 141.052 86.9175 140.416 87.7272 139.953C88.5369 139.433 89.7805 139.172 91.4578 139.172C93.193 139.172 94.4365 139.433 95.1884 139.953C95.9403 140.474 96.4319 141.168 96.6633 142.035C96.8946 142.845 97.0103 143.8 97.0103 144.898C97.0103 145.882 96.8946 146.807 96.6633 147.675C96.4319 148.542 95.9403 149.207 95.1884 149.67C94.4365 150.133 93.164 150.364 91.371 150.364Z" fill="#27235C" stroke="#27235C" stroke-width="0.2"/>
<path d="M20.1187 201.377C18.6149 201.377 17.4871 201.146 16.7352 200.683C15.9833 200.221 15.4916 199.584 15.2603 198.775C15.0868 197.965 15 197.068 15 196.085V146.026C15 145.1 15.0868 144.261 15.2603 143.51C15.4916 142.7 15.9833 142.064 16.7352 141.601C17.4871 141.08 18.6728 140.82 20.2922 140.82C21.5069 140.82 22.4034 140.907 22.9818 141.08C23.618 141.196 24.1096 141.398 24.4566 141.688C24.8037 141.919 25.1507 142.237 25.4977 142.642L46.6667 172.227H44.6713L65.927 142.555C66.3319 142.092 66.7368 141.745 67.1417 141.514C67.5465 141.283 68.0671 141.109 68.7033 140.994C69.3395 140.878 70.1782 140.82 71.2193 140.82C72.781 140.82 73.9377 141.08 74.6896 141.601C75.4415 142.064 75.9042 142.7 76.0778 143.51C76.3091 144.319 76.4248 145.216 76.4248 146.199V196.259C76.4248 197.126 76.3091 197.965 76.0778 198.775C75.9042 199.584 75.4415 200.221 74.6896 200.683C73.9377 201.146 72.752 201.377 71.1325 201.377C69.5709 201.377 68.4141 201.117 67.6622 200.597C66.9103 200.134 66.4187 199.498 66.1873 198.688C66.0138 197.878 65.927 197.011 65.927 196.085V158.866L50.1371 181.683C49.9635 181.915 49.7033 182.233 49.3562 182.638C49.0092 182.985 48.5465 183.303 47.9681 183.592C47.3897 183.881 46.6089 184.026 45.6256 184.026C44.7002 184.026 43.9483 183.881 43.3699 183.592C42.7915 183.303 42.3288 182.985 41.9818 182.638C41.6926 182.291 41.4034 181.944 41.1142 181.597L25.411 158.866V196.259C25.411 197.126 25.2953 197.965 25.0639 198.775C24.8904 199.584 24.4277 200.221 23.6758 200.683C22.9239 201.146 21.7382 201.377 20.1187 201.377Z" fill="#27235C" stroke="#27235C" stroke-width="0.2"/>
</svg>
