<svg width="96" height="96" viewBox="0 0 96 96" fill="none" xmlns="http://www.w3.org/2000/svg">
<path d="M43.7119 62.5576C43.7119 62.1566 44.037 61.8316 44.438 61.8316H94.5369C94.9379 61.8316 95.263 62.1566 95.263 62.5576V62.5576C95.263 62.9586 94.9379 63.2837 94.5369 63.2837H44.438C44.037 63.2837 43.7119 62.9586 43.7119 62.5576V62.5576Z" fill="#FFBB00"/>
<path d="M2.88621 57.2034V55.4458C2.59477 54.9948 2.32023 54.5501 2.06258 54.1118C1.80493 53.6734 1.56207 53.2435 1.33398 52.822H2.05625C2.21675 53.1676 2.39626 53.5196 2.59477 53.8778C2.79329 54.2319 2.99814 54.5733 3.20933 54.9021C3.41629 54.5733 3.61903 54.2319 3.81755 53.8778C4.01607 53.5196 4.19769 53.1676 4.36242 52.822H5.04666C4.81858 53.2435 4.57571 53.6734 4.31807 54.1118C4.06042 54.5459 3.78798 54.9864 3.50077 55.4331V57.2034H2.88621Z" fill="#27235C"/>
<path d="M8.18805 55.5596C8.18805 55.8209 8.15003 56.057 8.07401 56.2677C7.99798 56.4785 7.89027 56.6597 7.75089 56.8114C7.61573 56.9632 7.45311 57.0812 7.26304 57.1655C7.07297 57.2456 6.86601 57.2856 6.64215 57.2856C6.41829 57.2856 6.21133 57.2456 6.02126 57.1655C5.83119 57.0812 5.66647 56.9632 5.52708 56.8114C5.39192 56.6597 5.28633 56.4785 5.2103 56.2677C5.13427 56.057 5.09626 55.8209 5.09626 55.5596C5.09626 55.3025 5.13427 55.0686 5.2103 54.8578C5.28633 54.6428 5.39192 54.4595 5.52708 54.3078C5.66647 54.156 5.83119 54.0401 6.02126 53.96C6.21133 53.8757 6.41829 53.8336 6.64215 53.8336C6.86601 53.8336 7.07297 53.8757 7.26304 53.96C7.45311 54.0401 7.61573 54.156 7.75089 54.3078C7.89027 54.4595 7.99798 54.6428 8.07401 54.8578C8.15003 55.0686 8.18805 55.3025 8.18805 55.5596ZM7.57349 55.5596C7.57349 55.1887 7.48901 54.8957 7.32006 54.6808C7.15534 54.4616 6.92937 54.352 6.64215 54.352C6.35494 54.352 6.12685 54.4616 5.9579 54.6808C5.79318 54.8957 5.71081 55.1887 5.71081 55.5596C5.71081 55.9305 5.79318 56.2256 5.9579 56.4447C6.12685 56.6597 6.35494 56.7672 6.64215 56.7672C6.92937 56.7672 7.15534 56.6597 7.32006 56.4447C7.48901 56.2256 7.57349 55.9305 7.57349 55.5596Z" fill="#27235C"/>
<path d="M11.64 57.1086C11.5048 57.1423 11.3253 57.1781 11.1014 57.2161C10.8818 57.254 10.6263 57.273 10.3348 57.273C10.0814 57.273 9.86811 57.2371 9.69494 57.1655C9.52176 57.0896 9.38238 56.9842 9.27678 56.8494C9.17119 56.7145 9.09516 56.5564 9.0487 56.3752C9.00224 56.1897 8.97901 55.9853 8.97901 55.7619V53.9158H9.56822V55.6355C9.56822 56.0359 9.63158 56.3225 9.75829 56.4953C9.885 56.6681 10.0983 56.7545 10.3982 56.7545C10.4615 56.7545 10.527 56.7524 10.5946 56.7482C10.6622 56.744 10.7255 56.7398 10.7847 56.7356C10.8438 56.7271 10.8966 56.7208 10.9431 56.7166C10.9937 56.7082 11.0296 56.6997 11.0508 56.6913V53.9158H11.64V57.1086Z" fill="#27235C"/>
<path d="M13.8715 53.8462C13.9222 53.8462 13.9792 53.8504 14.0426 53.8589C14.1101 53.8631 14.1756 53.8715 14.239 53.8842C14.3023 53.8926 14.3593 53.9031 14.41 53.9158C14.4649 53.9242 14.5051 53.9326 14.5304 53.9411L14.429 54.4532C14.3826 54.4363 14.3044 54.4174 14.1946 54.3963C14.089 54.371 13.9518 54.3583 13.7828 54.3583C13.673 54.3583 13.5632 54.371 13.4533 54.3963C13.3478 54.4174 13.2781 54.4321 13.2443 54.4405V57.2034H12.6551V54.0549C12.7944 54.0043 12.9676 53.9579 13.1746 53.9158C13.3815 53.8694 13.6139 53.8462 13.8715 53.8462Z" fill="#27235C"/>
<path d="M19.3657 52.822H19.9802V57.2034H19.3657V55.1803H17.2179V57.2034H16.6033V52.822H17.2179V54.6492H19.3657V52.822Z" fill="#27235C"/>
<path d="M23.9405 55.5596C23.9405 55.8209 23.9025 56.057 23.8265 56.2677C23.7504 56.4785 23.6427 56.6597 23.5033 56.8114C23.3682 56.9632 23.2056 57.0812 23.0155 57.1655C22.8254 57.2456 22.6185 57.2856 22.3946 57.2856C22.1707 57.2856 21.9638 57.2456 21.7737 57.1655C21.5836 57.0812 21.4189 56.9632 21.2795 56.8114C21.1444 56.6597 21.0388 56.4785 20.9628 56.2677C20.8867 56.057 20.8487 55.8209 20.8487 55.5596C20.8487 55.3025 20.8867 55.0686 20.9628 54.8578C21.0388 54.6428 21.1444 54.4595 21.2795 54.3078C21.4189 54.156 21.5836 54.0401 21.7737 53.96C21.9638 53.8757 22.1707 53.8336 22.3946 53.8336C22.6185 53.8336 22.8254 53.8757 23.0155 53.96C23.2056 54.0401 23.3682 54.156 23.5033 54.3078C23.6427 54.4595 23.7504 54.6428 23.8265 54.8578C23.9025 55.0686 23.9405 55.3025 23.9405 55.5596ZM23.3259 55.5596C23.3259 55.1887 23.2415 54.8957 23.0725 54.6808C22.9078 54.4616 22.6818 54.352 22.3946 54.352C22.1074 54.352 21.8793 54.4616 21.7104 54.6808C21.5456 54.8957 21.4633 55.1887 21.4633 55.5596C21.4633 55.9305 21.5456 56.2256 21.7104 56.4447C21.8793 56.6597 22.1074 56.7672 22.3946 56.7672C22.6818 56.7672 22.9078 56.6597 23.0725 56.4447C23.2415 56.2256 23.3259 55.9305 23.3259 55.5596Z" fill="#27235C"/>
<path d="M25.5361 56.7798C25.7768 56.7798 25.9542 56.7482 26.0683 56.685C26.1865 56.6218 26.2457 56.5206 26.2457 56.3815C26.2457 56.2382 26.1887 56.1244 26.0746 56.0401C25.9606 55.9558 25.7726 55.861 25.5107 55.7556C25.384 55.705 25.2615 55.6544 25.1433 55.6039C25.0292 55.5491 24.93 55.4858 24.8455 55.4142C24.761 55.3425 24.6934 55.2561 24.6428 55.155C24.5921 55.0538 24.5667 54.9295 24.5667 54.7819C24.5667 54.4911 24.6744 54.2614 24.8899 54.0928C25.1053 53.92 25.3988 53.8336 25.7705 53.8336C25.8634 53.8336 25.9563 53.8399 26.0493 53.8526C26.1422 53.861 26.2288 53.8736 26.309 53.8905C26.3893 53.9031 26.459 53.9179 26.5181 53.9347C26.5815 53.9516 26.63 53.9664 26.6638 53.979L26.5561 54.4848C26.4928 54.4511 26.3935 54.4174 26.2583 54.3836C26.1232 54.3457 25.9606 54.3267 25.7705 54.3267C25.6058 54.3267 25.4622 54.3604 25.3397 54.4279C25.2172 54.4911 25.1559 54.5923 25.1559 54.7314C25.1559 54.803 25.1686 54.8662 25.194 54.921C25.2235 54.9758 25.2658 55.0264 25.3207 55.0728C25.3798 55.1149 25.4516 55.155 25.5361 55.1929C25.6206 55.2308 25.7219 55.2709 25.8402 55.313C25.9965 55.372 26.1359 55.431 26.2583 55.4901C26.3808 55.5448 26.4843 55.6102 26.5688 55.686C26.6575 55.7619 26.7251 55.8546 26.7715 55.9642C26.818 56.0696 26.8412 56.2003 26.8412 56.3562C26.8412 56.6597 26.7272 56.8894 26.4991 57.0454C26.2752 57.2013 25.9542 57.2793 25.5361 57.2793C25.2446 57.2793 25.0166 57.254 24.8518 57.2034C24.6871 57.1571 24.5752 57.1212 24.516 57.0959L24.6238 56.5901C24.6913 56.6154 24.799 56.6534 24.9469 56.704C25.0947 56.7545 25.2911 56.7798 25.5361 56.7798Z" fill="#27235C"/>
<path d="M28.1482 53.9158H29.3963V54.4089H28.1482V55.9263C28.1482 56.0907 28.1609 56.2277 28.1862 56.3373C28.2116 56.4426 28.2496 56.5269 28.3003 56.5901C28.3509 56.6492 28.4143 56.6913 28.4903 56.7166C28.5663 56.7419 28.655 56.7545 28.7564 56.7545C28.9338 56.7545 29.0753 56.7356 29.1809 56.6976C29.2907 56.6555 29.3667 56.626 29.409 56.6091L29.523 57.0959C29.4639 57.1254 29.3604 57.1613 29.2126 57.2034C29.0648 57.2498 28.8958 57.273 28.7057 57.273C28.4819 57.273 28.296 57.2456 28.1482 57.1908C28.0046 57.1318 27.8884 57.0454 27.7997 56.9316C27.711 56.8178 27.6477 56.6787 27.6097 56.5143C27.5759 56.3457 27.559 56.1518 27.559 55.9326V52.999L28.1482 52.8979V53.9158Z" fill="#27235C"/>
<path d="M30.7353 57.2034H30.1461V53.9158H30.7353V57.2034ZM30.4375 53.3215C30.3319 53.3215 30.2411 53.2877 30.1651 53.2203C30.0933 53.1487 30.0574 53.0538 30.0574 52.9358C30.0574 52.8178 30.0933 52.7251 30.1651 52.6576C30.2411 52.586 30.3319 52.5501 30.4375 52.5501C30.5431 52.5501 30.6318 52.586 30.7036 52.6576C30.7797 52.7251 30.8177 52.8178 30.8177 52.9358C30.8177 53.0538 30.7797 53.1487 30.7036 53.2203C30.6318 53.2877 30.5431 53.3215 30.4375 53.3215Z" fill="#27235C"/>
<path d="M31.7486 54.0106C31.8837 53.9769 32.0632 53.9411 32.2871 53.9031C32.511 53.8652 32.7686 53.8462 33.06 53.8462C33.3219 53.8462 33.5394 53.8842 33.7126 53.96C33.8858 54.0317 34.0231 54.135 34.1244 54.2698C34.23 54.4005 34.3039 54.5586 34.3462 54.744C34.3884 54.9295 34.4095 55.1339 34.4095 55.3573V57.2034H33.8203V55.4837C33.8203 55.2814 33.8055 55.1086 33.776 54.9653C33.7506 54.822 33.7063 54.7061 33.6429 54.6176C33.5796 54.529 33.4951 54.4658 33.3895 54.4279C33.2839 54.3857 33.153 54.3647 32.9967 54.3647C32.9333 54.3647 32.8679 54.3668 32.8003 54.371C32.7327 54.3752 32.6672 54.3815 32.6039 54.39C32.5447 54.3942 32.4898 54.4005 32.4391 54.4089C32.3927 54.4174 32.3589 54.4237 32.3378 54.4279V57.2034H31.7486V54.0106Z" fill="#27235C"/>
<path d="M37.452 56.8747C37.4013 56.9084 37.3021 56.9526 37.1542 57.0074C37.0106 57.058 36.8417 57.0833 36.6474 57.0833C36.4489 57.0833 36.2609 57.0517 36.0835 56.9885C35.9103 56.9252 35.7583 56.8283 35.6274 56.6976C35.4964 56.5628 35.3929 56.3963 35.3169 56.1982C35.2409 56.0001 35.2029 55.764 35.2029 55.4901C35.2029 55.2498 35.2388 55.0306 35.3106 54.8325C35.3824 54.6302 35.4859 54.4574 35.621 54.3141C35.7604 54.1666 35.9294 54.0528 36.1279 53.9727C36.3264 53.8884 36.5502 53.8462 36.7994 53.8462C37.074 53.8462 37.3126 53.8673 37.5154 53.9095C37.7223 53.9474 37.8955 53.9832 38.0349 54.0169V56.9505C38.0349 57.4563 37.904 57.823 37.6421 58.0506C37.3802 58.2782 36.9832 58.392 36.451 58.392C36.244 58.392 36.0476 58.3752 35.8618 58.3415C35.6802 58.3077 35.5218 58.2677 35.3866 58.2213L35.4943 57.7092C35.6126 57.7556 35.7562 57.7956 35.9251 57.8293C36.0983 57.8673 36.2778 57.8862 36.4637 57.8862C36.8142 57.8862 37.0655 57.8167 37.2176 57.6776C37.3739 57.5385 37.452 57.3172 37.452 57.0137V56.8747ZM37.4457 54.4342C37.3866 54.4174 37.3063 54.4026 37.2049 54.39C37.1078 54.3731 36.9747 54.3647 36.8058 54.3647C36.489 54.3647 36.244 54.4679 36.0708 54.6745C35.9019 54.881 35.8174 55.155 35.8174 55.4964C35.8174 55.686 35.8407 55.8483 35.8871 55.9832C35.9378 56.1181 36.0033 56.2298 36.0835 56.3183C36.168 56.4068 36.263 56.4721 36.3686 56.5143C36.4784 56.5564 36.5904 56.5775 36.7044 56.5775C36.8607 56.5775 37.0043 56.5564 37.1352 56.5143C37.2662 56.4679 37.3697 56.4152 37.4457 56.3562V54.4342Z" fill="#27235C"/>
<path d="M39.6703 56.4827C39.6745 56.5164 39.6766 56.5501 39.6766 56.5838C39.6766 56.6133 39.6766 56.6449 39.6766 56.6787C39.6766 56.9442 39.6365 57.2055 39.5562 57.4626C39.4802 57.724 39.3746 57.9726 39.2395 58.2087L38.7833 58.0633C38.8889 57.8483 38.9586 57.6291 38.9924 57.4057C39.0262 57.1866 39.0431 56.98 39.0431 56.7861C39.0431 56.7313 39.0409 56.6787 39.0367 56.6281C39.0367 56.5775 39.0346 56.529 39.0304 56.4827H39.6703Z" fill="#27235C"/>
<path d="M41.9355 55.0095C41.9355 54.6344 41.9904 54.3035 42.1002 54.0169C42.2143 53.7303 42.3663 53.4922 42.5564 53.3025C42.7507 53.1086 42.9746 52.9632 43.228 52.8663C43.4856 52.7693 43.7581 52.7208 44.0453 52.7208C44.3283 52.7208 44.5944 52.7693 44.8436 52.8663C45.097 52.9632 45.3187 53.1086 45.5088 53.3025C45.6989 53.4922 45.8488 53.7303 45.9586 54.0169C46.0727 54.3035 46.1297 54.6344 46.1297 55.0095C46.1297 55.3847 46.0727 55.7155 45.9586 56.0022C45.8488 56.2888 45.6989 56.529 45.5088 56.7229C45.3187 56.9126 45.097 57.0559 44.8436 57.1528C44.5944 57.2498 44.3283 57.2983 44.0453 57.2983C43.7581 57.2983 43.4856 57.2498 43.228 57.1528C42.9746 57.0559 42.7507 56.9126 42.5564 56.7229C42.3663 56.529 42.2143 56.2888 42.1002 56.0022C41.9904 55.7155 41.9355 55.3847 41.9355 55.0095ZM42.5818 55.0095C42.5818 55.2751 42.6155 55.5174 42.6831 55.7366C42.7507 55.9516 42.8457 56.1349 42.9682 56.2867C43.0949 56.4384 43.247 56.5564 43.4244 56.6407C43.606 56.7208 43.8088 56.7609 44.0326 56.7609C44.2565 56.7609 44.4571 56.7208 44.6345 56.6407C44.8119 56.5564 44.9618 56.4384 45.0843 56.2867C45.211 56.1349 45.3082 55.9516 45.3758 55.7366C45.4433 55.5174 45.4771 55.2751 45.4771 55.0095C45.4771 54.744 45.4433 54.5038 45.3758 54.2888C45.3082 54.0696 45.211 53.8842 45.0843 53.7324C44.9618 53.5807 44.8119 53.4648 44.6345 53.3847C44.4571 53.3004 44.2565 53.2582 44.0326 53.2582C43.8088 53.2582 43.606 53.3004 43.4244 53.3847C43.247 53.4648 43.0949 53.5807 42.9682 53.7324C42.8457 53.8842 42.7507 54.0696 42.6831 54.2888C42.6155 54.5038 42.5818 54.744 42.5818 55.0095Z" fill="#27235C"/>
<path d="M49.629 57.1086C49.4938 57.1423 49.3143 57.1781 49.0905 57.2161C48.8708 57.254 48.6153 57.273 48.3239 57.273C48.0704 57.273 47.8571 57.2371 47.684 57.1655C47.5108 57.0896 47.3714 56.9842 47.2658 56.8494C47.1602 56.7145 47.0842 56.5564 47.0377 56.3752C46.9913 56.1897 46.968 55.9853 46.968 55.7619V53.9158H47.5572V55.6355C47.5572 56.0359 47.6206 56.3225 47.7473 56.4953C47.874 56.6681 48.0873 56.7545 48.3872 56.7545C48.4506 56.7545 48.516 56.7524 48.5836 56.7482C48.6512 56.744 48.7146 56.7398 48.7737 56.7356C48.8328 56.7271 48.8856 56.7208 48.9321 56.7166C48.9828 56.7082 49.0187 56.6997 49.0398 56.6913V53.9158H49.629V57.1086Z" fill="#27235C"/>
<path d="M51.8605 53.8462C51.9112 53.8462 51.9682 53.8504 52.0316 53.8589C52.0992 53.8631 52.1646 53.8715 52.228 53.8842C52.2913 53.8926 52.3484 53.9031 52.3991 53.9158C52.454 53.9242 52.4941 53.9326 52.5194 53.9411L52.4181 54.4532C52.3716 54.4363 52.2935 54.4174 52.1836 54.3963C52.078 54.371 51.9408 54.3583 51.7718 54.3583C51.662 54.3583 51.5522 54.371 51.4424 54.3963C51.3368 54.4174 51.2671 54.4321 51.2333 54.4405V57.2034H50.6441V54.0549C50.7835 54.0043 50.9566 53.9579 51.1636 53.9158C51.3706 53.8694 51.6029 53.8462 51.8605 53.8462Z" fill="#27235C"/>
<path d="M56.7401 55.3699C56.8077 55.4542 56.8922 55.5659 56.9936 55.705C57.0992 55.8399 57.2069 55.9916 57.3167 56.1602C57.4265 56.3246 57.5342 56.4974 57.6398 56.6787C57.7496 56.8599 57.8425 57.0348 57.9186 57.2034H57.247C57.1625 57.0433 57.0696 56.881 56.9682 56.7166C56.8711 56.5522 56.7718 56.3963 56.6705 56.2487C56.5691 56.097 56.4677 55.9558 56.3663 55.8251C56.2692 55.6945 56.1805 55.5807 56.1002 55.4837C56.0453 55.4879 55.9883 55.4901 55.9292 55.4901C55.8743 55.4901 55.8173 55.4901 55.7581 55.4901H55.2069V57.2034H54.5924V52.8852C54.7655 52.8431 54.9577 52.8157 55.1689 52.803C55.3843 52.7862 55.5807 52.7777 55.7581 52.7777C56.3748 52.7777 56.8436 52.8937 57.1646 53.1255C57.4899 53.3573 57.6525 53.7029 57.6525 54.1623C57.6525 54.4532 57.5743 54.7019 57.4181 54.9084C57.266 55.1149 57.04 55.2688 56.7401 55.3699ZM55.8088 53.3151C55.5469 53.3151 55.3463 53.3215 55.2069 53.3341V54.9843H55.6441C55.8553 54.9843 56.0453 54.9737 56.2143 54.9526C56.3832 54.9316 56.5247 54.8915 56.6388 54.8325C56.757 54.7735 56.8479 54.6913 56.9112 54.5859C56.9746 54.4764 57.0062 54.3331 57.0062 54.156C57.0062 53.9916 56.9746 53.8547 56.9112 53.7451C56.8479 53.6355 56.7613 53.5491 56.6514 53.4859C56.5459 53.4226 56.4191 53.3784 56.2713 53.3531C56.1277 53.3278 55.9735 53.3151 55.8088 53.3151Z" fill="#27235C"/>
<path d="M58.3551 55.5659C58.3551 55.2751 58.3974 55.0222 58.4818 54.8072C58.5663 54.5881 58.6783 54.4068 58.8176 54.2635C58.957 54.1202 59.1175 54.0127 59.2991 53.9411C59.4808 53.8694 59.6666 53.8336 59.8567 53.8336C60.3002 53.8336 60.6402 53.9727 60.8767 54.2509C61.1132 54.5248 61.2315 54.9442 61.2315 55.509C61.2315 55.5343 61.2315 55.568 61.2315 55.6102C61.2315 55.6481 61.2294 55.6839 61.2252 55.7177H58.9697C58.995 56.0591 59.0943 56.3183 59.2675 56.4953C59.4406 56.6723 59.711 56.7609 60.0784 56.7609C60.2854 56.7609 60.4586 56.744 60.598 56.7103C60.7416 56.6723 60.8493 56.6365 60.9211 56.6028L61.0034 57.0959C60.9316 57.1339 60.8049 57.1739 60.6233 57.2161C60.4459 57.2582 60.2432 57.2793 60.0151 57.2793C59.7279 57.2793 59.4787 57.2371 59.2675 57.1528C59.0605 57.0643 58.8894 56.9442 58.7543 56.7925C58.6191 56.6407 58.5177 56.4616 58.4502 56.2551C58.3868 56.0443 58.3551 55.8146 58.3551 55.5659ZM60.617 55.2435C60.6212 54.9779 60.5536 54.7609 60.4142 54.5923C60.2791 54.4195 60.0911 54.3331 59.8503 54.3331C59.7152 54.3331 59.5948 54.3604 59.4892 54.4152C59.3878 54.4658 59.3013 54.5333 59.2295 54.6176C59.1577 54.7019 59.1006 54.7988 59.0584 54.9084C59.0204 55.018 58.995 55.1297 58.9824 55.2435H60.617Z" fill="#27235C"/>
<path d="M62.8445 56.7798C63.0853 56.7798 63.2627 56.7482 63.3767 56.685C63.495 56.6218 63.5541 56.5206 63.5541 56.3815C63.5541 56.2382 63.4971 56.1244 63.3831 56.0401C63.269 55.9558 63.0811 55.861 62.8192 55.7556C62.6925 55.705 62.57 55.6544 62.4517 55.6039C62.3377 55.5491 62.2384 55.4858 62.1539 55.4142C62.0695 55.3425 62.0019 55.2561 61.9512 55.155C61.9005 55.0538 61.8752 54.9295 61.8752 54.7819C61.8752 54.4911 61.9829 54.2614 62.1983 54.0928C62.4137 53.92 62.7073 53.8336 63.0789 53.8336C63.1719 53.8336 63.2648 53.8399 63.3577 53.8526C63.4506 53.861 63.5372 53.8736 63.6175 53.8905C63.6977 53.9031 63.7674 53.9179 63.8265 53.9347C63.8899 53.9516 63.9385 53.9664 63.9723 53.979L63.8646 54.4848C63.8012 54.4511 63.7019 54.4174 63.5668 54.3836C63.4316 54.3457 63.269 54.3267 63.0789 54.3267C62.9142 54.3267 62.7706 54.3604 62.6481 54.4279C62.5256 54.4911 62.4644 54.5923 62.4644 54.7314C62.4644 54.803 62.4771 54.8662 62.5024 54.921C62.532 54.9758 62.5742 55.0264 62.6291 55.0728C62.6882 55.1149 62.7601 55.155 62.8445 55.1929C62.929 55.2308 63.0304 55.2709 63.1486 55.313C63.3049 55.372 63.4443 55.431 63.5668 55.4901C63.6893 55.5448 63.7928 55.6102 63.8772 55.686C63.9659 55.7619 64.0335 55.8546 64.08 55.9642C64.1264 56.0696 64.1497 56.2003 64.1497 56.3562C64.1497 56.6597 64.0356 56.8894 63.8075 57.0454C63.5837 57.2013 63.2627 57.2793 62.8445 57.2793C62.5531 57.2793 62.325 57.254 62.1603 57.2034C61.9955 57.1571 61.8836 57.1212 61.8245 57.0959L61.9322 56.5901C61.9998 56.6154 62.1075 56.6534 62.2553 56.704C62.4031 56.7545 62.5995 56.7798 62.8445 56.7798Z" fill="#27235C"/>
<path d="M67.1926 55.5659C67.1926 55.1824 67.0976 54.8873 66.9075 54.6808C66.7174 54.4743 66.464 54.371 66.1472 54.371C65.9698 54.371 65.8304 54.3773 65.7291 54.39C65.6319 54.4026 65.5538 54.4174 65.4946 54.4342V56.508C65.5665 56.567 65.6699 56.6239 65.8051 56.6787C65.9403 56.7335 66.0881 56.7609 66.2486 56.7609C66.4175 56.7609 66.5611 56.7313 66.6794 56.6723C66.8019 56.6091 66.9012 56.5248 66.9772 56.4194C67.0532 56.3099 67.1081 56.1834 67.1419 56.0401C67.1757 55.8926 67.1926 55.7345 67.1926 55.5659ZM67.8072 55.5659C67.8072 55.8146 67.7734 56.0443 67.7058 56.2551C67.6424 56.4658 67.5474 56.647 67.4207 56.7988C67.294 56.9505 67.1377 57.0685 66.9518 57.1528C66.7702 57.2371 66.5611 57.2793 66.3246 57.2793C66.1345 57.2793 65.9656 57.254 65.8178 57.2034C65.6742 57.1528 65.5665 57.1044 65.4946 57.058V58.3731H64.9054V54.0169C65.0448 53.9832 65.218 53.9474 65.425 53.9095C65.6361 53.8673 65.879 53.8462 66.1536 53.8462C66.407 53.8462 66.6351 53.8863 66.8378 53.9664C67.0405 54.0464 67.2137 54.1602 67.3573 54.3078C67.5009 54.4553 67.6107 54.6365 67.6868 54.8515C67.767 55.0622 67.8072 55.3004 67.8072 55.5659Z" fill="#27235C"/>
<path d="M71.5443 55.5596C71.5443 55.8209 71.5063 56.057 71.4303 56.2677C71.3543 56.4785 71.2466 56.6597 71.1072 56.8114C70.972 56.9632 70.8094 57.0812 70.6193 57.1655C70.4293 57.2456 70.2223 57.2856 69.9984 57.2856C69.7746 57.2856 69.5676 57.2456 69.3775 57.1655C69.1875 57.0812 69.0228 56.9632 68.8834 56.8114C68.7482 56.6597 68.6426 56.4785 68.5666 56.2677C68.4906 56.057 68.4525 55.8209 68.4525 55.5596C68.4525 55.3025 68.4906 55.0686 68.5666 54.8578C68.6426 54.6428 68.7482 54.4595 68.8834 54.3078C69.0228 54.156 69.1875 54.0401 69.3775 53.96C69.5676 53.8757 69.7746 53.8336 69.9984 53.8336C70.2223 53.8336 70.4293 53.8757 70.6193 53.96C70.8094 54.0401 70.972 54.156 71.1072 54.3078C71.2466 54.4595 71.3543 54.6428 71.4303 54.8578C71.5063 55.0686 71.5443 55.3025 71.5443 55.5596ZM70.9298 55.5596C70.9298 55.1887 70.8453 54.8957 70.6764 54.6808C70.5116 54.4616 70.2857 54.352 69.9984 54.352C69.7112 54.352 69.4831 54.4616 69.3142 54.6808C69.1495 54.8957 69.0671 55.1887 69.0671 55.5596C69.0671 55.9305 69.1495 56.2256 69.3142 56.4447C69.4831 56.6597 69.7112 56.7672 69.9984 56.7672C70.2857 56.7672 70.5116 56.6597 70.6764 56.4447C70.8453 56.2256 70.9298 55.9305 70.9298 55.5596Z" fill="#27235C"/>
<path d="M72.3733 54.0106C72.5085 53.9769 72.688 53.9411 72.9118 53.9031C73.1357 53.8652 73.3933 53.8462 73.6848 53.8462C73.9467 53.8462 74.1642 53.8842 74.3374 53.96C74.5105 54.0317 74.6478 54.135 74.7492 54.2698C74.8548 54.4005 74.9287 54.5586 74.9709 54.744C75.0132 54.9295 75.0343 55.1339 75.0343 55.3573V57.2034H74.4451V55.4837C74.4451 55.2814 74.4303 55.1086 74.4007 54.9653C74.3754 54.822 74.331 54.7061 74.2677 54.6176C74.2043 54.529 74.1198 54.4658 74.0142 54.4279C73.9086 54.3857 73.7777 54.3647 73.6214 54.3647C73.5581 54.3647 73.4926 54.3668 73.425 54.371C73.3574 54.3752 73.292 54.3815 73.2286 54.39C73.1695 54.3942 73.1146 54.4005 73.0639 54.4089C73.0174 54.4174 72.9836 54.4237 72.9625 54.4279V57.2034H72.3733V54.0106Z" fill="#27235C"/>
<path d="M76.778 56.7798C77.0187 56.7798 77.1961 56.7482 77.3102 56.685C77.4284 56.6218 77.4875 56.5206 77.4875 56.3815C77.4875 56.2382 77.4305 56.1244 77.3165 56.0401C77.2024 55.9558 77.0145 55.861 76.7526 55.7556C76.6259 55.705 76.5034 55.6544 76.3852 55.6039C76.2711 55.5491 76.1719 55.4858 76.0874 55.4142C76.0029 55.3425 75.9353 55.2561 75.8846 55.155C75.8339 55.0538 75.8086 54.9295 75.8086 54.7819C75.8086 54.4911 75.9163 54.2614 76.1317 54.0928C76.3471 53.92 76.6407 53.8336 77.0124 53.8336C77.1053 53.8336 77.1982 53.8399 77.2911 53.8526C77.3841 53.861 77.4707 53.8736 77.5509 53.8905C77.6312 53.9031 77.7009 53.9179 77.76 53.9347C77.8233 53.9516 77.8719 53.9664 77.9057 53.979L77.798 54.4848C77.7346 54.4511 77.6354 54.4174 77.5002 54.3836C77.3651 54.3457 77.2024 54.3267 77.0124 54.3267C76.8477 54.3267 76.704 54.3604 76.5816 54.4279C76.4591 54.4911 76.3978 54.5923 76.3978 54.7314C76.3978 54.803 76.4105 54.8662 76.4358 54.921C76.4654 54.9758 76.5076 55.0264 76.5625 55.0728C76.6217 55.1149 76.6935 55.155 76.778 55.1929C76.8624 55.2308 76.9638 55.2709 77.0821 55.313C77.2383 55.372 77.3777 55.431 77.5002 55.4901C77.6227 55.5448 77.7262 55.6102 77.8107 55.686C77.8994 55.7619 77.9669 55.8546 78.0134 55.9642C78.0599 56.0696 78.0831 56.2003 78.0831 56.3562C78.0831 56.6597 77.9691 56.8894 77.741 57.0454C77.5171 57.2013 77.1961 57.2793 76.778 57.2793C76.4865 57.2793 76.2584 57.254 76.0937 57.2034C75.929 57.1571 75.8171 57.1212 75.7579 57.0959L75.8656 56.5901C75.9332 56.6154 76.0409 56.6534 76.1887 56.704C76.3366 56.7545 76.533 56.7798 76.778 56.7798Z" fill="#27235C"/>
<path d="M79.4281 57.2034H78.8389V53.9158H79.4281V57.2034ZM79.1303 53.3215C79.0247 53.3215 78.9339 53.2877 78.8579 53.2203C78.7861 53.1487 78.7502 53.0538 78.7502 52.9358C78.7502 52.8178 78.7861 52.7251 78.8579 52.6576C78.9339 52.586 79.0247 52.5501 79.1303 52.5501C79.2359 52.5501 79.3246 52.586 79.3964 52.6576C79.4724 52.7251 79.5104 52.8178 79.5104 52.9358C79.5104 53.0538 79.4724 53.1487 79.3964 53.2203C79.3246 53.2877 79.2359 53.3215 79.1303 53.3215Z" fill="#27235C"/>
<path d="M81.0306 54.0612C81.1024 54.0148 81.2101 53.9664 81.3537 53.9158C81.5015 53.8652 81.6705 53.8399 81.8605 53.8399C82.0971 53.8399 82.3061 53.8821 82.4877 53.9664C82.6736 54.0507 82.8299 54.1687 82.9566 54.3204C83.0833 54.4721 83.1783 54.6534 83.2417 54.8641C83.3093 55.0749 83.3431 55.3067 83.3431 55.5596C83.3431 55.8251 83.3029 56.0654 83.2227 56.2804C83.1466 56.4911 83.0368 56.6702 82.8932 56.8178C82.7496 56.9653 82.5764 57.0791 82.3737 57.1592C82.171 57.2392 81.9429 57.2793 81.6895 57.2793C81.4149 57.2793 81.172 57.2603 80.9609 57.2224C80.7497 57.1845 80.5765 57.1465 80.4413 57.1086V52.3984L81.0306 52.2972V54.0612ZM81.0306 56.6913C81.0897 56.7082 81.172 56.725 81.2776 56.7419C81.3875 56.7545 81.5226 56.7609 81.6831 56.7609C81.9999 56.7609 82.2533 56.6576 82.4434 56.4511C82.6335 56.2403 82.7285 55.9432 82.7285 55.5596C82.7285 55.391 82.7116 55.2329 82.6778 55.0854C82.644 54.9379 82.5891 54.8114 82.5131 54.7061C82.4371 54.5965 82.3378 54.5122 82.2153 54.4532C82.097 54.39 81.9534 54.3583 81.7845 54.3583C81.624 54.3583 81.4762 54.3857 81.341 54.4405C81.2058 54.4953 81.1024 54.5522 81.0306 54.6112V56.6913Z" fill="#27235C"/>
<path d="M84.7614 57.2034H84.1722V53.9158H84.7614V57.2034ZM84.4636 53.3215C84.358 53.3215 84.2672 53.2877 84.1912 53.2203C84.1194 53.1487 84.0835 53.0538 84.0835 52.9358C84.0835 52.8178 84.1194 52.7251 84.1912 52.6576C84.2672 52.586 84.358 52.5501 84.4636 52.5501C84.5692 52.5501 84.6579 52.586 84.7297 52.6576C84.8057 52.7251 84.8438 52.8178 84.8438 52.9358C84.8438 53.0538 84.8057 53.1487 84.7297 53.2203C84.6579 53.2877 84.5692 53.3215 84.4636 53.3215Z" fill="#27235C"/>
<path d="M86.763 57.2666C86.3998 57.2582 86.1421 57.1802 85.9901 57.0327C85.838 56.8852 85.762 56.6555 85.762 56.3436V52.3984L86.3512 52.2972V56.2487C86.3512 56.3457 86.3596 56.4258 86.3765 56.489C86.3934 56.5522 86.4209 56.6028 86.4589 56.6407C86.4969 56.6787 86.5476 56.7082 86.611 56.7292C86.6743 56.7461 86.7525 56.7609 86.8454 56.7735L86.763 57.2666Z" fill="#27235C"/>
<path d="M88.0963 57.2034H87.507V53.9158H88.0963V57.2034ZM87.7985 53.3215C87.6929 53.3215 87.6021 53.2877 87.5261 53.2203C87.4542 53.1487 87.4184 53.0538 87.4184 52.9358C87.4184 52.8178 87.4542 52.7251 87.5261 52.6576C87.6021 52.586 87.6929 52.5501 87.7985 52.5501C87.9041 52.5501 87.9928 52.586 88.0646 52.6576C88.1406 52.7251 88.1786 52.8178 88.1786 52.9358C88.1786 53.0538 88.1406 53.1487 88.0646 53.2203C87.9928 53.2877 87.9041 53.3215 87.7985 53.3215Z" fill="#27235C"/>
<path d="M89.6607 53.9158H90.9088V54.4089H89.6607V55.9263C89.6607 56.0907 89.6734 56.2277 89.6987 56.3373C89.7241 56.4426 89.7621 56.5269 89.8128 56.5901C89.8635 56.6492 89.9268 56.6913 90.0028 56.7166C90.0789 56.7419 90.1676 56.7545 90.2689 56.7545C90.4463 56.7545 90.5878 56.7356 90.6934 56.6976C90.8032 56.6555 90.8793 56.626 90.9215 56.6091L91.0356 57.0959C90.9764 57.1254 90.8729 57.1613 90.7251 57.2034C90.5773 57.2498 90.4083 57.273 90.2183 57.273C89.9944 57.273 89.8085 57.2456 89.6607 57.1908C89.5171 57.1318 89.401 57.0454 89.3123 56.9316C89.2236 56.8178 89.1602 56.6787 89.1222 56.5143C89.0884 56.3457 89.0715 56.1518 89.0715 55.9326V52.999L89.6607 52.8979V53.9158Z" fill="#27235C"/>
<path d="M91.2721 57.8167C91.3186 57.8378 91.3777 57.8567 91.4495 57.8736C91.5256 57.8947 91.5995 57.9052 91.6713 57.9052C91.9036 57.9052 92.0852 57.8525 92.2161 57.7471C92.3471 57.646 92.4654 57.4795 92.571 57.2477C92.3049 56.7419 92.0557 56.2066 91.8233 55.6418C91.5953 55.0728 91.4052 54.4974 91.2531 53.9158H91.8867C91.9332 54.1054 91.9881 54.3099 92.0514 54.529C92.119 54.7482 92.1929 54.9737 92.2732 55.2055C92.3534 55.4374 92.44 55.6692 92.5329 55.901C92.6259 56.1328 92.723 56.3562 92.8244 56.5712C92.9849 56.1286 93.1243 55.6903 93.2425 55.2561C93.3608 54.822 93.4727 54.3752 93.5783 53.9158H94.1865C94.0345 54.5354 93.8655 55.1318 93.6797 55.705C93.4938 56.274 93.2932 56.8072 93.0778 57.3046C92.9933 57.4942 92.9046 57.6565 92.8117 57.7914C92.723 57.9305 92.6237 58.0443 92.5139 58.1328C92.4041 58.2213 92.2795 58.2867 92.1401 58.3288C92.005 58.371 91.8508 58.392 91.6776 58.392C91.6312 58.392 91.5826 58.3878 91.5319 58.3794C91.4812 58.3752 91.4305 58.3667 91.3798 58.3541C91.3334 58.3457 91.289 58.3351 91.2468 58.3225C91.2088 58.3098 91.1813 58.2993 91.1644 58.2909L91.2721 57.8167Z" fill="#27235C"/>
<path d="M95.332 56.862C95.332 56.9758 95.294 57.0749 95.218 57.1592C95.142 57.2435 95.0385 57.2856 94.9076 57.2856C94.7766 57.2856 94.6731 57.2435 94.5971 57.1592C94.5211 57.0749 94.4831 56.9758 94.4831 56.862C94.4831 56.7482 94.5211 56.6492 94.5971 56.5649C94.6731 56.4806 94.7766 56.4384 94.9076 56.4384C95.0385 56.4384 95.142 56.4806 95.218 56.5649C95.294 56.6492 95.332 56.7482 95.332 56.862Z" fill="#27235C"/>
<path d="M90.2184 48.005C89.4941 48.005 88.8436 47.8645 88.2671 47.5837C87.7054 47.288 87.2249 46.8889 86.8258 46.3862C86.4414 45.8836 86.1458 45.3071 85.9388 44.6566C85.7466 43.9914 85.6505 43.2818 85.6505 42.5279C85.6653 41.774 85.7762 41.0718 85.9832 40.4213C86.1901 39.7561 86.4858 39.1796 86.8701 38.6917C87.2693 38.1891 87.7497 37.7974 88.3115 37.5165C88.8732 37.2356 89.5089 37.0952 90.2184 37.0952C90.8985 37.0952 91.5341 37.2356 92.1254 37.5165C92.7315 37.7974 93.2637 38.1891 93.722 38.6917C94.195 39.1796 94.5646 39.7561 94.8307 40.4213C95.0968 41.0718 95.2298 41.7666 95.2298 42.5057C95.2298 43.2744 95.0968 43.9988 94.8307 44.6788C94.5646 45.344 94.2024 45.928 93.7442 46.4306C93.2859 46.9184 92.7537 47.3028 92.1476 47.5837C91.5415 47.8645 90.8985 48.005 90.2184 48.005ZM89.8637 45.4106C90.3811 45.4106 90.8467 45.2923 91.2606 45.0558C91.6746 44.8045 91.9998 44.4645 92.2363 44.0358C92.4876 43.6071 92.6133 43.1192 92.6133 42.5723C92.6133 42.0105 92.4876 41.5153 92.2363 41.0866C91.9998 40.6431 91.6746 40.3031 91.2606 40.0665C90.8467 39.8152 90.3811 39.6896 89.8637 39.6896C89.361 39.6896 88.9028 39.8152 88.4888 40.0665C88.0749 40.3179 87.7423 40.6579 87.491 41.0866C87.2545 41.5153 87.1362 42.0105 87.1362 42.5723C87.1362 43.1192 87.2545 43.6071 87.491 44.0358C87.7423 44.4645 88.0749 44.8045 88.4888 45.0558C88.9028 45.2923 89.361 45.4106 89.8637 45.4106ZM85.7614 48.0271C85.3623 48.0271 85.0666 47.9606 84.8744 47.8276C84.6823 47.7093 84.564 47.5541 84.5196 47.3619C84.4753 47.155 84.4531 46.9258 84.4531 46.6745V33.4586C84.4531 33.2073 84.4753 32.9855 84.5196 32.7934C84.564 32.5864 84.6823 32.4238 84.8744 32.3055C85.0666 32.1873 85.3623 32.1281 85.7614 32.1281C86.1753 32.1281 86.471 32.1873 86.6484 32.3055C86.8258 32.4238 86.9367 32.5864 86.981 32.7934C87.0253 33.0003 87.0475 33.2221 87.0475 33.4586V47.118C86.9884 47.4432 86.8627 47.6724 86.6706 47.8054C86.4932 47.9532 86.1901 48.0271 85.7614 48.0271Z" fill="#27235C" stroke="#27235C" stroke-width="0.2"/>
<path d="M77.8434 48.1605C76.8826 48.1605 76.0399 48.0053 75.3156 47.6948C74.606 47.3844 74.0073 46.9631 73.5195 46.4309C73.0464 45.8839 72.6842 45.2778 72.4329 44.6126C72.1964 43.9326 72.0781 43.2304 72.0781 42.506C72.0781 41.4417 72.322 40.4956 72.8099 39.6677C73.2977 38.8399 73.9703 38.1894 74.8277 37.7164C75.6999 37.2433 76.6978 37.0068 77.8213 37.0068C78.6195 37.0068 79.3217 37.1324 79.9278 37.3838C80.5339 37.6351 81.0365 37.9677 81.4357 38.3816C81.8496 38.7807 82.16 39.2242 82.367 39.7121C82.5888 40.1999 82.6996 40.6729 82.6996 41.1312C82.6996 41.9147 82.5074 42.4839 82.1231 42.8386C81.7535 43.1934 81.2879 43.3708 80.7261 43.3708H74.8721C74.8869 43.8734 75.0421 44.3095 75.3377 44.6791C75.6482 45.0487 76.0325 45.337 76.4908 45.5439C76.9639 45.7361 77.4443 45.8322 77.9321 45.8322C78.3017 45.8322 78.6269 45.81 78.9078 45.7657C79.2035 45.7213 79.4548 45.6696 79.6617 45.6104C79.8687 45.5365 80.0461 45.4626 80.1939 45.3887C80.3565 45.3148 80.5044 45.2483 80.6374 45.1891C80.7705 45.13 80.8961 45.093 81.0144 45.0783C81.177 45.0635 81.3396 45.1004 81.5022 45.1891C81.6648 45.2778 81.7979 45.433 81.9013 45.6548C81.99 45.8026 82.0492 45.9431 82.0787 46.0761C82.1231 46.1944 82.1453 46.3126 82.1453 46.4309C82.1453 46.7265 81.9679 47.0074 81.6131 47.2735C81.2583 47.5248 80.7557 47.7318 80.1052 47.8944C79.4696 48.0718 78.7156 48.1605 77.8434 48.1605ZM74.8721 41.7964H79.4178C79.6691 41.7964 79.8613 41.7595 79.9944 41.6856C80.1274 41.5969 80.1939 41.4195 80.1939 41.1534C80.1939 40.8134 80.0904 40.5103 79.8835 40.2442C79.6765 39.9634 79.3956 39.749 79.0409 39.6012C78.6861 39.4386 78.2722 39.3573 77.7991 39.3573C77.2521 39.3573 76.7569 39.4681 76.3134 39.6899C75.8699 39.8968 75.5151 40.1851 75.2491 40.5547C74.9977 40.9243 74.8721 41.3382 74.8721 41.7964Z" fill="#27235C" stroke="#27235C" stroke-width="0.2"/>
<path d="M58.0062 47.9614C57.7105 47.9614 57.474 47.9097 57.2966 47.8062C57.1192 47.688 56.9861 47.5549 56.8974 47.4071C56.8235 47.2593 56.7718 47.1336 56.7422 47.0301L52.3961 34.302C52.2482 33.829 52.2261 33.4742 52.3295 33.2377C52.433 32.9864 52.7361 32.7794 53.2387 32.6168C53.5787 32.4985 53.8522 32.4468 54.0591 32.4616C54.2661 32.4764 54.4361 32.5651 54.5691 32.7277C54.717 32.8755 54.8426 33.112 54.9461 33.4372L58.1392 43.1053L60.9997 33.5259C61.044 33.3781 61.1032 33.2303 61.1771 33.0825C61.2658 32.9198 61.3988 32.7868 61.5762 32.6833C61.7536 32.5798 61.9975 32.5281 62.308 32.5281C62.6628 32.5281 62.9289 32.5872 63.1063 32.7055C63.2836 32.8238 63.4093 32.9568 63.4832 33.1046C63.5719 33.2377 63.631 33.3633 63.6606 33.4816L66.5211 43.1718L69.7364 33.4594C69.8399 33.1194 69.9581 32.8681 70.0912 32.7055C70.239 32.5429 70.4238 32.4542 70.6455 32.4394C70.8673 32.4098 71.1407 32.4542 71.466 32.5724C71.806 32.6907 72.0499 32.8238 72.1977 32.9716C72.3455 33.1046 72.4195 33.282 72.4195 33.5038C72.4195 33.7107 72.3677 33.9768 72.2642 34.302L67.9403 47.0523C67.9107 47.141 67.8516 47.2593 67.7629 47.4071C67.6889 47.5549 67.5633 47.688 67.3859 47.8062C67.2085 47.9097 66.9646 47.9614 66.6541 47.9614C66.3437 47.9614 66.0998 47.8949 65.9224 47.7619C65.745 47.6288 65.6119 47.481 65.5232 47.3184C65.4346 47.1558 65.3754 47.0375 65.3459 46.9636L62.3302 37.2069L59.3144 46.9414C59.2849 47.0449 59.2258 47.1779 59.1371 47.3406C59.0631 47.5032 58.9375 47.651 58.7601 47.784C58.5827 47.9023 58.3314 47.9614 58.0062 47.9614Z" fill="#27235C" stroke="#27235C" stroke-width="0.2"/>
<path d="M46.4748 48.1607C46.0905 48.1607 45.684 48.1163 45.2553 48.0276C44.8266 47.9537 44.4126 47.8429 44.0135 47.695C43.6144 47.5324 43.267 47.3476 42.9713 47.1407C42.6904 46.9189 42.513 46.675 42.4391 46.4089C42.38 46.2611 42.3578 46.1207 42.3726 45.9876C42.3874 45.8398 42.4317 45.6919 42.5056 45.5441C42.5796 45.3815 42.6904 45.2189 42.8383 45.0563C42.9713 44.8937 43.1044 44.805 43.2374 44.7902C43.3852 44.7606 43.57 44.805 43.7918 44.9232C43.9839 44.9972 44.1909 45.0932 44.4126 45.2115C44.6492 45.3298 44.8857 45.448 45.1222 45.5663C45.3735 45.6846 45.6248 45.7806 45.8761 45.8546C46.1422 45.9285 46.4009 45.9654 46.6522 45.9654C47.1992 45.9654 47.6353 45.8767 47.9605 45.6993C48.2857 45.5072 48.4484 45.2411 48.4484 44.9011C48.4484 44.7089 48.3966 44.5389 48.2931 44.3911C48.1897 44.2432 48.0492 44.125 47.8718 44.0363C47.7092 43.9328 47.5096 43.8441 47.2731 43.7702C47.0514 43.6815 46.8075 43.6076 46.5414 43.5484C46.2901 43.4745 46.024 43.3932 45.7431 43.3045C45.3735 43.201 45.004 43.0754 44.6344 42.9275C44.2648 42.7797 43.9322 42.5875 43.6365 42.351C43.3557 42.1145 43.1265 41.8188 42.9491 41.464C42.7717 41.1092 42.683 40.6658 42.683 40.1336C42.683 39.4683 42.8383 38.9066 43.1487 38.4483C43.4739 37.9753 43.9396 37.6131 44.5457 37.3618C45.1518 37.1105 45.8835 36.9848 46.7409 36.9848C47.0366 36.9848 47.3175 37.007 47.5836 37.0513C47.8644 37.0957 48.1305 37.1622 48.3818 37.2509C48.6479 37.3248 48.8992 37.4209 49.1358 37.5392C49.3871 37.6574 49.6236 37.7905 49.8453 37.9383C50.2149 38.1453 50.4071 38.3892 50.4219 38.6701C50.4367 38.9362 50.3332 39.2244 50.1114 39.5349C49.9488 39.7418 49.7862 39.8897 49.6236 39.9784C49.461 40.0523 49.291 40.0523 49.1136 39.9784C48.8771 39.8601 48.6184 39.7344 48.3375 39.6014C48.0714 39.4536 47.7905 39.3279 47.4949 39.2244C47.214 39.1209 46.9183 39.0692 46.6079 39.0692C46.3122 39.0692 46.0461 39.1136 45.8096 39.2023C45.5731 39.291 45.3957 39.4166 45.2774 39.5792C45.1592 39.7418 45.1 39.934 45.1 40.1558C45.1 40.3627 45.1592 40.5327 45.2774 40.6658C45.3957 40.7988 45.5509 40.9097 45.7431 40.9984C45.9353 41.0871 46.1644 41.1684 46.4305 41.2423C46.6966 41.3014 46.9775 41.3606 47.2731 41.4197C47.687 41.5084 48.1084 41.6193 48.5371 41.7523C48.9658 41.8853 49.3575 42.0701 49.7123 42.3067C50.0819 42.5432 50.3775 42.861 50.5993 43.2602C50.821 43.6445 50.9319 44.1471 50.9319 44.768C50.9319 45.8472 50.5327 46.6824 49.7345 47.2737C48.951 47.865 47.8644 48.1607 46.4748 48.1607Z" fill="#27235C" stroke="#27235C" stroke-width="0.2"/>
<path d="M36.0075 48.1604C35.0466 48.1604 34.204 48.0051 33.4796 47.6947C32.7701 47.3843 32.1714 46.9629 31.6835 46.4308C31.2105 45.8838 30.8483 45.2777 30.597 44.6125C30.3605 43.9324 30.2422 43.2303 30.2422 42.5059C30.2422 41.4415 30.4861 40.4954 30.9739 39.6676C31.4618 38.8397 32.1344 38.1893 32.9918 37.7162C33.864 37.2432 34.8618 37.0067 35.9853 37.0067C36.7836 37.0067 37.4858 37.1323 38.0919 37.3836C38.698 37.6349 39.2006 37.9675 39.5997 38.3815C40.0137 38.7806 40.3241 39.2241 40.5311 39.7119C40.7528 40.1998 40.8637 40.6728 40.8637 41.1311C40.8637 41.9146 40.6715 42.4837 40.2871 42.8385C39.9176 43.1933 39.4519 43.3707 38.8902 43.3707H33.0362C33.0509 43.8733 33.2062 44.3094 33.5018 44.679C33.8123 45.0486 34.1966 45.3368 34.6549 45.5438C35.1279 45.736 35.6084 45.832 36.0962 45.832C36.4658 45.832 36.791 45.8099 37.0719 45.7655C37.3675 45.7212 37.6188 45.6694 37.8258 45.6103C38.0328 45.5364 38.2102 45.4625 38.358 45.3886C38.5206 45.3146 38.6684 45.2481 38.8015 45.189C38.9345 45.1299 39.0602 45.0929 39.1784 45.0781C39.341 45.0633 39.5037 45.1003 39.6663 45.189C39.8289 45.2777 39.9619 45.4329 40.0654 45.6547C40.1541 45.8025 40.2132 45.9429 40.2428 46.076C40.2871 46.1942 40.3093 46.3125 40.3093 46.4308C40.3093 46.7264 40.1319 47.0073 39.7771 47.2734C39.4223 47.5247 38.9197 47.7317 38.2693 47.8943C37.6336 48.0717 36.8797 48.1604 36.0075 48.1604ZM33.0362 41.7963H37.5819C37.8332 41.7963 38.0254 41.7594 38.1584 41.6854C38.2915 41.5967 38.358 41.4193 38.358 41.1533C38.358 40.8133 38.2545 40.5102 38.0475 40.2441C37.8406 39.9632 37.5597 39.7489 37.2049 39.6011C36.8501 39.4384 36.4362 39.3571 35.9632 39.3571C35.4162 39.3571 34.921 39.468 34.4775 39.6897C34.034 39.8967 33.6792 40.185 33.4131 40.5545C33.1618 40.9241 33.0362 41.338 33.0362 41.7963Z" fill="#27235C" stroke="#27235C" stroke-width="0.2"/>
<path d="M28.0917 48.0281C27.5448 48.0281 27.0569 47.9911 26.6282 47.9172C26.2143 47.8433 25.8521 47.7176 25.5417 47.5402C25.246 47.3629 25.0021 47.1263 24.8099 46.8307C24.6178 46.5202 24.4699 46.1433 24.3664 45.6998C24.2777 45.2563 24.2334 44.7241 24.2334 44.1032V33.4152C24.2334 33.1639 24.2556 32.9421 24.2999 32.75C24.3591 32.543 24.4773 32.3804 24.6547 32.2621C24.8469 32.1291 25.1499 32.0625 25.5639 32.0625C25.9778 32.0625 26.2734 32.1217 26.4508 32.2399C26.643 32.3582 26.7613 32.5208 26.8056 32.7278C26.8647 32.92 26.8943 33.1417 26.8943 33.393V43.9923C26.8943 44.2732 26.9091 44.5098 26.9387 44.7019C26.983 44.8793 27.0495 45.0272 27.1382 45.1454C27.2417 45.2489 27.3674 45.3228 27.5152 45.3672C27.6778 45.4115 27.87 45.4337 28.0917 45.4337C28.2839 45.4337 28.4539 45.4559 28.6017 45.5002C28.7643 45.5446 28.89 45.6554 28.9787 45.8328C29.0822 46.0102 29.1339 46.2985 29.1339 46.6976C29.1339 47.1115 29.0822 47.4146 28.9787 47.6068C28.89 47.7989 28.7643 47.9172 28.6017 47.9616C28.4391 48.0059 28.2691 48.0281 28.0917 48.0281Z" fill="#27235C" stroke="#27235C" stroke-width="0.2"/>
<path d="M20.52 48.0278C20.1209 48.0278 19.8252 47.9613 19.6331 47.8282C19.4409 47.71 19.3226 47.5547 19.2783 47.3626C19.2339 47.1556 19.2117 46.9265 19.2117 46.6751V38.4263C19.2117 38.1898 19.2339 37.9754 19.2783 37.7832C19.3374 37.5763 19.4557 37.4137 19.6331 37.2954C19.8252 37.1771 20.1283 37.118 20.5422 37.118C20.9561 37.118 21.2518 37.1771 21.4292 37.2954C21.6214 37.4137 21.7396 37.5763 21.784 37.7832C21.8283 37.9902 21.8505 38.2193 21.8505 38.4706V46.6973C21.8505 46.9486 21.8283 47.1778 21.784 47.3847C21.7396 47.5769 21.6214 47.7321 21.4292 47.8504C21.2518 47.9687 20.9487 48.0278 20.52 48.0278ZM20.52 34.9671C20.0913 34.9671 19.7735 34.908 19.5665 34.7897C19.3744 34.6566 19.2487 34.4793 19.1896 34.2575C19.1452 34.0358 19.123 33.7918 19.123 33.5258C19.123 33.2449 19.1452 33.001 19.1896 32.794C19.2487 32.587 19.3817 32.4244 19.5887 32.3062C19.7957 32.1731 20.1135 32.1066 20.5422 32.1066C20.9857 32.1066 21.3035 32.1731 21.4957 32.3062C21.6879 32.4392 21.8135 32.6166 21.8727 32.8384C21.9318 33.0453 21.9614 33.2892 21.9614 33.5701C21.9614 33.8214 21.9318 34.0579 21.8727 34.2797C21.8135 34.5014 21.6879 34.6714 21.4957 34.7897C21.3035 34.908 20.9783 34.9671 20.52 34.9671Z" fill="#27235C" stroke="#27235C" stroke-width="0.2"/>
<path d="M2.30828 48.0054C1.92393 48.0054 1.63566 47.9463 1.44349 47.828C1.25131 47.7097 1.12565 47.5471 1.06652 47.3402C1.02217 47.1332 1 46.9041 1 46.6528V33.8582C1 33.6216 1.02217 33.4073 1.06652 33.2151C1.12565 33.0082 1.25131 32.8455 1.44349 32.7273C1.63566 32.5942 1.93871 32.5277 2.35263 32.5277C2.66307 32.5277 2.89221 32.5499 3.04004 32.5942C3.20265 32.6238 3.3283 32.6755 3.417 32.7495C3.5057 32.8086 3.59439 32.8899 3.68309 32.9934L9.09362 40.5548H8.58361L14.0163 32.9712C14.1198 32.8529 14.2233 32.7642 14.3268 32.7051C14.4302 32.646 14.5633 32.6016 14.7259 32.5721C14.8885 32.5425 15.1029 32.5277 15.369 32.5277C15.7681 32.5277 16.0637 32.5942 16.2559 32.7273C16.4481 32.8455 16.5664 33.0082 16.6107 33.2151C16.6698 33.4221 16.6994 33.6512 16.6994 33.9025V46.6971C16.6994 46.9189 16.6698 47.1332 16.6107 47.3402C16.5664 47.5471 16.4481 47.7097 16.2559 47.828C16.0637 47.9463 15.7607 48.0054 15.3468 48.0054C14.9476 48.0054 14.652 47.9389 14.4598 47.8058C14.2676 47.6876 14.142 47.525 14.0828 47.318C14.0385 47.111 14.0163 46.8893 14.0163 46.6528V37.14L9.98059 42.9718C9.93625 43.031 9.86972 43.1123 9.78103 43.2157C9.69233 43.3044 9.57407 43.3858 9.42624 43.4597C9.27841 43.5336 9.07884 43.5705 8.82753 43.5705C8.591 43.5705 8.39883 43.5336 8.251 43.4597C8.10317 43.3858 7.98491 43.3044 7.89621 43.2157C7.8223 43.127 7.74838 43.0384 7.67447 42.9497L3.66092 37.14V46.6971C3.66092 46.9189 3.63135 47.1332 3.57222 47.3402C3.52787 47.5471 3.40961 47.7097 3.21743 47.828C3.02525 47.9463 2.7222 48.0054 2.30828 48.0054Z" fill="#27235C" stroke="#27235C" stroke-width="0.2"/>
</svg>
