<svg width="360" height="220" viewBox="0 0 360 220" fill="none" xmlns="http://www.w3.org/2000/svg">
<path d="M164.656 160.708C164.656 159.332 165.772 158.215 167.149 158.215H339.17C340.547 158.215 341.663 159.332 341.663 160.708V160.708C341.663 162.085 340.547 163.202 339.17 163.202H167.149C165.772 163.202 164.656 162.085 164.656 160.708V160.708Z" fill="#FFBB00"/>
<path d="M24.4755 142.324V136.289C23.4748 134.741 22.5322 133.214 21.6475 131.709C20.7628 130.203 19.9289 128.727 19.1458 127.28H21.6257C22.1768 128.467 22.7932 129.675 23.4748 130.905C24.1565 132.121 24.8599 133.293 25.585 134.422C26.2956 133.293 26.9918 132.121 27.6734 130.905C28.355 129.675 28.9786 128.467 29.5443 127.28H31.8937C31.1106 128.727 30.2766 130.203 29.392 131.709C28.5073 133.199 27.5719 134.712 26.5857 136.246V142.324H24.4755Z" fill="#27235C"/>
<path d="M42.68 136.68C42.68 137.577 42.5495 138.388 42.2885 139.111C42.0274 139.835 41.6576 140.457 41.179 140.978C40.7149 141.499 40.1566 141.904 39.5039 142.194C38.8513 142.469 38.1407 142.606 37.372 142.606C36.6034 142.606 35.8927 142.469 35.2401 142.194C34.5875 141.904 34.0219 141.499 33.5433 140.978C33.0792 140.457 32.7166 139.835 32.4556 139.111C32.1945 138.388 32.064 137.577 32.064 136.68C32.064 135.797 32.1945 134.994 32.4556 134.27C32.7166 133.532 33.0792 132.903 33.5433 132.382C34.0219 131.861 34.5875 131.463 35.2401 131.188C35.8927 130.898 36.6034 130.753 37.372 130.753C38.1407 130.753 38.8513 130.898 39.5039 131.188C40.1566 131.463 40.7149 131.861 41.179 132.382C41.6576 132.903 42.0274 133.532 42.2885 134.27C42.5495 134.994 42.68 135.797 42.68 136.68ZM40.5699 136.68C40.5699 135.406 40.2798 134.4 39.6997 133.662C39.1341 132.91 38.3582 132.533 37.372 132.533C36.3858 132.533 35.6027 132.91 35.0226 133.662C34.457 134.4 34.1742 135.406 34.1742 136.68C34.1742 137.953 34.457 138.966 35.0226 139.719C35.6027 140.457 36.3858 140.826 37.372 140.826C38.3582 140.826 39.1341 140.457 39.6997 139.719C40.2798 138.966 40.5699 137.953 40.5699 136.68Z" fill="#27235C"/>
<path d="M54.5327 141.998C54.0686 142.114 53.4522 142.237 52.6836 142.368C51.9294 142.498 51.052 142.563 50.0513 142.563C49.1811 142.563 48.4488 142.44 47.8541 142.194C47.2595 141.933 46.7809 141.572 46.4184 141.108C46.0558 140.645 45.7947 140.103 45.6352 139.48C45.4757 138.843 45.3959 138.142 45.3959 137.375V131.036H47.4191V136.94C47.4191 138.315 47.6366 139.299 48.0717 139.893C48.5068 140.486 49.2392 140.783 50.2689 140.783C50.4864 140.783 50.7112 140.776 50.9432 140.761C51.1753 140.747 51.3928 140.732 51.5959 140.718C51.7989 140.689 51.9802 140.667 52.1397 140.653C52.3138 140.624 52.437 140.595 52.5095 140.566V131.036H54.5327V141.998Z" fill="#27235C"/>
<path d="M62.1949 130.797C62.3689 130.797 62.5647 130.811 62.7823 130.84C63.0143 130.855 63.2391 130.884 63.4567 130.927C63.6742 130.956 63.87 130.992 64.044 131.036C64.2326 131.065 64.3703 131.093 64.4573 131.122L64.1093 132.881C63.9498 132.823 63.6814 132.758 63.3044 132.685C62.9418 132.599 62.4705 132.555 61.8904 132.555C61.5133 132.555 61.1362 132.599 60.7591 132.685C60.3966 132.758 60.1573 132.808 60.0412 132.837V142.324H58.0181V131.513C58.4967 131.339 59.0913 131.18 59.802 131.036C60.5126 130.876 61.3102 130.797 62.1949 130.797Z" fill="#27235C"/>
<path d="M81.0599 127.28H83.17V142.324H81.0599V135.377H73.6852V142.324H71.5751V127.28H73.6852V133.554H81.0599V127.28Z" fill="#27235C"/>
<path d="M96.7681 136.68C96.7681 137.577 96.6376 138.388 96.3765 139.111C96.1155 139.835 95.7457 140.457 95.2671 140.978C94.803 141.499 94.2446 141.904 93.592 142.194C92.9394 142.469 92.2287 142.606 91.4601 142.606C90.6914 142.606 89.9808 142.469 89.3282 142.194C88.6755 141.904 88.1099 141.499 87.6313 140.978C87.1673 140.457 86.8047 139.835 86.5436 139.111C86.2826 138.388 86.1521 137.577 86.1521 136.68C86.1521 135.797 86.2826 134.994 86.5436 134.27C86.8047 133.532 87.1673 132.903 87.6313 132.382C88.1099 131.861 88.6755 131.463 89.3282 131.188C89.9808 130.898 90.6914 130.753 91.4601 130.753C92.2287 130.753 92.9394 130.898 93.592 131.188C94.2446 131.463 94.803 131.861 95.2671 132.382C95.7457 132.903 96.1155 133.532 96.3765 134.27C96.6376 134.994 96.7681 135.797 96.7681 136.68ZM94.6579 136.68C94.6579 135.406 94.3679 134.4 93.7878 133.662C93.2222 132.91 92.4463 132.533 91.4601 132.533C90.4739 132.533 89.6907 132.91 89.1106 133.662C88.545 134.4 88.2622 135.406 88.2622 136.68C88.2622 137.953 88.545 138.966 89.1106 139.719C89.6907 140.457 90.4739 140.826 91.4601 140.826C92.4463 140.826 93.2222 140.457 93.7878 139.719C94.3679 138.966 94.6579 137.953 94.6579 136.68Z" fill="#27235C"/>
<path d="M102.247 140.87C103.073 140.87 103.683 140.761 104.074 140.544C104.48 140.327 104.683 139.98 104.683 139.502C104.683 139.01 104.487 138.619 104.096 138.33C103.704 138.04 103.059 137.715 102.16 137.353C101.725 137.179 101.304 137.005 100.898 136.832C100.506 136.644 100.166 136.427 99.8756 136.181C99.5855 135.934 99.3534 135.638 99.1794 135.29C99.0054 134.943 98.9184 134.516 98.9184 134.01C98.9184 133.011 99.2882 132.222 100.028 131.643C100.767 131.05 101.775 130.753 103.052 130.753C103.371 130.753 103.69 130.775 104.009 130.818C104.328 130.847 104.625 130.891 104.901 130.949C105.176 130.992 105.416 131.043 105.619 131.101C105.836 131.159 106.003 131.209 106.119 131.253L105.749 132.989C105.532 132.874 105.191 132.758 104.727 132.642C104.263 132.512 103.704 132.447 103.052 132.447C102.486 132.447 101.993 132.562 101.572 132.794C101.152 133.011 100.942 133.358 100.942 133.836C100.942 134.082 100.985 134.299 101.072 134.487C101.174 134.675 101.319 134.849 101.507 135.008C101.71 135.153 101.957 135.29 102.247 135.421C102.537 135.551 102.885 135.688 103.291 135.833C103.828 136.036 104.306 136.238 104.727 136.441C105.147 136.629 105.503 136.853 105.793 137.114C106.097 137.375 106.329 137.693 106.489 138.069C106.648 138.431 106.728 138.88 106.728 139.415C106.728 140.457 106.337 141.246 105.553 141.781C104.785 142.317 103.683 142.585 102.247 142.585C101.246 142.585 100.463 142.498 99.8973 142.324C99.3317 142.165 98.9474 142.042 98.7443 141.955L99.1142 140.218C99.3462 140.305 99.716 140.435 100.224 140.609C100.731 140.783 101.406 140.87 102.247 140.87Z" fill="#27235C"/>
<path d="M111.216 131.036H115.501V132.729H111.216V137.939C111.216 138.503 111.259 138.974 111.346 139.35C111.433 139.712 111.564 140.001 111.738 140.218C111.912 140.421 112.129 140.566 112.39 140.653C112.652 140.739 112.956 140.783 113.304 140.783C113.913 140.783 114.399 140.718 114.762 140.587C115.139 140.443 115.4 140.341 115.545 140.283L115.936 141.955C115.733 142.056 115.378 142.179 114.87 142.324C114.363 142.483 113.783 142.563 113.13 142.563C112.361 142.563 111.723 142.469 111.216 142.281C110.723 142.078 110.324 141.781 110.019 141.391C109.715 141 109.497 140.522 109.367 139.958C109.251 139.379 109.193 138.713 109.193 137.961V127.888L111.216 127.54V131.036Z" fill="#27235C"/>
<path d="M120.099 142.324H118.076V131.036H120.099V142.324ZM119.077 128.995C118.714 128.995 118.402 128.879 118.141 128.648C117.895 128.402 117.771 128.076 117.771 127.671C117.771 127.265 117.895 126.947 118.141 126.716C118.402 126.47 118.714 126.346 119.077 126.346C119.439 126.346 119.744 126.47 119.99 126.716C120.251 126.947 120.382 127.265 120.382 127.671C120.382 128.076 120.251 128.402 119.99 128.648C119.744 128.879 119.439 128.995 119.077 128.995Z" fill="#27235C"/>
<path d="M123.578 131.361C124.042 131.245 124.659 131.122 125.427 130.992C126.196 130.862 127.081 130.797 128.081 130.797C128.98 130.797 129.727 130.927 130.322 131.188C130.917 131.434 131.388 131.788 131.736 132.251C132.098 132.7 132.352 133.243 132.497 133.879C132.642 134.516 132.715 135.218 132.715 135.985V142.324H130.692V136.419C130.692 135.725 130.641 135.131 130.539 134.639C130.452 134.147 130.3 133.749 130.083 133.445C129.865 133.141 129.575 132.924 129.212 132.794C128.85 132.649 128.4 132.577 127.864 132.577C127.646 132.577 127.421 132.584 127.189 132.599C126.957 132.613 126.732 132.635 126.515 132.664C126.312 132.678 126.123 132.7 125.949 132.729C125.79 132.758 125.674 132.78 125.601 132.794V142.324H123.578V131.361Z" fill="#27235C"/>
<path d="M143.162 141.195C142.988 141.311 142.647 141.463 142.139 141.651C141.646 141.825 141.066 141.912 140.399 141.912C139.717 141.912 139.072 141.803 138.463 141.586C137.868 141.369 137.346 141.036 136.896 140.587C136.447 140.124 136.092 139.553 135.83 138.872C135.569 138.192 135.439 137.382 135.439 136.441C135.439 135.616 135.562 134.864 135.809 134.183C136.055 133.489 136.411 132.895 136.875 132.403C137.353 131.897 137.933 131.506 138.615 131.231C139.297 130.941 140.065 130.797 140.921 130.797C141.864 130.797 142.683 130.869 143.379 131.014C144.09 131.144 144.684 131.267 145.163 131.383V141.456C145.163 143.192 144.713 144.452 143.814 145.233C142.915 146.015 141.552 146.405 139.724 146.405C139.014 146.405 138.339 146.347 137.701 146.232C137.078 146.116 136.534 145.978 136.07 145.819L136.44 144.061C136.846 144.22 137.339 144.357 137.919 144.473C138.513 144.603 139.13 144.669 139.768 144.669C140.972 144.669 141.835 144.43 142.357 143.952C142.893 143.475 143.162 142.715 143.162 141.673V141.195ZM143.14 132.816C142.937 132.758 142.661 132.707 142.313 132.664C141.98 132.606 141.523 132.577 140.943 132.577C139.855 132.577 139.014 132.931 138.419 133.641C137.839 134.35 137.549 135.29 137.549 136.463C137.549 137.114 137.629 137.671 137.788 138.134C137.962 138.597 138.187 138.981 138.463 139.285C138.753 139.589 139.079 139.813 139.442 139.958C139.819 140.103 140.203 140.175 140.595 140.175C141.131 140.175 141.624 140.103 142.074 139.958C142.524 139.799 142.879 139.618 143.14 139.415V132.816Z" fill="#27235C"/>
<path d="M150.778 139.849C150.793 139.965 150.8 140.081 150.8 140.197C150.8 140.298 150.8 140.406 150.8 140.522C150.8 141.434 150.662 142.331 150.387 143.214C150.126 144.111 149.763 144.965 149.299 145.776L147.733 145.276C148.095 144.538 148.335 143.786 148.451 143.019C148.567 142.266 148.625 141.557 148.625 140.891C148.625 140.703 148.617 140.522 148.603 140.349C148.603 140.175 148.596 140.008 148.581 139.849H150.778Z" fill="#27235C"/>
<path d="M158.556 134.791C158.556 133.503 158.745 132.367 159.122 131.383C159.513 130.399 160.036 129.581 160.688 128.93C161.355 128.264 162.124 127.765 162.994 127.432C163.879 127.099 164.814 126.933 165.8 126.933C166.772 126.933 167.686 127.099 168.541 127.432C169.412 127.765 170.173 128.264 170.826 128.93C171.478 129.581 171.993 130.399 172.37 131.383C172.762 132.367 172.958 133.503 172.958 134.791C172.958 136.079 172.762 137.215 172.37 138.199C171.993 139.184 171.478 140.008 170.826 140.674C170.173 141.325 169.412 141.818 168.541 142.15C167.686 142.483 166.772 142.65 165.8 142.65C164.814 142.65 163.879 142.483 162.994 142.15C162.124 141.818 161.355 141.325 160.688 140.674C160.036 140.008 159.513 139.184 159.122 138.199C158.745 137.215 158.556 136.079 158.556 134.791ZM160.775 134.791C160.775 135.703 160.891 136.535 161.123 137.288C161.355 138.026 161.682 138.655 162.102 139.176C162.537 139.697 163.059 140.103 163.669 140.392C164.292 140.667 164.988 140.804 165.757 140.804C166.526 140.804 167.214 140.667 167.824 140.392C168.433 140.103 168.948 139.697 169.368 139.176C169.803 138.655 170.137 138.026 170.369 137.288C170.601 136.535 170.717 135.703 170.717 134.791C170.717 133.879 170.601 133.054 170.369 132.316C170.137 131.564 169.803 130.927 169.368 130.406C168.948 129.885 168.433 129.487 167.824 129.212C167.214 128.923 166.526 128.778 165.757 128.778C164.988 128.778 164.292 128.923 163.669 129.212C163.059 129.487 162.537 129.885 162.102 130.406C161.682 130.927 161.355 131.564 161.123 132.316C160.891 133.054 160.775 133.879 160.775 134.791Z" fill="#27235C"/>
<path d="M184.973 141.998C184.509 142.114 183.892 142.237 183.124 142.368C182.37 142.498 181.492 142.563 180.491 142.563C179.621 142.563 178.889 142.44 178.294 142.194C177.7 141.933 177.221 141.572 176.859 141.108C176.496 140.645 176.235 140.103 176.075 139.48C175.916 138.843 175.836 138.142 175.836 137.375V131.036H177.859V136.94C177.859 138.315 178.077 139.299 178.512 139.893C178.947 140.486 179.679 140.783 180.709 140.783C180.927 140.783 181.151 140.776 181.383 140.761C181.615 140.747 181.833 140.732 182.036 140.718C182.239 140.689 182.42 140.667 182.58 140.653C182.754 140.624 182.877 140.595 182.95 140.566V131.036H184.973V141.998Z" fill="#27235C"/>
<path d="M192.635 130.797C192.809 130.797 193.005 130.811 193.222 130.84C193.454 130.855 193.679 130.884 193.897 130.927C194.114 130.956 194.31 130.992 194.484 131.036C194.673 131.065 194.81 131.093 194.898 131.122L194.549 132.881C194.39 132.823 194.122 132.758 193.745 132.685C193.382 132.599 192.911 132.555 192.331 132.555C191.953 132.555 191.576 132.599 191.199 132.685C190.837 132.758 190.597 132.808 190.481 132.837V142.324H188.458V131.513C188.937 131.339 189.531 131.18 190.242 131.036C190.953 130.876 191.75 130.797 192.635 130.797Z" fill="#27235C"/>
<path d="M209.39 136.029C209.622 136.318 209.912 136.702 210.26 137.179C210.623 137.642 210.992 138.163 211.37 138.742C211.747 139.307 212.116 139.9 212.479 140.522C212.856 141.145 213.175 141.745 213.436 142.324H211.13C210.84 141.774 210.521 141.217 210.173 140.653C209.839 140.088 209.499 139.553 209.151 139.046C208.803 138.525 208.454 138.04 208.106 137.592C207.773 137.143 207.468 136.752 207.193 136.419C207.004 136.434 206.808 136.441 206.605 136.441C206.417 136.441 206.221 136.441 206.018 136.441H204.125V142.324H202.015V127.497C202.61 127.352 203.27 127.258 203.995 127.215C204.734 127.157 205.409 127.128 206.018 127.128C208.135 127.128 209.745 127.526 210.847 128.322C211.964 129.118 212.522 130.305 212.522 131.882C212.522 132.881 212.254 133.735 211.718 134.444C211.195 135.153 210.42 135.681 209.39 136.029ZM206.192 128.973C205.293 128.973 204.604 128.995 204.125 129.038V134.704H205.626C206.352 134.704 207.004 134.668 207.584 134.596C208.164 134.523 208.65 134.386 209.042 134.183C209.448 133.981 209.76 133.699 209.977 133.337C210.195 132.96 210.304 132.468 210.304 131.861C210.304 131.296 210.195 130.826 209.977 130.449C209.76 130.073 209.462 129.776 209.085 129.559C208.723 129.342 208.288 129.19 207.78 129.103C207.287 129.017 206.758 128.973 206.192 128.973Z" fill="#27235C"/>
<path d="M214.935 136.702C214.935 135.703 215.08 134.835 215.37 134.096C215.66 133.344 216.045 132.722 216.523 132.23C217.002 131.737 217.553 131.368 218.177 131.122C218.8 130.876 219.438 130.753 220.091 130.753C221.614 130.753 222.781 131.231 223.593 132.186C224.405 133.127 224.812 134.567 224.812 136.506C224.812 136.593 224.812 136.709 224.812 136.853C224.812 136.984 224.804 137.107 224.79 137.223H217.045C217.132 138.395 217.473 139.285 218.068 139.893C218.662 140.501 219.591 140.804 220.852 140.804C221.563 140.804 222.158 140.747 222.636 140.631C223.129 140.501 223.499 140.378 223.746 140.262L224.028 141.955C223.782 142.085 223.347 142.223 222.723 142.368C222.114 142.512 221.418 142.585 220.635 142.585C219.649 142.585 218.793 142.44 218.068 142.15C217.357 141.846 216.77 141.434 216.306 140.913C215.842 140.392 215.494 139.777 215.261 139.068C215.044 138.344 214.935 137.555 214.935 136.702ZM222.701 135.594C222.716 134.683 222.484 133.937 222.005 133.358C221.541 132.765 220.896 132.468 220.069 132.468C219.605 132.468 219.192 132.562 218.829 132.751C218.481 132.924 218.184 133.156 217.937 133.445C217.691 133.735 217.495 134.068 217.35 134.444C217.219 134.82 217.132 135.204 217.089 135.594H222.701Z" fill="#27235C"/>
<path d="M230.35 140.87C231.177 140.87 231.786 140.761 232.177 140.544C232.583 140.327 232.787 139.98 232.787 139.502C232.787 139.01 232.591 138.619 232.199 138.33C231.808 138.04 231.162 137.715 230.263 137.353C229.828 137.179 229.407 137.005 229.001 136.832C228.61 136.644 228.269 136.427 227.979 136.181C227.689 135.934 227.457 135.638 227.283 135.29C227.109 134.943 227.022 134.516 227.022 134.01C227.022 133.011 227.391 132.222 228.131 131.643C228.871 131.05 229.879 130.753 231.155 130.753C231.474 130.753 231.793 130.775 232.112 130.818C232.431 130.847 232.729 130.891 233.004 130.949C233.28 130.992 233.519 131.043 233.722 131.101C233.939 131.159 234.106 131.209 234.222 131.253L233.852 132.989C233.635 132.874 233.294 132.758 232.83 132.642C232.366 132.512 231.808 132.447 231.155 132.447C230.589 132.447 230.096 132.562 229.676 132.794C229.255 133.011 229.045 133.358 229.045 133.836C229.045 134.082 229.088 134.299 229.175 134.487C229.277 134.675 229.422 134.849 229.61 135.008C229.813 135.153 230.06 135.29 230.35 135.421C230.64 135.551 230.988 135.688 231.394 135.833C231.931 136.036 232.409 136.238 232.83 136.441C233.251 136.629 233.606 136.853 233.896 137.114C234.201 137.375 234.433 137.693 234.592 138.069C234.752 138.431 234.831 138.88 234.831 139.415C234.831 140.457 234.44 141.246 233.657 141.781C232.888 142.317 231.786 142.585 230.35 142.585C229.349 142.585 228.566 142.498 228.001 142.324C227.435 142.165 227.051 142.042 226.848 141.955L227.217 140.218C227.449 140.305 227.819 140.435 228.327 140.609C228.834 140.783 229.509 140.87 230.35 140.87Z" fill="#27235C"/>
<path d="M245.28 136.702C245.28 135.385 244.953 134.371 244.301 133.662C243.648 132.953 242.778 132.599 241.69 132.599C241.081 132.599 240.603 132.62 240.254 132.664C239.921 132.707 239.653 132.758 239.45 132.816V139.936C239.696 140.139 240.051 140.334 240.516 140.522C240.98 140.71 241.487 140.804 242.038 140.804C242.618 140.804 243.112 140.703 243.518 140.501C243.938 140.283 244.279 139.994 244.54 139.632C244.801 139.256 244.99 138.822 245.106 138.33C245.222 137.823 245.28 137.28 245.28 136.702ZM247.39 136.702C247.39 137.555 247.274 138.344 247.042 139.068C246.824 139.791 246.498 140.414 246.063 140.935C245.628 141.456 245.091 141.861 244.453 142.15C243.829 142.44 243.112 142.585 242.299 142.585C241.647 142.585 241.067 142.498 240.559 142.324C240.066 142.15 239.696 141.984 239.45 141.825V146.34H237.426V131.383C237.905 131.267 238.5 131.144 239.21 131.014C239.935 130.869 240.769 130.797 241.712 130.797C242.582 130.797 243.365 130.934 244.061 131.209C244.758 131.484 245.352 131.875 245.845 132.382C246.338 132.888 246.715 133.51 246.977 134.248C247.252 134.972 247.39 135.79 247.39 136.702Z" fill="#27235C"/>
<path d="M260.222 136.68C260.222 137.577 260.091 138.388 259.83 139.111C259.569 139.835 259.2 140.457 258.721 140.978C258.257 141.499 257.698 141.904 257.046 142.194C256.393 142.469 255.683 142.606 254.914 142.606C254.145 142.606 253.435 142.469 252.782 142.194C252.129 141.904 251.564 141.499 251.085 140.978C250.621 140.457 250.259 139.835 249.997 139.111C249.736 138.388 249.606 137.577 249.606 136.68C249.606 135.797 249.736 134.994 249.997 134.27C250.259 133.532 250.621 132.903 251.085 132.382C251.564 131.861 252.129 131.463 252.782 131.188C253.435 130.898 254.145 130.753 254.914 130.753C255.683 130.753 256.393 130.898 257.046 131.188C257.698 131.463 258.257 131.861 258.721 132.382C259.2 132.903 259.569 133.532 259.83 134.27C260.091 134.994 260.222 135.797 260.222 136.68ZM258.112 136.68C258.112 135.406 257.822 134.4 257.242 133.662C256.676 132.91 255.9 132.533 254.914 132.533C253.928 132.533 253.145 132.91 252.564 133.662C251.999 134.4 251.716 135.406 251.716 136.68C251.716 137.953 251.999 138.966 252.564 139.719C253.145 140.457 253.928 140.826 254.914 140.826C255.9 140.826 256.676 140.457 257.242 139.719C257.822 138.966 258.112 137.953 258.112 136.68Z" fill="#27235C"/>
<path d="M263.068 131.361C263.532 131.245 264.149 131.122 264.917 130.992C265.686 130.862 266.571 130.797 267.571 130.797C268.471 130.797 269.218 130.927 269.812 131.188C270.407 131.434 270.878 131.788 271.226 132.251C271.589 132.7 271.843 133.243 271.988 133.879C272.133 134.516 272.205 135.218 272.205 135.985V142.324H270.182V136.419C270.182 135.725 270.131 135.131 270.03 134.639C269.943 134.147 269.79 133.749 269.573 133.445C269.355 133.141 269.065 132.924 268.703 132.794C268.34 132.649 267.891 132.577 267.354 132.577C267.136 132.577 266.912 132.584 266.68 132.599C266.447 132.613 266.223 132.635 266.005 132.664C265.802 132.678 265.614 132.7 265.44 132.729C265.28 132.758 265.164 132.78 265.091 132.794V142.324H263.068V131.361Z" fill="#27235C"/>
<path d="M278.192 140.87C279.019 140.87 279.628 140.761 280.02 140.544C280.426 140.327 280.629 139.98 280.629 139.502C280.629 139.01 280.433 138.619 280.041 138.33C279.65 138.04 279.004 137.715 278.105 137.353C277.67 137.179 277.25 137.005 276.844 136.832C276.452 136.644 276.111 136.427 275.821 136.181C275.531 135.934 275.299 135.638 275.125 135.29C274.951 134.943 274.864 134.516 274.864 134.01C274.864 133.011 275.234 132.222 275.973 131.643C276.713 131.05 277.721 130.753 278.997 130.753C279.316 130.753 279.635 130.775 279.954 130.818C280.273 130.847 280.571 130.891 280.846 130.949C281.122 130.992 281.361 131.043 281.564 131.101C281.782 131.159 281.948 131.209 282.065 131.253L281.695 132.989C281.477 132.874 281.136 132.758 280.672 132.642C280.208 132.512 279.65 132.447 278.997 132.447C278.432 132.447 277.938 132.562 277.518 132.794C277.097 133.011 276.887 133.358 276.887 133.836C276.887 134.082 276.931 134.299 277.018 134.487C277.119 134.675 277.264 134.849 277.453 135.008C277.656 135.153 277.902 135.29 278.192 135.421C278.482 135.551 278.83 135.688 279.236 135.833C279.773 136.036 280.252 136.238 280.672 136.441C281.093 136.629 281.448 136.853 281.738 137.114C282.043 137.375 282.275 137.693 282.434 138.069C282.594 138.431 282.674 138.88 282.674 139.415C282.674 140.457 282.282 141.246 281.499 141.781C280.73 142.317 279.628 142.585 278.192 142.585C277.192 142.585 276.408 142.498 275.843 142.324C275.277 142.165 274.893 142.042 274.69 141.955L275.06 140.218C275.292 140.305 275.662 140.435 276.169 140.609C276.677 140.783 277.351 140.87 278.192 140.87Z" fill="#27235C"/>
<path d="M287.292 142.324H285.269V131.036H287.292V142.324ZM286.269 128.995C285.907 128.995 285.595 128.879 285.334 128.648C285.087 128.402 284.964 128.076 284.964 127.671C284.964 127.265 285.087 126.947 285.334 126.716C285.595 126.47 285.907 126.346 286.269 126.346C286.632 126.346 286.936 126.47 287.183 126.716C287.444 126.947 287.575 127.265 287.575 127.671C287.575 128.076 287.444 128.402 287.183 128.648C286.936 128.879 286.632 128.995 286.269 128.995Z" fill="#27235C"/>
<path d="M292.794 131.535C293.041 131.376 293.41 131.209 293.904 131.036C294.411 130.862 294.991 130.775 295.644 130.775C296.456 130.775 297.174 130.92 297.798 131.209C298.436 131.499 298.972 131.904 299.407 132.425C299.842 132.946 300.169 133.568 300.386 134.292C300.618 135.015 300.734 135.811 300.734 136.68C300.734 137.592 300.597 138.417 300.321 139.155C300.06 139.878 299.683 140.493 299.19 141C298.697 141.506 298.102 141.897 297.406 142.172C296.71 142.447 295.927 142.585 295.057 142.585C294.114 142.585 293.28 142.519 292.555 142.389C291.83 142.259 291.235 142.129 290.771 141.998V125.825L292.794 125.478V131.535ZM292.794 140.566C292.997 140.624 293.28 140.681 293.642 140.739C294.02 140.783 294.484 140.804 295.035 140.804C296.122 140.804 296.993 140.45 297.645 139.741C298.298 139.017 298.624 137.997 298.624 136.68C298.624 136.101 298.566 135.558 298.45 135.052C298.334 134.545 298.146 134.111 297.885 133.749C297.624 133.373 297.283 133.083 296.862 132.881C296.456 132.664 295.963 132.555 295.383 132.555C294.832 132.555 294.324 132.649 293.86 132.837C293.396 133.026 293.041 133.221 292.794 133.424V140.566Z" fill="#27235C"/>
<path d="M305.604 142.324H303.581V131.036H305.604V142.324ZM304.582 128.995C304.219 128.995 303.908 128.879 303.647 128.648C303.4 128.402 303.277 128.076 303.277 127.671C303.277 127.265 303.4 126.947 303.647 126.716C303.908 126.47 304.219 126.346 304.582 126.346C304.945 126.346 305.249 126.47 305.496 126.716C305.757 126.947 305.887 127.265 305.887 127.671C305.887 128.076 305.757 128.402 305.496 128.648C305.249 128.879 304.945 128.995 304.582 128.995Z" fill="#27235C"/>
<path d="M312.477 142.541C311.23 142.512 310.345 142.244 309.823 141.738C309.301 141.231 309.04 140.443 309.04 139.372V125.825L311.063 125.478V139.046C311.063 139.379 311.092 139.654 311.15 139.871C311.208 140.088 311.302 140.262 311.433 140.392C311.564 140.522 311.738 140.624 311.955 140.696C312.173 140.754 312.441 140.804 312.76 140.848L312.477 142.541Z" fill="#27235C"/>
<path d="M317.055 142.324H315.032V131.036H317.055V142.324ZM316.033 128.995C315.67 128.995 315.358 128.879 315.097 128.648C314.851 128.402 314.727 128.076 314.727 127.671C314.727 127.265 314.851 126.947 315.097 126.716C315.358 126.47 315.67 126.346 316.033 126.346C316.395 126.346 316.7 126.47 316.946 126.716C317.207 126.947 317.338 127.265 317.338 127.671C317.338 128.076 317.207 128.402 316.946 128.648C316.7 128.879 316.395 128.995 316.033 128.995Z" fill="#27235C"/>
<path d="M322.427 131.036H326.712V132.729H322.427V137.939C322.427 138.503 322.47 138.974 322.557 139.35C322.644 139.712 322.775 140.001 322.949 140.218C323.123 140.421 323.341 140.566 323.602 140.653C323.863 140.739 324.167 140.783 324.515 140.783C325.124 140.783 325.61 140.718 325.973 140.587C326.35 140.443 326.611 140.341 326.756 140.283L327.148 141.955C326.944 142.056 326.589 142.179 326.082 142.324C325.574 142.483 324.994 142.563 324.341 142.563C323.573 142.563 322.934 142.469 322.427 142.281C321.934 142.078 321.535 141.781 321.23 141.391C320.926 141 320.708 140.522 320.578 139.958C320.462 139.379 320.404 138.713 320.404 137.961V127.888L322.427 127.54V131.036Z" fill="#27235C"/>
<path d="M327.96 144.43C328.119 144.502 328.322 144.567 328.569 144.625C328.83 144.698 329.084 144.734 329.33 144.734C330.128 144.734 330.752 144.553 331.201 144.191C331.651 143.844 332.057 143.272 332.42 142.476C331.506 140.739 330.65 138.901 329.853 136.962C329.069 135.008 328.417 133.033 327.895 131.036H330.07C330.23 131.687 330.418 132.389 330.636 133.141C330.868 133.894 331.122 134.668 331.397 135.464C331.673 136.26 331.97 137.056 332.289 137.852C332.608 138.648 332.942 139.415 333.29 140.153C333.841 138.634 334.319 137.128 334.725 135.638C335.132 134.147 335.516 132.613 335.878 131.036H337.967C337.445 133.163 336.865 135.211 336.226 137.179C335.588 139.133 334.899 140.964 334.16 142.671C333.87 143.323 333.565 143.88 333.246 144.343C332.942 144.821 332.601 145.211 332.224 145.515C331.847 145.819 331.419 146.044 330.94 146.188C330.476 146.333 329.947 146.405 329.352 146.405C329.193 146.405 329.026 146.391 328.852 146.362C328.678 146.347 328.504 146.318 328.33 146.275C328.17 146.246 328.018 146.21 327.873 146.167C327.742 146.123 327.648 146.087 327.59 146.058L327.96 144.43Z" fill="#27235C"/>
<path d="M341.9 141.152C341.9 141.543 341.77 141.883 341.509 142.172C341.247 142.462 340.892 142.606 340.443 142.606C339.993 142.606 339.638 142.462 339.377 142.172C339.116 141.883 338.985 141.543 338.985 141.152C338.985 140.761 339.116 140.421 339.377 140.132C339.638 139.842 339.993 139.697 340.443 139.697C340.892 139.697 341.247 139.842 341.509 140.132C341.77 140.421 341.9 140.761 341.9 141.152Z" fill="#27235C"/>
<path d="M324.342 110.74C321.855 110.74 319.621 110.258 317.642 109.294C315.713 108.278 314.063 106.908 312.693 105.182C311.373 103.456 310.358 101.477 309.647 99.2433C308.987 96.9591 308.657 94.5227 308.657 91.934C308.708 89.3453 309.089 86.9342 309.799 84.7009C310.51 82.4167 311.525 80.4371 312.845 78.7621C314.215 77.0363 315.865 75.6912 317.794 74.7268C319.723 73.7623 321.905 73.2801 324.342 73.2801C326.677 73.2801 328.859 73.7623 330.89 74.7268C332.971 75.6912 334.798 77.0363 336.372 78.7621C337.996 80.4371 339.265 82.4167 340.179 84.7009C341.092 86.9342 341.549 89.3199 341.549 91.8579C341.549 94.4973 341.092 96.9845 340.179 99.3194C339.265 101.604 338.021 103.609 336.448 105.334C334.874 107.009 333.047 108.329 330.966 109.294C328.885 110.258 326.677 110.74 324.342 110.74ZM323.124 101.832C324.9 101.832 326.499 101.426 327.92 100.614C329.342 99.7509 330.458 98.5834 331.27 97.1114C332.133 95.6394 332.565 93.9643 332.565 92.0863C332.565 90.1574 332.133 88.457 331.27 86.985C330.458 85.4622 329.342 84.2948 327.92 83.4826C326.499 82.6197 324.9 82.1883 323.124 82.1883C321.398 82.1883 319.824 82.6197 318.403 83.4826C316.982 84.3455 315.84 85.513 314.977 86.985C314.165 88.457 313.759 90.1574 313.759 92.0863C313.759 93.9643 314.165 95.6394 314.977 97.1114C315.84 98.5834 316.982 99.7509 318.403 100.614C319.824 101.426 321.398 101.832 323.124 101.832ZM309.038 110.816C307.668 110.816 306.652 110.588 305.993 110.131C305.333 109.725 304.927 109.192 304.774 108.532C304.622 107.822 304.546 107.035 304.546 106.172V60.7935C304.546 59.9306 304.622 59.1692 304.774 58.5093C304.927 57.7987 305.333 57.2403 305.993 56.8343C306.652 56.4282 307.668 56.2252 309.038 56.2252C310.459 56.2252 311.474 56.4282 312.084 56.8343C312.693 57.2403 313.073 57.7987 313.226 58.5093C313.378 59.2199 313.454 59.9813 313.454 60.7935V107.695C313.251 108.811 312.82 109.598 312.16 110.055C311.551 110.562 310.51 110.816 309.038 110.816Z" fill="#27235C" stroke="#27235C" stroke-width="0.2"/>
<path d="M281.853 111.274C278.554 111.274 275.66 110.741 273.173 109.675C270.737 108.609 268.681 107.163 267.006 105.335C265.382 103.457 264.138 101.376 263.275 99.092C262.463 96.7571 262.057 94.3461 262.057 91.8589C262.057 88.2043 262.894 84.9557 264.569 82.1132C266.245 79.2707 268.554 77.0373 271.498 75.413C274.493 73.7888 277.919 72.9766 281.777 72.9766C284.518 72.9766 286.929 73.4081 289.01 74.271C291.091 75.1339 292.817 76.2759 294.187 77.6972C295.608 79.0677 296.674 80.5904 297.385 82.2655C298.146 83.9405 298.527 85.5648 298.527 87.1383C298.527 89.8285 297.867 91.7828 296.548 93.001C295.279 94.2192 293.68 94.8283 291.751 94.8283H271.65C271.701 96.5541 272.234 98.0515 273.249 99.3205C274.315 100.589 275.635 101.579 277.208 102.29C278.833 102.95 280.482 103.28 282.157 103.28C283.426 103.28 284.543 103.204 285.507 103.051C286.523 102.899 287.386 102.721 288.096 102.518C288.807 102.264 289.416 102.011 289.924 101.757C290.482 101.503 290.989 101.275 291.446 101.072C291.903 100.869 292.335 100.742 292.741 100.691C293.299 100.64 293.857 100.767 294.416 101.072C294.974 101.376 295.431 101.909 295.786 102.671C296.091 103.178 296.294 103.66 296.395 104.117C296.548 104.523 296.624 104.929 296.624 105.335C296.624 106.351 296.015 107.315 294.796 108.229C293.578 109.092 291.852 109.802 289.619 110.36C287.436 110.97 284.848 111.274 281.853 111.274ZM271.65 89.4225H287.259C288.122 89.4225 288.781 89.2956 289.238 89.0418C289.695 88.7372 289.924 88.1281 289.924 87.2145C289.924 86.047 289.568 85.0065 288.858 84.0928C288.147 83.1284 287.183 82.3924 285.964 81.8848C284.746 81.3264 283.325 81.0473 281.701 81.0473C279.823 81.0473 278.122 81.428 276.599 82.1893C275.077 82.9 273.858 83.8898 272.945 85.1587C272.082 86.4277 271.65 87.849 271.65 89.4225Z" fill="#27235C" stroke="#27235C" stroke-width="0.2"/>
<path d="M213.735 110.591C212.719 110.591 211.907 110.413 211.298 110.058C210.689 109.652 210.232 109.195 209.928 108.687C209.674 108.18 209.496 107.748 209.395 107.393L194.472 63.6896C193.964 62.0653 193.888 60.8471 194.243 60.035C194.598 59.1721 195.639 58.4615 197.365 57.9031C198.532 57.497 199.471 57.3194 200.182 57.3701C200.893 57.4209 201.476 57.7255 201.933 58.2838C202.441 58.7914 202.872 59.6035 203.227 60.7202L214.191 93.9165L224.013 61.0248C224.165 60.5172 224.369 60.0096 224.622 59.502C224.927 58.9437 225.384 58.4868 225.993 58.1315C226.602 57.7762 227.439 57.5986 228.505 57.5986C229.724 57.5986 230.637 57.8016 231.246 58.2077C231.855 58.6137 232.287 59.0706 232.541 59.5781C232.845 60.035 233.048 60.4664 233.15 60.8725L242.972 94.1449L254.012 60.7964C254.367 59.6289 254.773 58.766 255.23 58.2077C255.738 57.6493 256.372 57.3448 257.133 57.294C257.895 57.1925 258.834 57.3448 259.951 57.7508C261.118 58.1569 261.955 58.6137 262.463 59.1213C262.971 59.5782 263.224 60.1873 263.224 60.9486C263.224 61.6593 263.047 62.5729 262.691 63.6896L247.845 107.469C247.743 107.774 247.54 108.18 247.235 108.687C246.982 109.195 246.55 109.652 245.941 110.058C245.332 110.413 244.494 110.591 243.428 110.591C242.363 110.591 241.525 110.362 240.916 109.906C240.307 109.449 239.85 108.941 239.545 108.383C239.241 107.824 239.038 107.418 238.936 107.165L228.582 73.6637L218.227 107.088C218.125 107.444 217.922 107.901 217.618 108.459C217.364 109.017 216.932 109.525 216.323 109.982C215.714 110.388 214.851 110.591 213.735 110.591Z" fill="#27235C" stroke="#27235C" stroke-width="0.2"/>
<path d="M174.145 111.275C172.825 111.275 171.429 111.123 169.957 110.818C168.485 110.564 167.064 110.183 165.693 109.676C164.323 109.118 163.13 108.483 162.115 107.772C161.15 107.011 160.541 106.174 160.287 105.26C160.084 104.752 160.008 104.27 160.059 103.813C160.11 103.306 160.262 102.798 160.516 102.29C160.77 101.732 161.15 101.174 161.658 100.615C162.115 100.057 162.571 99.7525 163.028 99.7018C163.536 99.6003 164.17 99.7525 164.932 100.159C165.592 100.412 166.302 100.742 167.064 101.148C167.876 101.554 168.688 101.961 169.5 102.367C170.363 102.773 171.226 103.103 172.089 103.356C173.002 103.61 173.891 103.737 174.754 103.737C176.632 103.737 178.129 103.433 179.246 102.823C180.362 102.164 180.921 101.25 180.921 100.082C180.921 99.4226 180.743 98.8389 180.388 98.3313C180.033 97.8237 179.55 97.4176 178.941 97.1131C178.383 96.7578 177.698 96.4532 176.885 96.1994C176.124 95.8949 175.287 95.6411 174.373 95.438C173.51 95.1842 172.596 94.9051 171.632 94.6005C170.363 94.2452 169.094 93.8138 167.825 93.3062C166.556 92.7986 165.414 92.1387 164.399 91.3266C163.434 90.5144 162.648 89.4993 162.039 88.281C161.429 87.0628 161.125 85.5401 161.125 83.7128C161.125 81.4286 161.658 79.4998 162.724 77.9262C163.84 76.302 165.439 75.0584 167.52 74.1955C169.602 73.3326 172.114 72.9011 175.058 72.9011C176.073 72.9011 177.038 72.9773 177.951 73.1295C178.916 73.2818 179.83 73.5102 180.692 73.8148C181.606 74.0686 182.469 74.3985 183.281 74.8046C184.144 75.2107 184.956 75.6675 185.718 76.1751C186.987 76.8857 187.646 77.7232 187.697 78.6876C187.748 79.6013 187.393 80.5911 186.631 81.657C186.073 82.3676 185.515 82.8752 184.956 83.1798C184.398 83.4336 183.814 83.4336 183.205 83.1798C182.393 82.7737 181.505 82.3423 180.54 81.8854C179.626 81.3778 178.662 80.9464 177.647 80.5911C176.682 80.2358 175.667 80.0581 174.601 80.0581C173.586 80.0581 172.673 80.2104 171.86 80.5149C171.048 80.8195 170.439 81.2509 170.033 81.8093C169.627 82.3676 169.424 83.0275 169.424 83.7889C169.424 84.4995 169.627 85.0832 170.033 85.5401C170.439 85.9969 170.972 86.3776 171.632 86.6821C172.292 86.9867 173.079 87.2659 173.992 87.5197C174.906 87.7227 175.87 87.9257 176.885 88.1288C178.307 88.4333 179.753 88.814 181.225 89.2708C182.697 89.7277 184.043 90.3622 185.261 91.1743C186.53 91.9864 187.545 93.0778 188.306 94.4482C189.068 95.768 189.448 97.4938 189.448 99.6256C189.448 103.331 188.078 106.199 185.337 108.229C182.647 110.26 178.916 111.275 174.145 111.275Z" fill="#27235C" stroke="#27235C" stroke-width="0.2"/>
<path d="M138.202 111.274C134.903 111.274 132.009 110.741 129.522 109.675C127.086 108.609 125.03 107.162 123.355 105.335C121.731 103.457 120.487 101.376 119.624 99.0915C118.812 96.7566 118.406 94.3456 118.406 91.8584C118.406 88.2038 119.244 84.9552 120.919 82.1127C122.594 79.2702 124.903 77.0368 127.847 75.4126C130.842 73.7883 134.268 72.9761 138.126 72.9761C140.867 72.9761 143.278 73.4076 145.359 74.2705C147.44 75.1334 149.166 76.2755 150.536 77.6967C151.958 79.0672 153.024 80.59 153.734 82.265C154.496 83.94 154.876 85.5643 154.876 87.1378C154.876 89.8281 154.216 91.7823 152.897 93.0005C151.628 94.2187 150.029 94.8278 148.1 94.8278H127.999C128.05 96.5536 128.583 98.051 129.598 99.32C130.664 100.589 131.984 101.579 133.558 102.289C135.182 102.949 136.831 103.279 138.507 103.279C139.775 103.279 140.892 103.203 141.857 103.051C142.872 102.898 143.735 102.721 144.445 102.518C145.156 102.264 145.765 102.01 146.273 101.756C146.831 101.503 147.339 101.274 147.795 101.071C148.252 100.868 148.684 100.741 149.09 100.69C149.648 100.64 150.206 100.767 150.765 101.071C151.323 101.376 151.78 101.909 152.135 102.67C152.44 103.178 152.643 103.66 152.744 104.117C152.897 104.523 152.973 104.929 152.973 105.335C152.973 106.35 152.364 107.314 151.145 108.228C149.927 109.091 148.201 109.802 145.968 110.36C143.785 110.969 141.197 111.274 138.202 111.274ZM127.999 89.422H143.608C144.471 89.422 145.131 89.2951 145.587 89.0413C146.044 88.7367 146.273 88.1276 146.273 87.214C146.273 86.0465 145.917 85.006 145.207 84.0923C144.496 83.1279 143.532 82.3919 142.313 81.8843C141.095 81.326 139.674 81.0468 138.05 81.0468C136.172 81.0468 134.471 81.4275 132.948 82.1889C131.426 82.8995 130.207 83.8893 129.294 85.1583C128.431 86.4272 127.999 87.8485 127.999 89.422Z" fill="#27235C" stroke="#27235C" stroke-width="0.2"/>
<path d="M111.021 110.82C109.143 110.82 107.468 110.693 105.996 110.439C104.574 110.185 103.331 109.754 102.265 109.144C101.25 108.535 100.412 107.723 99.7523 106.708C99.0924 105.642 98.5848 104.348 98.2295 102.825C97.925 101.302 97.7727 99.4749 97.7727 97.3431V60.6444C97.7727 59.7815 97.8488 59.0201 98.0011 58.3603C98.2042 57.6497 98.6102 57.0913 99.2193 56.6852C99.8792 56.2284 100.92 56 102.341 56C103.762 56 104.777 56.203 105.387 56.6091C106.046 57.0152 106.452 57.5735 106.605 58.2841C106.808 58.944 106.909 59.7054 106.909 60.5683V96.9624C106.909 97.9268 106.96 98.7389 107.062 99.3988C107.214 100.008 107.442 100.515 107.747 100.922C108.102 101.277 108.534 101.531 109.041 101.683C109.6 101.835 110.259 101.911 111.021 101.911C111.681 101.911 112.264 101.987 112.772 102.14C113.33 102.292 113.762 102.673 114.066 103.282C114.422 103.891 114.599 104.881 114.599 106.251C114.599 107.672 114.422 108.713 114.066 109.373C113.762 110.033 113.33 110.439 112.772 110.591C112.214 110.743 111.63 110.82 111.021 110.82Z" fill="#27235C" stroke="#27235C" stroke-width="0.2"/>
<path d="M85.0257 110.819C83.6552 110.819 82.64 110.59 81.9802 110.133C81.3203 109.727 80.9142 109.194 80.762 108.534C80.6097 107.824 80.5336 107.037 80.5336 106.174V77.8506C80.5336 77.0385 80.6097 76.3025 80.762 75.6426C80.965 74.932 81.3711 74.3737 81.9802 73.9676C82.64 73.5615 83.6806 73.3585 85.1019 73.3585C86.5231 73.3585 87.5383 73.5615 88.1474 73.9676C88.8073 74.3737 89.2133 74.932 89.3656 75.6426C89.5179 76.3533 89.594 77.14 89.594 78.0029V106.25C89.594 107.113 89.5179 107.9 89.3656 108.61C89.2133 109.27 88.8073 109.803 88.1474 110.209C87.5383 110.615 86.4977 110.819 85.0257 110.819ZM85.0257 65.9731C83.5537 65.9731 82.4624 65.77 81.7518 65.364C81.0919 64.9071 80.6604 64.298 80.4574 63.5367C80.3051 62.7753 80.229 61.9377 80.229 61.0241C80.229 60.0597 80.3051 59.2222 80.4574 58.5115C80.6604 57.8009 81.1173 57.2426 81.8279 56.8365C82.5385 56.3797 83.6298 56.1512 85.1019 56.1512C86.6246 56.1512 87.7159 56.3797 88.3758 56.8365C89.0357 57.2933 89.4671 57.9024 89.6702 58.6638C89.8732 59.3744 89.9747 60.212 89.9747 61.1764C89.9747 62.0393 89.8732 62.8514 89.6702 63.6128C89.4671 64.3742 89.0357 64.9579 88.3758 65.364C87.7159 65.77 86.5992 65.9731 85.0257 65.9731Z" fill="#27235C" stroke="#27235C" stroke-width="0.2"/>
<path d="M22.4922 110.742C21.1724 110.742 20.1826 110.539 19.5228 110.133C18.8629 109.726 18.4315 109.168 18.2284 108.457C18.0761 107.747 18 106.96 18 106.097V62.1655C18 61.3533 18.0761 60.6173 18.2284 59.9574C18.4315 59.2468 18.8629 58.6885 19.5228 58.2824C20.1826 57.8256 21.2232 57.5972 22.6444 57.5972C23.7104 57.5972 24.4971 57.6733 25.0047 57.8256C25.5631 57.9271 25.9945 58.1048 26.2991 58.3585C26.6036 58.5616 26.9082 58.8408 27.2127 59.1961L45.7905 85.1592H44.0393L62.6932 59.1199C63.0485 58.7139 63.4038 58.4093 63.7591 58.2063C64.1144 58.0032 64.5713 57.851 65.1296 57.7494C65.688 57.6479 66.424 57.5972 67.3376 57.5972C68.7081 57.5972 69.7233 57.8256 70.3832 58.2824C71.043 58.6885 71.4491 59.2468 71.6014 59.9574C71.8044 60.6681 71.9059 61.4548 71.9059 62.3177V106.249C71.9059 107.011 71.8044 107.747 71.6014 108.457C71.4491 109.168 71.043 109.726 70.3832 110.133C69.7233 110.539 68.6827 110.742 67.2615 110.742C65.891 110.742 64.8758 110.513 64.216 110.056C63.5561 109.65 63.1246 109.092 62.9216 108.381C62.7693 107.671 62.6932 106.909 62.6932 106.097V73.4339L48.836 93.4583C48.6837 93.6613 48.4553 93.9405 48.1508 94.2958C47.8462 94.6003 47.4402 94.8795 46.9326 95.1333C46.425 95.3871 45.7397 95.514 44.8768 95.514C44.0647 95.514 43.4048 95.3871 42.8972 95.1333C42.3896 94.8795 41.9836 94.6003 41.679 94.2958C41.4252 93.9912 41.1714 93.6867 40.9176 93.3821L27.1366 73.4339V106.249C27.1366 107.011 27.0351 107.747 26.832 108.457C26.6798 109.168 26.2737 109.726 25.6138 110.133C24.954 110.539 23.9134 110.742 22.4922 110.742Z" fill="#27235C" stroke="#27235C" stroke-width="0.2"/>
</svg>
