<svg width="137" height="42" viewBox="0 0 137 42" fill="none" xmlns="http://www.w3.org/2000/svg">
<path d="M64.3097 38.005C64.3097 37.5468 64.681 37.1755 65.1392 37.1755H122.375C122.834 37.1755 123.205 37.5468 123.205 38.005V38.005C123.205 38.4631 122.834 38.8345 122.375 38.8345H65.1392C64.681 38.8345 64.3097 38.4631 64.3097 38.005V38.005Z" fill="#FFBB00"/>
<path d="M119.771 32.418C119.826 32.4429 119.895 32.4653 119.98 32.4852C120.069 32.5101 120.157 32.5226 120.241 32.5226C120.515 32.5226 120.729 32.4603 120.883 32.3359C121.038 32.2165 121.177 32.0199 121.301 31.7461C120.988 31.1489 120.694 30.5168 120.42 29.8499C120.152 29.178 119.928 28.4986 119.748 27.8118H120.495C120.55 28.0357 120.614 28.2771 120.689 28.5359C120.769 28.7947 120.856 29.061 120.95 29.3347C121.045 29.6085 121.147 29.8822 121.257 30.156C121.366 30.4297 121.48 30.6935 121.6 30.9473C121.789 30.4247 121.953 29.9071 122.093 29.3945C122.232 28.8818 122.364 28.3543 122.488 27.8118H123.205C123.026 28.5434 122.827 29.2477 122.608 29.9245C122.389 30.5964 122.152 31.226 121.899 31.8133C121.799 32.0373 121.695 32.2289 121.585 32.3882C121.48 32.5524 121.364 32.6868 121.234 32.7913C121.105 32.8958 120.958 32.973 120.794 33.0228C120.634 33.0725 120.453 33.0974 120.249 33.0974C120.194 33.0974 120.137 33.0924 120.077 33.0825C120.017 33.0775 119.958 33.0675 119.898 33.0526C119.843 33.0427 119.791 33.0302 119.741 33.0153C119.696 33.0004 119.664 32.9879 119.644 32.978L119.771 32.418Z" fill="#27235C"/>
<path d="M117.872 27.8118H119.343V28.3941H117.872V30.1858C117.872 30.38 117.887 30.5417 117.917 30.6711C117.947 30.7955 117.991 30.8951 118.051 30.9697C118.111 31.0394 118.186 31.0892 118.275 31.119C118.365 31.1489 118.469 31.1638 118.589 31.1638C118.798 31.1638 118.964 31.1414 119.089 31.0966C119.218 31.0469 119.308 31.012 119.358 30.9921L119.492 31.567C119.422 31.6018 119.3 31.6441 119.126 31.6939C118.952 31.7486 118.753 31.776 118.529 31.776C118.265 31.776 118.046 31.7437 117.872 31.679C117.703 31.6093 117.566 31.5073 117.461 31.3729C117.357 31.2385 117.282 31.0743 117.237 30.8801C117.198 30.6811 117.178 30.4521 117.178 30.1933V26.7293L117.872 26.6098V27.8118Z" fill="#27235C"/>
<path d="M116.028 31.6939H115.334V27.8118H116.028V31.6939ZM115.678 27.11C115.553 27.11 115.446 27.0702 115.356 26.9906C115.272 26.906 115.23 26.794 115.23 26.6546C115.23 26.5153 115.272 26.4058 115.356 26.3261C115.446 26.2415 115.553 26.1992 115.678 26.1992C115.802 26.1992 115.906 26.2415 115.991 26.3261C116.081 26.4058 116.125 26.5153 116.125 26.6546C116.125 26.794 116.081 26.906 115.991 26.9906C115.906 27.0702 115.802 27.11 115.678 27.11Z" fill="#27235C"/>
<path d="M114.457 31.7685C114.029 31.7586 113.726 31.6665 113.547 31.4923C113.367 31.3181 113.278 31.0469 113.278 30.6786V26.02L113.972 25.9006V30.5666C113.972 30.6811 113.982 30.7756 114.002 30.8503C114.022 30.9249 114.054 30.9847 114.099 31.0295C114.144 31.0742 114.204 31.1091 114.278 31.134C114.353 31.1539 114.445 31.1713 114.555 31.1862L114.457 31.7685Z" fill="#27235C"/>
<path d="M111.815 31.6939H111.121V27.8118H111.815V31.6939ZM111.464 27.11C111.34 27.11 111.233 27.0702 111.143 26.9906C111.058 26.9059 111.016 26.794 111.016 26.6546C111.016 26.5152 111.058 26.4058 111.143 26.3261C111.233 26.2415 111.34 26.1992 111.464 26.1992C111.588 26.1992 111.693 26.2415 111.778 26.3261C111.867 26.4058 111.912 26.5152 111.912 26.6546C111.912 26.794 111.867 26.9059 111.778 26.9906C111.693 27.0702 111.588 27.11 111.464 27.11Z" fill="#27235C"/>
<path d="M107.27 27.9835C107.354 27.9287 107.481 27.8715 107.651 27.8118C107.825 27.7521 108.024 27.7222 108.248 27.7222C108.527 27.7222 108.773 27.772 108.987 27.8715C109.206 27.971 109.39 28.1104 109.539 28.2896C109.689 28.4688 109.801 28.6828 109.875 28.9316C109.955 29.1805 109.995 29.4542 109.995 29.7528C109.995 30.0664 109.948 30.3501 109.853 30.6039C109.763 30.8528 109.634 31.0643 109.465 31.2385C109.296 31.4127 109.091 31.5471 108.853 31.6416C108.614 31.7362 108.345 31.7835 108.046 31.7835C107.723 31.7835 107.437 31.7611 107.188 31.7163C106.939 31.6715 106.735 31.6267 106.576 31.5819V26.02L107.27 25.9006V27.9835ZM107.27 31.0892C107.34 31.1091 107.437 31.129 107.561 31.1489C107.69 31.1638 107.85 31.1713 108.039 31.1713C108.412 31.1713 108.711 31.0494 108.935 30.8055C109.159 30.5566 109.271 30.2057 109.271 29.7528C109.271 29.5538 109.251 29.3671 109.211 29.1929C109.171 29.0187 109.106 28.8694 109.017 28.745C108.927 28.6156 108.81 28.516 108.666 28.4464C108.527 28.3717 108.357 28.3344 108.158 28.3344C107.969 28.3344 107.795 28.3667 107.636 28.4314C107.476 28.4961 107.354 28.5633 107.27 28.633V31.0892Z" fill="#27235C"/>
<path d="M105.382 31.6939H104.687V27.8118H105.382V31.6939ZM105.031 27.11C104.906 27.11 104.799 27.0702 104.71 26.9906C104.625 26.9059 104.583 26.794 104.583 26.6546C104.583 26.5152 104.625 26.4058 104.71 26.3261C104.799 26.2415 104.906 26.1992 105.031 26.1992C105.155 26.1992 105.26 26.2415 105.344 26.3261C105.434 26.4058 105.479 26.5152 105.479 26.6546C105.479 26.794 105.434 26.9059 105.344 26.9906C105.26 27.0702 105.155 27.11 105.031 27.11Z" fill="#27235C"/>
<path d="M102.259 31.1937C102.542 31.1937 102.751 31.1563 102.886 31.0817C103.025 31.007 103.095 30.8876 103.095 30.7233C103.095 30.5541 103.028 30.4197 102.893 30.3202C102.759 30.2207 102.537 30.1087 102.229 29.9842C102.079 29.9245 101.935 29.8648 101.796 29.8051C101.661 29.7404 101.544 29.6657 101.445 29.5811C101.345 29.4965 101.266 29.3945 101.206 29.275C101.146 29.1556 101.116 29.0087 101.116 28.8345C101.116 28.4911 101.243 28.2199 101.497 28.0208C101.751 27.8167 102.097 27.7147 102.535 27.7147C102.644 27.7147 102.754 27.7222 102.863 27.7371C102.973 27.7471 103.075 27.762 103.169 27.7819C103.264 27.7968 103.346 27.8142 103.416 27.8342C103.49 27.8541 103.548 27.8715 103.587 27.8864L103.461 28.4837C103.386 28.4438 103.269 28.404 103.11 28.3642C102.95 28.3194 102.759 28.297 102.535 28.297C102.341 28.297 102.172 28.3368 102.027 28.4165C101.883 28.4911 101.811 28.6106 101.811 28.7748C101.811 28.8594 101.826 28.9341 101.855 28.9988C101.89 29.0635 101.94 29.1232 102.005 29.178C102.074 29.2277 102.159 29.275 102.259 29.3198C102.358 29.3646 102.478 29.4119 102.617 29.4617C102.801 29.5313 102.965 29.601 103.11 29.6707C103.254 29.7354 103.376 29.8125 103.475 29.9021C103.58 29.9917 103.66 30.1012 103.714 30.2306C103.769 30.355 103.797 30.5093 103.797 30.6935C103.797 31.0518 103.662 31.3231 103.393 31.5072C103.13 31.6914 102.751 31.7835 102.259 31.7835C101.915 31.7835 101.646 31.7536 101.452 31.6939C101.258 31.6391 101.126 31.5968 101.057 31.567L101.184 30.9697C101.263 30.9996 101.39 31.0444 101.564 31.1041C101.738 31.1638 101.97 31.1937 102.259 31.1937Z" fill="#27235C"/>
<path d="M97.0684 27.9238C97.2277 27.8839 97.4392 27.8416 97.703 27.7968C97.9668 27.752 98.2704 27.7296 98.6138 27.7296C98.9224 27.7296 99.1787 27.7744 99.3828 27.864C99.5868 27.9486 99.7486 28.0706 99.868 28.2298C99.9924 28.3841 100.08 28.5708 100.129 28.7898C100.179 29.0087 100.204 29.2501 100.204 29.5139V31.6939H99.5097V29.6632C99.5097 29.4243 99.4922 29.2203 99.4574 29.0511C99.4275 28.8818 99.3753 28.745 99.3006 28.6404C99.226 28.5359 99.1264 28.4613 99.002 28.4165C98.8776 28.3667 98.7233 28.3418 98.5391 28.3418C98.4645 28.3418 98.3873 28.3443 98.3077 28.3493C98.2281 28.3543 98.1509 28.3617 98.0763 28.3717C98.0066 28.3767 97.9419 28.3841 97.8822 28.3941C97.8274 28.404 97.7876 28.4115 97.7627 28.4165V31.6939H97.0684V27.9238Z" fill="#27235C"/>
<path d="M96.0918 29.7528C96.0918 30.0614 96.047 30.3401 95.9574 30.589C95.8678 30.8378 95.7409 31.0518 95.5767 31.231C95.4174 31.4102 95.2258 31.5495 95.0018 31.6491C94.7779 31.7436 94.534 31.7909 94.2702 31.7909C94.0064 31.7909 93.7625 31.7436 93.5386 31.6491C93.3146 31.5495 93.1205 31.4102 92.9563 31.231C92.797 31.0518 92.6726 30.8378 92.583 30.589C92.4934 30.3401 92.4486 30.0614 92.4486 29.7528C92.4486 29.4492 92.4934 29.173 92.583 28.9241C92.6726 28.6703 92.797 28.4538 92.9563 28.2746C93.1205 28.0955 93.3146 27.9586 93.5386 27.864C93.7625 27.7645 94.0064 27.7147 94.2702 27.7147C94.534 27.7147 94.7779 27.7645 95.0018 27.864C95.2258 27.9586 95.4174 28.0955 95.5767 28.2746C95.7409 28.4538 95.8678 28.6703 95.9574 28.9241C96.047 29.173 96.0918 29.4492 96.0918 29.7528ZM95.3676 29.7528C95.3676 29.3148 95.2681 28.9689 95.069 28.7151C94.8749 28.4563 94.6086 28.3269 94.2702 28.3269C93.9318 28.3269 93.663 28.4563 93.4639 28.7151C93.2698 28.9689 93.1728 29.3148 93.1728 29.7528C93.1728 30.1908 93.2698 30.5392 93.4639 30.798C93.663 31.0518 93.9318 31.1787 94.2702 31.1787C94.6086 31.1787 94.8749 31.0518 95.069 30.798C95.2681 30.5392 95.3676 30.1908 95.3676 29.7528Z" fill="#27235C"/>
<path d="M90.964 29.7603C90.964 29.3074 90.852 28.959 90.6281 28.7151C90.4041 28.4712 90.1055 28.3493 89.7322 28.3493C89.5231 28.3493 89.3589 28.3568 89.2394 28.3717C89.125 28.3866 89.0329 28.404 88.9632 28.4239V30.8727C89.0478 30.9423 89.1698 31.0095 89.329 31.0742C89.4883 31.1389 89.6625 31.1713 89.8516 31.1713C90.0507 31.1713 90.2199 31.1364 90.3593 31.0668C90.5036 30.9921 90.6206 30.8926 90.7102 30.7681C90.7998 30.6387 90.8645 30.4894 90.9043 30.3202C90.9441 30.146 90.964 29.9594 90.964 29.7603ZM91.6882 29.7603C91.6882 30.0539 91.6483 30.3252 91.5687 30.574C91.4941 30.8229 91.3821 31.0369 91.2328 31.2161C91.0834 31.3953 90.8993 31.5346 90.6803 31.6342C90.4663 31.7337 90.2199 31.7835 89.9412 31.7835C89.7172 31.7835 89.5182 31.7536 89.344 31.6939C89.1747 31.6341 89.0478 31.5769 88.9632 31.5222V33.075H88.2689V27.9312C88.4332 27.8914 88.6372 27.8491 88.8811 27.8043C89.13 27.7545 89.4161 27.7296 89.7396 27.7296C90.0383 27.7296 90.307 27.7769 90.5459 27.8715C90.7848 27.9661 90.9889 28.1004 91.1581 28.2746C91.3273 28.4488 91.4567 28.6628 91.5463 28.9167C91.6409 29.1655 91.6882 29.4467 91.6882 29.7603Z" fill="#27235C"/>
<path d="M85.8402 31.1937C86.1239 31.1937 86.333 31.1563 86.4673 31.0817C86.6067 31.007 86.6764 30.8876 86.6764 30.7233C86.6764 30.5541 86.6092 30.4197 86.4748 30.3202C86.3404 30.2207 86.119 30.1087 85.8104 29.9842C85.6611 29.9245 85.5167 29.8648 85.3774 29.8051C85.243 29.7404 85.126 29.6657 85.0265 29.5811C84.9269 29.4965 84.8473 29.3945 84.7876 29.275C84.7279 29.1556 84.698 29.0087 84.698 28.8345C84.698 28.4911 84.8249 28.2199 85.0787 28.0208C85.3326 27.8167 85.6785 27.7147 86.1165 27.7147C86.226 27.7147 86.3355 27.7222 86.4449 27.7371C86.5544 27.7471 86.6565 27.762 86.751 27.7819C86.8456 27.7968 86.9277 27.8142 86.9974 27.8342C87.0721 27.8541 87.1293 27.8715 87.1691 27.8864L87.0422 28.4837C86.9675 28.4438 86.8506 28.404 86.6913 28.3642C86.532 28.3194 86.3404 28.297 86.1165 28.297C85.9224 28.297 85.7531 28.3368 85.6088 28.4165C85.4645 28.4911 85.3923 28.6106 85.3923 28.7748C85.3923 28.8594 85.4072 28.9341 85.4371 28.9988C85.4719 29.0635 85.5217 29.1232 85.5864 29.178C85.6561 29.2277 85.7407 29.275 85.8402 29.3198C85.9398 29.3646 86.0592 29.4119 86.1986 29.4617C86.3827 29.5313 86.547 29.601 86.6913 29.6707C86.8356 29.7354 86.9576 29.8125 87.0571 29.9021C87.1616 29.9917 87.2413 30.1012 87.296 30.2306C87.3508 30.355 87.3781 30.5093 87.3781 30.6935C87.3781 31.0518 87.2438 31.3231 86.975 31.5072C86.7112 31.6914 86.333 31.7835 85.8402 31.7835C85.4968 31.7835 85.2281 31.7536 85.0339 31.6939C84.8398 31.6391 84.708 31.5968 84.6383 31.567L84.7652 30.9697C84.8448 30.9996 84.9717 31.0444 85.1459 31.1041C85.3201 31.1638 85.5516 31.1937 85.8402 31.1937Z" fill="#27235C"/>
<path d="M80.5501 29.7603C80.5501 29.4169 80.5999 29.1182 80.6994 28.8644C80.799 28.6056 80.9309 28.3916 81.0951 28.2224C81.2593 28.0531 81.4485 27.9262 81.6625 27.8416C81.8765 27.757 82.0955 27.7147 82.3195 27.7147C82.842 27.7147 83.2427 27.8789 83.5214 28.2074C83.8001 28.5309 83.9395 29.0262 83.9395 29.6931C83.9395 29.723 83.9395 29.7628 83.9395 29.8125C83.9395 29.8573 83.937 29.8996 83.932 29.9395H81.2743C81.3041 30.3426 81.4211 30.6487 81.6252 30.8577C81.8292 31.0668 82.1477 31.1713 82.5807 31.1713C82.8246 31.1713 83.0287 31.1514 83.1929 31.1116C83.3621 31.0668 83.4891 31.0245 83.5737 30.9846L83.6707 31.567C83.5861 31.6117 83.4368 31.659 83.2228 31.7088C83.0138 31.7586 82.7749 31.7835 82.5061 31.7835C82.1677 31.7835 81.874 31.7337 81.6252 31.6341C81.3813 31.5296 81.1797 31.3878 81.0204 31.2086C80.8612 31.0294 80.7417 30.8179 80.6621 30.574C80.5874 30.3252 80.5501 30.0539 80.5501 29.7603ZM83.2153 29.3795C83.2203 29.066 83.1407 28.8097 82.9764 28.6106C82.8172 28.4065 82.5957 28.3045 82.312 28.3045C82.1527 28.3045 82.0109 28.3368 81.8865 28.4015C81.767 28.4613 81.665 28.5409 81.5804 28.6404C81.4957 28.74 81.4286 28.8545 81.3788 28.9839C81.334 29.1133 81.3041 29.2452 81.2892 29.3795H83.2153Z" fill="#27235C"/>
<path d="M78.6472 29.5288C78.7268 29.6284 78.8264 29.7603 78.9458 29.9245C79.0702 30.0838 79.1971 30.2629 79.3265 30.462C79.456 30.6561 79.5829 30.8602 79.7073 31.0742C79.8367 31.2882 79.9462 31.4948 80.0358 31.6939H79.2444C79.1449 31.5047 79.0354 31.3131 78.9159 31.119C78.8015 30.9249 78.6845 30.7407 78.5651 30.5665C78.4456 30.3874 78.3262 30.2206 78.2067 30.0664C78.0922 29.9121 77.9877 29.7777 77.8932 29.6632C77.8285 29.6682 77.7613 29.6707 77.6916 29.6707C77.6269 29.6707 77.5597 29.6707 77.49 29.6707H76.8405V31.6939H76.1163V26.5948C76.3204 26.5451 76.5469 26.5127 76.7957 26.4978C77.0495 26.4779 77.281 26.4679 77.49 26.4679C78.2167 26.4679 78.7691 26.6048 79.1474 26.8785C79.5306 27.1523 79.7222 27.5604 79.7222 28.1029C79.7222 28.4463 79.6302 28.74 79.446 28.9838C79.2668 29.2277 79.0006 29.4094 78.6472 29.5288ZM77.5497 27.1025C77.2412 27.1025 77.0048 27.11 76.8405 27.1249V29.0734H77.3556C77.6045 29.0734 77.8285 29.061 78.0275 29.0361C78.2266 29.0112 78.3934 28.9639 78.5277 28.8943C78.6671 28.8246 78.7741 28.7275 78.8488 28.6031C78.9234 28.4737 78.9607 28.3045 78.9607 28.0954C78.9607 27.9013 78.9234 27.7396 78.8488 27.6102C78.7741 27.4808 78.6721 27.3787 78.5427 27.3041C78.4182 27.2294 78.2689 27.1772 78.0947 27.1473C77.9255 27.1174 77.7438 27.1025 77.5497 27.1025Z" fill="#27235C"/>
<path d="M72.8974 27.7296C72.9571 27.7296 73.0243 27.7346 73.099 27.7446C73.1786 27.7496 73.2557 27.7595 73.3304 27.7744C73.405 27.7844 73.4722 27.7968 73.532 27.8118C73.5967 27.8217 73.6439 27.8317 73.6738 27.8416L73.5544 28.4463C73.4996 28.4264 73.4075 28.404 73.2781 28.3792C73.1537 28.3493 72.9919 28.3344 72.7929 28.3344C72.6635 28.3344 72.5341 28.3493 72.4047 28.3792C72.2802 28.404 72.1981 28.4215 72.1583 28.4314V31.6939H71.464V27.976C71.6282 27.9163 71.8323 27.8615 72.0762 27.8118C72.32 27.757 72.5938 27.7296 72.8974 27.7296Z" fill="#27235C"/>
<path d="M70.2677 31.5819C70.1084 31.6217 69.8969 31.664 69.6331 31.7088C69.3743 31.7536 69.0732 31.776 68.7298 31.776C68.4312 31.776 68.1798 31.7337 67.9758 31.6491C67.7717 31.5595 67.6075 31.4351 67.483 31.2758C67.3586 31.1165 67.269 30.9299 67.2143 30.7159C67.1595 30.4969 67.1322 30.2555 67.1322 29.9917V27.8118H67.8265V29.8424C67.8265 30.3152 67.9011 30.6537 68.0504 30.8577C68.1997 31.0618 68.4511 31.1638 68.8044 31.1638C68.8791 31.1638 68.9562 31.1613 69.0359 31.1564C69.1155 31.1514 69.1902 31.1464 69.2599 31.1414C69.3295 31.1315 69.3917 31.124 69.4465 31.119C69.5062 31.1091 69.5485 31.0991 69.5734 31.0892V27.8118H70.2677V31.5819Z" fill="#27235C"/>
<path d="M61.2022 29.1033C61.2022 28.6603 61.2669 28.2696 61.3963 27.9312C61.5307 27.5927 61.7098 27.3115 61.9338 27.0876C62.1627 26.8586 62.4265 26.6869 62.7251 26.5725C63.0287 26.458 63.3498 26.4007 63.6882 26.4007C64.0217 26.4007 64.3352 26.458 64.6289 26.5725C64.9275 26.6869 65.1888 26.8586 65.4128 27.0876C65.6367 27.3115 65.8134 27.5927 65.9428 27.9312C66.0772 28.2696 66.1444 28.6603 66.1444 29.1033C66.1444 29.5462 66.0772 29.9369 65.9428 30.2754C65.8134 30.6138 65.6367 30.8975 65.4128 31.1265C65.1888 31.3504 64.9275 31.5197 64.6289 31.6341C64.3352 31.7486 64.0217 31.8058 63.6882 31.8058C63.3498 31.8058 63.0287 31.7486 62.7251 31.6341C62.4265 31.5197 62.1627 31.3504 61.9338 31.1265C61.7098 30.8975 61.5307 30.6138 61.3963 30.2754C61.2669 29.9369 61.2022 29.5462 61.2022 29.1033ZM61.9637 29.1033C61.9637 29.4168 62.0035 29.703 62.0831 29.9618C62.1627 30.2157 62.2747 30.4322 62.4191 30.6113C62.5684 30.7905 62.7475 30.9299 62.9566 31.0294C63.1706 31.124 63.4095 31.1713 63.6733 31.1713C63.9371 31.1713 64.1735 31.124 64.3825 31.0294C64.5915 30.9299 64.7682 30.7905 64.9126 30.6113C65.0619 30.4322 65.1763 30.2157 65.256 29.9618C65.3356 29.703 65.3754 29.4168 65.3754 29.1033C65.3754 28.7897 65.3356 28.506 65.256 28.2522C65.1763 27.9934 65.0619 27.7744 64.9126 27.5952C64.7682 27.4161 64.5915 27.2792 64.3825 27.1846C64.1735 27.0851 63.9371 27.0353 63.6733 27.0353C63.4095 27.0353 63.1706 27.0851 62.9566 27.1846C62.7475 27.2792 62.5684 27.4161 62.4191 27.5952C62.2747 27.7744 62.1627 27.9934 62.0831 28.2522C62.0035 28.506 61.9637 28.7897 61.9637 29.1033Z" fill="#27235C"/>
<path d="M57.7564 31.3057C57.6967 31.3455 57.5797 31.3977 57.4055 31.4624C57.2363 31.5222 57.0372 31.552 56.8083 31.552C56.5743 31.552 56.3529 31.5147 56.1438 31.44C55.9398 31.3654 55.7606 31.2509 55.6063 31.0966C55.452 30.9374 55.3301 30.7408 55.2405 30.5068C55.1509 30.2729 55.1061 29.9942 55.1061 29.6707C55.1061 29.387 55.1484 29.1282 55.233 28.8943C55.3176 28.6554 55.4396 28.4513 55.5988 28.2821C55.7631 28.1079 55.9622 27.9735 56.1961 27.879C56.43 27.7794 56.6938 27.7296 56.9874 27.7296C57.311 27.7296 57.5922 27.7545 57.8311 27.8043C58.0749 27.8491 58.279 27.8914 58.4432 27.9312V31.3953C58.4432 31.9925 58.2889 32.4255 57.9804 32.6943C57.6718 32.963 57.2039 33.0974 56.5768 33.0974C56.333 33.0974 56.1015 33.0775 55.8825 33.0377C55.6685 32.9979 55.4819 32.9506 55.3226 32.8958L55.4495 32.2911C55.5889 32.3459 55.7581 32.3932 55.9572 32.433C56.1612 32.4778 56.3728 32.5002 56.5918 32.5002C57.0049 32.5002 57.301 32.418 57.4802 32.2538C57.6643 32.0896 57.7564 31.8283 57.7564 31.4699V31.3057ZM57.7489 28.4239C57.6793 28.404 57.5847 28.3866 57.4652 28.3717C57.3508 28.3518 57.194 28.3418 56.9949 28.3418C56.6216 28.3418 56.333 28.4638 56.1289 28.7076C55.9298 28.9515 55.8303 29.275 55.8303 29.6782C55.8303 29.9021 55.8576 30.0937 55.9124 30.253C55.9721 30.4123 56.0493 30.5442 56.1438 30.6487C56.2434 30.7532 56.3554 30.8304 56.4798 30.8801C56.6092 30.9299 56.7411 30.9548 56.8755 30.9548C57.0596 30.9548 57.2288 30.9299 57.3831 30.8801C57.5374 30.8254 57.6593 30.7632 57.7489 30.6935V28.4239Z" fill="#27235C"/>
<path d="M51.0357 27.9238C51.195 27.8839 51.4065 27.8416 51.6703 27.7968C51.9341 27.752 52.2377 27.7296 52.5811 27.7296C52.8897 27.7296 53.146 27.7744 53.3501 27.864C53.5541 27.9486 53.7159 28.0706 53.8353 28.2298C53.9598 28.3841 54.0469 28.5708 54.0966 28.7898C54.1464 29.0087 54.1713 29.2501 54.1713 29.5139V31.6939H53.477V29.6632C53.477 29.4243 53.4596 29.2203 53.4247 29.0511C53.3949 28.8818 53.3426 28.745 53.2679 28.6404C53.1933 28.5359 53.0937 28.4613 52.9693 28.4165C52.8449 28.3667 52.6906 28.3418 52.5065 28.3418C52.4318 28.3418 52.3547 28.3443 52.275 28.3493C52.1954 28.3543 52.1182 28.3617 52.0436 28.3717C51.9739 28.3767 51.9092 28.3841 51.8495 28.3941C51.7947 28.404 51.7549 28.4115 51.73 28.4165V31.6939H51.0357V27.9238Z" fill="#27235C"/>
<path d="M49.8416 31.6939H49.1473V27.8118H49.8416V31.6939ZM49.4907 27.11C49.3663 27.11 49.2593 27.0702 49.1697 26.9906C49.0851 26.9059 49.0428 26.794 49.0428 26.6546C49.0428 26.5152 49.0851 26.4058 49.1697 26.3261C49.2593 26.2415 49.3663 26.1992 49.4907 26.1992C49.6151 26.1992 49.7196 26.2415 49.8042 26.3261C49.8938 26.4058 49.9386 26.5152 49.9386 26.6546C49.9386 26.794 49.8938 26.9059 49.8042 26.9906C49.7196 27.0702 49.6151 27.11 49.4907 27.11Z" fill="#27235C"/>
<path d="M46.7931 27.8118H48.2638V28.3941H46.7931V30.1858C46.7931 30.38 46.808 30.5417 46.8379 30.6711C46.8678 30.7955 46.9126 30.8951 46.9723 30.9697C47.032 31.0394 47.1067 31.0892 47.1962 31.119C47.2858 31.1489 47.3903 31.1638 47.5098 31.1638C47.7188 31.1638 47.8856 31.1414 48.01 31.0966C48.1394 31.0469 48.229 31.012 48.2788 30.9921L48.4131 31.567C48.3435 31.6018 48.2215 31.6441 48.0473 31.6939C47.8731 31.7486 47.674 31.776 47.4501 31.776C47.1863 31.776 46.9673 31.7437 46.7931 31.679C46.6239 31.6093 46.487 31.5073 46.3825 31.3729C46.278 31.2385 46.2033 31.0743 46.1585 30.8801C46.1187 30.6811 46.0988 30.4521 46.0988 30.1933V26.7293L46.7931 26.6098V27.8118Z" fill="#27235C"/>
<path d="M43.7152 31.1937C43.9989 31.1937 44.2079 31.1563 44.3423 31.0817C44.4816 31.007 44.5513 30.8876 44.5513 30.7233C44.5513 30.5541 44.4841 30.4197 44.3497 30.3202C44.2154 30.2207 43.9939 30.1087 43.6853 29.9842C43.536 29.9245 43.3916 29.8648 43.2523 29.8051C43.1179 29.7404 43.0009 29.6657 42.9014 29.5811C42.8019 29.4965 42.7222 29.3945 42.6625 29.275C42.6028 29.1556 42.5729 29.0087 42.5729 28.8345C42.5729 28.4911 42.6998 28.2199 42.9537 28.0208C43.2075 27.8167 43.5534 27.7147 43.9914 27.7147C44.1009 27.7147 44.2104 27.7222 44.3199 27.7371C44.4294 27.7471 44.5314 27.762 44.626 27.7819C44.7205 27.7968 44.8026 27.8142 44.8723 27.8342C44.947 27.8541 45.0042 27.8715 45.044 27.8864L44.9171 28.4837C44.8425 28.4438 44.7255 28.404 44.5662 28.3642C44.407 28.3194 44.2154 28.297 43.9914 28.297C43.7973 28.297 43.6281 28.3368 43.4837 28.4165C43.3394 28.4911 43.2672 28.6106 43.2672 28.7748C43.2672 28.8594 43.2822 28.9341 43.312 28.9988C43.3469 29.0635 43.3966 29.1232 43.4613 29.178C43.531 29.2277 43.6156 29.275 43.7152 29.3198C43.8147 29.3646 43.9342 29.4119 44.0735 29.4617C44.2577 29.5313 44.4219 29.601 44.5662 29.6707C44.7106 29.7354 44.8325 29.8125 44.9321 29.9021C45.0366 29.9917 45.1162 30.1012 45.1709 30.2306C45.2257 30.355 45.2531 30.5093 45.2531 30.6935C45.2531 31.0518 45.1187 31.3231 44.8499 31.5072C44.5861 31.6914 44.2079 31.7835 43.7152 31.7835C43.3717 31.7835 43.103 31.7536 42.9089 31.6939C42.7148 31.6391 42.5829 31.5968 42.5132 31.567L42.6401 30.9697C42.7197 30.9996 42.8467 31.0444 43.0209 31.1041C43.1951 31.1638 43.4265 31.1937 43.7152 31.1937Z" fill="#27235C"/>
<path d="M41.8351 29.7528C41.8351 30.0614 41.7903 30.3401 41.7007 30.589C41.6111 30.8378 41.4842 31.0518 41.32 31.231C41.1607 31.4102 40.9691 31.5495 40.7451 31.6491C40.5212 31.7436 40.2773 31.7909 40.0135 31.7909C39.7497 31.7909 39.5058 31.7436 39.2819 31.6491C39.0579 31.5495 38.8638 31.4102 38.6996 31.231C38.5403 31.0518 38.4159 30.8378 38.3263 30.589C38.2367 30.3401 38.1919 30.0614 38.1919 29.7528C38.1919 29.4492 38.2367 29.173 38.3263 28.9241C38.4159 28.6703 38.5403 28.4538 38.6996 28.2746C38.8638 28.0955 39.0579 27.9586 39.2819 27.864C39.5058 27.7645 39.7497 27.7147 40.0135 27.7147C40.2773 27.7147 40.5212 27.7645 40.7451 27.864C40.9691 27.9586 41.1607 28.0955 41.32 28.2746C41.4842 28.4538 41.6111 28.6703 41.7007 28.9241C41.7903 29.173 41.8351 29.4492 41.8351 29.7528ZM41.1109 29.7528C41.1109 29.3148 41.0114 28.9689 40.8123 28.7151C40.6182 28.4563 40.3519 28.3269 40.0135 28.3269C39.6751 28.3269 39.4063 28.4563 39.2072 28.7151C39.0131 28.9689 38.9161 29.3148 38.9161 29.7528C38.9161 30.1908 39.0131 30.5392 39.2072 30.798C39.4063 31.0518 39.6751 31.1787 40.0135 31.1787C40.3519 31.1787 40.6182 31.0518 40.8123 30.798C41.0114 30.5392 41.1109 30.1908 41.1109 29.7528Z" fill="#27235C"/>
<path d="M36.4441 26.5202H37.1682V31.6939H36.4441V29.3049H33.9132V31.6939H33.1891V26.5202H33.9132V28.6778H36.4441V26.5202Z" fill="#27235C"/>
<path d="M29.9702 27.7296C30.0299 27.7296 30.0971 27.7346 30.1718 27.7446C30.2514 27.7496 30.3286 27.7595 30.4032 27.7744C30.4779 27.7844 30.5451 27.7968 30.6048 27.8118C30.6695 27.8217 30.7168 27.8317 30.7466 27.8416L30.6272 28.4463C30.5724 28.4264 30.4804 28.404 30.351 28.3792C30.2265 28.3493 30.0648 28.3344 29.8657 28.3344C29.7363 28.3344 29.6069 28.3493 29.4775 28.3792C29.3531 28.404 29.2709 28.4215 29.2311 28.4314V31.6939H28.5368V27.976C28.7011 27.9163 28.9051 27.8615 29.149 27.8118C29.3929 27.757 29.6666 27.7296 29.9702 27.7296Z" fill="#27235C"/>
<path d="M27.3405 31.5819C27.1813 31.6217 26.9697 31.664 26.706 31.7088C26.4472 31.7536 26.146 31.776 25.8026 31.776C25.504 31.776 25.2527 31.7337 25.0486 31.6491C24.8445 31.5595 24.6803 31.4351 24.5559 31.2758C24.4314 31.1165 24.3419 30.9299 24.2871 30.7159C24.2324 30.4969 24.205 30.2555 24.205 29.9917V27.8118H24.8993V29.8424C24.8993 30.3152 24.9739 30.6537 25.1233 30.8577C25.2726 31.0618 25.5239 31.1638 25.8773 31.1638C25.9519 31.1638 26.0291 31.1613 26.1087 31.1564C26.1883 31.1514 26.263 31.1464 26.3327 31.1414C26.4024 31.1315 26.4646 31.124 26.5193 31.119C26.579 31.1091 26.6214 31.0991 26.6462 31.0892V27.8118H27.3405V31.5819Z" fill="#27235C"/>
<path d="M23.2729 29.7528C23.2729 30.0614 23.2281 30.3401 23.1385 30.589C23.0489 30.8378 22.922 31.0518 22.7578 31.231C22.5985 31.4102 22.4069 31.5495 22.1829 31.6491C21.9589 31.7436 21.7151 31.7909 21.4513 31.7909C21.1875 31.7909 20.9436 31.7436 20.7196 31.6491C20.4957 31.5495 20.3016 31.4102 20.1373 31.231C19.9781 31.0518 19.8536 30.8378 19.764 30.589C19.6745 30.3401 19.6297 30.0614 19.6297 29.7528C19.6297 29.4492 19.6745 29.173 19.764 28.9241C19.8536 28.6703 19.9781 28.4538 20.1373 28.2746C20.3016 28.0955 20.4957 27.9586 20.7196 27.864C20.9436 27.7645 21.1875 27.7147 21.4513 27.7147C21.7151 27.7147 21.9589 27.7645 22.1829 27.864C22.4069 27.9586 22.5985 28.0955 22.7578 28.2746C22.922 28.4538 23.0489 28.6703 23.1385 28.9241C23.2281 29.173 23.2729 29.4492 23.2729 29.7528ZM22.5487 29.7528C22.5487 29.3148 22.4492 28.9689 22.2501 28.7151C22.056 28.4563 21.7897 28.3269 21.4513 28.3269C21.1128 28.3269 20.8441 28.4563 20.645 28.7151C20.4509 28.9689 20.3538 29.3148 20.3538 29.7528C20.3538 30.1908 20.4509 30.5392 20.645 30.798C20.8441 31.0518 21.1128 31.1787 21.4513 31.1787C21.7897 31.1787 22.056 31.0518 22.2501 30.798C22.4492 30.5392 22.5487 30.1908 22.5487 29.7528Z" fill="#27235C"/>
<path d="M17.0256 31.6939V29.6185C16.6822 29.0859 16.3587 28.5608 16.0551 28.0432C15.7515 27.5256 15.4653 27.0179 15.1965 26.5202H16.0476C16.2367 26.9284 16.4483 27.3439 16.6822 27.767C16.9161 28.1851 17.1575 28.5882 17.4063 28.9764C17.6502 28.5882 17.8891 28.1851 18.123 27.767C18.357 27.3439 18.571 26.9284 18.7651 26.5202H19.5714C19.3026 27.0179 19.0164 27.5256 18.7128 28.0432C18.4092 28.5559 18.0882 29.076 17.7498 29.6035V31.6939H17.0256Z" fill="#27235C"/>
<path d="M117.48 21.3791C116.652 21.3791 115.909 21.2187 115.25 20.8978C114.608 20.56 114.06 20.104 113.604 19.5298C113.164 18.9556 112.827 18.2969 112.59 17.5538C112.371 16.7938 112.261 15.9831 112.261 15.1218C112.278 14.2604 112.404 13.4582 112.641 12.7151C112.877 11.9551 113.215 11.2964 113.654 10.7391C114.11 10.1649 114.659 9.71733 115.301 9.39644C115.943 9.07555 116.669 8.91511 117.48 8.91511C118.256 8.91511 118.983 9.07555 119.658 9.39644C120.351 9.71733 120.959 10.1649 121.482 10.7391C122.023 11.2964 122.445 11.9551 122.749 12.7151C123.053 13.4582 123.205 14.252 123.205 15.0964C123.205 15.9747 123.053 16.8022 122.749 17.5791C122.445 18.3391 122.031 19.0062 121.508 19.5804C120.984 20.1378 120.376 20.5769 119.684 20.8978C118.991 21.2187 118.256 21.3791 117.48 21.3791ZM117.074 18.4151C117.665 18.4151 118.197 18.28 118.67 18.0098C119.143 17.7227 119.515 17.3342 119.785 16.8444C120.072 16.3547 120.216 15.7973 120.216 15.1724C120.216 14.5307 120.072 13.9649 119.785 13.4751C119.515 12.9684 119.143 12.58 118.67 12.3098C118.197 12.0227 117.665 11.8791 117.074 11.8791C116.5 11.8791 115.976 12.0227 115.504 12.3098C115.031 12.5969 114.651 12.9853 114.364 13.4751C114.093 13.9649 113.958 14.5307 113.958 15.1724C113.958 15.7973 114.093 16.3547 114.364 16.8444C114.651 17.3342 115.031 17.7227 115.504 18.0098C115.976 18.28 116.5 18.4151 117.074 18.4151ZM112.388 21.4044C111.932 21.4044 111.594 21.3284 111.374 21.1764C111.155 21.0413 111.02 20.864 110.969 20.6444C110.918 20.408 110.893 20.1462 110.893 19.8591V4.76044C110.893 4.47333 110.918 4.22 110.969 4.00044C111.02 3.764 111.155 3.57822 111.374 3.44311C111.594 3.308 111.932 3.24044 112.388 3.24044C112.86 3.24044 113.198 3.308 113.401 3.44311C113.604 3.57822 113.73 3.764 113.781 4.00044C113.832 4.23688 113.857 4.49022 113.857 4.76044V20.3658C113.789 20.7373 113.646 20.9991 113.426 21.1511C113.224 21.32 112.877 21.4044 112.388 21.4044Z" fill="#27235C" stroke="#27235C" stroke-width="0.5"/>
<path d="M103.342 21.5568C102.244 21.5568 101.282 21.3795 100.454 21.0248C99.6435 20.6701 98.9595 20.1888 98.4021 19.5808C97.8617 18.9559 97.4479 18.2635 97.1608 17.5035C96.8906 16.7266 96.7555 15.9244 96.7555 15.0968C96.7555 13.8808 97.0341 12.7999 97.5915 11.8541C98.1488 10.9083 98.9173 10.1652 99.8968 9.62479C100.893 9.08435 102.033 8.81413 103.317 8.81413C104.229 8.81413 105.031 8.95768 105.723 9.24479C106.416 9.5319 106.99 9.9119 107.446 10.3848C107.919 10.8408 108.274 11.3475 108.51 11.9048C108.763 12.4621 108.89 13.0026 108.89 13.5261C108.89 14.4212 108.671 15.0715 108.231 15.4768C107.809 15.8821 107.277 16.0848 106.635 16.0848H99.9475C99.9644 16.659 100.142 17.1572 100.479 17.5795C100.834 18.0017 101.273 18.331 101.797 18.5675C102.337 18.787 102.886 18.8968 103.443 18.8968C103.866 18.8968 104.237 18.8715 104.558 18.8208C104.896 18.7701 105.183 18.711 105.419 18.6435C105.656 18.559 105.859 18.4746 106.027 18.3901C106.213 18.3057 106.382 18.2297 106.534 18.1621C106.686 18.0946 106.83 18.0524 106.965 18.0355C107.151 18.0186 107.336 18.0608 107.522 18.1621C107.708 18.2635 107.86 18.4408 107.978 18.6941C108.079 18.863 108.147 19.0235 108.181 19.1755C108.231 19.3106 108.257 19.4457 108.257 19.5808C108.257 19.9186 108.054 20.2395 107.649 20.5435C107.243 20.8306 106.669 21.067 105.926 21.2528C105.2 21.4555 104.339 21.5568 103.342 21.5568ZM99.9475 14.2861H105.141C105.428 14.2861 105.647 14.2439 105.799 14.1595C105.951 14.0581 106.027 13.8555 106.027 13.5515C106.027 13.163 105.909 12.8168 105.673 12.5128C105.436 12.1919 105.115 11.947 104.71 11.7781C104.305 11.5923 103.832 11.4995 103.291 11.4995C102.667 11.4995 102.101 11.6261 101.594 11.8795C101.087 12.1159 100.682 12.4452 100.378 12.8675C100.091 13.2897 99.9475 13.7626 99.9475 14.2861Z" fill="#27235C" stroke="#27235C" stroke-width="0.5"/>
<path d="M80.6775 21.3294C80.3397 21.3294 80.0695 21.2703 79.8668 21.1521C79.6641 21.017 79.5122 20.865 79.4108 20.6961C79.3264 20.5272 79.2673 20.3836 79.2335 20.2654L74.2681 5.72408C74.0993 5.18363 74.0739 4.7783 74.1921 4.50808C74.3104 4.22097 74.6566 3.98452 75.2308 3.79874C75.6193 3.66363 75.9317 3.60452 76.1681 3.62141C76.4046 3.6383 76.5988 3.73963 76.7508 3.92541C76.9197 4.0943 77.0633 4.36452 77.1815 4.73608L80.8295 15.7814L84.0975 4.83741C84.1481 4.66852 84.2157 4.49963 84.3001 4.33075C84.4015 4.14497 84.5535 3.99297 84.7562 3.87474C84.9588 3.75652 85.2375 3.69741 85.5921 3.69741C85.9975 3.69741 86.3015 3.76497 86.5042 3.90008C86.7068 4.03519 86.8504 4.18719 86.9348 4.35608C87.0362 4.50808 87.1037 4.65163 87.1375 4.78675L90.4055 15.8574L94.0788 4.76141C94.197 4.37297 94.3322 4.08586 94.4842 3.90008C94.653 3.7143 94.8642 3.61297 95.1175 3.59608C95.3708 3.5623 95.6833 3.61297 96.0548 3.74808C96.4433 3.88319 96.7219 4.03519 96.8908 4.20408C97.0597 4.35608 97.1442 4.55875 97.1442 4.81208C97.1442 5.04852 97.085 5.35252 96.9668 5.72408L92.0268 20.2907C91.993 20.3921 91.9255 20.5272 91.8242 20.6961C91.7397 20.865 91.5962 21.017 91.3935 21.1521C91.1908 21.2703 90.9122 21.3294 90.5575 21.3294C90.2028 21.3294 89.9242 21.2534 89.7215 21.1014C89.5188 20.9494 89.3668 20.7805 89.2655 20.5947C89.1641 20.409 89.0966 20.2739 89.0628 20.1894L85.6175 9.04275L82.1721 20.1641C82.1384 20.2823 82.0708 20.4343 81.9695 20.6201C81.885 20.8059 81.7415 20.9747 81.5388 21.1267C81.3361 21.2619 81.049 21.3294 80.6775 21.3294Z" fill="#27235C" stroke="#27235C" stroke-width="0.5"/>
<path d="M67.5045 21.557C67.0654 21.557 66.6009 21.5064 66.1111 21.405C65.6214 21.3206 65.1485 21.1939 64.6925 21.025C64.2365 20.8392 63.8396 20.6281 63.5018 20.3917C63.1809 20.1384 62.9783 19.8597 62.8938 19.5557C62.8263 19.3868 62.8009 19.2264 62.8178 19.0744C62.8347 18.9055 62.8854 18.7366 62.9698 18.5677C63.0543 18.3819 63.1809 18.1961 63.3498 18.0104C63.5018 17.8246 63.6538 17.7232 63.8058 17.7064C63.9747 17.6726 64.1858 17.7232 64.4391 17.8584C64.6587 17.9428 64.8951 18.0526 65.1485 18.1877C65.4187 18.3228 65.6889 18.4579 65.9591 18.593C66.2463 18.7281 66.5334 18.8379 66.8205 18.9224C67.1245 19.0068 67.42 19.049 67.7071 19.049C68.332 19.049 68.8303 18.9477 69.2018 18.745C69.5734 18.5255 69.7591 18.2215 69.7591 17.833C69.7591 17.6135 69.7 17.4192 69.5818 17.2504C69.4636 17.0815 69.3031 16.9464 69.1005 16.845C68.9147 16.7268 68.6867 16.6255 68.4165 16.541C68.1631 16.4397 67.8845 16.3552 67.5805 16.2877C67.2934 16.2032 66.9894 16.1104 66.6685 16.009C66.2463 15.8908 65.824 15.7472 65.4018 15.5784C64.9796 15.4095 64.5996 15.1899 64.2618 14.9197C63.9409 14.6495 63.6791 14.3117 63.4765 13.9064C63.2738 13.501 63.1725 12.9944 63.1725 12.3864C63.1725 11.6264 63.3498 10.9846 63.7045 10.461C64.076 9.92057 64.608 9.50679 65.3005 9.21968C65.9929 8.93257 66.8289 8.78902 67.8085 8.78902C68.1463 8.78902 68.4671 8.81435 68.7711 8.86502C69.092 8.91568 69.396 8.99168 69.6831 9.09302C69.9871 9.17746 70.2743 9.28724 70.5445 9.42235C70.8316 9.55746 71.1018 9.70946 71.3551 9.87835C71.7774 10.1148 71.9969 10.3935 72.0138 10.7144C72.0307 11.0184 71.9125 11.3477 71.6591 11.7024C71.4734 11.9388 71.2876 12.1077 71.1018 12.209C70.916 12.2935 70.7218 12.2935 70.5191 12.209C70.2489 12.0739 69.9534 11.9304 69.6325 11.7784C69.3285 11.6095 69.0076 11.4659 68.6698 11.3477C68.3489 11.2295 68.0111 11.1704 67.6565 11.1704C67.3187 11.1704 67.0147 11.221 66.7445 11.3224C66.4743 11.4237 66.2716 11.5672 66.1365 11.753C66.0014 11.9388 65.9338 12.1584 65.9338 12.4117C65.9338 12.6481 66.0014 12.8424 66.1365 12.9944C66.2716 13.1464 66.4489 13.273 66.6685 13.3744C66.888 13.4757 67.1498 13.5686 67.4538 13.653C67.7578 13.7206 68.0787 13.7881 68.4165 13.8557C68.8894 13.957 69.3707 14.0837 69.8605 14.2357C70.3503 14.3877 70.7978 14.5988 71.2031 14.869C71.6254 15.1392 71.9631 15.5024 72.2165 15.9584C72.4698 16.3975 72.5965 16.9717 72.5965 17.681C72.5965 18.9139 72.1405 19.8681 71.2285 20.5437C70.3334 21.2192 69.092 21.557 67.5045 21.557Z" fill="#27235C" stroke="#27235C" stroke-width="0.5"/>
<path d="M55.5455 21.5567C54.4477 21.5567 53.485 21.3793 52.6575 21.0247C51.8468 20.67 51.1628 20.1887 50.6055 19.5807C50.065 18.9558 49.6513 18.2633 49.3642 17.5033C49.0939 16.7264 48.9588 15.9242 48.9588 15.0967C48.9588 13.8806 49.2375 12.7998 49.7948 11.854C50.3522 10.9082 51.1206 10.1651 52.1002 9.62465C53.0966 9.0842 54.2366 8.81398 55.5202 8.81398C56.4322 8.81398 57.2344 8.95754 57.9268 9.24465C58.6193 9.53176 59.1935 9.91176 59.6495 10.3846C60.1224 10.8406 60.477 11.3473 60.7135 11.9046C60.9668 12.462 61.0935 13.0024 61.0935 13.526C61.0935 14.4211 60.8739 15.0713 60.4348 15.4766C60.0126 15.882 59.4806 16.0847 58.8388 16.0847H52.1508C52.1677 16.6589 52.345 17.1571 52.6828 17.5793C53.0375 18.0015 53.4766 18.3309 54.0002 18.5673C54.5406 18.7869 55.0895 18.8967 55.6468 18.8967C56.069 18.8967 56.4406 18.8713 56.7615 18.8207C57.0993 18.77 57.3864 18.7109 57.6228 18.6433C57.8593 18.5589 58.0619 18.4744 58.2308 18.39C58.4166 18.3055 58.5855 18.2295 58.7375 18.162C58.8895 18.0944 59.033 18.0522 59.1682 18.0353C59.3539 18.0184 59.5397 18.0607 59.7255 18.162C59.9113 18.2633 60.0633 18.4407 60.1815 18.694C60.2828 18.8629 60.3504 19.0233 60.3842 19.1753C60.4348 19.3104 60.4602 19.4455 60.4602 19.5807C60.4602 19.9184 60.2575 20.2393 59.8522 20.5433C59.4468 20.8304 58.8726 21.0669 58.1295 21.2527C57.4033 21.4553 56.5419 21.5567 55.5455 21.5567ZM52.1508 14.286H57.3442C57.6313 14.286 57.8508 14.2438 58.0028 14.1593C58.1548 14.058 58.2308 13.8553 58.2308 13.5513C58.2308 13.1629 58.1126 12.8166 57.8762 12.5126C57.6397 12.1918 57.3188 11.9469 56.9135 11.778C56.5082 11.5922 56.0353 11.4993 55.4948 11.4993C54.8699 11.4993 54.3042 11.626 53.7975 11.8793C53.2908 12.1158 52.8855 12.4451 52.5815 12.8673C52.2944 13.2895 52.1508 13.7624 52.1508 14.286Z" fill="#27235C" stroke="#27235C" stroke-width="0.5"/>
<path d="M46.5016 21.4055C45.8767 21.4055 45.3193 21.3633 44.8296 21.2789C44.3567 21.1944 43.9429 21.0509 43.5882 20.8482C43.2504 20.6455 42.9718 20.3753 42.7522 20.0375C42.5327 19.6829 42.3638 19.2522 42.2456 18.7455C42.1442 18.2389 42.0936 17.6309 42.0936 16.9215V4.71085C42.0936 4.42374 42.1189 4.17041 42.1696 3.95085C42.2371 3.71441 42.3722 3.52863 42.5749 3.39352C42.7944 3.24152 43.1407 3.16552 43.6136 3.16552C44.0864 3.16552 44.4242 3.23307 44.6269 3.36819C44.8464 3.5033 44.9816 3.68908 45.0322 3.92552C45.0998 4.14507 45.1336 4.39841 45.1336 4.68552V16.7949C45.1336 17.1157 45.1504 17.386 45.1842 17.6055C45.2349 17.8082 45.3109 17.9771 45.4122 18.1122C45.5304 18.2304 45.674 18.3149 45.8429 18.3655C46.0287 18.4162 46.2482 18.4415 46.5016 18.4415C46.7211 18.4415 46.9153 18.4669 47.0842 18.5175C47.27 18.5682 47.4136 18.6949 47.5149 18.8975C47.6331 19.1002 47.6922 19.4295 47.6922 19.8855C47.6922 20.3584 47.6331 20.7046 47.5149 20.9242C47.4136 21.1437 47.27 21.2789 47.0842 21.3295C46.8985 21.3802 46.7042 21.4055 46.5016 21.4055Z" fill="#27235C" stroke="#27235C" stroke-width="0.5"/>
<path d="M37.8525 21.4052C37.3965 21.4052 37.0587 21.3292 36.8391 21.1772C36.6196 21.0421 36.4845 20.8647 36.4338 20.6452C36.3831 20.4087 36.3578 20.147 36.3578 19.8598V10.4358C36.3578 10.1656 36.3831 9.92073 36.4338 9.70117C36.5013 9.46473 36.6365 9.27895 36.8391 9.14384C37.0587 9.00873 37.4049 8.94117 37.8778 8.94117C38.3507 8.94117 38.6885 9.00873 38.8911 9.14384C39.1107 9.27895 39.2458 9.46473 39.2965 9.70117C39.3471 9.93762 39.3725 10.1994 39.3725 10.4865V19.8852C39.3725 20.1723 39.3471 20.4341 39.2965 20.6705C39.2458 20.8901 39.1107 21.0674 38.8911 21.2025C38.6885 21.3376 38.3422 21.4052 37.8525 21.4052ZM37.8525 6.48384C37.3627 6.48384 36.9996 6.41628 36.7631 6.28117C36.5436 6.12917 36.4 5.9265 36.3325 5.67317C36.2818 5.41984 36.2565 5.14117 36.2565 4.83717C36.2565 4.51628 36.2818 4.23761 36.3325 4.00117C36.4 3.76472 36.552 3.57895 36.7885 3.44383C37.0249 3.29184 37.388 3.21584 37.8778 3.21584C38.3845 3.21584 38.7476 3.29184 38.9671 3.44383C39.1867 3.59583 39.3302 3.7985 39.3978 4.05184C39.4653 4.28828 39.4991 4.56695 39.4991 4.88784C39.4991 5.17495 39.4653 5.44517 39.3978 5.6985C39.3302 5.95184 39.1867 6.14606 38.9671 6.28117C38.7476 6.41628 38.376 6.48384 37.8525 6.48384Z" fill="#27235C" stroke="#27235C" stroke-width="0.5"/>
<path d="M17.0455 21.3796C16.6064 21.3796 16.2771 21.3121 16.0575 21.1769C15.838 21.0418 15.6944 20.8561 15.6269 20.6196C15.5762 20.3832 15.5509 20.1214 15.5509 19.8343V5.21694C15.5509 4.94672 15.5762 4.70183 15.6269 4.48227C15.6944 4.24583 15.838 4.06005 16.0575 3.92494C16.2771 3.77294 16.6233 3.69694 17.0962 3.69694C17.4509 3.69694 17.7126 3.72227 17.8815 3.77294C18.0673 3.80672 18.2109 3.86583 18.3122 3.95027C18.4135 4.01783 18.5149 4.11071 18.6162 4.22894L24.7975 12.8676H24.2149L30.4215 4.2036C30.5398 4.06849 30.658 3.96716 30.7762 3.8996C30.8944 3.83205 31.0464 3.78138 31.2322 3.7476C31.418 3.71383 31.6629 3.69694 31.9669 3.69694C32.4229 3.69694 32.7607 3.77294 32.9802 3.92494C33.1998 4.06005 33.3349 4.24583 33.3855 4.48227C33.4531 4.71871 33.4869 4.98049 33.4869 5.2676V19.8849C33.4869 20.1383 33.4531 20.3832 33.3855 20.6196C33.3349 20.8561 33.1998 21.0418 32.9802 21.1769C32.7607 21.3121 32.4144 21.3796 31.9415 21.3796C31.4855 21.3796 31.1478 21.3036 30.9282 21.1516C30.7087 21.0165 30.5651 20.8307 30.4975 20.5943C30.4469 20.3578 30.4215 20.1045 30.4215 19.8343V8.96627L25.8109 15.6289C25.7602 15.6965 25.6842 15.7894 25.5829 15.9076C25.4815 16.0089 25.3464 16.1018 25.1775 16.1863C25.0086 16.2707 24.7806 16.3129 24.4935 16.3129C24.2233 16.3129 24.0038 16.2707 23.8349 16.1863C23.666 16.1018 23.5309 16.0089 23.4295 15.9076C23.3451 15.8063 23.2606 15.7049 23.1762 15.6036L18.5909 8.96627V19.8849C18.5909 20.1383 18.5571 20.3832 18.4895 20.6196C18.4389 20.8561 18.3038 21.0418 18.0842 21.1769C17.8646 21.3121 17.5184 21.3796 17.0455 21.3796Z" fill="#27235C" stroke="#27235C" stroke-width="0.5"/>
</svg>
