<svg width="155" height="50" viewBox="0 0 155 50" fill="none" xmlns="http://www.w3.org/2000/svg">
<path d="M70.5989 47.8359C70.5989 47.2201 71.0981 46.7208 71.714 46.7208H148.659C149.275 46.7208 149.774 47.2201 149.774 47.8359V47.8359C149.774 48.4518 149.275 48.9511 148.659 48.9511H71.714C71.0981 48.9511 70.5989 48.4518 70.5989 47.8359V47.8359Z" fill="#FFBB00"/>
<path d="M7.89645 39.6126V36.9132C7.44884 36.2205 7.02718 35.5376 6.63147 34.8643C6.23576 34.1911 5.86275 33.5308 5.51245 32.8834H6.62174C6.86825 33.4143 7.14395 33.9548 7.44884 34.505C7.75374 35.0488 8.06836 35.5732 8.39271 36.0781C8.71058 35.5732 9.02196 35.0488 9.32685 34.505C9.63174 33.9548 9.91069 33.4143 10.1637 32.8834H11.2146C10.8643 33.5308 10.4913 34.1911 10.0956 34.8643C9.69986 35.5311 9.28144 36.2076 8.84032 36.8938V39.6126H7.89645Z" fill="white"/>
<path d="M16.0393 37.088C16.0393 37.4893 15.9809 37.8519 15.8642 38.1755C15.7474 38.4992 15.582 38.7776 15.3679 39.0106C15.1603 39.2437 14.9106 39.4249 14.6186 39.5544C14.3267 39.6774 14.0088 39.7389 13.665 39.7389C13.3212 39.7389 13.0034 39.6774 12.7114 39.5544C12.4195 39.4249 12.1665 39.2437 11.9524 39.0106C11.7449 38.7776 11.5827 38.4992 11.4659 38.1755C11.3491 37.8519 11.2908 37.4893 11.2908 37.088C11.2908 36.6931 11.3491 36.3338 11.4659 36.0101C11.5827 35.68 11.7449 35.3984 11.9524 35.1653C12.1665 34.9323 12.4195 34.7543 12.7114 34.6313C13.0034 34.5018 13.3212 34.4371 13.665 34.4371C14.0088 34.4371 14.3267 34.5018 14.6186 34.6313C14.9106 34.7543 15.1603 34.9323 15.3679 35.1653C15.582 35.3984 15.7474 35.68 15.8642 36.0101C15.9809 36.3338 16.0393 36.6931 16.0393 37.088ZM15.0954 37.088C15.0954 36.5183 14.9657 36.0684 14.7062 35.7383C14.4532 35.4016 14.1062 35.2333 13.665 35.2333C13.2239 35.2333 12.8736 35.4016 12.6141 35.7383C12.3611 36.0684 12.2346 36.5183 12.2346 37.088C12.2346 37.6576 12.3611 38.1108 12.6141 38.4474C12.8736 38.7776 13.2239 38.9426 13.665 38.9426C14.1062 38.9426 14.4532 38.7776 14.7062 38.4474C14.9657 38.1108 15.0954 37.6576 15.0954 37.088Z" fill="white"/>
<path d="M21.341 39.467C21.1334 39.5188 20.8577 39.5738 20.5139 39.6321C20.1765 39.6903 19.7841 39.7195 19.3365 39.7195C18.9472 39.7195 18.6196 39.6644 18.3537 39.5544C18.0877 39.4379 17.8736 39.276 17.7114 39.0689C17.5493 38.8617 17.4325 38.619 17.3611 38.3406C17.2898 38.0558 17.2541 37.7418 17.2541 37.3987V34.5633H18.1591V37.2045C18.1591 37.8195 18.2564 38.2597 18.451 38.5251C18.6456 38.7905 18.9732 38.9232 19.4338 38.9232C19.5311 38.9232 19.6316 38.92 19.7354 38.9135C19.8392 38.907 19.9365 38.9006 20.0273 38.8941C20.1182 38.8811 20.1992 38.8714 20.2706 38.865C20.3484 38.852 20.4036 38.8391 20.436 38.8261V34.5633H21.341V39.467Z" fill="white"/>
<path d="M24.7683 34.4565C24.8461 34.4565 24.9337 34.463 25.031 34.4759C25.1348 34.4824 25.2353 34.4953 25.3326 34.5148C25.43 34.5277 25.5175 34.5439 25.5954 34.5633C25.6797 34.5763 25.7413 34.5892 25.7803 34.6022L25.6246 35.3887C25.5532 35.3628 25.4332 35.3337 25.2645 35.3013C25.1024 35.2625 24.8915 35.243 24.632 35.243C24.4634 35.243 24.2947 35.2625 24.1261 35.3013C23.9639 35.3337 23.8568 35.3563 23.8049 35.3693V39.6126H22.9V34.7769C23.1141 34.6993 23.38 34.628 23.6979 34.5633C24.0158 34.4921 24.3726 34.4565 24.7683 34.4565Z" fill="white"/>
<path d="M33.2065 32.8834H34.1504V39.6126H33.2065V36.5054H29.9079V39.6126H28.964V32.8834H29.9079V35.6897H33.2065V32.8834Z" fill="white"/>
<path d="M40.2328 37.088C40.2328 37.4893 40.1744 37.8519 40.0576 38.1755C39.9409 38.4992 39.7755 38.7776 39.5614 39.0106C39.3538 39.2437 39.104 39.4249 38.8121 39.5544C38.5202 39.6774 38.2023 39.7389 37.8585 39.7389C37.5147 39.7389 37.1969 39.6774 36.9049 39.5544C36.613 39.4249 36.36 39.2437 36.1459 39.0106C35.9384 38.7776 35.7762 38.4992 35.6594 38.1755C35.5426 37.8519 35.4843 37.4893 35.4843 37.088C35.4843 36.6931 35.5426 36.3338 35.6594 36.0101C35.7762 35.68 35.9384 35.3984 36.1459 35.1653C36.36 34.9323 36.613 34.7543 36.9049 34.6313C37.1969 34.5018 37.5147 34.4371 37.8585 34.4371C38.2023 34.4371 38.5202 34.5018 38.8121 34.6313C39.104 34.7543 39.3538 34.9323 39.5614 35.1653C39.7755 35.3984 39.9409 35.68 40.0576 36.0101C40.1744 36.3338 40.2328 36.6931 40.2328 37.088ZM39.2889 37.088C39.2889 36.5183 39.1592 36.0684 38.8997 35.7383C38.6467 35.4016 38.2997 35.2333 37.8585 35.2333C37.4174 35.2333 37.0671 35.4016 36.8076 35.7383C36.5546 36.0684 36.4281 36.5183 36.4281 37.088C36.4281 37.6576 36.5546 38.1108 36.8076 38.4474C37.0671 38.7776 37.4174 38.9426 37.8585 38.9426C38.2997 38.9426 38.6467 38.7776 38.8997 38.4474C39.1592 38.1108 39.2889 37.6576 39.2889 37.088Z" fill="white"/>
<path d="M42.6834 38.9621C43.0532 38.9621 43.3256 38.9135 43.5008 38.8164C43.6824 38.7193 43.7732 38.5639 43.7732 38.3503C43.7732 38.1302 43.6856 37.9554 43.5105 37.826C43.3353 37.6965 43.0467 37.5508 42.6445 37.389C42.4499 37.3113 42.2617 37.2336 42.0801 37.156C41.9049 37.0718 41.7525 36.9747 41.6228 36.8646C41.493 36.7546 41.3892 36.6219 41.3114 36.4665C41.2335 36.3112 41.1946 36.1202 41.1946 35.8936C41.1946 35.4469 41.36 35.0941 41.6909 34.8352C42.0217 34.5698 42.4726 34.4371 43.0434 34.4371C43.1861 34.4371 43.3289 34.4468 43.4716 34.4662C43.6143 34.4792 43.7473 34.4986 43.8705 34.5245C43.9938 34.5439 44.1008 34.5665 44.1916 34.5924C44.2889 34.6183 44.3635 34.641 44.4154 34.6604L44.25 35.4372C44.1527 35.3854 44.0003 35.3337 43.7927 35.2819C43.5851 35.2236 43.3353 35.1945 43.0434 35.1945C42.7904 35.1945 42.5699 35.2463 42.3817 35.3498C42.1936 35.4469 42.0996 35.6023 42.0996 35.8159C42.0996 35.926 42.119 36.0231 42.1579 36.1072C42.2034 36.1914 42.2682 36.2691 42.3526 36.3403C42.4434 36.405 42.5537 36.4665 42.6834 36.5248C42.8131 36.583 42.9688 36.6445 43.1505 36.7093C43.3905 36.7999 43.6046 36.8905 43.7927 36.9812C43.9808 37.0653 44.1397 37.1657 44.2695 37.2822C44.4057 37.3987 44.5095 37.5411 44.5809 37.7094C44.6522 37.8713 44.6879 38.072 44.6879 38.3115C44.6879 38.7776 44.5127 39.1304 44.1624 39.3699C43.8186 39.6094 43.3256 39.7292 42.6834 39.7292C42.2358 39.7292 41.8855 39.6903 41.6325 39.6126C41.3795 39.5414 41.2076 39.4864 41.1168 39.4476L41.2822 38.6708C41.386 38.7096 41.5514 38.7679 41.7785 38.8455C42.0055 38.9232 42.3071 38.9621 42.6834 38.9621Z" fill="white"/>
<path d="M46.6952 34.5633H48.6122V35.3207H46.6952V37.6512C46.6952 37.9036 46.7147 38.114 46.7536 38.2823C46.7925 38.4442 46.8509 38.5737 46.9288 38.6708C47.0066 38.7614 47.1039 38.8261 47.2207 38.865C47.3374 38.9038 47.4737 38.9232 47.6294 38.9232C47.9018 38.9232 48.1191 38.8941 48.2813 38.8358C48.45 38.7711 48.5667 38.7258 48.6316 38.6999L48.8068 39.4476C48.7159 39.4929 48.557 39.5479 48.33 39.6126C48.1029 39.6839 47.8434 39.7195 47.5515 39.7195C47.2077 39.7195 46.9223 39.6774 46.6952 39.5932C46.4747 39.5026 46.2963 39.3699 46.16 39.1951C46.0238 39.0203 45.9265 38.8067 45.8681 38.5542C45.8162 38.2953 45.7903 37.9975 45.7903 37.6609V33.1553L46.6952 33V34.5633Z" fill="white"/>
<path d="M50.6687 39.6126H49.7637V34.5633H50.6687V39.6126ZM50.2113 33.6505C50.0491 33.6505 49.9097 33.5988 49.7929 33.4952C49.6826 33.3851 49.6275 33.2395 49.6275 33.0582C49.6275 32.877 49.6826 32.7345 49.7929 32.631C49.9097 32.5209 50.0491 32.4659 50.2113 32.4659C50.3735 32.4659 50.5097 32.5209 50.62 32.631C50.7368 32.7345 50.7952 32.877 50.7952 33.0582C50.7952 33.2395 50.7368 33.3851 50.62 33.4952C50.5097 33.5988 50.3735 33.6505 50.2113 33.6505Z" fill="white"/>
<path d="M52.2249 34.709C52.4325 34.6572 52.7082 34.6022 53.052 34.5439C53.3958 34.4856 53.7915 34.4565 54.2391 34.4565C54.6413 34.4565 54.9754 34.5148 55.2414 34.6313C55.5073 34.7413 55.7182 34.8999 55.8738 35.1071C56.036 35.3078 56.1495 35.5505 56.2144 35.8354C56.2793 36.1202 56.3117 36.4342 56.3117 36.7773V39.6126H55.4068V36.9715C55.4068 36.6607 55.3841 36.3953 55.3387 36.1752C55.2997 35.9551 55.2316 35.7771 55.1343 35.6412C55.037 35.5052 54.9073 35.4081 54.7451 35.3498C54.5829 35.2851 54.3818 35.2527 54.1418 35.2527C54.0445 35.2527 53.9439 35.256 53.8402 35.2625C53.7364 35.2689 53.6358 35.2786 53.5385 35.2916C53.4477 35.2981 53.3634 35.3078 53.2855 35.3207C53.2141 35.3337 53.1622 35.3434 53.1298 35.3498V39.6126H52.2249V34.709Z" fill="white"/>
<path d="M60.9846 39.1077C60.9067 39.1595 60.7543 39.2275 60.5272 39.3116C60.3067 39.3893 60.0472 39.4282 59.7488 39.4282C59.4439 39.4282 59.1552 39.3796 58.8827 39.2825C58.6168 39.1854 58.3832 39.0365 58.1821 38.8358C57.981 38.6287 57.8221 38.373 57.7053 38.0687C57.5886 37.7645 57.5302 37.4019 57.5302 36.9812C57.5302 36.6122 57.5853 36.2756 57.6956 35.9713C57.8059 35.6606 57.9648 35.3952 58.1724 35.1751C58.3865 34.9485 58.646 34.7737 58.9508 34.6507C59.2557 34.5212 59.5996 34.4565 59.9823 34.4565C60.404 34.4565 60.7705 34.4889 61.0819 34.5536C61.3997 34.6119 61.6657 34.6669 61.8798 34.7187V39.2242C61.8798 40.0011 61.6787 40.5643 61.2765 40.9138C60.8743 41.2634 60.2645 41.4382 59.4471 41.4382C59.1292 41.4382 58.8276 41.4123 58.5422 41.3605C58.2632 41.3087 58.02 41.2472 57.8124 41.176L57.9778 40.3895C58.1594 40.4607 58.38 40.5222 58.6395 40.574C58.9054 40.6322 59.1811 40.6614 59.4666 40.6614C60.005 40.6614 60.391 40.5545 60.6245 40.3409C60.8645 40.1273 60.9846 39.7874 60.9846 39.3213V39.1077ZM60.9748 35.3596C60.884 35.3337 60.7607 35.311 60.6051 35.2916C60.4559 35.2657 60.2515 35.2527 59.992 35.2527C59.5055 35.2527 59.1292 35.4113 58.8633 35.7285C58.6038 36.0457 58.474 36.4665 58.474 36.9909C58.474 37.2822 58.5097 37.5314 58.5811 37.7386C58.6589 37.9457 58.7595 38.1173 58.8827 38.2532C59.0125 38.3892 59.1584 38.4895 59.3206 38.5542C59.4893 38.619 59.6612 38.6513 59.8363 38.6513C60.0764 38.6513 60.2969 38.619 60.498 38.5542C60.6991 38.483 60.8581 38.4021 60.9748 38.3115V35.3596Z" fill="white"/>
<path d="M64.3915 38.5057C64.398 38.5575 64.4012 38.6093 64.4012 38.661C64.4012 38.7064 64.4012 38.7549 64.4012 38.8067C64.4012 39.2145 64.3396 39.6159 64.2163 40.0108C64.0996 40.4121 63.9374 40.7941 63.7298 41.1566L63.0292 40.9332C63.1914 40.6031 63.2984 40.2665 63.3503 39.9234C63.4022 39.5868 63.4281 39.2696 63.4281 38.9718C63.4281 38.8876 63.4249 38.8067 63.4184 38.729C63.4184 38.6513 63.4152 38.5769 63.4087 38.5057H64.3915Z" fill="white"/>
<path d="M67.8706 36.2432C67.8706 35.667 67.9549 35.1589 68.1236 34.7187C68.2987 34.2785 68.5322 33.9127 68.8242 33.6214C69.1226 33.3236 69.4664 33.1003 69.8556 32.9514C70.2513 32.8025 70.6697 32.7281 71.1108 32.7281C71.5455 32.7281 71.9542 32.8025 72.3369 32.9514C72.7261 33.1003 73.0667 33.3236 73.3586 33.6214C73.6505 33.9127 73.8808 34.2785 74.0495 34.7187C74.2246 35.1589 74.3122 35.667 74.3122 36.2432C74.3122 36.8193 74.2246 37.3275 74.0495 37.7677C73.8808 38.2079 73.6505 38.5769 73.3586 38.8747C73.0667 39.166 72.7261 39.3861 72.3369 39.535C71.9542 39.6839 71.5455 39.7583 71.1108 39.7583C70.6697 39.7583 70.2513 39.6839 69.8556 39.535C69.4664 39.3861 69.1226 39.166 68.8242 38.8747C68.5322 38.5769 68.2987 38.2079 68.1236 37.7677C67.9549 37.3275 67.8706 36.8193 67.8706 36.2432ZM68.8631 36.2432C68.8631 36.651 68.915 37.0232 69.0188 37.3599C69.1226 37.69 69.2685 37.9716 69.4566 38.2047C69.6513 38.4377 69.8848 38.619 70.1572 38.7484C70.4362 38.8714 70.7476 38.9329 71.0914 38.9329C71.4352 38.9329 71.7433 38.8714 72.0158 38.7484C72.2883 38.619 72.5185 38.4377 72.7067 38.2047C72.9013 37.9716 73.0505 37.69 73.1543 37.3599C73.2581 37.0232 73.31 36.651 73.31 36.2432C73.31 35.8354 73.2581 35.4664 73.1543 35.1362C73.0505 34.7996 72.9013 34.5148 72.7067 34.2817C72.5185 34.0487 72.2883 33.8706 72.0158 33.7476C71.7433 33.6182 71.4352 33.5534 71.0914 33.5534C70.7476 33.5534 70.4362 33.6182 70.1572 33.7476C69.8848 33.8706 69.6513 34.0487 69.4566 34.2817C69.2685 34.5148 69.1226 34.7996 69.0188 35.1362C68.915 35.4664 68.8631 35.8354 68.8631 36.2432Z" fill="white"/>
<path d="M79.6866 39.467C79.4791 39.5188 79.2034 39.5738 78.8595 39.6321C78.5222 39.6903 78.1297 39.7195 77.6821 39.7195C77.2929 39.7195 76.9653 39.6644 76.6993 39.5544C76.4334 39.4379 76.2193 39.276 76.0571 39.0689C75.8949 38.8617 75.7782 38.619 75.7068 38.3406C75.6355 38.0558 75.5998 37.7418 75.5998 37.3987V34.5633H76.5047V37.2045C76.5047 37.8195 76.602 38.2597 76.7966 38.5251C76.9913 38.7905 77.3189 38.9232 77.7794 38.9232C77.8767 38.9232 77.9773 38.92 78.0811 38.9135C78.1849 38.907 78.2822 38.9006 78.373 38.8941C78.4638 38.8811 78.5449 38.8714 78.6163 38.865C78.6941 38.852 78.7493 38.8391 78.7817 38.8261V34.5633H79.6866V39.467Z" fill="white"/>
<path d="M83.1139 34.4565C83.1918 34.4565 83.2794 34.463 83.3767 34.4759C83.4805 34.4824 83.581 34.4953 83.6783 34.5148C83.7756 34.5277 83.8632 34.5439 83.941 34.5633C84.0254 34.5763 84.087 34.5892 84.1259 34.6022L83.9702 35.3887C83.8989 35.3628 83.7789 35.3337 83.6102 35.3013C83.448 35.2625 83.2372 35.243 82.9777 35.243C82.8091 35.243 82.6404 35.2625 82.4717 35.3013C82.3095 35.3337 82.2025 35.3563 82.1506 35.3693V39.6126H81.2457V34.7769C81.4597 34.6993 81.7257 34.628 82.0436 34.5633C82.3614 34.4921 82.7182 34.4565 83.1139 34.4565Z" fill="white"/>
<path d="M90.6083 36.7967C90.7121 36.9261 90.8419 37.0977 90.9976 37.3113C91.1597 37.5185 91.3252 37.7515 91.4938 38.0105C91.6625 38.2629 91.8279 38.5283 91.9901 38.8067C92.1588 39.0851 92.3015 39.3537 92.4182 39.6126H91.3868C91.257 39.3667 91.1143 39.1174 90.9586 38.865C90.8094 38.6125 90.657 38.373 90.5013 38.1464C90.3456 37.9134 90.1899 37.6965 90.0342 37.4958C89.885 37.2951 89.7488 37.1203 89.6255 36.9715C89.5412 36.9779 89.4536 36.9812 89.3628 36.9812C89.2785 36.9812 89.1909 36.9812 89.1001 36.9812H88.2535V39.6126H87.3097V32.9805C87.5756 32.9158 87.8708 32.8737 88.1951 32.8543C88.526 32.8284 88.8276 32.8155 89.1001 32.8155C90.0472 32.8155 90.7673 32.9935 91.2603 33.3495C91.7598 33.7056 92.0095 34.2364 92.0095 34.942C92.0095 35.3887 91.8895 35.7706 91.6495 36.0878C91.416 36.405 91.0689 36.6413 90.6083 36.7967ZM89.1779 33.6408C88.7757 33.6408 88.4676 33.6505 88.2535 33.67V36.2043H88.9249C89.2493 36.2043 89.5412 36.1882 89.8007 36.1558C90.0602 36.1234 90.2775 36.0619 90.4526 35.9713C90.6343 35.8807 90.7738 35.7544 90.8711 35.5926C90.9684 35.4243 91.017 35.2042 91.017 34.9323C91.017 34.6798 90.9684 34.4694 90.8711 34.3011C90.7738 34.1328 90.6408 34.0001 90.4721 33.903C90.3099 33.8059 90.1153 33.7379 89.8883 33.6991C89.6677 33.6603 89.4309 33.6408 89.1779 33.6408Z" fill="white"/>
<path d="M93.0887 37.0977C93.0887 36.651 93.1536 36.2626 93.2833 35.9325C93.4131 35.5958 93.585 35.3175 93.7991 35.0974C94.0131 34.8773 94.2596 34.7122 94.5386 34.6022C94.8175 34.4921 95.103 34.4371 95.3949 34.4371C96.076 34.4371 96.5982 34.6507 96.9615 35.078C97.3248 35.4987 97.5064 36.1428 97.5064 37.0103C97.5064 37.0491 97.5064 37.1009 97.5064 37.1657C97.5064 37.2239 97.5032 37.2789 97.4967 37.3307H94.0326C94.0715 37.8551 94.224 38.2532 94.4899 38.5251C94.7559 38.797 95.1711 38.9329 95.7355 38.9329C96.0533 38.9329 96.3193 38.907 96.5334 38.8552C96.7539 38.797 96.9193 38.742 97.0296 38.6902L97.1561 39.4476C97.0459 39.5058 96.8512 39.5673 96.5723 39.6321C96.2998 39.6968 95.9885 39.7292 95.6382 39.7292C95.197 39.7292 94.8143 39.6644 94.4899 39.535C94.1721 39.399 93.9093 39.2145 93.7018 38.9815C93.4942 38.7484 93.3385 38.4733 93.2347 38.1561C93.1374 37.8324 93.0887 37.4796 93.0887 37.0977ZM96.5626 36.6025C96.5691 36.1946 96.4653 35.8612 96.2512 35.6023C96.0436 35.3369 95.7549 35.2042 95.3852 35.2042C95.1776 35.2042 94.9927 35.2463 94.8305 35.3304C94.6748 35.4081 94.5418 35.5117 94.4316 35.6412C94.3213 35.7706 94.2337 35.9195 94.1688 36.0878C94.1104 36.2561 94.0715 36.4277 94.0521 36.6025H96.5626Z" fill="white"/>
<path d="M99.9838 38.9621C100.354 38.9621 100.626 38.9135 100.801 38.8164C100.983 38.7193 101.074 38.5639 101.074 38.3503C101.074 38.1302 100.986 37.9554 100.811 37.826C100.636 37.6965 100.347 37.5508 99.9449 37.389C99.7502 37.3113 99.5621 37.2336 99.3805 37.156C99.2053 37.0718 99.0529 36.9747 98.9231 36.8646C98.7934 36.7546 98.6896 36.6219 98.6118 36.4665C98.5339 36.3112 98.495 36.1202 98.495 35.8936C98.495 35.4469 98.6604 35.0941 98.9913 34.8352C99.3221 34.5698 99.773 34.4371 100.344 34.4371C100.487 34.4371 100.629 34.4468 100.772 34.4662C100.915 34.4792 101.048 34.4986 101.171 34.5245C101.294 34.5439 101.401 34.5665 101.492 34.5924C101.589 34.6183 101.664 34.641 101.716 34.6604L101.55 35.4372C101.453 35.3854 101.301 35.3337 101.093 35.2819C100.885 35.2236 100.636 35.1945 100.344 35.1945C100.091 35.1945 99.8703 35.2463 99.6821 35.3498C99.494 35.4469 99.3999 35.6023 99.3999 35.8159C99.3999 35.926 99.4194 36.0231 99.4583 36.1072C99.5037 36.1914 99.5686 36.2691 99.6529 36.3403C99.7438 36.405 99.854 36.4665 99.9838 36.5248C100.114 36.583 100.269 36.6445 100.451 36.7093C100.691 36.7999 100.905 36.8905 101.093 36.9812C101.281 37.0653 101.44 37.1657 101.57 37.2822C101.706 37.3987 101.81 37.5411 101.881 37.7094C101.953 37.8713 101.988 38.072 101.988 38.3115C101.988 38.7776 101.813 39.1304 101.463 39.3699C101.119 39.6094 100.626 39.7292 99.9838 39.7292C99.5362 39.7292 99.1859 39.6903 98.9329 39.6126C98.6799 39.5414 98.508 39.4864 98.4172 39.4476L98.5826 38.6708C98.6864 38.7096 98.8518 38.7679 99.0788 38.8455C99.3059 38.9232 99.6075 38.9621 99.9838 38.9621Z" fill="white"/>
<path d="M106.662 37.0977C106.662 36.5086 106.516 36.0555 106.224 35.7383C105.932 35.4211 105.543 35.2625 105.056 35.2625C104.784 35.2625 104.57 35.2722 104.414 35.2916C104.265 35.311 104.145 35.3337 104.054 35.3596V38.5445C104.164 38.6351 104.323 38.7225 104.531 38.8067C104.738 38.8909 104.965 38.9329 105.212 38.9329C105.471 38.9329 105.692 38.8876 105.874 38.797C106.062 38.6999 106.214 38.5704 106.331 38.4086C106.448 38.2403 106.532 38.0461 106.584 37.826C106.636 37.5994 106.662 37.3566 106.662 37.0977ZM107.606 37.0977C107.606 37.4796 107.554 37.8324 107.45 38.1561C107.353 38.4798 107.207 38.7581 107.012 38.9912C106.817 39.2242 106.577 39.4055 106.292 39.535C106.013 39.6644 105.692 39.7292 105.329 39.7292C105.037 39.7292 104.777 39.6903 104.55 39.6126C104.33 39.535 104.164 39.4605 104.054 39.3893V41.409H103.149V34.7187C103.363 34.6669 103.629 34.6119 103.947 34.5536C104.271 34.4889 104.644 34.4565 105.066 34.4565C105.455 34.4565 105.806 34.518 106.117 34.641C106.428 34.764 106.694 34.9388 106.915 35.1653C107.135 35.3919 107.304 35.6703 107.421 36.0004C107.544 36.3241 107.606 36.6899 107.606 37.0977Z" fill="white"/>
<path d="M113.345 37.088C113.345 37.4893 113.287 37.8519 113.17 38.1755C113.054 38.4992 112.888 38.7776 112.674 39.0106C112.466 39.2437 112.217 39.4249 111.925 39.5544C111.633 39.6774 111.315 39.7389 110.971 39.7389C110.627 39.7389 110.309 39.6774 110.018 39.5544C109.726 39.4249 109.473 39.2437 109.259 39.0106C109.051 38.7776 108.889 38.4992 108.772 38.1755C108.655 37.8519 108.597 37.4893 108.597 37.088C108.597 36.6931 108.655 36.3338 108.772 36.0101C108.889 35.68 109.051 35.3984 109.259 35.1653C109.473 34.9323 109.726 34.7543 110.018 34.6313C110.309 34.5018 110.627 34.4371 110.971 34.4371C111.315 34.4371 111.633 34.5018 111.925 34.6313C112.217 34.7543 112.466 34.9323 112.674 35.1653C112.888 35.3984 113.054 35.68 113.17 36.0101C113.287 36.3338 113.345 36.6931 113.345 37.088ZM112.402 37.088C112.402 36.5183 112.272 36.0684 112.012 35.7383C111.759 35.4016 111.412 35.2333 110.971 35.2333C110.53 35.2333 110.18 35.4016 109.92 35.7383C109.667 36.0684 109.541 36.5183 109.541 37.088C109.541 37.6576 109.667 38.1108 109.92 38.4474C110.18 38.7776 110.53 38.9426 110.971 38.9426C111.412 38.9426 111.759 38.7776 112.012 38.4474C112.272 38.1108 112.402 37.6576 112.402 37.088Z" fill="white"/>
<path d="M114.619 34.709C114.826 34.6572 115.102 34.6022 115.446 34.5439C115.79 34.4856 116.185 34.4565 116.633 34.4565C117.035 34.4565 117.369 34.5148 117.635 34.6313C117.901 34.7413 118.112 34.8999 118.268 35.1071C118.43 35.3078 118.543 35.5505 118.608 35.8354C118.673 36.1202 118.705 36.4342 118.705 36.7773V39.6126H117.801V36.9715C117.801 36.6607 117.778 36.3953 117.732 36.1752C117.694 35.9551 117.625 35.7771 117.528 35.6412C117.431 35.5052 117.301 35.4081 117.139 35.3498C116.977 35.2851 116.776 35.2527 116.536 35.2527C116.438 35.2527 116.338 35.256 116.234 35.2625C116.13 35.2689 116.03 35.2786 115.932 35.2916C115.841 35.2981 115.757 35.3078 115.679 35.3207C115.608 35.3337 115.556 35.3434 115.524 35.3498V39.6126H114.619V34.709Z" fill="white"/>
<path d="M121.384 38.9621C121.753 38.9621 122.026 38.9135 122.201 38.8164C122.383 38.7193 122.473 38.5639 122.473 38.3503C122.473 38.1302 122.386 37.9554 122.211 37.826C122.035 37.6965 121.747 37.5508 121.345 37.389C121.15 37.3113 120.962 37.2336 120.78 37.156C120.605 37.0718 120.453 36.9747 120.323 36.8646C120.193 36.7546 120.089 36.6219 120.012 36.4665C119.934 36.3112 119.895 36.1202 119.895 35.8936C119.895 35.4469 120.06 35.0941 120.391 34.8352C120.722 34.5698 121.173 34.4371 121.744 34.4371C121.886 34.4371 122.029 34.4468 122.172 34.4662C122.314 34.4792 122.447 34.4986 122.571 34.5245C122.694 34.5439 122.801 34.5665 122.892 34.5924C122.989 34.6183 123.064 34.641 123.116 34.6604L122.95 35.4372C122.853 35.3854 122.7 35.3337 122.493 35.2819C122.285 35.2236 122.035 35.1945 121.744 35.1945C121.491 35.1945 121.27 35.2463 121.082 35.3498C120.894 35.4469 120.8 35.6023 120.8 35.8159C120.8 35.926 120.819 36.0231 120.858 36.1072C120.903 36.1914 120.968 36.2691 121.053 36.3403C121.144 36.405 121.254 36.4665 121.384 36.5248C121.513 36.583 121.669 36.6445 121.851 36.7093C122.091 36.7999 122.305 36.8905 122.493 36.9812C122.681 37.0653 122.84 37.1657 122.97 37.2822C123.106 37.3987 123.21 37.5411 123.281 37.7094C123.352 37.8713 123.388 38.072 123.388 38.3115C123.388 38.7776 123.213 39.1304 122.863 39.3699C122.519 39.6094 122.026 39.7292 121.384 39.7292C120.936 39.7292 120.586 39.6903 120.333 39.6126C120.08 39.5414 119.908 39.4864 119.817 39.4476L119.982 38.6708C120.086 38.7096 120.252 38.7679 120.479 38.8455C120.706 38.9232 121.007 38.9621 121.384 38.9621Z" fill="white"/>
<path d="M125.454 39.6126H124.549V34.5633H125.454V39.6126ZM124.996 33.6505C124.834 33.6505 124.695 33.5988 124.578 33.4952C124.468 33.3851 124.413 33.2395 124.413 33.0582C124.413 32.877 124.468 32.7345 124.578 32.631C124.695 32.5209 124.834 32.4659 124.996 32.4659C125.159 32.4659 125.295 32.5209 125.405 32.631C125.522 32.7345 125.58 32.877 125.58 33.0582C125.58 33.2395 125.522 33.3851 125.405 33.4952C125.295 33.5988 125.159 33.6505 124.996 33.6505Z" fill="white"/>
<path d="M127.915 34.7866C128.025 34.7154 128.191 34.641 128.411 34.5633C128.638 34.4856 128.898 34.4468 129.19 34.4468C129.553 34.4468 129.874 34.5115 130.153 34.641C130.438 34.7705 130.678 34.9517 130.873 35.1848C131.068 35.4178 131.214 35.6962 131.311 36.0199C131.415 36.3435 131.467 36.6996 131.467 37.088C131.467 37.4958 131.405 37.8648 131.282 38.1949C131.165 38.5186 130.996 38.7937 130.776 39.0203C130.555 39.2469 130.289 39.4217 129.978 39.5447C129.666 39.6677 129.316 39.7292 128.927 39.7292C128.505 39.7292 128.132 39.7 127.808 39.6418C127.484 39.5835 127.218 39.5253 127.01 39.467V32.2328L127.915 32.0775V34.7866ZM127.915 38.8261C128.006 38.852 128.132 38.8779 128.294 38.9038C128.463 38.9232 128.671 38.9329 128.917 38.9329C129.404 38.9329 129.793 38.7743 130.085 38.4571C130.377 38.1335 130.523 37.6771 130.523 37.088C130.523 36.829 130.497 36.5863 130.445 36.3597C130.393 36.1331 130.309 35.9389 130.192 35.7771C130.075 35.6088 129.923 35.4793 129.735 35.3887C129.553 35.2916 129.332 35.243 129.073 35.243C128.826 35.243 128.599 35.2851 128.392 35.3693C128.184 35.4534 128.025 35.5408 127.915 35.6314V38.8261Z" fill="white"/>
<path d="M133.645 39.6126H132.74V34.5633H133.645V39.6126ZM133.188 33.6505C133.025 33.6505 132.886 33.5988 132.769 33.4952C132.659 33.3851 132.604 33.2395 132.604 33.0582C132.604 32.877 132.659 32.7345 132.769 32.631C132.886 32.5209 133.025 32.4659 133.188 32.4659C133.35 32.4659 133.486 32.5209 133.596 32.631C133.713 32.7345 133.771 32.877 133.771 33.0582C133.771 33.2395 133.713 33.3851 133.596 33.4952C133.486 33.5988 133.35 33.6505 133.188 33.6505Z" fill="white"/>
<path d="M136.719 39.7098C136.161 39.6968 135.766 39.577 135.532 39.3505C135.298 39.1239 135.182 38.7711 135.182 38.2921V32.2328L136.087 32.0775V38.1464C136.087 38.2953 136.1 38.4183 136.126 38.5154C136.152 38.6125 136.194 38.6902 136.252 38.7484C136.31 38.8067 136.388 38.852 136.486 38.8844C136.583 38.9103 136.703 38.9329 136.846 38.9524L136.719 39.7098Z" fill="white"/>
<path d="M138.767 39.6126H137.862V34.5633H138.767V39.6126ZM138.309 33.6505C138.147 33.6505 138.008 33.5988 137.891 33.4952C137.781 33.3851 137.726 33.2395 137.726 33.0582C137.726 32.877 137.781 32.7345 137.891 32.631C138.008 32.5209 138.147 32.4659 138.309 32.4659C138.472 32.4659 138.608 32.5209 138.718 32.631C138.835 32.7345 138.893 32.877 138.893 33.0582C138.893 33.2395 138.835 33.3851 138.718 33.4952C138.608 33.5988 138.472 33.6505 138.309 33.6505Z" fill="white"/>
<path d="M141.17 34.5633H143.087V35.3207H141.17V37.6512C141.17 37.9036 141.189 38.114 141.228 38.2823C141.267 38.4442 141.325 38.5737 141.403 38.6708C141.481 38.7614 141.578 38.8261 141.695 38.865C141.812 38.9038 141.948 38.9232 142.104 38.9232C142.376 38.9232 142.593 38.8941 142.756 38.8358C142.924 38.7711 143.041 38.7258 143.106 38.6999L143.281 39.4476C143.19 39.4929 143.031 39.5479 142.804 39.6126C142.577 39.6839 142.318 39.7195 142.026 39.7195C141.682 39.7195 141.397 39.6774 141.17 39.5932C140.949 39.5026 140.771 39.3699 140.634 39.1951C140.498 39.0203 140.401 38.8067 140.342 38.5542C140.291 38.2953 140.265 37.9975 140.265 37.6609V33.1553L141.17 33V34.5633Z" fill="white"/>
<path d="M143.645 40.5545C143.716 40.5869 143.807 40.616 143.917 40.6419C144.034 40.6743 144.147 40.6905 144.258 40.6905C144.614 40.6905 144.893 40.6096 145.094 40.4477C145.295 40.2924 145.477 40.0367 145.639 39.6806C145.231 38.9038 144.848 38.0817 144.491 37.2142C144.141 36.3403 143.849 35.4567 143.615 34.5633H144.588C144.66 34.8546 144.744 35.1686 144.841 35.5052C144.945 35.8418 145.059 36.1882 145.182 36.5442C145.305 36.9002 145.438 37.2563 145.581 37.6123C145.724 37.9684 145.873 38.3115 146.029 38.6416C146.275 37.9619 146.489 37.2887 146.671 36.6219C146.852 35.9551 147.024 35.2689 147.186 34.5633H148.121C147.887 35.5149 147.628 36.4309 147.342 37.3113C147.057 38.1852 146.749 39.0041 146.418 39.768C146.288 40.0593 146.152 40.3085 146.009 40.5157C145.873 40.7293 145.72 40.9041 145.552 41.0401C145.383 41.176 145.192 41.2763 144.978 41.3411C144.77 41.4058 144.533 41.4382 144.267 41.4382C144.196 41.4382 144.121 41.4317 144.043 41.4188C143.966 41.4123 143.888 41.3993 143.81 41.3799C143.739 41.367 143.67 41.3508 143.606 41.3314C143.547 41.3119 143.505 41.2958 143.479 41.2828L143.645 40.5545Z" fill="white"/>
<path d="M149.88 39.0883C149.88 39.2631 149.822 39.4152 149.705 39.5447C149.588 39.6741 149.429 39.7389 149.228 39.7389C149.027 39.7389 148.868 39.6741 148.751 39.5447C148.634 39.4152 148.576 39.2631 148.576 39.0883C148.576 38.9135 148.634 38.7614 148.751 38.6319C148.868 38.5024 149.027 38.4377 149.228 38.4377C149.429 38.4377 149.588 38.5024 149.705 38.6319C149.822 38.7614 149.88 38.9135 149.88 39.0883Z" fill="white"/>
<path d="M142.026 25.4852C140.914 25.4852 139.915 25.2695 139.029 24.8381C138.166 24.384 137.429 23.771 136.816 22.9991C136.225 22.2271 135.771 21.3416 135.453 20.3426C135.158 19.321 135.011 18.2311 135.011 17.0732C135.033 15.9153 135.204 14.8368 135.521 13.8379C135.839 12.8162 136.293 11.9307 136.884 11.1814C137.497 10.4095 138.235 9.80783 139.097 9.37645C139.96 8.94506 140.936 8.72937 142.026 8.72937C143.071 8.72937 144.047 8.94506 144.955 9.37645C145.886 9.80783 146.703 10.4095 147.407 11.1814C148.134 11.9307 148.701 12.8162 149.11 13.8379C149.519 14.8368 149.723 15.9039 149.723 17.0392C149.723 18.2198 149.519 19.3323 149.11 20.3767C148.701 21.3984 148.145 22.2952 147.441 23.0672C146.737 23.8164 145.92 24.4067 144.989 24.8381C144.058 25.2695 143.071 25.4852 142.026 25.4852ZM141.481 21.5006C142.276 21.5006 142.991 21.3189 143.627 20.9557C144.263 20.5697 144.762 20.0475 145.125 19.3891C145.511 18.7306 145.704 17.9814 145.704 17.1413C145.704 16.2786 145.511 15.518 145.125 14.8595C144.762 14.1784 144.263 13.6562 143.627 13.2929C142.991 12.907 142.276 12.714 141.481 12.714C140.709 12.714 140.006 12.907 139.37 13.2929C138.734 13.6789 138.223 14.2011 137.837 14.8595C137.474 15.518 137.292 16.2786 137.292 17.1413C137.292 17.9814 137.474 18.7306 137.837 19.3891C138.223 20.0475 138.734 20.5697 139.37 20.9557C140.006 21.3189 140.709 21.5006 141.481 21.5006ZM135.181 25.5192C134.568 25.5192 134.114 25.4171 133.819 25.2127C133.523 25.0311 133.342 24.7927 133.274 24.4975C133.206 24.1797 133.172 23.8278 133.172 23.4418V3.1441C133.172 2.75813 133.206 2.41756 133.274 2.1224C133.342 1.80454 133.523 1.55479 133.819 1.37316C134.114 1.19153 134.568 1.10071 135.181 1.10071C135.817 1.10071 136.271 1.19153 136.543 1.37316C136.816 1.55479 136.986 1.80454 137.054 2.1224C137.122 2.44026 137.156 2.78083 137.156 3.1441V24.1229C137.065 24.6224 136.872 24.9743 136.577 25.1787C136.305 25.4057 135.839 25.5192 135.181 25.5192Z" fill="white" stroke="white" stroke-width="0.2"/>
<path d="M123.021 25.7241C121.545 25.7241 120.251 25.4857 119.139 25.0089C118.049 24.5321 117.129 23.885 116.38 23.0677C115.653 22.2276 115.097 21.2967 114.711 20.275C114.348 19.2306 114.166 18.1522 114.166 17.0396C114.166 15.4049 114.541 13.9519 115.29 12.6804C116.039 11.409 117.072 10.41 118.389 9.68344C119.729 8.9569 121.261 8.59363 122.987 8.59363C124.213 8.59363 125.291 8.78661 126.222 9.17259C127.153 9.55856 127.925 10.0694 128.538 10.7051C129.174 11.3181 129.651 11.9993 129.969 12.7485C130.309 13.4978 130.479 14.2243 130.479 14.9281C130.479 16.1315 130.184 17.0056 129.594 17.5505C129.026 18.0954 128.311 18.3679 127.448 18.3679H118.457C118.48 19.1398 118.718 19.8096 119.173 20.3772C119.649 20.9448 120.24 21.3875 120.944 21.7054C121.67 22.0005 122.408 22.1481 123.157 22.1481C123.725 22.1481 124.224 22.1141 124.656 22.046C125.11 21.9778 125.496 21.8984 125.814 21.8076C126.131 21.694 126.404 21.5805 126.631 21.467C126.881 21.3535 127.108 21.2513 127.312 21.1605C127.516 21.0697 127.709 21.0129 127.891 20.9902C128.141 20.9675 128.391 21.0243 128.64 21.1605C128.89 21.2967 129.094 21.5351 129.253 21.8757C129.39 22.1027 129.48 22.3184 129.526 22.5227C129.594 22.7044 129.628 22.886 129.628 23.0677C129.628 23.5217 129.355 23.9531 128.811 24.3618C128.266 24.7478 127.494 25.0656 126.495 25.3154C125.518 25.5878 124.361 25.7241 123.021 25.7241ZM118.457 15.9498H125.439C125.825 15.9498 126.12 15.8931 126.324 15.7796C126.529 15.6433 126.631 15.3709 126.631 14.9622C126.631 14.44 126.472 13.9746 126.154 13.5659C125.836 13.1345 125.405 12.8053 124.86 12.5782C124.315 12.3285 123.679 12.2036 122.953 12.2036C122.113 12.2036 121.352 12.3739 120.671 12.7145C119.99 13.0323 119.445 13.4751 119.036 14.0427C118.65 14.6103 118.457 15.246 118.457 15.9498Z" fill="white" stroke="white" stroke-width="0.2"/>
<path d="M92.5517 25.4184C92.0977 25.4184 91.7344 25.3389 91.4619 25.18C91.1895 24.9983 90.9851 24.794 90.8489 24.567C90.7354 24.3399 90.6559 24.1469 90.6105 23.988L83.9354 4.43956C83.7084 3.71302 83.6743 3.16811 83.8333 2.80484C83.9922 2.41887 84.4576 2.10101 85.2296 1.85126C85.7518 1.66962 86.1718 1.59016 86.4897 1.61286C86.8075 1.63557 87.0686 1.77179 87.273 2.02154C87.5 2.24859 87.693 2.61186 87.8519 3.11135L92.7561 17.96L97.1494 3.24758C97.2175 3.02053 97.3083 2.79349 97.4218 2.56645C97.5581 2.3167 97.7624 2.11236 98.0348 1.95343C98.3073 1.7945 98.6819 1.71503 99.1587 1.71503C99.7036 1.71503 100.112 1.80585 100.385 1.98749C100.657 2.16912 100.85 2.37346 100.964 2.6005C101.1 2.80484 101.191 2.99783 101.236 3.17946L105.629 18.0622L110.568 3.14541C110.727 2.62321 110.908 2.23723 111.113 1.98749C111.34 1.73774 111.623 1.60151 111.964 1.57881C112.305 1.5334 112.725 1.60151 113.224 1.78315C113.746 1.96478 114.121 2.16912 114.348 2.39616C114.575 2.6005 114.688 2.87296 114.688 3.21352C114.688 3.53138 114.609 3.94006 114.45 4.43956L107.809 24.0221C107.764 24.1583 107.673 24.3399 107.537 24.567C107.423 24.794 107.23 24.9983 106.958 25.18C106.685 25.3389 106.311 25.4184 105.834 25.4184C105.357 25.4184 104.982 25.3162 104.71 25.1119C104.437 24.9075 104.233 24.6805 104.097 24.4307C103.961 24.181 103.87 23.9994 103.824 23.8858L99.1928 8.90096L94.5611 23.8518C94.5157 24.0107 94.4249 24.215 94.2886 24.4648C94.1751 24.7145 93.9821 24.9416 93.7097 25.1459C93.4372 25.3276 93.0512 25.4184 92.5517 25.4184Z" fill="white" stroke="white" stroke-width="0.2"/>
<path d="M74.8432 25.7244C74.2528 25.7244 73.6285 25.6563 72.9701 25.52C72.3116 25.4065 71.6759 25.2362 71.0629 25.0092C70.4499 24.7594 69.9163 24.4756 69.4622 24.1578C69.0308 23.8172 68.7584 23.4426 68.6449 23.0339C68.5541 22.8069 68.52 22.5912 68.5427 22.3868C68.5654 22.1598 68.6335 21.9327 68.747 21.7057C68.8606 21.4559 69.0308 21.2062 69.2579 20.9565C69.4622 20.7067 69.6666 20.5705 69.8709 20.5478C70.0979 20.5024 70.3818 20.5705 70.7223 20.7521C71.0175 20.8656 71.3353 21.0132 71.6759 21.1948C72.0392 21.3765 72.4024 21.5581 72.7657 21.7398C73.1517 21.9214 73.5377 22.069 73.9236 22.1825C74.3323 22.296 74.7296 22.3528 75.1156 22.3528C75.9557 22.3528 76.6255 22.2165 77.125 21.9441C77.6244 21.6489 77.8742 21.2403 77.8742 20.7181C77.8742 20.4229 77.7947 20.1618 77.6358 19.9348C77.4769 19.7077 77.2612 19.5261 76.9887 19.3899C76.739 19.2309 76.4325 19.0947 76.0692 18.9812C75.7286 18.8449 75.354 18.7314 74.9453 18.6406C74.5594 18.5271 74.1507 18.4022 73.7193 18.266C73.1517 18.1071 72.5841 17.9141 72.0165 17.687C71.4489 17.46 70.938 17.1648 70.4839 16.8016C70.0525 16.4383 69.7006 15.9842 69.4282 15.4393C69.1557 14.8944 69.0195 14.2133 69.0195 13.3959C69.0195 12.3742 69.2579 11.5114 69.7347 10.8076C70.2342 10.0811 70.9494 9.52481 71.8802 9.13884C72.8111 8.75286 73.935 8.55988 75.2518 8.55988C75.7059 8.55988 76.1373 8.59393 76.546 8.66205C76.9774 8.73016 77.386 8.83233 77.772 8.96855C78.1807 9.08208 78.5667 9.22965 78.9299 9.41129C79.3159 9.59292 79.6792 9.79726 80.0198 10.0243C80.5874 10.3422 80.8825 10.7168 80.9052 11.1482C80.9279 11.5569 80.769 11.9996 80.4284 12.4764C80.1787 12.7942 79.9289 13.0213 79.6792 13.1575C79.4294 13.271 79.1683 13.271 78.8959 13.1575C78.5326 12.9759 78.1353 12.7829 77.7039 12.5785C77.2952 12.3515 76.8639 12.1585 76.4098 11.9996C75.9784 11.8407 75.5243 11.7612 75.0475 11.7612C74.5934 11.7612 74.1847 11.8293 73.8215 11.9655C73.4582 12.1018 73.1857 12.2947 73.0041 12.5445C72.8225 12.7942 72.7317 13.0894 72.7317 13.43C72.7317 13.7478 72.8225 14.0089 73.0041 14.2133C73.1857 14.4176 73.4241 14.5879 73.7193 14.7241C74.0145 14.8603 74.3664 14.9852 74.775 15.0987C75.1837 15.1895 75.6151 15.2804 76.0692 15.3712C76.7049 15.5074 77.352 15.6777 78.0104 15.882C78.6688 16.0864 79.2705 16.3702 79.8154 16.7334C80.383 17.0967 80.8371 17.5849 81.1777 18.1979C81.5182 18.7882 81.6885 19.5601 81.6885 20.5137C81.6885 22.1711 81.0755 23.4539 79.8495 24.3621C78.6461 25.2703 76.9774 25.7244 74.8432 25.7244Z" fill="white" stroke="white" stroke-width="0.2"/>
<path d="M58.7662 25.7238C57.2904 25.7238 55.9963 25.4855 54.8838 25.0087C53.7939 24.5319 52.8744 23.8848 52.1252 23.0674C51.3986 22.2274 50.8424 21.2965 50.4564 20.2748C50.0931 19.2304 49.9115 18.1519 49.9115 17.0394C49.9115 15.4047 50.2861 13.9516 51.0354 12.6802C51.7846 11.4088 52.8177 10.4098 54.1345 9.68322C55.4741 8.95668 57.0066 8.59341 58.7321 8.59341C59.9582 8.59341 61.0366 8.7864 61.9675 9.17237C62.8984 9.55835 63.6703 10.0692 64.2834 10.7049C64.9191 11.3179 65.3959 11.9991 65.7137 12.7483C66.0543 13.4976 66.2246 14.2241 66.2246 14.9279C66.2246 16.1313 65.9294 17.0054 65.3391 17.5503C64.7715 18.0952 64.0563 18.3676 63.1936 18.3676H54.2026C54.2253 19.1396 54.4637 19.8094 54.9178 20.377C55.3946 20.9446 55.9849 21.3873 56.6888 21.7052C57.4153 22.0003 58.1532 22.1479 58.9024 22.1479C59.47 22.1479 59.9695 22.1139 60.4009 22.0457C60.855 21.9776 61.241 21.8982 61.5588 21.8073C61.8767 21.6938 62.1491 21.5803 62.3762 21.4668C62.6259 21.3533 62.853 21.2511 63.0573 21.1603C63.2617 21.0695 63.4547 21.0127 63.6363 20.99C63.886 20.9673 64.1358 21.024 64.3855 21.1603C64.6353 21.2965 64.8396 21.5349 64.9985 21.8755C65.1348 22.1025 65.2256 22.3182 65.271 22.5225C65.3391 22.7042 65.3732 22.8858 65.3732 23.0674C65.3732 23.5215 65.1007 23.9529 64.5558 24.3616C64.0109 24.7476 63.239 25.0654 62.24 25.3152C61.2637 25.5876 60.1058 25.7238 58.7662 25.7238ZM54.2026 15.9496H61.1842C61.5702 15.9496 61.8653 15.8929 62.0697 15.7793C62.274 15.6431 62.3762 15.3707 62.3762 14.962C62.3762 14.4398 62.2173 13.9743 61.8994 13.5657C61.5815 13.1343 61.1502 12.8051 60.6053 12.578C60.0604 12.3283 59.4246 12.2034 58.6981 12.2034C57.858 12.2034 57.0974 12.3737 56.4163 12.7143C55.7352 13.0321 55.1903 13.4748 54.7816 14.0425C54.3956 14.6101 54.2026 15.2458 54.2026 15.9496Z" fill="white" stroke="white" stroke-width="0.2"/>
<path d="M46.6081 25.5207C45.768 25.5207 45.0188 25.4639 44.3604 25.3504C43.7246 25.2369 43.1684 25.0439 42.6916 24.7715C42.2375 24.499 41.8629 24.1357 41.5677 23.6816C41.2726 23.2049 41.0455 22.6259 40.8866 21.9448C40.7504 21.2636 40.6823 20.4463 40.6823 19.4927V3.07745C40.6823 2.69147 40.7163 2.35091 40.7844 2.05575C40.8752 1.73789 41.0569 1.48814 41.3293 1.30651C41.6245 1.10217 42.0899 1 42.7256 1C43.3614 1 43.8155 1.09082 44.0879 1.27245C44.3831 1.45409 44.5647 1.70384 44.6328 2.0217C44.7236 2.31685 44.769 2.65742 44.769 3.04339V19.3224C44.769 19.7538 44.7917 20.1171 44.8371 20.4122C44.9053 20.6847 45.0074 20.9117 45.1437 21.0934C45.3026 21.2523 45.4956 21.3658 45.7226 21.4339C45.9724 21.502 46.2675 21.5361 46.6081 21.5361C46.9032 21.5361 47.1643 21.5701 47.3914 21.6383C47.6411 21.7064 47.8341 21.8767 47.9703 22.1491C48.1293 22.4216 48.2087 22.8643 48.2087 23.4773C48.2087 24.113 48.1293 24.5785 47.9703 24.8736C47.8341 25.1688 47.6411 25.3504 47.3914 25.4185C47.1416 25.4866 46.8805 25.5207 46.6081 25.5207Z" fill="white" stroke="white" stroke-width="0.2"/>
<path d="M34.9805 25.5202C34.3675 25.5202 33.9134 25.4181 33.6183 25.2137C33.3231 25.0321 33.1415 24.7937 33.0734 24.4986C33.0052 24.1807 32.9712 23.8288 32.9712 23.4428V10.7738C32.9712 10.4105 33.0052 10.0813 33.0734 9.78613C33.1642 9.46827 33.3458 9.21852 33.6183 9.03689C33.9134 8.85525 34.3789 8.76443 35.0146 8.76443C35.6503 8.76443 36.1044 8.85525 36.3768 9.03689C36.672 9.21852 36.8536 9.46827 36.9217 9.78613C36.9899 10.104 37.0239 10.4559 37.0239 10.8419V23.4769C37.0239 23.8628 36.9899 24.2147 36.9217 24.5326C36.8536 24.8278 36.672 25.0662 36.3768 25.2478C36.1044 25.4294 35.6389 25.5202 34.9805 25.5202ZM34.9805 5.46095C34.3221 5.46095 33.834 5.37013 33.5161 5.1885C33.2209 4.98416 33.0279 4.71171 32.9371 4.37114C32.869 4.03058 32.835 3.65595 32.835 3.24727C32.835 2.81589 32.869 2.44127 32.9371 2.12341C33.0279 1.80555 33.2323 1.5558 33.5501 1.37416C33.868 1.16983 34.3562 1.06766 35.0146 1.06766C35.6957 1.06766 36.1839 1.16983 36.479 1.37416C36.7742 1.5785 36.9672 1.85096 37.058 2.19152C37.1488 2.50938 37.1942 2.88401 37.1942 3.31539C37.1942 3.70136 37.1488 4.06463 37.058 4.4052C36.9672 4.74576 36.7742 5.00686 36.479 5.1885C36.1839 5.37013 35.6844 5.46095 34.9805 5.46095Z" fill="white" stroke="white" stroke-width="0.2"/>
<path d="M7.00934 25.4859C6.41902 25.4859 5.97629 25.3951 5.68113 25.2134C5.38597 25.0318 5.19299 24.782 5.10217 24.4642C5.03406 24.1463 5 23.7944 5 23.4084V3.75781C5 3.39454 5.03406 3.06532 5.10217 2.77017C5.19299 2.45231 5.38597 2.20256 5.68113 2.02092C5.97629 1.81659 6.44173 1.71442 7.07745 1.71442C7.55424 1.71442 7.90616 1.74847 8.1332 1.81659C8.38295 1.86199 8.57594 1.94146 8.71216 2.05498C8.84839 2.1458 8.98462 2.27067 9.12084 2.4296L17.4306 14.0429H16.6473L24.9912 2.39555C25.1501 2.21391 25.3091 2.07768 25.468 1.98687C25.6269 1.89605 25.8313 1.82794 26.081 1.78253C26.3308 1.73712 26.66 1.71442 27.0686 1.71442C27.6817 1.71442 28.1357 1.81659 28.4309 2.02092C28.7261 2.20256 28.9077 2.45231 28.9758 2.77017C29.0666 3.08803 29.112 3.43995 29.112 3.82592V23.4765C29.112 23.8171 29.0666 24.1463 28.9758 24.4642C28.9077 24.782 28.7261 25.0318 28.4309 25.2134C28.1357 25.3951 27.6703 25.4859 27.0346 25.4859C26.4216 25.4859 25.9675 25.3837 25.6723 25.1794C25.3772 24.9977 25.1842 24.748 25.0934 24.4301C25.0252 24.1123 24.9912 23.7717 24.9912 23.4084V8.79817L18.7929 17.755C18.7248 17.8459 18.6226 17.9707 18.4864 18.1297C18.3502 18.2659 18.1685 18.3908 17.9415 18.5043C17.7144 18.6178 17.4079 18.6746 17.022 18.6746C16.6587 18.6746 16.3635 18.6178 16.1365 18.5043C15.9094 18.3908 15.7278 18.2659 15.5916 18.1297C15.4781 17.9934 15.3645 17.8572 15.251 17.721L9.08679 8.79817V23.4765C9.08679 23.8171 9.04138 24.1463 8.95056 24.4642C8.88245 24.782 8.70081 25.0318 8.40565 25.2134C8.1105 25.3951 7.64506 25.4859 7.00934 25.4859Z" fill="white" stroke="white" stroke-width="0.2"/>
</svg>
