<svg width="201" height="188" viewBox="0 0 201 188" fill="none" xmlns="http://www.w3.org/2000/svg">
<path d="M91.4648 124.018C91.4648 123.216 92.1153 122.565 92.9177 122.565H193.161C193.964 122.565 194.614 123.216 194.614 124.018V124.018C194.614 124.82 193.964 125.471 193.161 125.471H92.9176C92.1153 125.471 91.4648 124.82 91.4648 124.018V124.018Z" fill="#FFBB00"/>
<path d="M9.77385 113.305V109.788C9.1907 108.885 8.64136 107.996 8.12583 107.119C7.6103 106.241 7.12434 105.381 6.66797 104.538H8.11315C8.43431 105.229 8.79349 105.934 9.1907 106.65C9.58792 107.359 9.99781 108.042 10.4204 108.7C10.8345 108.042 11.2402 107.359 11.6374 106.65C12.0346 105.934 12.398 105.229 12.7276 104.538H14.0967C13.6403 105.381 13.1544 106.241 12.6389 107.119C12.1233 107.987 11.5782 108.869 11.0035 109.763V113.305H9.77385Z" fill="#27235C"/>
<path d="M20.3824 110.016C20.3824 110.538 20.3063 111.011 20.1542 111.432C20.0021 111.854 19.7865 112.217 19.5076 112.52C19.2372 112.824 18.9118 113.06 18.5315 113.229C18.1512 113.389 17.7371 113.469 17.2892 113.469C16.8412 113.469 16.4271 113.389 16.0468 113.229C15.6665 113.06 15.3369 112.824 15.058 112.52C14.7876 112.217 14.5763 111.854 14.4241 111.432C14.272 111.011 14.196 110.538 14.196 110.016C14.196 109.501 14.272 109.033 14.4241 108.611C14.5763 108.181 14.7876 107.814 15.058 107.511C15.3369 107.207 15.6665 106.975 16.0468 106.815C16.4271 106.646 16.8412 106.562 17.2892 106.562C17.7371 106.562 18.1512 106.646 18.5315 106.815C18.9118 106.975 19.2372 107.207 19.5076 107.511C19.7865 107.814 20.0021 108.181 20.1542 108.611C20.3063 109.033 20.3824 109.501 20.3824 110.016ZM19.1527 110.016C19.1527 109.273 18.9837 108.687 18.6456 108.257C18.316 107.819 17.8639 107.599 17.2892 107.599C16.7145 107.599 16.2581 107.819 15.92 108.257C15.5904 108.687 15.4256 109.273 15.4256 110.016C15.4256 110.758 15.5904 111.348 15.92 111.787C16.2581 112.217 16.7145 112.432 17.2892 112.432C17.8639 112.432 18.316 112.217 18.6456 111.787C18.9837 111.348 19.1527 110.758 19.1527 110.016Z" fill="#27235C"/>
<path d="M27.2894 113.115C27.0189 113.182 26.6598 113.254 26.2118 113.33C25.7724 113.406 25.2611 113.444 24.6779 113.444C24.1708 113.444 23.744 113.372 23.3975 113.229C23.051 113.077 22.7721 112.866 22.5608 112.596C22.3496 112.326 22.1974 112.01 22.1045 111.647C22.0115 111.276 21.965 110.867 21.965 110.42V106.726H23.144V110.167C23.144 110.969 23.2708 111.542 23.5243 111.888C23.7778 112.234 24.2046 112.406 24.8047 112.406C24.9314 112.406 25.0624 112.402 25.1977 112.394C25.3329 112.385 25.4597 112.377 25.578 112.369C25.6963 112.352 25.8019 112.339 25.8949 112.331C25.9963 112.314 26.0682 112.297 26.1104 112.28V106.726H27.2894V113.115Z" fill="#27235C"/>
<path d="M31.7545 106.587C31.8559 106.587 31.97 106.596 32.0968 106.613C32.232 106.621 32.363 106.638 32.4897 106.663C32.6165 106.68 32.7306 106.701 32.832 106.726C32.9419 106.743 33.0222 106.76 33.0729 106.777L32.8701 107.802C32.7771 107.768 32.6207 107.73 32.401 107.688C32.1897 107.637 31.9151 107.612 31.577 107.612C31.3573 107.612 31.1375 107.637 30.9178 107.688C30.7065 107.73 30.5671 107.76 30.4994 107.776V113.305H29.3205V107.005C29.5994 106.903 29.9459 106.811 30.36 106.726C30.7741 106.634 31.2389 106.587 31.7545 106.587Z" fill="#27235C"/>
<path d="M42.7479 104.538H43.9775V113.305H42.7479V109.256H38.4503V113.305H37.2207V104.538H38.4503V108.194H42.7479V104.538Z" fill="#27235C"/>
<path d="M51.9017 110.016C51.9017 110.538 51.8256 111.011 51.6735 111.432C51.5214 111.854 51.3059 112.217 51.027 112.52C50.7565 112.824 50.4311 113.06 50.0508 113.229C49.6705 113.389 49.2564 113.469 48.8085 113.469C48.3606 113.469 47.9464 113.389 47.5661 113.229C47.1858 113.06 46.8562 112.824 46.5773 112.52C46.3069 112.217 46.0956 111.854 45.9435 111.432C45.7913 111.011 45.7153 110.538 45.7153 110.016C45.7153 109.501 45.7913 109.033 45.9435 108.611C46.0956 108.181 46.3069 107.814 46.5773 107.511C46.8562 107.207 47.1858 106.975 47.5661 106.815C47.9464 106.646 48.3606 106.562 48.8085 106.562C49.2564 106.562 49.6705 106.646 50.0508 106.815C50.4311 106.975 50.7565 107.207 51.027 107.511C51.3059 107.814 51.5214 108.181 51.6735 108.611C51.8256 109.033 51.9017 109.501 51.9017 110.016ZM50.672 110.016C50.672 109.273 50.503 108.687 50.1649 108.257C49.8353 107.819 49.3832 107.599 48.8085 107.599C48.2338 107.599 47.7774 107.819 47.4394 108.257C47.1098 108.687 46.945 109.273 46.945 110.016C46.945 110.758 47.1098 111.348 47.4394 111.787C47.7774 112.217 48.2338 112.432 48.8085 112.432C49.3832 112.432 49.8353 112.217 50.1649 111.787C50.503 111.348 50.672 110.758 50.672 110.016Z" fill="#27235C"/>
<path d="M55.0943 112.457C55.5761 112.457 55.931 112.394 56.1592 112.267C56.3958 112.141 56.5142 111.938 56.5142 111.66C56.5142 111.373 56.4001 111.146 56.1719 110.977C55.9437 110.808 55.5676 110.619 55.0436 110.408C54.7901 110.306 54.545 110.205 54.3083 110.104C54.0802 109.994 53.8816 109.868 53.7125 109.725C53.5435 109.581 53.4083 109.408 53.3069 109.206C53.2054 109.003 53.1547 108.755 53.1547 108.46C53.1547 107.878 53.3702 107.418 53.8013 107.081C54.2323 106.735 54.8197 106.562 55.5634 106.562C55.7493 106.562 55.9352 106.575 56.1212 106.6C56.3071 106.617 56.4803 106.642 56.6409 106.676C56.8015 106.701 56.9409 106.731 57.0593 106.764C57.186 106.798 57.2832 106.828 57.3508 106.853L57.1353 107.865C57.0086 107.797 56.81 107.73 56.5395 107.663C56.2691 107.587 55.9437 107.549 55.5634 107.549C55.2338 107.549 54.9464 107.616 54.7013 107.751C54.4562 107.878 54.3337 108.08 54.3337 108.358C54.3337 108.502 54.3591 108.628 54.4098 108.738C54.4689 108.847 54.5534 108.949 54.6633 109.041C54.7816 109.126 54.9253 109.206 55.0943 109.282C55.2634 109.358 55.4662 109.438 55.7028 109.522C56.0155 109.64 56.2944 109.758 56.5395 109.876C56.7846 109.986 56.9917 110.117 57.1607 110.269C57.3382 110.42 57.4734 110.606 57.5663 110.825C57.6593 111.036 57.7058 111.297 57.7058 111.609C57.7058 112.217 57.4776 112.676 57.0212 112.988C56.5733 113.3 55.931 113.456 55.0943 113.456C54.5112 113.456 54.0548 113.406 53.7252 113.305C53.3956 113.212 53.1716 113.14 53.0533 113.09L53.2688 112.078C53.404 112.128 53.6196 112.204 53.9154 112.305C54.2112 112.406 54.6041 112.457 55.0943 112.457Z" fill="#27235C"/>
<path d="M60.3209 106.726H62.8183V107.713H60.3209V110.749C60.3209 111.078 60.3463 111.352 60.397 111.572C60.4477 111.782 60.5238 111.951 60.6252 112.078C60.7266 112.196 60.8534 112.28 61.0055 112.331C61.1576 112.381 61.3351 112.406 61.5379 112.406C61.8929 112.406 62.176 112.369 62.3873 112.293C62.607 112.208 62.7592 112.149 62.8437 112.116L63.0719 113.09C62.9535 113.149 62.7465 113.22 62.4507 113.305C62.1549 113.397 61.8168 113.444 61.4365 113.444C60.9886 113.444 60.6167 113.389 60.3209 113.279C60.0336 113.161 59.8012 112.988 59.6237 112.761C59.4462 112.533 59.3194 112.255 59.2434 111.926C59.1758 111.588 59.142 111.2 59.142 110.762V104.892L60.3209 104.69V106.726Z" fill="#27235C"/>
<path d="M65.4975 113.305H64.3186V106.726H65.4975V113.305ZM64.9017 105.537C64.6904 105.537 64.5087 105.47 64.3566 105.335C64.2129 105.191 64.1411 105.002 64.1411 104.766C64.1411 104.529 64.2129 104.344 64.3566 104.209C64.5087 104.066 64.6904 103.994 64.9017 103.994C65.113 103.994 65.2905 104.066 65.4341 104.209C65.5863 104.344 65.6623 104.529 65.6623 104.766C65.6623 105.002 65.5863 105.191 65.4341 105.335C65.2905 105.47 65.113 105.537 64.9017 105.537Z" fill="#27235C"/>
<path d="M67.525 106.916C67.7954 106.849 68.1546 106.777 68.6025 106.701C69.0504 106.625 69.566 106.587 70.1491 106.587C70.6731 106.587 71.1084 106.663 71.4549 106.815C71.8014 106.958 72.076 107.165 72.2789 107.435C72.4902 107.696 72.638 108.013 72.7226 108.384C72.8071 108.755 72.8493 109.164 72.8493 109.611V113.305H71.6704V109.864C71.6704 109.459 71.6408 109.113 71.5816 108.826C71.5309 108.54 71.4422 108.308 71.3154 108.131C71.1886 107.953 71.0196 107.827 70.8083 107.751C70.597 107.667 70.335 107.625 70.0223 107.625C69.8956 107.625 69.7646 107.629 69.6294 107.637C69.4941 107.646 69.3631 107.658 69.2364 107.675C69.1181 107.684 69.0082 107.696 68.9068 107.713C68.8138 107.73 68.7462 107.743 68.7039 107.751V113.305H67.525V106.916Z" fill="#27235C"/>
<path d="M78.9371 112.647C78.8357 112.714 78.6371 112.803 78.3413 112.913C78.0539 113.014 77.7159 113.064 77.3271 113.064C76.9299 113.064 76.5538 113.001 76.1988 112.875C75.8523 112.748 75.5481 112.554 75.2861 112.293C75.0241 112.023 74.817 111.69 74.6649 111.293C74.5128 110.897 74.4367 110.425 74.4367 109.876C74.4367 109.396 74.5086 108.957 74.6523 108.561C74.7959 108.156 75.003 107.81 75.2734 107.523C75.5523 107.228 75.8904 107 76.2876 106.84C76.6848 106.672 77.1327 106.587 77.6314 106.587C78.1807 106.587 78.6582 106.629 79.0639 106.714C79.478 106.79 79.8245 106.861 80.1034 106.929V112.799C80.1034 113.811 79.8414 114.544 79.3174 115C78.7934 115.455 77.999 115.683 76.9341 115.683C76.52 115.683 76.127 115.649 75.7552 115.582C75.3917 115.514 75.0748 115.434 74.8044 115.341L75.0199 114.317C75.2565 114.409 75.5439 114.49 75.8819 114.557C76.2284 114.633 76.5876 114.671 76.9595 114.671C77.6609 114.671 78.1638 114.532 78.468 114.253C78.7807 113.975 78.9371 113.532 78.9371 112.925V112.647ZM78.9244 107.764C78.8061 107.73 78.6455 107.7 78.4427 107.675C78.2483 107.641 77.9821 107.625 77.644 107.625C77.0102 107.625 76.52 107.831 76.1735 108.244C75.8354 108.658 75.6664 109.206 75.6664 109.889C75.6664 110.269 75.7129 110.593 75.8059 110.863C75.9073 111.133 76.0383 111.356 76.1988 111.534C76.3679 111.711 76.558 111.841 76.7693 111.926C76.9891 112.01 77.213 112.052 77.4412 112.052C77.7539 112.052 78.0412 112.01 78.3032 111.926C78.5652 111.833 78.7723 111.728 78.9244 111.609V107.764Z" fill="#27235C"/>
<path d="M83.3756 111.863C83.3841 111.93 83.3883 111.997 83.3883 112.065C83.3883 112.124 83.3883 112.187 83.3883 112.255C83.3883 112.786 83.308 113.309 83.1475 113.823C82.9953 114.346 82.7841 114.844 82.5136 115.316L81.6009 115.025C81.8121 114.595 81.9516 114.156 82.0192 113.709C82.0868 113.271 82.1206 112.858 82.1206 112.47C82.1206 112.36 82.1164 112.255 82.1079 112.153C82.1079 112.052 82.1037 111.955 82.0953 111.863H83.3756Z" fill="#27235C"/>
<path d="M87.9082 108.915C87.9082 108.164 88.0181 107.502 88.2378 106.929C88.466 106.355 88.7702 105.879 89.1505 105.499C89.5393 105.111 89.9872 104.82 90.4943 104.626C91.0098 104.432 91.555 104.335 92.1296 104.335C92.6959 104.335 93.2283 104.432 93.727 104.626C94.234 104.82 94.6777 105.111 95.0581 105.499C95.4384 105.879 95.7384 106.355 95.9581 106.929C96.1863 107.502 96.3004 108.164 96.3004 108.915C96.3004 109.666 96.1863 110.328 95.9581 110.901C95.7384 111.475 95.4384 111.955 95.0581 112.343C94.6777 112.723 94.234 113.009 93.727 113.203C93.2283 113.397 92.6959 113.494 92.1296 113.494C91.555 113.494 91.0098 113.397 90.4943 113.203C89.9872 113.009 89.5393 112.723 89.1505 112.343C88.7702 111.955 88.466 111.475 88.2378 110.901C88.0181 110.328 87.9082 109.666 87.9082 108.915ZM89.2013 108.915C89.2013 109.446 89.2689 109.931 89.4041 110.37C89.5393 110.8 89.7295 111.167 89.9746 111.47C90.2281 111.774 90.5323 112.01 90.8873 112.179C91.2507 112.339 91.6564 112.419 92.1043 112.419C92.5522 112.419 92.9537 112.339 93.3086 112.179C93.6636 112.01 93.9636 111.774 94.2087 111.47C94.4622 111.167 94.6566 110.8 94.7918 110.37C94.9271 109.931 94.9947 109.446 94.9947 108.915C94.9947 108.384 94.9271 107.903 94.7918 107.473C94.6566 107.034 94.4622 106.663 94.2087 106.36C93.9636 106.056 93.6636 105.824 93.3086 105.664C92.9537 105.495 92.5522 105.411 92.1043 105.411C91.6564 105.411 91.2507 105.495 90.8873 105.664C90.5323 105.824 90.2281 106.056 89.9746 106.36C89.7295 106.663 89.5393 107.034 89.4041 107.473C89.2689 107.903 89.2013 108.384 89.2013 108.915Z" fill="#27235C"/>
<path d="M103.302 113.115C103.032 113.182 102.673 113.254 102.225 113.33C101.785 113.406 101.274 113.444 100.691 113.444C100.184 113.444 99.7568 113.372 99.4103 113.229C99.0638 113.077 98.7849 112.866 98.5737 112.596C98.3624 112.326 98.2103 112.01 98.1173 111.647C98.0243 111.276 97.9778 110.867 97.9778 110.42V106.726H99.1568V110.167C99.1568 110.969 99.2836 111.542 99.5371 111.888C99.7907 112.234 100.217 112.406 100.817 112.406C100.944 112.406 101.075 112.402 101.21 112.394C101.346 112.385 101.472 112.377 101.591 112.369C101.709 112.352 101.815 112.339 101.908 112.331C102.009 112.314 102.081 112.297 102.123 112.28V106.726H103.302V113.115Z" fill="#27235C"/>
<path d="M107.767 106.587C107.869 106.587 107.983 106.596 108.11 106.613C108.245 106.621 108.376 106.638 108.503 106.663C108.629 106.68 108.743 106.701 108.845 106.726C108.955 106.743 109.035 106.76 109.086 106.777L108.883 107.802C108.79 107.768 108.634 107.73 108.414 107.688C108.203 107.637 107.928 107.612 107.59 107.612C107.37 107.612 107.15 107.637 106.931 107.688C106.719 107.73 106.58 107.76 106.512 107.776V113.305H105.333V107.005C105.612 106.903 105.959 106.811 106.373 106.726C106.787 106.634 107.252 106.587 107.767 106.587Z" fill="#27235C"/>
<path d="M117.531 109.636C117.666 109.805 117.835 110.028 118.038 110.306C118.249 110.576 118.465 110.88 118.685 111.217C118.904 111.546 119.12 111.892 119.331 112.255C119.551 112.617 119.737 112.967 119.889 113.305H118.545C118.376 112.984 118.19 112.659 117.987 112.331C117.793 112.002 117.594 111.69 117.392 111.394C117.189 111.091 116.986 110.808 116.783 110.547C116.589 110.285 116.411 110.058 116.251 109.864C116.141 109.872 116.027 109.876 115.908 109.876C115.798 109.876 115.684 109.876 115.566 109.876H114.463V113.305H113.233V104.664C113.58 104.58 113.965 104.525 114.387 104.5C114.818 104.466 115.211 104.449 115.566 104.449C116.8 104.449 117.738 104.681 118.38 105.145C119.031 105.609 119.356 106.3 119.356 107.22C119.356 107.802 119.2 108.299 118.887 108.713C118.583 109.126 118.131 109.434 117.531 109.636ZM115.667 105.525C115.143 105.525 114.742 105.537 114.463 105.563V108.864H115.338C115.76 108.864 116.141 108.843 116.479 108.801C116.817 108.759 117.1 108.679 117.328 108.561C117.565 108.443 117.747 108.278 117.873 108.067C118 107.848 118.063 107.561 118.063 107.207C118.063 106.878 118 106.604 117.873 106.385C117.747 106.166 117.573 105.993 117.354 105.866C117.142 105.74 116.889 105.651 116.593 105.6C116.306 105.55 115.997 105.525 115.667 105.525Z" fill="#27235C"/>
<path d="M120.762 110.028C120.762 109.446 120.847 108.94 121.016 108.51C121.185 108.072 121.409 107.709 121.688 107.422C121.967 107.135 122.288 106.92 122.651 106.777C123.015 106.634 123.387 106.562 123.767 106.562C124.654 106.562 125.335 106.84 125.808 107.397C126.281 107.945 126.518 108.784 126.518 109.914C126.518 109.965 126.518 110.032 126.518 110.117C126.518 110.193 126.514 110.264 126.505 110.332H121.992C122.043 111.015 122.241 111.534 122.588 111.888C122.934 112.242 123.475 112.419 124.211 112.419C124.625 112.419 124.971 112.385 125.25 112.318C125.537 112.242 125.753 112.17 125.897 112.103L126.061 113.09C125.918 113.166 125.664 113.246 125.301 113.33C124.946 113.414 124.54 113.456 124.084 113.456C123.509 113.456 123.011 113.372 122.588 113.203C122.174 113.026 121.832 112.786 121.561 112.482C121.291 112.179 121.088 111.82 120.953 111.407C120.826 110.985 120.762 110.526 120.762 110.028ZM125.288 109.383C125.297 108.852 125.161 108.417 124.883 108.08C124.612 107.734 124.236 107.561 123.754 107.561C123.484 107.561 123.243 107.616 123.032 107.726C122.829 107.827 122.656 107.962 122.512 108.131C122.368 108.299 122.254 108.493 122.17 108.713C122.094 108.932 122.043 109.155 122.017 109.383H125.288Z" fill="#27235C"/>
<path d="M129.745 112.457C130.227 112.457 130.582 112.394 130.81 112.267C131.047 112.141 131.165 111.938 131.165 111.66C131.165 111.373 131.051 111.146 130.823 110.977C130.595 110.808 130.219 110.619 129.695 110.408C129.441 110.306 129.196 110.205 128.959 110.104C128.731 109.994 128.533 109.868 128.364 109.725C128.195 109.581 128.059 109.408 127.958 109.206C127.856 109.003 127.806 108.755 127.806 108.46C127.806 107.878 128.021 107.418 128.452 107.081C128.883 106.735 129.471 106.562 130.214 106.562C130.4 106.562 130.586 106.575 130.772 106.6C130.958 106.617 131.131 106.642 131.292 106.676C131.453 106.701 131.592 106.731 131.71 106.764C131.837 106.798 131.934 106.828 132.002 106.853L131.786 107.865C131.66 107.797 131.461 107.73 131.191 107.663C130.92 107.587 130.595 107.549 130.214 107.549C129.885 107.549 129.597 107.616 129.352 107.751C129.107 107.878 128.985 108.08 128.985 108.358C128.985 108.502 129.01 108.628 129.061 108.738C129.12 108.847 129.204 108.949 129.314 109.041C129.433 109.126 129.576 109.206 129.745 109.282C129.914 109.358 130.117 109.438 130.354 109.522C130.667 109.64 130.945 109.758 131.191 109.876C131.436 109.986 131.643 110.117 131.812 110.269C131.989 110.42 132.124 110.606 132.217 110.825C132.31 111.036 132.357 111.297 132.357 111.609C132.357 112.217 132.129 112.676 131.672 112.988C131.224 113.3 130.582 113.456 129.745 113.456C129.162 113.456 128.706 113.406 128.376 113.305C128.047 113.212 127.823 113.14 127.704 113.09L127.92 112.078C128.055 112.128 128.271 112.204 128.566 112.305C128.862 112.406 129.255 112.457 129.745 112.457Z" fill="#27235C"/>
<path d="M138.445 110.028C138.445 109.261 138.255 108.67 137.875 108.257C137.495 107.844 136.988 107.637 136.354 107.637C135.999 107.637 135.72 107.65 135.517 107.675C135.323 107.7 135.166 107.73 135.048 107.764V111.913C135.192 112.031 135.399 112.145 135.669 112.255C135.94 112.364 136.235 112.419 136.557 112.419C136.895 112.419 137.182 112.36 137.419 112.242C137.664 112.116 137.862 111.947 138.014 111.736C138.167 111.517 138.276 111.264 138.344 110.977C138.412 110.682 138.445 110.366 138.445 110.028ZM139.675 110.028C139.675 110.526 139.608 110.985 139.472 111.407C139.346 111.829 139.155 112.191 138.902 112.495C138.648 112.799 138.336 113.035 137.964 113.203C137.6 113.372 137.182 113.456 136.709 113.456C136.328 113.456 135.99 113.406 135.695 113.305C135.407 113.203 135.192 113.106 135.048 113.014V115.645H133.869V106.929C134.148 106.861 134.494 106.79 134.909 106.714C135.331 106.629 135.817 106.587 136.366 106.587C136.874 106.587 137.33 106.667 137.736 106.828C138.141 106.988 138.488 107.216 138.775 107.511C139.062 107.806 139.282 108.169 139.434 108.599C139.595 109.02 139.675 109.497 139.675 110.028Z" fill="#27235C"/>
<path d="M147.153 110.016C147.153 110.538 147.077 111.011 146.925 111.432C146.773 111.854 146.557 112.217 146.278 112.52C146.008 112.824 145.682 113.06 145.302 113.229C144.922 113.389 144.508 113.469 144.06 113.469C143.612 113.469 143.198 113.389 142.817 113.229C142.437 113.06 142.107 112.824 141.829 112.52C141.558 112.217 141.347 111.854 141.195 111.432C141.043 111.011 140.967 110.538 140.967 110.016C140.967 109.501 141.043 109.033 141.195 108.611C141.347 108.181 141.558 107.814 141.829 107.511C142.107 107.207 142.437 106.975 142.817 106.815C143.198 106.646 143.612 106.562 144.06 106.562C144.508 106.562 144.922 106.646 145.302 106.815C145.682 106.975 146.008 107.207 146.278 107.511C146.557 107.814 146.773 108.181 146.925 108.611C147.077 109.033 147.153 109.501 147.153 110.016ZM145.923 110.016C145.923 109.273 145.754 108.687 145.416 108.257C145.087 107.819 144.634 107.599 144.06 107.599C143.485 107.599 143.029 107.819 142.691 108.257C142.361 108.687 142.196 109.273 142.196 110.016C142.196 110.758 142.361 111.348 142.691 111.787C143.029 112.217 143.485 112.432 144.06 112.432C144.634 112.432 145.087 112.217 145.416 111.787C145.754 111.348 145.923 110.758 145.923 110.016Z" fill="#27235C"/>
<path d="M148.812 106.916C149.082 106.849 149.441 106.777 149.889 106.701C150.337 106.625 150.853 106.587 151.436 106.587C151.96 106.587 152.395 106.663 152.742 106.815C153.088 106.958 153.363 107.165 153.566 107.435C153.777 107.696 153.925 108.013 154.009 108.384C154.094 108.755 154.136 109.164 154.136 109.611V113.305H152.957V109.864C152.957 109.459 152.927 109.113 152.868 108.826C152.818 108.54 152.729 108.308 152.602 108.131C152.475 107.953 152.306 107.827 152.095 107.751C151.884 107.667 151.622 107.625 151.309 107.625C151.182 107.625 151.051 107.629 150.916 107.637C150.781 107.646 150.65 107.658 150.523 107.675C150.405 107.684 150.295 107.696 150.193 107.713C150.1 107.73 150.033 107.743 149.991 107.751V113.305H148.812V106.916Z" fill="#27235C"/>
<path d="M157.625 112.457C158.107 112.457 158.462 112.394 158.69 112.267C158.926 112.141 159.045 111.938 159.045 111.66C159.045 111.373 158.931 111.146 158.703 110.977C158.474 110.808 158.098 110.619 157.574 110.408C157.321 110.306 157.076 110.205 156.839 110.104C156.611 109.994 156.412 109.868 156.243 109.725C156.074 109.581 155.939 109.408 155.838 109.206C155.736 109.003 155.685 108.755 155.685 108.46C155.685 107.878 155.901 107.418 156.332 107.081C156.763 106.735 157.35 106.562 158.094 106.562C158.28 106.562 158.466 106.575 158.652 106.6C158.838 106.617 159.011 106.642 159.172 106.676C159.332 106.701 159.472 106.731 159.59 106.764C159.717 106.798 159.814 106.828 159.881 106.853L159.666 107.865C159.539 107.797 159.341 107.73 159.07 107.663C158.8 107.587 158.474 107.549 158.094 107.549C157.764 107.549 157.477 107.616 157.232 107.751C156.987 107.878 156.864 108.08 156.864 108.358C156.864 108.502 156.89 108.628 156.94 108.738C157 108.847 157.084 108.949 157.194 109.041C157.312 109.126 157.456 109.206 157.625 109.282C157.794 109.358 157.997 109.438 158.233 109.522C158.546 109.64 158.825 109.758 159.07 109.876C159.315 109.986 159.522 110.117 159.691 110.269C159.869 110.42 160.004 110.606 160.097 110.825C160.19 111.036 160.236 111.297 160.236 111.609C160.236 112.217 160.008 112.676 159.552 112.988C159.104 113.3 158.462 113.456 157.625 113.456C157.042 113.456 156.585 113.406 156.256 113.305C155.926 113.212 155.702 113.14 155.584 113.09L155.799 112.078C155.935 112.128 156.15 112.204 156.446 112.305C156.742 112.406 157.135 112.457 157.625 112.457Z" fill="#27235C"/>
<path d="M162.928 113.305H161.749V106.726H162.928V113.305ZM162.332 105.537C162.121 105.537 161.939 105.47 161.787 105.335C161.643 105.191 161.571 105.002 161.571 104.766C161.571 104.529 161.643 104.344 161.787 104.209C161.939 104.066 162.121 103.994 162.332 103.994C162.543 103.994 162.721 104.066 162.864 104.209C163.016 104.344 163.092 104.529 163.092 104.766C163.092 105.002 163.016 105.191 162.864 105.335C162.721 105.47 162.543 105.537 162.332 105.537Z" fill="#27235C"/>
<path d="M166.134 107.017C166.278 106.925 166.493 106.828 166.781 106.726C167.076 106.625 167.414 106.575 167.795 106.575C168.268 106.575 168.686 106.659 169.05 106.828C169.422 106.996 169.734 107.232 169.988 107.536C170.241 107.84 170.432 108.202 170.558 108.624C170.694 109.046 170.761 109.51 170.761 110.016C170.761 110.547 170.681 111.028 170.52 111.458C170.368 111.879 170.148 112.238 169.861 112.533C169.574 112.828 169.227 113.056 168.822 113.216C168.416 113.376 167.96 113.456 167.452 113.456C166.903 113.456 166.417 113.419 165.995 113.343C165.572 113.267 165.226 113.191 164.955 113.115V103.69L166.134 103.488V107.017ZM166.134 112.28C166.252 112.314 166.417 112.347 166.628 112.381C166.848 112.406 167.119 112.419 167.44 112.419C168.074 112.419 168.581 112.213 168.961 111.799C169.341 111.378 169.531 110.783 169.531 110.016C169.531 109.678 169.498 109.362 169.43 109.067C169.362 108.772 169.253 108.519 169.1 108.308C168.948 108.088 168.75 107.92 168.505 107.802C168.268 107.675 167.981 107.612 167.643 107.612C167.321 107.612 167.026 107.667 166.755 107.776C166.485 107.886 166.278 108 166.134 108.118V112.28Z" fill="#27235C"/>
<path d="M173.599 113.305H172.42V106.726H173.599V113.305ZM173.003 105.537C172.792 105.537 172.61 105.47 172.458 105.335C172.315 105.191 172.243 105.002 172.243 104.766C172.243 104.529 172.315 104.344 172.458 104.209C172.61 104.066 172.792 103.994 173.003 103.994C173.215 103.994 173.392 104.066 173.536 104.209C173.688 104.344 173.764 104.529 173.764 104.766C173.764 105.002 173.688 105.191 173.536 105.335C173.392 105.47 173.215 105.537 173.003 105.537Z" fill="#27235C"/>
<path d="M177.604 113.431C176.877 113.414 176.362 113.258 176.058 112.963C175.753 112.668 175.601 112.208 175.601 111.584V103.69L176.78 103.488V111.394C176.78 111.588 176.797 111.749 176.831 111.875C176.865 112.002 176.92 112.103 176.996 112.179C177.072 112.255 177.173 112.314 177.3 112.356C177.427 112.39 177.583 112.419 177.769 112.444L177.604 113.431Z" fill="#27235C"/>
<path d="M180.272 113.305H179.093V106.726H180.272V113.305ZM179.676 105.537C179.465 105.537 179.283 105.47 179.131 105.335C178.987 105.191 178.915 105.002 178.915 104.766C178.915 104.529 178.987 104.344 179.131 104.209C179.283 104.066 179.465 103.994 179.676 103.994C179.887 103.994 180.065 104.066 180.209 104.209C180.361 104.344 180.437 104.529 180.437 104.766C180.437 105.002 180.361 105.191 180.209 105.335C180.065 105.47 179.887 105.537 179.676 105.537Z" fill="#27235C"/>
<path d="M183.402 106.726H185.9V107.713H183.402V110.749C183.402 111.078 183.428 111.352 183.478 111.572C183.529 111.782 183.605 111.951 183.707 112.078C183.808 112.196 183.935 112.28 184.087 112.331C184.239 112.381 184.416 112.406 184.619 112.406C184.974 112.406 185.257 112.369 185.469 112.293C185.688 112.208 185.84 112.149 185.925 112.116L186.153 113.09C186.035 113.149 185.828 113.22 185.532 113.305C185.236 113.397 184.898 113.444 184.518 113.444C184.07 113.444 183.698 113.389 183.402 113.279C183.115 113.161 182.883 112.988 182.705 112.761C182.528 112.533 182.401 112.255 182.325 111.926C182.257 111.588 182.223 111.2 182.223 110.762V104.892L183.402 104.69V106.726Z" fill="#27235C"/>
<path d="M186.627 114.532C186.72 114.574 186.838 114.612 186.982 114.646C187.134 114.688 187.282 114.709 187.425 114.709C187.89 114.709 188.253 114.603 188.515 114.393C188.777 114.19 189.014 113.857 189.225 113.393C188.693 112.381 188.194 111.31 187.73 110.18C187.273 109.041 186.893 107.89 186.589 106.726H187.856C187.949 107.106 188.059 107.515 188.186 107.953C188.321 108.392 188.469 108.843 188.63 109.307C188.79 109.771 188.963 110.235 189.149 110.699C189.335 111.163 189.53 111.609 189.732 112.04C190.054 111.154 190.333 110.277 190.569 109.408C190.806 108.54 191.03 107.646 191.241 106.726H192.458C192.154 107.966 191.816 109.16 191.444 110.306C191.072 111.445 190.671 112.512 190.24 113.507C190.071 113.887 189.893 114.211 189.707 114.481C189.53 114.759 189.331 114.987 189.111 115.164C188.892 115.341 188.642 115.472 188.363 115.556C188.093 115.641 187.784 115.683 187.438 115.683C187.345 115.683 187.248 115.675 187.146 115.658C187.045 115.649 186.944 115.632 186.842 115.607C186.749 115.59 186.66 115.569 186.576 115.544C186.5 115.519 186.445 115.497 186.411 115.481L186.627 114.532Z" fill="#27235C"/>
<path d="M194.75 112.622C194.75 112.849 194.674 113.047 194.522 113.216C194.37 113.385 194.163 113.469 193.901 113.469C193.639 113.469 193.432 113.385 193.28 113.216C193.127 113.047 193.051 112.849 193.051 112.622C193.051 112.394 193.127 112.196 193.28 112.027C193.432 111.858 193.639 111.774 193.901 111.774C194.163 111.774 194.37 111.858 194.522 112.027C194.674 112.196 194.75 112.394 194.75 112.622Z" fill="#27235C"/>
<path d="M184.516 94.8994C183.067 94.8994 181.766 94.6184 180.612 94.0564C179.488 93.4648 178.527 92.6661 177.728 91.6604C176.959 90.6548 176.367 89.5012 175.953 88.1997C175.569 86.8686 175.376 85.4488 175.376 83.9403C175.406 82.4317 175.628 81.0267 176.042 79.7252C176.456 78.3941 177.048 77.2405 177.817 76.2644C178.615 75.2587 179.577 74.4749 180.701 73.9129C181.825 73.3509 183.097 73.0699 184.516 73.0699C185.877 73.0699 187.149 73.3509 188.332 73.9129C189.545 74.4749 190.61 75.2587 191.527 76.2644C192.473 77.2405 193.213 78.3941 193.745 79.7252C194.278 81.0267 194.544 82.4169 194.544 83.8959C194.544 85.434 194.278 86.8834 193.745 88.244C193.213 89.5751 192.488 90.7435 191.571 91.7492C190.654 92.7253 189.589 93.4944 188.376 94.0564C187.164 94.6184 185.877 94.8994 184.516 94.8994ZM183.806 89.7082C184.842 89.7082 185.773 89.4716 186.602 88.9983C187.43 88.4955 188.081 87.8151 188.554 86.9573C189.057 86.0995 189.308 85.1234 189.308 84.029C189.308 82.905 189.057 81.9141 188.554 81.0563C188.081 80.1689 187.43 79.4886 186.602 79.0153C185.773 78.5125 184.842 78.261 183.806 78.261C182.801 78.261 181.884 78.5125 181.056 79.0153C180.227 79.5181 179.562 80.1985 179.059 81.0563C178.586 81.9141 178.349 82.905 178.349 84.029C178.349 85.1234 178.586 86.0995 179.059 86.9573C179.562 87.8151 180.227 88.4955 181.056 88.9983C181.884 89.4716 182.801 89.7082 183.806 89.7082ZM175.598 94.9437C174.8 94.9437 174.208 94.8106 173.823 94.5444C173.439 94.3078 173.202 93.9972 173.114 93.6127C173.025 93.1986 172.98 92.7401 172.98 92.2372V65.7934C172.98 65.2905 173.025 64.8468 173.114 64.4623C173.202 64.0482 173.439 63.7228 173.823 63.4862C174.208 63.2495 174.8 63.1312 175.598 63.1312C176.426 63.1312 177.018 63.2495 177.373 63.4862C177.728 63.7228 177.95 64.0482 178.039 64.4623C178.127 64.8764 178.172 65.3201 178.172 65.7934V93.1246C178.053 93.7754 177.802 94.2338 177.417 94.5001C177.062 94.7959 176.456 94.9437 175.598 94.9437Z" fill="#27235C" stroke="#27235C" stroke-width="0.2"/>
<path d="M159.757 95.2106C157.834 95.2106 156.148 94.9 154.699 94.2789C153.279 93.6577 152.081 92.8147 151.105 91.7498C150.158 90.6554 149.433 89.4426 148.931 88.1116C148.457 86.7509 148.221 85.3459 148.221 83.8965C148.221 81.7668 148.709 79.8737 149.685 78.2173C150.661 76.5609 152.007 75.2594 153.722 74.3128C155.468 73.3663 157.464 72.893 159.712 72.893C161.31 72.893 162.715 73.1445 163.927 73.6473C165.14 74.1501 166.146 74.8157 166.944 75.6439C167.773 76.4425 168.394 77.3299 168.808 78.306C169.252 79.2822 169.473 80.2287 169.473 81.1456C169.473 82.7134 169.089 83.8522 168.32 84.5621C167.58 85.272 166.649 85.6269 165.525 85.6269H153.811C153.841 86.6326 154.151 87.5052 154.743 88.2447C155.364 88.9842 156.133 89.561 157.05 89.9751C157.997 90.3596 158.958 90.5519 159.934 90.5519C160.674 90.5519 161.324 90.5075 161.886 90.4188C162.478 90.33 162.981 90.2265 163.395 90.1082C163.809 89.9603 164.164 89.8124 164.46 89.6645C164.785 89.5166 165.081 89.3835 165.347 89.2652C165.613 89.1468 165.865 89.0729 166.101 89.0433C166.427 89.0137 166.752 89.0877 167.077 89.2652C167.403 89.4426 167.669 89.7532 167.876 90.1969C168.054 90.4927 168.172 90.7737 168.231 91.0399C168.32 91.2766 168.364 91.5132 168.364 91.7498C168.364 92.3414 168.009 92.9034 167.299 93.4358C166.589 93.9387 165.584 94.3528 164.282 94.6782C163.01 95.0331 161.502 95.2106 159.757 95.2106ZM153.811 82.4767H162.907C163.41 82.4767 163.794 82.4028 164.06 82.2549C164.327 82.0774 164.46 81.7224 164.46 81.19C164.46 80.5097 164.253 79.9033 163.839 79.3709C163.424 78.8089 162.862 78.38 162.153 78.0842C161.443 77.7588 160.614 77.5961 159.668 77.5961C158.573 77.5961 157.583 77.818 156.695 78.2617C155.808 78.6758 155.098 79.2526 154.565 79.9921C154.063 80.7315 153.811 81.5598 153.811 82.4767Z" fill="#27235C" stroke="#27235C" stroke-width="0.2"/>
<path d="M120.064 94.8123C119.473 94.8123 119 94.7088 118.645 94.5017C118.29 94.2651 118.023 93.9989 117.846 93.7031C117.698 93.4073 117.595 93.1558 117.535 92.9488L108.839 67.481C108.543 66.5345 108.499 65.8246 108.706 65.3513C108.913 64.8485 109.519 64.4344 110.525 64.109C111.205 63.8724 111.753 63.7688 112.167 63.7984C112.581 63.828 112.921 64.0055 113.187 64.3308C113.483 64.6266 113.734 65.0999 113.942 65.7506L120.331 85.0955L126.054 65.9281C126.143 65.6323 126.261 65.3365 126.409 65.0407C126.587 64.7154 126.853 64.4492 127.208 64.2421C127.563 64.035 128.051 63.9315 128.672 63.9315C129.382 63.9315 129.914 64.0498 130.269 64.2865C130.624 64.5231 130.876 64.7893 131.024 65.0851C131.201 65.3513 131.319 65.6027 131.379 65.8394L137.102 85.2286L143.536 65.795C143.743 65.1147 143.979 64.6118 144.246 64.2865C144.541 63.9611 144.911 63.7836 145.355 63.754C145.798 63.6949 146.346 63.7836 146.996 64.0203C147.677 64.2569 148.165 64.5231 148.461 64.8189C148.756 65.0851 148.904 65.4401 148.904 65.8838C148.904 66.2979 148.801 66.8303 148.594 67.481L139.942 92.9932C139.883 93.1706 139.764 93.4073 139.587 93.7031C139.439 93.9989 139.187 94.2651 138.833 94.5017C138.478 94.7088 137.989 94.8123 137.368 94.8123C136.747 94.8123 136.259 94.6792 135.904 94.413C135.549 94.1468 135.283 93.851 135.106 93.5256C134.928 93.2002 134.81 92.9636 134.751 92.8157L128.716 73.2934L122.682 92.7713C122.623 92.9784 122.505 93.2446 122.327 93.57C122.179 93.8953 121.928 94.1911 121.573 94.4573C121.218 94.694 120.715 94.8123 120.064 94.8123Z" fill="#27235C" stroke="#27235C" stroke-width="0.2"/>
<path d="M96.9925 95.211C96.2235 95.211 95.41 95.1222 94.5522 94.9448C93.6944 94.7969 92.8662 94.575 92.0676 94.2792C91.2689 93.9539 90.5738 93.5841 89.9822 93.17C89.4202 92.7263 89.0653 92.2383 88.9174 91.7058C88.7991 91.41 88.7547 91.129 88.7843 90.8628C88.8138 90.567 88.9026 90.2712 89.0505 89.9754C89.1984 89.6501 89.4202 89.3247 89.716 88.9993C89.9822 88.674 90.2484 88.4965 90.5147 88.4669C90.8104 88.4077 91.1802 88.4965 91.6239 88.7331C92.0084 88.881 92.4225 89.0733 92.8662 89.3099C93.3395 89.5465 93.8127 89.7832 94.286 90.0198C94.7889 90.2564 95.2917 90.4487 95.7946 90.5966C96.327 90.7445 96.8446 90.8185 97.3475 90.8185C98.4419 90.8185 99.3145 90.641 99.9652 90.286C100.616 89.9015 100.941 89.3691 100.941 88.6887C100.941 88.3042 100.838 87.9641 100.631 87.6683C100.424 87.3725 100.143 87.1358 99.7878 86.9584C99.4624 86.7513 99.0631 86.5738 98.5898 86.4259C98.1461 86.2485 97.658 86.1006 97.1256 85.9822C96.6228 85.8343 96.0903 85.6717 95.5283 85.4942C94.7889 85.2871 94.0494 85.0357 93.3099 84.7399C92.5704 84.4441 91.9049 84.0596 91.3133 83.5863C90.7513 83.113 90.2928 82.5215 89.9379 81.8116C89.5829 81.1017 89.4054 80.2143 89.4054 79.1494C89.4054 77.8184 89.716 76.6943 90.3372 75.7774C90.9879 74.8308 91.9197 74.1062 93.1324 73.6033C94.3452 73.1005 95.8093 72.849 97.5249 72.849C98.1165 72.849 98.6785 72.8934 99.211 72.9821C99.773 73.0709 100.305 73.204 100.808 73.3815C101.341 73.5294 101.844 73.7216 102.317 73.9583C102.82 74.1949 103.293 74.4611 103.737 74.7569C104.476 75.171 104.861 75.6591 104.89 76.2211C104.92 76.7535 104.713 77.3303 104.269 77.9515C103.944 78.3656 103.618 78.6614 103.293 78.8388C102.968 78.9867 102.627 78.9867 102.272 78.8388C101.799 78.6022 101.282 78.3508 100.72 78.0846C100.187 77.7888 99.6251 77.5374 99.0335 77.3303C98.4715 77.1232 97.8799 77.0197 97.2587 77.0197C96.6671 77.0197 96.1347 77.1085 95.6615 77.2859C95.1882 77.4634 94.8332 77.7148 94.5966 78.0402C94.36 78.3656 94.2416 78.7501 94.2416 79.1938C94.2416 79.6079 94.36 79.9481 94.5966 80.2143C94.8332 80.4805 95.1438 80.7023 95.5283 80.8798C95.9129 81.0573 96.3713 81.22 96.9038 81.3679C97.4362 81.4862 97.9982 81.6045 98.5898 81.7228C99.418 81.9003 100.261 82.1221 101.119 82.3884C101.977 82.6546 102.76 83.0243 103.47 83.4976C104.21 83.9708 104.801 84.6068 105.245 85.4054C105.689 86.1745 105.911 87.1802 105.911 88.4225C105.911 90.5818 105.112 92.253 103.515 93.4362C101.947 94.6194 99.773 95.211 96.9925 95.211Z" fill="#27235C" stroke="#27235C" stroke-width="0.2"/>
<path d="M76.0476 95.2103C74.125 95.2103 72.439 94.8997 70.9896 94.2786C69.5698 93.6574 68.3718 92.8144 67.3957 91.7495C66.4492 90.6551 65.7245 89.4423 65.2216 88.1113C64.7484 86.7506 64.5117 85.3456 64.5117 83.8962C64.5117 81.7665 64.9998 79.8734 65.9759 78.217C66.952 76.5606 68.2979 75.2591 70.0135 74.3125C71.7586 73.366 73.7552 72.8927 76.0033 72.8927C77.6005 72.8927 79.0056 73.1441 80.2183 73.647C81.4311 74.1498 82.4368 74.8154 83.2354 75.6436C84.0636 76.4422 84.6848 77.3296 85.0989 78.3057C85.5426 79.2818 85.7644 80.2284 85.7644 81.1453C85.7644 82.713 85.3799 83.8518 84.6108 84.5618C83.8714 85.2717 82.9396 85.6266 81.8156 85.6266H70.1022C70.1318 86.6323 70.4424 87.5049 71.0339 88.2444C71.6551 88.9839 72.4242 89.5607 73.3411 89.9748C74.2877 90.3593 75.249 90.5516 76.2251 90.5516C76.9646 90.5516 77.6153 90.5072 78.1773 90.4185C78.7689 90.3297 79.2718 90.2262 79.6859 90.1079C80.1 89.96 80.4549 89.8121 80.7507 89.6642C81.0761 89.5163 81.3719 89.3832 81.6381 89.2649C81.9043 89.1465 82.1558 89.0726 82.3924 89.043C82.7178 89.0134 83.0431 89.0874 83.3685 89.2649C83.6939 89.4423 83.9601 89.7529 84.1671 90.1966C84.3446 90.4924 84.4629 90.7734 84.5221 91.0396C84.6108 91.2763 84.6552 91.5129 84.6552 91.7495C84.6552 92.3411 84.3003 92.9031 83.5903 93.4355C82.8804 93.9384 81.8748 94.3525 80.5733 94.6779C79.3014 95.0328 77.7928 95.2103 76.0476 95.2103ZM70.1022 82.4764H79.1978C79.7007 82.4764 80.0852 82.4025 80.3514 82.2546C80.6176 82.0771 80.7507 81.7221 80.7507 81.1897C80.7507 80.5094 80.5437 79.903 80.1296 79.3706C79.7155 78.8086 79.1535 78.3797 78.4436 78.0839C77.7337 77.7585 76.9054 77.5958 75.9589 77.5958C74.8645 77.5958 73.8736 77.8177 72.9862 78.2614C72.0988 78.6755 71.3889 79.2523 70.8565 79.9918C70.3536 80.7312 70.1022 81.5595 70.1022 82.4764Z" fill="#27235C" stroke="#27235C" stroke-width="0.2"/>
<path d="M60.2085 94.9456C59.114 94.9456 58.1379 94.8717 57.2801 94.7238C56.4519 94.5759 55.7272 94.3245 55.106 93.9695C54.5145 93.6146 54.0264 93.1413 53.6419 92.5497C53.2573 91.9285 52.9615 91.1743 52.7545 90.2869C52.577 89.3995 52.4883 88.3347 52.4883 87.0923V65.7065C52.4883 65.2037 52.5327 64.76 52.6214 64.3754C52.7397 63.9613 52.9763 63.636 53.3313 63.3993C53.7158 63.1331 54.3222 63 55.1504 63C55.9786 63 56.5702 63.1183 56.9252 63.355C57.3097 63.5916 57.5463 63.917 57.6351 64.3311C57.7534 64.7156 57.8125 65.1593 57.8125 65.6621V86.8705C57.8125 87.4325 57.8421 87.9058 57.9013 88.2903C57.99 88.6452 58.1231 88.941 58.3006 89.1777C58.5077 89.3847 58.7591 89.5326 59.0549 89.6214C59.3803 89.7101 59.7648 89.7545 60.2085 89.7545C60.593 89.7545 60.9332 89.7988 61.229 89.8876C61.5543 89.9763 61.8057 90.1982 61.9832 90.5531C62.1903 90.9081 62.2938 91.4849 62.2938 92.2835C62.2938 93.1117 62.1903 93.7181 61.9832 94.1026C61.8057 94.4872 61.5543 94.7238 61.229 94.8125C60.9036 94.9013 60.5634 94.9456 60.2085 94.9456Z" fill="#27235C" stroke="#27235C" stroke-width="0.2"/>
<path d="M45.055 94.945C44.2564 94.945 43.6648 94.8119 43.2802 94.5457C42.8957 94.3091 42.6591 93.9985 42.5703 93.614C42.4816 93.1999 42.4372 92.7414 42.4372 92.2385V75.7333C42.4372 75.26 42.4816 74.8311 42.5703 74.4466C42.6887 74.0325 42.9253 73.7071 43.2802 73.4705C43.6648 73.2338 44.2712 73.1155 45.0994 73.1155C45.9276 73.1155 46.5192 73.2338 46.8741 73.4705C47.2587 73.7071 47.4953 74.0325 47.584 74.4466C47.6728 74.8607 47.7171 75.3192 47.7171 75.822V92.2829C47.7171 92.7857 47.6728 93.2442 47.584 93.6583C47.4953 94.0429 47.2587 94.3534 46.8741 94.5901C46.5192 94.8267 45.9128 94.945 45.055 94.945ZM45.055 68.8117C44.1972 68.8117 43.5613 68.6934 43.1471 68.4568C42.7626 68.1906 42.5112 67.8356 42.3929 67.3919C42.3041 66.9482 42.2598 66.4602 42.2598 65.9278C42.2598 65.3657 42.3041 64.8777 42.3929 64.4636C42.5112 64.0495 42.7774 63.7241 43.1915 63.4875C43.6056 63.2212 44.2416 63.0881 45.0994 63.0881C45.9868 63.0881 46.6227 63.2212 47.0072 63.4875C47.3918 63.7537 47.6432 64.1086 47.7615 64.5523C47.8798 64.9664 47.939 65.4545 47.939 66.0165C47.939 66.5193 47.8798 66.9926 47.7615 67.4363C47.6432 67.88 47.3918 68.2201 47.0072 68.4568C46.6227 68.6934 45.972 68.8117 45.055 68.8117Z" fill="#27235C" stroke="#27235C" stroke-width="0.2"/>
<path d="M8.61777 94.9003C7.8487 94.9003 7.27191 94.7819 6.88738 94.5453C6.50285 94.3087 6.25142 93.9833 6.13311 93.5692C6.04437 93.1551 6 92.6966 6 92.1938V66.5929C6 66.1196 6.04437 65.6907 6.13311 65.3062C6.25142 64.8921 6.50285 64.5667 6.88738 64.3301C7.27191 64.0639 7.87828 63.9308 8.7065 63.9308C9.32767 63.9308 9.78615 63.9751 10.0819 64.0639C10.4073 64.123 10.6587 64.2265 10.8362 64.3744C11.0137 64.4928 11.1912 64.6554 11.3686 64.8625L22.1947 79.9923H21.1742L32.0445 64.8181C32.2516 64.5815 32.4587 64.404 32.6657 64.2857C32.8728 64.1674 33.139 64.0787 33.4644 64.0195C33.7897 63.9603 34.2186 63.9308 34.7511 63.9308C35.5497 63.9308 36.1413 64.0639 36.5258 64.3301C36.9103 64.5667 37.147 64.8921 37.2357 65.3062C37.354 65.7203 37.4132 66.1788 37.4132 66.6816V92.2825C37.4132 92.7262 37.354 93.1551 37.2357 93.5692C37.147 93.9833 36.9103 94.3087 36.5258 94.5453C36.1413 94.7819 35.5349 94.9003 34.7067 94.9003C33.908 94.9003 33.3165 94.7672 32.9319 94.5009C32.5474 94.2643 32.296 93.9389 32.1777 93.5248C32.0889 93.1107 32.0445 92.667 32.0445 92.1938V73.1595L23.9694 84.8285C23.8807 84.9468 23.7476 85.1095 23.5701 85.3166C23.3926 85.4941 23.156 85.6567 22.8602 85.8046C22.5644 85.9525 22.1651 86.0265 21.6622 86.0265C21.189 86.0265 20.8044 85.9525 20.5086 85.8046C20.2128 85.6567 19.9762 85.4941 19.7987 85.3166C19.6508 85.1391 19.5029 84.9616 19.355 84.7841L11.3243 73.1595V92.2825C11.3243 92.7262 11.2651 93.1551 11.1468 93.5692C11.0581 93.9833 10.8214 94.3087 10.4369 94.5453C10.0524 94.7819 9.44599 94.9003 8.61777 94.9003Z" fill="#27235C" stroke="#27235C" stroke-width="0.2"/>
</svg>
