<svg width="600" height="600" viewBox="0 0 600 600" fill="none" xmlns="http://www.w3.org/2000/svg">
<path d="M273 388.778C273 386.374 274.948 384.426 277.352 384.426H577.629C580.033 384.426 581.981 386.374 581.981 388.778V388.778C581.981 391.181 580.033 393.129 577.629 393.129H277.352C274.948 393.129 273 391.181 273 388.778V388.778Z" fill="#FFBB00"/>
<path d="M28.3036 356.686V346.152C26.5568 343.448 24.9113 340.783 23.367 338.156C21.8227 335.529 20.3671 332.952 19 330.425H23.329C24.291 332.497 25.3669 334.606 26.5568 336.754C27.7466 338.876 28.9744 340.922 30.2402 342.893C31.4807 340.922 32.6959 338.876 33.8857 336.754C35.0756 334.606 36.1641 332.497 37.1515 330.425H41.2526C39.8856 332.952 38.4299 335.529 36.8857 338.156C35.3414 340.758 33.7085 343.398 31.987 346.076V356.686H28.3036Z" fill="#27235C"/>
<path d="M60.0811 346.834C60.0811 348.4 59.8533 349.815 59.3976 351.078C58.9419 352.341 58.2963 353.427 57.4609 354.337C56.6508 355.246 55.6761 355.954 54.5369 356.459C53.3977 356.939 52.1572 357.179 50.8155 357.179C49.4738 357.179 48.2333 356.939 47.0941 356.459C45.9549 355.954 44.9675 355.246 44.1321 354.337C43.322 353.427 42.6891 352.341 42.2334 351.078C41.7777 349.815 41.5499 348.4 41.5499 346.834C41.5499 345.293 41.7777 343.891 42.2334 342.627C42.6891 341.339 43.322 340.24 44.1321 339.331C44.9675 338.421 45.9549 337.726 47.0941 337.246C48.2333 336.741 49.4738 336.489 50.8155 336.489C52.1572 336.489 53.3977 336.741 54.5369 337.246C55.6761 337.726 56.6508 338.421 57.4609 339.331C58.2963 340.24 58.9419 341.339 59.3976 342.627C59.8533 343.891 60.0811 345.293 60.0811 346.834ZM56.3976 346.834C56.3976 344.611 55.8913 342.855 54.8787 341.566C53.8914 340.253 52.537 339.596 50.8155 339.596C49.094 339.596 47.727 340.253 46.7143 341.566C45.727 342.855 45.2334 344.611 45.2334 346.834C45.2334 349.057 45.727 350.825 46.7143 352.139C47.727 353.427 49.094 354.072 50.8155 354.072C52.537 354.072 53.8914 353.427 54.8787 352.139C55.8913 350.825 56.3976 349.057 56.3976 346.834Z" fill="#27235C"/>
<path d="M80.7709 356.118C79.9608 356.32 78.8849 356.535 77.5431 356.762C76.2267 356.989 74.6951 357.103 72.9483 357.103C71.4293 357.103 70.1509 356.888 69.1129 356.459C68.075 356.004 67.2396 355.373 66.6067 354.564C65.9738 353.756 65.5181 352.808 65.2396 351.722C64.9611 350.61 64.8219 349.385 64.8219 348.046V336.981H68.3535V347.288C68.3535 349.688 68.7332 351.406 69.4927 352.442C70.2521 353.478 71.5306 353.996 73.328 353.996C73.7078 353.996 74.1002 353.983 74.5052 353.958C74.9103 353.933 75.29 353.907 75.6444 353.882C75.9988 353.832 76.3153 353.794 76.5938 353.768C76.8976 353.718 77.1127 353.667 77.2393 353.617V336.981H80.7709V356.118Z" fill="#27235C"/>
<path d="M94.146 336.564C94.4497 336.564 94.7915 336.59 95.1712 336.64C95.5763 336.665 95.9687 336.716 96.3484 336.792C96.7282 336.842 97.0699 336.905 97.3737 336.981C97.7028 337.032 97.9433 337.082 98.0952 337.133L97.4877 340.202C97.2092 340.101 96.7408 339.987 96.0826 339.861C95.4497 339.71 94.627 339.634 93.6143 339.634C92.9561 339.634 92.2979 339.71 91.6397 339.861C91.0068 339.987 90.5891 340.076 90.3866 340.126V356.686H86.855V337.815C87.6904 337.512 88.7284 337.234 89.9688 336.981C91.2093 336.703 92.6017 336.564 94.146 336.564Z" fill="#27235C"/>
<path d="M127.076 330.425H130.76V356.686H127.076V344.56H114.203V356.686H110.52V330.425H114.203V341.377H127.076V330.425Z" fill="#27235C"/>
<path d="M154.496 346.834C154.496 348.4 154.269 349.815 153.813 351.078C153.357 352.341 152.712 353.427 151.876 354.337C151.066 355.246 150.091 355.954 148.952 356.459C147.813 356.939 146.573 357.179 145.231 357.179C143.889 357.179 142.649 356.939 141.509 356.459C140.37 355.954 139.383 355.246 138.547 354.337C137.737 353.427 137.104 352.341 136.649 351.078C136.193 349.815 135.965 348.4 135.965 346.834C135.965 345.293 136.193 343.891 136.649 342.627C137.104 341.339 137.737 340.24 138.547 339.331C139.383 338.421 140.37 337.726 141.509 337.246C142.649 336.741 143.889 336.489 145.231 336.489C146.573 336.489 147.813 336.741 148.952 337.246C150.091 337.726 151.066 338.421 151.876 339.331C152.712 340.24 153.357 341.339 153.813 342.627C154.269 343.891 154.496 345.293 154.496 346.834ZM150.813 346.834C150.813 344.611 150.307 342.855 149.294 341.566C148.307 340.253 146.952 339.596 145.231 339.596C143.509 339.596 142.142 340.253 141.13 341.566C140.142 342.855 139.649 344.611 139.649 346.834C139.649 349.057 140.142 350.825 141.13 352.139C142.142 353.427 143.509 354.072 145.231 354.072C146.952 354.072 148.307 353.427 149.294 352.139C150.307 350.825 150.813 349.057 150.813 346.834Z" fill="#27235C"/>
<path d="M164.06 354.147C165.503 354.147 166.566 353.958 167.25 353.579C167.958 353.2 168.313 352.594 168.313 351.76C168.313 350.901 167.971 350.219 167.288 349.714C166.604 349.208 165.478 348.64 163.908 348.008C163.148 347.705 162.414 347.402 161.705 347.099C161.022 346.771 160.427 346.392 159.921 345.962C159.414 345.533 159.009 345.015 158.706 344.408C158.402 343.802 158.25 343.057 158.25 342.173C158.25 340.43 158.895 339.053 160.187 338.042C161.478 337.006 163.237 336.489 165.465 336.489C166.022 336.489 166.579 336.526 167.136 336.602C167.693 336.653 168.212 336.729 168.693 336.83C169.174 336.905 169.591 336.994 169.946 337.095C170.326 337.196 170.617 337.284 170.819 337.36L170.174 340.392C169.794 340.19 169.199 339.987 168.389 339.785C167.579 339.558 166.604 339.444 165.465 339.444C164.478 339.444 163.617 339.646 162.883 340.051C162.148 340.43 161.781 341.036 161.781 341.87C161.781 342.299 161.857 342.678 162.009 343.006C162.186 343.335 162.44 343.638 162.769 343.916C163.123 344.168 163.554 344.408 164.06 344.636C164.566 344.863 165.174 345.103 165.883 345.356C166.819 345.709 167.655 346.063 168.389 346.417C169.123 346.745 169.743 347.137 170.25 347.592C170.781 348.046 171.186 348.602 171.465 349.259C171.743 349.89 171.882 350.674 171.882 351.608C171.882 353.427 171.199 354.804 169.832 355.739C168.49 356.674 166.566 357.141 164.06 357.141C162.313 357.141 160.946 356.989 159.959 356.686C158.971 356.408 158.3 356.194 157.946 356.042L158.592 353.01C158.997 353.162 159.642 353.389 160.528 353.693C161.414 353.996 162.592 354.147 164.06 354.147Z" fill="#27235C"/>
<path d="M179.716 336.981H187.197V339.937H179.716V349.032C179.716 350.017 179.792 350.838 179.944 351.495C180.096 352.126 180.324 352.632 180.627 353.01C180.931 353.364 181.311 353.617 181.767 353.768C182.222 353.92 182.754 353.996 183.361 353.996C184.425 353.996 185.273 353.882 185.906 353.655C186.564 353.402 187.02 353.225 187.273 353.124L187.956 356.042C187.602 356.219 186.982 356.434 186.096 356.686C185.21 356.964 184.197 357.103 183.058 357.103C181.716 357.103 180.602 356.939 179.716 356.61C178.855 356.257 178.159 355.739 177.627 355.057C177.096 354.375 176.716 353.541 176.488 352.556C176.286 351.545 176.184 350.383 176.184 349.069V331.486L179.716 330.88V336.981Z" fill="#27235C"/>
<path d="M195.222 356.686H191.691V336.981H195.222V356.686ZM193.438 333.419C192.805 333.419 192.26 333.217 191.805 332.813C191.374 332.383 191.159 331.815 191.159 331.108C191.159 330.4 191.374 329.844 191.805 329.44C192.26 329.011 192.805 328.796 193.438 328.796C194.071 328.796 194.602 329.011 195.033 329.44C195.488 329.844 195.716 330.4 195.716 331.108C195.716 331.815 195.488 332.383 195.033 332.813C194.602 333.217 194.071 333.419 193.438 333.419Z" fill="#27235C"/>
<path d="M201.296 337.55C202.106 337.347 203.182 337.133 204.523 336.905C205.865 336.678 207.409 336.564 209.156 336.564C210.726 336.564 212.029 336.792 213.067 337.246C214.105 337.676 214.928 338.295 215.536 339.103C216.169 339.886 216.612 340.834 216.865 341.945C217.118 343.057 217.244 344.282 217.244 345.621V356.686H213.713V346.379C213.713 345.166 213.624 344.131 213.447 343.272C213.295 342.413 213.029 341.718 212.65 341.187C212.27 340.657 211.764 340.278 211.131 340.051C210.498 339.798 209.713 339.672 208.776 339.672C208.397 339.672 208.004 339.684 207.599 339.71C207.194 339.735 206.802 339.773 206.422 339.823C206.068 339.848 205.738 339.886 205.435 339.937C205.156 339.987 204.954 340.025 204.827 340.051V356.686H201.296V337.55Z" fill="#27235C"/>
<path d="M235.48 354.716C235.176 354.918 234.582 355.183 233.695 355.511C232.835 355.815 231.822 355.966 230.658 355.966C229.468 355.966 228.341 355.777 227.278 355.398C226.24 355.019 225.329 354.438 224.544 353.655C223.759 352.846 223.139 351.848 222.683 350.661C222.227 349.474 222 348.059 222 346.417C222 344.977 222.215 343.663 222.645 342.476C223.075 341.263 223.696 340.227 224.506 339.368C225.341 338.484 226.354 337.802 227.544 337.322C228.734 336.817 230.075 336.564 231.569 336.564C233.214 336.564 234.645 336.691 235.86 336.943C237.1 337.171 238.138 337.385 238.974 337.587V355.17C238.974 358.202 238.189 360.4 236.619 361.764C235.05 363.128 232.67 363.81 229.48 363.81C228.24 363.81 227.063 363.709 225.949 363.507C224.86 363.305 223.911 363.065 223.101 362.787L223.746 359.718C224.455 359.996 225.316 360.236 226.329 360.438C227.366 360.665 228.442 360.779 229.556 360.779C231.658 360.779 233.164 360.362 234.075 359.528C235.012 358.695 235.48 357.368 235.48 355.549V354.716ZM235.442 340.088C235.088 339.987 234.607 339.899 233.999 339.823C233.417 339.722 232.62 339.672 231.607 339.672C229.708 339.672 228.24 340.291 227.202 341.528C226.189 342.766 225.683 344.408 225.683 346.455C225.683 347.592 225.822 348.564 226.101 349.373C226.404 350.181 226.797 350.85 227.278 351.381C227.784 351.912 228.354 352.303 228.987 352.556C229.645 352.808 230.316 352.935 230.999 352.935C231.936 352.935 232.797 352.808 233.582 352.556C234.366 352.278 234.987 351.962 235.442 351.608V340.088Z" fill="#27235C"/>
<path d="M248.776 352.366C248.801 352.568 248.814 352.77 248.814 352.973C248.814 353.149 248.814 353.339 248.814 353.541C248.814 355.133 248.573 356.699 248.092 358.24C247.637 359.806 247.004 361.297 246.194 362.711L243.459 361.84C244.092 360.551 244.51 359.238 244.713 357.899C244.915 356.585 245.016 355.347 245.016 354.185C245.016 353.857 245.004 353.541 244.978 353.238C244.978 352.935 244.966 352.644 244.94 352.366H248.776Z" fill="#27235C"/>
<path d="M262.353 343.537C262.353 341.288 262.682 339.305 263.34 337.587C264.024 335.87 264.935 334.442 266.074 333.305C267.239 332.143 268.581 331.272 270.1 330.691C271.644 330.11 273.277 329.819 274.998 329.819C276.694 329.819 278.289 330.11 279.783 330.691C281.302 331.272 282.631 332.143 283.77 333.305C284.909 334.442 285.808 335.87 286.466 337.587C287.15 339.305 287.492 341.288 287.492 343.537C287.492 345.785 287.15 347.768 286.466 349.486C285.808 351.204 284.909 352.644 283.77 353.806C282.631 354.943 281.302 355.802 279.783 356.383C278.289 356.964 276.694 357.255 274.998 357.255C273.277 357.255 271.644 356.964 270.1 356.383C268.581 355.802 267.239 354.943 266.074 353.806C264.935 352.644 264.024 351.204 263.34 349.486C262.682 347.768 262.353 345.785 262.353 343.537ZM266.226 343.537C266.226 345.128 266.429 346.581 266.834 347.895C267.239 349.183 267.808 350.282 268.543 351.192C269.302 352.101 270.213 352.808 271.277 353.314C272.365 353.794 273.58 354.034 274.922 354.034C276.264 354.034 277.466 353.794 278.53 353.314C279.593 352.808 280.492 352.101 281.226 351.192C281.985 350.282 282.568 349.183 282.973 347.895C283.378 346.581 283.58 345.128 283.58 343.537C283.58 341.945 283.378 340.505 282.973 339.217C282.568 337.903 281.985 336.792 281.226 335.882C280.492 334.973 279.593 334.278 278.53 333.798C277.466 333.293 276.264 333.04 274.922 333.04C273.58 333.04 272.365 333.293 271.277 333.798C270.213 334.278 269.302 334.973 268.543 335.882C267.808 336.792 267.239 337.903 266.834 339.217C266.429 340.505 266.226 341.945 266.226 343.537Z" fill="#27235C"/>
<path d="M308.465 356.118C307.655 356.32 306.579 356.535 305.237 356.762C303.921 356.989 302.389 357.103 300.643 357.103C299.124 357.103 297.845 356.888 296.807 356.459C295.769 356.004 294.934 355.373 294.301 354.564C293.668 353.756 293.212 352.808 292.934 351.722C292.655 350.61 292.516 349.385 292.516 348.046V336.981H296.048V347.288C296.048 349.688 296.428 351.406 297.187 352.442C297.946 353.478 299.225 353.996 301.022 353.996C301.402 353.996 301.795 353.983 302.2 353.958C302.605 353.933 302.984 353.907 303.339 353.882C303.693 353.832 304.01 353.794 304.288 353.768C304.592 353.718 304.807 353.667 304.934 353.617V336.981H308.465V356.118Z" fill="#27235C"/>
<path d="M321.84 336.564C322.144 336.564 322.486 336.59 322.866 336.64C323.271 336.665 323.663 336.716 324.043 336.792C324.423 336.842 324.764 336.905 325.068 336.981C325.397 337.032 325.638 337.082 325.79 337.133L325.182 340.202C324.904 340.101 324.435 339.987 323.777 339.861C323.144 339.71 322.321 339.634 321.309 339.634C320.65 339.634 319.992 339.71 319.334 339.861C318.701 339.987 318.283 340.076 318.081 340.126V356.686H314.549V337.815C315.385 337.512 316.423 337.234 317.663 336.981C318.904 336.703 320.296 336.564 321.84 336.564Z" fill="#27235C"/>
<path d="M351.087 345.697C351.492 346.202 351.999 346.872 352.606 347.705C353.239 348.514 353.885 349.423 354.543 350.434C355.201 351.419 355.847 352.455 356.48 353.541C357.138 354.627 357.695 355.676 358.15 356.686H354.125C353.619 355.726 353.062 354.754 352.454 353.768C351.872 352.783 351.277 351.848 350.67 350.964C350.062 350.055 349.454 349.208 348.847 348.425C348.265 347.642 347.733 346.96 347.252 346.379C346.923 346.404 346.581 346.417 346.227 346.417C345.897 346.417 345.556 346.417 345.201 346.417H341.898V356.686H338.214V330.804C339.252 330.552 340.404 330.388 341.67 330.312C342.961 330.211 344.138 330.16 345.201 330.16C348.897 330.16 351.707 330.855 353.631 332.244C355.581 333.634 356.555 335.705 356.555 338.459C356.555 340.202 356.087 341.693 355.15 342.931C354.239 344.168 352.885 345.091 351.087 345.697ZM345.505 333.381C343.935 333.381 342.733 333.419 341.898 333.495V343.385H344.518C345.784 343.385 346.923 343.322 347.935 343.196C348.948 343.07 349.796 342.83 350.48 342.476C351.188 342.122 351.733 341.63 352.113 340.998C352.492 340.341 352.682 339.482 352.682 338.421C352.682 337.436 352.492 336.615 352.113 335.958C351.733 335.301 351.214 334.783 350.556 334.404C349.923 334.025 349.163 333.76 348.277 333.609C347.416 333.457 346.492 333.381 345.505 333.381Z" fill="#27235C"/>
<path d="M360.767 346.872C360.767 345.128 361.02 343.613 361.526 342.324C362.033 341.011 362.704 339.924 363.539 339.065C364.375 338.206 365.336 337.562 366.425 337.133C367.514 336.703 368.628 336.489 369.767 336.489C372.425 336.489 374.463 337.322 375.881 338.99C377.298 340.632 378.007 343.145 378.007 346.531C378.007 346.682 378.007 346.884 378.007 347.137C378.007 347.364 377.994 347.579 377.969 347.781H364.45C364.602 349.827 365.197 351.381 366.235 352.442C367.273 353.503 368.893 354.034 371.096 354.034C372.336 354.034 373.374 353.933 374.21 353.73C375.07 353.503 375.716 353.288 376.146 353.086L376.64 356.042C376.21 356.269 375.45 356.509 374.362 356.762C373.298 357.015 372.083 357.141 370.716 357.141C368.995 357.141 367.501 356.888 366.235 356.383C364.995 355.853 363.969 355.133 363.159 354.223C362.349 353.314 361.742 352.24 361.337 351.002C360.957 349.739 360.767 348.362 360.767 346.872ZM374.324 344.939C374.349 343.347 373.944 342.046 373.108 341.036C372.298 340 371.172 339.482 369.729 339.482C368.919 339.482 368.197 339.646 367.564 339.975C366.957 340.278 366.438 340.682 366.007 341.187C365.577 341.693 365.235 342.274 364.982 342.931C364.754 343.587 364.602 344.257 364.526 344.939H374.324Z" fill="#27235C"/>
<path d="M387.675 354.147C389.118 354.147 390.181 353.958 390.865 353.579C391.574 353.2 391.928 352.594 391.928 351.76C391.928 350.901 391.586 350.219 390.903 349.714C390.219 349.208 389.093 348.64 387.523 348.008C386.764 347.705 386.029 347.402 385.321 347.099C384.637 346.771 384.042 346.392 383.536 345.962C383.03 345.533 382.624 345.015 382.321 344.408C382.017 343.802 381.865 343.057 381.865 342.173C381.865 340.43 382.511 339.053 383.802 338.042C385.093 337.006 386.852 336.489 389.08 336.489C389.637 336.489 390.194 336.526 390.751 336.602C391.308 336.653 391.827 336.729 392.308 336.83C392.789 336.905 393.206 336.994 393.561 337.095C393.941 337.196 394.232 337.284 394.434 337.36L393.789 340.392C393.409 340.19 392.814 339.987 392.004 339.785C391.194 339.558 390.219 339.444 389.08 339.444C388.093 339.444 387.232 339.646 386.498 340.051C385.764 340.43 385.397 341.036 385.397 341.87C385.397 342.299 385.472 342.678 385.624 343.006C385.802 343.335 386.055 343.638 386.384 343.916C386.738 344.168 387.169 344.408 387.675 344.636C388.181 344.863 388.789 345.103 389.498 345.356C390.434 345.709 391.27 346.063 392.004 346.417C392.738 346.745 393.358 347.137 393.865 347.592C394.396 348.046 394.801 348.602 395.08 349.259C395.358 349.89 395.498 350.674 395.498 351.608C395.498 353.427 394.814 354.804 393.447 355.739C392.105 356.674 390.181 357.141 387.675 357.141C385.928 357.141 384.561 356.989 383.574 356.686C382.586 356.408 381.916 356.194 381.561 356.042L382.207 353.01C382.612 353.162 383.257 353.389 384.143 353.693C385.029 353.996 386.207 354.147 387.675 354.147Z" fill="#27235C"/>
<path d="M413.736 346.872C413.736 344.573 413.166 342.804 412.027 341.566C410.888 340.328 409.369 339.71 407.47 339.71C406.407 339.71 405.572 339.747 404.964 339.823C404.382 339.899 403.913 339.987 403.559 340.088V352.518C403.989 352.872 404.61 353.213 405.42 353.541C406.23 353.869 407.116 354.034 408.078 354.034C409.091 354.034 409.951 353.857 410.66 353.503C411.394 353.124 411.989 352.619 412.445 351.987C412.901 351.33 413.23 350.573 413.432 349.714C413.635 348.829 413.736 347.882 413.736 346.872ZM417.419 346.872C417.419 348.362 417.217 349.739 416.812 351.002C416.432 352.265 415.862 353.352 415.103 354.261C414.344 355.17 413.407 355.878 412.293 356.383C411.204 356.888 409.951 357.141 408.534 357.141C407.394 357.141 406.382 356.989 405.496 356.686C404.635 356.383 403.989 356.093 403.559 355.815V363.697H400.027V337.587C400.863 337.385 401.901 337.171 403.141 336.943C404.407 336.691 405.863 336.564 407.508 336.564C409.027 336.564 410.394 336.804 411.609 337.284C412.825 337.764 413.863 338.446 414.723 339.331C415.584 340.215 416.242 341.301 416.698 342.59C417.179 343.853 417.419 345.28 417.419 346.872Z" fill="#27235C"/>
<path d="M439.819 346.834C439.819 348.4 439.591 349.815 439.135 351.078C438.68 352.341 438.034 353.427 437.199 354.337C436.389 355.246 435.414 355.954 434.275 356.459C433.136 356.939 431.895 357.179 430.553 357.179C429.212 357.179 427.971 356.939 426.832 356.459C425.693 355.954 424.705 355.246 423.87 354.337C423.06 353.427 422.427 352.341 421.971 351.078C421.516 349.815 421.288 348.4 421.288 346.834C421.288 345.293 421.516 343.891 421.971 342.627C422.427 341.339 423.06 340.24 423.87 339.331C424.705 338.421 425.693 337.726 426.832 337.246C427.971 336.741 429.212 336.489 430.553 336.489C431.895 336.489 433.136 336.741 434.275 337.246C435.414 337.726 436.389 338.421 437.199 339.331C438.034 340.24 438.68 341.339 439.135 342.627C439.591 343.891 439.819 345.293 439.819 346.834ZM436.135 346.834C436.135 344.611 435.629 342.855 434.616 341.566C433.629 340.253 432.275 339.596 430.553 339.596C428.832 339.596 427.465 340.253 426.452 341.566C425.465 342.855 424.971 344.611 424.971 346.834C424.971 349.057 425.465 350.825 426.452 352.139C427.465 353.427 428.832 354.072 430.553 354.072C432.275 354.072 433.629 353.427 434.616 352.139C435.629 350.825 436.135 349.057 436.135 346.834Z" fill="#27235C"/>
<path d="M444.788 337.55C445.598 337.347 446.674 337.133 448.015 336.905C449.357 336.678 450.901 336.564 452.648 336.564C454.218 336.564 455.521 336.792 456.559 337.246C457.597 337.676 458.42 338.295 459.028 339.103C459.661 339.886 460.104 340.834 460.357 341.945C460.61 343.057 460.737 344.282 460.737 345.621V356.686H457.205V346.379C457.205 345.166 457.116 344.131 456.939 343.272C456.787 342.413 456.521 341.718 456.142 341.187C455.762 340.657 455.256 340.278 454.623 340.051C453.99 339.798 453.205 339.672 452.268 339.672C451.889 339.672 451.496 339.684 451.091 339.71C450.686 339.735 450.294 339.773 449.914 339.823C449.56 339.848 449.23 339.886 448.927 339.937C448.648 339.987 448.446 340.025 448.319 340.051V356.686H444.788V337.55Z" fill="#27235C"/>
<path d="M471.188 354.147C472.631 354.147 473.694 353.958 474.377 353.579C475.086 353.2 475.441 352.594 475.441 351.76C475.441 350.901 475.099 350.219 474.415 349.714C473.732 349.208 472.605 348.64 471.036 348.008C470.276 347.705 469.542 347.402 468.833 347.099C468.15 346.771 467.555 346.392 467.048 345.962C466.542 345.533 466.137 345.015 465.833 344.408C465.53 343.802 465.378 343.057 465.378 342.173C465.378 340.43 466.023 339.053 467.314 338.042C468.605 337.006 470.365 336.489 472.593 336.489C473.15 336.489 473.707 336.526 474.264 336.602C474.82 336.653 475.339 336.729 475.82 336.83C476.301 336.905 476.719 336.994 477.074 337.095C477.453 337.196 477.744 337.284 477.947 337.36L477.301 340.392C476.922 340.19 476.327 339.987 475.517 339.785C474.707 339.558 473.732 339.444 472.593 339.444C471.605 339.444 470.745 339.646 470.01 340.051C469.276 340.43 468.909 341.036 468.909 341.87C468.909 342.299 468.985 342.678 469.137 343.006C469.314 343.335 469.567 343.638 469.897 343.916C470.251 344.168 470.681 344.408 471.188 344.636C471.694 344.863 472.302 345.103 473.01 345.356C473.947 345.709 474.782 346.063 475.517 346.417C476.251 346.745 476.871 347.137 477.377 347.592C477.909 348.046 478.314 348.602 478.592 349.259C478.871 349.89 479.01 350.674 479.01 351.608C479.01 353.427 478.327 354.804 476.96 355.739C475.618 356.674 473.694 357.141 471.188 357.141C469.441 357.141 468.074 356.989 467.086 356.686C466.099 356.408 465.428 356.194 465.074 356.042L465.719 353.01C466.124 353.162 466.77 353.389 467.656 353.693C468.542 353.996 469.719 354.147 471.188 354.147Z" fill="#27235C"/>
<path d="M487.072 356.686H483.54V336.981H487.072V356.686ZM485.287 333.419C484.654 333.419 484.11 333.217 483.654 332.813C483.224 332.383 483.008 331.815 483.008 331.108C483.008 330.4 483.224 329.844 483.654 329.44C484.11 329.011 484.654 328.796 485.287 328.796C485.92 328.796 486.451 329.011 486.882 329.44C487.337 329.844 487.565 330.4 487.565 331.108C487.565 331.815 487.337 332.383 486.882 332.813C486.451 333.217 485.92 333.419 485.287 333.419Z" fill="#27235C"/>
<path d="M496.676 337.853C497.107 337.575 497.752 337.284 498.613 336.981C499.499 336.678 500.512 336.526 501.651 336.526C503.069 336.526 504.322 336.779 505.41 337.284C506.524 337.79 507.461 338.497 508.22 339.406C508.98 340.316 509.549 341.402 509.929 342.665C510.334 343.928 510.537 345.318 510.537 346.834C510.537 348.425 510.296 349.865 509.815 351.154C509.36 352.417 508.701 353.49 507.841 354.375C506.98 355.259 505.942 355.941 504.727 356.421C503.512 356.901 502.145 357.141 500.626 357.141C498.98 357.141 497.524 357.027 496.259 356.8C494.993 356.573 493.955 356.345 493.145 356.118V327.886L496.676 327.28V337.853ZM496.676 353.617C497.031 353.718 497.524 353.819 498.157 353.92C498.816 353.996 499.626 354.034 500.588 354.034C502.486 354.034 504.005 353.415 505.145 352.177C506.284 350.914 506.853 349.133 506.853 346.834C506.853 345.823 506.752 344.876 506.55 343.992C506.347 343.107 506.018 342.35 505.562 341.718C505.107 341.061 504.512 340.556 503.777 340.202C503.069 339.823 502.208 339.634 501.195 339.634C500.233 339.634 499.347 339.798 498.537 340.126C497.727 340.455 497.107 340.796 496.676 341.15V353.617Z" fill="#27235C"/>
<path d="M519.038 356.686H515.506V336.981H519.038V356.686ZM517.253 333.419C516.62 333.419 516.076 333.217 515.62 332.813C515.19 332.383 514.975 331.815 514.975 331.108C514.975 330.4 515.19 329.844 515.62 329.44C516.076 329.011 516.62 328.796 517.253 328.796C517.886 328.796 518.418 329.011 518.848 329.44C519.304 329.844 519.531 330.4 519.531 331.108C519.531 331.815 519.304 332.383 518.848 332.813C518.418 333.217 517.886 333.419 517.253 333.419Z" fill="#27235C"/>
<path d="M531.035 357.065C528.858 357.015 527.313 356.547 526.402 355.663C525.491 354.779 525.035 353.402 525.035 351.533V327.886L528.567 327.28V350.964C528.567 351.545 528.617 352.025 528.718 352.404C528.82 352.783 528.984 353.086 529.212 353.314C529.44 353.541 529.744 353.718 530.124 353.844C530.503 353.945 530.972 354.034 531.529 354.109L531.035 357.065Z" fill="#27235C"/>
<path d="M539.026 356.686H535.494V336.981H539.026V356.686ZM537.241 333.419C536.608 333.419 536.064 333.217 535.608 332.813C535.178 332.383 534.963 331.815 534.963 331.108C534.963 330.4 535.178 329.844 535.608 329.44C536.064 329.011 536.608 328.796 537.241 328.796C537.874 328.796 538.406 329.011 538.836 329.44C539.292 329.844 539.52 330.4 539.52 331.108C539.52 331.815 539.292 332.383 538.836 332.813C538.406 333.217 537.874 333.419 537.241 333.419Z" fill="#27235C"/>
<path d="M548.403 336.981H555.884V339.937H548.403V349.032C548.403 350.017 548.479 350.838 548.631 351.495C548.783 352.126 549.01 352.632 549.314 353.01C549.618 353.364 549.998 353.617 550.453 353.768C550.909 353.92 551.441 353.996 552.048 353.996C553.112 353.996 553.96 353.882 554.593 353.655C555.251 353.402 555.706 353.225 555.96 353.124L556.643 356.042C556.289 356.219 555.668 356.434 554.782 356.686C553.896 356.964 552.884 357.103 551.745 357.103C550.403 357.103 549.289 356.939 548.403 356.61C547.542 356.257 546.846 355.739 546.314 355.057C545.783 354.375 545.403 353.541 545.175 352.556C544.973 351.545 544.871 350.383 544.871 349.069V331.486L548.403 330.88V336.981Z" fill="#27235C"/>
<path d="M558.061 360.362C558.34 360.488 558.694 360.602 559.125 360.703C559.58 360.829 560.023 360.892 560.454 360.892C561.846 360.892 562.935 360.577 563.719 359.945C564.504 359.339 565.213 358.341 565.846 356.951C564.251 353.92 562.757 350.712 561.365 347.326C559.998 343.916 558.859 340.467 557.947 336.981H561.745C562.023 338.118 562.352 339.343 562.732 340.657C563.137 341.971 563.58 343.322 564.061 344.712C564.542 346.101 565.061 347.491 565.618 348.88C566.175 350.269 566.757 351.608 567.365 352.897C568.327 350.244 569.162 347.617 569.871 345.015C570.58 342.413 571.251 339.735 571.884 336.981H575.529C574.618 340.695 573.605 344.269 572.491 347.705C571.377 351.116 570.175 354.311 568.884 357.293C568.377 358.429 567.846 359.402 567.289 360.21C566.757 361.044 566.162 361.726 565.504 362.257C564.846 362.787 564.099 363.179 563.264 363.431C562.454 363.684 561.53 363.81 560.492 363.81C560.213 363.81 559.922 363.785 559.618 363.735C559.314 363.709 559.011 363.659 558.707 363.583C558.428 363.532 558.163 363.469 557.909 363.394C557.682 363.318 557.517 363.255 557.416 363.204L558.061 360.362Z" fill="#27235C"/>
<path d="M582.395 354.64C582.395 355.322 582.167 355.916 581.711 356.421C581.256 356.926 580.636 357.179 579.851 357.179C579.066 357.179 578.446 356.926 577.99 356.421C577.534 355.916 577.307 355.322 577.307 354.64C577.307 353.958 577.534 353.364 577.99 352.859C578.446 352.354 579.066 352.101 579.851 352.101C580.636 352.101 581.256 352.354 581.711 352.859C582.167 353.364 582.395 353.958 582.395 354.64Z" fill="#27235C"/>
<path d="M551.746 301.554C547.404 301.554 543.506 300.712 540.05 299.028C536.683 297.256 533.803 294.864 531.411 291.852C529.107 288.839 527.335 285.383 526.095 281.485C524.943 277.498 524.367 273.245 524.367 268.726C524.456 264.207 525.12 259.998 526.361 256.1C527.601 252.113 529.373 248.657 531.677 245.733C534.069 242.721 536.949 240.373 540.316 238.689C543.683 237.006 547.493 236.164 551.746 236.164C555.821 236.164 559.631 237.006 563.176 238.689C566.808 240.373 569.998 242.721 572.745 245.733C575.58 248.657 577.795 252.113 579.39 256.1C580.985 259.998 581.782 264.163 581.782 268.593C581.782 273.2 580.985 277.542 579.39 281.618C577.795 285.605 575.624 289.105 572.878 292.117C570.131 295.041 566.941 297.345 563.309 299.028C559.676 300.712 555.821 301.554 551.746 301.554ZM549.619 286.004C552.72 286.004 555.511 285.295 557.992 283.877C560.473 282.371 562.422 280.333 563.84 277.764C565.346 275.194 566.1 272.27 566.1 268.992C566.1 265.625 565.346 262.657 563.84 260.087C562.422 257.429 560.473 255.391 557.992 253.973C555.511 252.467 552.72 251.714 549.619 251.714C546.607 251.714 543.86 252.467 541.379 253.973C538.898 255.48 536.905 257.518 535.398 260.087C533.981 262.657 533.272 265.625 533.272 268.992C533.272 272.27 533.981 275.194 535.398 277.764C536.905 280.333 538.898 282.371 541.379 283.877C543.86 285.295 546.607 286.004 549.619 286.004ZM525.032 301.687C522.639 301.687 520.867 301.288 519.715 300.49C518.564 299.782 517.855 298.851 517.589 297.699C517.323 296.459 517.19 295.086 517.19 293.579V214.367C517.19 212.861 517.323 211.532 517.589 210.38C517.855 209.14 518.564 208.165 519.715 207.456C520.867 206.748 522.639 206.393 525.032 206.393C527.513 206.393 529.285 206.748 530.348 207.456C531.411 208.165 532.076 209.14 532.341 210.38C532.607 211.621 532.74 212.95 532.74 214.367V296.237C532.386 298.187 531.633 299.56 530.481 300.358C529.418 301.244 527.601 301.687 525.032 301.687Z" fill="#27235C" stroke="#27235C" stroke-width="0.5"/>
<path d="M477.578 302.486C471.818 302.486 466.768 301.555 462.426 299.695C458.173 297.834 454.585 295.309 451.661 292.119C448.826 288.841 446.655 285.208 445.149 281.221C443.731 277.145 443.022 272.936 443.022 268.595C443.022 262.215 444.484 256.545 447.408 251.583C450.332 246.621 454.364 242.723 459.503 239.887C464.73 237.052 470.711 235.634 477.445 235.634C482.229 235.634 486.438 236.387 490.071 237.894C493.704 239.4 496.716 241.393 499.108 243.874C501.589 246.267 503.45 248.925 504.691 251.849C506.02 254.773 506.684 257.608 506.684 260.355C506.684 265.051 505.532 268.462 503.229 270.588C501.013 272.715 498.222 273.778 494.855 273.778H459.768C459.857 276.791 460.787 279.405 462.559 281.62C464.42 283.835 466.724 285.562 469.47 286.803C472.306 287.955 475.185 288.531 478.109 288.531C480.324 288.531 482.274 288.398 483.957 288.132C485.729 287.866 487.236 287.556 488.476 287.202C489.716 286.759 490.78 286.316 491.666 285.873C492.64 285.43 493.526 285.031 494.324 284.676C495.121 284.322 495.874 284.101 496.583 284.012C497.558 283.923 498.533 284.145 499.507 284.676C500.482 285.208 501.279 286.138 501.9 287.467C502.431 288.354 502.786 289.195 502.963 289.993C503.229 290.702 503.362 291.41 503.362 292.119C503.362 293.891 502.298 295.575 500.172 297.17C498.045 298.676 495.033 299.916 491.134 300.891C487.324 301.954 482.805 302.486 477.578 302.486ZM459.768 264.342H487.014C488.52 264.342 489.672 264.12 490.47 263.677C491.267 263.146 491.666 262.082 491.666 260.488C491.666 258.45 491.046 256.633 489.805 255.038C488.565 253.355 486.881 252.07 484.755 251.184C482.628 250.21 480.147 249.722 477.312 249.722C474.034 249.722 471.065 250.387 468.407 251.716C465.749 252.956 463.623 254.684 462.028 256.899C460.522 259.114 459.768 261.595 459.768 264.342Z" fill="#27235C" stroke="#27235C" stroke-width="0.5"/>
<path d="M358.671 301.293C356.899 301.293 355.482 300.983 354.418 300.363C353.355 299.654 352.558 298.856 352.026 297.97C351.583 297.084 351.273 296.331 351.096 295.711L325.046 219.423C324.16 216.588 324.027 214.461 324.647 213.043C325.268 211.537 327.084 210.297 330.097 209.322C332.135 208.613 333.774 208.303 335.014 208.392C336.255 208.48 337.274 209.012 338.071 209.987C338.957 210.873 339.71 212.29 340.33 214.24L359.469 272.187L376.614 214.771C376.879 213.885 377.234 212.999 377.677 212.113C378.209 211.138 379.006 210.341 380.069 209.721C381.132 209.101 382.594 208.79 384.455 208.79C386.582 208.79 388.176 209.145 389.24 209.854C390.303 210.563 391.056 211.36 391.499 212.246C392.031 213.043 392.385 213.797 392.562 214.505L409.707 272.585L428.979 214.373C429.599 212.335 430.308 210.828 431.105 209.854C431.991 208.879 433.099 208.347 434.428 208.259C435.757 208.082 437.396 208.347 439.345 209.056C441.383 209.765 442.845 210.563 443.731 211.449C444.617 212.246 445.06 213.309 445.06 214.638C445.06 215.879 444.75 217.474 444.13 219.423L418.213 295.844C418.036 296.375 417.682 297.084 417.15 297.97C416.707 298.856 415.954 299.654 414.891 300.363C413.827 300.983 412.365 301.293 410.505 301.293C408.644 301.293 407.182 300.894 406.119 300.097C405.056 299.299 404.258 298.413 403.726 297.439C403.195 296.464 402.84 295.755 402.663 295.312L384.588 236.834L366.513 295.179C366.336 295.8 365.981 296.597 365.45 297.572C365.007 298.546 364.253 299.432 363.19 300.23C362.127 300.939 360.621 301.293 358.671 301.293Z" fill="#27235C" stroke="#27235C" stroke-width="0.5"/>
<path d="M289.563 302.487C287.259 302.487 284.823 302.221 282.253 301.69C279.684 301.247 277.203 300.582 274.811 299.696C272.418 298.721 270.336 297.614 268.564 296.373C266.881 295.044 265.817 293.582 265.374 291.987C265.02 291.101 264.887 290.26 264.976 289.462C265.064 288.576 265.33 287.69 265.773 286.804C266.216 285.83 266.881 284.855 267.767 283.88C268.564 282.906 269.361 282.374 270.159 282.285C271.045 282.108 272.152 282.374 273.482 283.083C274.633 283.526 275.874 284.102 277.203 284.811C278.621 285.519 280.038 286.228 281.456 286.937C282.962 287.646 284.468 288.222 285.975 288.665C287.57 289.108 289.12 289.329 290.626 289.329C293.905 289.329 296.519 288.798 298.468 287.734C300.417 286.583 301.392 284.988 301.392 282.95C301.392 281.798 301.082 280.779 300.461 279.893C299.841 279.007 298.999 278.298 297.936 277.767C296.962 277.146 295.765 276.615 294.348 276.172C293.019 275.64 291.557 275.197 289.962 274.843C288.456 274.4 286.861 273.912 285.177 273.381C282.962 272.76 280.747 272.007 278.532 271.121C276.317 270.235 274.323 269.083 272.551 267.666C270.868 266.248 269.494 264.476 268.431 262.349C267.368 260.223 266.836 257.565 266.836 254.375C266.836 250.388 267.767 247.021 269.627 244.274C271.577 241.439 274.368 239.268 278 237.762C281.633 236.256 286.019 235.502 291.158 235.502C292.93 235.502 294.614 235.635 296.208 235.901C297.892 236.167 299.487 236.566 300.993 237.097C302.588 237.54 304.094 238.116 305.512 238.825C307.018 239.534 308.436 240.331 309.765 241.217C311.98 242.458 313.132 243.92 313.22 245.603C313.309 247.198 312.689 248.926 311.36 250.787C310.385 252.027 309.41 252.913 308.436 253.445C307.461 253.888 306.442 253.888 305.379 253.445C303.961 252.736 302.411 251.983 300.727 251.185C299.132 250.299 297.449 249.546 295.677 248.926C293.993 248.306 292.221 247.996 290.361 247.996C288.588 247.996 286.994 248.261 285.576 248.793C284.158 249.325 283.095 250.078 282.386 251.052C281.677 252.027 281.323 253.179 281.323 254.508C281.323 255.748 281.677 256.767 282.386 257.565C283.095 258.362 284.025 259.027 285.177 259.558C286.329 260.09 287.702 260.577 289.297 261.02C290.892 261.375 292.576 261.729 294.348 262.084C296.829 262.615 299.354 263.28 301.923 264.077C304.493 264.875 306.841 265.982 308.967 267.4C311.182 268.818 312.955 270.723 314.284 273.115C315.613 275.419 316.277 278.431 316.277 282.152C316.277 288.621 313.885 293.627 309.1 297.171C304.404 300.715 297.892 302.487 289.563 302.487Z" fill="#27235C" stroke="#27235C" stroke-width="0.5"/>
<path d="M226.823 302.485C221.064 302.485 216.013 301.555 211.672 299.694C207.419 297.833 203.83 295.308 200.906 292.118C198.071 288.84 195.9 285.207 194.394 281.22C192.976 277.144 192.268 272.936 192.268 268.594C192.268 262.215 193.73 256.544 196.653 251.582C199.577 246.62 203.609 242.722 208.748 239.886C213.976 237.051 219.956 235.633 226.69 235.633C231.475 235.633 235.683 236.387 239.316 237.893C242.949 239.399 245.962 241.393 248.354 243.874C250.835 246.266 252.695 248.924 253.936 251.848C255.265 254.772 255.929 257.607 255.929 260.354C255.929 265.05 254.778 268.461 252.474 270.588C250.259 272.714 247.468 273.777 244.101 273.777H209.014C209.102 276.79 210.033 279.404 211.805 281.619C213.665 283.834 215.969 285.562 218.716 286.802C221.551 287.954 224.431 288.53 227.355 288.53C229.57 288.53 231.519 288.397 233.203 288.131C234.975 287.865 236.481 287.555 237.721 287.201C238.962 286.758 240.025 286.315 240.911 285.872C241.886 285.429 242.772 285.03 243.569 284.676C244.367 284.321 245.12 284.1 245.829 284.011C246.803 283.923 247.778 284.144 248.753 284.676C249.727 285.207 250.525 286.138 251.145 287.467C251.677 288.353 252.031 289.194 252.208 289.992C252.474 290.701 252.607 291.41 252.607 292.118C252.607 293.89 251.544 295.574 249.417 297.169C247.291 298.675 244.278 299.916 240.38 300.89C236.57 301.953 232.051 302.485 226.823 302.485ZM209.014 264.341H236.259C237.766 264.341 238.918 264.12 239.715 263.677C240.512 263.145 240.911 262.082 240.911 260.487C240.911 258.449 240.291 256.633 239.05 255.038C237.81 253.354 236.127 252.069 234 251.183C231.874 250.209 229.393 249.721 226.557 249.721C223.279 249.721 220.311 250.386 217.653 251.715C214.994 252.955 212.868 254.683 211.273 256.898C209.767 259.113 209.014 261.594 209.014 264.341Z" fill="#27235C" stroke="#27235C" stroke-width="0.5"/>
<path d="M179.376 301.692C176.098 301.692 173.174 301.471 170.604 301.028C168.123 300.585 165.953 299.832 164.092 298.768C162.32 297.705 160.858 296.287 159.706 294.515C158.554 292.655 157.668 290.395 157.048 287.737C156.516 285.079 156.25 281.889 156.25 278.168V214.107C156.25 212.601 156.383 211.272 156.649 210.12C157.004 208.88 157.712 207.905 158.776 207.196C159.928 206.399 161.744 206 164.225 206C166.706 206 168.478 206.354 169.541 207.063C170.693 207.772 171.402 208.747 171.668 209.987C172.022 211.139 172.199 212.468 172.199 213.974V277.503C172.199 279.187 172.288 280.605 172.465 281.756C172.731 282.82 173.13 283.706 173.661 284.414C174.281 285.035 175.035 285.478 175.921 285.744C176.895 286.009 178.047 286.142 179.376 286.142C180.528 286.142 181.547 286.275 182.433 286.541C183.408 286.807 184.161 287.471 184.692 288.535C185.313 289.598 185.623 291.326 185.623 293.718C185.623 296.199 185.313 298.015 184.692 299.167C184.161 300.319 183.408 301.028 182.433 301.294C181.458 301.559 180.439 301.692 179.376 301.692Z" fill="#27235C" stroke="#27235C" stroke-width="0.5"/>
<path d="M134 301.69C131.607 301.69 129.835 301.292 128.683 300.494C127.531 299.786 126.823 298.855 126.557 297.703C126.291 296.463 126.158 295.089 126.158 293.583V244.142C126.158 242.725 126.291 241.44 126.557 240.288C126.911 239.048 127.62 238.073 128.683 237.364C129.835 236.655 131.652 236.301 134.132 236.301C136.613 236.301 138.385 236.655 139.449 237.364C140.601 238.073 141.309 239.048 141.575 240.288C141.841 241.528 141.974 242.902 141.974 244.408V293.716C141.974 295.222 141.841 296.596 141.575 297.836C141.309 298.988 140.601 299.918 139.449 300.627C138.385 301.336 136.569 301.69 134 301.69ZM134 223.409C131.43 223.409 129.525 223.055 128.285 222.346C127.133 221.548 126.38 220.485 126.025 219.156C125.759 217.827 125.626 216.365 125.626 214.77C125.626 213.087 125.759 211.625 126.025 210.384C126.38 209.144 127.177 208.169 128.417 207.46C129.658 206.663 131.563 206.264 134.132 206.264C136.791 206.264 138.696 206.663 139.847 207.46C140.999 208.258 141.752 209.321 142.107 210.65C142.461 211.89 142.638 213.352 142.638 215.036C142.638 216.542 142.461 217.96 142.107 219.289C141.752 220.618 140.999 221.637 139.847 222.346C138.696 223.055 136.746 223.409 134 223.409Z" fill="#27235C" stroke="#27235C" stroke-width="0.5"/>
<path d="M24.8414 301.556C22.5377 301.556 20.81 301.202 19.6581 300.493C18.5063 299.784 17.7531 298.81 17.3987 297.569C17.1329 296.329 17 294.955 17 293.449V216.762C17 215.345 17.1329 214.06 17.3987 212.908C17.7531 211.668 18.5063 210.693 19.6581 209.984C20.81 209.187 22.6263 208.788 25.1073 208.788C26.9679 208.788 28.3413 208.921 29.2273 209.187C30.202 209.364 30.9551 209.674 31.4867 210.117C32.0184 210.471 32.55 210.959 33.0816 211.579L65.5106 256.9H62.4538L95.0157 211.446C95.636 210.737 96.2562 210.206 96.8764 209.851C97.4967 209.497 98.2941 209.231 99.2687 209.054C100.243 208.877 101.528 208.788 103.123 208.788C105.515 208.788 107.287 209.187 108.439 209.984C109.591 210.693 110.3 211.668 110.566 212.908C110.92 214.149 111.097 215.522 111.097 217.028V293.715C111.097 295.044 110.92 296.329 110.566 297.569C110.3 298.81 109.591 299.784 108.439 300.493C107.287 301.202 105.471 301.556 102.99 301.556C100.598 301.556 98.8257 301.158 97.6739 300.36C96.522 299.651 95.7689 298.677 95.4145 297.436C95.1487 296.196 95.0157 294.867 95.0157 293.449V236.432L70.8269 271.387C70.5611 271.741 70.1624 272.228 69.6307 272.849C69.0991 273.38 68.3903 273.868 67.5042 274.311C66.6182 274.754 65.422 274.975 63.9158 274.975C62.4981 274.975 61.3463 274.754 60.4602 274.311C59.5742 273.868 58.8654 273.38 58.3337 272.849C57.8907 272.317 57.4477 271.785 57.0047 271.254L32.9487 236.432V293.715C32.9487 295.044 32.7715 296.329 32.4171 297.569C32.1513 298.81 31.4424 299.784 30.2906 300.493C29.1387 301.202 27.3224 301.556 24.8414 301.556Z" fill="#27235C" stroke="#27235C" stroke-width="0.5"/>
</svg>
