<svg width="693" height="161" viewBox="0 0 693 161" fill="none" xmlns="http://www.w3.org/2000/svg">
<path d="M325.51 150.159C325.51 148.276 327.036 146.75 328.918 146.75H564.107C565.99 146.75 567.516 148.276 567.516 150.159V150.159C567.516 152.041 565.99 153.567 564.107 153.567H328.918C327.036 153.567 325.51 152.041 325.51 150.159V150.159Z" fill="#FFBB00"/>
<path d="M133.853 125.023V116.772C132.485 114.655 131.196 112.567 129.987 110.51C128.777 108.452 127.637 106.434 126.566 104.455H129.957C130.711 106.077 131.553 107.73 132.485 109.411C133.417 111.074 134.379 112.676 135.37 114.22C136.342 112.676 137.294 111.074 138.225 109.411C139.157 107.73 140.01 106.077 140.783 104.455H143.996C142.925 106.434 141.785 108.452 140.575 110.51C139.366 112.548 138.087 114.615 136.738 116.713V125.023H133.853Z" fill="white"/>
<path d="M158.743 117.306C158.743 118.533 158.564 119.641 158.207 120.631C157.85 121.62 157.345 122.471 156.691 123.183C156.056 123.895 155.293 124.45 154.4 124.845C153.508 125.221 152.536 125.409 151.486 125.409C150.435 125.409 149.463 125.221 148.571 124.845C147.679 124.45 146.905 123.895 146.251 123.183C145.616 122.471 145.121 121.62 144.764 120.631C144.407 119.641 144.228 118.533 144.228 117.306C144.228 116.099 144.407 115.001 144.764 114.012C145.121 113.003 145.616 112.142 146.251 111.43C146.905 110.717 147.679 110.173 148.571 109.797C149.463 109.402 150.435 109.204 151.486 109.204C152.536 109.204 153.508 109.402 154.4 109.797C155.293 110.173 156.056 110.717 156.691 111.43C157.345 112.142 157.85 113.003 158.207 114.012C158.564 115.001 158.743 116.099 158.743 117.306ZM155.858 117.306C155.858 115.565 155.461 114.19 154.668 113.181C153.895 112.152 152.834 111.637 151.486 111.637C150.137 111.637 149.067 112.152 148.273 113.181C147.5 114.19 147.113 115.565 147.113 117.306C147.113 119.048 147.5 120.433 148.273 121.462C149.067 122.471 150.137 122.975 151.486 122.975C152.834 122.975 153.895 122.471 154.668 121.462C155.461 120.433 155.858 119.048 155.858 117.306Z" fill="white"/>
<path d="M174.948 124.578C174.313 124.736 173.471 124.905 172.42 125.083C171.389 125.261 170.189 125.35 168.821 125.35C167.631 125.35 166.63 125.182 165.817 124.845C165.004 124.489 164.35 123.994 163.854 123.361C163.358 122.728 163.001 121.986 162.783 121.135C162.565 120.265 162.456 119.305 162.456 118.256V109.59H165.222V117.663C165.222 119.542 165.519 120.888 166.114 121.699C166.709 122.51 167.71 122.916 169.118 122.916C169.416 122.916 169.723 122.906 170.04 122.886C170.358 122.867 170.655 122.847 170.933 122.827C171.21 122.787 171.458 122.758 171.676 122.738C171.914 122.698 172.083 122.659 172.182 122.619V109.59H174.948V124.578Z" fill="white"/>
<path d="M185.424 109.263C185.662 109.263 185.929 109.283 186.227 109.322C186.544 109.342 186.851 109.382 187.149 109.441C187.446 109.481 187.714 109.53 187.952 109.59C188.21 109.629 188.398 109.669 188.517 109.708L188.041 112.112C187.823 112.033 187.456 111.944 186.941 111.845C186.445 111.727 185.8 111.667 185.007 111.667C184.492 111.667 183.976 111.727 183.461 111.845C182.965 111.944 182.638 112.013 182.479 112.053V125.023H179.713V110.243C180.367 110.005 181.18 109.787 182.152 109.59C183.124 109.372 184.214 109.263 185.424 109.263Z" fill="white"/>
<path d="M211.216 104.455H214.101V125.023H211.216V115.526H201.133V125.023H198.248V104.455H201.133V113.032H211.216V104.455Z" fill="white"/>
<path d="M232.693 117.306C232.693 118.533 232.514 119.641 232.157 120.631C231.8 121.62 231.295 122.471 230.64 123.183C230.006 123.895 229.242 124.45 228.35 124.845C227.458 125.221 226.486 125.409 225.435 125.409C224.384 125.409 223.413 125.221 222.521 124.845C221.628 124.45 220.855 123.895 220.201 123.183C219.566 122.471 219.07 121.62 218.714 120.631C218.357 119.641 218.178 118.533 218.178 117.306C218.178 116.099 218.357 115.001 218.714 114.012C219.07 113.003 219.566 112.142 220.201 111.43C220.855 110.717 221.628 110.173 222.521 109.797C223.413 109.402 224.384 109.204 225.435 109.204C226.486 109.204 227.458 109.402 228.35 109.797C229.242 110.173 230.006 110.717 230.64 111.43C231.295 112.142 231.8 113.003 232.157 114.012C232.514 115.001 232.693 116.099 232.693 117.306ZM229.808 117.306C229.808 115.565 229.411 114.19 228.618 113.181C227.845 112.152 226.784 111.637 225.435 111.637C224.087 111.637 223.016 112.152 222.223 113.181C221.45 114.19 221.063 115.565 221.063 117.306C221.063 119.048 221.45 120.433 222.223 121.462C223.016 122.471 224.087 122.975 225.435 122.975C226.784 122.975 227.845 122.471 228.618 121.462C229.411 120.433 229.808 119.048 229.808 117.306Z" fill="white"/>
<path d="M240.183 123.035C241.313 123.035 242.146 122.886 242.681 122.59C243.237 122.293 243.514 121.818 243.514 121.165C243.514 120.492 243.247 119.958 242.711 119.562C242.176 119.166 241.293 118.721 240.064 118.227C239.469 117.989 238.894 117.752 238.339 117.514C237.804 117.257 237.338 116.96 236.941 116.624C236.545 116.287 236.227 115.882 235.989 115.407C235.751 114.932 235.632 114.348 235.632 113.656C235.632 112.29 236.138 111.212 237.149 110.421C238.161 109.609 239.539 109.204 241.284 109.204C241.72 109.204 242.156 109.233 242.592 109.293C243.028 109.332 243.435 109.392 243.812 109.471C244.188 109.53 244.516 109.599 244.793 109.679C245.091 109.758 245.319 109.827 245.477 109.886L244.972 112.261C244.674 112.102 244.208 111.944 243.574 111.786C242.939 111.608 242.176 111.519 241.284 111.519C240.51 111.519 239.836 111.677 239.261 111.994C238.686 112.29 238.399 112.765 238.399 113.418C238.399 113.755 238.458 114.051 238.577 114.309C238.716 114.566 238.914 114.803 239.172 115.021C239.449 115.219 239.786 115.407 240.183 115.585C240.58 115.763 241.056 115.951 241.611 116.149C242.344 116.426 242.999 116.703 243.574 116.98C244.149 117.237 244.635 117.544 245.031 117.9C245.448 118.256 245.765 118.692 245.983 119.206C246.201 119.701 246.31 120.314 246.31 121.046C246.31 122.471 245.775 123.549 244.704 124.281C243.653 125.013 242.146 125.38 240.183 125.38C238.815 125.38 237.744 125.261 236.971 125.023C236.198 124.806 235.672 124.637 235.395 124.519L235.9 122.144C236.217 122.263 236.723 122.441 237.417 122.679C238.111 122.916 239.033 123.035 240.183 123.035Z" fill="white"/>
<path d="M252.446 109.59H258.305V111.905H252.446V119.028C252.446 119.8 252.505 120.443 252.624 120.957C252.743 121.452 252.921 121.848 253.159 122.144C253.397 122.421 253.695 122.619 254.052 122.738C254.409 122.857 254.825 122.916 255.301 122.916C256.134 122.916 256.798 122.827 257.294 122.649C257.809 122.451 258.166 122.313 258.364 122.233L258.9 124.519C258.622 124.657 258.136 124.825 257.442 125.023C256.748 125.241 255.955 125.35 255.063 125.35C254.012 125.35 253.14 125.221 252.446 124.964C251.771 124.687 251.226 124.281 250.81 123.747C250.393 123.213 250.096 122.56 249.917 121.788C249.759 120.997 249.68 120.087 249.68 119.058V105.286L252.446 104.811V109.59Z" fill="white"/>
<path d="M264.591 125.023H261.825V109.59H264.591V125.023ZM263.193 106.8C262.697 106.8 262.271 106.641 261.914 106.325C261.577 105.988 261.408 105.543 261.408 104.989C261.408 104.435 261.577 104 261.914 103.683C262.271 103.347 262.697 103.179 263.193 103.179C263.689 103.179 264.105 103.347 264.442 103.683C264.799 104 264.977 104.435 264.977 104.989C264.977 105.543 264.799 105.988 264.442 106.325C264.105 106.641 263.689 106.8 263.193 106.8Z" fill="white"/>
<path d="M269.348 110.035C269.982 109.876 270.825 109.708 271.876 109.53C272.927 109.352 274.136 109.263 275.504 109.263C276.734 109.263 277.755 109.441 278.568 109.797C279.381 110.134 280.025 110.618 280.501 111.252C280.997 111.865 281.344 112.607 281.542 113.478C281.74 114.348 281.839 115.308 281.839 116.357V125.023H279.073V116.95C279.073 116.001 279.004 115.189 278.865 114.516C278.746 113.844 278.538 113.3 278.241 112.884C277.943 112.469 277.547 112.172 277.051 111.994C276.555 111.796 275.94 111.697 275.207 111.697C274.909 111.697 274.602 111.707 274.285 111.727C273.968 111.746 273.66 111.776 273.363 111.816C273.085 111.835 272.827 111.865 272.589 111.905C272.371 111.944 272.213 111.974 272.114 111.994V125.023H269.348V110.035Z" fill="white"/>
<path d="M296.122 123.48C295.884 123.638 295.418 123.846 294.724 124.103C294.05 124.341 293.257 124.459 292.345 124.459C291.413 124.459 290.531 124.311 289.698 124.014C288.885 123.717 288.171 123.262 287.556 122.649C286.942 122.016 286.456 121.234 286.099 120.304C285.742 119.374 285.564 118.266 285.564 116.98C285.564 115.852 285.732 114.823 286.069 113.893C286.406 112.943 286.892 112.132 287.527 111.459C288.181 110.767 288.974 110.233 289.906 109.857C290.838 109.461 291.889 109.263 293.059 109.263C294.348 109.263 295.468 109.362 296.42 109.56C297.391 109.738 298.204 109.906 298.859 110.064V123.836C298.859 126.211 298.244 127.932 297.015 129.001C295.785 130.069 293.921 130.603 291.423 130.603C290.451 130.603 289.529 130.524 288.657 130.366C287.804 130.208 287.061 130.02 286.426 129.802L286.932 127.398C287.487 127.615 288.161 127.803 288.954 127.962C289.767 128.14 290.61 128.229 291.483 128.229C293.128 128.229 294.308 127.902 295.022 127.249C295.756 126.596 296.122 125.558 296.122 124.133V123.48ZM296.093 112.023C295.815 111.944 295.438 111.875 294.962 111.816C294.506 111.736 293.882 111.697 293.089 111.697C291.601 111.697 290.451 112.182 289.638 113.151C288.845 114.121 288.449 115.407 288.449 117.01C288.449 117.9 288.558 118.662 288.776 119.295C289.014 119.928 289.321 120.453 289.698 120.868C290.095 121.284 290.541 121.59 291.036 121.788C291.552 121.986 292.077 122.085 292.613 122.085C293.346 122.085 294.021 121.986 294.635 121.788C295.25 121.571 295.736 121.323 296.093 121.046V112.023Z" fill="white"/>
<path d="M306.536 121.64C306.556 121.798 306.566 121.956 306.566 122.115C306.566 122.253 306.566 122.402 306.566 122.56C306.566 123.806 306.377 125.033 306.001 126.24C305.644 127.467 305.148 128.634 304.513 129.743L302.372 129.06C302.868 128.051 303.195 127.022 303.354 125.973C303.512 124.944 303.591 123.975 303.591 123.064C303.591 122.807 303.582 122.56 303.562 122.322C303.562 122.085 303.552 121.857 303.532 121.64H306.536Z" fill="white"/>
<path d="M317.17 114.724C317.17 112.963 317.428 111.41 317.943 110.064C318.479 108.719 319.193 107.601 320.085 106.711C320.997 105.8 322.048 105.118 323.238 104.663C324.447 104.208 325.726 103.98 327.074 103.98C328.403 103.98 329.652 104.208 330.822 104.663C332.012 105.118 333.053 105.8 333.945 106.711C334.837 107.601 335.541 108.719 336.057 110.064C336.592 111.41 336.86 112.963 336.86 114.724C336.86 116.485 336.592 118.039 336.057 119.384C335.541 120.73 334.837 121.857 333.945 122.768C333.053 123.658 332.012 124.331 330.822 124.786C329.652 125.241 328.403 125.469 327.074 125.469C325.726 125.469 324.447 125.241 323.238 124.786C322.048 124.331 320.997 123.658 320.085 122.768C319.193 121.857 318.479 120.73 317.943 119.384C317.428 118.039 317.17 116.485 317.17 114.724ZM320.204 114.724C320.204 115.971 320.362 117.109 320.68 118.137C320.997 119.147 321.443 120.007 322.018 120.72C322.613 121.432 323.327 121.986 324.16 122.382C325.012 122.758 325.964 122.946 327.015 122.946C328.066 122.946 329.008 122.758 329.84 122.382C330.673 121.986 331.377 121.432 331.952 120.72C332.547 120.007 333.003 119.147 333.32 118.137C333.638 117.109 333.796 115.971 333.796 114.724C333.796 113.478 333.638 112.35 333.32 111.341C333.003 110.312 332.547 109.441 331.952 108.729C331.377 108.016 330.673 107.472 329.84 107.096C329.008 106.701 328.066 106.503 327.015 106.503C325.964 106.503 325.012 106.701 324.16 107.096C323.327 107.472 322.613 108.016 322.018 108.729C321.443 109.441 320.997 110.312 320.68 111.341C320.362 112.35 320.204 113.478 320.204 114.724Z" fill="white"/>
<path d="M353.287 124.578C352.653 124.736 351.81 124.905 350.759 125.083C349.728 125.261 348.528 125.35 347.16 125.35C345.97 125.35 344.969 125.182 344.156 124.845C343.343 124.489 342.689 123.994 342.193 123.361C341.697 122.728 341.341 121.986 341.122 121.135C340.904 120.265 340.795 119.305 340.795 118.256V109.59H343.561V117.663C343.561 119.542 343.859 120.888 344.454 121.699C345.048 122.51 346.05 122.916 347.458 122.916C347.755 122.916 348.062 122.906 348.38 122.886C348.697 122.867 348.994 122.847 349.272 122.827C349.549 122.787 349.797 122.758 350.015 122.738C350.253 122.698 350.422 122.659 350.521 122.619V109.59H353.287V124.578Z" fill="white"/>
<path d="M363.763 109.263C364.001 109.263 364.269 109.283 364.566 109.322C364.883 109.342 365.191 109.382 365.488 109.441C365.786 109.481 366.053 109.53 366.291 109.59C366.549 109.629 366.737 109.669 366.856 109.708L366.38 112.112C366.162 112.033 365.795 111.944 365.28 111.845C364.784 111.727 364.14 111.667 363.347 111.667C362.831 111.667 362.316 111.727 361.8 111.845C361.304 111.944 360.977 112.013 360.819 112.053V125.023H358.052V110.243C358.707 110.005 359.52 109.787 360.491 109.59C361.463 109.372 362.553 109.263 363.763 109.263Z" fill="white"/>
<path d="M386.67 116.416C386.988 116.812 387.384 117.336 387.86 117.989C388.356 118.622 388.861 119.335 389.377 120.126C389.892 120.898 390.398 121.709 390.894 122.56C391.409 123.411 391.846 124.232 392.203 125.023H389.05C388.653 124.271 388.217 123.51 387.741 122.738C387.285 121.966 386.819 121.234 386.343 120.542C385.867 119.829 385.391 119.166 384.916 118.553C384.46 117.94 384.043 117.405 383.666 116.95C383.409 116.97 383.141 116.98 382.863 116.98C382.606 116.98 382.338 116.98 382.06 116.98H379.473V125.023H376.588V104.752C377.401 104.554 378.303 104.425 379.294 104.366C380.305 104.287 381.227 104.247 382.06 104.247C384.955 104.247 387.156 104.791 388.663 105.879C390.19 106.968 390.953 108.59 390.953 110.747C390.953 112.112 390.587 113.28 389.853 114.249C389.139 115.219 388.078 115.941 386.67 116.416ZM382.298 106.77C381.069 106.77 380.127 106.8 379.473 106.859V114.606H381.525C382.516 114.606 383.409 114.556 384.202 114.457C384.995 114.358 385.659 114.17 386.194 113.893C386.75 113.616 387.176 113.23 387.473 112.736C387.771 112.221 387.92 111.548 387.92 110.717C387.92 109.946 387.771 109.303 387.473 108.788C387.176 108.274 386.77 107.868 386.254 107.571C385.758 107.274 385.163 107.067 384.469 106.948C383.795 106.829 383.072 106.77 382.298 106.77Z" fill="white"/>
<path d="M394.252 117.336C394.252 115.971 394.45 114.784 394.847 113.774C395.243 112.746 395.769 111.895 396.423 111.222C397.078 110.549 397.831 110.045 398.684 109.708C399.536 109.372 400.409 109.204 401.301 109.204C403.383 109.204 404.979 109.857 406.089 111.163C407.2 112.449 407.755 114.418 407.755 117.069C407.755 117.188 407.755 117.346 407.755 117.544C407.755 117.722 407.745 117.89 407.725 118.048H397.137C397.256 119.651 397.722 120.868 398.535 121.699C399.348 122.53 400.617 122.946 402.342 122.946C403.314 122.946 404.126 122.867 404.781 122.708C405.455 122.53 405.961 122.362 406.298 122.204L406.684 124.519C406.347 124.697 405.752 124.885 404.9 125.083C404.067 125.281 403.115 125.38 402.045 125.38C400.696 125.38 399.526 125.182 398.535 124.786C397.563 124.37 396.76 123.806 396.126 123.094C395.491 122.382 395.015 121.541 394.698 120.571C394.401 119.582 394.252 118.504 394.252 117.336ZM404.87 115.822C404.89 114.576 404.573 113.557 403.918 112.765C403.284 111.954 402.401 111.548 401.271 111.548C400.637 111.548 400.072 111.677 399.576 111.934C399.1 112.172 398.694 112.488 398.356 112.884C398.019 113.28 397.752 113.735 397.553 114.249C397.375 114.764 397.256 115.288 397.196 115.822H404.87Z" fill="white"/>
<path d="M415.327 123.035C416.458 123.035 417.29 122.886 417.826 122.59C418.381 122.293 418.659 121.818 418.659 121.165C418.659 120.492 418.391 119.958 417.855 119.562C417.32 119.166 416.438 118.721 415.208 118.227C414.614 117.989 414.039 117.752 413.483 117.514C412.948 117.257 412.482 116.96 412.085 116.624C411.689 116.287 411.372 115.882 411.134 115.407C410.896 114.932 410.777 114.348 410.777 113.656C410.777 112.29 411.282 111.212 412.294 110.421C413.305 109.609 414.683 109.204 416.428 109.204C416.864 109.204 417.3 109.233 417.737 109.293C418.173 109.332 418.579 109.392 418.956 109.471C419.333 109.53 419.66 109.599 419.937 109.679C420.235 109.758 420.463 109.827 420.622 109.886L420.116 112.261C419.818 112.102 419.353 111.944 418.718 111.786C418.084 111.608 417.32 111.519 416.428 111.519C415.655 111.519 414.98 111.677 414.405 111.994C413.83 112.29 413.543 112.765 413.543 113.418C413.543 113.755 413.602 114.051 413.721 114.309C413.86 114.566 414.058 114.803 414.316 115.021C414.594 115.219 414.931 115.407 415.327 115.585C415.724 115.763 416.2 115.951 416.755 116.149C417.489 116.426 418.143 116.703 418.718 116.98C419.293 117.237 419.779 117.544 420.175 117.9C420.592 118.256 420.909 118.692 421.127 119.206C421.345 119.701 421.454 120.314 421.454 121.046C421.454 122.471 420.919 123.549 419.848 124.281C418.797 125.013 417.29 125.38 415.327 125.38C413.959 125.38 412.888 125.261 412.115 125.023C411.342 124.806 410.816 124.637 410.539 124.519L411.044 122.144C411.362 122.263 411.867 122.441 412.561 122.679C413.255 122.916 414.177 123.035 415.327 123.035Z" fill="white"/>
<path d="M435.739 117.336C435.739 115.536 435.293 114.15 434.401 113.181C433.509 112.211 432.319 111.727 430.832 111.727C429.999 111.727 429.345 111.756 428.869 111.816C428.413 111.875 428.046 111.944 427.768 112.023V121.758C428.105 122.036 428.591 122.303 429.226 122.56C429.86 122.817 430.554 122.946 431.308 122.946C432.101 122.946 432.775 122.807 433.33 122.53C433.905 122.233 434.371 121.838 434.728 121.343C435.085 120.829 435.343 120.235 435.501 119.562C435.66 118.87 435.739 118.128 435.739 117.336ZM438.624 117.336C438.624 118.504 438.466 119.582 438.149 120.571C437.851 121.561 437.405 122.411 436.81 123.124C436.215 123.836 435.482 124.39 434.609 124.786C433.757 125.182 432.775 125.38 431.665 125.38C430.772 125.38 429.979 125.261 429.285 125.023C428.611 124.786 428.105 124.558 427.768 124.341V130.514H425.002V110.064C425.657 109.906 426.47 109.738 427.441 109.56C428.433 109.362 429.573 109.263 430.862 109.263C432.051 109.263 433.122 109.451 434.074 109.827C435.026 110.203 435.839 110.737 436.513 111.43C437.187 112.122 437.702 112.973 438.059 113.982C438.436 114.972 438.624 116.09 438.624 117.336Z" fill="white"/>
<path d="M456.169 117.306C456.169 118.533 455.99 119.641 455.633 120.631C455.276 121.62 454.771 122.471 454.116 123.183C453.482 123.895 452.718 124.45 451.826 124.845C450.934 125.221 449.962 125.409 448.911 125.409C447.86 125.409 446.889 125.221 445.997 124.845C445.104 124.45 444.331 123.895 443.677 123.183C443.042 122.471 442.546 121.62 442.19 120.631C441.833 119.641 441.654 118.533 441.654 117.306C441.654 116.099 441.833 115.001 442.19 114.012C442.546 113.003 443.042 112.142 443.677 111.43C444.331 110.717 445.104 110.173 445.997 109.797C446.889 109.402 447.86 109.204 448.911 109.204C449.962 109.204 450.934 109.402 451.826 109.797C452.718 110.173 453.482 110.717 454.116 111.43C454.771 112.142 455.276 113.003 455.633 114.012C455.99 115.001 456.169 116.099 456.169 117.306ZM453.284 117.306C453.284 115.565 452.887 114.19 452.094 113.181C451.321 112.152 450.26 111.637 448.911 111.637C447.563 111.637 446.492 112.152 445.699 113.181C444.926 114.19 444.539 115.565 444.539 117.306C444.539 119.048 444.926 120.433 445.699 121.462C446.492 122.471 447.563 122.975 448.911 122.975C450.26 122.975 451.321 122.471 452.094 121.462C452.887 120.433 453.284 119.048 453.284 117.306Z" fill="white"/>
<path d="M460.06 110.035C460.695 109.876 461.537 109.708 462.588 109.53C463.639 109.352 464.849 109.263 466.217 109.263C467.446 109.263 468.467 109.441 469.28 109.797C470.093 110.134 470.738 110.618 471.214 111.252C471.709 111.865 472.056 112.607 472.255 113.478C472.453 114.348 472.552 115.308 472.552 116.357V125.023H469.786V116.95C469.786 116.001 469.717 115.189 469.578 114.516C469.459 113.844 469.251 113.3 468.953 112.884C468.656 112.469 468.259 112.172 467.764 111.994C467.268 111.796 466.653 111.697 465.919 111.697C465.622 111.697 465.315 111.707 464.997 111.727C464.68 111.746 464.373 111.776 464.075 111.816C463.798 111.835 463.54 111.865 463.302 111.905C463.084 111.944 462.925 111.974 462.826 111.994V125.023H460.06V110.035Z" fill="white"/>
<path d="M480.738 123.035C481.868 123.035 482.701 122.886 483.236 122.59C483.791 122.293 484.069 121.818 484.069 121.165C484.069 120.492 483.801 119.958 483.266 119.562C482.731 119.166 481.848 118.721 480.619 118.227C480.024 117.989 479.449 117.752 478.894 117.514C478.358 117.257 477.892 116.96 477.496 116.624C477.099 116.287 476.782 115.882 476.544 115.407C476.306 114.932 476.187 114.348 476.187 113.656C476.187 112.29 476.693 111.212 477.704 110.421C478.715 109.609 480.093 109.204 481.838 109.204C482.274 109.204 482.711 109.233 483.147 109.293C483.583 109.332 483.99 109.392 484.366 109.471C484.743 109.53 485.07 109.599 485.348 109.679C485.645 109.758 485.873 109.827 486.032 109.886L485.526 112.261C485.229 112.102 484.763 111.944 484.128 111.786C483.494 111.608 482.731 111.519 481.838 111.519C481.065 111.519 480.391 111.677 479.816 111.994C479.241 112.29 478.953 112.765 478.953 113.418C478.953 113.755 479.013 114.051 479.132 114.309C479.27 114.566 479.469 114.803 479.727 115.021C480.004 115.219 480.341 115.407 480.738 115.585C481.134 115.763 481.61 115.951 482.165 116.149C482.899 116.426 483.553 116.703 484.128 116.98C484.703 117.237 485.189 117.544 485.586 117.9C486.002 118.256 486.319 118.692 486.538 119.206C486.756 119.701 486.865 120.314 486.865 121.046C486.865 122.471 486.329 123.549 485.259 124.281C484.208 125.013 482.701 125.38 480.738 125.38C479.37 125.38 478.299 125.261 477.526 125.023C476.752 124.806 476.227 124.637 475.949 124.519L476.455 122.144C476.772 122.263 477.278 122.441 477.972 122.679C478.666 122.916 479.588 123.035 480.738 123.035Z" fill="white"/>
<path d="M493.179 125.023H490.413V109.59H493.179V125.023ZM491.781 106.8C491.285 106.8 490.859 106.641 490.502 106.325C490.165 105.988 489.996 105.543 489.996 104.989C489.996 104.435 490.165 104 490.502 103.683C490.859 103.347 491.285 103.179 491.781 103.179C492.277 103.179 492.693 103.347 493.03 103.683C493.387 104 493.565 104.435 493.565 104.989C493.565 105.543 493.387 105.988 493.03 106.325C492.693 106.641 492.277 106.8 491.781 106.8Z" fill="white"/>
<path d="M500.702 110.272C501.039 110.055 501.544 109.827 502.218 109.59C502.912 109.352 503.706 109.233 504.598 109.233C505.708 109.233 506.69 109.431 507.542 109.827C508.415 110.223 509.148 110.777 509.743 111.489C510.338 112.201 510.784 113.052 511.082 114.042C511.399 115.031 511.558 116.119 511.558 117.306C511.558 118.553 511.369 119.681 510.992 120.69C510.636 121.679 510.12 122.52 509.446 123.213C508.772 123.905 507.959 124.44 507.007 124.816C506.055 125.192 504.985 125.38 503.795 125.38C502.506 125.38 501.366 125.29 500.374 125.112C499.383 124.934 498.57 124.756 497.936 124.578V102.466L500.702 101.991V110.272ZM500.702 122.619C500.979 122.698 501.366 122.778 501.862 122.857C502.377 122.916 503.012 122.946 503.765 122.946C505.252 122.946 506.442 122.461 507.334 121.491C508.226 120.502 508.673 119.107 508.673 117.306C508.673 116.515 508.593 115.773 508.435 115.08C508.276 114.388 508.018 113.794 507.661 113.3C507.304 112.785 506.838 112.389 506.263 112.112C505.708 111.816 505.034 111.667 504.241 111.667C503.487 111.667 502.793 111.796 502.159 112.053C501.524 112.31 501.039 112.577 500.702 112.854V122.619Z" fill="white"/>
<path d="M518.216 125.023H515.45V109.59H518.216V125.023ZM516.818 106.8C516.322 106.8 515.896 106.641 515.539 106.325C515.202 105.988 515.034 105.543 515.034 104.989C515.034 104.435 515.202 104 515.539 103.683C515.896 103.347 516.322 103.179 516.818 103.179C517.314 103.179 517.73 103.347 518.067 103.683C518.424 104 518.603 104.435 518.603 104.989C518.603 105.543 518.424 105.988 518.067 106.325C517.73 106.641 517.314 106.8 516.818 106.8Z" fill="white"/>
<path d="M527.613 125.32C525.907 125.281 524.698 124.915 523.984 124.222C523.27 123.529 522.913 122.451 522.913 120.987V102.466L525.679 101.991V120.542C525.679 120.997 525.719 121.373 525.798 121.669C525.878 121.966 526.006 122.204 526.185 122.382C526.363 122.56 526.601 122.698 526.899 122.797C527.196 122.876 527.563 122.946 527.999 123.005L527.613 125.32Z" fill="white"/>
<path d="M533.872 125.023H531.105V109.59H533.872V125.023ZM532.474 106.8C531.978 106.8 531.552 106.641 531.195 106.325C530.858 105.988 530.689 105.543 530.689 104.989C530.689 104.435 530.858 104 531.195 103.683C531.552 103.347 531.978 103.179 532.474 103.179C532.969 103.179 533.386 103.347 533.723 103.683C534.08 104 534.258 104.435 534.258 104.989C534.258 105.543 534.08 105.988 533.723 106.325C533.386 106.641 532.969 106.8 532.474 106.8Z" fill="white"/>
<path d="M541.216 109.59H547.075V111.905H541.216V119.028C541.216 119.8 541.275 120.443 541.394 120.957C541.513 121.452 541.692 121.848 541.93 122.144C542.168 122.421 542.465 122.619 542.822 122.738C543.179 122.857 543.595 122.916 544.071 122.916C544.904 122.916 545.568 122.827 546.064 122.649C546.579 122.451 546.936 122.313 547.135 122.233L547.67 124.519C547.392 124.657 546.907 124.825 546.213 125.023C545.519 125.241 544.725 125.35 543.833 125.35C542.782 125.35 541.91 125.221 541.216 124.964C540.542 124.687 539.996 124.281 539.58 123.747C539.164 123.213 538.866 122.56 538.688 121.788C538.529 120.997 538.45 120.087 538.45 119.058V105.286L541.216 104.811V109.59Z" fill="white"/>
<path d="M548.781 127.902C548.999 128.001 549.276 128.09 549.613 128.169C549.97 128.268 550.317 128.318 550.654 128.318C551.745 128.318 552.598 128.071 553.212 127.576C553.827 127.101 554.382 126.319 554.878 125.231C553.629 122.857 552.459 120.344 551.368 117.692C550.298 115.021 549.405 112.32 548.691 109.59H551.666C551.884 110.48 552.142 111.44 552.439 112.469C552.756 113.497 553.103 114.556 553.48 115.644C553.857 116.733 554.263 117.821 554.699 118.909C555.136 119.997 555.592 121.046 556.068 122.055C556.821 119.978 557.475 117.92 558.031 115.882C558.586 113.844 559.111 111.746 559.607 109.59H562.462C561.748 112.498 560.955 115.298 560.083 117.989C559.21 120.66 558.269 123.163 557.257 125.498C556.861 126.389 556.444 127.15 556.008 127.784C555.592 128.437 555.126 128.971 554.61 129.386C554.095 129.802 553.51 130.109 552.855 130.306C552.221 130.504 551.497 130.603 550.684 130.603C550.466 130.603 550.238 130.583 550 130.544C549.762 130.524 549.524 130.485 549.286 130.425C549.068 130.386 548.86 130.336 548.662 130.277C548.483 130.217 548.354 130.168 548.275 130.128L548.781 127.902Z" fill="white"/>
<path d="M567.84 123.421C567.84 123.955 567.661 124.42 567.304 124.816C566.948 125.211 566.462 125.409 565.847 125.409C565.232 125.409 564.747 125.211 564.39 124.816C564.033 124.42 563.854 123.955 563.854 123.421C563.854 122.886 564.033 122.421 564.39 122.026C564.747 121.63 565.232 121.432 565.847 121.432C566.462 121.432 566.948 121.63 567.304 122.026C567.661 122.421 567.84 122.886 567.84 123.421Z" fill="white"/>
<path d="M543.834 81.8414C540.433 81.8414 537.38 81.1821 534.673 79.8635C532.036 78.4756 529.781 76.6018 527.907 74.2423C526.103 71.8828 524.715 69.1762 523.743 66.1227C522.841 62.9998 522.39 59.6687 522.39 56.1294C522.459 52.5901 522.98 49.2937 523.951 46.2402C524.923 43.1172 526.311 40.4107 528.115 38.1206C529.989 35.761 532.244 33.922 534.881 32.6034C537.519 31.2849 540.503 30.6256 543.834 30.6256C547.026 30.6256 550.01 31.2849 552.786 32.6034C555.631 33.922 558.13 35.761 560.281 38.1206C562.502 40.4107 564.237 43.1172 565.486 46.2402C566.735 49.2937 567.36 52.5554 567.36 56.0253C567.36 59.634 566.735 63.0345 565.486 66.2268C564.237 69.3497 562.537 72.0909 560.385 74.4505C558.234 76.7406 555.736 78.545 552.89 79.8635C550.045 81.1821 547.026 81.8414 543.834 81.8414ZM542.168 69.662C544.597 69.662 546.783 69.1068 548.726 67.9965C550.67 66.8167 552.196 65.2205 553.307 63.208C554.486 61.1954 555.076 58.9053 555.076 56.3376C555.076 53.7005 554.486 51.3756 553.307 49.3631C552.196 47.2811 550.67 45.685 548.726 44.5746C546.783 43.3948 544.597 42.8049 542.168 42.8049C539.809 42.8049 537.657 43.3948 535.714 44.5746C533.771 45.7544 532.21 47.3505 531.03 49.3631C529.92 51.3756 529.364 53.7005 529.364 56.3376C529.364 58.9053 529.92 61.1954 531.03 63.208C532.21 65.2205 533.771 66.8167 535.714 67.9965C537.657 69.1068 539.809 69.662 542.168 69.662ZM522.91 81.9455C521.037 81.9455 519.649 81.6332 518.746 81.0086C517.844 80.4534 517.289 79.7247 517.081 78.8226C516.873 77.851 516.769 76.7753 516.769 75.5956V13.5537C516.769 12.3739 516.873 11.3329 517.081 10.4307C517.289 9.45917 517.844 8.69579 518.746 8.1406C519.649 7.58542 521.037 7.30783 522.91 7.30783C524.853 7.30783 526.241 7.58542 527.074 8.1406C527.907 8.69579 528.427 9.45917 528.636 10.4307C528.844 11.4023 528.948 12.4433 528.948 13.5537V77.6775C528.67 79.2042 528.08 80.2799 527.178 80.9045C526.346 81.5985 524.923 81.9455 522.91 81.9455Z" fill="white" stroke="white" stroke-width="0.4"/>
<path d="M485.742 82.5715C481.231 82.5715 477.275 81.8428 473.875 80.3855C470.544 78.9281 467.733 76.9503 465.443 74.4519C463.222 71.8842 461.522 69.0389 460.342 65.916C459.232 62.7237 458.677 59.4273 458.677 56.0268C458.677 51.0301 459.822 46.5886 462.112 42.7023C464.402 38.816 467.56 35.7625 471.585 33.5418C475.679 31.321 480.364 30.2107 485.638 30.2107C489.385 30.2107 492.682 30.8006 495.527 31.9803C498.373 33.1601 500.732 34.7215 502.606 36.6647C504.549 38.5384 506.006 40.6204 506.978 42.9105C508.019 45.2007 508.539 47.4214 508.539 49.5727C508.539 53.2508 507.637 55.9227 505.833 57.5882C504.098 59.2538 501.912 60.0865 499.275 60.0865H471.793C471.862 62.4461 472.591 64.4933 473.979 66.2283C475.436 67.9632 477.241 69.3165 479.392 70.2881C481.613 71.1902 483.868 71.6413 486.158 71.6413C487.893 71.6413 489.42 71.5372 490.739 71.329C492.127 71.1208 493.306 70.8779 494.278 70.6003C495.25 70.2534 496.082 69.9064 496.776 69.5594C497.54 69.2124 498.234 68.9001 498.858 68.6225C499.483 68.3449 500.073 68.1714 500.628 68.102C501.391 68.0326 502.155 68.2061 502.918 68.6225C503.681 69.0389 504.306 69.7676 504.792 70.8085C505.208 71.5025 505.486 72.1618 505.625 72.7864C505.833 73.3416 505.937 73.8968 505.937 74.4519C505.937 75.8399 505.104 77.1585 503.439 78.4076C501.773 79.5874 499.413 80.559 496.36 81.3224C493.376 82.1551 489.837 82.5715 485.742 82.5715ZM471.793 52.6956H493.133C494.313 52.6956 495.215 52.5221 495.839 52.1752C496.464 51.7588 496.776 50.926 496.776 49.6768C496.776 48.0807 496.291 46.658 495.319 45.4088C494.347 44.0903 493.029 43.084 491.363 42.39C489.698 41.6267 487.755 41.245 485.534 41.245C482.966 41.245 480.641 41.7654 478.559 42.8064C476.477 43.778 474.812 45.1313 473.563 46.8662C472.383 48.6012 471.793 50.5443 471.793 52.6956Z" fill="white" stroke="white" stroke-width="0.4"/>
<path d="M392.611 81.6371C391.223 81.6371 390.113 81.3943 389.28 80.9085C388.447 80.3533 387.823 79.7287 387.406 79.0347C387.059 78.3407 386.816 77.7509 386.678 77.2651L366.274 17.5133C365.58 15.2926 365.476 13.627 365.962 12.5167C366.448 11.3369 367.871 10.3653 370.23 9.60195C371.826 9.04677 373.11 8.80387 374.082 8.87327C375.053 8.94267 375.851 9.35906 376.476 10.1224C377.17 10.8164 377.76 11.9268 378.246 13.4535L393.236 58.8399L406.664 13.8699C406.872 13.1759 407.15 12.482 407.497 11.788C407.913 11.0246 408.538 10.4 409.371 9.91424C410.203 9.42846 411.349 9.18557 412.806 9.18557C414.471 9.18557 415.721 9.46316 416.553 10.0183C417.386 10.5735 417.976 11.1981 418.323 11.8921C418.739 12.5167 419.017 13.1066 419.156 13.6617L432.584 59.1522L447.678 13.5576C448.164 11.9615 448.719 10.7817 449.344 10.0183C450.038 9.25496 450.905 8.83858 451.946 8.76918C452.987 8.63038 454.271 8.83857 455.798 9.39376C457.394 9.94895 458.539 10.5735 459.233 11.2675C459.927 11.8921 460.274 12.7249 460.274 13.7658C460.274 14.7374 460.031 15.9866 459.546 17.5133L439.247 77.3692C439.108 77.7856 438.83 78.3407 438.414 79.0347C438.067 79.7287 437.477 80.3533 436.644 80.9085C435.811 81.3943 434.666 81.6371 433.209 81.6371C431.752 81.6371 430.607 81.3249 429.774 80.7003C428.941 80.0757 428.316 79.3817 427.9 78.6183C427.484 77.855 427.206 77.2998 427.067 76.9528L412.91 31.1501L398.753 76.8487C398.614 77.3345 398.336 77.9591 397.92 78.7224C397.573 79.4858 396.983 80.1798 396.15 80.8044C395.318 81.3596 394.138 81.6371 392.611 81.6371Z" fill="white" stroke="white" stroke-width="0.4"/>
<path d="M338.483 82.5724C336.679 82.5724 334.77 82.3642 332.758 81.9478C330.745 81.6008 328.802 81.0803 326.928 80.3864C325.054 79.623 323.424 78.7555 322.036 77.7839C320.717 76.743 319.884 75.5979 319.537 74.3487C319.26 73.6547 319.156 72.9955 319.225 72.3709C319.294 71.6769 319.503 70.9829 319.85 70.2889C320.196 69.5256 320.717 68.7622 321.411 67.9988C322.036 67.2354 322.66 66.819 323.285 66.7496C323.979 66.6108 324.846 66.819 325.887 67.3742C326.789 67.7212 327.761 68.1723 328.802 68.7275C329.912 69.2827 331.023 69.8379 332.133 70.393C333.313 70.9482 334.493 71.3993 335.672 71.7463C336.921 72.0933 338.136 72.2668 339.316 72.2668C341.883 72.2668 343.931 71.8504 345.457 71.0176C346.984 70.1154 347.748 68.8663 347.748 67.2701C347.748 66.3679 347.505 65.5699 347.019 64.8759C346.533 64.1819 345.874 63.6267 345.041 63.2103C344.278 62.7246 343.341 62.3082 342.23 61.9612C341.189 61.5448 340.044 61.1978 338.795 60.9202C337.615 60.5732 336.366 60.1915 335.048 59.7751C333.313 59.2893 331.578 58.6995 329.843 58.0055C328.108 57.3115 326.546 56.4093 325.158 55.299C323.84 54.1886 322.764 52.8006 321.931 51.1351C321.099 49.4695 320.682 47.3876 320.682 44.8892C320.682 41.7663 321.411 39.1292 322.868 36.9779C324.395 34.7571 326.581 33.0569 329.426 31.8771C332.272 30.6973 335.707 30.1075 339.732 30.1075C341.12 30.1075 342.439 30.2116 343.688 30.4197C345.006 30.6279 346.255 30.9402 347.435 31.3566C348.684 31.7036 349.864 32.1547 350.975 32.7099C352.154 33.2651 353.265 33.8897 354.306 34.5836C356.041 35.5552 356.943 36.7003 357.012 38.0188C357.082 39.268 356.596 40.6213 355.555 42.0786C354.791 43.0502 354.028 43.7442 353.265 44.1606C352.501 44.5076 351.703 44.5076 350.87 44.1606C349.76 43.6054 348.546 43.0155 347.227 42.3909C345.978 41.6969 344.659 41.107 343.271 40.6213C341.953 40.1355 340.565 39.8926 339.107 39.8926C337.72 39.8926 336.47 40.1008 335.36 40.5172C334.25 40.9336 333.417 41.5234 332.862 42.2868C332.306 43.0502 332.029 43.9524 332.029 44.9933C332.029 45.9649 332.306 46.763 332.862 47.3876C333.417 48.0122 334.146 48.5326 335.048 48.949C335.95 49.3654 337.026 49.7471 338.275 50.0941C339.524 50.3717 340.842 50.6493 342.23 50.9269C344.174 51.3433 346.151 51.8637 348.164 52.4883C350.176 53.1129 352.016 53.9804 353.681 55.0908C355.416 56.2011 356.804 57.6932 357.845 59.5669C358.886 61.3713 359.406 63.7308 359.406 66.6455C359.406 71.7116 357.533 75.6326 353.785 78.4085C350.107 81.1844 345.006 82.5724 338.483 82.5724Z" fill="white" stroke="white" stroke-width="0.4"/>
<path d="M289.343 82.5709C284.832 82.5709 280.876 81.8422 277.476 80.3848C274.144 78.9275 271.334 76.9496 269.044 74.4513C266.823 71.8836 265.123 69.0382 263.943 65.9153C262.833 62.723 262.277 59.4266 262.277 56.0261C262.277 51.0294 263.422 46.588 265.713 42.7017C268.003 38.8154 271.16 35.7619 275.185 33.5411C279.28 31.3204 283.964 30.21 289.239 30.21C292.986 30.21 296.282 30.7999 299.128 31.9797C301.973 33.1594 304.333 34.7209 306.206 36.664C308.15 38.5378 309.607 40.6197 310.578 42.9099C311.619 45.2 312.14 47.4207 312.14 49.5721C312.14 53.2502 311.238 55.922 309.433 57.5876C307.698 59.2531 305.512 60.0859 302.875 60.0859H275.394C275.463 62.4454 276.192 64.4927 277.58 66.2276C279.037 67.9626 280.841 69.3158 282.993 70.2874C285.213 71.1896 287.469 71.6407 289.759 71.6407C291.494 71.6407 293.021 71.5366 294.339 71.3284C295.727 71.1202 296.907 70.8773 297.879 70.5997C298.85 70.2527 299.683 69.9057 300.377 69.5587C301.14 69.2117 301.834 68.8994 302.459 68.6218C303.083 68.3443 303.673 68.1708 304.229 68.1014C304.992 68.032 305.755 68.2055 306.519 68.6218C307.282 69.0382 307.907 69.7669 308.392 70.8079C308.809 71.5019 309.086 72.1612 309.225 72.7857C309.433 73.3409 309.537 73.8961 309.537 74.4513C309.537 75.8393 308.705 77.1578 307.039 78.407C305.374 79.5867 303.014 80.5583 299.961 81.3217C296.976 82.1545 293.437 82.5709 289.343 82.5709ZM275.394 52.695H296.734C297.913 52.695 298.815 52.5215 299.44 52.1745C300.065 51.7581 300.377 50.9253 300.377 49.6762C300.377 48.08 299.891 46.6574 298.92 45.4082C297.948 44.0896 296.629 43.0834 294.964 42.3894C293.298 41.626 291.355 41.2443 289.134 41.2443C286.567 41.2443 284.242 41.7648 282.16 42.8058C280.078 43.7773 278.412 45.1306 277.163 46.8656C275.983 48.6005 275.394 50.5436 275.394 52.695Z" fill="white" stroke="white" stroke-width="0.4"/>
<path d="M252.179 81.9499C249.612 81.9499 247.321 81.7764 245.309 81.4294C243.366 81.0825 241.665 80.4926 240.208 79.6598C238.82 78.827 237.675 77.7166 236.773 76.3287C235.871 74.8713 235.177 73.1017 234.691 71.0197C234.275 68.9378 234.066 66.4395 234.066 63.5247V13.3499C234.066 12.1702 234.171 11.1292 234.379 10.227C234.656 9.25544 235.211 8.49206 236.044 7.93687C236.946 7.31229 238.369 7 240.312 7C242.255 7 243.643 7.27759 244.476 7.83278C245.378 8.38796 245.933 9.15134 246.142 10.1229C246.419 11.0251 246.558 12.0661 246.558 13.2458V63.0043C246.558 64.3228 246.627 65.4332 246.766 66.3354C246.974 67.1681 247.287 67.8621 247.703 68.4173C248.189 68.9031 248.779 69.2501 249.473 69.4583C250.236 69.6665 251.138 69.7706 252.179 69.7706C253.081 69.7706 253.88 69.8747 254.574 70.0829C255.337 70.2911 255.927 70.8115 256.343 71.6443C256.829 72.4771 257.072 73.8304 257.072 75.7041C257.072 77.6472 256.829 79.0699 256.343 79.9721C255.927 80.8743 255.337 81.4294 254.574 81.6376C253.81 81.8458 253.012 81.9499 252.179 81.9499Z" fill="white" stroke="white" stroke-width="0.4"/>
<path d="M216.638 81.9485C214.764 81.9485 213.376 81.6362 212.474 81.0117C211.572 80.4565 211.017 79.7278 210.809 78.8256C210.601 77.854 210.496 76.7784 210.496 75.5986V36.8745C210.496 35.7641 210.601 34.7578 210.809 33.8556C211.086 32.8841 211.642 32.1207 212.474 31.5655C213.376 31.0103 214.799 30.7327 216.742 30.7327C218.685 30.7327 220.073 31.0103 220.906 31.5655C221.808 32.1207 222.364 32.8841 222.572 33.8556C222.78 34.8272 222.884 35.9029 222.884 37.0827V75.7027C222.884 76.8825 222.78 77.9581 222.572 78.9297C222.364 79.8319 221.808 80.5606 220.906 81.1157C220.073 81.6709 218.651 81.9485 216.638 81.9485ZM216.638 20.6353C214.626 20.6353 213.134 20.3577 212.162 19.8025C211.26 19.178 210.67 18.3452 210.392 17.3042C210.184 16.2632 210.08 15.1182 210.08 13.869C210.08 12.5504 210.184 11.4054 210.392 10.4338C210.67 9.46222 211.295 8.69884 212.266 8.14366C213.238 7.51908 214.73 7.20679 216.742 7.20679C218.824 7.20679 220.316 7.51908 221.218 8.14366C222.121 8.76824 222.711 9.60102 222.988 10.642C223.266 11.6136 223.405 12.7586 223.405 14.0772C223.405 15.257 223.266 16.3673 222.988 17.4083C222.711 18.4493 222.121 19.2474 221.218 19.8025C220.316 20.3577 218.79 20.6353 216.638 20.6353Z" fill="white" stroke="white" stroke-width="0.4"/>
<path d="M131.142 81.8435C129.337 81.8435 127.984 81.5659 127.082 81.0107C126.18 80.4555 125.59 79.6921 125.312 78.7206C125.104 77.749 125 76.6733 125 75.4936V15.4295C125 14.3192 125.104 13.3129 125.312 12.4107C125.59 11.4391 126.18 10.6758 127.082 10.1206C127.984 9.49599 129.407 9.1837 131.35 9.1837C132.807 9.1837 133.883 9.2878 134.577 9.49599C135.34 9.63479 135.93 9.87768 136.347 10.2247C136.763 10.5023 137.179 10.8839 137.596 11.3697L162.995 46.8668H160.601L186.105 11.2656C186.591 10.7105 187.077 10.2941 187.562 10.0165C188.048 9.73888 188.673 9.53069 189.436 9.39189C190.2 9.2531 191.206 9.1837 192.455 9.1837C194.329 9.1837 195.717 9.49599 196.619 10.1206C197.521 10.6758 198.076 11.4391 198.284 12.4107C198.562 13.3823 198.701 14.458 198.701 15.6377V75.7017C198.701 76.7427 198.562 77.749 198.284 78.7206C198.076 79.6921 197.521 80.4555 196.619 81.0107C195.717 81.5659 194.294 81.8435 192.351 81.8435C190.477 81.8435 189.089 81.5312 188.187 80.9066C187.285 80.3514 186.695 79.588 186.417 78.6165C186.209 77.6449 186.105 76.6039 186.105 75.4936V30.8359L167.159 58.2134C166.951 58.491 166.639 58.8727 166.222 59.3585C165.806 59.7749 165.251 60.1566 164.557 60.5036C163.863 60.8506 162.926 61.0241 161.746 61.0241C160.636 61.0241 159.734 60.8506 159.04 60.5036C158.346 60.1566 157.791 59.7749 157.374 59.3585C157.027 58.9421 156.68 58.5257 156.333 58.1093L137.492 30.8359V75.7017C137.492 76.7427 137.353 77.749 137.075 78.7206C136.867 79.6921 136.312 80.4555 135.41 81.0107C134.508 81.5659 133.085 81.8435 131.142 81.8435Z" fill="white" stroke="white" stroke-width="0.4"/>
</svg>
