<svg width="93" height="43" viewBox="0 0 93 43" fill="none" xmlns="http://www.w3.org/2000/svg">
<path d="M42.4741 35.8974C42.4741 35.5175 42.7822 35.2094 43.1622 35.2094H90.6365C91.0165 35.2094 91.3246 35.5175 91.3246 35.8974V35.8974C91.3246 36.2774 91.0165 36.5855 90.6365 36.5855H43.1622C42.7822 36.5855 42.4741 36.2774 42.4741 35.8974V35.8974Z" fill="#FFBB00"/>
<path d="M3.78732 30.8238V29.1582C3.51115 28.7309 3.25099 28.3095 3.00683 27.8941C2.76268 27.4787 2.53254 27.0713 2.31641 26.6719H3.00083C3.15293 26.9994 3.32303 27.3329 3.51115 27.6724C3.69926 28.0079 3.89338 28.3314 4.09351 28.643C4.28963 28.3314 4.48175 28.0079 4.66987 27.6724C4.85798 27.3329 5.03009 26.9994 5.18619 26.6719H5.83459C5.61845 27.0713 5.38831 27.4787 5.14416 27.8941C4.90001 28.3055 4.64185 28.7229 4.36968 29.1462V30.8238H3.78732Z" fill="#27235C"/>
<path d="M8.8114 29.2661C8.8114 29.5137 8.77538 29.7374 8.70334 29.9371C8.63129 30.1368 8.52923 30.3085 8.39715 30.4523C8.26907 30.5961 8.11497 30.7079 7.93486 30.7878C7.75475 30.8637 7.55863 30.9017 7.3465 30.9017C7.13436 30.9017 6.93824 30.8637 6.75813 30.7878C6.57802 30.7079 6.42192 30.5961 6.28984 30.4523C6.16176 30.3085 6.0617 30.1368 5.98965 29.9371C5.91761 29.7374 5.88159 29.5137 5.88159 29.2661C5.88159 29.0224 5.91761 28.8008 5.98965 28.601C6.0617 28.3973 6.16176 28.2236 6.28984 28.0798C6.42192 27.936 6.57802 27.8262 6.75813 27.7503C6.93824 27.6704 7.13436 27.6305 7.3465 27.6305C7.55863 27.6305 7.75475 27.6704 7.93486 27.7503C8.11497 27.8262 8.26907 27.936 8.39715 28.0798C8.52923 28.2236 8.63129 28.3973 8.70334 28.601C8.77538 28.8008 8.8114 29.0224 8.8114 29.2661ZM8.22904 29.2661C8.22904 28.9146 8.14899 28.637 7.98889 28.4333C7.8328 28.2256 7.61866 28.1218 7.3465 28.1218C7.07433 28.1218 6.85819 28.2256 6.69809 28.4333C6.542 28.637 6.46395 28.9146 6.46395 29.2661C6.46395 29.6175 6.542 29.8971 6.69809 30.1048C6.85819 30.3085 7.07433 30.4104 7.3465 30.4104C7.61866 30.4104 7.8328 30.3085 7.98889 30.1048C8.14899 29.8971 8.22904 29.6175 8.22904 29.2661Z" fill="#27235C"/>
<path d="M12.0825 30.7339C11.9544 30.7659 11.7843 30.7998 11.5722 30.8358C11.364 30.8717 11.1219 30.8897 10.8457 30.8897C10.6056 30.8897 10.4035 30.8557 10.2394 30.7878C10.0753 30.7159 9.94317 30.6161 9.84311 30.4883C9.74304 30.3605 9.671 30.2107 9.62697 30.0389C9.58294 29.8632 9.56093 29.6695 9.56093 29.4578V27.7084H10.1193V29.338C10.1193 29.7174 10.1793 29.989 10.2994 30.1528C10.4195 30.3165 10.6216 30.3984 10.9058 30.3984C10.9658 30.3984 11.0278 30.3964 11.0919 30.3924C11.1559 30.3884 11.216 30.3844 11.272 30.3804C11.328 30.3724 11.3781 30.3664 11.4221 30.3624C11.4701 30.3545 11.5041 30.3465 11.5241 30.3385V27.7084H12.0825V30.7339Z" fill="#27235C"/>
<path d="M14.1971 27.6425C14.2451 27.6425 14.2992 27.6465 14.3592 27.6544C14.4233 27.6584 14.4853 27.6664 14.5453 27.6784C14.6054 27.6864 14.6594 27.6964 14.7074 27.7084C14.7595 27.7163 14.7975 27.7243 14.8215 27.7323L14.7254 28.2176C14.6814 28.2016 14.6074 28.1837 14.5033 28.1637C14.4032 28.1397 14.2732 28.1277 14.1131 28.1277C14.009 28.1277 13.9049 28.1397 13.8009 28.1637C13.7008 28.1837 13.6348 28.1976 13.6028 28.2056V30.8238H13.0444V27.8402C13.1765 27.7922 13.3406 27.7483 13.5367 27.7084C13.7328 27.6644 13.953 27.6425 14.1971 27.6425Z" fill="#27235C"/>
<path d="M19.4035 26.6719H19.9858V30.8238H19.4035V28.9066H17.3682V30.8238H16.7859V26.6719H17.3682V28.4033H19.4035V26.6719Z" fill="#27235C"/>
<path d="M23.7386 29.2661C23.7386 29.5137 23.7026 29.7374 23.6306 29.9371C23.5585 30.1368 23.4565 30.3085 23.3244 30.4523C23.1963 30.5961 23.0422 30.7079 22.8621 30.7878C22.682 30.8637 22.4859 30.9017 22.2737 30.9017C22.0616 30.9017 21.8655 30.8637 21.6854 30.7878C21.5052 30.7079 21.3491 30.5961 21.2171 30.4523C21.089 30.3085 20.9889 30.1368 20.9169 29.9371C20.8448 29.7374 20.8088 29.5137 20.8088 29.2661C20.8088 29.0224 20.8448 28.8008 20.9169 28.601C20.9889 28.3973 21.089 28.2236 21.2171 28.0798C21.3491 27.936 21.5052 27.8262 21.6854 27.7503C21.8655 27.6704 22.0616 27.6305 22.2737 27.6305C22.4859 27.6305 22.682 27.6704 22.8621 27.7503C23.0422 27.8262 23.1963 27.936 23.3244 28.0798C23.4565 28.2236 23.5585 28.3973 23.6306 28.601C23.7026 28.8008 23.7386 29.0224 23.7386 29.2661ZM23.1563 29.2661C23.1563 28.9146 23.0762 28.637 22.9161 28.4333C22.76 28.2256 22.5459 28.1218 22.2737 28.1218C22.0016 28.1218 21.7854 28.2256 21.6253 28.4333C21.4692 28.637 21.3912 28.9146 21.3912 29.2661C21.3912 29.6175 21.4692 29.8971 21.6253 30.1048C21.7854 30.3085 22.0016 30.4104 22.2737 30.4104C22.5459 30.4104 22.76 30.3085 22.9161 30.1048C23.0762 29.8971 23.1563 29.6175 23.1563 29.2661Z" fill="#27235C"/>
<path d="M25.2506 30.4224C25.4788 30.4224 25.6469 30.3924 25.7549 30.3325C25.867 30.2726 25.923 30.1767 25.923 30.0449C25.923 29.9091 25.869 29.8013 25.7609 29.7214C25.6529 29.6415 25.4748 29.5516 25.2266 29.4518C25.1065 29.4039 24.9905 29.3559 24.8784 29.308C24.7703 29.2561 24.6763 29.1962 24.5962 29.1283C24.5162 29.0604 24.4521 28.9785 24.4041 28.8826C24.3561 28.7868 24.3321 28.6689 24.3321 28.5292C24.3321 28.2536 24.4341 28.0359 24.6383 27.8761C24.8424 27.7124 25.1206 27.6305 25.4728 27.6305C25.5608 27.6305 25.6489 27.6365 25.7369 27.6484C25.825 27.6564 25.907 27.6684 25.9831 27.6844C26.0591 27.6964 26.1252 27.7104 26.1812 27.7263C26.2412 27.7423 26.2873 27.7563 26.3193 27.7683L26.2172 28.2476C26.1572 28.2156 26.0631 28.1837 25.9351 28.1517C25.807 28.1158 25.6529 28.0978 25.4728 28.0978C25.3167 28.0978 25.1806 28.1297 25.0645 28.1936C24.9484 28.2536 24.8904 28.3494 24.8904 28.4812C24.8904 28.5491 24.9024 28.609 24.9264 28.661C24.9544 28.7129 24.9945 28.7608 25.0465 28.8047C25.1025 28.8447 25.1706 28.8826 25.2506 28.9186C25.3307 28.9545 25.4267 28.9925 25.5388 29.0324C25.6869 29.0883 25.819 29.1442 25.9351 29.2002C26.0511 29.2521 26.1492 29.314 26.2292 29.3859C26.3133 29.4578 26.3773 29.5457 26.4214 29.6495C26.4654 29.7494 26.4874 29.8732 26.4874 30.021C26.4874 30.3085 26.3793 30.5262 26.1632 30.674C25.9511 30.8218 25.6469 30.8957 25.2506 30.8957C24.9745 30.8957 24.7583 30.8717 24.6022 30.8238C24.4461 30.7798 24.3401 30.7459 24.284 30.7219L24.3861 30.2426C24.4501 30.2666 24.5522 30.3025 24.6923 30.3505C24.8324 30.3984 25.0185 30.4224 25.2506 30.4224Z" fill="#27235C"/>
<path d="M27.7259 27.7084H28.9086V28.1757H27.7259V29.6136C27.7259 29.7693 27.7379 29.8991 27.7619 30.003C27.7859 30.1028 27.822 30.1827 27.87 30.2426C27.918 30.2985 27.9781 30.3385 28.0501 30.3624C28.1221 30.3864 28.2062 30.3984 28.3023 30.3984C28.4704 30.3984 28.6044 30.3804 28.7045 30.3445C28.8086 30.3045 28.8806 30.2766 28.9206 30.2606L29.0287 30.7219C28.9727 30.7499 28.8746 30.7838 28.7345 30.8238C28.5944 30.8677 28.4343 30.8897 28.2542 30.8897C28.0421 30.8897 27.866 30.8637 27.7259 30.8118C27.5898 30.7559 27.4797 30.674 27.3957 30.5661C27.3116 30.4583 27.2516 30.3265 27.2156 30.1707C27.1836 30.011 27.1676 29.8272 27.1676 29.6195V26.8396L27.7259 26.7438V27.7084Z" fill="#27235C"/>
<path d="M30.1775 30.8238H29.6191V27.7084H30.1775V30.8238ZM29.8953 27.1452C29.7952 27.1452 29.7092 27.1132 29.6372 27.0493C29.5691 26.9814 29.5351 26.8916 29.5351 26.7797C29.5351 26.6679 29.5691 26.58 29.6372 26.5161C29.7092 26.4482 29.7952 26.4143 29.8953 26.4143C29.9954 26.4143 30.0794 26.4482 30.1475 26.5161C30.2195 26.58 30.2555 26.6679 30.2555 26.7797C30.2555 26.8916 30.2195 26.9814 30.1475 27.0493C30.0794 27.1132 29.9954 27.1452 29.8953 27.1452Z" fill="#27235C"/>
<path d="M31.1377 27.7982C31.2657 27.7663 31.4358 27.7323 31.648 27.6964C31.8601 27.6604 32.1043 27.6425 32.3804 27.6425C32.6286 27.6425 32.8347 27.6784 32.9988 27.7503C33.1629 27.8182 33.293 27.9161 33.3891 28.0439C33.4891 28.1677 33.5592 28.3175 33.5992 28.4932C33.6392 28.6689 33.6592 28.8627 33.6592 29.0743V30.8238H33.1009V29.1942C33.1009 29.0025 33.0869 28.8387 33.0589 28.7029C33.0348 28.5671 32.9928 28.4573 32.9328 28.3734C32.8727 28.2895 32.7927 28.2296 32.6926 28.1936C32.5926 28.1537 32.4685 28.1337 32.3204 28.1337C32.2604 28.1337 32.1983 28.1357 32.1343 28.1397C32.0702 28.1437 32.0082 28.1497 31.9482 28.1577C31.8921 28.1617 31.8401 28.1677 31.7921 28.1757C31.748 28.1837 31.716 28.1897 31.696 28.1936V30.8238H31.1377V27.7982Z" fill="#27235C"/>
<path d="M36.5423 30.5122C36.4943 30.5442 36.4002 30.5861 36.2601 30.638C36.1241 30.686 35.964 30.7099 35.7798 30.7099C35.5917 30.7099 35.4136 30.68 35.2455 30.6201C35.0814 30.5602 34.9373 30.4683 34.8133 30.3445C34.6892 30.2167 34.5911 30.0589 34.5191 29.8712C34.447 29.6834 34.411 29.4598 34.411 29.2002C34.411 28.9725 34.445 28.7648 34.5131 28.5771C34.5811 28.3854 34.6792 28.2216 34.8072 28.0858C34.9393 27.946 35.0994 27.8382 35.2875 27.7623C35.4757 27.6824 35.6878 27.6425 35.9239 27.6425C36.1841 27.6425 36.4102 27.6624 36.6024 27.7024C36.7985 27.7383 36.9626 27.7723 37.0947 27.8042V30.5841C37.0947 31.0634 36.9706 31.4109 36.7224 31.6266C36.4743 31.8423 36.098 31.9501 35.5937 31.9501C35.3976 31.9501 35.2115 31.9341 35.0354 31.9022C34.8633 31.8702 34.7132 31.8323 34.5851 31.7883L34.6872 31.3031C34.7992 31.347 34.9353 31.3849 35.0954 31.4169C35.2595 31.4528 35.4296 31.4708 35.6057 31.4708C35.9379 31.4708 36.1761 31.4049 36.3202 31.2731C36.4683 31.1413 36.5423 30.9316 36.5423 30.644V30.5122ZM36.5363 28.1996C36.4803 28.1837 36.4042 28.1697 36.3082 28.1577C36.2161 28.1417 36.09 28.1337 35.9299 28.1337C35.6298 28.1337 35.3976 28.2316 35.2335 28.4273C35.0734 28.623 34.9934 28.8826 34.9934 29.2062C34.9934 29.3859 35.0154 29.5397 35.0594 29.6675C35.1074 29.7953 35.1695 29.9011 35.2455 29.985C35.3256 30.0689 35.4156 30.1308 35.5157 30.1707C35.6198 30.2107 35.7258 30.2306 35.8339 30.2306C35.982 30.2306 36.1181 30.2107 36.2421 30.1707C36.3662 30.1268 36.4643 30.0769 36.5363 30.021V28.1996Z" fill="#27235C"/>
<path d="M38.6444 30.1408C38.6484 30.1727 38.6504 30.2047 38.6504 30.2366C38.6504 30.2646 38.6504 30.2945 38.6504 30.3265C38.6504 30.5781 38.6124 30.8258 38.5363 31.0694C38.4643 31.317 38.3642 31.5527 38.2361 31.7764L37.8039 31.6386C37.9039 31.4349 37.97 31.2272 38.002 31.0155C38.034 30.8078 38.05 30.6121 38.05 30.4284C38.05 30.3764 38.048 30.3265 38.044 30.2786C38.044 30.2306 38.042 30.1847 38.038 30.1408H38.6444Z" fill="#27235C"/>
<path d="M40.7909 28.7448C40.7909 28.3894 40.843 28.0758 40.947 27.8042C41.0551 27.5326 41.1992 27.307 41.3793 27.1272C41.5634 26.9435 41.7756 26.8057 42.0157 26.7138C42.2599 26.622 42.518 26.576 42.7902 26.576C43.0583 26.576 43.3105 26.622 43.5467 26.7138C43.7868 26.8057 43.9969 26.9435 44.177 27.1272C44.3572 27.307 44.4992 27.5326 44.6033 27.8042C44.7114 28.0758 44.7654 28.3894 44.7654 28.7448C44.7654 29.1003 44.7114 29.4138 44.6033 29.6854C44.4992 29.957 44.3572 30.1847 44.177 30.3684C43.9969 30.5482 43.7868 30.684 43.5467 30.7758C43.3105 30.8677 43.0583 30.9136 42.7902 30.9136C42.518 30.9136 42.2599 30.8677 42.0157 30.7758C41.7756 30.684 41.5634 30.5482 41.3793 30.3684C41.1992 30.1847 41.0551 29.957 40.947 29.6854C40.843 29.4138 40.7909 29.1003 40.7909 28.7448ZM41.4033 28.7448C41.4033 28.9965 41.4353 29.2261 41.4994 29.4338C41.5634 29.6375 41.6535 29.8113 41.7696 29.955C41.8896 30.0988 42.0337 30.2107 42.2018 30.2906C42.3739 30.3664 42.566 30.4044 42.7782 30.4044C42.9903 30.4044 43.1804 30.3664 43.3485 30.2906C43.5166 30.2107 43.6587 30.0988 43.7748 29.955C43.8949 29.8113 43.9869 29.6375 44.051 29.4338C44.115 29.2261 44.147 28.9965 44.147 28.7448C44.147 28.4932 44.115 28.2655 44.051 28.0618C43.9869 27.8541 43.8949 27.6784 43.7748 27.5346C43.6587 27.3908 43.5166 27.281 43.3485 27.2051C43.1804 27.1252 42.9903 27.0853 42.7782 27.0853C42.566 27.0853 42.3739 27.1252 42.2018 27.2051C42.0337 27.281 41.8896 27.3908 41.7696 27.5346C41.6535 27.6784 41.5634 27.8541 41.4994 28.0618C41.4353 28.2655 41.4033 28.4932 41.4033 28.7448Z" fill="#27235C"/>
<path d="M48.0814 30.7339C47.9533 30.7659 47.7832 30.7998 47.5711 30.8358C47.3629 30.8717 47.1208 30.8897 46.8446 30.8897C46.6045 30.8897 46.4023 30.8557 46.2382 30.7878C46.0741 30.7159 45.9421 30.6161 45.842 30.4883C45.7419 30.3605 45.6699 30.2107 45.6259 30.0389C45.5818 29.8632 45.5598 29.6695 45.5598 29.4578V27.7084H46.1182V29.338C46.1182 29.7174 46.1782 29.989 46.2983 30.1528C46.4184 30.3165 46.6205 30.3984 46.9047 30.3984C46.9647 30.3984 47.0267 30.3964 47.0908 30.3924C47.1548 30.3884 47.2149 30.3844 47.2709 30.3804C47.3269 30.3724 47.377 30.3664 47.421 30.3624C47.469 30.3545 47.503 30.3465 47.523 30.3385V27.7084H48.0814V30.7339Z" fill="#27235C"/>
<path d="M50.196 27.6425C50.244 27.6425 50.2981 27.6465 50.3581 27.6544C50.4221 27.6584 50.4842 27.6664 50.5442 27.6784C50.6043 27.6864 50.6583 27.6964 50.7063 27.7084C50.7584 27.7163 50.7964 27.7243 50.8204 27.7323L50.7243 28.2176C50.6803 28.2016 50.6063 28.1837 50.5022 28.1637C50.4021 28.1397 50.2721 28.1277 50.112 28.1277C50.0079 28.1277 49.9038 28.1397 49.7998 28.1637C49.6997 28.1837 49.6337 28.1976 49.6016 28.2056V30.8238H49.0433V27.8402C49.1754 27.7922 49.3395 27.7483 49.5356 27.7084C49.7317 27.6644 49.9519 27.6425 50.196 27.6425Z" fill="#27235C"/>
<path d="M54.82 29.0863C54.884 29.1662 54.9641 29.2721 55.0602 29.4039C55.1602 29.5317 55.2623 29.6755 55.3663 29.8352C55.4704 29.991 55.5725 30.1548 55.6725 30.3265C55.7766 30.4982 55.8647 30.664 55.9367 30.8238H55.3003C55.2203 30.672 55.1322 30.5182 55.0361 30.3624C54.9441 30.2067 54.85 30.0589 54.754 29.9191C54.6579 29.7753 54.5618 29.6415 54.4658 29.5177C54.3737 29.3939 54.2897 29.286 54.2136 29.1942C54.1616 29.1982 54.1076 29.2002 54.0515 29.2002C53.9995 29.2002 53.9455 29.2002 53.8894 29.2002H53.3671V30.8238H52.7847V26.7318C52.9488 26.6919 53.131 26.6659 53.3311 26.6539C53.5352 26.6379 53.7213 26.63 53.8894 26.63C54.4738 26.63 54.9181 26.7398 55.2223 26.9595C55.5304 27.1791 55.6845 27.5067 55.6845 27.942C55.6845 28.2176 55.6105 28.4533 55.4624 28.649C55.3183 28.8447 55.1042 28.9905 54.82 29.0863ZM53.9375 27.1392C53.6893 27.1392 53.4992 27.1452 53.3671 27.1572V28.7209H53.7814C53.9815 28.7209 54.1616 28.7109 54.3217 28.6909C54.4818 28.6709 54.6159 28.633 54.7239 28.5771C54.836 28.5212 54.9221 28.4433 54.9821 28.3434C55.0421 28.2396 55.0722 28.1038 55.0722 27.936C55.0722 27.7803 55.0421 27.6504 54.9821 27.5466C54.9221 27.4428 54.84 27.3609 54.736 27.301C54.6359 27.241 54.5158 27.1991 54.3757 27.1751C54.2396 27.1512 54.0936 27.1392 53.9375 27.1392Z" fill="#27235C"/>
<path d="M56.3504 29.2721C56.3504 28.9965 56.3904 28.7568 56.4705 28.5531C56.5505 28.3454 56.6566 28.1737 56.7887 28.0379C56.9207 27.9021 57.0728 27.8002 57.2449 27.7323C57.4171 27.6644 57.5932 27.6305 57.7733 27.6305C58.1935 27.6305 58.5157 27.7623 58.7399 28.0259C58.964 28.2855 59.0761 28.6829 59.0761 29.2181C59.0761 29.2421 59.0761 29.2741 59.0761 29.314C59.0761 29.3499 59.0741 29.3839 59.0701 29.4158H56.9328C56.9568 29.7394 57.0508 29.985 57.2149 30.1528C57.379 30.3205 57.6352 30.4044 57.9834 30.4044C58.1795 30.4044 58.3436 30.3884 58.4757 30.3565C58.6118 30.3205 58.7139 30.2866 58.7819 30.2546L58.86 30.7219C58.7919 30.7579 58.6718 30.7958 58.4997 30.8358C58.3316 30.8757 58.1395 30.8957 57.9234 30.8957C57.6512 30.8957 57.4151 30.8557 57.2149 30.7758C57.0188 30.692 56.8567 30.5781 56.7286 30.4343C56.6005 30.2906 56.5045 30.1208 56.4404 29.9251C56.3804 29.7254 56.3504 29.5077 56.3504 29.2721ZM58.4937 28.9665C58.4977 28.7149 58.4337 28.5092 58.3016 28.3494C58.1735 28.1857 57.9954 28.1038 57.7673 28.1038C57.6392 28.1038 57.5251 28.1297 57.4251 28.1817C57.329 28.2296 57.247 28.2935 57.1789 28.3734C57.1109 28.4533 57.0568 28.5451 57.0168 28.649C56.9808 28.7528 56.9568 28.8587 56.9448 28.9665H58.4937Z" fill="#27235C"/>
<path d="M60.6046 30.4224C60.8327 30.4224 61.0008 30.3924 61.1089 30.3325C61.221 30.2726 61.277 30.1767 61.277 30.0449C61.277 29.9091 61.223 29.8013 61.1149 29.7214C61.0068 29.6415 60.8287 29.5516 60.5806 29.4518C60.4605 29.4039 60.3444 29.3559 60.2324 29.308C60.1243 29.2561 60.0302 29.1962 59.9502 29.1283C59.8701 29.0604 59.8061 28.9785 59.7581 28.8826C59.71 28.7868 59.686 28.6689 59.686 28.5292C59.686 28.2536 59.7881 28.0359 59.9922 27.8761C60.1963 27.7124 60.4745 27.6305 60.8267 27.6305C60.9148 27.6305 61.0028 27.6365 61.0909 27.6484C61.179 27.6564 61.261 27.6684 61.3371 27.6844C61.4131 27.6964 61.4791 27.7104 61.5352 27.7263C61.5952 27.7423 61.6412 27.7563 61.6733 27.7683L61.5712 28.2476C61.5112 28.2156 61.4171 28.1837 61.289 28.1517C61.1609 28.1158 61.0068 28.0978 60.8267 28.0978C60.6706 28.0978 60.5345 28.1297 60.4185 28.1936C60.3024 28.2536 60.2444 28.3494 60.2444 28.4812C60.2444 28.5491 60.2564 28.609 60.2804 28.661C60.3084 28.7129 60.3484 28.7608 60.4005 28.8047C60.4565 28.8447 60.5245 28.8826 60.6046 28.9186C60.6846 28.9545 60.7807 28.9925 60.8928 29.0324C61.0409 29.0883 61.1729 29.1442 61.289 29.2002C61.4051 29.2521 61.5031 29.314 61.5832 29.3859C61.6672 29.4578 61.7313 29.5457 61.7753 29.6495C61.8193 29.7494 61.8414 29.8732 61.8414 30.021C61.8414 30.3085 61.7333 30.5262 61.5172 30.674C61.305 30.8218 61.0008 30.8957 60.6046 30.8957C60.3284 30.8957 60.1123 30.8717 59.9562 30.8238C59.8001 30.7798 59.694 30.7459 59.638 30.7219L59.7401 30.2426C59.8041 30.2666 59.9062 30.3025 60.0462 30.3505C60.1863 30.3984 60.3725 30.4224 60.6046 30.4224Z" fill="#27235C"/>
<path d="M64.7249 29.2721C64.7249 28.9086 64.6348 28.629 64.4547 28.4333C64.2746 28.2376 64.0345 28.1397 63.7343 28.1397C63.5662 28.1397 63.4341 28.1457 63.338 28.1577C63.246 28.1697 63.1719 28.1837 63.1159 28.1996V30.1647C63.1839 30.2207 63.282 30.2746 63.4101 30.3265C63.5381 30.3784 63.6782 30.4044 63.8303 30.4044C63.9904 30.4044 64.1265 30.3764 64.2386 30.3205C64.3547 30.2606 64.4487 30.1807 64.5208 30.0809C64.5928 29.977 64.6448 29.8572 64.6769 29.7214C64.7089 29.5816 64.7249 29.4318 64.7249 29.2721ZM65.3072 29.2721C65.3072 29.5077 65.2752 29.7254 65.2112 29.9251C65.1511 30.1248 65.0611 30.2965 64.941 30.4403C64.8209 30.5841 64.6728 30.696 64.4967 30.7758C64.3246 30.8557 64.1265 30.8957 63.9024 30.8957C63.7223 30.8957 63.5622 30.8717 63.4221 30.8238C63.286 30.7758 63.1839 30.7299 63.1159 30.686V31.9321H62.5575V27.8042C62.6896 27.7723 62.8537 27.7383 63.0498 27.7024C63.25 27.6624 63.4801 27.6425 63.7403 27.6425C63.9804 27.6425 64.1966 27.6804 64.3887 27.7563C64.5808 27.8322 64.7449 27.94 64.881 28.0798C65.0171 28.2196 65.1211 28.3914 65.1932 28.5951C65.2692 28.7948 65.3072 29.0204 65.3072 29.2721Z" fill="#27235C"/>
<path d="M68.8486 29.2661C68.8486 29.5137 68.8126 29.7374 68.7406 29.9371C68.6685 30.1368 68.5665 30.3085 68.4344 30.4523C68.3063 30.5961 68.1522 30.7079 67.9721 30.7878C67.792 30.8637 67.5959 30.9017 67.3837 30.9017C67.1716 30.9017 66.9755 30.8637 66.7954 30.7878C66.6153 30.7079 66.4592 30.5961 66.3271 30.4523C66.199 30.3085 66.0989 30.1368 66.0269 29.9371C65.9548 29.7374 65.9188 29.5137 65.9188 29.2661C65.9188 29.0224 65.9548 28.8008 66.0269 28.601C66.0989 28.3973 66.199 28.2236 66.3271 28.0798C66.4592 27.936 66.6153 27.8262 66.7954 27.7503C66.9755 27.6704 67.1716 27.6305 67.3837 27.6305C67.5959 27.6305 67.792 27.6704 67.9721 27.7503C68.1522 27.8262 68.3063 27.936 68.4344 28.0798C68.5665 28.2236 68.6685 28.3973 68.7406 28.601C68.8126 28.8008 68.8486 29.0224 68.8486 29.2661ZM68.2663 29.2661C68.2663 28.9146 68.1862 28.637 68.0261 28.4333C67.87 28.2256 67.6559 28.1218 67.3837 28.1218C67.1116 28.1218 66.8954 28.2256 66.7353 28.4333C66.5792 28.637 66.5012 28.9146 66.5012 29.2661C66.5012 29.6175 66.5792 29.8971 66.7353 30.1048C66.8954 30.3085 67.1116 30.4104 67.3837 30.4104C67.6559 30.4104 67.87 30.3085 68.0261 30.1048C68.1862 29.8971 68.2663 29.6175 68.2663 29.2661Z" fill="#27235C"/>
<path d="M69.6342 27.7982C69.7623 27.7663 69.9324 27.7323 70.1445 27.6964C70.3566 27.6604 70.6008 27.6425 70.877 27.6425C71.1251 27.6425 71.3312 27.6784 71.4953 27.7503C71.6595 27.8182 71.7895 27.9161 71.8856 28.0439C71.9857 28.1677 72.0557 28.3175 72.0957 28.4932C72.1357 28.6689 72.1558 28.8627 72.1558 29.0743V30.8238H71.5974V29.1942C71.5974 29.0025 71.5834 28.8387 71.5554 28.7029C71.5314 28.5671 71.4893 28.4573 71.4293 28.3734C71.3693 28.2895 71.2892 28.2296 71.1892 28.1936C71.0891 28.1537 70.965 28.1337 70.8169 28.1337C70.7569 28.1337 70.6949 28.1357 70.6308 28.1397C70.5668 28.1437 70.5047 28.1497 70.4447 28.1577C70.3887 28.1617 70.3366 28.1677 70.2886 28.1757C70.2446 28.1837 70.2126 28.1897 70.1925 28.1936V30.8238H69.6342V27.7982Z" fill="#27235C"/>
<path d="M73.8081 30.4224C74.0362 30.4224 74.2043 30.3924 74.3124 30.3325C74.4245 30.2726 74.4805 30.1767 74.4805 30.0449C74.4805 29.9091 74.4265 29.8013 74.3184 29.7214C74.2103 29.6415 74.0322 29.5516 73.7841 29.4518C73.664 29.4039 73.5479 29.3559 73.4359 29.308C73.3278 29.2561 73.2337 29.1962 73.1537 29.1283C73.0736 29.0604 73.0096 28.9785 72.9616 28.8826C72.9135 28.7868 72.8895 28.6689 72.8895 28.5292C72.8895 28.2536 72.9916 28.0359 73.1957 27.8761C73.3998 27.7124 73.678 27.6305 74.0302 27.6305C74.1183 27.6305 74.2063 27.6365 74.2944 27.6484C74.3825 27.6564 74.4645 27.6684 74.5406 27.6844C74.6166 27.6964 74.6826 27.7104 74.7387 27.7263C74.7987 27.7423 74.8447 27.7563 74.8768 27.7683L74.7747 28.2476C74.7147 28.2156 74.6206 28.1837 74.4925 28.1517C74.3644 28.1158 74.2103 28.0978 74.0302 28.0978C73.8741 28.0978 73.7381 28.1297 73.622 28.1936C73.5059 28.2536 73.4479 28.3494 73.4479 28.4812C73.4479 28.5491 73.4599 28.609 73.4839 28.661C73.5119 28.7129 73.5519 28.7608 73.604 28.8047C73.66 28.8447 73.728 28.8826 73.8081 28.9186C73.8881 28.9545 73.9842 28.9925 74.0963 29.0324C74.2444 29.0883 74.3764 29.1442 74.4925 29.2002C74.6086 29.2521 74.7067 29.314 74.7867 29.3859C74.8708 29.4578 74.9348 29.5457 74.9788 29.6495C75.0228 29.7494 75.0449 29.8732 75.0449 30.021C75.0449 30.3085 74.9368 30.5262 74.7207 30.674C74.5085 30.8218 74.2043 30.8957 73.8081 30.8957C73.5319 30.8957 73.3158 30.8717 73.1597 30.8238C73.0036 30.7798 72.8975 30.7459 72.8415 30.7219L72.9436 30.2426C73.0076 30.2666 73.1097 30.3025 73.2498 30.3505C73.3898 30.3984 73.576 30.4224 73.8081 30.4224Z" fill="#27235C"/>
<path d="M76.3194 30.8238H75.761V27.7084H76.3194V30.8238ZM76.0372 27.1452C75.9371 27.1452 75.8511 27.1132 75.7791 27.0493C75.711 26.9814 75.677 26.8916 75.677 26.7797C75.677 26.6679 75.711 26.58 75.7791 26.5161C75.8511 26.4482 75.9371 26.4143 76.0372 26.4143C76.1373 26.4143 76.2213 26.4482 76.2894 26.5161C76.3614 26.58 76.3974 26.6679 76.3974 26.7797C76.3974 26.8916 76.3614 26.9814 76.2894 27.0493C76.2213 27.1132 76.1373 27.1452 76.0372 27.1452Z" fill="#27235C"/>
<path d="M77.8379 27.8462C77.9059 27.8022 78.008 27.7563 78.1441 27.7084C78.2842 27.6604 78.4443 27.6365 78.6244 27.6365C78.8485 27.6365 79.0467 27.6764 79.2188 27.7563C79.3949 27.8362 79.543 27.948 79.663 28.0918C79.7831 28.2356 79.8732 28.4073 79.9332 28.607C79.9972 28.8067 80.0293 29.0264 80.0293 29.2661C80.0293 29.5177 79.9912 29.7454 79.9152 29.9491C79.8431 30.1488 79.7391 30.3185 79.603 30.4583C79.4669 30.5981 79.3028 30.7059 79.1107 30.7818C78.9186 30.8577 78.7024 30.8957 78.4623 30.8957C78.2021 30.8957 77.972 30.8777 77.7719 30.8417C77.5717 30.8058 77.4076 30.7698 77.2796 30.7339V26.2705L77.8379 26.1746V27.8462ZM77.8379 30.3385C77.8939 30.3545 77.972 30.3704 78.0721 30.3864C78.1761 30.3984 78.3042 30.4044 78.4563 30.4044C78.7565 30.4044 78.9966 30.3065 79.1767 30.1108C79.3569 29.9111 79.4469 29.6295 79.4469 29.2661C79.4469 29.1063 79.4309 28.9565 79.3989 28.8167C79.3669 28.6769 79.3148 28.5571 79.2428 28.4573C79.1707 28.3534 79.0767 28.2735 78.9606 28.2176C78.8485 28.1577 78.7125 28.1277 78.5524 28.1277C78.4003 28.1277 78.2602 28.1537 78.1321 28.2056C78.004 28.2576 77.9059 28.3115 77.8379 28.3674V30.3385Z" fill="#27235C"/>
<path d="M81.3733 30.8238H80.815V27.7084H81.3733V30.8238ZM81.0911 27.1452C80.9911 27.1452 80.905 27.1132 80.833 27.0493C80.7649 26.9814 80.7309 26.8916 80.7309 26.7797C80.7309 26.6679 80.7649 26.58 80.833 26.5161C80.905 26.4482 80.9911 26.4143 81.0911 26.4143C81.1912 26.4143 81.2752 26.4482 81.3433 26.5161C81.4153 26.58 81.4513 26.6679 81.4513 26.7797C81.4513 26.8916 81.4153 26.9814 81.3433 27.0493C81.2752 27.1132 81.1912 27.1452 81.0911 27.1452Z" fill="#27235C"/>
<path d="M83.2701 30.8837C82.9258 30.8757 82.6817 30.8018 82.5376 30.662C82.3935 30.5222 82.3215 30.3045 82.3215 30.009V26.2705L82.8798 26.1746V29.9191C82.8798 30.011 82.8878 30.0869 82.9038 30.1468C82.9198 30.2067 82.9459 30.2546 82.9819 30.2906C83.0179 30.3265 83.0659 30.3545 83.126 30.3744C83.186 30.3904 83.2601 30.4044 83.3481 30.4164L83.2701 30.8837Z" fill="#27235C"/>
<path d="M84.5335 30.8238H83.9751V27.7084H84.5335V30.8238ZM84.2513 27.1452C84.1512 27.1452 84.0652 27.1132 83.9931 27.0493C83.9251 26.9814 83.8911 26.8916 83.8911 26.7797C83.8911 26.6679 83.9251 26.58 83.9931 26.5161C84.0652 26.4482 84.1512 26.4143 84.2513 26.4143C84.3514 26.4143 84.4354 26.4482 84.5034 26.5161C84.5755 26.58 84.6115 26.6679 84.6115 26.7797C84.6115 26.8916 84.5755 26.9814 84.5034 27.0493C84.4354 27.1132 84.3514 27.1452 84.2513 27.1452Z" fill="#27235C"/>
<path d="M86.016 27.7084H87.1987V28.1757H86.016V29.6136C86.016 29.7693 86.028 29.8991 86.052 30.003C86.076 30.1028 86.112 30.1827 86.1601 30.2426C86.2081 30.2985 86.2681 30.3385 86.3402 30.3624C86.4122 30.3864 86.4963 30.3984 86.5923 30.3984C86.7604 30.3984 86.8945 30.3804 86.9946 30.3445C87.0986 30.3045 87.1707 30.2766 87.2107 30.2606L87.3188 30.7219C87.2627 30.7499 87.1647 30.7838 87.0246 30.8238C86.8845 30.8677 86.7244 30.8897 86.5443 30.8897C86.3322 30.8897 86.156 30.8637 86.016 30.8118C85.8799 30.7559 85.7698 30.674 85.6858 30.5661C85.6017 30.4583 85.5417 30.3265 85.5057 30.1707C85.4736 30.011 85.4576 29.8272 85.4576 29.6195V26.8396L86.016 26.7438V27.7084Z" fill="#27235C"/>
<path d="M87.543 31.4049C87.587 31.4249 87.643 31.4429 87.7111 31.4588C87.7831 31.4788 87.8532 31.4888 87.9212 31.4888C88.1413 31.4888 88.3134 31.4389 88.4375 31.339C88.5616 31.2431 88.6737 31.0854 88.7737 30.8657C88.5216 30.3864 88.2854 29.8792 88.0653 29.3439C87.8492 28.8047 87.6691 28.2595 87.525 27.7084H88.1253C88.1694 27.8881 88.2214 28.0818 88.2814 28.2895C88.3455 28.4972 88.4155 28.7109 88.4916 28.9306C88.5676 29.1502 88.6497 29.3699 88.7377 29.5896C88.8258 29.8093 88.9178 30.021 89.0139 30.2247C89.166 29.8053 89.2981 29.3899 89.4101 28.9785C89.5222 28.5671 89.6283 28.1437 89.7283 27.7084H90.3047C90.1606 28.2955 90.0005 28.8607 89.8244 29.4039C89.6483 29.9431 89.4582 30.4483 89.254 30.9196C89.174 31.0994 89.0899 31.2531 89.0019 31.3809C88.9178 31.5128 88.8238 31.6206 88.7197 31.7045C88.6156 31.7883 88.4976 31.8503 88.3655 31.8902C88.2374 31.9301 88.0913 31.9501 87.9272 31.9501C87.8832 31.9501 87.8372 31.9461 87.7891 31.9381C87.7411 31.9341 87.6931 31.9261 87.645 31.9142C87.601 31.9062 87.559 31.8962 87.519 31.8842C87.4829 31.8722 87.4569 31.8622 87.4409 31.8542L87.543 31.4049Z" fill="#27235C"/>
<path d="M91.3902 30.5002C91.3902 30.6081 91.3542 30.7019 91.2821 30.7818C91.2101 30.8617 91.112 30.9017 90.9879 30.9017C90.8639 30.9017 90.7658 30.8617 90.6938 30.7818C90.6217 30.7019 90.5857 30.6081 90.5857 30.5002C90.5857 30.3924 90.6217 30.2985 90.6938 30.2187C90.7658 30.1388 90.8639 30.0988 90.9879 30.0988C91.112 30.0988 91.2101 30.1388 91.2821 30.2187C91.3542 30.2985 91.3902 30.3924 91.3902 30.5002Z" fill="#27235C"/>
<path d="M86.5443 22.1072C85.8579 22.1072 85.2416 21.9741 84.6952 21.708C84.1629 21.4278 83.7076 21.0496 83.3294 20.5733C82.9652 20.097 82.685 19.5507 82.4889 18.9343C82.3068 18.3039 82.2157 17.6315 82.2157 16.9171C82.2297 16.2026 82.3348 15.5372 82.5309 14.9209C82.727 14.2905 83.0072 13.7442 83.3714 13.2819C83.7497 12.8056 84.2049 12.4344 84.7373 12.1682C85.2696 11.902 85.8719 11.769 86.5443 11.769C87.1887 11.769 87.7911 11.902 88.3514 12.1682C88.9258 12.4344 89.4301 12.8056 89.8643 13.2819C90.3126 13.7442 90.6628 14.2905 90.915 14.9209C91.1671 15.5372 91.2932 16.1956 91.2932 16.8961C91.2932 17.6245 91.1671 18.3109 90.915 18.9553C90.6628 19.5857 90.3196 20.139 89.8854 20.6153C89.4511 21.0776 88.9468 21.4418 88.3725 21.708C87.7981 21.9741 87.1887 22.1072 86.5443 22.1072ZM86.2081 19.6487C86.6984 19.6487 87.1397 19.5366 87.5319 19.3125C87.9242 19.0744 88.2324 18.7522 88.4565 18.3459C88.6946 17.9397 88.8137 17.4774 88.8137 16.9591C88.8137 16.4268 88.6946 15.9575 88.4565 15.5512C88.2324 15.131 87.9242 14.8088 87.5319 14.5847C87.1397 14.3465 86.6984 14.2274 86.2081 14.2274C85.7319 14.2274 85.2976 14.3465 84.9054 14.5847C84.5131 14.8228 84.1979 15.145 83.9598 15.5512C83.7357 15.9575 83.6236 16.4268 83.6236 16.9591C83.6236 17.4774 83.7357 17.9397 83.9598 18.3459C84.1979 18.7522 84.5131 19.0744 84.9054 19.3125C85.2976 19.5366 85.7319 19.6487 86.2081 19.6487ZM82.3208 22.1282C81.9426 22.1282 81.6624 22.0652 81.4803 21.9391C81.2982 21.827 81.1861 21.6799 81.1441 21.4978C81.1021 21.3017 81.0811 21.0846 81.0811 20.8464V8.32289C81.0811 8.08475 81.1021 7.87462 81.1441 7.69251C81.1861 7.49639 81.2982 7.3423 81.4803 7.23023C81.6624 7.11817 81.9426 7.06213 82.3208 7.06213C82.713 7.06213 82.9932 7.11817 83.1613 7.23023C83.3294 7.3423 83.4345 7.49639 83.4765 7.69251C83.5185 7.88863 83.5395 8.09876 83.5395 8.32289V21.2667C83.4835 21.5749 83.3644 21.792 83.1823 21.9181C83.0142 22.0582 82.727 22.1282 82.3208 22.1282Z" fill="#27235C" stroke="#27235C" stroke-width="0.2"/>
<path d="M74.8183 22.2546C73.9077 22.2546 73.1092 22.1075 72.4228 21.8133C71.7504 21.5192 71.1831 21.1199 70.7208 20.6156C70.2725 20.0973 69.9293 19.523 69.6912 18.8926C69.4671 18.2482 69.355 17.5828 69.355 16.8964C69.355 15.8878 69.5861 14.9912 70.0484 14.2068C70.5107 13.4223 71.1481 12.8059 71.9606 12.3576C72.7871 11.9094 73.7326 11.6852 74.7973 11.6852C75.5537 11.6852 76.2191 11.8043 76.7935 12.0425C77.3678 12.2806 77.8441 12.5958 78.2223 12.988C78.6146 13.3663 78.9087 13.7865 79.1049 14.2488C79.315 14.7111 79.42 15.1593 79.42 15.5936C79.42 16.336 79.2379 16.8754 78.8737 17.2116C78.5235 17.5478 78.0822 17.7159 77.5499 17.7159H72.0026C72.0166 18.1922 72.1637 18.6054 72.4438 18.9556C72.738 19.3058 73.1022 19.579 73.5365 19.7751C73.9848 19.9572 74.44 20.0483 74.9023 20.0483C75.2525 20.0483 75.5607 20.0273 75.8269 19.9852C76.1071 19.9432 76.3452 19.8942 76.5413 19.8381C76.7374 19.7681 76.9055 19.6981 77.0456 19.628C77.1997 19.558 77.3398 19.4949 77.4659 19.4389C77.5919 19.3829 77.711 19.3479 77.8231 19.3338C77.9772 19.3198 78.1313 19.3549 78.2854 19.4389C78.4395 19.523 78.5655 19.67 78.6636 19.8802C78.7476 20.0203 78.8037 20.1533 78.8317 20.2794C78.8737 20.3915 78.8947 20.5035 78.8947 20.6156C78.8947 20.8958 78.7266 21.1619 78.3904 21.4141C78.0542 21.6522 77.5779 21.8484 76.9616 22.0025C76.3592 22.1706 75.6448 22.2546 74.8183 22.2546ZM72.0026 16.224H76.3102C76.5483 16.224 76.7304 16.189 76.8565 16.1189C76.9826 16.0349 77.0456 15.8668 77.0456 15.6146C77.0456 15.2924 76.9476 15.0052 76.7514 14.7531C76.5553 14.4869 76.2892 14.2838 75.953 14.1437C75.6168 13.9896 75.2245 13.9126 74.7763 13.9126C74.2579 13.9126 73.7887 14.0176 73.3684 14.2278C72.9481 14.4239 72.6119 14.6971 72.3598 15.0473C72.1217 15.3975 72.0026 15.7897 72.0026 16.224Z" fill="#27235C" stroke="#27235C" stroke-width="0.2"/>
<path d="M56.0189 22.066C55.7387 22.066 55.5146 22.0169 55.3465 21.9189C55.1784 21.8068 55.0523 21.6807 54.9683 21.5406C54.8982 21.4006 54.8492 21.2815 54.8212 21.1834L50.7027 9.12216C50.5626 8.67389 50.5416 8.33769 50.6397 8.11355C50.7377 7.87541 51.0249 7.67929 51.5012 7.5252C51.8234 7.41313 52.0825 7.3641 52.2787 7.37811C52.4748 7.39212 52.6359 7.47617 52.7619 7.63026C52.902 7.77035 53.0211 7.99448 53.1192 8.30267L56.145 17.4642L58.8556 8.38672C58.8976 8.24663 58.9537 8.10655 59.0237 7.96647C59.1078 7.81237 59.2338 7.6863 59.4019 7.58824C59.5701 7.49018 59.8012 7.44115 60.0954 7.44115C60.4316 7.44115 60.6837 7.49718 60.8518 7.60925C61.0199 7.72132 61.139 7.84739 61.209 7.98748C61.2931 8.11355 61.3491 8.23263 61.3771 8.34469L64.0878 17.5272L67.1346 8.32368C67.2327 8.00149 67.3447 7.76334 67.4708 7.60925C67.6109 7.45516 67.786 7.37111 67.9961 7.3571C68.2063 7.32908 68.4654 7.37111 68.7736 7.48317C69.0958 7.59524 69.3269 7.72132 69.467 7.8614C69.6071 7.98748 69.6771 8.15558 69.6771 8.36571C69.6771 8.56182 69.6281 8.81397 69.53 9.12216L65.4326 21.2044C65.4046 21.2885 65.3485 21.4006 65.2645 21.5406C65.1944 21.6807 65.0754 21.8068 64.9073 21.9189C64.7392 22.0169 64.508 22.066 64.2138 22.066C63.9197 22.066 63.6885 22.0029 63.5204 21.8768C63.3523 21.7508 63.2262 21.6107 63.1422 21.4566C63.0581 21.3025 63.0021 21.1904 62.9741 21.1204L60.1164 11.8748L57.2587 21.0994C57.2306 21.1974 57.1746 21.3235 57.0906 21.4776C57.0205 21.6317 56.9014 21.7718 56.7333 21.8978C56.5652 22.0099 56.3271 22.066 56.0189 22.066Z" fill="#27235C" stroke="#27235C" stroke-width="0.2"/>
<path d="M45.0927 22.2547C44.7285 22.2547 44.3433 22.2127 43.937 22.1287C43.5308 22.0586 43.1385 21.9536 42.7603 21.8135C42.3821 21.6594 42.0529 21.4843 41.7727 21.2882C41.5066 21.078 41.3385 20.8469 41.2684 20.5947C41.2124 20.4547 41.1914 20.3216 41.2054 20.1955C41.2194 20.0554 41.2614 19.9153 41.3315 19.7752C41.4015 19.6212 41.5066 19.4671 41.6466 19.313C41.7727 19.1589 41.8988 19.0748 42.0249 19.0608C42.165 19.0328 42.3401 19.0748 42.5502 19.1869C42.7323 19.2569 42.9284 19.348 43.1385 19.4601C43.3627 19.5721 43.5868 19.6842 43.8109 19.7963C44.0491 19.9083 44.2872 19.9994 44.5254 20.0694C44.7775 20.1395 45.0227 20.1745 45.2608 20.1745C45.7791 20.1745 46.1924 20.0904 46.5006 19.9223C46.8088 19.7402 46.9628 19.4881 46.9628 19.1659C46.9628 18.9838 46.9138 18.8227 46.8158 18.6826C46.7177 18.5425 46.5846 18.4304 46.4165 18.3464C46.2624 18.2483 46.0733 18.1643 45.8492 18.0942C45.639 18.0102 45.4079 17.9401 45.1558 17.8841C44.9176 17.8141 44.6655 17.737 44.3993 17.653C44.0491 17.5549 43.6989 17.4358 43.3487 17.2958C42.9985 17.1557 42.6833 16.9736 42.4031 16.7494C42.1369 16.5253 41.9198 16.2451 41.7517 15.9089C41.5836 15.5727 41.4996 15.1525 41.4996 14.6482C41.4996 14.0178 41.6466 13.4855 41.9408 13.0512C42.249 12.6029 42.6903 12.2597 43.2646 12.0216C43.839 11.7834 44.5324 11.6644 45.3449 11.6644C45.625 11.6644 45.8912 11.6854 46.1434 11.7274C46.4095 11.7694 46.6617 11.8325 46.8998 11.9165C47.152 11.9866 47.3901 12.0776 47.6142 12.1897C47.8524 12.3018 48.0765 12.4278 48.2866 12.5679C48.6369 12.764 48.819 12.9952 48.833 13.2613C48.847 13.5135 48.7489 13.7866 48.5388 14.0808C48.3847 14.2769 48.2306 14.417 48.0765 14.5011C47.9224 14.5711 47.7613 14.5711 47.5932 14.5011C47.3691 14.389 47.1239 14.2699 46.8578 14.1439C46.6056 14.0038 46.3395 13.8847 46.0593 13.7866C45.7931 13.6886 45.513 13.6396 45.2188 13.6396C44.9386 13.6396 44.6865 13.6816 44.4623 13.7656C44.2382 13.8497 44.0701 13.9688 43.958 14.1228C43.846 14.2769 43.7899 14.4591 43.7899 14.6692C43.7899 14.8653 43.846 15.0264 43.958 15.1525C44.0701 15.2785 44.2172 15.3836 44.3993 15.4677C44.5814 15.5517 44.7985 15.6288 45.0507 15.6988C45.3028 15.7548 45.569 15.8109 45.8492 15.8669C46.2414 15.9509 46.6407 16.056 47.0469 16.1821C47.4531 16.3082 47.8244 16.4833 48.1606 16.7074C48.5108 16.9315 48.7909 17.2327 49.0011 17.6109C49.2112 17.9752 49.3163 18.4515 49.3163 19.0398C49.3163 20.0624 48.938 20.8539 48.1816 21.4142C47.4391 21.9746 46.4095 22.2547 45.0927 22.2547Z" fill="#27235C" stroke="#27235C" stroke-width="0.2"/>
<path d="M35.1733 22.2544C34.2627 22.2544 33.4642 22.1073 32.7778 21.8132C32.1054 21.519 31.5381 21.1197 31.0758 20.6154C30.6275 20.0971 30.2843 19.5228 30.0462 18.8924C29.822 18.248 29.71 17.5826 29.71 16.8962C29.71 15.8876 29.9411 14.991 30.4034 14.2066C30.8657 13.4221 31.503 12.8057 32.3155 12.3575C33.142 11.9092 34.0876 11.6851 35.1522 11.6851C35.9087 11.6851 36.5741 11.8041 37.1484 12.0423C37.7228 12.2804 38.1991 12.5956 38.5773 12.9878C38.9695 13.3661 39.2637 13.7863 39.4598 14.2486C39.67 14.7109 39.775 15.1591 39.775 15.5934C39.775 16.3359 39.5929 16.8752 39.2287 17.2114C38.8785 17.5476 38.4372 17.7157 37.9049 17.7157H32.3576C32.3716 18.192 32.5187 18.6052 32.7988 18.9554C33.093 19.3056 33.4572 19.5788 33.8915 19.7749C34.3398 19.957 34.795 20.0481 35.2573 20.0481C35.6075 20.0481 35.9157 20.0271 36.1819 19.9851C36.462 19.943 36.7002 19.894 36.8963 19.838C37.0924 19.7679 37.2605 19.6979 37.4006 19.6278C37.5547 19.5578 37.6948 19.4948 37.8208 19.4387C37.9469 19.3827 38.066 19.3477 38.1781 19.3337C38.3322 19.3197 38.4862 19.3547 38.6403 19.4387C38.7944 19.5228 38.9205 19.6699 39.0186 19.88C39.1026 20.0201 39.1587 20.1532 39.1867 20.2792C39.2287 20.3913 39.2497 20.5034 39.2497 20.6154C39.2497 20.8956 39.0816 21.1618 38.7454 21.4139C38.4092 21.6521 37.9329 21.8482 37.3165 22.0023C36.7142 22.1704 35.9998 22.2544 35.1733 22.2544ZM32.3576 16.2238H36.6652C36.9033 16.2238 37.0854 16.1888 37.2115 16.1187C37.3376 16.0347 37.4006 15.8666 37.4006 15.6144C37.4006 15.2922 37.3025 15.0051 37.1064 14.7529C36.9103 14.4867 36.6441 14.2836 36.3079 14.1435C35.9717 13.9894 35.5795 13.9124 35.1312 13.9124C34.6129 13.9124 34.1436 14.0175 33.7234 14.2276C33.3031 14.4237 32.9669 14.6969 32.7148 15.0471C32.4766 15.3973 32.3576 15.7895 32.3576 16.2238Z" fill="#27235C" stroke="#27235C" stroke-width="0.2"/>
<path d="M27.6718 22.1291C27.1535 22.1291 26.6912 22.0941 26.285 22.024C25.8928 21.954 25.5495 21.8349 25.2554 21.6668C24.9752 21.4987 24.7441 21.2746 24.562 20.9944C24.3798 20.7002 24.2398 20.343 24.1417 19.9228C24.0576 19.5025 24.0156 18.9982 24.0156 18.4099V8.28177C24.0156 8.04363 24.0366 7.8335 24.0787 7.65139C24.1347 7.45527 24.2468 7.30118 24.4149 7.18911C24.597 7.06304 24.8841 7 25.2764 7C25.6686 7 25.9488 7.05603 26.1169 7.1681C26.299 7.28017 26.4111 7.43426 26.4531 7.63038C26.5091 7.81249 26.5371 8.02261 26.5371 8.26076V18.3048C26.5371 18.571 26.5512 18.7951 26.5792 18.9772C26.6212 19.1453 26.6842 19.2854 26.7683 19.3975C26.8663 19.4955 26.9854 19.5656 27.1255 19.6076C27.2796 19.6496 27.4617 19.6706 27.6718 19.6706C27.8539 19.6706 28.015 19.6916 28.1551 19.7337C28.3092 19.7757 28.4283 19.8808 28.5123 20.0489C28.6104 20.217 28.6594 20.4901 28.6594 20.8683C28.6594 21.2606 28.6104 21.5478 28.5123 21.7299C28.4283 21.912 28.3092 22.024 28.1551 22.0661C28.001 22.1081 27.8399 22.1291 27.6718 22.1291Z" fill="#27235C" stroke="#27235C" stroke-width="0.2"/>
<path d="M20.4976 22.1288C20.1194 22.1288 19.8392 22.0658 19.6571 21.9397C19.475 21.8277 19.3629 21.6806 19.3209 21.4984C19.2789 21.3023 19.2579 21.0852 19.2579 20.8471V13.0304C19.2579 12.8062 19.2789 12.6031 19.3209 12.421C19.3769 12.2249 19.489 12.0708 19.6571 11.9587C19.8392 11.8466 20.1264 11.7906 20.5186 11.7906C20.9109 11.7906 21.191 11.8466 21.3591 11.9587C21.5413 12.0708 21.6533 12.2249 21.6953 12.421C21.7374 12.6171 21.7584 12.8342 21.7584 13.0724V20.8681C21.7584 21.1062 21.7374 21.3233 21.6953 21.5195C21.6533 21.7016 21.5413 21.8487 21.3591 21.9607C21.191 22.0728 20.9039 22.1288 20.4976 22.1288ZM20.4976 9.75238C20.0914 9.75238 19.7902 9.69635 19.5941 9.58428C19.412 9.4582 19.2929 9.2901 19.2369 9.07998C19.1948 8.86985 19.1738 8.63871 19.1738 8.38656C19.1738 8.1204 19.1948 7.88926 19.2369 7.69314C19.2929 7.49702 19.419 7.34293 19.6151 7.23086C19.8112 7.10479 20.1124 7.04175 20.5186 7.04175C20.9389 7.04175 21.2401 7.10479 21.4222 7.23086C21.6043 7.35694 21.7234 7.52504 21.7794 7.73516C21.8354 7.93128 21.8635 8.16242 21.8635 8.42858C21.8635 8.66673 21.8354 8.89086 21.7794 9.10099C21.7234 9.31111 21.6043 9.47221 21.4222 9.58428C21.2401 9.69635 20.9319 9.75238 20.4976 9.75238Z" fill="#27235C" stroke="#27235C" stroke-width="0.2"/>
<path d="M3.23975 22.1076C2.87553 22.1076 2.60236 22.0516 2.42025 21.9395C2.23814 21.8275 2.11907 21.6734 2.06304 21.4772C2.02101 21.2811 2 21.064 2 20.8259V8.70155C2 8.47742 2.02101 8.2743 2.06304 8.09219C2.11907 7.89607 2.23814 7.74198 2.42025 7.62991C2.60236 7.50383 2.88954 7.4408 3.28177 7.4408C3.57595 7.4408 3.79308 7.46181 3.93316 7.50383C4.08726 7.53185 4.20633 7.58088 4.29038 7.65092C4.37443 7.70696 4.45848 7.784 4.54253 7.88206L9.66962 15.0474H9.18633L14.3344 7.86105C14.4325 7.74898 14.5305 7.66493 14.6286 7.6089C14.7267 7.55286 14.8527 7.51084 15.0068 7.48282C15.1609 7.4548 15.3641 7.4408 15.6162 7.4408C15.9944 7.4408 16.2746 7.50383 16.4567 7.62991C16.6388 7.74198 16.7509 7.89607 16.7929 8.09219C16.8489 8.28831 16.877 8.50544 16.877 8.74358V20.8679C16.877 21.078 16.8489 21.2811 16.7929 21.4772C16.7509 21.6734 16.6388 21.8275 16.4567 21.9395C16.2746 22.0516 15.9874 22.1076 15.5952 22.1076C15.217 22.1076 14.9368 22.0446 14.7547 21.9185C14.5726 21.8064 14.4535 21.6523 14.3975 21.4562C14.3554 21.2601 14.3344 21.05 14.3344 20.8259V11.8114L10.5101 17.3378C10.4681 17.3938 10.4051 17.4708 10.321 17.5689C10.237 17.6529 10.1249 17.73 9.98481 17.8C9.84473 17.8701 9.65561 17.9051 9.41747 17.9051C9.19333 17.9051 9.01122 17.8701 8.87114 17.8C8.73106 17.73 8.61899 17.6529 8.53494 17.5689C8.46489 17.4848 8.39485 17.4008 8.32481 17.3167L4.52152 11.8114V20.8679C4.52152 21.078 4.4935 21.2811 4.43747 21.4772C4.39544 21.6734 4.28338 21.8275 4.10127 21.9395C3.91916 22.0516 3.63198 22.1076 3.23975 22.1076Z" fill="#27235C" stroke="#27235C" stroke-width="0.2"/>
</svg>
