<svg width="565" height="150" viewBox="0 0 565 150" fill="none" xmlns="http://www.w3.org/2000/svg">
<path d="M262.929 142.033C262.929 140.231 264.39 138.77 266.192 138.77H491.317C493.119 138.77 494.58 140.231 494.58 142.033V142.033C494.58 143.835 493.119 145.295 491.317 145.295H266.192C264.39 145.295 262.929 143.835 262.929 142.033V142.033Z" fill="#FFBB00"/>
<path d="M79.4744 117.973V110.075C78.1648 108.048 76.9311 106.05 75.7733 104.08C74.6155 102.11 73.5242 100.179 72.4993 98.2846H75.7448C76.4661 99.8376 77.2727 101.419 78.1648 103.029C79.0568 104.62 79.9773 106.154 80.9263 107.632C81.8564 106.154 82.7674 104.62 83.6594 103.029C84.5515 101.419 85.3676 99.8376 86.1079 98.2846H89.1826C88.1577 100.179 87.0663 102.11 85.9086 104.08C84.7508 106.031 83.5266 108.01 82.236 110.018V117.973H79.4744Z" fill="#27235C"/>
<path d="M103.299 110.586C103.299 111.76 103.128 112.821 102.786 113.768C102.445 114.715 101.961 115.53 101.334 116.211C100.727 116.893 99.9962 117.424 99.1422 117.802C98.2881 118.162 97.358 118.342 96.3521 118.342C95.3462 118.342 94.4162 118.162 93.5621 117.802C92.708 117.424 91.9678 116.893 91.3414 116.211C90.7341 115.53 90.2596 114.715 89.9179 113.768C89.5763 112.821 89.4055 111.76 89.4055 110.586C89.4055 109.431 89.5763 108.38 89.9179 107.433C90.2596 106.467 90.7341 105.643 91.3414 104.961C91.9678 104.279 92.708 103.758 93.5621 103.398C94.4162 103.02 95.3462 102.83 96.3521 102.83C97.358 102.83 98.2881 103.02 99.1422 103.398C99.9962 103.758 100.727 104.279 101.334 104.961C101.961 105.643 102.445 106.467 102.786 107.433C103.128 108.38 103.299 109.431 103.299 110.586ZM100.537 110.586C100.537 108.919 100.158 107.603 99.3984 106.637C98.6582 105.652 97.6427 105.16 96.3521 105.16C95.0615 105.16 94.0366 105.652 93.2774 106.637C92.5371 107.603 92.167 108.919 92.167 110.586C92.167 112.253 92.5371 113.579 93.2774 114.564C94.0366 115.53 95.0615 116.013 96.3521 116.013C97.6427 116.013 98.6582 115.53 99.3984 114.564C100.158 113.579 100.537 112.253 100.537 110.586Z" fill="#27235C"/>
<path d="M118.81 117.547C118.203 117.698 117.396 117.859 116.39 118.03C115.403 118.2 114.255 118.285 112.946 118.285C111.807 118.285 110.848 118.124 110.07 117.802C109.292 117.461 108.666 116.988 108.191 116.382C107.717 115.776 107.375 115.066 107.166 114.251C106.957 113.418 106.853 112.499 106.853 111.495V103.2H109.501V110.927C109.501 112.726 109.785 114.014 110.355 114.791C110.924 115.567 111.883 115.956 113.23 115.956C113.515 115.956 113.809 115.946 114.113 115.927C114.417 115.908 114.701 115.889 114.967 115.871C115.233 115.833 115.47 115.804 115.679 115.785C115.906 115.747 116.068 115.71 116.163 115.672V103.2H118.81V117.547Z" fill="#27235C"/>
<path d="M128.838 102.887C129.066 102.887 129.322 102.906 129.607 102.944C129.91 102.963 130.205 103.001 130.489 103.057C130.774 103.095 131.03 103.143 131.258 103.2C131.505 103.237 131.685 103.275 131.799 103.313L131.343 105.614C131.135 105.539 130.783 105.453 130.29 105.359C129.815 105.245 129.199 105.188 128.439 105.188C127.946 105.188 127.452 105.245 126.959 105.359C126.484 105.453 126.171 105.52 126.019 105.558V117.973H123.372V103.825C123.998 103.597 124.776 103.389 125.706 103.2C126.636 102.991 127.68 102.887 128.838 102.887Z" fill="#27235C"/>
<path d="M153.527 98.2846H156.288V117.973H153.527V108.882H143.875V117.973H141.114V98.2846H143.875V106.495H153.527V98.2846Z" fill="#27235C"/>
<path d="M174.084 110.586C174.084 111.76 173.913 112.821 173.572 113.768C173.23 114.715 172.746 115.53 172.12 116.211C171.512 116.893 170.782 117.424 169.928 117.802C169.073 118.162 168.143 118.342 167.137 118.342C166.132 118.342 165.202 118.162 164.347 117.802C163.493 117.424 162.753 116.893 162.127 116.211C161.519 115.53 161.045 114.715 160.703 113.768C160.362 112.821 160.191 111.76 160.191 110.586C160.191 109.431 160.362 108.38 160.703 107.433C161.045 106.467 161.519 105.643 162.127 104.961C162.753 104.279 163.493 103.758 164.347 103.398C165.202 103.02 166.132 102.83 167.137 102.83C168.143 102.83 169.073 103.02 169.928 103.398C170.782 103.758 171.512 104.279 172.12 104.961C172.746 105.643 173.23 106.467 173.572 107.433C173.913 108.38 174.084 109.431 174.084 110.586ZM171.323 110.586C171.323 108.919 170.943 107.603 170.184 106.637C169.444 105.652 168.428 105.16 167.137 105.16C165.847 105.16 164.822 105.652 164.063 106.637C163.323 107.603 162.952 108.919 162.952 110.586C162.952 112.253 163.323 113.579 164.063 114.564C164.822 115.53 165.847 116.013 167.137 116.013C168.428 116.013 169.444 115.53 170.184 114.564C170.943 113.579 171.323 112.253 171.323 110.586Z" fill="#27235C"/>
<path d="M181.254 116.069C182.336 116.069 183.133 115.927 183.646 115.643C184.177 115.359 184.443 114.905 184.443 114.28C184.443 113.636 184.186 113.124 183.674 112.745C183.162 112.367 182.317 111.94 181.14 111.467C180.571 111.24 180.02 111.012 179.489 110.785C178.976 110.539 178.53 110.255 178.151 109.933C177.771 109.611 177.468 109.223 177.24 108.768C177.012 108.313 176.898 107.755 176.898 107.092C176.898 105.785 177.382 104.753 178.35 103.995C179.318 103.218 180.637 102.83 182.307 102.83C182.725 102.83 183.143 102.859 183.56 102.915C183.978 102.953 184.367 103.01 184.727 103.086C185.088 103.143 185.401 103.209 185.667 103.285C185.952 103.361 186.17 103.427 186.322 103.484L185.838 105.756C185.553 105.605 185.107 105.453 184.5 105.302C183.892 105.131 183.162 105.046 182.307 105.046C181.567 105.046 180.922 105.198 180.372 105.501C179.821 105.785 179.546 106.239 179.546 106.864C179.546 107.186 179.603 107.471 179.717 107.717C179.85 107.963 180.039 108.19 180.286 108.399C180.552 108.588 180.874 108.768 181.254 108.938C181.634 109.109 182.089 109.289 182.621 109.478C183.323 109.743 183.949 110.009 184.5 110.274C185.05 110.52 185.515 110.813 185.895 111.154C186.293 111.495 186.597 111.912 186.806 112.404C187.014 112.878 187.119 113.465 187.119 114.166C187.119 115.53 186.606 116.562 185.582 117.263C184.576 117.963 183.133 118.314 181.254 118.314C179.944 118.314 178.92 118.2 178.179 117.973C177.439 117.765 176.936 117.604 176.67 117.49L177.154 115.217C177.458 115.331 177.942 115.501 178.606 115.728C179.271 115.956 180.153 116.069 181.254 116.069Z" fill="#27235C"/>
<path d="M192.992 103.2H198.6V105.416H192.992V112.234C192.992 112.973 193.049 113.588 193.163 114.081C193.277 114.554 193.447 114.933 193.675 115.217C193.903 115.482 194.188 115.672 194.529 115.785C194.871 115.899 195.269 115.956 195.725 115.956C196.522 115.956 197.158 115.871 197.632 115.7C198.126 115.511 198.468 115.378 198.657 115.302L199.17 117.49C198.904 117.622 198.439 117.783 197.775 117.973C197.111 118.181 196.351 118.285 195.497 118.285C194.491 118.285 193.656 118.162 192.992 117.916C192.347 117.651 191.825 117.263 191.426 116.751C191.027 116.24 190.743 115.615 190.572 114.876C190.42 114.119 190.344 113.247 190.344 112.262V99.08L192.992 98.6255V103.2Z" fill="#27235C"/>
<path d="M204.617 117.973H201.97V103.2H204.617V117.973ZM203.279 100.529C202.805 100.529 202.397 100.377 202.055 100.074C201.732 99.7524 201.571 99.3263 201.571 98.7959C201.571 98.2656 201.732 97.8489 202.055 97.5459C202.397 97.2239 202.805 97.0629 203.279 97.0629C203.754 97.0629 204.152 97.2239 204.475 97.5459C204.817 97.8489 204.987 98.2656 204.987 98.7959C204.987 99.3263 204.817 99.7524 204.475 100.074C204.152 100.377 203.754 100.529 203.279 100.529Z" fill="#27235C"/>
<path d="M209.171 103.626C209.778 103.474 210.585 103.313 211.59 103.143C212.596 102.972 213.754 102.887 215.064 102.887C216.241 102.887 217.218 103.057 217.996 103.398C218.774 103.72 219.391 104.184 219.847 104.791C220.321 105.378 220.653 106.088 220.843 106.921C221.033 107.755 221.128 108.673 221.128 109.677V117.973H218.48V110.245C218.48 109.336 218.414 108.56 218.281 107.916C218.167 107.272 217.968 106.751 217.683 106.353C217.398 105.955 217.019 105.671 216.544 105.501C216.07 105.311 215.481 105.217 214.779 105.217C214.494 105.217 214.2 105.226 213.897 105.245C213.593 105.264 213.299 105.292 213.014 105.33C212.748 105.349 212.502 105.378 212.274 105.416C212.065 105.453 211.913 105.482 211.818 105.501V117.973H209.171V103.626Z" fill="#27235C"/>
<path d="M234.8 116.496C234.572 116.647 234.126 116.846 233.462 117.092C232.816 117.319 232.057 117.433 231.184 117.433C230.292 117.433 229.447 117.291 228.65 117.007C227.872 116.723 227.189 116.287 226.6 115.7C226.012 115.094 225.547 114.346 225.205 113.456C224.864 112.565 224.693 111.505 224.693 110.274C224.693 109.194 224.854 108.209 225.177 107.319C225.499 106.41 225.965 105.633 226.572 104.989C227.198 104.326 227.957 103.815 228.849 103.455C229.741 103.076 230.747 102.887 231.867 102.887C233.101 102.887 234.173 102.982 235.084 103.171C236.014 103.342 236.793 103.503 237.419 103.654V116.836C237.419 119.109 236.83 120.757 235.654 121.78C234.477 122.803 232.693 123.314 230.301 123.314C229.371 123.314 228.489 123.238 227.654 123.087C226.838 122.935 226.126 122.755 225.518 122.547L226.002 120.246C226.534 120.454 227.179 120.634 227.938 120.786C228.717 120.956 229.523 121.041 230.358 121.041C231.934 121.041 233.063 120.729 233.746 120.104C234.449 119.479 234.8 118.484 234.8 117.121V116.496ZM234.771 105.529C234.505 105.453 234.145 105.387 233.689 105.33C233.253 105.255 232.655 105.217 231.896 105.217C230.472 105.217 229.371 105.681 228.593 106.609C227.834 107.537 227.454 108.768 227.454 110.302C227.454 111.154 227.559 111.884 227.768 112.49C227.995 113.096 228.29 113.598 228.65 113.995C229.03 114.393 229.457 114.687 229.931 114.876C230.425 115.066 230.928 115.16 231.44 115.16C232.142 115.16 232.788 115.066 233.376 114.876C233.965 114.668 234.43 114.431 234.771 114.166V105.529Z" fill="#27235C"/>
<path d="M244.768 114.734C244.787 114.886 244.796 115.037 244.796 115.189C244.796 115.321 244.796 115.463 244.796 115.615C244.796 116.808 244.616 117.982 244.255 119.138C243.914 120.312 243.439 121.429 242.832 122.49L240.782 121.837C241.256 120.871 241.57 119.886 241.721 118.882C241.873 117.897 241.949 116.969 241.949 116.098C241.949 115.852 241.94 115.615 241.921 115.388C241.921 115.16 241.911 114.942 241.892 114.734H244.768Z" fill="#27235C"/>
<path d="M254.947 108.115C254.947 106.429 255.193 104.942 255.687 103.654C256.199 102.366 256.883 101.296 257.737 100.444C258.61 99.5725 259.616 98.919 260.755 98.4834C261.912 98.0478 263.137 97.83 264.427 97.83C265.699 97.83 266.895 98.0478 268.014 98.4834C269.153 98.919 270.15 99.5725 271.004 100.444C271.858 101.296 272.532 102.366 273.025 103.654C273.538 104.942 273.794 106.429 273.794 108.115C273.794 109.8 273.538 111.287 273.025 112.575C272.532 113.863 271.858 114.942 271.004 115.814C270.15 116.666 269.153 117.31 268.014 117.746C266.895 118.181 265.699 118.399 264.427 118.399C263.137 118.399 261.912 118.181 260.755 117.746C259.616 117.31 258.61 116.666 257.737 115.814C256.883 114.942 256.199 113.863 255.687 112.575C255.193 111.287 254.947 109.8 254.947 108.115ZM257.851 108.115C257.851 109.308 258.003 110.397 258.306 111.382C258.61 112.348 259.037 113.172 259.587 113.853C260.157 114.535 260.84 115.066 261.637 115.444C262.453 115.804 263.364 115.984 264.37 115.984C265.376 115.984 266.278 115.804 267.075 115.444C267.872 115.066 268.546 114.535 269.096 113.853C269.666 113.172 270.102 112.348 270.406 111.382C270.71 110.397 270.861 109.308 270.861 108.115C270.861 106.921 270.71 105.842 270.406 104.876C270.102 103.891 269.666 103.057 269.096 102.376C268.546 101.694 267.872 101.173 267.075 100.813C266.278 100.434 265.376 100.245 264.37 100.245C263.364 100.245 262.453 100.434 261.637 100.813C260.84 101.173 260.157 101.694 259.587 102.376C259.037 103.057 258.61 103.891 258.306 104.876C258.003 105.842 257.851 106.921 257.851 108.115Z" fill="#27235C"/>
<path d="M289.518 117.547C288.911 117.698 288.104 117.859 287.098 118.03C286.111 118.2 284.963 118.285 283.653 118.285C282.515 118.285 281.556 118.124 280.778 117.802C280 117.461 279.374 116.988 278.899 116.382C278.425 115.776 278.083 115.066 277.874 114.251C277.665 113.418 277.561 112.499 277.561 111.495V103.2H280.209V110.927C280.209 112.726 280.493 114.014 281.063 114.791C281.632 115.567 282.591 115.956 283.938 115.956C284.223 115.956 284.517 115.946 284.821 115.927C285.124 115.908 285.409 115.889 285.675 115.871C285.941 115.833 286.178 115.804 286.387 115.785C286.614 115.747 286.776 115.71 286.871 115.672V103.2H289.518V117.547Z" fill="#27235C"/>
<path d="M299.546 102.887C299.774 102.887 300.03 102.906 300.315 102.944C300.618 102.963 300.912 103.001 301.197 103.057C301.482 103.095 301.738 103.143 301.966 103.2C302.213 103.237 302.393 103.275 302.507 103.313L302.051 105.614C301.842 105.539 301.491 105.453 300.998 105.359C300.523 105.245 299.906 105.188 299.147 105.188C298.654 105.188 298.16 105.245 297.667 105.359C297.192 105.453 296.879 105.52 296.727 105.558V117.973H294.08V103.825C294.706 103.597 295.484 103.389 296.414 103.2C297.344 102.991 298.388 102.887 299.546 102.887Z" fill="#27235C"/>
<path d="M321.473 109.734C321.777 110.113 322.156 110.615 322.612 111.24C323.086 111.846 323.57 112.528 324.064 113.285C324.557 114.024 325.041 114.8 325.516 115.615C326.009 116.429 326.427 117.215 326.768 117.973H323.751C323.371 117.253 322.953 116.524 322.498 115.785C322.061 115.047 321.615 114.346 321.16 113.683C320.704 113.001 320.249 112.367 319.793 111.779C319.357 111.192 318.958 110.681 318.598 110.245C318.351 110.264 318.095 110.274 317.829 110.274C317.582 110.274 317.326 110.274 317.06 110.274H314.583V117.973H311.822V98.5687C312.6 98.3793 313.463 98.2561 314.412 98.1993C315.38 98.1236 316.263 98.0857 317.06 98.0857C319.831 98.0857 321.938 98.6065 323.38 99.6482C324.842 100.69 325.573 102.243 325.573 104.308C325.573 105.614 325.222 106.732 324.519 107.66C323.836 108.588 322.821 109.279 321.473 109.734ZM317.288 100.501C316.111 100.501 315.21 100.529 314.583 100.586V108.001H316.548C317.497 108.001 318.351 107.954 319.11 107.859C319.869 107.764 320.505 107.584 321.017 107.319C321.549 107.054 321.957 106.685 322.242 106.211C322.526 105.719 322.669 105.075 322.669 104.279C322.669 103.54 322.526 102.925 322.242 102.432C321.957 101.94 321.568 101.552 321.074 101.268C320.6 100.984 320.031 100.785 319.366 100.671C318.721 100.557 318.028 100.501 317.288 100.501Z" fill="#27235C"/>
<path d="M328.73 110.615C328.73 109.308 328.92 108.171 329.3 107.205C329.679 106.22 330.182 105.406 330.808 104.762C331.435 104.118 332.156 103.635 332.972 103.313C333.788 102.991 334.623 102.83 335.477 102.83C337.47 102.83 338.998 103.455 340.061 104.705C341.124 105.936 341.655 107.821 341.655 110.359C341.655 110.473 341.655 110.624 341.655 110.813C341.655 110.984 341.646 111.145 341.627 111.296H331.492C331.606 112.831 332.052 113.995 332.83 114.791C333.608 115.586 334.823 115.984 336.474 115.984C337.404 115.984 338.182 115.908 338.808 115.757C339.454 115.586 339.938 115.425 340.26 115.274L340.631 117.49C340.308 117.66 339.738 117.84 338.922 118.03C338.125 118.219 337.214 118.314 336.189 118.314C334.899 118.314 333.779 118.124 332.83 117.746C331.9 117.348 331.131 116.808 330.524 116.126C329.916 115.444 329.461 114.639 329.157 113.711C328.872 112.764 328.73 111.732 328.73 110.615ZM338.894 109.166C338.913 107.972 338.609 106.997 337.983 106.239C337.375 105.463 336.531 105.075 335.449 105.075C334.842 105.075 334.301 105.198 333.826 105.444C333.371 105.671 332.982 105.974 332.659 106.353C332.336 106.732 332.08 107.168 331.89 107.66C331.719 108.152 331.606 108.654 331.549 109.166H338.894Z" fill="#27235C"/>
<path d="M348.904 116.069C349.986 116.069 350.783 115.927 351.295 115.643C351.827 115.359 352.092 114.905 352.092 114.28C352.092 113.636 351.836 113.124 351.324 112.745C350.811 112.367 349.967 111.94 348.79 111.467C348.22 111.24 347.67 111.012 347.139 110.785C346.626 110.539 346.18 110.255 345.8 109.933C345.421 109.611 345.117 109.223 344.889 108.768C344.662 108.313 344.548 107.755 344.548 107.092C344.548 105.785 345.032 104.753 346 103.995C346.968 103.218 348.287 102.83 349.957 102.83C350.375 102.83 350.792 102.859 351.21 102.915C351.627 102.953 352.016 103.01 352.377 103.086C352.738 103.143 353.051 103.209 353.317 103.285C353.601 103.361 353.819 103.427 353.971 103.484L353.487 105.756C353.203 105.605 352.757 105.453 352.149 105.302C351.542 105.131 350.811 105.046 349.957 105.046C349.217 105.046 348.572 105.198 348.021 105.501C347.471 105.785 347.195 106.239 347.195 106.864C347.195 107.186 347.252 107.471 347.366 107.717C347.499 107.963 347.689 108.19 347.936 108.399C348.201 108.588 348.524 108.768 348.904 108.938C349.283 109.109 349.739 109.289 350.27 109.478C350.972 109.743 351.599 110.009 352.149 110.274C352.7 110.52 353.165 110.813 353.544 111.154C353.943 111.495 354.247 111.912 354.455 112.404C354.664 112.878 354.768 113.465 354.768 114.166C354.768 115.53 354.256 116.562 353.231 117.263C352.225 117.963 350.783 118.314 348.904 118.314C347.594 118.314 346.569 118.2 345.829 117.973C345.089 117.765 344.586 117.604 344.32 117.49L344.804 115.217C345.108 115.331 345.592 115.501 346.256 115.728C346.92 115.956 347.803 116.069 348.904 116.069Z" fill="#27235C"/>
<path d="M368.442 110.615C368.442 108.891 368.015 107.565 367.161 106.637C366.307 105.709 365.168 105.245 363.745 105.245C362.948 105.245 362.321 105.273 361.866 105.33C361.429 105.387 361.078 105.453 360.812 105.529V114.848C361.135 115.113 361.6 115.369 362.207 115.615C362.815 115.861 363.479 115.984 364.2 115.984C364.959 115.984 365.605 115.852 366.136 115.586C366.687 115.302 367.133 114.924 367.474 114.45C367.816 113.958 368.063 113.389 368.214 112.745C368.366 112.082 368.442 111.372 368.442 110.615ZM371.204 110.615C371.204 111.732 371.052 112.764 370.748 113.711C370.464 114.658 370.037 115.473 369.467 116.155C368.898 116.836 368.195 117.367 367.36 117.746C366.544 118.124 365.605 118.314 364.542 118.314C363.688 118.314 362.929 118.2 362.264 117.973C361.619 117.746 361.135 117.528 360.812 117.319V123.229H358.165V103.654C358.791 103.503 359.569 103.342 360.499 103.171C361.448 102.982 362.539 102.887 363.773 102.887C364.912 102.887 365.937 103.067 366.848 103.427C367.759 103.787 368.537 104.298 369.182 104.961C369.828 105.624 370.321 106.438 370.663 107.404C371.023 108.351 371.204 109.421 371.204 110.615Z" fill="#27235C"/>
<path d="M387.997 110.586C387.997 111.76 387.826 112.821 387.485 113.768C387.143 114.715 386.659 115.53 386.033 116.211C385.425 116.893 384.695 117.424 383.841 117.802C382.987 118.162 382.057 118.342 381.051 118.342C380.045 118.342 379.115 118.162 378.261 117.802C377.406 117.424 376.666 116.893 376.04 116.211C375.433 115.53 374.958 114.715 374.616 113.768C374.275 112.821 374.104 111.76 374.104 110.586C374.104 109.431 374.275 108.38 374.616 107.433C374.958 106.467 375.433 105.643 376.04 104.961C376.666 104.279 377.406 103.758 378.261 103.398C379.115 103.02 380.045 102.83 381.051 102.83C382.057 102.83 382.987 103.02 383.841 103.398C384.695 103.758 385.425 104.279 386.033 104.961C386.659 105.643 387.143 106.467 387.485 107.433C387.826 108.38 387.997 109.431 387.997 110.586ZM385.236 110.586C385.236 108.919 384.856 107.603 384.097 106.637C383.357 105.652 382.341 105.16 381.051 105.16C379.76 105.16 378.735 105.652 377.976 106.637C377.236 107.603 376.866 108.919 376.866 110.586C376.866 112.253 377.236 113.579 377.976 114.564C378.735 115.53 379.76 116.013 381.051 116.013C382.341 116.013 383.357 115.53 384.097 114.564C384.856 113.579 385.236 112.253 385.236 110.586Z" fill="#27235C"/>
<path d="M391.722 103.626C392.33 103.474 393.136 103.313 394.142 103.143C395.148 102.972 396.306 102.887 397.616 102.887C398.792 102.887 399.77 103.057 400.548 103.398C401.326 103.72 401.943 104.184 402.399 104.791C402.873 105.378 403.205 106.088 403.395 106.921C403.585 107.755 403.68 108.673 403.68 109.677V117.973H401.032V110.245C401.032 109.336 400.966 108.56 400.833 107.916C400.719 107.272 400.52 106.751 400.235 106.353C399.95 105.955 399.571 105.671 399.096 105.501C398.622 105.311 398.033 105.217 397.331 105.217C397.046 105.217 396.752 105.226 396.448 105.245C396.145 105.264 395.85 105.292 395.566 105.33C395.3 105.349 395.053 105.378 394.826 105.416C394.617 105.453 394.465 105.482 394.37 105.501V117.973H391.722V103.626Z" fill="#27235C"/>
<path d="M411.515 116.069C412.597 116.069 413.394 115.927 413.907 115.643C414.438 115.359 414.704 114.905 414.704 114.28C414.704 113.636 414.448 113.124 413.935 112.745C413.423 112.367 412.578 111.94 411.401 111.467C410.832 111.24 410.281 111.012 409.75 110.785C409.238 110.539 408.792 110.255 408.412 109.933C408.032 109.611 407.729 109.223 407.501 108.768C407.273 108.313 407.159 107.755 407.159 107.092C407.159 105.785 407.643 104.753 408.611 103.995C409.579 103.218 410.898 102.83 412.568 102.83C412.986 102.83 413.404 102.859 413.821 102.915C414.239 102.953 414.628 103.01 414.988 103.086C415.349 103.143 415.662 103.209 415.928 103.285C416.213 103.361 416.431 103.427 416.583 103.484L416.099 105.756C415.814 105.605 415.368 105.453 414.761 105.302C414.153 105.131 413.423 105.046 412.568 105.046C411.828 105.046 411.183 105.198 410.633 105.501C410.082 105.785 409.807 106.239 409.807 106.864C409.807 107.186 409.864 107.471 409.978 107.717C410.111 107.963 410.3 108.19 410.547 108.399C410.813 108.588 411.136 108.768 411.515 108.938C411.895 109.109 412.35 109.289 412.882 109.478C413.584 109.743 414.21 110.009 414.761 110.274C415.311 110.52 415.776 110.813 416.156 111.154C416.554 111.495 416.858 111.912 417.067 112.404C417.276 112.878 417.38 113.465 417.38 114.166C417.38 115.53 416.867 116.562 415.843 117.263C414.837 117.963 413.394 118.314 411.515 118.314C410.206 118.314 409.181 118.2 408.44 117.973C407.7 117.765 407.197 117.604 406.931 117.49L407.415 115.217C407.719 115.331 408.203 115.501 408.867 115.728C409.532 115.956 410.414 116.069 411.515 116.069Z" fill="#27235C"/>
<path d="M423.424 117.973H420.776V103.2H423.424V117.973ZM422.086 100.529C421.611 100.529 421.203 100.377 420.861 100.074C420.539 99.7524 420.377 99.3263 420.377 98.7959C420.377 98.2656 420.539 97.8489 420.861 97.5459C421.203 97.2239 421.611 97.0629 422.086 97.0629C422.56 97.0629 422.959 97.2239 423.281 97.5459C423.623 97.8489 423.794 98.2656 423.794 98.7959C423.794 99.3263 423.623 99.7524 423.281 100.074C422.959 100.377 422.56 100.529 422.086 100.529Z" fill="#27235C"/>
<path d="M430.625 103.853C430.947 103.645 431.431 103.427 432.077 103.2C432.741 102.972 433.5 102.859 434.354 102.859C435.417 102.859 436.357 103.048 437.173 103.427C438.008 103.806 438.71 104.336 439.279 105.018C439.849 105.7 440.276 106.514 440.561 107.461C440.864 108.408 441.016 109.45 441.016 110.586C441.016 111.779 440.836 112.859 440.475 113.825C440.134 114.772 439.64 115.577 438.995 116.24C438.349 116.903 437.571 117.414 436.66 117.774C435.749 118.134 434.724 118.314 433.585 118.314C432.352 118.314 431.26 118.229 430.311 118.058C429.362 117.888 428.584 117.717 427.977 117.547V96.3811L430.625 95.9265V103.853ZM430.625 115.672C430.89 115.747 431.26 115.823 431.735 115.899C432.228 115.956 432.836 115.984 433.557 115.984C434.981 115.984 436.119 115.52 436.973 114.592C437.827 113.645 438.255 112.31 438.255 110.586C438.255 109.829 438.179 109.118 438.027 108.455C437.875 107.793 437.628 107.224 437.287 106.751C436.945 106.258 436.499 105.88 435.948 105.614C435.417 105.33 434.772 105.188 434.013 105.188C433.291 105.188 432.627 105.311 432.02 105.558C431.412 105.804 430.947 106.06 430.625 106.325V115.672Z" fill="#27235C"/>
<path d="M447.39 117.973H444.742V103.2H447.39V117.973ZM446.051 100.529C445.577 100.529 445.169 100.377 444.827 100.074C444.505 99.7524 444.343 99.3263 444.343 98.7959C444.343 98.2656 444.505 97.8489 444.827 97.5459C445.169 97.2239 445.577 97.0629 446.051 97.0629C446.526 97.0629 446.925 97.2239 447.247 97.5459C447.589 97.8489 447.76 98.2656 447.76 98.7959C447.76 99.3263 447.589 99.7524 447.247 100.074C446.925 100.377 446.526 100.529 446.051 100.529Z" fill="#27235C"/>
<path d="M456.384 118.257C454.752 118.219 453.594 117.869 452.911 117.206C452.227 116.543 451.886 115.511 451.886 114.109V96.3811L454.534 95.9265V113.683C454.534 114.119 454.571 114.478 454.647 114.763C454.723 115.047 454.847 115.274 455.018 115.444C455.188 115.615 455.416 115.747 455.701 115.842C455.985 115.918 456.337 115.984 456.754 116.041L456.384 118.257Z" fill="#27235C"/>
<path d="M462.375 117.973H459.727V103.2H462.375V117.973ZM461.037 100.529C460.563 100.529 460.154 100.377 459.813 100.074C459.49 99.7524 459.329 99.3263 459.329 98.7959C459.329 98.2656 459.49 97.8489 459.813 97.5459C460.154 97.2239 460.563 97.0629 461.037 97.0629C461.512 97.0629 461.91 97.2239 462.233 97.5459C462.574 97.8489 462.745 98.2656 462.745 98.7959C462.745 99.3263 462.574 99.7524 462.233 100.074C461.91 100.377 461.512 100.529 461.037 100.529Z" fill="#27235C"/>
<path d="M469.405 103.2H475.014V105.416H469.405V112.234C469.405 112.973 469.462 113.588 469.576 114.081C469.69 114.554 469.861 114.933 470.088 115.217C470.316 115.482 470.601 115.672 470.943 115.785C471.284 115.899 471.683 115.956 472.138 115.956C472.935 115.956 473.571 115.871 474.046 115.7C474.539 115.511 474.881 115.378 475.071 115.302L475.583 117.49C475.317 117.622 474.852 117.783 474.188 117.973C473.524 118.181 472.765 118.285 471.911 118.285C470.905 118.285 470.069 118.162 469.405 117.916C468.76 117.651 468.238 117.263 467.839 116.751C467.441 116.24 467.156 115.615 466.985 114.876C466.833 114.119 466.758 113.247 466.758 112.262V99.08L469.405 98.6255V103.2Z" fill="#27235C"/>
<path d="M476.646 120.729C476.855 120.823 477.121 120.909 477.443 120.984C477.785 121.079 478.117 121.126 478.44 121.126C479.484 121.126 480.3 120.89 480.888 120.416C481.477 119.962 482.008 119.213 482.483 118.172C481.287 115.899 480.167 113.494 479.123 110.956C478.098 108.399 477.244 105.813 476.561 103.2H479.408C479.617 104.052 479.863 104.97 480.148 105.955C480.452 106.94 480.784 107.954 481.145 108.995C481.505 110.037 481.894 111.079 482.312 112.12C482.729 113.162 483.166 114.166 483.621 115.132C484.343 113.143 484.969 111.173 485.5 109.223C486.032 107.272 486.535 105.264 487.009 103.2H489.742C489.059 105.984 488.3 108.664 487.465 111.24C486.63 113.797 485.728 116.193 484.76 118.427C484.381 119.28 483.982 120.009 483.565 120.615C483.166 121.24 482.72 121.751 482.226 122.149C481.733 122.547 481.173 122.841 480.547 123.03C479.939 123.219 479.247 123.314 478.468 123.314C478.26 123.314 478.041 123.295 477.814 123.257C477.586 123.238 477.358 123.2 477.13 123.144C476.922 123.106 476.722 123.058 476.532 123.002C476.362 122.945 476.238 122.897 476.162 122.859L476.646 120.729Z" fill="#27235C"/>
<path d="M494.89 116.439C494.89 116.95 494.719 117.395 494.377 117.774C494.036 118.153 493.571 118.342 492.982 118.342C492.394 118.342 491.929 118.153 491.587 117.774C491.246 117.395 491.075 116.95 491.075 116.439C491.075 115.927 491.246 115.482 491.587 115.103C491.929 114.725 492.394 114.535 492.982 114.535C493.571 114.535 494.036 114.725 494.377 115.103C494.719 115.482 494.89 115.927 494.89 116.439Z" fill="#27235C"/>
<path d="M471.911 76.6388C468.656 76.6388 465.734 76.0077 463.143 74.7456C460.619 73.417 458.46 71.6234 456.666 69.3649C454.939 67.1063 453.61 64.5156 452.68 61.5927C451.817 58.6035 451.385 55.4149 451.385 52.027C451.452 48.6392 451.95 45.4838 452.88 42.561C453.81 39.5717 455.138 36.981 456.865 34.7889C458.659 32.5303 460.818 30.77 463.342 29.5078C465.867 28.2457 468.723 27.6146 471.911 27.6146C474.967 27.6146 477.824 28.2457 480.481 29.5078C483.204 30.77 485.596 32.5303 487.655 34.7889C489.781 36.981 491.441 39.5717 492.637 42.561C493.833 45.4838 494.431 48.606 494.431 51.9274C494.431 55.3817 493.833 58.6367 492.637 61.6924C491.441 64.6817 489.814 67.3056 487.755 69.5641C485.695 71.7563 483.304 73.4834 480.58 74.7456C477.857 76.0077 474.967 76.6388 471.911 76.6388ZM470.317 64.9806C472.642 64.9806 474.735 64.4492 476.595 63.3863C478.455 62.257 479.916 60.7292 480.979 58.8027C482.108 56.8763 482.673 54.6842 482.673 52.2263C482.673 49.702 482.108 47.4767 480.979 45.5503C479.916 43.5574 478.455 42.0296 476.595 40.9667C474.735 39.8374 472.642 39.2728 470.317 39.2728C468.059 39.2728 465.999 39.8374 464.139 40.9667C462.279 42.096 460.785 43.6238 459.655 45.5503C458.593 47.4767 458.061 49.702 458.061 52.2263C458.061 54.6842 458.593 56.8763 459.655 58.8027C460.785 60.7292 462.279 62.257 464.139 63.3863C465.999 64.4492 468.059 64.9806 470.317 64.9806ZM451.883 76.7384C450.09 76.7384 448.761 76.4395 447.898 75.8416C447.034 75.3102 446.503 74.6127 446.303 73.7491C446.104 72.8191 446.004 71.7895 446.004 70.6602V11.2732C446.004 10.1439 446.104 9.14751 446.303 8.28394C446.503 7.35394 447.034 6.62323 447.898 6.0918C448.761 5.56037 450.09 5.29466 451.883 5.29466C453.743 5.29466 455.072 5.56037 455.869 6.0918C456.666 6.62323 457.164 7.35394 457.364 8.28394C457.563 9.21393 457.663 10.2104 457.663 11.2732V72.6531C457.397 74.1145 456.832 75.1441 455.969 75.742C455.172 76.4063 453.81 76.7384 451.883 76.7384Z" fill="#27235C" stroke="#27235C" stroke-width="0.2"/>
<path d="M416.306 77.3377C411.988 77.3377 408.202 76.6402 404.947 75.2452C401.758 73.8502 399.068 71.957 396.876 69.5655C394.75 67.1077 393.123 64.3841 391.993 61.3948C390.93 58.3391 390.399 55.1838 390.399 51.9288C390.399 47.146 391.495 42.8945 393.687 39.1745C395.879 35.4546 398.902 32.5317 402.755 30.406C406.674 28.2803 411.158 27.2174 416.206 27.2174C419.794 27.2174 422.949 27.7821 425.672 28.9114C428.396 30.0406 430.655 31.5353 432.448 33.3953C434.308 35.1888 435.703 37.1817 436.633 39.3738C437.63 41.566 438.128 43.6917 438.128 45.751C438.128 49.2717 437.264 51.8292 435.537 53.4234C433.876 55.0177 431.784 55.8149 429.26 55.8149H402.954C403.02 58.0734 403.718 60.0331 405.046 61.6938C406.441 63.3545 408.169 64.6498 410.228 65.5798C412.354 66.4434 414.512 66.8752 416.705 66.8752C418.365 66.8752 419.827 66.7755 421.089 66.5763C422.417 66.377 423.547 66.1445 424.477 65.8788C425.407 65.5466 426.204 65.2145 426.868 64.8823C427.599 64.5502 428.263 64.2513 428.861 63.9855C429.459 63.7198 430.024 63.5538 430.555 63.4873C431.286 63.4209 432.016 63.587 432.747 63.9855C433.478 64.3841 434.076 65.0816 434.541 66.078C434.939 66.7423 435.205 67.3734 435.338 67.9713C435.537 68.5027 435.637 69.0341 435.637 69.5655C435.637 70.8941 434.84 72.1562 433.245 73.352C431.651 74.4812 429.392 75.4112 426.47 76.142C423.613 76.9391 420.225 77.3377 416.306 77.3377ZM402.954 48.7402H423.381C424.51 48.7402 425.374 48.5742 425.971 48.242C426.569 47.8435 426.868 47.0463 426.868 45.8506C426.868 44.3227 426.403 42.961 425.473 41.7653C424.543 40.5031 423.281 39.5399 421.687 38.8756C420.092 38.1449 418.232 37.7796 416.107 37.7796C413.649 37.7796 411.424 38.2778 409.431 39.2742C407.438 40.2042 405.844 41.4995 404.648 43.1603C403.519 44.821 402.954 46.681 402.954 48.7402Z" fill="#27235C" stroke="#27235C" stroke-width="0.2"/>
<path d="M327.159 76.4433C325.83 76.4433 324.768 76.2108 323.97 75.7458C323.173 75.2144 322.575 74.6165 322.177 73.9522C321.845 73.2879 321.612 72.7233 321.479 72.2583L301.949 15.0635C301.285 12.9377 301.185 11.3435 301.65 10.2806C302.115 9.15133 303.477 8.22133 305.736 7.49062C307.264 6.95919 308.493 6.72669 309.423 6.79312C310.353 6.85955 311.117 7.25812 311.714 7.98884C312.379 8.65312 312.943 9.71597 313.408 11.1774L327.757 54.6216L340.611 11.576C340.81 10.9117 341.076 10.2474 341.408 9.58312C341.806 8.85241 342.404 8.25455 343.202 7.78955C343.999 7.32455 345.095 7.09205 346.49 7.09205C348.084 7.09205 349.28 7.35777 350.077 7.88919C350.874 8.42062 351.439 9.01847 351.771 9.68276C352.169 10.2806 352.435 10.8453 352.568 11.3767L365.422 54.9205L379.87 11.277C380.335 9.74919 380.866 8.61991 381.464 7.88919C382.129 7.15848 382.959 6.75991 383.955 6.69348C384.952 6.56062 386.181 6.75991 387.642 7.29134C389.17 7.82277 390.266 8.42062 390.93 9.0849C391.595 9.68276 391.927 10.4799 391.927 11.4763C391.927 12.4063 391.694 13.602 391.229 15.0635L371.799 72.3579C371.666 72.7565 371.4 73.2879 371.002 73.9522C370.67 74.6165 370.105 75.2144 369.308 75.7458C368.511 76.2108 367.415 76.4433 366.02 76.4433C364.625 76.4433 363.529 76.1444 362.731 75.5465C361.934 74.9486 361.336 74.2844 360.938 73.5537C360.539 72.8229 360.274 72.2915 360.141 71.9594L346.589 28.1166L333.038 71.8597C332.905 72.3247 332.639 72.9226 332.241 73.6533C331.909 74.384 331.344 75.0483 330.547 75.6461C329.75 76.1776 328.62 76.4433 327.159 76.4433Z" fill="#27235C" stroke="#27235C" stroke-width="0.2"/>
<path d="M275.347 77.3385C273.62 77.3385 271.793 77.1392 269.867 76.7406C267.94 76.4085 266.08 75.9103 264.287 75.246C262.493 74.5153 260.932 73.6849 259.604 72.7549C258.341 71.7585 257.544 70.6625 257.212 69.4667C256.946 68.8025 256.847 68.1714 256.913 67.5735C256.98 66.9092 257.179 66.245 257.511 65.5807C257.843 64.85 258.341 64.1193 259.006 63.3885C259.604 62.6578 260.201 62.2593 260.799 62.1928C261.464 62.06 262.294 62.2593 263.29 62.7907C264.154 63.1228 265.084 63.5546 266.08 64.086C267.143 64.6175 268.206 65.1489 269.269 65.6803C270.398 66.2117 271.528 66.6435 272.657 66.9757C273.853 67.3078 275.015 67.4739 276.144 67.4739C278.602 67.4739 280.562 67.0753 282.023 66.2782C283.485 65.4146 284.215 64.2189 284.215 62.691C284.215 61.8275 283.983 61.0635 283.518 60.3993C283.053 59.735 282.422 59.2036 281.625 58.805C280.894 58.34 279.997 57.9414 278.934 57.6093C277.938 57.2107 276.842 56.8786 275.646 56.6129C274.517 56.2807 273.321 55.9154 272.059 55.5168C270.398 55.0518 268.738 54.4871 267.077 53.8229C265.416 53.1586 263.921 52.295 262.593 51.2321C261.331 50.1693 260.301 48.8407 259.504 47.2464C258.707 45.6522 258.308 43.6593 258.308 41.2679C258.308 38.2786 259.006 35.7543 260.401 33.6951C261.862 31.5693 263.955 29.9418 266.678 28.8126C269.402 27.6833 272.69 27.1186 276.543 27.1186C277.871 27.1186 279.134 27.2183 280.329 27.4176C281.591 27.6169 282.787 27.9158 283.916 28.3144C285.112 28.6465 286.241 29.0783 287.304 29.6097C288.434 30.1411 289.496 30.739 290.493 31.4033C292.154 32.3333 293.017 33.4293 293.084 34.6915C293.15 35.8872 292.685 37.1825 291.689 38.5775C290.958 39.5075 290.227 40.1718 289.496 40.5704C288.766 40.9025 288.002 40.9025 287.205 40.5704C286.142 40.039 284.979 39.4743 283.717 38.8765C282.521 38.2122 281.259 37.6475 279.931 37.1825C278.669 36.7175 277.34 36.485 275.945 36.485C274.616 36.485 273.421 36.6843 272.358 37.0829C271.295 37.4815 270.498 38.0461 269.966 38.7768C269.435 39.5075 269.169 40.3711 269.169 41.3675C269.169 42.2975 269.435 43.0615 269.966 43.6593C270.498 44.2572 271.195 44.7554 272.059 45.154C272.923 45.5525 273.952 45.9179 275.148 46.25C276.344 46.5157 277.606 46.7814 278.934 47.0472C280.794 47.4457 282.687 47.9439 284.614 48.5418C286.54 49.1397 288.301 49.97 289.895 51.0329C291.556 52.0957 292.884 53.5239 293.881 55.3175C294.877 57.0446 295.375 59.3032 295.375 62.0932C295.375 66.9425 293.582 70.6957 289.995 73.3528C286.474 76.0099 281.591 77.3385 275.347 77.3385Z" fill="#27235C" stroke="#27235C" stroke-width="0.2"/>
<path d="M228.309 77.337C223.991 77.337 220.205 76.6395 216.95 75.2445C213.761 73.8495 211.071 71.9563 208.879 69.5649C206.753 67.1071 205.126 64.3835 203.996 61.3942C202.934 58.3385 202.402 55.1832 202.402 51.9282C202.402 47.1453 203.498 42.8939 205.69 39.1739C207.882 35.4539 210.905 32.5311 214.758 30.4054C218.677 28.2797 223.161 27.2168 228.21 27.2168C231.797 27.2168 234.952 27.7815 237.676 28.9107C240.399 30.04 242.658 31.5347 244.451 33.3947C246.311 35.1882 247.706 37.1811 248.636 39.3732C249.633 41.5653 250.131 43.691 250.131 45.7503C250.131 49.271 249.267 51.8285 247.54 53.4228C245.88 55.0171 243.787 55.8142 241.263 55.8142H214.957C215.024 58.0728 215.721 60.0324 217.05 61.6931C218.445 63.3539 220.172 64.6492 222.231 65.5792C224.357 66.4428 226.516 66.8746 228.708 66.8746C230.368 66.8746 231.83 66.7749 233.092 66.5756C234.421 66.3764 235.55 66.1438 236.48 65.8781C237.41 65.546 238.207 65.2139 238.871 64.8817C239.602 64.5496 240.266 64.2506 240.864 63.9849C241.462 63.7192 242.027 63.5531 242.558 63.4867C243.289 63.4203 244.02 63.5864 244.75 63.9849C245.481 64.3835 246.079 65.081 246.544 66.0774C246.942 66.7417 247.208 67.3728 247.341 67.9706C247.54 68.5021 247.64 69.0335 247.64 69.5649C247.64 70.8935 246.843 72.1556 245.248 73.3513C243.654 74.4806 241.396 75.4106 238.473 76.1413C235.616 76.9385 232.228 77.337 228.309 77.337ZM214.957 48.7396H235.384C236.513 48.7396 237.377 48.5735 237.975 48.2414C238.572 47.8428 238.871 47.0457 238.871 45.85C238.871 44.3221 238.406 42.9603 237.476 41.7646C236.546 40.5025 235.284 39.5393 233.69 38.875C232.096 38.1443 230.236 37.7789 228.11 37.7789C225.652 37.7789 223.427 38.2771 221.434 39.2736C219.441 40.2036 217.847 41.4989 216.651 43.1596C215.522 44.8203 214.957 46.6803 214.957 48.7396Z" fill="#27235C" stroke="#27235C" stroke-width="0.2"/>
<path d="M192.737 76.7427C190.279 76.7427 188.087 76.5766 186.161 76.2445C184.301 75.9123 182.673 75.3477 181.278 74.5505C179.95 73.7534 178.853 72.6905 177.99 71.362C177.126 69.967 176.462 68.2731 175.997 66.2802C175.598 64.2873 175.399 61.8959 175.399 59.1059V11.0782C175.399 9.94891 175.499 8.95249 175.698 8.08892C175.964 7.15892 176.495 6.42821 177.292 5.89678C178.156 5.29893 179.518 5 181.378 5C183.238 5 184.566 5.26571 185.363 5.79714C186.227 6.32857 186.758 7.05928 186.958 7.98928C187.223 8.85284 187.356 9.84927 187.356 10.9786V58.6077C187.356 59.8699 187.423 60.9327 187.556 61.7963C187.755 62.5934 188.054 63.2577 188.452 63.7891C188.917 64.2541 189.482 64.5863 190.146 64.7856C190.877 64.9848 191.741 65.0845 192.737 65.0845C193.601 65.0845 194.364 65.1841 195.029 65.3834C195.759 65.5827 196.324 66.0809 196.723 66.8781C197.188 67.6752 197.42 68.9705 197.42 70.7641C197.42 72.6241 197.188 73.9859 196.723 74.8495C196.324 75.713 195.759 76.2445 195.029 76.4437C194.298 76.643 193.534 76.7427 192.737 76.7427Z" fill="#27235C" stroke="#27235C" stroke-width="0.2"/>
<path d="M158.717 76.7413C156.924 76.7413 155.595 76.4424 154.731 75.8446C153.868 75.3131 153.336 74.6156 153.137 73.7521C152.938 72.8221 152.838 71.7924 152.838 70.6631V33.5961C152.838 32.5332 152.938 31.57 153.137 30.7065C153.403 29.7765 153.934 29.0457 154.731 28.5143C155.595 27.9829 156.957 27.7172 158.817 27.7172C160.677 27.7172 162.005 27.9829 162.803 28.5143C163.666 29.0457 164.198 29.7765 164.397 30.7065C164.596 31.6365 164.696 32.6661 164.696 33.7954V70.7628C164.696 71.8921 164.596 72.9217 164.397 73.8517C164.198 74.7153 163.666 75.4128 162.803 75.9442C162.005 76.4756 160.644 76.7413 158.717 76.7413ZM158.717 18.0518C156.791 18.0518 155.363 17.7861 154.433 17.2547C153.569 16.6569 153.004 15.8597 152.739 14.8633C152.539 13.8669 152.44 12.7708 152.44 11.5751C152.44 10.3129 152.539 9.21687 152.739 8.28687C153.004 7.35687 153.602 6.62616 154.532 6.09473C155.462 5.49688 156.89 5.19795 158.817 5.19795C160.81 5.19795 162.238 5.49688 163.101 6.09473C163.965 6.69259 164.53 7.48973 164.795 8.48616C165.061 9.41615 165.194 10.5122 165.194 11.7744C165.194 12.9036 165.061 13.9665 164.795 14.9629C164.53 15.9594 163.965 16.7233 163.101 17.2547C162.238 17.7861 160.776 18.0518 158.717 18.0518Z" fill="#27235C" stroke="#27235C" stroke-width="0.2"/>
<path d="M76.8789 76.6408C75.1518 76.6408 73.8564 76.375 72.9929 75.8436C72.1293 75.3122 71.5646 74.5815 71.2989 73.6515C71.0996 72.7215 71 71.6918 71 70.5626V13.0688C71 12.0059 71.0996 11.0427 71.2989 10.1792C71.5646 9.24916 72.1293 8.51845 72.9929 7.98702C73.8564 7.38917 75.2182 7.09024 77.0782 7.09024C78.4732 7.09024 79.5028 7.18988 80.1671 7.38917C80.8978 7.52202 81.4625 7.75452 81.8611 8.08666C82.2596 8.35238 82.6582 8.71773 83.0568 9.18273L107.37 43.1608H105.078L129.49 9.08309C129.955 8.55166 130.42 8.15309 130.885 7.88738C131.35 7.62166 131.948 7.42238 132.679 7.28952C133.41 7.15667 134.373 7.09024 135.568 7.09024C137.362 7.09024 138.691 7.38917 139.554 7.98702C140.418 8.51845 140.949 9.24916 141.148 10.1792C141.414 11.1092 141.547 12.1388 141.547 13.2681V70.7618C141.547 71.7583 141.414 72.7215 141.148 73.6515C140.949 74.5815 140.418 75.3122 139.554 75.8436C138.691 76.375 137.329 76.6408 135.469 76.6408C133.675 76.6408 132.347 76.3418 131.483 75.744C130.62 75.2125 130.055 74.4818 129.789 73.5518C129.59 72.6218 129.49 71.6254 129.49 70.5626V27.8159L111.355 54.0219C111.156 54.2876 110.857 54.653 110.459 55.118C110.06 55.5165 109.529 55.8819 108.864 56.214C108.2 56.5462 107.303 56.7122 106.174 56.7122C105.111 56.7122 104.247 56.5462 103.583 56.214C102.919 55.8819 102.387 55.5165 101.989 55.118C101.657 54.7194 101.325 54.3208 100.992 53.9222L82.9571 27.8159V70.7618C82.9571 71.7583 82.8243 72.7215 82.5586 73.6515C82.3593 74.5815 81.8278 75.3122 80.9643 75.8436C80.1007 76.375 78.7389 76.6408 76.8789 76.6408Z" fill="#27235C" stroke="#27235C" stroke-width="0.2"/>
</svg>
