<svg width="320" height="320" viewBox="0 0 320 320" fill="none" xmlns="http://www.w3.org/2000/svg">
<path d="M146.662 203.718C146.662 202.538 147.618 201.582 148.798 201.582H296.191C297.371 201.582 298.328 202.538 298.328 203.718V203.718C298.328 204.898 297.371 205.854 296.191 205.854H148.798C147.619 205.854 146.662 204.898 146.662 203.718V203.718Z" fill="#FFBB00"/>
<path d="M26.5501 187.966V182.795C25.6927 181.468 24.885 180.16 24.127 178.87C23.3689 177.58 22.6544 176.316 21.9834 175.075H24.1083C24.5805 176.092 25.1087 177.128 25.6927 178.182C26.2767 179.223 26.8794 180.228 27.5007 181.195C28.1096 180.228 28.7061 179.223 29.2902 178.182C29.8742 177.128 30.4085 176.092 30.8932 175.075H32.9063C32.2352 176.316 31.5207 177.58 30.7627 178.87C30.0047 180.147 29.2032 181.443 28.3582 182.758V187.966H26.5501Z" fill="#27235C"/>
<path d="M42.1483 183.13C42.1483 183.898 42.0365 184.593 41.8128 185.213C41.5891 185.833 41.2723 186.366 40.8622 186.813C40.4646 187.259 39.9861 187.606 39.4269 187.854C38.8678 188.09 38.2589 188.208 37.6003 188.208C36.9417 188.208 36.3328 188.09 35.7736 187.854C35.2144 187.606 34.7297 187.259 34.3197 186.813C33.922 186.366 33.6114 185.833 33.3877 185.213C33.164 184.593 33.0522 183.898 33.0522 183.13C33.0522 182.373 33.164 181.685 33.3877 181.065C33.6114 180.433 33.922 179.893 34.3197 179.447C34.7297 179 35.2144 178.659 35.7736 178.424C36.3328 178.176 36.9417 178.052 37.6003 178.052C38.2589 178.052 38.8678 178.176 39.4269 178.424C39.9861 178.659 40.4646 179 40.8622 179.447C41.2723 179.893 41.5891 180.433 41.8128 181.065C42.0365 181.685 42.1483 182.373 42.1483 183.13ZM40.3403 183.13C40.3403 182.038 40.0918 181.177 39.5947 180.544C39.1101 179.899 38.4453 179.577 37.6003 179.577C36.7553 179.577 36.0842 179.899 35.5872 180.544C35.1025 181.177 34.8602 182.038 34.8602 183.13C34.8602 184.221 35.1025 185.089 35.5872 185.734C36.0842 186.366 36.7553 186.682 37.6003 186.682C38.4453 186.682 39.1101 186.366 39.5947 185.734C40.0918 185.089 40.3403 184.221 40.3403 183.13Z" fill="#27235C"/>
<path d="M52.3041 187.687C51.9064 187.786 51.3783 187.891 50.7197 188.003C50.0735 188.115 49.3217 188.17 48.4643 188.17C47.7187 188.17 47.0912 188.065 46.5817 187.854C46.0722 187.631 45.6621 187.321 45.3515 186.924C45.0408 186.527 44.8171 186.062 44.6804 185.529C44.5437 184.984 44.4754 184.382 44.4754 183.725V178.293H46.2089V183.353C46.2089 184.531 46.3953 185.374 46.7681 185.883C47.1409 186.391 47.7684 186.645 48.6507 186.645C48.8371 186.645 49.0297 186.639 49.2285 186.627C49.4273 186.614 49.6137 186.602 49.7877 186.589C49.9617 186.565 50.117 186.546 50.2537 186.534C50.4028 186.509 50.5084 186.484 50.5706 186.459V178.293H52.3041V187.687Z" fill="#27235C"/>
<path d="M58.8693 178.089C59.0184 178.089 59.1862 178.101 59.3726 178.126C59.5714 178.138 59.764 178.163 59.9504 178.2C60.1368 178.225 60.3046 178.256 60.4537 178.293C60.6152 178.318 60.7333 178.343 60.8078 178.368L60.5096 179.874C60.3729 179.825 60.143 179.769 59.8199 179.707C59.5093 179.633 59.1054 179.595 58.6083 179.595C58.2853 179.595 57.9622 179.633 57.6391 179.707C57.3284 179.769 57.1234 179.812 57.024 179.837V187.966H55.2905V178.703C55.7006 178.554 56.21 178.417 56.8189 178.293C57.4278 178.157 58.1113 178.089 58.8693 178.089Z" fill="#27235C"/>
<path d="M75.0334 175.075H76.8415V187.966H75.0334V182.014H68.7146V187.966H66.9065V175.075H68.7146V180.451H75.0334V175.075Z" fill="#27235C"/>
<path d="M88.4927 183.13C88.4927 183.898 88.3809 184.593 88.1572 185.213C87.9335 185.833 87.6167 186.366 87.2066 186.813C86.8089 187.259 86.3305 187.606 85.7713 187.854C85.2121 188.09 84.6032 188.208 83.9446 188.208C83.286 188.208 82.6771 188.09 82.118 187.854C81.5588 187.606 81.0741 187.259 80.6641 186.813C80.2664 186.366 79.9557 185.833 79.7321 185.213C79.5084 184.593 79.3966 183.898 79.3966 183.13C79.3966 182.373 79.5084 181.685 79.7321 181.065C79.9557 180.433 80.2664 179.893 80.6641 179.447C81.0741 179 81.5588 178.659 82.118 178.424C82.6771 178.176 83.286 178.052 83.9446 178.052C84.6032 178.052 85.2121 178.176 85.7713 178.424C86.3305 178.659 86.8089 179 87.2066 179.447C87.6167 179.893 87.9335 180.433 88.1572 181.065C88.3809 181.685 88.4927 182.373 88.4927 183.13ZM86.6847 183.13C86.6847 182.038 86.4361 181.177 85.9391 180.544C85.4545 179.899 84.7896 179.577 83.9446 179.577C83.0996 179.577 82.4286 179.899 81.9316 180.544C81.4469 181.177 81.2046 182.038 81.2046 183.13C81.2046 184.221 81.4469 185.089 81.9316 185.734C82.4286 186.366 83.0996 186.682 83.9446 186.682C84.7896 186.682 85.4545 186.366 85.9391 185.734C86.4361 185.089 86.6847 184.221 86.6847 183.13Z" fill="#27235C"/>
<path d="M93.187 186.72C93.8953 186.72 94.4172 186.627 94.7528 186.441C95.1007 186.255 95.2747 185.957 95.2747 185.548C95.2747 185.126 95.1069 184.791 94.7714 184.543C94.4359 184.295 93.8829 184.016 93.1125 183.706C92.7397 183.557 92.3793 183.409 92.0313 183.26C91.6958 183.099 91.4038 182.913 91.1553 182.702C90.9068 182.491 90.7079 182.237 90.5588 181.939C90.4097 181.642 90.3351 181.276 90.3351 180.842C90.3351 179.986 90.652 179.31 91.2858 178.814C91.9195 178.306 92.7832 178.052 93.8767 178.052C94.1501 178.052 94.4234 178.07 94.6968 178.107C94.9702 178.132 95.225 178.169 95.4611 178.219C95.6972 178.256 95.9022 178.3 96.0762 178.349C96.2626 178.399 96.4055 178.442 96.5049 178.479L96.188 179.967C96.0016 179.868 95.7096 179.769 95.3119 179.67C94.9143 179.558 94.4359 179.502 93.8767 179.502C93.392 179.502 92.9695 179.602 92.6092 179.8C92.2488 179.986 92.0686 180.284 92.0686 180.693C92.0686 180.904 92.1059 181.09 92.1805 181.251C92.2675 181.412 92.3917 181.561 92.5533 181.697C92.7272 181.821 92.9385 181.939 93.187 182.051C93.4355 182.162 93.7338 182.28 94.0817 182.404C94.5415 182.578 94.9516 182.751 95.3119 182.925C95.6723 183.086 95.9768 183.278 96.2253 183.502C96.4862 183.725 96.6851 183.998 96.8217 184.32C96.9584 184.63 97.0268 185.015 97.0268 185.473C97.0268 186.366 96.6913 187.042 96.0202 187.501C95.3616 187.96 94.4172 188.189 93.187 188.189C92.3296 188.189 91.6586 188.115 91.1739 187.966C90.6893 187.829 90.36 187.724 90.186 187.65L90.5029 186.162C90.7017 186.236 91.0186 186.348 91.4535 186.496C91.8885 186.645 92.4663 186.72 93.187 186.72Z" fill="#27235C"/>
<path d="M100.872 178.293H104.544V179.744H100.872V184.208C100.872 184.692 100.909 185.095 100.984 185.418C101.058 185.728 101.17 185.976 101.319 186.162C101.468 186.335 101.655 186.459 101.878 186.534C102.102 186.608 102.363 186.645 102.661 186.645C103.183 186.645 103.6 186.589 103.91 186.478C104.233 186.354 104.457 186.267 104.581 186.217L104.917 187.65C104.743 187.736 104.438 187.842 104.003 187.966C103.568 188.102 103.071 188.17 102.512 188.17C101.854 188.17 101.307 188.09 100.872 187.929C100.449 187.755 100.108 187.501 99.8468 187.166C99.5858 186.831 99.3994 186.422 99.2876 185.938C99.1882 185.442 99.1385 184.872 99.1385 184.227V175.596L100.872 175.299V178.293Z" fill="#27235C"/>
<path d="M108.483 187.966H106.75V178.293H108.483V187.966ZM107.607 176.545C107.297 176.545 107.029 176.446 106.806 176.247C106.595 176.037 106.489 175.758 106.489 175.41C106.489 175.063 106.595 174.79 106.806 174.592C107.029 174.381 107.297 174.276 107.607 174.276C107.918 174.276 108.179 174.381 108.39 174.592C108.614 174.79 108.726 175.063 108.726 175.41C108.726 175.758 108.614 176.037 108.39 176.247C108.179 176.446 107.918 176.545 107.607 176.545Z" fill="#27235C"/>
<path d="M111.464 178.572C111.862 178.473 112.39 178.368 113.049 178.256C113.707 178.145 114.465 178.089 115.323 178.089C116.093 178.089 116.733 178.2 117.243 178.424C117.752 178.634 118.156 178.938 118.454 179.335C118.765 179.719 118.982 180.184 119.107 180.73C119.231 181.276 119.293 181.877 119.293 182.534V187.966H117.56V182.906C117.56 182.311 117.516 181.803 117.429 181.381C117.355 180.96 117.224 180.619 117.038 180.358C116.851 180.098 116.603 179.912 116.292 179.8C115.981 179.676 115.596 179.614 115.136 179.614C114.95 179.614 114.757 179.62 114.559 179.633C114.36 179.645 114.167 179.664 113.981 179.688C113.807 179.701 113.645 179.719 113.496 179.744C113.359 179.769 113.26 179.788 113.198 179.8V187.966H111.464V178.572Z" fill="#27235C"/>
<path d="M128.244 186.999C128.095 187.098 127.803 187.228 127.368 187.389C126.946 187.538 126.449 187.612 125.877 187.612C125.293 187.612 124.74 187.519 124.218 187.333C123.709 187.147 123.261 186.862 122.876 186.478C122.491 186.081 122.186 185.591 121.963 185.008C121.739 184.425 121.627 183.731 121.627 182.925C121.627 182.218 121.733 181.573 121.944 180.991C122.155 180.395 122.46 179.887 122.857 179.465C123.267 179.031 123.764 178.696 124.348 178.461C124.933 178.213 125.591 178.089 126.324 178.089C127.132 178.089 127.834 178.151 128.431 178.275C129.039 178.386 129.549 178.492 129.959 178.591V187.222C129.959 188.71 129.574 189.789 128.803 190.458C128.033 191.128 126.865 191.463 125.299 191.463C124.69 191.463 124.112 191.413 123.566 191.314C123.031 191.215 122.565 191.097 122.168 190.961L122.485 189.454C122.832 189.59 123.255 189.708 123.752 189.807C124.262 189.919 124.79 189.975 125.336 189.975C126.368 189.975 127.107 189.77 127.555 189.361C128.014 188.952 128.244 188.301 128.244 187.408V186.999ZM128.226 179.819C128.052 179.769 127.815 179.726 127.517 179.688C127.231 179.639 126.84 179.614 126.343 179.614C125.411 179.614 124.69 179.918 124.181 180.526C123.684 181.133 123.435 181.939 123.435 182.944C123.435 183.502 123.503 183.979 123.64 184.376C123.789 184.773 123.982 185.101 124.218 185.362C124.467 185.622 124.746 185.814 125.057 185.938C125.38 186.062 125.709 186.124 126.045 186.124C126.504 186.124 126.927 186.062 127.312 185.938C127.697 185.802 128.002 185.647 128.226 185.473V179.819Z" fill="#27235C"/>
<path d="M134.77 185.845C134.783 185.945 134.789 186.044 134.789 186.143C134.789 186.23 134.789 186.323 134.789 186.422C134.789 187.203 134.671 187.972 134.435 188.728C134.211 189.497 133.901 190.229 133.503 190.923L132.161 190.496C132.472 189.863 132.677 189.218 132.776 188.561C132.875 187.916 132.925 187.309 132.925 186.738C132.925 186.577 132.919 186.422 132.906 186.273C132.906 186.124 132.9 185.982 132.888 185.845H134.77Z" fill="#27235C"/>
<path d="M141.435 181.511C141.435 180.408 141.596 179.434 141.919 178.591C142.255 177.748 142.702 177.047 143.262 176.489C143.833 175.919 144.492 175.491 145.237 175.206C145.995 174.92 146.797 174.778 147.642 174.778C148.474 174.778 149.257 174.92 149.99 175.206C150.736 175.491 151.388 175.919 151.948 176.489C152.507 177.047 152.948 177.748 153.271 178.591C153.607 179.434 153.774 180.408 153.774 181.511C153.774 182.615 153.607 183.588 153.271 184.432C152.948 185.275 152.507 185.982 151.948 186.552C151.388 187.11 150.736 187.532 149.99 187.817C149.257 188.102 148.474 188.245 147.642 188.245C146.797 188.245 145.995 188.102 145.237 187.817C144.492 187.532 143.833 187.11 143.262 186.552C142.702 185.982 142.255 185.275 141.919 184.432C141.596 183.588 141.435 182.615 141.435 181.511ZM143.336 181.511C143.336 182.293 143.435 183.006 143.634 183.65C143.833 184.283 144.113 184.822 144.473 185.269C144.846 185.715 145.293 186.062 145.815 186.31C146.349 186.546 146.946 186.664 147.605 186.664C148.263 186.664 148.853 186.546 149.375 186.31C149.897 186.062 150.338 185.715 150.699 185.269C151.072 184.822 151.357 184.283 151.556 183.65C151.755 183.006 151.854 182.293 151.854 181.511C151.854 180.73 151.755 180.023 151.556 179.391C151.357 178.746 151.072 178.2 150.699 177.754C150.338 177.308 149.897 176.967 149.375 176.731C148.853 176.483 148.263 176.359 147.605 176.359C146.946 176.359 146.349 176.483 145.815 176.731C145.293 176.967 144.846 177.308 144.473 177.754C144.113 178.2 143.833 178.746 143.634 179.391C143.435 180.023 143.336 180.73 143.336 181.511Z" fill="#27235C"/>
<path d="M164.069 187.687C163.672 187.786 163.144 187.891 162.485 188.003C161.839 188.115 161.087 188.17 160.23 188.17C159.484 188.17 158.856 188.065 158.347 187.854C157.838 187.631 157.427 187.321 157.117 186.924C156.806 186.527 156.582 186.062 156.446 185.529C156.309 184.984 156.241 184.382 156.241 183.725V178.293H157.974V183.353C157.974 184.531 158.161 185.374 158.533 185.883C158.906 186.391 159.534 186.645 160.416 186.645C160.602 186.645 160.795 186.639 160.994 186.627C161.193 186.614 161.379 186.602 161.553 186.589C161.727 186.565 161.882 186.546 162.019 186.534C162.168 186.509 162.274 186.484 162.336 186.459V178.293H164.069V187.687Z" fill="#27235C"/>
<path d="M170.635 178.089C170.784 178.089 170.951 178.101 171.138 178.126C171.337 178.138 171.529 178.163 171.716 178.2C171.902 178.225 172.07 178.256 172.219 178.293C172.381 178.318 172.499 178.343 172.573 178.368L172.275 179.874C172.138 179.825 171.908 179.769 171.585 179.707C171.275 179.633 170.871 179.595 170.374 179.595C170.051 179.595 169.727 179.633 169.404 179.707C169.094 179.769 168.889 179.812 168.789 179.837V187.966H167.056V178.703C167.466 178.554 167.975 178.417 168.584 178.293C169.193 178.157 169.877 178.089 170.635 178.089Z" fill="#27235C"/>
<path d="M184.991 182.572C185.19 182.82 185.438 183.148 185.736 183.557C186.047 183.954 186.364 184.401 186.687 184.897C187.01 185.38 187.327 185.889 187.638 186.422C187.961 186.955 188.234 187.47 188.458 187.966H186.482C186.233 187.495 185.96 187.017 185.662 186.534C185.376 186.05 185.084 185.591 184.786 185.157C184.487 184.711 184.189 184.295 183.891 183.911C183.605 183.526 183.344 183.192 183.108 182.906C182.947 182.919 182.779 182.925 182.605 182.925C182.443 182.925 182.276 182.925 182.102 182.925H180.48V187.966H178.672V175.261C179.181 175.137 179.747 175.057 180.368 175.02C181.002 174.97 181.58 174.945 182.102 174.945C183.916 174.945 185.295 175.286 186.24 175.968C187.196 176.65 187.675 177.667 187.675 179.019C187.675 179.874 187.445 180.606 186.985 181.214C186.538 181.821 185.873 182.274 184.991 182.572ZM182.251 176.526C181.48 176.526 180.89 176.545 180.48 176.582V181.437H181.766C182.387 181.437 182.947 181.406 183.444 181.344C183.941 181.282 184.357 181.164 184.692 180.991C185.04 180.817 185.308 180.575 185.494 180.265C185.68 179.943 185.774 179.521 185.774 179C185.774 178.517 185.68 178.114 185.494 177.791C185.308 177.469 185.053 177.215 184.73 177.029C184.419 176.843 184.046 176.712 183.611 176.638C183.189 176.564 182.735 176.526 182.251 176.526Z" fill="#27235C"/>
<path d="M189.742 183.148C189.742 182.293 189.866 181.549 190.115 180.916C190.363 180.271 190.693 179.738 191.103 179.316C191.513 178.895 191.985 178.579 192.519 178.368C193.054 178.157 193.6 178.052 194.16 178.052C195.464 178.052 196.465 178.461 197.161 179.279C197.857 180.085 198.204 181.319 198.204 182.981C198.204 183.055 198.204 183.154 198.204 183.278C198.204 183.39 198.198 183.495 198.186 183.595H191.55C191.625 184.599 191.917 185.362 192.426 185.883C192.936 186.403 193.731 186.664 194.812 186.664C195.421 186.664 195.93 186.614 196.341 186.515C196.763 186.403 197.08 186.298 197.291 186.199L197.533 187.65C197.322 187.761 196.949 187.879 196.415 188.003C195.893 188.127 195.297 188.189 194.626 188.189C193.781 188.189 193.048 188.065 192.426 187.817C191.817 187.557 191.314 187.203 190.916 186.757C190.519 186.31 190.22 185.783 190.022 185.176C189.835 184.556 189.742 183.88 189.742 183.148ZM196.396 182.2C196.409 181.418 196.21 180.78 195.8 180.284C195.402 179.775 194.849 179.521 194.141 179.521C193.743 179.521 193.389 179.602 193.079 179.763C192.78 179.912 192.526 180.11 192.314 180.358C192.103 180.606 191.935 180.891 191.811 181.214C191.699 181.536 191.625 181.865 191.587 182.2H196.396Z" fill="#27235C"/>
<path d="M202.95 186.72C203.658 186.72 204.18 186.627 204.516 186.441C204.864 186.255 205.038 185.957 205.038 185.548C205.038 185.126 204.87 184.791 204.534 184.543C204.199 184.295 203.646 184.016 202.875 183.706C202.503 183.557 202.142 183.409 201.794 183.26C201.459 183.099 201.167 182.913 200.918 182.702C200.67 182.491 200.471 182.237 200.322 181.939C200.173 181.642 200.098 181.276 200.098 180.842C200.098 179.986 200.415 179.31 201.049 178.814C201.683 178.306 202.546 178.052 203.64 178.052C203.913 178.052 204.186 178.07 204.46 178.107C204.733 178.132 204.988 178.169 205.224 178.219C205.46 178.256 205.665 178.3 205.839 178.349C206.026 178.399 206.168 178.442 206.268 178.479L205.951 179.967C205.765 179.868 205.473 179.769 205.075 179.67C204.677 179.558 204.199 179.502 203.64 179.502C203.155 179.502 202.733 179.602 202.372 179.8C202.012 179.986 201.832 180.284 201.832 180.693C201.832 180.904 201.869 181.09 201.943 181.251C202.03 181.412 202.155 181.561 202.316 181.697C202.49 181.821 202.702 181.939 202.95 182.051C203.199 182.162 203.497 182.28 203.845 182.404C204.305 182.578 204.715 182.751 205.075 182.925C205.435 183.086 205.74 183.278 205.988 183.502C206.249 183.725 206.448 183.998 206.585 184.32C206.721 184.63 206.79 185.015 206.79 185.473C206.79 186.366 206.454 187.042 205.783 187.501C205.125 187.96 204.18 188.189 202.95 188.189C202.093 188.189 201.422 188.115 200.937 187.966C200.452 187.829 200.123 187.724 199.949 187.65L200.266 186.162C200.465 186.236 200.782 186.348 201.217 186.496C201.651 186.645 202.229 186.72 202.95 186.72Z" fill="#27235C"/>
<path d="M215.742 183.148C215.742 182.02 215.463 181.152 214.903 180.544C214.344 179.936 213.599 179.633 212.667 179.633C212.145 179.633 211.735 179.651 211.436 179.688C211.151 179.726 210.921 179.769 210.747 179.819V185.92C210.958 186.093 211.263 186.261 211.66 186.422C212.058 186.583 212.493 186.664 212.965 186.664C213.462 186.664 213.884 186.577 214.232 186.403C214.593 186.217 214.885 185.969 215.108 185.659C215.332 185.337 215.494 184.965 215.593 184.543C215.693 184.109 215.742 183.644 215.742 183.148ZM217.55 183.148C217.55 183.88 217.451 184.556 217.252 185.176C217.066 185.796 216.786 186.329 216.413 186.775C216.04 187.222 215.581 187.569 215.034 187.817C214.5 188.065 213.884 188.189 213.189 188.189C212.629 188.189 212.132 188.115 211.697 187.966C211.275 187.817 210.958 187.674 210.747 187.538V191.407H209.013V178.591C209.423 178.492 209.933 178.386 210.542 178.275C211.163 178.151 211.878 178.089 212.685 178.089C213.431 178.089 214.102 178.207 214.698 178.442C215.295 178.678 215.804 179.013 216.227 179.447C216.649 179.881 216.972 180.414 217.196 181.046C217.432 181.666 217.55 182.367 217.55 183.148Z" fill="#27235C"/>
<path d="M228.545 183.13C228.545 183.898 228.433 184.593 228.21 185.213C227.986 185.833 227.669 186.366 227.259 186.813C226.861 187.259 226.383 187.606 225.824 187.854C225.265 188.09 224.656 188.208 223.997 188.208C223.339 188.208 222.73 188.09 222.17 187.854C221.611 187.606 221.127 187.259 220.717 186.813C220.319 186.366 220.008 185.833 219.785 185.213C219.561 184.593 219.449 183.898 219.449 183.13C219.449 182.373 219.561 181.685 219.785 181.065C220.008 180.433 220.319 179.893 220.717 179.447C221.127 179 221.611 178.659 222.17 178.424C222.73 178.176 223.339 178.052 223.997 178.052C224.656 178.052 225.265 178.176 225.824 178.424C226.383 178.659 226.861 179 227.259 179.447C227.669 179.893 227.986 180.433 228.21 181.065C228.433 181.685 228.545 182.373 228.545 183.13ZM226.737 183.13C226.737 182.038 226.489 181.177 225.992 180.544C225.507 179.899 224.842 179.577 223.997 179.577C223.152 179.577 222.481 179.899 221.984 180.544C221.499 181.177 221.257 182.038 221.257 183.13C221.257 184.221 221.499 185.089 221.984 185.734C222.481 186.366 223.152 186.682 223.997 186.682C224.842 186.682 225.507 186.366 225.992 185.734C226.489 185.089 226.737 184.221 226.737 183.13Z" fill="#27235C"/>
<path d="M230.984 178.572C231.382 178.473 231.91 178.368 232.568 178.256C233.227 178.145 233.985 178.089 234.843 178.089C235.613 178.089 236.253 178.2 236.762 178.424C237.272 178.634 237.676 178.938 237.974 179.335C238.285 179.719 238.502 180.184 238.626 180.73C238.751 181.276 238.813 181.877 238.813 182.534V187.966H237.079V182.906C237.079 182.311 237.036 181.803 236.949 181.381C236.874 180.96 236.744 180.619 236.557 180.358C236.371 180.098 236.122 179.912 235.812 179.8C235.501 179.676 235.116 179.614 234.656 179.614C234.47 179.614 234.277 179.62 234.078 179.633C233.879 179.645 233.687 179.664 233.5 179.688C233.327 179.701 233.165 179.719 233.016 179.744C232.879 179.769 232.78 179.788 232.718 179.8V187.966H230.984V178.572Z" fill="#27235C"/>
<path d="M243.943 186.72C244.651 186.72 245.173 186.627 245.509 186.441C245.856 186.255 246.03 185.957 246.03 185.548C246.03 185.126 245.863 184.791 245.527 184.543C245.192 184.295 244.639 184.016 243.868 183.706C243.495 183.557 243.135 183.409 242.787 183.26C242.452 183.099 242.16 182.913 241.911 182.702C241.663 182.491 241.464 182.237 241.315 181.939C241.165 181.642 241.091 181.276 241.091 180.842C241.091 179.986 241.408 179.31 242.042 178.814C242.675 178.306 243.539 178.052 244.632 178.052C244.906 178.052 245.179 178.07 245.453 178.107C245.726 178.132 245.981 178.169 246.217 178.219C246.453 178.256 246.658 178.3 246.832 178.349C247.018 178.399 247.161 178.442 247.261 178.479L246.944 179.967C246.757 179.868 246.465 179.769 246.068 179.67C245.67 179.558 245.192 179.502 244.632 179.502C244.148 179.502 243.725 179.602 243.365 179.8C243.005 179.986 242.824 180.284 242.824 180.693C242.824 180.904 242.862 181.09 242.936 181.251C243.023 181.412 243.147 181.561 243.309 181.697C243.483 181.821 243.694 181.939 243.943 182.051C244.191 182.162 244.49 182.28 244.837 182.404C245.297 182.578 245.707 182.751 246.068 182.925C246.428 183.086 246.733 183.278 246.981 183.502C247.242 183.725 247.441 183.998 247.578 184.32C247.714 184.63 247.783 185.015 247.783 185.473C247.783 186.366 247.447 187.042 246.776 187.501C246.117 187.96 245.173 188.189 243.943 188.189C243.085 188.189 242.414 188.115 241.93 187.966C241.445 187.829 241.116 187.724 240.942 187.65L241.259 186.162C241.457 186.236 241.774 186.348 242.209 186.496C242.644 186.645 243.222 186.72 243.943 186.72Z" fill="#27235C"/>
<path d="M251.74 187.966H250.006V178.293H251.74V187.966ZM250.863 176.545C250.553 176.545 250.286 176.446 250.062 176.247C249.851 176.037 249.745 175.758 249.745 175.41C249.745 175.063 249.851 174.79 250.062 174.592C250.286 174.381 250.553 174.276 250.863 174.276C251.174 174.276 251.435 174.381 251.646 174.592C251.87 174.79 251.982 175.063 251.982 175.41C251.982 175.758 251.87 176.037 251.646 176.247C251.435 176.446 251.174 176.545 250.863 176.545Z" fill="#27235C"/>
<path d="M256.454 178.721C256.665 178.585 256.982 178.442 257.405 178.293C257.84 178.145 258.337 178.07 258.896 178.07C259.592 178.07 260.207 178.194 260.741 178.442C261.288 178.69 261.748 179.037 262.121 179.484C262.493 179.93 262.773 180.464 262.959 181.084C263.158 181.704 263.258 182.386 263.258 183.13C263.258 183.911 263.14 184.618 262.903 185.25C262.68 185.87 262.357 186.397 261.934 186.831C261.512 187.265 261.002 187.6 260.406 187.836C259.809 188.071 259.138 188.189 258.393 188.189C257.585 188.189 256.87 188.133 256.249 188.022C255.628 187.91 255.118 187.798 254.721 187.687V173.829L256.454 173.532V178.721ZM256.454 186.459C256.628 186.509 256.87 186.558 257.181 186.608C257.504 186.645 257.902 186.664 258.374 186.664C259.306 186.664 260.052 186.36 260.611 185.752C261.17 185.132 261.45 184.258 261.45 183.13C261.45 182.634 261.4 182.169 261.3 181.735C261.201 181.301 261.039 180.929 260.816 180.619C260.592 180.296 260.3 180.048 259.94 179.874C259.592 179.688 259.169 179.595 258.672 179.595C258.2 179.595 257.765 179.676 257.367 179.837C256.97 179.998 256.665 180.166 256.454 180.34V186.459Z" fill="#27235C"/>
<path d="M267.43 187.966H265.697V178.293H267.43V187.966ZM266.554 176.545C266.244 176.545 265.976 176.446 265.753 176.247C265.542 176.037 265.436 175.758 265.436 175.41C265.436 175.063 265.542 174.79 265.753 174.592C265.976 174.381 266.244 174.276 266.554 174.276C266.865 174.276 267.126 174.381 267.337 174.592C267.561 174.79 267.673 175.063 267.673 175.41C267.673 175.758 267.561 176.037 267.337 176.247C267.126 176.446 266.865 176.545 266.554 176.545Z" fill="#27235C"/>
<path d="M273.319 188.152C272.251 188.127 271.493 187.898 271.045 187.464C270.598 187.03 270.374 186.354 270.374 185.436V173.829L272.108 173.532V185.157C272.108 185.442 272.132 185.678 272.182 185.864C272.232 186.05 272.313 186.199 272.425 186.31C272.536 186.422 272.685 186.509 272.872 186.571C273.058 186.62 273.288 186.664 273.562 186.701L273.319 188.152Z" fill="#27235C"/>
<path d="M277.242 187.966H275.508V178.293H277.242V187.966ZM276.366 176.545C276.055 176.545 275.788 176.446 275.564 176.247C275.353 176.037 275.247 175.758 275.247 175.41C275.247 175.063 275.353 174.79 275.564 174.592C275.788 174.381 276.055 174.276 276.366 174.276C276.676 174.276 276.937 174.381 277.149 174.592C277.372 174.79 277.484 175.063 277.484 175.41C277.484 175.758 277.372 176.037 277.149 176.247C276.937 176.446 276.676 176.545 276.366 176.545Z" fill="#27235C"/>
<path d="M281.844 178.293H285.516V179.744H281.844V184.208C281.844 184.692 281.882 185.095 281.956 185.418C282.031 185.728 282.143 185.976 282.292 186.162C282.441 186.335 282.627 186.459 282.851 186.534C283.075 186.608 283.336 186.645 283.634 186.645C284.156 186.645 284.572 186.589 284.883 186.478C285.206 186.354 285.429 186.267 285.554 186.217L285.889 187.65C285.715 187.736 285.411 187.842 284.976 187.966C284.541 188.102 284.044 188.17 283.485 188.17C282.826 188.17 282.279 188.09 281.844 187.929C281.422 187.755 281.08 187.501 280.819 187.166C280.558 186.831 280.372 186.422 280.26 185.938C280.161 185.442 280.111 184.872 280.111 184.227V175.596L281.844 175.299V178.293Z" fill="#27235C"/>
<path d="M286.585 189.77C286.722 189.832 286.896 189.888 287.107 189.938C287.331 190 287.548 190.031 287.76 190.031C288.443 190.031 288.977 189.876 289.363 189.566C289.748 189.268 290.096 188.778 290.406 188.096C289.624 186.608 288.89 185.033 288.207 183.371C287.536 181.697 286.977 180.005 286.529 178.293H288.393C288.53 178.851 288.692 179.453 288.878 180.098C289.077 180.743 289.294 181.406 289.53 182.088C289.766 182.77 290.021 183.452 290.295 184.134C290.568 184.816 290.854 185.473 291.152 186.106C291.624 184.804 292.034 183.514 292.382 182.237C292.73 180.96 293.059 179.645 293.37 178.293H295.16C294.712 180.116 294.215 181.871 293.668 183.557C293.122 185.232 292.531 186.8 291.898 188.263C291.649 188.821 291.388 189.299 291.115 189.696C290.854 190.105 290.562 190.44 290.239 190.7C289.916 190.961 289.549 191.153 289.139 191.277C288.741 191.401 288.288 191.463 287.778 191.463C287.642 191.463 287.499 191.45 287.35 191.426C287.2 191.413 287.051 191.388 286.902 191.351C286.765 191.326 286.635 191.295 286.511 191.258C286.399 191.221 286.318 191.19 286.268 191.165L286.585 189.77Z" fill="#27235C"/>
<path d="M298.53 186.961C298.53 187.296 298.418 187.588 298.194 187.836C297.97 188.084 297.666 188.208 297.281 188.208C296.896 188.208 296.591 188.084 296.367 187.836C296.144 187.588 296.032 187.296 296.032 186.961C296.032 186.627 296.144 186.335 296.367 186.087C296.591 185.839 296.896 185.715 297.281 185.715C297.666 185.715 297.97 185.839 298.194 186.087C298.418 186.335 298.53 186.627 298.53 186.961Z" fill="#27235C"/>
<path d="M283.484 160.904C281.353 160.904 279.44 160.49 277.743 159.664C276.091 158.794 274.677 157.62 273.503 156.141C272.372 154.662 271.502 152.966 270.893 151.053C270.328 149.095 270.045 147.008 270.045 144.79C270.089 142.572 270.415 140.506 271.024 138.592C271.633 136.635 272.503 134.939 273.633 133.503C274.808 132.025 276.221 130.872 277.874 130.046C279.527 129.219 281.397 128.806 283.484 128.806C285.485 128.806 287.355 129.219 289.095 130.046C290.878 130.872 292.444 132.025 293.792 133.503C295.184 134.939 296.271 136.635 297.054 138.592C297.837 140.506 298.228 142.55 298.228 144.724C298.228 146.986 297.837 149.117 297.054 151.118C296.271 153.075 295.205 154.793 293.857 156.272C292.509 157.707 290.943 158.838 289.16 159.664C287.377 160.49 285.485 160.904 283.484 160.904ZM282.44 153.271C283.963 153.271 285.333 152.923 286.55 152.227C287.768 151.487 288.725 150.487 289.421 149.226C290.16 147.965 290.53 146.529 290.53 144.92C290.53 143.267 290.16 141.81 289.421 140.549C288.725 139.244 287.768 138.244 286.55 137.548C285.333 136.809 283.963 136.439 282.44 136.439C280.962 136.439 279.613 136.809 278.396 137.548C277.178 138.288 276.199 139.288 275.46 140.549C274.764 141.81 274.416 143.267 274.416 144.92C274.416 146.529 274.764 147.965 275.46 149.226C276.199 150.487 277.178 151.487 278.396 152.227C279.613 152.923 280.962 153.271 282.44 153.271ZM270.371 160.969C269.197 160.969 268.327 160.773 267.762 160.382C267.197 160.034 266.849 159.577 266.718 159.012C266.588 158.403 266.522 157.729 266.522 156.989V118.107C266.522 117.368 266.588 116.715 266.718 116.15C266.849 115.541 267.197 115.063 267.762 114.715C268.327 114.367 269.197 114.193 270.371 114.193C271.589 114.193 272.459 114.367 272.981 114.715C273.503 115.063 273.829 115.541 273.96 116.15C274.09 116.759 274.155 117.411 274.155 118.107V158.294C273.981 159.251 273.612 159.925 273.046 160.316C272.524 160.751 271.633 160.969 270.371 160.969Z" fill="#27235C" stroke="#27235C" stroke-width="0.2"/>
<path d="M247.076 161.361C244.249 161.361 241.77 160.904 239.639 159.991C237.551 159.078 235.79 157.838 234.355 156.273C232.963 154.663 231.897 152.88 231.158 150.923C230.462 148.922 230.114 146.856 230.114 144.725C230.114 141.594 230.832 138.81 232.267 136.375C233.702 133.939 235.681 132.026 238.204 130.634C240.77 129.242 243.705 128.546 247.011 128.546C249.359 128.546 251.425 128.916 253.208 129.655C254.992 130.395 256.47 131.373 257.645 132.591C258.862 133.765 259.776 135.07 260.385 136.505C261.037 137.941 261.363 139.332 261.363 140.681C261.363 142.986 260.798 144.66 259.667 145.704C258.58 146.748 257.21 147.27 255.557 147.27H238.334C238.378 148.748 238.834 150.031 239.704 151.119C240.618 152.206 241.748 153.054 243.097 153.663C244.488 154.228 245.902 154.511 247.337 154.511C248.424 154.511 249.381 154.446 250.207 154.315C251.077 154.185 251.817 154.033 252.426 153.859C253.034 153.641 253.556 153.424 253.991 153.206C254.47 152.989 254.905 152.793 255.296 152.619C255.687 152.445 256.057 152.336 256.405 152.293C256.883 152.249 257.362 152.358 257.84 152.619C258.319 152.88 258.71 153.337 259.015 153.989C259.276 154.424 259.45 154.837 259.536 155.229C259.667 155.577 259.732 155.925 259.732 156.273C259.732 157.142 259.21 157.969 258.167 158.752C257.123 159.491 255.644 160.1 253.73 160.578C251.86 161.1 249.642 161.361 247.076 161.361ZM238.334 142.638H251.708C252.447 142.638 253.013 142.529 253.404 142.312C253.796 142.051 253.991 141.529 253.991 140.746C253.991 139.745 253.687 138.854 253.078 138.071C252.469 137.245 251.643 136.614 250.599 136.179C249.555 135.701 248.337 135.462 246.946 135.462C245.336 135.462 243.879 135.788 242.575 136.44C241.27 137.049 240.226 137.897 239.443 138.984C238.704 140.072 238.334 141.289 238.334 142.638Z" fill="#27235C" stroke="#27235C" stroke-width="0.2"/>
<path d="M188.714 160.775C187.844 160.775 187.148 160.623 186.626 160.319C186.105 159.971 185.713 159.579 185.452 159.144C185.235 158.71 185.083 158.34 184.996 158.035L172.209 120.589C171.774 119.197 171.709 118.153 172.013 117.457C172.318 116.718 173.209 116.109 174.688 115.631C175.688 115.283 176.493 115.13 177.102 115.174C177.711 115.217 178.211 115.478 178.602 115.957C179.037 116.392 179.407 117.088 179.711 118.044L189.106 146.488L197.521 118.305C197.652 117.87 197.826 117.436 198.043 117.001C198.304 116.522 198.695 116.131 199.217 115.826C199.739 115.522 200.457 115.37 201.37 115.37C202.414 115.37 203.197 115.544 203.719 115.892C204.241 116.24 204.61 116.631 204.828 117.066C205.089 117.457 205.263 117.827 205.35 118.175L213.765 146.684L223.225 118.11C223.529 117.109 223.877 116.37 224.269 115.892C224.704 115.413 225.247 115.152 225.9 115.109C226.552 115.022 227.357 115.152 228.313 115.5C229.314 115.848 230.031 116.24 230.466 116.674C230.901 117.066 231.119 117.588 231.119 118.24C231.119 118.849 230.966 119.632 230.662 120.589L217.941 158.101C217.854 158.362 217.68 158.71 217.419 159.144C217.201 159.579 216.832 159.971 216.31 160.319C215.788 160.623 215.07 160.775 214.157 160.775C213.243 160.775 212.526 160.58 212.004 160.188C211.482 159.797 211.091 159.362 210.83 158.884C210.569 158.405 210.395 158.057 210.308 157.84L201.435 129.135L192.563 157.774C192.476 158.079 192.302 158.47 192.041 158.949C191.824 159.427 191.454 159.862 190.932 160.254C190.41 160.601 189.671 160.775 188.714 160.775Z" fill="#27235C" stroke="#27235C" stroke-width="0.2"/>
<path d="M154.79 161.362C153.659 161.362 152.463 161.231 151.202 160.97C149.941 160.753 148.723 160.427 147.549 159.992C146.374 159.513 145.352 158.97 144.482 158.361C143.656 157.708 143.134 156.991 142.917 156.208C142.743 155.773 142.678 155.36 142.721 154.968C142.765 154.533 142.895 154.098 143.112 153.664C143.33 153.185 143.656 152.707 144.091 152.228C144.482 151.75 144.874 151.489 145.265 151.445C145.7 151.358 146.244 151.489 146.896 151.837C147.462 152.054 148.071 152.337 148.723 152.685C149.419 153.033 150.115 153.381 150.811 153.729C151.55 154.077 152.289 154.359 153.029 154.577C153.811 154.794 154.573 154.903 155.312 154.903C156.921 154.903 158.204 154.642 159.161 154.12C160.118 153.555 160.596 152.772 160.596 151.772C160.596 151.206 160.444 150.706 160.14 150.271C159.835 149.836 159.422 149.488 158.9 149.227C158.422 148.923 157.834 148.662 157.139 148.444C156.486 148.184 155.769 147.966 154.986 147.792C154.246 147.575 153.464 147.335 152.637 147.074C151.55 146.77 150.463 146.4 149.375 145.965C148.288 145.531 147.309 144.965 146.44 144.269C145.613 143.573 144.939 142.704 144.417 141.66C143.895 140.616 143.634 139.311 143.634 137.745C143.634 135.788 144.091 134.136 145.004 132.787C145.961 131.396 147.331 130.33 149.114 129.591C150.898 128.851 153.05 128.482 155.573 128.482C156.443 128.482 157.269 128.547 158.052 128.677C158.878 128.808 159.661 129.004 160.4 129.264C161.183 129.482 161.923 129.765 162.619 130.113C163.358 130.46 164.054 130.852 164.706 131.287C165.793 131.896 166.359 132.613 166.402 133.44C166.446 134.223 166.141 135.071 165.489 135.984C165.011 136.593 164.532 137.028 164.054 137.289C163.575 137.506 163.075 137.506 162.553 137.289C161.857 136.941 161.096 136.571 160.27 136.18C159.487 135.745 158.661 135.375 157.791 135.071C156.965 134.766 156.095 134.614 155.181 134.614C154.312 134.614 153.529 134.744 152.833 135.005C152.137 135.266 151.615 135.636 151.267 136.114C150.919 136.593 150.745 137.158 150.745 137.811C150.745 138.42 150.919 138.92 151.267 139.311C151.615 139.703 152.072 140.029 152.637 140.29C153.203 140.551 153.877 140.79 154.66 141.007C155.442 141.181 156.269 141.355 157.139 141.529C158.356 141.79 159.596 142.116 160.857 142.508C162.118 142.899 163.271 143.443 164.315 144.139C165.402 144.835 166.272 145.77 166.924 146.944C167.577 148.075 167.903 149.554 167.903 151.38C167.903 154.555 166.729 157.012 164.38 158.752C162.075 160.492 158.878 161.362 154.79 161.362Z" fill="#27235C" stroke="#27235C" stroke-width="0.2"/>
<path d="M123.993 161.361C121.166 161.361 118.687 160.904 116.556 159.991C114.468 159.077 112.707 157.838 111.272 156.272C109.88 154.663 108.814 152.88 108.075 150.923C107.379 148.922 107.031 146.856 107.031 144.725C107.031 141.593 107.749 138.81 109.184 136.374C110.619 133.939 112.598 132.025 115.121 130.633C117.687 129.242 120.622 128.546 123.928 128.546C126.276 128.546 128.342 128.916 130.125 129.655C131.909 130.394 133.387 131.373 134.562 132.591C135.779 133.765 136.693 135.07 137.302 136.505C137.954 137.94 138.28 139.332 138.28 140.68C138.28 142.985 137.715 144.66 136.584 145.703C135.497 146.747 134.127 147.269 132.474 147.269H115.251C115.295 148.748 115.751 150.031 116.621 151.118C117.535 152.206 118.665 153.054 120.014 153.663C121.405 154.228 122.819 154.511 124.254 154.511C125.341 154.511 126.298 154.445 127.124 154.315C127.994 154.184 128.734 154.032 129.343 153.858C129.951 153.641 130.473 153.423 130.908 153.206C131.387 152.988 131.822 152.793 132.213 152.619C132.604 152.445 132.974 152.336 133.322 152.293C133.8 152.249 134.279 152.358 134.757 152.619C135.236 152.88 135.627 153.336 135.932 153.989C136.193 154.424 136.366 154.837 136.453 155.228C136.584 155.576 136.649 155.924 136.649 156.272C136.649 157.142 136.127 157.968 135.083 158.751C134.04 159.49 132.561 160.099 130.647 160.578C128.777 161.1 126.559 161.361 123.993 161.361ZM115.251 142.637H128.625C129.364 142.637 129.93 142.529 130.321 142.311C130.713 142.05 130.908 141.528 130.908 140.745C130.908 139.745 130.604 138.853 129.995 138.071C129.386 137.244 128.56 136.614 127.516 136.179C126.472 135.7 125.254 135.461 123.863 135.461C122.253 135.461 120.796 135.787 119.492 136.44C118.187 137.049 117.143 137.897 116.36 138.984C115.621 140.071 115.251 141.289 115.251 142.637Z" fill="#27235C" stroke="#27235C" stroke-width="0.2"/>
<path d="M100.704 160.971C99.0947 160.971 97.6595 160.863 96.3982 160.645C95.1804 160.428 94.1149 160.058 93.2016 159.536C92.3317 159.014 91.6141 158.318 91.0487 157.449C90.4833 156.535 90.0484 155.426 89.744 154.121C89.483 152.817 89.3525 151.251 89.3525 149.424V117.98C89.3525 117.24 89.4178 116.588 89.5483 116.022C89.7222 115.413 90.0702 114.935 90.5921 114.587C91.1574 114.196 92.049 114 93.2668 114C94.4846 114 95.3544 114.174 95.8763 114.522C96.4417 114.87 96.7896 115.348 96.9201 115.957C97.0941 116.523 97.1811 117.175 97.1811 117.914V149.098C97.1811 149.924 97.2246 150.62 97.3115 151.186C97.442 151.708 97.6377 152.143 97.8987 152.491C98.2031 152.795 98.5728 153.012 99.0077 153.143C99.4861 153.273 100.052 153.339 100.704 153.339C101.269 153.339 101.769 153.404 102.204 153.534C102.683 153.665 103.052 153.991 103.313 154.513C103.618 155.035 103.77 155.883 103.77 157.057C103.77 158.275 103.618 159.167 103.313 159.732C103.052 160.297 102.683 160.645 102.204 160.776C101.726 160.906 101.226 160.971 100.704 160.971Z" fill="#27235C" stroke="#27235C" stroke-width="0.2"/>
<path d="M78.4274 160.971C77.2531 160.971 76.3832 160.775 75.8178 160.384C75.2525 160.036 74.9045 159.579 74.774 159.014C74.6436 158.405 74.5783 157.73 74.5783 156.991V132.723C74.5783 132.027 74.6436 131.396 74.774 130.831C74.948 130.222 75.2959 129.743 75.8178 129.395C76.3832 129.047 77.2748 128.873 78.4926 128.873C79.7104 128.873 80.5802 129.047 81.1021 129.395C81.6675 129.743 82.0154 130.222 82.1459 130.831C82.2764 131.44 82.3416 132.114 82.3416 132.853V157.056C82.3416 157.796 82.2764 158.47 82.1459 159.079C82.0154 159.644 81.6675 160.101 81.1021 160.449C80.5802 160.797 79.6886 160.971 78.4274 160.971ZM78.4274 122.545C77.1661 122.545 76.231 122.371 75.6221 122.023C75.0567 121.632 74.6871 121.11 74.5131 120.458C74.3826 119.805 74.3174 119.088 74.3174 118.305C74.3174 117.479 74.3826 116.761 74.5131 116.152C74.6871 115.543 75.0785 115.065 75.6874 114.717C76.2963 114.325 77.2313 114.13 78.4926 114.13C79.7974 114.13 80.7324 114.325 81.2978 114.717C81.8632 115.108 82.2329 115.63 82.4069 116.282C82.5808 116.891 82.6678 117.609 82.6678 118.435C82.6678 119.175 82.5808 119.871 82.4069 120.523C82.2329 121.175 81.8632 121.676 81.2978 122.023C80.7324 122.371 79.7756 122.545 78.4274 122.545Z" fill="#27235C" stroke="#27235C" stroke-width="0.2"/>
<path d="M24.849 160.905C23.7182 160.905 22.8701 160.731 22.3048 160.383C21.7394 160.035 21.3697 159.557 21.1957 158.948C21.0652 158.339 21 157.665 21 156.925V119.283C21 118.587 21.0652 117.956 21.1957 117.391C21.3697 116.782 21.7394 116.304 22.3048 115.956C22.8701 115.564 23.7617 115.369 24.9795 115.369C25.8928 115.369 26.567 115.434 27.0019 115.564C27.4803 115.651 27.85 115.803 28.1109 116.021C28.3719 116.195 28.6328 116.434 28.8938 116.739L44.8118 138.985H43.3113L59.2946 116.673C59.599 116.325 59.9034 116.064 60.2079 115.89C60.5123 115.716 60.9038 115.586 61.3822 115.499C61.8606 115.412 62.4912 115.369 63.2741 115.369C64.4483 115.369 65.3182 115.564 65.8836 115.956C66.449 116.304 66.7969 116.782 66.9274 117.391C67.1013 118 67.1883 118.674 67.1883 119.413V157.056C67.1883 157.708 67.1013 158.339 66.9274 158.948C66.7969 159.557 66.449 160.035 65.8836 160.383C65.3182 160.731 64.4266 160.905 63.2088 160.905C62.0345 160.905 61.1647 160.709 60.5993 160.318C60.0339 159.97 59.6642 159.491 59.4903 158.882C59.3598 158.274 59.2946 157.621 59.2946 156.925V128.938L47.4213 146.096C47.2908 146.27 47.0951 146.509 46.8341 146.813C46.5732 147.074 46.2253 147.314 45.7903 147.531C45.3554 147.748 44.7683 147.857 44.0289 147.857C43.3331 147.857 42.7677 147.748 42.3327 147.531C41.8978 147.314 41.5499 147.074 41.2889 146.813C41.0715 146.552 40.854 146.291 40.6366 146.03L28.8285 128.938V157.056C28.8285 157.708 28.7415 158.339 28.5676 158.948C28.4371 159.557 28.0892 160.035 27.5238 160.383C26.9584 160.731 26.0668 160.905 24.849 160.905Z" fill="#27235C" stroke="#27235C" stroke-width="0.2"/>
</svg>
