<svg width="680" height="201" viewBox="0 0 680 201" fill="none" xmlns="http://www.w3.org/2000/svg">
<path d="M313.968 187.899C313.968 185.533 315.885 183.615 318.251 183.615H613.799C616.165 183.615 618.082 185.533 618.082 187.899V187.899C618.082 190.264 616.165 192.182 613.799 192.182H318.251C315.885 192.182 313.968 190.264 313.968 187.899V187.899Z" fill="#FFBB00"/>
<path d="M73.1258 156.313V145.944C71.4065 143.283 69.7869 140.66 68.267 138.074C66.747 135.488 65.3143 132.952 63.9688 130.466H68.2296C69.1764 132.504 70.2354 134.581 71.4065 136.694C72.5776 138.783 73.7861 140.797 75.032 142.736C76.2529 140.797 77.4489 138.783 78.62 136.694C79.7911 134.581 80.8626 132.504 81.8343 130.466H85.8709C84.5254 132.952 83.0926 135.488 81.5727 138.074C80.0528 140.635 78.4456 143.234 76.7512 145.869V156.313H73.1258Z" fill="white"/>
<path d="M104.403 146.615C104.403 148.157 104.179 149.549 103.73 150.793C103.282 152.036 102.646 153.105 101.824 154C101.027 154.895 100.067 155.592 98.946 156.089C97.8247 156.561 96.6038 156.798 95.2832 156.798C93.9625 156.798 92.7416 156.561 91.6203 156.089C90.4991 155.592 89.5273 154.895 88.705 154C87.9077 153.105 87.2848 152.036 86.8362 150.793C86.3877 149.549 86.1635 148.157 86.1635 146.615C86.1635 145.099 86.3877 143.719 86.8362 142.475C87.2848 141.207 87.9077 140.126 88.705 139.23C89.5273 138.335 90.4991 137.652 91.6203 137.179C92.7416 136.682 93.9625 136.433 95.2832 136.433C96.6038 136.433 97.8247 136.682 98.946 137.179C100.067 137.652 101.027 138.335 101.824 139.23C102.646 140.126 103.282 141.207 103.73 142.475C104.179 143.719 104.403 145.099 104.403 146.615ZM100.777 146.615C100.777 144.427 100.279 142.699 99.2823 141.431C98.3106 140.138 96.9775 139.492 95.2832 139.492C93.5888 139.492 92.2433 140.138 91.2466 141.431C90.2748 142.699 89.7889 144.427 89.7889 146.615C89.7889 148.803 90.2748 150.544 91.2466 151.837C92.2433 153.105 93.5888 153.739 95.2832 153.739C96.9775 153.739 98.3106 153.105 99.2823 151.837C100.279 150.544 100.777 148.803 100.777 146.615Z" fill="white"/>
<path d="M124.767 155.753C123.969 155.952 122.91 156.164 121.59 156.387C120.294 156.611 118.787 156.723 117.067 156.723C115.572 156.723 114.314 156.512 113.292 156.089C112.271 155.641 111.449 155.02 110.826 154.224C110.203 153.428 109.754 152.496 109.48 151.427C109.206 150.333 109.069 149.127 109.069 147.809V136.918H112.545V147.063C112.545 149.425 112.919 151.116 113.666 152.135C114.414 153.155 115.672 153.665 117.441 153.665C117.815 153.665 118.201 153.652 118.6 153.627C118.998 153.602 119.372 153.578 119.721 153.553C120.07 153.503 120.381 153.466 120.655 153.441C120.954 153.391 121.166 153.341 121.291 153.292V136.918H124.767V155.753Z" fill="white"/>
<path d="M137.931 136.508C138.23 136.508 138.567 136.533 138.94 136.582C139.339 136.607 139.725 136.657 140.099 136.732C140.473 136.781 140.809 136.843 141.108 136.918C141.432 136.968 141.669 137.017 141.818 137.067L141.22 140.088C140.946 139.989 140.485 139.877 139.837 139.753C139.214 139.603 138.405 139.529 137.408 139.529C136.76 139.529 136.112 139.603 135.464 139.753C134.841 139.877 134.43 139.964 134.231 140.014V156.313H130.755V137.739C131.577 137.44 132.599 137.167 133.82 136.918C135.041 136.644 136.411 136.508 137.931 136.508Z" fill="white"/>
<path d="M170.343 130.466H173.968V156.313H170.343V144.378H157.673V156.313H154.047V130.466H157.673V141.245H170.343V130.466Z" fill="white"/>
<path d="M197.331 146.615C197.331 148.157 197.107 149.549 196.658 150.793C196.21 152.036 195.574 153.105 194.752 154C193.955 154.895 192.995 155.592 191.874 156.089C190.753 156.561 189.532 156.798 188.211 156.798C186.891 156.798 185.67 156.561 184.549 156.089C183.427 155.592 182.456 154.895 181.633 154C180.836 153.105 180.213 152.036 179.764 150.793C179.316 149.549 179.092 148.157 179.092 146.615C179.092 145.099 179.316 143.719 179.764 142.475C180.213 141.207 180.836 140.126 181.633 139.23C182.456 138.335 183.427 137.652 184.549 137.179C185.67 136.682 186.891 136.433 188.211 136.433C189.532 136.433 190.753 136.682 191.874 137.179C192.995 137.652 193.955 138.335 194.752 139.23C195.574 140.126 196.21 141.207 196.658 142.475C197.107 143.719 197.331 145.099 197.331 146.615ZM193.706 146.615C193.706 144.427 193.207 142.699 192.211 141.431C191.239 140.138 189.906 139.492 188.211 139.492C186.517 139.492 185.171 140.138 184.175 141.431C183.203 142.699 182.717 144.427 182.717 146.615C182.717 148.803 183.203 150.544 184.175 151.837C185.171 153.105 186.517 153.739 188.211 153.739C189.906 153.739 191.239 153.105 192.211 151.837C193.207 150.544 193.706 148.803 193.706 146.615Z" fill="white"/>
<path d="M206.744 153.814C208.164 153.814 209.211 153.627 209.883 153.254C210.581 152.881 210.93 152.285 210.93 151.464C210.93 150.619 210.594 149.947 209.921 149.45C209.248 148.953 208.139 148.393 206.594 147.772C205.847 147.473 205.124 147.175 204.427 146.876C203.754 146.553 203.168 146.18 202.67 145.758C202.172 145.335 201.773 144.825 201.474 144.228C201.175 143.632 201.025 142.898 201.025 142.028C201.025 140.312 201.661 138.957 202.932 137.962C204.202 136.943 205.934 136.433 208.127 136.433C208.675 136.433 209.223 136.47 209.771 136.545C210.319 136.595 210.83 136.669 211.304 136.769C211.777 136.843 212.188 136.93 212.537 137.03C212.911 137.129 213.197 137.216 213.397 137.291L212.761 140.275C212.388 140.076 211.802 139.877 211.005 139.678C210.207 139.454 209.248 139.342 208.127 139.342C207.155 139.342 206.308 139.541 205.585 139.939C204.863 140.312 204.501 140.909 204.501 141.729C204.501 142.152 204.576 142.525 204.726 142.848C204.9 143.172 205.149 143.47 205.473 143.743C205.822 143.992 206.246 144.228 206.744 144.452C207.242 144.676 207.84 144.912 208.538 145.161C209.46 145.509 210.282 145.857 211.005 146.205C211.727 146.528 212.338 146.914 212.836 147.361C213.359 147.809 213.758 148.356 214.032 149.002C214.306 149.624 214.443 150.395 214.443 151.315C214.443 153.105 213.77 154.46 212.425 155.38C211.104 156.3 209.211 156.76 206.744 156.76C205.025 156.76 203.679 156.611 202.707 156.313C201.736 156.039 201.075 155.828 200.726 155.679L201.362 152.695C201.76 152.844 202.396 153.068 203.268 153.366C204.14 153.665 205.299 153.814 206.744 153.814Z" fill="white"/>
<path d="M222.153 136.918H229.516V139.827H222.153V148.779C222.153 149.748 222.228 150.556 222.378 151.203C222.527 151.825 222.751 152.322 223.05 152.695C223.349 153.043 223.723 153.292 224.172 153.441C224.62 153.59 225.144 153.665 225.742 153.665C226.788 153.665 227.623 153.553 228.246 153.329C228.894 153.08 229.342 152.906 229.591 152.807L230.264 155.679C229.915 155.853 229.305 156.064 228.433 156.313C227.56 156.586 226.564 156.723 225.443 156.723C224.122 156.723 223.026 156.561 222.153 156.238C221.306 155.89 220.621 155.38 220.098 154.709C219.575 154.038 219.201 153.217 218.977 152.247C218.777 151.253 218.678 150.109 218.678 148.816V131.51L222.153 130.913V136.918Z" fill="white"/>
<path d="M237.416 156.313H233.94V136.918H237.416V156.313ZM235.659 133.412C235.036 133.412 234.5 133.213 234.052 132.815C233.628 132.393 233.416 131.833 233.416 131.137C233.416 130.441 233.628 129.894 234.052 129.496C234.5 129.073 235.036 128.862 235.659 128.862C236.282 128.862 236.805 129.073 237.229 129.496C237.677 129.894 237.901 130.441 237.901 131.137C237.901 131.833 237.677 132.393 237.229 132.815C236.805 133.213 236.282 133.412 235.659 133.412Z" fill="white"/>
<path d="M243.393 137.477C244.19 137.279 245.249 137.067 246.57 136.843C247.891 136.62 249.411 136.508 251.13 136.508C252.675 136.508 253.958 136.732 254.98 137.179C256.001 137.602 256.811 138.211 257.409 139.007C258.032 139.777 258.468 140.71 258.717 141.804C258.966 142.898 259.091 144.104 259.091 145.422V156.313H255.615V146.168C255.615 144.974 255.528 143.955 255.353 143.109C255.204 142.264 254.942 141.58 254.568 141.058C254.195 140.536 253.696 140.163 253.073 139.939C252.45 139.69 251.678 139.566 250.756 139.566C250.382 139.566 249.996 139.579 249.597 139.603C249.199 139.628 248.813 139.666 248.439 139.715C248.09 139.74 247.766 139.777 247.467 139.827C247.193 139.877 246.994 139.914 246.869 139.939V156.313H243.393V137.477Z" fill="white"/>
<path d="M277.039 154.373C276.74 154.572 276.155 154.833 275.283 155.156C274.436 155.455 273.439 155.604 272.293 155.604C271.122 155.604 270.013 155.418 268.966 155.045C267.945 154.672 267.048 154.1 266.275 153.329C265.503 152.533 264.892 151.551 264.444 150.382C263.995 149.214 263.771 147.821 263.771 146.205C263.771 144.788 263.983 143.495 264.406 142.326C264.83 141.133 265.44 140.113 266.238 139.268C267.06 138.397 268.057 137.726 269.228 137.254C270.399 136.756 271.72 136.508 273.19 136.508C274.809 136.508 276.217 136.632 277.413 136.881C278.634 137.104 279.656 137.316 280.478 137.515V154.821C280.478 157.805 279.705 159.968 278.161 161.311C276.616 162.653 274.274 163.325 271.134 163.325C269.913 163.325 268.754 163.225 267.658 163.026C266.587 162.827 265.652 162.591 264.855 162.318L265.49 159.297C266.188 159.57 267.035 159.806 268.032 160.005C269.053 160.229 270.112 160.341 271.209 160.341C273.277 160.341 274.759 159.931 275.656 159.11C276.578 158.289 277.039 156.984 277.039 155.194V154.373ZM277.002 139.976C276.653 139.877 276.18 139.79 275.582 139.715C275.009 139.616 274.224 139.566 273.227 139.566C271.358 139.566 269.913 140.175 268.891 141.394C267.895 142.612 267.396 144.228 267.396 146.242C267.396 147.361 267.533 148.319 267.808 149.114C268.107 149.91 268.493 150.569 268.966 151.091C269.465 151.613 270.025 151.999 270.648 152.247C271.296 152.496 271.956 152.62 272.629 152.62C273.551 152.62 274.398 152.496 275.171 152.247C275.943 151.974 276.553 151.663 277.002 151.315V139.976Z" fill="white"/>
<path d="M290.126 152.061C290.15 152.26 290.163 152.459 290.163 152.658C290.163 152.832 290.163 153.018 290.163 153.217C290.163 154.784 289.926 156.325 289.453 157.842C289.004 159.384 288.381 160.851 287.584 162.243L284.893 161.385C285.516 160.117 285.927 158.824 286.126 157.506C286.326 156.213 286.425 154.995 286.425 153.851C286.425 153.528 286.413 153.217 286.388 152.919C286.388 152.62 286.375 152.334 286.351 152.061H290.126Z" fill="white"/>
<path d="M303.489 143.37C303.489 141.157 303.813 139.206 304.461 137.515C305.133 135.824 306.03 134.419 307.152 133.3C308.298 132.156 309.618 131.299 311.113 130.727C312.633 130.155 314.241 129.869 315.935 129.869C317.604 129.869 319.174 130.155 320.644 130.727C322.139 131.299 323.447 132.156 324.569 133.3C325.69 134.419 326.574 135.824 327.222 137.515C327.895 139.206 328.231 141.157 328.231 143.37C328.231 145.583 327.895 147.535 327.222 149.226C326.574 150.917 325.69 152.334 324.569 153.478C323.447 154.597 322.139 155.442 320.644 156.014C319.174 156.586 317.604 156.872 315.935 156.872C314.241 156.872 312.633 156.586 311.113 156.014C309.618 155.442 308.298 154.597 307.152 153.478C306.03 152.334 305.133 150.917 304.461 149.226C303.813 147.535 303.489 145.583 303.489 143.37ZM307.301 143.37C307.301 144.937 307.5 146.367 307.899 147.66C308.298 148.928 308.858 150.009 309.581 150.905C310.329 151.8 311.226 152.496 312.272 152.993C313.343 153.466 314.54 153.702 315.86 153.702C317.181 153.702 318.364 153.466 319.411 152.993C320.457 152.496 321.342 151.8 322.064 150.905C322.812 150.009 323.385 148.928 323.784 147.66C324.182 146.367 324.382 144.937 324.382 143.37C324.382 141.804 324.182 140.387 323.784 139.119C323.385 137.826 322.812 136.732 322.064 135.836C321.342 134.941 320.457 134.257 319.411 133.785C318.364 133.288 317.181 133.039 315.86 133.039C314.54 133.039 313.343 133.288 312.272 133.785C311.226 134.257 310.329 134.941 309.581 135.836C308.858 136.732 308.298 137.826 307.899 139.119C307.5 140.387 307.301 141.804 307.301 143.37Z" fill="white"/>
<path d="M348.875 155.753C348.077 155.952 347.019 156.164 345.698 156.387C344.402 156.611 342.895 156.723 341.175 156.723C339.68 156.723 338.422 156.512 337.401 156.089C336.379 155.641 335.557 155.02 334.934 154.224C334.311 153.428 333.862 152.496 333.588 151.427C333.314 150.333 333.177 149.127 333.177 147.809V136.918H336.653V147.063C336.653 149.425 337.027 151.116 337.774 152.135C338.522 153.155 339.78 153.665 341.549 153.665C341.923 153.665 342.309 153.652 342.708 153.627C343.107 153.602 343.48 153.578 343.829 153.553C344.178 153.503 344.489 153.466 344.764 153.441C345.063 153.391 345.274 153.341 345.399 153.292V136.918H348.875V155.753Z" fill="white"/>
<path d="M362.039 136.508C362.338 136.508 362.675 136.533 363.048 136.582C363.447 136.607 363.833 136.657 364.207 136.732C364.581 136.781 364.917 136.843 365.216 136.918C365.54 136.968 365.777 137.017 365.926 137.067L365.328 140.088C365.054 139.989 364.593 139.877 363.945 139.753C363.322 139.603 362.513 139.529 361.516 139.529C360.868 139.529 360.22 139.603 359.572 139.753C358.95 139.877 358.538 139.964 358.339 140.014V156.313H354.863V137.739C355.685 137.44 356.707 137.167 357.928 136.918C359.149 136.644 360.519 136.508 362.039 136.508Z" fill="white"/>
<path d="M390.826 145.496C391.224 145.994 391.723 146.653 392.321 147.473C392.943 148.269 393.579 149.164 394.227 150.159C394.875 151.128 395.51 152.148 396.133 153.217C396.781 154.286 397.329 155.318 397.777 156.313H393.816C393.317 155.368 392.769 154.411 392.171 153.441C391.598 152.471 391.012 151.551 390.414 150.681C389.816 149.786 389.218 148.953 388.62 148.182C388.047 147.411 387.524 146.74 387.051 146.168C386.727 146.193 386.39 146.205 386.041 146.205C385.718 146.205 385.381 146.205 385.032 146.205H381.781V156.313H378.155V130.839C379.177 130.59 380.311 130.428 381.556 130.354C382.827 130.254 383.986 130.204 385.032 130.204C388.67 130.204 391.436 130.888 393.33 132.256C395.248 133.623 396.208 135.662 396.208 138.373C396.208 140.088 395.747 141.555 394.825 142.774C393.928 143.992 392.595 144.9 390.826 145.496ZM385.331 133.375C383.786 133.375 382.603 133.412 381.781 133.487V143.221H384.36C385.605 143.221 386.727 143.159 387.723 143.035C388.72 142.91 389.555 142.674 390.228 142.326C390.925 141.978 391.461 141.493 391.835 140.872C392.208 140.225 392.395 139.38 392.395 138.335C392.395 137.366 392.208 136.557 391.835 135.911C391.461 135.264 390.95 134.755 390.302 134.382C389.679 134.009 388.932 133.748 388.06 133.599C387.213 133.449 386.303 133.375 385.331 133.375Z" fill="white"/>
<path d="M400.353 146.653C400.353 144.937 400.602 143.445 401.1 142.177C401.599 140.884 402.259 139.815 403.081 138.969C403.904 138.124 404.85 137.49 405.922 137.067C406.993 136.644 408.09 136.433 409.211 136.433C411.827 136.433 413.833 137.254 415.228 138.895C416.624 140.511 417.321 142.985 417.321 146.317C417.321 146.466 417.321 146.665 417.321 146.914C417.321 147.138 417.309 147.349 417.284 147.548H403.978C404.128 149.562 404.713 151.091 405.735 152.135C406.757 153.18 408.351 153.702 410.519 153.702C411.74 153.702 412.762 153.602 413.584 153.404C414.431 153.18 415.066 152.968 415.49 152.769L415.976 155.679C415.552 155.902 414.805 156.139 413.733 156.387C412.687 156.636 411.491 156.76 410.145 156.76C408.451 156.76 406.981 156.512 405.735 156.014C404.514 155.492 403.505 154.784 402.707 153.888C401.91 152.993 401.312 151.936 400.913 150.718C400.54 149.475 400.353 148.12 400.353 146.653ZM413.696 144.75C413.721 143.184 413.322 141.903 412.5 140.909C411.703 139.889 410.594 139.38 409.173 139.38C408.376 139.38 407.666 139.541 407.043 139.865C406.445 140.163 405.934 140.561 405.511 141.058C405.087 141.555 404.751 142.127 404.502 142.774C404.277 143.42 404.128 144.079 404.053 144.75H413.696Z" fill="white"/>
<path d="M426.837 153.814C428.257 153.814 429.304 153.627 429.977 153.254C430.674 152.881 431.023 152.285 431.023 151.464C431.023 150.619 430.687 149.947 430.014 149.45C429.341 148.953 428.232 148.393 426.687 147.772C425.94 147.473 425.217 147.175 424.52 146.876C423.847 146.553 423.261 146.18 422.763 145.758C422.265 145.335 421.866 144.825 421.567 144.228C421.268 143.632 421.119 142.898 421.119 142.028C421.119 140.312 421.754 138.957 423.025 137.962C424.295 136.943 426.027 136.433 428.22 136.433C428.768 136.433 429.316 136.47 429.864 136.545C430.413 136.595 430.923 136.669 431.397 136.769C431.87 136.843 432.281 136.93 432.63 137.03C433.004 137.129 433.291 137.216 433.49 137.291L432.854 140.275C432.481 140.076 431.895 139.877 431.098 139.678C430.301 139.454 429.341 139.342 428.22 139.342C427.248 139.342 426.401 139.541 425.678 139.939C424.956 140.312 424.594 140.909 424.594 141.729C424.594 142.152 424.669 142.525 424.819 142.848C424.993 143.172 425.242 143.47 425.566 143.743C425.915 143.992 426.339 144.228 426.837 144.452C427.335 144.676 427.933 144.912 428.631 145.161C429.553 145.509 430.375 145.857 431.098 146.205C431.82 146.528 432.431 146.914 432.929 147.361C433.452 147.809 433.851 148.356 434.125 149.002C434.399 149.624 434.536 150.395 434.536 151.315C434.536 153.105 433.864 154.46 432.518 155.38C431.198 156.3 429.304 156.76 426.837 156.76C425.118 156.76 423.772 156.611 422.8 156.313C421.829 156.039 421.168 155.828 420.82 155.679L421.455 152.695C421.854 152.844 422.489 153.068 423.361 153.366C424.233 153.665 425.392 153.814 426.837 153.814Z" fill="white"/>
<path d="M452.488 146.653C452.488 144.39 451.927 142.649 450.806 141.431C449.684 140.213 448.189 139.603 446.321 139.603C445.274 139.603 444.452 139.641 443.854 139.715C443.281 139.79 442.82 139.877 442.471 139.976V152.21C442.894 152.558 443.505 152.894 444.302 153.217C445.1 153.54 445.972 153.702 446.919 153.702C447.915 153.702 448.762 153.528 449.46 153.18C450.183 152.807 450.768 152.309 451.217 151.688C451.665 151.041 451.989 150.295 452.189 149.45C452.388 148.58 452.488 147.647 452.488 146.653ZM456.113 146.653C456.113 148.12 455.914 149.475 455.515 150.718C455.141 151.961 454.581 153.031 453.833 153.926C453.086 154.821 452.164 155.517 451.067 156.014C449.996 156.512 448.762 156.76 447.367 156.76C446.246 156.76 445.249 156.611 444.377 156.313C443.53 156.014 442.894 155.728 442.471 155.455V163.213H438.995V137.515C439.817 137.316 440.839 137.104 442.06 136.881C443.306 136.632 444.738 136.508 446.358 136.508C447.853 136.508 449.198 136.744 450.394 137.216C451.591 137.689 452.612 138.36 453.459 139.23C454.306 140.101 454.954 141.17 455.403 142.438C455.876 143.681 456.113 145.086 456.113 146.653Z" fill="white"/>
<path d="M478.16 146.615C478.16 148.157 477.935 149.549 477.487 150.793C477.038 152.036 476.403 153.105 475.581 154C474.783 154.895 473.824 155.592 472.703 156.089C471.582 156.561 470.361 156.798 469.04 156.798C467.719 156.798 466.498 156.561 465.377 156.089C464.256 155.592 463.284 154.895 462.462 154C461.665 153.105 461.042 152.036 460.593 150.793C460.145 149.549 459.92 148.157 459.92 146.615C459.92 145.099 460.145 143.719 460.593 142.475C461.042 141.207 461.665 140.126 462.462 139.23C463.284 138.335 464.256 137.652 465.377 137.179C466.498 136.682 467.719 136.433 469.04 136.433C470.361 136.433 471.582 136.682 472.703 137.179C473.824 137.652 474.783 138.335 475.581 139.23C476.403 140.126 477.038 141.207 477.487 142.475C477.935 143.719 478.16 145.099 478.16 146.615ZM474.534 146.615C474.534 144.427 474.036 142.699 473.039 141.431C472.067 140.138 470.734 139.492 469.04 139.492C467.346 139.492 466 140.138 465.003 141.431C464.032 142.699 463.546 144.427 463.546 146.615C463.546 148.803 464.032 150.544 465.003 151.837C466 153.105 467.346 153.739 469.04 153.739C470.734 153.739 472.067 153.105 473.039 151.837C474.036 150.544 474.534 148.803 474.534 146.615Z" fill="white"/>
<path d="M483.05 137.477C483.847 137.279 484.906 137.067 486.227 136.843C487.548 136.62 489.068 136.508 490.787 136.508C492.332 136.508 493.615 136.732 494.637 137.179C495.658 137.602 496.468 138.211 497.066 139.007C497.689 139.777 498.125 140.71 498.374 141.804C498.623 142.898 498.748 144.104 498.748 145.422V156.313H495.272V146.168C495.272 144.974 495.185 143.955 495.01 143.109C494.861 142.264 494.599 141.58 494.225 141.058C493.852 140.536 493.353 140.163 492.73 139.939C492.107 139.69 491.335 139.566 490.413 139.566C490.039 139.566 489.653 139.579 489.254 139.603C488.856 139.628 488.47 139.666 488.096 139.715C487.747 139.74 487.423 139.777 487.124 139.827C486.85 139.877 486.651 139.914 486.526 139.939V156.313H483.05V137.477Z" fill="white"/>
<path d="M509.034 153.814C510.455 153.814 511.501 153.627 512.174 153.254C512.872 152.881 513.22 152.285 513.22 151.464C513.22 150.619 512.884 149.947 512.211 149.45C511.538 148.953 510.43 148.393 508.885 147.772C508.137 147.473 507.415 147.175 506.717 146.876C506.044 146.553 505.459 146.18 504.96 145.758C504.462 145.335 504.063 144.825 503.764 144.228C503.465 143.632 503.316 142.898 503.316 142.028C503.316 140.312 503.951 138.957 505.222 137.962C506.493 136.943 508.225 136.433 510.417 136.433C510.965 136.433 511.514 136.47 512.062 136.545C512.61 136.595 513.121 136.669 513.594 136.769C514.068 136.843 514.479 136.93 514.828 137.03C515.201 137.129 515.488 137.216 515.687 137.291L515.052 140.275C514.678 140.076 514.092 139.877 513.295 139.678C512.498 139.454 511.538 139.342 510.417 139.342C509.445 139.342 508.598 139.541 507.876 139.939C507.153 140.312 506.792 140.909 506.792 141.729C506.792 142.152 506.867 142.525 507.016 142.848C507.19 143.172 507.44 143.47 507.764 143.743C508.112 143.992 508.536 144.228 509.034 144.452C509.533 144.676 510.131 144.912 510.828 145.161C511.75 145.509 512.573 145.857 513.295 146.205C514.018 146.528 514.628 146.914 515.127 147.361C515.65 147.809 516.048 148.356 516.323 149.002C516.597 149.624 516.734 150.395 516.734 151.315C516.734 153.105 516.061 154.46 514.715 155.38C513.395 156.3 511.501 156.76 509.034 156.76C507.315 156.76 505.97 156.611 504.998 156.313C504.026 156.039 503.366 155.828 503.017 155.679L503.652 152.695C504.051 152.844 504.686 153.068 505.558 153.366C506.43 153.665 507.589 153.814 509.034 153.814Z" fill="white"/>
<path d="M524.668 156.313H521.192V136.918H524.668V156.313ZM522.911 133.412C522.289 133.412 521.753 133.213 521.304 132.815C520.881 132.393 520.669 131.833 520.669 131.137C520.669 130.441 520.881 129.894 521.304 129.496C521.753 129.073 522.289 128.862 522.911 128.862C523.534 128.862 524.058 129.073 524.481 129.496C524.93 129.894 525.154 130.441 525.154 131.137C525.154 131.833 524.93 132.393 524.481 132.815C524.058 133.213 523.534 133.412 522.911 133.412Z" fill="white"/>
<path d="M534.122 137.776C534.545 137.502 535.181 137.216 536.028 136.918C536.9 136.62 537.897 136.47 539.018 136.47C540.413 136.47 541.647 136.719 542.718 137.216C543.814 137.714 544.736 138.41 545.484 139.305C546.231 140.2 546.792 141.269 547.166 142.513C547.564 143.756 547.764 145.123 547.764 146.615C547.764 148.182 547.527 149.599 547.054 150.867C546.605 152.111 545.957 153.167 545.11 154.038C544.263 154.908 543.241 155.579 542.045 156.052C540.849 156.524 539.504 156.76 538.009 156.76C536.389 156.76 534.956 156.648 533.71 156.425C532.465 156.201 531.443 155.977 530.646 155.753V127.967L534.122 127.37V137.776ZM534.122 153.292C534.47 153.391 534.956 153.491 535.579 153.59C536.227 153.665 537.024 153.702 537.971 153.702C539.84 153.702 541.335 153.093 542.456 151.874C543.578 150.631 544.138 148.878 544.138 146.615C544.138 145.621 544.039 144.688 543.839 143.818C543.64 142.948 543.316 142.202 542.867 141.58C542.419 140.934 541.833 140.436 541.111 140.088C540.413 139.715 539.566 139.529 538.569 139.529C537.622 139.529 536.75 139.69 535.953 140.014C535.156 140.337 534.545 140.673 534.122 141.021V153.292Z" fill="white"/>
<path d="M556.131 156.313H552.655V136.918H556.131V156.313ZM554.374 133.412C553.751 133.412 553.216 133.213 552.767 132.815C552.343 132.393 552.132 131.833 552.132 131.137C552.132 130.441 552.343 129.894 552.767 129.496C553.216 129.073 553.751 128.862 554.374 128.862C554.997 128.862 555.52 129.073 555.944 129.496C556.392 129.894 556.617 130.441 556.617 131.137C556.617 131.833 556.392 132.393 555.944 132.815C555.52 133.213 554.997 133.412 554.374 133.412Z" fill="white"/>
<path d="M567.939 156.686C565.796 156.636 564.276 156.176 563.379 155.306C562.482 154.435 562.034 153.08 562.034 151.24V127.967L565.51 127.37V150.681C565.51 151.253 565.559 151.725 565.659 152.098C565.759 152.471 565.921 152.769 566.145 152.993C566.369 153.217 566.668 153.391 567.042 153.515C567.416 153.615 567.877 153.702 568.425 153.776L567.939 156.686Z" fill="white"/>
<path d="M575.804 156.313H572.328V136.918H575.804V156.313ZM574.048 133.412C573.425 133.412 572.889 133.213 572.44 132.815C572.017 132.393 571.805 131.833 571.805 131.137C571.805 130.441 572.017 129.894 572.44 129.496C572.889 129.073 573.425 128.862 574.048 128.862C574.67 128.862 575.194 129.073 575.617 129.496C576.066 129.894 576.29 130.441 576.29 131.137C576.29 131.833 576.066 132.393 575.617 132.815C575.194 133.213 574.67 133.412 574.048 133.412Z" fill="white"/>
<path d="M585.033 136.918H592.396V139.827H585.033V148.779C585.033 149.748 585.108 150.556 585.258 151.203C585.407 151.825 585.631 152.322 585.93 152.695C586.229 153.043 586.603 153.292 587.052 153.441C587.5 153.59 588.023 153.665 588.621 153.665C589.668 153.665 590.503 153.553 591.126 153.329C591.773 153.08 592.222 152.906 592.471 152.807L593.144 155.679C592.795 155.853 592.185 156.064 591.312 156.313C590.44 156.586 589.444 156.723 588.322 156.723C587.002 156.723 585.905 156.561 585.033 156.238C584.186 155.89 583.501 155.38 582.978 154.709C582.454 154.038 582.081 153.217 581.856 152.247C581.657 151.253 581.557 150.109 581.557 148.816V131.51L585.033 130.913V136.918Z" fill="white"/>
<path d="M594.54 159.931C594.814 160.055 595.163 160.167 595.586 160.266C596.035 160.391 596.471 160.453 596.894 160.453C598.265 160.453 599.336 160.142 600.109 159.52C600.881 158.924 601.579 157.941 602.202 156.574C600.632 153.59 599.162 150.432 597.791 147.1C596.446 143.743 595.325 140.349 594.428 136.918H598.165C598.439 138.037 598.763 139.243 599.137 140.536C599.536 141.829 599.972 143.159 600.445 144.527C600.918 145.894 601.429 147.262 601.977 148.629C602.526 149.997 603.099 151.315 603.697 152.583C604.644 149.972 605.466 147.386 606.163 144.825C606.861 142.264 607.521 139.628 608.144 136.918H611.732C610.835 140.573 609.839 144.092 608.742 147.473C607.646 150.83 606.463 153.975 605.192 156.909C604.693 158.028 604.17 158.986 603.622 159.781C603.099 160.602 602.513 161.273 601.865 161.795C601.217 162.318 600.482 162.703 599.66 162.952C598.863 163.2 597.953 163.325 596.932 163.325C596.658 163.325 596.371 163.3 596.072 163.25C595.773 163.225 595.474 163.175 595.175 163.101C594.901 163.051 594.639 162.989 594.39 162.914C594.166 162.84 594.004 162.778 593.904 162.728L594.54 159.931Z" fill="white"/>
<path d="M618.49 154.299C618.49 154.97 618.266 155.554 617.817 156.052C617.369 156.549 616.758 156.798 615.986 156.798C615.214 156.798 614.603 156.549 614.155 156.052C613.706 155.554 613.482 154.97 613.482 154.299C613.482 153.627 613.706 153.043 614.155 152.546C614.603 152.048 615.214 151.8 615.986 151.8C616.758 151.8 617.369 152.048 617.817 152.546C618.266 153.043 618.49 153.627 618.49 154.299Z" fill="white"/>
<path d="M588.323 102.049C584.05 102.049 580.212 101.22 576.811 99.5631C573.497 97.819 570.663 95.4643 568.308 92.4993C566.041 89.5342 564.297 86.133 563.076 82.2959C561.942 78.3715 561.375 74.1855 561.375 69.7379C561.463 65.2903 562.117 61.1479 563.338 57.3107C564.559 53.3863 566.303 49.9852 568.57 47.1073C570.925 44.1422 573.759 41.8312 577.073 40.1743C580.387 38.5173 584.137 37.6888 588.323 37.6888C592.334 37.6888 596.084 38.5173 599.573 40.1743C603.148 41.8312 606.288 44.1422 608.991 47.1073C611.782 49.9852 613.962 53.3863 615.532 57.3107C617.102 61.1479 617.886 65.2467 617.886 69.6071C617.886 74.1419 617.102 78.4151 615.532 82.4267C613.962 86.3511 611.825 89.7958 609.122 92.7609C606.419 95.6388 603.279 97.9062 599.703 99.5631C596.128 101.22 592.334 102.049 588.323 102.049ZM586.23 86.7435C589.282 86.7435 592.029 86.0458 594.471 84.6505C596.913 83.168 598.831 81.1622 600.227 78.6331C601.709 76.1041 602.451 73.2262 602.451 69.9995C602.451 66.6856 601.709 63.7641 600.227 61.2351C598.831 58.6188 596.913 56.613 594.471 55.2177C592.029 53.7352 589.282 52.9939 586.23 52.9939C583.265 52.9939 580.561 53.7352 578.119 55.2177C575.678 56.7002 573.715 58.706 572.233 61.2351C570.838 63.7641 570.14 66.6856 570.14 69.9995C570.14 73.2262 570.838 76.1041 572.233 78.6331C573.715 81.1622 575.678 83.168 578.119 84.6505C580.561 86.0458 583.265 86.7435 586.23 86.7435ZM562.029 102.179C559.675 102.179 557.931 101.787 556.797 101.002C555.663 100.304 554.966 99.3887 554.704 98.255C554.442 97.0341 554.312 95.6824 554.312 94.1998V16.2356C554.312 14.753 554.442 13.4449 554.704 12.3112C554.966 11.0903 555.663 10.131 556.797 9.43332C557.931 8.73566 559.675 8.38683 562.029 8.38683C564.471 8.38683 566.215 8.73566 567.262 9.43332C568.308 10.131 568.963 11.0903 569.224 12.3112C569.486 13.5321 569.617 14.8402 569.617 16.2356V96.8161C569.268 98.7346 568.526 100.086 567.393 100.871C566.346 101.743 564.559 102.179 562.029 102.179Z" fill="white" stroke="white" stroke-width="0.4"/>
<path d="M515.323 102.966C509.654 102.966 504.683 102.05 500.41 100.219C496.224 98.3877 492.692 95.9022 489.814 92.7627C487.024 89.536 484.887 85.9605 483.405 82.0361C482.009 78.0245 481.312 73.8821 481.312 69.6089C481.312 63.3299 482.75 57.7486 485.628 52.8649C488.506 47.9813 492.474 44.1441 497.532 41.3534C502.678 38.5628 508.564 37.1674 515.192 37.1674C519.901 37.1674 524.044 37.9087 527.619 39.3912C531.195 40.8738 534.16 42.836 536.514 45.2778C538.956 47.6324 540.788 50.2487 542.009 53.1265C543.317 56.0044 543.971 58.7951 543.971 61.4985C543.971 66.1206 542.837 69.4781 540.57 71.5711C538.389 73.6641 535.642 74.7106 532.328 74.7106H497.794C497.881 77.6757 498.797 80.2483 500.541 82.4285C502.372 84.6088 504.64 86.3093 507.343 87.5302C510.134 88.6639 512.968 89.2308 515.846 89.2308C518.026 89.2308 519.945 89.1 521.602 88.8384C523.346 88.5767 524.829 88.2715 526.049 87.9227C527.27 87.4866 528.317 87.0506 529.189 86.6145C530.148 86.1785 531.02 85.7861 531.805 85.4372C532.59 85.0884 533.331 84.8704 534.029 84.7832C534.988 84.696 535.948 84.914 536.907 85.4372C537.866 85.9605 538.651 86.8762 539.262 88.1843C539.785 89.0564 540.134 89.8849 540.308 90.6697C540.57 91.3674 540.7 92.0651 540.7 92.7627C540.7 94.5069 539.654 96.1639 537.561 97.7336C535.468 99.2161 532.503 100.437 528.666 101.396C524.916 102.443 520.468 102.966 515.323 102.966ZM497.794 65.4229H524.61C526.093 65.4229 527.227 65.2049 528.012 64.7689C528.797 64.2456 529.189 63.1991 529.189 61.6294C529.189 59.6236 528.578 57.8358 527.358 56.266C526.137 54.6091 524.48 53.3446 522.387 52.4725C520.294 51.5132 517.852 51.0335 515.061 51.0335C511.834 51.0335 508.913 51.6876 506.297 52.9957C503.68 54.2166 501.587 55.9172 500.018 58.0974C498.535 60.2776 497.794 62.7195 497.794 65.4229Z" fill="white" stroke="white" stroke-width="0.4"/>
<path d="M398.29 101.792C396.546 101.792 395.15 101.487 394.104 100.876C393.057 100.179 392.273 99.3937 391.749 98.5216C391.313 97.6496 391.008 96.9083 390.834 96.2978L365.194 21.2115C364.322 18.4208 364.191 16.3278 364.802 14.9325C365.412 13.4499 367.2 12.229 370.165 11.2697C372.171 10.5721 373.784 10.2668 375.005 10.354C376.226 10.4412 377.229 10.9645 378.014 11.9238C378.886 12.7959 379.627 14.1912 380.238 16.1098L399.075 73.144L415.95 16.633C416.211 15.7609 416.56 14.8889 416.996 14.0168C417.519 13.0575 418.304 12.2726 419.351 11.6622C420.397 11.0517 421.836 10.7465 423.668 10.7465C425.761 10.7465 427.33 11.0953 428.377 11.793C429.423 12.4906 430.165 13.2755 430.601 14.1476C431.124 14.9325 431.473 15.6737 431.647 16.3714L448.522 73.5365L467.49 16.2406C468.1 14.2348 468.798 12.7523 469.583 11.793C470.455 10.8337 471.545 10.3104 472.853 10.2232C474.161 10.0488 475.775 10.3104 477.693 11.0081C479.699 11.7058 481.138 12.4906 482.01 13.3627C482.882 14.1476 483.318 15.1941 483.318 16.5022C483.318 17.7231 483.013 19.2929 482.402 21.2115L456.894 96.4286C456.719 96.9519 456.371 97.6496 455.847 98.5216C455.411 99.3937 454.67 100.179 453.624 100.876C452.577 101.487 451.138 101.792 449.307 101.792C447.475 101.792 446.036 101.4 444.99 100.615C443.943 99.8298 443.159 98.9577 442.635 97.9984C442.112 97.0391 441.763 96.3414 441.589 95.9054L423.798 38.3479L406.008 95.7746C405.833 96.385 405.485 97.1699 404.961 98.1292C404.525 99.0885 403.784 99.9606 402.738 100.745C401.691 101.443 400.208 101.792 398.29 101.792Z" fill="white" stroke="white" stroke-width="0.4"/>
<path d="M330.27 102.967C328.003 102.967 325.605 102.706 323.076 102.182C320.547 101.746 318.105 101.092 315.75 100.22C313.396 99.2609 311.346 98.1708 309.602 96.9498C307.945 95.6417 306.899 94.2028 306.463 92.633C306.114 91.7609 305.983 90.9325 306.07 90.1476C306.157 89.2755 306.419 88.4034 306.855 87.5313C307.291 86.572 307.945 85.6128 308.817 84.6535C309.602 83.6942 310.387 83.1709 311.172 83.0837C312.044 82.9093 313.134 83.1709 314.442 83.8686C315.576 84.3046 316.797 84.8715 318.105 85.5692C319.5 86.2668 320.896 86.9645 322.291 87.6622C323.773 88.3598 325.256 88.9267 326.739 89.3627C328.308 89.7988 329.834 90.0168 331.317 90.0168C334.544 90.0168 337.116 89.4935 339.035 88.447C340.953 87.3133 341.913 85.7436 341.913 83.7378C341.913 82.6041 341.608 81.6012 340.997 80.7291C340.387 79.857 339.558 79.1593 338.512 78.6361C337.552 78.0256 336.375 77.5024 334.98 77.0663C333.672 76.5431 332.233 76.1071 330.663 75.7582C329.18 75.3222 327.611 74.8425 325.954 74.3193C323.773 73.7088 321.593 72.9676 319.413 72.0955C317.233 71.2234 315.271 70.0897 313.526 68.6943C311.869 67.299 310.518 65.5548 309.471 63.4618C308.425 61.3688 307.901 58.7526 307.901 55.6131C307.901 51.6887 308.817 48.3748 310.649 45.6713C312.567 42.8807 315.314 40.7441 318.89 39.2615C322.465 37.779 326.782 37.0377 331.84 37.0377C333.584 37.0377 335.241 37.1685 336.811 37.4302C338.468 37.6918 340.038 38.0842 341.52 38.6075C343.09 39.0435 344.573 39.6104 345.968 40.308C347.45 41.0057 348.846 41.7906 350.154 42.6627C352.334 43.8836 353.468 45.3225 353.555 46.9795C353.642 48.5492 353.032 50.2498 351.724 52.0812C350.764 53.3021 349.805 54.1742 348.846 54.6974C347.887 55.1335 346.884 55.1335 345.837 54.6974C344.442 53.9997 342.916 53.2585 341.259 52.4736C339.689 51.6015 338.032 50.8602 336.288 50.2498C334.631 49.6393 332.887 49.3341 331.055 49.3341C329.311 49.3341 327.741 49.5957 326.346 50.119C324.951 50.6422 323.904 51.3835 323.207 52.3428C322.509 53.3021 322.16 54.4358 322.16 55.7439C322.16 56.9648 322.509 57.9677 323.207 58.7526C323.904 59.5375 324.82 60.1915 325.954 60.7148C327.087 61.238 328.439 61.7177 330.009 62.1537C331.579 62.5026 333.236 62.8514 334.98 63.2002C337.422 63.7235 339.907 64.3775 342.436 65.1624C344.965 65.9473 347.276 67.0374 349.369 68.4327C351.549 69.8281 353.293 71.703 354.602 74.0577C355.91 76.3251 356.564 79.2902 356.564 82.9529C356.564 89.3191 354.209 94.2464 349.5 97.7347C344.878 101.223 338.468 102.967 330.27 102.967Z" fill="white" stroke="white" stroke-width="0.4"/>
<path d="M268.519 102.965C262.851 102.965 257.88 102.05 253.606 100.218C249.42 98.3868 245.889 95.9014 243.011 92.7619C240.22 89.5352 238.083 85.9597 236.601 82.0353C235.205 78.0237 234.508 73.8813 234.508 69.6081C234.508 63.3291 235.947 57.7478 238.825 52.8641C241.703 47.9804 245.67 44.1433 250.729 41.3526C255.874 38.5619 261.76 37.1666 268.388 37.1666C273.098 37.1666 277.24 37.9079 280.815 39.3904C284.391 40.873 287.356 42.8351 289.711 45.277C292.153 47.6316 293.984 50.2478 295.205 53.1257C296.513 56.0036 297.167 58.7943 297.167 61.4977C297.167 66.1198 296.033 69.4773 293.766 71.5703C291.586 73.6633 288.839 74.7098 285.525 74.7098H250.99C251.077 77.6749 251.993 80.2475 253.737 82.4277C255.569 84.6079 257.836 86.3085 260.54 87.5294C263.33 88.6631 266.164 89.23 269.042 89.23C271.223 89.23 273.141 89.0992 274.798 88.8375C276.542 88.5759 278.025 88.2707 279.246 87.9218C280.467 87.4858 281.513 87.0498 282.385 86.6137C283.345 86.1777 284.217 85.7852 285.001 85.4364C285.786 85.0876 286.528 84.8696 287.225 84.7823C288.185 84.6951 289.144 84.9132 290.103 85.4364C291.062 85.9597 291.847 86.8753 292.458 88.1835C292.981 89.0556 293.33 89.884 293.504 90.6689C293.766 91.3666 293.897 92.0642 293.897 92.7619C293.897 94.5061 292.85 96.163 290.757 97.7328C288.664 99.2153 285.699 100.436 281.862 101.396C278.112 102.442 273.664 102.965 268.519 102.965ZM250.99 65.4221H277.807C279.289 65.4221 280.423 65.2041 281.208 64.768C281.993 64.2448 282.385 63.1983 282.385 61.6285C282.385 59.6227 281.775 57.835 280.554 56.2652C279.333 54.6083 277.676 53.3437 275.583 52.4717C273.49 51.5124 271.048 51.0327 268.257 51.0327C265.031 51.0327 262.109 51.6868 259.493 52.9949C256.877 54.2158 254.784 55.9164 253.214 58.0966C251.731 60.2768 250.99 62.7186 250.99 65.4221Z" fill="white" stroke="white" stroke-width="0.4"/>
<path d="M221.818 102.185C218.591 102.185 215.713 101.967 213.184 101.531C210.743 101.095 208.606 100.354 206.775 99.3071C205.03 98.2606 203.591 96.8653 202.458 95.1211C201.324 93.2897 200.452 91.0659 199.842 88.4497C199.318 85.8334 199.057 82.6939 199.057 79.0312V15.9796C199.057 14.497 199.187 13.1889 199.449 12.0552C199.798 10.8343 200.496 9.87498 201.542 9.17731C202.676 8.39244 204.464 8 206.905 8C209.347 8 211.091 8.34883 212.138 9.0465C213.272 9.74417 213.969 10.7035 214.231 11.9244C214.58 13.0581 214.754 14.3662 214.754 15.8487V78.3771C214.754 80.0341 214.841 81.4294 215.016 82.5631C215.277 83.6096 215.67 84.4817 216.193 85.1794C216.804 85.7898 217.545 86.2259 218.417 86.4875C219.376 86.7491 220.51 86.8799 221.818 86.8799C222.952 86.8799 223.955 87.0107 224.827 87.2724C225.786 87.534 226.527 88.1881 227.051 89.2346C227.661 90.2811 227.966 91.9816 227.966 94.3362C227.966 96.7781 227.661 98.5658 227.051 99.6996C226.527 100.833 225.786 101.531 224.827 101.793C223.867 102.054 222.865 102.185 221.818 102.185Z" fill="white" stroke="white" stroke-width="0.4"/>
<path d="M177.157 102.183C174.802 102.183 173.058 101.791 171.924 101.006C170.791 100.308 170.093 99.3925 169.831 98.2588C169.57 97.0379 169.439 95.6862 169.439 94.2037V45.5414C169.439 44.1461 169.57 42.8816 169.831 41.7479C170.18 40.5269 170.878 39.5676 171.924 38.87C173.058 38.1723 174.846 37.8235 177.288 37.8235C179.729 37.8235 181.474 38.1723 182.52 38.87C183.654 39.5676 184.351 40.5269 184.613 41.7479C184.875 42.9688 185.005 44.3205 185.005 45.803V94.3345C185.005 95.817 184.875 97.1687 184.613 98.3897C184.351 99.5234 183.654 100.439 182.52 101.137C181.474 101.834 179.686 102.183 177.157 102.183ZM177.157 25.1347C174.628 25.1347 172.753 24.7858 171.532 24.0882C170.398 23.3033 169.657 22.2568 169.308 20.9487C169.046 19.6405 168.916 18.2016 168.916 16.6318C168.916 14.9749 169.046 13.536 169.308 12.315C169.657 11.0941 170.442 10.1348 171.663 9.43716C172.884 8.65229 174.758 8.25986 177.288 8.25986C179.904 8.25986 181.779 8.65229 182.912 9.43716C184.046 10.222 184.787 11.2685 185.136 12.5767C185.485 13.7976 185.66 15.2365 185.66 16.8935C185.66 18.376 185.485 19.7714 185.136 21.0795C184.787 22.3876 184.046 23.3905 182.912 24.0882C181.779 24.7858 179.86 25.1347 177.157 25.1347Z" fill="white" stroke="white" stroke-width="0.4"/>
<path d="M69.7179 102.051C67.4505 102.051 65.75 101.702 64.6163 101.005C63.4825 100.307 62.7413 99.3478 62.3924 98.1268C62.1308 96.9059 62 95.5542 62 94.0717V18.5929C62 17.1975 62.1308 15.933 62.3924 14.7993C62.7413 13.5784 63.4825 12.6191 64.6163 11.9214C65.75 11.1365 67.5377 10.7441 69.9796 10.7441C71.8109 10.7441 73.1627 10.8749 74.0348 11.1365C74.994 11.311 75.7353 11.6162 76.2586 12.0522C76.7818 12.4011 77.3051 12.8807 77.8283 13.4912L109.747 58.0982H106.738L138.787 13.3604C139.397 12.6627 140.008 12.1394 140.618 11.7906C141.229 11.4418 142.014 11.1801 142.973 11.0057C143.932 10.8313 145.197 10.7441 146.767 10.7441C149.121 10.7441 150.865 11.1365 151.999 11.9214C153.133 12.6191 153.83 13.5784 154.092 14.7993C154.441 16.0202 154.615 17.3719 154.615 18.8545V94.3333C154.615 95.6414 154.441 96.9059 154.092 98.1268C153.83 99.3478 153.133 100.307 151.999 101.005C150.865 101.702 149.078 102.051 146.636 102.051C144.281 102.051 142.537 101.659 141.403 100.874C140.27 100.176 139.528 99.2169 139.179 97.996C138.918 96.7751 138.787 95.467 138.787 94.0717V37.9531L114.979 72.3568C114.717 72.7056 114.325 73.1853 113.802 73.7957C113.279 74.319 112.581 74.7986 111.709 75.2347C110.837 75.6707 109.659 75.8887 108.177 75.8887C106.781 75.8887 105.648 75.6707 104.776 75.2347C103.904 74.7986 103.206 74.319 102.683 73.7957C102.247 73.2725 101.811 72.7492 101.375 72.226L77.6975 37.9531V94.3333C77.6975 95.6414 77.5231 96.9059 77.1743 98.1268C76.9126 99.3478 76.215 100.307 75.0813 101.005C73.9475 101.702 72.1598 102.051 69.7179 102.051Z" fill="white" stroke="white" stroke-width="0.4"/>
</svg>
