<svg width="1200" height="300" viewBox="0 0 1200 300" fill="none" xmlns="http://www.w3.org/2000/svg">
<path d="M558.985 284.507C558.985 281.746 561.224 279.507 563.985 279.507H1025.89C1028.65 279.507 1030.89 281.746 1030.89 284.507V287.8C1030.89 290.561 1028.65 292.8 1025.89 292.8H563.985C561.224 292.8 558.985 290.561 558.985 287.8V284.507Z" fill="#FFBB00"/>
<path d="M185.264 237.141V221.051C182.596 216.923 180.083 212.852 177.725 208.84C175.366 204.827 173.143 200.891 171.055 197.033H177.667C179.136 200.197 180.779 203.419 182.596 206.698C184.414 209.939 186.289 213.065 188.222 216.074C190.117 213.065 191.972 209.939 193.79 206.698C195.607 203.419 197.269 200.197 198.777 197.033H205.041C202.953 200.891 200.73 204.827 198.371 208.84C196.013 212.814 193.519 216.846 190.89 220.936V237.141H185.264Z" fill="#27235C"/>
<path d="M233.798 222.093C233.798 224.485 233.45 226.646 232.754 228.575C232.058 230.504 231.072 232.164 229.796 233.553C228.558 234.942 227.07 236.022 225.33 236.794C223.59 237.527 221.696 237.893 219.646 237.893C217.597 237.893 215.703 237.527 213.963 236.794C212.223 236.022 210.715 234.942 209.439 233.553C208.202 232.164 207.235 230.504 206.539 228.575C205.843 226.646 205.495 224.485 205.495 222.093C205.495 219.74 205.843 217.598 206.539 215.669C207.235 213.701 208.202 212.023 209.439 210.634C210.715 209.245 212.223 208.184 213.963 207.451C215.703 206.679 217.597 206.293 219.646 206.293C221.696 206.293 223.59 206.679 225.33 207.451C227.07 208.184 228.558 209.245 229.796 210.634C231.072 212.023 232.058 213.701 232.754 215.669C233.45 217.598 233.798 219.74 233.798 222.093ZM228.172 222.093C228.172 218.698 227.399 216.016 225.852 214.049C224.344 212.042 222.275 211.039 219.646 211.039C217.017 211.039 214.929 212.042 213.383 214.049C211.875 216.016 211.121 218.698 211.121 222.093C211.121 225.489 211.875 228.189 213.383 230.196C214.929 232.164 217.017 233.147 219.646 233.147C222.275 233.147 224.344 232.164 225.852 230.196C227.399 228.189 228.172 225.489 228.172 222.093Z" fill="#27235C"/>
<path d="M265.397 236.273C264.159 236.581 262.516 236.909 260.467 237.257C258.456 237.604 256.117 237.777 253.449 237.777C251.129 237.777 249.177 237.45 247.592 236.794C246.006 236.099 244.731 235.135 243.764 233.9C242.797 232.665 242.101 231.218 241.676 229.559C241.251 227.861 241.038 225.99 241.038 223.945V207.046H246.432V222.788C246.432 226.453 247.012 229.077 248.172 230.659C249.332 232.241 251.284 233.032 254.029 233.032C254.609 233.032 255.209 233.012 255.827 232.974C256.446 232.935 257.026 232.897 257.567 232.858C258.108 232.781 258.592 232.723 259.017 232.684C259.481 232.607 259.81 232.53 260.003 232.453V207.046H265.397V236.273Z" fill="#27235C"/>
<path d="M285.824 206.409C286.288 206.409 286.81 206.448 287.39 206.525C288.009 206.563 288.608 206.64 289.188 206.756C289.768 206.833 290.29 206.93 290.754 207.046C291.257 207.123 291.624 207.2 291.856 207.277L290.928 211.965C290.503 211.811 289.787 211.637 288.782 211.444C287.815 211.213 286.559 211.097 285.012 211.097C284.007 211.097 283.002 211.213 281.996 211.444C281.03 211.637 280.392 211.772 280.083 211.849V237.141H274.689V208.319C275.965 207.856 277.55 207.431 279.445 207.046C281.339 206.621 283.466 206.409 285.824 206.409Z" fill="#27235C"/>
<path d="M336.118 197.033H341.744V237.141H336.118V218.621H316.457V237.141H310.832V197.033H316.457V213.759H336.118V197.033Z" fill="#27235C"/>
<path d="M377.997 222.093C377.997 224.485 377.649 226.646 376.953 228.575C376.257 230.504 375.271 232.164 373.995 233.553C372.758 234.942 371.269 236.022 369.529 236.794C367.789 237.527 365.895 237.893 363.845 237.893C361.796 237.893 359.902 237.527 358.162 236.794C356.422 236.022 354.914 234.942 353.638 233.553C352.401 232.164 351.434 230.504 350.738 228.575C350.042 226.646 349.694 224.485 349.694 222.093C349.694 219.74 350.042 217.598 350.738 215.669C351.434 213.701 352.401 212.023 353.638 210.634C354.914 209.245 356.422 208.184 358.162 207.451C359.902 206.679 361.796 206.293 363.845 206.293C365.895 206.293 367.789 206.679 369.529 207.451C371.269 208.184 372.758 209.245 373.995 210.634C375.271 212.023 376.257 213.701 376.953 215.669C377.649 217.598 377.997 219.74 377.997 222.093ZM372.371 222.093C372.371 218.698 371.598 216.016 370.051 214.049C368.543 212.042 366.475 211.039 363.845 211.039C361.216 211.039 359.128 212.042 357.582 214.049C356.074 216.016 355.32 218.698 355.32 222.093C355.32 225.489 356.074 228.189 357.582 230.196C359.128 232.164 361.216 233.147 363.845 233.147C366.475 233.147 368.543 232.164 370.051 230.196C371.598 228.189 372.371 225.489 372.371 222.093Z" fill="#27235C"/>
<path d="M392.603 233.263C394.807 233.263 396.431 232.974 397.474 232.395C398.557 231.816 399.098 230.89 399.098 229.617C399.098 228.305 398.576 227.263 397.532 226.492C396.489 225.72 394.768 224.852 392.371 223.887C391.211 223.424 390.09 222.961 389.007 222.498C387.963 221.997 387.054 221.418 386.281 220.762C385.508 220.106 384.889 219.315 384.425 218.389C383.961 217.463 383.729 216.325 383.729 214.975C383.729 212.312 384.715 210.209 386.687 208.666C388.659 207.084 391.346 206.293 394.749 206.293C395.599 206.293 396.45 206.351 397.3 206.467C398.151 206.544 398.944 206.66 399.678 206.814C400.413 206.93 401.051 207.065 401.592 207.219C402.172 207.374 402.617 207.509 402.926 207.624L401.94 212.254C401.36 211.946 400.452 211.637 399.214 211.328C397.977 210.981 396.489 210.807 394.749 210.807C393.241 210.807 391.926 211.116 390.805 211.733C389.684 212.312 389.123 213.238 389.123 214.512C389.123 215.167 389.239 215.746 389.471 216.248C389.742 216.749 390.128 217.212 390.631 217.637C391.172 218.023 391.829 218.389 392.603 218.736C393.376 219.084 394.304 219.45 395.387 219.836C396.817 220.376 398.093 220.916 399.214 221.457C400.336 221.958 401.283 222.556 402.056 223.251C402.868 223.945 403.487 224.794 403.912 225.797C404.337 226.762 404.55 227.958 404.55 229.386C404.55 232.164 403.506 234.266 401.418 235.694C399.369 237.122 396.431 237.835 392.603 237.835C389.935 237.835 387.847 237.604 386.339 237.141C384.831 236.716 383.807 236.388 383.265 236.157L384.251 231.527C384.87 231.758 385.856 232.106 387.209 232.569C388.562 233.032 390.36 233.263 392.603 233.263Z" fill="#27235C"/>
<path d="M416.514 207.046H427.94V211.56H416.514V225.45C416.514 226.955 416.63 228.209 416.862 229.212C417.094 230.177 417.442 230.948 417.906 231.527C418.37 232.067 418.95 232.453 419.646 232.684C420.342 232.916 421.154 233.032 422.082 233.032C423.706 233.032 425.001 232.858 425.968 232.511C426.973 232.125 427.669 231.855 428.056 231.701L429.099 236.157C428.558 236.427 427.611 236.755 426.258 237.141C424.904 237.565 423.358 237.777 421.618 237.777C419.569 237.777 417.867 237.527 416.514 237.025C415.2 236.485 414.136 235.694 413.324 234.652C412.512 233.61 411.932 232.337 411.584 230.832C411.275 229.289 411.12 227.514 411.12 225.508V198.654L416.514 197.728V207.046Z" fill="#27235C"/>
<path d="M440.197 237.141H434.803V207.046H440.197V237.141ZM437.471 201.605C436.504 201.605 435.673 201.297 434.977 200.679C434.32 200.023 433.991 199.155 433.991 198.075C433.991 196.995 434.32 196.146 434.977 195.528C435.673 194.872 436.504 194.544 437.471 194.544C438.438 194.544 439.25 194.872 439.907 195.528C440.603 196.146 440.951 196.995 440.951 198.075C440.951 199.155 440.603 200.023 439.907 200.679C439.25 201.297 438.438 201.605 437.471 201.605Z" fill="#27235C"/>
<path d="M449.472 207.914C450.709 207.605 452.353 207.277 454.402 206.93C456.451 206.583 458.81 206.409 461.478 206.409C463.875 206.409 465.866 206.756 467.451 207.451C469.036 208.107 470.293 209.052 471.221 210.287C472.188 211.483 472.864 212.93 473.251 214.627C473.638 216.325 473.831 218.196 473.831 220.241V237.141H468.437V221.399C468.437 219.547 468.302 217.965 468.031 216.653C467.799 215.341 467.393 214.28 466.813 213.47C466.233 212.66 465.46 212.081 464.493 211.733C463.527 211.348 462.328 211.155 460.898 211.155C460.318 211.155 459.718 211.174 459.1 211.213C458.481 211.251 457.882 211.309 457.302 211.386C456.76 211.425 456.258 211.483 455.794 211.56C455.369 211.637 455.059 211.695 454.866 211.733V237.141H449.472V207.914Z" fill="#27235C"/>
<path d="M501.682 234.131C501.218 234.44 500.309 234.845 498.956 235.347C497.642 235.81 496.095 236.041 494.316 236.041C492.499 236.041 490.779 235.752 489.155 235.173C487.569 234.594 486.178 233.707 484.979 232.511C483.78 231.276 482.833 229.752 482.137 227.939C481.441 226.125 481.093 223.965 481.093 221.457C481.093 219.257 481.422 217.251 482.079 215.438C482.736 213.586 483.684 212.004 484.921 210.692C486.197 209.341 487.743 208.3 489.561 207.566C491.378 206.795 493.427 206.409 495.708 206.409C498.222 206.409 500.406 206.602 502.262 206.988C504.157 207.335 505.742 207.663 507.018 207.972V234.826C507.018 239.456 505.819 242.813 503.422 244.896C501.025 246.98 497.39 248.021 492.519 248.021C490.624 248.021 488.826 247.867 487.125 247.558C485.462 247.25 484.012 246.883 482.775 246.459L483.761 241.771C484.844 242.195 486.158 242.562 487.705 242.871C489.29 243.218 490.933 243.391 492.635 243.391C495.844 243.391 498.144 242.755 499.536 241.482C500.967 240.208 501.682 238.183 501.682 235.405V234.131ZM501.624 211.791C501.083 211.637 500.348 211.502 499.42 211.386C498.531 211.232 497.313 211.155 495.766 211.155C492.866 211.155 490.624 212.1 489.039 213.991C487.492 215.881 486.719 218.389 486.719 221.514C486.719 223.251 486.931 224.736 487.357 225.971C487.821 227.206 488.42 228.228 489.155 229.038C489.928 229.849 490.798 230.447 491.765 230.832C492.77 231.218 493.794 231.411 494.838 231.411C496.269 231.411 497.584 231.218 498.782 230.832C499.981 230.408 500.928 229.926 501.624 229.386V211.791Z" fill="#27235C"/>
<path d="M521.988 230.543C522.027 230.852 522.046 231.16 522.046 231.469C522.046 231.739 522.046 232.029 522.046 232.337C522.046 234.768 521.679 237.16 520.944 239.514C520.248 241.906 519.282 244.182 518.044 246.343L513.869 245.012C514.835 243.044 515.473 241.038 515.783 238.993C516.092 236.987 516.246 235.096 516.246 233.321C516.246 232.819 516.227 232.337 516.188 231.874C516.188 231.411 516.169 230.967 516.13 230.543H521.988Z" fill="#27235C"/>
<path d="M542.724 217.058C542.724 213.624 543.227 210.595 544.232 207.972C545.276 205.348 546.668 203.168 548.408 201.432C550.187 199.657 552.236 198.326 554.556 197.438C556.914 196.551 559.408 196.107 562.037 196.107C564.628 196.107 567.064 196.551 569.345 197.438C571.665 198.326 573.695 199.657 575.434 201.432C577.174 203.168 578.547 205.348 579.552 207.972C580.596 210.595 581.118 213.624 581.118 217.058C581.118 220.492 580.596 223.521 579.552 226.145C578.547 228.768 577.174 230.967 575.434 232.742C573.695 234.479 571.665 235.79 569.345 236.678C567.064 237.565 564.628 238.009 562.037 238.009C559.408 238.009 556.914 237.565 554.556 236.678C552.236 235.79 550.187 234.479 548.408 232.742C546.668 230.967 545.276 228.768 544.232 226.145C543.227 223.521 542.724 220.492 542.724 217.058ZM548.64 217.058C548.64 219.489 548.949 221.707 549.568 223.714C550.187 225.682 551.056 227.36 552.178 228.749C553.338 230.138 554.73 231.218 556.353 231.99C558.016 232.723 559.872 233.09 561.921 233.09C563.97 233.09 565.807 232.723 567.431 231.99C569.055 231.218 570.427 230.138 571.549 228.749C572.709 227.36 573.598 225.682 574.217 223.714C574.835 221.707 575.144 219.489 575.144 217.058C575.144 214.627 574.835 212.428 574.217 210.46C573.598 208.454 572.709 206.756 571.549 205.367C570.427 203.978 569.055 202.917 567.431 202.184C565.807 201.412 563.97 201.027 561.921 201.027C559.872 201.027 558.016 201.412 556.353 202.184C554.73 202.917 553.338 203.978 552.178 205.367C551.056 206.756 550.187 208.454 549.568 210.46C548.949 212.428 548.64 214.627 548.64 217.058Z" fill="#27235C"/>
<path d="M613.151 236.273C611.914 236.581 610.27 236.909 608.221 237.257C606.211 237.604 603.871 237.777 601.204 237.777C598.884 237.777 596.931 237.45 595.346 236.794C593.761 236.099 592.485 235.135 591.518 233.9C590.552 232.665 589.856 231.218 589.43 229.559C589.005 227.861 588.792 225.99 588.792 223.945V207.046H594.186V222.788C594.186 226.453 594.766 229.077 595.926 230.659C597.086 232.241 599.038 233.032 601.784 233.032C602.364 233.032 602.963 233.012 603.581 232.974C604.2 232.935 604.78 232.897 605.321 232.858C605.863 232.781 606.346 232.723 606.771 232.684C607.235 232.607 607.564 232.53 607.757 232.453V207.046H613.151V236.273Z" fill="#27235C"/>
<path d="M633.579 206.409C634.042 206.409 634.564 206.448 635.144 206.525C635.763 206.563 636.362 206.64 636.942 206.756C637.522 206.833 638.044 206.93 638.508 207.046C639.011 207.123 639.378 207.2 639.61 207.277L638.682 211.965C638.257 211.811 637.542 211.637 636.536 211.444C635.57 211.213 634.313 211.097 632.767 211.097C631.761 211.097 630.756 211.213 629.751 211.444C628.784 211.637 628.146 211.772 627.837 211.849V237.141H622.443V208.319C623.719 207.856 625.304 207.431 627.199 207.046C629.093 206.621 631.22 206.409 633.579 206.409Z" fill="#27235C"/>
<path d="M678.247 220.357C678.866 221.129 679.639 222.151 680.567 223.424C681.533 224.659 682.519 226.048 683.525 227.591C684.53 229.096 685.516 230.678 686.482 232.337C687.488 233.996 688.338 235.598 689.034 237.141H682.887C682.113 235.675 681.263 234.189 680.335 232.684C679.446 231.18 678.537 229.752 677.609 228.402C676.681 227.013 675.753 225.72 674.825 224.524C673.936 223.328 673.124 222.286 672.389 221.399C671.887 221.437 671.365 221.457 670.823 221.457C670.321 221.457 669.799 221.457 669.257 221.457H664.212V237.141H658.586V197.612C660.171 197.226 661.931 196.975 663.864 196.859C665.836 196.705 667.634 196.628 669.257 196.628C674.902 196.628 679.194 197.689 682.133 199.811C685.11 201.933 686.598 205.097 686.598 209.303C686.598 211.965 685.883 214.241 684.453 216.132C683.061 218.023 680.992 219.431 678.247 220.357ZM669.721 201.547C667.324 201.547 665.488 201.605 664.212 201.721V216.827H668.214C670.147 216.827 671.887 216.73 673.433 216.537C674.98 216.344 676.275 215.978 677.319 215.438C678.402 214.897 679.233 214.145 679.813 213.18C680.393 212.177 680.683 210.865 680.683 209.245C680.683 207.74 680.393 206.486 679.813 205.483C679.233 204.48 678.44 203.689 677.435 203.11C676.468 202.531 675.308 202.126 673.955 201.895C672.641 201.663 671.229 201.547 669.721 201.547Z" fill="#27235C"/>
<path d="M693.031 222.151C693.031 219.489 693.417 217.174 694.191 215.206C694.964 213.2 695.989 211.541 697.264 210.229C698.54 208.917 700.01 207.933 701.672 207.277C703.335 206.621 705.036 206.293 706.776 206.293C710.836 206.293 713.948 207.566 716.113 210.113C718.279 212.621 719.361 216.46 719.361 221.63C719.361 221.862 719.361 222.17 719.361 222.556C719.361 222.903 719.342 223.231 719.303 223.54H698.656C698.888 226.665 699.797 229.038 701.382 230.659C702.967 232.279 705.442 233.09 708.806 233.09C710.7 233.09 712.286 232.935 713.562 232.627C714.876 232.279 715.862 231.951 716.519 231.643L717.273 236.157C716.616 236.504 715.456 236.871 713.794 237.257C712.17 237.642 710.314 237.835 708.226 237.835C705.597 237.835 703.315 237.45 701.382 236.678C699.488 235.868 697.922 234.768 696.684 233.379C695.447 231.99 694.519 230.35 693.901 228.46C693.321 226.53 693.031 224.428 693.031 222.151ZM713.736 219.199C713.774 216.769 713.156 214.782 711.88 213.238C710.642 211.656 708.922 210.865 706.718 210.865C705.481 210.865 704.379 211.116 703.412 211.618C702.484 212.081 701.692 212.698 701.034 213.47C700.377 214.241 699.855 215.129 699.468 216.132C699.12 217.135 698.888 218.158 698.772 219.199H713.736Z" fill="#27235C"/>
<path d="M734.127 233.263C736.331 233.263 737.955 232.974 738.999 232.395C740.081 231.816 740.623 230.89 740.623 229.617C740.623 228.305 740.101 227.263 739.057 226.492C738.013 225.72 736.292 224.852 733.895 223.887C732.735 223.424 731.614 222.961 730.531 222.498C729.487 221.997 728.578 221.418 727.805 220.762C727.032 220.106 726.413 219.315 725.949 218.389C725.485 217.463 725.253 216.325 725.253 214.975C725.253 212.312 726.239 210.209 728.211 208.666C730.183 207.084 732.87 206.293 736.273 206.293C737.123 206.293 737.974 206.351 738.825 206.467C739.675 206.544 740.468 206.66 741.203 206.814C741.937 206.93 742.575 207.065 743.116 207.219C743.696 207.374 744.141 207.509 744.45 207.624L743.464 212.254C742.884 211.946 741.976 211.637 740.739 211.328C739.501 210.981 738.013 210.807 736.273 210.807C734.765 210.807 733.45 211.116 732.329 211.733C731.208 212.312 730.647 213.238 730.647 214.512C730.647 215.167 730.763 215.746 730.995 216.248C731.266 216.749 731.652 217.212 732.155 217.637C732.696 218.023 733.354 218.389 734.127 218.736C734.9 219.084 735.828 219.45 736.911 219.836C738.341 220.376 739.617 220.916 740.739 221.457C741.86 221.958 742.807 222.556 743.58 223.251C744.392 223.945 745.011 224.794 745.436 225.797C745.862 226.762 746.074 227.958 746.074 229.386C746.074 232.164 745.03 234.266 742.942 235.694C740.893 237.122 737.955 237.835 734.127 237.835C731.459 237.835 729.371 237.604 727.863 237.141C726.355 236.716 725.331 236.388 724.789 236.157L725.775 231.527C726.394 231.758 727.38 232.106 728.733 232.569C730.086 233.032 731.884 233.263 734.127 233.263Z" fill="#27235C"/>
<path d="M773.929 222.151C773.929 218.64 773.059 215.939 771.32 214.049C769.58 212.158 767.26 211.213 764.36 211.213C762.736 211.213 761.46 211.27 760.532 211.386C759.643 211.502 758.928 211.637 758.386 211.791V230.775C759.044 231.315 759.991 231.836 761.228 232.337C762.465 232.839 763.819 233.09 765.288 233.09C766.835 233.09 768.149 232.819 769.232 232.279C770.353 231.701 771.262 230.929 771.958 229.964C772.653 228.961 773.156 227.804 773.465 226.492C773.775 225.141 773.929 223.694 773.929 222.151ZM779.555 222.151C779.555 224.428 779.246 226.53 778.627 228.46C778.047 230.389 777.177 232.048 776.017 233.437C774.857 234.826 773.427 235.906 771.726 236.678C770.063 237.45 768.149 237.835 765.984 237.835C764.244 237.835 762.697 237.604 761.344 237.141C760.03 236.678 759.044 236.234 758.386 235.81V247.848H752.993V207.972C754.269 207.663 755.854 207.335 757.748 206.988C759.682 206.602 761.905 206.409 764.418 206.409C766.738 206.409 768.826 206.775 770.682 207.509C772.538 208.242 774.123 209.283 775.437 210.634C776.752 211.984 777.757 213.643 778.453 215.611C779.188 217.54 779.555 219.72 779.555 222.151Z" fill="#27235C"/>
<path d="M813.766 222.093C813.766 224.485 813.418 226.646 812.722 228.575C812.026 230.504 811.04 232.164 809.764 233.553C808.527 234.942 807.038 236.022 805.298 236.794C803.558 237.527 801.664 237.893 799.614 237.893C797.565 237.893 795.671 237.527 793.931 236.794C792.191 236.022 790.683 234.942 789.407 233.553C788.17 232.164 787.203 230.504 786.507 228.575C785.811 226.646 785.463 224.485 785.463 222.093C785.463 219.74 785.811 217.598 786.507 215.669C787.203 213.701 788.17 212.023 789.407 210.634C790.683 209.245 792.191 208.184 793.931 207.451C795.671 206.679 797.565 206.293 799.614 206.293C801.664 206.293 803.558 206.679 805.298 207.451C807.038 208.184 808.527 209.245 809.764 210.634C811.04 212.023 812.026 213.701 812.722 215.669C813.418 217.598 813.766 219.74 813.766 222.093ZM808.14 222.093C808.14 218.698 807.367 216.016 805.82 214.049C804.312 212.042 802.244 211.039 799.614 211.039C796.985 211.039 794.897 212.042 793.351 214.049C791.843 216.016 791.089 218.698 791.089 222.093C791.089 225.489 791.843 228.189 793.351 230.196C794.897 232.164 796.985 233.147 799.614 233.147C802.244 233.147 804.312 232.164 805.82 230.196C807.367 228.189 808.14 225.489 808.14 222.093Z" fill="#27235C"/>
<path d="M821.354 207.914C822.591 207.605 824.235 207.277 826.284 206.93C828.333 206.583 830.692 206.409 833.359 206.409C835.757 206.409 837.748 206.756 839.333 207.451C840.918 208.107 842.175 209.052 843.103 210.287C844.069 211.483 844.746 212.93 845.133 214.627C845.519 216.325 845.713 218.196 845.713 220.241V237.141H840.319V221.399C840.319 219.547 840.184 217.965 839.913 216.653C839.681 215.341 839.275 214.28 838.695 213.47C838.115 212.66 837.342 212.081 836.375 211.733C835.409 211.348 834.21 211.155 832.779 211.155C832.199 211.155 831.6 211.174 830.982 211.213C830.363 211.251 829.764 211.309 829.184 211.386C828.642 211.425 828.14 211.483 827.676 211.56C827.25 211.637 826.941 211.695 826.748 211.733V237.141H821.354V207.914Z" fill="#27235C"/>
<path d="M861.675 233.263C863.878 233.263 865.502 232.974 866.546 232.395C867.629 231.816 868.17 230.89 868.17 229.617C868.17 228.305 867.648 227.263 866.604 226.492C865.56 225.72 863.84 224.852 861.443 223.887C860.283 223.424 859.161 222.961 858.079 222.498C857.035 221.997 856.126 221.418 855.353 220.762C854.58 220.106 853.961 219.315 853.497 218.389C853.033 217.463 852.801 216.325 852.801 214.975C852.801 212.312 853.787 210.209 855.759 208.666C857.731 207.084 860.418 206.293 863.82 206.293C864.671 206.293 865.522 206.351 866.372 206.467C867.223 206.544 868.016 206.66 868.75 206.814C869.485 206.93 870.123 207.065 870.664 207.219C871.244 207.374 871.689 207.509 871.998 207.624L871.012 212.254C870.432 211.946 869.523 211.637 868.286 211.328C867.049 210.981 865.56 210.807 863.82 210.807C862.312 210.807 860.998 211.116 859.877 211.733C858.755 212.312 858.195 213.238 858.195 214.512C858.195 215.167 858.311 215.746 858.543 216.248C858.813 216.749 859.2 217.212 859.703 217.637C860.244 218.023 860.901 218.389 861.675 218.736C862.448 219.084 863.376 219.45 864.458 219.836C865.889 220.376 867.165 220.916 868.286 221.457C869.407 221.958 870.355 222.556 871.128 223.251C871.94 223.945 872.559 224.794 872.984 225.797C873.409 226.762 873.622 227.958 873.622 229.386C873.622 232.164 872.578 234.266 870.49 235.694C868.441 237.122 865.502 237.835 861.675 237.835C859.007 237.835 856.919 237.604 855.411 237.141C853.903 236.716 852.878 236.388 852.337 236.157L853.323 231.527C853.942 231.758 854.928 232.106 856.281 232.569C857.634 233.032 859.432 233.263 861.675 233.263Z" fill="#27235C"/>
<path d="M885.934 237.141H880.54V207.046H885.934V237.141ZM883.208 201.605C882.241 201.605 881.41 201.297 880.714 200.679C880.057 200.023 879.728 199.155 879.728 198.075C879.728 196.995 880.057 196.146 880.714 195.528C881.41 194.872 882.241 194.544 883.208 194.544C884.175 194.544 884.987 194.872 885.644 195.528C886.34 196.146 886.688 196.995 886.688 198.075C886.688 199.155 886.34 200.023 885.644 200.679C884.987 201.297 884.175 201.605 883.208 201.605Z" fill="#27235C"/>
<path d="M900.603 208.377C901.26 207.952 902.246 207.509 903.561 207.046C904.914 206.583 906.461 206.351 908.201 206.351C910.366 206.351 912.28 206.737 913.942 207.509C915.644 208.28 917.074 209.361 918.234 210.75C919.394 212.139 920.264 213.798 920.844 215.727C921.463 217.656 921.772 219.778 921.772 222.093C921.772 224.524 921.405 226.723 920.67 228.691C919.974 230.62 918.969 232.26 917.654 233.61C916.34 234.961 914.754 236.003 912.898 236.736C911.042 237.469 908.955 237.835 906.635 237.835C904.122 237.835 901.898 237.662 899.965 237.314C898.032 236.967 896.447 236.62 895.209 236.273V193.155L900.603 192.229V208.377ZM900.603 232.453C901.144 232.607 901.898 232.762 902.865 232.916C903.87 233.032 905.107 233.09 906.577 233.09C909.477 233.09 911.796 232.144 913.536 230.254C915.276 228.324 916.146 225.604 916.146 222.093C916.146 220.55 915.992 219.103 915.682 217.753C915.373 216.402 914.87 215.245 914.174 214.28C913.478 213.277 912.57 212.505 911.448 211.965C910.366 211.386 909.051 211.097 907.505 211.097C906.035 211.097 904.682 211.348 903.445 211.849C902.208 212.351 901.26 212.872 900.603 213.412V232.453Z" fill="#27235C"/>
<path d="M934.755 237.141H929.362V207.046H934.755V237.141ZM932.03 201.605C931.063 201.605 930.232 201.297 929.536 200.679C928.878 200.023 928.55 199.155 928.55 198.075C928.55 196.995 928.878 196.146 929.536 195.528C930.232 194.872 931.063 194.544 932.03 194.544C932.996 194.544 933.808 194.872 934.465 195.528C935.161 196.146 935.509 196.995 935.509 198.075C935.509 199.155 935.161 200.023 934.465 200.679C933.808 201.297 932.996 201.605 932.03 201.605Z" fill="#27235C"/>
<path d="M953.078 237.72C949.753 237.642 947.395 236.929 946.003 235.578C944.611 234.228 943.915 232.125 943.915 229.27V193.155L949.309 192.229V228.402C949.309 229.289 949.386 230.022 949.541 230.601C949.695 231.18 949.947 231.643 950.295 231.99C950.643 232.337 951.107 232.607 951.686 232.8C952.266 232.955 952.982 233.09 953.832 233.205L953.078 237.72Z" fill="#27235C"/>
<path d="M965.283 237.141H959.889V207.046H965.283V237.141ZM962.557 201.605C961.591 201.605 960.759 201.297 960.063 200.679C959.406 200.023 959.077 199.155 959.077 198.075C959.077 196.995 959.406 196.146 960.063 195.528C960.759 194.872 961.591 194.544 962.557 194.544C963.524 194.544 964.336 194.872 964.993 195.528C965.689 196.146 966.037 196.995 966.037 198.075C966.037 199.155 965.689 200.023 964.993 200.679C964.336 201.297 963.524 201.605 962.557 201.605Z" fill="#27235C"/>
<path d="M979.604 207.046H991.03V211.56H979.604V225.45C979.604 226.955 979.72 228.209 979.952 229.212C980.184 230.177 980.532 230.948 980.996 231.527C981.46 232.067 982.04 232.453 982.736 232.684C983.432 232.916 984.244 233.032 985.172 233.032C986.796 233.032 988.091 232.858 989.058 232.511C990.063 232.125 990.759 231.855 991.146 231.701L992.19 236.157C991.648 236.427 990.701 236.755 989.348 237.141C987.994 237.565 986.448 237.777 984.708 237.777C982.659 237.777 980.957 237.527 979.604 237.025C978.29 236.485 977.226 235.694 976.414 234.652C975.602 233.61 975.023 232.337 974.675 230.832C974.365 229.289 974.21 227.514 974.21 225.508V198.654L979.604 197.728V207.046Z" fill="#27235C"/>
<path d="M994.355 242.755C994.781 242.948 995.322 243.121 995.979 243.276C996.675 243.469 997.352 243.565 998.009 243.565C1000.14 243.565 1001.8 243.083 1003 242.118C1004.2 241.192 1005.28 239.668 1006.24 237.546C1003.81 232.916 1001.53 228.016 999.401 222.846C997.313 217.637 995.573 212.37 994.181 207.046H999.981C1000.41 208.782 1000.91 210.653 1001.49 212.66C1002.11 214.666 1002.78 216.73 1003.52 218.852C1004.25 220.974 1005.05 223.096 1005.9 225.218C1006.75 227.341 1007.64 229.386 1008.56 231.353C1010.03 227.302 1011.31 223.289 1012.39 219.315C1013.47 215.341 1014.5 211.251 1015.47 207.046H1021.03C1019.64 212.717 1018.1 218.177 1016.39 223.424C1014.69 228.633 1012.86 233.514 1010.88 238.067C1010.11 239.803 1009.3 241.289 1008.45 242.523C1007.64 243.797 1006.73 244.838 1005.72 245.649C1004.72 246.459 1003.58 247.057 1002.3 247.443C1001.06 247.829 999.652 248.021 998.067 248.021C997.642 248.021 997.197 247.983 996.733 247.906C996.269 247.867 995.805 247.79 995.341 247.674C994.916 247.597 994.51 247.501 994.123 247.385C993.775 247.269 993.524 247.173 993.369 247.095L994.355 242.755Z" fill="#27235C"/>
<path d="M1031.52 234.016C1031.52 235.057 1031.17 235.964 1030.48 236.736C1029.78 237.507 1028.83 237.893 1027.63 237.893C1026.44 237.893 1025.49 237.507 1024.79 236.736C1024.1 235.964 1023.75 235.057 1023.75 234.016C1023.75 232.974 1024.1 232.067 1024.79 231.295C1025.49 230.524 1026.44 230.138 1027.63 230.138C1028.83 230.138 1029.78 230.524 1030.48 231.295C1031.17 232.067 1031.52 232.974 1031.52 234.016Z" fill="#27235C"/>
<path d="M984.709 152.938C978.079 152.938 972.124 151.652 966.847 149.081C961.704 146.375 957.306 142.721 953.653 138.12C950.134 133.519 947.428 128.241 945.533 122.287C943.774 116.197 942.894 109.702 942.894 102.8C943.03 95.8989 944.045 89.471 945.939 83.5168C947.834 77.4273 950.54 72.1496 954.059 67.684C957.712 63.083 962.11 59.4969 967.253 56.9258C972.395 54.3546 978.214 53.069 984.709 53.069C990.934 53.069 996.753 54.3546 1002.17 56.9258C1007.71 59.4969 1012.59 63.083 1016.78 67.684C1021.11 72.1496 1024.49 77.4273 1026.93 83.5168C1029.37 89.471 1030.58 95.8313 1030.58 102.597C1030.58 109.634 1029.37 116.265 1026.93 122.49C1024.49 128.58 1021.18 133.925 1016.98 138.526C1012.79 142.991 1007.92 146.51 1002.37 149.081C996.821 151.652 990.934 152.938 984.709 152.938ZM981.462 129.188C986.198 129.188 990.461 128.106 994.25 125.941C998.039 123.64 1001.02 120.528 1003.18 116.603C1005.48 112.679 1006.63 108.213 1006.63 103.206C1006.63 98.0641 1005.48 93.5307 1003.18 89.6064C1001.02 85.5467 998.039 82.4342 994.25 80.269C990.461 77.9685 986.198 76.8183 981.462 76.8183C976.861 76.8183 972.666 77.9685 968.877 80.269C965.087 82.5695 962.043 85.682 959.742 89.6064C957.577 93.5307 956.494 98.0641 956.494 103.206C956.494 108.213 957.577 112.679 959.742 116.603C962.043 120.528 965.087 123.64 968.877 125.941C972.666 128.106 976.861 129.188 981.462 129.188ZM943.909 153.141C940.256 153.141 937.549 152.532 935.79 151.314C934.031 150.231 932.948 148.81 932.542 147.051C932.136 145.157 931.933 143.059 931.933 140.759V19.7795C931.933 17.479 932.136 15.4491 932.542 13.6899C932.948 11.7954 934.031 10.3068 935.79 9.22422C937.549 8.14164 940.256 7.60035 943.909 7.60035C947.698 7.60035 950.405 8.14164 952.029 9.22422C953.653 10.3068 954.668 11.7954 955.074 13.6899C955.48 15.5844 955.683 17.6143 955.683 19.7795V144.818C955.141 147.795 953.991 149.893 952.232 151.111C950.608 152.464 947.834 153.141 943.909 153.141Z" fill="#27235C" stroke="#27235C" stroke-width="0.5"/>
<path d="M871.434 154.361C862.638 154.361 854.924 152.94 848.293 150.099C841.798 147.257 836.317 143.4 831.852 138.529C827.521 133.522 824.206 127.973 821.905 121.884C819.74 115.659 818.658 109.231 818.658 102.6C818.658 92.8569 820.89 84.1962 825.356 76.6181C829.822 69.0399 835.979 63.0857 843.828 58.7554C851.812 54.425 860.946 52.2598 871.231 52.2598C878.538 52.2598 884.966 53.4101 890.514 55.7106C896.063 58.0111 900.664 61.0559 904.317 64.8449C908.106 68.4986 910.948 72.5584 912.843 77.024C914.873 81.4897 915.888 85.82 915.888 90.0151C915.888 97.1872 914.128 102.397 910.61 105.645C907.227 108.893 902.964 110.517 897.822 110.517H844.234C844.369 115.118 845.79 119.11 848.496 122.493C851.338 125.876 854.857 128.515 859.052 130.409C863.382 132.168 867.78 133.048 872.246 133.048C875.629 133.048 878.606 132.845 881.177 132.439C883.884 132.033 886.184 131.559 888.079 131.018C889.973 130.341 891.597 129.665 892.95 128.988C894.439 128.312 895.792 127.703 897.01 127.161C898.228 126.62 899.378 126.282 900.461 126.146C901.949 126.011 903.438 126.349 904.926 127.161C906.415 127.973 907.633 129.394 908.58 131.424C909.392 132.777 909.933 134.063 910.204 135.281C910.61 136.363 910.813 137.446 910.813 138.529C910.813 141.235 909.189 143.806 905.941 146.242C902.693 148.542 898.092 150.437 892.138 151.926C886.319 153.549 879.418 154.361 871.434 154.361ZM844.234 96.1046H885.846C888.146 96.1046 889.905 95.7663 891.123 95.0897C892.341 94.2778 892.95 92.6539 892.95 90.2181C892.95 87.1056 892.003 84.3315 890.108 81.8957C888.214 79.3245 885.643 77.3623 882.395 76.0091C879.147 74.5205 875.358 73.7763 871.028 73.7763C866.021 73.7763 861.487 74.7912 857.428 76.821C853.368 78.7156 850.12 81.3544 847.685 84.7375C845.384 88.1206 844.234 91.9096 844.234 96.1046Z" fill="#27235C" stroke="#27235C" stroke-width="0.5"/>
<path d="M689.83 152.54C687.123 152.54 684.958 152.066 683.334 151.119C681.71 150.036 680.493 148.818 679.681 147.465C679.004 146.112 678.53 144.961 678.26 144.014L638.475 27.5007C637.121 23.1703 636.918 19.9225 637.866 17.7574C638.813 15.4569 641.587 13.5623 646.188 12.0738C649.3 10.9912 651.804 10.5176 653.698 10.6529C655.593 10.7882 657.149 11.6002 658.367 13.0887C659.72 14.442 660.871 16.6071 661.818 19.5842L691.048 108.086L717.233 20.3962C717.639 19.0429 718.18 17.6897 718.857 16.3365C719.669 14.8479 720.887 13.63 722.51 12.6827C724.134 11.7355 726.367 11.2619 729.209 11.2619C732.457 11.2619 734.893 11.8031 736.516 12.8857C738.14 13.9683 739.291 15.1862 739.967 16.5395C740.779 17.7574 741.32 18.9076 741.591 19.9902L767.776 108.695L797.209 19.7872C798.156 16.6748 799.239 14.3743 800.457 12.8857C801.81 11.3972 803.502 10.5852 805.531 10.4499C807.561 10.1793 810.065 10.5852 813.042 11.6678C816.154 12.7504 818.387 13.9683 819.74 15.3216C821.094 16.5395 821.77 18.1633 821.77 20.1932C821.77 22.0877 821.297 24.5235 820.349 27.5007L780.767 144.217C780.497 145.029 779.955 146.112 779.143 147.465C778.467 148.818 777.316 150.036 775.693 151.119C774.069 152.066 771.836 152.54 768.994 152.54C766.152 152.54 763.919 151.931 762.296 150.713C760.672 149.495 759.454 148.142 758.642 146.653C757.83 145.164 757.289 144.082 757.018 143.405L729.412 54.0917L701.806 143.202C701.535 144.149 700.994 145.367 700.182 146.856C699.505 148.345 698.355 149.698 696.731 150.916C695.107 151.998 692.807 152.54 689.83 152.54Z" fill="#27235C" stroke="#27235C" stroke-width="0.5"/>
<path d="M584.282 154.363C580.763 154.363 577.042 153.957 573.118 153.145C569.193 152.469 565.404 151.454 561.75 150.101C558.097 148.612 554.917 146.92 552.21 145.026C549.639 142.996 548.015 140.763 547.338 138.327C546.797 136.974 546.594 135.689 546.729 134.471C546.865 133.117 547.271 131.764 547.947 130.411C548.624 128.922 549.639 127.434 550.992 125.945C552.21 124.457 553.428 123.645 554.646 123.509C555.999 123.239 557.691 123.645 559.72 124.727C561.48 125.404 563.374 126.284 565.404 127.366C567.569 128.449 569.734 129.531 571.9 130.614C574.2 131.697 576.501 132.576 578.801 133.253C581.237 133.929 583.605 134.268 585.906 134.268C590.913 134.268 594.905 133.456 597.882 131.832C600.859 130.073 602.347 127.637 602.347 124.524C602.347 122.765 601.874 121.209 600.926 119.856C599.979 118.503 598.694 117.42 597.07 116.608C595.581 115.661 593.754 114.849 591.589 114.172C589.559 113.36 587.326 112.684 584.891 112.142C582.59 111.466 580.154 110.721 577.583 109.909C574.2 108.962 570.817 107.812 567.434 106.459C564.051 105.106 561.006 103.346 558.3 101.181C555.728 99.0159 553.631 96.3095 552.007 93.0617C550.383 89.814 549.571 85.7542 549.571 80.8826C549.571 74.793 550.992 69.6508 553.834 65.4557C556.811 61.1254 561.074 57.8099 566.622 55.5094C572.17 53.2089 578.869 52.0587 586.718 52.0587C589.424 52.0587 591.995 52.2617 594.431 52.6677C597.002 53.0736 599.438 53.6826 601.738 54.4945C604.174 55.1711 606.475 56.0507 608.64 57.1333C610.94 58.2159 613.106 59.4338 615.135 60.7871C618.519 62.6816 620.278 64.9144 620.413 67.4856C620.548 69.9214 619.601 72.5602 617.571 75.402C616.083 77.2965 614.594 78.6498 613.106 79.4617C611.617 80.1383 610.061 80.1383 608.437 79.4617C606.272 78.3791 603.904 77.2289 601.332 76.011C598.897 74.6577 596.326 73.5075 593.619 72.5602C591.048 71.6129 588.341 71.1393 585.5 71.1393C582.793 71.1393 580.357 71.5453 578.192 72.3572C576.027 73.1692 574.403 74.3194 573.321 75.808C572.238 77.2965 571.697 79.0557 571.697 81.0856C571.697 82.9801 572.238 84.5363 573.321 85.7542C574.403 86.9722 575.824 87.9871 577.583 88.799C579.342 89.611 581.44 90.3552 583.876 91.0319C586.312 91.5732 588.883 92.1145 591.589 92.6557C595.378 93.4677 599.235 94.4826 603.159 95.7005C607.084 96.9184 610.67 98.61 613.918 100.775C617.301 102.94 620.007 105.85 622.037 109.504C624.067 113.022 625.082 117.623 625.082 123.307C625.082 133.185 621.428 140.831 614.121 146.244C606.948 151.657 597.002 154.363 584.282 154.363Z" fill="#27235C" stroke="#27235C" stroke-width="0.5"/>
<path d="M488.459 154.36C479.663 154.36 471.95 152.939 465.319 150.098C458.824 147.256 453.343 143.399 448.877 138.527C444.547 133.52 441.232 127.972 438.931 121.883C436.766 115.658 435.683 109.23 435.683 102.599C435.683 92.8557 437.916 84.195 442.382 76.6169C446.847 69.0388 453.005 63.0845 460.853 58.7542C468.838 54.4238 477.972 52.2587 488.256 52.2587C495.564 52.2587 501.992 53.4089 507.54 55.7094C513.088 58.0099 517.689 61.0547 521.343 64.8437C525.132 68.4975 527.974 72.5572 529.868 77.0228C531.898 81.4885 532.913 85.8189 532.913 90.0139C532.913 97.186 531.154 102.396 527.636 105.644C524.252 108.892 519.99 110.515 514.847 110.515H461.259C461.395 115.116 462.816 119.108 465.522 122.492C468.364 125.875 471.882 128.513 476.077 130.408C480.408 132.167 484.806 133.047 489.271 133.047C492.654 133.047 495.632 132.844 498.203 132.438C500.909 132.032 503.21 131.558 505.104 131.017C506.999 130.34 508.623 129.664 509.976 128.987C511.464 128.31 512.818 127.701 514.036 127.16C515.253 126.619 516.404 126.281 517.486 126.145C518.975 126.01 520.463 126.348 521.952 127.16C523.441 127.972 524.658 129.393 525.606 131.423C526.418 132.776 526.959 134.062 527.23 135.28C527.636 136.362 527.839 137.445 527.839 138.527C527.839 141.234 526.215 143.805 522.967 146.241C519.719 148.541 515.118 150.436 509.164 151.924C503.345 153.548 496.443 154.36 488.459 154.36ZM461.259 96.1034H502.871C505.172 96.1034 506.931 95.7651 508.149 95.0885C509.367 94.2766 509.976 92.6527 509.976 90.2169C509.976 87.1044 509.029 84.3303 507.134 81.8945C505.24 79.3233 502.668 77.3612 499.421 76.0079C496.173 74.5194 492.384 73.7751 488.053 73.7751C483.046 73.7751 478.513 74.79 474.453 76.8199C470.394 78.7144 467.146 81.3532 464.71 84.7363C462.41 88.1194 461.259 91.9084 461.259 96.1034Z" fill="#27235C" stroke="#27235C" stroke-width="0.5"/>
<path d="M415.994 153.149C410.987 153.149 406.522 152.811 402.597 152.134C398.808 151.458 395.493 150.308 392.651 148.684C389.944 147.06 387.712 144.895 385.952 142.188C384.193 139.346 382.84 135.896 381.893 131.836C381.081 127.776 380.675 122.905 380.675 117.221V19.3821C380.675 17.0816 380.878 15.0518 381.284 13.2926C381.825 11.398 382.908 9.90948 384.532 8.82689C386.291 7.60898 389.065 7.00002 392.854 7.00002C396.643 7.00002 399.349 7.54131 400.973 8.6239C402.733 9.70649 403.815 11.1951 404.221 13.0896C404.762 14.8488 405.033 16.8786 405.033 19.1791V116.206C405.033 118.777 405.168 120.942 405.439 122.702C405.845 124.325 406.454 125.679 407.266 126.761C408.213 127.709 409.363 128.385 410.717 128.791C412.205 129.197 413.964 129.4 415.994 129.4C417.753 129.4 419.31 129.603 420.663 130.009C422.151 130.415 423.302 131.43 424.114 133.054C425.061 134.678 425.535 137.317 425.535 140.97C425.535 144.759 425.061 147.533 424.114 149.293C423.302 151.052 422.151 152.134 420.663 152.54C419.174 152.946 417.618 153.149 415.994 153.149Z" fill="#27235C" stroke="#27235C" stroke-width="0.5"/>
<path d="M346.691 153.147C343.038 153.147 340.331 152.538 338.572 151.32C336.813 150.237 335.73 148.816 335.324 147.057C334.918 145.163 334.715 143.065 334.715 140.765V65.2541C334.715 63.0889 334.918 61.1267 335.324 59.3675C335.866 57.473 336.948 55.9844 338.572 54.9018C340.331 53.8193 343.105 53.278 346.894 53.278C350.683 53.278 353.39 53.8193 355.014 54.9018C356.773 55.9844 357.856 57.473 358.262 59.3675C358.668 61.262 358.87 63.3596 358.87 65.6601V140.968C358.87 143.268 358.668 145.366 358.262 147.26C357.856 149.019 356.773 150.44 355.014 151.523C353.39 152.605 350.616 153.147 346.691 153.147ZM346.691 33.5884C342.767 33.5884 339.858 33.0471 337.963 31.9645C336.204 30.7466 335.054 29.1227 334.512 27.0929C334.106 25.063 333.903 22.8302 333.903 20.3943C333.903 17.8232 334.106 15.5904 334.512 13.6958C335.054 11.8013 336.271 10.3128 338.166 9.23016C340.061 8.01226 342.97 7.40331 346.894 7.40331C350.954 7.40331 353.864 8.01226 355.623 9.23016C357.382 10.4481 358.532 12.072 359.073 14.1018C359.615 15.9963 359.885 18.2292 359.885 20.8003C359.885 23.1008 359.615 25.266 359.073 27.2959C358.532 29.3257 357.382 30.8819 355.623 31.9645C353.864 33.0471 350.886 33.5884 346.691 33.5884Z" fill="#27235C" stroke="#27235C" stroke-width="0.5"/>
<path d="M179.976 152.942C176.458 152.942 173.819 152.4 172.06 151.318C170.3 150.235 169.15 148.747 168.609 146.852C168.203 144.958 168 142.86 168 140.56V23.4372C168 21.272 168.203 19.3098 168.609 17.5506C169.15 15.6561 170.3 14.1675 172.06 13.0849C173.819 11.867 176.593 11.2581 180.382 11.2581C183.224 11.2581 185.321 11.461 186.675 11.867C188.163 12.1377 189.313 12.6113 190.125 13.2879C190.937 13.8292 191.749 14.5735 192.561 15.5207L242.09 84.7387H237.421L287.152 15.3178C288.1 14.2352 289.047 13.4232 289.994 12.8819C290.941 12.3406 292.159 11.9347 293.648 11.664C295.136 11.3934 297.099 11.2581 299.534 11.2581C303.188 11.2581 305.895 11.867 307.654 13.0849C309.413 14.1675 310.496 15.6561 310.902 17.5506C311.443 19.4451 311.714 21.5426 311.714 23.8431V140.966C311.714 142.995 311.443 144.958 310.902 146.852C310.496 148.747 309.413 150.235 307.654 151.318C305.895 152.4 303.12 152.942 299.331 152.942C295.678 152.942 292.971 152.333 291.212 151.115C289.453 150.032 288.303 148.544 287.761 146.649C287.355 144.755 287.152 142.725 287.152 140.56V53.479L250.209 106.864C249.803 107.405 249.194 108.15 248.382 109.097C247.57 109.909 246.488 110.653 245.134 111.33C243.781 112.006 241.954 112.345 239.654 112.345C237.489 112.345 235.729 112.006 234.376 111.33C233.023 110.653 231.94 109.909 231.128 109.097C230.452 108.285 229.775 107.473 229.099 106.661L192.358 53.479V140.966C192.358 142.995 192.088 144.958 191.546 146.852C191.14 148.747 190.058 150.235 188.299 151.318C186.539 152.4 183.765 152.942 179.976 152.942Z" fill="#27235C" stroke="#27235C" stroke-width="0.5"/>
</svg>
