<svg width="128" height="128" viewBox="0 0 128 128" fill="none" xmlns="http://www.w3.org/2000/svg">
<path d="M58.9746 81.6797C58.9746 81.2106 59.355 80.8302 59.8241 80.8302H118.441C118.91 80.8302 119.29 81.2106 119.29 81.6797V81.6797C119.29 82.1489 118.91 82.5293 118.441 82.5293H59.8241C59.355 82.5293 58.9746 82.1489 58.9746 81.6797V81.6797Z" fill="#FFBB00"/>
<path d="M11.2068 75.4152V73.3588C10.8658 72.8311 10.5445 72.3108 10.2431 71.798C9.94164 71.2851 9.65748 70.7821 9.39062 70.2889H10.2357C10.4235 70.6933 10.6335 71.1051 10.8658 71.5243C11.098 71.9385 11.3377 72.338 11.5848 72.7226C11.827 72.338 12.0642 71.9385 12.2964 71.5243C12.5287 71.1051 12.7412 70.6933 12.9339 70.2889H13.7345C13.4676 70.7821 13.1835 71.2851 12.882 71.798C12.5806 72.3059 12.2618 72.8212 11.9258 73.344V75.4152H11.2068Z" fill="#27235C"/>
<path d="M17.41 73.4919C17.41 73.7977 17.3655 74.0739 17.2765 74.3204C17.1876 74.567 17.0616 74.7791 16.8985 74.9566C16.7403 75.1341 16.5501 75.2722 16.3277 75.3709C16.1053 75.4646 15.8632 75.5114 15.6013 75.5114C15.3393 75.5114 15.0972 75.4646 14.8748 75.3709C14.6524 75.2722 14.4597 75.1341 14.2966 74.9566C14.1385 74.7791 14.0149 74.567 13.926 74.3204C13.837 74.0739 13.7925 73.7977 13.7925 73.4919C13.7925 73.1911 13.837 72.9174 13.926 72.6708C14.0149 72.4193 14.1385 72.2048 14.2966 72.0273C14.4597 71.8497 14.6524 71.7141 14.8748 71.6204C15.0972 71.5218 15.3393 71.4725 15.6013 71.4725C15.8632 71.4725 16.1053 71.5218 16.3277 71.6204C16.5501 71.7141 16.7403 71.8497 16.8985 72.0273C17.0616 72.2048 17.1876 72.4193 17.2765 72.6708C17.3655 72.9174 17.41 73.1911 17.41 73.4919ZM16.6909 73.4919C16.6909 73.058 16.5921 72.7152 16.3944 72.4637C16.2017 72.2073 15.9373 72.0791 15.6013 72.0791C15.2652 72.0791 14.9983 72.2073 14.8007 72.4637C14.6079 72.7152 14.5116 73.058 14.5116 73.4919C14.5116 73.9259 14.6079 74.2711 14.8007 74.5276C14.9983 74.7791 15.2652 74.9048 15.6013 74.9048C15.9373 74.9048 16.2017 74.7791 16.3944 74.5276C16.5921 74.2711 16.6909 73.9259 16.6909 73.4919Z" fill="#27235C"/>
<path d="M21.4488 75.3043C21.2906 75.3437 21.0806 75.3856 20.8187 75.43C20.5617 75.4744 20.2627 75.4966 19.9217 75.4966C19.6252 75.4966 19.3757 75.4547 19.173 75.3709C18.9704 75.2821 18.8074 75.1588 18.6838 75.001C18.5603 74.8432 18.4713 74.6582 18.4169 74.4462C18.3626 74.2292 18.3354 73.99 18.3354 73.7287V71.5686H19.0248V73.5807C19.0248 74.0492 19.0989 74.3845 19.2472 74.5867C19.3954 74.7889 19.645 74.89 19.9959 74.89C20.07 74.89 20.1466 74.8876 20.2257 74.8826C20.3047 74.8777 20.3789 74.8728 20.448 74.8678C20.5172 74.858 20.579 74.8506 20.6334 74.8456C20.6927 74.8358 20.7347 74.8259 20.7594 74.8161V71.5686H21.4488V75.3043Z" fill="#27235C"/>
<path d="M24.0597 71.4873C24.119 71.4873 24.1857 71.4922 24.2598 71.5021C24.3389 71.507 24.4155 71.5169 24.4896 71.5317C24.5638 71.5415 24.6305 71.5538 24.6898 71.5686C24.754 71.5785 24.801 71.5884 24.8306 71.5982L24.712 72.1974C24.6576 72.1777 24.5662 72.1555 24.4377 72.1308C24.3142 72.1012 24.1536 72.0864 23.9559 72.0864C23.8274 72.0864 23.6989 72.1012 23.5704 72.1308C23.4469 72.1555 23.3654 72.1728 23.3258 72.1826V75.4152H22.6364V71.7314C22.7995 71.6722 23.0021 71.618 23.2443 71.5686C23.4864 71.5144 23.7582 71.4873 24.0597 71.4873Z" fill="#27235C"/>
<path d="M30.4879 70.2889H31.207V75.4152H30.4879V73.0481H27.975V75.4152H27.256V70.2889H27.975V72.4267H30.4879V70.2889Z" fill="#27235C"/>
<path d="M35.8405 73.4919C35.8405 73.7977 35.7961 74.0739 35.7071 74.3204C35.6182 74.567 35.4921 74.7791 35.3291 74.9566C35.1709 75.1341 34.9807 75.2722 34.7583 75.3709C34.5359 75.4646 34.2937 75.5114 34.0318 75.5114C33.7699 75.5114 33.5278 75.4646 33.3054 75.3709C33.083 75.2722 32.8903 75.1341 32.7272 74.9566C32.569 74.7791 32.4455 74.567 32.3565 74.3204C32.2676 74.0739 32.2231 73.7977 32.2231 73.4919C32.2231 73.1911 32.2676 72.9174 32.3565 72.6708C32.4455 72.4193 32.569 72.2048 32.7272 72.0273C32.8903 71.8497 33.083 71.7141 33.3054 71.6204C33.5278 71.5218 33.7699 71.4725 34.0318 71.4725C34.2937 71.4725 34.5359 71.5218 34.7583 71.6204C34.9807 71.7141 35.1709 71.8497 35.3291 72.0273C35.4921 72.2048 35.6182 72.4193 35.7071 72.6708C35.7961 72.9174 35.8405 73.1911 35.8405 73.4919ZM35.1215 73.4919C35.1215 73.058 35.0227 72.7152 34.825 72.4637C34.6323 72.2073 34.3679 72.0791 34.0318 72.0791C33.6958 72.0791 33.4289 72.2073 33.2312 72.4637C33.0385 72.7152 32.9421 73.058 32.9421 73.4919C32.9421 73.9259 33.0385 74.2711 33.2312 74.5276C33.4289 74.7791 33.6958 74.9048 34.0318 74.9048C34.3679 74.9048 34.6323 74.7791 34.825 74.5276C35.0227 74.2711 35.1215 73.9259 35.1215 73.4919Z" fill="#27235C"/>
<path d="M37.7074 74.9196C37.9891 74.9196 38.1966 74.8826 38.3301 74.8087C38.4684 74.7347 38.5376 74.6163 38.5376 74.4536C38.5376 74.2859 38.4709 74.1528 38.3375 74.0541C38.2041 73.9555 37.9841 73.8445 37.6777 73.7213C37.5295 73.6621 37.3862 73.6029 37.2478 73.5437C37.1144 73.4796 36.9982 73.4056 36.8994 73.3218C36.8006 73.238 36.7215 73.1369 36.6622 73.0185C36.6029 72.9002 36.5732 72.7547 36.5732 72.5821C36.5732 72.2418 36.6993 71.973 36.9513 71.7758C37.2033 71.5736 37.5468 71.4725 37.9817 71.4725C38.0904 71.4725 38.1991 71.4799 38.3078 71.4947C38.4166 71.5045 38.5179 71.5193 38.6118 71.539C38.7057 71.5538 38.7872 71.5711 38.8564 71.5908C38.9305 71.6106 38.9873 71.6278 39.0269 71.6426L38.9009 72.2344C38.8267 72.1949 38.7106 72.1555 38.5525 72.116C38.3943 72.0717 38.2041 72.0495 37.9817 72.0495C37.7889 72.0495 37.6209 72.0889 37.4776 72.1678C37.3343 72.2418 37.2626 72.3601 37.2626 72.5229C37.2626 72.6067 37.2775 72.6807 37.3071 72.7448C37.3417 72.8089 37.3911 72.8681 37.4554 72.9223C37.5246 72.9717 37.6086 73.0185 37.7074 73.0629C37.8062 73.1073 37.9248 73.1541 38.0632 73.2034C38.2461 73.2725 38.4091 73.3415 38.5525 73.4106C38.6958 73.4747 38.8168 73.5511 38.9157 73.6399C39.0195 73.7287 39.0985 73.8371 39.1529 73.9654C39.2073 74.0887 39.2344 74.2415 39.2344 74.424C39.2344 74.7791 39.101 75.0478 38.8341 75.2303C38.5722 75.4128 38.1966 75.504 37.7074 75.504C37.3664 75.504 37.0996 75.4744 36.9068 75.4152C36.7141 75.361 36.5831 75.3191 36.5139 75.2895L36.64 74.6977C36.719 74.7273 36.8451 74.7717 37.018 74.8308C37.191 74.89 37.4208 74.9196 37.7074 74.9196Z" fill="#27235C"/>
<path d="M40.7636 71.5686H42.2239V72.1456H40.7636V73.921C40.7636 74.1133 40.7784 74.2736 40.8081 74.4018C40.8377 74.5251 40.8822 74.6237 40.9415 74.6977C41.0008 74.7667 41.0749 74.8161 41.1639 74.8456C41.2528 74.8752 41.3566 74.89 41.4752 74.89C41.6828 74.89 41.8483 74.8678 41.9719 74.8235C42.1004 74.7741 42.1893 74.7396 42.2387 74.7199L42.3722 75.2895C42.303 75.324 42.1819 75.3659 42.009 75.4152C41.836 75.4695 41.6383 75.4966 41.4159 75.4966C41.154 75.4966 40.9366 75.4646 40.7636 75.4004C40.5956 75.3314 40.4597 75.2303 40.3559 75.0972C40.2521 74.964 40.178 74.8013 40.1335 74.6089C40.094 74.4117 40.0742 74.1848 40.0742 73.9284V70.496L40.7636 70.3777V71.5686Z" fill="#27235C"/>
<path d="M43.7906 75.4152H43.1012V71.5686H43.7906V75.4152ZM43.4422 70.8733C43.3186 70.8733 43.2124 70.8338 43.1234 70.7549C43.0394 70.6711 42.9974 70.5601 42.9974 70.4221C42.9974 70.284 43.0394 70.1755 43.1234 70.0966C43.2124 70.0127 43.3186 69.9708 43.4422 69.9708C43.5657 69.9708 43.6695 70.0127 43.7535 70.0966C43.8425 70.1755 43.8869 70.284 43.8869 70.4221C43.8869 70.5601 43.8425 70.6711 43.7535 70.7549C43.6695 70.8338 43.5657 70.8733 43.4422 70.8733Z" fill="#27235C"/>
<path d="M44.9761 71.6796C45.1342 71.6401 45.3443 71.5982 45.6062 71.5538C45.8681 71.5095 46.1695 71.4873 46.5105 71.4873C46.8169 71.4873 47.0714 71.5317 47.274 71.6204C47.4767 71.7043 47.6373 71.8251 47.7559 71.9829C47.8794 72.1358 47.9659 72.3207 48.0153 72.5377C48.0647 72.7547 48.0894 72.9939 48.0894 73.2552V75.4152H47.4001V73.4032C47.4001 73.1665 47.3828 72.9643 47.3482 72.7966C47.3185 72.6289 47.2666 72.4933 47.1925 72.3897C47.1184 72.2862 47.0195 72.2122 46.896 72.1678C46.7724 72.1185 46.6192 72.0938 46.4364 72.0938C46.3623 72.0938 46.2857 72.0963 46.2066 72.1012C46.1275 72.1062 46.0509 72.1136 45.9768 72.1234C45.9076 72.1284 45.8434 72.1358 45.7841 72.1456C45.7297 72.1555 45.6902 72.1629 45.6655 72.1678V75.4152H44.9761V71.6796Z" fill="#27235C"/>
<path d="M51.6492 75.0306C51.5899 75.07 51.4738 75.1218 51.3008 75.1859C51.1328 75.2451 50.9351 75.2747 50.7078 75.2747C50.4755 75.2747 50.2556 75.2377 50.048 75.1637C49.8454 75.0898 49.6675 74.9763 49.5143 74.8235C49.3611 74.6656 49.24 74.4708 49.1511 74.2391C49.0621 74.0073 49.0177 73.7311 49.0177 73.4106C49.0177 73.1295 49.0597 72.873 49.1437 72.6412C49.2277 72.4045 49.3488 72.2023 49.5069 72.0347C49.67 71.8621 49.8677 71.7289 50.0999 71.6352C50.3322 71.5366 50.5941 71.4873 50.8857 71.4873C51.2069 71.4873 51.4861 71.5119 51.7233 71.5612C51.9655 71.6056 52.1681 71.6475 52.3312 71.687V75.1193C52.3312 75.7111 52.178 76.1402 51.8716 76.4065C51.5652 76.6728 51.1007 76.8059 50.478 76.8059C50.2358 76.8059 50.006 76.7862 49.7886 76.7468C49.5761 76.7073 49.3908 76.6604 49.2326 76.6062L49.3587 76.007C49.497 76.0613 49.665 76.1081 49.8627 76.1476C50.0653 76.192 50.2754 76.2141 50.4928 76.2141C50.903 76.2141 51.197 76.1328 51.3749 75.97C51.5578 75.8073 51.6492 75.5484 51.6492 75.1933V75.0306ZM51.6418 72.1752C51.5726 72.1555 51.4787 72.1382 51.3601 72.1234C51.2464 72.1037 51.0908 72.0938 50.8931 72.0938C50.5225 72.0938 50.2358 72.2147 50.0332 72.4563C49.8355 72.698 49.7367 73.0185 49.7367 73.418C49.7367 73.6399 49.7639 73.8297 49.8182 73.9876C49.8775 74.1454 49.9541 74.2761 50.048 74.3796C50.1469 74.4832 50.2581 74.5596 50.3816 74.6089C50.5101 74.6582 50.6411 74.6829 50.7745 74.6829C50.9573 74.6829 51.1254 74.6582 51.2786 74.6089C51.4318 74.5547 51.5528 74.493 51.6418 74.424V72.1752Z" fill="#27235C"/>
<path d="M54.2446 74.5719C54.2495 74.6114 54.252 74.6508 54.252 74.6903C54.252 74.7248 54.252 74.7618 54.252 74.8013C54.252 75.1119 54.2051 75.4177 54.1112 75.7185C54.0222 76.0243 53.8987 76.3152 53.7405 76.5914L53.2068 76.4213C53.3304 76.1698 53.4119 75.9133 53.4514 75.6519C53.491 75.3955 53.5107 75.1539 53.5107 74.927C53.5107 74.8629 53.5083 74.8013 53.5033 74.7421C53.5033 74.6829 53.5008 74.6262 53.4959 74.5719H54.2446Z" fill="#27235C"/>
<path d="M56.8949 72.8484C56.8949 72.4095 56.9592 72.0223 57.0877 71.687C57.2211 71.3516 57.399 71.073 57.6214 70.8511C57.8487 70.6242 58.1106 70.4541 58.4072 70.3407C58.7086 70.2273 59.0274 70.1705 59.3634 70.1705C59.6945 70.1705 60.0058 70.2273 60.2974 70.3407C60.5939 70.4541 60.8534 70.6242 61.0757 70.8511C61.2981 71.073 61.4736 71.3516 61.6021 71.687C61.7355 72.0223 61.8022 72.4095 61.8022 72.8484C61.8022 73.2873 61.7355 73.6744 61.6021 74.0097C61.4736 74.3451 61.2981 74.6262 61.0757 74.853C60.8534 75.075 60.5939 75.2426 60.2974 75.3561C60.0058 75.4695 59.6945 75.5262 59.3634 75.5262C59.0274 75.5262 58.7086 75.4695 58.4072 75.3561C58.1106 75.2426 57.8487 75.075 57.6214 74.853C57.399 74.6262 57.2211 74.3451 57.0877 74.0097C56.9592 73.6744 56.8949 73.2873 56.8949 72.8484ZM57.6511 72.8484C57.6511 73.1591 57.6906 73.4426 57.7697 73.6991C57.8487 73.9506 57.9599 74.1651 58.1032 74.3426C58.2515 74.5202 58.4294 74.6582 58.6369 74.7569C58.8494 74.8506 59.0867 74.8974 59.3486 74.8974C59.6105 74.8974 59.8452 74.8506 60.0528 74.7569C60.2603 74.6582 60.4358 74.5202 60.5791 74.3426C60.7273 74.1651 60.841 73.9506 60.9201 73.6991C60.9992 73.4426 61.0387 73.1591 61.0387 72.8484C61.0387 72.5377 60.9992 72.2566 60.9201 72.0051C60.841 71.7486 60.7273 71.5317 60.5791 71.3541C60.4358 71.1766 60.2603 71.041 60.0528 70.9473C59.8452 70.8486 59.6105 70.7993 59.3486 70.7993C59.0867 70.7993 58.8494 70.8486 58.6369 70.9473C58.4294 71.041 58.2515 71.1766 58.1032 71.3541C57.9599 71.5317 57.8487 71.7486 57.7697 72.0051C57.6906 72.2566 57.6511 72.5377 57.6511 72.8484Z" fill="#27235C"/>
<path d="M65.8964 75.3043C65.7383 75.3437 65.5283 75.3856 65.2663 75.43C65.0094 75.4744 64.7104 75.4966 64.3694 75.4966C64.0729 75.4966 63.8233 75.4547 63.6207 75.3709C63.4181 75.2821 63.255 75.1588 63.1315 75.001C63.0079 74.8432 62.919 74.6582 62.8646 74.4462C62.8102 74.2292 62.7831 73.99 62.7831 73.7287V71.5686H63.4724V73.5807C63.4724 74.0492 63.5466 74.3845 63.6948 74.5867C63.8431 74.7889 64.0927 74.89 64.4435 74.89C64.5176 74.89 64.5942 74.8876 64.6733 74.8826C64.7524 74.8777 64.8265 74.8728 64.8957 74.8678C64.9649 74.858 65.0267 74.8506 65.081 74.8456C65.1403 74.8358 65.1823 74.8259 65.207 74.8161V71.5686H65.8964V75.3043Z" fill="#27235C"/>
<path d="M68.5073 71.4873C68.5666 71.4873 68.6334 71.4922 68.7075 71.5021C68.7865 71.507 68.8632 71.5169 68.9373 71.5317C69.0114 71.5415 69.0781 71.5538 69.1374 71.5686C69.2017 71.5785 69.2486 71.5884 69.2783 71.5982L69.1597 72.1974C69.1053 72.1777 69.0139 72.1555 68.8854 72.1308C68.7618 72.1012 68.6012 72.0864 68.4036 72.0864C68.2751 72.0864 68.1466 72.1012 68.0181 72.1308C67.8945 72.1555 67.813 72.1728 67.7735 72.1826V75.4152H67.0841V71.7314C67.2472 71.6722 67.4498 71.618 67.6919 71.5686C67.9341 71.5144 68.2059 71.4873 68.5073 71.4873Z" fill="#27235C"/>
<path d="M74.2166 73.27C74.2956 73.3686 74.3945 73.4993 74.5131 73.6621C74.6366 73.8199 74.7626 73.9974 74.8911 74.1947C75.0196 74.387 75.1456 74.5892 75.2692 74.8013C75.3977 75.0133 75.5064 75.218 75.5953 75.4152H74.8096C74.7107 75.2278 74.602 75.038 74.4834 74.8456C74.3698 74.6533 74.2536 74.4708 74.135 74.2982C74.0164 74.1207 73.8978 73.9555 73.7792 73.8026C73.6655 73.6497 73.5618 73.5166 73.4679 73.4032C73.4036 73.4081 73.3369 73.4106 73.2677 73.4106C73.2035 73.4106 73.1368 73.4106 73.0676 73.4106H72.4227V75.4152H71.7036V70.3629C71.9063 70.3136 72.1311 70.2815 72.3782 70.2667C72.6302 70.247 72.86 70.2371 73.0676 70.2371C73.7891 70.2371 74.3376 70.3727 74.7132 70.644C75.0937 70.9152 75.284 71.3196 75.284 71.8571C75.284 72.1974 75.1926 72.4884 75.0097 72.73C74.8318 72.9717 74.5674 73.1517 74.2166 73.27ZM73.1269 70.8659C72.8205 70.8659 72.5857 70.8733 72.4227 70.8881V72.8188H72.9342C73.1812 72.8188 73.4036 72.8065 73.6013 72.7818C73.799 72.7571 73.9645 72.7103 74.098 72.6412C74.2363 72.5722 74.3426 72.476 74.4167 72.3528C74.4908 72.2245 74.5279 72.0569 74.5279 71.8497C74.5279 71.6574 74.4908 71.4971 74.4167 71.3689C74.3426 71.2407 74.2413 71.1396 74.1128 71.0656C73.9892 70.9916 73.841 70.9399 73.668 70.9103C73.5 70.8807 73.3196 70.8659 73.1269 70.8659Z" fill="#27235C"/>
<path d="M76.1061 73.4993C76.1061 73.1591 76.1555 72.8632 76.2544 72.6117C76.3532 72.3552 76.4842 72.1432 76.6473 71.9755C76.8103 71.8078 76.9981 71.6821 77.2106 71.5982C77.4231 71.5144 77.6406 71.4725 77.863 71.4725C78.3818 71.4725 78.7797 71.6352 79.0564 71.9607C79.3331 72.2812 79.4715 72.7719 79.4715 73.4328C79.4715 73.4623 79.4715 73.5018 79.4715 73.5511C79.4715 73.5955 79.469 73.6374 79.4641 73.6769H76.8252C76.8548 74.0763 76.9709 74.3796 77.1736 74.5867C77.3762 74.7939 77.6925 74.8974 78.1224 74.8974C78.3646 74.8974 78.5672 74.8777 78.7302 74.8382C78.8983 74.7939 79.0243 74.7519 79.1083 74.7125L79.2047 75.2895C79.1207 75.3339 78.9724 75.3807 78.7599 75.43C78.5523 75.4793 78.3151 75.504 78.0483 75.504C77.7122 75.504 77.4207 75.4547 77.1736 75.3561C76.9314 75.2525 76.7313 75.1119 76.5731 74.9344C76.415 74.7569 76.2964 74.5473 76.2173 74.3056C76.1432 74.0591 76.1061 73.7903 76.1061 73.4993ZM78.7525 73.1221C78.7574 72.8114 78.6784 72.5574 78.5153 72.3601C78.3571 72.158 78.1372 72.0569 77.8555 72.0569C77.6974 72.0569 77.5566 72.0889 77.433 72.153C77.3144 72.2122 77.2131 72.2911 77.1291 72.3897C77.0451 72.4884 76.9784 72.6018 76.9289 72.73C76.8845 72.8582 76.8548 72.9889 76.84 73.1221H78.7525Z" fill="#27235C"/>
<path d="M81.3588 74.9196C81.6405 74.9196 81.848 74.8826 81.9814 74.8087C82.1198 74.7347 82.189 74.6163 82.189 74.4536C82.189 74.2859 82.1223 74.1528 81.9888 74.0541C81.8554 73.9555 81.6355 73.8445 81.3291 73.7213C81.1809 73.6621 81.0375 73.6029 80.8992 73.5437C80.7657 73.4796 80.6496 73.4056 80.5508 73.3218C80.4519 73.238 80.3729 73.1369 80.3136 73.0185C80.2543 72.9002 80.2246 72.7547 80.2246 72.5821C80.2246 72.2418 80.3506 71.973 80.6027 71.7758C80.8547 71.5736 81.1982 71.4725 81.633 71.4725C81.7418 71.4725 81.8505 71.4799 81.9592 71.4947C82.0679 71.5045 82.1692 71.5193 82.2631 71.539C82.357 71.5538 82.4386 71.5711 82.5077 71.5908C82.5819 71.6106 82.6387 71.6278 82.6782 71.6426L82.5522 72.2344C82.4781 72.1949 82.362 72.1555 82.2038 72.116C82.0457 72.0717 81.8554 72.0495 81.633 72.0495C81.4403 72.0495 81.2723 72.0889 81.129 72.1678C80.9857 72.2418 80.914 72.3601 80.914 72.5229C80.914 72.6067 80.9288 72.6807 80.9585 72.7448C80.9931 72.8089 81.0425 72.8681 81.1067 72.9223C81.1759 72.9717 81.2599 73.0185 81.3588 73.0629C81.4576 73.1073 81.5762 73.1541 81.7146 73.2034C81.8974 73.2725 82.0605 73.3415 82.2038 73.4106C82.3471 73.4747 82.4682 73.5511 82.567 73.6399C82.6708 73.7287 82.7499 73.8371 82.8043 73.9654C82.8586 74.0887 82.8858 74.2415 82.8858 74.424C82.8858 74.7791 82.7524 75.0478 82.4855 75.2303C82.2236 75.4128 81.848 75.504 81.3588 75.504C81.0178 75.504 80.7509 75.4744 80.5582 75.4152C80.3655 75.361 80.2345 75.3191 80.1653 75.2895L80.2913 74.6977C80.3704 74.7273 80.4964 74.7717 80.6694 74.8308C80.8423 74.89 81.0721 74.9196 81.3588 74.9196Z" fill="#27235C"/>
<path d="M86.4461 73.4993C86.4461 73.0506 86.3349 72.7054 86.1125 72.4637C85.8901 72.2221 85.5936 72.1012 85.223 72.1012C85.0154 72.1012 84.8523 72.1086 84.7337 72.1234C84.6201 72.1382 84.5286 72.1555 84.4594 72.1752V74.6015C84.5435 74.6706 84.6645 74.7371 84.8227 74.8013C84.9808 74.8654 85.1538 74.8974 85.3416 74.8974C85.5392 74.8974 85.7073 74.8629 85.8456 74.7939C85.9889 74.7199 86.1051 74.6213 86.194 74.498C86.283 74.3698 86.3472 74.2218 86.3868 74.0541C86.4263 73.8815 86.4461 73.6966 86.4461 73.4993ZM87.1651 73.4993C87.1651 73.7903 87.1256 74.0591 87.0465 74.3056C86.9724 74.5522 86.8612 74.7643 86.7129 74.9418C86.5647 75.1193 86.3818 75.2574 86.1644 75.3561C85.9519 75.4547 85.7073 75.504 85.4305 75.504C85.2081 75.504 85.0105 75.4744 84.8375 75.4152C84.6695 75.3561 84.5435 75.2993 84.4594 75.2451V76.7837H83.7701V71.687C83.9331 71.6475 84.1358 71.6056 84.3779 71.5612C84.625 71.5119 84.9092 71.4873 85.2304 71.4873C85.5269 71.4873 85.7937 71.5341 86.031 71.6278C86.2682 71.7215 86.4708 71.8547 86.6388 72.0273C86.8068 72.1999 86.9353 72.4119 87.0243 72.6634C87.1182 72.91 87.1651 73.1886 87.1651 73.4993Z" fill="#27235C"/>
<path d="M91.5377 73.4919C91.5377 73.7977 91.4932 74.0739 91.4042 74.3204C91.3153 74.567 91.1893 74.7791 91.0262 74.9566C90.868 75.1341 90.6778 75.2722 90.4554 75.3709C90.233 75.4646 89.9909 75.5114 89.7289 75.5114C89.467 75.5114 89.2249 75.4646 89.0025 75.3709C88.7801 75.2722 88.5874 75.1341 88.4243 74.9566C88.2662 74.7791 88.1426 74.567 88.0537 74.3204C87.9647 74.0739 87.9202 73.7977 87.9202 73.4919C87.9202 73.1911 87.9647 72.9174 88.0537 72.6708C88.1426 72.4193 88.2662 72.2048 88.4243 72.0273C88.5874 71.8497 88.7801 71.7141 89.0025 71.6204C89.2249 71.5218 89.467 71.4725 89.7289 71.4725C89.9909 71.4725 90.233 71.5218 90.4554 71.6204C90.6778 71.7141 90.868 71.8497 91.0262 72.0273C91.1893 72.2048 91.3153 72.4193 91.4042 72.6708C91.4932 72.9174 91.5377 73.1911 91.5377 73.4919ZM90.8186 73.4919C90.8186 73.058 90.7198 72.7152 90.5221 72.4637C90.3294 72.2073 90.065 72.0791 89.7289 72.0791C89.3929 72.0791 89.126 72.2073 88.9284 72.4637C88.7356 72.7152 88.6393 73.058 88.6393 73.4919C88.6393 73.9259 88.7356 74.2711 88.9284 74.5276C89.126 74.7791 89.3929 74.9048 89.7289 74.9048C90.065 74.9048 90.3294 74.7791 90.5221 74.5276C90.7198 74.2711 90.8186 73.9259 90.8186 73.4919Z" fill="#27235C"/>
<path d="M92.5076 71.6796C92.6657 71.6401 92.8757 71.5982 93.1376 71.5538C93.3996 71.5095 93.701 71.4873 94.042 71.4873C94.3484 71.4873 94.6029 71.5317 94.8055 71.6204C95.0081 71.7043 95.1688 71.8251 95.2874 71.9829C95.4109 72.1358 95.4974 72.3207 95.5468 72.5377C95.5962 72.7547 95.6209 72.9939 95.6209 73.2552V75.4152H94.9315V73.4032C94.9315 73.1665 94.9142 72.9643 94.8797 72.7966C94.85 72.6289 94.7981 72.4933 94.724 72.3897C94.6499 72.2862 94.551 72.2122 94.4275 72.1678C94.3039 72.1185 94.1507 72.0938 93.9679 72.0938C93.8938 72.0938 93.8172 72.0963 93.7381 72.1012C93.659 72.1062 93.5824 72.1136 93.5083 72.1234C93.4391 72.1284 93.3749 72.1358 93.3156 72.1456C93.2612 72.1555 93.2217 72.1629 93.197 72.1678V75.4152H92.5076V71.6796Z" fill="#27235C"/>
<path d="M97.6611 74.9196C97.9427 74.9196 98.1503 74.8826 98.2837 74.8087C98.4221 74.7347 98.4913 74.6163 98.4913 74.4536C98.4913 74.2859 98.4246 74.1528 98.2912 74.0541C98.1577 73.9555 97.9378 73.8445 97.6314 73.7213C97.4832 73.6621 97.3398 73.6029 97.2015 73.5437C97.068 73.4796 96.9519 73.4056 96.8531 73.3218C96.7542 73.238 96.6752 73.1369 96.6159 73.0185C96.5566 72.9002 96.5269 72.7547 96.5269 72.5821C96.5269 72.2418 96.6529 71.973 96.905 71.7758C97.157 71.5736 97.5005 71.4725 97.9353 71.4725C98.0441 71.4725 98.1528 71.4799 98.2615 71.4947C98.3702 71.5045 98.4715 71.5193 98.5654 71.539C98.6593 71.5538 98.7409 71.5711 98.81 71.5908C98.8842 71.6106 98.941 71.6278 98.9805 71.6426L98.8545 72.2344C98.7804 72.1949 98.6643 72.1555 98.5061 72.116C98.348 72.0717 98.1577 72.0495 97.9353 72.0495C97.7426 72.0495 97.5746 72.0889 97.4313 72.1678C97.288 72.2418 97.2163 72.3601 97.2163 72.5229C97.2163 72.6067 97.2311 72.6807 97.2608 72.7448C97.2954 72.8089 97.3448 72.8681 97.409 72.9223C97.4782 72.9717 97.5622 73.0185 97.6611 73.0629C97.7599 73.1073 97.8785 73.1541 98.0169 73.2034C98.1997 73.2725 98.3628 73.3415 98.5061 73.4106C98.6494 73.4747 98.7705 73.5511 98.8693 73.6399C98.9731 73.7287 99.0522 73.8371 99.1066 73.9654C99.1609 74.0887 99.1881 74.2415 99.1881 74.424C99.1881 74.7791 99.0547 75.0478 98.7878 75.2303C98.5259 75.4128 98.1503 75.504 97.6611 75.504C97.3201 75.504 97.0532 75.4744 96.8605 75.4152C96.6678 75.361 96.5368 75.3191 96.4676 75.2895L96.5936 74.6977C96.6727 74.7273 96.7987 74.7717 96.9717 74.8308C97.1446 74.89 97.3744 74.9196 97.6611 74.9196Z" fill="#27235C"/>
<path d="M100.762 75.4152H100.072V71.5686H100.762V75.4152ZM100.413 70.8733C100.29 70.8733 100.184 70.8338 100.095 70.7549C100.011 70.6711 99.9686 70.5601 99.9686 70.4221C99.9686 70.284 100.011 70.1755 100.095 70.0966C100.184 70.0127 100.29 69.9708 100.413 69.9708C100.537 69.9708 100.641 70.0127 100.725 70.0966C100.814 70.1755 100.858 70.284 100.858 70.4221C100.858 70.5601 100.814 70.6711 100.725 70.7549C100.641 70.8338 100.537 70.8733 100.413 70.8733Z" fill="#27235C"/>
<path d="M102.637 71.7388C102.721 71.6845 102.847 71.6278 103.015 71.5686C103.188 71.5095 103.385 71.4799 103.608 71.4799C103.884 71.4799 104.129 71.5292 104.342 71.6278C104.559 71.7264 104.742 71.8645 104.89 72.0421C105.038 72.2196 105.15 72.4317 105.224 72.6782C105.303 72.9248 105.342 73.196 105.342 73.4919C105.342 73.8026 105.295 74.0837 105.201 74.3352C105.113 74.5818 104.984 74.7914 104.816 74.964C104.648 75.1366 104.445 75.2698 104.208 75.3635C103.971 75.4572 103.704 75.504 103.408 75.504C103.086 75.504 102.802 75.4818 102.555 75.4374C102.308 75.393 102.105 75.3487 101.947 75.3043V69.7933L102.637 69.6749V71.7388ZM102.637 74.8161C102.706 74.8358 102.802 74.8555 102.926 74.8752C103.054 74.89 103.212 74.8974 103.4 74.8974C103.771 74.8974 104.067 74.7766 104.29 74.535C104.512 74.2884 104.623 73.9407 104.623 73.4919C104.623 73.2947 104.604 73.1097 104.564 72.9371C104.524 72.7645 104.46 72.6166 104.371 72.4933C104.282 72.3651 104.166 72.2664 104.023 72.1974C103.884 72.1234 103.716 72.0864 103.519 72.0864C103.331 72.0864 103.158 72.1185 103 72.1826C102.842 72.2467 102.721 72.3133 102.637 72.3823V74.8161Z" fill="#27235C"/>
<path d="M107.002 75.4152H106.312V71.5686H107.002V75.4152ZM106.653 70.8733C106.53 70.8733 106.424 70.8338 106.335 70.7549C106.251 70.6711 106.209 70.5601 106.209 70.4221C106.209 70.284 106.251 70.1755 106.335 70.0966C106.424 70.0127 106.53 69.9708 106.653 69.9708C106.777 69.9708 106.881 70.0127 106.965 70.0966C107.054 70.1755 107.098 70.284 107.098 70.4221C107.098 70.5601 107.054 70.6711 106.965 70.7549C106.881 70.8338 106.777 70.8733 106.653 70.8733Z" fill="#27235C"/>
<path d="M109.344 75.4892C108.919 75.4793 108.617 75.3881 108.439 75.2155C108.261 75.0429 108.172 74.7741 108.172 74.4092V69.7933L108.862 69.6749V74.2982C108.862 74.4117 108.872 74.5054 108.892 74.5793C108.911 74.6533 108.943 74.7125 108.988 74.7569C109.032 74.8013 109.092 74.8358 109.166 74.8604C109.24 74.8802 109.331 74.8974 109.44 74.9122L109.344 75.4892Z" fill="#27235C"/>
<path d="M110.904 75.4152H110.214V71.5686H110.904V75.4152ZM110.555 70.8733C110.432 70.8733 110.325 70.8338 110.236 70.7549C110.152 70.6711 110.11 70.5601 110.11 70.4221C110.11 70.284 110.152 70.1755 110.236 70.0966C110.325 70.0127 110.432 69.9708 110.555 69.9708C110.679 69.9708 110.783 70.0127 110.867 70.0966C110.956 70.1755 111 70.284 111 70.4221C111 70.5601 110.956 70.6711 110.867 70.7549C110.783 70.8338 110.679 70.8733 110.555 70.8733Z" fill="#27235C"/>
<path d="M112.734 71.5686H114.194V72.1456H112.734V73.921C112.734 74.1133 112.749 74.2736 112.779 74.4018C112.808 74.5251 112.853 74.6237 112.912 74.6977C112.971 74.7667 113.045 74.8161 113.134 74.8456C113.223 74.8752 113.327 74.89 113.446 74.89C113.653 74.89 113.819 74.8678 113.942 74.8235C114.071 74.7741 114.16 74.7396 114.209 74.7199L114.343 75.2895C114.273 75.324 114.152 75.3659 113.979 75.4152C113.806 75.4695 113.609 75.4966 113.386 75.4966C113.124 75.4966 112.907 75.4646 112.734 75.4004C112.566 75.3314 112.43 75.2303 112.326 75.0972C112.223 74.964 112.148 74.8013 112.104 74.6089C112.064 74.4117 112.045 74.1848 112.045 73.9284V70.496L112.734 70.3777V71.5686Z" fill="#27235C"/>
<path d="M114.619 76.1328C114.674 76.1574 114.743 76.1796 114.827 76.1994C114.916 76.224 115.002 76.2363 115.086 76.2363C115.358 76.2363 115.571 76.1747 115.724 76.0514C115.877 75.933 116.016 75.7383 116.139 75.467C115.828 74.8752 115.536 74.2489 115.264 73.5881C114.998 72.9223 114.775 72.2492 114.597 71.5686H115.338C115.393 71.7906 115.457 72.0297 115.531 72.2862C115.61 72.5426 115.697 72.8065 115.791 73.0777C115.885 73.3489 115.986 73.6202 116.095 73.8914C116.203 74.1626 116.317 74.424 116.436 74.6755C116.623 74.1577 116.786 73.6448 116.925 73.1369C117.063 72.6289 117.194 72.1062 117.318 71.5686H118.029C117.851 72.2936 117.654 72.9914 117.436 73.6621C117.219 74.3278 116.984 74.9517 116.732 75.5336C116.633 75.7555 116.529 75.9454 116.421 76.1032C116.317 76.2659 116.201 76.3991 116.072 76.5026C115.944 76.6062 115.798 76.6826 115.635 76.732C115.477 76.7813 115.296 76.8059 115.094 76.8059C115.04 76.8059 114.983 76.801 114.923 76.7911C114.864 76.7862 114.805 76.7763 114.745 76.7615C114.691 76.7517 114.639 76.7394 114.59 76.7246C114.545 76.7098 114.513 76.6974 114.493 76.6876L114.619 76.1328Z" fill="#27235C"/>
<path d="M119.37 75.0158C119.37 75.1489 119.325 75.2648 119.236 75.3635C119.147 75.4621 119.026 75.5114 118.873 75.5114C118.72 75.5114 118.599 75.4621 118.51 75.3635C118.421 75.2648 118.376 75.1489 118.376 75.0158C118.376 74.8826 118.421 74.7667 118.51 74.6681C118.599 74.5695 118.72 74.5202 118.873 74.5202C119.026 74.5202 119.147 74.5695 119.236 74.6681C119.325 74.7667 119.37 74.8826 119.37 75.0158Z" fill="#27235C"/>
<path d="M113.386 64.6529C112.539 64.6529 111.778 64.4886 111.103 64.16C110.446 63.814 109.884 63.347 109.417 62.759C108.967 62.1709 108.621 61.4963 108.379 60.7353C108.154 59.957 108.042 59.1268 108.042 58.2446C108.059 57.3625 108.189 56.541 108.431 55.7799C108.673 55.0016 109.019 54.327 109.469 53.7563C109.936 53.1682 110.498 52.7098 111.155 52.3812C111.812 52.0526 112.556 51.8883 113.386 51.8883C114.182 51.8883 114.925 52.0526 115.617 52.3812C116.326 52.7098 116.949 53.1682 117.485 53.7563C118.039 54.327 118.471 55.0016 118.783 55.7799C119.094 56.541 119.25 57.3539 119.25 58.2187C119.25 59.1181 119.094 59.9656 118.783 60.7612C118.471 61.5396 118.047 62.2228 117.511 62.8108C116.975 63.3816 116.352 63.8313 115.643 64.16C114.934 64.4886 114.182 64.6529 113.386 64.6529ZM112.971 61.6174C113.576 61.6174 114.121 61.479 114.606 61.2023C115.09 60.9083 115.47 60.5104 115.747 60.0089C116.041 59.5073 116.188 58.9365 116.188 58.2965C116.188 57.6393 116.041 57.0598 115.747 56.5583C115.47 56.0394 115.09 55.6416 114.606 55.3648C114.121 55.0708 113.576 54.9238 112.971 54.9238C112.383 54.9238 111.847 55.0708 111.362 55.3648C110.878 55.6589 110.489 56.0567 110.195 56.5583C109.918 57.0598 109.78 57.6393 109.78 58.2965C109.78 58.9365 109.918 59.5073 110.195 60.0089C110.489 60.5104 110.878 60.9083 111.362 61.2023C111.847 61.479 112.383 61.6174 112.971 61.6174ZM108.171 64.6788C107.704 64.6788 107.358 64.601 107.134 64.4453C106.909 64.307 106.77 64.1254 106.718 63.9005C106.667 63.6584 106.641 63.3903 106.641 63.0962V47.6334C106.641 47.3394 106.667 47.0799 106.718 46.8551C106.77 46.6129 106.909 46.4227 107.134 46.2843C107.358 46.1459 107.704 46.0767 108.171 46.0767C108.656 46.0767 109.002 46.1459 109.209 46.2843C109.417 46.4227 109.546 46.6129 109.598 46.8551C109.65 47.0972 109.676 47.3567 109.676 47.6334V63.6151C109.607 63.9956 109.46 64.2637 109.235 64.4194C109.027 64.5924 108.673 64.6788 108.171 64.6788Z" fill="#27235C" stroke="#27235C" stroke-width="0.2"/>
<path d="M98.9076 64.8349C97.7834 64.8349 96.7975 64.6533 95.95 64.29C95.1198 63.9268 94.4193 63.4339 93.8485 62.8112C93.295 62.1713 92.8713 61.4621 92.5772 60.6838C92.3005 59.8882 92.1621 59.0666 92.1621 58.2191C92.1621 56.9737 92.4475 55.8668 93.0183 54.8982C93.589 53.9296 94.376 53.1686 95.3792 52.6151C96.3997 52.0616 97.5672 51.7849 98.8817 51.7849C99.8157 51.7849 100.637 51.9319 101.346 52.2259C102.056 52.52 102.644 52.9091 103.111 53.3934C103.595 53.8604 103.958 54.3793 104.2 54.9501C104.46 55.5209 104.589 56.0743 104.589 56.6105C104.589 57.5272 104.365 58.1931 103.915 58.6082C103.482 59.0233 102.938 59.2309 102.28 59.2309H95.4311C95.4484 59.819 95.63 60.3292 95.9759 60.7616C96.3391 61.194 96.7888 61.5313 97.325 61.7734C97.8785 61.9983 98.4406 62.1107 99.0114 62.1107C99.4438 62.1107 99.8243 62.0848 100.153 62.0329C100.499 61.981 100.793 61.9205 101.035 61.8513C101.277 61.7648 101.485 61.6783 101.658 61.5918C101.848 61.5054 102.021 61.4275 102.177 61.3583C102.332 61.2892 102.479 61.2459 102.618 61.2286C102.808 61.2113 102.998 61.2546 103.188 61.3583C103.379 61.4621 103.534 61.6437 103.655 61.9032C103.759 62.0761 103.828 62.2404 103.863 62.3961C103.915 62.5345 103.941 62.6729 103.941 62.8112C103.941 63.1571 103.733 63.4858 103.318 63.7971C102.903 64.0911 102.315 64.3333 101.554 64.5235C100.81 64.7311 99.9281 64.8349 98.9076 64.8349ZM95.4311 57.3888H100.75C101.044 57.3888 101.269 57.3456 101.424 57.2591C101.58 57.1553 101.658 56.9478 101.658 56.6365C101.658 56.2386 101.537 55.8841 101.294 55.5727C101.052 55.2441 100.724 54.9933 100.309 54.8204C99.8935 54.6301 99.4092 54.535 98.8557 54.535C98.2158 54.535 97.6363 54.6647 97.1175 54.9241C96.5986 55.1663 96.1835 55.5036 95.8721 55.936C95.5781 56.3684 95.4311 56.8527 95.4311 57.3888Z" fill="#27235C" stroke="#27235C" stroke-width="0.2"/>
<path d="M75.6979 64.602C75.352 64.602 75.0753 64.5414 74.8677 64.4204C74.6602 64.282 74.5045 64.1263 74.4007 63.9534C74.3143 63.7804 74.2537 63.6334 74.2191 63.5123L69.1341 48.6202C68.9611 48.0668 68.9352 47.6517 69.0562 47.3749C69.1773 47.0809 69.5319 46.8387 70.1199 46.6485C70.5177 46.5101 70.8377 46.4496 71.0799 46.4669C71.322 46.4842 71.5209 46.5879 71.6766 46.7782C71.8496 46.9512 71.9966 47.2279 72.1176 47.6084L75.8536 58.9202L79.2004 47.7122C79.2523 47.5392 79.3215 47.3663 79.408 47.1933C79.5117 47.003 79.6674 46.8474 79.875 46.7263C80.0825 46.6052 80.3679 46.5447 80.7311 46.5447C81.1462 46.5447 81.4576 46.6139 81.6651 46.7523C81.8727 46.8906 82.0197 47.0463 82.1062 47.2192C82.21 47.3749 82.2791 47.5219 82.3137 47.6603L85.6605 58.998L89.4224 47.6344C89.5435 47.2365 89.6819 46.9425 89.8376 46.7523C90.0105 46.562 90.2267 46.4582 90.4862 46.4409C90.7456 46.4063 91.0656 46.4582 91.4461 46.5966C91.8439 46.735 92.1293 46.8906 92.3023 47.0636C92.4752 47.2193 92.5617 47.4268 92.5617 47.6862C92.5617 47.9284 92.5012 48.2397 92.3801 48.6202L87.321 63.5382C87.2864 63.642 87.2172 63.7804 87.1134 63.9534C87.0269 64.1263 86.8799 64.282 86.6724 64.4204C86.4648 64.5414 86.1794 64.602 85.8162 64.602C85.453 64.602 85.1676 64.5241 84.96 64.3685C84.7525 64.2128 84.5968 64.0398 84.493 63.8496C84.3893 63.6593 84.3201 63.521 84.2855 63.4345L80.7571 52.019L77.2287 63.4085C77.1941 63.5296 77.1249 63.6853 77.0211 63.8755C76.9346 64.0658 76.7876 64.2387 76.5801 64.3944C76.3725 64.5328 76.0785 64.602 75.6979 64.602Z" fill="#27235C" stroke="#27235C" stroke-width="0.2"/>
<path d="M62.2062 64.8351C61.7565 64.8351 61.2809 64.7832 60.7793 64.6794C60.2777 64.5929 59.7934 64.4632 59.3264 64.2903C58.8594 64.1 58.453 63.8838 58.1071 63.6417C57.7784 63.3822 57.5709 63.0968 57.4844 62.7855C57.4152 62.6125 57.3893 62.4482 57.4066 62.2925C57.4239 62.1196 57.4757 61.9466 57.5622 61.7737C57.6487 61.5834 57.7784 61.3931 57.9514 61.2029C58.1071 61.0126 58.2627 60.9089 58.4184 60.8916C58.5913 60.857 58.8075 60.9089 59.067 61.0472C59.2918 61.1337 59.534 61.2461 59.7934 61.3845C60.0702 61.5229 60.3469 61.6612 60.6236 61.7996C60.9177 61.938 61.2117 62.0504 61.5057 62.1369C61.8171 62.2234 62.1198 62.2666 62.4138 62.2666C63.0538 62.2666 63.564 62.1628 63.9445 61.9553C64.325 61.7304 64.5153 61.4191 64.5153 61.0213C64.5153 60.7964 64.4547 60.5975 64.3337 60.4246C64.2126 60.2516 64.0483 60.1132 63.8407 60.0094C63.6505 59.8884 63.417 59.7846 63.1402 59.6981C62.8808 59.5943 62.5954 59.5079 62.2841 59.4387C61.99 59.3522 61.6787 59.2571 61.3501 59.1533C60.9177 59.0322 60.4853 58.8852 60.0529 58.7122C59.6205 58.5393 59.2313 58.3144 58.8854 58.0377C58.5568 57.7609 58.2887 57.415 58.0811 56.9999C57.8736 56.5848 57.7698 56.0659 57.7698 55.4432C57.7698 54.6649 57.9514 54.0077 58.3146 53.4715C58.6951 52.918 59.2399 52.4942 59.9491 52.2002C60.6582 51.9062 61.5144 51.7591 62.5176 51.7591C62.8635 51.7591 63.1921 51.7851 63.5035 51.837C63.8321 51.8889 64.1434 51.9667 64.4374 52.0705C64.7488 52.157 65.0428 52.2694 65.3195 52.4077C65.6136 52.5461 65.8903 52.7018 66.1498 52.8747C66.5822 53.1169 66.807 53.4023 66.8243 53.7309C66.8416 54.0422 66.7205 54.3795 66.4611 54.7427C66.2708 54.9849 66.0806 55.1579 65.8903 55.2616C65.7001 55.3481 65.5012 55.3481 65.2936 55.2616C65.0169 55.1233 64.7142 54.9762 64.3856 54.8206C64.0742 54.6476 63.7456 54.5006 63.3997 54.3795C63.071 54.2584 62.7251 54.1979 62.3619 54.1979C62.016 54.1979 61.7047 54.2498 61.4279 54.3536C61.1512 54.4574 60.9436 54.6044 60.8053 54.7946C60.6669 54.9849 60.5977 55.2097 60.5977 55.4692C60.5977 55.7113 60.6669 55.9102 60.8053 56.0659C60.9436 56.2216 61.1252 56.3513 61.3501 56.4551C61.5749 56.5588 61.843 56.654 62.1544 56.7405C62.4657 56.8096 62.7943 56.8788 63.1402 56.948C63.6245 57.0518 64.1175 57.1815 64.6191 57.3372C65.1206 57.4928 65.579 57.709 65.9941 57.9858C66.4265 58.2625 66.7724 58.6344 67.0319 59.1014C67.2913 59.5511 67.421 60.1392 67.421 60.8656C67.421 62.1282 66.954 63.1055 66.02 63.7973C65.1033 64.4892 63.8321 64.8351 62.2062 64.8351Z" fill="#27235C" stroke="#27235C" stroke-width="0.2"/>
<path d="M49.9594 64.8347C48.8351 64.8347 47.8492 64.6531 47.0017 64.2899C46.1715 63.9266 45.471 63.4337 44.9002 62.811C44.3468 62.1711 43.923 61.4619 43.629 60.6836C43.3522 59.888 43.2139 59.0664 43.2139 58.2189C43.2139 56.9736 43.4993 55.8666 44.07 54.898C44.6408 53.9294 45.4278 53.1684 46.431 52.6149C47.4514 52.0614 48.6189 51.7847 49.9334 51.7847C50.8674 51.7847 51.689 51.9317 52.3981 52.2257C53.1073 52.5198 53.6953 52.9089 54.1623 53.3932C54.6466 53.8602 55.0098 54.3791 55.252 54.9499C55.5114 55.5207 55.6412 56.0742 55.6412 56.6103C55.6412 57.527 55.4163 58.1929 54.9666 58.608C54.5342 59.0232 53.9894 59.2307 53.3321 59.2307H46.4828C46.5001 59.8188 46.6817 60.329 47.0277 60.7614C47.3909 61.1938 47.8406 61.5311 48.3768 61.7733C48.9302 61.9981 49.4924 62.1105 50.0631 62.1105C50.4955 62.1105 50.8761 62.0846 51.2047 62.0327C51.5506 61.9808 51.8446 61.9203 52.0868 61.8511C52.3289 61.7646 52.5365 61.6781 52.7095 61.5917C52.8997 61.5052 53.0727 61.4273 53.2283 61.3582C53.384 61.289 53.531 61.2457 53.6694 61.2284C53.8597 61.2111 54.0499 61.2544 54.2402 61.3582C54.4304 61.4619 54.5861 61.6435 54.7072 61.903C54.8109 62.0759 54.8801 62.2403 54.9147 62.3959C54.9666 62.5343 54.9925 62.6727 54.9925 62.811C54.9925 63.157 54.785 63.4856 54.3699 63.7969C53.9548 64.091 53.3667 64.3331 52.6057 64.5234C51.8619 64.7309 50.9798 64.8347 49.9594 64.8347ZM46.4828 57.3887H51.8014C52.0954 57.3887 52.3203 57.3454 52.476 57.2589C52.6316 57.1552 52.7095 56.9476 52.7095 56.6363C52.7095 56.2385 52.5884 55.8839 52.3462 55.5726C52.1041 55.2439 51.7755 54.9931 51.3604 54.8202C50.9452 54.6299 50.461 54.5348 49.9075 54.5348C49.2675 54.5348 48.6881 54.6645 48.1692 54.924C47.6503 55.1661 47.2352 55.5034 46.9239 55.9358C46.6299 56.3682 46.4828 56.8525 46.4828 57.3887Z" fill="#27235C" stroke="#27235C" stroke-width="0.2"/>
<path d="M40.6979 64.6799C40.0579 64.6799 39.4872 64.6367 38.9856 64.5502C38.5013 64.4637 38.0775 64.3167 37.7143 64.1092C37.3684 63.9016 37.083 63.6249 36.8581 63.2789C36.6333 62.9157 36.4603 62.4747 36.3393 61.9558C36.2355 61.4369 36.1836 60.8142 36.1836 60.0878V47.5826C36.1836 47.2886 36.2095 47.0291 36.2614 46.8043C36.3306 46.5621 36.469 46.3719 36.6765 46.2335C36.9014 46.0778 37.256 46 37.7402 46C38.2245 46 38.5705 46.0692 38.778 46.2076C39.0029 46.3459 39.1412 46.5362 39.1931 46.7783C39.2623 47.0032 39.2969 47.2626 39.2969 47.5567V59.9581C39.2969 60.2867 39.3142 60.5634 39.3488 60.7883C39.4007 60.9958 39.4785 61.1688 39.5823 61.3072C39.7034 61.4282 39.8504 61.5147 40.0233 61.5666C40.2136 61.6185 40.4384 61.6445 40.6979 61.6445C40.9227 61.6445 41.1216 61.6704 41.2946 61.7223C41.4849 61.7742 41.6319 61.9039 41.7357 62.1115C41.8567 62.319 41.9173 62.6563 41.9173 63.1233C41.9173 63.6076 41.8567 63.9621 41.7357 64.187C41.6319 64.4118 41.4849 64.5502 41.2946 64.6021C41.1043 64.654 40.9054 64.6799 40.6979 64.6799Z" fill="#27235C" stroke="#27235C" stroke-width="0.2"/>
<path d="M31.8376 64.6796C31.3706 64.6796 31.0247 64.6018 30.7998 64.4461C30.575 64.3077 30.4366 64.1261 30.3847 63.9013C30.3328 63.6591 30.3069 63.391 30.3069 63.097V53.4457C30.3069 53.1689 30.3328 52.9182 30.3847 52.6933C30.4539 52.4512 30.5923 52.2609 30.7998 52.1225C31.0247 51.9842 31.3793 51.915 31.8636 51.915C32.3478 51.915 32.6938 51.9842 32.9013 52.1225C33.1262 52.2609 33.2645 52.4512 33.3164 52.6933C33.3683 52.9354 33.3943 53.2035 33.3943 53.4976V63.1229C33.3943 63.417 33.3683 63.6851 33.3164 63.9272C33.2645 64.1521 33.1262 64.3337 32.9013 64.472C32.6938 64.6104 32.3392 64.6796 31.8376 64.6796ZM31.8376 49.3984C31.336 49.3984 30.9642 49.3292 30.722 49.1908C30.4972 49.0351 30.3501 48.8276 30.281 48.5681C30.2291 48.3087 30.2031 48.0233 30.2031 47.712C30.2031 47.3834 30.2291 47.098 30.281 46.8558C30.3501 46.6137 30.5058 46.4234 30.748 46.285C30.9901 46.1294 31.362 46.0515 31.8636 46.0515C32.3824 46.0515 32.7543 46.1294 32.9792 46.285C33.204 46.4407 33.351 46.6483 33.4202 46.9077C33.4894 47.1499 33.524 47.4352 33.524 47.7639C33.524 48.0579 33.4894 48.3346 33.4202 48.5941C33.351 48.8535 33.204 49.0524 32.9792 49.1908C32.7543 49.3292 32.3738 49.3984 31.8376 49.3984Z" fill="#27235C" stroke="#27235C" stroke-width="0.2"/>
<path d="M10.5307 64.6534C10.081 64.6534 9.74373 64.5842 9.51888 64.4459C9.29403 64.3075 9.14702 64.1172 9.07783 63.8751C9.02594 63.6329 9 63.3648 9 63.0708V48.1009C9 47.8242 9.02594 47.5734 9.07783 47.3485C9.14702 47.1064 9.29403 46.9161 9.51888 46.7777C9.74373 46.6221 10.0983 46.5443 10.5826 46.5443C10.9458 46.5443 11.2139 46.5702 11.3869 46.6221C11.5771 46.6567 11.7241 46.7172 11.8279 46.8037C11.9317 46.8729 12.0355 46.968 12.1393 47.0891L18.4696 55.9361H17.8729L24.2293 47.0631C24.3503 46.9248 24.4714 46.821 24.5925 46.7518C24.7136 46.6826 24.8692 46.6307 25.0595 46.5961C25.2497 46.5615 25.5005 46.5443 25.8119 46.5443C26.2789 46.5443 26.6248 46.6221 26.8496 46.7777C27.0745 46.9161 27.2129 47.1064 27.2647 47.3485C27.3339 47.5907 27.3685 47.8588 27.3685 48.1528V63.1227C27.3685 63.3821 27.3339 63.6329 27.2647 63.8751C27.2129 64.1172 27.0745 64.3075 26.8496 64.4459C26.6248 64.5842 26.2702 64.6534 25.7859 64.6534C25.3189 64.6534 24.973 64.5756 24.7481 64.4199C24.5233 64.2815 24.3763 64.0913 24.3071 63.8491C24.2552 63.607 24.2293 63.3475 24.2293 63.0708V51.9407L19.5074 58.764C19.4555 58.8332 19.3777 58.9284 19.2739 59.0494C19.1701 59.1532 19.0318 59.2483 18.8588 59.3348C18.6858 59.4213 18.4523 59.4645 18.1583 59.4645C17.8816 59.4645 17.6567 59.4213 17.4838 59.3348C17.3108 59.2483 17.1724 59.1532 17.0687 59.0494C16.9822 58.9457 16.8957 58.8419 16.8092 58.7381L12.1133 51.9407V63.1227C12.1133 63.3821 12.0787 63.6329 12.0095 63.8751C11.9576 64.1172 11.8193 64.3075 11.5944 64.4459C11.3696 64.5842 11.015 64.6534 10.5307 64.6534Z" fill="#27235C" stroke="#27235C" stroke-width="0.2"/>
</svg>
