<svg width="596" height="842" viewBox="0 0 596 842" fill="none" xmlns="http://www.w3.org/2000/svg">
<path d="M272.632 505.947C272.632 503.66 274.487 501.806 276.774 501.806H562.545C564.832 501.806 566.686 503.66 566.686 505.947V505.947C566.686 508.235 564.832 510.089 562.545 510.089H276.774C274.487 510.089 272.632 508.235 272.632 505.947V505.947Z" fill="#FFBB00"/>
<path d="M39.7574 475.406V465.38C38.095 462.808 36.529 460.271 35.0593 457.771C33.5897 455.271 32.2043 452.818 30.9033 450.414H35.0232C35.9387 452.386 36.9627 454.393 38.095 456.437C39.2274 458.456 40.3959 460.404 41.6005 462.279C42.7811 460.404 43.9375 458.456 45.0699 456.437C46.2023 454.393 47.2383 452.386 48.1779 450.414H52.0809C50.7799 452.818 49.3946 455.271 47.9249 457.771C46.4552 460.247 44.9012 462.76 43.2629 465.308V475.406H39.7574Z" fill="white"/>
<path d="M69.9998 466.03C69.9998 467.52 69.7829 468.867 69.3492 470.069C68.9156 471.271 68.3012 472.305 67.5061 473.17C66.7352 474.036 65.8076 474.709 64.7234 475.19C63.6392 475.647 62.4587 475.875 61.1818 475.875C59.9049 475.875 58.7243 475.647 57.6401 475.19C56.556 474.709 55.6163 474.036 54.8213 473.17C54.0503 472.305 53.448 471.271 53.0143 470.069C52.5806 468.867 52.3638 467.52 52.3638 466.03C52.3638 464.563 52.5806 463.229 53.0143 462.027C53.448 460.8 54.0503 459.755 54.8213 458.889C55.6163 458.024 56.556 457.362 57.6401 456.906C58.7243 456.425 59.9049 456.184 61.1818 456.184C62.4587 456.184 63.6392 456.425 64.7234 456.906C65.8076 457.362 66.7352 458.024 67.5061 458.889C68.3012 459.755 68.9156 460.8 69.3492 462.027C69.7829 463.229 69.9998 464.563 69.9998 466.03ZM66.4942 466.03C66.4942 463.914 66.0124 462.243 65.0487 461.017C64.1091 459.767 62.8201 459.141 61.1818 459.141C59.5435 459.141 58.2425 459.767 57.2787 461.017C56.3391 462.243 55.8693 463.914 55.8693 466.03C55.8693 468.145 56.3391 469.828 57.2787 471.079C58.2425 472.305 59.5435 472.918 61.1818 472.918C62.8201 472.918 64.1091 472.305 65.0487 471.079C66.0124 469.828 66.4942 468.145 66.4942 466.03Z" fill="white"/>
<path d="M89.69 474.865C88.919 475.058 87.8951 475.262 86.6182 475.478C85.3653 475.695 83.9077 475.803 82.2453 475.803C80.7997 475.803 79.583 475.599 78.5952 475.19C77.6074 474.757 76.8124 474.156 76.2101 473.387C75.6077 472.617 75.1741 471.716 74.909 470.682C74.644 469.624 74.5115 468.458 74.5115 467.184V456.653H77.8725V466.462C77.8725 468.746 78.2338 470.381 78.9566 471.367C79.6794 472.353 80.8961 472.846 82.6067 472.846C82.9681 472.846 83.3415 472.834 83.727 472.81C84.1125 472.786 84.4739 472.762 84.8112 472.737C85.1485 472.689 85.4496 472.653 85.7147 472.629C86.0038 472.581 86.2086 472.533 86.329 472.485V456.653H89.69V474.865Z" fill="white"/>
<path d="M102.419 456.256C102.708 456.256 103.033 456.28 103.395 456.329C103.78 456.353 104.154 456.401 104.515 456.473C104.876 456.521 105.202 456.581 105.491 456.653C105.804 456.701 106.033 456.749 106.177 456.797L105.599 459.719C105.334 459.622 104.888 459.514 104.262 459.394C103.66 459.25 102.877 459.178 101.913 459.178C101.287 459.178 100.66 459.25 100.034 459.394C99.4314 459.514 99.0339 459.598 98.8411 459.646V475.406H95.4802V457.446C96.2752 457.158 97.263 456.894 98.4436 456.653C99.6241 456.389 100.949 456.256 102.419 456.256Z" fill="white"/>
<path d="M133.758 450.414H137.264V475.406H133.758V463.866H121.507V475.406H118.002V450.414H121.507V460.836H133.758V450.414Z" fill="white"/>
<path d="M159.854 466.03C159.854 467.52 159.637 468.867 159.203 470.069C158.77 471.271 158.155 472.305 157.36 473.17C156.589 474.036 155.662 474.709 154.577 475.19C153.493 475.647 152.313 475.875 151.036 475.875C149.759 475.875 148.578 475.647 147.494 475.19C146.41 474.709 145.47 474.036 144.675 473.17C143.904 472.305 143.302 471.271 142.868 470.069C142.435 468.867 142.218 467.52 142.218 466.03C142.218 464.563 142.435 463.229 142.868 462.027C143.302 460.8 143.904 459.755 144.675 458.889C145.47 458.024 146.41 457.362 147.494 456.906C148.578 456.425 149.759 456.184 151.036 456.184C152.313 456.184 153.493 456.425 154.577 456.906C155.662 457.362 156.589 458.024 157.36 458.889C158.155 459.755 158.77 460.8 159.203 462.027C159.637 463.229 159.854 464.563 159.854 466.03ZM156.348 466.03C156.348 463.914 155.866 462.243 154.903 461.017C153.963 459.767 152.674 459.141 151.036 459.141C149.397 459.141 148.096 459.767 147.133 461.017C146.193 462.243 145.723 463.914 145.723 466.03C145.723 468.145 146.193 469.828 147.133 471.079C148.096 472.305 149.397 472.918 151.036 472.918C152.674 472.918 153.963 472.305 154.903 471.079C155.866 469.828 156.348 468.145 156.348 466.03Z" fill="white"/>
<path d="M168.955 472.99C170.328 472.99 171.34 472.81 171.991 472.449C172.665 472.088 173.003 471.511 173.003 470.718C173.003 469.9 172.678 469.251 172.027 468.77C171.376 468.29 170.304 467.749 168.811 467.148C168.088 466.859 167.389 466.571 166.715 466.282C166.064 465.97 165.498 465.609 165.016 465.2C164.534 464.791 164.149 464.299 163.86 463.722C163.57 463.145 163.426 462.435 163.426 461.594C163.426 459.935 164.04 458.625 165.269 457.663C166.498 456.677 168.172 456.184 170.292 456.184C170.822 456.184 171.352 456.22 171.882 456.292C172.412 456.341 172.906 456.413 173.364 456.509C173.822 456.581 174.219 456.665 174.557 456.761C174.918 456.857 175.195 456.942 175.388 457.014L174.774 459.899C174.412 459.706 173.846 459.514 173.075 459.322C172.304 459.105 171.376 458.997 170.292 458.997C169.353 458.997 168.534 459.19 167.835 459.574C167.136 459.935 166.787 460.512 166.787 461.305C166.787 461.714 166.859 462.075 167.004 462.387C167.172 462.7 167.413 462.988 167.726 463.253C168.064 463.493 168.473 463.722 168.955 463.938C169.437 464.154 170.015 464.383 170.69 464.623C171.581 464.96 172.376 465.296 173.075 465.633C173.774 465.945 174.364 466.318 174.846 466.751C175.352 467.184 175.737 467.713 176.002 468.338C176.267 468.939 176.4 469.684 176.4 470.574C176.4 472.305 175.749 473.615 174.448 474.505C173.171 475.394 171.34 475.839 168.955 475.839C167.293 475.839 165.992 475.695 165.052 475.406C164.113 475.142 163.474 474.937 163.137 474.793L163.751 471.908C164.137 472.052 164.751 472.269 165.594 472.557C166.437 472.846 167.558 472.99 168.955 472.99Z" fill="white"/>
<path d="M183.855 456.653H190.974V459.466H183.855V468.121C183.855 469.059 183.927 469.84 184.072 470.465C184.216 471.067 184.433 471.547 184.722 471.908C185.011 472.245 185.373 472.485 185.806 472.629C186.24 472.774 186.746 472.846 187.324 472.846C188.336 472.846 189.143 472.737 189.746 472.521C190.372 472.281 190.806 472.112 191.047 472.016L191.697 474.793C191.36 474.961 190.77 475.166 189.926 475.406C189.083 475.671 188.119 475.803 187.035 475.803C185.758 475.803 184.698 475.647 183.855 475.334C183.036 474.997 182.373 474.505 181.867 473.855C181.361 473.206 181 472.413 180.783 471.475C180.59 470.514 180.494 469.408 180.494 468.157V451.424L183.855 450.847V456.653Z" fill="white"/>
<path d="M198.612 475.406H195.251V456.653H198.612V475.406ZM196.914 453.263C196.311 453.263 195.793 453.071 195.36 452.686C194.95 452.277 194.745 451.736 194.745 451.063C194.745 450.39 194.95 449.861 195.36 449.476C195.793 449.068 196.311 448.863 196.914 448.863C197.516 448.863 198.022 449.068 198.432 449.476C198.865 449.861 199.082 450.39 199.082 451.063C199.082 451.736 198.865 452.277 198.432 452.686C198.022 453.071 197.516 453.263 196.914 453.263Z" fill="white"/>
<path d="M204.392 457.194C205.163 457.002 206.187 456.797 207.464 456.581C208.741 456.365 210.21 456.256 211.873 456.256C213.367 456.256 214.607 456.473 215.595 456.906C216.583 457.314 217.366 457.903 217.944 458.673C218.546 459.418 218.968 460.32 219.209 461.377C219.45 462.435 219.57 463.601 219.57 464.876V475.406H216.209V465.597C216.209 464.443 216.125 463.457 215.956 462.64C215.812 461.822 215.559 461.161 215.198 460.656C214.836 460.151 214.354 459.791 213.752 459.574C213.15 459.334 212.403 459.214 211.511 459.214C211.15 459.214 210.777 459.226 210.391 459.25C210.006 459.274 209.632 459.31 209.271 459.358C208.933 459.382 208.62 459.418 208.331 459.466C208.066 459.514 207.873 459.55 207.753 459.574V475.406H204.392V457.194Z" fill="white"/>
<path d="M236.925 473.531C236.636 473.723 236.07 473.976 235.227 474.288C234.407 474.577 233.444 474.721 232.335 474.721C231.203 474.721 230.131 474.541 229.119 474.18C228.131 473.819 227.264 473.266 226.517 472.521C225.77 471.752 225.18 470.802 224.746 469.672C224.313 468.542 224.096 467.196 224.096 465.633C224.096 464.263 224.301 463.012 224.71 461.882C225.12 460.728 225.71 459.743 226.481 458.925C227.276 458.084 228.24 457.434 229.372 456.978C230.504 456.497 231.781 456.256 233.203 456.256C234.769 456.256 236.13 456.377 237.287 456.617C238.467 456.833 239.455 457.038 240.25 457.23V473.964C240.25 476.849 239.503 478.94 238.009 480.239C236.516 481.537 234.251 482.186 231.215 482.186C230.035 482.186 228.914 482.09 227.854 481.898C226.818 481.705 225.915 481.477 225.144 481.212L225.758 478.291C226.433 478.556 227.252 478.784 228.216 478.976C229.203 479.193 230.227 479.301 231.287 479.301C233.287 479.301 234.721 478.904 235.588 478.111C236.479 477.318 236.925 476.055 236.925 474.324V473.531ZM236.889 459.61C236.552 459.514 236.094 459.43 235.516 459.358C234.962 459.262 234.203 459.214 233.239 459.214C231.432 459.214 230.035 459.803 229.047 460.981C228.083 462.159 227.601 463.722 227.601 465.669C227.601 466.751 227.734 467.677 227.999 468.446C228.288 469.215 228.661 469.852 229.119 470.357C229.601 470.862 230.143 471.235 230.745 471.475C231.372 471.716 232.01 471.836 232.661 471.836C233.552 471.836 234.371 471.716 235.118 471.475C235.865 471.211 236.455 470.91 236.889 470.574V459.61Z" fill="white"/>
<path d="M249.578 471.295C249.602 471.487 249.615 471.68 249.615 471.872C249.615 472.04 249.615 472.221 249.615 472.413C249.615 473.928 249.386 475.418 248.928 476.885C248.494 478.375 247.892 479.794 247.121 481.14L244.519 480.311C245.121 479.085 245.519 477.834 245.712 476.56C245.904 475.31 246.001 474.132 246.001 473.026C246.001 472.713 245.989 472.413 245.964 472.124C245.964 471.836 245.952 471.559 245.928 471.295H249.578Z" fill="white"/>
<path d="M262.5 462.892C262.5 460.752 262.813 458.865 263.439 457.23C264.09 455.595 264.957 454.237 266.041 453.155C267.149 452.049 268.426 451.22 269.872 450.667C271.342 450.114 272.896 449.837 274.534 449.837C276.148 449.837 277.666 450.114 279.087 450.667C280.533 451.22 281.798 452.049 282.882 453.155C283.966 454.237 284.822 455.595 285.448 457.23C286.098 458.865 286.424 460.752 286.424 462.892C286.424 465.032 286.098 466.919 285.448 468.554C284.822 470.189 283.966 471.559 282.882 472.665C281.798 473.747 280.533 474.565 279.087 475.118C277.666 475.671 276.148 475.947 274.534 475.947C272.896 475.947 271.342 475.671 269.872 475.118C268.426 474.565 267.149 473.747 266.041 472.665C264.957 471.559 264.09 470.189 263.439 468.554C262.813 466.919 262.5 465.032 262.5 462.892ZM266.186 462.892C266.186 464.407 266.379 465.789 266.764 467.039C267.149 468.266 267.692 469.311 268.39 470.177C269.113 471.042 269.98 471.716 270.992 472.197C272.028 472.653 273.185 472.882 274.462 472.882C275.739 472.882 276.883 472.653 277.895 472.197C278.907 471.716 279.762 471.042 280.461 470.177C281.184 469.311 281.738 468.266 282.123 467.039C282.509 465.789 282.701 464.407 282.701 462.892C282.701 461.377 282.509 460.007 282.123 458.781C281.738 457.531 281.184 456.473 280.461 455.607C279.762 454.742 278.907 454.081 277.895 453.624C276.883 453.143 275.739 452.902 274.462 452.902C273.185 452.902 272.028 453.143 270.992 453.624C269.98 454.081 269.113 454.742 268.39 455.607C267.692 456.473 267.149 457.531 266.764 458.781C266.379 460.007 266.186 461.377 266.186 462.892Z" fill="white"/>
<path d="M306.384 474.865C305.613 475.058 304.589 475.262 303.312 475.478C302.06 475.695 300.602 475.803 298.94 475.803C297.494 475.803 296.277 475.599 295.289 475.19C294.302 474.757 293.507 474.156 292.904 473.387C292.302 472.617 291.868 471.716 291.603 470.682C291.338 469.624 291.206 468.458 291.206 467.184V456.653H294.567V466.462C294.567 468.746 294.928 470.381 295.651 471.367C296.374 472.353 297.59 472.846 299.301 472.846C299.662 472.846 300.036 472.834 300.421 472.81C300.807 472.786 301.168 472.762 301.505 472.737C301.843 472.689 302.144 472.653 302.409 472.629C302.698 472.581 302.903 472.533 303.023 472.485V456.653H306.384V474.865Z" fill="white"/>
<path d="M319.113 456.256C319.402 456.256 319.727 456.28 320.089 456.329C320.474 456.353 320.848 456.401 321.209 456.473C321.571 456.521 321.896 456.581 322.185 456.653C322.498 456.701 322.727 456.749 322.872 456.797L322.293 459.719C322.028 459.622 321.583 459.514 320.956 459.394C320.354 459.25 319.571 459.178 318.607 459.178C317.981 459.178 317.354 459.25 316.728 459.394C316.126 459.514 315.728 459.598 315.535 459.646V475.406H312.174V457.446C312.969 457.158 313.957 456.894 315.138 456.653C316.318 456.389 317.643 456.256 319.113 456.256Z" fill="white"/>
<path d="M346.947 464.948C347.333 465.429 347.814 466.066 348.393 466.859C348.995 467.628 349.609 468.494 350.236 469.456C350.862 470.393 351.477 471.379 352.079 472.413C352.705 473.447 353.235 474.444 353.669 475.406H349.838C349.356 474.493 348.826 473.567 348.248 472.629C347.694 471.692 347.128 470.802 346.55 469.961C345.971 469.095 345.393 468.29 344.815 467.544C344.261 466.799 343.755 466.15 343.297 465.597C342.984 465.621 342.659 465.633 342.321 465.633C342.008 465.633 341.683 465.633 341.345 465.633H338.201V475.406H334.696V450.775C335.684 450.534 336.78 450.378 337.985 450.306C339.213 450.21 340.334 450.162 341.345 450.162C344.863 450.162 347.537 450.823 349.368 452.145C351.224 453.467 352.151 455.439 352.151 458.06C352.151 459.718 351.705 461.137 350.814 462.315C349.947 463.493 348.658 464.371 346.947 464.948ZM341.635 453.227C340.141 453.227 338.996 453.263 338.201 453.335V462.748H340.695C341.9 462.748 342.984 462.688 343.948 462.568C344.911 462.447 345.718 462.219 346.369 461.882C347.043 461.546 347.561 461.077 347.923 460.476C348.284 459.851 348.465 459.033 348.465 458.024C348.465 457.086 348.284 456.304 347.923 455.679C347.561 455.054 347.068 454.561 346.441 454.201C345.839 453.84 345.116 453.588 344.273 453.443C343.454 453.299 342.574 453.227 341.635 453.227Z" fill="white"/>
<path d="M356.159 466.066C356.159 464.407 356.4 462.964 356.882 461.738C357.364 460.488 358.002 459.454 358.797 458.637C359.592 457.819 360.508 457.206 361.544 456.797C362.58 456.389 363.64 456.184 364.724 456.184C367.254 456.184 369.193 456.978 370.543 458.564C371.892 460.127 372.566 462.519 372.566 465.741C372.566 465.885 372.566 466.078 372.566 466.318C372.566 466.535 372.554 466.739 372.53 466.931H359.665C359.809 468.879 360.375 470.357 361.363 471.367C362.351 472.377 363.893 472.882 365.989 472.882C367.17 472.882 368.157 472.786 368.952 472.593C369.772 472.377 370.386 472.172 370.796 471.98L371.265 474.793C370.856 475.009 370.133 475.238 369.097 475.478C368.085 475.719 366.929 475.839 365.628 475.839C363.989 475.839 362.568 475.599 361.363 475.118C360.183 474.613 359.207 473.928 358.436 473.062C357.665 472.197 357.087 471.175 356.701 469.997C356.34 468.795 356.159 467.484 356.159 466.066ZM369.061 464.226C369.085 462.712 368.699 461.474 367.904 460.512C367.133 459.526 366.061 459.033 364.688 459.033C363.917 459.033 363.23 459.19 362.628 459.502C362.05 459.791 361.556 460.175 361.146 460.656C360.737 461.137 360.412 461.69 360.171 462.315C359.954 462.94 359.809 463.577 359.737 464.226H369.061Z" fill="white"/>
<path d="M381.767 472.99C383.141 472.99 384.152 472.81 384.803 472.449C385.478 472.088 385.815 471.511 385.815 470.718C385.815 469.9 385.49 469.251 384.839 468.77C384.189 468.29 383.116 467.749 381.623 467.148C380.9 466.859 380.201 466.571 379.527 466.282C378.876 465.97 378.31 465.609 377.828 465.2C377.346 464.791 376.961 464.299 376.672 463.722C376.382 463.145 376.238 462.435 376.238 461.594C376.238 459.935 376.852 458.625 378.081 457.663C379.31 456.677 380.984 456.184 383.104 456.184C383.634 456.184 384.164 456.22 384.694 456.292C385.225 456.341 385.718 456.413 386.176 456.509C386.634 456.581 387.032 456.665 387.369 456.761C387.73 456.857 388.007 456.942 388.2 457.014L387.586 459.899C387.224 459.706 386.658 459.514 385.887 459.322C385.116 459.105 384.189 458.997 383.104 458.997C382.165 458.997 381.346 459.19 380.647 459.574C379.948 459.935 379.599 460.512 379.599 461.305C379.599 461.714 379.671 462.075 379.816 462.387C379.984 462.7 380.225 462.988 380.538 463.253C380.876 463.493 381.285 463.722 381.767 463.938C382.249 464.154 382.827 464.383 383.502 464.623C384.393 464.96 385.188 465.296 385.887 465.633C386.586 465.945 387.176 466.318 387.658 466.751C388.164 467.184 388.549 467.713 388.814 468.338C389.079 468.939 389.212 469.684 389.212 470.574C389.212 472.305 388.561 473.615 387.26 474.505C385.983 475.394 384.152 475.839 381.767 475.839C380.105 475.839 378.804 475.695 377.864 475.406C376.925 475.142 376.286 474.937 375.949 474.793L376.563 471.908C376.949 472.052 377.563 472.269 378.406 472.557C379.25 472.846 380.37 472.99 381.767 472.99Z" fill="white"/>
<path d="M406.569 466.066C406.569 463.878 406.027 462.195 404.943 461.017C403.859 459.839 402.413 459.25 400.606 459.25C399.594 459.25 398.799 459.286 398.221 459.358C397.667 459.43 397.221 459.514 396.884 459.61V471.439C397.293 471.776 397.884 472.1 398.655 472.413C399.426 472.725 400.269 472.882 401.184 472.882C402.148 472.882 402.967 472.713 403.642 472.377C404.341 472.016 404.907 471.535 405.34 470.934C405.774 470.309 406.087 469.588 406.28 468.77C406.473 467.929 406.569 467.027 406.569 466.066ZM410.075 466.066C410.075 467.484 409.882 468.795 409.496 469.997C409.135 471.199 408.593 472.233 407.87 473.098C407.147 473.964 406.256 474.637 405.196 475.118C404.16 475.599 402.967 475.839 401.618 475.839C400.534 475.839 399.57 475.695 398.727 475.406C397.908 475.118 397.293 474.841 396.884 474.577V482.078H393.523V457.23C394.318 457.038 395.306 456.833 396.486 456.617C397.691 456.377 399.076 456.256 400.642 456.256C402.088 456.256 403.389 456.485 404.545 456.942C405.702 457.398 406.69 458.048 407.509 458.889C408.328 459.731 408.954 460.764 409.388 461.991C409.846 463.193 410.075 464.551 410.075 466.066Z" fill="white"/>
<path d="M431.392 466.03C431.392 467.52 431.175 468.867 430.742 470.069C430.308 471.271 429.693 472.305 428.898 473.17C428.127 474.036 427.2 474.709 426.116 475.19C425.032 475.647 423.851 475.875 422.574 475.875C421.297 475.875 420.117 475.647 419.032 475.19C417.948 474.709 417.009 474.036 416.214 473.17C415.443 472.305 414.84 471.271 414.407 470.069C413.973 468.867 413.756 467.52 413.756 466.03C413.756 464.563 413.973 463.229 414.407 462.027C414.84 460.8 415.443 459.755 416.214 458.889C417.009 458.024 417.948 457.362 419.032 456.906C420.117 456.425 421.297 456.184 422.574 456.184C423.851 456.184 425.032 456.425 426.116 456.906C427.2 457.362 428.127 458.024 428.898 458.889C429.693 459.755 430.308 460.8 430.742 462.027C431.175 463.229 431.392 464.563 431.392 466.03ZM427.887 466.03C427.887 463.914 427.405 462.243 426.441 461.017C425.501 459.767 424.212 459.141 422.574 459.141C420.936 459.141 419.635 459.767 418.671 461.017C417.731 462.243 417.262 463.914 417.262 466.03C417.262 468.145 417.731 469.828 418.671 471.079C419.635 472.305 420.936 472.918 422.574 472.918C424.212 472.918 425.501 472.305 426.441 471.079C427.405 469.828 427.887 468.145 427.887 466.03Z" fill="white"/>
<path d="M436.121 457.194C436.892 457.002 437.916 456.797 439.192 456.581C440.469 456.365 441.939 456.256 443.601 456.256C445.095 456.256 446.336 456.473 447.324 456.906C448.312 457.314 449.095 457.903 449.673 458.673C450.275 459.418 450.697 460.32 450.938 461.377C451.179 462.435 451.299 463.601 451.299 464.876V475.406H447.938V465.597C447.938 464.443 447.854 463.457 447.685 462.64C447.541 461.822 447.288 461.161 446.926 460.656C446.565 460.151 446.083 459.791 445.481 459.574C444.878 459.334 444.131 459.214 443.24 459.214C442.879 459.214 442.505 459.226 442.12 459.25C441.734 459.274 441.361 459.31 440.999 459.358C440.662 459.382 440.349 459.418 440.06 459.466C439.795 459.514 439.602 459.55 439.482 459.574V475.406H436.121V457.194Z" fill="white"/>
<path d="M461.245 472.99C462.619 472.99 463.63 472.81 464.281 472.449C464.956 472.088 465.293 471.511 465.293 470.718C465.293 469.9 464.968 469.251 464.317 468.77C463.667 468.29 462.594 467.749 461.101 467.148C460.378 466.859 459.679 466.571 459.005 466.282C458.354 465.97 457.788 465.609 457.306 465.2C456.824 464.791 456.439 464.299 456.15 463.722C455.861 463.145 455.716 462.435 455.716 461.594C455.716 459.935 456.33 458.625 457.559 457.663C458.788 456.677 460.462 456.184 462.582 456.184C463.112 456.184 463.643 456.22 464.173 456.292C464.703 456.341 465.197 456.413 465.654 456.509C466.112 456.581 466.51 456.665 466.847 456.761C467.208 456.857 467.485 456.942 467.678 457.014L467.064 459.899C466.702 459.706 466.136 459.514 465.365 459.322C464.594 459.105 463.667 458.997 462.582 458.997C461.643 458.997 460.824 459.19 460.125 459.574C459.426 459.935 459.077 460.512 459.077 461.305C459.077 461.714 459.149 462.075 459.294 462.387C459.462 462.7 459.703 462.988 460.017 463.253C460.354 463.493 460.763 463.722 461.245 463.938C461.727 464.154 462.305 464.383 462.98 464.623C463.871 464.96 464.666 465.296 465.365 465.633C466.064 465.945 466.654 466.318 467.136 466.751C467.642 467.184 468.027 467.713 468.292 468.338C468.557 468.939 468.69 469.684 468.69 470.574C468.69 472.305 468.039 473.615 466.738 474.505C465.462 475.394 463.63 475.839 461.245 475.839C459.583 475.839 458.282 475.695 457.342 475.406C456.403 475.142 455.764 474.937 455.427 474.793L456.041 471.908C456.427 472.052 457.041 472.269 457.884 472.557C458.728 472.846 459.848 472.99 461.245 472.99Z" fill="white"/>
<path d="M476.362 475.406H473.001V456.653H476.362V475.406ZM474.663 453.263C474.061 453.263 473.543 453.071 473.109 452.686C472.7 452.277 472.495 451.736 472.495 451.063C472.495 450.39 472.7 449.861 473.109 449.476C473.543 449.068 474.061 448.863 474.663 448.863C475.266 448.863 475.772 449.068 476.181 449.476C476.615 449.861 476.832 450.39 476.832 451.063C476.832 451.736 476.615 452.277 476.181 452.686C475.772 453.071 475.266 453.263 474.663 453.263Z" fill="white"/>
<path d="M485.503 457.483C485.912 457.218 486.527 456.942 487.346 456.653C488.189 456.365 489.153 456.22 490.237 456.22C491.586 456.22 492.779 456.461 493.815 456.942C494.875 457.422 495.766 458.096 496.489 458.961C497.212 459.827 497.754 460.861 498.115 462.063C498.501 463.265 498.693 464.587 498.693 466.03C498.693 467.544 498.465 468.915 498.007 470.141C497.573 471.343 496.947 472.365 496.128 473.206C495.308 474.048 494.321 474.697 493.164 475.154C492.008 475.611 490.707 475.839 489.261 475.839C487.695 475.839 486.31 475.731 485.105 475.514C483.9 475.298 482.913 475.082 482.142 474.865V447.998L485.503 447.421V457.483ZM485.503 472.485C485.84 472.581 486.31 472.677 486.912 472.774C487.538 472.846 488.309 472.882 489.225 472.882C491.032 472.882 492.477 472.293 493.562 471.115C494.646 469.912 495.188 468.217 495.188 466.03C495.188 465.068 495.092 464.166 494.899 463.325C494.706 462.483 494.393 461.762 493.959 461.161C493.526 460.536 492.959 460.055 492.261 459.719C491.586 459.358 490.767 459.178 489.803 459.178C488.888 459.178 488.044 459.334 487.273 459.646C486.502 459.959 485.912 460.283 485.503 460.62V472.485Z" fill="white"/>
<path d="M506.784 475.406H503.423V456.653H506.784V475.406ZM505.085 453.263C504.483 453.263 503.965 453.071 503.531 452.686C503.122 452.277 502.917 451.736 502.917 451.063C502.917 450.39 503.122 449.861 503.531 449.476C503.965 449.068 504.483 448.863 505.085 448.863C505.688 448.863 506.194 449.068 506.603 449.476C507.037 449.861 507.254 450.39 507.254 451.063C507.254 451.736 507.037 452.277 506.603 452.686C506.194 453.071 505.688 453.263 505.085 453.263Z" fill="white"/>
<path d="M518.201 475.767C516.129 475.719 514.66 475.274 513.792 474.432C512.925 473.591 512.491 472.281 512.491 470.502V447.998L515.852 447.421V469.961C515.852 470.514 515.9 470.97 515.997 471.331C516.093 471.692 516.25 471.98 516.467 472.197C516.683 472.413 516.973 472.581 517.334 472.701C517.695 472.798 518.141 472.882 518.671 472.954L518.201 475.767Z" fill="white"/>
<path d="M525.806 475.406H522.445V456.653H525.806V475.406ZM524.108 453.263C523.505 453.263 522.987 453.071 522.554 452.686C522.144 452.277 521.939 451.736 521.939 451.063C521.939 450.39 522.144 449.861 522.554 449.476C522.987 449.068 523.505 448.863 524.108 448.863C524.71 448.863 525.216 449.068 525.626 449.476C526.059 449.861 526.276 450.39 526.276 451.063C526.276 451.736 526.059 452.277 525.626 452.686C525.216 453.071 524.71 453.263 524.108 453.263Z" fill="white"/>
<path d="M534.73 456.653H541.85V459.466H534.73V468.121C534.73 469.059 534.802 469.84 534.947 470.465C535.092 471.067 535.308 471.547 535.597 471.908C535.887 472.245 536.248 472.485 536.682 472.629C537.115 472.774 537.621 472.846 538.2 472.846C539.211 472.846 540.018 472.737 540.621 472.521C541.247 472.281 541.681 472.112 541.922 472.016L542.572 474.793C542.235 474.961 541.645 475.166 540.802 475.406C539.958 475.671 538.995 475.803 537.91 475.803C536.634 475.803 535.573 475.647 534.73 475.334C533.911 474.997 533.248 474.505 532.743 473.855C532.237 473.206 531.875 472.413 531.658 471.475C531.466 470.514 531.369 469.408 531.369 468.157V451.424L534.73 450.847V456.653Z" fill="white"/>
<path d="M543.922 478.904C544.187 479.025 544.524 479.133 544.934 479.229C545.368 479.349 545.789 479.409 546.199 479.409C547.524 479.409 548.56 479.109 549.307 478.508C550.054 477.931 550.728 476.981 551.331 475.659C549.813 472.774 548.391 469.72 547.066 466.498C545.765 463.253 544.681 459.971 543.814 456.653H547.427C547.692 457.735 548.006 458.901 548.367 460.151C548.753 461.401 549.174 462.688 549.632 464.01C550.09 465.332 550.584 466.655 551.114 467.977C551.644 469.299 552.198 470.574 552.776 471.8C553.692 469.275 554.487 466.775 555.161 464.299C555.836 461.822 556.474 459.274 557.077 456.653H560.546C559.679 460.187 558.715 463.589 557.655 466.859C556.595 470.105 555.45 473.146 554.222 475.983C553.74 477.065 553.234 477.991 552.704 478.76C552.198 479.553 551.632 480.203 551.005 480.708C550.379 481.212 549.668 481.585 548.873 481.826C548.102 482.066 547.223 482.186 546.235 482.186C545.97 482.186 545.693 482.162 545.404 482.114C545.115 482.09 544.825 482.042 544.536 481.97C544.271 481.922 544.018 481.862 543.777 481.789C543.561 481.717 543.404 481.657 543.308 481.609L543.922 478.904Z" fill="white"/>
<path d="M567.08 473.459C567.08 474.108 566.863 474.673 566.43 475.154C565.996 475.635 565.406 475.875 564.659 475.875C563.912 475.875 563.322 475.635 562.888 475.154C562.454 474.673 562.237 474.108 562.237 473.459C562.237 472.81 562.454 472.245 562.888 471.764C563.322 471.283 563.912 471.042 564.659 471.042C565.406 471.042 565.996 471.283 566.43 471.764C566.863 472.245 567.08 472.81 567.08 473.459Z" fill="white"/>
<path d="M537.911 422.937C533.78 422.937 530.069 422.136 526.781 420.534C523.577 418.848 520.836 416.571 518.559 413.704C516.367 410.837 514.68 407.548 513.5 403.838C512.404 400.043 511.856 395.996 511.856 391.695C511.94 387.395 512.572 383.39 513.753 379.679C514.933 375.885 516.62 372.596 518.812 369.814C521.089 366.947 523.829 364.712 527.034 363.11C530.238 361.508 533.864 360.707 537.911 360.707C541.79 360.707 545.416 361.508 548.789 363.11C552.246 364.712 555.282 366.947 557.896 369.814C560.595 372.596 562.703 375.885 564.22 379.679C565.738 383.39 566.497 387.353 566.497 391.569C566.497 395.954 565.738 400.086 564.22 403.965C562.703 407.759 560.637 411.09 558.023 413.957C555.409 416.739 552.373 418.932 548.916 420.534C545.458 422.136 541.79 422.937 537.911 422.937ZM535.888 408.139C538.839 408.139 541.495 407.464 543.856 406.115C546.217 404.681 548.072 402.742 549.422 400.296C550.855 397.851 551.572 395.068 551.572 391.948C551.572 388.744 550.855 385.919 549.422 383.474C548.072 380.944 546.217 379.005 543.856 377.656C541.495 376.222 538.839 375.505 535.888 375.505C533.021 375.505 530.407 376.222 528.046 377.656C525.685 379.089 523.787 381.029 522.354 383.474C521.005 385.919 520.33 388.744 520.33 391.948C520.33 395.068 521.005 397.851 522.354 400.296C523.787 402.742 525.685 404.681 528.046 406.115C530.407 407.464 533.021 408.139 535.888 408.139ZM512.488 423.064C510.211 423.064 508.525 422.684 507.429 421.925C506.332 421.251 505.658 420.365 505.405 419.269C505.152 418.089 505.025 416.782 505.025 415.348V339.963C505.025 338.53 505.152 337.265 505.405 336.169C505.658 334.988 506.332 334.061 507.429 333.386C508.525 332.711 510.211 332.374 512.488 332.374C514.849 332.374 516.536 332.711 517.547 333.386C518.559 334.061 519.192 334.988 519.445 336.169C519.698 337.349 519.824 338.614 519.824 339.963V417.878C519.487 419.733 518.77 421.04 517.674 421.799C516.662 422.642 514.933 423.064 512.488 423.064Z" fill="white" stroke="white" stroke-width="0.2"/>
<path d="M467.327 423.824C461.846 423.824 457.039 422.939 452.907 421.168C448.86 419.397 445.445 416.994 442.662 413.959C439.964 410.839 437.898 407.381 436.464 403.587C435.115 399.708 434.44 395.703 434.44 391.571C434.44 385.499 435.832 380.103 438.614 375.381C441.397 370.659 445.234 366.948 450.125 364.25C455.1 361.552 460.791 360.202 467.2 360.202C471.754 360.202 475.759 360.919 479.216 362.353C482.673 363.786 485.54 365.684 487.817 368.045C490.178 370.321 491.949 372.851 493.13 375.634C494.394 378.416 495.027 381.115 495.027 383.729C495.027 388.198 493.931 391.444 491.738 393.468C489.63 395.492 486.974 396.504 483.77 396.504H450.378C450.462 399.371 451.347 401.858 453.034 403.966C454.805 406.074 456.997 407.719 459.611 408.899C462.309 409.995 465.05 410.543 467.832 410.543C469.941 410.543 471.796 410.417 473.398 410.164C475.084 409.911 476.518 409.616 477.698 409.279C478.879 408.857 479.891 408.435 480.734 408.014C481.662 407.592 482.505 407.213 483.264 406.875C484.023 406.538 484.739 406.327 485.414 406.243C486.341 406.159 487.269 406.369 488.197 406.875C489.124 407.381 489.883 408.267 490.473 409.532C490.979 410.375 491.317 411.176 491.485 411.935C491.738 412.609 491.865 413.284 491.865 413.959C491.865 415.645 490.853 417.247 488.829 418.765C486.805 420.199 483.938 421.379 480.228 422.307C476.602 423.318 472.302 423.824 467.327 423.824ZM450.378 387.523H476.307C477.74 387.523 478.837 387.312 479.596 386.891C480.355 386.385 480.734 385.373 480.734 383.855C480.734 381.916 480.144 380.187 478.963 378.669C477.783 377.067 476.18 375.844 474.157 375.001C472.133 374.074 469.772 373.61 467.074 373.61C463.954 373.61 461.129 374.242 458.599 375.507C456.069 376.688 454.046 378.332 452.528 380.44C451.094 382.548 450.378 384.909 450.378 387.523Z" fill="white" stroke="white" stroke-width="0.2"/>
<path d="M354.165 422.689C352.478 422.689 351.129 422.394 350.117 421.804C349.105 421.129 348.346 420.37 347.84 419.527C347.419 418.684 347.124 417.967 346.955 417.377L322.164 344.774C321.321 342.076 321.194 340.052 321.784 338.703C322.375 337.27 324.103 336.089 326.97 335.162C328.91 334.487 330.47 334.192 331.65 334.276C332.831 334.36 333.801 334.866 334.559 335.794C335.403 336.637 336.119 337.986 336.71 339.842L354.924 394.989L371.24 340.347C371.493 339.504 371.83 338.661 372.252 337.818C372.758 336.89 373.517 336.131 374.529 335.541C375.541 334.951 376.932 334.656 378.703 334.656C380.727 334.656 382.244 334.993 383.256 335.667C384.268 336.342 384.985 337.101 385.406 337.944C385.912 338.703 386.25 339.42 386.418 340.094L402.735 395.368L421.075 339.968C421.666 338.029 422.34 336.595 423.099 335.667C423.942 334.74 424.996 334.234 426.261 334.15C427.526 333.981 429.086 334.234 430.941 334.909C432.881 335.583 434.272 336.342 435.115 337.185C435.958 337.944 436.38 338.956 436.38 340.221C436.38 341.401 436.085 342.919 435.495 344.774L410.83 417.503C410.661 418.009 410.324 418.684 409.818 419.527C409.396 420.37 408.68 421.129 407.668 421.804C406.656 422.394 405.265 422.689 403.494 422.689C401.723 422.689 400.332 422.31 399.32 421.551C398.308 420.792 397.549 419.949 397.043 419.021C396.537 418.093 396.2 417.419 396.031 416.997L378.829 361.344L361.627 416.871C361.459 417.461 361.121 418.22 360.615 419.148C360.194 420.075 359.477 420.918 358.465 421.677C357.453 422.352 356.02 422.689 354.165 422.689Z" fill="white" stroke="white" stroke-width="0.2"/>
<path d="M288.396 423.825C286.203 423.825 283.884 423.573 281.439 423.067C278.994 422.645 276.633 422.013 274.356 421.169C272.079 420.242 270.098 419.188 268.411 418.007C266.809 416.742 265.797 415.351 265.375 413.833C265.038 412.99 264.912 412.189 264.996 411.43C265.08 410.587 265.333 409.743 265.755 408.9C266.177 407.973 266.809 407.045 267.652 406.118C268.411 405.19 269.17 404.684 269.929 404.6C270.772 404.431 271.826 404.684 273.091 405.359C274.187 405.78 275.368 406.328 276.633 407.003C277.982 407.678 279.331 408.352 280.68 409.027C282.114 409.701 283.547 410.249 284.981 410.671C286.498 411.093 287.974 411.303 289.408 411.303C292.528 411.303 295.015 410.798 296.87 409.786C298.725 408.689 299.653 407.172 299.653 405.232C299.653 404.136 299.358 403.166 298.768 402.323C298.177 401.48 297.376 400.805 296.364 400.299C295.437 399.709 294.298 399.203 292.949 398.781C291.684 398.276 290.293 397.854 288.775 397.517C287.342 397.095 285.824 396.631 284.222 396.125C282.114 395.535 280.006 394.818 277.897 393.975C275.789 393.132 273.892 392.036 272.206 390.686C270.604 389.337 269.296 387.651 268.285 385.627C267.273 383.603 266.767 381.074 266.767 378.038C266.767 374.243 267.652 371.039 269.423 368.425C271.278 365.727 273.934 363.661 277.392 362.227C280.849 360.794 285.023 360.077 289.914 360.077C291.6 360.077 293.202 360.204 294.72 360.457C296.322 360.71 297.84 361.089 299.273 361.595C300.791 362.017 302.225 362.565 303.574 363.239C305.007 363.914 306.357 364.673 307.621 365.516C309.73 366.696 310.826 368.088 310.91 369.69C310.994 371.208 310.404 372.852 309.139 374.623C308.212 375.803 307.284 376.647 306.357 377.153C305.429 377.574 304.459 377.574 303.447 377.153C302.098 376.478 300.623 375.761 299.02 375.002C297.503 374.159 295.901 373.442 294.214 372.852C292.612 372.262 290.925 371.967 289.155 371.967C287.468 371.967 285.95 372.22 284.601 372.726C283.252 373.232 282.24 373.948 281.566 374.876C280.891 375.803 280.554 376.9 280.554 378.164C280.554 379.345 280.891 380.315 281.566 381.074C282.24 381.832 283.126 382.465 284.222 382.971C285.318 383.477 286.625 383.941 288.143 384.362C289.661 384.699 291.263 385.037 292.949 385.374C295.31 385.88 297.713 386.512 300.159 387.271C302.604 388.03 304.839 389.084 306.863 390.433C308.971 391.783 310.657 393.596 311.922 395.872C313.187 398.065 313.819 400.932 313.819 404.473C313.819 410.629 311.543 415.393 306.989 418.766C302.52 422.139 296.322 423.825 288.396 423.825Z" fill="white" stroke="white" stroke-width="0.2"/>
<path d="M228.686 423.824C223.205 423.824 218.399 422.938 214.267 421.167C210.22 419.397 206.805 416.993 204.022 413.958C201.323 410.838 199.258 407.381 197.824 403.586C196.475 399.707 195.8 395.702 195.8 391.57C195.8 385.499 197.192 380.102 199.974 375.38C202.757 370.658 206.594 366.948 211.484 364.249C216.46 361.551 222.151 360.202 228.56 360.202C233.113 360.202 237.119 360.918 240.576 362.352C244.033 363.785 246.9 365.683 249.177 368.044C251.538 370.32 253.309 372.85 254.489 375.633C255.754 378.416 256.387 381.114 256.387 383.728C256.387 388.197 255.29 391.443 253.098 393.467C250.99 395.491 248.334 396.503 245.129 396.503H211.737C211.822 399.37 212.707 401.857 214.394 403.965C216.164 406.074 218.357 407.718 220.971 408.898C223.669 409.995 226.41 410.543 229.192 410.543C231.3 410.543 233.156 410.416 234.758 410.163C236.444 409.91 237.878 409.615 239.058 409.278C240.239 408.856 241.251 408.435 242.094 408.013C243.021 407.591 243.865 407.212 244.624 406.875C245.382 406.537 246.099 406.327 246.774 406.242C247.701 406.158 248.629 406.369 249.556 406.875C250.484 407.381 251.243 408.266 251.833 409.531C252.339 410.374 252.676 411.175 252.845 411.934C253.098 412.609 253.225 413.283 253.225 413.958C253.225 415.644 252.213 417.246 250.189 418.764C248.165 420.198 245.298 421.378 241.588 422.306C237.962 423.318 233.661 423.824 228.686 423.824ZM211.737 387.522H237.667C239.1 387.522 240.197 387.312 240.955 386.89C241.714 386.384 242.094 385.372 242.094 383.854C242.094 381.915 241.504 380.186 240.323 378.668C239.143 377.066 237.54 375.844 235.517 375C233.493 374.073 231.132 373.609 228.433 373.609C225.313 373.609 222.489 374.242 219.959 375.506C217.429 376.687 215.405 378.331 213.888 380.439C212.454 382.547 211.737 384.908 211.737 387.522Z" fill="white" stroke="white" stroke-width="0.2"/>
<path d="M183.531 423.069C180.411 423.069 177.629 422.858 175.183 422.437C172.822 422.015 170.756 421.298 168.986 420.286C167.299 419.275 165.908 417.925 164.812 416.239C163.715 414.468 162.872 412.318 162.282 409.788C161.776 407.259 161.523 404.223 161.523 400.681V339.716C161.523 338.282 161.649 337.017 161.902 335.921C162.24 334.741 162.914 333.813 163.926 333.138C165.022 332.379 166.751 332 169.112 332C171.473 332 173.16 332.337 174.171 333.012C175.268 333.686 175.942 334.614 176.195 335.795C176.533 336.891 176.701 338.156 176.701 339.589V400.049C176.701 401.651 176.785 403 176.954 404.096C177.207 405.108 177.587 405.952 178.092 406.626C178.683 407.216 179.4 407.638 180.243 407.891C181.17 408.144 182.266 408.27 183.531 408.27C184.628 408.27 185.597 408.397 186.441 408.65C187.368 408.903 188.085 409.535 188.591 410.547C189.181 411.559 189.476 413.203 189.476 415.48C189.476 417.841 189.181 419.57 188.591 420.666C188.085 421.762 187.368 422.437 186.441 422.69C185.513 422.943 184.543 423.069 183.531 423.069Z" fill="white" stroke="white" stroke-width="0.2"/>
<path d="M140.346 423.067C138.07 423.067 136.383 422.688 135.287 421.929C134.191 421.254 133.516 420.369 133.263 419.273C133.01 418.092 132.884 416.785 132.884 415.352V368.299C132.884 366.95 133.01 365.728 133.263 364.631C133.601 363.451 134.275 362.523 135.287 361.849C136.383 361.174 138.112 360.837 140.473 360.837C142.834 360.837 144.52 361.174 145.532 361.849C146.629 362.523 147.303 363.451 147.556 364.631C147.809 365.812 147.936 367.119 147.936 368.552V415.478C147.936 416.912 147.809 418.219 147.556 419.399C147.303 420.496 146.629 421.381 145.532 422.056C144.52 422.73 142.792 423.067 140.346 423.067ZM140.346 348.568C137.901 348.568 136.088 348.231 134.908 347.556C133.811 346.797 133.095 345.785 132.757 344.52C132.504 343.255 132.378 341.864 132.378 340.346C132.378 338.744 132.504 337.353 132.757 336.172C133.095 334.992 133.854 334.064 135.034 333.39C136.215 332.631 138.028 332.251 140.473 332.251C143.003 332.251 144.816 332.631 145.912 333.39C147.008 334.149 147.725 335.16 148.062 336.425C148.399 337.606 148.568 338.997 148.568 340.599C148.568 342.033 148.399 343.382 148.062 344.647C147.725 345.912 147.008 346.881 145.912 347.556C144.816 348.231 142.961 348.568 140.346 348.568Z" fill="white" stroke="white" stroke-width="0.2"/>
<path d="M36.4626 422.94C34.2702 422.94 32.6259 422.602 31.5297 421.928C30.4335 421.253 29.7167 420.326 29.3795 419.145C29.1265 417.965 29 416.658 29 415.224V342.242C29 340.893 29.1265 339.671 29.3795 338.574C29.7167 337.394 30.4335 336.466 31.5297 335.792C32.6259 335.033 34.3545 334.653 36.7156 334.653C38.4864 334.653 39.7934 334.78 40.6366 335.033C41.5642 335.201 42.2809 335.497 42.7869 335.918C43.2928 336.255 43.7987 336.719 44.3047 337.309L75.167 380.441H72.2579L103.247 337.183C103.837 336.508 104.427 336.002 105.018 335.665C105.608 335.328 106.367 335.075 107.294 334.906C108.222 334.738 109.444 334.653 110.962 334.653C113.239 334.653 114.926 335.033 116.022 335.792C117.118 336.466 117.793 337.394 118.045 338.574C118.383 339.755 118.551 341.062 118.551 342.495V415.477C118.551 416.742 118.383 417.965 118.045 419.145C117.793 420.326 117.118 421.253 116.022 421.928C114.926 422.602 113.197 422.94 110.836 422.94C108.559 422.94 106.873 422.56 105.776 421.801C104.68 421.127 103.963 420.199 103.626 419.019C103.373 417.838 103.247 416.573 103.247 415.224V360.962L80.2264 394.228C79.9735 394.565 79.594 395.029 79.0881 395.619C78.5821 396.125 77.9075 396.589 77.0643 397.01C76.2211 397.432 75.0827 397.643 73.6492 397.643C72.3 397.643 71.2038 397.432 70.3606 397.01C69.5174 396.589 68.8428 396.125 68.3368 395.619C67.9152 395.113 67.4936 394.607 67.072 394.101L44.1782 360.962V415.477C44.1782 416.742 44.0096 417.965 43.6723 419.145C43.4193 420.326 42.7447 421.253 41.6485 421.928C40.5523 422.602 38.8237 422.94 36.4626 422.94Z" fill="white" stroke="white" stroke-width="0.2"/>
</svg>
