<svg width="256" height="256" viewBox="0 0 256 256" fill="none" xmlns="http://www.w3.org/2000/svg">
<path d="M116.25 167.857C116.25 166.794 117.111 165.932 118.175 165.932H251.012C252.075 165.932 252.937 166.794 252.937 167.857V167.857C252.937 168.921 252.075 169.782 251.012 169.782H118.175C117.111 169.782 116.25 168.921 116.25 167.857V167.857Z" fill="#FFBB00"/>
<path d="M8.00049 153.661V149C7.22774 147.804 6.49979 146.625 5.81664 145.463C5.13348 144.301 4.48953 143.161 3.88477 142.043H5.79984C6.22541 142.96 6.70138 143.893 7.22774 144.843C7.75411 145.782 8.29727 146.687 8.85723 147.559C9.406 146.687 9.94356 145.782 10.4699 144.843C10.9963 143.893 11.4779 142.96 11.9146 142.043H13.7289C13.1241 143.161 12.4802 144.301 11.797 145.463C11.1139 146.614 10.3915 147.782 9.62998 148.967V153.661H8.00049Z" fill="#27235C"/>
<path d="M22.0583 149.302C22.0583 149.995 21.9575 150.621 21.7559 151.18C21.5543 151.738 21.2687 152.219 20.8991 152.621C20.5408 153.024 20.1096 153.337 19.6056 153.56C19.1017 153.772 18.5529 153.879 17.9593 153.879C17.3658 153.879 16.817 153.772 16.313 153.56C15.8091 153.337 15.3723 153.024 15.0027 152.621C14.6444 152.219 14.3644 151.738 14.1628 151.18C13.9612 150.621 13.8604 149.995 13.8604 149.302C13.8604 148.62 13.9612 148 14.1628 147.441C14.3644 146.871 14.6444 146.385 15.0027 145.983C15.3723 145.581 15.8091 145.273 16.313 145.061C16.817 144.837 17.3658 144.726 17.9593 144.726C18.5529 144.726 19.1017 144.837 19.6056 145.061C20.1096 145.273 20.5408 145.581 20.8991 145.983C21.2687 146.385 21.5543 146.871 21.7559 147.441C21.9575 148 22.0583 148.62 22.0583 149.302ZM20.4288 149.302C20.4288 148.319 20.2048 147.542 19.7568 146.972C19.32 146.391 18.7209 146.1 17.9593 146.1C17.1978 146.1 16.593 146.391 16.1451 146.972C15.7083 147.542 15.4899 148.319 15.4899 149.302C15.4899 150.286 15.7083 151.068 16.1451 151.649C16.593 152.219 17.1978 152.504 17.9593 152.504C18.7209 152.504 19.32 152.219 19.7568 151.649C20.2048 151.068 20.4288 150.286 20.4288 149.302Z" fill="#27235C"/>
<path d="M31.211 153.409C30.8526 153.499 30.3767 153.594 29.7831 153.694C29.2008 153.795 28.5232 153.845 27.7505 153.845C27.0785 153.845 26.5129 153.75 26.0538 153.56C25.5946 153.359 25.225 153.079 24.945 152.722C24.6651 152.364 24.4635 151.945 24.3403 151.465C24.2171 150.973 24.1555 150.431 24.1555 149.838V144.943H25.7178V149.503C25.7178 150.565 25.8858 151.325 26.2218 151.783C26.5577 152.241 27.1233 152.47 27.9184 152.47C28.0864 152.47 28.26 152.465 28.4392 152.454C28.6184 152.442 28.7864 152.431 28.9432 152.42C29.1 152.398 29.24 152.381 29.3631 152.37C29.4975 152.347 29.5927 152.325 29.6487 152.303V144.943H31.211V153.409Z" fill="#27235C"/>
<path d="M37.1279 144.759C37.2623 144.759 37.4135 144.77 37.5815 144.793C37.7607 144.804 37.9343 144.826 38.1022 144.86C38.2702 144.882 38.4214 144.91 38.5558 144.943C38.7014 144.966 38.8078 144.988 38.875 145.011L38.6062 146.368C38.483 146.324 38.2758 146.273 37.9846 146.218C37.7047 146.15 37.3407 146.117 36.8927 146.117C36.6015 146.117 36.3104 146.15 36.0192 146.218C35.7392 146.273 35.5544 146.313 35.4648 146.335V153.661H33.9025V145.312C34.2721 145.178 34.7313 145.055 35.28 144.943C35.8288 144.821 36.4447 144.759 37.1279 144.759Z" fill="#27235C"/>
<path d="M51.6957 142.043H53.3252V153.661H51.6957V148.296H46.0009V153.661H44.3714V142.043H46.0009V146.888H51.6957V142.043Z" fill="#27235C"/>
<path d="M63.8258 149.302C63.8258 149.995 63.725 150.621 63.5234 151.18C63.3218 151.738 63.0362 152.219 62.6667 152.621C62.3083 153.024 61.8771 153.337 61.3731 153.56C60.8692 153.772 60.3204 153.879 59.7268 153.879C59.1333 153.879 58.5845 153.772 58.0806 153.56C57.5766 153.337 57.1398 153.024 56.7702 152.621C56.4119 152.219 56.1319 151.738 55.9303 151.18C55.7287 150.621 55.6279 149.995 55.6279 149.302C55.6279 148.62 55.7287 148 55.9303 147.441C56.1319 146.871 56.4119 146.385 56.7702 145.983C57.1398 145.581 57.5766 145.273 58.0806 145.061C58.5845 144.837 59.1333 144.726 59.7268 144.726C60.3204 144.726 60.8692 144.837 61.3731 145.061C61.8771 145.273 62.3083 145.581 62.6667 145.983C63.0362 146.385 63.3218 146.871 63.5234 147.441C63.725 148 63.8258 148.62 63.8258 149.302ZM62.1963 149.302C62.1963 148.319 61.9723 147.542 61.5243 146.972C61.0876 146.391 60.4884 146.1 59.7268 146.1C58.9653 146.1 58.3605 146.391 57.9126 146.972C57.4758 147.542 57.2574 148.319 57.2574 149.302C57.2574 150.286 57.4758 151.068 57.9126 151.649C58.3605 152.219 58.9653 152.504 59.7268 152.504C60.4884 152.504 61.0876 152.219 61.5243 151.649C61.9723 151.068 62.1963 150.286 62.1963 149.302Z" fill="#27235C"/>
<path d="M68.0565 152.537C68.6948 152.537 69.1652 152.454 69.4676 152.286C69.7812 152.118 69.9379 151.85 69.9379 151.481C69.9379 151.101 69.7868 150.8 69.4844 150.576C69.182 150.353 68.6836 150.101 67.9893 149.822C67.6533 149.688 67.3285 149.554 67.0149 149.419C66.7126 149.274 66.4494 149.106 66.2254 148.916C66.0014 148.727 65.8222 148.497 65.6878 148.229C65.5534 147.961 65.4862 147.631 65.4862 147.24C65.4862 146.469 65.7718 145.86 66.343 145.413C66.9141 144.955 67.6925 144.726 68.678 144.726C68.9244 144.726 69.1708 144.742 69.4172 144.776C69.6636 144.798 69.8931 144.832 70.1059 144.876C70.3187 144.91 70.5035 144.949 70.6603 144.994C70.8283 145.038 70.9571 145.078 71.0467 145.111L70.7611 146.452C70.5931 146.363 70.3299 146.273 69.9715 146.184C69.6132 146.083 69.182 146.033 68.678 146.033C68.2413 146.033 67.8605 146.123 67.5357 146.301C67.2109 146.469 67.0485 146.737 67.0485 147.106C67.0485 147.296 67.0821 147.464 67.1493 147.609C67.2277 147.754 67.3397 147.888 67.4853 148.011C67.6421 148.123 67.8325 148.229 68.0565 148.33C68.2805 148.43 68.5492 148.537 68.8628 148.648C69.2772 148.805 69.6468 148.961 69.9715 149.118C70.2963 149.263 70.5707 149.436 70.7947 149.637C71.0299 149.838 71.2091 150.084 71.3322 150.375C71.4554 150.654 71.517 151.001 71.517 151.414C71.517 152.219 71.2147 152.828 70.6099 153.242C70.0163 153.655 69.1652 153.862 68.0565 153.862C67.2837 153.862 66.679 153.795 66.2422 153.661C65.8054 153.538 65.5086 153.443 65.3518 153.376L65.6374 152.035C65.8166 152.102 66.1022 152.202 66.4942 152.336C66.8862 152.47 67.4069 152.537 68.0565 152.537Z" fill="#27235C"/>
<path d="M74.9825 144.943H78.2918V146.251H74.9825V150.274C74.9825 150.71 75.0161 151.073 75.0833 151.364C75.1504 151.643 75.2512 151.867 75.3856 152.035C75.52 152.191 75.688 152.303 75.8896 152.37C76.0912 152.437 76.3264 152.47 76.5952 152.47C77.0655 152.47 77.4407 152.42 77.7207 152.32C78.0119 152.208 78.2134 152.13 78.3254 152.085L78.6278 153.376C78.471 153.454 78.1966 153.549 77.8047 153.661C77.4127 153.784 76.9647 153.845 76.4608 153.845C75.8672 153.845 75.3744 153.772 74.9825 153.627C74.6017 153.471 74.2937 153.242 74.0585 152.94C73.8233 152.638 73.6553 152.269 73.5546 151.833C73.465 151.386 73.4202 150.872 73.4202 150.291V142.513L74.9825 142.245V144.943Z" fill="#27235C"/>
<path d="M81.8422 153.661H80.2799V144.943H81.8422V153.661ZM81.0526 143.368C80.7727 143.368 80.5319 143.278 80.3303 143.099C80.1399 142.909 80.0447 142.658 80.0447 142.345C80.0447 142.032 80.1399 141.786 80.3303 141.608C80.5319 141.418 80.7727 141.323 81.0526 141.323C81.3326 141.323 81.5678 141.418 81.7582 141.608C81.9598 141.786 82.0606 142.032 82.0606 142.345C82.0606 142.658 81.9598 142.909 81.7582 143.099C81.5678 143.278 81.3326 143.368 81.0526 143.368Z" fill="#27235C"/>
<path d="M84.5288 145.195C84.8872 145.106 85.3632 145.011 85.9567 144.91C86.5503 144.809 87.2334 144.759 88.0062 144.759C88.7005 144.759 89.2773 144.86 89.7365 145.061C90.1956 145.251 90.5596 145.525 90.8284 145.882C91.1084 146.229 91.3044 146.648 91.4164 147.14C91.5283 147.631 91.5843 148.173 91.5843 148.766V153.661H90.022V149.101C90.022 148.564 89.9829 148.106 89.9045 147.726C89.8373 147.346 89.7197 147.039 89.5517 146.804C89.3837 146.57 89.1597 146.402 88.8797 146.301C88.5997 146.19 88.2526 146.134 87.8382 146.134C87.6702 146.134 87.4966 146.139 87.3174 146.15C87.1382 146.162 86.9647 146.178 86.7967 146.201C86.6399 146.212 86.4943 146.229 86.3599 146.251C86.2367 146.273 86.1471 146.29 86.0911 146.301V153.661H84.5288V145.195Z" fill="#27235C"/>
<path d="M99.6515 152.789C99.5171 152.878 99.2539 152.996 98.8619 153.141C98.4812 153.275 98.0332 153.342 97.518 153.342C96.9917 153.342 96.4933 153.258 96.0229 153.091C95.5638 152.923 95.1606 152.666 94.8134 152.32C94.4662 151.962 94.1918 151.52 93.9903 150.995C93.7887 150.47 93.6879 149.844 93.6879 149.118C93.6879 148.481 93.7831 147.899 93.9735 147.374C94.1638 146.838 94.4382 146.38 94.7966 146C95.1662 145.608 95.6141 145.307 96.1405 145.094C96.6669 144.871 97.2604 144.759 97.9212 144.759C98.6492 144.759 99.2819 144.815 99.8195 144.927C100.368 145.027 100.827 145.122 101.197 145.212V152.99C101.197 154.331 100.85 155.303 100.155 155.907C99.4611 156.51 98.4084 156.812 96.9973 156.812C96.4485 156.812 95.9277 156.768 95.435 156.678C94.9534 156.589 94.5334 156.483 94.175 156.36L94.4606 155.002C94.7742 155.125 95.155 155.231 95.603 155.32C96.0621 155.421 96.5381 155.471 97.0309 155.471C97.9604 155.471 98.6267 155.287 99.0299 154.918C99.4443 154.549 99.6515 153.962 99.6515 153.158V152.789ZM99.6347 146.318C99.4779 146.273 99.2651 146.234 98.9963 146.201C98.7387 146.156 98.386 146.134 97.938 146.134C97.098 146.134 96.4485 146.408 95.9893 146.955C95.5413 147.503 95.3174 148.229 95.3174 149.134C95.3174 149.637 95.379 150.068 95.5022 150.425C95.6365 150.783 95.8101 151.079 96.0229 151.314C96.2469 151.548 96.4989 151.722 96.7789 151.833C97.07 151.945 97.3668 152.001 97.6692 152.001C98.0836 152.001 98.4644 151.945 98.8115 151.833C99.1587 151.71 99.4331 151.571 99.6347 151.414V146.318Z" fill="#27235C"/>
<path d="M105.533 151.75C105.544 151.839 105.55 151.928 105.55 152.018C105.55 152.096 105.55 152.18 105.55 152.269C105.55 152.973 105.444 153.666 105.231 154.348C105.029 155.041 104.749 155.7 104.391 156.326L103.181 155.94C103.461 155.371 103.646 154.789 103.736 154.197C103.825 153.616 103.87 153.068 103.87 152.554C103.87 152.409 103.864 152.269 103.853 152.135C103.853 152.001 103.848 151.872 103.836 151.75H105.533Z" fill="#27235C"/>
<path d="M111.539 147.844C111.539 146.849 111.685 145.972 111.976 145.212C112.279 144.452 112.682 143.82 113.186 143.317C113.701 142.803 114.294 142.418 114.966 142.161C115.65 141.904 116.372 141.775 117.133 141.775C117.884 141.775 118.589 141.904 119.25 142.161C119.922 142.418 120.51 142.803 121.014 143.317C121.518 143.82 121.916 144.452 122.207 145.212C122.509 145.972 122.66 146.849 122.66 147.844C122.66 148.838 122.509 149.716 122.207 150.476C121.916 151.235 121.518 151.872 121.014 152.387C120.51 152.889 119.922 153.269 119.25 153.527C118.589 153.784 117.884 153.912 117.133 153.912C116.372 153.912 115.65 153.784 114.966 153.527C114.294 153.269 113.701 152.889 113.186 152.387C112.682 151.872 112.279 151.235 111.976 150.476C111.685 149.716 111.539 148.838 111.539 147.844ZM113.253 147.844C113.253 148.548 113.343 149.19 113.522 149.771C113.701 150.341 113.953 150.828 114.278 151.23C114.614 151.632 115.017 151.945 115.487 152.169C115.969 152.381 116.506 152.487 117.1 152.487C117.693 152.487 118.225 152.381 118.696 152.169C119.166 151.945 119.564 151.632 119.888 151.23C120.224 150.828 120.482 150.341 120.661 149.771C120.84 149.19 120.93 148.548 120.93 147.844C120.93 147.14 120.84 146.503 120.661 145.933C120.482 145.351 120.224 144.86 119.888 144.457C119.564 144.055 119.166 143.748 118.696 143.535C118.225 143.312 117.693 143.2 117.1 143.2C116.506 143.2 115.969 143.312 115.487 143.535C115.017 143.748 114.614 144.055 114.278 144.457C113.953 144.86 113.701 145.351 113.522 145.933C113.343 146.503 113.253 147.14 113.253 147.844Z" fill="#27235C"/>
<path d="M131.939 153.409C131.58 153.499 131.104 153.594 130.511 153.694C129.928 153.795 129.251 153.845 128.478 153.845C127.806 153.845 127.241 153.75 126.781 153.56C126.322 153.359 125.953 153.079 125.673 152.722C125.393 152.364 125.191 151.945 125.068 151.465C124.945 150.973 124.883 150.431 124.883 149.838V144.943H126.445V149.503C126.445 150.565 126.613 151.325 126.949 151.783C127.285 152.241 127.851 152.47 128.646 152.47C128.814 152.47 128.988 152.465 129.167 152.454C129.346 152.442 129.514 152.431 129.671 152.42C129.828 152.398 129.968 152.381 130.091 152.37C130.225 152.347 130.32 152.325 130.376 152.303V144.943H131.939V153.409Z" fill="#27235C"/>
<path d="M137.856 144.759C137.99 144.759 138.141 144.77 138.309 144.793C138.488 144.804 138.662 144.826 138.83 144.86C138.998 144.882 139.149 144.91 139.283 144.943C139.429 144.966 139.535 144.988 139.603 145.011L139.334 146.368C139.211 146.324 139.003 146.273 138.712 146.218C138.432 146.15 138.068 146.117 137.62 146.117C137.329 146.117 137.038 146.15 136.747 146.218C136.467 146.273 136.282 146.313 136.192 146.335V153.661H134.63V145.312C135 145.178 135.459 145.055 136.008 144.943C136.556 144.821 137.172 144.759 137.856 144.759Z" fill="#27235C"/>
<path d="M150.794 148.799C150.973 149.023 151.197 149.319 151.466 149.688C151.746 150.045 152.031 150.448 152.323 150.895C152.614 151.33 152.899 151.789 153.179 152.269C153.47 152.75 153.717 153.214 153.918 153.661H152.138C151.914 153.236 151.667 152.806 151.399 152.37C151.141 151.934 150.878 151.52 150.609 151.129C150.34 150.727 150.071 150.353 149.803 150.006C149.545 149.66 149.31 149.358 149.097 149.101C148.952 149.112 148.8 149.118 148.644 149.118C148.498 149.118 148.347 149.118 148.19 149.118H146.728V153.661H145.099V142.211C145.558 142.099 146.068 142.027 146.628 141.993C147.199 141.948 147.72 141.926 148.19 141.926C149.825 141.926 151.068 142.233 151.919 142.848C152.782 143.463 153.213 144.379 153.213 145.597C153.213 146.368 153.006 147.028 152.591 147.575C152.188 148.123 151.589 148.531 150.794 148.799ZM148.324 143.351C147.63 143.351 147.098 143.368 146.728 143.401V147.777H147.888C148.448 147.777 148.952 147.749 149.4 147.693C149.847 147.637 150.223 147.531 150.525 147.374C150.839 147.218 151.079 147 151.247 146.72C151.415 146.43 151.499 146.05 151.499 145.581C151.499 145.145 151.415 144.781 151.247 144.491C151.079 144.2 150.85 143.971 150.559 143.804C150.279 143.636 149.943 143.519 149.551 143.452C149.17 143.384 148.761 143.351 148.324 143.351Z" fill="#27235C"/>
<path d="M155.076 149.319C155.076 148.548 155.188 147.877 155.412 147.307C155.636 146.726 155.933 146.245 156.302 145.865C156.672 145.486 157.097 145.201 157.579 145.011C158.061 144.821 158.553 144.726 159.057 144.726C160.233 144.726 161.135 145.094 161.762 145.832C162.389 146.558 162.703 147.67 162.703 149.168C162.703 149.235 162.703 149.324 162.703 149.436C162.703 149.537 162.697 149.632 162.686 149.721H156.705C156.773 150.626 157.036 151.314 157.495 151.783C157.954 152.252 158.671 152.487 159.645 152.487C160.194 152.487 160.653 152.442 161.023 152.353C161.404 152.252 161.689 152.157 161.879 152.068L162.098 153.376C161.908 153.476 161.572 153.582 161.09 153.694C160.62 153.806 160.082 153.862 159.477 153.862C158.716 153.862 158.055 153.75 157.495 153.527C156.946 153.292 156.493 152.973 156.134 152.571C155.776 152.169 155.507 151.694 155.328 151.146C155.16 150.587 155.076 149.978 155.076 149.319ZM161.073 148.464C161.084 147.76 160.905 147.184 160.536 146.737C160.177 146.279 159.679 146.05 159.04 146.05C158.682 146.05 158.363 146.123 158.083 146.268C157.814 146.402 157.585 146.581 157.394 146.804C157.204 147.028 157.053 147.285 156.941 147.575C156.84 147.866 156.773 148.162 156.739 148.464H161.073Z" fill="#27235C"/>
<path d="M166.98 152.537C167.618 152.537 168.088 152.454 168.391 152.286C168.704 152.118 168.861 151.85 168.861 151.481C168.861 151.101 168.71 150.8 168.407 150.576C168.105 150.353 167.607 150.101 166.912 149.822C166.576 149.688 166.252 149.554 165.938 149.419C165.636 149.274 165.372 149.106 165.148 148.916C164.924 148.727 164.745 148.497 164.611 148.229C164.477 147.961 164.409 147.631 164.409 147.24C164.409 146.469 164.695 145.86 165.266 145.413C165.837 144.955 166.616 144.726 167.601 144.726C167.847 144.726 168.094 144.742 168.34 144.776C168.587 144.798 168.816 144.832 169.029 144.876C169.242 144.91 169.427 144.949 169.583 144.994C169.751 145.038 169.88 145.078 169.97 145.111L169.684 146.452C169.516 146.363 169.253 146.273 168.895 146.184C168.536 146.083 168.105 146.033 167.601 146.033C167.164 146.033 166.784 146.123 166.459 146.301C166.134 146.469 165.972 146.737 165.972 147.106C165.972 147.296 166.005 147.464 166.072 147.609C166.151 147.754 166.263 147.888 166.408 148.011C166.565 148.123 166.756 148.229 166.98 148.33C167.204 148.43 167.472 148.537 167.786 148.648C168.2 148.805 168.57 148.961 168.895 149.118C169.219 149.263 169.494 149.436 169.718 149.637C169.953 149.838 170.132 150.084 170.255 150.375C170.379 150.654 170.44 151.001 170.44 151.414C170.44 152.219 170.138 152.828 169.533 153.242C168.939 153.655 168.088 153.862 166.98 153.862C166.207 153.862 165.602 153.795 165.165 153.661C164.728 153.538 164.432 153.443 164.275 153.376L164.56 152.035C164.74 152.102 165.025 152.202 165.417 152.336C165.809 152.47 166.33 152.537 166.98 152.537Z" fill="#27235C"/>
<path d="M178.508 149.319C178.508 148.302 178.256 147.52 177.752 146.972C177.248 146.424 176.577 146.15 175.737 146.15C175.266 146.15 174.897 146.167 174.628 146.201C174.37 146.234 174.163 146.273 174.006 146.318V151.817C174.197 151.973 174.471 152.124 174.829 152.269C175.188 152.415 175.58 152.487 176.005 152.487C176.453 152.487 176.834 152.409 177.148 152.252C177.472 152.085 177.736 151.861 177.937 151.582C178.139 151.291 178.284 150.956 178.374 150.576C178.464 150.185 178.508 149.766 178.508 149.319ZM180.138 149.319C180.138 149.978 180.048 150.587 179.869 151.146C179.701 151.705 179.449 152.185 179.113 152.588C178.777 152.99 178.363 153.303 177.87 153.527C177.388 153.75 176.834 153.862 176.207 153.862C175.703 153.862 175.255 153.795 174.863 153.661C174.482 153.527 174.197 153.398 174.006 153.275V156.762H172.444V145.212C172.814 145.122 173.273 145.027 173.822 144.927C174.381 144.815 175.025 144.759 175.753 144.759C176.425 144.759 177.03 144.865 177.568 145.078C178.105 145.29 178.564 145.592 178.945 145.983C179.326 146.374 179.617 146.855 179.819 147.425C180.032 147.983 180.138 148.615 180.138 149.319Z" fill="#27235C"/>
<path d="M190.047 149.302C190.047 149.995 189.946 150.621 189.745 151.18C189.543 151.738 189.257 152.219 188.888 152.621C188.53 153.024 188.098 153.337 187.594 153.56C187.09 153.772 186.542 153.879 185.948 153.879C185.355 153.879 184.806 153.772 184.302 153.56C183.798 153.337 183.361 153.024 182.991 152.621C182.633 152.219 182.353 151.738 182.152 151.18C181.95 150.621 181.849 149.995 181.849 149.302C181.849 148.62 181.95 148 182.152 147.441C182.353 146.871 182.633 146.385 182.991 145.983C183.361 145.581 183.798 145.273 184.302 145.061C184.806 144.837 185.355 144.726 185.948 144.726C186.542 144.726 187.09 144.837 187.594 145.061C188.098 145.273 188.53 145.581 188.888 145.983C189.257 146.385 189.543 146.871 189.745 147.441C189.946 148 190.047 148.62 190.047 149.302ZM188.418 149.302C188.418 148.319 188.194 147.542 187.746 146.972C187.309 146.391 186.71 146.1 185.948 146.1C185.187 146.1 184.582 146.391 184.134 146.972C183.697 147.542 183.479 148.319 183.479 149.302C183.479 150.286 183.697 151.068 184.134 151.649C184.582 152.219 185.187 152.504 185.948 152.504C186.71 152.504 187.309 152.219 187.746 151.649C188.194 151.068 188.418 150.286 188.418 149.302Z" fill="#27235C"/>
<path d="M192.245 145.195C192.603 145.106 193.079 145.011 193.673 144.91C194.266 144.809 194.95 144.759 195.722 144.759C196.417 144.759 196.994 144.86 197.453 145.061C197.912 145.251 198.276 145.525 198.545 145.882C198.825 146.229 199.021 146.648 199.133 147.14C199.245 147.631 199.301 148.173 199.301 148.766V153.661H197.738V149.101C197.738 148.564 197.699 148.106 197.621 147.726C197.553 147.346 197.436 147.039 197.268 146.804C197.1 146.57 196.876 146.402 196.596 146.301C196.316 146.19 195.969 146.134 195.554 146.134C195.386 146.134 195.213 146.139 195.034 146.15C194.854 146.162 194.681 146.178 194.513 146.201C194.356 146.212 194.211 146.229 194.076 146.251C193.953 146.273 193.863 146.29 193.807 146.301V153.661H192.245V145.195Z" fill="#27235C"/>
<path d="M203.924 152.537C204.562 152.537 205.033 152.454 205.335 152.286C205.649 152.118 205.805 151.85 205.805 151.481C205.805 151.101 205.654 150.8 205.352 150.576C205.049 150.353 204.551 150.101 203.857 149.822C203.521 149.688 203.196 149.554 202.882 149.419C202.58 149.274 202.317 149.106 202.093 148.916C201.869 148.727 201.69 148.497 201.555 148.229C201.421 147.961 201.354 147.631 201.354 147.24C201.354 146.469 201.639 145.86 202.21 145.413C202.782 144.955 203.56 144.726 204.545 144.726C204.792 144.726 205.038 144.742 205.285 144.776C205.531 144.798 205.761 144.832 205.973 144.876C206.186 144.91 206.371 144.949 206.528 144.994C206.696 145.038 206.825 145.078 206.914 145.111L206.629 146.452C206.461 146.363 206.197 146.273 205.839 146.184C205.481 146.083 205.049 146.033 204.545 146.033C204.109 146.033 203.728 146.123 203.403 146.301C203.078 146.469 202.916 146.737 202.916 147.106C202.916 147.296 202.95 147.464 203.017 147.609C203.095 147.754 203.207 147.888 203.353 148.011C203.51 148.123 203.7 148.229 203.924 148.33C204.148 148.43 204.417 148.537 204.73 148.648C205.145 148.805 205.514 148.961 205.839 149.118C206.164 149.263 206.438 149.436 206.662 149.637C206.897 149.838 207.077 150.084 207.2 150.375C207.323 150.654 207.385 151.001 207.385 151.414C207.385 152.219 207.082 152.828 206.477 153.242C205.884 153.655 205.033 153.862 203.924 153.862C203.151 153.862 202.546 153.795 202.11 153.661C201.673 153.538 201.376 153.443 201.219 153.376L201.505 152.035C201.684 152.102 201.97 152.202 202.362 152.336C202.754 152.47 203.274 152.537 203.924 152.537Z" fill="#27235C"/>
<path d="M210.951 153.661H209.388V144.943H210.951V153.661ZM210.161 143.368C209.881 143.368 209.64 143.278 209.439 143.099C209.248 142.909 209.153 142.658 209.153 142.345C209.153 142.032 209.248 141.786 209.439 141.608C209.64 141.418 209.881 141.323 210.161 141.323C210.441 141.323 210.676 141.418 210.867 141.608C211.068 141.786 211.169 142.032 211.169 142.345C211.169 142.658 211.068 142.909 210.867 143.099C210.676 143.278 210.441 143.368 210.161 143.368Z" fill="#27235C"/>
<path d="M215.2 145.329C215.39 145.206 215.676 145.078 216.056 144.943C216.448 144.809 216.896 144.742 217.4 144.742C218.027 144.742 218.582 144.854 219.063 145.078C219.556 145.301 219.971 145.614 220.307 146.016C220.642 146.419 220.894 146.899 221.062 147.458C221.242 148.017 221.331 148.632 221.331 149.302C221.331 150.006 221.225 150.643 221.012 151.213C220.81 151.772 220.519 152.247 220.139 152.638C219.758 153.029 219.299 153.331 218.761 153.543C218.223 153.756 217.619 153.862 216.947 153.862C216.219 153.862 215.575 153.812 215.015 153.711C214.455 153.61 213.996 153.51 213.637 153.409V140.92L215.2 140.652V145.329ZM215.2 152.303C215.356 152.347 215.575 152.392 215.855 152.437C216.146 152.47 216.504 152.487 216.93 152.487C217.77 152.487 218.442 152.213 218.946 151.666C219.45 151.107 219.702 150.319 219.702 149.302C219.702 148.855 219.657 148.436 219.567 148.045C219.478 147.654 219.332 147.318 219.131 147.039C218.929 146.748 218.666 146.525 218.341 146.368C218.027 146.201 217.647 146.117 217.199 146.117C216.773 146.117 216.381 146.19 216.023 146.335C215.664 146.48 215.39 146.631 215.2 146.787V152.303Z" fill="#27235C"/>
<path d="M225.092 153.661H223.53V144.943H225.092V153.661ZM224.302 143.368C224.022 143.368 223.782 143.278 223.58 143.099C223.39 142.909 223.294 142.658 223.294 142.345C223.294 142.032 223.39 141.786 223.58 141.608C223.782 141.418 224.022 141.323 224.302 141.323C224.582 141.323 224.818 141.418 225.008 141.608C225.21 141.786 225.31 142.032 225.31 142.345C225.31 142.658 225.21 142.909 225.008 143.099C224.818 143.278 224.582 143.368 224.302 143.368Z" fill="#27235C"/>
<path d="M230.399 153.828C229.436 153.806 228.753 153.599 228.35 153.208C227.947 152.817 227.745 152.208 227.745 151.381V140.92L229.307 140.652V151.129C229.307 151.386 229.33 151.599 229.374 151.766C229.419 151.934 229.492 152.068 229.593 152.169C229.694 152.269 229.828 152.347 229.996 152.403C230.164 152.448 230.371 152.487 230.618 152.521L230.399 153.828Z" fill="#27235C"/>
<path d="M233.934 153.661H232.372V144.943H233.934V153.661ZM233.145 143.368C232.865 143.368 232.624 143.278 232.422 143.099C232.232 142.909 232.137 142.658 232.137 142.345C232.137 142.032 232.232 141.786 232.422 141.608C232.624 141.418 232.865 141.323 233.145 141.323C233.425 141.323 233.66 141.418 233.85 141.608C234.052 141.786 234.153 142.032 234.153 142.345C234.153 142.658 234.052 142.909 233.85 143.099C233.66 143.278 233.425 143.368 233.145 143.368Z" fill="#27235C"/>
<path d="M238.082 144.943H241.392V146.251H238.082V150.274C238.082 150.71 238.116 151.073 238.183 151.364C238.25 151.643 238.351 151.867 238.486 152.035C238.62 152.191 238.788 152.303 238.99 152.37C239.191 152.437 239.426 152.47 239.695 152.47C240.166 152.47 240.541 152.42 240.821 152.32C241.112 152.208 241.313 152.13 241.425 152.085L241.728 153.376C241.571 153.454 241.297 153.549 240.905 153.661C240.513 153.784 240.065 153.845 239.561 153.845C238.967 153.845 238.474 153.772 238.082 153.627C237.702 153.471 237.394 153.242 237.159 152.94C236.923 152.638 236.755 152.269 236.655 151.833C236.565 151.386 236.52 150.872 236.52 150.291V142.513L238.082 142.245V144.943Z" fill="#27235C"/>
<path d="M242.355 155.287C242.478 155.343 242.635 155.393 242.826 155.438C243.027 155.493 243.223 155.521 243.414 155.521C244.029 155.521 244.511 155.382 244.858 155.102C245.205 154.834 245.519 154.393 245.799 153.778C245.093 152.437 244.433 151.018 243.817 149.52C243.212 148.011 242.708 146.486 242.305 144.943H243.985C244.108 145.446 244.253 145.988 244.421 146.57C244.601 147.151 244.797 147.749 245.009 148.363C245.222 148.978 245.452 149.593 245.698 150.207C245.945 150.822 246.202 151.414 246.471 151.984C246.896 150.811 247.266 149.649 247.58 148.497C247.893 147.346 248.19 146.162 248.47 144.943H250.083C249.679 146.586 249.232 148.168 248.739 149.688C248.246 151.196 247.714 152.61 247.143 153.929C246.919 154.432 246.684 154.862 246.437 155.22C246.202 155.588 245.939 155.89 245.648 156.125C245.357 156.36 245.026 156.533 244.657 156.645C244.298 156.756 243.889 156.812 243.43 156.812C243.307 156.812 243.178 156.801 243.044 156.779C242.91 156.768 242.775 156.745 242.641 156.712C242.518 156.689 242.4 156.661 242.288 156.628C242.187 156.594 242.114 156.566 242.07 156.544L242.355 155.287Z" fill="#27235C"/>
<path d="M253.12 152.755C253.12 153.057 253.019 153.32 252.818 153.543C252.616 153.767 252.342 153.879 251.994 153.879C251.647 153.879 251.373 153.767 251.171 153.543C250.97 153.32 250.869 153.057 250.869 152.755C250.869 152.454 250.97 152.191 251.171 151.967C251.373 151.744 251.647 151.632 251.994 151.632C252.342 151.632 252.616 151.744 252.818 151.967C253.019 152.191 253.12 152.454 253.12 152.755Z" fill="#27235C"/>
<path d="M239.561 129.271C237.64 129.271 235.916 128.899 234.387 128.154C232.898 127.37 231.624 126.312 230.565 124.979C229.546 123.646 228.762 122.118 228.214 120.393C227.704 118.629 227.449 116.748 227.449 114.749C227.489 112.75 227.783 110.888 228.331 109.163C228.88 107.399 229.664 105.871 230.683 104.577C231.741 103.244 233.015 102.206 234.505 101.461C235.994 100.716 237.68 100.344 239.561 100.344C241.364 100.344 243.05 100.716 244.617 101.461C246.225 102.206 247.636 103.244 248.851 104.577C250.105 105.871 251.085 107.399 251.79 109.163C252.496 110.888 252.849 112.73 252.849 114.69C252.849 116.728 252.496 118.649 251.79 120.452C251.085 122.216 250.125 123.764 248.91 125.097C247.694 126.39 246.283 127.409 244.676 128.154C243.069 128.899 241.364 129.271 239.561 129.271ZM238.62 122.392C239.992 122.392 241.227 122.078 242.324 121.451C243.422 120.785 244.284 119.883 244.911 118.747C245.578 117.61 245.911 116.317 245.911 114.866C245.911 113.377 245.578 112.064 244.911 110.927C244.284 109.751 243.422 108.85 242.324 108.222C241.227 107.556 239.992 107.223 238.62 107.223C237.288 107.223 236.073 107.556 234.975 108.222C233.878 108.889 232.996 109.79 232.329 110.927C231.702 112.064 231.389 113.377 231.389 114.866C231.389 116.317 231.702 117.61 232.329 118.747C232.996 119.883 233.878 120.785 234.975 121.451C236.073 122.078 237.288 122.392 238.62 122.392ZM227.743 129.33C226.685 129.33 225.901 129.153 225.392 128.801C224.882 128.487 224.568 128.076 224.451 127.566C224.333 127.017 224.274 126.41 224.274 125.743V90.7016C224.274 90.0352 224.333 89.4473 224.451 88.9377C224.568 88.389 224.882 87.9578 225.392 87.6442C225.901 87.3307 226.685 87.1739 227.743 87.1739C228.841 87.1739 229.625 87.3307 230.095 87.6442C230.565 87.9578 230.859 88.389 230.977 88.9377C231.095 89.4865 231.153 90.0744 231.153 90.7016V126.919C230.997 127.782 230.663 128.389 230.154 128.742C229.684 129.134 228.88 129.33 227.743 129.33Z" fill="#27235C" stroke="#27235C" stroke-width="0.2"/>
<path d="M206.751 129.683C204.203 129.683 201.969 129.272 200.048 128.449C198.167 127.626 196.579 126.509 195.286 125.097C194.031 123.647 193.071 122.04 192.405 120.276C191.777 118.473 191.464 116.611 191.464 114.691C191.464 111.869 192.111 109.36 193.404 107.165C194.698 104.97 196.481 103.245 198.754 101.991C201.067 100.737 203.713 100.11 206.692 100.11C208.808 100.11 210.67 100.443 212.277 101.109C213.884 101.775 215.217 102.657 216.275 103.755C217.373 104.813 218.196 105.989 218.745 107.283C219.333 108.576 219.627 109.83 219.627 111.045C219.627 113.123 219.117 114.632 218.098 115.573C217.118 116.513 215.883 116.984 214.394 116.984H198.872C198.911 118.316 199.323 119.473 200.107 120.453C200.93 121.433 201.949 122.197 203.164 122.746C204.418 123.255 205.692 123.51 206.986 123.51C207.966 123.51 208.828 123.451 209.573 123.334C210.357 123.216 211.023 123.079 211.572 122.922C212.121 122.726 212.591 122.53 212.983 122.334C213.414 122.138 213.806 121.962 214.159 121.805C214.512 121.648 214.845 121.55 215.158 121.511C215.589 121.472 216.021 121.57 216.452 121.805C216.883 122.04 217.236 122.452 217.51 123.04C217.745 123.432 217.902 123.804 217.98 124.157C218.098 124.47 218.157 124.784 218.157 125.097C218.157 125.881 217.686 126.626 216.746 127.332C215.805 127.998 214.472 128.547 212.748 128.978C211.062 129.448 209.063 129.683 206.751 129.683ZM198.872 112.809H210.925C211.591 112.809 212.101 112.711 212.454 112.515C212.806 112.28 212.983 111.81 212.983 111.104C212.983 110.203 212.708 109.399 212.16 108.694C211.611 107.949 210.866 107.381 209.926 106.989C208.985 106.557 207.887 106.342 206.633 106.342C205.183 106.342 203.87 106.636 202.694 107.224C201.518 107.773 200.577 108.537 199.872 109.517C199.205 110.497 198.872 111.594 198.872 112.809Z" fill="#27235C" stroke="#27235C" stroke-width="0.2"/>
<path d="M154.149 129.156C153.365 129.156 152.738 129.019 152.267 128.744C151.797 128.431 151.444 128.078 151.209 127.686C151.013 127.294 150.876 126.961 150.797 126.686L139.274 92.938C138.882 91.6837 138.823 90.743 139.097 90.1159C139.372 89.4495 140.175 88.9008 141.508 88.4696C142.409 88.156 143.134 88.0188 143.683 88.058C144.232 88.0972 144.683 88.3324 145.036 88.7636C145.427 89.1556 145.761 89.7827 146.035 90.645L154.501 116.28L162.086 90.8802C162.204 90.4882 162.36 90.0963 162.556 89.7043C162.792 89.2731 163.144 88.9204 163.615 88.646C164.085 88.3716 164.732 88.2344 165.555 88.2344C166.496 88.2344 167.201 88.3912 167.672 88.7048C168.142 89.0184 168.475 89.3711 168.671 89.7631C168.906 90.1159 169.063 90.449 169.141 90.7626L176.726 116.456L185.251 90.7038C185.526 89.8023 185.839 89.136 186.192 88.7048C186.584 88.2736 187.074 88.0384 187.662 87.9993C188.25 87.9209 188.975 88.0384 189.837 88.352C190.739 88.6656 191.386 89.0184 191.778 89.4103C192.17 89.7631 192.365 90.2335 192.365 90.8214C192.365 91.3702 192.228 92.0757 191.954 92.938L180.489 126.745C180.411 126.98 180.254 127.294 180.019 127.686C179.823 128.078 179.489 128.431 179.019 128.744C178.549 129.019 177.902 129.156 177.079 129.156C176.256 129.156 175.609 128.979 175.139 128.627C174.668 128.274 174.315 127.882 174.08 127.451C173.845 127.02 173.688 126.706 173.61 126.51L165.614 100.64L157.618 126.451C157.539 126.726 157.382 127.078 157.147 127.509C156.951 127.941 156.618 128.333 156.148 128.685C155.677 128.999 155.011 129.156 154.149 129.156Z" fill="#27235C" stroke="#27235C" stroke-width="0.2"/>
<path d="M123.577 129.684C122.558 129.684 121.48 129.566 120.343 129.331C119.206 129.135 118.109 128.841 117.051 128.449C115.992 128.018 115.071 127.528 114.287 126.979C113.542 126.391 113.072 125.745 112.876 125.039C112.719 124.647 112.661 124.275 112.7 123.922C112.739 123.53 112.857 123.138 113.053 122.746C113.249 122.315 113.542 121.884 113.934 121.453C114.287 121.022 114.64 120.786 114.993 120.747C115.385 120.669 115.875 120.786 116.463 121.1C116.972 121.296 117.521 121.551 118.109 121.864C118.736 122.178 119.363 122.491 119.99 122.805C120.657 123.119 121.323 123.373 121.989 123.569C122.695 123.765 123.381 123.863 124.047 123.863C125.497 123.863 126.654 123.628 127.516 123.158C128.378 122.648 128.81 121.943 128.81 121.041C128.81 120.532 128.672 120.081 128.398 119.689C128.124 119.297 127.751 118.983 127.281 118.748C126.85 118.474 126.321 118.239 125.693 118.043C125.105 117.807 124.459 117.611 123.753 117.455C123.087 117.259 122.381 117.043 121.637 116.808C120.657 116.533 119.677 116.2 118.697 115.808C117.717 115.416 116.835 114.907 116.051 114.28C115.306 113.653 114.699 112.869 114.228 111.928C113.758 110.987 113.523 109.811 113.523 108.4C113.523 106.636 113.934 105.147 114.758 103.932C115.62 102.677 116.855 101.717 118.462 101.051C120.069 100.384 122.009 100.051 124.282 100.051C125.066 100.051 125.811 100.11 126.517 100.228C127.261 100.345 127.967 100.522 128.633 100.757C129.339 100.953 130.005 101.208 130.632 101.521C131.299 101.835 131.926 102.188 132.514 102.579C133.494 103.128 134.003 103.775 134.042 104.52C134.082 105.225 133.807 105.99 133.219 106.813C132.788 107.361 132.357 107.753 131.926 107.989C131.495 108.185 131.044 108.185 130.573 107.989C129.946 107.675 129.26 107.342 128.516 106.989C127.81 106.597 127.065 106.264 126.281 105.99C125.537 105.715 124.753 105.578 123.93 105.578C123.146 105.578 122.44 105.696 121.813 105.931C121.186 106.166 120.715 106.499 120.402 106.93C120.088 107.361 119.932 107.871 119.932 108.459C119.932 109.008 120.088 109.458 120.402 109.811C120.715 110.164 121.127 110.458 121.637 110.693C122.146 110.928 122.754 111.144 123.459 111.34C124.165 111.497 124.91 111.654 125.693 111.81C126.791 112.045 127.908 112.339 129.045 112.692C130.181 113.045 131.22 113.535 132.161 114.162C133.141 114.789 133.925 115.632 134.513 116.69C135.101 117.709 135.395 119.042 135.395 120.688C135.395 123.55 134.336 125.764 132.22 127.332C130.142 128.9 127.261 129.684 123.577 129.684Z" fill="#27235C" stroke="#27235C" stroke-width="0.2"/>
<path d="M95.8219 129.683C93.2741 129.683 91.0399 129.272 89.1192 128.448C87.2378 127.625 85.6503 126.508 84.3568 125.097C83.1025 123.647 82.1422 122.04 81.4759 120.276C80.8487 118.473 80.5352 116.611 80.5352 114.69C80.5352 111.868 81.1819 109.36 82.4754 107.165C83.7689 104.97 85.5523 103.245 87.8257 101.991C90.1383 100.736 92.7841 100.109 95.7631 100.109C97.8797 100.109 99.7415 100.442 101.349 101.109C102.956 101.775 104.288 102.657 105.347 103.755C106.444 104.813 107.267 105.989 107.816 107.282C108.404 108.576 108.698 109.83 108.698 111.045C108.698 113.123 108.188 114.632 107.169 115.572C106.189 116.513 104.955 116.983 103.465 116.983H87.9433C87.9825 118.316 88.3941 119.472 89.178 120.452C90.0012 121.432 91.0203 122.197 92.2354 122.745C93.4897 123.255 94.7636 123.51 96.057 123.51C97.037 123.51 97.8993 123.451 98.644 123.333C99.428 123.216 100.094 123.078 100.643 122.922C101.192 122.726 101.662 122.53 102.054 122.334C102.485 122.138 102.877 121.961 103.23 121.805C103.583 121.648 103.916 121.55 104.23 121.511C104.661 121.471 105.092 121.569 105.523 121.805C105.954 122.04 106.307 122.451 106.581 123.039C106.817 123.431 106.973 123.804 107.052 124.156C107.169 124.47 107.228 124.784 107.228 125.097C107.228 125.881 106.758 126.626 105.817 127.331C104.876 127.998 103.544 128.546 101.819 128.978C100.133 129.448 98.1345 129.683 95.8219 129.683ZM87.9433 112.809H99.9963C100.663 112.809 101.172 112.711 101.525 112.515C101.878 112.28 102.054 111.809 102.054 111.104C102.054 110.202 101.78 109.399 101.231 108.693C100.682 107.949 99.9375 107.38 98.9968 106.988C98.0561 106.557 96.9586 106.341 95.7043 106.341C94.254 106.341 92.9409 106.635 91.765 107.223C90.5891 107.772 89.6484 108.537 88.9428 109.516C88.2765 110.496 87.9433 111.594 87.9433 112.809Z" fill="#27235C" stroke="#27235C" stroke-width="0.2"/>
<path d="M74.8319 129.332C73.3816 129.332 72.0881 129.234 70.9514 129.038C69.8539 128.842 68.8936 128.509 68.0705 128.039C67.2865 127.569 66.6398 126.941 66.1302 126.157C65.6207 125.334 65.2287 124.335 64.9543 123.159C64.7191 121.983 64.6016 120.572 64.6016 118.926V90.5865C64.6016 89.9201 64.6604 89.3322 64.7779 88.8226C64.9347 88.2739 65.2483 87.8427 65.7187 87.5292C66.2282 87.1764 67.0318 87 68.1293 87C69.2268 87 70.0107 87.1568 70.4811 87.4704C70.9906 87.7839 71.3042 88.2151 71.4218 88.7638C71.5786 89.2734 71.657 89.8614 71.657 90.5277V118.632C71.657 119.376 71.6962 120.004 71.7745 120.513C71.8921 120.984 72.0685 121.375 72.3037 121.689C72.5781 121.963 72.9113 122.159 73.3032 122.277C73.7344 122.395 74.2439 122.453 74.8319 122.453C75.3415 122.453 75.7922 122.512 76.1842 122.63C76.6153 122.747 76.9485 123.041 77.1837 123.512C77.4581 123.982 77.5953 124.746 77.5953 125.805C77.5953 126.902 77.4581 127.706 77.1837 128.215C76.9485 128.725 76.6153 129.038 76.1842 129.156C75.753 129.274 75.3023 129.332 74.8319 129.332Z" fill="#27235C" stroke="#27235C" stroke-width="0.2"/>
<path d="M54.7583 129.332C53.7 129.332 52.916 129.155 52.4065 128.802C51.8969 128.489 51.5834 128.077 51.4658 127.568C51.3482 127.019 51.2894 126.411 51.2894 125.745V103.873C51.2894 103.246 51.3482 102.678 51.4658 102.168C51.6225 101.62 51.9361 101.188 52.4065 100.875C52.916 100.561 53.7196 100.404 54.8171 100.404C55.9146 100.404 56.6985 100.561 57.1689 100.875C57.6784 101.188 57.992 101.62 58.1096 102.168C58.2272 102.717 58.286 103.325 58.286 103.991V125.804C58.286 126.47 58.2272 127.078 58.1096 127.627C57.992 128.136 57.6784 128.548 57.1689 128.861C56.6985 129.175 55.895 129.332 54.7583 129.332ZM54.7583 94.7013C53.6216 94.7013 52.7789 94.5446 52.2301 94.231C51.7205 93.8782 51.3874 93.4079 51.2306 92.8199C51.113 92.232 51.0542 91.5852 51.0542 90.8797C51.0542 90.1349 51.113 89.4882 51.2306 88.9394C51.3874 88.3907 51.7401 87.9595 52.2889 87.6459C52.8376 87.2932 53.6804 87.1168 54.8171 87.1168C55.993 87.1168 56.8357 87.2932 57.3453 87.6459C57.8548 87.9987 58.188 88.4691 58.3448 89.057C58.5016 89.6058 58.58 90.2525 58.58 90.9973C58.58 91.6636 58.5016 92.2908 58.3448 92.8787C58.188 93.4667 57.8548 93.9174 57.3453 94.231C56.8357 94.5446 55.9734 94.7013 54.7583 94.7013Z" fill="#27235C" stroke="#27235C" stroke-width="0.2"/>
<path d="M6.46891 129.272C5.44979 129.272 4.68546 129.115 4.1759 128.802C3.66634 128.488 3.33317 128.057 3.17639 127.508C3.0588 126.96 3 126.352 3 125.686V91.7611C3 91.1339 3.0588 90.5656 3.17639 90.056C3.33317 89.5073 3.66634 89.0761 4.1759 88.7625C4.68546 88.4098 5.48899 88.2334 6.5865 88.2334C7.40963 88.2334 8.01717 88.2922 8.40914 88.4098C8.8403 88.4881 9.17348 88.6253 9.40866 88.8213C9.64384 88.9781 9.87902 89.1937 10.1142 89.4681L24.4602 109.517H23.1079L37.5127 89.4093C37.7871 89.0957 38.0614 88.8605 38.3358 88.7037C38.6102 88.5469 38.963 88.4293 39.3941 88.351C39.8253 88.2726 40.3936 88.2334 41.0992 88.2334C42.1575 88.2334 42.9414 88.4098 43.451 88.7625C43.9605 89.0761 44.2741 89.5073 44.3917 90.056C44.5485 90.6048 44.6269 91.2123 44.6269 91.8787V125.803C44.6269 126.391 44.5485 126.96 44.3917 127.508C44.2741 128.057 43.9605 128.488 43.451 128.802C42.9414 129.115 42.1379 129.272 41.0404 129.272C39.9821 129.272 39.1981 129.096 38.6886 128.743C38.179 128.43 37.8458 127.998 37.6891 127.45C37.5715 126.901 37.5127 126.313 37.5127 125.686V100.463L26.812 115.926C26.6944 116.083 26.518 116.298 26.2828 116.573C26.0476 116.808 25.7341 117.023 25.3421 117.219C24.9501 117.415 24.421 117.513 23.7546 117.513C23.1275 117.513 22.6179 117.415 22.226 117.219C21.834 117.023 21.5204 116.808 21.2853 116.573C21.0893 116.337 20.8933 116.102 20.6973 115.867L10.0554 100.463V125.803C10.0554 126.391 9.97701 126.96 9.82022 127.508C9.70263 128.057 9.38906 128.488 8.8795 128.802C8.36995 129.115 7.56641 129.272 6.46891 129.272Z" fill="#27235C" stroke="#27235C" stroke-width="0.2"/>
</svg>
