<svg width="190" height="75" viewBox="0 0 190 75" fill="none" xmlns="http://www.w3.org/2000/svg">
<path d="M86.6567 67.4425C86.6567 66.6477 87.301 66.0034 88.0958 66.0034H187.394C188.189 66.0034 188.833 66.6477 188.833 67.4425V67.4425C188.833 68.2373 188.189 68.8816 187.394 68.8816H88.0958C87.3011 68.8816 86.6567 68.2373 86.6567 67.4425V67.4425Z" fill="#FFBB00"/>
<path d="M5.73821 56.8303V53.3466C5.16057 52.4527 4.61641 51.5713 4.10574 50.7025C3.59506 49.8337 3.11369 48.9815 2.66162 48.1461H4.09318C4.4113 48.8312 4.7671 49.5287 5.16057 50.2388C5.55404 50.9406 5.96006 51.6173 6.37865 52.2689C6.78886 51.6173 7.1907 50.9406 7.58417 50.2388C7.97764 49.5287 8.33762 48.8312 8.66411 48.1461H10.0203C9.56825 48.9815 9.08688 49.8337 8.57621 50.7025C8.06554 51.563 7.52557 52.436 6.95629 53.3215V56.8303H5.73821Z" fill="#27235C"/>
<path d="M16.2467 53.5721C16.2467 54.0901 16.1714 54.5579 16.0207 54.9756C15.87 55.3934 15.6565 55.7526 15.3802 56.0533C15.1123 56.3541 14.79 56.588 14.4133 56.7551C14.0366 56.9138 13.6264 56.9932 13.1827 56.9932C12.739 56.9932 12.3287 56.9138 11.952 56.7551C11.5753 56.588 11.2488 56.3541 10.9725 56.0533C10.7046 55.7526 10.4954 55.3934 10.3447 54.9756C10.194 54.5579 10.1186 54.0901 10.1186 53.5721C10.1186 53.0625 10.194 52.5989 10.3447 52.1812C10.4954 51.7551 10.7046 51.3917 10.9725 51.091C11.2488 50.7902 11.5753 50.5605 11.952 50.4017C12.3287 50.2347 12.739 50.1511 13.1827 50.1511C13.6264 50.1511 14.0366 50.2347 14.4133 50.4017C14.79 50.5605 15.1123 50.7902 15.3802 51.091C15.6565 51.3917 15.87 51.7551 16.0207 52.1812C16.1714 52.5989 16.2467 53.0625 16.2467 53.5721ZM15.0286 53.5721C15.0286 52.837 14.8612 52.2564 14.5263 51.8303C14.1998 51.3959 13.7519 51.1787 13.1827 51.1787C12.6134 51.1787 12.1613 51.3959 11.8264 51.8303C11.5 52.2564 11.3367 52.837 11.3367 53.5721C11.3367 54.3073 11.5 54.8921 11.8264 55.3265C12.1613 55.7526 12.6134 55.9656 13.1827 55.9656C13.7519 55.9656 14.1998 55.7526 14.5263 55.3265C14.8612 54.8921 15.0286 54.3073 15.0286 53.5721Z" fill="#27235C"/>
<path d="M23.0886 56.6423C22.8207 56.7091 22.4649 56.7801 22.0212 56.8553C21.5859 56.9305 21.0794 56.9681 20.5017 56.9681C19.9994 56.9681 19.5767 56.8971 19.2334 56.7551C18.8902 56.6047 18.6139 56.3959 18.4046 56.1285C18.1953 55.8612 18.0446 55.5479 17.9526 55.1887C17.8605 54.8211 17.8144 54.4159 17.8144 53.9731V50.314H18.9823V53.7225C18.9823 54.5162 19.1078 55.0842 19.359 55.4268C19.6101 55.7693 20.0329 55.9406 20.6273 55.9406C20.7529 55.9406 20.8826 55.9364 21.0166 55.928C21.1505 55.9197 21.2761 55.9113 21.3933 55.903C21.5105 55.8862 21.6152 55.8737 21.7073 55.8654C21.8077 55.8487 21.8789 55.8319 21.9207 55.8152V50.314H23.0886V56.6423Z" fill="#27235C"/>
<path d="M27.5116 50.1762C27.612 50.1762 27.725 50.1845 27.8506 50.2012C27.9846 50.2096 28.1143 50.2263 28.2399 50.2514C28.3655 50.2681 28.4785 50.289 28.579 50.314C28.6878 50.3307 28.7673 50.3474 28.8176 50.3641L28.6166 51.3792C28.5245 51.3458 28.3697 51.3082 28.152 51.2664C27.9427 51.2163 27.6706 51.1912 27.3358 51.1912C27.1181 51.1912 26.9004 51.2163 26.6828 51.2664C26.4735 51.3082 26.3353 51.3374 26.2684 51.3541V56.8303H25.1005V50.5897C25.3768 50.4895 25.72 50.3976 26.1302 50.314C26.5405 50.2221 27.0009 50.1762 27.5116 50.1762Z" fill="#27235C"/>
<path d="M38.4013 48.1461H39.6194V56.8303H38.4013V52.8203H34.1443V56.8303H32.9262V48.1461H34.1443V51.7676H38.4013V48.1461Z" fill="#27235C"/>
<path d="M47.4688 53.5721C47.4688 54.0901 47.3935 54.5579 47.2428 54.9756C47.0921 55.3934 46.8786 55.7526 46.6023 56.0533C46.3344 56.3541 46.0121 56.588 45.6354 56.7551C45.2587 56.9138 44.8485 56.9932 44.4048 56.9932C43.9611 56.9932 43.5509 56.9138 43.1741 56.7551C42.7974 56.588 42.4709 56.3541 42.1946 56.0533C41.9267 55.7526 41.7175 55.3934 41.5668 54.9756C41.4161 54.5579 41.3407 54.0901 41.3407 53.5721C41.3407 53.0625 41.4161 52.5989 41.5668 52.1812C41.7175 51.7551 41.9267 51.3917 42.1946 51.091C42.4709 50.7902 42.7974 50.5605 43.1741 50.4017C43.5509 50.2347 43.9611 50.1511 44.4048 50.1511C44.8485 50.1511 45.2587 50.2347 45.6354 50.4017C46.0121 50.5605 46.3344 50.7902 46.6023 51.091C46.8786 51.3917 47.0921 51.7551 47.2428 52.1812C47.3935 52.5989 47.4688 53.0625 47.4688 53.5721ZM46.2507 53.5721C46.2507 52.837 46.0833 52.2564 45.7484 51.8303C45.4219 51.3959 44.974 51.1787 44.4048 51.1787C43.8355 51.1787 43.3834 51.3959 43.0486 51.8303C42.7221 52.2564 42.5588 52.837 42.5588 53.5721C42.5588 54.3073 42.7221 54.8921 43.0486 55.3265C43.3834 55.7526 43.8355 55.9656 44.4048 55.9656C44.974 55.9656 45.4219 55.7526 45.7484 55.3265C46.0833 54.8921 46.2507 54.3073 46.2507 53.5721Z" fill="#27235C"/>
<path d="M50.6313 55.9907C51.1085 55.9907 51.4601 55.928 51.6862 55.8027C51.9206 55.6774 52.0378 55.4769 52.0378 55.2012C52.0378 54.9172 51.9248 54.6916 51.6987 54.5245C51.4727 54.3574 51.1001 54.1695 50.5811 53.9606C50.3299 53.8604 50.0872 53.7601 49.8528 53.6599C49.6267 53.5513 49.43 53.4259 49.2626 53.2839C49.0951 53.1419 48.9612 52.9706 48.8607 52.7701C48.7603 52.5696 48.71 52.3232 48.71 52.0308C48.71 51.4544 48.9235 50.9991 49.3505 50.6649C49.7774 50.3224 50.3593 50.1511 51.096 50.1511C51.2801 50.1511 51.4643 50.1636 51.6485 50.1887C51.8327 50.2054 52.0043 50.2305 52.1633 50.2639C52.3224 50.289 52.4605 50.3182 52.5777 50.3516C52.7033 50.385 52.7996 50.4143 52.8666 50.4393L52.6531 51.4418C52.5275 51.375 52.3308 51.3082 52.0629 51.2413C51.795 51.1661 51.4727 51.1285 51.096 51.1285C50.7695 51.1285 50.4848 51.1954 50.242 51.329C49.9993 51.4544 49.8779 51.6549 49.8779 51.9305C49.8779 52.0726 49.903 52.1979 49.9532 52.3065C50.0118 52.4151 50.0955 52.5153 50.2044 52.6072C50.3216 52.6908 50.4639 52.7701 50.6313 52.8453C50.7988 52.9205 50.9997 52.9999 51.2341 53.0834C51.5438 53.2004 51.8201 53.3173 52.0629 53.4343C52.3057 53.5429 52.5108 53.6724 52.6782 53.8228C52.854 53.9731 52.988 54.1569 53.08 54.3741C53.1721 54.583 53.2182 54.842 53.2182 55.1511C53.2182 55.7526 52.9921 56.2079 52.5401 56.517C52.0964 56.8261 51.4601 56.9806 50.6313 56.9806C50.0537 56.9806 49.6016 56.9305 49.2751 56.8303C48.9486 56.7384 48.7268 56.6674 48.6096 56.6172L48.823 55.6147C48.957 55.6649 49.1705 55.74 49.4635 55.8403C49.7565 55.9405 50.1458 55.9907 50.6313 55.9907Z" fill="#27235C"/>
<path d="M55.8087 50.314H58.2825V51.2915H55.8087V54.299C55.8087 54.6248 55.8338 54.8963 55.884 55.1135C55.9342 55.3223 56.0096 55.4894 56.11 55.6147C56.2105 55.7317 56.3361 55.8152 56.4868 55.8654C56.6375 55.9155 56.8133 55.9406 57.0142 55.9406C57.3658 55.9406 57.6462 55.903 57.8555 55.8278C58.0732 55.7442 58.2239 55.6857 58.3076 55.6523L58.5336 56.6172C58.4164 56.6757 58.2113 56.7467 57.9183 56.8303C57.6253 56.9222 57.2904 56.9681 56.9137 56.9681C56.47 56.9681 56.1017 56.9138 55.8087 56.8052C55.524 56.6882 55.2938 56.517 55.118 56.2914C54.9422 56.0659 54.8166 55.7902 54.7413 55.4644C54.6743 55.1302 54.6408 54.7459 54.6408 54.3115V48.497L55.8087 48.2965V50.314Z" fill="#27235C"/>
<path d="M60.9364 56.8303H59.7686V50.314H60.9364V56.8303ZM60.3462 49.1361C60.1369 49.1361 59.957 49.0692 59.8063 48.9356C59.6639 48.7936 59.5928 48.6056 59.5928 48.3717C59.5928 48.1378 59.6639 47.954 59.8063 47.8203C59.957 47.6783 60.1369 47.6073 60.3462 47.6073C60.5555 47.6073 60.7313 47.6783 60.8737 47.8203C61.0243 47.954 61.0997 48.1378 61.0997 48.3717C61.0997 48.6056 61.0243 48.7936 60.8737 48.9356C60.7313 49.0692 60.5555 49.1361 60.3462 49.1361Z" fill="#27235C"/>
<path d="M62.9448 50.502C63.2127 50.4352 63.5685 50.3641 64.0121 50.289C64.4558 50.2138 64.9665 50.1762 65.5442 50.1762C66.0632 50.1762 66.4944 50.2514 66.8376 50.4017C67.1808 50.5438 67.4529 50.7484 67.6538 51.0158C67.8631 51.2747 68.0096 51.588 68.0933 51.9556C68.1771 52.3232 68.2189 52.7284 68.2189 53.1711V56.8303H67.0511V53.4218C67.0511 53.0208 67.0218 52.6782 66.9632 52.3942C66.9129 52.1102 66.825 51.8804 66.6995 51.705C66.5739 51.5295 66.4064 51.4042 66.1972 51.329C65.9879 51.2455 65.7283 51.2037 65.4186 51.2037C65.293 51.2037 65.1633 51.2079 65.0293 51.2163C64.8954 51.2246 64.7656 51.2372 64.64 51.2539C64.5228 51.2622 64.414 51.2747 64.3135 51.2915C64.2214 51.3082 64.1545 51.3207 64.1126 51.329V56.8303H62.9448V50.502Z" fill="#27235C"/>
<path d="M74.2493 56.1786C74.1488 56.2455 73.9521 56.3332 73.6591 56.4418C73.3744 56.542 73.0396 56.5922 72.6545 56.5922C72.261 56.5922 71.8885 56.5295 71.5368 56.4042C71.1936 56.2789 70.8922 56.0867 70.6327 55.8278C70.3732 55.5604 70.1681 55.2304 70.0174 54.8378C69.8667 54.4452 69.7914 53.9773 69.7914 53.4343C69.7914 52.9581 69.8625 52.5237 70.0048 52.131C70.1471 51.73 70.3523 51.3875 70.6201 51.1035C70.8964 50.8111 71.2313 50.5855 71.6247 50.4268C72.0182 50.2597 72.4619 50.1762 72.9558 50.1762C73.5 50.1762 73.973 50.2179 74.3748 50.3015C74.7851 50.3767 75.1283 50.4477 75.4046 50.5145V56.329C75.4046 57.3315 75.145 58.0583 74.626 58.5095C74.107 58.9606 73.32 59.1861 72.2652 59.1861C71.855 59.1861 71.4657 59.1527 71.0973 59.0859C70.7373 59.0191 70.4234 58.9397 70.1555 58.8478L70.369 57.8328C70.6034 57.9247 70.888 58.004 71.2229 58.0709C71.5661 58.146 71.9219 58.1836 72.2903 58.1836C72.9851 58.1836 73.4833 58.0458 73.7846 57.7701C74.0944 57.4944 74.2493 57.0558 74.2493 56.4543V56.1786ZM74.2367 51.3416C74.1195 51.3082 73.9604 51.2789 73.7595 51.2539C73.567 51.2204 73.3033 51.2037 72.9684 51.2037C72.3405 51.2037 71.855 51.4084 71.5117 51.8178C71.1769 52.2271 71.0094 52.7701 71.0094 53.4468C71.0094 53.8228 71.0555 54.1444 71.1476 54.4117C71.248 54.6791 71.3778 54.9005 71.5368 55.0759C71.7043 55.2513 71.8926 55.3808 72.1019 55.4644C72.3196 55.5479 72.5414 55.5897 72.7675 55.5897C73.0772 55.5897 73.3619 55.5479 73.6214 55.4644C73.8809 55.3725 74.086 55.268 74.2367 55.1511V51.3416Z" fill="#27235C"/>
<path d="M78.646 55.4017C78.6543 55.4685 78.6585 55.5354 78.6585 55.6022C78.6585 55.6607 78.6585 55.7233 78.6585 55.7902C78.6585 56.3165 78.579 56.8344 78.4199 57.344C78.2692 57.862 78.06 58.3549 77.7921 58.8227L76.8879 58.5345C77.0972 58.1085 77.2353 57.674 77.3023 57.2313C77.3693 56.7969 77.4028 56.3875 77.4028 56.0032C77.4028 55.8946 77.3986 55.7902 77.3902 55.6899C77.3902 55.5897 77.386 55.4936 77.3777 55.4017H78.646Z" fill="#27235C"/>
<path d="M83.1358 52.4819C83.1358 51.7384 83.2446 51.0826 83.4623 50.5145C83.6883 49.9464 83.9897 49.4744 84.3664 49.0985C84.7515 48.7142 85.1952 48.426 85.6975 48.2338C86.2082 48.0417 86.7481 47.9456 87.3174 47.9456C87.8783 47.9456 88.4057 48.0417 88.8997 48.2338C89.402 48.426 89.8415 48.7142 90.2182 49.0985C90.5949 49.4744 90.8921 49.9464 91.1098 50.5145C91.3358 51.0826 91.4488 51.7384 91.4488 52.4819C91.4488 53.2254 91.3358 53.8812 91.1098 54.4493C90.8921 55.0174 90.5949 55.4936 90.2182 55.8779C89.8415 56.2538 89.402 56.5379 88.8997 56.73C88.4057 56.9222 87.8783 57.0182 87.3174 57.0182C86.7481 57.0182 86.2082 56.9222 85.6975 56.73C85.1952 56.5379 84.7515 56.2538 84.3664 55.8779C83.9897 55.4936 83.6883 55.0174 83.4623 54.4493C83.2446 53.8812 83.1358 53.2254 83.1358 52.4819ZM84.4166 52.4819C84.4166 53.0082 84.4836 53.4886 84.6176 53.923C84.7515 54.3491 84.9399 54.7125 85.1826 55.0132C85.4338 55.314 85.7352 55.5479 86.0868 55.715C86.4468 55.8737 86.8486 55.9531 87.2923 55.9531C87.736 55.9531 88.1337 55.8737 88.4853 55.715C88.8369 55.5479 89.1341 55.314 89.3769 55.0132C89.628 54.7125 89.8206 54.3491 89.9545 53.923C90.0884 53.4886 90.1554 53.0082 90.1554 52.4819C90.1554 51.9556 90.0884 51.4794 89.9545 51.0534C89.8206 50.6189 89.628 50.2514 89.3769 49.9506C89.1341 49.6499 88.8369 49.4201 88.4853 49.2614C88.1337 49.0943 87.736 49.0108 87.2923 49.0108C86.8486 49.0108 86.4468 49.0943 86.0868 49.2614C85.7352 49.4201 85.4338 49.6499 85.1826 49.9506C84.9399 50.2514 84.7515 50.6189 84.6176 51.0534C84.4836 51.4794 84.4166 51.9556 84.4166 52.4819Z" fill="#27235C"/>
<path d="M98.3846 56.6423C98.1167 56.7091 97.7609 56.7801 97.3172 56.8553C96.8819 56.9305 96.3754 56.9681 95.7978 56.9681C95.2955 56.9681 94.8727 56.8971 94.5295 56.7551C94.1862 56.6047 93.91 56.3959 93.7007 56.1285C93.4914 55.8612 93.3407 55.5479 93.2486 55.1887C93.1565 54.8211 93.1105 54.4159 93.1105 53.9731V50.314H94.2783V53.7225C94.2783 54.5162 94.4039 55.0842 94.655 55.4268C94.9062 55.7693 95.329 55.9406 95.9233 55.9406C96.0489 55.9406 96.1787 55.9364 96.3126 55.928C96.4466 55.9197 96.5722 55.9113 96.6894 55.903C96.8066 55.8862 96.9112 55.8737 97.0033 55.8654C97.1038 55.8487 97.1749 55.8319 97.2168 55.8152V50.314H98.3846V56.6423Z" fill="#27235C"/>
<path d="M102.808 50.1762C102.908 50.1762 103.021 50.1845 103.147 50.2012C103.281 50.2096 103.41 50.2263 103.536 50.2514C103.662 50.2681 103.775 50.289 103.875 50.314C103.984 50.3307 104.063 50.3474 104.114 50.3641L103.913 51.3792C103.821 51.3458 103.666 51.3082 103.448 51.2664C103.239 51.2163 102.967 51.1912 102.632 51.1912C102.414 51.1912 102.196 51.2163 101.979 51.2664C101.77 51.3082 101.631 51.3374 101.564 51.3541V56.8303H100.397V50.5897C100.673 50.4895 101.016 50.3976 101.426 50.314C101.836 50.2221 102.297 50.1762 102.808 50.1762Z" fill="#27235C"/>
<path d="M112.479 53.1962C112.613 53.3633 112.781 53.5847 112.982 53.8604C113.191 54.1277 113.404 54.4284 113.622 54.7626C113.84 55.0884 114.053 55.4309 114.262 55.7902C114.48 56.1494 114.664 56.4961 114.815 56.8303H113.484C113.316 56.5128 113.132 56.1912 112.931 55.8654C112.739 55.5395 112.542 55.2304 112.341 54.938C112.14 54.6373 111.939 54.3574 111.738 54.0985C111.546 53.8395 111.37 53.6139 111.211 53.4218C111.102 53.4301 110.989 53.4343 110.872 53.4343C110.763 53.4343 110.65 53.4343 110.533 53.4343H109.44V56.8303H108.222V48.2714C108.565 48.1879 108.946 48.1336 109.365 48.1085C109.792 48.0751 110.181 48.0584 110.533 48.0584C111.755 48.0584 112.684 48.2881 113.321 48.7476C113.965 49.2071 114.288 49.8921 114.288 50.8027C114.288 51.3792 114.133 51.8721 113.823 52.2814C113.522 52.6908 113.074 52.9957 112.479 53.1962ZM110.633 49.1235C110.114 49.1235 109.717 49.1361 109.44 49.1611V52.4318H110.307C110.725 52.4318 111.102 52.4109 111.437 52.3691C111.772 52.3274 112.052 52.248 112.278 52.131C112.513 52.0141 112.693 51.8512 112.818 51.6423C112.944 51.4251 113.007 51.1411 113.007 50.7902C113.007 50.4644 112.944 50.1929 112.818 49.9757C112.693 49.7585 112.521 49.5872 112.303 49.4619C112.094 49.3366 111.843 49.2489 111.55 49.1987C111.265 49.1486 110.96 49.1235 110.633 49.1235Z" fill="#27235C"/>
<path d="M115.68 53.5847C115.68 53.0082 115.764 52.507 115.931 52.0809C116.099 51.6465 116.321 51.2873 116.597 51.0032C116.873 50.7192 117.191 50.5062 117.551 50.3641C117.911 50.2221 118.28 50.1511 118.656 50.1511C119.535 50.1511 120.209 50.4268 120.678 50.9782C121.147 51.5212 121.381 52.3524 121.381 53.4719C121.381 53.522 121.381 53.5889 121.381 53.6724C121.381 53.7476 121.377 53.8186 121.369 53.8854H116.898C116.949 54.5621 117.145 55.0759 117.489 55.4268C117.832 55.7776 118.368 55.9531 119.096 55.9531C119.506 55.9531 119.849 55.9197 120.126 55.8528C120.41 55.7776 120.624 55.7066 120.766 55.6398L120.929 56.6172C120.787 56.6924 120.536 56.7718 120.176 56.8553C119.824 56.9389 119.422 56.9806 118.97 56.9806C118.401 56.9806 117.907 56.8971 117.489 56.73C117.078 56.5546 116.739 56.3165 116.471 56.0157C116.203 55.715 116.003 55.3599 115.869 54.9506C115.743 54.5329 115.68 54.0776 115.68 53.5847ZM120.163 52.9456C120.172 52.4193 120.038 51.989 119.761 51.6549C119.494 51.3123 119.121 51.1411 118.644 51.1411C118.376 51.1411 118.137 51.1954 117.928 51.304C117.727 51.4042 117.556 51.5379 117.413 51.705C117.271 51.8721 117.158 52.0642 117.074 52.2814C116.999 52.4986 116.949 52.72 116.923 52.9456H120.163Z" fill="#27235C"/>
<path d="M124.578 55.9907C125.056 55.9907 125.407 55.928 125.633 55.8027C125.868 55.6774 125.985 55.4769 125.985 55.2012C125.985 54.9172 125.872 54.6916 125.646 54.5245C125.42 54.3574 125.047 54.1695 124.528 53.9606C124.277 53.8604 124.034 53.7601 123.8 53.6599C123.574 53.5513 123.377 53.4259 123.21 53.2839C123.042 53.1419 122.908 52.9706 122.808 52.7701C122.707 52.5696 122.657 52.3232 122.657 52.0308C122.657 51.4544 122.871 50.9991 123.298 50.6649C123.725 50.3224 124.306 50.1511 125.043 50.1511C125.227 50.1511 125.411 50.1636 125.596 50.1887C125.78 50.2054 125.951 50.2305 126.11 50.2639C126.27 50.289 126.408 50.3182 126.525 50.3516C126.65 50.385 126.747 50.4143 126.814 50.4393L126.6 51.4418C126.475 51.375 126.278 51.3082 126.01 51.2413C125.742 51.1661 125.42 51.1285 125.043 51.1285C124.717 51.1285 124.432 51.1954 124.189 51.329C123.946 51.4544 123.825 51.6549 123.825 51.9305C123.825 52.0726 123.85 52.1979 123.9 52.3065C123.959 52.4151 124.043 52.5153 124.151 52.6072C124.269 52.6908 124.411 52.7701 124.578 52.8453C124.746 52.9205 124.947 52.9999 125.181 53.0834C125.491 53.2004 125.767 53.3173 126.01 53.4343C126.253 53.5429 126.458 53.6724 126.625 53.8228C126.801 53.9731 126.935 54.1569 127.027 54.3741C127.119 54.583 127.165 54.842 127.165 55.1511C127.165 55.7526 126.939 56.2079 126.487 56.517C126.043 56.8261 125.407 56.9806 124.578 56.9806C124.001 56.9806 123.549 56.9305 123.222 56.8303C122.896 56.7384 122.674 56.6674 122.557 56.6172L122.77 55.6147C122.904 55.6649 123.118 55.74 123.411 55.8403C123.704 55.9405 124.093 55.9907 124.578 55.9907Z" fill="#27235C"/>
<path d="M133.197 53.5847C133.197 52.8244 133.008 52.2397 132.631 51.8303C132.255 51.4209 131.752 51.2163 131.125 51.2163C130.773 51.2163 130.497 51.2288 130.296 51.2539C130.103 51.2789 129.948 51.3082 129.831 51.3416V55.4518C129.973 55.5688 130.179 55.6816 130.446 55.7902C130.714 55.8988 131.007 55.9531 131.325 55.9531C131.66 55.9531 131.945 55.8946 132.179 55.7776C132.422 55.6523 132.619 55.4852 132.77 55.2764C132.92 55.0592 133.029 54.8086 133.096 54.5245C133.163 54.2321 133.197 53.9188 133.197 53.5847ZM134.415 53.5847C134.415 54.0776 134.348 54.5329 134.214 54.9506C134.088 55.3683 133.9 55.7275 133.649 56.0283C133.397 56.329 133.088 56.5629 132.719 56.73C132.359 56.8971 131.945 56.9806 131.476 56.9806C131.099 56.9806 130.765 56.9305 130.472 56.8303C130.187 56.73 129.973 56.6339 129.831 56.5421V59.1485H128.663V50.5145C128.94 50.4477 129.283 50.3767 129.693 50.3015C130.112 50.2179 130.593 50.1762 131.137 50.1762C131.639 50.1762 132.091 50.2555 132.493 50.4143C132.895 50.573 133.238 50.7986 133.523 51.091C133.808 51.3834 134.025 51.7426 134.176 52.1686C134.335 52.5864 134.415 53.0584 134.415 53.5847Z" fill="#27235C"/>
<path d="M141.822 53.5721C141.822 54.0901 141.747 54.5579 141.596 54.9756C141.445 55.3934 141.232 55.7526 140.955 56.0533C140.687 56.3541 140.365 56.588 139.988 56.7551C139.612 56.9138 139.202 56.9932 138.758 56.9932C138.314 56.9932 137.904 56.9138 137.527 56.7551C137.15 56.588 136.824 56.3541 136.548 56.0533C136.28 55.7526 136.071 55.3934 135.92 54.9756C135.769 54.5579 135.694 54.0901 135.694 53.5721C135.694 53.0625 135.769 52.5989 135.92 52.1812C136.071 51.7551 136.28 51.3917 136.548 51.091C136.824 50.7902 137.15 50.5605 137.527 50.4017C137.904 50.2347 138.314 50.1511 138.758 50.1511C139.202 50.1511 139.612 50.2347 139.988 50.4017C140.365 50.5605 140.687 50.7902 140.955 51.091C141.232 51.3917 141.445 51.7551 141.596 52.1812C141.747 52.5989 141.822 53.0625 141.822 53.5721ZM140.604 53.5721C140.604 52.837 140.436 52.2564 140.101 51.8303C139.775 51.3959 139.327 51.1787 138.758 51.1787C138.189 51.1787 137.736 51.3959 137.402 51.8303C137.075 52.2564 136.912 52.837 136.912 53.5721C136.912 54.3073 137.075 54.8921 137.402 55.3265C137.736 55.7526 138.189 55.9656 138.758 55.9656C139.327 55.9656 139.775 55.7526 140.101 55.3265C140.436 54.8921 140.604 54.3073 140.604 53.5721Z" fill="#27235C"/>
<path d="M143.465 50.502C143.733 50.4352 144.089 50.3641 144.532 50.289C144.976 50.2138 145.487 50.1762 146.064 50.1762C146.583 50.1762 147.015 50.2514 147.358 50.4017C147.701 50.5438 147.973 50.7484 148.174 51.0158C148.383 51.2747 148.53 51.588 148.614 51.9556C148.697 52.3232 148.739 52.7284 148.739 53.1711V56.8303H147.571V53.4218C147.571 53.0208 147.542 52.6782 147.483 52.3942C147.433 52.1102 147.345 51.8804 147.22 51.705C147.094 51.5295 146.927 51.4042 146.717 51.329C146.508 51.2455 146.249 51.2037 145.939 51.2037C145.813 51.2037 145.683 51.2079 145.549 51.2163C145.416 51.2246 145.286 51.2372 145.16 51.2539C145.043 51.2622 144.934 51.2747 144.834 51.2915C144.742 51.3082 144.675 51.3207 144.633 51.329V56.8303H143.465V50.502Z" fill="#27235C"/>
<path d="M152.195 55.9907C152.672 55.9907 153.024 55.928 153.25 55.8027C153.484 55.6774 153.602 55.4769 153.602 55.2012C153.602 54.9172 153.489 54.6916 153.263 54.5245C153.036 54.3574 152.664 54.1695 152.145 53.9606C151.894 53.8604 151.651 53.7601 151.417 53.6599C151.191 53.5513 150.994 53.4259 150.826 53.2839C150.659 53.1419 150.525 52.9706 150.425 52.7701C150.324 52.5696 150.274 52.3232 150.274 52.0308C150.274 51.4544 150.487 50.9991 150.914 50.6649C151.341 50.3224 151.923 50.1511 152.66 50.1511C152.844 50.1511 153.028 50.1636 153.212 50.1887C153.396 50.2054 153.568 50.2305 153.727 50.2639C153.886 50.289 154.024 50.3182 154.142 50.3516C154.267 50.385 154.363 50.4143 154.43 50.4393L154.217 51.4418C154.091 51.375 153.895 51.3082 153.627 51.2413C153.359 51.1661 153.036 51.1285 152.66 51.1285C152.333 51.1285 152.049 51.1954 151.806 51.329C151.563 51.4544 151.442 51.6549 151.442 51.9305C151.442 52.0726 151.467 52.1979 151.517 52.3065C151.576 52.4151 151.659 52.5153 151.768 52.6072C151.885 52.6908 152.028 52.7701 152.195 52.8453C152.363 52.9205 152.563 52.9999 152.798 53.0834C153.108 53.2004 153.384 53.3173 153.627 53.4343C153.869 53.5429 154.075 53.6724 154.242 53.8228C154.418 53.9731 154.552 54.1569 154.644 54.3741C154.736 54.583 154.782 54.842 154.782 55.1511C154.782 55.7526 154.556 56.2079 154.104 56.517C153.66 56.8261 153.024 56.9806 152.195 56.9806C151.617 56.9806 151.165 56.9305 150.839 56.8303C150.512 56.7384 150.291 56.6674 150.173 56.6172L150.387 55.6147C150.521 55.6649 150.734 55.74 151.027 55.8403C151.32 55.9405 151.71 55.9907 152.195 55.9907Z" fill="#27235C"/>
<path d="M157.448 56.8303H156.28V50.314H157.448V56.8303ZM156.858 49.1361C156.648 49.1361 156.468 49.0692 156.318 48.9356C156.175 48.7936 156.104 48.6056 156.104 48.3717C156.104 48.1378 156.175 47.954 156.318 47.8203C156.468 47.6783 156.648 47.6073 156.858 47.6073C157.067 47.6073 157.243 47.6783 157.385 47.8203C157.536 47.954 157.611 48.1378 157.611 48.3717C157.611 48.6056 157.536 48.7936 157.385 48.9356C157.243 49.0692 157.067 49.1361 156.858 49.1361Z" fill="#27235C"/>
<path d="M160.624 50.6022C160.766 50.5103 160.98 50.4143 161.264 50.314C161.557 50.2138 161.892 50.1636 162.269 50.1636C162.738 50.1636 163.152 50.2472 163.512 50.4143C163.881 50.5814 164.19 50.8153 164.441 51.116C164.693 51.4168 164.881 51.776 165.007 52.1937C165.14 52.6114 165.207 53.0709 165.207 53.5721C165.207 54.0985 165.128 54.5746 164.969 55.0007C164.818 55.4184 164.601 55.7735 164.316 56.0659C164.031 56.3583 163.688 56.5838 163.286 56.7426C162.884 56.9013 162.432 56.9806 161.93 56.9806C161.386 56.9806 160.904 56.943 160.486 56.8679C160.067 56.7927 159.724 56.7175 159.456 56.6423V47.3065L160.624 47.106V50.6022ZM160.624 55.8152C160.741 55.8487 160.904 55.8821 161.114 55.9155C161.331 55.9406 161.599 55.9531 161.917 55.9531C162.545 55.9531 163.048 55.7484 163.424 55.339C163.801 54.9213 163.989 54.3324 163.989 53.5721C163.989 53.238 163.956 52.9247 163.889 52.6323C163.822 52.3399 163.713 52.0893 163.562 51.8804C163.412 51.6632 163.215 51.4961 162.972 51.3792C162.738 51.2539 162.453 51.1912 162.118 51.1912C161.8 51.1912 161.507 51.2455 161.239 51.3541C160.971 51.4627 160.766 51.5755 160.624 51.6925V55.8152Z" fill="#27235C"/>
<path d="M168.019 56.8303H166.851V50.314H168.019V56.8303ZM167.428 49.1361C167.219 49.1361 167.039 49.0692 166.889 48.9356C166.746 48.7936 166.675 48.6056 166.675 48.3717C166.675 48.1378 166.746 47.954 166.889 47.8203C167.039 47.6783 167.219 47.6073 167.428 47.6073C167.638 47.6073 167.814 47.6783 167.956 47.8203C168.107 47.954 168.182 48.1378 168.182 48.3717C168.182 48.6056 168.107 48.7936 167.956 48.9356C167.814 49.0692 167.638 49.1361 167.428 49.1361Z" fill="#27235C"/>
<path d="M171.986 56.9556C171.266 56.9389 170.755 56.7843 170.454 56.4919C170.153 56.1995 170.002 55.7442 170.002 55.126V47.3065L171.17 47.106V54.938C171.17 55.1302 171.186 55.2889 171.22 55.4142C171.253 55.5396 171.308 55.6398 171.383 55.715C171.459 55.7902 171.559 55.8487 171.685 55.8904C171.81 55.9238 171.965 55.9531 172.149 55.9781L171.986 56.9556Z" fill="#27235C"/>
<path d="M174.629 56.8303H173.461V50.314H174.629V56.8303ZM174.038 49.1361C173.829 49.1361 173.649 49.0692 173.498 48.9356C173.356 48.7936 173.285 48.6056 173.285 48.3717C173.285 48.1378 173.356 47.954 173.498 47.8203C173.649 47.6783 173.829 47.6073 174.038 47.6073C174.248 47.6073 174.423 47.6783 174.566 47.8203C174.716 47.954 174.792 48.1378 174.792 48.3717C174.792 48.6056 174.716 48.7936 174.566 48.9356C174.423 49.0692 174.248 49.1361 174.038 49.1361Z" fill="#27235C"/>
<path d="M177.729 50.314H180.203V51.2915H177.729V54.299C177.729 54.6248 177.754 54.8963 177.805 55.1135C177.855 55.3223 177.93 55.4894 178.031 55.6147C178.131 55.7317 178.257 55.8152 178.407 55.8654C178.558 55.9155 178.734 55.9406 178.935 55.9406C179.287 55.9406 179.567 55.903 179.776 55.8278C179.994 55.7442 180.145 55.6857 180.228 55.6523L180.454 56.6172C180.337 56.6757 180.132 56.7467 179.839 56.8303C179.546 56.9222 179.211 56.9681 178.834 56.9681C178.391 56.9681 178.022 56.9138 177.729 56.8052C177.445 56.6882 177.215 56.517 177.039 56.2914C176.863 56.0659 176.737 55.7902 176.662 55.4644C176.595 55.1302 176.562 54.7459 176.562 54.3115V48.497L177.729 48.2965V50.314Z" fill="#27235C"/>
<path d="M180.923 58.0458C181.015 58.0876 181.133 58.1252 181.275 58.1586C181.426 58.2004 181.572 58.2212 181.714 58.2212C182.175 58.2212 182.535 58.1168 182.794 57.908C183.054 57.7075 183.288 57.3775 183.498 56.918C182.97 55.9155 182.476 54.8545 182.016 53.735C181.564 52.6072 181.187 51.4669 180.886 50.314H182.141C182.233 50.69 182.342 51.0951 182.468 51.5295C182.602 51.964 182.748 52.4109 182.907 52.8704C183.066 53.3299 183.238 53.7894 183.422 54.2488C183.606 54.7083 183.799 55.1511 184 55.5771C184.318 54.7 184.594 53.8311 184.829 52.9706C185.063 52.1102 185.285 51.2246 185.494 50.314H186.7C186.398 51.5421 186.064 52.7242 185.695 53.8604C185.327 54.9882 184.929 56.045 184.502 57.0308C184.335 57.4067 184.159 57.7283 183.975 57.9957C183.799 58.2714 183.602 58.4969 183.385 58.6724C183.167 58.8478 182.92 58.9773 182.644 59.0608C182.376 59.1444 182.07 59.1861 181.727 59.1861C181.635 59.1861 181.539 59.1778 181.438 59.1611C181.338 59.1527 181.237 59.136 181.137 59.111C181.045 59.0942 180.957 59.0734 180.873 59.0483C180.798 59.0232 180.743 59.0024 180.71 58.9856L180.923 58.0458Z" fill="#27235C"/>
<path d="M188.97 56.1536C188.97 56.3791 188.895 56.5755 188.744 56.7426C188.593 56.9096 188.388 56.9932 188.129 56.9932C187.869 56.9932 187.664 56.9096 187.514 56.7426C187.363 56.5755 187.288 56.3791 187.288 56.1536C187.288 55.928 187.363 55.7317 187.514 55.5646C187.664 55.3975 187.869 55.314 188.129 55.314C188.388 55.314 188.593 55.3975 188.744 55.5646C188.895 55.7317 188.97 55.928 188.97 56.1536Z" fill="#27235C"/>
<path d="M178.835 38.5985C177.399 38.5985 176.11 38.3202 174.967 37.7634C173.854 37.1774 172.902 36.3863 172.11 35.3901C171.349 34.3939 170.763 33.2512 170.352 31.962C169.971 30.6435 169.781 29.237 169.781 27.7427C169.81 26.2484 170.03 24.8566 170.44 23.5674C170.851 22.2489 171.437 21.1062 172.198 20.1393C172.989 19.1431 173.942 18.3666 175.055 17.8099C176.169 17.2532 177.428 16.9749 178.835 16.9749C180.183 16.9749 181.443 17.2532 182.615 17.8099C183.816 18.3666 184.871 19.1431 185.779 20.1393C186.717 21.1062 187.449 22.2489 187.977 23.5674C188.504 24.8566 188.768 26.2338 188.768 27.6988C188.768 29.2224 188.504 30.6581 187.977 32.0059C187.449 33.3244 186.731 34.4818 185.823 35.478C184.915 36.4449 183.86 37.2067 182.659 37.7634C181.457 38.3202 180.183 38.5985 178.835 38.5985ZM178.132 33.4563C179.157 33.4563 180.08 33.2219 180.901 32.7531C181.721 32.255 182.366 31.5811 182.834 30.7314C183.332 29.8817 183.582 28.9147 183.582 27.8306C183.582 26.7172 183.332 25.7357 182.834 24.8859C182.366 24.0069 181.721 23.333 180.901 22.8642C180.08 22.3661 179.157 22.1171 178.132 22.1171C177.135 22.1171 176.227 22.3661 175.407 22.8642C174.586 23.3623 173.927 24.0362 173.429 24.8859C172.96 25.7357 172.726 26.7172 172.726 27.8306C172.726 28.9147 172.96 29.8817 173.429 30.7314C173.927 31.5811 174.586 32.255 175.407 32.7531C176.227 33.2219 177.135 33.4563 178.132 33.4563ZM170.001 38.6425C169.21 38.6425 168.624 38.5106 168.243 38.2469C167.862 38.0125 167.627 37.7048 167.54 37.3239C167.452 36.9137 167.408 36.4596 167.408 35.9615V9.76697C167.408 9.26887 167.452 8.82936 167.54 8.44846C167.627 8.03825 167.862 7.71595 168.243 7.48155C168.624 7.24714 169.21 7.12994 170.001 7.12994C170.821 7.12994 171.407 7.24714 171.759 7.48155C172.11 7.71595 172.33 8.03825 172.418 8.44846C172.506 8.85866 172.55 9.29817 172.55 9.76697V36.8405C172.433 37.4851 172.184 37.9392 171.803 38.2029C171.451 38.496 170.851 38.6425 170.001 38.6425Z" fill="#27235C" stroke="#27235C" stroke-width="0.4"/>
<path d="M154.308 38.9068C152.403 38.9068 150.733 38.5992 149.298 37.9839C147.891 37.3686 146.705 36.5335 145.738 35.4787C144.8 34.3946 144.082 33.1933 143.584 31.8748C143.115 30.5269 142.881 29.1352 142.881 27.6995C142.881 25.5898 143.364 23.7146 144.331 22.0738C145.298 20.433 146.631 19.1438 148.331 18.2062C150.059 17.2685 152.037 16.7997 154.264 16.7997C155.846 16.7997 157.238 17.0488 158.439 17.5469C159.641 18.045 160.637 18.7043 161.428 19.5247C162.248 20.3158 162.864 21.1948 163.274 22.1617C163.713 23.1286 163.933 24.0662 163.933 24.9745C163.933 26.5275 163.552 27.6555 162.79 28.3587C162.058 29.0619 161.135 29.4135 160.022 29.4135H148.419C148.448 30.4097 148.756 31.2741 149.342 32.0066C149.957 32.7391 150.719 33.3105 151.627 33.7207C152.565 34.1016 153.517 34.292 154.484 34.292C155.216 34.292 155.861 34.2481 156.418 34.1602C157.004 34.0723 157.502 33.9697 157.912 33.8525C158.322 33.706 158.674 33.5595 158.967 33.413C159.289 33.2665 159.582 33.1347 159.846 33.0175C160.109 32.9003 160.359 32.827 160.593 32.7977C160.915 32.7684 161.238 32.8417 161.56 33.0175C161.882 33.1933 162.146 33.5009 162.351 33.9404C162.527 34.2334 162.644 34.5118 162.703 34.7755C162.79 35.0099 162.834 35.2443 162.834 35.4787C162.834 36.0647 162.483 36.6214 161.78 37.1488C161.076 37.6469 160.08 38.0571 158.791 38.3794C157.531 38.731 156.037 38.9068 154.308 38.9068ZM148.419 26.293H157.428C157.927 26.293 158.307 26.2198 158.571 26.0733C158.835 25.8975 158.967 25.5459 158.967 25.0185C158.967 24.3446 158.762 23.7439 158.351 23.2165C157.941 22.6598 157.385 22.235 156.681 21.942C155.978 21.6196 155.158 21.4585 154.22 21.4585C153.136 21.4585 152.154 21.6782 151.275 22.1178C150.396 22.528 149.693 23.0993 149.166 23.8318C148.668 24.5643 148.419 25.3847 148.419 26.293Z" fill="#27235C" stroke="#27235C" stroke-width="0.4"/>
<path d="M114.987 38.5122C114.401 38.5122 113.932 38.4097 113.58 38.2046C113.229 37.9702 112.965 37.7065 112.789 37.4135C112.643 37.1205 112.54 36.8714 112.482 36.6663L103.867 11.4387C103.574 10.5011 103.53 9.79791 103.736 9.32911C103.941 8.831 104.541 8.42079 105.538 8.09849C106.211 7.86409 106.754 7.76154 107.164 7.79084C107.574 7.82014 107.911 7.99594 108.175 8.31825C108.468 8.61125 108.717 9.08005 108.922 9.72466L115.251 28.8871L120.92 9.90046C121.008 9.60746 121.125 9.31446 121.272 9.02145C121.448 8.69915 121.711 8.43545 122.063 8.23034C122.415 8.02524 122.898 7.92269 123.513 7.92269C124.217 7.92269 124.744 8.03989 125.096 8.27429C125.447 8.5087 125.696 8.7724 125.843 9.0654C126.018 9.32911 126.136 9.57816 126.194 9.81256L131.864 29.0189L138.237 9.76861C138.442 9.0947 138.676 8.5966 138.94 8.27429C139.233 7.95199 139.599 7.77619 140.039 7.74689C140.478 7.68829 141.02 7.77619 141.665 8.01059C142.339 8.24499 142.822 8.5087 143.115 8.8017C143.408 9.0654 143.555 9.41701 143.555 9.85651C143.555 10.2667 143.452 10.7941 143.247 11.4387L134.677 36.7103C134.618 36.8861 134.501 37.1205 134.325 37.4135C134.179 37.7065 133.93 37.9702 133.578 38.2046C133.226 38.4097 132.743 38.5122 132.128 38.5122C131.512 38.5122 131.029 38.3804 130.677 38.1167C130.326 37.853 130.062 37.56 129.886 37.2377C129.71 36.9154 129.593 36.681 129.535 36.5345L123.557 17.1962L117.58 36.4905C117.521 36.6956 117.404 36.9593 117.228 37.2816C117.082 37.6039 116.833 37.8969 116.481 38.1606C116.13 38.395 115.632 38.5122 114.987 38.5122Z" fill="#27235C" stroke="#27235C" stroke-width="0.4"/>
<path d="M92.1338 38.9072C91.372 38.9072 90.5662 38.8192 89.7165 38.6434C88.8668 38.4969 88.0464 38.2772 87.2553 37.9842C86.4642 37.6619 85.7756 37.2956 85.1896 36.8854C84.6329 36.4459 84.2813 35.9625 84.1348 35.4351C84.0176 35.1421 83.9736 34.8637 84.0029 34.6C84.0322 34.307 84.1201 34.014 84.2666 33.721C84.4131 33.3987 84.6329 33.0764 84.9259 32.7541C85.1896 32.4318 85.4533 32.256 85.717 32.2267C86.01 32.1681 86.3763 32.256 86.8158 32.4904C87.1967 32.6369 87.6069 32.8273 88.0464 33.0617C88.5152 33.2961 88.984 33.5305 89.4528 33.7649C89.9509 33.9993 90.449 34.1898 90.9471 34.3363C91.4745 34.4828 91.9873 34.5561 92.4854 34.5561C93.5695 34.5561 94.4339 34.3803 95.0785 34.0286C95.7231 33.6477 96.0454 33.1203 96.0454 32.4464C96.0454 32.0655 95.9428 31.7286 95.7377 31.4356C95.5326 31.1426 95.2543 30.9082 94.9027 30.7324C94.5804 30.5273 94.1848 30.3515 93.716 30.205C93.2765 30.0292 92.793 29.8827 92.2656 29.7655C91.7675 29.6189 91.2401 29.4578 90.6834 29.282C89.9509 29.0769 89.2184 28.8278 88.4859 28.5348C87.7534 28.2418 87.0941 27.8609 86.5081 27.3921C85.9514 26.9233 85.4972 26.3373 85.1456 25.6341C84.794 24.9309 84.6182 24.0519 84.6182 22.9971C84.6182 21.6786 84.9259 20.5651 85.5412 19.6568C86.1858 18.7192 87.1088 18.0014 88.3101 17.5033C89.5114 17.0052 90.9618 16.7561 92.6612 16.7561C93.2472 16.7561 93.8039 16.8001 94.3313 16.888C94.888 16.9759 95.4154 17.1077 95.9135 17.2835C96.4409 17.43 96.939 17.6205 97.4078 17.8549C97.906 18.0893 98.3748 18.353 98.8143 18.646C99.5468 19.0562 99.9277 19.5396 99.957 20.0963C99.9863 20.6237 99.7812 21.1951 99.3417 21.8104C99.0194 22.2206 98.6971 22.5136 98.3748 22.6894C98.0525 22.8359 97.7155 22.8359 97.3639 22.6894C96.8951 22.455 96.3823 22.206 95.8256 21.9423C95.2982 21.6493 94.7415 21.4002 94.1555 21.1951C93.5988 20.99 93.0128 20.8875 92.3975 20.8875C91.8115 20.8875 91.2841 20.9754 90.8153 21.1512C90.3465 21.327 89.9949 21.576 89.7605 21.8983C89.526 22.2206 89.4088 22.6015 89.4088 23.041C89.4088 23.4512 89.526 23.7882 89.7605 24.0519C89.9949 24.3156 90.3025 24.5353 90.6834 24.7111C91.0643 24.8869 91.5185 25.0481 92.0459 25.1946C92.5733 25.3118 93.13 25.429 93.716 25.5462C94.5364 25.722 95.3715 25.9418 96.2212 26.2055C97.0709 26.4692 97.8474 26.8354 98.5506 27.3042C99.2831 27.773 99.8691 28.403 100.309 29.1941C100.748 29.9559 100.968 30.9521 100.968 32.1827C100.968 34.3216 100.177 35.9771 98.5945 37.1491C97.0416 38.3211 94.888 38.9072 92.1338 38.9072Z" fill="#27235C" stroke="#27235C" stroke-width="0.4"/>
<path d="M71.3856 38.9065C69.4811 38.9065 67.811 38.5988 66.3753 37.9835C64.9689 37.3682 63.7822 36.5331 62.8153 35.4783C61.8777 34.3942 61.1598 33.1929 60.6617 31.8744C60.1929 30.5266 59.9585 29.1348 59.9585 27.6991C59.9585 25.5895 60.442 23.7143 61.4089 22.0734C62.3758 20.4326 63.7089 19.1434 65.4084 18.2058C67.1371 17.2682 69.1149 16.7994 71.3417 16.7994C72.9239 16.7994 74.3157 17.0484 75.517 17.5465C76.7183 18.0446 77.7145 18.7039 78.5056 19.5243C79.326 20.3154 79.9413 21.1944 80.3515 22.1613C80.791 23.1282 81.0108 24.0659 81.0108 24.9742C81.0108 26.5271 80.6299 27.6551 79.8681 28.3584C79.1356 29.0616 78.2126 29.4132 77.0992 29.4132H65.4963C65.5256 30.4094 65.8332 31.2737 66.4192 32.0062C67.0345 32.7388 67.7963 33.3101 68.7047 33.7203C69.6423 34.1012 70.5945 34.2917 71.5614 34.2917C72.2939 34.2917 72.9386 34.2477 73.4953 34.1598C74.0813 34.0719 74.5794 33.9694 74.9896 33.8522C75.3998 33.7057 75.7514 33.5592 76.0444 33.4127C76.3667 33.2662 76.6597 33.1343 76.9234 33.0171C77.1871 32.8999 77.4362 32.8267 77.6706 32.7974C77.9929 32.7681 78.3152 32.8413 78.6375 33.0171C78.9598 33.1929 79.2235 33.5006 79.4286 33.9401C79.6044 34.2331 79.7216 34.5114 79.7802 34.7751C79.8681 35.0095 79.912 35.2439 79.912 35.4783C79.912 36.0643 79.5604 36.6211 78.8572 37.1485C78.154 37.6466 77.1578 38.0568 75.8686 38.3791C74.6087 38.7307 73.1144 38.9065 71.3856 38.9065ZM65.4963 26.2927H74.5061C75.0042 26.2927 75.3851 26.2194 75.6488 26.0729C75.9125 25.8971 76.0444 25.5455 76.0444 25.0181C76.0444 24.3442 75.8393 23.7436 75.4291 23.2161C75.0189 22.6594 74.4622 22.2346 73.759 21.9416C73.0558 21.6193 72.2353 21.4581 71.2977 21.4581C70.2136 21.4581 69.2321 21.6779 68.353 22.1174C67.474 22.5276 66.7708 23.0989 66.2434 23.8315C65.7453 24.564 65.4963 25.3844 65.4963 26.2927Z" fill="#27235C" stroke="#27235C" stroke-width="0.4"/>
<path d="M55.6957 38.6444C54.6116 38.6444 53.6447 38.5711 52.795 38.4246C51.9746 38.2781 51.2567 38.0291 50.6414 37.6774C50.0554 37.3258 49.572 36.857 49.1911 36.271C48.8101 35.6557 48.5171 34.9086 48.312 34.0296C48.1362 33.1505 48.0483 32.0957 48.0483 30.8651V9.68098C48.0483 9.18287 48.0923 8.74337 48.1802 8.36247C48.2974 7.95226 48.5318 7.62996 48.8834 7.39555C49.2643 7.13185 49.865 7 50.6854 7C51.5058 7 52.0918 7.1172 52.4434 7.3516C52.8243 7.58601 53.0587 7.90831 53.1466 8.31852C53.2638 8.69942 53.3224 9.13892 53.3224 9.63703V30.6454C53.3224 31.2021 53.3517 31.6709 53.4103 32.0518C53.4982 32.4034 53.6301 32.6964 53.8059 32.9308C54.011 33.1359 54.26 33.2824 54.553 33.3703C54.8753 33.4582 55.2562 33.5022 55.6957 33.5022C56.0766 33.5022 56.4136 33.5461 56.7066 33.634C57.0289 33.7219 57.2779 33.9417 57.4537 34.2933C57.6588 34.6449 57.7614 35.2162 57.7614 36.0073C57.7614 36.8277 57.6588 37.4284 57.4537 37.8093C57.2779 38.1902 57.0289 38.4246 56.7066 38.5125C56.3843 38.6004 56.0473 38.6444 55.6957 38.6444Z" fill="#27235C" stroke="#27235C" stroke-width="0.4"/>
<path d="M40.6898 38.6438C39.8987 38.6438 39.3127 38.512 38.9318 38.2482C38.5509 38.0138 38.3165 37.7062 38.2286 37.3253C38.1406 36.9151 38.0967 36.4609 38.0967 35.9628V19.6132C38.0967 19.1444 38.1406 18.7196 38.2286 18.3387C38.3458 17.9285 38.5802 17.6062 38.9318 17.3718C39.3127 17.1374 39.9133 17.0202 40.7337 17.0202C41.5541 17.0202 42.1401 17.1374 42.4918 17.3718C42.8727 17.6062 43.1071 17.9285 43.195 18.3387C43.2829 18.7489 43.3268 19.203 43.3268 19.7011V36.0068C43.3268 36.5049 43.2829 36.959 43.195 37.3692C43.1071 37.7501 42.8727 38.0578 42.4918 38.2922C42.1401 38.5266 41.5395 38.6438 40.6898 38.6438ZM40.6898 12.757C39.8401 12.757 39.2101 12.6398 38.7999 12.4054C38.419 12.1416 38.1699 11.79 38.0527 11.3505C37.9648 10.911 37.9209 10.4276 37.9209 9.90017C37.9209 9.34346 37.9648 8.86001 38.0527 8.4498C38.1699 8.0396 38.4337 7.7173 38.8439 7.48289C39.2541 7.21919 39.884 7.08734 40.7337 7.08734C41.6127 7.08734 42.2427 7.21919 42.6236 7.48289C43.0045 7.7466 43.2536 8.0982 43.3708 8.53771C43.488 8.94791 43.5466 9.43137 43.5466 9.98807C43.5466 10.4862 43.488 10.955 43.3708 11.3945C43.2536 11.834 43.0045 12.1709 42.6236 12.4054C42.2427 12.6398 41.5981 12.757 40.6898 12.757Z" fill="#27235C" stroke="#27235C" stroke-width="0.4"/>
<path d="M4.59308 38.5994C3.83127 38.5994 3.25991 38.4822 2.87901 38.2478C2.49811 38.0134 2.24905 37.6911 2.13185 37.2809C2.04395 36.8707 2 36.4166 2 35.9185V10.559C2 10.0902 2.04395 9.66536 2.13185 9.28446C2.24905 8.87426 2.49811 8.55195 2.87901 8.31755C3.25991 8.05385 3.86057 7.922 4.68098 7.922C5.29629 7.922 5.75044 7.96595 6.04345 8.05385C6.36575 8.11245 6.6148 8.215 6.79061 8.3615C6.96641 8.4787 7.14221 8.63985 7.31801 8.84495L18.0419 23.8321H17.0311L27.799 8.80101C28.0041 8.5666 28.2092 8.3908 28.4143 8.2736C28.6194 8.1564 28.8831 8.0685 29.2054 8.0099C29.5277 7.9513 29.9525 7.922 30.4799 7.922C31.271 7.922 31.8571 8.05385 32.238 8.31755C32.6189 8.55195 32.8533 8.87426 32.9412 9.28446C33.0584 9.69466 33.117 10.1488 33.117 10.6469V36.0064C33.117 36.4459 33.0584 36.8707 32.9412 37.2809C32.8533 37.6911 32.6189 38.0134 32.238 38.2478C31.8571 38.4822 31.2564 38.5994 30.436 38.5994C29.6449 38.5994 29.0589 38.4676 28.678 38.2039C28.2971 37.9695 28.048 37.6472 27.9308 37.237C27.8429 36.8268 27.799 36.3873 27.799 35.9185V17.0637L19.8 28.6227C19.7121 28.7399 19.5802 28.901 19.4044 29.1061C19.2286 29.2819 18.9942 29.4431 18.7012 29.5896C18.4082 29.7361 18.0126 29.8093 17.5145 29.8093C17.0457 29.8093 16.6648 29.7361 16.3718 29.5896C16.0788 29.4431 15.8444 29.2819 15.6686 29.1061C15.5221 28.9303 15.3756 28.7545 15.2291 28.5787L7.27406 17.0637V36.0064C7.27406 36.4459 7.21546 36.8707 7.09826 37.2809C7.01036 37.6911 6.77596 38.0134 6.39505 38.2478C6.01415 38.4822 5.41349 38.5994 4.59308 38.5994Z" fill="#27235C" stroke="#27235C" stroke-width="0.4"/>
</svg>
