<svg width="110" height="110" viewBox="0 0 110 110" fill="none" xmlns="http://www.w3.org/2000/svg">
<path d="M50.6553 71.3101C50.6553 70.8721 51.0104 70.517 51.4484 70.517H106.172C106.61 70.517 106.965 70.8721 106.965 71.3101V71.3101C106.965 71.7482 106.61 72.1032 106.172 72.1032H51.4484C51.0104 72.1032 50.6553 71.7482 50.6553 71.3101V71.3101Z" fill="#FFBB00"/>
<path d="M6.06076 65.4617V63.5418C5.74242 63.0492 5.44253 62.5634 5.16109 62.0846C4.87966 61.6058 4.61437 61.1362 4.36523 60.6758H5.15417C5.32949 61.0533 5.52557 61.4378 5.74242 61.8291C5.95926 62.2158 6.18302 62.5888 6.4137 62.9479C6.63977 62.5888 6.86123 62.2158 7.07807 61.8291C7.29492 61.4378 7.4933 61.0533 7.67324 60.6758H8.42065C8.17151 61.1362 7.90623 61.6058 7.62479 62.0846C7.34336 62.5588 7.04578 63.04 6.73205 63.528V65.4617H6.06076Z" fill="#27235C"/>
<path d="M11.852 63.6661C11.852 63.9516 11.8105 64.2094 11.7275 64.4396C11.6444 64.6698 11.5268 64.8678 11.3745 65.0335C11.2269 65.1992 11.0493 65.3282 10.8416 65.4202C10.634 65.5077 10.408 65.5515 10.1634 65.5515C9.91891 65.5515 9.69284 65.5077 9.48522 65.4202C9.27761 65.3282 9.09767 65.1992 8.94542 65.0335C8.79778 64.8678 8.68244 64.6698 8.5994 64.4396C8.51635 64.2094 8.47483 63.9516 8.47483 63.6661C8.47483 63.3853 8.51635 63.1297 8.5994 62.8995C8.68244 62.6647 8.79778 62.4645 8.94542 62.2987C9.09767 62.133 9.27761 62.0064 9.48522 61.9189C9.69284 61.8268 9.91891 61.7808 10.1634 61.7808C10.408 61.7808 10.634 61.8268 10.8416 61.9189C11.0493 62.0064 11.2269 62.133 11.3745 62.2987C11.5268 62.4645 11.6444 62.6647 11.7275 62.8995C11.8105 63.1297 11.852 63.3853 11.852 63.6661ZM11.1807 63.6661C11.1807 63.261 11.0885 62.941 10.9039 62.7062C10.724 62.4668 10.4772 62.3471 10.1634 62.3471C9.8497 62.3471 9.60056 62.4668 9.41602 62.7062C9.23608 62.941 9.14612 63.261 9.14612 63.6661C9.14612 64.0713 9.23608 64.3935 9.41602 64.633C9.60056 64.8678 9.8497 64.9852 10.1634 64.9852C10.4772 64.9852 10.724 64.8678 10.9039 64.633C11.0885 64.3935 11.1807 64.0713 11.1807 63.6661Z" fill="#27235C"/>
<path d="M15.6226 65.3581C15.475 65.3949 15.2789 65.4341 15.0344 65.4755C14.7945 65.5169 14.5153 65.5376 14.197 65.5376C13.9202 65.5376 13.6872 65.4985 13.498 65.4202C13.3089 65.3374 13.1566 65.2223 13.0413 65.0749C12.9259 64.9276 12.8429 64.755 12.7921 64.557C12.7414 64.3544 12.716 64.1311 12.716 63.8871V61.8705H13.3596V63.749C13.3596 64.1864 13.4288 64.4994 13.5672 64.6882C13.7056 64.877 13.9386 64.9713 14.2662 64.9713C14.3354 64.9713 14.4069 64.969 14.4807 64.9644C14.5546 64.9598 14.6238 64.9552 14.6884 64.9506C14.753 64.9414 14.8106 64.9345 14.8614 64.9299C14.9167 64.9207 14.956 64.9115 14.979 64.9023V61.8705H15.6226V65.3581Z" fill="#27235C"/>
<path d="M18.0602 61.7946C18.1155 61.7946 18.1778 61.7992 18.247 61.8084C18.3208 61.813 18.3923 61.8222 18.4616 61.836C18.5308 61.8452 18.593 61.8567 18.6484 61.8705C18.7084 61.8798 18.7522 61.889 18.7799 61.8982L18.6692 62.4576C18.6184 62.4391 18.5331 62.4184 18.4131 62.3954C18.2978 62.3678 18.1478 62.354 17.9633 62.354C17.8433 62.354 17.7234 62.3678 17.6034 62.3954C17.4881 62.4184 17.4119 62.4345 17.375 62.4437V65.4617H16.7314V62.0225C16.8837 61.9672 17.0728 61.9166 17.2989 61.8705C17.525 61.8199 17.7787 61.7946 18.0602 61.7946Z" fill="#27235C"/>
<path d="M24.0615 60.6758H24.7328V65.4617H24.0615V63.2517H21.7155V65.4617H21.0442V60.6758H21.7155V62.6716H24.0615V60.6758Z" fill="#27235C"/>
<path d="M29.0587 63.6661C29.0587 63.9516 29.0172 64.2094 28.9341 64.4396C28.8511 64.6698 28.7334 64.8678 28.5812 65.0335C28.4335 65.1992 28.2559 65.3282 28.0483 65.4202C27.8407 65.5077 27.6146 65.5515 27.3701 65.5515C27.1256 65.5515 26.8995 65.5077 26.6919 65.4202C26.4843 65.3282 26.3043 65.1992 26.1521 65.0335C26.0044 64.8678 25.8891 64.6698 25.806 64.4396C25.723 64.2094 25.6815 63.9516 25.6815 63.6661C25.6815 63.3853 25.723 63.1297 25.806 62.8995C25.8891 62.6647 26.0044 62.4645 26.1521 62.2987C26.3043 62.133 26.4843 62.0064 26.6919 61.9189C26.8995 61.8268 27.1256 61.7808 27.3701 61.7808C27.6146 61.7808 27.8407 61.8268 28.0483 61.9189C28.2559 62.0064 28.4335 62.133 28.5812 62.2987C28.7334 62.4645 28.8511 62.6647 28.9341 62.8995C29.0172 63.1297 29.0587 63.3853 29.0587 63.6661ZM28.3874 63.6661C28.3874 63.261 28.2951 62.941 28.1106 62.7062C27.9306 62.4668 27.6838 62.3471 27.3701 62.3471C27.0564 62.3471 26.8072 62.4668 26.6227 62.7062C26.4427 62.941 26.3528 63.261 26.3528 63.6661C26.3528 64.0713 26.4427 64.3935 26.6227 64.633C26.8072 64.8678 27.0564 64.9852 27.3701 64.9852C27.6838 64.9852 27.9306 64.8678 28.1106 64.633C28.2951 64.3935 28.3874 64.0713 28.3874 63.6661Z" fill="#27235C"/>
<path d="M30.8016 64.999C31.0646 64.999 31.2583 64.9644 31.3829 64.8954C31.5121 64.8263 31.5767 64.7158 31.5767 64.5639C31.5767 64.4074 31.5144 64.283 31.3898 64.191C31.2652 64.0989 31.0599 63.9953 30.7739 63.8802C30.6355 63.8249 30.5017 63.7697 30.3725 63.7145C30.2479 63.6546 30.1395 63.5855 30.0472 63.5073C29.955 63.429 29.8811 63.3346 29.8258 63.2241C29.7704 63.1136 29.7427 62.9778 29.7427 62.8167C29.7427 62.499 29.8604 62.2481 30.0957 62.0639C30.331 61.8751 30.6516 61.7808 31.0576 61.7808C31.1591 61.7808 31.2606 61.7877 31.3621 61.8015C31.4636 61.8107 31.5582 61.8245 31.6459 61.8429C31.7335 61.8567 31.8097 61.8728 31.8743 61.8913C31.9435 61.9097 31.9965 61.9258 32.0334 61.9396L31.9158 62.4921C31.8466 62.4553 31.7382 62.4184 31.5905 62.3816C31.4429 62.3402 31.2652 62.3194 31.0576 62.3194C30.8777 62.3194 30.7208 62.3563 30.587 62.4299C30.4532 62.499 30.3863 62.6095 30.3863 62.7614C30.3863 62.8397 30.4002 62.9087 30.4279 62.9686C30.4602 63.0285 30.5063 63.0837 30.5663 63.1343C30.6309 63.1804 30.7093 63.2241 30.8016 63.2656C30.8938 63.307 31.0046 63.3507 31.1338 63.3968C31.3045 63.4612 31.4567 63.5257 31.5905 63.5901C31.7243 63.65 31.8373 63.7214 31.9296 63.8042C32.0265 63.8871 32.1003 63.9884 32.1511 64.1081C32.2018 64.2232 32.2272 64.3659 32.2272 64.5363C32.2272 64.8678 32.1026 65.1187 31.8535 65.289C31.609 65.4594 31.2583 65.5445 30.8016 65.5445C30.4832 65.5445 30.2341 65.5169 30.0542 65.4617C29.8742 65.411 29.752 65.3719 29.6874 65.3443L29.805 64.7918C29.8788 64.8194 29.9965 64.8609 30.158 64.9161C30.3194 64.9713 30.534 64.999 30.8016 64.999Z" fill="#27235C"/>
<path d="M33.6548 61.8705H35.0182V62.4092H33.6548V64.0667C33.6548 64.2462 33.6687 64.3958 33.6963 64.5156C33.724 64.6307 33.7656 64.7227 33.8209 64.7918C33.8763 64.8562 33.9455 64.9023 34.0285 64.9299C34.1116 64.9575 34.2085 64.9713 34.3192 64.9713C34.513 64.9713 34.6675 64.9506 34.7829 64.9092C34.9028 64.8632 34.9859 64.8309 35.032 64.8125L35.1566 65.3443C35.092 65.3765 34.9789 65.4156 34.8175 65.4617C34.656 65.5123 34.4714 65.5376 34.2638 65.5376C34.0193 65.5376 33.8163 65.5077 33.6548 65.4479C33.498 65.3834 33.3711 65.289 33.2742 65.1647C33.1773 65.0404 33.1081 64.8885 33.0666 64.7089C33.0297 64.5248 33.0112 64.313 33.0112 64.0736V60.8692L33.6548 60.7587V61.8705Z" fill="#27235C"/>
<path d="M36.4808 65.4617H35.8372V61.8705H36.4808V65.4617ZM36.1555 61.2214C36.0402 61.2214 35.941 61.1845 35.8579 61.1109C35.7795 61.0326 35.7403 60.929 35.7403 60.8001C35.7403 60.6712 35.7795 60.5699 35.8579 60.4962C35.941 60.418 36.0402 60.3788 36.1555 60.3788C36.2708 60.3788 36.3677 60.418 36.4462 60.4962C36.5292 60.5699 36.5707 60.6712 36.5707 60.8001C36.5707 60.929 36.5292 61.0326 36.4462 61.1109C36.3677 61.1845 36.2708 61.2214 36.1555 61.2214Z" fill="#27235C"/>
<path d="M37.5876 61.9741C37.7352 61.9373 37.9313 61.8982 38.1758 61.8567C38.4203 61.8153 38.7018 61.7946 39.0201 61.7946C39.3062 61.7946 39.5438 61.836 39.7329 61.9189C39.9221 61.9972 40.072 62.11 40.1828 62.2573C40.2981 62.4 40.3788 62.5727 40.425 62.7752C40.4711 62.9778 40.4942 63.2011 40.4942 63.4451V65.4617H39.8506V63.5832C39.8506 63.3622 39.8344 63.1735 39.8021 63.0169C39.7744 62.8604 39.726 62.7338 39.6568 62.6371C39.5876 62.5404 39.4953 62.4714 39.38 62.4299C39.2646 62.3839 39.1216 62.3609 38.9509 62.3609C38.8817 62.3609 38.8102 62.3632 38.7364 62.3678C38.6626 62.3724 38.591 62.3793 38.5218 62.3885C38.4572 62.3931 38.3973 62.4 38.3419 62.4092C38.2911 62.4184 38.2542 62.4253 38.2312 62.4299V65.4617H37.5876V61.9741Z" fill="#27235C"/>
<path d="M43.8175 65.1026C43.7622 65.1394 43.6538 65.1877 43.4923 65.2476C43.3354 65.3028 43.1509 65.3305 42.9386 65.3305C42.7218 65.3305 42.5165 65.2959 42.3227 65.2269C42.1335 65.1578 41.9675 65.0519 41.8244 64.9092C41.6814 64.7619 41.5684 64.58 41.4853 64.3636C41.4023 64.1472 41.3608 63.8894 41.3608 63.5901C41.3608 63.3277 41.4 63.0883 41.4784 62.8719C41.5568 62.6509 41.6699 62.4622 41.8175 62.3056C41.9698 62.1445 42.1543 62.0202 42.3711 61.9327C42.588 61.8406 42.8325 61.7946 43.1047 61.7946C43.4046 61.7946 43.6653 61.8176 43.8867 61.8636C44.1128 61.9051 44.302 61.9442 44.4542 61.981V65.1854C44.4542 65.7379 44.3112 66.1385 44.0252 66.3871C43.7391 66.6357 43.3054 66.76 42.7241 66.76C42.498 66.76 42.2835 66.7416 42.0805 66.7048C41.8821 66.6679 41.7091 66.6242 41.5615 66.5735L41.6791 66.0142C41.8083 66.0648 41.9651 66.1085 42.1497 66.1454C42.3389 66.1868 42.5349 66.2075 42.7379 66.2075C43.1209 66.2075 43.3954 66.1316 43.5615 65.9796C43.7322 65.8277 43.8175 65.586 43.8175 65.2545V65.1026ZM43.8106 62.4368C43.746 62.4184 43.6584 62.4023 43.5476 62.3885C43.4415 62.3701 43.2962 62.3609 43.1116 62.3609C42.7656 62.3609 42.498 62.4737 42.3089 62.6993C42.1243 62.9249 42.032 63.2241 42.032 63.5971C42.032 63.8042 42.0574 63.9815 42.1082 64.1288C42.1635 64.2761 42.235 64.3981 42.3227 64.4948C42.415 64.5915 42.5188 64.6629 42.6341 64.7089C42.7541 64.755 42.8763 64.778 43.0009 64.778C43.1716 64.778 43.3285 64.755 43.4715 64.7089C43.6145 64.6583 43.7276 64.6007 43.8106 64.5363V62.4368Z" fill="#27235C"/>
<path d="M46.2406 64.6744C46.2452 64.7112 46.2475 64.7481 46.2475 64.7849C46.2475 64.8171 46.2475 64.8516 46.2475 64.8885C46.2475 65.1785 46.2037 65.464 46.116 65.7448C46.033 66.0303 45.9176 66.3019 45.77 66.5597L45.2717 66.4009C45.387 66.1661 45.4632 65.9267 45.5001 65.6827C45.537 65.4433 45.5554 65.2177 45.5554 65.0059C45.5554 64.946 45.5531 64.8885 45.5485 64.8332C45.5485 64.778 45.5462 64.725 45.5416 64.6744H46.2406Z" fill="#27235C"/>
<path d="M48.7149 63.0653C48.7149 62.6555 48.7749 62.2941 48.8949 61.981C49.0194 61.668 49.1855 61.4078 49.3931 61.2007C49.6054 60.9889 49.8499 60.83 50.1267 60.7241C50.4081 60.6182 50.7057 60.5653 51.0195 60.5653C51.3286 60.5653 51.6192 60.6182 51.8914 60.7241C52.1683 60.83 52.4105 60.9889 52.6181 61.2007C52.8257 61.4078 52.9895 61.668 53.1095 61.981C53.234 62.2941 53.2963 62.6555 53.2963 63.0653C53.2963 63.475 53.234 63.8365 53.1095 64.1495C52.9895 64.4626 52.8257 64.725 52.6181 64.9368C52.4105 65.144 52.1683 65.3005 51.8914 65.4064C51.6192 65.5123 51.3286 65.5653 51.0195 65.5653C50.7057 65.5653 50.4081 65.5123 50.1267 65.4064C49.8499 65.3005 49.6054 65.144 49.3931 64.9368C49.1855 64.725 49.0194 64.4626 48.8949 64.1495C48.7749 63.8365 48.7149 63.475 48.7149 63.0653ZM49.4208 63.0653C49.4208 63.3553 49.4577 63.6201 49.5316 63.8595C49.6054 64.0943 49.7092 64.2946 49.843 64.4603C49.9814 64.626 50.1475 64.755 50.3412 64.847C50.5396 64.9345 50.7611 64.9783 51.0056 64.9783C51.2501 64.9783 51.4693 64.9345 51.6631 64.847C51.8568 64.755 52.0206 64.626 52.1544 64.4603C52.2928 64.2946 52.3989 64.0943 52.4728 63.8595C52.5466 63.6201 52.5835 63.3553 52.5835 63.0653C52.5835 62.7752 52.5466 62.5128 52.4728 62.278C52.3989 62.0386 52.2928 61.836 52.1544 61.6703C52.0206 61.5045 51.8568 61.3779 51.6631 61.2904C51.4693 61.1984 51.2501 61.1523 51.0056 61.1523C50.7611 61.1523 50.5396 61.1984 50.3412 61.2904C50.1475 61.3779 49.9814 61.5045 49.843 61.6703C49.7092 61.836 49.6054 62.0386 49.5316 62.278C49.4577 62.5128 49.4208 62.7752 49.4208 63.0653Z" fill="#27235C"/>
<path d="M57.1186 65.3581C56.971 65.3949 56.7749 65.4341 56.5304 65.4755C56.2905 65.5169 56.0114 65.5376 55.693 65.5376C55.4162 65.5376 55.1832 65.4985 54.994 65.4202C54.8049 65.3374 54.6526 65.2223 54.5373 65.0749C54.422 64.9276 54.3389 64.755 54.2882 64.557C54.2374 64.3544 54.212 64.1311 54.212 63.8871V61.8705H54.8556V63.749C54.8556 64.1864 54.9248 64.4994 55.0633 64.6882C55.2017 64.877 55.4347 64.9713 55.7622 64.9713C55.8314 64.9713 55.9029 64.969 55.9768 64.9644C56.0506 64.9598 56.1198 64.9552 56.1844 64.9506C56.249 64.9414 56.3066 64.9345 56.3574 64.9299C56.4128 64.9207 56.452 64.9115 56.475 64.9023V61.8705H57.1186V65.3581Z" fill="#27235C"/>
<path d="M59.5562 61.7946C59.6115 61.7946 59.6738 61.7992 59.743 61.8084C59.8168 61.813 59.8884 61.8222 59.9576 61.836C60.0268 61.8452 60.0891 61.8567 60.1444 61.8705C60.2044 61.8798 60.2482 61.889 60.2759 61.8982L60.1652 62.4576C60.1144 62.4391 60.0291 62.4184 59.9091 62.3954C59.7938 62.3678 59.6438 62.354 59.4593 62.354C59.3393 62.354 59.2194 62.3678 59.0994 62.3954C58.9841 62.4184 58.908 62.4345 58.871 62.4437V65.4617H58.2274V62.0225C58.3797 61.9672 58.5688 61.9166 58.7949 61.8705C59.021 61.8199 59.2747 61.7946 59.5562 61.7946Z" fill="#27235C"/>
<path d="M64.8863 63.4589C64.9601 63.551 65.0524 63.673 65.1631 63.8249C65.2784 63.9723 65.3961 64.138 65.516 64.3222C65.636 64.5017 65.7536 64.6905 65.869 64.8885C65.9889 65.0864 66.0904 65.2775 66.1735 65.4617H65.4399C65.3476 65.2867 65.2461 65.1095 65.1354 64.9299C65.0293 64.7504 64.9209 64.58 64.8101 64.4189C64.6994 64.2531 64.5887 64.0989 64.478 63.9562C64.3718 63.8134 64.275 63.6891 64.1873 63.5832C64.1273 63.5878 64.065 63.5901 64.0004 63.5901C63.9405 63.5901 63.8782 63.5901 63.8136 63.5901H63.2115V65.4617H62.5402V60.7449C62.7294 60.6988 62.9393 60.6689 63.17 60.6551C63.4053 60.6367 63.6198 60.6275 63.8136 60.6275C64.4872 60.6275 64.9993 60.7541 65.3499 61.0073C65.7052 61.2605 65.8828 61.638 65.8828 62.1399C65.8828 62.4576 65.7975 62.7292 65.6268 62.9548C65.4607 63.1804 65.2138 63.3484 64.8863 63.4589ZM63.8689 61.2145C63.5829 61.2145 63.3637 61.2214 63.2115 61.2352V63.0377H63.689C63.9197 63.0377 64.1273 63.0262 64.3119 63.0031C64.4964 62.9801 64.651 62.9364 64.7755 62.8719C64.9047 62.8075 65.0039 62.7177 65.0731 62.6026C65.1423 62.4829 65.1769 62.3263 65.1769 62.133C65.1769 61.9534 65.1423 61.8038 65.0731 61.6841C65.0039 61.5644 64.9093 61.47 64.7894 61.4009C64.674 61.3319 64.5356 61.2835 64.3742 61.2559C64.2173 61.2283 64.0489 61.2145 63.8689 61.2145Z" fill="#27235C"/>
<path d="M66.6503 63.673C66.6503 63.3553 66.6965 63.0791 66.7888 62.8443C66.881 62.6049 67.0033 62.4069 67.1555 62.2504C67.3078 62.0938 67.4831 61.9764 67.6815 61.8982C67.8799 61.8199 68.0829 61.7808 68.2905 61.7808C68.7749 61.7808 69.1463 61.9327 69.4047 62.2366C69.6631 62.5358 69.7923 62.9939 69.7923 63.6109C69.7923 63.6385 69.7923 63.6753 69.7923 63.7214C69.7923 63.7628 69.79 63.8019 69.7853 63.8388H67.3216C67.3493 64.2117 67.4577 64.4948 67.6469 64.6882C67.8361 64.8816 68.1313 64.9783 68.5327 64.9783C68.7588 64.9783 68.948 64.9598 69.1002 64.923C69.2571 64.8816 69.3747 64.8424 69.4532 64.8056L69.5431 65.3443C69.4647 65.3857 69.3263 65.4294 69.1279 65.4755C68.9341 65.5215 68.7127 65.5445 68.4635 65.5445C68.1498 65.5445 67.8776 65.4985 67.6469 65.4064C67.4208 65.3097 67.234 65.1785 67.0863 65.0128C66.9387 64.847 66.828 64.6514 66.7542 64.4258C66.6849 64.1956 66.6503 63.9447 66.6503 63.673ZM69.121 63.3208C69.1256 63.0308 69.0518 62.7936 68.8995 62.6095C68.7519 62.4207 68.5466 62.3263 68.2836 62.3263C68.1359 62.3263 68.0045 62.3563 67.8891 62.4161C67.7784 62.4714 67.6838 62.545 67.6054 62.6371C67.5269 62.7292 67.4647 62.8351 67.4185 62.9548C67.377 63.0745 67.3493 63.1965 67.3355 63.3208H69.121Z" fill="#27235C"/>
<path d="M71.5542 64.999C71.8172 64.999 72.0109 64.9644 72.1355 64.8954C72.2647 64.8263 72.3293 64.7158 72.3293 64.5639C72.3293 64.4074 72.267 64.283 72.1424 64.191C72.0178 64.0989 71.8125 63.9953 71.5265 63.8802C71.3881 63.8249 71.2543 63.7697 71.1251 63.7145C71.0005 63.6546 70.8921 63.5855 70.7998 63.5073C70.7076 63.429 70.6337 63.3346 70.5784 63.2241C70.523 63.1136 70.4953 62.9778 70.4953 62.8167C70.4953 62.499 70.613 62.2481 70.8483 62.0639C71.0836 61.8751 71.4042 61.7808 71.8102 61.7808C71.9117 61.7808 72.0132 61.7877 72.1147 61.8015C72.2162 61.8107 72.3108 61.8245 72.3985 61.8429C72.4861 61.8567 72.5623 61.8728 72.6269 61.8913C72.6961 61.9097 72.7491 61.9258 72.786 61.9396L72.6684 62.4921C72.5992 62.4553 72.4908 62.4184 72.3431 62.3816C72.1955 62.3402 72.0179 62.3194 71.8102 62.3194C71.6303 62.3194 71.4734 62.3563 71.3396 62.4299C71.2058 62.499 71.1389 62.6095 71.1389 62.7614C71.1389 62.8397 71.1528 62.9087 71.1805 62.9686C71.2128 63.0285 71.2589 63.0837 71.3189 63.1343C71.3835 63.1804 71.4619 63.2241 71.5542 63.2656C71.6465 63.307 71.7572 63.3507 71.8864 63.3968C72.0571 63.4612 72.2093 63.5257 72.3431 63.5901C72.4769 63.65 72.5899 63.7214 72.6822 63.8042C72.7791 63.8871 72.8529 63.9884 72.9037 64.1081C72.9544 64.2232 72.9798 64.3659 72.9798 64.5363C72.9798 64.8678 72.8552 65.1187 72.6061 65.289C72.3616 65.4594 72.0109 65.5445 71.5542 65.5445C71.2358 65.5445 70.9867 65.5169 70.8068 65.4617C70.6268 65.411 70.5046 65.3719 70.44 65.3443L70.5576 64.7918C70.6314 64.8194 70.7491 64.8609 70.9106 64.9161C71.072 64.9713 71.2866 64.999 71.5542 64.999Z" fill="#27235C"/>
<path d="M76.3036 63.673C76.3036 63.2541 76.1998 62.9318 75.9922 62.7062C75.7846 62.4806 75.5078 62.3678 75.1618 62.3678C74.968 62.3678 74.8157 62.3747 74.705 62.3885C74.5989 62.4023 74.5135 62.4184 74.4489 62.4368V64.702C74.5274 64.7665 74.6404 64.8286 74.7881 64.8885C74.9357 64.9483 75.0972 64.9783 75.2725 64.9783C75.457 64.9783 75.6139 64.946 75.7431 64.8816C75.8769 64.8125 75.9853 64.7204 76.0683 64.6053C76.1514 64.4856 76.2114 64.3475 76.2483 64.191C76.2852 64.0298 76.3036 63.8572 76.3036 63.673ZM76.9749 63.673C76.9749 63.9447 76.938 64.1956 76.8642 64.4258C76.795 64.656 76.6912 64.8539 76.5528 65.0197C76.4144 65.1854 76.2437 65.3143 76.0407 65.4064C75.8423 65.4985 75.6139 65.5445 75.3555 65.5445C75.1479 65.5445 74.9634 65.5169 74.8019 65.4617C74.645 65.4064 74.5274 65.3535 74.4489 65.3028V66.7393H73.8053V61.981C73.9576 61.9442 74.1467 61.9051 74.3728 61.8636C74.6035 61.8176 74.8688 61.7946 75.1687 61.7946C75.4455 61.7946 75.6946 61.8383 75.9161 61.9258C76.1376 62.0133 76.3267 62.1376 76.4836 62.2987C76.6404 62.4599 76.7604 62.6578 76.8434 62.8926C76.9311 63.1228 76.9749 63.383 76.9749 63.673Z" fill="#27235C"/>
<path d="M81.0571 63.6661C81.0571 63.9516 81.0156 64.2094 80.9325 64.4396C80.8495 64.6698 80.7319 64.8678 80.5796 65.0335C80.432 65.1992 80.2543 65.3282 80.0467 65.4202C79.8391 65.5077 79.613 65.5515 79.3685 65.5515C79.124 65.5515 78.8979 65.5077 78.6903 65.4202C78.4827 65.3282 78.3028 65.1992 78.1505 65.0335C78.0029 64.8678 77.8875 64.6698 77.8045 64.4396C77.7214 64.2094 77.6799 63.9516 77.6799 63.6661C77.6799 63.3853 77.7214 63.1297 77.8045 62.8995C77.8875 62.6647 78.0029 62.4645 78.1505 62.2987C78.3028 62.133 78.4827 62.0064 78.6903 61.9189C78.8979 61.8268 79.124 61.7808 79.3685 61.7808C79.613 61.7808 79.8391 61.8268 80.0467 61.9189C80.2543 62.0064 80.432 62.133 80.5796 62.2987C80.7319 62.4645 80.8495 62.6647 80.9325 62.8995C81.0156 63.1297 81.0571 63.3853 81.0571 63.6661ZM80.3858 63.6661C80.3858 63.261 80.2935 62.941 80.109 62.7062C79.9291 62.4668 79.6822 62.3471 79.3685 62.3471C79.0548 62.3471 78.8056 62.4668 78.6211 62.7062C78.4412 62.941 78.3512 63.261 78.3512 63.6661C78.3512 64.0713 78.4412 64.3935 78.6211 64.633C78.8056 64.8678 79.0548 64.9852 79.3685 64.9852C79.6822 64.9852 79.9291 64.8678 80.109 64.633C80.2935 64.3935 80.3858 64.0713 80.3858 63.6661Z" fill="#27235C"/>
<path d="M81.9626 61.9741C82.1103 61.9373 82.3063 61.8982 82.5509 61.8567C82.7954 61.8153 83.0768 61.7946 83.3952 61.7946C83.6812 61.7946 83.9188 61.836 84.108 61.9189C84.2971 61.9972 84.4471 62.11 84.5578 62.2573C84.6732 62.4 84.7539 62.5727 84.8 62.7752C84.8462 62.9778 84.8692 63.2011 84.8692 63.4451V65.4617H84.2256V63.5832C84.2256 63.3622 84.2095 63.1735 84.1772 63.0169C84.1495 62.8604 84.1011 62.7338 84.0318 62.6371C83.9626 62.5404 83.8704 62.4714 83.755 62.4299C83.6397 62.3839 83.4967 62.3609 83.326 62.3609C83.2568 62.3609 83.1852 62.3632 83.1114 62.3678C83.0376 62.3724 82.9661 62.3793 82.8969 62.3885C82.8323 62.3931 82.7723 62.4 82.717 62.4092C82.6662 62.4184 82.6293 62.4253 82.6062 62.4299V65.4617H81.9626V61.9741Z" fill="#27235C"/>
<path d="M86.7739 64.999C87.0369 64.999 87.2306 64.9644 87.3552 64.8954C87.4844 64.8263 87.549 64.7158 87.549 64.5639C87.549 64.4074 87.4867 64.283 87.3621 64.191C87.2376 64.0989 87.0323 63.9953 86.7462 63.8802C86.6078 63.8249 86.474 63.7697 86.3448 63.7145C86.2202 63.6546 86.1118 63.5855 86.0196 63.5073C85.9273 63.429 85.8535 63.3346 85.7981 63.2241C85.7427 63.1136 85.715 62.9778 85.715 62.8167C85.715 62.499 85.8327 62.2481 86.068 62.0639C86.3033 61.8751 86.6239 61.7808 87.0299 61.7808C87.1314 61.7808 87.2329 61.7877 87.3345 61.8015C87.436 61.8107 87.5305 61.8245 87.6182 61.8429C87.7058 61.8567 87.782 61.8728 87.8466 61.8913C87.9158 61.9097 87.9688 61.9258 88.0057 61.9396L87.8881 62.4921C87.8189 62.4553 87.7105 62.4184 87.5628 62.3816C87.4152 62.3402 87.2376 62.3194 87.0299 62.3194C86.85 62.3194 86.6931 62.3563 86.5593 62.4299C86.4256 62.499 86.3587 62.6095 86.3587 62.7614C86.3587 62.8397 86.3725 62.9087 86.4002 62.9686C86.4325 63.0285 86.4786 63.0837 86.5386 63.1343C86.6032 63.1804 86.6816 63.2241 86.7739 63.2656C86.8662 63.307 86.9769 63.3507 87.1061 63.3968C87.2768 63.4612 87.429 63.5257 87.5628 63.5901C87.6966 63.65 87.8097 63.7214 87.9019 63.8042C87.9988 63.8871 88.0726 63.9884 88.1234 64.1081C88.1741 64.2232 88.1995 64.3659 88.1995 64.5363C88.1995 64.8678 88.0749 65.1187 87.8258 65.289C87.5813 65.4594 87.2306 65.5445 86.7739 65.5445C86.4555 65.5445 86.2064 65.5169 86.0265 65.4617C85.8465 65.411 85.7243 65.3719 85.6597 65.3443L85.7773 64.7918C85.8511 64.8194 85.9688 64.8609 86.1303 64.9161C86.2918 64.9713 86.5063 64.999 86.7739 64.999Z" fill="#27235C"/>
<path d="M89.6687 65.4617H89.025V61.8705H89.6687V65.4617ZM89.3434 61.2214C89.2281 61.2214 89.1289 61.1845 89.0458 61.1109C88.9674 61.0326 88.9282 60.929 88.9282 60.8001C88.9282 60.6712 88.9674 60.5699 89.0458 60.4962C89.1289 60.418 89.2281 60.3788 89.3434 60.3788C89.4587 60.3788 89.5556 60.418 89.6341 60.4962C89.7171 60.5699 89.7586 60.6712 89.7586 60.8001C89.7586 60.929 89.7171 61.0326 89.6341 61.1109C89.5556 61.1845 89.4587 61.2214 89.3434 61.2214Z" fill="#27235C"/>
<path d="M91.4191 62.0294C91.4975 61.9787 91.6151 61.9258 91.772 61.8705C91.9335 61.8153 92.118 61.7877 92.3256 61.7877C92.584 61.7877 92.8124 61.8337 93.0108 61.9258C93.2138 62.0179 93.3845 62.1468 93.5229 62.3125C93.6613 62.4783 93.7651 62.6762 93.8343 62.9064C93.9081 63.1366 93.945 63.3899 93.945 63.6661C93.945 63.9562 93.9012 64.2186 93.8136 64.4534C93.7305 64.6836 93.6106 64.8793 93.4537 65.0404C93.2968 65.2016 93.1077 65.3259 92.8862 65.4133C92.6648 65.5008 92.4156 65.5445 92.1388 65.5445C91.8389 65.5445 91.5736 65.5238 91.3429 65.4824C91.1122 65.441 90.9231 65.3995 90.7755 65.3581V60.2131L91.4191 60.1026V62.0294ZM91.4191 64.9023C91.4837 64.9207 91.5736 64.9391 91.689 64.9575C91.8089 64.9713 91.9566 64.9783 92.1319 64.9783C92.4779 64.9783 92.7547 64.8655 92.9623 64.6399C93.17 64.4097 93.2738 64.0851 93.2738 63.6661C93.2738 63.4819 93.2553 63.3093 93.2184 63.1482C93.1815 62.987 93.1215 62.8489 93.0385 62.7338C92.9554 62.6141 92.847 62.522 92.7132 62.4576C92.584 62.3885 92.4271 62.354 92.2426 62.354C92.0673 62.354 91.9058 62.3839 91.7582 62.4437C91.6105 62.5036 91.4975 62.5657 91.4191 62.6302V64.9023Z" fill="#27235C"/>
<path d="M95.4943 65.4617H94.8507V61.8705H95.4943V65.4617ZM95.1691 61.2214C95.0537 61.2214 94.9545 61.1845 94.8715 61.1109C94.793 61.0326 94.7538 60.929 94.7538 60.8001C94.7538 60.6712 94.793 60.5699 94.8715 60.4962C94.9545 60.418 95.0537 60.3788 95.1691 60.3788C95.2844 60.3788 95.3813 60.418 95.4597 60.4962C95.5428 60.5699 95.5843 60.6712 95.5843 60.8001C95.5843 60.929 95.5428 61.0326 95.4597 61.1109C95.3813 61.1845 95.2844 61.2214 95.1691 61.2214Z" fill="#27235C"/>
<path d="M97.6807 65.5307C97.2839 65.5215 97.0025 65.4364 96.8364 65.2752C96.6703 65.1141 96.5873 64.8632 96.5873 64.5225V60.2131L97.2309 60.1026V64.4189C97.2309 64.5248 97.2401 64.6122 97.2586 64.6813C97.277 64.7504 97.307 64.8056 97.3485 64.847C97.3901 64.8885 97.4454 64.9207 97.5146 64.9437C97.5838 64.9621 97.6692 64.9783 97.7707 64.9921L97.6807 65.5307Z" fill="#27235C"/>
<path d="M99.137 65.4617H98.4934V61.8705H99.137V65.4617ZM98.8118 61.2214C98.6964 61.2214 98.5972 61.1845 98.5142 61.1109C98.4358 61.0326 98.3966 60.929 98.3966 60.8001C98.3966 60.6712 98.4358 60.5699 98.5142 60.4962C98.5972 60.418 98.6964 60.3788 98.8118 60.3788C98.9271 60.3788 99.024 60.418 99.1024 60.4962C99.1855 60.5699 99.227 60.6712 99.227 60.8001C99.227 60.929 99.1855 61.0326 99.1024 61.1109C99.024 61.1845 98.9271 61.2214 98.8118 61.2214Z" fill="#27235C"/>
<path d="M100.846 61.8705H102.209V62.4092H100.846V64.0667C100.846 64.2462 100.86 64.3958 100.887 64.5156C100.915 64.6307 100.957 64.7227 101.012 64.7918C101.067 64.8562 101.137 64.9023 101.22 64.9299C101.303 64.9575 101.4 64.9713 101.51 64.9713C101.704 64.9713 101.859 64.9506 101.974 64.9092C102.094 64.8632 102.177 64.8309 102.223 64.8125L102.348 65.3443C102.283 65.3765 102.17 65.4156 102.009 65.4617C101.847 65.5123 101.663 65.5376 101.455 65.5376C101.21 65.5376 101.007 65.5077 100.846 65.4479C100.689 65.3834 100.562 65.289 100.465 65.1647C100.368 65.0404 100.299 64.8885 100.258 64.7089C100.221 64.5248 100.202 64.313 100.202 64.0736V60.8692L100.846 60.7587V61.8705Z" fill="#27235C"/>
<path d="M102.606 66.1316C102.657 66.1546 102.721 66.1753 102.8 66.1937C102.883 66.2167 102.964 66.2282 103.042 66.2282C103.296 66.2282 103.494 66.1707 103.637 66.0556C103.78 65.9451 103.909 65.7632 104.025 65.51C103.734 64.9575 103.462 64.3728 103.208 63.7559C102.959 63.1343 102.751 62.5059 102.585 61.8705H103.277C103.328 62.0777 103.388 62.301 103.457 62.5404C103.531 62.7798 103.612 63.0262 103.7 63.2794C103.787 63.5326 103.882 63.7858 103.983 64.039C104.085 64.2923 104.191 64.5363 104.302 64.7711C104.477 64.2877 104.629 63.8088 104.758 63.3346C104.888 62.8604 105.01 62.3724 105.125 61.8705H105.79C105.623 62.5473 105.439 63.1988 105.236 63.8249C105.033 64.4465 104.814 65.0289 104.578 65.5722C104.486 65.7794 104.389 65.9566 104.288 66.1039C104.191 66.2559 104.082 66.3802 103.963 66.4769C103.843 66.5735 103.706 66.6449 103.554 66.691C103.407 66.737 103.238 66.76 103.049 66.76C102.998 66.76 102.945 66.7554 102.89 66.7462C102.834 66.7416 102.779 66.7324 102.724 66.7186C102.673 66.7094 102.625 66.6979 102.578 66.684C102.537 66.6702 102.507 66.6587 102.488 66.6495L102.606 66.1316Z" fill="#27235C"/>
<path d="M107.041 65.0888C107.041 65.2131 106.999 65.3213 106.916 65.4133C106.833 65.5054 106.72 65.5515 106.577 65.5515C106.434 65.5515 106.321 65.5054 106.238 65.4133C106.155 65.3213 106.113 65.2131 106.113 65.0888C106.113 64.9644 106.155 64.8562 106.238 64.7642C106.321 64.6721 106.434 64.626 106.577 64.626C106.72 64.626 106.833 64.6721 106.916 64.7642C106.999 64.8562 107.041 64.9644 107.041 65.0888Z" fill="#27235C"/>
<path d="M101.455 55.4141C100.664 55.4141 99.9531 55.2607 99.3233 54.9539C98.7097 54.6309 98.1849 54.195 97.7489 53.6459C97.3291 53.0969 97.0061 52.4672 96.7801 51.7567C96.5701 51.03 96.4652 50.255 96.4652 49.4314C96.4813 48.6079 96.6024 47.8409 96.8285 47.1304C97.0546 46.4038 97.3775 45.774 97.7973 45.2411C98.2333 44.6921 98.7581 44.2642 99.3717 43.9574C99.9853 43.6506 100.68 43.4972 101.455 43.4972C102.198 43.4972 102.892 43.6506 103.538 43.9574C104.2 44.2642 104.781 44.6921 105.282 45.2411C105.798 45.774 106.202 46.4038 106.493 47.1304C106.783 47.8409 106.929 48.5998 106.929 49.4072C106.929 50.2469 106.783 51.0381 106.493 51.7809C106.202 52.5075 105.807 53.1454 105.306 53.6944C104.805 54.2273 104.224 54.6471 103.562 54.9539C102.9 55.2607 102.198 55.4141 101.455 55.4141ZM101.067 52.5802C101.632 52.5802 102.141 52.451 102.593 52.1927C103.045 51.9182 103.401 51.5468 103.659 51.0785C103.933 50.6102 104.071 50.0773 104.071 49.4799C104.071 48.8663 103.933 48.3253 103.659 47.8571C103.401 47.3726 103.045 47.0012 102.593 46.7429C102.141 46.4684 101.632 46.3311 101.067 46.3311C100.518 46.3311 100.018 46.4684 99.5655 46.7429C99.1134 47.0174 98.7501 47.3888 98.4756 47.8571C98.2172 48.3253 98.088 48.8663 98.088 49.4799C98.088 50.0773 98.2172 50.6102 98.4756 51.0785C98.7501 51.5468 99.1134 51.9182 99.5655 52.1927C100.018 52.451 100.518 52.5802 101.067 52.5802ZM96.5863 55.4383C96.1503 55.4383 95.8274 55.3657 95.6174 55.2203C95.4075 55.0912 95.2783 54.9216 95.2299 54.7117C95.1814 54.4856 95.1572 54.2353 95.1572 53.9608V39.5249C95.1572 39.2504 95.1814 39.0082 95.2299 38.7983C95.2783 38.5722 95.4075 38.3946 95.6174 38.2654C95.8274 38.1362 96.1503 38.0716 96.5863 38.0716C97.0384 38.0716 97.3614 38.1362 97.5551 38.2654C97.7489 38.3946 97.87 38.5722 97.9185 38.7983C97.9669 39.0243 97.9911 39.2666 97.9911 39.5249V54.4452C97.9265 54.8005 97.7893 55.0508 97.5794 55.1961C97.3856 55.3576 97.0546 55.4383 96.5863 55.4383Z" fill="#27235C" stroke="#27235C" stroke-width="0.2"/>
<path d="M87.9372 55.584C86.8876 55.584 85.9672 55.4144 85.176 55.0753C84.4009 54.7362 83.7469 54.276 83.214 53.6947C82.6973 53.0973 82.3017 52.4352 82.0272 51.7086C81.7688 50.9658 81.6396 50.1988 81.6396 49.4076C81.6396 48.2449 81.9061 47.2115 82.439 46.3072C82.9718 45.403 83.7065 44.6925 84.6431 44.1757C85.5958 43.659 86.6858 43.4007 87.913 43.4007C88.7849 43.4007 89.552 43.5379 90.214 43.8124C90.8761 44.0869 91.4251 44.4503 91.8611 44.9024C92.3132 45.3384 92.6523 45.8228 92.8784 46.3557C93.1206 46.8885 93.2417 47.4053 93.2417 47.9058C93.2417 48.7616 93.0318 49.3833 92.6119 49.7709C92.2082 50.1584 91.6996 50.3522 91.086 50.3522H84.6915C84.7077 50.9012 84.8772 51.3776 85.2002 51.7812C85.5393 52.1849 85.9591 52.4998 86.4597 52.7259C86.9764 52.9358 87.5012 53.0407 88.0341 53.0407C88.4378 53.0407 88.793 53.0165 89.0998 52.9681C89.4228 52.9196 89.6973 52.8631 89.9234 52.7985C90.1494 52.7178 90.3432 52.6371 90.5047 52.5563C90.6823 52.4756 90.8438 52.4029 90.9891 52.3383C91.1344 52.2737 91.2717 52.2334 91.4009 52.2172C91.5785 52.2011 91.7561 52.2414 91.9337 52.3383C92.1113 52.4352 92.2567 52.6048 92.3697 52.847C92.4666 53.0085 92.5312 53.1619 92.5635 53.3072C92.6119 53.4364 92.6361 53.5655 92.6361 53.6947C92.6361 54.0177 92.4424 54.3245 92.0548 54.6151C91.6673 54.8896 91.1183 55.1157 90.4078 55.2933C89.7134 55.4871 88.8899 55.584 87.9372 55.584ZM84.6915 48.6325H89.6569C89.9314 48.6325 90.1413 48.5921 90.2867 48.5114C90.432 48.4145 90.5047 48.2207 90.5047 47.9301C90.5047 47.5587 90.3916 47.2276 90.1656 46.937C89.9395 46.6302 89.6327 46.396 89.2452 46.2346C88.8576 46.0569 88.4055 45.9681 87.8888 45.9681C87.2913 45.9681 86.7504 46.0892 86.2659 46.3314C85.7815 46.5575 85.394 46.8724 85.1033 47.2761C84.8288 47.6798 84.6915 48.1319 84.6915 48.6325Z" fill="#27235C" stroke="#27235C" stroke-width="0.2"/>
<path d="M66.2685 55.3666C65.9456 55.3666 65.6872 55.31 65.4934 55.197C65.2997 55.0678 65.1543 54.9225 65.0575 54.761C64.9767 54.5995 64.9202 54.4623 64.8879 54.3493L60.1405 40.4462C59.979 39.9295 59.9548 39.542 60.0679 39.2836C60.1809 39.0091 60.5119 38.783 61.0609 38.6054C61.4323 38.4762 61.7311 38.4197 61.9571 38.4359C62.1832 38.452 62.3689 38.5489 62.5142 38.7265C62.6757 38.888 62.813 39.1463 62.926 39.5016L66.4139 50.0621L69.5384 39.5985C69.5869 39.437 69.6514 39.2755 69.7322 39.1141C69.8291 38.9364 69.9744 38.7911 70.1682 38.6781C70.3619 38.565 70.6284 38.5085 70.9675 38.5085C71.355 38.5085 71.6457 38.5731 71.8394 38.7023C72.0332 38.8315 72.1705 38.9768 72.2512 39.1383C72.3481 39.2836 72.4127 39.4209 72.445 39.55L75.5695 50.1347L79.0816 39.5258C79.1947 39.1544 79.3238 38.8799 79.4692 38.7023C79.6306 38.5247 79.8325 38.4278 80.0747 38.4116C80.3169 38.3793 80.6156 38.4278 80.9709 38.557C81.3423 38.6861 81.6087 38.8315 81.7702 38.9929C81.9317 39.1383 82.0124 39.332 82.0124 39.5743C82.0124 39.8003 81.9559 40.091 81.8429 40.4462L77.1197 54.3735C77.0874 54.4704 77.0228 54.5995 76.9259 54.761C76.8452 54.9225 76.7079 55.0678 76.5142 55.197C76.3204 55.31 76.054 55.3666 75.7149 55.3666C75.3758 55.3666 75.1093 55.2939 74.9156 55.1486C74.7218 55.0032 74.5764 54.8418 74.4796 54.6641C74.3827 54.4865 74.3181 54.3573 74.2858 54.2766L70.9917 43.6192L67.6976 54.2524C67.6653 54.3654 67.6007 54.5107 67.5038 54.6884C67.4231 54.866 67.2858 55.0275 67.0921 55.1728C66.8983 55.302 66.6238 55.3666 66.2685 55.3666Z" fill="#27235C" stroke="#27235C" stroke-width="0.2"/>
<path d="M53.6733 55.5842C53.2535 55.5842 52.8094 55.5358 52.3411 55.4389C51.8728 55.3581 51.4207 55.237 50.9847 55.0756C50.5487 54.8979 50.1693 54.6961 49.8463 54.47C49.5395 54.2278 49.3457 53.9614 49.265 53.6707C49.2004 53.5092 49.1762 53.3558 49.1923 53.2105C49.2085 53.049 49.2569 52.8876 49.3377 52.7261C49.4184 52.5485 49.5395 52.3708 49.701 52.1932C49.8463 52.0156 49.9916 51.9187 50.137 51.9026C50.2985 51.8703 50.5003 51.9187 50.7425 52.0479C50.9524 52.1286 51.1785 52.2336 51.4207 52.3628C51.6791 52.492 51.9374 52.6211 52.1958 52.7503C52.4703 52.8795 52.7448 52.9845 53.0193 53.0652C53.31 53.1459 53.5926 53.1863 53.8671 53.1863C54.4645 53.1863 54.9409 53.0894 55.2961 52.8956C55.6514 52.6857 55.829 52.3951 55.829 52.0237C55.829 51.8138 55.7725 51.6281 55.6594 51.4666C55.5464 51.3051 55.393 51.1759 55.1992 51.079C55.0216 50.966 54.8036 50.8691 54.5453 50.7884C54.303 50.6915 54.0366 50.6108 53.746 50.5462C53.4714 50.4654 53.1808 50.3766 52.874 50.2797C52.4703 50.1667 52.0666 50.0295 51.6629 49.868C51.2592 49.7065 50.8959 49.4966 50.573 49.2382C50.2662 48.9799 50.0159 48.6569 49.8221 48.2694C49.6283 47.8818 49.5314 47.3974 49.5314 46.8161C49.5314 46.0895 49.701 45.4758 50.0401 44.9753C50.3953 44.4585 50.904 44.0629 51.566 43.7884C52.2281 43.5139 53.0274 43.3767 53.964 43.3767C54.2869 43.3767 54.5937 43.4009 54.8844 43.4493C55.1912 43.4978 55.4818 43.5704 55.7563 43.6673C56.047 43.7481 56.3215 43.853 56.5799 43.9822C56.8544 44.1114 57.1127 44.2567 57.3549 44.4182C57.7586 44.6442 57.9685 44.9107 57.9847 45.2175C58.0008 45.5081 57.8878 45.823 57.6456 46.1621C57.468 46.3882 57.2904 46.5497 57.1127 46.6465C56.9351 46.7273 56.7494 46.7273 56.5556 46.6465C56.2973 46.5174 56.0147 46.3801 55.7079 46.2348C55.4172 46.0733 55.1104 45.936 54.7875 45.823C54.4807 45.71 54.1577 45.6535 53.8186 45.6535C53.4957 45.6535 53.205 45.7019 52.9467 45.7988C52.6883 45.8957 52.4945 46.0329 52.3653 46.2106C52.2362 46.3882 52.1716 46.5981 52.1716 46.8403C52.1716 47.0664 52.2362 47.2521 52.3653 47.3974C52.4945 47.5427 52.6641 47.6638 52.874 47.7607C53.0839 47.8576 53.3342 47.9464 53.6249 48.0272C53.9155 48.0917 54.2223 48.1563 54.5453 48.2209C54.9974 48.3178 55.4576 48.4389 55.9259 48.5842C56.3942 48.7296 56.8221 48.9314 57.2096 49.1898C57.6133 49.4481 57.9363 49.7953 58.1785 50.2313C58.4207 50.6511 58.5418 51.2001 58.5418 51.8783C58.5418 53.0571 58.1058 53.9695 57.2338 54.6154C56.378 55.2613 55.1912 55.5842 53.6733 55.5842Z" fill="#27235C" stroke="#27235C" stroke-width="0.2"/>
<path d="M42.239 55.5838C41.1894 55.5838 40.269 55.4143 39.4777 55.0752C38.7026 54.7361 38.0487 54.2759 37.5158 53.6946C36.9991 53.0971 36.6035 52.4351 36.329 51.7084C36.0706 50.9656 35.9414 50.1986 35.9414 49.4074C35.9414 48.2448 36.2078 47.2113 36.7407 46.3071C37.2736 45.4028 38.0083 44.6923 38.9449 44.1756C39.8976 43.6589 40.9875 43.4005 42.2147 43.4005C43.0867 43.4005 43.8537 43.5378 44.5158 43.8123C45.1778 44.0868 45.7268 44.4501 46.1628 44.9022C46.6149 45.3382 46.954 45.8226 47.1801 46.3555C47.4223 46.8884 47.5434 47.4051 47.5434 47.9057C47.5434 48.7615 47.3335 49.3832 46.9137 49.7707C46.51 50.1583 46.0013 50.352 45.3877 50.352H38.9933C39.0094 50.901 39.179 51.3774 39.5019 51.7811C39.841 52.1848 40.2609 52.4997 40.7615 52.7257C41.2782 52.9356 41.803 53.0406 42.3358 53.0406C42.7395 53.0406 43.0948 53.0164 43.4016 52.9679C43.7245 52.9195 43.999 52.863 44.2251 52.7984C44.4512 52.7176 44.6449 52.6369 44.8064 52.5562C44.984 52.4754 45.1455 52.4028 45.2908 52.3382C45.4362 52.2736 45.5734 52.2332 45.7026 52.2171C45.8802 52.2009 46.0579 52.2413 46.2355 52.3382C46.4131 52.4351 46.5584 52.6046 46.6715 52.8468C46.7683 53.0083 46.8329 53.1617 46.8652 53.307C46.9137 53.4362 46.9379 53.5654 46.9379 53.6946C46.9379 54.0175 46.7441 54.3243 46.3566 54.615C45.969 54.8895 45.42 55.1156 44.7095 55.2932C44.0152 55.4869 43.1917 55.5838 42.239 55.5838ZM38.9933 48.6323H43.9587C44.2332 48.6323 44.4431 48.5919 44.5884 48.5112C44.7338 48.4143 44.8064 48.2206 44.8064 47.9299C44.8064 47.5585 44.6934 47.2275 44.4673 46.9368C44.2413 46.63 43.9345 46.3959 43.5469 46.2344C43.1594 46.0568 42.7072 45.968 42.1905 45.968C41.5931 45.968 41.0521 46.0891 40.5677 46.3313C40.0833 46.5574 39.6957 46.8722 39.4051 47.2759C39.1306 47.6796 38.9933 48.1317 38.9933 48.6323Z" fill="#27235C" stroke="#27235C" stroke-width="0.2"/>
<path d="M33.5924 55.4393C32.995 55.4393 32.4621 55.399 31.9938 55.3182C31.5417 55.2375 31.1461 55.1002 30.807 54.9065C30.484 54.7127 30.2176 54.4543 30.0077 54.1314C29.7978 53.7923 29.6363 53.3805 29.5233 52.8961C29.4264 52.4117 29.3779 51.8304 29.3779 51.1522V39.4775C29.3779 39.203 29.4022 38.9608 29.4506 38.7509C29.5152 38.5248 29.6444 38.3472 29.8381 38.218C30.0481 38.0727 30.3791 38 30.8312 38C31.2833 38 31.6063 38.0646 31.8001 38.1938C32.01 38.323 32.1392 38.5006 32.1876 38.7266C32.2522 38.9366 32.2845 39.1788 32.2845 39.4533V51.0311C32.2845 51.3379 32.3006 51.5962 32.3329 51.8062C32.3814 51.9999 32.454 52.1614 32.5509 52.2906C32.664 52.4036 32.8012 52.4843 32.9627 52.5328C33.1403 52.5812 33.3502 52.6055 33.5924 52.6055C33.8024 52.6055 33.9881 52.6297 34.1495 52.6781C34.3272 52.7266 34.4644 52.8477 34.5613 53.0414C34.6743 53.2352 34.7308 53.5501 34.7308 53.9861C34.7308 54.4382 34.6743 54.7692 34.5613 54.9791C34.4644 55.1891 34.3272 55.3182 34.1495 55.3667C33.9719 55.4151 33.7862 55.4393 33.5924 55.4393Z" fill="#27235C" stroke="#27235C" stroke-width="0.2"/>
<path d="M25.3218 55.439C24.8859 55.439 24.5629 55.3664 24.353 55.221C24.1431 55.0919 24.0139 54.9223 23.9654 54.7124C23.917 54.4863 23.8928 54.236 23.8928 53.9615V44.9512C23.8928 44.6928 23.917 44.4587 23.9654 44.2488C24.03 44.0227 24.1592 43.8451 24.353 43.7159C24.5629 43.5867 24.8939 43.5221 25.3461 43.5221C25.7982 43.5221 26.1211 43.5867 26.3149 43.7159C26.5248 43.8451 26.654 44.0227 26.7025 44.2488C26.7509 44.4748 26.7751 44.7251 26.7751 44.9996V53.9858C26.7751 54.2603 26.7509 54.5105 26.7025 54.7366C26.654 54.9465 26.5248 55.1161 26.3149 55.2453C26.1211 55.3744 25.7901 55.439 25.3218 55.439ZM25.3218 41.1727C24.8536 41.1727 24.5064 41.1081 24.2803 40.9789C24.0704 40.8336 23.9332 40.6398 23.8686 40.3976C23.8201 40.1554 23.7959 39.8889 23.7959 39.5983C23.7959 39.2915 23.8201 39.0251 23.8686 38.799C23.9332 38.5729 24.0785 38.3953 24.3045 38.2661C24.5306 38.1208 24.8778 38.0481 25.3461 38.0481C25.8305 38.0481 26.1777 38.1208 26.3876 38.2661C26.5975 38.4114 26.7348 38.6052 26.7993 38.8474C26.8639 39.0735 26.8962 39.3399 26.8962 39.6467C26.8962 39.9212 26.8639 40.1796 26.7993 40.4218C26.7348 40.664 26.5975 40.8497 26.3876 40.9789C26.1777 41.1081 25.8224 41.1727 25.3218 41.1727Z" fill="#27235C" stroke="#27235C" stroke-width="0.2"/>
<path d="M5.42906 55.4146C5.00922 55.4146 4.69435 55.35 4.48443 55.2208C4.27451 55.0916 4.13725 54.914 4.07266 54.6879C4.02422 54.4619 4 54.2116 4 53.9371V39.9614C4 39.703 4.02422 39.4689 4.07266 39.259C4.13725 39.0329 4.27451 38.8553 4.48443 38.7261C4.69435 38.5808 5.02537 38.5081 5.4775 38.5081C5.8166 38.5081 6.06689 38.5323 6.22836 38.5808C6.40599 38.6131 6.54324 38.6696 6.64013 38.7503C6.73701 38.8149 6.8339 38.9037 6.93078 39.0167L12.8408 47.2762H12.2837L18.2179 38.9925C18.331 38.8633 18.444 38.7665 18.557 38.7019C18.6701 38.6373 18.8154 38.5888 18.993 38.5565C19.1706 38.5242 19.4048 38.5081 19.6954 38.5081C20.1314 38.5081 20.4544 38.5808 20.6643 38.7261C20.8742 38.8553 21.0034 39.0329 21.0518 39.259C21.1164 39.485 21.1487 39.7353 21.1487 40.0098V53.9855C21.1487 54.2277 21.1164 54.4619 21.0518 54.6879C21.0034 54.914 20.8742 55.0916 20.6643 55.2208C20.4544 55.35 20.1233 55.4146 19.6712 55.4146C19.2352 55.4146 18.9123 55.3419 18.7024 55.1966C18.4924 55.0674 18.3552 54.8898 18.2906 54.6637C18.2422 54.4376 18.2179 54.1954 18.2179 53.9371V43.5461L13.8096 49.9163C13.7612 49.9809 13.6885 50.0697 13.5917 50.1828C13.4948 50.2797 13.3656 50.3685 13.2041 50.4492C13.0426 50.5299 12.8246 50.5703 12.5501 50.5703C12.2918 50.5703 12.0819 50.5299 11.9204 50.4492C11.7589 50.3685 11.6297 50.2797 11.5328 50.1828C11.4521 50.0859 11.3714 49.989 11.2906 49.8921L6.90656 43.5461V53.9855C6.90656 54.2277 6.87427 54.4619 6.80968 54.6879C6.76123 54.914 6.63205 55.0916 6.42213 55.2208C6.21222 55.35 5.88119 55.4146 5.42906 55.4146Z" fill="#27235C" stroke="#27235C" stroke-width="0.2"/>
</svg>
