<svg width="609" height="212" viewBox="0 0 609 212" fill="none" xmlns="http://www.w3.org/2000/svg">
<path d="M278.136 193.733C278.136 191.356 280.063 189.43 282.439 189.43H579.357C581.734 189.43 583.661 191.356 583.661 193.733V193.733C583.661 196.109 581.734 198.036 579.357 198.036H282.439C280.063 198.036 278.136 196.109 278.136 193.733V193.733Z" fill="#FFBB00"/>
<path d="M36.177 162V151.584C34.4498 148.911 32.8227 146.275 31.2957 143.677C29.7687 141.079 28.3293 138.531 26.9775 136.033H31.2581C32.2094 138.082 33.2732 140.168 34.4498 142.291C35.6263 144.389 36.8404 146.413 38.092 148.361C39.3186 146.413 40.5202 144.389 41.6967 142.291C42.8733 140.168 43.9497 138.082 44.9259 136.033H48.9812C47.6295 138.531 46.1901 141.079 44.6631 143.677C43.1361 146.25 41.5215 148.861 39.8193 151.509V162H36.177Z" fill="white"/>
<path d="M67.5991 152.258C67.5991 153.807 67.3738 155.206 66.9232 156.455C66.4726 157.704 65.8343 158.778 65.0082 159.677C64.2071 160.576 63.2434 161.276 62.1169 161.776C60.9904 162.25 59.7638 162.487 58.4371 162.487C57.1104 162.487 55.8838 162.25 54.7573 161.776C53.6308 161.276 52.6546 160.576 51.8285 159.677C51.0275 158.778 50.4016 157.704 49.951 156.455C49.5005 155.206 49.2752 153.807 49.2752 152.258C49.2752 150.734 49.5005 149.348 49.951 148.099C50.4016 146.825 51.0275 145.738 51.8285 144.839C52.6546 143.94 53.6308 143.253 54.7573 142.778C55.8838 142.278 57.1104 142.029 58.4371 142.029C59.7638 142.029 60.9904 142.278 62.1169 142.778C63.2434 143.253 64.2071 143.94 65.0082 144.839C65.8343 145.738 66.4726 146.825 66.9232 148.099C67.3738 149.348 67.5991 150.734 67.5991 152.258ZM63.9568 152.258C63.9568 150.06 63.4562 148.324 62.4549 147.05C61.4786 145.751 60.1393 145.101 58.4371 145.101C56.7349 145.101 55.3831 145.751 54.3818 147.05C53.4056 148.324 52.9174 150.06 52.9174 152.258C52.9174 154.456 53.4056 156.205 54.3818 157.504C55.3831 158.778 56.7349 159.415 58.4371 159.415C60.1393 159.415 61.4786 158.778 62.4549 157.504C63.4562 156.205 63.9568 154.456 63.9568 152.258Z" fill="white"/>
<path d="M88.0574 161.438C87.2563 161.638 86.1924 161.85 84.8657 162.075C83.564 162.3 82.0495 162.413 80.3223 162.413C78.8203 162.413 77.5562 162.2 76.5298 161.776C75.5035 161.326 74.6774 160.701 74.0516 159.902C73.4258 159.103 72.9752 158.166 72.6998 157.092C72.4245 155.993 72.2868 154.781 72.2868 153.457V142.516H75.7789V152.708C75.7789 155.081 76.1544 156.779 76.9053 157.804C77.6563 158.828 78.9205 159.34 80.6978 159.34C81.0733 159.34 81.4613 159.327 81.8618 159.302C82.2623 159.278 82.6378 159.253 82.9883 159.228C83.3387 159.178 83.6516 159.14 83.927 159.115C84.2274 159.065 84.4402 159.015 84.5653 158.965V142.516H88.0574V161.438Z" fill="white"/>
<path d="M101.283 142.104C101.583 142.104 101.921 142.129 102.297 142.179C102.697 142.203 103.085 142.253 103.461 142.328C103.836 142.378 104.174 142.441 104.474 142.516C104.8 142.566 105.038 142.616 105.188 142.666L104.587 145.701C104.312 145.601 103.849 145.488 103.198 145.363C102.572 145.214 101.758 145.139 100.757 145.139C100.106 145.139 99.4554 145.214 98.8046 145.363C98.1788 145.488 97.7657 145.576 97.5655 145.626V162H94.0734V143.34C94.8995 143.04 95.9258 142.766 97.1524 142.516C98.379 142.241 99.7558 142.104 101.283 142.104Z" fill="white"/>
<path d="M133.845 136.033H137.487V162H133.845V150.01H121.116V162H117.473V136.033H121.116V146.862H133.845V136.033Z" fill="white"/>
<path d="M160.958 152.258C160.958 153.807 160.733 155.206 160.282 156.455C159.832 157.704 159.193 158.778 158.367 159.677C157.566 160.576 156.602 161.276 155.476 161.776C154.349 162.25 153.123 162.487 151.796 162.487C150.469 162.487 149.243 162.25 148.116 161.776C146.99 161.276 146.014 160.576 145.188 159.677C144.386 158.778 143.761 157.704 143.31 156.455C142.859 155.206 142.634 153.807 142.634 152.258C142.634 150.734 142.859 149.348 143.31 148.099C143.761 146.825 144.386 145.738 145.188 144.839C146.014 143.94 146.99 143.253 148.116 142.778C149.243 142.278 150.469 142.029 151.796 142.029C153.123 142.029 154.349 142.278 155.476 142.778C156.602 143.253 157.566 143.94 158.367 144.839C159.193 145.738 159.832 146.825 160.282 148.099C160.733 149.348 160.958 150.734 160.958 152.258ZM157.316 152.258C157.316 150.06 156.815 148.324 155.814 147.05C154.838 145.751 153.498 145.101 151.796 145.101C150.094 145.101 148.742 145.751 147.741 147.05C146.765 148.324 146.276 150.06 146.276 152.258C146.276 154.456 146.765 156.205 147.741 157.504C148.742 158.778 150.094 159.415 151.796 159.415C153.498 159.415 154.838 158.778 155.814 157.504C156.815 156.205 157.316 154.456 157.316 152.258Z" fill="white"/>
<path d="M170.415 159.49C171.841 159.49 172.893 159.302 173.569 158.928C174.27 158.553 174.62 157.954 174.62 157.129C174.62 156.28 174.282 155.605 173.606 155.106C172.93 154.606 171.816 154.044 170.264 153.42C169.513 153.12 168.787 152.82 168.087 152.52C167.411 152.196 166.822 151.821 166.322 151.396C165.821 150.972 165.421 150.459 165.12 149.86C164.82 149.26 164.67 148.524 164.67 147.649C164.67 145.926 165.308 144.564 166.585 143.565C167.861 142.541 169.601 142.029 171.804 142.029C172.355 142.029 172.905 142.066 173.456 142.141C174.007 142.191 174.52 142.266 174.996 142.366C175.471 142.441 175.884 142.528 176.235 142.628C176.61 142.728 176.898 142.816 177.098 142.89L176.46 145.888C176.084 145.688 175.496 145.488 174.695 145.289C173.894 145.064 172.93 144.951 171.804 144.951C170.828 144.951 169.976 145.151 169.251 145.551C168.525 145.926 168.162 146.525 168.162 147.349C168.162 147.774 168.237 148.149 168.387 148.474C168.562 148.798 168.812 149.098 169.138 149.373C169.488 149.623 169.914 149.86 170.415 150.085C170.915 150.31 171.516 150.547 172.217 150.797C173.143 151.146 173.969 151.496 174.695 151.846C175.421 152.171 176.034 152.558 176.535 153.007C177.061 153.457 177.461 154.007 177.737 154.656C178.012 155.281 178.15 156.055 178.15 156.979C178.15 158.778 177.474 160.139 176.122 161.064C174.795 161.988 172.893 162.45 170.415 162.45C168.687 162.45 167.336 162.3 166.359 162C165.383 161.726 164.72 161.513 164.369 161.363L165.008 158.366C165.408 158.516 166.046 158.74 166.923 159.04C167.799 159.34 168.963 159.49 170.415 159.49Z" fill="white"/>
<path d="M185.896 142.516H193.293V145.438H185.896V154.431C185.896 155.406 185.971 156.217 186.121 156.867C186.271 157.491 186.496 157.991 186.797 158.366C187.097 158.715 187.473 158.965 187.923 159.115C188.374 159.265 188.9 159.34 189.5 159.34C190.552 159.34 191.39 159.228 192.016 159.003C192.667 158.753 193.118 158.578 193.368 158.478L194.044 161.363C193.693 161.538 193.08 161.751 192.204 162C191.328 162.275 190.326 162.413 189.2 162.413C187.873 162.413 186.772 162.25 185.896 161.925C185.044 161.576 184.356 161.064 183.83 160.389C183.305 159.715 182.929 158.89 182.704 157.916C182.504 156.917 182.404 155.768 182.404 154.469V137.083L185.896 136.483V142.516Z" fill="white"/>
<path d="M201.228 162H197.736V142.516H201.228V162ZM199.464 138.994C198.838 138.994 198.3 138.794 197.849 138.394C197.424 137.969 197.211 137.407 197.211 136.708C197.211 136.008 197.424 135.459 197.849 135.059C198.3 134.634 198.838 134.422 199.464 134.422C200.089 134.422 200.615 134.634 201.041 135.059C201.491 135.459 201.717 136.008 201.717 136.708C201.717 137.407 201.491 137.969 201.041 138.394C200.615 138.794 200.089 138.994 199.464 138.994Z" fill="white"/>
<path d="M207.234 143.078C208.035 142.878 209.099 142.666 210.425 142.441C211.752 142.216 213.279 142.104 215.006 142.104C216.558 142.104 217.848 142.328 218.874 142.778C219.9 143.203 220.714 143.815 221.315 144.614C221.94 145.388 222.378 146.325 222.629 147.424C222.879 148.524 223.004 149.735 223.004 151.059V162H219.512V151.808C219.512 150.609 219.425 149.585 219.249 148.736C219.099 147.887 218.836 147.2 218.461 146.675C218.085 146.15 217.585 145.776 216.959 145.551C216.333 145.301 215.557 145.176 214.631 145.176C214.255 145.176 213.867 145.189 213.467 145.214C213.066 145.239 212.678 145.276 212.303 145.326C211.952 145.351 211.627 145.388 211.327 145.438C211.051 145.488 210.851 145.526 210.726 145.551V162H207.234V143.078Z" fill="white"/>
<path d="M241.036 160.052C240.736 160.252 240.147 160.514 239.271 160.839C238.42 161.139 237.419 161.288 236.267 161.288C235.091 161.288 233.977 161.101 232.925 160.726C231.899 160.352 230.998 159.777 230.222 159.003C229.446 158.203 228.833 157.217 228.382 156.043C227.931 154.868 227.706 153.47 227.706 151.846C227.706 150.422 227.919 149.123 228.344 147.949C228.77 146.75 229.383 145.726 230.184 144.876C231.01 144.002 232.012 143.328 233.188 142.853C234.365 142.353 235.691 142.104 237.168 142.104C238.796 142.104 240.21 142.228 241.411 142.478C242.638 142.703 243.664 142.915 244.49 143.115V160.502C244.49 163.499 243.714 165.672 242.162 167.021C240.61 168.37 238.257 169.045 235.103 169.045C233.877 169.045 232.713 168.945 231.611 168.745C230.535 168.545 229.596 168.308 228.795 168.033L229.433 164.998C230.134 165.273 230.985 165.51 231.987 165.71C233.013 165.935 234.077 166.047 235.178 166.047C237.256 166.047 238.745 165.635 239.647 164.811C240.573 163.986 241.036 162.675 241.036 160.876V160.052ZM240.998 145.588C240.648 145.488 240.172 145.401 239.572 145.326C238.996 145.226 238.207 145.176 237.206 145.176C235.329 145.176 233.877 145.788 232.85 147.012C231.849 148.236 231.348 149.86 231.348 151.883C231.348 153.007 231.486 153.969 231.761 154.769C232.062 155.568 232.45 156.23 232.925 156.755C233.426 157.279 233.989 157.666 234.615 157.916C235.266 158.166 235.929 158.291 236.605 158.291C237.531 158.291 238.382 158.166 239.159 157.916C239.935 157.641 240.548 157.329 240.998 156.979V145.588Z" fill="white"/>
<path d="M254.183 157.729C254.208 157.929 254.22 158.128 254.22 158.328C254.22 158.503 254.22 158.69 254.22 158.89C254.22 160.464 253.983 162.013 253.507 163.537C253.056 165.085 252.43 166.559 251.629 167.958L248.926 167.096C249.552 165.822 249.965 164.523 250.165 163.199C250.365 161.9 250.465 160.676 250.465 159.527C250.465 159.203 250.453 158.89 250.428 158.591C250.428 158.291 250.415 158.004 250.39 157.729H254.183Z" fill="white"/>
<path d="M267.608 148.998C267.608 146.775 267.933 144.814 268.584 143.115C269.26 141.417 270.161 140.005 271.288 138.881C272.439 137.732 273.766 136.87 275.268 136.296C276.795 135.721 278.41 135.434 280.112 135.434C281.789 135.434 283.366 135.721 284.843 136.296C286.345 136.87 287.659 137.732 288.786 138.881C289.912 140.005 290.801 141.417 291.452 143.115C292.127 144.814 292.465 146.775 292.465 148.998C292.465 151.221 292.127 153.182 291.452 154.881C290.801 156.58 289.912 158.004 288.786 159.153C287.659 160.277 286.345 161.126 284.843 161.701C283.366 162.275 281.789 162.562 280.112 162.562C278.41 162.562 276.795 162.275 275.268 161.701C273.766 161.126 272.439 160.277 271.288 159.153C270.161 158.004 269.26 156.58 268.584 154.881C267.933 153.182 267.608 151.221 267.608 148.998ZM271.438 148.998C271.438 150.572 271.638 152.008 272.039 153.307C272.439 154.581 273.003 155.668 273.728 156.567C274.479 157.466 275.381 158.166 276.432 158.666C277.508 159.14 278.71 159.377 280.037 159.377C281.363 159.377 282.552 159.14 283.604 158.666C284.655 158.166 285.544 157.466 286.27 156.567C287.021 155.668 287.597 154.581 287.997 153.307C288.398 152.008 288.598 150.572 288.598 148.998C288.598 147.424 288.398 146 287.997 144.726C287.597 143.428 287.021 142.328 286.27 141.429C285.544 140.53 284.655 139.843 283.604 139.368C282.552 138.869 281.363 138.619 280.037 138.619C278.71 138.619 277.508 138.869 276.432 139.368C275.381 139.843 274.479 140.53 273.728 141.429C273.003 142.328 272.439 143.428 272.039 144.726C271.638 146 271.438 147.424 271.438 148.998Z" fill="white"/>
<path d="M313.204 161.438C312.403 161.638 311.34 161.85 310.013 162.075C308.711 162.3 307.197 162.413 305.469 162.413C303.967 162.413 302.703 162.2 301.677 161.776C300.651 161.326 299.825 160.701 299.199 159.902C298.573 159.103 298.122 158.166 297.847 157.092C297.572 155.993 297.434 154.781 297.434 153.457V142.516H300.926V152.708C300.926 155.081 301.301 156.779 302.052 157.804C302.803 158.828 304.068 159.34 305.845 159.34C306.22 159.34 306.608 159.327 307.009 159.302C307.409 159.278 307.785 159.253 308.135 159.228C308.486 159.178 308.799 159.14 309.074 159.115C309.374 159.065 309.587 159.015 309.712 158.965V142.516H313.204V161.438Z" fill="white"/>
<path d="M326.43 142.104C326.73 142.104 327.068 142.129 327.444 142.179C327.844 142.203 328.232 142.253 328.608 142.328C328.983 142.378 329.321 142.441 329.622 142.516C329.947 142.566 330.185 142.616 330.335 142.666L329.734 145.701C329.459 145.601 328.996 145.488 328.345 145.363C327.719 145.214 326.906 145.139 325.904 145.139C325.253 145.139 324.603 145.214 323.952 145.363C323.326 145.488 322.913 145.576 322.713 145.626V162H319.221V143.34C320.047 143.04 321.073 142.766 322.3 142.516C323.526 142.241 324.903 142.104 326.43 142.104Z" fill="white"/>
<path d="M355.35 151.134C355.75 151.634 356.251 152.296 356.852 153.12C357.477 153.919 358.116 154.819 358.767 155.818C359.417 156.792 360.056 157.816 360.682 158.89C361.332 159.964 361.883 161.001 362.334 162H358.354C357.853 161.051 357.302 160.089 356.701 159.115C356.126 158.141 355.537 157.217 354.937 156.342C354.336 155.443 353.735 154.606 353.134 153.832C352.558 153.057 352.033 152.383 351.557 151.808C351.232 151.833 350.894 151.846 350.543 151.846C350.218 151.846 349.88 151.846 349.53 151.846H346.263V162H342.621V136.408C343.647 136.158 344.786 135.996 346.038 135.921C347.314 135.821 348.478 135.771 349.53 135.771C353.184 135.771 355.963 136.458 357.865 137.832C359.793 139.206 360.757 141.254 360.757 143.977C360.757 145.701 360.294 147.175 359.367 148.399C358.466 149.623 357.127 150.534 355.35 151.134ZM349.83 138.956C348.278 138.956 347.089 138.994 346.263 139.068V148.848H348.854C350.105 148.848 351.232 148.786 352.233 148.661C353.234 148.536 354.073 148.299 354.749 147.949C355.45 147.599 355.988 147.112 356.363 146.488C356.739 145.838 356.927 144.989 356.927 143.94C356.927 142.965 356.739 142.154 356.363 141.504C355.988 140.855 355.475 140.342 354.824 139.968C354.198 139.593 353.447 139.331 352.571 139.181C351.72 139.031 350.806 138.956 349.83 138.956Z" fill="white"/>
<path d="M364.921 152.296C364.921 150.572 365.171 149.073 365.672 147.799C366.173 146.5 366.836 145.426 367.662 144.577C368.488 143.727 369.44 143.09 370.516 142.666C371.592 142.241 372.694 142.029 373.82 142.029C376.449 142.029 378.464 142.853 379.866 144.502C381.267 146.125 381.968 148.611 381.968 151.958C381.968 152.108 381.968 152.308 381.968 152.558C381.968 152.783 381.956 152.995 381.931 153.195H368.563C368.714 155.218 369.302 156.755 370.328 157.804C371.355 158.853 372.957 159.377 375.134 159.377C376.361 159.377 377.387 159.278 378.213 159.078C379.065 158.853 379.703 158.641 380.128 158.441L380.617 161.363C380.191 161.588 379.44 161.826 378.364 162.075C377.312 162.325 376.111 162.45 374.759 162.45C373.057 162.45 371.58 162.2 370.328 161.701C369.102 161.176 368.088 160.464 367.287 159.565C366.486 158.665 365.885 157.604 365.484 156.38C365.109 155.131 364.921 153.769 364.921 152.296ZM378.326 150.385C378.351 148.811 377.951 147.524 377.125 146.525C376.323 145.501 375.21 144.989 373.783 144.989C372.982 144.989 372.268 145.151 371.642 145.476C371.042 145.776 370.528 146.175 370.103 146.675C369.677 147.175 369.339 147.749 369.089 148.399C368.864 149.048 368.714 149.71 368.638 150.385H378.326Z" fill="white"/>
<path d="M391.528 159.49C392.955 159.49 394.006 159.302 394.682 158.928C395.383 158.553 395.734 157.954 395.734 157.129C395.734 156.28 395.396 155.605 394.72 155.106C394.044 154.606 392.93 154.044 391.378 153.42C390.627 153.12 389.901 152.82 389.2 152.52C388.524 152.196 387.936 151.821 387.435 151.396C386.935 150.972 386.534 150.459 386.234 149.86C385.933 149.26 385.783 148.524 385.783 147.649C385.783 145.926 386.421 144.564 387.698 143.565C388.975 142.541 390.715 142.029 392.917 142.029C393.468 142.029 394.019 142.066 394.57 142.141C395.12 142.191 395.633 142.266 396.109 142.366C396.585 142.441 396.998 142.528 397.348 142.628C397.724 142.728 398.012 142.816 398.212 142.89L397.573 145.888C397.198 145.688 396.61 145.488 395.809 145.289C395.008 145.064 394.044 144.951 392.917 144.951C391.941 144.951 391.09 145.151 390.364 145.551C389.638 145.926 389.275 146.525 389.275 147.349C389.275 147.774 389.35 148.149 389.5 148.474C389.676 148.798 389.926 149.098 390.251 149.373C390.602 149.623 391.027 149.86 391.528 150.085C392.029 150.31 392.63 150.547 393.33 150.797C394.257 151.146 395.083 151.496 395.809 151.846C396.535 152.171 397.148 152.558 397.649 153.007C398.174 153.457 398.575 154.007 398.85 154.656C399.125 155.281 399.263 156.055 399.263 156.979C399.263 158.778 398.587 160.139 397.236 161.064C395.909 161.988 394.006 162.45 391.528 162.45C389.801 162.45 388.449 162.3 387.473 162C386.496 161.726 385.833 161.513 385.483 161.363L386.121 158.366C386.522 158.516 387.16 158.74 388.036 159.04C388.912 159.34 390.076 159.49 391.528 159.49Z" fill="white"/>
<path d="M417.298 152.296C417.298 150.022 416.734 148.274 415.608 147.05C414.481 145.826 412.979 145.214 411.102 145.214C410.051 145.214 409.224 145.251 408.624 145.326C408.048 145.401 407.585 145.488 407.234 145.588V157.879C407.66 158.228 408.273 158.566 409.074 158.89C409.875 159.215 410.751 159.377 411.703 159.377C412.704 159.377 413.555 159.203 414.256 158.853C414.982 158.478 415.57 157.979 416.021 157.354C416.471 156.705 416.797 155.955 416.997 155.106C417.197 154.231 417.298 153.295 417.298 152.296ZM420.94 152.296C420.94 153.769 420.739 155.131 420.339 156.38C419.963 157.629 419.4 158.703 418.649 159.602C417.898 160.502 416.972 161.201 415.871 161.701C414.794 162.2 413.555 162.45 412.153 162.45C411.027 162.45 410.026 162.3 409.149 162C408.298 161.701 407.66 161.413 407.234 161.139V168.932H403.742V143.115C404.568 142.915 405.595 142.703 406.821 142.478C408.073 142.228 409.512 142.104 411.139 142.104C412.641 142.104 413.993 142.341 415.195 142.816C416.396 143.29 417.423 143.965 418.274 144.839C419.125 145.713 419.776 146.787 420.226 148.061C420.702 149.31 420.94 150.722 420.94 152.296Z" fill="white"/>
<path d="M443.089 152.258C443.089 153.807 442.863 155.206 442.413 156.455C441.962 157.704 441.324 158.778 440.498 159.677C439.697 160.576 438.733 161.276 437.606 161.776C436.48 162.25 435.253 162.487 433.927 162.487C432.6 162.487 431.373 162.25 430.247 161.776C429.12 161.276 428.144 160.576 427.318 159.677C426.517 158.778 425.891 157.704 425.441 156.455C424.99 155.206 424.765 153.807 424.765 152.258C424.765 150.734 424.99 149.348 425.441 148.099C425.891 146.825 426.517 145.738 427.318 144.839C428.144 143.94 429.12 143.253 430.247 142.778C431.373 142.278 432.6 142.029 433.927 142.029C435.253 142.029 436.48 142.278 437.606 142.778C438.733 143.253 439.697 143.94 440.498 144.839C441.324 145.738 441.962 146.825 442.413 148.099C442.863 149.348 443.089 150.734 443.089 152.258ZM439.446 152.258C439.446 150.06 438.946 148.324 437.944 147.05C436.968 145.751 435.629 145.101 433.927 145.101C432.225 145.101 430.873 145.751 429.871 147.05C428.895 148.324 428.407 150.06 428.407 152.258C428.407 154.456 428.895 156.205 429.871 157.504C430.873 158.778 432.225 159.415 433.927 159.415C435.629 159.415 436.968 158.778 437.944 157.504C438.946 156.205 439.446 154.456 439.446 152.258Z" fill="white"/>
<path d="M448.002 143.078C448.803 142.878 449.867 142.666 451.193 142.441C452.52 142.216 454.047 142.104 455.774 142.104C457.326 142.104 458.616 142.328 459.642 142.778C460.668 143.203 461.482 143.815 462.083 144.614C462.708 145.388 463.146 146.325 463.397 147.424C463.647 148.524 463.772 149.735 463.772 151.059V162H460.28V151.808C460.28 150.609 460.193 149.585 460.017 148.736C459.867 147.887 459.604 147.2 459.229 146.675C458.853 146.15 458.353 145.776 457.727 145.551C457.101 145.301 456.325 145.176 455.399 145.176C455.023 145.176 454.635 145.189 454.235 145.214C453.834 145.239 453.446 145.276 453.071 145.326C452.72 145.351 452.395 145.388 452.095 145.438C451.819 145.488 451.619 145.526 451.494 145.551V162H448.002V143.078Z" fill="white"/>
<path d="M474.106 159.49C475.533 159.49 476.585 159.302 477.261 158.928C477.961 158.553 478.312 157.954 478.312 157.129C478.312 156.28 477.974 155.605 477.298 155.106C476.622 154.606 475.508 154.044 473.956 153.42C473.205 153.12 472.479 152.82 471.778 152.52C471.103 152.196 470.514 151.821 470.014 151.396C469.513 150.972 469.112 150.459 468.812 149.86C468.512 149.26 468.361 148.524 468.361 147.649C468.361 145.926 469 144.564 470.276 143.565C471.553 142.541 473.293 142.029 475.496 142.029C476.046 142.029 476.597 142.066 477.148 142.141C477.699 142.191 478.212 142.266 478.687 142.366C479.163 142.441 479.576 142.528 479.927 142.628C480.302 142.728 480.59 142.816 480.79 142.89L480.152 145.888C479.776 145.688 479.188 145.488 478.387 145.289C477.586 145.064 476.622 144.951 475.496 144.951C474.519 144.951 473.668 145.151 472.942 145.551C472.216 145.926 471.853 146.525 471.853 147.349C471.853 147.774 471.929 148.149 472.079 148.474C472.254 148.798 472.504 149.098 472.83 149.373C473.18 149.623 473.606 149.86 474.106 150.085C474.607 150.31 475.208 150.547 475.909 150.797C476.835 151.146 477.661 151.496 478.387 151.846C479.113 152.171 479.726 152.558 480.227 153.007C480.753 153.457 481.153 154.007 481.428 154.656C481.704 155.281 481.842 156.055 481.842 156.979C481.842 158.778 481.166 160.139 479.814 161.064C478.487 161.988 476.585 162.45 474.106 162.45C472.379 162.45 471.027 162.3 470.051 162C469.075 161.726 468.412 161.513 468.061 161.363L468.699 158.366C469.1 158.516 469.738 158.74 470.614 159.04C471.491 159.34 472.655 159.49 474.106 159.49Z" fill="white"/>
<path d="M489.813 162H486.321V142.516H489.813V162ZM488.048 138.994C487.422 138.994 486.884 138.794 486.433 138.394C486.008 137.969 485.795 137.407 485.795 136.708C485.795 136.008 486.008 135.459 486.433 135.059C486.884 134.634 487.422 134.422 488.048 134.422C488.674 134.422 489.199 134.634 489.625 135.059C490.076 135.459 490.301 136.008 490.301 136.708C490.301 137.407 490.076 137.969 489.625 138.394C489.199 138.794 488.674 138.994 488.048 138.994Z" fill="white"/>
<path d="M499.31 143.378C499.736 143.103 500.374 142.816 501.225 142.516C502.101 142.216 503.102 142.066 504.229 142.066C505.631 142.066 506.87 142.316 507.946 142.816C509.048 143.315 509.974 144.015 510.725 144.914C511.476 145.813 512.039 146.887 512.415 148.136C512.815 149.385 513.015 150.759 513.015 152.258C513.015 153.832 512.778 155.256 512.302 156.53C511.851 157.779 511.201 158.84 510.349 159.715C509.498 160.589 508.472 161.263 507.27 161.738C506.069 162.213 504.717 162.45 503.215 162.45C501.588 162.45 500.149 162.338 498.897 162.113C497.645 161.888 496.619 161.663 495.818 161.438V133.523L499.31 132.923V143.378ZM499.31 158.965C499.66 159.065 500.149 159.165 500.774 159.265C501.425 159.34 502.226 159.377 503.178 159.377C505.055 159.377 506.557 158.765 507.683 157.541C508.81 156.292 509.373 154.531 509.373 152.258C509.373 151.259 509.273 150.322 509.073 149.448C508.872 148.573 508.547 147.824 508.096 147.2C507.646 146.55 507.058 146.05 506.332 145.701C505.631 145.326 504.78 145.139 503.778 145.139C502.827 145.139 501.951 145.301 501.15 145.626C500.349 145.951 499.736 146.288 499.31 146.637V158.965Z" fill="white"/>
<path d="M521.421 162H517.929V142.516H521.421V162ZM519.657 138.994C519.031 138.994 518.493 138.794 518.042 138.394C517.616 137.969 517.404 137.407 517.404 136.708C517.404 136.008 517.616 135.459 518.042 135.059C518.493 134.634 519.031 134.422 519.657 134.422C520.282 134.422 520.808 134.634 521.234 135.059C521.684 135.459 521.909 136.008 521.909 136.708C521.909 137.407 521.684 137.969 521.234 138.394C520.808 138.794 520.282 138.994 519.657 138.994Z" fill="white"/>
<path d="M533.284 162.375C531.131 162.325 529.604 161.863 528.703 160.989C527.802 160.114 527.351 158.753 527.351 156.904V133.523L530.844 132.923V156.342C530.844 156.917 530.894 157.392 530.994 157.766C531.094 158.141 531.257 158.441 531.482 158.666C531.707 158.89 532.008 159.065 532.383 159.19C532.759 159.29 533.222 159.377 533.772 159.452L533.284 162.375Z" fill="white"/>
<path d="M541.186 162H537.694V142.516H541.186V162ZM539.421 138.994C538.795 138.994 538.257 138.794 537.806 138.394C537.381 137.969 537.168 137.407 537.168 136.708C537.168 136.008 537.381 135.459 537.806 135.059C538.257 134.634 538.795 134.422 539.421 134.422C540.047 134.422 540.573 134.634 540.998 135.059C541.449 135.459 541.674 136.008 541.674 136.708C541.674 137.407 541.449 137.969 540.998 138.394C540.573 138.794 540.047 138.994 539.421 138.994Z" fill="white"/>
<path d="M550.458 142.516H557.855V145.438H550.458V154.431C550.458 155.406 550.533 156.217 550.683 156.867C550.833 157.491 551.059 157.991 551.359 158.366C551.659 158.715 552.035 158.965 552.485 159.115C552.936 159.265 553.462 159.34 554.063 159.34C555.114 159.34 555.952 159.228 556.578 159.003C557.229 158.753 557.68 158.578 557.93 158.478L558.606 161.363C558.256 161.538 557.642 161.751 556.766 162C555.89 162.275 554.889 162.413 553.762 162.413C552.435 162.413 551.334 162.25 550.458 161.925C549.607 161.576 548.918 161.064 548.393 160.389C547.867 159.715 547.492 158.89 547.266 157.916C547.066 156.917 546.966 155.768 546.966 154.469V137.083L550.458 136.483V142.516Z" fill="white"/>
<path d="M560.008 165.635C560.284 165.76 560.634 165.872 561.06 165.972C561.51 166.097 561.948 166.16 562.374 166.16C563.751 166.16 564.827 165.847 565.603 165.223C566.379 164.623 567.08 163.637 567.706 162.263C566.129 159.265 564.652 156.093 563.275 152.745C561.923 149.373 560.797 145.963 559.896 142.516H563.65C563.926 143.64 564.251 144.851 564.627 146.15C565.027 147.449 565.465 148.786 565.941 150.16C566.417 151.534 566.93 152.908 567.48 154.281C568.031 155.655 568.607 156.979 569.208 158.253C570.159 155.63 570.985 153.032 571.686 150.459C572.387 147.887 573.05 145.239 573.676 142.516H577.281C576.38 146.188 575.378 149.723 574.277 153.12C573.175 156.492 571.986 159.652 570.71 162.6C570.209 163.724 569.683 164.686 569.133 165.485C568.607 166.309 568.019 166.984 567.368 167.509C566.717 168.033 565.979 168.42 565.152 168.67C564.351 168.92 563.438 169.045 562.411 169.045C562.136 169.045 561.848 169.02 561.548 168.97C561.247 168.945 560.947 168.895 560.647 168.82C560.371 168.77 560.108 168.708 559.858 168.633C559.633 168.558 559.47 168.495 559.37 168.445L560.008 165.635Z" fill="white"/>
<path d="M584.07 159.977C584.07 160.651 583.844 161.238 583.394 161.738C582.943 162.238 582.33 162.487 581.554 162.487C580.778 162.487 580.165 162.238 579.714 161.738C579.263 161.238 579.038 160.651 579.038 159.977C579.038 159.302 579.263 158.715 579.714 158.216C580.165 157.716 580.778 157.466 581.554 157.466C582.33 157.466 582.943 157.716 583.394 158.216C583.844 158.715 584.07 159.302 584.07 159.977Z" fill="white"/>
<path d="M553.763 107.485C549.47 107.485 545.615 106.652 542.199 104.988C538.869 103.235 536.022 100.87 533.656 97.891C531.378 94.9122 529.626 91.4953 528.4 87.6404C527.261 83.6978 526.691 79.4924 526.691 75.0241C526.779 70.5559 527.436 66.3943 528.662 62.5393C529.889 58.5968 531.641 55.1799 533.919 52.2886C536.285 49.3098 539.132 46.9881 542.461 45.3234C545.791 43.6588 549.558 42.8265 553.763 42.8265C557.794 42.8265 561.561 43.6588 565.065 45.3234C568.658 46.9881 571.812 49.3098 574.528 52.2886C577.331 55.1799 579.522 58.5968 581.099 62.5393C582.676 66.3943 583.464 70.5121 583.464 74.8927C583.464 79.4486 582.676 83.7416 581.099 87.7718C579.522 91.7144 577.375 95.1751 574.659 98.1539C571.943 101.045 568.789 103.323 565.197 104.988C561.605 106.652 557.794 107.485 553.763 107.485ZM551.661 92.1086C554.727 92.1086 557.487 91.4077 559.94 90.0059C562.393 88.5165 564.321 86.5014 565.723 83.9606C567.212 81.4199 567.957 78.5286 567.957 75.287C567.957 71.9577 567.212 69.0227 565.723 66.4819C564.321 63.8535 562.393 61.8384 559.94 60.4366C557.487 58.9472 554.727 58.2025 551.661 58.2025C548.682 58.2025 545.966 58.9472 543.513 60.4366C541.06 61.926 539.088 63.9411 537.599 66.4819C536.197 69.0227 535.496 71.9577 535.496 75.287C535.496 78.5286 536.197 81.4199 537.599 83.9606C539.088 86.5014 541.06 88.5165 543.513 90.0059C545.966 91.4077 548.682 92.1086 551.661 92.1086ZM527.348 107.616C524.983 107.616 523.23 107.222 522.091 106.433C520.952 105.732 520.252 104.812 519.989 103.673C519.726 102.447 519.594 101.089 519.594 99.5995V21.2738C519.594 19.7843 519.726 18.4702 519.989 17.3312C520.252 16.1046 520.952 15.1409 522.091 14.44C523.23 13.7391 524.983 13.3886 527.348 13.3886C529.801 13.3886 531.554 13.7391 532.605 14.44C533.656 15.1409 534.313 16.1046 534.576 17.3312C534.839 18.5578 534.971 19.872 534.971 21.2738V102.228C534.62 104.155 533.875 105.513 532.736 106.302C531.685 107.178 529.889 107.616 527.348 107.616Z" fill="white" stroke="white" stroke-width="0.2"/>
<path d="M480.425 108.406C474.73 108.406 469.736 107.486 465.443 105.647C461.238 103.807 457.69 101.31 454.798 98.1557C451.995 94.9141 449.848 91.3219 448.359 87.3794C446.957 83.3492 446.256 79.1876 446.256 74.8946C446.256 68.5865 447.702 62.9792 450.593 58.0729C453.484 53.1666 457.471 49.3117 462.552 46.5081C467.721 43.7045 473.635 42.3027 480.294 42.3027C485.025 42.3027 489.186 43.0474 492.778 44.5368C496.371 46.0262 499.349 47.9975 501.715 50.4506C504.168 52.8162 506.008 55.4446 507.235 58.3358C508.549 61.227 509.206 64.0306 509.206 66.7466C509.206 71.3901 508.067 74.7631 505.789 76.8658C503.599 78.9686 500.839 80.0199 497.51 80.0199H462.815C462.903 82.9987 463.822 85.5833 465.575 87.7736C467.415 89.9639 469.692 91.6724 472.408 92.899C475.212 94.0379 478.06 94.6074 480.951 94.6074C483.141 94.6074 485.069 94.476 486.733 94.2132C488.485 93.9503 489.975 93.6437 491.201 93.2932C492.428 92.8552 493.479 92.4171 494.355 91.979C495.319 91.541 496.195 91.1467 496.984 90.7963C497.772 90.4458 498.517 90.2268 499.218 90.1392C500.182 90.0516 501.145 90.2706 502.109 90.7963C503.073 91.3219 503.861 92.2419 504.475 93.5561C505 94.4322 505.351 95.2645 505.526 96.053C505.789 96.7539 505.92 97.4548 505.92 98.1557C505.92 99.908 504.869 101.573 502.766 103.15C500.664 104.639 497.685 105.866 493.83 106.829C490.062 107.881 485.594 108.406 480.425 108.406ZM462.815 70.6892H489.756C491.245 70.6892 492.384 70.4701 493.173 70.0321C493.961 69.5064 494.355 68.455 494.355 66.878C494.355 64.8629 493.742 63.0669 492.516 61.4898C491.289 59.8252 489.624 58.5548 487.522 57.6787C485.419 56.7149 482.966 56.2331 480.162 56.2331C476.921 56.2331 473.986 56.8902 471.357 58.2044C468.729 59.4309 466.626 61.1394 465.049 63.3297C463.56 65.52 462.815 67.9732 462.815 70.6892Z" fill="white" stroke="white" stroke-width="0.2"/>
<path d="M362.849 107.227C361.097 107.227 359.695 106.92 358.644 106.307C357.592 105.606 356.804 104.817 356.278 103.941C355.84 103.065 355.533 102.321 355.358 101.707L329.6 26.2727C328.724 23.4691 328.592 21.3664 329.206 19.9646C329.819 18.4752 331.615 17.2486 334.594 16.2849C336.609 15.584 338.23 15.2773 339.456 15.365C340.683 15.4526 341.691 15.9782 342.479 16.942C343.355 17.8181 344.1 19.2199 344.713 21.1474L363.637 78.4461L380.591 21.6731C380.853 20.7969 381.204 19.9208 381.642 19.0447C382.168 18.0809 382.956 17.2924 384.007 16.6791C385.059 16.0659 386.504 15.7592 388.344 15.7592C390.447 15.7592 392.024 16.1097 393.075 16.8106C394.127 17.5115 394.871 18.3 395.309 19.1761C395.835 19.9646 396.186 20.7093 396.361 21.4102L413.314 78.8403L432.37 21.2788C432.983 19.2637 433.684 17.7743 434.472 16.8106C435.348 15.8468 436.444 15.3211 437.758 15.2335C439.072 15.0583 440.693 15.3211 442.62 16.022C444.635 16.723 446.081 17.5115 446.957 18.3876C447.833 19.1761 448.271 20.2275 448.271 21.5416C448.271 22.7682 447.965 24.3452 447.351 26.2727L421.725 101.839C421.549 102.364 421.199 103.065 420.673 103.941C420.235 104.817 419.491 105.606 418.439 106.307C417.388 106.92 415.942 107.227 414.102 107.227C412.263 107.227 410.817 106.833 409.766 106.044C408.714 105.256 407.926 104.379 407.4 103.416C406.874 102.452 406.524 101.751 406.349 101.313L388.476 43.4886L370.603 101.182C370.427 101.795 370.077 102.583 369.551 103.547C369.113 104.511 368.369 105.387 367.317 106.175C366.266 106.876 364.776 107.227 362.849 107.227Z" fill="white" stroke="white" stroke-width="0.2"/>
<path d="M294.514 108.408C292.236 108.408 289.827 108.145 287.286 107.619C284.745 107.181 282.292 106.524 279.927 105.648C277.561 104.684 275.502 103.589 273.75 102.362C272.085 101.048 271.034 99.6025 270.596 98.0254C270.245 97.1493 270.114 96.317 270.202 95.5285C270.289 94.6523 270.552 93.7762 270.99 92.9001C271.428 91.9363 272.085 90.9726 272.961 90.0089C273.75 89.0451 274.538 88.5195 275.327 88.4318C276.203 88.2566 277.298 88.5195 278.612 89.2204C279.751 89.6584 280.978 90.2279 282.292 90.9288C283.694 91.6297 285.096 92.3306 286.498 93.0315C287.987 93.7324 289.476 94.3019 290.966 94.74C292.543 95.178 294.076 95.397 295.565 95.397C298.807 95.397 301.392 94.8714 303.319 93.82C305.247 92.6811 306.21 91.104 306.21 89.0889C306.21 87.95 305.904 86.9424 305.29 86.0663C304.677 85.1902 303.845 84.4893 302.793 83.9636C301.83 83.3503 300.647 82.8246 299.245 82.3866C297.931 81.8609 296.485 81.4228 294.908 81.0724C293.419 80.6343 291.842 80.1525 290.177 79.6268C287.987 79.0135 285.797 78.2688 283.606 77.3927C281.416 76.5165 279.445 75.3776 277.692 73.9758C276.028 72.5739 274.67 70.8217 273.618 68.719C272.567 66.6163 272.041 63.9879 272.041 60.8339C272.041 56.8913 272.961 53.562 274.801 50.846C276.729 48.0424 279.489 45.8959 283.081 44.4065C286.673 42.9171 291.01 42.1724 296.091 42.1724C297.843 42.1724 299.508 42.3038 301.085 42.5666C302.75 42.8295 304.327 43.2237 305.816 43.7494C307.393 44.1875 308.883 44.7569 310.284 45.4578C311.774 46.1587 313.176 46.9472 314.49 47.8234C316.68 49.05 317.819 50.4956 317.907 52.1602C317.994 53.7372 317.381 55.4457 316.067 57.2855C315.103 58.5121 314.139 59.3882 313.176 59.9139C312.212 60.352 311.204 60.352 310.153 59.9139C308.751 59.213 307.218 58.4683 305.553 57.6798C303.976 56.8037 302.312 56.059 300.559 55.4457C298.895 54.8324 297.142 54.5257 295.303 54.5257C293.55 54.5257 291.973 54.7886 290.572 55.3143C289.17 55.8399 288.118 56.5846 287.417 57.5484C286.717 58.5121 286.366 59.6511 286.366 60.9653C286.366 62.1919 286.717 63.1994 287.417 63.9879C288.118 64.7764 289.038 65.4335 290.177 65.9592C291.316 66.4849 292.674 66.9667 294.251 67.4048C295.828 67.7553 297.493 68.1057 299.245 68.4562C301.698 68.9818 304.195 69.6389 306.736 70.4274C309.277 71.216 311.599 72.3111 313.701 73.7129C315.892 75.1147 317.644 76.9984 318.958 79.3639C320.272 81.6419 320.929 84.6207 320.929 88.3004C320.929 94.6961 318.564 99.6463 313.833 103.151C309.189 106.655 302.75 108.408 294.514 108.408Z" fill="white" stroke="white" stroke-width="0.2"/>
<path d="M232.476 108.406C226.781 108.406 221.787 107.486 217.494 105.646C213.288 103.806 209.74 101.309 206.849 98.1549C204.045 94.9132 201.899 91.3211 200.409 87.3785C199.008 83.3484 198.307 79.1868 198.307 74.8937C198.307 68.5856 199.752 62.9784 202.643 58.0721C205.535 53.1658 209.521 49.3108 214.603 46.5072C219.772 43.7036 225.686 42.3018 232.344 42.3018C237.075 42.3018 241.237 43.0465 244.829 44.536C248.421 46.0254 251.4 47.9967 253.765 50.4498C256.219 52.8153 258.058 55.4437 259.285 58.3349C260.599 61.2262 261.256 64.0298 261.256 66.7458C261.256 71.3892 260.117 74.7623 257.839 76.865C255.649 78.9677 252.889 80.0191 249.56 80.0191H214.865C214.953 82.9979 215.873 85.5825 217.625 87.7728C219.465 89.9631 221.743 91.6716 224.459 92.8981C227.263 94.0371 230.11 94.6066 233.001 94.6066C235.192 94.6066 237.119 94.4752 238.784 94.2123C240.536 93.9495 242.025 93.6428 243.252 93.2924C244.479 92.8543 245.53 92.4163 246.406 91.9782C247.37 91.5401 248.246 91.1459 249.034 90.7954C249.823 90.445 250.568 90.226 251.269 90.1383C252.232 90.0507 253.196 90.2698 254.16 90.7954C255.123 91.3211 255.912 92.2411 256.525 93.5552C257.051 94.4314 257.401 95.2637 257.577 96.0522C257.839 96.7531 257.971 97.454 257.971 98.1549C257.971 99.9072 256.92 101.572 254.817 103.149C252.714 104.638 249.735 105.865 245.88 106.829C242.113 107.88 237.645 108.406 232.476 108.406ZM214.865 70.6883H241.806C243.296 70.6883 244.435 70.4693 245.223 70.0312C246.012 69.5056 246.406 68.4542 246.406 66.8772C246.406 64.8621 245.793 63.066 244.566 61.489C243.34 59.8244 241.675 58.554 239.572 57.6779C237.47 56.7141 235.016 56.2322 232.213 56.2322C228.971 56.2322 226.036 56.8893 223.408 58.2035C220.779 59.4301 218.677 61.1386 217.1 63.3289C215.61 65.5192 214.865 67.9723 214.865 70.6883Z" fill="white" stroke="white" stroke-width="0.2"/>
<path d="M185.559 107.622C182.318 107.622 179.426 107.403 176.886 106.965C174.432 106.527 172.286 105.782 170.446 104.73C168.694 103.679 167.248 102.277 166.109 100.525C164.97 98.6852 164.094 96.4511 163.481 93.8227C162.955 91.1943 162.692 88.0402 162.692 84.3605V21.0166C162.692 19.5271 162.824 18.213 163.087 17.074C163.437 15.8474 164.138 14.8837 165.189 14.1828C166.328 13.3943 168.124 13 170.578 13C173.031 13 174.783 13.3504 175.834 14.0514C176.973 14.7523 177.674 15.716 177.937 16.9426C178.287 18.0815 178.463 19.3957 178.463 20.8851V83.7034C178.463 85.3681 178.55 86.7699 178.725 87.9088C178.988 88.9602 179.383 89.8363 179.908 90.5372C180.522 91.1505 181.266 91.5886 182.142 91.8514C183.106 92.1142 184.245 92.2457 185.559 92.2457C186.698 92.2457 187.706 92.3771 188.582 92.6399C189.546 92.9028 190.29 93.5599 190.816 94.6112C191.429 95.6626 191.736 97.371 191.736 99.7365C191.736 102.19 191.429 103.986 190.816 105.125C190.29 106.264 189.546 106.965 188.582 107.227C187.618 107.49 186.611 107.622 185.559 107.622Z" fill="white" stroke="white" stroke-width="0.2"/>
<path d="M140.69 107.62C138.325 107.62 136.572 107.226 135.434 106.437C134.295 105.736 133.594 104.816 133.331 103.677C133.068 102.451 132.937 101.093 132.937 99.6034V50.7155C132.937 49.3137 133.068 48.0433 133.331 46.9043C133.681 45.6778 134.382 44.714 135.434 44.0131C136.572 43.3122 138.369 42.9618 140.822 42.9618C143.275 42.9618 145.027 43.3122 146.078 44.0131C147.217 44.714 147.918 45.6778 148.181 46.9043C148.444 48.1309 148.575 49.4889 148.575 50.9783V99.7348C148.575 101.224 148.444 102.582 148.181 103.809C147.918 104.948 147.217 105.868 146.078 106.569C145.027 107.269 143.231 107.62 140.69 107.62ZM140.69 30.2141C138.15 30.2141 136.266 29.8637 135.039 29.1628C133.9 28.3743 133.156 27.3229 132.805 26.0087C132.542 24.6945 132.411 23.2489 132.411 21.6719C132.411 20.0072 132.542 18.5616 132.805 17.3351C133.156 16.1085 133.944 15.1447 135.171 14.4438C136.397 13.6553 138.281 13.2611 140.822 13.2611C143.45 13.2611 145.334 13.6553 146.473 14.4438C147.612 15.2324 148.356 16.2837 148.707 17.5979C149.057 18.8245 149.233 20.2701 149.233 21.9347C149.233 23.4241 149.057 24.826 148.707 26.1401C148.356 27.4543 147.612 28.4619 146.473 29.1628C145.334 29.8637 143.406 30.2141 140.69 30.2141Z" fill="white" stroke="white" stroke-width="0.2"/>
<path d="M32.7537 107.487C30.4758 107.487 28.7673 107.137 27.6284 106.436C26.4894 105.735 25.7447 104.771 25.3943 103.545C25.1314 102.318 25 100.96 25 99.4707V23.642C25 22.2402 25.1314 20.9698 25.3943 19.8308C25.7447 18.6042 26.4894 17.6405 27.6284 16.9396C28.7673 16.1511 30.5634 15.7568 33.0166 15.7568C34.8564 15.7568 36.2144 15.8882 37.0906 16.1511C38.0543 16.3263 38.799 16.6329 39.3247 17.071C39.8503 17.4215 40.376 17.9033 40.9017 18.5166L72.968 63.3305H69.9453L102.143 18.3852C102.756 17.6843 103.37 17.1586 103.983 16.8082C104.596 16.4577 105.385 16.1949 106.348 16.0197C107.312 15.8444 108.583 15.7568 110.16 15.7568C112.525 15.7568 114.277 16.1511 115.416 16.9396C116.555 17.6405 117.256 18.6042 117.519 19.8308C117.869 21.0574 118.045 22.4154 118.045 23.9048V99.7335C118.045 101.048 117.869 102.318 117.519 103.545C117.256 104.771 116.555 105.735 115.416 106.436C114.277 107.137 112.481 107.487 110.028 107.487C107.663 107.487 105.91 107.093 104.771 106.304C103.632 105.604 102.888 104.64 102.537 103.413C102.274 102.187 102.143 100.873 102.143 99.4707V43.092L78.2247 77.6552C77.9619 78.0056 77.5676 78.4875 77.0419 79.1008C76.5163 79.6264 75.8154 80.1083 74.9392 80.5464C74.0631 80.9844 72.8803 81.2035 71.3909 81.2035C69.9891 81.2035 68.8502 80.9844 67.974 80.5464C67.0979 80.1083 66.397 79.6264 65.8713 79.1008C65.4333 78.5751 64.9952 78.0494 64.5571 77.5237L40.7703 43.092V99.7335C40.7703 101.048 40.5951 102.318 40.2446 103.545C39.9818 104.771 39.2809 105.735 38.1419 106.436C37.0029 107.137 35.2069 107.487 32.7537 107.487Z" fill="white" stroke="white" stroke-width="0.2"/>
</svg>
