<svg width="300" height="300" viewBox="0 0 300 300" fill="none" xmlns="http://www.w3.org/2000/svg">
<path d="M136.994 193.529C136.994 192.364 137.938 191.421 139.102 191.421H284.542C285.706 191.421 286.65 192.364 286.65 193.529V193.529C286.65 194.693 285.706 195.636 284.542 195.636H139.102C137.938 195.636 136.994 194.693 136.994 193.529V193.529Z" fill="#FFBB00"/>
<path d="M18.475 177.985V172.883C17.6289 171.573 16.8319 170.282 16.0839 169.01C15.3359 167.737 14.6309 166.489 13.9688 165.266H16.0655C16.5315 166.269 17.0526 167.291 17.6289 168.331C18.2052 169.359 18.7999 170.35 19.413 171.304C20.0138 170.35 20.6024 169.359 21.1787 168.331C21.755 167.291 22.2822 166.269 22.7604 165.266H24.7469C24.0847 166.489 23.3797 167.737 22.6317 169.01C21.8837 170.27 21.0928 171.549 20.259 172.846V177.985H18.475Z" fill="#27235C"/>
<path d="M33.8665 173.213C33.8665 173.972 33.7561 174.657 33.5354 175.269C33.3147 175.88 33.002 176.407 32.5974 176.847C32.205 177.288 31.7329 177.63 31.1811 177.875C30.6293 178.107 30.0285 178.224 29.3786 178.224C28.7288 178.224 28.1279 178.107 27.5762 177.875C27.0244 177.63 26.5462 177.288 26.1415 176.847C25.7492 176.407 25.4426 175.88 25.2219 175.269C25.0012 174.657 24.8908 173.972 24.8908 173.213C24.8908 172.467 25.0012 171.787 25.2219 171.176C25.4426 170.552 25.7492 170.019 26.1415 169.579C26.5462 169.138 27.0244 168.802 27.5762 168.569C28.1279 168.325 28.7288 168.202 29.3786 168.202C30.0285 168.202 30.6293 168.325 31.1811 168.569C31.7329 168.802 32.205 169.138 32.5974 169.579C33.002 170.019 33.3147 170.552 33.5354 171.176C33.7561 171.787 33.8665 172.467 33.8665 173.213ZM32.0824 173.213C32.0824 172.136 31.8371 171.286 31.3467 170.662C30.8685 170.025 30.2124 169.707 29.3786 169.707C28.5448 169.707 27.8827 170.025 27.3922 170.662C26.914 171.286 26.6749 172.136 26.6749 173.213C26.6749 174.29 26.914 175.146 27.3922 175.783C27.8827 176.407 28.5448 176.719 29.3786 176.719C30.2124 176.719 30.8685 176.407 31.3467 175.783C31.8371 175.146 32.0824 174.29 32.0824 173.213Z" fill="#27235C"/>
<path d="M43.8876 177.71C43.4952 177.808 42.9741 177.912 42.3242 178.022C41.6866 178.132 40.9448 178.187 40.0987 178.187C39.363 178.187 38.7438 178.083 38.241 177.875C37.7383 177.655 37.3337 177.349 37.0271 176.957C36.7206 176.566 36.4999 176.107 36.365 175.581C36.2301 175.042 36.1627 174.449 36.1627 173.8V168.441H37.8732V173.433C37.8732 174.596 38.0571 175.428 38.425 175.929C38.7928 176.431 39.412 176.682 40.2826 176.682C40.4665 176.682 40.6566 176.676 40.8528 176.664C41.049 176.651 41.2329 176.639 41.4046 176.627C41.5762 176.602 41.7295 176.584 41.8644 176.572C42.0115 176.547 42.1158 176.523 42.1771 176.498V168.441H43.8876V177.71Z" fill="#27235C"/>
<path d="M50.3658 168.239C50.513 168.239 50.6785 168.251 50.8624 168.276C51.0586 168.288 51.2487 168.312 51.4326 168.349C51.6165 168.374 51.7821 168.404 51.9292 168.441C52.0886 168.465 52.2051 168.49 52.2787 168.514L51.9844 170.001C51.8495 169.952 51.6227 169.897 51.3039 169.836C50.9973 169.762 50.5988 169.726 50.1083 169.726C49.7895 169.726 49.4707 169.762 49.1519 169.836C48.8454 169.897 48.643 169.94 48.545 169.964V177.985H46.8344V168.845C47.2391 168.698 47.7418 168.563 48.3426 168.441C48.9435 168.306 49.6179 168.239 50.3658 168.239Z" fill="#27235C"/>
<path d="M66.3157 165.266H68.0998V177.985H66.3157V172.112H60.0806V177.985H58.2965V165.266H60.0806V170.57H66.3157V165.266Z" fill="#27235C"/>
<path d="M79.5967 173.213C79.5967 173.972 79.4863 174.657 79.2656 175.269C79.0449 175.88 78.7322 176.407 78.3276 176.847C77.9352 177.288 77.4631 177.63 76.9113 177.875C76.3596 178.107 75.7587 178.224 75.1089 178.224C74.459 178.224 73.8582 178.107 73.3064 177.875C72.7546 177.63 72.2764 177.288 71.8717 176.847C71.4794 176.407 71.1728 175.88 70.9521 175.269C70.7314 174.657 70.621 173.972 70.621 173.213C70.621 172.467 70.7314 171.787 70.9521 171.176C71.1728 170.552 71.4794 170.019 71.8717 169.579C72.2764 169.138 72.7546 168.802 73.3064 168.569C73.8582 168.325 74.459 168.202 75.1089 168.202C75.7587 168.202 76.3596 168.325 76.9113 168.569C77.4631 168.802 77.9352 169.138 78.3276 169.579C78.7322 170.019 79.0449 170.552 79.2656 171.176C79.4863 171.787 79.5967 172.467 79.5967 173.213ZM77.8126 173.213C77.8126 172.136 77.5673 171.286 77.0769 170.662C76.5987 170.025 75.9427 169.707 75.1089 169.707C74.275 169.707 73.6129 170.025 73.1224 170.662C72.6442 171.286 72.4051 172.136 72.4051 173.213C72.4051 174.29 72.6442 175.146 73.1224 175.783C73.6129 176.407 74.275 176.719 75.1089 176.719C75.9427 176.719 76.5987 176.407 77.0769 175.783C77.5673 175.146 77.8126 174.29 77.8126 173.213Z" fill="#27235C"/>
<path d="M84.2287 176.755C84.9277 176.755 85.4427 176.664 85.7737 176.48C86.1171 176.296 86.2887 176.003 86.2887 175.599C86.2887 175.183 86.1232 174.853 85.7921 174.608C85.4611 174.363 84.9154 174.088 84.1552 173.782C83.7873 173.635 83.4317 173.488 83.0884 173.341C82.7573 173.182 82.4692 172.999 82.2239 172.791C81.9787 172.583 81.7825 172.332 81.6354 172.038C81.4882 171.745 81.4147 171.384 81.4147 170.955C81.4147 170.111 81.7273 169.444 82.3527 168.955C82.978 168.453 83.8302 168.202 84.9093 168.202C85.179 168.202 85.4488 168.221 85.7185 168.257C85.9883 168.282 86.2397 168.318 86.4726 168.367C86.7056 168.404 86.9079 168.447 87.0796 168.496C87.2635 168.545 87.4045 168.588 87.5026 168.624L87.19 170.093C87.006 169.995 86.7179 169.897 86.3255 169.799C85.9331 169.689 85.4611 169.634 84.9093 169.634C84.4311 169.634 84.0142 169.732 83.6586 169.928C83.303 170.111 83.1252 170.405 83.1252 170.809C83.1252 171.017 83.162 171.2 83.2355 171.359C83.3214 171.518 83.444 171.665 83.6034 171.8C83.7751 171.922 83.9835 172.038 84.2287 172.148C84.474 172.259 84.7683 172.375 85.1116 172.497C85.5653 172.668 85.9699 172.84 86.3255 173.011C86.6811 173.17 86.9815 173.36 87.2268 173.58C87.4842 173.8 87.6804 174.069 87.8153 174.388C87.9502 174.694 88.0176 175.073 88.0176 175.526C88.0176 176.407 87.6866 177.073 87.0244 177.526C86.3746 177.979 85.4427 178.205 84.2287 178.205C83.3827 178.205 82.7205 178.132 82.2423 177.985C81.7641 177.85 81.4392 177.746 81.2675 177.673L81.5802 176.205C81.7764 176.278 82.0891 176.388 82.5182 176.535C82.9474 176.682 83.5176 176.755 84.2287 176.755Z" fill="#27235C"/>
<path d="M91.8118 168.441H95.4352V169.872H91.8118V174.277C91.8118 174.755 91.8486 175.152 91.9222 175.471C91.9958 175.776 92.1061 176.021 92.2533 176.205C92.4004 176.376 92.5843 176.498 92.805 176.572C93.0258 176.645 93.2833 176.682 93.5775 176.682C94.0925 176.682 94.5033 176.627 94.8098 176.517C95.1287 176.394 95.3494 176.309 95.472 176.26L95.803 177.673C95.6314 177.759 95.331 177.863 94.9018 177.985C94.4726 178.12 93.9822 178.187 93.4304 178.187C92.7805 178.187 92.241 178.107 91.8118 177.948C91.3949 177.777 91.0577 177.526 90.8002 177.196C90.5427 176.865 90.3588 176.462 90.2485 175.984C90.1504 175.495 90.1013 174.932 90.1013 174.296V165.78L91.8118 165.486V168.441Z" fill="#27235C"/>
<path d="M99.3224 177.985H97.6119V168.441H99.3224V177.985ZM98.4579 166.716C98.1514 166.716 97.8877 166.618 97.667 166.422C97.4586 166.214 97.3543 165.939 97.3543 165.596C97.3543 165.253 97.4586 164.984 97.667 164.788C97.8877 164.58 98.1514 164.476 98.4579 164.476C98.7645 164.476 99.022 164.58 99.2304 164.788C99.4511 164.984 99.5615 165.253 99.5615 165.596C99.5615 165.939 99.4511 166.214 99.2304 166.422C99.022 166.618 98.7645 166.716 98.4579 166.716Z" fill="#27235C"/>
<path d="M102.264 168.716C102.656 168.618 103.177 168.514 103.827 168.404C104.477 168.294 105.225 168.239 106.071 168.239C106.831 168.239 107.463 168.349 107.966 168.569C108.468 168.777 108.867 169.077 109.161 169.469C109.468 169.848 109.682 170.307 109.805 170.845C109.928 171.384 109.989 171.977 109.989 172.626V177.985H108.278V172.993C108.278 172.405 108.235 171.904 108.15 171.488C108.076 171.072 107.947 170.735 107.763 170.478C107.579 170.221 107.334 170.038 107.028 169.928C106.721 169.805 106.341 169.744 105.887 169.744C105.703 169.744 105.513 169.75 105.317 169.762C105.121 169.775 104.931 169.793 104.747 169.817C104.575 169.83 104.416 169.848 104.269 169.872C104.134 169.897 104.036 169.915 103.974 169.928V177.985H102.264V168.716Z" fill="#27235C"/>
<path d="M118.821 177.031C118.674 177.129 118.386 177.257 117.957 177.416C117.54 177.563 117.049 177.636 116.485 177.636C115.909 177.636 115.364 177.545 114.849 177.361C114.346 177.177 113.904 176.896 113.524 176.517C113.144 176.125 112.844 175.642 112.623 175.067C112.402 174.492 112.292 173.806 112.292 173.011C112.292 172.314 112.396 171.677 112.605 171.102C112.813 170.515 113.113 170.013 113.506 169.597C113.91 169.169 114.401 168.839 114.977 168.606C115.554 168.361 116.203 168.239 116.927 168.239C117.724 168.239 118.417 168.3 119.005 168.423C119.606 168.533 120.109 168.637 120.513 168.735V177.251C120.513 178.719 120.133 179.784 119.373 180.444C118.613 181.105 117.46 181.436 115.915 181.436C115.314 181.436 114.744 181.387 114.205 181.289C113.678 181.191 113.218 181.075 112.825 180.94L113.138 179.453C113.481 179.588 113.898 179.704 114.389 179.802C114.891 179.912 115.413 179.967 115.952 179.967C116.97 179.967 117.699 179.765 118.141 179.362C118.594 178.958 118.821 178.315 118.821 177.434V177.031ZM118.803 169.946C118.631 169.897 118.398 169.854 118.104 169.817C117.822 169.768 117.436 169.744 116.945 169.744C116.026 169.744 115.314 170.044 114.812 170.643C114.321 171.243 114.076 172.038 114.076 173.029C114.076 173.58 114.143 174.051 114.278 174.443C114.425 174.834 114.616 175.158 114.849 175.415C115.094 175.672 115.37 175.862 115.676 175.984C115.995 176.107 116.32 176.168 116.651 176.168C117.105 176.168 117.522 176.107 117.902 175.984C118.282 175.85 118.582 175.697 118.803 175.526V169.946Z" fill="#27235C"/>
<path d="M125.261 175.893C125.273 175.991 125.279 176.088 125.279 176.186C125.279 176.272 125.279 176.364 125.279 176.462C125.279 177.233 125.163 177.991 124.93 178.738C124.709 179.496 124.403 180.218 124.01 180.903L122.686 180.481C122.993 179.857 123.195 179.221 123.293 178.572C123.391 177.936 123.44 177.337 123.44 176.774C123.44 176.615 123.434 176.462 123.422 176.315C123.422 176.168 123.416 176.027 123.403 175.893H125.261Z" fill="#27235C"/>
<path d="M131.837 171.616C131.837 170.527 131.997 169.567 132.315 168.735C132.646 167.902 133.088 167.211 133.64 166.661C134.204 166.098 134.854 165.675 135.589 165.394C136.337 165.113 137.128 164.972 137.962 164.972C138.783 164.972 139.556 165.113 140.279 165.394C141.015 165.675 141.659 166.098 142.211 166.661C142.762 167.211 143.198 167.902 143.517 168.735C143.848 169.567 144.013 170.527 144.013 171.616C144.013 172.705 143.848 173.666 143.517 174.498C143.198 175.33 142.762 176.027 142.211 176.59C141.659 177.141 141.015 177.557 140.279 177.838C139.556 178.12 138.783 178.26 137.962 178.26C137.128 178.26 136.337 178.12 135.589 177.838C134.854 177.557 134.204 177.141 133.64 176.59C133.088 176.027 132.646 175.33 132.315 174.498C131.997 173.666 131.837 172.705 131.837 171.616ZM133.713 171.616C133.713 172.387 133.811 173.091 134.007 173.727C134.204 174.351 134.48 174.883 134.835 175.324C135.203 175.764 135.644 176.107 136.159 176.352C136.687 176.584 137.275 176.7 137.925 176.7C138.575 176.7 139.157 176.584 139.672 176.352C140.187 176.107 140.623 175.764 140.978 175.324C141.346 174.883 141.628 174.351 141.824 173.727C142.021 173.091 142.119 172.387 142.119 171.616C142.119 170.845 142.021 170.148 141.824 169.524C141.628 168.887 141.346 168.349 140.978 167.909C140.623 167.468 140.187 167.132 139.672 166.899C139.157 166.654 138.575 166.532 137.925 166.532C137.275 166.532 136.687 166.654 136.159 166.899C135.644 167.132 135.203 167.468 134.835 167.909C134.48 168.349 134.204 168.887 134.007 169.524C133.811 170.148 133.713 170.845 133.713 171.616Z" fill="#27235C"/>
<path d="M154.172 177.71C153.779 177.808 153.258 177.912 152.608 178.022C151.971 178.132 151.229 178.187 150.383 178.187C149.647 178.187 149.028 178.083 148.525 177.875C148.022 177.655 147.618 177.349 147.311 176.957C147.005 176.566 146.784 176.107 146.649 175.581C146.514 175.042 146.447 174.449 146.447 173.8V168.441H148.157V173.433C148.157 174.596 148.341 175.428 148.709 175.929C149.077 176.431 149.696 176.682 150.567 176.682C150.751 176.682 150.941 176.676 151.137 176.664C151.333 176.651 151.517 176.639 151.689 176.627C151.86 176.602 152.014 176.584 152.149 176.572C152.296 176.547 152.4 176.523 152.461 176.498V168.441H154.172V177.71Z" fill="#27235C"/>
<path d="M160.65 168.239C160.797 168.239 160.963 168.251 161.147 168.276C161.343 168.288 161.533 168.312 161.717 168.349C161.901 168.374 162.066 168.404 162.213 168.441C162.373 168.465 162.489 168.49 162.563 168.514L162.269 170.001C162.134 169.952 161.907 169.897 161.588 169.836C161.281 169.762 160.883 169.726 160.393 169.726C160.074 169.726 159.755 169.762 159.436 169.836C159.13 169.897 158.927 169.94 158.829 169.964V177.985H157.119V168.845C157.523 168.698 158.026 168.563 158.627 168.441C159.228 168.306 159.902 168.239 160.65 168.239Z" fill="#27235C"/>
<path d="M174.816 172.662C175.012 172.907 175.257 173.231 175.551 173.635C175.858 174.027 176.171 174.467 176.49 174.957C176.808 175.434 177.121 175.935 177.428 176.462C177.746 176.988 178.016 177.496 178.237 177.985H176.287C176.042 177.52 175.772 177.049 175.478 176.572C175.196 176.095 174.908 175.642 174.613 175.214C174.319 174.773 174.025 174.363 173.731 173.984C173.449 173.605 173.191 173.274 172.958 172.993C172.799 173.005 172.633 173.011 172.462 173.011C172.302 173.011 172.137 173.011 171.965 173.011H170.365V177.985H168.581V165.449C169.083 165.327 169.641 165.247 170.254 165.211C170.88 165.162 171.45 165.137 171.965 165.137C173.755 165.137 175.116 165.474 176.048 166.147C176.992 166.82 177.464 167.823 177.464 169.157C177.464 170.001 177.238 170.723 176.784 171.322C176.342 171.922 175.686 172.369 174.816 172.662ZM172.112 166.697C171.352 166.697 170.769 166.716 170.365 166.752V171.543H171.634C172.247 171.543 172.799 171.512 173.289 171.451C173.78 171.39 174.19 171.274 174.522 171.102C174.865 170.931 175.128 170.692 175.312 170.386C175.496 170.068 175.588 169.652 175.588 169.138C175.588 168.661 175.496 168.263 175.312 167.945C175.128 167.627 174.877 167.376 174.558 167.193C174.252 167.009 173.884 166.881 173.455 166.807C173.038 166.734 172.59 166.697 172.112 166.697Z" fill="#27235C"/>
<path d="M179.504 173.231C179.504 172.387 179.627 171.653 179.872 171.029C180.117 170.393 180.442 169.866 180.847 169.45C181.252 169.034 181.717 168.722 182.245 168.514C182.772 168.306 183.311 168.202 183.863 168.202C185.151 168.202 186.138 168.606 186.824 169.414C187.511 170.209 187.854 171.426 187.854 173.066C187.854 173.14 187.854 173.237 187.854 173.36C187.854 173.47 187.848 173.574 187.836 173.672H181.288C181.362 174.663 181.65 175.415 182.153 175.929C182.655 176.443 183.44 176.7 184.507 176.7C185.108 176.7 185.611 176.651 186.015 176.553C186.432 176.443 186.745 176.339 186.953 176.241L187.192 177.673C186.984 177.783 186.616 177.899 186.089 178.022C185.574 178.144 184.985 178.205 184.323 178.205C183.489 178.205 182.766 178.083 182.153 177.838C181.552 177.581 181.055 177.233 180.663 176.792C180.271 176.352 179.976 175.831 179.78 175.232C179.596 174.62 179.504 173.953 179.504 173.231ZM186.07 172.295C186.083 171.524 185.886 170.894 185.482 170.405C185.089 169.903 184.544 169.652 183.845 169.652C183.452 169.652 183.103 169.732 182.796 169.891C182.502 170.038 182.251 170.233 182.042 170.478C181.834 170.723 181.668 171.004 181.546 171.322C181.435 171.641 181.362 171.965 181.325 172.295H186.07Z" fill="#27235C"/>
<path d="M192.537 176.755C193.236 176.755 193.751 176.664 194.082 176.48C194.425 176.296 194.597 176.003 194.597 175.599C194.597 175.183 194.432 174.853 194.101 174.608C193.769 174.363 193.224 174.088 192.464 173.782C192.096 173.635 191.74 173.488 191.397 173.341C191.066 173.182 190.778 172.999 190.532 172.791C190.287 172.583 190.091 172.332 189.944 172.038C189.797 171.745 189.723 171.384 189.723 170.955C189.723 170.111 190.036 169.444 190.661 168.955C191.286 168.453 192.139 168.202 193.218 168.202C193.487 168.202 193.757 168.221 194.027 168.257C194.297 168.282 194.548 168.318 194.781 168.367C195.014 168.404 195.216 168.447 195.388 168.496C195.572 168.545 195.713 168.588 195.811 168.624L195.498 170.093C195.314 169.995 195.026 169.897 194.634 169.799C194.242 169.689 193.769 169.634 193.218 169.634C192.739 169.634 192.323 169.732 191.967 169.928C191.611 170.111 191.434 170.405 191.434 170.809C191.434 171.017 191.47 171.2 191.544 171.359C191.63 171.518 191.752 171.665 191.912 171.8C192.083 171.922 192.292 172.038 192.537 172.148C192.782 172.259 193.077 172.375 193.42 172.497C193.874 172.668 194.278 172.84 194.634 173.011C194.989 173.17 195.29 173.36 195.535 173.58C195.793 173.8 195.989 174.069 196.124 174.388C196.259 174.694 196.326 175.073 196.326 175.526C196.326 176.407 195.995 177.073 195.333 177.526C194.683 177.979 193.751 178.205 192.537 178.205C191.691 178.205 191.029 178.132 190.551 177.985C190.073 177.85 189.748 177.746 189.576 177.673L189.889 176.205C190.085 176.278 190.397 176.388 190.827 176.535C191.256 176.682 191.826 176.755 192.537 176.755Z" fill="#27235C"/>
<path d="M205.16 173.231C205.16 172.118 204.884 171.261 204.332 170.662C203.78 170.062 203.045 169.762 202.125 169.762C201.61 169.762 201.205 169.781 200.911 169.817C200.629 169.854 200.402 169.897 200.231 169.946V175.966C200.439 176.137 200.739 176.303 201.132 176.462C201.524 176.621 201.953 176.7 202.419 176.7C202.91 176.7 203.327 176.615 203.67 176.443C204.026 176.26 204.314 176.015 204.534 175.709C204.755 175.391 204.915 175.024 205.013 174.608C205.111 174.18 205.16 173.721 205.16 173.231ZM206.944 173.231C206.944 173.953 206.846 174.62 206.65 175.232C206.466 175.844 206.19 176.37 205.822 176.81C205.454 177.251 205 177.593 204.461 177.838C203.934 178.083 203.327 178.205 202.64 178.205C202.088 178.205 201.598 178.132 201.169 177.985C200.752 177.838 200.439 177.697 200.231 177.563V181.381H198.52V168.735C198.925 168.637 199.427 168.533 200.028 168.423C200.641 168.3 201.346 168.239 202.143 168.239C202.879 168.239 203.541 168.355 204.13 168.588C204.718 168.82 205.221 169.151 205.638 169.579C206.055 170.007 206.374 170.533 206.594 171.157C206.827 171.769 206.944 172.46 206.944 173.231Z" fill="#27235C"/>
<path d="M217.793 173.213C217.793 173.972 217.683 174.657 217.462 175.269C217.241 175.88 216.929 176.407 216.524 176.847C216.132 177.288 215.66 177.63 215.108 177.875C214.556 178.107 213.955 178.224 213.305 178.224C212.655 178.224 212.055 178.107 211.503 177.875C210.951 177.63 210.473 177.288 210.068 176.847C209.676 176.407 209.369 175.88 209.149 175.269C208.928 174.657 208.818 173.972 208.818 173.213C208.818 172.467 208.928 171.787 209.149 171.176C209.369 170.552 209.676 170.019 210.068 169.579C210.473 169.138 210.951 168.802 211.503 168.569C212.055 168.325 212.655 168.202 213.305 168.202C213.955 168.202 214.556 168.325 215.108 168.569C215.66 168.802 216.132 169.138 216.524 169.579C216.929 170.019 217.241 170.552 217.462 171.176C217.683 171.787 217.793 172.467 217.793 173.213ZM216.009 173.213C216.009 172.136 215.764 171.286 215.273 170.662C214.795 170.025 214.139 169.707 213.305 169.707C212.472 169.707 211.809 170.025 211.319 170.662C210.841 171.286 210.602 172.136 210.602 173.213C210.602 174.29 210.841 175.146 211.319 175.783C211.809 176.407 212.472 176.719 213.305 176.719C214.139 176.719 214.795 176.407 215.273 175.783C215.764 175.146 216.009 174.29 216.009 173.213Z" fill="#27235C"/>
<path d="M220.2 168.716C220.592 168.618 221.113 168.514 221.763 168.404C222.413 168.294 223.161 168.239 224.007 168.239C224.767 168.239 225.399 168.349 225.901 168.569C226.404 168.777 226.803 169.077 227.097 169.469C227.404 169.848 227.618 170.307 227.741 170.845C227.863 171.384 227.925 171.977 227.925 172.626V177.985H226.214V172.993C226.214 172.405 226.171 171.904 226.085 171.488C226.012 171.072 225.883 170.735 225.699 170.478C225.515 170.221 225.27 170.038 224.963 169.928C224.657 169.805 224.277 169.744 223.823 169.744C223.639 169.744 223.449 169.75 223.253 169.762C223.057 169.775 222.867 169.793 222.683 169.817C222.511 169.83 222.352 169.848 222.205 169.872C222.07 169.897 221.972 169.915 221.91 169.928V177.985H220.2V168.716Z" fill="#27235C"/>
<path d="M232.987 176.755C233.686 176.755 234.201 176.664 234.532 176.48C234.875 176.296 235.047 176.003 235.047 175.599C235.047 175.183 234.881 174.853 234.55 174.608C234.219 174.363 233.673 174.088 232.913 173.782C232.545 173.635 232.19 173.488 231.846 173.341C231.515 173.182 231.227 172.999 230.982 172.791C230.737 172.583 230.54 172.332 230.393 172.038C230.246 171.745 230.173 171.384 230.173 170.955C230.173 170.111 230.485 169.444 231.111 168.955C231.736 168.453 232.588 168.202 233.667 168.202C233.937 168.202 234.207 168.221 234.476 168.257C234.746 168.282 234.998 168.318 235.231 168.367C235.464 168.404 235.666 168.447 235.838 168.496C236.021 168.545 236.162 168.588 236.261 168.624L235.948 170.093C235.764 169.995 235.476 169.897 235.083 169.799C234.691 169.689 234.219 169.634 233.667 169.634C233.189 169.634 232.772 169.732 232.416 169.928C232.061 170.111 231.883 170.405 231.883 170.809C231.883 171.017 231.92 171.2 231.993 171.359C232.079 171.518 232.202 171.665 232.361 171.8C232.533 171.922 232.741 172.038 232.987 172.148C233.232 172.259 233.526 172.375 233.869 172.497C234.323 172.668 234.728 172.84 235.083 173.011C235.439 173.17 235.739 173.36 235.985 173.58C236.242 173.8 236.438 174.069 236.573 174.388C236.708 174.694 236.776 175.073 236.776 175.526C236.776 176.407 236.444 177.073 235.782 177.526C235.132 177.979 234.201 178.205 232.987 178.205C232.141 178.205 231.478 178.132 231 177.985C230.522 177.85 230.197 177.746 230.025 177.673L230.338 176.205C230.534 176.278 230.847 176.388 231.276 176.535C231.705 176.682 232.275 176.755 232.987 176.755Z" fill="#27235C"/>
<path d="M240.68 177.985H238.97V168.441H240.68V177.985ZM239.816 166.716C239.509 166.716 239.245 166.618 239.025 166.422C238.816 166.214 238.712 165.939 238.712 165.596C238.712 165.253 238.816 164.984 239.025 164.788C239.245 164.58 239.509 164.476 239.816 164.476C240.122 164.476 240.38 164.58 240.588 164.788C240.809 164.984 240.919 165.253 240.919 165.596C240.919 165.939 240.809 166.214 240.588 166.422C240.38 166.618 240.122 166.716 239.816 166.716Z" fill="#27235C"/>
<path d="M245.332 168.863C245.541 168.728 245.853 168.588 246.27 168.441C246.699 168.294 247.19 168.221 247.742 168.221C248.428 168.221 249.035 168.343 249.562 168.588C250.102 168.832 250.556 169.175 250.924 169.616C251.291 170.056 251.567 170.582 251.751 171.194C251.947 171.806 252.045 172.479 252.045 173.213C252.045 173.984 251.929 174.681 251.696 175.305C251.475 175.917 251.156 176.437 250.74 176.865C250.323 177.294 249.82 177.624 249.231 177.857C248.643 178.089 247.981 178.205 247.245 178.205C246.448 178.205 245.743 178.15 245.13 178.04C244.517 177.93 244.014 177.82 243.622 177.71V164.036L245.332 163.742V168.863ZM245.332 176.498C245.504 176.547 245.743 176.596 246.049 176.645C246.368 176.682 246.761 176.7 247.227 176.7C248.146 176.7 248.882 176.4 249.434 175.801C249.985 175.189 250.261 174.326 250.261 173.213C250.261 172.724 250.212 172.265 250.114 171.836C250.016 171.408 249.857 171.041 249.636 170.735C249.415 170.417 249.127 170.172 248.772 170.001C248.428 169.817 248.011 169.726 247.521 169.726C247.055 169.726 246.626 169.805 246.233 169.964C245.841 170.123 245.541 170.289 245.332 170.46V176.498Z" fill="#27235C"/>
<path d="M256.163 177.985H254.452V168.441H256.163V177.985ZM255.299 166.716C254.992 166.716 254.728 166.618 254.508 166.422C254.299 166.214 254.195 165.939 254.195 165.596C254.195 165.253 254.299 164.984 254.508 164.788C254.728 164.58 254.992 164.476 255.299 164.476C255.605 164.476 255.863 164.58 256.071 164.788C256.292 164.984 256.402 165.253 256.402 165.596C256.402 165.939 256.292 166.214 256.071 166.422C255.863 166.618 255.605 166.716 255.299 166.716Z" fill="#27235C"/>
<path d="M261.974 178.169C260.919 178.144 260.171 177.918 259.73 177.489C259.288 177.061 259.068 176.394 259.068 175.489V164.036L260.778 163.742V175.214C260.778 175.495 260.803 175.727 260.852 175.911C260.901 176.095 260.981 176.241 261.091 176.352C261.201 176.462 261.348 176.547 261.532 176.608C261.716 176.657 261.943 176.7 262.213 176.737L261.974 178.169Z" fill="#27235C"/>
<path d="M265.844 177.985H264.134V168.441H265.844V177.985ZM264.98 166.716C264.673 166.716 264.41 166.618 264.189 166.422C263.98 166.214 263.876 165.939 263.876 165.596C263.876 165.253 263.98 164.984 264.189 164.788C264.41 164.58 264.673 164.476 264.98 164.476C265.286 164.476 265.544 164.58 265.752 164.788C265.973 164.984 266.083 165.253 266.083 165.596C266.083 165.939 265.973 166.214 265.752 166.422C265.544 166.618 265.286 166.716 264.98 166.716Z" fill="#27235C"/>
<path d="M270.386 168.441H274.009V169.872H270.386V174.277C270.386 174.755 270.423 175.152 270.496 175.471C270.57 175.776 270.68 176.021 270.827 176.205C270.975 176.376 271.158 176.498 271.379 176.572C271.6 176.645 271.857 176.682 272.152 176.682C272.667 176.682 273.077 176.627 273.384 176.517C273.703 176.394 273.923 176.309 274.046 176.26L274.377 177.673C274.206 177.759 273.905 177.863 273.476 177.985C273.047 178.12 272.556 178.187 272.005 178.187C271.355 178.187 270.815 178.107 270.386 177.948C269.969 177.777 269.632 177.526 269.374 177.196C269.117 176.865 268.933 176.462 268.823 175.984C268.725 175.495 268.675 174.932 268.675 174.296V165.78L270.386 165.486V168.441Z" fill="#27235C"/>
<path d="M275.064 179.765C275.199 179.827 275.371 179.882 275.579 179.931C275.8 179.992 276.014 180.022 276.223 180.022C276.897 180.022 277.424 179.869 277.805 179.563C278.185 179.27 278.528 178.787 278.835 178.114C278.062 176.645 277.339 175.091 276.664 173.452C276.002 171.8 275.45 170.129 275.009 168.441H276.848C276.983 168.991 277.142 169.585 277.326 170.221C277.523 170.857 277.737 171.512 277.97 172.185C278.203 172.858 278.454 173.531 278.724 174.204C278.994 174.877 279.276 175.526 279.57 176.15C280.036 174.865 280.441 173.592 280.784 172.332C281.127 171.072 281.452 169.775 281.759 168.441H283.525C283.083 170.24 282.593 171.971 282.053 173.635C281.514 175.287 280.931 176.835 280.306 178.279C280.061 178.829 279.803 179.3 279.533 179.692C279.276 180.096 278.988 180.426 278.669 180.683C278.35 180.94 277.988 181.13 277.584 181.252C277.191 181.374 276.744 181.436 276.241 181.436C276.106 181.436 275.965 181.423 275.818 181.399C275.671 181.387 275.524 181.362 275.377 181.325C275.242 181.301 275.113 181.27 274.99 181.234C274.88 181.197 274.8 181.166 274.751 181.142L275.064 179.765Z" fill="#27235C"/>
<path d="M286.85 176.994C286.85 177.324 286.74 177.612 286.519 177.857C286.298 178.101 285.998 178.224 285.618 178.224C285.238 178.224 284.937 178.101 284.717 177.857C284.496 177.612 284.386 177.324 284.386 176.994C284.386 176.664 284.496 176.376 284.717 176.131C284.937 175.887 285.238 175.764 285.618 175.764C285.998 175.764 286.298 175.887 286.519 176.131C286.74 176.376 286.85 176.664 286.85 176.994Z" fill="#27235C"/>
<path d="M272.005 151.282C269.902 151.282 268.014 150.874 266.34 150.058C264.709 149.2 263.315 148.041 262.156 146.582C261.04 145.123 260.182 143.449 259.581 141.561C259.023 139.63 258.744 137.57 258.744 135.381C258.787 133.193 259.109 131.154 259.71 129.266C260.311 127.335 261.169 125.661 262.285 124.245C263.443 122.786 264.838 121.648 266.469 120.833C268.1 120.018 269.945 119.61 272.005 119.61C273.979 119.61 275.825 120.018 277.541 120.833C279.301 121.648 280.846 122.786 282.176 124.245C283.549 125.661 284.622 127.335 285.395 129.266C286.167 131.154 286.553 133.171 286.553 135.317C286.553 137.549 286.167 139.651 285.395 141.626C284.622 143.557 283.571 145.252 282.24 146.711C280.91 148.127 279.365 149.243 277.606 150.058C275.846 150.874 273.979 151.282 272.005 151.282ZM270.975 143.75C272.477 143.75 273.829 143.407 275.031 142.72C276.232 141.99 277.176 141.003 277.863 139.759C278.593 138.514 278.957 137.098 278.957 135.51C278.957 133.879 278.593 132.442 277.863 131.197C277.176 129.91 276.232 128.923 275.031 128.236C273.829 127.506 272.477 127.142 270.975 127.142C269.516 127.142 268.186 127.506 266.984 128.236C265.782 128.966 264.817 129.953 264.087 131.197C263.401 132.442 263.057 133.879 263.057 135.51C263.057 137.098 263.401 138.514 264.087 139.759C264.817 141.003 265.782 141.99 266.984 142.72C268.186 143.407 269.516 143.75 270.975 143.75ZM259.066 151.346C257.907 151.346 257.049 151.153 256.491 150.767C255.933 150.423 255.59 149.973 255.461 149.415C255.332 148.814 255.268 148.149 255.268 147.419V109.053C255.268 108.323 255.332 107.679 255.461 107.122C255.59 106.521 255.933 106.049 256.491 105.705C257.049 105.362 257.907 105.19 259.066 105.19C260.268 105.19 261.126 105.362 261.641 105.705C262.156 106.049 262.478 106.521 262.607 107.122C262.735 107.722 262.8 108.366 262.8 109.053V148.707C262.628 149.651 262.263 150.316 261.705 150.702C261.19 151.131 260.311 151.346 259.066 151.346Z" fill="#27235C" stroke="#27235C" stroke-width="0.2"/>
<path d="M236.082 151.733C233.292 151.733 230.846 151.282 228.743 150.381C226.683 149.48 224.945 148.257 223.529 146.712C222.155 145.124 221.104 143.365 220.374 141.433C219.688 139.459 219.344 137.421 219.344 135.318C219.344 132.228 220.053 129.481 221.469 127.078C222.885 124.675 224.838 122.787 227.327 121.413C229.859 120.04 232.756 119.353 236.017 119.353C238.335 119.353 240.373 119.718 242.133 120.448C243.892 121.177 245.351 122.143 246.51 123.344C247.712 124.503 248.613 125.791 249.214 127.207C249.857 128.623 250.179 129.996 250.179 131.327C250.179 133.601 249.621 135.253 248.506 136.283C247.433 137.313 246.081 137.828 244.45 137.828H227.456C227.498 139.288 227.949 140.554 228.807 141.626C229.709 142.699 230.824 143.536 232.155 144.137C233.528 144.695 234.923 144.974 236.339 144.974C237.412 144.974 238.356 144.909 239.171 144.781C240.03 144.652 240.759 144.502 241.36 144.33C241.961 144.116 242.476 143.901 242.905 143.686C243.377 143.472 243.806 143.279 244.193 143.107C244.579 142.935 244.944 142.828 245.287 142.785C245.759 142.742 246.231 142.85 246.703 143.107C247.175 143.365 247.561 143.815 247.862 144.459C248.119 144.888 248.291 145.296 248.377 145.682C248.506 146.025 248.57 146.369 248.57 146.712C248.57 147.57 248.055 148.386 247.025 149.158C245.995 149.888 244.536 150.488 242.648 150.961C240.802 151.476 238.614 151.733 236.082 151.733ZM227.456 133.258H240.652C241.382 133.258 241.939 133.151 242.326 132.936C242.712 132.679 242.905 132.164 242.905 131.391C242.905 130.404 242.605 129.524 242.004 128.752C241.403 127.936 240.588 127.314 239.558 126.885C238.528 126.413 237.326 126.177 235.953 126.177C234.365 126.177 232.927 126.499 231.64 127.142C230.352 127.743 229.322 128.58 228.55 129.653C227.82 130.726 227.456 131.928 227.456 133.258Z" fill="#27235C" stroke="#27235C" stroke-width="0.2"/>
<path d="M178.489 151.155C177.631 151.155 176.944 151.005 176.429 150.705C175.914 150.361 175.528 149.975 175.27 149.546C175.056 149.117 174.906 148.752 174.82 148.452L162.203 111.501C161.773 110.128 161.709 109.098 162.01 108.411C162.31 107.682 163.19 107.081 164.649 106.609C165.636 106.266 166.43 106.116 167.031 106.158C167.631 106.201 168.125 106.459 168.511 106.931C168.94 107.36 169.305 108.047 169.606 108.991L178.875 137.058L187.179 109.248C187.308 108.819 187.48 108.39 187.694 107.961C187.952 107.489 188.338 107.103 188.853 106.802C189.368 106.502 190.076 106.352 190.977 106.352C192.007 106.352 192.78 106.523 193.295 106.867C193.81 107.21 194.175 107.596 194.389 108.025C194.647 108.411 194.818 108.776 194.904 109.12L203.208 137.251L212.542 109.055C212.843 108.068 213.186 107.339 213.572 106.867C214.002 106.394 214.538 106.137 215.182 106.094C215.826 106.008 216.619 106.137 217.564 106.48C218.551 106.824 219.259 107.21 219.688 107.639C220.117 108.025 220.332 108.54 220.332 109.184C220.332 109.785 220.181 110.557 219.881 111.501L207.328 148.516C207.242 148.773 207.071 149.117 206.813 149.546C206.599 149.975 206.234 150.361 205.719 150.705C205.204 151.005 204.496 151.155 203.595 151.155C202.693 151.155 201.985 150.962 201.47 150.576C200.955 150.19 200.569 149.76 200.312 149.288C200.054 148.816 199.882 148.473 199.797 148.258L191.042 119.934L182.287 148.194C182.201 148.494 182.03 148.881 181.772 149.353C181.558 149.825 181.193 150.254 180.678 150.64C180.163 150.984 179.433 151.155 178.489 151.155Z" fill="#27235C" stroke="#27235C" stroke-width="0.2"/>
<path d="M145.017 151.734C143.901 151.734 142.721 151.605 141.476 151.347C140.232 151.133 139.03 150.811 137.871 150.382C136.712 149.91 135.704 149.373 134.846 148.772C134.03 148.129 133.515 147.421 133.301 146.648C133.129 146.219 133.065 145.811 133.108 145.425C133.151 144.996 133.279 144.567 133.494 144.138C133.708 143.665 134.03 143.193 134.459 142.721C134.846 142.249 135.232 141.992 135.618 141.949C136.047 141.863 136.584 141.992 137.227 142.335C137.785 142.55 138.386 142.829 139.03 143.172C139.717 143.515 140.403 143.859 141.09 144.202C141.819 144.545 142.549 144.824 143.279 145.039C144.051 145.253 144.802 145.361 145.532 145.361C147.12 145.361 148.386 145.103 149.33 144.588C150.274 144.03 150.746 143.258 150.746 142.271C150.746 141.713 150.596 141.219 150.295 140.79C149.995 140.361 149.587 140.018 149.072 139.76C148.6 139.46 148.021 139.202 147.334 138.988C146.69 138.73 145.982 138.516 145.21 138.344C144.48 138.129 143.708 137.893 142.892 137.636C141.819 137.335 140.747 136.971 139.674 136.541C138.601 136.112 137.635 135.554 136.777 134.868C135.961 134.181 135.296 133.323 134.781 132.293C134.266 131.263 134.009 129.975 134.009 128.43C134.009 126.499 134.459 124.868 135.361 123.538C136.305 122.165 137.657 121.113 139.416 120.384C141.176 119.654 143.3 119.289 145.789 119.289C146.647 119.289 147.463 119.354 148.235 119.483C149.051 119.611 149.823 119.804 150.553 120.062C151.325 120.277 152.055 120.555 152.741 120.899C153.471 121.242 154.158 121.628 154.801 122.058C155.874 122.658 156.432 123.366 156.475 124.182C156.518 124.954 156.218 125.791 155.574 126.692C155.102 127.293 154.63 127.722 154.158 127.98C153.686 128.194 153.192 128.194 152.677 127.98C151.99 127.637 151.239 127.272 150.424 126.886C149.652 126.456 148.836 126.092 147.978 125.791C147.162 125.491 146.304 125.341 145.403 125.341C144.545 125.341 143.772 125.469 143.085 125.727C142.399 125.984 141.884 126.349 141.54 126.821C141.197 127.293 141.026 127.851 141.026 128.495C141.026 129.096 141.197 129.589 141.54 129.975C141.884 130.362 142.334 130.684 142.892 130.941C143.45 131.199 144.115 131.435 144.888 131.649C145.66 131.821 146.476 131.992 147.334 132.164C148.536 132.422 149.759 132.743 151.003 133.13C152.248 133.516 153.385 134.052 154.415 134.739C155.488 135.426 156.346 136.348 156.99 137.507C157.634 138.623 157.956 140.082 157.956 141.884C157.956 145.017 156.797 147.442 154.48 149.159C152.205 150.875 149.051 151.734 145.017 151.734Z" fill="#27235C" stroke="#27235C" stroke-width="0.2"/>
<path d="M114.628 151.733C111.838 151.733 109.392 151.282 107.289 150.381C105.229 149.48 103.491 148.256 102.075 146.711C100.702 145.124 99.6504 143.364 98.9208 141.433C98.2342 139.459 97.8909 137.42 97.8909 135.317C97.8909 132.228 98.599 129.481 100.015 127.078C101.431 124.674 103.384 122.786 105.873 121.413C108.405 120.04 111.302 119.353 114.564 119.353C116.881 119.353 118.919 119.718 120.679 120.447C122.439 121.177 123.898 122.142 125.056 123.344C126.258 124.503 127.159 125.79 127.76 127.206C128.404 128.623 128.726 129.996 128.726 131.326C128.726 133.601 128.168 135.253 127.052 136.283C125.979 137.313 124.627 137.828 122.996 137.828H106.002C106.045 139.287 106.495 140.553 107.354 141.626C108.255 142.699 109.371 143.536 110.701 144.137C112.074 144.694 113.469 144.973 114.885 144.973C115.958 144.973 116.902 144.909 117.718 144.78C118.576 144.652 119.306 144.501 119.907 144.33C120.507 144.115 121.022 143.901 121.451 143.686C121.924 143.471 122.353 143.278 122.739 143.107C123.125 142.935 123.49 142.828 123.833 142.785C124.305 142.742 124.777 142.849 125.249 143.107C125.722 143.364 126.108 143.815 126.408 144.458C126.666 144.888 126.837 145.295 126.923 145.682C127.052 146.025 127.116 146.368 127.116 146.711C127.116 147.57 126.601 148.385 125.571 149.158C124.541 149.887 123.082 150.488 121.194 150.96C119.349 151.475 117.16 151.733 114.628 151.733ZM106.002 133.257H119.198C119.928 133.257 120.486 133.15 120.872 132.936C121.258 132.678 121.451 132.163 121.451 131.391C121.451 130.404 121.151 129.524 120.55 128.751C119.949 127.936 119.134 127.314 118.104 126.885C117.074 126.412 115.872 126.176 114.499 126.176C112.911 126.176 111.474 126.498 110.186 127.142C108.899 127.743 107.869 128.58 107.096 129.653C106.367 130.725 106.002 131.927 106.002 133.257Z" fill="#27235C" stroke="#27235C" stroke-width="0.2"/>
<path d="M91.647 151.349C90.0591 151.349 88.6429 151.241 87.3983 151.027C86.1967 150.812 85.1453 150.447 84.2441 149.932C83.3858 149.417 82.6776 148.731 82.1197 147.872C81.5618 146.971 81.1327 145.877 80.8323 144.589C80.5748 143.302 80.446 141.757 80.446 139.955V108.927C80.446 108.197 80.5104 107.553 80.6392 106.996C80.8108 106.395 81.1541 105.923 81.6691 105.579C82.227 105.193 83.1068 105 84.3084 105C85.5101 105 86.3684 105.172 86.8834 105.515C87.4413 105.858 87.7846 106.33 87.9133 106.931C88.085 107.489 88.1708 108.133 88.1708 108.862V139.633C88.1708 140.448 88.2137 141.135 88.2996 141.693C88.4283 142.208 88.6214 142.637 88.8789 142.98C89.1793 143.281 89.5441 143.495 89.9733 143.624C90.4453 143.753 91.0032 143.817 91.647 143.817C92.2049 143.817 92.6984 143.881 93.1276 144.01C93.5996 144.139 93.9644 144.461 94.2219 144.976C94.5223 145.491 94.6725 146.328 94.6725 147.486C94.6725 148.688 94.5223 149.568 94.2219 150.126C93.9644 150.683 93.5996 151.027 93.1276 151.156C92.6555 151.284 92.162 151.349 91.647 151.349Z" fill="#27235C" stroke="#27235C" stroke-width="0.2"/>
<path d="M69.6688 151.348C68.5101 151.348 67.6518 151.155 67.0939 150.768C66.536 150.425 66.1926 149.974 66.0639 149.417C65.9351 148.816 65.8708 148.151 65.8708 147.421V123.474C65.8708 122.788 65.9351 122.165 66.0639 121.607C66.2356 121.007 66.5789 120.535 67.0939 120.191C67.6518 119.848 68.5315 119.676 69.7332 119.676C70.9348 119.676 71.7931 119.848 72.3081 120.191C72.866 120.535 73.2093 121.007 73.3381 121.607C73.4668 122.208 73.5312 122.873 73.5312 123.603V147.485C73.5312 148.215 73.4668 148.88 73.3381 149.481C73.2093 150.039 72.866 150.489 72.3081 150.833C71.7931 151.176 70.9133 151.348 69.6688 151.348ZM69.6688 113.432C68.4242 113.432 67.5016 113.26 66.9007 112.917C66.3428 112.531 65.9781 112.016 65.8064 111.372C65.6777 110.728 65.6133 110.02 65.6133 109.248C65.6133 108.432 65.6777 107.724 65.8064 107.123C65.9781 106.523 66.3643 106.051 66.9651 105.707C67.5659 105.321 68.4886 105.128 69.7332 105.128C71.0206 105.128 71.9433 105.321 72.5012 105.707C73.0591 106.093 73.4239 106.608 73.5956 107.252C73.7672 107.853 73.8531 108.561 73.8531 109.376C73.8531 110.106 73.7672 110.793 73.5956 111.436C73.4239 112.08 73.0591 112.574 72.5012 112.917C71.9433 113.26 70.9992 113.432 69.6688 113.432Z" fill="#27235C" stroke="#27235C" stroke-width="0.2"/>
<path d="M16.798 151.283C15.6822 151.283 14.8454 151.111 14.2875 150.768C13.7296 150.424 13.3648 149.952 13.1931 149.352C13.0644 148.751 13 148.086 13 147.356V110.213C13 109.526 13.0644 108.904 13.1931 108.346C13.3648 107.745 13.7296 107.273 14.2875 106.93C14.8454 106.543 15.7251 106.35 16.9268 106.35C17.828 106.35 18.4932 106.415 18.9223 106.543C19.3944 106.629 19.7592 106.779 20.0167 106.994C20.2742 107.166 20.5317 107.402 20.7892 107.702L36.4962 129.653H35.0156L50.7871 107.638C51.0875 107.294 51.3879 107.037 51.6883 106.865C51.9887 106.694 52.3749 106.565 52.847 106.479C53.3191 106.393 53.9414 106.35 54.7138 106.35C55.8726 106.35 56.7309 106.543 57.2888 106.93C57.8467 107.273 58.19 107.745 58.3187 108.346C58.4904 108.947 58.5762 109.612 58.5762 110.341V147.485C58.5762 148.128 58.4904 148.751 58.3187 149.352C58.19 149.952 57.8467 150.424 57.2888 150.768C56.7309 151.111 55.8511 151.283 54.6495 151.283C53.4907 151.283 52.6324 151.09 52.0745 150.703C51.5166 150.36 51.1519 149.888 50.9802 149.287C50.8514 148.686 50.7871 148.043 50.7871 147.356V119.74L39.0711 136.67C38.9424 136.842 38.7493 137.078 38.4918 137.378C38.2343 137.636 37.891 137.872 37.4618 138.086C37.0327 138.301 36.4533 138.408 35.7237 138.408C35.0371 138.408 34.4792 138.301 34.05 138.086C33.6209 137.872 33.2776 137.636 33.0201 137.378C32.8055 137.121 32.5909 136.863 32.3763 136.606L20.7248 119.74V147.485C20.7248 148.128 20.639 148.751 20.4673 149.352C20.3385 149.952 19.9952 150.424 19.4373 150.768C18.8794 151.111 17.9997 151.283 16.798 151.283Z" fill="#27235C" stroke="#27235C" stroke-width="0.2"/>
</svg>
