<svg width="201" height="200" viewBox="0 0 201 200" fill="none" xmlns="http://www.w3.org/2000/svg">
<path d="M92.2352 129.142C92.2352 128.351 92.8763 127.71 93.6672 127.71H192.472C193.263 127.71 193.904 128.351 193.904 129.142V129.142C193.904 129.933 193.263 130.574 192.472 130.574H93.6672C92.8763 130.574 92.2352 129.933 92.2352 129.142V129.142Z" fill="#FFBB00"/>
<path d="M11.7194 118.582V115.116C11.1446 114.227 10.6032 113.35 10.095 112.485C9.58691 111.621 9.10793 110.773 8.65811 109.941H10.0825C10.3991 110.623 10.7531 111.317 11.1446 112.024C11.5361 112.722 11.9401 113.395 12.3566 114.044C12.7648 113.395 13.1647 112.722 13.5562 112.024C13.9477 111.317 14.3059 110.623 14.6307 109.941H15.9802C15.5304 110.773 15.0514 111.621 14.5433 112.485C14.0351 113.341 13.4979 114.21 12.9314 115.091V118.582H11.7194Z" fill="#27235C"/>
<path d="M22.1756 115.34C22.1756 115.856 22.1006 116.321 21.9507 116.737C21.8008 117.153 21.5883 117.51 21.3135 117.809C21.0469 118.109 20.7262 118.341 20.3513 118.508C19.9765 118.666 19.5683 118.744 19.1268 118.744C18.6853 118.744 18.2772 118.666 17.9023 118.508C17.5275 118.341 17.2026 118.109 16.9277 117.809C16.6611 117.51 16.4529 117.153 16.3029 116.737C16.153 116.321 16.078 115.856 16.078 115.34C16.078 114.833 16.153 114.372 16.3029 113.956C16.4529 113.532 16.6611 113.171 16.9277 112.872C17.2026 112.572 17.5275 112.344 17.9023 112.186C18.2772 112.02 18.6853 111.936 19.1268 111.936C19.5683 111.936 19.9765 112.02 20.3513 112.186C20.7262 112.344 21.0469 112.572 21.3135 112.872C21.5883 113.171 21.8008 113.532 21.9507 113.956C22.1006 114.372 22.1756 114.833 22.1756 115.34ZM20.9636 115.34C20.9636 114.609 20.797 114.031 20.4638 113.607C20.1389 113.175 19.6933 112.959 19.1268 112.959C18.5604 112.959 18.1106 113.175 17.7774 113.607C17.4525 114.031 17.29 114.609 17.29 115.34C17.29 116.072 17.4525 116.654 17.7774 117.086C18.1106 117.51 18.5604 117.722 19.1268 117.722C19.6933 117.722 20.1389 117.51 20.4638 117.086C20.797 116.654 20.9636 116.072 20.9636 115.34Z" fill="#27235C"/>
<path d="M28.9835 118.395C28.7169 118.462 28.3629 118.533 27.9214 118.607C27.4882 118.682 26.9843 118.72 26.4095 118.72C25.9097 118.72 25.489 118.649 25.1475 118.508C24.8059 118.358 24.5311 118.15 24.3228 117.884C24.1146 117.618 23.9646 117.306 23.873 116.949C23.7814 116.583 23.7355 116.18 23.7355 115.739V112.099H24.8976V115.49C24.8976 116.28 25.0225 116.845 25.2724 117.186C25.5223 117.527 25.943 117.697 26.5344 117.697C26.6594 117.697 26.7885 117.693 26.9218 117.685C27.0551 117.676 27.18 117.668 27.2966 117.66C27.4132 117.643 27.5174 117.631 27.609 117.622C27.709 117.606 27.7798 117.589 27.8214 117.572V112.099H28.9835V118.395Z" fill="#27235C"/>
<path d="M33.3845 111.961C33.4844 111.961 33.5969 111.97 33.7218 111.986C33.8551 111.995 33.9842 112.011 34.1092 112.036C34.2341 112.053 34.3466 112.074 34.4465 112.099C34.5548 112.115 34.634 112.132 34.6839 112.148L34.484 113.158C34.3924 113.125 34.2383 113.088 34.0217 113.046C33.8134 112.996 33.5427 112.971 33.2095 112.971C32.9929 112.971 32.7764 112.996 32.5598 113.046C32.3515 113.088 32.2141 113.117 32.1474 113.133V118.582H30.9854V112.373C31.2603 112.273 31.6018 112.182 32.01 112.099C32.4182 112.007 32.8763 111.961 33.3845 111.961Z" fill="#27235C"/>
<path d="M44.22 109.941H45.432V118.582H44.22V114.592H39.9842V118.582H38.7722V109.941H39.9842V113.545H44.22V109.941Z" fill="#27235C"/>
<path d="M53.2424 115.34C53.2424 115.856 53.1674 116.321 53.0175 116.737C52.8676 117.153 52.6551 117.51 52.3803 117.809C52.1137 118.109 51.793 118.341 51.4181 118.508C51.0433 118.666 50.6351 118.744 50.1936 118.744C49.7521 118.744 49.344 118.666 48.9691 118.508C48.5943 118.341 48.2694 118.109 47.9945 117.809C47.7279 117.51 47.5197 117.153 47.3697 116.737C47.2198 116.321 47.1448 115.856 47.1448 115.34C47.1448 114.833 47.2198 114.372 47.3697 113.956C47.5197 113.532 47.7279 113.171 47.9945 112.872C48.2694 112.572 48.5943 112.344 48.9691 112.186C49.344 112.02 49.7521 111.936 50.1936 111.936C50.6351 111.936 51.0433 112.02 51.4181 112.186C51.793 112.344 52.1137 112.572 52.3803 112.872C52.6551 113.171 52.8676 113.532 53.0175 113.956C53.1674 114.372 53.2424 114.833 53.2424 115.34ZM52.0304 115.34C52.0304 114.609 51.8638 114.031 51.5306 113.607C51.2057 113.175 50.7601 112.959 50.1936 112.959C49.6272 112.959 49.1774 113.175 48.8441 113.607C48.5193 114.031 48.3568 114.609 48.3568 115.34C48.3568 116.072 48.5193 116.654 48.8441 117.086C49.1774 117.51 49.6272 117.722 50.1936 117.722C50.7601 117.722 51.2057 117.51 51.5306 117.086C51.8638 116.654 52.0304 116.072 52.0304 115.34Z" fill="#27235C"/>
<path d="M56.3892 117.747C56.864 117.747 57.2139 117.685 57.4388 117.56C57.672 117.435 57.7887 117.236 57.7887 116.961C57.7887 116.679 57.6762 116.454 57.4513 116.288C57.2264 116.122 56.8557 115.935 56.3392 115.727C56.0893 115.627 55.8478 115.528 55.6145 115.428C55.3896 115.32 55.1939 115.195 55.0272 115.054C54.8606 114.912 54.7274 114.742 54.6274 114.542C54.5274 114.343 54.4775 114.098 54.4775 113.807C54.4775 113.233 54.6899 112.78 55.1147 112.448C55.5395 112.107 56.1185 111.936 56.8515 111.936C57.0348 111.936 57.218 111.949 57.4013 111.974C57.5846 111.99 57.7553 112.015 57.9136 112.049C58.0719 112.074 58.2093 112.103 58.3259 112.136C58.4509 112.169 58.5467 112.198 58.6133 112.223L58.4009 113.221C58.276 113.154 58.0802 113.088 57.8136 113.021C57.5471 112.946 57.2264 112.909 56.8515 112.909C56.5267 112.909 56.2434 112.976 56.0019 113.109C55.7603 113.233 55.6395 113.433 55.6395 113.707C55.6395 113.848 55.6645 113.973 55.7145 114.081C55.7728 114.189 55.8561 114.289 55.9644 114.38C56.081 114.463 56.2226 114.542 56.3892 114.617C56.5558 114.692 56.7557 114.771 56.989 114.854C57.2972 114.971 57.5721 115.087 57.8136 115.203C58.0552 115.311 58.2593 115.44 58.4259 115.59C58.6008 115.739 58.7341 115.922 58.8257 116.138C58.9174 116.346 58.9632 116.604 58.9632 116.912C58.9632 117.51 58.7383 117.963 58.2885 118.271C57.847 118.578 57.2139 118.732 56.3892 118.732C55.8144 118.732 55.3646 118.682 55.0397 118.582C54.7149 118.491 54.4941 118.42 54.3775 118.37L54.5899 117.373C54.7232 117.423 54.9356 117.498 55.2272 117.597C55.5187 117.697 55.9061 117.747 56.3892 117.747Z" fill="#27235C"/>
<path d="M61.5408 112.099H64.0023V113.071H61.5408V116.064C61.5408 116.388 61.5658 116.658 61.6158 116.874C61.6657 117.082 61.7407 117.248 61.8407 117.373C61.9406 117.489 62.0656 117.572 62.2155 117.622C62.3655 117.672 62.5404 117.697 62.7403 117.697C63.0902 117.697 63.3692 117.66 63.5775 117.585C63.7941 117.502 63.944 117.444 64.0273 117.41L64.2522 118.37C64.1356 118.429 63.9315 118.499 63.64 118.582C63.3484 118.674 63.0152 118.72 62.6403 118.72C62.1989 118.72 61.8323 118.666 61.5408 118.557C61.2576 118.441 61.0285 118.271 60.8536 118.046C60.6786 117.822 60.5537 117.547 60.4787 117.223C60.4121 116.891 60.3787 116.508 60.3787 116.076V110.291L61.5408 110.091V112.099Z" fill="#27235C"/>
<path d="M66.6431 118.582H65.481V112.099H66.6431V118.582ZM66.0558 110.926C65.8475 110.926 65.6684 110.86 65.5185 110.727C65.3769 110.586 65.3061 110.399 65.3061 110.166C65.3061 109.933 65.3769 109.75 65.5185 109.617C65.6684 109.476 65.8475 109.405 66.0558 109.405C66.264 109.405 66.439 109.476 66.5806 109.617C66.7305 109.75 66.8055 109.933 66.8055 110.166C66.8055 110.399 66.7305 110.586 66.5806 110.727C66.439 110.86 66.264 110.926 66.0558 110.926Z" fill="#27235C"/>
<path d="M68.6414 112.286C68.908 112.219 69.262 112.148 69.7035 112.074C70.145 111.999 70.6531 111.961 71.2279 111.961C71.7443 111.961 72.1733 112.036 72.5149 112.186C72.8564 112.327 73.1271 112.531 73.327 112.797C73.5353 113.055 73.6811 113.366 73.7644 113.732C73.8477 114.098 73.8893 114.501 73.8893 114.941V118.582H72.7273V115.191C72.7273 114.792 72.6981 114.451 72.6398 114.168C72.5898 113.886 72.5024 113.657 72.3774 113.483C72.2525 113.308 72.0859 113.183 71.8776 113.109C71.6694 113.025 71.4111 112.984 71.1029 112.984C70.978 112.984 70.8488 112.988 70.7156 112.996C70.5823 113.005 70.4532 113.017 70.3282 113.034C70.2116 113.042 70.1033 113.055 70.0033 113.071C69.9117 113.088 69.8451 113.1 69.8034 113.109V118.582H68.6414V112.286Z" fill="#27235C"/>
<path d="M79.8897 117.934C79.7897 118.001 79.594 118.088 79.3024 118.196C79.0192 118.296 78.686 118.345 78.3028 118.345C77.9113 118.345 77.5406 118.283 77.1907 118.158C76.8492 118.034 76.5493 117.843 76.2911 117.585C76.0329 117.319 75.8288 116.991 75.6788 116.6C75.5289 116.209 75.4539 115.744 75.4539 115.203C75.4539 114.73 75.5247 114.297 75.6663 113.907C75.808 113.508 76.012 113.167 76.2786 112.884C76.5535 112.593 76.8867 112.369 77.2782 112.211C77.6697 112.045 78.1112 111.961 78.6027 111.961C79.1441 111.961 79.6148 112.003 80.0146 112.086C80.4228 112.161 80.7643 112.232 81.0392 112.298V118.084C81.0392 119.081 80.781 119.804 80.2645 120.253C79.7481 120.702 78.965 120.927 77.9155 120.927C77.5073 120.927 77.1199 120.893 76.7534 120.827C76.3952 120.76 76.0828 120.681 75.8163 120.59L76.0287 119.58C76.2619 119.671 76.5452 119.75 76.8784 119.817C77.2199 119.892 77.5739 119.929 77.9404 119.929C78.6318 119.929 79.1275 119.792 79.4274 119.518C79.7356 119.243 79.8897 118.807 79.8897 118.208V117.934ZM79.8772 113.121C79.7606 113.088 79.6023 113.059 79.4024 113.034C79.2108 113 78.9484 112.984 78.6152 112.984C77.9904 112.984 77.5073 113.188 77.1657 113.595C76.8325 114.002 76.6659 114.542 76.6659 115.216C76.6659 115.59 76.7118 115.91 76.8034 116.176C76.9034 116.442 77.0325 116.662 77.1907 116.837C77.3573 117.011 77.5448 117.14 77.753 117.223C77.9696 117.306 78.1903 117.348 78.4153 117.348C78.7235 117.348 79.0067 117.306 79.2649 117.223C79.5231 117.132 79.7272 117.028 79.8772 116.912V113.121Z" fill="#27235C"/>
<path d="M84.2645 117.161C84.2728 117.227 84.277 117.294 84.277 117.36C84.277 117.419 84.277 117.481 84.277 117.547C84.277 118.071 84.1979 118.587 84.0396 119.094C83.8897 119.609 83.6814 120.099 83.4148 120.565L82.5152 120.278C82.7234 119.854 82.8609 119.422 82.9275 118.981C82.9942 118.549 83.0275 118.142 83.0275 117.759C83.0275 117.651 83.0233 117.547 83.015 117.448C83.015 117.348 83.0108 117.252 83.0025 117.161H84.2645Z" fill="#27235C"/>
<path d="M88.732 114.256C88.732 113.516 88.8403 112.863 89.0568 112.298C89.2817 111.733 89.5816 111.263 89.9565 110.889C90.3397 110.507 90.7812 110.22 91.281 110.029C91.7891 109.838 92.3264 109.742 92.8928 109.742C93.4509 109.742 93.9757 109.838 94.4672 110.029C94.967 110.22 95.4043 110.507 95.7792 110.889C96.154 111.263 96.4497 111.733 96.6663 112.298C96.8912 112.863 97.0037 113.516 97.0037 114.256C97.0037 114.996 96.8912 115.648 96.6663 116.213C96.4497 116.779 96.154 117.252 95.7792 117.635C95.4043 118.009 94.967 118.291 94.4672 118.483C93.9757 118.674 93.4509 118.769 92.8928 118.769C92.3264 118.769 91.7891 118.674 91.281 118.483C90.7812 118.291 90.3397 118.009 89.9565 117.635C89.5816 117.252 89.2817 116.779 89.0568 116.213C88.8403 115.648 88.732 114.996 88.732 114.256ZM90.0065 114.256C90.0065 114.779 90.0731 115.257 90.2064 115.69C90.3397 116.114 90.5271 116.475 90.7687 116.774C91.0186 117.074 91.3184 117.306 91.6683 117.473C92.0265 117.631 92.4263 117.71 92.8678 117.71C93.3093 117.71 93.705 117.631 94.0549 117.473C94.4047 117.306 94.7004 117.074 94.942 116.774C95.1919 116.475 95.3835 116.114 95.5168 115.69C95.6501 115.257 95.7167 114.779 95.7167 114.256C95.7167 113.732 95.6501 113.258 95.5168 112.834C95.3835 112.402 95.1919 112.036 94.942 111.737C94.7004 111.438 94.4047 111.209 94.0549 111.051C93.705 110.885 93.3093 110.802 92.8678 110.802C92.4263 110.802 92.0265 110.885 91.6683 111.051C91.3184 111.209 91.0186 111.438 90.7687 111.737C90.5271 112.036 90.3397 112.402 90.2064 112.834C90.0731 113.258 90.0065 113.732 90.0065 114.256Z" fill="#27235C"/>
<path d="M103.905 118.395C103.638 118.462 103.284 118.533 102.843 118.607C102.41 118.682 101.906 118.72 101.331 118.72C100.831 118.72 100.411 118.649 100.069 118.508C99.7275 118.358 99.4526 118.15 99.2443 117.884C99.0361 117.618 98.8861 117.306 98.7945 116.949C98.7029 116.583 98.657 116.18 98.657 115.739V112.099H99.8191V115.49C99.8191 116.28 99.944 116.845 100.194 117.186C100.444 117.527 100.865 117.697 101.456 117.697C101.581 117.697 101.71 117.693 101.843 117.685C101.977 117.676 102.102 117.668 102.218 117.66C102.335 117.643 102.439 117.631 102.531 117.622C102.63 117.606 102.701 117.589 102.743 117.572V112.099H103.905V118.395Z" fill="#27235C"/>
<path d="M108.306 111.961C108.406 111.961 108.518 111.97 108.643 111.986C108.777 111.995 108.906 112.011 109.031 112.036C109.156 112.053 109.268 112.074 109.368 112.099C109.476 112.115 109.555 112.132 109.605 112.148L109.406 113.158C109.314 113.125 109.16 113.088 108.943 113.046C108.735 112.996 108.464 112.971 108.131 112.971C107.914 112.971 107.698 112.996 107.481 113.046C107.273 113.088 107.136 113.117 107.069 113.133V118.582H105.907V112.373C106.182 112.273 106.523 112.182 106.931 112.099C107.34 112.007 107.798 111.961 108.306 111.961Z" fill="#27235C"/>
<path d="M117.929 114.966C118.063 115.133 118.229 115.353 118.429 115.627C118.638 115.893 118.85 116.193 119.067 116.525C119.283 116.849 119.496 117.19 119.704 117.547C119.92 117.905 120.104 118.25 120.254 118.582H118.929C118.762 118.267 118.579 117.946 118.379 117.622C118.188 117.298 117.992 116.991 117.792 116.7C117.592 116.4 117.392 116.122 117.192 115.864C117.001 115.606 116.826 115.382 116.667 115.191C116.559 115.199 116.447 115.203 116.33 115.203C116.222 115.203 116.109 115.203 115.993 115.203H114.906V118.582H113.694V110.066C114.035 109.983 114.414 109.929 114.831 109.904C115.256 109.871 115.643 109.854 115.993 109.854C117.209 109.854 118.134 110.083 118.767 110.54C119.408 110.997 119.729 111.679 119.729 112.585C119.729 113.158 119.575 113.649 119.266 114.056C118.967 114.463 118.521 114.767 117.929 114.966ZM116.093 110.914C115.576 110.914 115.181 110.926 114.906 110.951V114.206H115.768C116.184 114.206 116.559 114.185 116.892 114.143C117.226 114.102 117.505 114.023 117.73 113.907C117.963 113.79 118.142 113.628 118.267 113.42C118.392 113.204 118.454 112.922 118.454 112.572C118.454 112.248 118.392 111.978 118.267 111.762C118.142 111.546 117.971 111.375 117.755 111.251C117.546 111.126 117.296 111.039 117.005 110.989C116.722 110.939 116.418 110.914 116.093 110.914Z" fill="#27235C"/>
<path d="M121.115 115.353C121.115 114.779 121.198 114.281 121.364 113.857C121.531 113.424 121.752 113.067 122.027 112.784C122.302 112.502 122.618 112.29 122.976 112.148C123.335 112.007 123.701 111.936 124.076 111.936C124.951 111.936 125.621 112.211 126.088 112.759C126.554 113.3 126.787 114.127 126.787 115.241C126.787 115.291 126.787 115.357 126.787 115.44C126.787 115.515 126.783 115.586 126.775 115.652H122.327C122.377 116.326 122.572 116.837 122.914 117.186C123.255 117.535 123.789 117.71 124.513 117.71C124.921 117.71 125.263 117.676 125.538 117.61C125.821 117.535 126.033 117.464 126.175 117.398L126.337 118.37C126.196 118.445 125.946 118.524 125.588 118.607C125.238 118.69 124.838 118.732 124.388 118.732C123.822 118.732 123.33 118.649 122.914 118.483C122.506 118.308 122.168 118.071 121.902 117.772C121.635 117.473 121.435 117.119 121.302 116.712C121.177 116.296 121.115 115.843 121.115 115.353ZM125.575 114.717C125.584 114.193 125.45 113.765 125.175 113.433C124.909 113.092 124.538 112.922 124.063 112.922C123.797 112.922 123.559 112.976 123.351 113.084C123.151 113.183 122.98 113.316 122.839 113.483C122.697 113.649 122.585 113.84 122.501 114.056C122.427 114.272 122.377 114.493 122.352 114.717H125.575Z" fill="#27235C"/>
<path d="M129.968 117.747C130.443 117.747 130.793 117.685 131.018 117.56C131.251 117.435 131.368 117.236 131.368 116.961C131.368 116.679 131.255 116.454 131.031 116.288C130.806 116.122 130.435 115.935 129.918 115.727C129.669 115.627 129.427 115.528 129.194 115.428C128.969 115.32 128.773 115.195 128.607 115.054C128.44 114.912 128.307 114.742 128.207 114.542C128.107 114.343 128.057 114.098 128.057 113.807C128.057 113.233 128.269 112.78 128.694 112.448C129.119 112.107 129.698 111.936 130.431 111.936C130.614 111.936 130.797 111.949 130.981 111.974C131.164 111.99 131.335 112.015 131.493 112.049C131.651 112.074 131.789 112.103 131.905 112.136C132.03 112.169 132.126 112.198 132.193 112.223L131.98 113.221C131.855 113.154 131.659 113.088 131.393 113.021C131.126 112.946 130.806 112.909 130.431 112.909C130.106 112.909 129.823 112.976 129.581 113.109C129.34 113.233 129.219 113.433 129.219 113.707C129.219 113.848 129.244 113.973 129.294 114.081C129.352 114.189 129.435 114.289 129.544 114.38C129.66 114.463 129.802 114.542 129.968 114.617C130.135 114.692 130.335 114.771 130.568 114.854C130.876 114.971 131.151 115.087 131.393 115.203C131.634 115.311 131.839 115.44 132.005 115.59C132.18 115.739 132.313 115.922 132.405 116.138C132.497 116.346 132.542 116.604 132.542 116.912C132.542 117.51 132.318 117.963 131.868 118.271C131.426 118.578 130.793 118.732 129.968 118.732C129.394 118.732 128.944 118.682 128.619 118.582C128.294 118.491 128.073 118.42 127.957 118.37L128.169 117.373C128.302 117.423 128.515 117.498 128.806 117.597C129.098 117.697 129.485 117.747 129.968 117.747Z" fill="#27235C"/>
<path d="M138.544 115.353C138.544 114.597 138.356 114.015 137.981 113.607C137.607 113.2 137.107 112.996 136.482 112.996C136.132 112.996 135.857 113.009 135.657 113.034C135.466 113.059 135.312 113.088 135.195 113.121V117.211C135.337 117.327 135.541 117.439 135.807 117.547C136.074 117.656 136.365 117.71 136.682 117.71C137.015 117.71 137.298 117.651 137.532 117.535C137.773 117.41 137.969 117.244 138.119 117.036C138.269 116.82 138.377 116.571 138.444 116.288C138.51 115.997 138.544 115.685 138.544 115.353ZM139.756 115.353C139.756 115.843 139.689 116.296 139.556 116.712C139.431 117.128 139.243 117.485 138.994 117.784C138.744 118.084 138.435 118.316 138.069 118.483C137.711 118.649 137.298 118.732 136.832 118.732C136.457 118.732 136.124 118.682 135.832 118.582C135.549 118.483 135.337 118.387 135.195 118.296V120.889H134.033V112.298C134.308 112.232 134.649 112.161 135.058 112.086C135.474 112.003 135.953 111.961 136.495 111.961C136.994 111.961 137.444 112.04 137.844 112.198C138.244 112.356 138.585 112.581 138.869 112.872C139.152 113.163 139.368 113.52 139.518 113.944C139.677 114.36 139.756 114.829 139.756 115.353Z" fill="#27235C"/>
<path d="M147.126 115.34C147.126 115.856 147.051 116.321 146.901 116.737C146.751 117.153 146.539 117.51 146.264 117.809C145.997 118.109 145.677 118.341 145.302 118.508C144.927 118.666 144.519 118.744 144.077 118.744C143.636 118.744 143.228 118.666 142.853 118.508C142.478 118.341 142.153 118.109 141.878 117.809C141.612 117.51 141.403 117.153 141.253 116.737C141.104 116.321 141.029 115.856 141.029 115.34C141.029 114.833 141.104 114.372 141.253 113.956C141.403 113.532 141.612 113.171 141.878 112.872C142.153 112.572 142.478 112.344 142.853 112.186C143.228 112.02 143.636 111.936 144.077 111.936C144.519 111.936 144.927 112.02 145.302 112.186C145.677 112.344 145.997 112.572 146.264 112.872C146.539 113.171 146.751 113.532 146.901 113.956C147.051 114.372 147.126 114.833 147.126 115.34ZM145.914 115.34C145.914 114.609 145.748 114.031 145.414 113.607C145.089 113.175 144.644 112.959 144.077 112.959C143.511 112.959 143.061 113.175 142.728 113.607C142.403 114.031 142.241 114.609 142.241 115.34C142.241 116.072 142.403 116.654 142.728 117.086C143.061 117.51 143.511 117.722 144.077 117.722C144.644 117.722 145.089 117.51 145.414 117.086C145.748 116.654 145.914 116.072 145.914 115.34Z" fill="#27235C"/>
<path d="M148.761 112.286C149.028 112.219 149.382 112.148 149.823 112.074C150.265 111.999 150.773 111.961 151.348 111.961C151.864 111.961 152.293 112.036 152.634 112.186C152.976 112.327 153.247 112.531 153.447 112.797C153.655 113.055 153.801 113.366 153.884 113.732C153.967 114.098 154.009 114.501 154.009 114.941V118.582H152.847V115.191C152.847 114.792 152.818 114.451 152.759 114.168C152.709 113.886 152.622 113.657 152.497 113.483C152.372 113.308 152.205 113.183 151.997 113.109C151.789 113.025 151.531 112.984 151.223 112.984C151.098 112.984 150.968 112.988 150.835 112.996C150.702 113.005 150.573 113.017 150.448 113.034C150.331 113.042 150.223 113.055 150.123 113.071C150.031 113.088 149.965 113.1 149.923 113.109V118.582H148.761V112.286Z" fill="#27235C"/>
<path d="M157.448 117.747C157.923 117.747 158.273 117.685 158.497 117.56C158.731 117.435 158.847 117.236 158.847 116.961C158.847 116.679 158.735 116.454 158.51 116.288C158.285 116.122 157.914 115.935 157.398 115.727C157.148 115.627 156.906 115.528 156.673 115.428C156.448 115.32 156.252 115.195 156.086 115.054C155.919 114.912 155.786 114.742 155.686 114.542C155.586 114.343 155.536 114.098 155.536 113.807C155.536 113.233 155.748 112.78 156.173 112.448C156.598 112.107 157.177 111.936 157.91 111.936C158.093 111.936 158.277 111.949 158.46 111.974C158.643 111.99 158.814 112.015 158.972 112.049C159.13 112.074 159.268 112.103 159.385 112.136C159.51 112.169 159.605 112.198 159.672 112.223L159.46 113.221C159.335 113.154 159.139 113.088 158.872 113.021C158.606 112.946 158.285 112.909 157.91 112.909C157.585 112.909 157.302 112.976 157.06 113.109C156.819 113.233 156.698 113.433 156.698 113.707C156.698 113.848 156.723 113.973 156.773 114.081C156.831 114.189 156.915 114.289 157.023 114.38C157.14 114.463 157.281 114.542 157.448 114.617C157.614 114.692 157.814 114.771 158.048 114.854C158.356 114.971 158.631 115.087 158.872 115.203C159.114 115.311 159.318 115.44 159.485 115.59C159.659 115.739 159.793 115.922 159.884 116.138C159.976 116.346 160.022 116.604 160.022 116.912C160.022 117.51 159.797 117.963 159.347 118.271C158.906 118.578 158.272 118.732 157.448 118.732C156.873 118.732 156.423 118.682 156.098 118.582C155.773 118.491 155.553 118.42 155.436 118.37L155.649 117.373C155.782 117.423 155.994 117.498 156.286 117.597C156.577 117.697 156.965 117.747 157.448 117.747Z" fill="#27235C"/>
<path d="M162.674 118.582H161.512V112.099H162.674V118.582ZM162.087 110.926C161.879 110.926 161.7 110.86 161.55 110.727C161.408 110.586 161.337 110.399 161.337 110.166C161.337 109.933 161.408 109.75 161.55 109.617C161.7 109.476 161.879 109.405 162.087 109.405C162.295 109.405 162.47 109.476 162.612 109.617C162.762 109.75 162.837 109.933 162.837 110.166C162.837 110.399 162.762 110.586 162.612 110.727C162.47 110.86 162.295 110.926 162.087 110.926Z" fill="#27235C"/>
<path d="M165.835 112.385C165.976 112.294 166.189 112.198 166.472 112.099C166.764 111.999 167.097 111.949 167.472 111.949C167.938 111.949 168.35 112.032 168.709 112.198C169.075 112.365 169.383 112.597 169.633 112.897C169.883 113.196 170.071 113.553 170.196 113.969C170.329 114.385 170.395 114.842 170.395 115.34C170.395 115.864 170.316 116.338 170.158 116.762C170.008 117.178 169.792 117.531 169.508 117.822C169.225 118.113 168.884 118.337 168.484 118.495C168.084 118.653 167.634 118.732 167.134 118.732C166.593 118.732 166.114 118.695 165.697 118.62C165.281 118.545 164.939 118.47 164.673 118.395V109.106L165.835 108.907V112.385ZM165.835 117.572C165.951 117.606 166.114 117.639 166.322 117.672C166.539 117.697 166.805 117.71 167.122 117.71C167.746 117.71 168.246 117.506 168.621 117.099C168.996 116.683 169.183 116.097 169.183 115.34C169.183 115.008 169.15 114.696 169.083 114.405C169.017 114.114 168.909 113.865 168.759 113.657C168.609 113.441 168.413 113.275 168.171 113.158C167.938 113.034 167.655 112.971 167.322 112.971C167.005 112.971 166.714 113.025 166.447 113.133C166.18 113.242 165.976 113.354 165.835 113.47V117.572Z" fill="#27235C"/>
<path d="M173.193 118.582H172.031V112.099H173.193V118.582ZM172.605 110.926C172.397 110.926 172.218 110.86 172.068 110.727C171.926 110.586 171.856 110.399 171.856 110.166C171.856 109.933 171.926 109.75 172.068 109.617C172.218 109.476 172.397 109.405 172.605 109.405C172.814 109.405 172.989 109.476 173.13 109.617C173.28 109.75 173.355 109.933 173.355 110.166C173.355 110.399 173.28 110.586 173.13 110.727C172.989 110.86 172.814 110.926 172.605 110.926Z" fill="#27235C"/>
<path d="M177.14 118.707C176.424 118.69 175.916 118.537 175.616 118.246C175.316 117.955 175.166 117.502 175.166 116.887V109.106L176.328 108.907V116.7C176.328 116.891 176.345 117.049 176.378 117.173C176.411 117.298 176.465 117.398 176.54 117.473C176.615 117.547 176.715 117.606 176.84 117.647C176.965 117.68 177.119 117.71 177.303 117.735L177.14 118.707Z" fill="#27235C"/>
<path d="M179.77 118.582H178.608V112.099H179.77V118.582ZM179.182 110.926C178.974 110.926 178.795 110.86 178.645 110.727C178.503 110.586 178.433 110.399 178.433 110.166C178.433 109.933 178.503 109.75 178.645 109.617C178.795 109.476 178.974 109.405 179.182 109.405C179.391 109.405 179.566 109.476 179.707 109.617C179.857 109.75 179.932 109.933 179.932 110.166C179.932 110.399 179.857 110.586 179.707 110.727C179.566 110.86 179.391 110.926 179.182 110.926Z" fill="#27235C"/>
<path d="M182.855 112.099H185.317V113.071H182.855V116.064C182.855 116.388 182.88 116.658 182.93 116.874C182.98 117.082 183.055 117.248 183.155 117.373C183.255 117.489 183.38 117.572 183.53 117.622C183.68 117.672 183.855 117.697 184.055 117.697C184.404 117.697 184.683 117.66 184.892 117.585C185.108 117.502 185.258 117.444 185.342 117.41L185.566 118.37C185.45 118.429 185.246 118.499 184.954 118.582C184.663 118.674 184.329 118.72 183.955 118.72C183.513 118.72 183.147 118.666 182.855 118.557C182.572 118.441 182.343 118.271 182.168 118.046C181.993 117.822 181.868 117.547 181.793 117.223C181.726 116.891 181.693 116.508 181.693 116.076V110.291L182.855 110.091V112.099Z" fill="#27235C"/>
<path d="M186.033 119.792C186.125 119.833 186.241 119.871 186.383 119.904C186.533 119.946 186.679 119.966 186.82 119.966C187.278 119.966 187.637 119.863 187.895 119.655C188.153 119.455 188.386 119.127 188.595 118.67C188.07 117.672 187.578 116.616 187.12 115.503C186.67 114.38 186.295 113.246 185.996 112.099H187.245C187.337 112.473 187.445 112.876 187.57 113.308C187.703 113.74 187.849 114.185 188.007 114.642C188.166 115.099 188.336 115.557 188.52 116.014C188.703 116.471 188.894 116.912 189.094 117.336C189.411 116.463 189.686 115.598 189.919 114.742C190.152 113.886 190.373 113.005 190.581 112.099H191.781C191.481 113.321 191.148 114.497 190.781 115.627C190.415 116.749 190.019 117.801 189.594 118.782C189.428 119.156 189.253 119.476 189.069 119.742C188.894 120.016 188.699 120.241 188.482 120.415C188.266 120.59 188.02 120.719 187.745 120.802C187.478 120.885 187.174 120.927 186.833 120.927C186.741 120.927 186.645 120.918 186.545 120.902C186.445 120.893 186.345 120.877 186.245 120.852C186.154 120.835 186.066 120.814 185.983 120.789C185.908 120.764 185.854 120.744 185.821 120.727L186.033 119.792Z" fill="#27235C"/>
<path d="M194.04 117.909C194.04 118.134 193.965 118.329 193.815 118.495C193.665 118.661 193.461 118.744 193.203 118.744C192.945 118.744 192.74 118.661 192.591 118.495C192.441 118.329 192.366 118.134 192.366 117.909C192.366 117.685 192.441 117.489 192.591 117.323C192.74 117.157 192.945 117.074 193.203 117.074C193.461 117.074 193.665 117.157 193.815 117.323C193.965 117.489 194.04 117.685 194.04 117.909Z" fill="#27235C"/>
<path d="M183.955 100.441C182.526 100.441 181.244 100.164 180.107 99.6105C178.999 99.0274 178.051 98.2402 177.264 97.2489C176.506 96.2577 175.923 95.1207 175.515 93.8379C175.136 92.5259 174.946 91.1265 174.946 89.6396C174.975 88.1527 175.194 86.7679 175.602 85.4851C176.01 84.1731 176.593 83.0361 177.351 82.074C178.139 81.0827 179.086 80.3101 180.194 79.7562C181.302 79.2022 182.556 78.9253 183.955 78.9253C185.296 78.9253 186.55 79.2022 187.716 79.7562C188.911 80.3101 189.961 81.0827 190.865 82.074C191.798 83.0361 192.526 84.1731 193.051 85.4851C193.576 86.7679 193.838 88.1381 193.838 89.5959C193.838 91.1119 193.576 92.5405 193.051 93.8816C192.526 95.1935 191.812 96.3451 190.908 97.3364C190.005 98.2985 188.955 99.0565 187.76 99.6105C186.564 100.164 185.296 100.441 183.955 100.441ZM183.255 95.3247C184.276 95.3247 185.194 95.0915 186.01 94.625C186.827 94.1294 187.468 93.4588 187.935 92.6134C188.43 91.7679 188.678 90.8058 188.678 89.7271C188.678 88.6192 188.43 87.6425 187.935 86.797C187.468 85.9224 186.827 85.2518 186.01 84.7854C185.194 84.2897 184.276 84.0419 183.255 84.0419C182.264 84.0419 181.36 84.2897 180.544 84.7854C179.728 85.281 179.072 85.9515 178.576 86.797C178.109 87.6425 177.876 88.6192 177.876 89.7271C177.876 90.8058 178.109 91.7679 178.576 92.6134C179.072 93.4588 179.728 94.1294 180.544 94.625C181.36 95.0915 182.264 95.3247 183.255 95.3247ZM175.165 100.485C174.378 100.485 173.795 100.354 173.416 100.092C173.037 99.8583 172.803 99.5522 172.716 99.1731C172.628 98.765 172.585 98.3131 172.585 97.8175V71.7532C172.585 71.2576 172.628 70.8203 172.716 70.4413C172.803 70.0331 173.037 69.7124 173.416 69.4792C173.795 69.246 174.378 69.1293 175.165 69.1293C175.981 69.1293 176.564 69.246 176.914 69.4792C177.264 69.7124 177.483 70.0331 177.57 70.4413C177.658 70.8495 177.701 71.2868 177.701 71.7532V98.6921C177.585 99.3335 177.337 99.7854 176.958 100.048C176.608 100.339 176.01 100.485 175.165 100.485Z" fill="#27235C" stroke="#27235C" stroke-width="0.2"/>
<path d="M159.55 100.748C157.655 100.748 155.994 100.442 154.565 99.8297C153.166 99.2175 151.985 98.3866 151.023 97.337C150.09 96.2583 149.375 95.0629 148.88 93.751C148.413 92.4099 148.18 91.025 148.18 89.5965C148.18 87.4973 148.661 85.6314 149.623 83.9988C150.585 82.3661 151.912 81.0833 153.603 80.1504C155.323 79.2174 157.291 78.751 159.507 78.751C161.081 78.751 162.466 78.9988 163.661 79.4944C164.857 79.99 165.848 80.646 166.635 81.4623C167.451 82.2495 168.064 83.1241 168.472 84.0862C168.909 85.0483 169.128 85.9813 169.128 86.8851C169.128 88.4303 168.749 89.5527 167.991 90.2524C167.262 90.9521 166.343 91.302 165.236 91.302H153.69C153.719 92.2933 154.026 93.1533 154.609 93.8822C155.221 94.6111 155.979 95.1796 156.883 95.5877C157.816 95.9667 158.763 96.1562 159.725 96.1562C160.454 96.1562 161.096 96.1125 161.65 96.025C162.233 95.9376 162.728 95.8355 163.136 95.7189C163.545 95.5732 163.894 95.4274 164.186 95.2816C164.507 95.1358 164.798 95.0046 165.061 94.888C165.323 94.7714 165.571 94.6985 165.804 94.6694C166.125 94.6402 166.445 94.7131 166.766 94.888C167.087 95.0629 167.349 95.3691 167.553 95.8064C167.728 96.0979 167.845 96.3749 167.903 96.6373C167.991 96.8705 168.034 97.1038 168.034 97.337C168.034 97.9201 167.685 98.474 166.985 98.9988C166.285 99.4944 165.294 99.9026 164.011 100.223C162.757 100.573 161.271 100.748 159.55 100.748ZM153.69 88.197H162.655C163.151 88.197 163.53 88.1242 163.792 87.9784C164.055 87.8035 164.186 87.4536 164.186 86.9288C164.186 86.2583 163.982 85.6606 163.574 85.1358C163.166 84.5819 162.612 84.1591 161.912 83.8676C161.212 83.5469 160.396 83.3865 159.463 83.3865C158.384 83.3865 157.408 83.6052 156.533 84.0425C155.658 84.4507 154.959 85.0192 154.434 85.7481C153.938 86.4769 153.69 87.2932 153.69 88.197Z" fill="#27235C" stroke="#27235C" stroke-width="0.2"/>
<path d="M120.425 100.356C119.842 100.356 119.375 100.254 119.026 100.049C118.676 99.8162 118.413 99.5538 118.238 99.2623C118.093 98.9707 117.991 98.7229 117.932 98.5188L109.361 73.4167C109.069 72.4838 109.026 71.7841 109.23 71.3176C109.434 70.822 110.031 70.4138 111.023 70.0931C111.693 69.8599 112.233 69.7578 112.641 69.787C113.049 69.8161 113.384 69.9911 113.647 70.3118C113.938 70.6033 114.186 71.0698 114.39 71.7112L120.687 90.7783L126.329 71.8861C126.416 71.5946 126.533 71.303 126.679 71.0115C126.854 70.6908 127.116 70.4284 127.466 70.2243C127.816 70.0202 128.297 69.9182 128.909 69.9182C129.609 69.9182 130.133 70.0348 130.483 70.268C130.833 70.5013 131.081 70.7637 131.227 71.0552C131.402 71.3176 131.518 71.5654 131.577 71.7987L137.218 90.9095L143.559 71.7549C143.763 71.0844 143.996 70.5887 144.259 70.268C144.55 69.9473 144.915 69.7724 145.352 69.7433C145.79 69.6849 146.329 69.7724 146.97 70.0056C147.641 70.2389 148.122 70.5013 148.413 70.7928C148.705 71.0552 148.851 71.4051 148.851 71.8424C148.851 72.2505 148.749 72.7753 148.545 73.4167L140.017 98.5626C139.959 98.7375 139.842 98.9707 139.667 99.2623C139.521 99.5538 139.273 99.8162 138.924 100.049C138.574 100.254 138.093 100.356 137.48 100.356C136.868 100.356 136.387 100.224 136.037 99.962C135.687 99.6996 135.425 99.408 135.25 99.0873C135.075 98.7666 134.959 98.5334 134.9 98.3876L128.953 79.1456L123.005 98.3439C122.947 98.548 122.83 98.8104 122.655 99.1311C122.51 99.4518 122.262 99.7433 121.912 100.006C121.562 100.239 121.066 100.356 120.425 100.356Z" fill="#27235C" stroke="#27235C" stroke-width="0.2"/>
<path d="M97.6853 100.748C96.9273 100.748 96.1256 100.661 95.2801 100.486C94.4346 100.34 93.6183 100.122 92.8311 99.8301C92.0439 99.5094 91.3588 99.145 90.7757 98.7368C90.2218 98.2995 89.8719 97.8184 89.7261 97.2937C89.6095 97.0021 89.5658 96.7252 89.5949 96.4628C89.6241 96.1712 89.7115 95.8797 89.8573 95.5881C90.0031 95.2674 90.2218 94.9467 90.5133 94.626C90.7757 94.3053 91.0381 94.1304 91.3005 94.1012C91.592 94.0429 91.9565 94.1304 92.3938 94.3636C92.7728 94.5094 93.1809 94.6989 93.6183 94.9321C94.0847 95.1654 94.5512 95.3986 95.0177 95.6319C95.5133 95.8651 96.0089 96.0546 96.5046 96.2004C97.0294 96.3461 97.5396 96.419 98.0352 96.419C99.1139 96.419 99.974 96.2441 100.615 95.8942C101.257 95.5152 101.577 94.9905 101.577 94.3199C101.577 93.9409 101.475 93.6056 101.271 93.3141C101.067 93.0225 100.79 92.7893 100.44 92.6144C100.12 92.4103 99.7262 92.2353 99.2597 92.0896C98.8224 91.9146 98.3413 91.7689 97.8165 91.6523C97.3209 91.5065 96.7961 91.3461 96.2422 91.1712C95.5133 90.9671 94.7844 90.7193 94.0556 90.4278C93.3267 90.1362 92.6707 89.7572 92.0877 89.2907C91.5337 88.8243 91.0818 88.2412 90.732 87.5415C90.3821 86.8417 90.2072 85.9671 90.2072 84.9175C90.2072 83.6056 90.5133 82.4977 91.1255 81.5939C91.7669 80.661 92.6853 79.9467 93.8807 79.4511C95.076 78.9554 96.5191 78.7076 98.2101 78.7076C98.7932 78.7076 99.3471 78.7513 99.8719 78.8388C100.426 78.9263 100.951 79.0575 101.446 79.2324C101.971 79.3782 102.467 79.5677 102.933 79.8009C103.429 80.0341 103.895 80.2965 104.333 80.5881C105.061 80.9962 105.44 81.4773 105.47 82.0312C105.499 82.556 105.295 83.1245 104.857 83.7368C104.537 84.1449 104.216 84.4365 103.895 84.6114C103.575 84.7572 103.239 84.7572 102.889 84.6114C102.423 84.3782 101.913 84.1304 101.359 83.868C100.834 83.5764 100.28 83.3286 99.697 83.1245C99.1431 82.9205 98.56 82.8184 97.9477 82.8184C97.3646 82.8184 96.8399 82.9059 96.3734 83.0808C95.9069 83.2557 95.557 83.5035 95.3238 83.8242C95.0906 84.1449 94.974 84.524 94.974 84.9613C94.974 85.3694 95.0906 85.7047 95.3238 85.9671C95.557 86.2295 95.8632 86.4482 96.2422 86.6231C96.6212 86.798 97.0731 86.9584 97.5979 87.1041C98.1226 87.2208 98.6766 87.3374 99.2597 87.454C100.076 87.6289 100.907 87.8476 101.752 88.11C102.598 88.3724 103.37 88.7368 104.07 89.2033C104.799 89.6697 105.382 90.2966 105.819 91.0837C106.257 91.8418 106.475 92.833 106.475 94.0575C106.475 96.1858 105.688 97.833 104.114 98.9992C102.569 100.165 100.426 100.748 97.6853 100.748Z" fill="#27235C" stroke="#27235C" stroke-width="0.2"/>
<path d="M77.0409 100.748C75.1458 100.748 73.484 100.442 72.0555 99.8295C70.656 99.2172 69.4753 98.3863 68.5132 97.3367C67.5802 96.258 66.8659 95.0627 66.3703 93.7507C65.9038 92.4096 65.6706 91.0248 65.6706 89.5962C65.6706 87.4971 66.1516 85.6312 67.1137 83.9985C68.0758 82.3659 69.4024 81.0831 71.0934 80.1501C72.8135 79.2172 74.7814 78.7507 76.9972 78.7507C78.5715 78.7507 79.9563 78.9985 81.1517 79.4941C82.347 79.9898 83.3383 80.6457 84.1255 81.4621C84.9418 82.2492 85.554 83.1239 85.9622 84.086C86.3995 85.0481 86.6182 85.981 86.6182 86.8848C86.6182 88.43 86.2392 89.5525 85.4811 90.2522C84.7523 90.9519 83.8339 91.3017 82.726 91.3017H71.1808C71.21 92.293 71.5161 93.1531 72.0992 93.8819C72.7114 94.6108 73.4695 95.1793 74.3732 95.5875C75.3062 95.9665 76.2537 96.156 77.2158 96.156C77.9447 96.156 78.5861 96.1122 79.14 96.0248C79.7231 95.9373 80.2187 95.8353 80.6269 95.7187C81.0351 95.5729 81.3849 95.4271 81.6765 95.2813C81.9972 95.1356 82.2887 95.0044 82.5511 94.8878C82.8135 94.7711 83.0613 94.6982 83.2946 94.6691C83.6153 94.6399 83.936 94.7128 84.2567 94.8878C84.5774 95.0627 84.8397 95.3688 85.0438 95.8061C85.2188 96.0977 85.3354 96.3746 85.3937 96.637C85.4811 96.8703 85.5249 97.1035 85.5249 97.3367C85.5249 97.9198 85.175 98.4738 84.4753 98.9986C83.7756 99.4942 82.7843 99.9023 81.5015 100.223C80.2479 100.573 78.761 100.748 77.0409 100.748ZM71.1808 88.1968H80.1459C80.6415 88.1968 81.0205 88.1239 81.2829 87.9781C81.5453 87.8032 81.6765 87.4533 81.6765 86.9285C81.6765 86.258 81.4724 85.6603 81.0642 85.1355C80.6561 84.5816 80.1021 84.1589 79.4024 83.8673C78.7027 83.5466 77.8864 83.3863 76.9534 83.3863C75.8747 83.3863 74.898 83.6049 74.0234 84.0422C73.1487 84.4504 72.449 85.0189 71.9243 85.7478C71.4286 86.4767 71.1808 87.293 71.1808 88.1968Z" fill="#27235C" stroke="#27235C" stroke-width="0.2"/>
<path d="M61.4289 100.487C60.3501 100.487 59.388 100.414 58.5426 100.268C57.7262 100.123 57.0119 99.8747 56.3997 99.5249C55.8166 99.175 55.3356 98.7085 54.9565 98.1254C54.5775 97.5132 54.286 96.7698 54.0819 95.8951C53.907 95.0205 53.8195 93.9709 53.8195 92.7464V71.6676C53.8195 71.172 53.8633 70.7347 53.9507 70.3557C54.0673 69.9475 54.3006 69.6268 54.6504 69.3936C55.0294 69.1312 55.6271 69 56.4434 69C57.2598 69 57.8429 69.1166 58.1927 69.3499C58.5717 69.5831 58.805 69.9038 58.8924 70.312C59.009 70.691 59.0673 71.1283 59.0673 71.6239V92.5278C59.0673 93.0817 59.0965 93.5482 59.1548 93.9272C59.2423 94.277 59.3735 94.5686 59.5484 94.8018C59.7525 95.0059 60.0003 95.1517 60.2918 95.2391C60.6125 95.3266 60.9916 95.3703 61.4289 95.3703C61.8079 95.3703 62.1432 95.4141 62.4347 95.5015C62.7554 95.589 63.0032 95.8077 63.1781 96.1575C63.3822 96.5074 63.4843 97.0759 63.4843 97.863C63.4843 98.6794 63.3822 99.277 63.1781 99.6561C63.0032 100.035 62.7554 100.268 62.4347 100.356C62.114 100.443 61.7787 100.487 61.4289 100.487Z" fill="#27235C" stroke="#27235C" stroke-width="0.2"/>
<path d="M46.4979 100.486C45.7107 100.486 45.1276 100.355 44.7486 100.093C44.3696 99.8596 44.1364 99.5534 44.0489 99.1744C43.9615 98.7663 43.9177 98.3144 43.9177 97.8187V81.5505C43.9177 81.084 43.9615 80.6613 44.0489 80.2823C44.1655 79.8741 44.3988 79.5534 44.7486 79.3202C45.1276 79.0869 45.7253 78.9703 46.5416 78.9703C47.358 78.9703 47.9411 79.0869 48.2909 79.3202C48.6699 79.5534 48.9032 79.8741 48.9906 80.2823C49.0781 80.6904 49.1218 81.1423 49.1218 81.6379V97.8625C49.1218 98.3581 49.0781 98.81 48.9906 99.2182C48.9032 99.5972 48.6699 99.9033 48.2909 100.137C47.9411 100.37 47.3434 100.486 46.4979 100.486ZM46.4979 74.7283C45.6524 74.7283 45.0256 74.6117 44.6174 74.3785C44.2384 74.1161 43.9906 73.7662 43.874 73.3289C43.7865 72.8916 43.7428 72.4105 43.7428 71.8857C43.7428 71.3318 43.7865 70.8507 43.874 70.4426C43.9906 70.0344 44.253 69.7137 44.6612 69.4805C45.0693 69.2181 45.6962 69.0869 46.5416 69.0869C47.4163 69.0869 48.0431 69.2181 48.4221 69.4805C48.8011 69.7429 49.0489 70.0927 49.1656 70.53C49.2822 70.9382 49.3405 71.4193 49.3405 71.9732C49.3405 72.4688 49.2822 72.9353 49.1656 73.3726C49.0489 73.8099 48.8011 74.1452 48.4221 74.3785C48.0431 74.6117 47.4017 74.7283 46.4979 74.7283Z" fill="#27235C" stroke="#27235C" stroke-width="0.2"/>
<path d="M10.5802 100.442C9.82216 100.442 9.25365 100.326 8.87464 100.092C8.49563 99.8591 8.24781 99.5384 8.1312 99.1303C8.04373 98.7221 8 98.2702 8 97.7746V72.5413C8 72.0748 8.04373 71.6521 8.1312 71.2731C8.24781 70.8649 8.49563 70.5442 8.87464 70.311C9.25365 70.0486 9.85132 69.9174 10.6676 69.9174C11.2799 69.9174 11.7318 69.9611 12.0233 70.0486C12.344 70.1069 12.5919 70.2089 12.7668 70.3547C12.9417 70.4713 13.1166 70.6317 13.2916 70.8357L23.9621 85.7483H22.9563L33.6706 70.792C33.8747 70.5588 34.0788 70.3839 34.2829 70.2672C34.487 70.1506 34.7494 70.0632 35.0701 70.0048C35.3908 69.9465 35.8135 69.9174 36.3383 69.9174C37.1255 69.9174 37.7085 70.0486 38.0876 70.311C38.4666 70.5442 38.6998 70.8649 38.7873 71.2731C38.9039 71.6812 38.9622 72.1331 38.9622 72.6288V97.8621C38.9622 98.2994 38.9039 98.7221 38.7873 99.1303C38.6998 99.5384 38.4666 99.8591 38.0876 100.092C37.7085 100.326 37.1109 100.442 36.2945 100.442C35.5074 100.442 34.9243 100.311 34.5453 100.049C34.1663 99.8154 33.9184 99.4947 33.8018 99.0865C33.7144 98.6784 33.6706 98.2411 33.6706 97.7746V79.0136L25.7114 90.5151C25.624 90.6317 25.4928 90.7921 25.3178 90.9961C25.1429 91.1711 24.9097 91.3314 24.6181 91.4772C24.3266 91.623 23.933 91.6959 23.4374 91.6959C22.9709 91.6959 22.5919 91.623 22.3003 91.4772C22.0088 91.3314 21.7756 91.1711 21.6006 90.9961C21.4549 90.8212 21.3091 90.6463 21.1633 90.4714L13.2478 79.0136V97.8621C13.2478 98.2994 13.1895 98.7221 13.0729 99.1303C12.9854 99.5384 12.7522 99.8591 12.3732 100.092C11.9942 100.326 11.3965 100.442 10.5802 100.442Z" fill="#27235C" stroke="#27235C" stroke-width="0.2"/>
</svg>
