<svg width="165" height="165" viewBox="0 0 165 165" fill="none" xmlns="http://www.w3.org/2000/svg">
<path d="M75.207 105.269C75.207 104.648 75.7109 104.144 76.3325 104.144H153.988C154.61 104.144 155.114 104.648 155.114 105.269V105.269C155.114 105.891 154.61 106.395 153.988 106.395H76.3325C75.7109 106.395 75.207 105.891 75.207 105.269V105.269Z" fill="#FFBB00"/>
<path d="M11.9236 96.9698V94.2454C11.4719 93.5463 11.0463 92.857 10.6469 92.1776C10.2476 91.4981 9.87112 90.8317 9.51758 90.1783H10.6371C10.8859 90.7141 11.1642 91.2596 11.4719 91.815C11.7796 92.3638 12.0971 92.893 12.4245 93.4026C12.7453 92.893 13.0595 92.3638 13.3672 91.815C13.6749 91.2596 13.9565 90.7141 14.2118 90.1783H15.2724C14.9189 90.8317 14.5424 91.4981 14.1431 92.1776C13.7437 92.8505 13.3214 93.5332 12.8762 94.2258V96.9698H11.9236Z" fill="#27235C"/>
<path d="M20.1417 94.4218C20.1417 94.8268 20.0828 95.1927 19.965 95.5194C19.8471 95.8461 19.6802 96.127 19.4641 96.3622C19.2546 96.5974 19.0026 96.7803 18.7079 96.911C18.4133 97.0351 18.0925 97.0972 17.7455 97.0972C17.3985 97.0972 17.0777 97.0351 16.7831 96.911C16.4885 96.7803 16.2332 96.5974 16.0171 96.3622C15.8076 96.127 15.6439 95.8461 15.5261 95.5194C15.4082 95.1927 15.3493 94.8268 15.3493 94.4218C15.3493 94.0232 15.4082 93.6606 15.5261 93.334C15.6439 93.0008 15.8076 92.7166 16.0171 92.4814C16.2332 92.2462 16.4885 92.0665 16.7831 91.9424C17.0777 91.8117 17.3985 91.7464 17.7455 91.7464C18.0925 91.7464 18.4133 91.8117 18.7079 91.9424C19.0026 92.0665 19.2546 92.2462 19.4641 92.4814C19.6802 92.7166 19.8471 93.0008 19.965 93.334C20.0828 93.6606 20.1417 94.0232 20.1417 94.4218ZM19.1891 94.4218C19.1891 93.8468 19.0582 93.3928 18.7963 93.0596C18.541 92.7198 18.1907 92.55 17.7455 92.55C17.3003 92.55 16.9468 92.7198 16.6849 93.0596C16.4296 93.3928 16.3019 93.8468 16.3019 94.4218C16.3019 94.9967 16.4296 95.454 16.6849 95.7938C16.9468 96.127 17.3003 96.2936 17.7455 96.2936C18.1907 96.2936 18.541 96.127 18.7963 95.7938C19.0582 95.454 19.1891 94.9967 19.1891 94.4218Z" fill="#27235C"/>
<path d="M25.4924 96.8228C25.2829 96.8751 25.0047 96.9306 24.6577 96.9894C24.3172 97.0482 23.9211 97.0776 23.4694 97.0776C23.0765 97.0776 22.7459 97.0221 22.4775 96.911C22.2091 96.7934 21.993 96.6301 21.8293 96.421C21.6657 96.2119 21.5478 95.9669 21.4758 95.686C21.4038 95.3985 21.3678 95.0816 21.3678 94.7354V91.8738H22.2811V94.5394C22.2811 95.16 22.3793 95.6043 22.5757 95.8722C22.7721 96.1401 23.1027 96.274 23.5676 96.274C23.6658 96.274 23.7673 96.2707 23.872 96.2642C23.9768 96.2577 24.075 96.2511 24.1666 96.2446C24.2583 96.2315 24.3401 96.2217 24.4121 96.2152C24.4907 96.2021 24.5464 96.1891 24.5791 96.176V91.8738H25.4924V96.8228Z" fill="#27235C"/>
<path d="M28.9514 91.766C29.03 91.766 29.1183 91.7725 29.2165 91.7856C29.3213 91.7921 29.4228 91.8052 29.521 91.8248C29.6192 91.8378 29.7076 91.8542 29.7861 91.8738C29.8713 91.8868 29.9334 91.8999 29.9727 91.913L29.8156 92.7068C29.7436 92.6806 29.6225 92.6512 29.4522 92.6186C29.2886 92.5794 29.0758 92.5598 28.8139 92.5598C28.6437 92.5598 28.4735 92.5794 28.3032 92.6186C28.1396 92.6512 28.0315 92.6741 27.9792 92.6872V96.9698H27.0658V92.0894C27.2819 92.011 27.5503 91.9391 27.8711 91.8738C28.1919 91.8019 28.552 91.766 28.9514 91.766Z" fill="#27235C"/>
<path d="M37.4677 90.1783H38.4203V96.9698H37.4677V93.8338H34.1385V96.9698H33.1859V90.1783H34.1385V93.0106H37.4677V90.1783Z" fill="#27235C"/>
<path d="M44.5589 94.4218C44.5589 94.8268 44.4999 95.1927 44.3821 95.5194C44.2643 95.8461 44.0973 96.127 43.8812 96.3622C43.6717 96.5974 43.4197 96.7803 43.1251 96.911C42.8304 97.0351 42.5096 97.0972 42.1627 97.0972C41.8157 97.0972 41.4949 97.0351 41.2002 96.911C40.9056 96.7803 40.6503 96.5974 40.4342 96.3622C40.2247 96.127 40.0611 95.8461 39.9432 95.5194C39.8254 95.1927 39.7664 94.8268 39.7664 94.4218C39.7664 94.0232 39.8254 93.6606 39.9432 93.334C40.0611 93.0008 40.2247 92.7166 40.4342 92.4814C40.6503 92.2462 40.9056 92.0665 41.2002 91.9424C41.4949 91.8117 41.8157 91.7464 42.1627 91.7464C42.5096 91.7464 42.8304 91.8117 43.1251 91.9424C43.4197 92.0665 43.6717 92.2462 43.8812 92.4814C44.0973 92.7166 44.2643 93.0008 44.3821 93.334C44.4999 93.6606 44.5589 94.0232 44.5589 94.4218ZM43.6063 94.4218C43.6063 93.8468 43.4753 93.3928 43.2135 93.0596C42.9581 92.7198 42.6078 92.55 42.1627 92.55C41.7175 92.55 41.3639 92.7198 41.102 93.0596C40.8467 93.3928 40.719 93.8468 40.719 94.4218C40.719 94.9967 40.8467 95.454 41.102 95.7938C41.3639 96.127 41.7175 96.2936 42.1627 96.2936C42.6078 96.2936 42.9581 96.127 43.2135 95.7938C43.4753 95.454 43.6063 94.9967 43.6063 94.4218Z" fill="#27235C"/>
<path d="M47.0321 96.3132C47.4053 96.3132 47.6803 96.2642 47.857 96.1662C48.0404 96.0682 48.132 95.9114 48.132 95.6958C48.132 95.4736 48.0436 95.2972 47.8669 95.1666C47.6901 95.0359 47.3987 94.8889 46.9928 94.7256C46.7964 94.6472 46.6066 94.5688 46.4232 94.4904C46.2465 94.4054 46.0926 94.3074 45.9617 94.1964C45.8307 94.0853 45.726 93.9514 45.6474 93.7946C45.5689 93.6378 45.5296 93.445 45.5296 93.2164C45.5296 92.7656 45.6965 92.4095 46.0304 92.1482C46.3643 91.8803 46.8193 91.7464 47.3955 91.7464C47.5395 91.7464 47.6835 91.7562 47.8276 91.7758C47.9716 91.7888 48.1058 91.8084 48.2302 91.8346C48.3546 91.8542 48.4626 91.877 48.5543 91.9032C48.6525 91.9293 48.7278 91.9522 48.7802 91.9718L48.6132 92.7558C48.515 92.7035 48.3612 92.6512 48.1517 92.599C47.9422 92.5402 47.6901 92.5108 47.3955 92.5108C47.1401 92.5108 46.9175 92.563 46.7277 92.6676C46.5378 92.7656 46.4429 92.9224 46.4429 93.138C46.4429 93.249 46.4625 93.347 46.5018 93.432C46.5476 93.5169 46.6131 93.5953 46.6982 93.6672C46.7899 93.7325 46.9012 93.7946 47.0321 93.8534C47.1631 93.9122 47.3202 93.9742 47.5035 94.0396C47.7457 94.131 47.9618 94.2225 48.1517 94.314C48.3415 94.3989 48.5019 94.5002 48.6329 94.6178C48.7704 94.7354 48.8751 94.8791 48.9471 95.049C49.0191 95.2123 49.0551 95.4148 49.0551 95.6566C49.0551 96.127 48.8784 96.4831 48.5248 96.7248C48.1778 96.9665 47.6803 97.0874 47.0321 97.0874C46.5804 97.0874 46.2268 97.0482 45.9715 96.9698C45.7162 96.8979 45.5427 96.8424 45.451 96.8032L45.618 96.0192C45.7227 96.0584 45.8897 96.1172 46.1188 96.1956C46.348 96.274 46.6524 96.3132 47.0321 96.3132Z" fill="#27235C"/>
<path d="M51.081 91.8738H53.0157V92.6382H51.081V94.9902C51.081 95.245 51.1007 95.4573 51.1399 95.6272C51.1792 95.7905 51.2382 95.9212 51.3167 96.0192C51.3953 96.1107 51.4935 96.176 51.6113 96.2152C51.7292 96.2544 51.8667 96.274 52.0238 96.274C52.2988 96.274 52.5181 96.2446 52.6818 96.1858C52.852 96.1205 52.9698 96.0747 53.0353 96.0486L53.2121 96.8032C53.1204 96.8489 52.96 96.9045 52.7309 96.9698C52.5017 97.0417 52.2398 97.0776 51.9452 97.0776C51.5982 97.0776 51.3102 97.0351 51.081 96.9502C50.8584 96.8587 50.6784 96.7248 50.5409 96.5484C50.4034 96.372 50.3052 96.1564 50.2463 95.9016C50.1939 95.6403 50.1677 95.3397 50.1677 95V90.4527L51.081 90.2959V91.8738Z" fill="#27235C"/>
<path d="M55.0912 96.9698H54.1779V91.8738H55.0912V96.9698ZM54.6296 90.9525C54.4659 90.9525 54.3252 90.9003 54.2073 90.7957C54.096 90.6847 54.0404 90.5377 54.0404 90.3547C54.0404 90.1718 54.096 90.0281 54.2073 89.9235C54.3252 89.8125 54.4659 89.7569 54.6296 89.7569C54.7933 89.7569 54.9308 89.8125 55.0421 89.9235C55.1599 90.0281 55.2189 90.1718 55.2189 90.3547C55.2189 90.5377 55.1599 90.6847 55.0421 90.7957C54.9308 90.9003 54.7933 90.9525 54.6296 90.9525Z" fill="#27235C"/>
<path d="M56.6618 92.0208C56.8713 91.9685 57.1495 91.913 57.4965 91.8542C57.8435 91.7954 58.2429 91.766 58.6946 91.766C59.1006 91.766 59.4377 91.8248 59.7062 91.9424C59.9746 92.0534 60.1874 92.2135 60.3445 92.4226C60.5082 92.6251 60.6227 92.8701 60.6882 93.1576C60.7537 93.445 60.7864 93.7619 60.7864 94.1082V96.9698H59.8731V94.3042C59.8731 93.9906 59.8502 93.7227 59.8044 93.5006C59.7651 93.2784 59.6963 93.0988 59.5981 92.9616C59.4999 92.8244 59.369 92.7264 59.2053 92.6676C59.0416 92.6022 58.8387 92.5696 58.5964 92.5696C58.4982 92.5696 58.3968 92.5728 58.292 92.5794C58.1872 92.5859 58.0858 92.5957 57.9876 92.6088C57.8959 92.6153 57.8108 92.6251 57.7322 92.6382C57.6602 92.6512 57.6078 92.661 57.5751 92.6676V96.9698H56.6618V92.0208Z" fill="#27235C"/>
<path d="M65.5024 96.4602C65.4239 96.5125 65.27 96.5811 65.0409 96.666C64.8183 96.7444 64.5564 96.7836 64.2552 96.7836C63.9475 96.7836 63.6562 96.7346 63.3812 96.6366C63.1128 96.5386 62.8771 96.3883 62.6741 96.1858C62.4712 95.9767 62.3108 95.7187 62.1929 95.4116C62.0751 95.1045 62.0161 94.7386 62.0161 94.314C62.0161 93.9416 62.0718 93.6018 62.1831 93.2948C62.2944 92.9812 62.4548 92.7133 62.6643 92.4912C62.8804 92.2625 63.1422 92.0861 63.4499 91.962C63.7577 91.8313 64.1046 91.766 64.4909 91.766C64.9165 91.766 65.2864 91.7986 65.6006 91.864C65.9214 91.9228 66.1899 91.9783 66.4059 92.0306V96.5778C66.4059 97.3618 66.203 97.9302 65.7971 98.283C65.3911 98.6358 64.7757 98.8122 63.9508 98.8122C63.63 98.8122 63.3255 98.7861 63.0375 98.7338C62.756 98.6815 62.5104 98.6195 62.3009 98.5476L62.4679 97.7538C62.6512 97.8257 62.8738 97.8877 63.1357 97.94C63.4041 97.9988 63.6824 98.0282 63.9704 98.0282C64.5138 98.0282 64.9034 97.9204 65.1391 97.7048C65.3813 97.4892 65.5024 97.1462 65.5024 96.6758V96.4602ZM65.4926 92.6774C65.401 92.6512 65.2766 92.6284 65.1194 92.6088C64.9689 92.5826 64.7626 92.5696 64.5007 92.5696C64.0097 92.5696 63.63 92.7296 63.3616 93.0498C63.0997 93.3699 62.9687 93.7946 62.9687 94.3238C62.9687 94.6178 63.0047 94.8693 63.0768 95.0784C63.1553 95.2874 63.2568 95.4606 63.3812 95.5978C63.5121 95.735 63.6594 95.8363 63.8231 95.9016C63.9933 95.9669 64.1668 95.9996 64.3436 95.9996C64.5859 95.9996 64.8085 95.9669 65.0114 95.9016C65.2144 95.8297 65.3748 95.7481 65.4926 95.6566V92.6774Z" fill="#27235C"/>
<path d="M68.9409 95.8526C68.9474 95.9049 68.9507 95.9571 68.9507 96.0094C68.9507 96.0551 68.9507 96.1041 68.9507 96.1564C68.9507 96.568 68.8885 96.9731 68.7641 97.3716C68.6462 97.7767 68.4826 98.1621 68.2731 98.528L67.566 98.3026C67.7297 97.9694 67.8377 97.6297 67.8901 97.2834C67.9424 96.9437 67.9686 96.6235 67.9686 96.323C67.9686 96.2381 67.9653 96.1564 67.9588 96.078C67.9588 95.9996 67.9555 95.9245 67.949 95.8526H68.9409Z" fill="#27235C"/>
<path d="M72.4521 93.5692C72.4521 92.9877 72.5372 92.4748 72.7074 92.0306C72.8842 91.5863 73.1199 91.2172 73.4145 90.9231C73.7157 90.6226 74.0627 90.3972 74.4555 90.2469C74.8549 90.0967 75.2771 90.0215 75.7223 90.0215C76.161 90.0215 76.5735 90.0967 76.9597 90.2469C77.3526 90.3972 77.6963 90.6226 77.9909 90.9231C78.2855 91.2172 78.5179 91.5863 78.6882 92.0306C78.8649 92.4748 78.9533 92.9877 78.9533 93.5692C78.9533 94.1506 78.8649 94.6635 78.6882 95.1078C78.5179 95.5521 78.2855 95.9245 77.9909 96.225C77.6963 96.519 77.3526 96.7411 76.9597 96.8914C76.5735 97.0417 76.161 97.1168 75.7223 97.1168C75.2771 97.1168 74.8549 97.0417 74.4555 96.8914C74.0627 96.7411 73.7157 96.519 73.4145 96.225C73.1199 95.9245 72.8842 95.5521 72.7074 95.1078C72.5372 94.6635 72.4521 94.1506 72.4521 93.5692ZM73.4538 93.5692C73.4538 93.9808 73.5062 94.3564 73.6109 94.6962C73.7157 95.0294 73.863 95.3136 74.0528 95.5488C74.2493 95.784 74.4849 95.9669 74.7599 96.0976C75.0414 96.2217 75.3557 96.2838 75.7027 96.2838C76.0497 96.2838 76.3607 96.2217 76.6357 96.0976C76.9106 95.9669 77.143 95.784 77.3329 95.5488C77.5293 95.3136 77.6799 95.0294 77.7847 94.6962C77.8894 94.3564 77.9418 93.9808 77.9418 93.5692C77.9418 93.1576 77.8894 92.7852 77.7847 92.452C77.6799 92.1122 77.5293 91.8248 77.3329 91.5896C77.143 91.3544 76.9106 91.1747 76.6357 91.0505C76.3607 90.9199 76.0497 90.8545 75.7027 90.8545C75.3557 90.8545 75.0414 90.9199 74.7599 91.0505C74.4849 91.1747 74.2493 91.3544 74.0528 91.5896C73.863 91.8248 73.7157 92.1122 73.6109 92.452C73.5062 92.7852 73.4538 93.1576 73.4538 93.5692Z" fill="#27235C"/>
<path d="M84.3774 96.8228C84.1679 96.8751 83.8896 96.9306 83.5427 96.9894C83.2022 97.0482 82.8061 97.0776 82.3544 97.0776C81.9615 97.0776 81.6309 97.0221 81.3625 96.911C81.0941 96.7934 80.878 96.6301 80.7143 96.421C80.5507 96.2119 80.4328 95.9669 80.3608 95.686C80.2888 95.3985 80.2528 95.0816 80.2528 94.7354V91.8738H81.1661V94.5394C81.1661 95.16 81.2643 95.6043 81.4607 95.8722C81.6571 96.1401 81.9877 96.274 82.4526 96.274C82.5508 96.274 82.6523 96.2707 82.757 96.2642C82.8618 96.2577 82.96 96.2511 83.0516 96.2446C83.1433 96.2315 83.2251 96.2217 83.2971 96.2152C83.3757 96.2021 83.4314 96.1891 83.4641 96.176V91.8738H84.3774V96.8228Z" fill="#27235C"/>
<path d="M87.8364 91.766C87.9149 91.766 88.0033 91.7725 88.1015 91.7856C88.2063 91.7921 88.3078 91.8052 88.406 91.8248C88.5042 91.8378 88.5926 91.8542 88.6711 91.8738C88.7562 91.8868 88.8184 91.8999 88.8577 91.913L88.7006 92.7068C88.6286 92.6806 88.5075 92.6512 88.3372 92.6186C88.1736 92.5794 87.9608 92.5598 87.6989 92.5598C87.5287 92.5598 87.3584 92.5794 87.1882 92.6186C87.0245 92.6512 86.9165 92.6741 86.8642 92.6872V96.9698H85.9508V92.0894C86.1669 92.011 86.4353 91.9391 86.7561 91.8738C87.0769 91.8019 87.437 91.766 87.8364 91.766Z" fill="#27235C"/>
<path d="M95.4001 94.1278C95.5048 94.2584 95.6357 94.4316 95.7929 94.6472C95.9566 94.8562 96.1235 95.0914 96.2937 95.3528C96.464 95.6076 96.6309 95.8755 96.7946 96.1564C96.9648 96.4373 97.1088 96.7085 97.2267 96.9698H96.1857C96.0548 96.7215 95.9107 96.47 95.7536 96.2152C95.603 95.9604 95.4492 95.7187 95.292 95.49C95.1349 95.2548 94.9778 95.0359 94.8206 94.8334C94.6701 94.6308 94.5326 94.4544 94.4082 94.3042C94.3231 94.3107 94.2347 94.314 94.143 94.314C94.0579 94.314 93.9695 94.314 93.8779 94.314H93.0235V96.9698H92.0709V90.2763C92.3393 90.211 92.6372 90.1685 92.9646 90.1489C93.2985 90.1228 93.6029 90.1097 93.8779 90.1097C94.8337 90.1097 95.5605 90.2894 96.058 90.6487C96.5622 91.0081 96.8142 91.5438 96.8142 92.256C96.8142 92.7068 96.6931 93.0922 96.4509 93.4124C96.2152 93.7325 95.8649 93.971 95.4001 94.1278ZM93.9564 90.9427C93.5505 90.9427 93.2395 90.9525 93.0235 90.9721V93.53H93.7011C94.0285 93.53 94.3231 93.5136 94.585 93.481C94.8468 93.4483 95.0662 93.3862 95.2429 93.2948C95.4262 93.2033 95.567 93.0759 95.6652 92.9126C95.7634 92.7427 95.8125 92.5206 95.8125 92.2462C95.8125 91.9914 95.7634 91.779 95.6652 91.6092C95.567 91.4393 95.4328 91.3054 95.2626 91.2074C95.0989 91.1093 94.9025 91.0407 94.6733 91.0015C94.4507 90.9623 94.2118 90.9427 93.9564 90.9427Z" fill="#27235C"/>
<path d="M97.9034 94.4316C97.9034 93.9808 97.9688 93.5888 98.0998 93.2556C98.2307 92.9158 98.4042 92.6349 98.6203 92.4128C98.8363 92.1906 99.0851 92.024 99.3666 91.913C99.6482 91.8019 99.9362 91.7464 100.231 91.7464C100.918 91.7464 101.445 91.962 101.812 92.3932C102.179 92.8178 102.362 93.4679 102.362 94.3434C102.362 94.3826 102.362 94.4348 102.362 94.5002C102.362 94.559 102.359 94.6145 102.352 94.6668H98.856C98.8953 95.196 99.0491 95.5978 99.3175 95.8722C99.586 96.1466 100.005 96.2838 100.575 96.2838C100.895 96.2838 101.164 96.2577 101.38 96.2054C101.602 96.1466 101.769 96.0911 101.881 96.0388L102.008 96.8032C101.897 96.862 101.701 96.9241 101.419 96.9894C101.144 97.0547 100.83 97.0874 100.476 97.0874C100.031 97.0874 99.6449 97.0221 99.3175 96.8914C98.9967 96.7542 98.7316 96.568 98.5221 96.3328C98.3126 96.0976 98.1554 95.8199 98.0507 95.4998C97.9525 95.1731 97.9034 94.817 97.9034 94.4316ZM101.409 93.9318C101.416 93.5202 101.311 93.1837 101.095 92.9224C100.886 92.6545 100.594 92.5206 100.221 92.5206C100.012 92.5206 99.8249 92.563 99.6613 92.648C99.5041 92.7264 99.3699 92.8309 99.2586 92.9616C99.1473 93.0922 99.0589 93.2425 98.9935 93.4124C98.9345 93.5822 98.8953 93.7554 98.8756 93.9318H101.409Z" fill="#27235C"/>
<path d="M104.862 96.3132C105.235 96.3132 105.51 96.2642 105.687 96.1662C105.87 96.0682 105.962 95.9114 105.962 95.6958C105.962 95.4736 105.874 95.2972 105.697 95.1666C105.52 95.0359 105.229 94.8889 104.823 94.7256C104.626 94.6472 104.437 94.5688 104.253 94.4904C104.077 94.4054 103.923 94.3074 103.792 94.1964C103.661 94.0853 103.556 93.9514 103.477 93.7946C103.399 93.6378 103.36 93.445 103.36 93.2164C103.36 92.7656 103.527 92.4095 103.86 92.1482C104.194 91.8803 104.649 91.7464 105.226 91.7464C105.37 91.7464 105.514 91.7562 105.658 91.7758C105.802 91.7888 105.936 91.8084 106.06 91.8346C106.185 91.8542 106.293 91.877 106.384 91.9032C106.483 91.9293 106.558 91.9522 106.61 91.9718L106.443 92.7558C106.345 92.7035 106.191 92.6512 105.982 92.599C105.772 92.5402 105.52 92.5108 105.226 92.5108C104.97 92.5108 104.748 92.563 104.558 92.6676C104.368 92.7656 104.273 92.9224 104.273 93.138C104.273 93.249 104.293 93.347 104.332 93.432C104.378 93.5169 104.443 93.5953 104.528 93.6672C104.62 93.7325 104.731 93.7946 104.862 93.8534C104.993 93.9122 105.15 93.9742 105.334 94.0396C105.576 94.131 105.792 94.2225 105.982 94.314C106.172 94.3989 106.332 94.5002 106.463 94.6178C106.6 94.7354 106.705 94.8791 106.777 95.049C106.849 95.2123 106.885 95.4148 106.885 95.6566C106.885 96.127 106.708 96.4831 106.355 96.7248C106.008 96.9665 105.51 97.0874 104.862 97.0874C104.41 97.0874 104.057 97.0482 103.802 96.9698C103.546 96.8979 103.373 96.8424 103.281 96.8032L103.448 96.0192C103.553 96.0584 103.72 96.1172 103.949 96.1956C104.178 96.274 104.482 96.3132 104.862 96.3132Z" fill="#27235C"/>
<path d="M111.602 94.4316C111.602 93.837 111.455 93.3797 111.16 93.0596C110.865 92.7394 110.473 92.5794 109.982 92.5794C109.707 92.5794 109.49 92.5892 109.333 92.6088C109.183 92.6284 109.062 92.6512 108.97 92.6774V95.8918C109.081 95.9833 109.242 96.0715 109.451 96.1564C109.661 96.2413 109.89 96.2838 110.139 96.2838C110.401 96.2838 110.623 96.2381 110.806 96.1466C110.996 96.0486 111.15 95.9179 111.268 95.7546C111.386 95.5847 111.471 95.3887 111.523 95.1666C111.576 94.9379 111.602 94.6929 111.602 94.4316ZM112.555 94.4316C112.555 94.817 112.502 95.1731 112.397 95.4998C112.299 95.8265 112.152 96.1074 111.955 96.3426C111.759 96.5778 111.517 96.7607 111.229 96.8914C110.947 97.0221 110.623 97.0874 110.256 97.0874C109.962 97.0874 109.7 97.0482 109.471 96.9698C109.248 96.8914 109.081 96.8163 108.97 96.7444V98.7828H108.057V92.0306C108.273 91.9783 108.541 91.9228 108.862 91.864C109.189 91.7986 109.566 91.766 109.991 91.766C110.384 91.766 110.738 91.828 111.052 91.9522C111.366 92.0763 111.635 92.2527 111.857 92.4814C112.08 92.71 112.25 92.991 112.368 93.3242C112.492 93.6508 112.555 94.02 112.555 94.4316Z" fill="#27235C"/>
<path d="M118.347 94.4218C118.347 94.8268 118.288 95.1927 118.171 95.5194C118.053 95.8461 117.886 96.127 117.67 96.3622C117.46 96.5974 117.208 96.7803 116.914 96.911C116.619 97.0351 116.298 97.0972 115.951 97.0972C115.604 97.0972 115.283 97.0351 114.989 96.911C114.694 96.7803 114.439 96.5974 114.223 96.3622C114.013 96.127 113.85 95.8461 113.732 95.5194C113.614 95.1927 113.555 94.8268 113.555 94.4218C113.555 94.0232 113.614 93.6606 113.732 93.334C113.85 93.0008 114.013 92.7166 114.223 92.4814C114.439 92.2462 114.694 92.0665 114.989 91.9424C115.283 91.8117 115.604 91.7464 115.951 91.7464C116.298 91.7464 116.619 91.8117 116.914 91.9424C117.208 92.0665 117.46 92.2462 117.67 92.4814C117.886 92.7166 118.053 93.0008 118.171 93.334C118.288 93.6606 118.347 94.0232 118.347 94.4218ZM117.395 94.4218C117.395 93.8468 117.264 93.3928 117.002 93.0596C116.747 92.7198 116.396 92.55 115.951 92.55C115.506 92.55 115.152 92.7198 114.89 93.0596C114.635 93.3928 114.507 93.8468 114.507 94.4218C114.507 94.9967 114.635 95.454 114.89 95.7938C115.152 96.127 115.506 96.2936 115.951 96.2936C116.396 96.2936 116.747 96.127 117.002 95.7938C117.264 95.454 117.395 94.9967 117.395 94.4218Z" fill="#27235C"/>
<path d="M119.632 92.0208C119.842 91.9685 120.12 91.913 120.467 91.8542C120.814 91.7954 121.213 91.766 121.665 91.766C122.071 91.766 122.408 91.8248 122.677 91.9424C122.945 92.0534 123.158 92.2135 123.315 92.4226C123.479 92.6251 123.593 92.8701 123.659 93.1576C123.724 93.445 123.757 93.7619 123.757 94.1082V96.9698H122.844V94.3042C122.844 93.9906 122.821 93.7227 122.775 93.5006C122.736 93.2784 122.667 93.0988 122.569 92.9616C122.47 92.8244 122.339 92.7264 122.176 92.6676C122.012 92.6022 121.809 92.5696 121.567 92.5696C121.469 92.5696 121.367 92.5728 121.262 92.5794C121.158 92.5859 121.056 92.5957 120.958 92.6088C120.866 92.6153 120.781 92.6251 120.703 92.6382C120.631 92.6512 120.578 92.661 120.546 92.6676V96.9698H119.632V92.0208Z" fill="#27235C"/>
<path d="M126.46 96.3132C126.833 96.3132 127.108 96.2642 127.285 96.1662C127.468 96.0682 127.56 95.9114 127.56 95.6958C127.56 95.4736 127.471 95.2972 127.294 95.1666C127.118 95.0359 126.826 94.8889 126.42 94.7256C126.224 94.6472 126.034 94.5688 125.851 94.4904C125.674 94.4054 125.52 94.3074 125.389 94.1964C125.258 94.0853 125.154 93.9514 125.075 93.7946C124.996 93.6378 124.957 93.445 124.957 93.2164C124.957 92.7656 125.124 92.4095 125.458 92.1482C125.792 91.8803 126.247 91.7464 126.823 91.7464C126.967 91.7464 127.111 91.7562 127.255 91.7758C127.399 91.7888 127.533 91.8084 127.658 91.8346C127.782 91.8542 127.89 91.877 127.982 91.9032C128.08 91.9293 128.155 91.9522 128.208 91.9718L128.041 92.7558C127.943 92.7035 127.789 92.6512 127.579 92.599C127.37 92.5402 127.118 92.5108 126.823 92.5108C126.568 92.5108 126.345 92.563 126.155 92.6676C125.965 92.7656 125.87 92.9224 125.87 93.138C125.87 93.249 125.89 93.347 125.929 93.432C125.975 93.5169 126.041 93.5953 126.126 93.6672C126.217 93.7325 126.329 93.7946 126.46 93.8534C126.591 93.9122 126.748 93.9742 126.931 94.0396C127.173 94.131 127.389 94.2225 127.579 94.314C127.769 94.3989 127.93 94.5002 128.06 94.6178C128.198 94.7354 128.303 94.8791 128.375 95.049C128.447 95.2123 128.483 95.4148 128.483 95.6566C128.483 96.127 128.306 96.4831 127.952 96.7248C127.605 96.9665 127.108 97.0874 126.46 97.0874C126.008 97.0874 125.654 97.0482 125.399 96.9698C125.144 96.8979 124.97 96.8424 124.879 96.8032L125.046 96.0192C125.15 96.0584 125.317 96.1172 125.546 96.1956C125.776 96.274 126.08 96.3132 126.46 96.3132Z" fill="#27235C"/>
<path d="M130.568 96.9698H129.654V91.8738H130.568V96.9698ZM130.106 90.9525C129.942 90.9525 129.802 90.9003 129.684 90.7957C129.572 90.6847 129.517 90.5377 129.517 90.3547C129.517 90.1718 129.572 90.0281 129.684 89.9235C129.802 89.8125 129.942 89.7569 130.106 89.7569C130.27 89.7569 130.407 89.8125 130.518 89.9235C130.636 90.0281 130.695 90.1718 130.695 90.3547C130.695 90.5377 130.636 90.6847 130.518 90.7957C130.407 90.9003 130.27 90.9525 130.106 90.9525Z" fill="#27235C"/>
<path d="M133.051 92.0992C133.163 92.0273 133.33 91.9522 133.552 91.8738C133.781 91.7954 134.043 91.7562 134.338 91.7562C134.705 91.7562 135.029 91.8215 135.31 91.9522C135.598 92.0828 135.841 92.2658 136.037 92.501C136.233 92.7362 136.381 93.0171 136.479 93.3438C136.584 93.6704 136.636 94.0298 136.636 94.4218C136.636 94.8334 136.574 95.2058 136.449 95.539C136.332 95.8657 136.161 96.1433 135.939 96.372C135.716 96.6007 135.448 96.7771 135.133 96.9012C134.819 97.0253 134.466 97.0874 134.073 97.0874C133.647 97.0874 133.271 97.058 132.943 96.9992C132.616 96.9404 132.348 96.8816 132.138 96.8228V89.5217L133.051 89.3649V92.0992ZM133.051 96.176C133.143 96.2021 133.271 96.2283 133.434 96.2544C133.605 96.274 133.814 96.2838 134.063 96.2838C134.554 96.2838 134.947 96.1237 135.241 95.8036C135.536 95.4769 135.683 95.0163 135.683 94.4218C135.683 94.1604 135.657 93.9154 135.605 93.6868C135.552 93.4581 135.467 93.2621 135.349 93.0988C135.232 92.9289 135.078 92.7982 134.888 92.7068C134.705 92.6088 134.482 92.5598 134.22 92.5598C133.971 92.5598 133.742 92.6022 133.533 92.6872C133.323 92.7721 133.163 92.8603 133.051 92.9518V96.176Z" fill="#27235C"/>
<path d="M138.834 96.9698H137.921V91.8738H138.834V96.9698ZM138.373 90.9525C138.209 90.9525 138.068 90.9003 137.951 90.7957C137.839 90.6847 137.784 90.5377 137.784 90.3547C137.784 90.1718 137.839 90.0281 137.951 89.9235C138.068 89.8125 138.209 89.7569 138.373 89.7569C138.537 89.7569 138.674 89.8125 138.785 89.9235C138.903 90.0281 138.962 90.1718 138.962 90.3547C138.962 90.5377 138.903 90.6847 138.785 90.7957C138.674 90.9003 138.537 90.9525 138.373 90.9525Z" fill="#27235C"/>
<path d="M141.937 97.0678C141.374 97.0547 140.975 96.9339 140.739 96.7052C140.503 96.4765 140.385 96.1205 140.385 95.637V89.5217L141.299 89.3649V95.49C141.299 95.6403 141.312 95.7644 141.338 95.8624C141.364 95.9604 141.407 96.0388 141.466 96.0976C141.525 96.1564 141.603 96.2021 141.701 96.2348C141.8 96.2609 141.921 96.2838 142.065 96.3034L141.937 97.0678Z" fill="#27235C"/>
<path d="M144.004 96.9698H143.09V91.8738H144.004V96.9698ZM143.542 90.9525C143.378 90.9525 143.238 90.9003 143.12 90.7957C143.009 90.6847 142.953 90.5377 142.953 90.3547C142.953 90.1718 143.009 90.0281 143.12 89.9235C143.238 89.8125 143.378 89.7569 143.542 89.7569C143.706 89.7569 143.843 89.8125 143.955 89.9235C144.072 90.0281 144.131 90.1718 144.131 90.3547C144.131 90.5377 144.072 90.6847 143.955 90.7957C143.843 90.9003 143.706 90.9525 143.542 90.9525Z" fill="#27235C"/>
<path d="M146.429 91.8738H148.363V92.6382H146.429V94.9902C146.429 95.245 146.448 95.4573 146.488 95.6272C146.527 95.7905 146.586 95.9212 146.664 96.0192C146.743 96.1107 146.841 96.176 146.959 96.2152C147.077 96.2544 147.214 96.274 147.371 96.274C147.646 96.274 147.866 96.2446 148.029 96.1858C148.2 96.1205 148.317 96.0747 148.383 96.0486L148.56 96.8032C148.468 96.8489 148.308 96.9045 148.079 96.9698C147.849 97.0417 147.588 97.0776 147.293 97.0776C146.946 97.0776 146.658 97.0351 146.429 96.9502C146.206 96.8587 146.026 96.7248 145.889 96.5484C145.751 96.372 145.653 96.1564 145.594 95.9016C145.542 95.6403 145.515 95.3397 145.515 95V90.4527L146.429 90.2959V91.8738Z" fill="#27235C"/>
<path d="M148.926 97.9204C148.998 97.9531 149.09 97.9825 149.201 98.0086C149.319 98.0413 149.434 98.0576 149.545 98.0576C149.905 98.0576 150.187 97.9759 150.39 97.8126C150.593 97.6558 150.776 97.3977 150.94 97.0384C150.527 96.2544 150.141 95.4246 149.781 94.5492C149.427 93.6672 149.133 92.7754 148.897 91.8738H149.879C149.951 92.1678 150.036 92.4846 150.134 92.8244C150.239 93.1641 150.354 93.5136 150.478 93.873C150.603 94.2323 150.737 94.5916 150.881 94.951C151.025 95.3103 151.175 95.6566 151.333 95.9898C151.581 95.3038 151.797 94.6243 151.981 93.9514C152.164 93.2784 152.337 92.5859 152.501 91.8738H153.444C153.208 92.8342 152.946 93.7586 152.658 94.6472C152.37 95.5292 152.059 96.3557 151.725 97.1266C151.594 97.4206 151.457 97.6721 151.313 97.8812C151.175 98.0968 151.022 98.2732 150.851 98.4104C150.681 98.5476 150.488 98.6489 150.272 98.7142C150.062 98.7795 149.823 98.8122 149.555 98.8122C149.483 98.8122 149.408 98.8057 149.329 98.7926C149.251 98.7861 149.172 98.773 149.093 98.7534C149.021 98.7403 148.953 98.724 148.887 98.7044C148.828 98.6848 148.786 98.6685 148.76 98.6554L148.926 97.9204Z" fill="#27235C"/>
<path d="M155.22 96.4406C155.22 96.617 155.161 96.7705 155.043 96.9012C154.925 97.0319 154.765 97.0972 154.562 97.0972C154.359 97.0972 154.198 97.0319 154.08 96.9012C153.963 96.7705 153.904 96.617 153.904 96.4406C153.904 96.2642 153.963 96.1107 154.08 95.98C154.198 95.8493 154.359 95.784 154.562 95.784C154.765 95.784 154.925 95.8493 155.043 95.98C155.161 96.1107 155.22 96.2642 155.22 96.4406Z" fill="#27235C"/>
<path d="M147.293 82.7117C146.17 82.7117 145.162 82.494 144.268 82.0586C143.398 81.6003 142.653 80.9816 142.034 80.2025C141.438 79.4235 140.98 78.5298 140.659 77.5216C140.361 76.4904 140.212 75.3905 140.212 74.2219C140.235 73.0533 140.407 71.9648 140.728 70.9566C141.049 69.9255 141.507 69.0318 142.103 68.2756C142.722 67.4965 143.466 66.8893 144.337 66.4539C145.208 66.0186 146.193 65.8009 147.293 65.8009C148.347 65.8009 149.332 66.0186 150.249 66.4539C151.188 66.8893 152.013 67.4965 152.724 68.2756C153.457 69.0318 154.03 69.9255 154.442 70.9566C154.855 71.9648 155.061 73.0418 155.061 74.1875C155.061 75.3791 154.855 76.5019 154.442 77.5559C154.03 78.5871 153.468 79.4922 152.758 80.2713C152.048 81.0275 151.223 81.6232 150.283 82.0586C149.344 82.494 148.347 82.7117 147.293 82.7117ZM146.743 78.6902C147.545 78.6902 148.267 78.5069 148.908 78.1403C149.55 77.7507 150.054 77.2237 150.421 76.5592C150.81 75.8947 151.005 75.1385 151.005 74.2906C151.005 73.4199 150.81 72.6523 150.421 71.9878C150.054 71.3003 149.55 70.7733 148.908 70.4067C148.267 70.0171 147.545 69.8223 146.743 69.8223C145.964 69.8223 145.254 70.0171 144.612 70.4067C143.97 70.7962 143.455 71.3232 143.065 71.9878C142.699 72.6523 142.515 73.4199 142.515 74.2906C142.515 75.1385 142.699 75.8947 143.065 76.5592C143.455 77.2237 143.97 77.7507 144.612 78.1403C145.254 78.5069 145.964 78.6902 146.743 78.6902ZM140.384 82.746C139.766 82.746 139.307 82.6429 139.01 82.4367C138.712 82.2534 138.528 82.0128 138.46 81.7149C138.391 81.3941 138.356 81.0389 138.356 80.6494V60.164C138.356 59.7744 138.391 59.4307 138.46 59.1328C138.528 58.812 138.712 58.5599 139.01 58.3766C139.307 58.1933 139.766 58.1017 140.384 58.1017C141.026 58.1017 141.484 58.1933 141.759 58.3766C142.034 58.5599 142.206 58.812 142.275 59.1328C142.344 59.4536 142.378 59.7973 142.378 60.164V81.3368C142.286 81.8409 142.091 82.1961 141.794 82.4023C141.519 82.6315 141.049 82.746 140.384 82.746Z" fill="#27235C" stroke="#27235C" stroke-width="0.2"/>
<path d="M128.111 82.9528C126.622 82.9528 125.316 82.7122 124.193 82.231C123.093 81.7498 122.165 81.0967 121.409 80.2718C120.676 79.4239 120.114 78.4845 119.725 77.4533C119.358 76.3993 119.175 75.3108 119.175 74.188C119.175 72.5382 119.553 71.0717 120.309 69.7885C121.065 68.5053 122.108 67.497 123.437 66.7638C124.789 66.0305 126.336 65.6639 128.077 65.6639C129.314 65.6639 130.403 65.8587 131.342 66.2482C132.282 66.6377 133.061 67.1533 133.68 67.7949C134.321 68.4136 134.802 69.101 135.123 69.8572C135.467 70.6134 135.639 71.3466 135.639 72.057C135.639 73.2714 135.341 74.1536 134.745 74.7036C134.172 75.2535 133.45 75.5285 132.58 75.5285H123.506C123.529 76.3076 123.769 76.9836 124.227 77.5564C124.709 78.1293 125.304 78.5761 126.015 78.8969C126.748 79.1948 127.493 79.3437 128.249 79.3437C128.822 79.3437 129.326 79.3094 129.761 79.2406C130.219 79.1719 130.609 79.0917 130.93 79C131.251 78.8855 131.526 78.7709 131.755 78.6563C132.007 78.5417 132.236 78.4386 132.442 78.347C132.648 78.2553 132.843 78.198 133.026 78.1751C133.279 78.1522 133.531 78.2095 133.783 78.347C134.035 78.4845 134.241 78.7251 134.401 79.0688C134.539 79.2979 134.63 79.5156 134.676 79.7218C134.745 79.9051 134.779 80.0885 134.779 80.2718C134.779 80.7301 134.504 81.1654 133.954 81.5779C133.405 81.9674 132.625 82.2882 131.617 82.5403C130.632 82.8153 129.463 82.9528 128.111 82.9528ZM123.506 73.0881H130.552C130.941 73.0881 131.239 73.0308 131.445 72.9163C131.652 72.7788 131.755 72.5038 131.755 72.0914C131.755 71.5643 131.594 71.0946 131.274 70.6821C130.953 70.2467 130.517 69.9145 129.967 69.6853C129.417 69.4333 128.776 69.3073 128.043 69.3073C127.195 69.3073 126.427 69.4791 125.74 69.8228C125.052 70.1436 124.502 70.5905 124.09 71.1633C123.7 71.7362 123.506 72.3778 123.506 73.0881Z" fill="#27235C" stroke="#27235C" stroke-width="0.2"/>
<path d="M97.362 82.6442C96.9037 82.6442 96.5371 82.564 96.2621 82.4036C95.9872 82.2203 95.7809 82.0141 95.6434 81.7849C95.5289 81.5558 95.4487 81.361 95.4028 81.2006L88.6661 61.4713C88.4369 60.7381 88.4025 60.1881 88.5629 59.8215C88.7233 59.432 89.1931 59.1112 89.9722 58.8591C90.4992 58.6758 90.9231 58.5956 91.2439 58.6185C91.5647 58.6414 91.8282 58.7789 92.0344 59.031C92.2636 59.2601 92.4584 59.6267 92.6188 60.1309L97.5682 75.1168L102.002 60.2683C102.071 60.0392 102.163 59.8101 102.277 59.5809C102.415 59.3289 102.621 59.1226 102.896 58.9622C103.171 58.8018 103.549 58.7216 104.03 58.7216C104.58 58.7216 104.992 58.8133 105.267 58.9966C105.542 59.1799 105.737 59.3861 105.852 59.6153C105.989 59.8215 106.081 60.0163 106.127 60.1996L110.561 75.2199L115.544 60.1652C115.705 59.6382 115.888 59.2487 116.094 58.9966C116.324 58.7445 116.61 58.6071 116.954 58.5841C117.297 58.5383 117.721 58.6071 118.225 58.7904C118.752 58.9737 119.131 59.1799 119.36 59.4091C119.589 59.6153 119.703 59.8903 119.703 60.234C119.703 60.5548 119.623 60.9672 119.463 61.4713L112.76 81.235C112.715 81.3724 112.623 81.5558 112.485 81.7849C112.371 82.0141 112.176 82.2203 111.901 82.4036C111.626 82.564 111.248 82.6442 110.767 82.6442C110.286 82.6442 109.908 82.5411 109.633 82.3349C109.358 82.1286 109.151 81.8995 109.014 81.6474C108.876 81.3954 108.785 81.212 108.739 81.0975L104.064 65.974L99.3899 81.0631C99.3441 81.2235 99.2524 81.4297 99.1149 81.6818C99.0004 81.9339 98.8056 82.163 98.5306 82.3692C98.2557 82.5525 97.8661 82.6442 97.362 82.6442Z" fill="#27235C" stroke="#27235C" stroke-width="0.2"/>
<path d="M79.4886 82.953C78.8929 82.953 78.2627 82.8843 77.5982 82.7468C76.9337 82.6322 76.2921 82.4604 75.6734 82.2312C75.0547 81.9792 74.5162 81.6928 74.0579 81.372C73.6226 81.0282 73.3476 80.6502 73.233 80.2377C73.1414 80.0086 73.107 79.7909 73.1299 79.5846C73.1528 79.3555 73.2216 79.1264 73.3362 78.8972C73.4507 78.6452 73.6226 78.3931 73.8517 78.141C74.0579 77.889 74.2642 77.7515 74.4704 77.7286C74.6995 77.6828 74.986 77.7515 75.3297 77.9348C75.6276 78.0494 75.9484 78.1983 76.2921 78.3816C76.6587 78.565 77.0253 78.7483 77.392 78.9316C77.7815 79.1149 78.1711 79.2638 78.5606 79.3784C78.9731 79.493 79.3741 79.5503 79.7636 79.5503C80.6114 79.5503 81.2874 79.4128 81.7915 79.1378C82.2956 78.8399 82.5477 78.4275 82.5477 77.9004C82.5477 77.6026 82.4675 77.339 82.3071 77.1099C82.1467 76.8807 81.929 76.6974 81.654 76.5599C81.402 76.3995 81.0926 76.2621 80.726 76.1475C80.3823 76.01 80.0042 75.8954 79.5917 75.8038C79.2022 75.6892 78.7897 75.5632 78.3544 75.4257C77.7815 75.2653 77.2087 75.0705 76.6358 74.8414C76.0629 74.6122 75.5474 74.3143 75.0891 73.9477C74.6537 73.5811 74.2985 73.1228 74.0236 72.5729C73.7486 72.0229 73.6111 71.3355 73.6111 70.5106C73.6111 69.4794 73.8517 68.6087 74.3329 67.8983C74.837 67.1651 75.5588 66.6037 76.4983 66.2141C77.4378 65.8246 78.5721 65.6298 79.9011 65.6298C80.3594 65.6298 80.7947 65.6642 81.2072 65.7329C81.6426 65.8017 82.055 65.9048 82.4446 66.0423C82.857 66.1568 83.2466 66.3058 83.6132 66.4891C84.0027 66.6724 84.3694 66.8786 84.7131 67.1078C85.2859 67.4286 85.5838 67.8067 85.6067 68.242C85.6296 68.6545 85.4692 69.1013 85.1255 69.5825C84.8735 69.9033 84.6214 70.1325 84.3694 70.27C84.1173 70.3845 83.8538 70.3845 83.5788 70.27C83.2122 70.0866 82.8112 69.8919 82.3758 69.6856C81.9634 69.4565 81.528 69.2617 81.0697 69.1013C80.6343 68.9409 80.176 68.8607 79.6949 68.8607C79.2366 68.8607 78.8241 68.9295 78.4575 69.067C78.0909 69.2044 77.8159 69.3992 77.6326 69.6513C77.4493 69.9033 77.3576 70.2012 77.3576 70.5449C77.3576 70.8657 77.4493 71.1292 77.6326 71.3355C77.8159 71.5417 78.0565 71.7136 78.3544 71.8511C78.6523 71.9885 79.0074 72.1146 79.4199 72.2291C79.8323 72.3208 80.2677 72.4125 80.726 72.5041C81.3676 72.6416 82.0206 72.8135 82.6852 73.0197C83.3497 73.2259 83.9569 73.5123 84.5068 73.879C85.0797 74.2456 85.538 74.7383 85.8817 75.3569C86.2254 75.9527 86.3973 76.7318 86.3973 77.6942C86.3973 79.367 85.7786 80.6616 84.5412 81.5782C83.3268 82.4948 81.6426 82.953 79.4886 82.953Z" fill="#27235C" stroke="#27235C" stroke-width="0.2"/>
<path d="M63.2637 82.9525C61.7743 82.9525 60.4682 82.7119 59.3454 82.2307C58.2455 81.7495 57.3175 81.0965 56.5613 80.2715C55.828 79.4237 55.2666 78.4842 54.8771 77.4531C54.5105 76.399 54.3271 75.3106 54.3271 74.1878C54.3271 72.538 54.7052 71.0714 55.4614 69.7882C56.2176 68.505 57.2602 67.4968 58.5892 66.7635C59.9411 66.0303 61.4878 65.6637 63.2293 65.6637C64.4667 65.6637 65.5551 65.8584 66.4946 66.248C67.4341 66.6375 68.2132 67.1531 68.8319 67.7947C69.4735 68.4134 69.9547 69.1008 70.2755 69.857C70.6192 70.6131 70.791 71.3464 70.791 72.0568C70.791 73.2712 70.4931 74.1534 69.8974 74.7034C69.3245 75.2533 68.6027 75.5283 67.732 75.5283H58.6579C58.6809 76.3074 58.9215 76.9833 59.3797 77.5562C59.8609 78.1291 60.4567 78.5759 61.167 78.8967C61.9003 79.1946 62.645 79.3435 63.4012 79.3435C63.974 79.3435 64.4782 79.3091 64.9135 79.2404C65.3718 79.1717 65.7614 79.0915 66.0822 78.9998C66.403 78.8852 66.6779 78.7707 66.9071 78.6561C67.1591 78.5415 67.3883 78.4384 67.5945 78.3467C67.8007 78.2551 67.9955 78.1978 68.1788 78.1749C68.4309 78.152 68.6829 78.2093 68.935 78.3467C69.187 78.4842 69.3933 78.7248 69.5537 79.0685C69.6911 79.2977 69.7828 79.5154 69.8286 79.7216C69.8974 79.9049 69.9317 80.0882 69.9317 80.2715C69.9317 80.7298 69.6568 81.1652 69.1068 81.5777C68.5569 81.9672 67.7778 82.288 66.7696 82.5401C65.7843 82.815 64.6156 82.9525 63.2637 82.9525ZM58.6579 73.0879H65.7041C66.0936 73.0879 66.3915 73.0306 66.5977 72.916C66.8039 72.7786 66.9071 72.5036 66.9071 72.0911C66.9071 71.5641 66.7467 71.0944 66.4259 70.6819C66.1051 70.2465 65.6697 69.9143 65.1198 69.6851C64.5698 69.4331 63.9282 69.307 63.195 69.307C62.3471 69.307 61.5795 69.4789 60.8921 69.8226C60.2046 70.1434 59.6547 70.5902 59.2423 71.1631C58.8527 71.736 58.6579 72.3776 58.6579 73.0879Z" fill="#27235C" stroke="#27235C" stroke-width="0.2"/>
<path d="M50.9933 82.7475C50.1455 82.7475 49.3893 82.6902 48.7248 82.5756C48.0832 82.4611 47.5218 82.2663 47.0406 81.9913C46.5823 81.7163 46.2042 81.3497 45.9063 80.8914C45.6085 80.4102 45.3793 79.8259 45.2189 79.1385C45.0814 78.4511 45.0127 77.6261 45.0127 76.6637V60.0967C45.0127 59.7071 45.0471 59.3634 45.1158 59.0655C45.2075 58.7447 45.3908 58.4927 45.6658 58.3093C45.9636 58.1031 46.4334 58 47.075 58C47.7166 58 48.1749 58.0917 48.4498 58.275C48.7477 58.4583 48.931 58.7103 48.9998 59.0311C49.0914 59.329 49.1373 59.6727 49.1373 60.0623V76.4919C49.1373 76.9273 49.1602 77.2939 49.206 77.5918C49.2747 77.8667 49.3779 78.0959 49.5153 78.2792C49.6757 78.4396 49.8705 78.5542 50.0997 78.6229C50.3517 78.6917 50.6496 78.726 50.9933 78.726C51.2912 78.726 51.5547 78.7604 51.7839 78.8291C52.0359 78.8979 52.2307 79.0697 52.3682 79.3447C52.5286 79.6197 52.6088 80.0665 52.6088 80.6852C52.6088 81.3268 52.5286 81.7966 52.3682 82.0944C52.2307 82.3923 52.0359 82.5756 51.7839 82.6444C51.5318 82.7131 51.2683 82.7475 50.9933 82.7475Z" fill="#27235C" stroke="#27235C" stroke-width="0.2"/>
<path d="M39.2562 82.747C38.6375 82.747 38.1792 82.6439 37.8814 82.4377C37.5835 82.2544 37.4002 82.0138 37.3314 81.7159C37.2627 81.3951 37.2283 81.0399 37.2283 80.6504V67.8642C37.2283 67.4976 37.2627 67.1653 37.3314 66.8674C37.4231 66.5466 37.6064 66.2945 37.8814 66.1112C38.1792 65.9279 38.649 65.8363 39.2906 65.8363C39.9322 65.8363 40.3905 65.9279 40.6654 66.1112C40.9633 66.2945 41.1466 66.5466 41.2154 66.8674C41.2841 67.1882 41.3185 67.5434 41.3185 67.9329V80.6848C41.3185 81.0743 41.2841 81.4295 41.2154 81.7503C41.1466 82.0482 40.9633 82.2888 40.6654 82.4721C40.3905 82.6554 39.9207 82.747 39.2562 82.747ZM39.2562 62.5022C38.5917 62.5022 38.099 62.4106 37.7782 62.2273C37.4804 62.021 37.2856 61.7461 37.1939 61.4023C37.1252 61.0586 37.0908 60.6805 37.0908 60.2681C37.0908 59.8327 37.1252 59.4546 37.1939 59.1338C37.2856 58.813 37.4918 58.561 37.8126 58.3776C38.1334 58.1714 38.6261 58.0683 39.2906 58.0683C39.978 58.0683 40.4707 58.1714 40.7686 58.3776C41.0664 58.5839 41.2612 58.8588 41.3529 59.2026C41.4445 59.5234 41.4904 59.9014 41.4904 60.3368C41.4904 60.7264 41.4445 61.093 41.3529 61.4367C41.2612 61.7804 41.0664 62.0439 40.7686 62.2273C40.4707 62.4106 39.9666 62.5022 39.2562 62.5022Z" fill="#27235C" stroke="#27235C" stroke-width="0.2"/>
<path d="M11.0279 82.7123C10.4321 82.7123 9.98531 82.6207 9.68743 82.4374C9.38954 82.2541 9.19477 82.002 9.10311 81.6812C9.03437 81.3604 9 81.0052 9 80.6157V60.7833C9 60.4167 9.03437 60.0844 9.10311 59.7865C9.19477 59.4657 9.38954 59.2137 9.68743 59.0304C9.98531 58.8241 10.4551 58.721 11.0967 58.721C11.5779 58.721 11.933 58.7554 12.1622 58.8241C12.4142 58.87 12.609 58.9502 12.7465 59.0647C12.884 59.1564 13.0214 59.2824 13.1589 59.4428L21.5455 71.1635H20.755L29.176 59.4085C29.3364 59.2251 29.4968 59.0877 29.6572 58.996C29.8176 58.9043 30.0238 58.8356 30.2759 58.7898C30.5279 58.7439 30.8602 58.721 31.2726 58.721C31.8913 58.721 32.3496 58.8241 32.6475 59.0304C32.9454 59.2137 33.1287 59.4657 33.1974 59.7865C33.2891 60.1073 33.3349 60.4625 33.3349 60.8521V80.6844C33.3349 81.0281 33.2891 81.3604 33.1974 81.6812C33.1287 82.002 32.9454 82.2541 32.6475 82.4374C32.3496 82.6207 31.8799 82.7123 31.2383 82.7123C30.6196 82.7123 30.1613 82.6092 29.8634 82.403C29.5655 82.2197 29.3708 81.9676 29.2791 81.6468C29.2104 81.326 29.176 80.9823 29.176 80.6157V65.8703L22.9204 74.91C22.8517 75.0017 22.7485 75.1277 22.6111 75.2881C22.4736 75.4256 22.2903 75.5516 22.0611 75.6662C21.832 75.7808 21.5226 75.838 21.1331 75.838C20.7665 75.838 20.4686 75.7808 20.2394 75.6662C20.0103 75.5516 19.827 75.4256 19.6895 75.2881C19.5749 75.1506 19.4603 75.0131 19.3458 74.8756L13.1246 65.8703V80.6844C13.1246 81.0281 13.0787 81.3604 12.9871 81.6812C12.9183 82.002 12.735 82.2541 12.4371 82.4374C12.1392 82.6207 11.6695 82.7123 11.0279 82.7123Z" fill="#27235C" stroke="#27235C" stroke-width="0.2"/>
</svg>
