<svg width="167" height="61" viewBox="0 0 167 61" fill="none" xmlns="http://www.w3.org/2000/svg">
<g clip-path="url(#clip0_1241_4301)">
<path d="M75.4468 56.8671C75.4468 56.1588 76.021 55.5846 76.7293 55.5846H165.225C165.934 55.5846 166.508 56.1588 166.508 56.8671V56.8671C166.508 57.5755 165.934 58.1497 165.225 58.1497H76.7293C76.021 58.1497 75.4468 57.5755 75.4468 56.8671V56.8671Z" fill="#FFBB00"/>
<path d="M3.33125 47.4093V44.3046C2.81645 43.508 2.33149 42.7225 1.87637 41.9482C1.42125 41.1739 0.992246 40.4144 0.589355 39.6699H1.86518C2.14869 40.2804 2.46578 40.9021 2.81645 41.535C3.16711 42.1604 3.52897 42.7634 3.90201 43.3442C4.2676 42.7634 4.62573 42.1604 4.97639 41.535C5.32705 40.9021 5.64788 40.2804 5.93885 39.6699H7.14752C6.74463 40.4144 6.31563 41.1739 5.86051 41.9482C5.40539 42.715 4.92416 43.4931 4.41682 44.2823V47.4093H3.33125Z" fill="white"/>
<path d="M12.6965 44.5056C12.6965 44.9673 12.6294 45.3842 12.4951 45.7565C12.3608 46.1287 12.1705 46.4489 11.9243 46.7169C11.6856 46.9849 11.3983 47.1934 11.0626 47.3423C10.7269 47.4838 10.3613 47.5545 9.96584 47.5545C9.57041 47.5545 9.20482 47.4838 8.86908 47.3423C8.53334 47.1934 8.24236 46.9849 7.99615 46.7169C7.7574 46.4489 7.57087 46.1287 7.43658 45.7565C7.30228 45.3842 7.23513 44.9673 7.23513 44.5056C7.23513 44.0515 7.30228 43.6383 7.43658 43.266C7.57087 42.8863 7.7574 42.5624 7.99615 42.2944C8.24236 42.0263 8.53334 41.8216 8.86908 41.6801C9.20482 41.5312 9.57041 41.4568 9.96584 41.4568C10.3613 41.4568 10.7269 41.5312 11.0626 41.6801C11.3983 41.8216 11.6856 42.0263 11.9243 42.2944C12.1705 42.5624 12.3608 42.8863 12.4951 43.266C12.6294 43.6383 12.6965 44.0515 12.6965 44.5056ZM11.611 44.5056C11.611 43.8505 11.4618 43.333 11.1633 42.9533C10.8723 42.5661 10.4732 42.3726 9.96584 42.3726C9.45849 42.3726 9.0556 42.5661 8.75716 42.9533C8.46619 43.333 8.3207 43.8505 8.3207 44.5056C8.3207 45.1608 8.46619 45.682 8.75716 46.0692C9.0556 46.4489 9.45849 46.6387 9.96584 46.6387C10.4732 46.6387 10.8723 46.4489 11.1633 46.0692C11.4618 45.682 11.611 45.1608 11.611 44.5056Z" fill="white"/>
<path d="M18.7941 47.2418C18.5554 47.3014 18.2383 47.3647 17.8428 47.4317C17.4549 47.4987 17.0035 47.5322 16.4887 47.5322C16.041 47.5322 15.6642 47.4689 15.3584 47.3423C15.0525 47.2083 14.8062 47.0222 14.6197 46.7839C14.4332 46.5457 14.2989 46.2665 14.2168 45.9463C14.1348 45.6187 14.0937 45.2576 14.0937 44.863V41.602H15.1345V44.6397C15.1345 45.347 15.2464 45.8532 15.4703 46.1585C15.6941 46.4638 16.0709 46.6164 16.6006 46.6164C16.7125 46.6164 16.8282 46.6127 16.9475 46.6052C17.0669 46.5978 17.1788 46.5903 17.2833 46.5829C17.3877 46.568 17.481 46.5568 17.5631 46.5494C17.6526 46.5345 17.716 46.5196 17.7533 46.5047V41.602H18.7941V47.2418Z" fill="white"/>
<path d="M22.7359 41.4791C22.8255 41.4791 22.9262 41.4866 23.0381 41.5014C23.1575 41.5089 23.2731 41.5238 23.385 41.5461C23.497 41.561 23.5977 41.5796 23.6872 41.602C23.7842 41.6169 23.8551 41.6317 23.8998 41.6466L23.7208 42.5512C23.6387 42.5215 23.5007 42.488 23.3067 42.4507C23.1202 42.4061 22.8777 42.3837 22.5793 42.3837C22.3853 42.3837 22.1913 42.4061 21.9973 42.4507C21.8108 42.488 21.6877 42.514 21.628 42.5289V47.4093H20.5872V41.8477C20.8334 41.7583 21.1393 41.6764 21.5049 41.602C21.8705 41.5201 22.2808 41.4791 22.7359 41.4791Z" fill="white"/>
<path d="M32.441 39.6699H33.5266V47.4093H32.441V43.8356H28.6471V47.4093H27.5615V39.6699H28.6471V42.8974H32.441V39.6699Z" fill="white"/>
<path d="M40.5221 44.5056C40.5221 44.9673 40.4549 45.3842 40.3206 45.7565C40.1863 46.1287 39.9961 46.4489 39.7499 46.7169C39.5111 46.9849 39.2239 47.1934 38.8881 47.3423C38.5524 47.4838 38.1868 47.5545 37.7914 47.5545C37.3959 47.5545 37.0304 47.4838 36.6946 47.3423C36.3589 47.1934 36.0679 46.9849 35.8217 46.7169C35.5829 46.4489 35.3964 46.1287 35.2621 45.7565C35.1278 45.3842 35.0607 44.9673 35.0607 44.5056C35.0607 44.0515 35.1278 43.6383 35.2621 43.266C35.3964 42.8863 35.5829 42.5624 35.8217 42.2944C36.0679 42.0263 36.3589 41.8216 36.6946 41.6801C37.0304 41.5312 37.3959 41.4568 37.7914 41.4568C38.1868 41.4568 38.5524 41.5312 38.8881 41.6801C39.2239 41.8216 39.5111 42.0263 39.7499 42.2944C39.9961 42.5624 40.1863 42.8863 40.3206 43.266C40.4549 43.6383 40.5221 44.0515 40.5221 44.5056ZM39.4365 44.5056C39.4365 43.8505 39.2873 43.333 38.9888 42.9533C38.6979 42.5661 38.2987 42.3726 37.7914 42.3726C37.284 42.3726 36.8811 42.5661 36.5827 42.9533C36.2917 43.333 36.1462 43.8505 36.1462 44.5056C36.1462 45.1608 36.2917 45.682 36.5827 46.0692C36.8811 46.4489 37.284 46.6387 37.7914 46.6387C38.2987 46.6387 38.6979 46.4489 38.9888 46.0692C39.2873 45.682 39.4365 45.1608 39.4365 44.5056Z" fill="white"/>
<path d="M43.3406 46.6611C43.7658 46.6611 44.0792 46.6052 44.2806 46.4935C44.4895 46.3819 44.594 46.2032 44.594 45.9575C44.594 45.7043 44.4933 45.5033 44.2918 45.3544C44.0904 45.2055 43.7584 45.038 43.2958 44.8518C43.072 44.7625 42.8556 44.6732 42.6467 44.5838C42.4452 44.487 42.2699 44.3753 42.1207 44.2488C41.9715 44.1222 41.8521 43.9696 41.7626 43.7909C41.673 43.6122 41.6283 43.3926 41.6283 43.132C41.6283 42.6182 41.8185 42.2125 42.199 41.9147C42.5795 41.6094 43.0981 41.4568 43.7546 41.4568C43.9188 41.4568 44.0829 41.4679 44.2471 41.4903C44.4112 41.5052 44.5642 41.5275 44.7059 41.5573C44.8477 41.5796 44.9708 41.6057 45.0752 41.6355C45.1871 41.6652 45.2729 41.6913 45.3326 41.7136L45.1424 42.6071C45.0305 42.5475 44.8551 42.488 44.6164 42.4284C44.3776 42.3614 44.0904 42.3279 43.7546 42.3279C43.4637 42.3279 43.21 42.3874 42.9936 42.5066C42.7773 42.6182 42.6691 42.7969 42.6691 43.0426C42.6691 43.1692 42.6915 43.2809 42.7362 43.3777C42.7885 43.4745 42.8631 43.5638 42.96 43.6457C43.0645 43.7202 43.1913 43.7909 43.3406 43.8579C43.4898 43.9249 43.6688 43.9956 43.8777 44.0701C44.1538 44.1743 44.4 44.2786 44.6164 44.3828C44.8328 44.4796 45.0155 44.595 45.1648 44.729C45.3214 44.863 45.4408 45.0268 45.5229 45.2204C45.605 45.4065 45.646 45.6373 45.646 45.9128C45.646 46.4489 45.4445 46.8546 45.0417 47.1301C44.6462 47.4056 44.0792 47.5433 43.3406 47.5433C42.8258 47.5433 42.4229 47.4987 42.1319 47.4093C41.8409 47.3274 41.6432 47.2641 41.5387 47.2195L41.729 46.326C41.8484 46.3707 42.0386 46.4377 42.2998 46.5271C42.5609 46.6164 42.9078 46.6611 43.3406 46.6611Z" fill="white"/>
<path d="M47.9547 41.602H50.1594V42.4731H47.9547V45.1534C47.9547 45.4438 47.977 45.6857 48.0218 45.8793C48.0666 46.0654 48.1337 46.2143 48.2233 46.326C48.3128 46.4303 48.4247 46.5047 48.559 46.5494C48.6933 46.5941 48.85 46.6164 49.029 46.6164C49.3424 46.6164 49.5923 46.5829 49.7789 46.5159C49.9728 46.4414 50.1071 46.3893 50.1818 46.3595L50.3832 47.2195C50.2787 47.2716 50.0959 47.3349 49.8348 47.4093C49.5737 47.4912 49.2752 47.5322 48.9395 47.5322C48.5441 47.5322 48.2158 47.4838 47.9547 47.387C47.701 47.2828 47.4958 47.1301 47.3391 46.9291C47.1825 46.7281 47.0705 46.4824 47.0034 46.192C46.9437 45.8942 46.9139 45.5517 46.9139 45.1646V39.9826L47.9547 39.8039V41.602Z" fill="white"/>
<path d="M52.5246 47.4093H51.4838V41.602H52.5246V47.4093ZM51.9986 40.5522C51.8121 40.5522 51.6517 40.4926 51.5174 40.3735C51.3905 40.2469 51.3271 40.0794 51.3271 39.8709C51.3271 39.6624 51.3905 39.4987 51.5174 39.3795C51.6517 39.253 51.8121 39.1897 51.9986 39.1897C52.1851 39.1897 52.3418 39.253 52.4686 39.3795C52.6029 39.4987 52.6701 39.6624 52.6701 39.8709C52.6701 40.0794 52.6029 40.2469 52.4686 40.3735C52.3418 40.4926 52.1851 40.5522 51.9986 40.5522Z" fill="white"/>
<path d="M54.3144 41.7695C54.5532 41.7099 54.8703 41.6466 55.2657 41.5796C55.6611 41.5126 56.1163 41.4791 56.6311 41.4791C57.0936 41.4791 57.4779 41.5461 57.7838 41.6801C58.0897 41.8067 58.3322 41.9891 58.5112 42.2274C58.6977 42.4582 58.8283 42.7374 58.9029 43.065C58.9775 43.3926 59.0148 43.7537 59.0148 44.1483V47.4093H57.974V44.3716C57.974 44.0142 57.9479 43.709 57.8957 43.4558C57.8509 43.2027 57.7726 42.998 57.6607 42.8416C57.5488 42.6853 57.3995 42.5736 57.213 42.5066C57.0265 42.4321 56.7952 42.3949 56.5192 42.3949C56.4072 42.3949 56.2916 42.3986 56.1722 42.4061C56.0528 42.4135 55.9372 42.4247 55.8253 42.4396C55.7208 42.447 55.6238 42.4582 55.5343 42.4731C55.4522 42.488 55.3925 42.4991 55.3552 42.5066V47.4093H54.3144V41.7695Z" fill="white"/>
<path d="M64.3892 46.8286C64.2996 46.8881 64.1243 46.9663 63.8632 47.0631C63.6095 47.1525 63.3111 47.1971 62.9679 47.1971C62.6172 47.1971 62.2852 47.1413 61.9718 47.0296C61.6659 46.9179 61.3973 46.7467 61.166 46.5159C60.9347 46.2776 60.752 45.9835 60.6177 45.6336C60.4834 45.2837 60.4162 44.8667 60.4162 44.3828C60.4162 43.9584 60.4796 43.5713 60.6065 43.2213C60.7333 42.8639 60.9161 42.5587 61.1548 42.3055C61.4011 42.045 61.6995 41.8439 62.0502 41.7025C62.4008 41.5536 62.7963 41.4791 63.2365 41.4791C63.7214 41.4791 64.143 41.5163 64.5011 41.5908C64.8667 41.6578 65.1726 41.7211 65.4188 41.7806V46.9626C65.4188 47.856 65.1875 48.5038 64.7249 48.9058C64.2623 49.3079 63.561 49.5089 62.6209 49.5089C62.2553 49.5089 61.9084 49.4791 61.5801 49.4196C61.2593 49.36 60.9795 49.2893 60.7408 49.2074L60.931 48.3028C61.1399 48.3847 61.3936 48.4554 61.692 48.515C61.9979 48.582 62.315 48.6155 62.6433 48.6155C63.2626 48.6155 63.7065 48.4926 63.9751 48.2469C64.2511 48.0012 64.3892 47.6103 64.3892 47.0743V46.8286ZM64.378 42.5177C64.2735 42.488 64.1318 42.4619 63.9527 42.4396C63.7811 42.4098 63.5461 42.3949 63.2476 42.3949C62.6881 42.3949 62.2553 42.5773 61.9494 42.9421C61.651 43.3069 61.5018 43.7909 61.5018 44.394C61.5018 44.729 61.5428 45.0156 61.6249 45.2539C61.7144 45.4921 61.8301 45.6895 61.9718 45.8458C62.121 46.0022 62.2889 46.1176 62.4754 46.192C62.6694 46.2665 62.8671 46.3037 63.0686 46.3037C63.3446 46.3037 63.5983 46.2665 63.8296 46.192C64.0609 46.1101 64.2437 46.017 64.378 45.9128V42.5177Z" fill="white"/>
<path d="M68.3076 46.1362C68.315 46.1957 68.3187 46.2553 68.3187 46.3149C68.3187 46.367 68.3187 46.4228 68.3187 46.4824C68.3187 46.9514 68.2479 47.413 68.1061 47.8672C67.9718 48.3288 67.7853 48.7681 67.5465 49.185L66.7408 48.9282C66.9273 48.5485 67.0504 48.1613 67.1101 47.7667C67.1698 47.3795 67.1996 47.0147 67.1996 46.6722C67.1996 46.5754 67.1959 46.4824 67.1884 46.393C67.1884 46.3037 67.1847 46.2181 67.1772 46.1362H68.3076Z" fill="white"/>
<path d="M72.3089 43.534C72.3089 42.8714 72.4059 42.2869 72.5999 41.7806C72.8013 41.2744 73.0699 40.8537 73.4057 40.5187C73.7489 40.1762 74.1443 39.9193 74.592 39.7481C75.0471 39.5768 75.5283 39.4912 76.0357 39.4912C76.5355 39.4912 77.0056 39.5768 77.4458 39.7481C77.8934 39.9193 78.2851 40.1762 78.6209 40.5187C78.9566 40.8537 79.2215 41.2744 79.4155 41.7806C79.6169 42.2869 79.7176 42.8714 79.7176 43.534C79.7176 44.1967 79.6169 44.7811 79.4155 45.2874C79.2215 45.7937 78.9566 46.2181 78.6209 46.5606C78.2851 46.8956 77.8934 47.1487 77.4458 47.32C77.0056 47.4912 76.5355 47.5768 76.0357 47.5768C75.5283 47.5768 75.0471 47.4912 74.592 47.32C74.1443 47.1487 73.7489 46.8956 73.4057 46.5606C73.0699 46.2181 72.8013 45.7937 72.5999 45.2874C72.4059 44.7811 72.3089 44.1967 72.3089 43.534ZM73.4505 43.534C73.4505 44.0031 73.5101 44.4312 73.6295 44.8183C73.7489 45.1981 73.9168 45.5219 74.1331 45.79C74.357 46.058 74.6255 46.2665 74.9389 46.4154C75.2597 46.5568 75.6179 46.6276 76.0133 46.6276C76.4087 46.6276 76.7631 46.5568 77.0765 46.4154C77.3898 46.2665 77.6547 46.058 77.8711 45.79C78.0949 45.5219 78.2665 45.1981 78.3859 44.8183C78.5052 44.4312 78.5649 44.0031 78.5649 43.534C78.5649 43.065 78.5052 42.6406 78.3859 42.2609C78.2665 41.8737 78.0949 41.5461 77.8711 41.2781C77.6547 41.0101 77.3898 40.8053 77.0765 40.6638C76.7631 40.5149 76.4087 40.4405 76.0133 40.4405C75.6179 40.4405 75.2597 40.5149 74.9389 40.6638C74.6255 40.8053 74.357 41.0101 74.1331 41.2781C73.9168 41.5461 73.7489 41.8737 73.6295 42.2609C73.5101 42.6406 73.4505 43.065 73.4505 43.534Z" fill="white"/>
<path d="M85.8989 47.2418C85.6601 47.3014 85.343 47.3647 84.9476 47.4317C84.5597 47.4987 84.1083 47.5322 83.5935 47.5322C83.1458 47.5322 82.769 47.4689 82.4631 47.3423C82.1572 47.2083 81.911 47.0222 81.7245 46.7839C81.538 46.5457 81.4037 46.2665 81.3216 45.9463C81.2395 45.6187 81.1985 45.2576 81.1985 44.863V41.602H82.2393V44.6397C82.2393 45.347 82.3512 45.8532 82.575 46.1585C82.7989 46.4638 83.1756 46.6164 83.7054 46.6164C83.8173 46.6164 83.9329 46.6127 84.0523 46.6052C84.1717 46.5978 84.2836 46.5903 84.3881 46.5829C84.4925 46.568 84.5858 46.5568 84.6678 46.5494C84.7574 46.5345 84.8208 46.5196 84.8581 46.5047V41.602H85.8989V47.2418Z" fill="white"/>
<path d="M89.8407 41.4791C89.9302 41.4791 90.031 41.4866 90.1429 41.5014C90.2623 41.5089 90.3779 41.5238 90.4898 41.5461C90.6017 41.561 90.7025 41.5796 90.792 41.602C90.889 41.6169 90.9599 41.6317 91.0046 41.6466L90.8256 42.5512C90.7435 42.5215 90.6055 42.488 90.4115 42.4507C90.225 42.4061 89.9825 42.3837 89.684 42.3837C89.4901 42.3837 89.2961 42.4061 89.1021 42.4507C88.9156 42.488 88.7925 42.514 88.7328 42.5289V47.4093H87.692V41.8477C87.9382 41.7583 88.2441 41.6764 88.6097 41.602C88.9752 41.5201 89.3856 41.4791 89.8407 41.4791Z" fill="white"/>
<path d="M98.4602 44.1706C98.5796 44.3195 98.7288 44.5168 98.9079 44.7625C99.0944 45.0008 99.2846 45.2688 99.4786 45.5666C99.6726 45.857 99.8629 46.1622 100.049 46.4824C100.243 46.8025 100.408 47.1115 100.542 47.4093H99.3555C99.2063 47.1264 99.0422 46.8398 98.8631 46.5494C98.6915 46.259 98.5162 45.9835 98.3371 45.723C98.158 45.4549 97.979 45.2055 97.7999 44.9747C97.6283 44.7439 97.4716 44.5429 97.3299 44.3716C97.2329 44.3791 97.1322 44.3828 97.0277 44.3828C96.9307 44.3828 96.83 44.3828 96.7255 44.3828H95.7519V47.4093H94.6663V39.7816C94.9722 39.7071 95.3117 39.6587 95.6847 39.6364C96.0652 39.6066 96.4122 39.5917 96.7255 39.5917C97.8148 39.5917 98.643 39.7965 99.21 40.206C99.7845 40.6155 100.072 41.226 100.072 42.0375C100.072 42.5512 99.9337 42.9905 99.6577 43.3553C99.3891 43.7202 98.9899 43.9919 98.4602 44.1706ZM96.8151 40.541C96.3525 40.541 95.9981 40.5522 95.7519 40.5745V43.4894H96.5241C96.8971 43.4894 97.2329 43.4707 97.5313 43.4335C97.8298 43.3963 98.0797 43.3256 98.2811 43.2213C98.49 43.1171 98.6505 42.9719 98.7624 42.7858C98.8743 42.5922 98.9302 42.339 98.9302 42.0263C98.9302 41.736 98.8743 41.494 98.7624 41.3004C98.6505 41.1068 98.4975 40.9542 98.3035 40.8425C98.117 40.7309 97.8932 40.6527 97.632 40.608C97.3784 40.5633 97.106 40.541 96.8151 40.541Z" fill="white"/>
<path d="M101.313 44.5168C101.313 44.0031 101.388 43.5564 101.537 43.1766C101.686 42.7895 101.884 42.4693 102.13 42.2162C102.376 41.9631 102.66 41.7732 102.98 41.6466C103.301 41.5201 103.63 41.4568 103.965 41.4568C104.749 41.4568 105.349 41.7025 105.767 42.1939C106.185 42.6778 106.394 43.4186 106.394 44.4163C106.394 44.461 106.394 44.5205 106.394 44.595C106.394 44.662 106.39 44.7253 106.383 44.7848H102.399C102.443 45.3879 102.619 45.8458 102.925 46.1585C103.23 46.4712 103.708 46.6276 104.357 46.6276C104.723 46.6276 105.029 46.5978 105.275 46.5382C105.528 46.4712 105.719 46.4079 105.845 46.3484L105.991 47.2195C105.864 47.2865 105.64 47.3572 105.319 47.4317C105.006 47.5061 104.648 47.5433 104.245 47.5433C103.738 47.5433 103.298 47.4689 102.925 47.32C102.559 47.1636 102.257 46.9514 102.018 46.6834C101.779 46.4154 101.6 46.0989 101.481 45.7341C101.369 45.3619 101.313 44.9561 101.313 44.5168ZM105.308 43.9472C105.316 43.4782 105.196 43.0948 104.95 42.7969C104.711 42.4917 104.379 42.339 103.954 42.339C103.715 42.339 103.503 42.3874 103.316 42.4842C103.137 42.5736 102.984 42.6927 102.857 42.8416C102.731 42.9905 102.63 43.1618 102.555 43.3553C102.488 43.5489 102.443 43.7462 102.421 43.9472H105.308Z" fill="white"/>
<path d="M109.243 46.6611C109.668 46.6611 109.982 46.6052 110.183 46.4935C110.392 46.3819 110.497 46.2032 110.497 45.9575C110.497 45.7043 110.396 45.5033 110.194 45.3544C109.993 45.2055 109.661 45.038 109.198 44.8518C108.975 44.7625 108.758 44.6732 108.549 44.5838C108.348 44.487 108.172 44.3753 108.023 44.2488C107.874 44.1222 107.755 43.9696 107.665 43.7909C107.576 43.6122 107.531 43.3926 107.531 43.132C107.531 42.6182 107.721 42.2125 108.102 41.9147C108.482 41.6094 109.001 41.4568 109.657 41.4568C109.821 41.4568 109.985 41.4679 110.15 41.4903C110.314 41.5052 110.467 41.5275 110.608 41.5573C110.75 41.5796 110.873 41.6057 110.978 41.6355C111.09 41.6652 111.176 41.6913 111.235 41.7136L111.045 42.6071C110.933 42.5475 110.758 42.488 110.519 42.4284C110.28 42.3614 109.993 42.3279 109.657 42.3279C109.366 42.3279 109.113 42.3874 108.896 42.5066C108.68 42.6182 108.572 42.7969 108.572 43.0426C108.572 43.1692 108.594 43.2809 108.639 43.3777C108.691 43.4745 108.766 43.5638 108.863 43.6457C108.967 43.7202 109.094 43.7909 109.243 43.8579C109.392 43.9249 109.571 43.9956 109.78 44.0701C110.056 44.1743 110.303 44.2786 110.519 44.3828C110.735 44.4796 110.918 44.595 111.067 44.729C111.224 44.863 111.343 45.0268 111.425 45.2204C111.508 45.4065 111.549 45.6373 111.549 45.9128C111.549 46.4489 111.347 46.8546 110.944 47.1301C110.549 47.4056 109.982 47.5433 109.243 47.5433C108.728 47.5433 108.325 47.4987 108.034 47.4093C107.743 47.3274 107.546 47.2641 107.441 47.2195L107.632 46.326C107.751 46.3707 107.941 46.4377 108.202 46.5271C108.463 46.6164 108.81 46.6611 109.243 46.6611Z" fill="white"/>
<path d="M116.924 44.5168C116.924 43.8393 116.756 43.3181 116.42 42.9533C116.084 42.5885 115.637 42.4061 115.077 42.4061C114.764 42.4061 114.518 42.4172 114.338 42.4396C114.167 42.4619 114.029 42.488 113.924 42.5177V46.1808C114.051 46.2851 114.234 46.3856 114.473 46.4824C114.712 46.5792 114.973 46.6276 115.256 46.6276C115.555 46.6276 115.808 46.5754 116.017 46.4712C116.234 46.3595 116.409 46.2106 116.543 46.0245C116.677 45.8309 116.774 45.6076 116.834 45.3544C116.894 45.0938 116.924 44.8146 116.924 44.5168ZM118.009 44.5168C118.009 44.9561 117.95 45.3619 117.83 45.7341C117.718 46.1064 117.55 46.4265 117.327 46.6946C117.103 46.9626 116.827 47.1711 116.498 47.32C116.178 47.4689 115.808 47.5433 115.39 47.5433C115.055 47.5433 114.756 47.4987 114.495 47.4093C114.241 47.32 114.051 47.2344 113.924 47.1525V49.4754H112.884V41.7806C113.13 41.7211 113.436 41.6578 113.801 41.5908C114.174 41.5163 114.603 41.4791 115.088 41.4791C115.536 41.4791 115.939 41.5498 116.297 41.6913C116.655 41.8328 116.961 42.0338 117.215 42.2944C117.468 42.555 117.662 42.8751 117.797 43.2548C117.938 43.6271 118.009 44.0478 118.009 44.5168Z" fill="white"/>
<path d="M124.611 44.5056C124.611 44.9673 124.544 45.3842 124.409 45.7565C124.275 46.1287 124.085 46.4489 123.838 46.7169C123.6 46.9849 123.312 47.1934 122.977 47.3423C122.641 47.4838 122.275 47.5545 121.88 47.5545C121.485 47.5545 121.119 47.4838 120.783 47.3423C120.447 47.1934 120.157 46.9849 119.91 46.7169C119.672 46.4489 119.485 46.1287 119.351 45.7565C119.216 45.3842 119.149 44.9673 119.149 44.5056C119.149 44.0515 119.216 43.6383 119.351 43.266C119.485 42.8863 119.672 42.5624 119.91 42.2944C120.157 42.0263 120.447 41.8216 120.783 41.6801C121.119 41.5312 121.485 41.4568 121.88 41.4568C122.275 41.4568 122.641 41.5312 122.977 41.6801C123.312 41.8216 123.6 42.0263 123.838 42.2944C124.085 42.5624 124.275 42.8863 124.409 43.266C124.544 43.6383 124.611 44.0515 124.611 44.5056ZM123.525 44.5056C123.525 43.8505 123.376 43.333 123.077 42.9533C122.786 42.5661 122.387 42.3726 121.88 42.3726C121.373 42.3726 120.97 42.5661 120.671 42.9533C120.38 43.333 120.235 43.8505 120.235 44.5056C120.235 45.1608 120.38 45.682 120.671 46.0692C120.97 46.4489 121.373 46.6387 121.88 46.6387C122.387 46.6387 122.786 46.4489 123.077 46.0692C123.376 45.682 123.525 45.1608 123.525 44.5056Z" fill="white"/>
<path d="M126.075 41.7695C126.314 41.7099 126.631 41.6466 127.026 41.5796C127.422 41.5126 127.877 41.4791 128.392 41.4791C128.854 41.4791 129.238 41.5461 129.544 41.6801C129.85 41.8067 130.093 41.9891 130.272 42.2274C130.458 42.4582 130.589 42.7374 130.664 43.065C130.738 43.3926 130.775 43.7537 130.775 44.1483V47.4093H129.735V44.3716C129.735 44.0142 129.708 43.709 129.656 43.4558C129.612 43.2027 129.533 42.998 129.421 42.8416C129.309 42.6853 129.16 42.5736 128.974 42.5066C128.787 42.4321 128.556 42.3949 128.28 42.3949C128.168 42.3949 128.052 42.3986 127.933 42.4061C127.813 42.4135 127.698 42.4247 127.586 42.4396C127.481 42.447 127.384 42.4582 127.295 42.4731C127.213 42.488 127.153 42.4991 127.116 42.5066V47.4093H126.075V41.7695Z" fill="white"/>
<path d="M133.856 46.6611C134.281 46.6611 134.594 46.6052 134.796 46.4935C135.004 46.3819 135.109 46.2032 135.109 45.9575C135.109 45.7043 135.008 45.5033 134.807 45.3544C134.605 45.2055 134.273 45.038 133.811 44.8518C133.587 44.7625 133.371 44.6732 133.162 44.5838C132.96 44.487 132.785 44.3753 132.636 44.2488C132.486 44.1222 132.367 43.9696 132.278 43.7909C132.188 43.6122 132.143 43.3926 132.143 43.132C132.143 42.6182 132.333 42.2125 132.714 41.9147C133.094 41.6094 133.613 41.4568 134.27 41.4568C134.434 41.4568 134.598 41.4679 134.762 41.4903C134.926 41.5052 135.079 41.5275 135.221 41.5573C135.363 41.5796 135.486 41.6057 135.59 41.6355C135.702 41.6652 135.788 41.6913 135.848 41.7136L135.657 42.6071C135.545 42.5475 135.37 42.488 135.131 42.4284C134.893 42.3614 134.605 42.3279 134.27 42.3279C133.979 42.3279 133.725 42.3874 133.509 42.5066C133.292 42.6182 133.184 42.7969 133.184 43.0426C133.184 43.1692 133.206 43.2809 133.251 43.3777C133.303 43.4745 133.378 43.5638 133.475 43.6457C133.579 43.7202 133.706 43.7909 133.856 43.8579C134.005 43.9249 134.184 43.9956 134.393 44.0701C134.669 44.1743 134.915 44.2786 135.131 44.3828C135.348 44.4796 135.53 44.595 135.68 44.729C135.836 44.863 135.956 45.0268 136.038 45.2204C136.12 45.4065 136.161 45.6373 136.161 45.9128C136.161 46.4489 135.959 46.8546 135.557 47.1301C135.161 47.4056 134.594 47.5433 133.856 47.5433C133.341 47.5433 132.938 47.4987 132.647 47.4093C132.356 47.3274 132.158 47.2641 132.054 47.2195L132.244 46.326C132.363 46.3707 132.554 46.4377 132.815 46.5271C133.076 46.6164 133.423 46.6611 133.856 46.6611Z" fill="white"/>
<path d="M138.537 47.4093H137.496V41.602H138.537V47.4093ZM138.011 40.5522C137.824 40.5522 137.664 40.4926 137.53 40.3735C137.403 40.2469 137.339 40.0794 137.339 39.8709C137.339 39.6624 137.403 39.4987 137.53 39.3795C137.664 39.253 137.824 39.1897 138.011 39.1897C138.197 39.1897 138.354 39.253 138.481 39.3795C138.615 39.4987 138.682 39.6624 138.682 39.8709C138.682 40.0794 138.615 40.2469 138.481 40.3735C138.354 40.4926 138.197 40.5522 138.011 40.5522Z" fill="white"/>
<path d="M141.367 41.8588C141.494 41.7769 141.684 41.6913 141.938 41.602C142.199 41.5126 142.498 41.4679 142.833 41.4679C143.251 41.4679 143.621 41.5424 143.941 41.6913C144.27 41.8402 144.546 42.0487 144.77 42.3167C144.993 42.5847 145.161 42.9049 145.273 43.2772C145.393 43.6494 145.452 44.0589 145.452 44.5056C145.452 44.9747 145.381 45.3991 145.24 45.7788C145.105 46.1511 144.911 46.4675 144.658 46.7281C144.404 46.9887 144.098 47.1897 143.74 47.3311C143.382 47.4726 142.979 47.5433 142.531 47.5433C142.046 47.5433 141.617 47.5098 141.244 47.4428C140.871 47.3758 140.565 47.3088 140.327 47.2418V38.9216L141.367 38.743V41.8588ZM141.367 46.5047C141.472 46.5345 141.617 46.5643 141.804 46.5941C141.998 46.6164 142.237 46.6276 142.52 46.6276C143.08 46.6276 143.527 46.4452 143.863 46.0803C144.199 45.7081 144.367 45.1832 144.367 44.5056C144.367 44.2078 144.337 43.9286 144.277 43.668C144.217 43.4075 144.12 43.1841 143.986 42.998C143.852 42.8044 143.677 42.6555 143.46 42.5512C143.251 42.4396 142.998 42.3837 142.699 42.3837C142.416 42.3837 142.155 42.4321 141.916 42.5289C141.677 42.6257 141.494 42.7262 141.367 42.8304V46.5047Z" fill="white"/>
<path d="M147.958 47.4093H146.917V41.602H147.958V47.4093ZM147.432 40.5522C147.245 40.5522 147.085 40.4926 146.95 40.3735C146.824 40.2469 146.76 40.0794 146.76 39.8709C146.76 39.6624 146.824 39.4987 146.95 39.3795C147.085 39.253 147.245 39.1897 147.432 39.1897C147.618 39.1897 147.775 39.253 147.902 39.3795C148.036 39.4987 148.103 39.6624 148.103 39.8709C148.103 40.0794 148.036 40.2469 147.902 40.3735C147.775 40.4926 147.618 40.5522 147.432 40.5522Z" fill="white"/>
<path d="M151.493 47.521C150.852 47.5061 150.397 47.3684 150.128 47.1078C149.859 46.8472 149.725 46.4414 149.725 45.8905V38.9216L150.766 38.743V45.723C150.766 45.8942 150.781 46.0357 150.811 46.1473C150.841 46.259 150.889 46.3484 150.956 46.4154C151.023 46.4824 151.113 46.5345 151.225 46.5717C151.337 46.6015 151.475 46.6276 151.639 46.6499L151.493 47.521Z" fill="white"/>
<path d="M153.848 47.4093H152.808V41.602H153.848V47.4093ZM153.322 40.5522C153.136 40.5522 152.976 40.4926 152.841 40.3735C152.714 40.2469 152.651 40.0794 152.651 39.8709C152.651 39.6624 152.714 39.4987 152.841 39.3795C152.976 39.253 153.136 39.1897 153.322 39.1897C153.509 39.1897 153.666 39.253 153.792 39.3795C153.927 39.4987 153.994 39.6624 153.994 39.8709C153.994 40.0794 153.927 40.2469 153.792 40.3735C153.666 40.4926 153.509 40.5522 153.322 40.5522Z" fill="white"/>
<path d="M156.612 41.602H158.817V42.4731H156.612V45.1534C156.612 45.4438 156.634 45.6857 156.679 45.8793C156.724 46.0654 156.791 46.2143 156.881 46.326C156.97 46.4303 157.082 46.5047 157.216 46.5494C157.351 46.5941 157.507 46.6164 157.686 46.6164C158 46.6164 158.25 46.5829 158.436 46.5159C158.63 46.4414 158.764 46.3893 158.839 46.3595L159.04 47.2195C158.936 47.2716 158.753 47.3349 158.492 47.4093C158.231 47.4912 157.933 47.5322 157.597 47.5322C157.201 47.5322 156.873 47.4838 156.612 47.387C156.358 47.2828 156.153 47.1301 155.996 46.9291C155.84 46.7281 155.728 46.4824 155.661 46.192C155.601 45.8942 155.571 45.5517 155.571 45.1646V39.9826L156.612 39.8039V41.602Z" fill="white"/>
<path d="M159.458 48.4926C159.54 48.5298 159.645 48.5634 159.772 48.5931C159.906 48.6304 160.037 48.649 160.163 48.649C160.574 48.649 160.895 48.5559 161.126 48.3698C161.357 48.1911 161.566 47.897 161.753 47.4875C161.283 46.5941 160.842 45.6485 160.432 44.6508C160.029 43.6457 159.693 42.6294 159.425 41.602H160.544C160.626 41.937 160.723 42.2981 160.835 42.6853C160.954 43.0724 161.085 43.4707 161.227 43.8802C161.368 44.2897 161.521 44.6992 161.685 45.1087C161.85 45.5182 162.021 45.9128 162.2 46.2925C162.484 45.5108 162.73 44.7364 162.939 43.9696C163.148 43.2027 163.346 42.4135 163.532 41.602H164.606C164.338 42.6964 164.039 43.7499 163.711 44.7625C163.383 45.7676 163.028 46.7095 162.648 47.588C162.499 47.9231 162.342 48.2097 162.178 48.4479C162.021 48.6936 161.846 48.8947 161.652 49.051C161.458 49.2074 161.238 49.3228 160.992 49.3972C160.753 49.4717 160.481 49.5089 160.175 49.5089C160.093 49.5089 160.007 49.5015 159.917 49.4866C159.828 49.4791 159.738 49.4642 159.649 49.4419C159.567 49.427 159.488 49.4084 159.414 49.3861C159.346 49.3637 159.298 49.3451 159.268 49.3302L159.458 48.4926Z" fill="white"/>
<path d="M166.63 46.8063C166.63 47.0073 166.563 47.1822 166.428 47.3311C166.294 47.4801 166.111 47.5545 165.88 47.5545C165.649 47.5545 165.466 47.4801 165.332 47.3311C165.197 47.1822 165.13 47.0073 165.13 46.8063C165.13 46.6052 165.197 46.4303 165.332 46.2814C165.466 46.1324 165.649 46.058 165.88 46.058C166.111 46.058 166.294 46.1324 166.428 46.2814C166.563 46.4303 166.63 46.6052 166.63 46.8063Z" fill="white"/>
<path d="M157.597 31.161C156.318 31.161 155.169 30.9129 154.15 30.4168C153.158 29.8945 152.309 29.1895 151.604 28.3016C150.925 27.4138 150.403 26.3954 150.037 25.2464C149.698 24.0714 149.528 22.818 149.528 21.4862C149.554 20.1544 149.75 18.9141 150.116 17.7651C150.481 16.59 151.004 15.5716 151.683 14.7099C152.388 13.8221 153.236 13.1301 154.229 12.634C155.221 12.1378 156.344 11.8897 157.597 11.8897C158.798 11.8897 159.921 12.1378 160.966 12.634C162.036 13.1301 162.976 13.8221 163.786 14.7099C164.621 15.5716 165.274 16.59 165.744 17.7651C166.214 18.9141 166.449 20.1414 166.449 21.447C166.449 22.8049 166.214 24.0844 165.744 25.2856C165.274 26.4607 164.635 27.4921 163.825 28.38C163.016 29.2417 162.075 29.9206 161.005 30.4168C159.934 30.9129 158.798 31.161 157.597 31.161ZM156.97 26.5782C157.884 26.5782 158.707 26.3693 159.438 25.9515C160.169 25.5076 160.744 24.907 161.161 24.1497C161.605 23.3924 161.827 22.5307 161.827 21.5645C161.827 20.5723 161.605 19.6975 161.161 18.9402C160.744 18.1568 160.169 17.5562 159.438 17.1384C158.707 16.6945 157.884 16.4725 156.97 16.4725C156.083 16.4725 155.273 16.6945 154.542 17.1384C153.811 17.5823 153.223 18.1829 152.779 18.9402C152.361 19.6975 152.153 20.5723 152.153 21.5645C152.153 22.5307 152.361 23.3924 152.779 24.1497C153.223 24.907 153.811 25.5076 154.542 25.9515C155.273 26.3693 156.083 26.5782 156.97 26.5782ZM149.724 31.2002C149.019 31.2002 148.497 31.0827 148.157 30.8476C147.818 30.6387 147.609 30.3646 147.531 30.0251C147.452 29.6595 147.413 29.2548 147.413 28.8108V5.46598C147.413 5.02207 147.452 4.63037 147.531 4.29091C147.609 3.92533 147.818 3.63808 148.157 3.42918C148.497 3.22028 149.019 3.11583 149.724 3.11583C150.455 3.11583 150.977 3.22028 151.291 3.42918C151.604 3.63808 151.8 3.92533 151.878 4.29091C151.957 4.65648 151.996 5.04818 151.996 5.46598V29.5942C151.891 30.1687 151.669 30.5735 151.33 30.8085C151.017 31.0696 150.481 31.2002 149.724 31.2002Z" fill="white" stroke="white" stroke-width="0.2"/>
<path d="M135.739 31.4357C134.041 31.4357 132.553 31.1616 131.273 30.6132C130.02 30.0648 128.962 29.3206 128.101 28.3805C127.265 27.4144 126.625 26.3437 126.181 25.1687C125.764 23.9675 125.555 22.7271 125.555 21.4476C125.555 19.5675 125.986 17.8962 126.847 16.4339C127.709 14.9716 128.897 13.8226 130.412 12.987C131.952 12.1514 133.715 11.7336 135.7 11.7336C137.11 11.7336 138.35 11.9556 139.421 12.3995C140.491 12.8434 141.379 13.4309 142.084 14.1621C142.815 14.8671 143.364 15.6505 143.729 16.5123C144.121 17.374 144.317 18.2096 144.317 19.0191C144.317 20.4031 143.977 21.4084 143.298 22.0351C142.646 22.6618 141.823 22.9752 140.831 22.9752H130.49C130.516 23.863 130.79 24.6333 131.313 25.2862C131.861 25.939 132.54 26.4482 133.349 26.8138C134.185 27.1532 135.034 27.323 135.895 27.323C136.548 27.323 137.123 27.2838 137.619 27.2055C138.141 27.1271 138.585 27.0357 138.951 26.9313C139.316 26.8007 139.63 26.6701 139.891 26.5396C140.178 26.409 140.439 26.2915 140.674 26.1871C140.909 26.0826 141.131 26.0173 141.34 25.9912C141.627 25.9651 141.914 26.0304 142.202 26.1871C142.489 26.3437 142.724 26.6179 142.907 27.0096C143.063 27.2707 143.168 27.5188 143.22 27.7538C143.298 27.9627 143.338 28.1716 143.338 28.3805C143.338 28.9028 143.024 29.3989 142.397 29.869C141.771 30.3129 140.883 30.6785 139.734 30.9657C138.611 31.2791 137.279 31.4357 135.739 31.4357ZM130.49 20.1942H138.52C138.964 20.1942 139.303 20.1289 139.538 19.9983C139.773 19.8416 139.891 19.5283 139.891 19.0583C139.891 18.4577 139.708 17.9223 139.342 17.4523C138.977 16.9562 138.481 16.5775 137.854 16.3164C137.227 16.0292 136.496 15.8856 135.66 15.8856C134.694 15.8856 133.819 16.0814 133.036 16.4731C132.253 16.8387 131.626 17.3479 131.156 18.0007C130.712 18.6535 130.49 19.3847 130.49 20.1942Z" fill="white" stroke="white" stroke-width="0.2"/>
<path d="M100.695 31.0842C100.173 31.0842 99.7553 30.9928 99.442 30.81C99.1286 30.6011 98.8936 30.3661 98.7369 30.1049C98.6064 29.8438 98.515 29.6218 98.4628 29.4391L90.7856 6.95592C90.5245 6.12031 90.4853 5.4936 90.6681 5.0758C90.8509 4.63188 91.3862 4.2663 92.274 3.97906C92.8746 3.77016 93.3577 3.67876 93.7233 3.70488C94.0889 3.73099 94.3892 3.88767 94.6242 4.17491C94.8853 4.43604 95.1073 4.85384 95.2901 5.42832L100.93 22.5061L105.983 5.585C106.062 5.32387 106.166 5.06274 106.297 4.80161C106.453 4.51437 106.688 4.27936 107.002 4.09657C107.315 3.91378 107.746 3.82238 108.294 3.82238C108.921 3.82238 109.391 3.92684 109.704 4.13574C110.018 4.34464 110.24 4.57966 110.37 4.84078C110.527 5.0758 110.631 5.29776 110.684 5.50666L115.736 22.6236L121.416 5.46749C121.599 4.8669 121.808 4.42298 122.043 4.13574C122.304 3.8485 122.63 3.69182 123.022 3.66571C123.414 3.61348 123.897 3.69182 124.471 3.90072C125.072 4.10963 125.503 4.34464 125.764 4.60577C126.025 4.84078 126.155 5.15414 126.155 5.54583C126.155 5.91141 126.064 6.38144 125.881 6.95592L118.243 29.4782C118.191 29.6349 118.087 29.8438 117.93 30.1049C117.799 30.3661 117.577 30.6011 117.264 30.81C116.951 30.9928 116.52 31.0842 115.971 31.0842C115.423 31.0842 114.992 30.9667 114.679 30.7316C114.365 30.4966 114.13 30.2355 113.974 29.9483C113.817 29.661 113.713 29.4521 113.66 29.3215L108.333 12.0871L103.006 29.2824C102.954 29.4652 102.85 29.7002 102.693 29.9874C102.562 30.2747 102.341 30.5358 102.027 30.7708C101.714 30.9797 101.27 31.0842 100.695 31.0842Z" fill="white" stroke="white" stroke-width="0.2"/>
<path d="M80.3284 31.4361C79.6494 31.4361 78.9313 31.3577 78.1741 31.2011C77.4168 31.0705 76.6856 30.8746 75.9806 30.6135C75.2755 30.3263 74.6619 29.9999 74.1396 29.6343C73.6435 29.2426 73.3301 28.8117 73.1996 28.3417C73.0951 28.0806 73.0559 27.8325 73.0821 27.5975C73.1082 27.3364 73.1865 27.0752 73.3171 26.8141C73.4476 26.5269 73.6435 26.2396 73.9046 25.9524C74.1396 25.6651 74.3746 25.5085 74.6097 25.4823C74.8708 25.4301 75.1972 25.5085 75.5889 25.7174C75.9284 25.8479 76.2939 26.0177 76.6856 26.2266C77.1034 26.4355 77.5212 26.6444 77.939 26.8533C78.383 27.0622 78.8269 27.2319 79.2708 27.3625C79.7408 27.493 80.1978 27.5583 80.6417 27.5583C81.6079 27.5583 82.3782 27.4016 82.9527 27.0883C83.5272 26.7488 83.8144 26.2788 83.8144 25.6782C83.8144 25.3387 83.723 25.0384 83.5402 24.7773C83.3575 24.5162 83.1094 24.3073 82.796 24.1506C82.5088 23.9678 82.1563 23.8111 81.7385 23.6806C81.3468 23.5239 80.9159 23.3933 80.4459 23.2889C80.002 23.1583 79.5319 23.0147 79.0358 22.858C78.383 22.6752 77.7301 22.4533 77.0773 22.1921C76.4245 21.931 75.837 21.5915 75.3147 21.1737C74.8186 20.7559 74.4138 20.2337 74.1005 19.607C73.7871 18.9803 73.6304 18.1969 73.6304 17.2568C73.6304 16.0817 73.9046 15.0894 74.453 14.2799C75.0275 13.4443 75.85 12.8046 76.9206 12.3607C77.9913 11.9167 79.2839 11.6948 80.7984 11.6948C81.3207 11.6948 81.8168 11.7339 82.2868 11.8123C82.783 11.8906 83.253 12.0081 83.6969 12.1648C84.167 12.2954 84.6109 12.4651 85.0287 12.674C85.4726 12.8829 85.8904 13.1179 86.2821 13.3791C86.9349 13.7446 87.2744 14.1755 87.3005 14.6716C87.3266 15.1417 87.1438 15.6509 86.7521 16.1992C86.4649 16.5648 86.1776 16.8259 85.8904 16.9826C85.6032 17.1132 85.3029 17.1132 84.9895 16.9826C84.5717 16.7737 84.1147 16.5518 83.6186 16.3167C83.1486 16.0556 82.6524 15.8337 82.1302 15.6509C81.634 15.4681 81.1118 15.3767 80.5634 15.3767C80.0411 15.3767 79.5711 15.455 79.1533 15.6117C78.7355 15.7684 78.4221 15.9903 78.2132 16.2776C78.0043 16.5648 77.8999 16.9043 77.8999 17.296C77.8999 17.6616 78.0043 17.9619 78.2132 18.1969C78.4221 18.4319 78.6963 18.6277 79.0358 18.7844C79.3752 18.9411 79.78 19.0847 80.25 19.2153C80.7201 19.3197 81.2162 19.4242 81.7385 19.5286C82.4696 19.6853 83.2138 19.8811 83.9711 20.1162C84.7284 20.3512 85.4204 20.6776 86.0471 21.0954C86.6999 21.5132 87.2222 22.0746 87.6139 22.7797C88.0055 23.4586 88.2014 24.3464 88.2014 25.4432C88.2014 27.3494 87.4963 28.8248 86.0862 29.8693C84.7023 30.9138 82.783 31.4361 80.3284 31.4361Z" fill="white" stroke="white" stroke-width="0.2"/>
<path d="M61.8378 31.4355C60.1405 31.4355 58.6521 31.1613 57.3725 30.6129C56.1191 30.0646 55.0615 29.3204 54.1998 28.3803C53.3642 27.4141 52.7244 26.3435 52.2805 25.1684C51.8627 23.9672 51.6538 22.7269 51.6538 21.4473C51.6538 19.5672 52.0847 17.896 52.9464 16.4337C53.8081 14.9714 54.9963 13.8224 56.5108 12.9868C58.0515 12.1512 59.8141 11.7334 61.7986 11.7334C63.2087 11.7334 64.4491 11.9553 65.5197 12.3992C66.5904 12.8432 67.4782 13.4307 68.1832 14.1619C68.9144 14.8669 69.4628 15.6503 69.8283 16.512C70.22 17.3737 70.4159 18.2093 70.4159 19.0188C70.4159 20.4028 70.0764 21.4082 69.3975 22.0349C68.7447 22.6616 67.9221 22.9749 66.9298 22.9749H56.5891C56.6152 23.8628 56.8894 24.6331 57.4117 25.2859C57.9601 25.9387 58.639 26.4479 59.4485 26.8135C60.2841 27.153 61.1328 27.3227 61.9945 27.3227C62.6473 27.3227 63.2218 27.2836 63.7179 27.2052C64.2402 27.1269 64.6841 27.0355 65.0497 26.931C65.4153 26.8005 65.7286 26.6699 65.9898 26.5393C66.277 26.4088 66.5381 26.2913 66.7731 26.1868C67.0082 26.0824 67.2301 26.0171 67.439 25.991C67.7263 25.9649 68.0135 26.0301 68.3007 26.1868C68.588 26.3435 68.823 26.6177 69.0058 27.0094C69.1625 27.2705 69.2669 27.5186 69.3191 27.7536C69.3975 27.9625 69.4367 28.1714 69.4367 28.3803C69.4367 28.9025 69.1233 29.3987 68.4966 29.8687C67.8699 30.3126 66.982 30.6782 65.8331 30.9655C64.7102 31.2788 63.3785 31.4355 61.8378 31.4355ZM56.5891 20.1939H64.6188C65.0628 20.1939 65.4022 20.1286 65.6372 19.9981C65.8723 19.8414 65.9898 19.528 65.9898 19.058C65.9898 18.4574 65.807 17.9221 65.4414 17.4521C65.0758 16.9559 64.5797 16.5773 63.953 16.3162C63.3262 16.0289 62.5951 15.8853 61.7595 15.8853C60.7933 15.8853 59.9185 16.0812 59.1351 16.4728C58.3518 16.8384 57.725 17.3476 57.255 18.0004C56.8111 18.6533 56.5891 19.3844 56.5891 20.1939Z" fill="white" stroke="white" stroke-width="0.2"/>
<path d="M47.8545 31.2018C46.8883 31.2018 46.0266 31.1366 45.2693 31.006C44.5382 30.8754 43.8984 30.6535 43.35 30.3401C42.8278 30.0268 42.3969 29.609 42.0575 29.0867C41.718 28.5383 41.4569 27.8725 41.2741 27.0891C41.1174 26.3057 41.0391 25.3656 41.0391 24.2689V5.38932C41.0391 4.9454 41.0782 4.55371 41.1566 4.21425C41.261 3.84867 41.4699 3.56143 41.7833 3.35252C42.1227 3.11751 42.6581 3 43.3892 3C44.1204 3 44.6426 3.10445 44.956 3.31335C45.2955 3.52226 45.5044 3.8095 45.5827 4.17508C45.6871 4.51454 45.7394 4.90623 45.7394 5.35015V24.073C45.7394 24.5692 45.7655 24.987 45.8177 25.3265C45.896 25.6398 46.0136 25.9009 46.1702 26.1098C46.353 26.2926 46.575 26.4232 46.8361 26.5015C47.1234 26.5799 47.4628 26.619 47.8545 26.619C48.194 26.619 48.4943 26.6582 48.7554 26.7366C49.0426 26.8149 49.2646 27.0107 49.4213 27.3241C49.6041 27.6374 49.6955 28.1466 49.6955 28.8517C49.6955 29.5829 49.6041 30.1182 49.4213 30.4576C49.2646 30.7971 49.0426 31.006 48.7554 31.0843C48.4682 31.1627 48.1679 31.2018 47.8545 31.2018Z" fill="white" stroke="white" stroke-width="0.2"/>
<path d="M34.4813 31.2013C33.7763 31.2013 33.254 31.0838 32.9146 30.8488C32.5751 30.6399 32.3662 30.3657 32.2879 30.0262C32.2095 29.6607 32.1703 29.2559 32.1703 28.812V14.241C32.1703 13.8232 32.2095 13.4446 32.2879 13.1051C32.3923 12.7395 32.6012 12.4523 32.9146 12.2434C33.254 12.0345 33.7893 11.93 34.5205 11.93C35.2517 11.93 35.7739 12.0345 36.0873 12.2434C36.4267 12.4523 36.6356 12.7395 36.714 13.1051C36.7923 13.4707 36.8315 13.8755 36.8315 14.3194V28.8512C36.8315 29.2951 36.7923 29.6998 36.714 30.0654C36.6356 30.4049 36.4267 30.6791 36.0873 30.888C35.7739 31.0969 35.2386 31.2013 34.4813 31.2013ZM34.4813 8.13063C33.7241 8.13063 33.1626 8.02618 32.7971 7.81728C32.4576 7.58227 32.2356 7.26891 32.1312 6.87722C32.0528 6.48553 32.0137 6.05466 32.0137 5.58463C32.0137 5.08849 32.0528 4.65763 32.1312 4.29205C32.2356 3.92647 32.4706 3.63923 32.8362 3.43033C33.2018 3.19531 33.7632 3.0778 34.5205 3.0778C35.3039 3.0778 35.8653 3.19531 36.2048 3.43033C36.5442 3.66534 36.7662 3.97869 36.8707 4.37039C36.9751 4.73597 37.0273 5.16683 37.0273 5.66297C37.0273 6.10689 36.9751 6.5247 36.8707 6.91639C36.7662 7.30808 36.5442 7.60838 36.2048 7.81728C35.8653 8.02618 35.2908 8.13063 34.4813 8.13063Z" fill="white" stroke="white" stroke-width="0.2"/>
<path d="M2.31099 31.1618C1.63205 31.1618 1.12285 31.0573 0.783385 30.8484C0.443918 30.6395 0.221959 30.3523 0.117508 29.9867C0.0391693 29.6211 0 29.2164 0 28.7725V6.17182C0 5.75402 0.0391693 5.37538 0.117508 5.03591C0.221959 4.67034 0.443918 4.38309 0.783385 4.17419C1.12285 3.93918 1.65816 3.82167 2.38932 3.82167C2.93769 3.82167 3.34244 3.86084 3.60357 3.93918C3.89081 3.9914 4.11277 4.0828 4.26945 4.21336C4.42613 4.31781 4.5828 4.46143 4.73948 4.64422L14.2968 18.0009H13.3959L22.9924 4.60505C23.1751 4.39615 23.3579 4.23947 23.5407 4.13502C23.7235 4.03057 23.9585 3.95223 24.2458 3.90001C24.533 3.84778 24.9116 3.82167 25.3817 3.82167C26.0867 3.82167 26.609 3.93918 26.9484 4.17419C27.2879 4.38309 27.4968 4.67034 27.5752 5.03591C27.6796 5.40149 27.7318 5.80624 27.7318 6.25016V28.8508C27.7318 29.2425 27.6796 29.6211 27.5752 29.9867C27.4968 30.3523 27.2879 30.6395 26.9484 30.8484C26.609 31.0573 26.0737 31.1618 25.3425 31.1618C24.6375 31.1618 24.1152 31.0443 23.7757 30.8093C23.4363 30.6004 23.2143 30.3131 23.1099 29.9475C23.0315 29.582 22.9924 29.1903 22.9924 28.7725V11.9689L15.8635 22.2704C15.7852 22.3748 15.6677 22.5184 15.511 22.7012C15.3543 22.8579 15.1454 23.0015 14.8843 23.1321C14.6232 23.2627 14.2707 23.3279 13.8267 23.3279C13.4089 23.3279 13.0695 23.2627 12.8083 23.1321C12.5472 23.0015 12.3383 22.8579 12.1816 22.7012C12.0511 22.5446 11.9205 22.3879 11.7899 22.2312L4.70031 11.9689V28.8508C4.70031 29.2425 4.64808 29.6211 4.54363 29.9867C4.46529 30.3523 4.25639 30.6395 3.91693 30.8484C3.57746 31.0573 3.04215 31.1618 2.31099 31.1618Z" fill="white" stroke="white" stroke-width="0.2"/>
</g>
<defs>
<clipPath id="clip0_1241_4301">
<rect width="167" height="61" fill="white"/>
</clipPath>
</defs>
</svg>
