<svg width="640" height="640" viewBox="0 0 640 640" fill="none" xmlns="http://www.w3.org/2000/svg">
<path d="M290.953 416.305C290.953 413.724 293.046 411.631 295.627 411.631H618.127C620.708 411.631 622.801 413.724 622.801 416.305V416.305C622.801 418.886 620.708 420.979 618.127 420.979H295.627C293.046 420.979 290.953 418.886 290.953 416.305V416.305Z" fill="#FFBB00"/>
<path d="M28.1405 381.838V370.524C26.2645 367.621 24.4972 364.758 22.8386 361.937C21.1801 359.115 19.6167 356.347 18.1484 353.634H22.7978C23.831 355.859 24.9866 358.125 26.2645 360.431C27.5424 362.71 28.8611 364.908 30.2205 367.024C31.5528 364.908 32.8579 362.71 34.1358 360.431C35.4137 358.125 36.5828 355.859 37.6432 353.634H42.0479C40.5797 356.347 39.0163 359.115 37.3577 361.937C35.6992 364.731 33.9455 367.567 32.0966 370.443V381.838H28.1405Z" fill="#27235C"/>
<path d="M62.2698 371.257C62.2698 372.939 62.0251 374.458 61.5357 375.815C61.0463 377.172 60.353 378.338 59.4557 379.315C58.5856 380.292 57.5388 381.052 56.3153 381.594C55.0918 382.11 53.7595 382.368 52.3185 382.368C50.8775 382.368 49.5452 382.11 48.3216 381.594C47.0981 381.052 46.0377 380.292 45.1405 379.315C44.2704 378.338 43.5907 377.172 43.1013 375.815C42.6119 374.458 42.3672 372.939 42.3672 371.257C42.3672 369.602 42.6119 368.096 43.1013 366.739C43.5907 365.355 44.2704 364.175 45.1405 363.198C46.0377 362.222 47.0981 361.475 48.3216 360.96C49.5452 360.417 50.8775 360.146 52.3185 360.146C53.7595 360.146 55.0918 360.417 56.3153 360.96C57.5388 361.475 58.5856 362.222 59.4557 363.198C60.353 364.175 61.0463 365.355 61.5357 366.739C62.0251 368.096 62.2698 369.602 62.2698 371.257ZM58.3137 371.257C58.3137 368.869 57.77 366.983 56.6824 365.6C55.622 364.189 54.1674 363.483 52.3185 363.483C50.4696 363.483 49.0014 364.189 47.9138 365.6C46.8534 366.983 46.3232 368.869 46.3232 371.257C46.3232 373.644 46.8534 375.544 47.9138 376.955C49.0014 378.338 50.4696 379.03 52.3185 379.03C54.1674 379.03 55.622 378.338 56.6824 376.955C57.77 375.544 58.3137 373.644 58.3137 371.257Z" fill="#27235C"/>
<path d="M84.4908 381.228C83.6207 381.445 82.4651 381.676 81.0241 381.92C79.6103 382.164 77.9653 382.286 76.0892 382.286C74.4579 382.286 73.0848 382.055 71.97 381.594C70.8553 381.106 69.958 380.428 69.2783 379.559C68.5986 378.691 68.1091 377.674 67.8101 376.507C67.511 375.313 67.3614 373.997 67.3614 372.559V360.675H71.1544V371.745C71.1544 374.323 71.5622 376.168 72.3779 377.28C73.1936 378.393 74.5666 378.949 76.4971 378.949C76.9049 378.949 77.3264 378.935 77.7614 378.908C78.1964 378.881 78.6043 378.854 78.9849 378.827C79.3656 378.772 79.7054 378.732 80.0045 378.705C80.3308 378.65 80.5619 378.596 80.6978 378.542V360.675H84.4908V381.228Z" fill="#27235C"/>
<path d="M98.8557 360.227C99.1819 360.227 99.549 360.254 99.9568 360.309C100.392 360.336 100.813 360.39 101.221 360.472C101.629 360.526 101.996 360.594 102.322 360.675C102.676 360.729 102.934 360.784 103.097 360.838L102.445 364.134C102.146 364.026 101.643 363.904 100.936 363.768C100.256 363.605 99.3723 363.524 98.2847 363.524C97.5778 363.524 96.8708 363.605 96.1639 363.768C95.4842 363.904 95.0356 363.999 94.818 364.053V381.838H91.0251V361.57C91.9224 361.245 93.0371 360.946 94.3694 360.675C95.7017 360.377 97.1971 360.227 98.8557 360.227Z" fill="#27235C"/>
<path d="M134.223 353.634H138.179V381.838H134.223V368.815H120.397V381.838H116.441V353.634H120.397V365.396H134.223V353.634Z" fill="#27235C"/>
<path d="M163.672 371.257C163.672 372.939 163.428 374.458 162.938 375.815C162.449 377.172 161.756 378.338 160.858 379.315C159.988 380.292 158.941 381.052 157.718 381.594C156.494 382.11 155.162 382.368 153.721 382.368C152.28 382.368 150.948 382.11 149.724 381.594C148.501 381.052 147.44 380.292 146.543 379.315C145.673 378.338 144.993 377.172 144.504 375.815C144.014 374.458 143.77 372.939 143.77 371.257C143.77 369.602 144.014 368.096 144.504 366.739C144.993 365.355 145.673 364.175 146.543 363.198C147.44 362.222 148.501 361.475 149.724 360.96C150.948 360.417 152.28 360.146 153.721 360.146C155.162 360.146 156.494 360.417 157.718 360.96C158.941 361.475 159.988 362.222 160.858 363.198C161.756 364.175 162.449 365.355 162.938 366.739C163.428 368.096 163.672 369.602 163.672 371.257ZM159.716 371.257C159.716 368.869 159.173 366.983 158.085 365.6C157.025 364.189 155.57 363.483 153.721 363.483C151.872 363.483 150.404 364.189 149.316 365.6C148.256 366.983 147.726 368.869 147.726 371.257C147.726 373.644 148.256 375.544 149.316 376.955C150.404 378.338 151.872 379.03 153.721 379.03C155.57 379.03 157.025 378.338 158.085 376.955C159.173 375.544 159.716 373.644 159.716 371.257Z" fill="#27235C"/>
<path d="M173.944 379.112C175.493 379.112 176.635 378.908 177.369 378.501C178.131 378.094 178.511 377.443 178.511 376.548C178.511 375.625 178.144 374.892 177.41 374.35C176.676 373.807 175.466 373.197 173.78 372.518C172.965 372.193 172.176 371.867 171.415 371.542C170.681 371.189 170.042 370.782 169.498 370.321C168.954 369.859 168.519 369.303 168.193 368.652C167.867 368.001 167.704 367.2 167.704 366.251C167.704 364.379 168.397 362.9 169.784 361.815C171.17 360.702 173.06 360.146 175.453 360.146C176.051 360.146 176.649 360.187 177.247 360.268C177.845 360.322 178.403 360.404 178.919 360.512C179.436 360.594 179.884 360.689 180.265 360.797C180.673 360.906 180.986 361.001 181.203 361.082L180.51 364.338C180.102 364.121 179.463 363.904 178.593 363.687C177.723 363.443 176.676 363.32 175.453 363.32C174.392 363.32 173.468 363.537 172.679 363.972C171.891 364.379 171.497 365.03 171.497 365.925C171.497 366.386 171.578 366.793 171.741 367.146C171.932 367.499 172.203 367.824 172.557 368.123C172.938 368.394 173.4 368.652 173.944 368.896C174.487 369.14 175.14 369.398 175.901 369.669C176.907 370.049 177.805 370.429 178.593 370.809C179.382 371.162 180.048 371.582 180.591 372.071C181.162 372.559 181.597 373.156 181.897 373.861C182.196 374.54 182.345 375.381 182.345 376.385C182.345 378.338 181.611 379.817 180.143 380.821C178.702 381.825 176.635 382.327 173.944 382.327C172.068 382.327 170.599 382.164 169.539 381.838C168.479 381.54 167.758 381.309 167.377 381.147L168.071 377.891C168.506 378.053 169.199 378.298 170.151 378.623C171.102 378.949 172.367 379.112 173.944 379.112Z" fill="#27235C"/>
<path d="M190.758 360.675H198.793V363.85H190.758V373.617C190.758 374.675 190.84 375.557 191.003 376.263C191.166 376.941 191.411 377.484 191.737 377.891C192.064 378.27 192.471 378.542 192.961 378.705C193.45 378.867 194.021 378.949 194.674 378.949C195.816 378.949 196.727 378.827 197.406 378.583C198.113 378.311 198.603 378.121 198.874 378.013L199.609 381.147C199.228 381.336 198.562 381.567 197.61 381.838C196.659 382.137 195.571 382.286 194.347 382.286C192.906 382.286 191.71 382.11 190.758 381.757C189.834 381.377 189.086 380.821 188.515 380.088C187.944 379.356 187.537 378.46 187.292 377.402C187.074 376.317 186.966 375.069 186.966 373.658V354.774L190.758 354.122V360.675Z" fill="#27235C"/>
<path d="M207.412 381.838H203.619V360.675H207.412V381.838ZM205.496 356.849C204.816 356.849 204.231 356.632 203.742 356.198C203.28 355.737 203.048 355.126 203.048 354.367C203.048 353.607 203.28 353.01 203.742 352.576C204.231 352.115 204.816 351.884 205.496 351.884C206.175 351.884 206.746 352.115 207.208 352.576C207.698 353.01 207.943 353.607 207.943 354.367C207.943 355.126 207.698 355.737 207.208 356.198C206.746 356.632 206.175 356.849 205.496 356.849Z" fill="#27235C"/>
<path d="M213.935 361.285C214.805 361.068 215.961 360.838 217.402 360.594C218.843 360.349 220.501 360.227 222.377 360.227C224.063 360.227 225.463 360.472 226.578 360.96C227.693 361.421 228.576 362.086 229.229 362.954C229.909 363.795 230.385 364.813 230.656 366.007C230.928 367.2 231.064 368.516 231.064 369.954V381.838H227.271V370.768C227.271 369.466 227.176 368.354 226.986 367.431C226.823 366.509 226.537 365.762 226.129 365.193C225.722 364.623 225.178 364.216 224.498 363.972C223.818 363.7 222.975 363.565 221.969 363.565C221.562 363.565 221.14 363.578 220.705 363.605C220.27 363.632 219.849 363.673 219.441 363.727C219.06 363.755 218.707 363.795 218.38 363.85C218.081 363.904 217.864 363.944 217.728 363.972V381.838H213.935V361.285Z" fill="#27235C"/>
<path d="M250.65 379.722C250.323 379.939 249.684 380.224 248.733 380.577C247.808 380.902 246.721 381.065 245.47 381.065C244.192 381.065 242.982 380.862 241.84 380.455C240.725 380.048 239.747 379.424 238.904 378.583C238.061 377.714 237.395 376.643 236.905 375.367C236.416 374.092 236.171 372.573 236.171 370.809C236.171 369.262 236.402 367.852 236.865 366.576C237.327 365.274 237.993 364.162 238.863 363.239C239.76 362.289 240.848 361.557 242.126 361.041C243.404 360.499 244.845 360.227 246.449 360.227C248.216 360.227 249.752 360.363 251.057 360.634C252.39 360.878 253.504 361.109 254.402 361.326V380.21C254.402 383.466 253.559 385.827 251.873 387.292C250.187 388.757 247.632 389.49 244.206 389.49C242.873 389.49 241.609 389.381 240.413 389.164C239.244 388.947 238.224 388.689 237.354 388.391L238.047 385.094C238.809 385.393 239.733 385.651 240.821 385.868C241.935 386.112 243.091 386.234 244.287 386.234C246.544 386.234 248.162 385.786 249.141 384.891C250.147 383.995 250.65 382.571 250.65 380.617V379.722ZM250.609 364.012C250.228 363.904 249.712 363.809 249.059 363.727C248.434 363.619 247.577 363.565 246.49 363.565C244.45 363.565 242.873 364.229 241.759 365.559C240.671 366.888 240.127 368.652 240.127 370.85C240.127 372.071 240.277 373.115 240.576 373.984C240.902 374.852 241.324 375.571 241.84 376.141C242.384 376.71 242.996 377.131 243.675 377.402C244.382 377.674 245.103 377.809 245.837 377.809C246.843 377.809 247.767 377.674 248.61 377.402C249.453 377.104 250.119 376.765 250.609 376.385V364.012Z" fill="#27235C"/>
<path d="M264.929 377.199C264.956 377.416 264.97 377.633 264.97 377.85C264.97 378.04 264.97 378.243 264.97 378.46C264.97 380.17 264.712 381.852 264.195 383.507C263.706 385.189 263.026 386.79 262.156 388.31L259.219 387.373C259.899 385.99 260.348 384.579 260.565 383.141C260.783 381.73 260.891 380.4 260.891 379.152C260.891 378.8 260.878 378.46 260.851 378.135C260.851 377.809 260.837 377.497 260.81 377.199H264.929Z" fill="#27235C"/>
<path d="M279.511 367.716C279.511 365.301 279.864 363.171 280.571 361.326C281.305 359.481 282.284 357.948 283.508 356.727C284.759 355.479 286.2 354.543 287.831 353.919C289.489 353.295 291.243 352.983 293.092 352.983C294.914 352.983 296.627 353.295 298.231 353.919C299.862 354.543 301.29 355.479 302.513 356.727C303.737 357.948 304.702 359.481 305.409 361.326C306.143 363.171 306.51 365.301 306.51 367.716C306.51 370.131 306.143 372.261 305.409 374.106C304.702 375.951 303.737 377.497 302.513 378.745C301.29 379.966 299.862 380.889 298.231 381.513C296.627 382.137 294.914 382.449 293.092 382.449C291.243 382.449 289.489 382.137 287.831 381.513C286.2 380.889 284.759 379.966 283.508 378.745C282.284 377.497 281.305 375.951 280.571 374.106C279.864 372.261 279.511 370.131 279.511 367.716ZM283.671 367.716C283.671 369.425 283.888 370.985 284.324 372.396C284.759 373.78 285.37 374.96 286.159 375.937C286.974 376.914 287.953 377.674 289.095 378.216C290.264 378.732 291.569 378.99 293.011 378.99C294.452 378.99 295.743 378.732 296.885 378.216C298.027 377.674 298.992 376.914 299.781 375.937C300.596 374.96 301.222 373.78 301.657 372.396C302.092 370.985 302.309 369.425 302.309 367.716C302.309 366.007 302.092 364.46 301.657 363.076C301.222 361.665 300.596 360.472 299.781 359.495C298.992 358.518 298.027 357.772 296.885 357.256C295.743 356.714 294.452 356.442 293.011 356.442C291.569 356.442 290.264 356.714 289.095 357.256C287.953 357.772 286.974 358.518 286.159 359.495C285.37 360.472 284.759 361.665 284.324 363.076C283.888 364.46 283.671 366.007 283.671 367.716Z" fill="#27235C"/>
<path d="M329.036 381.228C328.166 381.445 327.01 381.676 325.569 381.92C324.155 382.164 322.51 382.286 320.634 382.286C319.003 382.286 317.63 382.055 316.515 381.594C315.4 381.106 314.503 380.428 313.823 379.559C313.144 378.691 312.654 377.674 312.355 376.507C312.056 375.313 311.907 373.997 311.907 372.559V360.675H315.7V371.745C315.7 374.323 316.107 376.168 316.923 377.28C317.739 378.393 319.112 378.949 321.042 378.949C321.45 378.949 321.872 378.935 322.307 378.908C322.742 378.881 323.149 378.854 323.53 378.827C323.911 378.772 324.251 378.732 324.55 378.705C324.876 378.65 325.107 378.596 325.243 378.542V360.675H329.036V381.228Z" fill="#27235C"/>
<path d="M343.401 360.227C343.727 360.227 344.094 360.254 344.502 360.309C344.937 360.336 345.358 360.39 345.766 360.472C346.174 360.526 346.541 360.594 346.867 360.675C347.221 360.729 347.479 360.784 347.642 360.838L346.99 364.134C346.691 364.026 346.188 363.904 345.481 363.768C344.801 363.605 343.917 363.524 342.83 363.524C342.123 363.524 341.416 363.605 340.709 363.768C340.029 363.904 339.581 363.999 339.363 364.053V381.838H335.57V361.57C336.468 361.245 337.582 360.946 338.915 360.675C340.247 360.377 341.742 360.227 343.401 360.227Z" fill="#27235C"/>
<path d="M374.812 370.036C375.247 370.578 375.791 371.297 376.444 372.193C377.123 373.061 377.817 374.038 378.524 375.123C379.23 376.181 379.924 377.294 380.604 378.46C381.311 379.627 381.909 380.753 382.398 381.838H378.075C377.531 380.807 376.933 379.763 376.28 378.705C375.655 377.646 375.016 376.643 374.364 375.693C373.711 374.716 373.058 373.807 372.406 372.966C371.781 372.125 371.21 371.392 370.693 370.768C370.34 370.795 369.973 370.809 369.592 370.809C369.238 370.809 368.871 370.809 368.491 370.809H364.942V381.838H360.986V354.041C362.101 353.77 363.338 353.593 364.698 353.512C366.084 353.403 367.349 353.349 368.491 353.349C372.46 353.349 375.478 354.095 377.545 355.588C379.638 357.08 380.685 359.305 380.685 362.262C380.685 364.134 380.182 365.735 379.176 367.065C378.197 368.394 376.743 369.385 374.812 370.036ZM368.817 356.809C367.131 356.809 365.84 356.849 364.942 356.931V367.553H367.757C369.116 367.553 370.34 367.485 371.427 367.35C372.515 367.214 373.426 366.956 374.16 366.576C374.921 366.196 375.506 365.667 375.913 364.989C376.321 364.284 376.525 363.361 376.525 362.222C376.525 361.163 376.321 360.282 375.913 359.576C375.506 358.871 374.948 358.314 374.241 357.907C373.562 357.5 372.746 357.216 371.794 357.053C370.87 356.89 369.877 356.809 368.817 356.809Z" fill="#27235C"/>
<path d="M385.208 371.297C385.208 369.425 385.48 367.797 386.024 366.414C386.568 365.003 387.288 363.836 388.186 362.913C389.083 361.991 390.116 361.299 391.285 360.838C392.454 360.377 393.651 360.146 394.874 360.146C397.729 360.146 399.918 361.041 401.44 362.832C402.963 364.596 403.724 367.295 403.724 370.931C403.724 371.094 403.724 371.311 403.724 371.582C403.724 371.827 403.711 372.057 403.684 372.274H389.164C389.328 374.472 389.967 376.141 391.081 377.28C392.196 378.42 393.936 378.99 396.302 378.99C397.634 378.99 398.749 378.881 399.646 378.664C400.57 378.42 401.264 378.189 401.726 377.972L402.256 381.147C401.794 381.391 400.978 381.649 399.809 381.92C398.667 382.191 397.362 382.327 395.894 382.327C394.045 382.327 392.441 382.055 391.081 381.513C389.749 380.943 388.648 380.17 387.778 379.193C386.908 378.216 386.255 377.063 385.82 375.734C385.412 374.377 385.208 372.898 385.208 371.297ZM399.768 369.222C399.795 367.512 399.36 366.115 398.463 365.03C397.593 363.917 396.383 363.361 394.833 363.361C393.963 363.361 393.188 363.537 392.509 363.89C391.856 364.216 391.299 364.65 390.837 365.193C390.374 365.735 390.007 366.359 389.735 367.065C389.491 367.77 389.328 368.489 389.246 369.222H399.768Z" fill="#27235C"/>
<path d="M414.108 379.112C415.657 379.112 416.799 378.908 417.534 378.501C418.295 378.094 418.676 377.443 418.676 376.548C418.676 375.625 418.308 374.892 417.574 374.35C416.84 373.807 415.63 373.197 413.945 372.518C413.129 372.193 412.34 371.867 411.579 371.542C410.845 371.189 410.206 370.782 409.662 370.321C409.118 369.859 408.683 369.303 408.357 368.652C408.031 368.001 407.868 367.2 407.868 366.251C407.868 364.379 408.561 362.9 409.948 361.815C411.334 360.702 413.224 360.146 415.617 360.146C416.215 360.146 416.813 360.187 417.411 360.268C418.009 360.322 418.567 360.404 419.083 360.512C419.6 360.594 420.049 360.689 420.429 360.797C420.837 360.906 421.15 361.001 421.367 361.082L420.674 364.338C420.266 364.121 419.627 363.904 418.757 363.687C417.887 363.443 416.84 363.32 415.617 363.32C414.556 363.32 413.632 363.537 412.843 363.972C412.055 364.379 411.661 365.03 411.661 365.925C411.661 366.386 411.742 366.793 411.905 367.146C412.096 367.499 412.368 367.824 412.721 368.123C413.102 368.394 413.564 368.652 414.108 368.896C414.651 369.14 415.304 369.398 416.065 369.669C417.071 370.049 417.969 370.429 418.757 370.809C419.546 371.162 420.212 371.582 420.755 372.071C421.326 372.559 421.762 373.156 422.061 373.861C422.36 374.54 422.509 375.381 422.509 376.385C422.509 378.338 421.775 379.817 420.307 380.821C418.866 381.825 416.799 382.327 414.108 382.327C412.232 382.327 410.763 382.164 409.703 381.838C408.643 381.54 407.922 381.309 407.541 381.147L408.235 377.891C408.67 378.053 409.363 378.298 410.315 378.623C411.266 378.949 412.531 379.112 414.108 379.112Z" fill="#27235C"/>
<path d="M442.097 371.297C442.097 368.828 441.486 366.929 440.262 365.6C439.039 364.27 437.407 363.605 435.368 363.605C434.226 363.605 433.329 363.646 432.676 363.727C432.051 363.809 431.548 363.904 431.167 364.012V377.362C431.629 377.741 432.296 378.108 433.166 378.46C434.036 378.813 434.987 378.99 436.021 378.99C437.108 378.99 438.033 378.8 438.794 378.42C439.582 378.013 440.221 377.47 440.711 376.792C441.2 376.086 441.554 375.272 441.771 374.35C441.989 373.4 442.097 372.383 442.097 371.297ZM446.053 371.297C446.053 372.898 445.836 374.377 445.401 375.734C444.993 377.09 444.381 378.257 443.566 379.234C442.75 380.21 441.744 380.97 440.548 381.513C439.378 382.055 438.033 382.327 436.51 382.327C435.286 382.327 434.199 382.164 433.247 381.838C432.323 381.513 431.629 381.201 431.167 380.902V389.368H427.374V361.326C428.272 361.109 429.386 360.878 430.719 360.634C432.078 360.363 433.641 360.227 435.409 360.227C437.04 360.227 438.508 360.485 439.813 361.001C441.119 361.516 442.233 362.249 443.158 363.198C444.082 364.148 444.789 365.315 445.279 366.698C445.795 368.055 446.053 369.588 446.053 371.297Z" fill="#27235C"/>
<path d="M470.111 371.257C470.111 372.939 469.866 374.458 469.376 375.815C468.887 377.172 468.194 378.338 467.297 379.315C466.426 380.292 465.38 381.052 464.156 381.594C462.933 382.11 461.6 382.368 460.159 382.368C458.718 382.368 457.386 382.11 456.162 381.594C454.939 381.052 453.879 380.292 452.981 379.315C452.111 378.338 451.431 377.172 450.942 375.815C450.453 374.458 450.208 372.939 450.208 371.257C450.208 369.602 450.453 368.096 450.942 366.739C451.431 365.355 452.111 364.175 452.981 363.198C453.879 362.222 454.939 361.475 456.162 360.96C457.386 360.417 458.718 360.146 460.159 360.146C461.6 360.146 462.933 360.417 464.156 360.96C465.38 361.475 466.426 362.222 467.297 363.198C468.194 364.175 468.887 365.355 469.376 366.739C469.866 368.096 470.111 369.602 470.111 371.257ZM466.155 371.257C466.155 368.869 465.611 366.983 464.523 365.6C463.463 364.189 462.008 363.483 460.159 363.483C458.31 363.483 456.842 364.189 455.755 365.6C454.694 366.983 454.164 368.869 454.164 371.257C454.164 373.644 454.694 375.544 455.755 376.955C456.842 378.338 458.31 379.03 460.159 379.03C462.008 379.03 463.463 378.338 464.523 376.955C465.611 375.544 466.155 373.644 466.155 371.257Z" fill="#27235C"/>
<path d="M475.447 361.285C476.317 361.068 477.473 360.838 478.914 360.594C480.355 360.349 482.013 360.227 483.889 360.227C485.575 360.227 486.975 360.472 488.09 360.96C489.205 361.421 490.088 362.086 490.741 362.954C491.421 363.795 491.897 364.813 492.168 366.007C492.44 367.2 492.576 368.516 492.576 369.954V381.838H488.783V370.768C488.783 369.466 488.688 368.354 488.498 367.431C488.335 366.509 488.049 365.762 487.641 365.193C487.234 364.623 486.69 364.216 486.01 363.972C485.33 363.7 484.487 363.565 483.481 363.565C483.074 363.565 482.652 363.578 482.217 363.605C481.782 363.632 481.361 363.673 480.953 363.727C480.572 363.755 480.219 363.795 479.892 363.85C479.593 363.904 479.376 363.944 479.24 363.972V381.838H475.447V361.285Z" fill="#27235C"/>
<path d="M503.801 379.112C505.351 379.112 506.493 378.908 507.227 378.501C507.988 378.094 508.369 377.443 508.369 376.548C508.369 375.625 508.002 374.892 507.267 374.35C506.533 373.807 505.323 373.197 503.638 372.518C502.822 372.193 502.033 371.867 501.272 371.542C500.538 371.189 499.899 370.782 499.355 370.321C498.812 369.859 498.377 369.303 498.05 368.652C497.724 368.001 497.561 367.2 497.561 366.251C497.561 364.379 498.254 362.9 499.641 361.815C501.027 360.702 502.917 360.146 505.31 360.146C505.908 360.146 506.506 360.187 507.104 360.268C507.703 360.322 508.26 360.404 508.776 360.512C509.293 360.594 509.742 360.689 510.122 360.797C510.53 360.906 510.843 361.001 511.06 361.082L510.367 364.338C509.959 364.121 509.32 363.904 508.45 363.687C507.58 363.443 506.533 363.32 505.31 363.32C504.249 363.32 503.325 363.537 502.536 363.972C501.748 364.379 501.354 365.03 501.354 365.925C501.354 366.386 501.435 366.793 501.598 367.146C501.789 367.499 502.061 367.824 502.414 368.123C502.795 368.394 503.257 368.652 503.801 368.896C504.345 369.14 504.997 369.398 505.758 369.669C506.764 370.049 507.662 370.429 508.45 370.809C509.239 371.162 509.905 371.582 510.449 372.071C511.02 372.559 511.455 373.156 511.754 373.861C512.053 374.54 512.202 375.381 512.202 376.385C512.202 378.338 511.468 379.817 510 380.821C508.559 381.825 506.493 382.327 503.801 382.327C501.925 382.327 500.457 382.164 499.396 381.838C498.336 381.54 497.615 381.309 497.235 381.147L497.928 377.891C498.363 378.053 499.056 378.298 500.008 378.623C500.96 378.949 502.224 379.112 503.801 379.112Z" fill="#27235C"/>
<path d="M520.86 381.838H517.067V360.675H520.86V381.838ZM518.943 356.849C518.264 356.849 517.679 356.632 517.19 356.198C516.728 355.737 516.496 355.126 516.496 354.367C516.496 353.607 516.728 353.01 517.19 352.576C517.679 352.115 518.264 351.884 518.943 351.884C519.623 351.884 520.194 352.115 520.656 352.576C521.146 353.01 521.391 353.607 521.391 354.367C521.391 355.126 521.146 355.737 520.656 356.198C520.194 356.632 519.623 356.849 518.943 356.849Z" fill="#27235C"/>
<path d="M531.176 361.611C531.638 361.313 532.331 361.001 533.256 360.675C534.207 360.349 535.295 360.187 536.519 360.187C538.041 360.187 539.387 360.458 540.556 361.001C541.753 361.543 542.759 362.303 543.574 363.28C544.39 364.257 545.002 365.423 545.409 366.78C545.844 368.136 546.062 369.629 546.062 371.257C546.062 372.966 545.804 374.513 545.287 375.896C544.798 377.253 544.091 378.406 543.166 379.356C542.242 380.305 541.127 381.038 539.822 381.554C538.517 382.069 537.049 382.327 535.417 382.327C533.65 382.327 532.087 382.205 530.727 381.961C529.368 381.716 528.253 381.472 527.383 381.228V350.907L531.176 350.256V361.611ZM531.176 378.542C531.556 378.65 532.087 378.759 532.766 378.867C533.473 378.949 534.343 378.99 535.377 378.99C537.416 378.99 539.047 378.325 540.271 376.995C541.494 375.639 542.106 373.726 542.106 371.257C542.106 370.171 541.997 369.154 541.78 368.204C541.562 367.255 541.209 366.441 540.719 365.762C540.23 365.057 539.591 364.514 538.802 364.134C538.041 363.727 537.117 363.524 536.029 363.524C534.996 363.524 534.044 363.7 533.174 364.053C532.304 364.406 531.638 364.772 531.176 365.152V378.542Z" fill="#27235C"/>
<path d="M555.192 381.838H551.399V360.675H555.192V381.838ZM553.275 356.849C552.596 356.849 552.011 356.632 551.522 356.198C551.059 355.737 550.828 355.126 550.828 354.367C550.828 353.607 551.059 353.01 551.522 352.576C552.011 352.115 552.596 351.884 553.275 351.884C553.955 351.884 554.526 352.115 554.988 352.576C555.478 353.01 555.722 353.607 555.722 354.367C555.722 355.126 555.478 355.737 554.988 356.198C554.526 356.632 553.955 356.849 553.275 356.849Z" fill="#27235C"/>
<path d="M568.077 382.245C565.739 382.191 564.08 381.689 563.101 380.74C562.123 379.79 561.633 378.311 561.633 376.303V350.907L565.426 350.256V375.693C565.426 376.317 565.481 376.832 565.589 377.239C565.698 377.646 565.875 377.972 566.12 378.216C566.364 378.46 566.691 378.65 567.098 378.786C567.506 378.895 568.009 378.99 568.607 379.071L568.077 382.245Z" fill="#27235C"/>
<path d="M576.66 381.838H572.867V360.675H576.66V381.838ZM574.743 356.849C574.063 356.849 573.478 356.632 572.989 356.198C572.527 355.737 572.296 355.126 572.296 354.367C572.296 353.607 572.527 353.01 572.989 352.576C573.478 352.115 574.063 351.884 574.743 351.884C575.423 351.884 575.993 352.115 576.456 352.576C576.945 353.01 577.19 353.607 577.19 354.367C577.19 355.126 576.945 355.737 576.456 356.198C575.993 356.632 575.423 356.849 574.743 356.849Z" fill="#27235C"/>
<path d="M586.73 360.675H594.765V363.85H586.73V373.617C586.73 374.675 586.812 375.557 586.975 376.263C587.138 376.941 587.383 377.484 587.709 377.891C588.036 378.27 588.443 378.542 588.933 378.705C589.422 378.867 589.993 378.949 590.646 378.949C591.788 378.949 592.698 378.827 593.378 378.583C594.085 378.311 594.575 378.121 594.846 378.013L595.581 381.147C595.2 381.336 594.534 381.567 593.582 381.838C592.631 382.137 591.543 382.286 590.319 382.286C588.878 382.286 587.682 382.11 586.73 381.757C585.806 381.377 585.058 380.821 584.487 380.088C583.916 379.356 583.509 378.46 583.264 377.402C583.046 376.317 582.938 375.069 582.938 373.658V354.774L586.73 354.122V360.675Z" fill="#27235C"/>
<path d="M597.104 385.786C597.403 385.922 597.783 386.044 598.246 386.153C598.735 386.288 599.211 386.356 599.673 386.356C601.168 386.356 602.338 386.017 603.18 385.339C604.023 384.687 604.785 383.616 605.464 382.123C603.751 378.867 602.147 375.422 600.652 371.786C599.184 368.123 597.96 364.419 596.981 360.675H601.06C601.359 361.896 601.712 363.212 602.12 364.623C602.555 366.034 603.031 367.485 603.547 368.978C604.064 370.47 604.622 371.962 605.22 373.454C605.818 374.947 606.443 376.385 607.096 377.769C608.129 374.92 609.026 372.098 609.787 369.303C610.549 366.509 611.269 363.632 611.949 360.675H615.864C614.885 364.663 613.798 368.503 612.602 372.193C611.405 375.856 610.114 379.288 608.727 382.49C608.183 383.711 607.612 384.755 607.014 385.623C606.443 386.519 605.804 387.251 605.097 387.821C604.39 388.391 603.588 388.812 602.691 389.083C601.821 389.354 600.829 389.49 599.714 389.49C599.415 389.49 599.102 389.463 598.776 389.408C598.449 389.381 598.123 389.327 597.797 389.246C597.498 389.191 597.212 389.124 596.94 389.042C596.696 388.961 596.519 388.893 596.41 388.839L597.104 385.786Z" fill="#27235C"/>
<path d="M623.238 379.641C623.238 380.373 622.994 381.011 622.504 381.554C622.015 382.096 621.349 382.368 620.506 382.368C619.663 382.368 618.997 382.096 618.507 381.554C618.018 381.011 617.773 380.373 617.773 379.641C617.773 378.908 618.018 378.27 618.507 377.728C618.997 377.185 619.663 376.914 620.506 376.914C621.349 376.914 622.015 377.185 622.504 377.728C622.994 378.27 623.238 378.908 623.238 379.641Z" fill="#27235C"/>
<path d="M590.316 322.626C585.653 322.626 581.466 321.722 577.755 319.913C574.139 318.01 571.046 315.441 568.477 312.205C566.002 308.97 564.099 305.259 562.767 301.072C561.53 296.789 560.911 292.221 560.911 287.368C561.006 282.515 561.72 277.995 563.052 273.808C564.385 269.525 566.288 265.814 568.762 262.674C571.331 259.438 574.424 256.917 578.04 255.109C581.656 253.3 585.748 252.396 590.316 252.396C594.693 252.396 598.785 253.3 602.592 255.109C606.493 256.917 609.919 259.438 612.869 262.674C615.914 265.814 618.293 269.525 620.006 273.808C621.719 277.995 622.576 282.467 622.576 287.226C622.576 292.174 621.719 296.837 620.006 301.214C618.293 305.497 615.962 309.255 613.012 312.491C610.062 315.631 606.636 318.105 602.735 319.913C598.833 321.722 594.693 322.626 590.316 322.626ZM588.032 305.925C591.363 305.925 594.36 305.163 597.025 303.641C599.689 302.023 601.783 299.834 603.305 297.075C604.923 294.315 605.732 291.175 605.732 287.654C605.732 284.038 604.923 280.85 603.305 278.09C601.783 275.235 599.689 273.046 597.025 271.524C594.36 269.906 591.363 269.097 588.032 269.097C584.797 269.097 581.847 269.906 579.182 271.524C576.518 273.142 574.376 275.33 572.759 278.09C571.236 280.85 570.475 284.038 570.475 287.654C570.475 291.175 571.236 294.315 572.759 297.075C574.376 299.834 576.518 302.023 579.182 303.641C581.847 305.163 584.797 305.925 588.032 305.925ZM561.625 322.768C559.056 322.768 557.152 322.34 555.915 321.484C554.678 320.722 553.917 319.723 553.631 318.486C553.346 317.154 553.203 315.679 553.203 314.061V228.987C553.203 227.369 553.346 225.942 553.631 224.704C553.917 223.372 554.678 222.325 555.915 221.564C557.152 220.803 559.056 220.422 561.625 220.422C564.289 220.422 566.193 220.803 567.335 221.564C568.476 222.325 569.19 223.372 569.476 224.704C569.761 226.037 569.904 227.464 569.904 228.987V316.916C569.523 319.009 568.714 320.484 567.477 321.341C566.335 322.293 564.385 322.768 561.625 322.768Z" fill="#27235C" stroke="#27235C" stroke-width="0.2"/>
<path d="M510.66 323.627C504.474 323.627 499.05 322.628 494.387 320.629C489.819 318.631 485.965 315.919 482.825 312.493C479.78 308.972 477.449 305.07 475.831 300.788C474.308 296.411 473.547 291.89 473.547 287.228C473.547 280.376 475.117 274.286 478.257 268.957C481.398 263.628 485.728 259.44 491.247 256.395C496.861 253.35 503.285 251.828 510.517 251.828C515.656 251.828 520.176 252.636 524.077 254.254C527.979 255.872 531.215 258.013 533.784 260.678C536.448 263.247 538.447 266.102 539.779 269.242C541.206 272.382 541.92 275.428 541.92 278.378C541.92 283.421 540.683 287.085 538.209 289.369C535.83 291.653 532.832 292.795 529.216 292.795H491.532C491.628 296.03 492.627 298.837 494.53 301.216C496.528 303.595 499.002 305.451 501.952 306.783C504.998 308.02 508.09 308.639 511.231 308.639C513.61 308.639 515.703 308.496 517.511 308.211C519.415 307.925 521.032 307.592 522.365 307.211C523.697 306.736 524.839 306.26 525.79 305.784C526.837 305.308 527.789 304.88 528.645 304.499C529.502 304.119 530.311 303.881 531.072 303.786C532.119 303.691 533.165 303.928 534.212 304.499C535.259 305.07 536.115 306.07 536.781 307.497C537.352 308.449 537.733 309.353 537.923 310.209C538.209 310.97 538.352 311.732 538.352 312.493C538.352 314.396 537.21 316.204 534.926 317.917C532.642 319.535 529.406 320.867 525.219 321.914C521.127 323.056 516.274 323.627 510.66 323.627ZM491.532 282.66H520.794C522.412 282.66 523.649 282.422 524.506 281.946C525.362 281.375 525.79 280.233 525.79 278.52C525.79 276.332 525.124 274.381 523.792 272.668C522.46 270.86 520.652 269.48 518.368 268.528C516.084 267.482 513.419 266.958 510.374 266.958C506.853 266.958 503.665 267.672 500.811 269.099C497.956 270.432 495.672 272.287 493.959 274.666C492.341 277.045 491.532 279.71 491.532 282.66Z" fill="#27235C" stroke="#27235C" stroke-width="0.2"/>
<path d="M382.963 322.345C381.06 322.345 379.537 322.012 378.395 321.346C377.253 320.585 376.397 319.728 375.826 318.777C375.35 317.825 375.017 317.016 374.827 316.35L346.849 234.416C345.898 231.371 345.755 229.087 346.421 227.565C347.087 225.947 349.038 224.615 352.274 223.568C354.462 222.807 356.223 222.473 357.555 222.569C358.887 222.664 359.982 223.235 360.838 224.282C361.79 225.233 362.599 226.756 363.265 228.849L383.82 291.085L402.233 229.42C402.519 228.469 402.899 227.517 403.375 226.565C403.946 225.519 404.803 224.662 405.945 223.996C407.086 223.33 408.657 222.997 410.655 222.997C412.939 222.997 414.652 223.378 415.794 224.139C416.936 224.9 417.745 225.757 418.22 226.708C418.791 227.565 419.172 228.373 419.362 229.135L437.776 291.513L458.473 228.992C459.14 226.803 459.901 225.186 460.757 224.139C461.709 223.092 462.898 222.521 464.326 222.426C465.753 222.236 467.514 222.521 469.607 223.282C471.796 224.044 473.366 224.9 474.318 225.852C475.269 226.708 475.745 227.85 475.745 229.278C475.745 230.61 475.412 232.323 474.746 234.416L446.911 316.493C446.721 317.064 446.34 317.825 445.769 318.777C445.294 319.728 444.485 320.585 443.343 321.346C442.201 322.012 440.631 322.345 438.632 322.345C436.634 322.345 435.064 321.917 433.922 321.061C432.78 320.204 431.923 319.253 431.353 318.206C430.782 317.159 430.401 316.398 430.211 315.922L410.798 253.115L391.385 315.779C391.195 316.445 390.814 317.302 390.243 318.349C389.767 319.395 388.958 320.347 387.816 321.203C386.674 321.965 385.057 322.345 382.963 322.345Z" fill="#27235C" stroke="#27235C" stroke-width="0.2"/>
<path d="M308.737 323.628C306.262 323.628 303.645 323.343 300.886 322.772C298.126 322.296 295.462 321.582 292.892 320.63C290.323 319.584 288.087 318.394 286.183 317.062C284.375 315.634 283.233 314.064 282.758 312.351C282.377 311.4 282.234 310.496 282.329 309.639C282.424 308.688 282.71 307.736 283.186 306.784C283.662 305.738 284.375 304.691 285.327 303.644C286.183 302.597 287.04 302.026 287.896 301.931C288.848 301.741 290.037 302.026 291.465 302.788C292.702 303.263 294.034 303.882 295.462 304.643C296.984 305.405 298.507 306.166 300.029 306.927C301.647 307.688 303.265 308.307 304.883 308.783C306.595 309.259 308.261 309.497 309.879 309.497C313.399 309.497 316.207 308.926 318.3 307.784C320.394 306.547 321.441 304.834 321.441 302.645C321.441 301.408 321.108 300.313 320.441 299.362C319.775 298.41 318.871 297.649 317.729 297.078C316.683 296.412 315.398 295.841 313.875 295.365C312.448 294.794 310.878 294.318 309.165 293.938C307.547 293.462 305.834 292.938 304.026 292.368C301.647 291.701 299.268 290.893 296.889 289.941C294.51 288.989 292.369 287.752 290.466 286.23C288.658 284.707 287.183 282.804 286.041 280.52C284.899 278.236 284.328 275.381 284.328 271.955C284.328 267.673 285.327 264.057 287.325 261.107C289.419 258.062 292.416 255.73 296.318 254.113C300.22 252.495 304.93 251.686 310.449 251.686C312.353 251.686 314.161 251.829 315.874 252.114C317.682 252.4 319.395 252.828 321.012 253.399C322.725 253.875 324.343 254.493 325.866 255.255C327.483 256.016 329.006 256.872 330.433 257.824C332.812 259.156 334.049 260.726 334.145 262.534C334.24 264.247 333.574 266.103 332.146 268.101C331.099 269.434 330.053 270.385 329.006 270.956C327.959 271.432 326.865 271.432 325.723 270.956C324.2 270.195 322.535 269.386 320.727 268.53C319.014 267.578 317.206 266.769 315.303 266.103C313.495 265.437 311.591 265.104 309.593 265.104C307.69 265.104 305.977 265.389 304.454 265.96C302.932 266.531 301.79 267.34 301.029 268.387C300.267 269.434 299.887 270.671 299.887 272.098C299.887 273.43 300.267 274.525 301.029 275.381C301.79 276.238 302.789 276.951 304.026 277.522C305.263 278.093 306.738 278.617 308.451 279.092C310.164 279.473 311.972 279.854 313.875 280.234C316.54 280.805 319.252 281.519 322.012 282.376C324.771 283.232 327.293 284.422 329.577 285.944C331.956 287.467 333.859 289.513 335.287 292.082C336.714 294.556 337.428 297.792 337.428 301.788C337.428 308.735 334.858 314.112 329.72 317.918C324.676 321.725 317.682 323.628 308.737 323.628Z" fill="#27235C" stroke="#27235C" stroke-width="0.2"/>
<path d="M241.355 323.626C235.17 323.626 229.745 322.627 225.082 320.628C220.515 318.63 216.661 315.918 213.52 312.492C210.475 308.971 208.144 305.069 206.526 300.787C205.003 296.41 204.242 291.89 204.242 287.227C204.242 280.375 205.812 274.285 208.953 268.956C212.093 263.627 216.423 259.439 221.942 256.394C227.557 253.349 233.98 251.827 241.212 251.827C246.351 251.827 250.871 252.635 254.773 254.253C258.674 255.871 261.91 258.012 264.479 260.677C267.144 263.246 269.142 266.101 270.474 269.241C271.902 272.381 272.615 275.427 272.615 278.377C272.615 283.42 271.378 287.084 268.904 289.368C266.525 291.652 263.528 292.794 259.911 292.794H222.228C222.323 296.029 223.322 298.836 225.225 301.215C227.224 303.594 229.698 305.45 232.648 306.782C235.693 308.019 238.786 308.638 241.926 308.638C244.305 308.638 246.399 308.495 248.207 308.21C250.11 307.924 251.728 307.591 253.06 307.211C254.392 306.735 255.534 306.259 256.486 305.783C257.532 305.307 258.484 304.879 259.341 304.498C260.197 304.118 261.006 303.88 261.767 303.785C262.814 303.69 263.861 303.927 264.907 304.498C265.954 305.069 266.811 306.069 267.477 307.496C268.048 308.448 268.428 309.352 268.619 310.208C268.904 310.969 269.047 311.731 269.047 312.492C269.047 314.395 267.905 316.203 265.621 317.916C263.337 319.534 260.102 320.866 255.915 321.913C251.823 323.055 246.97 323.626 241.355 323.626ZM222.228 282.659H251.49C253.107 282.659 254.345 282.421 255.201 281.945C256.057 281.374 256.486 280.232 256.486 278.519C256.486 276.331 255.82 274.38 254.487 272.667C253.155 270.859 251.347 269.479 249.063 268.527C246.779 267.481 244.115 266.957 241.07 266.957C237.549 266.957 234.361 267.671 231.506 269.098C228.651 270.431 226.367 272.286 224.654 274.665C223.037 277.044 222.228 279.709 222.228 282.659Z" fill="#27235C" stroke="#27235C" stroke-width="0.2"/>
<path d="M190.398 322.774C186.877 322.774 183.736 322.536 180.977 322.061C178.312 321.585 175.981 320.776 173.982 319.634C172.079 318.492 170.509 316.97 169.272 315.066C168.035 313.068 167.083 310.641 166.417 307.786C165.846 304.932 165.561 301.506 165.561 297.509V228.707C165.561 227.09 165.703 225.662 165.989 224.425C166.369 223.093 167.131 222.046 168.273 221.285C169.51 220.428 171.461 220 174.125 220C176.79 220 178.693 220.381 179.835 221.142C181.072 221.903 181.833 222.95 182.119 224.282C182.499 225.519 182.69 226.947 182.69 228.565V296.795C182.69 298.603 182.785 300.126 182.975 301.363C183.261 302.505 183.689 303.457 184.26 304.218C184.926 304.884 185.735 305.36 186.686 305.645C187.733 305.931 188.97 306.074 190.398 306.074C191.635 306.074 192.729 306.216 193.681 306.502C194.727 306.787 195.536 307.501 196.107 308.643C196.773 309.785 197.106 311.64 197.106 314.21C197.106 316.874 196.773 318.825 196.107 320.062C195.536 321.299 194.727 322.061 193.681 322.346C192.634 322.632 191.54 322.774 190.398 322.774Z" fill="#27235C" stroke="#27235C" stroke-width="0.2"/>
<path d="M141.647 322.772C139.078 322.772 137.174 322.344 135.937 321.488C134.7 320.726 133.939 319.727 133.653 318.49C133.368 317.158 133.225 315.683 133.225 314.065V260.965C133.225 259.443 133.368 258.063 133.653 256.826C134.034 255.493 134.795 254.447 135.937 253.685C137.174 252.924 139.125 252.543 141.79 252.543C144.454 252.543 146.358 252.924 147.499 253.685C148.737 254.447 149.498 255.493 149.783 256.826C150.069 258.158 150.212 259.633 150.212 261.251V314.208C150.212 315.826 150.069 317.301 149.783 318.633C149.498 319.87 148.737 320.869 147.499 321.631C146.358 322.392 144.407 322.772 141.647 322.772ZM141.647 238.697C138.887 238.697 136.841 238.317 135.509 237.555C134.272 236.699 133.463 235.557 133.083 234.13C132.797 232.702 132.654 231.132 132.654 229.419C132.654 227.611 132.797 226.041 133.083 224.709C133.463 223.376 134.32 222.33 135.652 221.568C136.984 220.712 139.03 220.284 141.79 220.284C144.645 220.284 146.691 220.712 147.928 221.568C149.165 222.425 149.974 223.567 150.354 224.994C150.735 226.326 150.925 227.896 150.925 229.705C150.925 231.322 150.735 232.845 150.354 234.272C149.974 235.7 149.165 236.794 147.928 237.555C146.691 238.317 144.597 238.697 141.647 238.697Z" fill="#27235C" stroke="#27235C" stroke-width="0.2"/>
<path d="M24.4218 322.628C21.9476 322.628 20.0919 322.248 18.8548 321.486C17.6177 320.725 16.8089 319.678 16.4282 318.346C16.1427 317.014 16 315.539 16 313.921V231.559C16 230.036 16.1427 228.656 16.4282 227.419C16.8089 226.087 17.6177 225.04 18.8548 224.279C20.0919 223.423 22.0427 222.994 24.7072 222.994C26.7056 222.994 28.1806 223.137 29.1322 223.423C30.179 223.613 30.9879 223.946 31.5588 224.422C32.1298 224.802 32.7008 225.326 33.2718 225.992L68.1007 274.667H64.8177L99.7894 225.849C100.456 225.088 101.122 224.517 101.788 224.136C102.454 223.756 103.31 223.47 104.357 223.28C105.404 223.09 106.784 222.994 108.497 222.994C111.066 222.994 112.969 223.423 114.206 224.279C115.443 225.04 116.205 226.087 116.49 227.419C116.871 228.752 117.061 230.227 117.061 231.844V314.207C117.061 315.634 116.871 317.014 116.49 318.346C116.205 319.678 115.443 320.725 114.206 321.486C112.969 322.248 111.018 322.628 108.354 322.628C105.785 322.628 103.881 322.2 102.644 321.344C101.407 320.582 100.598 319.536 100.218 318.203C99.9321 316.871 99.7894 315.444 99.7894 313.921V252.685L73.8104 290.226C73.5249 290.607 73.0967 291.13 72.5257 291.796C71.9548 292.367 71.1935 292.89 70.2419 293.366C69.2903 293.842 68.0056 294.08 66.3878 294.08C64.8653 294.08 63.6282 293.842 62.6766 293.366C61.7249 292.89 60.9636 292.367 60.3927 291.796C59.9169 291.225 59.4411 290.654 58.9653 290.083L33.129 252.685V314.207C33.129 315.634 32.9387 317.014 32.558 318.346C32.2726 319.678 31.5113 320.725 30.2742 321.486C29.0371 322.248 27.0863 322.628 24.4218 322.628Z" fill="#27235C" stroke="#27235C" stroke-width="0.2"/>
</svg>
