<svg width="547" height="122" viewBox="0 0 547 122" fill="none" xmlns="http://www.w3.org/2000/svg">
<path d="M257.829 114.544C257.829 113.09 259.007 111.912 260.461 111.912H442.068C443.522 111.912 444.7 113.09 444.7 114.544V114.544C444.7 115.997 443.522 117.176 442.068 117.176H260.461C259.007 117.176 257.829 115.997 257.829 114.544V114.544Z" fill="#FFBB00"/>
<path d="M109.837 95.1347V88.7634C108.78 87.1285 107.785 85.5166 106.851 83.9276C105.917 82.3385 105.037 80.7801 104.21 79.2522H106.828C107.41 80.5051 108.061 81.7809 108.78 83.0796C109.5 84.363 110.242 85.6006 111.008 86.7924C111.758 85.6006 112.493 84.363 113.213 83.0796C113.932 81.7809 114.591 80.5051 115.188 79.2522H117.668C116.842 80.7801 115.961 82.3385 115.027 83.9276C114.093 85.5013 113.106 87.0979 112.064 88.7175V95.1347H109.837Z" fill="white"/>
<path d="M129.056 89.1759C129.056 90.1232 128.918 90.9788 128.642 91.7427C128.367 92.5067 127.976 93.1637 127.471 93.7137C126.981 94.2638 126.392 94.6916 125.703 94.9972C125.014 95.2875 124.263 95.4326 123.452 95.4326C122.64 95.4326 121.89 95.2875 121.201 94.9972C120.512 94.6916 119.915 94.2638 119.41 93.7137C118.92 93.1637 118.537 92.5067 118.261 91.7427C117.986 90.9788 117.848 90.1232 117.848 89.1759C117.848 88.2439 117.986 87.3959 118.261 86.6319C118.537 85.8527 118.92 85.1881 119.41 84.638C119.915 84.088 120.512 83.6678 121.201 83.3775C121.89 83.0719 122.64 82.9191 123.452 82.9191C124.263 82.9191 125.014 83.0719 125.703 83.3775C126.392 83.6678 126.981 84.088 127.471 84.638C127.976 85.1881 128.367 85.8527 128.642 86.6319C128.918 87.3959 129.056 88.2439 129.056 89.1759ZM126.828 89.1759C126.828 87.8313 126.522 86.7694 125.909 85.9902C125.312 85.1957 124.493 84.7985 123.452 84.7985C122.411 84.7985 121.584 85.1957 120.972 85.9902C120.374 86.7694 120.076 87.8313 120.076 89.1759C120.076 90.5204 120.374 91.59 120.972 92.3845C121.584 93.1637 122.411 93.5533 123.452 93.5533C124.493 93.5533 125.312 93.1637 125.909 92.3845C126.522 91.59 126.828 90.5204 126.828 89.1759Z" fill="white"/>
<path d="M141.569 94.7909C141.079 94.9131 140.428 95.043 139.617 95.1805C138.821 95.318 137.894 95.3868 136.838 95.3868C135.919 95.3868 135.146 95.2569 134.518 94.9972C133.89 94.7221 133.385 94.3402 133.002 93.8512C132.62 93.3623 132.344 92.7894 132.176 92.1324C132.007 91.4601 131.923 90.7191 131.923 89.9093V83.2171H134.059V89.4509C134.059 90.9024 134.289 91.9414 134.748 92.5678C135.207 93.1943 135.98 93.5075 137.067 93.5075C137.297 93.5075 137.534 93.4998 137.779 93.4846C138.024 93.4693 138.254 93.454 138.468 93.4387C138.683 93.4082 138.874 93.3852 139.043 93.37C139.226 93.3394 139.356 93.3088 139.433 93.2783V83.2171H141.569V94.7909Z" fill="white"/>
<path d="M149.658 82.965C149.842 82.965 150.049 82.9803 150.278 83.0108C150.523 83.0261 150.761 83.0567 150.99 83.1025C151.22 83.1331 151.427 83.1713 151.61 83.2171C151.809 83.2476 151.955 83.2782 152.047 83.3088L151.679 85.1652C151.511 85.104 151.227 85.0353 150.829 84.9589C150.447 84.8672 149.949 84.8214 149.337 84.8214C148.938 84.8214 148.54 84.8672 148.142 84.9589C147.76 85.0353 147.507 85.0888 147.384 85.1193V95.1347H145.249V83.7213C145.754 83.5379 146.382 83.3699 147.132 83.2171C147.882 83.049 148.724 82.965 149.658 82.965Z" fill="white"/>
<path d="M169.574 79.2522H171.802V95.1347H169.574V87.8008H161.789V95.1347H159.561V79.2522H161.789V85.8756H169.574V79.2522Z" fill="white"/>
<path d="M186.158 89.1759C186.158 90.1232 186.02 90.9788 185.745 91.7427C185.469 92.5067 185.079 93.1637 184.573 93.7137C184.083 94.2638 183.494 94.6916 182.805 94.9972C182.116 95.2875 181.366 95.4326 180.554 95.4326C179.743 95.4326 178.992 95.2875 178.303 94.9972C177.614 94.6916 177.017 94.2638 176.512 93.7137C176.022 93.1637 175.639 92.5067 175.364 91.7427C175.088 90.9788 174.95 90.1232 174.95 89.1759C174.95 88.2439 175.088 87.3959 175.364 86.6319C175.639 85.8527 176.022 85.1881 176.512 84.638C177.017 84.088 177.614 83.6678 178.303 83.3775C178.992 83.0719 179.743 82.9191 180.554 82.9191C181.366 82.9191 182.116 83.0719 182.805 83.3775C183.494 83.6678 184.083 84.088 184.573 84.638C185.079 85.1881 185.469 85.8527 185.745 86.6319C186.02 87.3959 186.158 88.2439 186.158 89.1759ZM183.93 89.1759C183.93 87.8313 183.624 86.7694 183.012 85.9902C182.414 85.1957 181.595 84.7985 180.554 84.7985C179.513 84.7985 178.686 85.1957 178.074 85.9902C177.477 86.7694 177.178 87.8313 177.178 89.1759C177.178 90.5204 177.477 91.59 178.074 92.3845C178.686 93.1637 179.513 93.5533 180.554 93.5533C181.595 93.5533 182.414 93.1637 183.012 92.3845C183.624 91.59 183.93 90.5204 183.93 89.1759Z" fill="white"/>
<path d="M191.942 93.5991C192.815 93.5991 193.458 93.4846 193.871 93.2554C194.3 93.0262 194.514 92.6595 194.514 92.1553C194.514 91.6358 194.307 91.2233 193.894 90.9177C193.481 90.6121 192.799 90.2683 191.85 89.8864C191.391 89.703 190.947 89.5197 190.518 89.3363C190.105 89.1377 189.745 88.9085 189.439 88.6488C189.132 88.389 188.887 88.0758 188.704 87.7091C188.52 87.3424 188.428 86.8917 188.428 86.3569C188.428 85.3027 188.818 84.47 189.599 83.8588C190.38 83.2324 191.444 82.9191 192.792 82.9191C193.129 82.9191 193.465 82.9421 193.802 82.9879C194.139 83.0185 194.453 83.0643 194.744 83.1254C195.035 83.1713 195.287 83.2247 195.502 83.2858C195.731 83.347 195.907 83.4004 196.03 83.4463L195.64 85.2797C195.41 85.1575 195.05 85.0353 194.56 84.9131C194.07 84.7755 193.481 84.7068 192.792 84.7068C192.195 84.7068 191.674 84.829 191.23 85.0735C190.786 85.3027 190.564 85.6694 190.564 86.1736C190.564 86.4333 190.61 86.6625 190.702 86.8611C190.809 87.0597 190.962 87.2431 191.161 87.4112C191.375 87.564 191.636 87.7091 191.942 87.8466C192.248 87.9841 192.616 88.1293 193.044 88.2821C193.611 88.496 194.116 88.7099 194.56 88.9238C195.004 89.1224 195.379 89.3592 195.685 89.6343C196.007 89.9093 196.252 90.2454 196.42 90.6427C196.589 91.0246 196.673 91.4983 196.673 92.0636C196.673 93.1637 196.26 93.9964 195.433 94.5617C194.621 95.127 193.458 95.4097 191.942 95.4097C190.885 95.4097 190.059 95.318 189.462 95.1347C188.864 94.9666 188.459 94.8367 188.244 94.7451L188.635 92.9116C188.88 93.0033 189.27 93.1408 189.806 93.3241C190.342 93.5075 191.054 93.5991 191.942 93.5991Z" fill="white"/>
<path d="M201.411 83.2171H205.935V85.0047H201.411V90.5052C201.411 91.101 201.457 91.5976 201.549 91.9949C201.64 92.3768 201.778 92.6824 201.962 92.9116C202.146 93.1255 202.375 93.2783 202.651 93.37C202.927 93.4616 203.248 93.5075 203.616 93.5075C204.259 93.5075 204.772 93.4387 205.154 93.3012C205.552 93.1484 205.828 93.0415 205.981 92.9803L206.394 94.7451C206.18 94.852 205.805 94.9819 205.269 95.1347C204.733 95.3027 204.121 95.3868 203.432 95.3868C202.62 95.3868 201.947 95.2875 201.411 95.0888C200.89 94.8749 200.469 94.5617 200.148 94.1492C199.826 93.7367 199.596 93.2324 199.459 92.6366C199.336 92.0254 199.275 91.3226 199.275 90.5281V79.8939L201.411 79.5272V83.2171Z" fill="white"/>
<path d="M210.789 95.1347H208.653V83.2171H210.789V95.1347ZM209.71 81.0628C209.327 81.0628 208.998 80.9405 208.722 80.6961C208.462 80.4363 208.332 80.0925 208.332 79.6647C208.332 79.2369 208.462 78.9008 208.722 78.6563C208.998 78.3966 209.327 78.2667 209.71 78.2667C210.092 78.2667 210.414 78.3966 210.674 78.6563C210.95 78.9008 211.088 79.2369 211.088 79.6647C211.088 80.0925 210.95 80.4363 210.674 80.6961C210.414 80.9405 210.092 81.0628 209.71 81.0628Z" fill="white"/>
<path d="M214.462 83.5609C214.952 83.4386 215.603 83.3088 216.414 83.1713C217.226 83.0337 218.16 82.965 219.216 82.965C220.165 82.965 220.954 83.1025 221.582 83.3775C222.209 83.6373 222.707 84.0116 223.074 84.5005C223.457 84.9742 223.725 85.5471 223.878 86.2194C224.031 86.8917 224.108 87.6327 224.108 88.4425V95.1347H221.972V88.9009C221.972 88.1675 221.918 87.541 221.811 87.0216C221.719 86.5021 221.559 86.0819 221.329 85.761C221.099 85.4402 220.793 85.211 220.41 85.0735C220.028 84.9207 219.553 84.8443 218.986 84.8443C218.757 84.8443 218.519 84.8519 218.274 84.8672C218.029 84.8825 217.792 84.9054 217.562 84.936C217.348 84.9513 217.149 84.9742 216.965 85.0047C216.797 85.0353 216.674 85.0582 216.598 85.0735V95.1347H214.462V83.5609Z" fill="white"/>
<path d="M235.137 93.9429C234.953 94.0652 234.593 94.2256 234.057 94.4242C233.537 94.6076 232.924 94.6992 232.22 94.6992C231.5 94.6992 230.819 94.5846 230.176 94.3555C229.548 94.1263 228.997 93.7749 228.522 93.3012C228.048 92.8123 227.673 92.2088 227.397 91.4906C227.122 90.7725 226.984 89.9169 226.984 88.9238C226.984 88.0529 227.114 87.2584 227.374 86.5403C227.634 85.8069 228.01 85.1804 228.5 84.661C229.005 84.1262 229.617 83.7137 230.337 83.4234C231.056 83.1178 231.868 82.965 232.771 82.965C233.767 82.965 234.632 83.0414 235.367 83.1942C236.117 83.3317 236.744 83.4616 237.25 83.5838V94.2179C237.25 96.0514 236.775 97.3807 235.826 98.2057C234.877 99.0308 233.437 99.4433 231.508 99.4433C230.758 99.4433 230.046 99.3822 229.372 99.26C228.714 99.1378 228.14 98.9926 227.65 98.8245L228.04 96.9682C228.469 97.1362 228.989 97.2814 229.602 97.4036C230.23 97.5411 230.88 97.6099 231.554 97.6099C232.825 97.6099 233.736 97.3578 234.287 96.8536C234.854 96.3494 235.137 95.5472 235.137 94.4471V93.9429ZM235.114 85.0964C234.9 85.0353 234.609 84.9818 234.241 84.936C233.889 84.8749 233.407 84.8443 232.794 84.8443C231.646 84.8443 230.758 85.2186 230.13 85.9673C229.518 86.716 229.211 87.7091 229.211 88.9467C229.211 89.6343 229.296 90.2225 229.464 90.7114C229.648 91.2003 229.885 91.6052 230.176 91.9261C230.482 92.247 230.827 92.4838 231.21 92.6366C231.608 92.7894 232.013 92.8658 232.427 92.8658C232.993 92.8658 233.514 92.7894 233.989 92.6366C234.463 92.4685 234.838 92.2775 235.114 92.0636V85.0964Z" fill="white"/>
<path d="M243.178 92.522C243.193 92.6442 243.201 92.7664 243.201 92.8887C243.201 92.9956 243.201 93.1102 243.201 93.2324C243.201 94.195 243.056 95.1423 242.765 96.0743C242.489 97.0216 242.106 97.9231 241.616 98.7787L239.963 98.2516C240.345 97.4724 240.598 96.6779 240.721 95.8681C240.843 95.0736 240.904 94.3249 240.904 93.6221C240.904 93.4234 240.897 93.2324 240.881 93.0491C240.881 92.8658 240.874 92.69 240.858 92.522H243.178Z" fill="white"/>
<path d="M251.389 87.182C251.389 85.8222 251.588 84.6228 251.987 83.5838C252.4 82.5448 252.951 81.6816 253.64 80.994C254.344 80.2912 255.156 79.764 256.075 79.4126C257.009 79.0612 257.996 78.8855 259.037 78.8855C260.063 78.8855 261.028 79.0612 261.931 79.4126C262.85 79.764 263.653 80.2912 264.342 80.994C265.031 81.6816 265.575 82.5448 265.973 83.5838C266.387 84.6228 266.593 85.8222 266.593 87.182C266.593 88.5418 266.387 89.7412 265.973 90.7802C265.575 91.8191 265.031 92.69 264.342 93.3929C263.653 94.0804 262.85 94.5999 261.931 94.9513C261.028 95.3027 260.063 95.4785 259.037 95.4785C257.996 95.4785 257.009 95.3027 256.075 94.9513C255.156 94.5999 254.344 94.0804 253.64 93.3929C252.951 92.69 252.4 91.8191 251.987 90.7802C251.588 89.7412 251.389 88.5418 251.389 87.182ZM253.732 87.182C253.732 88.1446 253.854 89.0231 254.099 89.8176C254.344 90.5968 254.689 91.2615 255.133 91.8115C255.592 92.3615 256.143 92.7894 256.787 93.0949C257.445 93.3852 258.18 93.5304 258.991 93.5304C259.803 93.5304 260.53 93.3852 261.173 93.0949C261.816 92.7894 262.36 92.3615 262.804 91.8115C263.263 91.2615 263.615 90.5968 263.86 89.8176C264.105 89.0231 264.228 88.1446 264.228 87.182C264.228 86.2194 264.105 85.3485 263.86 84.5693C263.615 83.7748 263.263 83.1025 262.804 82.5525C262.36 82.0024 261.816 81.5822 261.173 81.2919C260.53 80.9864 259.803 80.8336 258.991 80.8336C258.18 80.8336 257.445 80.9864 256.787 81.2919C256.143 81.5822 255.592 82.0024 255.133 82.5525C254.689 83.1025 254.344 83.7748 254.099 84.5693C253.854 85.3485 253.732 86.2194 253.732 87.182Z" fill="white"/>
<path d="M279.278 94.7909C278.788 94.9131 278.137 95.043 277.326 95.1805C276.53 95.318 275.603 95.3868 274.547 95.3868C273.628 95.3868 272.855 95.2569 272.227 94.9972C271.6 94.7221 271.094 94.3402 270.712 93.8512C270.329 93.3623 270.053 92.7894 269.885 92.1324C269.716 91.4601 269.632 90.7191 269.632 89.9093V83.2171H271.768V89.4509C271.768 90.9024 271.998 91.9414 272.457 92.5678C272.916 93.1943 273.69 93.5075 274.777 93.5075C275.006 93.5075 275.244 93.4998 275.489 93.4846C275.734 93.4693 275.963 93.454 276.178 93.4387C276.392 93.4082 276.583 93.3852 276.752 93.37C276.935 93.3394 277.066 93.3088 277.142 93.2783V83.2171H279.278V94.7909Z" fill="white"/>
<path d="M287.367 82.965C287.551 82.965 287.758 82.9803 287.987 83.0108C288.232 83.0261 288.47 83.0567 288.699 83.1025C288.929 83.1331 289.136 83.1713 289.319 83.2171C289.518 83.2476 289.664 83.2782 289.756 83.3088L289.388 85.1652C289.22 85.104 288.937 85.0353 288.539 84.9589C288.156 84.8672 287.658 84.8214 287.046 84.8214C286.648 84.8214 286.25 84.8672 285.851 84.9589C285.469 85.0353 285.216 85.0888 285.094 85.1193V95.1347H282.958V83.7213C283.463 83.5379 284.091 83.3699 284.841 83.2171C285.591 83.049 286.433 82.965 287.367 82.965Z" fill="white"/>
<path d="M305.056 88.4883C305.301 88.7939 305.607 89.1988 305.974 89.703C306.357 90.1919 306.748 90.742 307.146 91.3531C307.544 91.949 307.934 92.5755 308.317 93.2324C308.715 93.8894 309.052 94.5235 309.328 95.1347H306.893C306.587 94.5541 306.25 93.9658 305.883 93.37C305.53 92.7741 305.171 92.2088 304.803 91.674C304.436 91.124 304.068 90.6121 303.701 90.1385C303.349 89.6648 303.027 89.2523 302.736 88.9009C302.537 88.9161 302.33 88.9238 302.116 88.9238C301.917 88.9238 301.71 88.9238 301.496 88.9238H299.498V95.1347H297.27V79.4814C297.898 79.3286 298.595 79.2293 299.36 79.1834C300.141 79.1223 300.853 79.0918 301.496 79.0918C303.731 79.0918 305.431 79.5119 306.595 80.3523C307.773 81.1926 308.363 82.4455 308.363 84.1109C308.363 85.1652 308.08 86.0666 307.513 86.8153C306.962 87.564 306.143 88.1216 305.056 88.4883ZM301.68 81.0398C300.73 81.0398 300.003 81.0628 299.498 81.1086V87.0903H301.083C301.848 87.0903 302.537 87.0521 303.15 86.9757C303.762 86.8993 304.275 86.7542 304.688 86.5403C305.117 86.3264 305.446 86.0284 305.676 85.6464C305.906 85.2492 306.02 84.7297 306.02 84.088C306.02 83.4921 305.906 82.9955 305.676 82.5983C305.446 82.201 305.132 81.8878 304.734 81.6586C304.351 81.4295 303.892 81.269 303.356 81.1773C302.836 81.0857 302.277 81.0398 301.68 81.0398Z" fill="white"/>
<path d="M310.91 89.1988C310.91 88.1446 311.063 87.2278 311.369 86.4486C311.676 85.6541 312.081 84.9971 312.587 84.4776C313.092 83.9581 313.674 83.5685 314.332 83.3088C314.99 83.049 315.664 82.9191 316.353 82.9191C317.961 82.9191 319.193 83.4234 320.051 84.4318C320.908 85.4249 321.337 86.9452 321.337 88.9925C321.337 89.0842 321.337 89.2064 321.337 89.3592C321.337 89.4967 321.329 89.6266 321.314 89.7488H313.138C313.23 90.9864 313.59 91.9261 314.217 92.5678C314.845 93.2095 315.825 93.5304 317.157 93.5304C317.907 93.5304 318.535 93.4693 319.04 93.347C319.561 93.2095 319.951 93.0797 320.212 92.9574L320.51 94.7451C320.25 94.8826 319.79 95.0277 319.132 95.1805C318.489 95.3333 317.754 95.4097 316.927 95.4097C315.886 95.4097 314.983 95.2569 314.217 94.9513C313.467 94.6305 312.847 94.195 312.357 93.645C311.867 93.0949 311.5 92.4456 311.255 91.6969C311.025 90.933 310.91 90.1003 310.91 89.1988ZM319.109 88.03C319.124 87.0674 318.879 86.2805 318.374 85.6694C317.884 85.0429 317.203 84.7297 316.33 84.7297C315.84 84.7297 315.404 84.829 315.021 85.0276C314.654 85.211 314.34 85.4555 314.079 85.761C313.819 86.0666 313.612 86.418 313.459 86.8153C313.322 87.2125 313.23 87.6174 313.184 88.03H319.109Z" fill="white"/>
<path d="M327.184 93.5991C328.057 93.5991 328.7 93.4846 329.113 93.2554C329.542 93.0262 329.756 92.6595 329.756 92.1553C329.756 91.6358 329.55 91.2233 329.136 90.9177C328.723 90.6121 328.041 90.2683 327.092 89.8864C326.633 89.703 326.189 89.5197 325.76 89.3363C325.347 89.1377 324.987 88.9085 324.681 88.6488C324.374 88.389 324.129 88.0758 323.946 87.7091C323.762 87.3424 323.67 86.8917 323.67 86.3569C323.67 85.3027 324.061 84.47 324.841 83.8588C325.622 83.2324 326.686 82.9191 328.034 82.9191C328.371 82.9191 328.707 82.9421 329.044 82.9879C329.381 83.0185 329.695 83.0643 329.986 83.1254C330.277 83.1713 330.529 83.2247 330.744 83.2858C330.973 83.347 331.15 83.4004 331.272 83.4463L330.882 85.2797C330.652 85.1575 330.292 85.0353 329.802 84.9131C329.312 84.7755 328.723 84.7068 328.034 84.7068C327.437 84.7068 326.916 84.829 326.472 85.0735C326.028 85.3027 325.806 85.6694 325.806 86.1736C325.806 86.4333 325.852 86.6625 325.944 86.8611C326.051 87.0597 326.204 87.2431 326.403 87.4112C326.617 87.564 326.878 87.7091 327.184 87.8466C327.49 87.9841 327.858 88.1293 328.286 88.2821C328.853 88.496 329.358 88.7099 329.802 88.9238C330.246 89.1224 330.621 89.3592 330.928 89.6343C331.249 89.9093 331.494 90.2454 331.662 90.6427C331.831 91.0246 331.915 91.4983 331.915 92.0636C331.915 93.1637 331.502 93.9964 330.675 94.5617C329.863 95.127 328.7 95.4097 327.184 95.4097C326.128 95.4097 325.301 95.318 324.704 95.1347C324.106 94.9666 323.701 94.8367 323.486 94.7451L323.877 92.9116C324.122 93.0033 324.512 93.1408 325.048 93.3241C325.584 93.5075 326.296 93.5991 327.184 93.5991Z" fill="white"/>
<path d="M342.946 89.1988C342.946 87.8084 342.601 86.7389 341.912 85.9902C341.223 85.2416 340.304 84.8672 339.156 84.8672C338.513 84.8672 338.008 84.8901 337.64 84.936C337.288 84.9818 337.005 85.0353 336.791 85.0964V92.6137C337.051 92.8276 337.426 93.0338 337.916 93.2324C338.406 93.4311 338.942 93.5304 339.524 93.5304C340.136 93.5304 340.657 93.4234 341.085 93.2095C341.529 92.9803 341.889 92.6748 342.165 92.2928C342.44 91.8955 342.639 91.4372 342.762 90.9177C342.884 90.3829 342.946 89.81 342.946 89.1988ZM345.173 89.1988C345.173 90.1003 345.051 90.933 344.806 91.6969C344.576 92.4609 344.232 93.1179 343.772 93.6679C343.313 94.2179 342.747 94.6458 342.073 94.9513C341.415 95.2569 340.657 95.4097 339.799 95.4097C339.11 95.4097 338.498 95.318 337.962 95.1347C337.441 94.9513 337.051 94.7756 336.791 94.6076V99.3746H334.655V83.5838C335.16 83.4616 335.788 83.3317 336.538 83.1942C337.304 83.0414 338.184 82.965 339.179 82.965C340.098 82.965 340.925 83.1101 341.66 83.4004C342.394 83.6907 343.022 84.1033 343.543 84.638C344.063 85.1728 344.461 85.8298 344.737 86.609C345.028 87.373 345.173 88.2362 345.173 89.1988Z" fill="white"/>
<path d="M358.721 89.1759C358.721 90.1232 358.583 90.9788 358.307 91.7427C358.032 92.5067 357.641 93.1637 357.136 93.7137C356.646 94.2638 356.056 94.6916 355.367 94.9972C354.678 95.2875 353.928 95.4326 353.117 95.4326C352.305 95.4326 351.555 95.2875 350.866 94.9972C350.177 94.6916 349.58 94.2638 349.075 93.7137C348.585 93.1637 348.202 92.5067 347.926 91.7427C347.651 90.9788 347.513 90.1232 347.513 89.1759C347.513 88.2439 347.651 87.3959 347.926 86.6319C348.202 85.8527 348.585 85.1881 349.075 84.638C349.58 84.088 350.177 83.6678 350.866 83.3775C351.555 83.0719 352.305 82.9191 353.117 82.9191C353.928 82.9191 354.678 83.0719 355.367 83.3775C356.056 83.6678 356.646 84.088 357.136 84.638C357.641 85.1881 358.032 85.8527 358.307 86.6319C358.583 87.3959 358.721 88.2439 358.721 89.1759ZM356.493 89.1759C356.493 87.8313 356.187 86.7694 355.574 85.9902C354.977 85.1957 354.158 84.7985 353.117 84.7985C352.076 84.7985 351.249 85.1957 350.636 85.9902C350.039 86.7694 349.741 87.8313 349.741 89.1759C349.741 90.5204 350.039 91.59 350.636 92.3845C351.249 93.1637 352.076 93.5533 353.117 93.5533C354.158 93.5533 354.977 93.1637 355.574 92.3845C356.187 91.59 356.493 90.5204 356.493 89.1759Z" fill="white"/>
<path d="M361.726 83.5609C362.216 83.4386 362.866 83.3088 363.678 83.1713C364.489 83.0337 365.423 82.965 366.48 82.965C367.429 82.965 368.217 83.1025 368.845 83.3775C369.473 83.6373 369.971 84.0116 370.338 84.5005C370.721 84.9742 370.989 85.5471 371.142 86.2194C371.295 86.8917 371.372 87.6327 371.372 88.4425V95.1347H369.236V88.9009C369.236 88.1675 369.182 87.541 369.075 87.0216C368.983 86.5021 368.822 86.0819 368.593 85.761C368.363 85.4402 368.057 85.211 367.674 85.0735C367.291 84.9207 366.816 84.8443 366.25 84.8443C366.02 84.8443 365.783 84.8519 365.538 84.8672C365.293 84.8825 365.056 84.9054 364.826 84.936C364.612 84.9513 364.413 84.9742 364.229 85.0047C364.061 85.0353 363.938 85.0582 363.861 85.0735V95.1347H361.726V83.5609Z" fill="white"/>
<path d="M377.692 93.5991C378.565 93.5991 379.208 93.4846 379.621 93.2554C380.05 93.0262 380.265 92.6595 380.265 92.1553C380.265 91.6358 380.058 91.2233 379.644 90.9177C379.231 90.6121 378.55 90.2683 377.6 89.8864C377.141 89.703 376.697 89.5197 376.268 89.3363C375.855 89.1377 375.495 88.9085 375.189 88.6488C374.883 88.389 374.638 88.0758 374.454 87.7091C374.27 87.3424 374.178 86.8917 374.178 86.3569C374.178 85.3027 374.569 84.47 375.35 83.8588C376.131 83.2324 377.195 82.9191 378.542 82.9191C378.879 82.9191 379.216 82.9421 379.553 82.9879C379.889 83.0185 380.203 83.0643 380.494 83.1254C380.785 83.1713 381.038 83.2247 381.252 83.2858C381.482 83.347 381.658 83.4004 381.78 83.4463L381.39 85.2797C381.16 85.1575 380.8 85.0353 380.31 84.9131C379.821 84.7755 379.231 84.7068 378.542 84.7068C377.945 84.7068 377.424 84.829 376.98 85.0735C376.536 85.3027 376.314 85.6694 376.314 86.1736C376.314 86.4333 376.36 86.6625 376.452 86.8611C376.559 87.0597 376.712 87.2431 376.911 87.4112C377.126 87.564 377.386 87.7091 377.692 87.8466C377.999 87.9841 378.366 88.1293 378.795 88.2821C379.361 88.496 379.866 88.7099 380.31 88.9238C380.754 89.1224 381.13 89.3592 381.436 89.6343C381.757 89.9093 382.002 90.2454 382.171 90.6427C382.339 91.0246 382.423 91.4983 382.423 92.0636C382.423 93.1637 382.01 93.9964 381.183 94.5617C380.372 95.127 379.208 95.4097 377.692 95.4097C376.636 95.4097 375.809 95.318 375.212 95.1347C374.615 94.9666 374.209 94.8367 373.995 94.7451L374.385 92.9116C374.63 93.0033 375.021 93.1408 375.556 93.3241C376.092 93.5075 376.804 93.5991 377.692 93.5991Z" fill="white"/>
<path d="M387.299 95.1347H385.163V83.2171H387.299V95.1347ZM386.22 81.0628C385.837 81.0628 385.508 80.9405 385.232 80.6961C384.972 80.4363 384.842 80.0925 384.842 79.6647C384.842 79.2369 384.972 78.9008 385.232 78.6563C385.508 78.3966 385.837 78.2667 386.22 78.2667C386.602 78.2667 386.924 78.3966 387.184 78.6563C387.46 78.9008 387.597 79.2369 387.597 79.6647C387.597 80.0925 387.46 80.4363 387.184 80.6961C386.924 80.9405 386.602 81.0628 386.22 81.0628Z" fill="white"/>
<path d="M393.108 83.7442C393.368 83.5761 393.759 83.4004 394.279 83.2171C394.815 83.0337 395.427 82.9421 396.116 82.9421C396.974 82.9421 397.732 83.0949 398.39 83.4004C399.064 83.706 399.63 84.1338 400.09 84.6839C400.549 85.2339 400.893 85.8909 401.123 86.6549C401.368 87.4188 401.491 88.2591 401.491 89.1759C401.491 90.1385 401.345 91.0094 401.054 91.7886C400.779 92.5525 400.381 93.2019 399.86 93.7367C399.339 94.2714 398.712 94.684 397.977 94.9743C397.242 95.2646 396.415 95.4097 395.496 95.4097C394.501 95.4097 393.621 95.3409 392.855 95.2034C392.09 95.0659 391.462 94.9284 390.972 94.7909V77.7167L393.108 77.35V83.7442ZM393.108 93.2783C393.322 93.3394 393.621 93.4005 394.004 93.4616C394.402 93.5075 394.892 93.5304 395.473 93.5304C396.622 93.5304 397.54 93.1561 398.229 92.4074C398.918 91.6434 399.263 90.5663 399.263 89.1759C399.263 88.5647 399.202 87.9918 399.079 87.457C398.957 86.9222 398.758 86.4639 398.482 86.0819C398.206 85.6846 397.847 85.3791 397.403 85.1652C396.974 84.936 396.453 84.8214 395.841 84.8214C395.259 84.8214 394.723 84.9207 394.233 85.1193C393.743 85.3179 393.368 85.5242 393.108 85.7381V93.2783Z" fill="white"/>
<path d="M406.632 95.1347H404.496V83.2171H406.632V95.1347ZM405.553 81.0628C405.17 81.0628 404.841 80.9405 404.565 80.6961C404.305 80.4363 404.175 80.0925 404.175 79.6647C404.175 79.2369 404.305 78.9008 404.565 78.6563C404.841 78.3966 405.17 78.2667 405.553 78.2667C405.935 78.2667 406.257 78.3966 406.517 78.6563C406.793 78.9008 406.931 79.2369 406.931 79.6647C406.931 80.0925 406.793 80.4363 406.517 80.6961C406.257 80.9405 405.935 81.0628 405.553 81.0628Z" fill="white"/>
<path d="M413.888 95.3639C412.571 95.3333 411.637 95.0506 411.086 94.5159C410.535 93.9811 410.259 93.1484 410.259 92.0178V77.7167L412.395 77.35V91.674C412.395 92.0254 412.426 92.3157 412.487 92.5449C412.548 92.7741 412.648 92.9574 412.785 93.0949C412.923 93.2324 413.107 93.3394 413.337 93.4158C413.566 93.4769 413.85 93.5304 414.186 93.5762L413.888 95.3639Z" fill="white"/>
<path d="M418.721 95.1347H416.585V83.2171H418.721V95.1347ZM417.641 81.0628C417.259 81.0628 416.929 80.9405 416.654 80.6961C416.394 80.4363 416.263 80.0925 416.263 79.6647C416.263 79.2369 416.394 78.9008 416.654 78.6563C416.929 78.3966 417.259 78.2667 417.641 78.2667C418.024 78.2667 418.346 78.3966 418.606 78.6563C418.882 78.9008 419.019 79.2369 419.019 79.6647C419.019 80.0925 418.882 80.4363 418.606 80.6961C418.346 80.9405 418.024 81.0628 417.641 81.0628Z" fill="white"/>
<path d="M424.392 83.2171H428.916V85.0047H424.392V90.5052C424.392 91.101 424.438 91.5976 424.53 91.9949C424.622 92.3768 424.759 92.6824 424.943 92.9116C425.127 93.1255 425.357 93.2783 425.632 93.37C425.908 93.4616 426.229 93.5075 426.597 93.5075C427.24 93.5075 427.753 93.4387 428.135 93.3012C428.534 93.1484 428.809 93.0415 428.962 92.9803L429.376 94.7451C429.161 94.852 428.786 94.9819 428.25 95.1347C427.714 95.3027 427.102 95.3868 426.413 95.3868C425.602 95.3868 424.928 95.2875 424.392 95.0888C423.871 94.8749 423.45 94.5617 423.129 94.1492C422.807 93.7367 422.578 93.2324 422.44 92.6366C422.317 92.0254 422.256 91.3226 422.256 90.5281V79.8939L424.392 79.5272V83.2171Z" fill="white"/>
<path d="M430.233 97.3578C430.402 97.4342 430.616 97.5029 430.876 97.564C431.152 97.6404 431.42 97.6786 431.68 97.6786C432.522 97.6786 433.181 97.4876 433.655 97.1057C434.13 96.739 434.559 96.1355 434.941 95.2951C433.977 93.4616 433.074 91.5212 432.231 89.4738C431.405 87.4112 430.716 85.3256 430.164 83.2171H432.461C432.629 83.9046 432.829 84.6457 433.058 85.4402C433.303 86.2347 433.571 87.0521 433.862 87.8925C434.153 88.7328 434.467 89.5731 434.804 90.4135C435.141 91.2538 435.493 92.0636 435.86 92.8428C436.442 91.2385 436.947 89.6495 437.376 88.0758C437.805 86.5021 438.21 84.8825 438.593 83.2171H440.798C440.247 85.4631 439.634 87.6251 438.961 89.703C438.287 91.7657 437.56 93.6985 436.779 95.5014C436.473 96.1889 436.151 96.7772 435.814 97.2661C435.493 97.7703 435.133 98.1828 434.735 98.5037C434.337 98.8245 433.885 99.0614 433.38 99.2142C432.89 99.367 432.331 99.4433 431.703 99.4433C431.535 99.4433 431.359 99.4281 431.175 99.3975C430.991 99.3822 430.807 99.3517 430.624 99.3058C430.455 99.2753 430.295 99.2371 430.141 99.1912C430.004 99.1454 429.904 99.1072 429.843 99.0767L430.233 97.3578Z" fill="white"/>
<path d="M444.95 93.8971C444.95 94.3096 444.813 94.6687 444.537 94.9743C444.261 95.2798 443.886 95.4326 443.412 95.4326C442.937 95.4326 442.562 95.2798 442.286 94.9743C442.011 94.6687 441.873 94.3096 441.873 93.8971C441.873 93.4846 442.011 93.1255 442.286 92.8199C442.562 92.5143 442.937 92.3615 443.412 92.3615C443.886 92.3615 444.261 92.5143 444.537 92.8199C444.813 93.1255 444.95 93.4846 444.95 93.8971Z" fill="white"/>
<path d="M426.413 61.7907C423.787 61.7907 421.429 61.2816 419.339 60.2634C417.303 59.1917 415.561 57.7448 414.114 55.9228C412.721 54.1008 411.649 52.0109 410.899 49.6531C410.203 47.2416 409.854 44.6695 409.854 41.9365C409.908 39.2035 410.31 36.6581 411.06 34.3003C411.81 31.8888 412.882 29.7989 414.275 28.0305C415.722 26.2086 417.464 24.7885 419.5 23.7703C421.536 22.7522 423.841 22.2431 426.413 22.2431C428.878 22.2431 431.182 22.7522 433.326 23.7703C435.523 24.7885 437.452 26.2086 439.113 28.0305C440.828 29.7989 442.168 31.8888 443.132 34.3003C444.097 36.6581 444.579 39.1767 444.579 41.8561C444.579 44.6427 444.097 47.2684 443.132 49.7335C442.168 52.1449 440.855 54.2616 439.193 56.0836C437.532 57.852 435.603 59.2452 433.406 60.2634C431.209 61.2816 428.878 61.7907 426.413 61.7907ZM425.127 52.386C427.002 52.386 428.69 51.9573 430.191 51.0999C431.691 50.189 432.87 48.9565 433.727 47.4024C434.638 45.8484 435.094 44.08 435.094 42.0973C435.094 40.0609 434.638 38.2657 433.727 36.7117C432.87 35.1041 431.691 33.8716 430.191 33.0142C428.69 32.1032 427.002 31.6477 425.127 31.6477C423.305 31.6477 421.644 32.1032 420.143 33.0142C418.643 33.9252 417.437 35.1577 416.526 36.7117C415.669 38.2657 415.24 40.0609 415.24 42.0973C415.24 44.08 415.669 45.8484 416.526 47.4024C417.437 48.9565 418.643 50.189 420.143 51.0999C421.644 51.9573 423.305 52.386 425.127 52.386ZM410.256 61.871C408.809 61.871 407.738 61.6299 407.041 61.1476C406.344 60.7189 405.916 60.1562 405.755 59.4596C405.594 58.7094 405.514 57.8788 405.514 56.9678V9.06057C405.514 8.14959 405.594 7.34577 405.755 6.64914C405.916 5.89891 406.344 5.30945 407.041 4.88075C407.738 4.45205 408.809 4.2377 410.256 4.2377C411.757 4.2377 412.828 4.45205 413.471 4.88075C414.114 5.30945 414.516 5.89891 414.677 6.64914C414.838 7.39936 414.918 8.20317 414.918 9.06057V58.5754C414.704 59.7543 414.248 60.5849 413.552 61.0672C412.909 61.6031 411.81 61.871 410.256 61.871Z" fill="white" stroke="white" stroke-width="0.4"/>
<path d="M381.556 62.3544C378.073 62.3544 375.019 61.7918 372.393 60.6664C369.821 59.5411 367.65 58.0139 365.882 56.0847C364.167 54.102 362.854 51.9049 361.943 49.4935C361.086 47.0284 360.657 44.483 360.657 41.8572C360.657 37.9989 361.541 34.5693 363.31 31.5684C365.078 28.5675 367.516 26.2097 370.625 24.4949C373.786 22.7801 377.403 21.9227 381.476 21.9227C384.37 21.9227 386.915 22.3782 389.112 23.2892C391.309 24.2002 393.131 25.4059 394.578 26.9063C396.079 28.3532 397.204 29.9608 397.954 31.7292C398.758 33.4976 399.16 35.2124 399.16 36.8736C399.16 39.7137 398.463 41.7769 397.07 43.063C395.73 44.3491 394.042 44.9921 392.006 44.9921H370.785C370.839 46.8141 371.402 48.3949 372.473 49.7346C373.599 51.0743 374.992 52.1192 376.653 52.8695C378.368 53.5661 380.109 53.9144 381.878 53.9144C383.218 53.9144 384.396 53.834 385.415 53.6733C386.486 53.5125 387.397 53.325 388.148 53.1106C388.898 52.8427 389.541 52.5747 390.077 52.3068C390.666 52.0389 391.202 51.7977 391.684 51.5834C392.167 51.369 392.622 51.235 393.051 51.1815C393.64 51.1279 394.23 51.2618 394.819 51.5834C395.409 51.9049 395.891 52.4676 396.266 53.2714C396.588 53.8072 396.802 54.3163 396.909 54.7986C397.07 55.2273 397.15 55.656 397.15 56.0847C397.15 57.1565 396.507 58.1746 395.221 59.1392C393.935 60.0502 392.113 60.8004 389.755 61.3899C387.451 62.0329 384.718 62.3544 381.556 62.3544ZM370.785 39.285H387.263C388.174 39.285 388.871 39.1511 389.353 38.8831C389.836 38.5616 390.077 37.9186 390.077 36.954C390.077 35.7215 389.702 34.6229 388.951 33.6584C388.201 32.6402 387.183 31.8632 385.897 31.3273C384.611 30.7378 383.11 30.4431 381.396 30.4431C379.413 30.4431 377.618 30.845 376.01 31.6488C374.402 32.399 373.116 33.444 372.152 34.7837C371.241 36.1234 370.785 37.6238 370.785 39.285Z" fill="white" stroke="white" stroke-width="0.4"/>
<path d="M309.642 61.6329C308.571 61.6329 307.713 61.4454 307.07 61.0703C306.427 60.6416 305.945 60.1593 305.623 59.6234C305.355 59.0875 305.168 58.632 305.061 58.2569L289.306 12.1181C288.77 10.4033 288.69 9.11723 289.065 8.25983C289.44 7.34884 290.538 6.59861 292.36 6.00915C293.593 5.58045 294.584 5.3929 295.334 5.44648C296.085 5.50007 296.701 5.8216 297.183 6.41106C297.719 6.94694 298.175 7.80434 298.55 8.98326L310.125 44.0295L320.494 9.30478C320.655 8.76891 320.869 8.23303 321.137 7.69716C321.458 7.1077 321.941 6.62541 322.584 6.2503C323.227 5.87519 324.111 5.68763 325.236 5.68763C326.522 5.68763 327.487 5.90198 328.13 6.33068C328.773 6.75938 329.229 7.24167 329.496 7.77754C329.818 8.25983 330.032 8.71532 330.14 9.14402L340.509 44.2706L352.164 9.06364C352.539 7.83113 352.968 6.92014 353.45 6.33068C353.986 5.74122 354.656 5.41969 355.46 5.36611C356.263 5.25893 357.255 5.41969 358.434 5.84839C359.666 6.27709 360.55 6.75938 361.086 7.29525C361.622 7.77754 361.89 8.42059 361.89 9.2244C361.89 9.97463 361.703 10.9392 361.327 12.1181L345.653 58.3373C345.546 58.6588 345.332 59.0875 345.01 59.6234C344.742 60.1593 344.287 60.6416 343.644 61.0703C343.001 61.4454 342.116 61.6329 340.991 61.6329C339.866 61.6329 338.981 61.3918 338.338 60.9095C337.695 60.4272 337.213 59.8913 336.892 59.3019C336.57 58.7124 336.356 58.2837 336.248 58.0158L325.317 22.6481L314.385 57.9354C314.278 58.3105 314.063 58.7928 313.742 59.3823C313.474 59.9717 313.018 60.5076 312.375 60.9899C311.732 61.4186 310.821 61.6329 309.642 61.6329Z" fill="white" stroke="white" stroke-width="0.4"/>
<path d="M267.847 62.3551C266.453 62.3551 264.98 62.1944 263.426 61.8728C261.872 61.6049 260.371 61.203 258.924 60.6671C257.477 60.0777 256.218 59.4078 255.146 58.6576C254.128 57.8538 253.485 56.9696 253.217 56.005C253.003 55.4691 252.922 54.9601 252.976 54.4778C253.03 53.9419 253.19 53.406 253.458 52.8701C253.726 52.2807 254.128 51.6912 254.664 51.1018C255.146 50.5123 255.629 50.1908 256.111 50.1372C256.647 50.03 257.317 50.1908 258.12 50.6195C258.817 50.8874 259.567 51.2357 260.371 51.6644C261.229 52.0931 262.086 52.5218 262.943 52.9505C263.854 53.3792 264.765 53.7275 265.676 53.9955C266.641 54.2634 267.579 54.3974 268.49 54.3974C270.472 54.3974 272.053 54.0759 273.232 53.4328C274.411 52.7362 275.001 51.7716 275.001 50.5391C275.001 49.8425 274.813 49.2262 274.438 48.6903C274.063 48.1544 273.554 47.7258 272.911 47.4042C272.321 47.0291 271.598 46.7076 270.74 46.4397C269.936 46.1181 269.052 45.8502 268.088 45.6358C267.177 45.3679 266.212 45.0732 265.194 44.7516C263.854 44.3765 262.515 43.921 261.175 43.3852C259.835 42.8493 258.63 42.1527 257.558 41.2953C256.54 40.4379 255.709 39.3661 255.066 38.08C254.423 36.7939 254.101 35.1863 254.101 33.2571C254.101 30.8457 254.664 28.8094 255.789 27.1482C256.968 25.4334 258.656 24.1205 260.853 23.2095C263.05 22.2985 265.703 21.843 268.811 21.843C269.883 21.843 270.901 21.9234 271.866 22.0841C272.884 22.2449 273.848 22.4861 274.759 22.8076C275.724 23.0755 276.635 23.4238 277.492 23.8525C278.403 24.2812 279.261 24.7635 280.065 25.2994C281.404 26.0496 282.101 26.9338 282.154 27.952C282.208 28.9165 281.833 29.9615 281.029 31.0868C280.44 31.8371 279.85 32.3729 279.261 32.6945C278.671 32.9624 278.055 32.9624 277.412 32.6945C276.555 32.2658 275.617 31.8103 274.599 31.328C273.634 30.7921 272.616 30.3366 271.544 29.9615C270.526 29.5864 269.454 29.3988 268.329 29.3988C267.257 29.3988 266.293 29.5596 265.435 29.8811C264.578 30.2026 263.935 30.6581 263.506 31.2476C263.077 31.8371 262.863 32.5337 262.863 33.3375C262.863 34.0877 263.077 34.704 263.506 35.1863C263.935 35.6686 264.497 36.0705 265.194 36.392C265.891 36.7135 266.721 37.0083 267.686 37.2762C268.65 37.4905 269.669 37.7049 270.74 37.9192C272.241 38.2408 273.768 38.6427 275.322 39.125C276.876 39.6072 278.296 40.2771 279.582 41.1345C280.922 41.9919 281.994 43.144 282.797 44.5909C283.601 45.9842 284.003 47.8061 284.003 50.0568C284.003 53.9687 282.556 56.9964 279.663 59.1399C276.822 61.2834 272.884 62.3551 267.847 62.3551Z" fill="white" stroke="white" stroke-width="0.4"/>
<path d="M229.901 62.3539C226.418 62.3539 223.363 61.7913 220.738 60.6659C218.165 59.5406 215.995 58.0134 214.227 56.0842C212.512 54.1015 211.199 51.9044 210.288 49.4929C209.431 47.0279 209.002 44.4825 209.002 41.8567C209.002 37.9984 209.886 34.5688 211.655 31.5679C213.423 28.567 215.861 26.2092 218.969 24.4944C222.131 22.7796 225.748 21.9222 229.821 21.9222C232.714 21.9222 235.26 22.3777 237.457 23.2887C239.654 24.1997 241.476 25.4054 242.923 26.9058C244.423 28.3527 245.549 29.9603 246.299 31.7287C247.103 33.4971 247.505 35.2119 247.505 36.8731C247.505 39.7132 246.808 41.7763 245.415 43.0624C244.075 44.3485 242.387 44.9916 240.351 44.9916H219.13C219.184 46.8136 219.746 48.3944 220.818 49.7341C221.943 51.0738 223.337 52.1187 224.998 52.869C226.713 53.5656 228.454 53.9139 230.223 53.9139C231.562 53.9139 232.741 53.8335 233.759 53.6728C234.831 53.512 235.742 53.3244 236.492 53.1101C237.243 52.8422 237.886 52.5742 238.421 52.3063C239.011 52.0384 239.547 51.7972 240.029 51.5829C240.511 51.3685 240.967 51.2345 241.396 51.181C241.985 51.1274 242.575 51.2613 243.164 51.5829C243.753 51.9044 244.236 52.4671 244.611 53.2709C244.932 53.8067 245.147 54.3158 245.254 54.7981C245.415 55.2268 245.495 55.6555 245.495 56.0842C245.495 57.156 244.852 58.1741 243.566 59.1387C242.28 60.0497 240.458 60.7999 238.1 61.3894C235.796 62.0324 233.063 62.3539 229.901 62.3539ZM219.13 39.2845H235.608C236.519 39.2845 237.216 39.1506 237.698 38.8826C238.18 38.5611 238.421 37.9181 238.421 36.9535C238.421 35.721 238.046 34.6224 237.296 33.6578C236.546 32.6397 235.528 31.8627 234.242 31.3268C232.956 30.7373 231.455 30.4426 229.74 30.4426C227.758 30.4426 225.962 30.8445 224.355 31.6483C222.747 32.3985 221.461 33.4435 220.496 34.7832C219.585 36.1229 219.13 37.6233 219.13 39.2845Z" fill="white" stroke="white" stroke-width="0.4"/>
<path d="M201.205 61.8745C199.222 61.8745 197.454 61.7405 195.9 61.4726C194.399 61.2046 193.087 60.7491 191.961 60.1061C190.889 59.463 190.005 58.6056 189.309 57.5339C188.612 56.4085 188.076 55.0421 187.701 53.4344C187.38 51.8268 187.219 49.8977 187.219 47.647V8.90325C187.219 7.99227 187.299 7.18845 187.46 6.49182C187.674 5.74159 188.103 5.15213 188.746 4.72343C189.443 4.24114 190.541 4 192.042 4C193.542 4 194.614 4.21435 195.257 4.64305C195.954 5.07175 196.382 5.66121 196.543 6.41144C196.757 7.10807 196.864 7.91188 196.864 8.82287V47.2451C196.864 48.2632 196.918 49.1207 197.025 49.8173C197.186 50.4603 197.427 50.9962 197.749 51.4249C198.124 51.8 198.579 52.068 199.115 52.2287C199.705 52.3895 200.401 52.4699 201.205 52.4699C201.902 52.4699 202.518 52.5502 203.054 52.711C203.643 52.8718 204.099 53.2737 204.42 53.9167C204.795 54.5598 204.983 55.6047 204.983 57.0516C204.983 58.552 204.795 59.6506 204.42 60.3472C204.099 61.0439 203.643 61.4726 203.054 61.6333C202.464 61.7941 201.848 61.8745 201.205 61.8745Z" fill="white" stroke="white" stroke-width="0.4"/>
<path d="M173.76 61.8734C172.313 61.8734 171.242 61.6322 170.545 61.1499C169.848 60.7212 169.42 60.1586 169.259 59.4619C169.098 58.7117 169.018 57.8811 169.018 56.9701V27.0683C169.018 26.2109 169.098 25.4339 169.259 24.7373C169.473 23.987 169.902 23.3976 170.545 22.9689C171.242 22.5402 172.34 22.3258 173.841 22.3258C175.341 22.3258 176.413 22.5402 177.056 22.9689C177.753 23.3976 178.181 23.987 178.342 24.7373C178.503 25.4875 178.583 26.3181 178.583 27.2291V57.0505C178.583 57.9615 178.503 58.7921 178.342 59.5423C178.181 60.239 177.753 60.8016 177.056 61.2303C176.413 61.659 175.314 61.8734 173.76 61.8734ZM173.76 14.5288C172.206 14.5288 171.054 14.3145 170.304 13.8858C169.607 13.4035 169.152 12.7605 168.937 11.9566C168.777 11.1528 168.696 10.2686 168.696 9.30406C168.696 8.2859 168.777 7.40171 168.937 6.65148C169.152 5.90126 169.634 5.3118 170.384 4.88309C171.135 4.40081 172.287 4.15967 173.841 4.15967C175.448 4.15967 176.6 4.40081 177.297 4.88309C177.994 5.36538 178.449 6.00843 178.664 6.81225C178.878 7.56247 178.985 8.44666 178.985 9.46483C178.985 10.3758 178.878 11.2332 178.664 12.037C178.449 12.8408 177.994 13.4571 177.297 13.8858C176.6 14.3145 175.422 14.5288 173.76 14.5288Z" fill="white" stroke="white" stroke-width="0.4"/>
<path d="M107.742 61.7923C106.349 61.7923 105.304 61.5779 104.608 61.1492C103.911 60.7205 103.455 60.1311 103.241 59.3808C103.08 58.6306 103 57.8 103 56.889V10.5091C103 9.65167 103.08 8.87465 103.241 8.17802C103.455 7.42779 103.911 6.83833 104.608 6.40963C105.304 5.92735 106.403 5.6862 107.903 5.6862C109.029 5.6862 109.859 5.76658 110.395 5.92734C110.985 6.03452 111.44 6.22208 111.762 6.49001C112.083 6.70436 112.405 6.99909 112.726 7.3742L132.339 34.7842H130.49L150.184 7.29383C150.559 6.86513 150.934 6.5436 151.309 6.32925C151.684 6.1149 152.167 5.95414 152.756 5.84696C153.345 5.73979 154.122 5.6862 155.087 5.6862C156.534 5.6862 157.606 5.92735 158.302 6.40963C158.999 6.83833 159.428 7.42779 159.588 8.17802C159.803 8.92824 159.91 9.75885 159.91 10.6698V57.0498C159.91 57.8536 159.803 58.6306 159.588 59.3808C159.428 60.1311 158.999 60.7205 158.302 61.1492C157.606 61.5779 156.507 61.7923 155.007 61.7923C153.56 61.7923 152.488 61.5511 151.791 61.0688C151.095 60.6401 150.639 60.0507 150.425 59.3005C150.264 58.5502 150.184 57.7464 150.184 56.889V22.4055L135.554 43.5457C135.394 43.7601 135.153 44.0548 134.831 44.4299C134.509 44.7515 134.081 45.0462 133.545 45.3141C133.009 45.5821 132.286 45.716 131.375 45.716C130.517 45.716 129.821 45.5821 129.285 45.3141C128.749 45.0462 128.32 44.7515 127.999 44.4299C127.731 44.1084 127.463 43.7869 127.195 43.4654L112.646 22.4055V57.0498C112.646 57.8536 112.539 58.6306 112.324 59.3808C112.163 60.1311 111.735 60.7205 111.038 61.1492C110.341 61.5779 109.243 61.7923 107.742 61.7923Z" fill="white" stroke="white" stroke-width="0.4"/>
</svg>
