<svg width="300" height="100" viewBox="0 0 300 100" fill="none" xmlns="http://www.w3.org/2000/svg">
<path d="M136.994 93.5286C136.994 92.3645 137.938 91.4208 139.102 91.4208H284.542C285.706 91.4208 286.65 92.3645 286.65 93.5286V93.5286C286.65 94.6927 285.706 95.6364 284.542 95.6364H139.102C137.938 95.6364 136.994 94.6927 136.994 93.5286V93.5286Z" fill="#FFBB00"/>
<path d="M18.475 77.985V72.8826C17.6289 71.5733 16.8319 70.2824 16.0839 69.0098C15.3359 67.7373 14.6309 66.4892 13.9688 65.2656H16.0655C16.5315 66.2689 17.0526 67.2907 17.6289 68.3307C18.2052 69.3586 18.7999 70.3497 19.413 71.3041C20.0138 70.3497 20.6024 69.3586 21.1787 68.3307C21.755 67.2907 22.2822 66.2689 22.7604 65.2656H24.7469C24.0847 66.4892 23.3797 67.7373 22.6317 69.0098C21.8837 70.2702 21.0928 71.5488 20.259 72.8459V77.985H18.475Z" fill="#27235C"/>
<path d="M33.8665 73.2129C33.8665 73.9716 33.7561 74.6568 33.5354 75.2686C33.3147 75.8804 33.002 76.4066 32.5974 76.8471C32.205 77.2876 31.7329 77.6302 31.1811 77.8749C30.6293 78.1074 30.0285 78.2236 29.3786 78.2236C28.7288 78.2236 28.1279 78.1074 27.5762 77.8749C27.0244 77.6302 26.5462 77.2876 26.1415 76.8471C25.7492 76.4066 25.4426 75.8804 25.2219 75.2686C25.0012 74.6568 24.8908 73.9716 24.8908 73.2129C24.8908 72.4665 25.0012 71.7874 25.2219 71.1756C25.4426 70.5516 25.7492 70.0193 26.1415 69.5788C26.5462 69.1383 27.0244 68.8018 27.5762 68.5693C28.1279 68.3246 28.7288 68.2023 29.3786 68.2023C30.0285 68.2023 30.6293 68.3246 31.1811 68.5693C31.7329 68.8018 32.205 69.1383 32.5974 69.5788C33.002 70.0193 33.3147 70.5516 33.5354 71.1756C33.7561 71.7874 33.8665 72.4665 33.8665 73.2129ZM32.0824 73.2129C32.0824 72.1362 31.8371 71.2858 31.3467 70.6617C30.8685 70.0254 30.2124 69.7073 29.3786 69.7073C28.5448 69.7073 27.8827 70.0254 27.3922 70.6617C26.914 71.2858 26.6749 72.1362 26.6749 73.2129C26.6749 74.2897 26.914 75.1463 27.3922 75.7825C27.8827 76.4066 28.5448 76.7186 29.3786 76.7186C30.2124 76.7186 30.8685 76.4066 31.3467 75.7825C31.8371 75.1463 32.0824 74.2897 32.0824 73.2129Z" fill="#27235C"/>
<path d="M43.8876 77.7097C43.4952 77.8076 42.9741 77.9116 42.3242 78.0217C41.6866 78.1319 40.9448 78.1869 40.0987 78.1869C39.363 78.1869 38.7438 78.0829 38.241 77.8749C37.7383 77.6547 37.3337 77.3488 37.0271 76.9572C36.7206 76.5656 36.4999 76.1068 36.365 75.5806C36.2301 75.0422 36.1627 74.4488 36.1627 73.8003V68.4409H37.8732V73.4332C37.8732 74.5956 38.0571 75.4277 38.425 75.9294C38.7928 76.431 39.412 76.6819 40.2826 76.6819C40.4665 76.6819 40.6566 76.6758 40.8528 76.6635C41.049 76.6513 41.2329 76.6391 41.4046 76.6268C41.5762 76.6024 41.7295 76.584 41.8644 76.5718C42.0115 76.5473 42.1158 76.5228 42.1771 76.4983V68.4409H43.8876V77.7097Z" fill="#27235C"/>
<path d="M50.3658 68.239C50.513 68.239 50.6785 68.2512 50.8624 68.2757C51.0586 68.2879 51.2487 68.3124 51.4326 68.3491C51.6165 68.3736 51.7821 68.4042 51.9292 68.4409C52.0886 68.4653 52.2051 68.4898 52.2787 68.5143L51.9844 70.001C51.8495 69.952 51.6227 69.897 51.3039 69.8358C50.9973 69.7624 50.5988 69.7257 50.1083 69.7257C49.7895 69.7257 49.4707 69.7624 49.1519 69.8358C48.8454 69.897 48.643 69.9398 48.545 69.9643V77.985H46.8344V68.8447C47.2391 68.6978 47.7418 68.5632 48.3426 68.4409C48.9435 68.3063 49.6179 68.239 50.3658 68.239Z" fill="#27235C"/>
<path d="M66.3157 65.2656H68.0998V77.985H66.3157V72.1117H60.0806V77.985H58.2965V65.2656H60.0806V70.5699H66.3157V65.2656Z" fill="#27235C"/>
<path d="M79.5967 73.2129C79.5967 73.9716 79.4863 74.6568 79.2656 75.2686C79.0449 75.8804 78.7322 76.4066 78.3276 76.8471C77.9352 77.2876 77.4631 77.6302 76.9113 77.8749C76.3596 78.1074 75.7587 78.2236 75.1089 78.2236C74.459 78.2236 73.8582 78.1074 73.3064 77.8749C72.7546 77.6302 72.2764 77.2876 71.8717 76.8471C71.4794 76.4066 71.1728 75.8804 70.9521 75.2686C70.7314 74.6568 70.621 73.9716 70.621 73.2129C70.621 72.4665 70.7314 71.7874 70.9521 71.1756C71.1728 70.5516 71.4794 70.0193 71.8717 69.5788C72.2764 69.1383 72.7546 68.8018 73.3064 68.5693C73.8582 68.3246 74.459 68.2023 75.1089 68.2023C75.7587 68.2023 76.3596 68.3246 76.9113 68.5693C77.4631 68.8018 77.9352 69.1383 78.3276 69.5788C78.7322 70.0193 79.0449 70.5516 79.2656 71.1756C79.4863 71.7874 79.5967 72.4665 79.5967 73.2129ZM77.8126 73.2129C77.8126 72.1362 77.5673 71.2858 77.0769 70.6617C76.5987 70.0254 75.9427 69.7073 75.1089 69.7073C74.275 69.7073 73.6129 70.0254 73.1224 70.6617C72.6442 71.2858 72.4051 72.1362 72.4051 73.2129C72.4051 74.2897 72.6442 75.1463 73.1224 75.7825C73.6129 76.4066 74.275 76.7186 75.1089 76.7186C75.9427 76.7186 76.5987 76.4066 77.0769 75.7825C77.5673 75.1463 77.8126 74.2897 77.8126 73.2129Z" fill="#27235C"/>
<path d="M84.2287 76.7553C84.9277 76.7553 85.4427 76.6635 85.7737 76.48C86.1171 76.2965 86.2887 76.0028 86.2887 75.599C86.2887 75.183 86.1232 74.8526 85.7921 74.6079C85.4611 74.3631 84.9154 74.0878 84.1552 73.7819C83.7873 73.6351 83.4317 73.4883 83.0884 73.3414C82.7573 73.1824 82.4692 72.9988 82.2239 72.7908C81.9787 72.5828 81.7825 72.3319 81.6354 72.0383C81.4882 71.7446 81.4147 71.3836 81.4147 70.9554C81.4147 70.1111 81.7273 69.4442 82.3527 68.9548C82.978 68.4531 83.8302 68.2023 84.9093 68.2023C85.179 68.2023 85.4488 68.2206 85.7185 68.2573C85.9883 68.2818 86.2397 68.3185 86.4726 68.3674C86.7056 68.4042 86.9079 68.447 87.0796 68.4959C87.2635 68.5449 87.4045 68.5877 87.5026 68.6244L87.19 70.0927C87.006 69.9948 86.7179 69.897 86.3255 69.7991C85.9331 69.6889 85.4611 69.6339 84.9093 69.6339C84.4311 69.6339 84.0142 69.7318 83.6586 69.9275C83.303 70.1111 83.1252 70.4048 83.1252 70.8085C83.1252 71.0166 83.162 71.2001 83.2355 71.3592C83.3214 71.5182 83.444 71.6651 83.6034 71.7997C83.7751 71.922 83.9835 72.0383 84.2287 72.1484C84.474 72.2585 84.7683 72.3748 85.1116 72.4971C85.5653 72.6684 85.9699 72.8397 86.3255 73.0111C86.6811 73.1701 86.9815 73.3598 87.2268 73.58C87.4842 73.8003 87.6804 74.0695 87.8153 74.3876C87.9502 74.6935 88.0176 75.0728 88.0176 75.5256C88.0176 76.4066 87.6866 77.0734 87.0244 77.5262C86.3746 77.9789 85.4427 78.2053 84.2287 78.2053C83.3827 78.2053 82.7205 78.1319 82.2423 77.985C81.7641 77.8504 81.4392 77.7464 81.2675 77.673L81.5802 76.2047C81.7764 76.2781 82.0891 76.3882 82.5182 76.5351C82.9474 76.6819 83.5176 76.7553 84.2287 76.7553Z" fill="#27235C"/>
<path d="M91.8118 68.4409H95.4352V69.8725H91.8118V74.2775C91.8118 74.7547 91.8486 75.1524 91.9222 75.4705C91.9958 75.7764 92.1061 76.0211 92.2533 76.2047C92.4004 76.376 92.5843 76.4983 92.805 76.5718C93.0258 76.6452 93.2833 76.6819 93.5775 76.6819C94.0925 76.6819 94.5033 76.6268 94.8098 76.5167C95.1287 76.3943 95.3494 76.3087 95.472 76.2597L95.803 77.673C95.6314 77.7587 95.331 77.8627 94.9018 77.985C94.4726 78.1196 93.9822 78.1869 93.4304 78.1869C92.7805 78.1869 92.241 78.1074 91.8118 77.9483C91.3949 77.777 91.0577 77.5262 90.8002 77.1958C90.5427 76.8654 90.3588 76.4616 90.2485 75.9844C90.1504 75.495 90.1013 74.9321 90.1013 74.2958V65.7795L91.8118 65.4858V68.4409Z" fill="#27235C"/>
<path d="M99.3224 77.985H97.6119V68.4409H99.3224V77.985ZM98.4579 66.7156C98.1514 66.7156 97.8877 66.6177 97.667 66.4219C97.4586 66.2139 97.3543 65.9386 97.3543 65.596C97.3543 65.2533 97.4586 64.9842 97.667 64.7884C97.8877 64.5804 98.1514 64.4764 98.4579 64.4764C98.7645 64.4764 99.022 64.5804 99.2304 64.7884C99.4511 64.9842 99.5615 65.2533 99.5615 65.596C99.5615 65.9386 99.4511 66.2139 99.2304 66.4219C99.022 66.6177 98.7645 66.7156 98.4579 66.7156Z" fill="#27235C"/>
<path d="M102.264 68.7162C102.656 68.6183 103.177 68.5143 103.827 68.4042C104.477 68.294 105.225 68.239 106.071 68.239C106.831 68.239 107.463 68.3491 107.966 68.5693C108.468 68.7774 108.867 69.0771 109.161 69.4687C109.468 69.848 109.682 70.3069 109.805 70.8453C109.928 71.3836 109.989 71.9771 109.989 72.6256V77.985H108.278V72.9927C108.278 72.4054 108.235 71.9037 108.15 71.4877C108.076 71.0716 107.947 70.7351 107.763 70.4782C107.579 70.2212 107.334 70.0377 107.028 69.9275C106.721 69.8052 106.341 69.744 105.887 69.744C105.703 69.744 105.513 69.7501 105.317 69.7624C105.121 69.7746 104.931 69.793 104.747 69.8174C104.575 69.8297 104.416 69.848 104.269 69.8725C104.134 69.897 104.036 69.9153 103.974 69.9275V77.985H102.264V68.7162Z" fill="#27235C"/>
<path d="M118.821 77.0306C118.674 77.1285 118.386 77.257 117.957 77.4161C117.54 77.5629 117.049 77.6363 116.485 77.6363C115.909 77.6363 115.364 77.5445 114.849 77.361C114.346 77.1775 113.904 76.896 113.524 76.5167C113.144 76.1251 112.844 75.6418 112.623 75.0667C112.402 74.4916 112.292 73.8064 112.292 73.0111C112.292 72.3136 112.396 71.6773 112.605 71.1022C112.813 70.5149 113.113 70.0132 113.506 69.5972C113.91 69.1689 114.401 68.8385 114.977 68.606C115.554 68.3613 116.203 68.239 116.927 68.239C117.724 68.239 118.417 68.3001 119.005 68.4225C119.606 68.5326 120.109 68.6366 120.513 68.7345V77.2509C120.513 78.7192 120.133 79.7837 119.373 80.4445C118.613 81.1052 117.46 81.4356 115.915 81.4356C115.314 81.4356 114.744 81.3867 114.205 81.2888C113.678 81.1909 113.218 81.0747 112.825 80.9401L113.138 79.4534C113.481 79.588 113.898 79.7042 114.389 79.8021C114.891 79.9122 115.413 79.9673 115.952 79.9673C116.97 79.9673 117.699 79.7654 118.141 79.3616C118.594 78.9578 118.821 78.3154 118.821 77.4344V77.0306ZM118.803 69.9459C118.631 69.897 118.398 69.8541 118.104 69.8174C117.822 69.7685 117.436 69.744 116.945 69.744C116.026 69.744 115.314 70.0438 114.812 70.6434C114.321 71.2429 114.076 72.0383 114.076 73.0294C114.076 73.58 114.143 74.0511 114.278 74.4427C114.425 74.8342 114.616 75.1585 114.849 75.4155C115.094 75.6724 115.37 75.8621 115.676 75.9844C115.995 76.1068 116.32 76.168 116.651 76.168C117.105 76.168 117.522 76.1068 117.902 75.9844C118.282 75.8498 118.582 75.6969 118.803 75.5256V69.9459Z" fill="#27235C"/>
<path d="M125.261 75.8927C125.273 75.9905 125.279 76.0884 125.279 76.1863C125.279 76.272 125.279 76.3638 125.279 76.4616C125.279 77.2325 125.163 77.9912 124.93 78.7376C124.709 79.4962 124.403 80.2181 124.01 80.9034L122.686 80.4812C122.993 79.8572 123.195 79.2209 123.293 78.5724C123.391 77.9361 123.44 77.3365 123.44 76.7737C123.44 76.6146 123.434 76.4616 123.422 76.3148C123.422 76.168 123.416 76.0273 123.403 75.8927H125.261Z" fill="#27235C"/>
<path d="M131.837 71.6161C131.837 70.5271 131.997 69.5666 132.315 68.7345C132.646 67.9025 133.088 67.2111 133.64 66.6605C134.204 66.0976 134.854 65.6755 135.589 65.3941C136.337 65.1126 137.128 64.9719 137.962 64.9719C138.783 64.9719 139.556 65.1126 140.279 65.3941C141.015 65.6755 141.659 66.0976 142.211 66.6605C142.762 67.2111 143.198 67.9025 143.517 68.7345C143.848 69.5666 144.013 70.5271 144.013 71.6161C144.013 72.7051 143.848 73.6657 143.517 74.4977C143.198 75.3298 142.762 76.0273 142.211 76.5901C141.659 77.1407 141.015 77.5568 140.279 77.8382C139.556 78.1196 138.783 78.2604 137.962 78.2604C137.128 78.2604 136.337 78.1196 135.589 77.8382C134.854 77.5568 134.204 77.1407 133.64 76.5901C133.088 76.0273 132.646 75.3298 132.315 74.4977C131.997 73.6657 131.837 72.7051 131.837 71.6161ZM133.713 71.6161C133.713 72.387 133.811 73.0906 134.007 73.7269C134.204 74.3509 134.48 74.8832 134.835 75.3237C135.203 75.7642 135.644 76.1068 136.159 76.3515C136.687 76.584 137.275 76.7002 137.925 76.7002C138.575 76.7002 139.157 76.584 139.672 76.3515C140.187 76.1068 140.623 75.7642 140.978 75.3237C141.346 74.8832 141.628 74.3509 141.824 73.7269C142.021 73.0906 142.119 72.387 142.119 71.6161C142.119 70.8453 142.021 70.1478 141.824 69.5238C141.628 68.8875 141.346 68.3491 140.978 67.9086C140.623 67.4681 140.187 67.1316 139.672 66.8991C139.157 66.6544 138.575 66.532 137.925 66.532C137.275 66.532 136.687 66.6544 136.159 66.8991C135.644 67.1316 135.203 67.4681 134.835 67.9086C134.48 68.3491 134.204 68.8875 134.007 69.5238C133.811 70.1478 133.713 70.8453 133.713 71.6161Z" fill="#27235C"/>
<path d="M154.172 77.7097C153.779 77.8076 153.258 77.9116 152.608 78.0217C151.971 78.1319 151.229 78.1869 150.383 78.1869C149.647 78.1869 149.028 78.0829 148.525 77.8749C148.022 77.6547 147.618 77.3488 147.311 76.9572C147.005 76.5656 146.784 76.1068 146.649 75.5806C146.514 75.0422 146.447 74.4488 146.447 73.8003V68.4409H148.157V73.4332C148.157 74.5956 148.341 75.4277 148.709 75.9294C149.077 76.431 149.696 76.6819 150.567 76.6819C150.751 76.6819 150.941 76.6758 151.137 76.6635C151.333 76.6513 151.517 76.6391 151.689 76.6268C151.86 76.6024 152.014 76.584 152.149 76.5718C152.296 76.5473 152.4 76.5228 152.461 76.4983V68.4409H154.172V77.7097Z" fill="#27235C"/>
<path d="M160.65 68.239C160.797 68.239 160.963 68.2512 161.147 68.2757C161.343 68.2879 161.533 68.3124 161.717 68.3491C161.901 68.3736 162.066 68.4042 162.213 68.4409C162.373 68.4653 162.489 68.4898 162.563 68.5143L162.269 70.001C162.134 69.952 161.907 69.897 161.588 69.8358C161.281 69.7624 160.883 69.7257 160.393 69.7257C160.074 69.7257 159.755 69.7624 159.436 69.8358C159.13 69.897 158.927 69.9398 158.829 69.9643V77.985H157.119V68.8447C157.523 68.6978 158.026 68.5632 158.627 68.4409C159.228 68.3063 159.902 68.239 160.65 68.239Z" fill="#27235C"/>
<path d="M174.816 72.6623C175.012 72.907 175.257 73.2313 175.551 73.6351C175.858 74.0267 176.171 74.4672 176.49 74.9566C176.808 75.4338 177.121 75.9355 177.428 76.4616C177.746 76.9878 178.016 77.4956 178.237 77.985H176.287C176.042 77.5201 175.772 77.049 175.478 76.5718C175.196 76.0946 174.908 75.6418 174.613 75.2136C174.319 74.7731 174.025 74.3631 173.731 73.9838C173.449 73.6045 173.191 73.2741 172.958 72.9927C172.799 73.0049 172.633 73.0111 172.462 73.0111C172.302 73.0111 172.137 73.0111 171.965 73.0111H170.365V77.985H168.581V65.4491C169.083 65.3268 169.641 65.2472 170.254 65.2105C170.88 65.1616 171.45 65.1371 171.965 65.1371C173.755 65.1371 175.116 65.4736 176.048 66.1466C176.992 66.8196 177.464 67.8229 177.464 69.1567C177.464 70.001 177.238 70.7229 176.784 71.3225C176.342 71.922 175.686 72.3687 174.816 72.6623ZM172.112 66.6972C171.352 66.6972 170.769 66.7156 170.365 66.7523V71.5427H171.634C172.247 71.5427 172.799 71.5121 173.289 71.4509C173.78 71.3898 174.19 71.2735 174.522 71.1022C174.865 70.9309 175.128 70.6923 175.312 70.3864C175.496 70.0683 175.588 69.6522 175.588 69.1383C175.588 68.6611 175.496 68.2634 175.312 67.9453C175.128 67.6272 174.877 67.3763 174.558 67.1928C174.252 67.0092 173.884 66.8808 173.455 66.8073C173.038 66.7339 172.59 66.6972 172.112 66.6972Z" fill="#27235C"/>
<path d="M179.504 73.2313C179.504 72.387 179.627 71.6528 179.872 71.0288C180.117 70.3925 180.442 69.8664 180.847 69.4503C181.252 69.0343 181.717 68.7223 182.245 68.5143C182.772 68.3063 183.311 68.2023 183.863 68.2023C185.151 68.2023 186.138 68.606 186.824 69.4136C187.511 70.209 187.854 71.4265 187.854 73.0661C187.854 73.1395 187.854 73.2374 187.854 73.3598C187.854 73.4699 187.848 73.5739 187.836 73.6718H181.288C181.362 74.6629 181.65 75.4155 182.153 75.9294C182.655 76.4433 183.44 76.7002 184.507 76.7002C185.108 76.7002 185.611 76.6513 186.015 76.5534C186.432 76.4433 186.745 76.3393 186.953 76.2414L187.192 77.673C186.984 77.7831 186.616 77.8994 186.089 78.0217C185.574 78.1441 184.985 78.2053 184.323 78.2053C183.489 78.2053 182.766 78.0829 182.153 77.8382C181.552 77.5812 181.055 77.2325 180.663 76.792C180.271 76.3515 179.976 75.8315 179.78 75.2319C179.596 74.6201 179.504 73.9532 179.504 73.2313ZM186.07 72.2952C186.083 71.5244 185.886 70.8942 185.482 70.4048C185.089 69.9031 184.544 69.6522 183.845 69.6522C183.452 69.6522 183.103 69.7318 182.796 69.8908C182.502 70.0377 182.251 70.2335 182.042 70.4782C181.834 70.7229 181.668 71.0043 181.546 71.3225C181.435 71.6406 181.362 71.9649 181.325 72.2952H186.07Z" fill="#27235C"/>
<path d="M192.537 76.7553C193.236 76.7553 193.751 76.6635 194.082 76.48C194.425 76.2965 194.597 76.0028 194.597 75.599C194.597 75.183 194.432 74.8526 194.101 74.6079C193.769 74.3631 193.224 74.0878 192.464 73.7819C192.096 73.6351 191.74 73.4883 191.397 73.3414C191.066 73.1824 190.778 72.9988 190.532 72.7908C190.287 72.5828 190.091 72.3319 189.944 72.0383C189.797 71.7446 189.723 71.3836 189.723 70.9554C189.723 70.1111 190.036 69.4442 190.661 68.9548C191.286 68.4531 192.139 68.2023 193.218 68.2023C193.487 68.2023 193.757 68.2206 194.027 68.2573C194.297 68.2818 194.548 68.3185 194.781 68.3674C195.014 68.4042 195.216 68.447 195.388 68.4959C195.572 68.5449 195.713 68.5877 195.811 68.6244L195.498 70.0927C195.314 69.9948 195.026 69.897 194.634 69.7991C194.242 69.6889 193.769 69.6339 193.218 69.6339C192.739 69.6339 192.323 69.7318 191.967 69.9275C191.611 70.1111 191.434 70.4048 191.434 70.8085C191.434 71.0166 191.47 71.2001 191.544 71.3592C191.63 71.5182 191.752 71.6651 191.912 71.7997C192.083 71.922 192.292 72.0383 192.537 72.1484C192.782 72.2585 193.077 72.3748 193.42 72.4971C193.874 72.6684 194.278 72.8397 194.634 73.0111C194.989 73.1701 195.29 73.3598 195.535 73.58C195.793 73.8003 195.989 74.0695 196.124 74.3876C196.259 74.6935 196.326 75.0728 196.326 75.5256C196.326 76.4066 195.995 77.0734 195.333 77.5262C194.683 77.9789 193.751 78.2053 192.537 78.2053C191.691 78.2053 191.029 78.1319 190.551 77.985C190.073 77.8504 189.748 77.7464 189.576 77.673L189.889 76.2047C190.085 76.2781 190.397 76.3882 190.827 76.5351C191.256 76.6819 191.826 76.7553 192.537 76.7553Z" fill="#27235C"/>
<path d="M205.16 73.2313C205.16 72.1178 204.884 71.2613 204.332 70.6617C203.78 70.0621 203.045 69.7624 202.125 69.7624C201.61 69.7624 201.205 69.7807 200.911 69.8174C200.629 69.8541 200.402 69.897 200.231 69.9459V75.9661C200.439 76.1374 200.739 76.3026 201.132 76.4616C201.524 76.6207 201.953 76.7002 202.419 76.7002C202.91 76.7002 203.327 76.6146 203.67 76.4433C204.026 76.2597 204.314 76.015 204.534 75.7091C204.755 75.391 204.915 75.0239 205.013 74.6079C205.111 74.1796 205.16 73.7207 205.16 73.2313ZM206.944 73.2313C206.944 73.9532 206.846 74.6201 206.65 75.2319C206.466 75.8437 206.19 76.3699 205.822 76.8104C205.454 77.2509 205 77.5935 204.461 77.8382C203.934 78.0829 203.327 78.2053 202.64 78.2053C202.088 78.2053 201.598 78.1319 201.169 77.985C200.752 77.8382 200.439 77.6975 200.231 77.5629V81.3806H198.52V68.7345C198.925 68.6366 199.427 68.5326 200.028 68.4225C200.641 68.3001 201.346 68.239 202.143 68.239C202.879 68.239 203.541 68.3552 204.13 68.5877C204.718 68.8202 205.221 69.1506 205.638 69.5788C206.055 70.0071 206.374 70.5332 206.594 71.1573C206.827 71.7691 206.944 72.4604 206.944 73.2313Z" fill="#27235C"/>
<path d="M217.793 73.2129C217.793 73.9716 217.683 74.6568 217.462 75.2686C217.241 75.8804 216.929 76.4066 216.524 76.8471C216.132 77.2876 215.66 77.6302 215.108 77.8749C214.556 78.1074 213.955 78.2236 213.305 78.2236C212.655 78.2236 212.055 78.1074 211.503 77.8749C210.951 77.6302 210.473 77.2876 210.068 76.8471C209.676 76.4066 209.369 75.8804 209.149 75.2686C208.928 74.6568 208.818 73.9716 208.818 73.2129C208.818 72.4665 208.928 71.7874 209.149 71.1756C209.369 70.5516 209.676 70.0193 210.068 69.5788C210.473 69.1383 210.951 68.8018 211.503 68.5693C212.055 68.3246 212.655 68.2023 213.305 68.2023C213.955 68.2023 214.556 68.3246 215.108 68.5693C215.66 68.8018 216.132 69.1383 216.524 69.5788C216.929 70.0193 217.241 70.5516 217.462 71.1756C217.683 71.7874 217.793 72.4665 217.793 73.2129ZM216.009 73.2129C216.009 72.1362 215.764 71.2858 215.273 70.6617C214.795 70.0254 214.139 69.7073 213.305 69.7073C212.472 69.7073 211.809 70.0254 211.319 70.6617C210.841 71.2858 210.602 72.1362 210.602 73.2129C210.602 74.2897 210.841 75.1463 211.319 75.7825C211.809 76.4066 212.472 76.7186 213.305 76.7186C214.139 76.7186 214.795 76.4066 215.273 75.7825C215.764 75.1463 216.009 74.2897 216.009 73.2129Z" fill="#27235C"/>
<path d="M220.2 68.7162C220.592 68.6183 221.113 68.5143 221.763 68.4042C222.413 68.294 223.161 68.239 224.007 68.239C224.767 68.239 225.399 68.3491 225.901 68.5693C226.404 68.7774 226.803 69.0771 227.097 69.4687C227.404 69.848 227.618 70.3069 227.741 70.8453C227.863 71.3836 227.925 71.9771 227.925 72.6256V77.985H226.214V72.9927C226.214 72.4054 226.171 71.9037 226.085 71.4877C226.012 71.0716 225.883 70.7351 225.699 70.4782C225.515 70.2212 225.27 70.0377 224.963 69.9275C224.657 69.8052 224.277 69.744 223.823 69.744C223.639 69.744 223.449 69.7501 223.253 69.7624C223.057 69.7746 222.867 69.793 222.683 69.8174C222.511 69.8297 222.352 69.848 222.205 69.8725C222.07 69.897 221.972 69.9153 221.91 69.9275V77.985H220.2V68.7162Z" fill="#27235C"/>
<path d="M232.987 76.7553C233.686 76.7553 234.201 76.6635 234.532 76.48C234.875 76.2965 235.047 76.0028 235.047 75.599C235.047 75.183 234.881 74.8526 234.55 74.6079C234.219 74.3631 233.673 74.0878 232.913 73.7819C232.545 73.6351 232.19 73.4883 231.846 73.3414C231.515 73.1824 231.227 72.9988 230.982 72.7908C230.737 72.5828 230.54 72.3319 230.393 72.0383C230.246 71.7446 230.173 71.3836 230.173 70.9554C230.173 70.1111 230.485 69.4442 231.111 68.9548C231.736 68.4531 232.588 68.2023 233.667 68.2023C233.937 68.2023 234.207 68.2206 234.476 68.2573C234.746 68.2818 234.998 68.3185 235.231 68.3674C235.464 68.4042 235.666 68.447 235.838 68.4959C236.021 68.5449 236.162 68.5877 236.261 68.6244L235.948 70.0927C235.764 69.9948 235.476 69.897 235.083 69.7991C234.691 69.6889 234.219 69.6339 233.667 69.6339C233.189 69.6339 232.772 69.7318 232.416 69.9275C232.061 70.1111 231.883 70.4048 231.883 70.8085C231.883 71.0166 231.92 71.2001 231.993 71.3592C232.079 71.5182 232.202 71.6651 232.361 71.7997C232.533 71.922 232.741 72.0383 232.987 72.1484C233.232 72.2585 233.526 72.3748 233.869 72.4971C234.323 72.6684 234.728 72.8397 235.083 73.0111C235.439 73.1701 235.739 73.3598 235.985 73.58C236.242 73.8003 236.438 74.0695 236.573 74.3876C236.708 74.6935 236.776 75.0728 236.776 75.5256C236.776 76.4066 236.444 77.0734 235.782 77.5262C235.132 77.9789 234.201 78.2053 232.987 78.2053C232.141 78.2053 231.478 78.1319 231 77.985C230.522 77.8504 230.197 77.7464 230.025 77.673L230.338 76.2047C230.534 76.2781 230.847 76.3882 231.276 76.5351C231.705 76.6819 232.275 76.7553 232.987 76.7553Z" fill="#27235C"/>
<path d="M240.68 77.985H238.97V68.4409H240.68V77.985ZM239.816 66.7156C239.509 66.7156 239.245 66.6177 239.025 66.4219C238.816 66.2139 238.712 65.9386 238.712 65.596C238.712 65.2533 238.816 64.9842 239.025 64.7884C239.245 64.5804 239.509 64.4764 239.816 64.4764C240.122 64.4764 240.38 64.5804 240.588 64.7884C240.809 64.9842 240.919 65.2533 240.919 65.596C240.919 65.9386 240.809 66.2139 240.588 66.4219C240.38 66.6177 240.122 66.7156 239.816 66.7156Z" fill="#27235C"/>
<path d="M245.332 68.863C245.541 68.7284 245.853 68.5877 246.27 68.4409C246.699 68.294 247.19 68.2206 247.742 68.2206C248.428 68.2206 249.035 68.343 249.562 68.5877C250.102 68.8324 250.556 69.175 250.924 69.6155C251.291 70.056 251.567 70.5822 251.751 71.194C251.947 71.8058 252.045 72.4788 252.045 73.2129C252.045 73.9838 251.929 74.6813 251.696 75.3053C251.475 75.9171 251.156 76.4372 250.74 76.8654C250.323 77.2937 249.82 77.6241 249.231 77.8566C248.643 78.089 247.981 78.2053 247.245 78.2053C246.448 78.2053 245.743 78.1502 245.13 78.0401C244.517 77.93 244.014 77.8198 243.622 77.7097V64.0359L245.332 63.7422V68.863ZM245.332 76.4983C245.504 76.5473 245.743 76.5962 246.049 76.6452C246.368 76.6819 246.761 76.7002 247.227 76.7002C248.146 76.7002 248.882 76.4005 249.434 75.8009C249.985 75.1891 250.261 74.3264 250.261 73.2129C250.261 72.7235 250.212 72.2646 250.114 71.8364C250.016 71.4081 249.857 71.041 249.636 70.7351C249.415 70.417 249.127 70.1723 248.772 70.001C248.428 69.8174 248.011 69.7257 247.521 69.7257C247.055 69.7257 246.626 69.8052 246.233 69.9643C245.841 70.1233 245.541 70.2885 245.332 70.4598V76.4983Z" fill="#27235C"/>
<path d="M256.163 77.985H254.452V68.4409H256.163V77.985ZM255.299 66.7156C254.992 66.7156 254.728 66.6177 254.508 66.4219C254.299 66.2139 254.195 65.9386 254.195 65.596C254.195 65.2533 254.299 64.9842 254.508 64.7884C254.728 64.5804 254.992 64.4764 255.299 64.4764C255.605 64.4764 255.863 64.5804 256.071 64.7884C256.292 64.9842 256.402 65.2533 256.402 65.596C256.402 65.9386 256.292 66.2139 256.071 66.4219C255.863 66.6177 255.605 66.7156 255.299 66.7156Z" fill="#27235C"/>
<path d="M261.974 78.1686C260.919 78.1441 260.171 77.9177 259.73 77.4895C259.288 77.0612 259.068 76.3943 259.068 75.4889V64.0359L260.778 63.7422V75.2136C260.778 75.495 260.803 75.7275 260.852 75.911C260.901 76.0946 260.981 76.2414 261.091 76.3515C261.201 76.4616 261.348 76.5473 261.532 76.6085C261.716 76.6574 261.943 76.7002 262.213 76.737L261.974 78.1686Z" fill="#27235C"/>
<path d="M265.844 77.985H264.134V68.4409H265.844V77.985ZM264.98 66.7156C264.673 66.7156 264.41 66.6177 264.189 66.4219C263.98 66.2139 263.876 65.9386 263.876 65.596C263.876 65.2533 263.98 64.9842 264.189 64.7884C264.41 64.5804 264.673 64.4764 264.98 64.4764C265.286 64.4764 265.544 64.5804 265.752 64.7884C265.973 64.9842 266.083 65.2533 266.083 65.596C266.083 65.9386 265.973 66.2139 265.752 66.4219C265.544 66.6177 265.286 66.7156 264.98 66.7156Z" fill="#27235C"/>
<path d="M270.386 68.4409H274.009V69.8725H270.386V74.2775C270.386 74.7547 270.423 75.1524 270.496 75.4705C270.57 75.7764 270.68 76.0211 270.827 76.2047C270.975 76.376 271.158 76.4983 271.379 76.5718C271.6 76.6452 271.857 76.6819 272.152 76.6819C272.667 76.6819 273.077 76.6268 273.384 76.5167C273.703 76.3943 273.923 76.3087 274.046 76.2597L274.377 77.673C274.206 77.7587 273.905 77.8627 273.476 77.985C273.047 78.1196 272.556 78.1869 272.005 78.1869C271.355 78.1869 270.815 78.1074 270.386 77.9483C269.969 77.777 269.632 77.5262 269.374 77.1958C269.117 76.8654 268.933 76.4616 268.823 75.9844C268.725 75.495 268.675 74.9321 268.675 74.2958V65.7795L270.386 65.4858V68.4409Z" fill="#27235C"/>
<path d="M275.064 79.7654C275.199 79.8266 275.371 79.8816 275.579 79.9306C275.8 79.9918 276.014 80.0224 276.223 80.0224C276.897 80.0224 277.424 79.8694 277.805 79.5635C278.185 79.2698 278.528 78.7865 278.835 78.1135C278.062 76.6452 277.339 75.0912 276.664 73.4516C276.002 71.7997 275.45 70.1294 275.009 68.4409H276.848C276.983 68.9915 277.142 69.5849 277.326 70.2212C277.523 70.8575 277.737 71.5121 277.97 72.1851C278.203 72.8581 278.454 73.5311 278.724 74.2041C278.994 74.8771 279.276 75.5256 279.57 76.1496C280.036 74.8648 280.441 73.5923 280.784 72.3319C281.127 71.0716 281.452 69.7746 281.759 68.4409H283.525C283.083 70.2396 282.593 71.971 282.053 73.6351C281.514 75.287 280.931 76.8348 280.306 78.2787C280.061 78.8293 279.803 79.3004 279.533 79.692C279.276 80.0958 278.988 80.4261 278.669 80.6831C278.35 80.9401 277.988 81.1297 277.584 81.2521C277.191 81.3744 276.744 81.4356 276.241 81.4356C276.106 81.4356 275.965 81.4234 275.818 81.3989C275.671 81.3867 275.524 81.3622 275.377 81.3255C275.242 81.301 275.113 81.2704 274.99 81.2337C274.88 81.197 274.8 81.1664 274.751 81.142L275.064 79.7654Z" fill="#27235C"/>
<path d="M286.85 76.9939C286.85 77.3243 286.74 77.6118 286.519 77.8566C286.298 78.1013 285.998 78.2236 285.618 78.2236C285.238 78.2236 284.937 78.1013 284.717 77.8566C284.496 77.6118 284.386 77.3243 284.386 76.9939C284.386 76.6635 284.496 76.376 284.717 76.1313C284.937 75.8865 285.238 75.7642 285.618 75.7642C285.998 75.7642 286.298 75.8865 286.519 76.1313C286.74 76.376 286.85 76.6635 286.85 76.9939Z" fill="#27235C"/>
<path d="M272.005 51.2815C269.902 51.2815 268.014 50.8738 266.34 50.0584C264.709 49.2001 263.315 48.0414 262.156 46.5823C261.04 45.1232 260.182 43.4495 259.581 41.5612C259.023 39.63 258.744 37.5701 258.744 35.3814C258.787 33.1927 259.109 31.1542 259.71 29.2659C260.311 27.3347 261.169 25.661 262.285 24.2448C263.443 22.7857 264.838 21.6484 266.469 20.833C268.1 20.0176 269.945 19.6099 272.005 19.6099C273.979 19.6099 275.825 20.0176 277.541 20.833C279.301 21.6484 280.846 22.7857 282.176 24.2448C283.549 25.661 284.622 27.3347 285.395 29.2659C286.167 31.1542 286.553 33.1712 286.553 35.317C286.553 37.5486 286.167 39.6514 285.395 41.6256C284.622 43.5568 283.571 45.2519 282.24 46.711C280.91 48.1272 279.365 49.243 277.606 50.0584C275.846 50.8738 273.979 51.2815 272.005 51.2815ZM270.975 43.7499C272.477 43.7499 273.829 43.4065 275.031 42.7199C276.232 41.9903 277.176 41.0033 277.863 39.7587C278.593 38.5142 278.957 37.098 278.957 35.5101C278.957 33.8793 278.593 32.4417 277.863 31.1971C277.176 29.9096 276.232 28.9226 275.031 28.2359C273.829 27.5064 272.477 27.1416 270.975 27.1416C269.516 27.1416 268.186 27.5064 266.984 28.2359C265.782 28.9655 264.817 29.9526 264.087 31.1971C263.401 32.4417 263.057 33.8793 263.057 35.5101C263.057 37.098 263.401 38.5142 264.087 39.7587C264.817 41.0033 265.782 41.9903 266.984 42.7199C268.186 43.4065 269.516 43.7499 270.975 43.7499ZM259.066 51.3459C257.907 51.3459 257.049 51.1528 256.491 50.7665C255.933 50.4232 255.59 49.9726 255.461 49.4147C255.332 48.8139 255.268 48.1487 255.268 47.4191V9.05276C255.268 8.32319 255.332 7.67946 255.461 7.12156C255.59 6.52074 255.933 6.04868 256.491 5.70535C257.049 5.36203 257.907 5.19037 259.066 5.19037C260.268 5.19037 261.126 5.36203 261.641 5.70535C262.156 6.04868 262.478 6.52074 262.607 7.12156C262.735 7.72238 262.8 8.36611 262.8 9.05276V48.7066C262.628 49.6507 262.263 50.3159 261.705 50.7022C261.19 51.1313 260.311 51.3459 259.066 51.3459Z" fill="#27235C" stroke="#27235C" stroke-width="0.2"/>
<path d="M236.082 51.733C233.292 51.733 230.846 51.2824 228.743 50.3812C226.683 49.48 224.945 48.2569 223.529 46.7119C222.155 45.124 221.104 43.3645 220.374 41.4333C219.688 39.4592 219.344 37.4207 219.344 35.3179C219.344 32.228 220.053 29.4814 221.469 27.0781C222.885 24.6748 224.838 22.7866 227.327 21.4133C229.859 20.04 232.756 19.3533 236.017 19.3533C238.335 19.3533 240.373 19.7181 242.133 20.4477C243.892 21.1772 245.351 22.1428 246.51 23.3445C247.712 24.5032 248.613 25.7906 249.214 27.2069C249.857 28.6231 250.179 29.9964 250.179 31.3267C250.179 33.6012 249.621 35.2535 248.506 36.2835C247.433 37.3134 246.081 37.8284 244.45 37.8284H227.456C227.498 39.2875 227.949 40.5535 228.807 41.6264C229.709 42.6993 230.824 43.5362 232.155 44.137C233.528 44.6949 234.923 44.9738 236.339 44.9738C237.412 44.9738 238.356 44.9095 239.171 44.7807C240.03 44.652 240.759 44.5018 241.36 44.3301C241.961 44.1155 242.476 43.9009 242.905 43.6864C243.377 43.4718 243.806 43.2787 244.193 43.107C244.579 42.9353 244.944 42.8281 245.287 42.7851C245.759 42.7422 246.231 42.8495 246.703 43.107C247.175 43.3645 247.561 43.8151 247.862 44.4589C248.119 44.888 248.291 45.2957 248.377 45.6819C248.506 46.0253 248.57 46.3686 248.57 46.7119C248.57 47.5702 248.055 48.3856 247.025 49.1581C245.995 49.8876 244.536 50.4885 242.648 50.9605C240.802 51.4755 238.614 51.733 236.082 51.733ZM227.456 33.2579H240.652C241.382 33.2579 241.939 33.1506 242.326 32.9361C242.712 32.6786 242.905 32.1636 242.905 31.3911C242.905 30.404 242.605 29.5243 242.004 28.7518C241.403 27.9364 240.588 27.3141 239.558 26.885C238.528 26.4129 237.326 26.1769 235.953 26.1769C234.365 26.1769 232.927 26.4987 231.64 27.1425C230.352 27.7433 229.322 28.5801 228.55 29.653C227.82 30.7259 227.456 31.9275 227.456 33.2579Z" fill="#27235C" stroke="#27235C" stroke-width="0.2"/>
<path d="M178.489 51.1552C177.631 51.1552 176.944 51.005 176.429 50.7046C175.914 50.3613 175.528 49.9751 175.27 49.5459C175.056 49.1167 174.906 48.752 174.82 48.4516L162.203 11.5014C161.773 10.1281 161.709 9.09812 162.01 8.41148C162.31 7.68192 163.19 7.0811 164.649 6.60903C165.636 6.26571 166.43 6.1155 167.031 6.15842C167.631 6.20133 168.125 6.45883 168.511 6.9309C168.94 7.36005 169.305 8.0467 169.606 8.99084L178.875 37.0575L187.179 9.24833C187.308 8.81917 187.48 8.39002 187.694 7.96087C187.952 7.4888 188.338 7.10256 188.853 6.80215C189.368 6.50174 190.076 6.35154 190.977 6.35154C192.007 6.35154 192.78 6.5232 193.295 6.86652C193.81 7.20985 194.175 7.59609 194.389 8.02524C194.647 8.41148 194.818 8.77626 194.904 9.11958L203.208 37.2506L212.542 9.05521C212.843 8.06816 213.186 7.33859 213.572 6.86652C214.002 6.39445 214.538 6.13696 215.182 6.09405C215.826 6.00822 216.619 6.13696 217.564 6.48029C218.551 6.82361 219.259 7.20985 219.688 7.639C220.117 8.02524 220.332 8.54023 220.332 9.18396C220.332 9.78477 220.181 10.5572 219.881 11.5014L207.328 48.5159C207.242 48.7734 207.071 49.1167 206.813 49.5459C206.599 49.9751 206.234 50.3613 205.719 50.7046C205.204 51.005 204.496 51.1552 203.595 51.1552C202.693 51.1552 201.985 50.9621 201.47 50.5759C200.955 50.1896 200.569 49.7605 200.312 49.2884C200.054 48.8163 199.882 48.473 199.797 48.2584L191.042 19.9343L182.287 48.1941C182.201 48.4945 182.03 48.8807 181.772 49.3528C181.558 49.8249 181.193 50.254 180.678 50.6402C180.163 50.9836 179.433 51.1552 178.489 51.1552Z" fill="#27235C" stroke="#27235C" stroke-width="0.2"/>
<path d="M145.017 51.7335C143.901 51.7335 142.721 51.6048 141.476 51.3473C140.232 51.1327 139.03 50.8109 137.871 50.3817C136.712 49.9096 135.704 49.3732 134.846 48.7724C134.03 48.1286 133.515 47.4205 133.301 46.6481C133.129 46.2189 133.065 45.8112 133.108 45.425C133.151 44.9958 133.279 44.5667 133.494 44.1375C133.708 43.6654 134.03 43.1934 134.459 42.7213C134.846 42.2492 135.232 41.9917 135.618 41.9488C136.047 41.863 136.584 41.9917 137.227 42.3351C137.785 42.5496 138.386 42.8286 139.03 43.1719C139.717 43.5152 140.403 43.8586 141.09 44.2019C141.819 44.5452 142.549 44.8242 143.279 45.0387C144.051 45.2533 144.802 45.3606 145.532 45.3606C147.12 45.3606 148.386 45.1031 149.33 44.5881C150.274 44.0302 150.746 43.2577 150.746 42.2707C150.746 41.7128 150.596 41.2193 150.295 40.7901C149.995 40.361 149.587 40.0176 149.072 39.7601C148.6 39.4597 148.021 39.2022 147.334 38.9877C146.69 38.7302 145.982 38.5156 145.21 38.3439C144.48 38.1294 143.708 37.8933 142.892 37.6358C141.819 37.3354 140.747 36.9706 139.674 36.5415C138.601 36.1123 137.635 35.5544 136.777 34.8678C135.961 34.1811 135.296 33.3228 134.781 32.2929C134.266 31.2629 134.009 29.9754 134.009 28.4305C134.009 26.4993 134.459 24.8685 135.361 23.5381C136.305 22.1648 137.657 21.1134 139.416 20.3838C141.176 19.6543 143.3 19.2895 145.789 19.2895C146.647 19.2895 147.463 19.3539 148.235 19.4826C149.051 19.6114 149.823 19.8045 150.553 20.062C151.325 20.2765 152.055 20.5555 152.741 20.8988C153.471 21.2421 154.158 21.6284 154.801 22.0575C155.874 22.6584 156.432 23.3665 156.475 24.1818C156.518 24.9543 156.218 25.7912 155.574 26.6924C155.102 27.2932 154.63 27.7224 154.158 27.9799C153.686 28.1944 153.192 28.1944 152.677 27.9799C151.99 27.6365 151.239 27.2718 150.424 26.8855C149.652 26.4564 148.836 26.0916 147.978 25.7912C147.162 25.4908 146.304 25.3406 145.403 25.3406C144.545 25.3406 143.772 25.4693 143.085 25.7268C142.399 25.9843 141.884 26.3491 141.54 26.8211C141.197 27.2932 141.026 27.8511 141.026 28.4948C141.026 29.0957 141.197 29.5892 141.54 29.9754C141.884 30.3617 142.334 30.6835 142.892 30.941C143.45 31.1985 144.115 31.4346 144.888 31.6491C145.66 31.8208 146.476 31.9925 147.334 32.1641C148.536 32.4216 149.759 32.7435 151.003 33.1297C152.248 33.5159 153.385 34.0524 154.415 34.739C155.488 35.4257 156.346 36.3484 156.99 37.5071C157.634 38.6229 157.956 40.082 157.956 41.8845C157.956 45.0173 156.797 47.442 154.48 49.1586C152.205 50.8752 149.051 51.7335 145.017 51.7335Z" fill="#27235C" stroke="#27235C" stroke-width="0.2"/>
<path d="M114.628 51.7326C111.838 51.7326 109.392 51.282 107.289 50.3807C105.229 49.4795 103.491 48.2564 102.075 46.7115C100.702 45.1236 99.6504 43.3641 98.9208 41.4329C98.2342 39.4588 97.8909 37.4203 97.8909 35.3174C97.8909 32.2275 98.599 29.4809 100.015 27.0777C101.431 24.6744 103.384 22.7861 105.873 21.4128C108.405 20.0396 111.302 19.3529 114.564 19.3529C116.881 19.3529 118.919 19.7177 120.679 20.4472C122.439 21.1768 123.898 22.1424 125.056 23.344C126.258 24.5028 127.159 25.7902 127.76 27.2064C128.404 28.6226 128.726 29.9959 128.726 31.3263C128.726 33.6008 128.168 35.2531 127.052 36.283C125.979 37.313 124.627 37.828 122.996 37.828H106.002C106.045 39.2871 106.495 40.5531 107.354 41.626C108.255 42.6989 109.371 43.5357 110.701 44.1366C112.074 44.6945 113.469 44.9734 114.885 44.9734C115.958 44.9734 116.902 44.909 117.718 44.7803C118.576 44.6515 119.306 44.5013 119.907 44.3297C120.507 44.1151 121.022 43.9005 121.451 43.6859C121.924 43.4714 122.353 43.2782 122.739 43.1066C123.125 42.9349 123.49 42.8276 123.833 42.7847C124.305 42.7418 124.777 42.8491 125.249 43.1066C125.722 43.3641 126.108 43.8147 126.408 44.4584C126.666 44.8876 126.837 45.2953 126.923 45.6815C127.052 46.0248 127.116 46.3682 127.116 46.7115C127.116 47.5698 126.601 48.3852 125.571 49.1577C124.541 49.8872 123.082 50.488 121.194 50.9601C119.349 51.4751 117.16 51.7326 114.628 51.7326ZM106.002 33.2575H119.198C119.928 33.2575 120.486 33.1502 120.872 32.9356C121.258 32.6781 121.451 32.1632 121.451 31.3907C121.451 30.4036 121.151 29.5239 120.55 28.7514C119.949 27.936 119.134 27.3137 118.104 26.8846C117.074 26.4125 115.872 26.1765 114.499 26.1765C112.911 26.1765 111.474 26.4983 110.186 27.1421C108.899 27.7429 107.869 28.5797 107.096 29.6526C106.367 30.7255 106.002 31.9271 106.002 33.2575Z" fill="#27235C" stroke="#27235C" stroke-width="0.2"/>
<path d="M91.647 51.3486C90.0591 51.3486 88.6429 51.2414 87.3983 51.0268C86.1967 50.8122 85.1453 50.4474 84.2441 49.9324C83.3858 49.4175 82.6776 48.7308 82.1197 47.8725C81.5618 46.9713 81.1327 45.8769 80.8323 44.5895C80.5748 43.302 80.446 41.7571 80.446 39.9546V8.92676C80.446 8.1972 80.5104 7.55347 80.6392 6.99557C80.8108 6.39475 81.1541 5.92268 81.6691 5.57936C82.227 5.19312 83.1068 5 84.3084 5C85.5101 5 86.3684 5.17166 86.8834 5.51498C87.4413 5.85831 87.7846 6.33038 87.9133 6.93119C88.085 7.48909 88.1708 8.13282 88.1708 8.86239V39.6327C88.1708 40.4481 88.2137 41.1348 88.2996 41.6927C88.4283 42.2077 88.6214 42.6368 88.8789 42.9801C89.1793 43.2806 89.5441 43.4951 89.9733 43.6239C90.4453 43.7526 91.0032 43.817 91.647 43.817C92.2049 43.817 92.6984 43.8814 93.1276 44.0101C93.5996 44.1389 93.9644 44.4607 94.2219 44.9757C94.5223 45.4907 94.6725 46.3275 94.6725 47.4863C94.6725 48.6879 94.5223 49.5677 94.2219 50.1256C93.9644 50.6835 93.5996 51.0268 93.1276 51.1555C92.6555 51.2843 92.162 51.3486 91.647 51.3486Z" fill="#27235C" stroke="#27235C" stroke-width="0.2"/>
<path d="M69.6688 51.3478C68.5101 51.3478 67.6518 51.1547 67.0939 50.7684C66.536 50.4251 66.1926 49.9745 66.0639 49.4166C65.9351 48.8158 65.8708 48.1506 65.8708 47.421V23.4742C65.8708 22.7876 65.9351 22.1653 66.0639 21.6074C66.2356 21.0066 66.5789 20.5345 67.0939 20.1912C67.6518 19.8479 68.5315 19.6762 69.7332 19.6762C70.9348 19.6762 71.7931 19.8479 72.3081 20.1912C72.866 20.5345 73.2093 21.0066 73.3381 21.6074C73.4668 22.2082 73.5312 22.8734 73.5312 23.603V47.4854C73.5312 48.215 73.4668 48.8801 73.3381 49.481C73.2093 50.0389 72.866 50.4895 72.3081 50.8328C71.7931 51.1761 70.9133 51.3478 69.6688 51.3478ZM69.6688 13.432C68.4242 13.432 67.5016 13.2603 66.9007 12.917C66.3428 12.5308 65.9781 12.0158 65.8064 11.3721C65.6777 10.7283 65.6133 10.0202 65.6133 9.24774C65.6133 8.43235 65.6777 7.72425 65.8064 7.12343C65.9781 6.52262 66.3643 6.05055 66.9651 5.70722C67.5659 5.32099 68.4886 5.12787 69.7332 5.12787C71.0206 5.12787 71.9433 5.32099 72.5012 5.70722C73.0591 6.09346 73.4239 6.60845 73.5956 7.25218C73.7672 7.853 73.8531 8.5611 73.8531 9.37649C73.8531 10.1061 73.7672 10.7927 73.5956 11.4364C73.4239 12.0802 73.0591 12.5737 72.5012 12.917C71.9433 13.2603 70.9992 13.432 69.6688 13.432Z" fill="#27235C" stroke="#27235C" stroke-width="0.2"/>
<path d="M16.798 51.2828C15.6822 51.2828 14.8454 51.1111 14.2875 50.7678C13.7296 50.4245 13.3648 49.9524 13.1931 49.3516C13.0644 48.7508 13 48.0856 13 47.356V10.2127C13 9.52608 13.0644 8.90381 13.1931 8.34591C13.3648 7.74509 13.7296 7.27302 14.2875 6.9297C14.8454 6.54346 15.7251 6.35034 16.9268 6.35034C17.828 6.35034 18.4932 6.41471 18.9223 6.54346C19.3944 6.62929 19.7592 6.77949 20.0167 6.99407C20.2742 7.16573 20.5317 7.40177 20.7892 7.70217L36.4962 29.6534H35.0156L50.7871 7.6378C51.0875 7.29448 51.3879 7.03699 51.6883 6.86532C51.9887 6.69366 52.3749 6.56492 52.847 6.47909C53.3191 6.39326 53.9414 6.35034 54.7138 6.35034C55.8726 6.35034 56.7309 6.54346 57.2888 6.9297C57.8467 7.27302 58.19 7.74509 58.3187 8.34591C58.4904 8.94672 58.5762 9.61191 58.5762 10.3415V47.4848C58.5762 48.1285 58.4904 48.7508 58.3187 49.3516C58.19 49.9524 57.8467 50.4245 57.2888 50.7678C56.7309 51.1111 55.8511 51.2828 54.6495 51.2828C53.4907 51.2828 52.6324 51.0897 52.0745 50.7034C51.5166 50.3601 51.1519 49.888 50.9802 49.2872C50.8514 48.6864 50.7871 48.0427 50.7871 47.356V19.7399L39.0711 36.6701C38.9424 36.8417 38.7493 37.0778 38.4918 37.3782C38.2343 37.6357 37.891 37.8717 37.4618 38.0863C37.0327 38.3009 36.4533 38.4081 35.7237 38.4081C35.0371 38.4081 34.4792 38.3009 34.05 38.0863C33.6209 37.8717 33.2776 37.6357 33.0201 37.3782C32.8055 37.1207 32.5909 36.8632 32.3763 36.6057L20.7248 19.7399V47.4848C20.7248 48.1285 20.639 48.7508 20.4673 49.3516C20.3385 49.9524 19.9952 50.4245 19.4373 50.7678C18.8794 51.1111 17.9997 51.2828 16.798 51.2828Z" fill="#27235C" stroke="#27235C" stroke-width="0.2"/>
</svg>
