<svg width="137" height="42" viewBox="0 0 137 42" fill="none" xmlns="http://www.w3.org/2000/svg">
<path d="M62.9048 37.9168C62.9048 37.4577 63.277 37.0855 63.7362 37.0855H121.1C121.559 37.0855 121.931 37.4577 121.931 37.9168V37.9168C121.931 38.376 121.559 38.7482 121.1 38.7482H63.7362C63.277 38.7482 62.9048 38.376 62.9048 37.9168V37.9168Z" fill="#FFBB00"/>
<path d="M16.1594 31.7863V29.7738C15.8257 29.2574 15.5113 28.7482 15.2163 28.2463C14.9213 27.7444 14.6432 27.2521 14.3821 26.7695H15.2091C15.3928 27.1653 15.5984 27.5683 15.8257 27.9785C16.053 28.3839 16.2875 28.7748 16.5294 29.1512C16.7663 28.7748 16.9985 28.3839 17.2258 27.9785C17.4531 27.5683 17.661 27.1653 17.8496 26.7695H18.6331C18.3719 27.2521 18.0939 27.7444 17.7989 28.2463C17.5038 28.7434 17.1919 29.2477 16.8631 29.7593V31.7863H16.1594Z" fill="#27235C"/>
<path d="M22.23 29.9041C22.23 30.2033 22.1865 30.4736 22.0994 30.7149C22.0124 30.9562 21.889 31.1637 21.7294 31.3374C21.5747 31.5112 21.3885 31.6463 21.1709 31.7428C20.9532 31.8345 20.7163 31.8804 20.4599 31.8804C20.2036 31.8804 19.9666 31.8345 19.749 31.7428C19.5314 31.6463 19.3428 31.5112 19.1832 31.3374C19.0284 31.1637 18.9075 30.9562 18.8205 30.7149C18.7334 30.4736 18.6899 30.2033 18.6899 29.9041C18.6899 29.6097 18.7334 29.3418 18.8205 29.1005C18.9075 28.8544 19.0284 28.6445 19.1832 28.4707C19.3428 28.297 19.5314 28.1643 19.749 28.0726C19.9666 27.9761 20.2036 27.9278 20.4599 27.9278C20.7163 27.9278 20.9532 27.9761 21.1709 28.0726C21.3885 28.1643 21.5747 28.297 21.7294 28.4707C21.889 28.6445 22.0124 28.8544 22.0994 29.1005C22.1865 29.3418 22.23 29.6097 22.23 29.9041ZM21.5263 29.9041C21.5263 29.4794 21.4296 29.144 21.2361 28.8978C21.0475 28.6469 20.7888 28.5214 20.4599 28.5214C20.1311 28.5214 19.8699 28.6469 19.6765 28.8978C19.4879 29.144 19.3936 29.4794 19.3936 29.9041C19.3936 30.3288 19.4879 30.6666 19.6765 30.9176C19.8699 31.1637 20.1311 31.2868 20.4599 31.2868C20.7888 31.2868 21.0475 31.1637 21.2361 30.9176C21.4296 30.6666 21.5263 30.3288 21.5263 29.9041Z" fill="#27235C"/>
<path d="M26.1825 31.6777C26.0277 31.7163 25.8222 31.7573 25.5658 31.8007C25.3144 31.8442 25.0218 31.8659 24.6881 31.8659C24.3979 31.8659 24.1537 31.8249 23.9554 31.7428C23.7571 31.656 23.5975 31.5353 23.4766 31.3809C23.3557 31.2264 23.2686 31.0455 23.2154 30.8379C23.1622 30.6256 23.1356 30.3915 23.1356 30.1357V28.0219H23.8103V29.991C23.8103 30.4494 23.8828 30.7776 24.0279 30.9755C24.173 31.1733 24.4172 31.2723 24.7606 31.2723C24.8332 31.2723 24.9081 31.2699 24.9855 31.265C25.0629 31.2602 25.1354 31.2554 25.2031 31.2506C25.2708 31.2409 25.3313 31.2337 25.3845 31.2288C25.4425 31.2192 25.4836 31.2095 25.5078 31.1999V28.0219H26.1825V31.6777Z" fill="#27235C"/>
<path d="M28.7376 27.9423C28.7956 27.9423 28.8609 27.9471 28.9334 27.9568C29.0108 27.9616 29.0858 27.9712 29.1583 27.9857C29.2308 27.9954 29.2961 28.0074 29.3542 28.0219C29.417 28.0316 29.463 28.0412 29.492 28.0509L29.3759 28.6372C29.3227 28.6179 29.2333 28.5962 29.1075 28.5721C28.9866 28.5431 28.8294 28.5286 28.636 28.5286C28.5103 28.5286 28.3845 28.5431 28.2588 28.5721C28.1379 28.5962 28.0581 28.6131 28.0194 28.6228V31.7863H27.3447V28.1812C27.5043 28.1233 27.7026 28.0702 27.9396 28.0219C28.1766 27.9688 28.4425 27.9423 28.7376 27.9423Z" fill="#27235C"/>
<path d="M35.0284 26.7695H35.7321V31.7863H35.0284V29.4697H32.5692V31.7863H31.8655V26.7695H32.5692V28.8616H35.0284V26.7695Z" fill="#27235C"/>
<path d="M40.2666 29.9041C40.2666 30.2033 40.223 30.4736 40.136 30.7149C40.0489 30.9562 39.9256 31.1637 39.766 31.3374C39.6113 31.5112 39.4251 31.6463 39.2074 31.7428C38.9898 31.8345 38.7528 31.8804 38.4965 31.8804C38.2402 31.8804 38.0032 31.8345 37.7856 31.7428C37.568 31.6463 37.3794 31.5112 37.2198 31.3374C37.065 31.1637 36.9441 30.9562 36.857 30.7149C36.77 30.4736 36.7265 30.2033 36.7265 29.9041C36.7265 29.6097 36.77 29.3418 36.857 29.1005C36.9441 28.8544 37.065 28.6445 37.2198 28.4707C37.3794 28.297 37.568 28.1643 37.7856 28.0726C38.0032 27.9761 38.2402 27.9278 38.4965 27.9278C38.7528 27.9278 38.9898 27.9761 39.2074 28.0726C39.4251 28.1643 39.6113 28.297 39.766 28.4707C39.9256 28.6445 40.0489 28.8544 40.136 29.1005C40.223 29.3418 40.2666 29.6097 40.2666 29.9041ZM39.5629 29.9041C39.5629 29.4794 39.4662 29.144 39.2727 28.8978C39.0841 28.6469 38.8254 28.5214 38.4965 28.5214C38.1677 28.5214 37.9065 28.6469 37.7131 28.8978C37.5244 29.144 37.4301 29.4794 37.4301 29.9041C37.4301 30.3288 37.5244 30.6666 37.7131 30.9176C37.9065 31.1637 38.1677 31.2868 38.4965 31.2868C38.8254 31.2868 39.0841 31.1637 39.2727 30.9176C39.4662 30.6666 39.5629 30.3288 39.5629 29.9041Z" fill="#27235C"/>
<path d="M42.0935 31.3012C42.3692 31.3012 42.5723 31.265 42.7029 31.1926C42.8383 31.1203 42.906 31.0044 42.906 30.8452C42.906 30.6811 42.8407 30.5508 42.7101 30.4543C42.5796 30.3577 42.3643 30.2491 42.0645 30.1285C41.9194 30.0706 41.7792 30.0127 41.6438 29.9548C41.5132 29.892 41.3995 29.8196 41.3028 29.7376C41.2061 29.6555 41.1287 29.5566 41.0707 29.4408C41.0126 29.325 40.9836 29.1826 40.9836 29.0137C40.9836 28.6807 41.1069 28.4176 41.3536 28.2246C41.6002 28.0267 41.9363 27.9278 42.3619 27.9278C42.4683 27.9278 42.5747 27.935 42.6811 27.9495C42.7875 27.9592 42.8867 27.9736 42.9785 27.993C43.0704 28.0074 43.1502 28.0243 43.2179 28.0436C43.2905 28.0629 43.3461 28.0798 43.3848 28.0943L43.2615 28.6734C43.1889 28.6348 43.0753 28.5962 42.9205 28.5576C42.7658 28.5142 42.5796 28.4925 42.3619 28.4925C42.1733 28.4925 42.0089 28.5311 41.8686 28.6083C41.7284 28.6807 41.6583 28.7965 41.6583 28.9558C41.6583 29.0378 41.6728 29.1102 41.7018 29.1729C41.7356 29.2357 41.784 29.2936 41.8469 29.3467C41.9146 29.3949 41.9968 29.4408 42.0935 29.4842C42.1902 29.5276 42.3063 29.5735 42.4417 29.6218C42.6207 29.6893 42.7803 29.7569 42.9205 29.8245C43.0608 29.8872 43.1792 29.962 43.276 30.0489C43.3775 30.1357 43.4549 30.2419 43.5081 30.3674C43.5613 30.488 43.5879 30.6376 43.5879 30.8162C43.5879 31.1637 43.4573 31.4267 43.1962 31.6053C42.9399 31.7838 42.5723 31.8731 42.0935 31.8731C41.7598 31.8731 41.4987 31.8442 41.3101 31.7863C41.1214 31.7332 40.9933 31.6921 40.9256 31.6632L41.0489 31.0841C41.1263 31.113 41.2496 31.1565 41.4189 31.2144C41.5881 31.2723 41.813 31.3012 42.0935 31.3012Z" fill="#27235C"/>
<path d="M45.0844 28.0219H46.5135V28.5866H45.0844V30.324C45.0844 30.5122 45.0989 30.669 45.1279 30.7945C45.1569 30.9151 45.2005 31.0117 45.2585 31.0841C45.3165 31.1516 45.3891 31.1999 45.4761 31.2288C45.5632 31.2578 45.6647 31.2723 45.7808 31.2723C45.9839 31.2723 46.1459 31.2506 46.2668 31.2071C46.3926 31.1589 46.4796 31.1251 46.528 31.1058L46.6586 31.6632C46.5909 31.697 46.4724 31.738 46.3031 31.7863C46.1338 31.8393 45.9404 31.8659 45.7228 31.8659C45.4665 31.8659 45.2537 31.8345 45.0844 31.7718C44.92 31.7042 44.787 31.6053 44.6854 31.475C44.5838 31.3447 44.5113 31.1854 44.4678 30.9972C44.4291 30.8041 44.4097 30.5821 44.4097 30.3312V26.9722L45.0844 26.8564V28.0219Z" fill="#27235C"/>
<path d="M48.0466 31.7863H47.372V28.0219H48.0466V31.7863ZM47.7057 27.3414C47.5848 27.3414 47.4808 27.3028 47.3938 27.2256C47.3115 27.1436 47.2704 27.035 47.2704 26.8998C47.2704 26.7647 47.3115 26.6585 47.3938 26.5813C47.4808 26.4993 47.5848 26.4583 47.7057 26.4583C47.8266 26.4583 47.9282 26.4993 48.0104 26.5813C48.0974 26.6585 48.1409 26.7647 48.1409 26.8998C48.1409 27.035 48.0974 27.1436 48.0104 27.2256C47.9282 27.3028 47.8266 27.3414 47.7057 27.3414Z" fill="#27235C"/>
<path d="M49.2068 28.1305C49.3616 28.0919 49.5671 28.0509 49.8234 28.0074C50.0798 27.964 50.3748 27.9423 50.7085 27.9423C51.0083 27.9423 51.2574 27.9857 51.4557 28.0726C51.6539 28.1546 51.8111 28.2729 51.9272 28.4273C52.0481 28.5769 52.1327 28.7579 52.1811 28.9702C52.2294 29.1826 52.2536 29.4166 52.2536 29.6724V31.7863H51.579V29.8172C51.579 29.5856 51.562 29.3877 51.5282 29.2236C51.4992 29.0595 51.4484 28.9268 51.3759 28.8255C51.3033 28.7241 51.2066 28.6517 51.0857 28.6083C50.9648 28.56 50.8149 28.5359 50.6359 28.5359C50.5634 28.5359 50.4884 28.5383 50.411 28.5431C50.3337 28.548 50.2587 28.5552 50.1862 28.5648C50.1184 28.5697 50.0556 28.5769 49.9975 28.5866C49.9443 28.5962 49.9056 28.6035 49.8815 28.6083V31.7863H49.2068V28.1305Z" fill="#27235C"/>
<path d="M55.7373 31.4098C55.6792 31.4484 55.5656 31.4991 55.3963 31.5618C55.2319 31.6198 55.0384 31.6487 54.816 31.6487C54.5887 31.6487 54.3735 31.6125 54.1703 31.5401C53.9721 31.4677 53.798 31.3567 53.648 31.2071C53.4981 31.0527 53.3796 30.8621 53.2926 30.6352C53.2055 30.4084 53.162 30.1381 53.162 29.8245C53.162 29.5494 53.2031 29.2984 53.2853 29.0716C53.3675 28.8399 53.486 28.6421 53.6408 28.478C53.8004 28.3091 53.9938 28.1788 54.2211 28.0871C54.4484 27.9905 54.7048 27.9423 54.9901 27.9423C55.3044 27.9423 55.5777 27.9664 55.8098 28.0147C56.0468 28.0581 56.2451 28.0991 56.4047 28.1377V31.4967C56.4047 32.0758 56.2548 32.4957 55.9549 32.7563C55.6551 33.0169 55.2005 33.1472 54.5911 33.1472C54.3541 33.1472 54.1292 33.1279 53.9164 33.0893C53.7085 33.0507 53.5271 33.0048 53.3724 32.9518L53.4957 32.3654C53.6311 32.4185 53.7955 32.4643 53.989 32.5029C54.1873 32.5464 54.3928 32.5681 54.6056 32.5681C55.007 32.5681 55.2948 32.4885 55.4689 32.3292C55.6478 32.1699 55.7373 31.9166 55.7373 31.5691V31.4098ZM55.73 28.6155C55.6623 28.5962 55.5704 28.5793 55.4544 28.5648C55.3431 28.5455 55.1908 28.5359 54.9973 28.5359C54.6346 28.5359 54.3541 28.6541 54.1558 28.8906C53.9624 29.1271 53.8657 29.4408 53.8657 29.8317C53.8657 30.0489 53.8923 30.2347 53.9455 30.3891C54.0035 30.5435 54.0785 30.6714 54.1703 30.7728C54.2671 30.8741 54.3759 30.9489 54.4968 30.9972C54.6225 31.0455 54.7507 31.0696 54.8813 31.0696C55.0602 31.0696 55.2246 31.0455 55.3746 30.9972C55.5245 30.9441 55.643 30.8838 55.73 30.8162V28.6155Z" fill="#27235C"/>
<path d="M58.2772 30.961C58.282 30.9996 58.2844 31.0382 58.2844 31.0768C58.2844 31.1106 58.2844 31.1468 58.2844 31.1854C58.2844 31.4895 58.2385 31.7887 58.1466 32.0831C58.0596 32.3823 57.9387 32.667 57.7839 32.9373L57.2616 32.7708C57.3825 32.5246 57.4623 32.2737 57.501 32.0179C57.5397 31.767 57.559 31.5305 57.559 31.3085C57.559 31.2457 57.5566 31.1854 57.5518 31.1275C57.5518 31.0696 57.5493 31.0141 57.5445 30.961H58.2772Z" fill="#27235C"/>
<path d="M60.8709 29.2743C60.8709 28.8448 60.9338 28.4659 61.0595 28.1377C61.1901 27.8096 61.3642 27.5369 61.5818 27.3197C61.8043 27.0977 62.0606 26.9312 62.3508 26.8202C62.6458 26.7092 62.9577 26.6537 63.2866 26.6537C63.6106 26.6537 63.9153 26.7092 64.2006 26.8202C64.4908 26.9312 64.7447 27.0977 64.9623 27.3197C65.1799 27.5369 65.3516 27.8096 65.4774 28.1377C65.608 28.4659 65.6732 28.8448 65.6732 29.2743C65.6732 29.7038 65.608 30.0826 65.4774 30.4108C65.3516 30.739 65.1799 31.0141 64.9623 31.2361C64.7447 31.4533 64.4908 31.6173 64.2006 31.7283C63.9153 31.8393 63.6106 31.8948 63.2866 31.8948C62.9577 31.8948 62.6458 31.8393 62.3508 31.7283C62.0606 31.6173 61.8043 31.4533 61.5818 31.2361C61.3642 31.0141 61.1901 30.739 61.0595 30.4108C60.9338 30.0826 60.8709 29.7038 60.8709 29.2743ZM61.6108 29.2743C61.6108 29.5783 61.6495 29.8558 61.7269 30.1068C61.8043 30.3529 61.9131 30.5628 62.0533 30.7366C62.1984 30.9103 62.3725 31.0455 62.5756 31.142C62.7836 31.2337 63.0157 31.2795 63.2721 31.2795C63.5284 31.2795 63.7581 31.2337 63.9612 31.142C64.1643 31.0455 64.336 30.9103 64.4763 30.7366C64.6214 30.5628 64.7326 30.3529 64.81 30.1068C64.8874 29.8558 64.926 29.5783 64.926 29.2743C64.926 28.9702 64.8874 28.6951 64.81 28.449C64.7326 28.1981 64.6214 27.9857 64.4763 27.812C64.336 27.6382 64.1643 27.5055 63.9612 27.4138C63.7581 27.3173 63.5284 27.269 63.2721 27.269C63.0157 27.269 62.7836 27.3173 62.5756 27.4138C62.3725 27.5055 62.1984 27.6382 62.0533 27.812C61.9131 27.9857 61.8043 28.1981 61.7269 28.449C61.6495 28.6951 61.6108 28.9702 61.6108 29.2743Z" fill="#27235C"/>
<path d="M69.6799 31.6777C69.5252 31.7163 69.3196 31.7573 69.0633 31.8007C68.8118 31.8442 68.5193 31.8659 68.1856 31.8659C67.8954 31.8659 67.6512 31.8249 67.4529 31.7428C67.2546 31.656 67.095 31.5353 66.9741 31.3809C66.8532 31.2264 66.7661 31.0455 66.7129 30.8379C66.6597 30.6256 66.6331 30.3915 66.6331 30.1357V28.0219H67.3078V29.991C67.3078 30.4494 67.3803 30.7776 67.5254 30.9755C67.6705 31.1733 67.9147 31.2723 68.2581 31.2723C68.3306 31.2723 68.4056 31.2699 68.483 31.265C68.5604 31.2602 68.6329 31.2554 68.7006 31.2506C68.7683 31.2409 68.8288 31.2337 68.882 31.2288C68.94 31.2192 68.9811 31.2095 69.0053 31.1999V28.0219H69.6799V31.6777Z" fill="#27235C"/>
<path d="M72.235 27.9423C72.2931 27.9423 72.3584 27.9471 72.4309 27.9568C72.5083 27.9616 72.5832 27.9712 72.6558 27.9857C72.7283 27.9954 72.7936 28.0074 72.8517 28.0219C72.9145 28.0316 72.9605 28.0412 72.9895 28.0509L72.8734 28.6372C72.8202 28.6179 72.7308 28.5962 72.605 28.5721C72.4841 28.5431 72.3269 28.5286 72.1335 28.5286C72.0077 28.5286 71.882 28.5431 71.7563 28.5721C71.6353 28.5962 71.5556 28.6131 71.5169 28.6228V31.7863H70.8422V28.1812C71.0018 28.1233 71.2001 28.0702 71.4371 28.0219C71.674 27.9688 71.94 27.9423 72.235 27.9423Z" fill="#27235C"/>
<path d="M77.8222 29.6869C77.8996 29.7834 77.9963 29.9113 78.1124 30.0706C78.2333 30.225 78.3566 30.3988 78.4824 30.5918C78.6081 30.78 78.7314 30.9779 78.8523 31.1854C78.9781 31.3929 79.0845 31.5932 79.1715 31.7863H78.4026C78.3058 31.6029 78.1994 31.4171 78.0834 31.2288C77.9721 31.0406 77.8585 30.8621 77.7424 30.6931C77.6263 30.5194 77.5103 30.3577 77.3942 30.2081C77.283 30.0585 77.1814 29.9282 77.0895 29.8172C77.0267 29.822 76.9614 29.8245 76.8937 29.8245C76.8308 29.8245 76.7655 29.8245 76.6978 29.8245H76.0667V31.7863H75.363V26.8419C75.5613 26.7937 75.7813 26.7623 76.0231 26.7478C76.2698 26.7285 76.4947 26.7189 76.6978 26.7189C77.4039 26.7189 77.9407 26.8516 78.3083 27.117C78.6806 27.3825 78.8668 27.7782 78.8668 28.3042C78.8668 28.6372 78.7774 28.922 78.5984 29.1585C78.4243 29.3949 78.1656 29.5711 77.8222 29.6869ZM76.7558 27.3342C76.456 27.3342 76.2263 27.3414 76.0667 27.3559V29.2453H76.5672C76.809 29.2453 77.0267 29.2333 77.2201 29.2091C77.4136 29.185 77.5756 29.1391 77.7061 29.0716C77.8416 29.004 77.9455 28.9099 78.0181 28.7893C78.0906 28.6638 78.1269 28.4997 78.1269 28.297C78.1269 28.1088 78.0906 27.9519 78.0181 27.8265C77.9455 27.701 77.8464 27.602 77.7207 27.5296C77.5998 27.4573 77.4547 27.4066 77.2854 27.3776C77.121 27.3487 76.9444 27.3342 76.7558 27.3342Z" fill="#27235C"/>
<path d="M79.6714 29.9113C79.6714 29.5783 79.7197 29.2888 79.8165 29.0426C79.9132 28.7917 80.0414 28.5841 80.201 28.4201C80.3605 28.256 80.5443 28.1329 80.7523 28.0509C80.9602 27.9688 81.173 27.9278 81.3907 27.9278C81.8985 27.9278 82.2878 28.0871 82.5586 28.4056C82.8294 28.7193 82.9648 29.1995 82.9648 29.8462C82.9648 29.8751 82.9648 29.9137 82.9648 29.962C82.9648 30.0054 82.9624 30.0465 82.9576 30.0851H80.3751C80.4041 30.476 80.5177 30.7728 80.716 30.9755C80.9143 31.1782 81.2238 31.2795 81.6446 31.2795C81.8815 31.2795 82.0798 31.2602 82.2394 31.2216C82.4038 31.1782 82.5272 31.1371 82.6094 31.0985L82.7037 31.6632C82.6215 31.7066 82.4764 31.7525 82.2684 31.8007C82.0653 31.849 81.8332 31.8731 81.572 31.8731C81.2431 31.8731 80.9578 31.8249 80.716 31.7283C80.479 31.627 80.2832 31.4895 80.1284 31.3157C79.9736 31.142 79.8576 30.9369 79.7802 30.7004C79.7077 30.4591 79.6714 30.1961 79.6714 29.9113ZM82.2612 29.5421C82.266 29.2381 82.1886 28.9895 82.029 28.7965C81.8743 28.5986 81.6591 28.4997 81.3834 28.4997C81.2286 28.4997 81.0908 28.5311 80.9699 28.5938C80.8538 28.6517 80.7547 28.7289 80.6725 28.8255C80.5903 28.922 80.525 29.033 80.4766 29.1585C80.4331 29.2839 80.4041 29.4118 80.3896 29.5421H82.2612Z" fill="#27235C"/>
<path d="M84.8117 31.3012C85.0874 31.3012 85.2905 31.265 85.4211 31.1926C85.5565 31.1203 85.6242 31.0044 85.6242 30.8452C85.6242 30.6811 85.5589 30.5508 85.4284 30.4543C85.2978 30.3577 85.0826 30.2491 84.7827 30.1285C84.6376 30.0706 84.4974 30.0127 84.362 29.9548C84.2314 29.892 84.1177 29.8196 84.021 29.7376C83.9243 29.6555 83.8469 29.5566 83.7889 29.4408C83.7308 29.325 83.7018 29.1826 83.7018 29.0137C83.7018 28.6807 83.8252 28.4176 84.0718 28.2246C84.3184 28.0267 84.6546 27.9278 85.0801 27.9278C85.1865 27.9278 85.2929 27.935 85.3993 27.9495C85.5057 27.9592 85.6049 27.9736 85.6968 27.993C85.7887 28.0074 85.8684 28.0243 85.9362 28.0436C86.0087 28.0629 86.0643 28.0798 86.103 28.0943L85.9797 28.6734C85.9071 28.6348 85.7935 28.5962 85.6387 28.5576C85.484 28.5142 85.2978 28.4925 85.0801 28.4925C84.8915 28.4925 84.7271 28.5311 84.5869 28.6083C84.4466 28.6807 84.3765 28.7965 84.3765 28.9558C84.3765 29.0378 84.391 29.1102 84.42 29.1729C84.4539 29.2357 84.5022 29.2936 84.5651 29.3467C84.6328 29.3949 84.715 29.4408 84.8117 29.4842C84.9085 29.5276 85.0245 29.5735 85.1599 29.6218C85.3389 29.6893 85.4985 29.7569 85.6387 29.8245C85.779 29.8872 85.8975 29.962 85.9942 30.0489C86.0957 30.1357 86.1731 30.2419 86.2263 30.3674C86.2795 30.488 86.3061 30.6376 86.3061 30.8162C86.3061 31.1637 86.1755 31.4267 85.9144 31.6053C85.6581 31.7838 85.2905 31.8731 84.8117 31.8731C84.478 31.8731 84.2169 31.8442 84.0283 31.7863C83.8397 31.7332 83.7115 31.6921 83.6438 31.6632L83.7671 31.0841C83.8445 31.113 83.9678 31.1565 84.1371 31.2144C84.3064 31.2723 84.5312 31.3012 84.8117 31.3012Z" fill="#27235C"/>
<path d="M89.7903 29.9113C89.7903 29.4721 89.6815 29.1343 89.4638 28.8978C89.2462 28.6614 88.956 28.5431 88.5933 28.5431C88.3902 28.5431 88.2306 28.5504 88.1145 28.5648C88.0033 28.5793 87.9138 28.5962 87.8461 28.6155V30.99C87.9283 31.0575 88.0468 31.1227 88.2016 31.1854C88.3564 31.2481 88.5256 31.2795 88.7094 31.2795C88.9028 31.2795 89.0673 31.2457 89.2027 31.1782C89.3429 31.1058 89.4566 31.0093 89.5436 30.8886C89.6307 30.7631 89.6936 30.6183 89.7323 30.4543C89.7709 30.2853 89.7903 30.1044 89.7903 29.9113ZM90.494 29.9113C90.494 30.1961 90.4553 30.4591 90.3779 30.7004C90.3053 30.9417 90.1965 31.1492 90.0514 31.323C89.9064 31.4967 89.7274 31.6318 89.5146 31.7283C89.3067 31.8249 89.0673 31.8731 88.7964 31.8731C88.5788 31.8731 88.3854 31.8442 88.2161 31.7863C88.0517 31.7283 87.9283 31.6728 87.8461 31.6198V33.1255H87.1715V28.1377C87.3311 28.0991 87.5294 28.0581 87.7663 28.0147C88.0081 27.9664 88.2862 27.9423 88.6006 27.9423C88.8908 27.9423 89.1519 27.9881 89.384 28.0798C89.6162 28.1715 89.8145 28.3018 89.9789 28.4707C90.1433 28.6396 90.2691 28.8472 90.3561 29.0933C90.448 29.3346 90.494 29.6073 90.494 29.9113Z" fill="#27235C"/>
<path d="M94.773 29.9041C94.773 30.2033 94.7295 30.4736 94.6425 30.7149C94.5554 30.9562 94.4321 31.1637 94.2725 31.3374C94.1177 31.5112 93.9315 31.6463 93.7139 31.7428C93.4963 31.8345 93.2593 31.8804 93.003 31.8804C92.7467 31.8804 92.5097 31.8345 92.2921 31.7428C92.0744 31.6463 91.8858 31.5112 91.7262 31.3374C91.5715 31.1637 91.4506 30.9562 91.3635 30.7149C91.2765 30.4736 91.2329 30.2033 91.2329 29.9041C91.2329 29.6097 91.2765 29.3418 91.3635 29.1005C91.4506 28.8544 91.5715 28.6445 91.7262 28.4707C91.8858 28.297 92.0744 28.1643 92.2921 28.0726C92.5097 27.9761 92.7467 27.9278 93.003 27.9278C93.2593 27.9278 93.4963 27.9761 93.7139 28.0726C93.9315 28.1643 94.1177 28.297 94.2725 28.4707C94.4321 28.6445 94.5554 28.8544 94.6425 29.1005C94.7295 29.3418 94.773 29.6097 94.773 29.9041ZM94.0694 29.9041C94.0694 29.4794 93.9726 29.144 93.7792 28.8978C93.5906 28.6469 93.3318 28.5214 93.003 28.5214C92.6741 28.5214 92.413 28.6469 92.2195 28.8978C92.0309 29.144 91.9366 29.4794 91.9366 29.9041C91.9366 30.3288 92.0309 30.6666 92.2195 30.9176C92.413 31.1637 92.6741 31.2868 93.003 31.2868C93.3318 31.2868 93.5906 31.1637 93.7792 30.9176C93.9726 30.6666 94.0694 30.3288 94.0694 29.9041Z" fill="#27235C"/>
<path d="M95.7222 28.1305C95.877 28.0919 96.0825 28.0509 96.3388 28.0074C96.5951 27.964 96.8902 27.9423 97.2239 27.9423C97.5237 27.9423 97.7728 27.9857 97.971 28.0726C98.1693 28.1546 98.3265 28.2729 98.4426 28.4273C98.5635 28.5769 98.6481 28.7579 98.6965 28.9702C98.7448 29.1826 98.769 29.4166 98.769 29.6724V31.7863H98.0944V29.8172C98.0944 29.5856 98.0774 29.3877 98.0436 29.2236C98.0146 29.0595 97.9638 28.9268 97.8912 28.8255C97.8187 28.7241 97.722 28.6517 97.6011 28.6083C97.4802 28.56 97.3302 28.5359 97.1513 28.5359C97.0788 28.5359 97.0038 28.5383 96.9264 28.5431C96.849 28.548 96.7741 28.5552 96.7015 28.5648C96.6338 28.5697 96.571 28.5769 96.5129 28.5866C96.4597 28.5962 96.421 28.6035 96.3969 28.6083V31.7863H95.7222V28.1305Z" fill="#27235C"/>
<path d="M100.766 31.3012C101.041 31.3012 101.244 31.265 101.375 31.1926C101.51 31.1203 101.578 31.0044 101.578 30.8452C101.578 30.6811 101.513 30.5508 101.382 30.4543C101.252 30.3577 101.036 30.2491 100.737 30.1285C100.591 30.0706 100.451 30.0127 100.316 29.9548C100.185 29.892 100.072 29.8196 99.9748 29.7376C99.8781 29.6555 99.8007 29.5566 99.7427 29.4408C99.6846 29.325 99.6556 29.1826 99.6556 29.0137C99.6556 28.6807 99.779 28.4176 100.026 28.2246C100.272 28.0267 100.608 27.9278 101.034 27.9278C101.14 27.9278 101.247 27.935 101.353 27.9495C101.46 27.9592 101.559 27.9736 101.651 27.993C101.742 28.0074 101.822 28.0243 101.89 28.0436C101.963 28.0629 102.018 28.0798 102.057 28.0943L101.933 28.6734C101.861 28.6348 101.747 28.5962 101.593 28.5576C101.438 28.5142 101.252 28.4925 101.034 28.4925C100.845 28.4925 100.681 28.5311 100.541 28.6083C100.4 28.6807 100.33 28.7965 100.33 28.9558C100.33 29.0378 100.345 29.1102 100.374 29.1729C100.408 29.2357 100.456 29.2936 100.519 29.3467C100.587 29.3949 100.669 29.4408 100.766 29.4842C100.862 29.5276 100.978 29.5735 101.114 29.6218C101.293 29.6893 101.452 29.7569 101.593 29.8245C101.733 29.8872 101.851 29.962 101.948 30.0489C102.05 30.1357 102.127 30.2419 102.18 30.3674C102.233 30.488 102.26 30.6376 102.26 30.8162C102.26 31.1637 102.129 31.4267 101.868 31.6053C101.612 31.7838 101.244 31.8731 100.766 31.8731C100.432 31.8731 100.171 31.8442 99.9821 31.7863C99.7935 31.7332 99.6653 31.6921 99.5976 31.6632L99.7209 31.0841C99.7983 31.113 99.9216 31.1565 100.091 31.2144C100.26 31.2723 100.485 31.3012 100.766 31.3012Z" fill="#27235C"/>
<path d="M103.8 31.7863H103.125V28.0219H103.8V31.7863ZM103.459 27.3414C103.338 27.3414 103.234 27.3028 103.147 27.2256C103.065 27.1436 103.024 27.035 103.024 26.8998C103.024 26.7647 103.065 26.6585 103.147 26.5813C103.234 26.4993 103.338 26.4583 103.459 26.4583C103.58 26.4583 103.681 26.4993 103.764 26.5813C103.851 26.6585 103.894 26.7647 103.894 26.8998C103.894 27.035 103.851 27.1436 103.764 27.2256C103.681 27.3028 103.58 27.3414 103.459 27.3414Z" fill="#27235C"/>
<path d="M105.635 28.1884C105.717 28.1353 105.84 28.0798 106.005 28.0219C106.174 27.964 106.367 27.935 106.585 27.935C106.856 27.935 107.095 27.9833 107.303 28.0798C107.516 28.1763 107.695 28.3115 107.84 28.4852C107.985 28.659 108.094 28.8665 108.167 29.1078C108.244 29.3491 108.283 29.6145 108.283 29.9041C108.283 30.2081 108.237 30.4832 108.145 30.7293C108.058 30.9706 107.932 31.1758 107.768 31.3447C107.603 31.5136 107.405 31.6439 107.173 31.7356C106.941 31.8273 106.679 31.8731 106.389 31.8731C106.075 31.8731 105.797 31.8514 105.555 31.808C105.313 31.7645 105.115 31.7211 104.96 31.6777V26.2845L105.635 26.1687V28.1884ZM105.635 31.1999C105.702 31.2192 105.797 31.2385 105.918 31.2578C106.043 31.2723 106.198 31.2795 106.382 31.2795C106.745 31.2795 107.035 31.1613 107.252 30.9248C107.47 30.6835 107.579 30.3433 107.579 29.9041C107.579 29.711 107.56 29.5301 107.521 29.3611C107.482 29.1922 107.419 29.0475 107.332 28.9268C107.245 28.8013 107.132 28.7048 106.991 28.6372C106.856 28.5648 106.691 28.5286 106.498 28.5286C106.314 28.5286 106.145 28.56 105.99 28.6228C105.835 28.6855 105.717 28.7506 105.635 28.8182V31.1999Z" fill="#27235C"/>
<path d="M109.907 31.7863H109.232V28.0219H109.907V31.7863ZM109.566 27.3414C109.445 27.3414 109.341 27.3028 109.254 27.2256C109.171 27.1436 109.13 27.035 109.13 26.8998C109.13 26.7647 109.171 26.6585 109.254 26.5813C109.341 26.4993 109.445 26.4583 109.566 26.4583C109.687 26.4583 109.788 26.4993 109.87 26.5813C109.957 26.6585 110.001 26.7647 110.001 26.8998C110.001 27.035 109.957 27.1436 109.87 27.2256C109.788 27.3028 109.687 27.3414 109.566 27.3414Z" fill="#27235C"/>
<path d="M112.198 31.8586C111.783 31.849 111.488 31.7597 111.313 31.5908C111.139 31.4219 111.052 31.1589 111.052 30.8017V26.2845L111.727 26.1687V30.6931C111.727 30.8041 111.737 30.8958 111.756 30.9682C111.775 31.0406 111.807 31.0985 111.85 31.142C111.894 31.1854 111.952 31.2192 112.024 31.2433C112.097 31.2626 112.186 31.2795 112.293 31.294L112.198 31.8586Z" fill="#27235C"/>
<path d="M113.725 31.7863H113.05V28.0219H113.725V31.7863ZM113.384 27.3414C113.263 27.3414 113.159 27.3028 113.072 27.2256C112.99 27.1436 112.949 27.035 112.949 26.8998C112.949 26.7647 112.99 26.6585 113.072 26.5813C113.159 26.4993 113.263 26.4583 113.384 26.4583C113.505 26.4583 113.607 26.4993 113.689 26.5813C113.776 26.6585 113.819 26.7647 113.819 26.8998C113.819 27.035 113.776 27.1436 113.689 27.2256C113.607 27.3028 113.505 27.3414 113.384 27.3414Z" fill="#27235C"/>
<path d="M115.516 28.0219H116.945V28.5866H115.516V30.324C115.516 30.5122 115.531 30.669 115.56 30.7945C115.589 30.9151 115.632 31.0117 115.69 31.0841C115.748 31.1516 115.821 31.1999 115.908 31.2288C115.995 31.2578 116.097 31.2723 116.213 31.2723C116.416 31.2723 116.578 31.2506 116.699 31.2071C116.825 31.1589 116.912 31.1251 116.96 31.1058L117.091 31.6632C117.023 31.697 116.904 31.738 116.735 31.7863C116.566 31.8393 116.372 31.8659 116.155 31.8659C115.898 31.8659 115.686 31.8345 115.516 31.7718C115.352 31.7042 115.219 31.6053 115.117 31.475C115.016 31.3447 114.943 31.1854 114.9 30.9972C114.861 30.8041 114.842 30.5821 114.842 30.3312V26.9722L115.516 26.8564V28.0219Z" fill="#27235C"/>
<path d="M117.361 32.4885C117.415 32.5126 117.482 32.5343 117.565 32.5536C117.652 32.5777 117.736 32.5898 117.818 32.5898C118.084 32.5898 118.292 32.5295 118.442 32.4088C118.592 32.293 118.728 32.1024 118.849 31.8369C118.544 31.2578 118.259 30.6449 117.993 29.9982C117.731 29.3467 117.514 28.6879 117.34 28.0219H118.065C118.118 28.2391 118.181 28.4731 118.254 28.7241C118.331 28.9751 118.416 29.2333 118.508 29.4987C118.599 29.7641 118.699 30.0296 118.805 30.295C118.911 30.5604 119.023 30.8162 119.139 31.0623C119.322 30.5556 119.482 30.0537 119.617 29.5566C119.753 29.0595 119.881 28.548 120.002 28.0219H120.698C120.524 28.7313 120.331 29.4142 120.118 30.0706C119.905 30.7221 119.676 31.3326 119.429 31.9021C119.332 32.1193 119.231 32.3051 119.124 32.4595C119.023 32.6188 118.909 32.7491 118.783 32.8504C118.658 32.9518 118.515 33.0266 118.355 33.0748C118.2 33.1231 118.024 33.1472 117.826 33.1472C117.772 33.1472 117.717 33.1424 117.659 33.1327C117.601 33.1279 117.543 33.1183 117.485 33.1038C117.432 33.0941 117.381 33.0821 117.332 33.0676C117.289 33.0531 117.257 33.041 117.238 33.0314L117.361 32.4885Z" fill="#27235C"/>
<path d="M122.01 31.3953C122.01 31.5256 121.966 31.6391 121.879 31.7356C121.792 31.8321 121.674 31.8804 121.524 31.8804C121.374 31.8804 121.256 31.8321 121.168 31.7356C121.081 31.6391 121.038 31.5256 121.038 31.3953C121.038 31.265 121.081 31.1516 121.168 31.0551C121.256 30.9586 121.374 30.9103 121.524 30.9103C121.674 30.9103 121.792 30.9586 121.879 31.0551C121.966 31.1516 122.01 31.265 122.01 31.3953Z" fill="#27235C"/>
<path d="M116.155 21.254C115.326 21.254 114.581 21.0932 113.921 20.7716C113.277 20.4331 112.727 19.9761 112.27 19.4006C111.83 18.8251 111.492 18.165 111.255 17.4202C111.035 16.6585 110.925 15.8461 110.925 14.9828C110.942 14.1196 111.069 13.3156 111.305 12.5708C111.542 11.8091 111.881 11.149 112.321 10.5904C112.778 10.0149 113.328 9.56637 113.971 9.24477C114.615 8.92316 115.342 8.76236 116.155 8.76236C116.934 8.76236 117.661 8.92316 118.338 9.24477C119.032 9.56637 119.642 10.0149 120.166 10.5904C120.708 11.149 121.131 11.8091 121.436 12.5708C121.741 13.3156 121.893 14.1111 121.893 14.9574C121.893 15.8376 121.741 16.667 121.436 17.4456C121.131 18.2073 120.717 18.8759 120.192 19.4514C119.667 20.01 119.058 20.45 118.364 20.7716C117.67 21.0932 116.934 21.254 116.155 21.254ZM115.749 18.2835C116.341 18.2835 116.874 18.1481 117.348 17.8772C117.822 17.5895 118.195 17.2002 118.465 16.7093C118.753 16.2184 118.897 15.6599 118.897 15.0336C118.897 14.3904 118.753 13.8234 118.465 13.3325C118.195 12.8247 117.822 12.4354 117.348 12.1646C116.874 11.8768 116.341 11.7329 115.749 11.7329C115.173 11.7329 114.648 11.8768 114.175 12.1646C113.701 12.4523 113.32 12.8416 113.032 13.3325C112.761 13.8234 112.626 14.3904 112.626 15.0336C112.626 15.6599 112.761 16.2184 113.032 16.7093C113.32 17.2002 113.701 17.5895 114.175 17.8772C114.648 18.1481 115.173 18.2835 115.749 18.2835ZM111.052 21.2794C110.595 21.2794 110.256 21.2033 110.036 21.0509C109.816 20.9155 109.681 20.7378 109.63 20.5177C109.579 20.2808 109.554 20.0184 109.554 19.7307V4.59847C109.554 4.31072 109.579 4.05682 109.63 3.83678C109.681 3.59981 109.816 3.41362 110.036 3.27821C110.256 3.1428 110.595 3.07509 111.052 3.07509C111.526 3.07509 111.864 3.1428 112.067 3.27821C112.27 3.41362 112.397 3.59981 112.448 3.83678C112.499 4.07375 112.524 4.32765 112.524 4.59847V20.2385C112.456 20.6108 112.313 20.8732 112.093 21.0255C111.889 21.1948 111.542 21.2794 111.052 21.2794Z" fill="#27235C" stroke="#27235C" stroke-width="0.2"/>
<path d="M101.986 21.4321C100.886 21.4321 99.9212 21.2544 99.0918 20.8989C98.2794 20.5435 97.5938 20.0611 97.0353 19.4517C96.4936 18.8255 96.0789 18.1315 95.7912 17.3698C95.5203 16.5912 95.3849 15.7872 95.3849 14.9578C95.3849 13.7391 95.6642 12.6558 96.2228 11.7079C96.7814 10.76 97.5515 10.0153 98.5332 9.47362C99.5319 8.93197 100.674 8.66115 101.961 8.66115C102.875 8.66115 103.679 8.80502 104.373 9.09277C105.067 9.38052 105.642 9.76136 106.099 10.2353C106.573 10.6923 106.929 11.2001 107.166 11.7587C107.42 12.3172 107.547 12.8589 107.547 13.3836C107.547 14.2807 107.327 14.9324 106.886 15.3386C106.463 15.7448 105.93 15.948 105.287 15.948H98.584C98.601 16.5235 98.7787 17.0228 99.1172 17.4459C99.4727 17.8691 99.9127 18.1992 100.437 18.4361C100.979 18.6562 101.529 18.7662 102.088 18.7662C102.511 18.7662 102.883 18.7408 103.205 18.69C103.543 18.6393 103.831 18.58 104.068 18.5123C104.305 18.4277 104.508 18.343 104.678 18.2584C104.864 18.1738 105.033 18.0976 105.185 18.0299C105.338 17.9622 105.482 17.9199 105.617 17.903C105.803 17.886 105.989 17.9284 106.176 18.0299C106.362 18.1315 106.514 18.3092 106.633 18.5631C106.734 18.7324 106.802 18.8932 106.836 19.0455C106.886 19.1809 106.912 19.3163 106.912 19.4517C106.912 19.7903 106.709 20.1119 106.302 20.4165C105.896 20.7043 105.321 20.9413 104.576 21.1274C103.848 21.3306 102.985 21.4321 101.986 21.4321ZM98.584 14.1453H103.789C104.077 14.1453 104.297 14.103 104.449 14.0184C104.601 13.9168 104.678 13.7137 104.678 13.409C104.678 13.0197 104.559 12.6727 104.322 12.368C104.085 12.0464 103.764 11.801 103.357 11.6317C102.951 11.4455 102.477 11.3524 101.935 11.3524C101.309 11.3524 100.742 11.4794 100.234 11.7333C99.7266 11.9703 99.3203 12.3003 99.0157 12.7235C98.7279 13.1466 98.584 13.6206 98.584 14.1453Z" fill="#27235C" stroke="#27235C" stroke-width="0.2"/>
<path d="M79.271 21.2042C78.9325 21.2042 78.6617 21.145 78.4586 21.0265C78.2555 20.8911 78.1031 20.7388 78.0016 20.5695C77.9169 20.4002 77.8577 20.2564 77.8238 20.1379L72.8475 5.56424C72.6782 5.0226 72.6528 4.61636 72.7713 4.34554C72.8898 4.05779 73.2368 3.82082 73.8123 3.63463C74.2016 3.49922 74.5147 3.43998 74.7517 3.4569C74.9887 3.47383 75.1833 3.57539 75.3357 3.76158C75.5049 3.93084 75.6488 4.20167 75.7673 4.57405L79.4234 15.6439L82.6986 4.6756C82.7494 4.50634 82.8171 4.33708 82.9018 4.16781C83.0033 3.98162 83.1557 3.82929 83.3588 3.7108C83.5619 3.59232 83.8412 3.53307 84.1966 3.53307C84.6029 3.53307 84.9075 3.60078 85.1107 3.73619C85.3138 3.8716 85.4576 4.02394 85.5423 4.1932C85.6438 4.34554 85.7115 4.48942 85.7454 4.62483L89.0207 15.7201L92.7021 4.59944C92.8206 4.21013 92.956 3.92238 93.1084 3.73619C93.2776 3.55 93.4892 3.44844 93.7431 3.43152C93.997 3.39766 94.3102 3.44844 94.6825 3.58385C95.0718 3.71926 95.3511 3.8716 95.5204 4.04087C95.6897 4.1932 95.7743 4.39632 95.7743 4.65022C95.7743 4.88719 95.715 5.19186 95.5966 5.56424L90.6456 20.1633C90.6117 20.2648 90.544 20.4002 90.4425 20.5695C90.3578 20.7388 90.214 20.8911 90.0109 21.0265C89.8077 21.145 89.5284 21.2042 89.173 21.2042C88.8175 21.2042 88.5383 21.1281 88.3351 20.9757C88.132 20.8234 87.9797 20.6541 87.8781 20.4679C87.7766 20.2817 87.7089 20.1463 87.675 20.0617L84.222 8.89028L80.769 20.0363C80.7352 20.1548 80.6675 20.3071 80.5659 20.4933C80.4813 20.6795 80.3374 20.8488 80.1343 21.0011C79.9312 21.1365 79.6434 21.2042 79.271 21.2042Z" fill="#27235C" stroke="#27235C" stroke-width="0.2"/>
<path d="M66.069 21.4323C65.6289 21.4323 65.1634 21.3816 64.6725 21.28C64.1817 21.1954 63.7077 21.0684 63.2507 20.8992C62.7937 20.713 62.3959 20.5014 62.0574 20.2644C61.7358 20.0105 61.5327 19.7312 61.448 19.4266C61.3803 19.2573 61.3549 19.0965 61.3719 18.9442C61.3888 18.7749 61.4396 18.6056 61.5242 18.4364C61.6088 18.2502 61.7358 18.064 61.9051 17.8778C62.0574 17.6916 62.2097 17.5901 62.3621 17.5731C62.5313 17.5393 62.7429 17.5901 62.9968 17.7255C63.2169 17.8101 63.4538 17.9201 63.7077 18.0555C63.9785 18.1909 64.2494 18.3264 64.5202 18.4618C64.8079 18.5972 65.0957 18.7072 65.3834 18.7918C65.6881 18.8765 65.9843 18.9188 66.2721 18.9188C66.8983 18.9188 67.3977 18.8172 67.7701 18.6141C68.1424 18.3941 68.3286 18.0894 68.3286 17.7001C68.3286 17.48 68.2694 17.2854 68.1509 17.1161C68.0324 16.9468 67.8716 16.8114 67.6685 16.7099C67.4823 16.5914 67.2538 16.4898 66.983 16.4052C66.7291 16.3036 66.4498 16.219 66.1451 16.1513C65.8574 16.0667 65.5527 15.9736 65.2311 15.872C64.8079 15.7535 64.3848 15.6097 63.9616 15.4404C63.5385 15.2711 63.1576 15.0511 62.8191 14.7803C62.4975 14.5094 62.2351 14.1709 62.032 13.7647C61.8289 13.3585 61.7273 12.8507 61.7273 12.2413C61.7273 11.4796 61.9051 10.8364 62.2605 10.3117C62.6329 9.77006 63.1661 9.35536 63.8601 9.06761C64.554 8.77986 65.3919 8.63599 66.3736 8.63599C66.7122 8.63599 67.0338 8.66138 67.3384 8.71216C67.66 8.76294 67.9647 8.8391 68.2525 8.94066C68.5571 9.02529 68.8449 9.13532 69.1157 9.27073C69.4035 9.40614 69.6743 9.55848 69.9282 9.72774C70.3513 9.96471 70.5714 10.244 70.5883 10.5656C70.6052 10.8703 70.4867 11.2003 70.2328 11.5558C70.0467 11.7928 69.8605 11.962 69.6743 12.0636C69.4881 12.1482 69.2934 12.1482 69.0903 12.0636C68.8195 11.9282 68.5233 11.7843 68.2017 11.632C67.897 11.4627 67.5754 11.3188 67.2369 11.2003C66.9153 11.0819 66.5767 11.0226 66.2213 11.0226C65.8828 11.0226 65.5781 11.0734 65.3073 11.1749C65.0364 11.2765 64.8333 11.4204 64.6979 11.6066C64.5625 11.7928 64.4948 12.0128 64.4948 12.2667C64.4948 12.5037 64.5625 12.6983 64.6979 12.8507C64.8333 13.003 65.0111 13.1299 65.2311 13.2315C65.4511 13.3331 65.7135 13.4262 66.0182 13.5108C66.3228 13.5785 66.6444 13.6462 66.983 13.7139C67.4569 13.8155 67.9393 13.9424 68.4302 14.0948C68.9211 14.2471 69.3696 14.4587 69.7758 14.7295C70.199 15.0003 70.5375 15.3642 70.7914 15.8212C71.0453 16.2613 71.1723 16.8368 71.1723 17.5477C71.1723 18.7834 70.7153 19.7397 69.8012 20.4168C68.9041 21.0938 67.66 21.4323 66.069 21.4323Z" fill="#27235C" stroke="#27235C" stroke-width="0.2"/>
<path d="M54.0834 21.432C52.9832 21.432 52.0184 21.2542 51.189 20.8988C50.3765 20.5433 49.691 20.0609 49.1324 19.4516C48.5908 18.8253 48.1761 18.1313 47.8883 17.3696C47.6175 16.591 47.4821 15.787 47.4821 14.9576C47.4821 13.7389 47.7614 12.6556 48.3199 11.7078C48.8785 10.7599 49.6487 10.0151 50.6304 9.47347C51.6291 8.93182 52.7716 8.661 54.058 8.661C54.972 8.661 55.776 8.80487 56.47 9.09262C57.164 9.38037 57.7395 9.76121 58.1965 10.2352C58.6704 10.6922 59.0259 11.2 59.2629 11.7585C59.5168 12.3171 59.6437 12.8587 59.6437 13.3835C59.6437 14.2806 59.4237 14.9322 58.9836 15.3385C58.5604 15.7447 58.0272 15.9478 57.384 15.9478H50.6812C50.6981 16.5233 50.8758 17.0226 51.2144 17.4458C51.5698 17.869 52.0099 18.199 52.5346 18.436C53.0763 18.656 53.6264 18.7661 54.1849 18.7661C54.6081 18.7661 54.9805 18.7407 55.3021 18.6899C55.6406 18.6391 55.9284 18.5799 56.1653 18.5122C56.4023 18.4275 56.6054 18.3429 56.7747 18.2583C56.9609 18.1736 57.1301 18.0975 57.2825 18.0298C57.4348 17.9621 57.5787 17.9197 57.7141 17.9028C57.9003 17.8859 58.0865 17.9282 58.2727 18.0298C58.4589 18.1313 58.6112 18.309 58.7297 18.5629C58.8312 18.7322 58.8989 18.893 58.9328 19.0453C58.9836 19.1808 59.009 19.3162 59.009 19.4516C59.009 19.7901 58.8058 20.1117 58.3996 20.4164C57.9934 20.7041 57.4179 20.9411 56.6731 21.1273C55.9453 21.3304 55.082 21.432 54.0834 21.432ZM50.6812 14.1452H55.886C56.1738 14.1452 56.3938 14.1028 56.5462 14.0182C56.6985 13.9166 56.7747 13.7135 56.7747 13.4089C56.7747 13.0195 56.6562 12.6726 56.4192 12.3679C56.1823 12.0463 55.8607 11.8008 55.4544 11.6316C55.0482 11.4454 54.5742 11.3523 54.0326 11.3523C53.4063 11.3523 52.8393 11.4792 52.3315 11.7331C51.8237 11.9701 51.4175 12.3002 51.1128 12.7233C50.825 13.1465 50.6812 13.6204 50.6812 14.1452Z" fill="#27235C" stroke="#27235C" stroke-width="0.2"/>
<path d="M45.0194 21.2805C44.3931 21.2805 43.8346 21.2382 43.3437 21.1536C42.8698 21.0689 42.4551 20.9251 42.0996 20.722C41.7611 20.5188 41.4818 20.248 41.2617 19.9095C41.0417 19.554 40.8724 19.1224 40.754 18.6146C40.6524 18.1068 40.6016 17.4975 40.6016 16.7866V4.54877C40.6016 4.26102 40.627 4.00713 40.6778 3.78709C40.7455 3.55012 40.8809 3.36393 41.084 3.22851C41.3041 3.07618 41.6511 3.00001 42.125 3.00001C42.5989 3.00001 42.9375 3.06771 43.1406 3.20312C43.3606 3.33854 43.496 3.52473 43.5468 3.7617C43.6145 3.98174 43.6484 4.23563 43.6484 4.52338V16.6596C43.6484 16.9812 43.6653 17.252 43.6991 17.4721C43.7499 17.6752 43.8261 17.8445 43.9277 17.9799C44.0461 18.0984 44.19 18.183 44.3593 18.2338C44.5455 18.2845 44.7655 18.3099 45.0194 18.3099C45.2395 18.3099 45.4341 18.3353 45.6034 18.3861C45.7896 18.4369 45.9334 18.5638 46.035 18.767C46.1535 18.9701 46.2127 19.3001 46.2127 19.7571C46.2127 20.2311 46.1535 20.5781 46.035 20.7981C45.9334 21.0182 45.7896 21.1536 45.6034 21.2044C45.4172 21.2551 45.2225 21.2805 45.0194 21.2805Z" fill="#27235C" stroke="#27235C" stroke-width="0.2"/>
<path d="M36.3509 21.2802C35.8939 21.2802 35.5553 21.204 35.3353 21.0517C35.1153 20.9163 34.9798 20.7385 34.9291 20.5185C34.8783 20.2815 34.8529 20.0192 34.8529 19.7314V10.2865C34.8529 10.0157 34.8783 9.77023 34.9291 9.55018C34.9968 9.31321 35.1322 9.12702 35.3353 8.99161C35.5553 8.8562 35.9023 8.78849 36.3763 8.78849C36.8502 8.78849 37.1887 8.8562 37.3919 8.99161C37.6119 9.12702 37.7473 9.31321 37.7981 9.55018C37.8489 9.78715 37.8743 10.0495 37.8743 10.3373V19.7568C37.8743 20.0446 37.8489 20.3069 37.7981 20.5439C37.7473 20.7639 37.6119 20.9417 37.3919 21.0771C37.1887 21.2125 36.8417 21.2802 36.3509 21.2802ZM36.3509 6.3257C35.86 6.3257 35.4961 6.258 35.2591 6.12259C35.0391 5.97025 34.8952 5.76713 34.8275 5.51324C34.7767 5.25934 34.7513 4.98005 34.7513 4.67538C34.7513 4.35378 34.7767 4.07449 34.8275 3.83752C34.8952 3.60055 35.0475 3.41436 35.2845 3.27895C35.5215 3.12661 35.8854 3.05045 36.3763 3.05045C36.8841 3.05045 37.248 3.12661 37.468 3.27895C37.6881 3.43129 37.8319 3.6344 37.8996 3.8883C37.9674 4.12527 38.0012 4.40456 38.0012 4.72616C38.0012 5.01391 37.9674 5.28473 37.8996 5.53863C37.8319 5.79252 37.6881 5.98718 37.468 6.12259C37.248 6.258 36.8756 6.3257 36.3509 6.3257Z" fill="#27235C" stroke="#27235C" stroke-width="0.2"/>
<path d="M15.498 21.2545C15.0579 21.2545 14.7278 21.1868 14.5078 21.0514C14.2877 20.916 14.1439 20.7298 14.0762 20.4928C14.0254 20.2559 14 19.9935 14 19.7058V5.05598C14 4.78515 14.0254 4.53972 14.0762 4.31968C14.1439 4.08271 14.2877 3.89652 14.5078 3.76111C14.7278 3.60877 15.0748 3.5326 15.5488 3.5326C15.9042 3.5326 16.1666 3.55799 16.3358 3.60877C16.522 3.64262 16.6659 3.70186 16.7675 3.7865C16.869 3.8542 16.9706 3.9473 17.0721 4.06578L23.2672 12.7236H22.6832L28.9037 4.04039C29.0222 3.90498 29.1407 3.80342 29.2592 3.73572C29.3776 3.66801 29.53 3.61723 29.7162 3.58338C29.9024 3.54953 30.1478 3.5326 30.4525 3.5326C30.9095 3.5326 31.248 3.60877 31.4681 3.76111C31.6881 3.89652 31.8235 4.08271 31.8743 4.31968C31.942 4.55665 31.9758 4.81901 31.9758 5.10675V19.7566C31.9758 20.0104 31.942 20.2559 31.8743 20.4928C31.8235 20.7298 31.6881 20.916 31.4681 21.0514C31.248 21.1868 30.901 21.2545 30.4271 21.2545C29.9701 21.2545 29.6315 21.1784 29.4115 21.026C29.1915 20.8906 29.0476 20.7044 28.9799 20.4675C28.9291 20.2305 28.9037 19.9766 28.9037 19.7058V8.81364L24.2828 15.4911C24.232 15.5588 24.1558 15.6519 24.0543 15.7704C23.9527 15.8719 23.8173 15.965 23.6481 16.0497C23.4788 16.1343 23.2503 16.1766 22.9625 16.1766C22.6917 16.1766 22.4717 16.1343 22.3024 16.0497C22.1331 15.965 21.9977 15.8719 21.8962 15.7704C21.8115 15.6688 21.7269 15.5673 21.6423 15.4657L17.0468 8.81364V19.7566C17.0468 20.0104 17.0129 20.2559 16.9452 20.4928C16.8944 20.7298 16.759 20.916 16.539 21.0514C16.3189 21.1868 15.9719 21.2545 15.498 21.2545Z" fill="#27235C" stroke="#27235C" stroke-width="0.2"/>
</svg>
