<svg width="174" height="174" viewBox="0 0 174 174" fill="none" xmlns="http://www.w3.org/2000/svg">
<path d="M79.256 113.017C79.256 112.32 79.8211 111.755 80.5183 111.755H167.618C168.315 111.755 168.88 112.32 168.88 113.017V113.017C168.88 113.714 168.315 114.279 167.618 114.279H80.5183C79.8211 114.279 79.256 113.714 79.256 113.017V113.017Z" fill="#FFBB00"/>
<path d="M8.27876 103.708V100.653C7.77208 99.8686 7.29477 99.0956 6.84684 98.3335C6.3989 97.5714 5.97667 96.8239 5.58014 96.0911H6.83582C7.11486 96.692 7.42695 97.3039 7.77208 97.9268C8.11721 98.5423 8.47335 99.1359 8.84051 99.7074C9.20033 99.1359 9.5528 98.5423 9.89793 97.9268C10.2431 97.3039 10.5588 96.692 10.8452 96.0911H12.0348C11.6383 96.8239 11.216 97.5714 10.7681 98.3335C10.3202 99.0882 9.84653 99.854 9.34719 100.631V103.708H8.27876Z" fill="white"/>
<path d="M17.4962 100.851C17.4962 101.305 17.4301 101.715 17.298 102.082C17.1658 102.448 16.9785 102.763 16.7362 103.027C16.5012 103.291 16.2185 103.496 15.8881 103.642C15.5576 103.782 15.1978 103.851 14.8086 103.851C14.4194 103.851 14.0596 103.782 13.7292 103.642C13.3987 103.496 13.1124 103.291 12.87 103.027C12.635 102.763 12.4515 102.448 12.3193 102.082C12.1871 101.715 12.121 101.305 12.121 100.851C12.121 100.404 12.1871 99.9969 12.3193 99.6305C12.4515 99.2568 12.635 98.938 12.87 98.6742C13.1124 98.4104 13.3987 98.2089 13.7292 98.0697C14.0596 97.9231 14.4194 97.8498 14.8086 97.8498C15.1978 97.8498 15.5576 97.9231 15.8881 98.0697C16.2185 98.2089 16.5012 98.4104 16.7362 98.6742C16.9785 98.938 17.1658 99.2568 17.298 99.6305C17.4301 99.9969 17.4962 100.404 17.4962 100.851ZM16.4278 100.851C16.4278 100.206 16.2809 99.6964 15.9872 99.3227C15.7008 98.9417 15.308 98.7511 14.8086 98.7511C14.3093 98.7511 13.9128 98.9417 13.619 99.3227C13.3326 99.6964 13.1895 100.206 13.1895 100.851C13.1895 101.495 13.3326 102.008 13.619 102.389C13.9128 102.763 14.3093 102.95 14.8086 102.95C15.308 102.95 15.7008 102.763 15.9872 102.389C16.2809 102.008 16.4278 101.495 16.4278 100.851Z" fill="white"/>
<path d="M23.4976 103.544C23.2626 103.602 22.9505 103.664 22.5613 103.73C22.1795 103.796 21.7352 103.829 21.2285 103.829C20.7879 103.829 20.4171 103.767 20.116 103.642C19.815 103.511 19.5726 103.327 19.389 103.093C19.2055 102.858 19.0733 102.584 18.9925 102.269C18.9117 101.946 18.8714 101.591 18.8714 101.202V97.9927H19.8957V100.982C19.8957 101.679 20.0059 102.177 20.2262 102.477C20.4465 102.778 20.8173 102.928 21.3387 102.928C21.4488 102.928 21.5626 102.924 21.6801 102.917C21.7976 102.91 21.9078 102.902 22.0106 102.895C22.1134 102.88 22.2052 102.869 22.2859 102.862C22.3741 102.847 22.4365 102.833 22.4732 102.818V97.9927H23.4976V103.544Z" fill="white"/>
<path d="M27.3772 97.8718C27.4653 97.8718 27.5644 97.8791 27.6746 97.8938C27.7921 97.9011 27.9059 97.9158 28.016 97.9378C28.1262 97.9524 28.2253 97.9707 28.3134 97.9927C28.4089 98.0074 28.4786 98.022 28.5227 98.0367L28.3465 98.927C28.2657 98.8977 28.1298 98.8647 27.9389 98.8281C27.7553 98.7841 27.5167 98.7621 27.223 98.7621C27.032 98.7621 26.8411 98.7841 26.6502 98.8281C26.4666 98.8647 26.3455 98.8904 26.2867 98.905V103.708H25.2623V98.2345C25.5047 98.1466 25.8057 98.066 26.1655 97.9927C26.5254 97.9121 26.9292 97.8718 27.3772 97.8718Z" fill="white"/>
<path d="M36.929 96.0911H37.9975V103.708H36.929V100.191H33.195V103.708H32.1266V96.0911H33.195V99.2678H36.929V96.0911Z" fill="white"/>
<path d="M44.8826 100.851C44.8826 101.305 44.8165 101.715 44.6843 102.082C44.5521 102.448 44.3649 102.763 44.1225 103.027C43.8876 103.291 43.6049 103.496 43.2744 103.642C42.944 103.782 42.5842 103.851 42.195 103.851C41.8058 103.851 41.446 103.782 41.1155 103.642C40.7851 103.496 40.4987 103.291 40.2564 103.027C40.0214 102.763 39.8378 102.448 39.7056 102.082C39.5734 101.715 39.5074 101.305 39.5074 100.851C39.5074 100.404 39.5734 99.9969 39.7056 99.6305C39.8378 99.2568 40.0214 98.938 40.2564 98.6742C40.4987 98.4104 40.7851 98.2089 41.1155 98.0697C41.446 97.9231 41.8058 97.8498 42.195 97.8498C42.5842 97.8498 42.944 97.9231 43.2744 98.0697C43.6049 98.2089 43.8876 98.4104 44.1225 98.6742C44.3649 98.938 44.5521 99.2568 44.6843 99.6305C44.8165 99.9969 44.8826 100.404 44.8826 100.851ZM43.8141 100.851C43.8141 100.206 43.6673 99.6964 43.3735 99.3227C43.0872 98.9417 42.6943 98.7511 42.195 98.7511C41.6956 98.7511 41.2991 98.9417 41.0054 99.3227C40.719 99.6964 40.5758 100.206 40.5758 100.851C40.5758 101.495 40.719 102.008 41.0054 102.389C41.2991 102.763 41.6956 102.95 42.195 102.95C42.6943 102.95 43.0872 102.763 43.3735 102.389C43.6673 102.008 43.8141 101.495 43.8141 100.851Z" fill="white"/>
<path d="M47.6566 102.972C48.0751 102.972 48.3835 102.917 48.5818 102.807C48.7874 102.697 48.8902 102.521 48.8902 102.279C48.8902 102.03 48.7911 101.832 48.5928 101.686C48.3946 101.539 48.0678 101.375 47.6125 101.191C47.3922 101.103 47.1793 101.015 46.9737 100.928C46.7754 100.832 46.6028 100.722 46.456 100.598C46.3091 100.473 46.1916 100.323 46.1035 100.147C46.0154 99.9712 45.9713 99.7551 45.9713 99.4986C45.9713 98.993 46.1586 98.5936 46.5331 98.3005C46.9076 98 47.4179 97.8498 48.0641 97.8498C48.2257 97.8498 48.3872 97.8608 48.5488 97.8828C48.7103 97.8975 48.8609 97.9194 49.0004 97.9488C49.1399 97.9707 49.2611 97.9964 49.3639 98.0257C49.474 98.055 49.5585 98.0807 49.6172 98.1026L49.4299 98.982C49.3198 98.9234 49.1472 98.8647 48.9123 98.8061C48.6773 98.7402 48.3946 98.7072 48.0641 98.7072C47.7777 98.7072 47.5281 98.7658 47.3151 98.883C47.1022 98.993 46.9957 99.1688 46.9957 99.4107C46.9957 99.5352 47.0177 99.6451 47.0618 99.7404C47.1132 99.8357 47.1866 99.9236 47.2821 100.004C47.3849 100.077 47.5097 100.147 47.6566 100.213C47.8034 100.279 47.9797 100.349 48.1853 100.422C48.457 100.524 48.6993 100.627 48.9123 100.73C49.1252 100.825 49.3051 100.939 49.452 101.07C49.6062 101.202 49.7237 101.364 49.8044 101.554C49.8852 101.737 49.9256 101.964 49.9256 102.236C49.9256 102.763 49.7273 103.162 49.3308 103.434C48.9416 103.705 48.3835 103.84 47.6566 103.84C47.1499 103.84 46.7534 103.796 46.467 103.708C46.1806 103.628 45.986 103.566 45.8832 103.522L46.0704 102.642C46.1879 102.686 46.3752 102.752 46.6322 102.84C46.8892 102.928 47.2307 102.972 47.6566 102.972Z" fill="white"/>
<path d="M52.1978 97.9927H54.3678V98.8501H52.1978V101.488C52.1978 101.774 52.2199 102.012 52.2639 102.203C52.308 102.386 52.3741 102.532 52.4622 102.642C52.5503 102.745 52.6605 102.818 52.7926 102.862C52.9248 102.906 53.079 102.928 53.2553 102.928C53.5637 102.928 53.8097 102.895 53.9933 102.829C54.1842 102.756 54.3163 102.705 54.3898 102.675L54.588 103.522C54.4852 103.573 54.3053 103.635 54.0483 103.708C53.7913 103.789 53.4976 103.829 53.1671 103.829C52.778 103.829 52.4549 103.782 52.1978 103.686C51.9482 103.584 51.7462 103.434 51.592 103.236C51.4378 103.038 51.3277 102.796 51.2616 102.51C51.2028 102.217 51.1735 101.88 51.1735 101.499V96.3989L52.1978 96.223V97.9927Z" fill="white"/>
<path d="M56.6957 103.708H55.6713V97.9927H56.6957V103.708ZM56.178 96.9595C55.9944 96.9595 55.8365 96.9009 55.7043 96.7836C55.5795 96.6591 55.5171 96.4942 55.5171 96.289C55.5171 96.0838 55.5795 95.9226 55.7043 95.8054C55.8365 95.6808 55.9944 95.6185 56.178 95.6185C56.3615 95.6185 56.5157 95.6808 56.6406 95.8054C56.7728 95.9226 56.8388 96.0838 56.8388 96.289C56.8388 96.4942 56.7728 96.6591 56.6406 96.7836C56.5157 96.9009 56.3615 96.9595 56.178 96.9595Z" fill="white"/>
<path d="M58.4572 98.1576C58.6922 98.099 59.0043 98.0367 59.3935 97.9707C59.7827 97.9048 60.2306 97.8718 60.7373 97.8718C61.1926 97.8718 61.5708 97.9378 61.8718 98.0697C62.1729 98.1942 62.4115 98.3738 62.5878 98.6083C62.7714 98.8354 62.8999 99.1102 62.9733 99.4326C63.0467 99.7551 63.0834 100.11 63.0834 100.499V103.708H62.0591V100.719C62.0591 100.367 62.0334 100.066 61.982 99.8173C61.9379 99.5682 61.8608 99.3667 61.7507 99.2128C61.6405 99.0589 61.4937 98.949 61.3101 98.883C61.1265 98.8098 60.8989 98.7731 60.6272 98.7731C60.517 98.7731 60.4032 98.7768 60.2857 98.7841C60.1682 98.7915 60.0544 98.8024 59.9442 98.8171C59.8414 98.8244 59.746 98.8354 59.6579 98.8501C59.5771 98.8647 59.5183 98.8757 59.4816 98.883V103.708H58.4572V98.1576Z" fill="white"/>
<path d="M68.373 103.137C68.2848 103.195 68.1123 103.272 67.8553 103.368C67.6056 103.456 67.3119 103.5 66.9741 103.5C66.6289 103.5 66.3022 103.445 65.9938 103.335C65.6927 103.225 65.4283 103.056 65.2007 102.829C64.9731 102.595 64.7931 102.305 64.661 101.961C64.5288 101.616 64.4627 101.206 64.4627 100.73C64.4627 100.312 64.5251 99.9309 64.65 99.5865C64.7748 99.2348 64.9547 98.9343 65.1897 98.6852C65.432 98.4287 65.7257 98.2309 66.0709 98.0916C66.416 97.9451 66.8052 97.8718 67.2384 97.8718C67.7157 97.8718 68.1306 97.9084 68.4831 97.9817C68.8429 98.0477 69.144 98.11 69.3863 98.1686V103.269C69.3863 104.148 69.1587 104.786 68.7034 105.181C68.2481 105.577 67.5579 105.775 66.6326 105.775C66.2728 105.775 65.9313 105.746 65.6082 105.687C65.2925 105.628 65.0171 105.559 64.7821 105.478L64.9694 104.588C65.175 104.668 65.4247 104.738 65.7184 104.797C66.0195 104.863 66.3315 104.896 66.6546 104.896C67.2641 104.896 67.701 104.775 67.9654 104.533C68.2371 104.291 68.373 103.906 68.373 103.379V103.137ZM68.3619 98.894C68.2591 98.8647 68.1196 98.8391 67.9434 98.8171C67.7745 98.7878 67.5432 98.7731 67.2494 98.7731C66.6987 98.7731 66.2728 98.9527 65.9717 99.3117C65.678 99.6708 65.5311 100.147 65.5311 100.741C65.5311 101.07 65.5715 101.353 65.6523 101.587C65.7404 101.822 65.8542 102.016 65.9938 102.17C66.1406 102.323 66.3058 102.437 66.4894 102.51C66.6803 102.584 66.8749 102.62 67.0732 102.62C67.3449 102.62 67.5946 102.584 67.8222 102.51C68.0498 102.43 68.2298 102.338 68.3619 102.236V98.894Z" fill="white"/>
<path d="M72.2295 102.455C72.2368 102.514 72.2405 102.573 72.2405 102.631C72.2405 102.683 72.2405 102.737 72.2405 102.796C72.2405 103.258 72.1708 103.712 72.0312 104.159C71.8991 104.613 71.7155 105.046 71.4805 105.456L70.6874 105.203C70.871 104.83 70.9922 104.449 71.0509 104.06C71.1097 103.679 71.139 103.32 71.139 102.983C71.139 102.888 71.1354 102.796 71.128 102.708C71.128 102.62 71.1243 102.536 71.117 102.455H72.2295Z" fill="white"/>
<path d="M76.1677 99.8943C76.1677 99.2421 76.2632 98.6669 76.4541 98.1686C76.6524 97.6703 76.9167 97.2563 77.2472 96.9265C77.5849 96.5894 77.9741 96.3366 78.4147 96.1681C78.8627 95.9995 79.3363 95.9153 79.8356 95.9153C80.3276 95.9153 80.7902 95.9995 81.2235 96.1681C81.6641 96.3366 82.0496 96.5894 82.38 96.9265C82.7105 97.2563 82.9712 97.6703 83.1621 98.1686C83.3604 98.6669 83.4595 99.2421 83.4595 99.8943C83.4595 100.546 83.3604 101.122 83.1621 101.62C82.9712 102.118 82.7105 102.536 82.38 102.873C82.0496 103.203 81.6641 103.452 81.2235 103.62C80.7902 103.789 80.3276 103.873 79.8356 103.873C79.3363 103.873 78.8627 103.789 78.4147 103.62C77.9741 103.452 77.5849 103.203 77.2472 102.873C76.9167 102.536 76.6524 102.118 76.4541 101.62C76.2632 101.122 76.1677 100.546 76.1677 99.8943ZM77.2912 99.8943C77.2912 100.356 77.35 100.777 77.4675 101.158C77.5849 101.532 77.7502 101.851 77.9631 102.115C78.1834 102.378 78.4478 102.584 78.7562 102.73C79.0719 102.869 79.4244 102.939 79.8136 102.939C80.2028 102.939 80.5516 102.869 80.86 102.73C81.1684 102.584 81.4291 102.378 81.642 102.115C81.8623 101.851 82.0312 101.532 82.1487 101.158C82.2662 100.777 82.325 100.356 82.325 99.8943C82.325 99.4326 82.2662 99.0149 82.1487 98.6412C82.0312 98.2602 81.8623 97.9378 81.642 97.674C81.4291 97.4102 81.1684 97.2086 80.86 97.0694C80.5516 96.9229 80.2028 96.8496 79.8136 96.8496C79.4244 96.8496 79.0719 96.9229 78.7562 97.0694C78.4478 97.2086 78.1834 97.4102 77.9631 97.674C77.7502 97.9378 77.5849 98.2602 77.4675 98.6412C77.35 99.0149 77.2912 99.4326 77.2912 99.8943Z" fill="white"/>
<path d="M89.5432 103.544C89.3082 103.602 88.9961 103.664 88.6069 103.73C88.2251 103.796 87.7808 103.829 87.2741 103.829C86.8335 103.829 86.4627 103.767 86.1616 103.642C85.8606 103.511 85.6182 103.327 85.4347 103.093C85.2511 102.858 85.1189 102.584 85.0381 102.269C84.9574 101.946 84.917 101.591 84.917 101.202V97.9927H85.9413V100.982C85.9413 101.679 86.0515 102.177 86.2718 102.477C86.4921 102.778 86.8629 102.928 87.3843 102.928C87.4944 102.928 87.6082 102.924 87.7257 102.917C87.8432 102.91 87.9534 102.902 88.0562 102.895C88.159 102.88 88.2508 102.869 88.3315 102.862C88.4197 102.847 88.4821 102.833 88.5188 102.818V97.9927H89.5432V103.544Z" fill="white"/>
<path d="M93.4228 97.8718C93.5109 97.8718 93.61 97.8791 93.7202 97.8938C93.8377 97.9011 93.9515 97.9158 94.0616 97.9378C94.1718 97.9524 94.2709 97.9707 94.359 97.9927C94.4545 98.0074 94.5243 98.022 94.5683 98.0367L94.3921 98.927C94.3113 98.8977 94.1755 98.8647 93.9845 98.8281C93.801 98.7841 93.5623 98.7621 93.2686 98.7621C93.0777 98.7621 92.8867 98.7841 92.6958 98.8281C92.5122 98.8647 92.3911 98.8904 92.3323 98.905V103.708H91.3079V98.2345C91.5503 98.1466 91.8513 98.066 92.2111 97.9927C92.571 97.9121 92.9748 97.8718 93.4228 97.8718Z" fill="white"/>
<path d="M101.906 100.521C102.024 100.667 102.171 100.862 102.347 101.103C102.53 101.338 102.718 101.602 102.909 101.895C103.099 102.181 103.287 102.481 103.47 102.796C103.661 103.111 103.823 103.415 103.955 103.708H102.787C102.641 103.43 102.479 103.148 102.303 102.862C102.134 102.576 101.961 102.305 101.785 102.049C101.609 101.785 101.433 101.539 101.256 101.312C101.087 101.085 100.933 100.887 100.794 100.719C100.698 100.726 100.599 100.73 100.496 100.73C100.401 100.73 100.302 100.73 100.199 100.73H99.2406V103.708H98.1722V96.2011C98.4733 96.1278 98.8074 96.0802 99.1746 96.0582C99.5491 96.0289 99.8905 96.0142 100.199 96.0142C101.271 96.0142 102.086 96.2157 102.644 96.6188C103.21 97.0218 103.492 97.6227 103.492 98.4214C103.492 98.927 103.357 99.3594 103.085 99.7184C102.82 100.077 102.428 100.345 101.906 100.521ZM100.287 96.9485C99.8318 96.9485 99.483 96.9595 99.2406 96.9815V99.8503H100.001C100.368 99.8503 100.698 99.832 100.992 99.7954C101.286 99.7587 101.532 99.6891 101.73 99.5865C101.936 99.4839 102.093 99.341 102.204 99.1578C102.314 98.9673 102.369 98.7182 102.369 98.4104C102.369 98.1246 102.314 97.8865 102.204 97.6959C102.093 97.5054 101.943 97.3552 101.752 97.2453C101.568 97.1354 101.348 97.0584 101.091 97.0145C100.841 96.9705 100.573 96.9485 100.287 96.9485Z" fill="white"/>
<path d="M104.714 100.862C104.714 100.356 104.787 99.9163 104.934 99.5426C105.081 99.1615 105.276 98.8464 105.518 98.5973C105.76 98.3481 106.039 98.1613 106.355 98.0367C106.671 97.9121 106.994 97.8498 107.324 97.8498C108.095 97.8498 108.687 98.0916 109.098 98.5753C109.509 99.0516 109.715 99.7807 109.715 100.763C109.715 100.807 109.715 100.865 109.715 100.939C109.715 101.004 109.711 101.067 109.704 101.125H105.782C105.826 101.719 105.999 102.17 106.3 102.477C106.601 102.785 107.071 102.939 107.71 102.939C108.07 102.939 108.371 102.91 108.613 102.851C108.863 102.785 109.05 102.723 109.175 102.664L109.318 103.522C109.193 103.588 108.973 103.657 108.657 103.73C108.349 103.804 107.996 103.84 107.6 103.84C107.1 103.84 106.667 103.767 106.3 103.62C105.94 103.467 105.643 103.258 105.408 102.994C105.173 102.73 104.997 102.419 104.879 102.06C104.769 101.693 104.714 101.294 104.714 100.862ZM108.646 100.301C108.654 99.8393 108.536 99.4619 108.294 99.1688C108.059 98.8684 107.732 98.7182 107.313 98.7182C107.078 98.7182 106.869 98.7658 106.686 98.8611C106.509 98.949 106.359 99.0662 106.234 99.2128C106.109 99.3594 106.01 99.5279 105.937 99.7184C105.87 99.9089 105.826 100.103 105.804 100.301H108.646Z" fill="white"/>
<path d="M112.519 102.972C112.938 102.972 113.246 102.917 113.444 102.807C113.65 102.697 113.753 102.521 113.753 102.279C113.753 102.03 113.653 101.832 113.455 101.686C113.257 101.539 112.93 101.375 112.475 101.191C112.255 101.103 112.042 101.015 111.836 100.928C111.638 100.832 111.465 100.722 111.318 100.598C111.171 100.473 111.054 100.323 110.966 100.147C110.878 99.9712 110.834 99.7551 110.834 99.4986C110.834 98.993 111.021 98.5936 111.395 98.3005C111.77 98 112.28 97.8498 112.927 97.8498C113.088 97.8498 113.25 97.8608 113.411 97.8828C113.573 97.8975 113.723 97.9194 113.863 97.9488C114.002 97.9707 114.123 97.9964 114.226 98.0257C114.336 98.055 114.421 98.0807 114.48 98.1026L114.292 98.982C114.182 98.9234 114.01 98.8647 113.775 98.8061C113.54 98.7402 113.257 98.7072 112.927 98.7072C112.64 98.7072 112.39 98.7658 112.177 98.883C111.965 98.993 111.858 99.1688 111.858 99.4107C111.858 99.5352 111.88 99.6451 111.924 99.7404C111.976 99.8357 112.049 99.9236 112.144 100.004C112.247 100.077 112.372 100.147 112.519 100.213C112.666 100.279 112.842 100.349 113.048 100.422C113.319 100.524 113.562 100.627 113.775 100.73C113.988 100.825 114.167 100.939 114.314 101.07C114.469 101.202 114.586 101.364 114.667 101.554C114.748 101.737 114.788 101.964 114.788 102.236C114.788 102.763 114.59 103.162 114.193 103.434C113.804 103.705 113.246 103.84 112.519 103.84C112.012 103.84 111.616 103.796 111.329 103.708C111.043 103.628 110.848 103.566 110.746 103.522L110.933 102.642C111.05 102.686 111.238 102.752 111.495 102.84C111.752 102.928 112.093 102.972 112.519 102.972Z" fill="white"/>
<path d="M120.078 100.862C120.078 100.195 119.913 99.6818 119.583 99.3227C119.252 98.9637 118.812 98.7841 118.261 98.7841C117.952 98.7841 117.71 98.7951 117.534 98.8171C117.365 98.8391 117.229 98.8647 117.126 98.894V102.499C117.251 102.602 117.431 102.701 117.666 102.796C117.901 102.891 118.158 102.939 118.437 102.939C118.731 102.939 118.98 102.888 119.186 102.785C119.399 102.675 119.572 102.529 119.704 102.345C119.836 102.155 119.931 101.935 119.99 101.686C120.049 101.429 120.078 101.155 120.078 100.862ZM121.147 100.862C121.147 101.294 121.088 101.693 120.97 102.06C120.86 102.426 120.695 102.741 120.475 103.005C120.254 103.269 119.983 103.474 119.66 103.62C119.344 103.767 118.98 103.84 118.569 103.84C118.239 103.84 117.945 103.796 117.688 103.708C117.438 103.62 117.251 103.536 117.126 103.456V105.742H116.102V98.1686C116.344 98.11 116.645 98.0477 117.005 97.9817C117.372 97.9084 117.795 97.8718 118.272 97.8718C118.712 97.8718 119.109 97.9414 119.461 98.0807C119.814 98.2199 120.115 98.4177 120.365 98.6742C120.614 98.9307 120.805 99.2458 120.937 99.6195C121.077 99.9859 121.147 100.4 121.147 100.862Z" fill="white"/>
<path d="M127.644 100.851C127.644 101.305 127.578 101.715 127.446 102.082C127.314 102.448 127.126 102.763 126.884 103.027C126.649 103.291 126.366 103.496 126.036 103.642C125.705 103.782 125.346 103.851 124.956 103.851C124.567 103.851 124.207 103.782 123.877 103.642C123.546 103.496 123.26 103.291 123.018 103.027C122.783 102.763 122.599 102.448 122.467 102.082C122.335 101.715 122.269 101.305 122.269 100.851C122.269 100.404 122.335 99.9969 122.467 99.6305C122.599 99.2568 122.783 98.938 123.018 98.6742C123.26 98.4104 123.546 98.2089 123.877 98.0697C124.207 97.9231 124.567 97.8498 124.956 97.8498C125.346 97.8498 125.705 97.9231 126.036 98.0697C126.366 98.2089 126.649 98.4104 126.884 98.6742C127.126 98.938 127.314 99.2568 127.446 99.6305C127.578 99.9969 127.644 100.404 127.644 100.851ZM126.576 100.851C126.576 100.206 126.429 99.6964 126.135 99.3227C125.849 98.9417 125.456 98.7511 124.956 98.7511C124.457 98.7511 124.06 98.9417 123.767 99.3227C123.48 99.6964 123.337 100.206 123.337 100.851C123.337 101.495 123.48 102.008 123.767 102.389C124.06 102.763 124.457 102.95 124.956 102.95C125.456 102.95 125.849 102.763 126.135 102.389C126.429 102.008 126.576 101.495 126.576 100.851Z" fill="white"/>
<path d="M129.085 98.1576C129.32 98.099 129.632 98.0367 130.021 97.9707C130.411 97.9048 130.859 97.8718 131.365 97.8718C131.821 97.8718 132.199 97.9378 132.5 98.0697C132.801 98.1942 133.039 98.3738 133.216 98.6083C133.399 98.8354 133.528 99.1102 133.601 99.4326C133.675 99.7551 133.711 100.11 133.711 100.499V103.708H132.687V100.719C132.687 100.367 132.661 100.066 132.61 99.8173C132.566 99.5682 132.489 99.3667 132.379 99.2128C132.268 99.0589 132.122 98.949 131.938 98.883C131.754 98.8098 131.527 98.7731 131.255 98.7731C131.145 98.7731 131.031 98.7768 130.914 98.7841C130.796 98.7915 130.682 98.8024 130.572 98.8171C130.469 98.8244 130.374 98.8354 130.286 98.8501C130.205 98.8647 130.146 98.8757 130.11 98.883V103.708H129.085V98.1576Z" fill="white"/>
<path d="M136.743 102.972C137.161 102.972 137.47 102.917 137.668 102.807C137.874 102.697 137.976 102.521 137.976 102.279C137.976 102.03 137.877 101.832 137.679 101.686C137.481 101.539 137.154 101.375 136.699 101.191C136.478 101.103 136.266 101.015 136.06 100.928C135.862 100.832 135.689 100.722 135.542 100.598C135.395 100.473 135.278 100.323 135.19 100.147C135.102 99.9712 135.058 99.7551 135.058 99.4986C135.058 98.993 135.245 98.5936 135.619 98.3005C135.994 98 136.504 97.8498 137.15 97.8498C137.312 97.8498 137.473 97.8608 137.635 97.8828C137.797 97.8975 137.947 97.9194 138.087 97.9488C138.226 97.9707 138.347 97.9964 138.45 98.0257C138.56 98.055 138.645 98.0807 138.703 98.1026L138.516 98.982C138.406 98.9234 138.234 98.8647 137.999 98.8061C137.764 98.7402 137.481 98.7072 137.15 98.7072C136.864 98.7072 136.614 98.7658 136.401 98.883C136.188 98.993 136.082 99.1688 136.082 99.4107C136.082 99.5352 136.104 99.6451 136.148 99.7404C136.199 99.8357 136.273 99.9236 136.368 100.004C136.471 100.077 136.596 100.147 136.743 100.213C136.89 100.279 137.066 100.349 137.272 100.422C137.543 100.524 137.786 100.627 137.999 100.73C138.211 100.825 138.391 100.939 138.538 101.07C138.692 101.202 138.81 101.364 138.891 101.554C138.971 101.737 139.012 101.964 139.012 102.236C139.012 102.763 138.814 103.162 138.417 103.434C138.028 103.705 137.47 103.84 136.743 103.84C136.236 103.84 135.84 103.796 135.553 103.708C135.267 103.628 135.072 103.566 134.969 103.522L135.157 102.642C135.274 102.686 135.461 102.752 135.718 102.84C135.975 102.928 136.317 102.972 136.743 102.972Z" fill="white"/>
<path d="M141.35 103.708H140.326V97.9927H141.35V103.708ZM140.833 96.9595C140.649 96.9595 140.491 96.9009 140.359 96.7836C140.234 96.6591 140.172 96.4942 140.172 96.289C140.172 96.0838 140.234 95.9226 140.359 95.8054C140.491 95.6808 140.649 95.6185 140.833 95.6185C141.016 95.6185 141.17 95.6808 141.295 95.8054C141.427 95.9226 141.493 96.0838 141.493 96.289C141.493 96.4942 141.427 96.6591 141.295 96.7836C141.17 96.9009 141.016 96.9595 140.833 96.9595Z" fill="white"/>
<path d="M144.136 98.2455C144.261 98.1649 144.448 98.0807 144.698 97.9927C144.955 97.9048 145.249 97.8608 145.579 97.8608C145.99 97.8608 146.354 97.9341 146.67 98.0807C146.993 98.2272 147.264 98.4324 147.485 98.6962C147.705 98.96 147.87 99.2751 147.98 99.6415C148.098 100.008 148.157 100.411 148.157 100.851C148.157 101.312 148.087 101.73 147.947 102.104C147.815 102.47 147.624 102.781 147.375 103.038C147.125 103.294 146.824 103.492 146.471 103.631C146.119 103.771 145.722 103.84 145.282 103.84C144.804 103.84 144.382 103.807 144.015 103.741C143.648 103.675 143.347 103.609 143.112 103.544V95.3547L144.136 95.1788V98.2455ZM144.136 102.818C144.239 102.847 144.382 102.877 144.566 102.906C144.757 102.928 144.992 102.939 145.271 102.939C145.821 102.939 146.262 102.759 146.592 102.4C146.923 102.034 147.088 101.517 147.088 100.851C147.088 100.557 147.059 100.283 147 100.026C146.941 99.7697 146.846 99.5499 146.714 99.3667C146.581 99.1762 146.409 99.0296 146.196 98.927C145.99 98.8171 145.741 98.7621 145.447 98.7621C145.168 98.7621 144.911 98.8098 144.676 98.905C144.441 99.0003 144.261 99.0992 144.136 99.2018V102.818Z" fill="white"/>
<path d="M150.622 103.708H149.598V97.9927H150.622V103.708ZM150.105 96.9595C149.921 96.9595 149.763 96.9009 149.631 96.7836C149.506 96.6591 149.444 96.4942 149.444 96.289C149.444 96.0838 149.506 95.9226 149.631 95.8054C149.763 95.6808 149.921 95.6185 150.105 95.6185C150.288 95.6185 150.442 95.6808 150.567 95.8054C150.7 95.9226 150.766 96.0838 150.766 96.289C150.766 96.4942 150.7 96.6591 150.567 96.7836C150.442 96.9009 150.288 96.9595 150.105 96.9595Z" fill="white"/>
<path d="M154.102 103.818C153.471 103.804 153.023 103.668 152.758 103.412C152.494 103.155 152.362 102.756 152.362 102.214V95.3547L153.386 95.1788V102.049C153.386 102.217 153.401 102.356 153.43 102.466C153.46 102.576 153.508 102.664 153.574 102.73C153.64 102.796 153.728 102.847 153.838 102.884C153.948 102.913 154.084 102.939 154.245 102.961L154.102 103.818Z" fill="white"/>
<path d="M156.42 103.708H155.396V97.9927H156.42V103.708ZM155.903 96.9595C155.719 96.9595 155.561 96.9009 155.429 96.7836C155.304 96.6591 155.242 96.4942 155.242 96.289C155.242 96.0838 155.304 95.9226 155.429 95.8054C155.561 95.6808 155.719 95.6185 155.903 95.6185C156.086 95.6185 156.24 95.6808 156.365 95.8054C156.497 95.9226 156.563 96.0838 156.563 96.289C156.563 96.4942 156.497 96.6591 156.365 96.7836C156.24 96.9009 156.086 96.9595 155.903 96.9595Z" fill="white"/>
<path d="M159.14 97.9927H161.31V98.8501H159.14V101.488C159.14 101.774 159.162 102.012 159.206 102.203C159.25 102.386 159.316 102.532 159.404 102.642C159.493 102.745 159.603 102.818 159.735 102.862C159.867 102.906 160.021 102.928 160.198 102.928C160.506 102.928 160.752 102.895 160.935 102.829C161.126 102.756 161.259 102.705 161.332 102.675L161.53 103.522C161.428 103.573 161.248 103.635 160.991 103.708C160.734 103.789 160.44 103.829 160.109 103.829C159.72 103.829 159.397 103.782 159.14 103.686C158.89 103.584 158.688 103.434 158.534 103.236C158.38 103.038 158.27 102.796 158.204 102.51C158.145 102.217 158.116 101.88 158.116 101.499V96.3989L159.14 96.223V97.9927Z" fill="white"/>
<path d="M161.942 104.775C162.022 104.811 162.125 104.844 162.25 104.874C162.382 104.91 162.511 104.929 162.636 104.929C163.039 104.929 163.355 104.837 163.583 104.654C163.81 104.478 164.016 104.188 164.2 103.785C163.737 102.906 163.304 101.975 162.9 100.993C162.503 100.004 162.173 99.004 161.909 97.9927H163.01C163.091 98.3225 163.186 98.6779 163.296 99.0589C163.414 99.44 163.542 99.832 163.682 100.235C163.821 100.638 163.972 101.041 164.134 101.444C164.295 101.847 164.464 102.236 164.64 102.609C164.919 101.84 165.162 101.078 165.367 100.323C165.573 99.5682 165.767 98.7915 165.951 97.9927H167.008C166.744 99.0699 166.45 100.107 166.127 101.103C165.804 102.093 165.455 103.02 165.081 103.884C164.934 104.214 164.78 104.496 164.618 104.731C164.464 104.972 164.291 105.17 164.101 105.324C163.91 105.478 163.693 105.592 163.451 105.665C163.216 105.738 162.948 105.775 162.647 105.775C162.566 105.775 162.481 105.768 162.393 105.753C162.305 105.746 162.217 105.731 162.129 105.709C162.048 105.694 161.971 105.676 161.898 105.654C161.831 105.632 161.784 105.614 161.754 105.599L161.942 104.775Z" fill="white"/>
<path d="M169 103.115C169 103.313 168.934 103.485 168.802 103.631C168.67 103.778 168.49 103.851 168.262 103.851C168.034 103.851 167.854 103.778 167.722 103.631C167.59 103.485 167.524 103.313 167.524 103.115C167.524 102.917 167.59 102.745 167.722 102.598C167.854 102.452 168.034 102.378 168.262 102.378C168.49 102.378 168.67 102.452 168.802 102.598C168.934 102.745 169 102.917 169 103.115Z" fill="white"/>
<path d="M160.11 87.7165C158.85 87.7165 157.72 87.4724 156.717 86.9841C155.741 86.4701 154.905 85.7761 154.211 84.9023C153.543 84.0285 153.029 83.0262 152.669 81.8953C152.335 80.7388 152.168 79.5052 152.168 78.1944C152.194 76.8837 152.387 75.6629 152.746 74.5321C153.106 73.3756 153.62 72.3732 154.288 71.5251C154.982 70.6513 155.818 69.9702 156.794 69.4819C157.771 68.9936 158.876 68.7494 160.11 68.7494C161.292 68.7494 162.397 68.9936 163.425 69.4819C164.479 69.9702 165.404 70.6513 166.201 71.5251C167.023 72.3732 167.666 73.3756 168.128 74.5321C168.591 75.6629 168.822 76.8709 168.822 78.1559C168.822 79.4923 168.591 80.7517 168.128 81.9339C167.666 83.0904 167.036 84.1056 166.239 84.9794C165.443 85.8275 164.517 86.4958 163.464 86.9841C162.41 87.4724 161.292 87.7165 160.11 87.7165ZM159.493 83.2061C160.392 83.2061 161.202 83.0005 161.922 82.5893C162.641 82.1523 163.207 81.5612 163.618 80.8159C164.055 80.0706 164.273 79.2225 164.273 78.2715C164.273 77.2949 164.055 76.4339 163.618 75.6886C163.207 74.9176 162.641 74.3265 161.922 73.9153C161.202 73.4784 160.392 73.2599 159.493 73.2599C158.619 73.2599 157.822 73.4784 157.103 73.9153C156.383 74.3522 155.805 74.9433 155.368 75.6886C154.957 76.4339 154.751 77.2949 154.751 78.2715C154.751 79.2225 154.957 80.0706 155.368 80.8159C155.805 81.5612 156.383 82.1523 157.103 82.5893C157.822 83.0005 158.619 83.2061 159.493 83.2061ZM152.361 87.7551C151.667 87.7551 151.153 87.6394 150.819 87.4081C150.485 87.2025 150.279 86.9327 150.202 86.5986C150.125 86.2388 150.086 85.8404 150.086 85.4035V62.4271C150.086 61.9902 150.125 61.6047 150.202 61.2705C150.279 60.9107 150.485 60.628 150.819 60.4224C151.153 60.2168 151.667 60.114 152.361 60.114C153.081 60.114 153.595 60.2168 153.903 60.4224C154.211 60.628 154.404 60.9107 154.481 61.2705C154.558 61.6304 154.597 62.0159 154.597 62.4271V86.1745C154.494 86.7399 154.276 87.1383 153.942 87.3696C153.633 87.6266 153.106 87.7551 152.361 87.7551Z" fill="white" stroke="white" stroke-width="0.2"/>
<path d="M138.596 87.9869C136.926 87.9869 135.461 87.7171 134.202 87.1773C132.968 86.6376 131.927 85.9052 131.079 84.9799C130.256 84.029 129.627 82.9753 129.19 81.8188C128.779 80.6365 128.573 79.4157 128.573 78.1564C128.573 76.306 128.997 74.6611 129.845 73.2219C130.693 71.7826 131.863 70.6518 133.353 69.8294C134.87 69.007 136.605 68.5958 138.558 68.5958C139.946 68.5958 141.166 68.8142 142.22 69.2511C143.274 69.688 144.148 70.2663 144.842 70.9859C145.561 71.6798 146.101 72.4509 146.461 73.299C146.846 74.1471 147.039 74.9695 147.039 75.7662C147.039 77.1284 146.705 78.1179 146.037 78.7347C145.394 79.3515 144.585 79.6599 143.608 79.6599H133.43C133.456 80.5337 133.726 81.2919 134.24 81.9344C134.78 82.5769 135.448 83.0781 136.245 83.4379C137.067 83.772 137.902 83.9391 138.751 83.9391C139.393 83.9391 139.958 83.9005 140.447 83.8234C140.961 83.7463 141.398 83.6564 141.758 83.5536C142.117 83.425 142.426 83.2965 142.683 83.168C142.965 83.0395 143.222 82.9239 143.454 82.8211C143.685 82.7183 143.904 82.654 144.109 82.6283C144.392 82.6026 144.675 82.6669 144.957 82.8211C145.24 82.9753 145.471 83.2451 145.651 83.6307C145.805 83.8877 145.908 84.1318 145.96 84.3631C146.037 84.5687 146.075 84.7743 146.075 84.9799C146.075 85.494 145.767 85.9823 145.15 86.4449C144.533 86.8818 143.659 87.2416 142.529 87.5243C141.423 87.8327 140.113 87.9869 138.596 87.9869ZM133.43 76.9228H141.333C141.77 76.9228 142.104 76.8585 142.336 76.73C142.567 76.5758 142.683 76.2674 142.683 75.8048C142.683 75.2137 142.503 74.6868 142.143 74.2242C141.783 73.7359 141.295 73.3632 140.678 73.1062C140.061 72.8235 139.342 72.6822 138.519 72.6822C137.568 72.6822 136.707 72.8749 135.936 73.2604C135.165 73.6202 134.548 74.1214 134.086 74.7639C133.649 75.4064 133.43 76.1261 133.43 76.9228Z" fill="white" stroke="white" stroke-width="0.2"/>
<path d="M104.106 87.6409C103.592 87.6409 103.181 87.551 102.872 87.3711C102.564 87.1654 102.333 86.9341 102.179 86.6771C102.05 86.4201 101.96 86.2017 101.909 86.0218L94.3527 63.8935C94.0957 63.0711 94.0571 62.4543 94.237 62.043C94.4169 61.6061 94.9438 61.2463 95.8176 60.9636C96.4087 60.758 96.8842 60.6681 97.244 60.6938C97.6038 60.7195 97.8994 60.8737 98.1307 61.1564C98.3877 61.4134 98.6062 61.8246 98.7861 62.39L104.337 79.1982L109.31 62.5442C109.388 62.2872 109.49 62.0302 109.619 61.7732C109.773 61.4905 110.004 61.2592 110.313 61.0793C110.621 60.8994 111.045 60.8094 111.585 60.8094C112.202 60.8094 112.664 60.9122 112.973 61.1178C113.281 61.3234 113.5 61.5547 113.628 61.8117C113.782 62.043 113.885 62.2615 113.937 62.4671L118.91 79.3139L124.5 62.4286C124.679 61.8374 124.885 61.4005 125.116 61.1178C125.373 60.8351 125.695 60.6809 126.08 60.6552C126.466 60.6038 126.941 60.6809 127.507 60.8865C128.098 61.0921 128.522 61.3234 128.779 61.5804C129.036 61.8117 129.164 62.1201 129.164 62.5057C129.164 62.8655 129.074 63.3281 128.894 63.8935L121.377 86.0603C121.326 86.2145 121.223 86.4201 121.069 86.6771C120.94 86.9341 120.722 87.1654 120.413 87.3711C120.105 87.551 119.681 87.6409 119.141 87.6409C118.601 87.6409 118.177 87.5253 117.869 87.294C117.56 87.0626 117.329 86.8056 117.175 86.5229C117.021 86.2402 116.918 86.0346 116.866 85.9061L111.624 68.9437L106.381 85.8676C106.329 86.0475 106.226 86.2788 106.072 86.5615C105.944 86.8442 105.725 87.1012 105.417 87.3325C105.108 87.5381 104.672 87.6409 104.106 87.6409Z" fill="white" stroke="white" stroke-width="0.2"/>
<path d="M84.0604 87.9873C83.3921 87.9873 82.6854 87.9102 81.9401 87.756C81.1947 87.6275 80.4751 87.4347 79.7812 87.1777C79.0873 86.895 78.4833 86.5737 77.9693 86.2139C77.481 85.8284 77.1726 85.4044 77.0441 84.9417C76.9413 84.6847 76.9027 84.4406 76.9284 84.2093C76.9541 83.9523 77.0312 83.6953 77.1597 83.4383C77.2882 83.1555 77.481 82.8728 77.738 82.5901C77.9693 82.3074 78.2006 82.1532 78.4319 82.1275C78.6889 82.0761 79.0102 82.1532 79.3957 82.3588C79.7298 82.4873 80.0896 82.6544 80.4751 82.86C80.8863 83.0656 81.2975 83.2712 81.7088 83.4768C82.1457 83.6824 82.5826 83.8495 83.0195 83.978C83.4821 84.1065 83.9319 84.1707 84.3688 84.1707C85.3197 84.1707 86.0779 84.0165 86.6433 83.7081C87.2087 83.374 87.4914 82.9114 87.4914 82.3203C87.4914 81.9862 87.4015 81.6906 87.2215 81.4336C87.0416 81.1766 86.7975 80.971 86.4891 80.8168C86.2064 80.6369 85.8594 80.4827 85.4482 80.3542C85.0627 80.2 84.6386 80.0715 84.176 79.9687C83.7391 79.8402 83.2765 79.6988 82.7882 79.5446C82.1457 79.3647 81.5031 79.1462 80.8606 78.8892C80.2181 78.6322 79.6399 78.2981 79.1258 77.8869C78.6375 77.4757 78.2392 76.9617 77.9308 76.3449C77.6223 75.7281 77.4681 74.957 77.4681 74.0318C77.4681 72.8753 77.738 71.8986 78.2777 71.1019C78.8431 70.2795 79.6527 69.6498 80.7064 69.2129C81.7602 68.776 83.0323 68.5576 84.523 68.5576C85.037 68.5576 85.5253 68.5961 85.9879 68.6732C86.4762 68.7503 86.9388 68.866 87.3758 69.0202C87.8384 69.1487 88.2753 69.3157 88.6865 69.5213C89.1234 69.7269 89.5346 69.9582 89.9201 70.2153C90.5626 70.5751 90.8967 70.9991 90.9224 71.4874C90.9481 71.9501 90.7682 72.4512 90.3827 72.9909C90.1 73.3507 89.8173 73.6077 89.5346 73.7619C89.2519 73.8905 88.9563 73.8905 88.6479 73.7619C88.2367 73.5563 87.787 73.3379 87.2987 73.1066C86.836 72.8496 86.3477 72.6311 85.8337 72.4512C85.3454 72.2713 84.8314 72.1814 84.2917 72.1814C83.7777 72.1814 83.315 72.2585 82.9038 72.4127C82.4926 72.5669 82.1842 72.7853 81.9786 73.068C81.773 73.3507 81.6702 73.6848 81.6702 74.0704C81.6702 74.4302 81.773 74.7257 81.9786 74.957C82.1842 75.1883 82.4541 75.3811 82.7882 75.5353C83.1223 75.6895 83.5206 75.8309 83.9833 75.9594C84.4459 76.0622 84.9342 76.165 85.4482 76.2678C86.1678 76.422 86.9003 76.6147 87.6456 76.846C88.3909 77.0773 89.072 77.3986 89.6888 77.8098C90.3313 78.221 90.8453 78.7736 91.2309 79.4675C91.6164 80.1357 91.8091 81.0095 91.8091 82.089C91.8091 83.9651 91.1152 85.4172 89.7274 86.4452C88.3652 87.4733 86.4762 87.9873 84.0604 87.9873Z" fill="white" stroke="white" stroke-width="0.2"/>
<path d="M65.8617 87.9867C64.1912 87.9867 62.7262 87.7168 61.4669 87.1771C60.2333 86.6374 59.1924 85.9049 58.3443 84.9797C57.5218 84.0288 56.8922 82.9751 56.4553 81.8185C56.0441 80.6363 55.8384 79.4155 55.8384 78.1562C55.8384 76.3057 56.2625 74.6609 57.1106 73.2217C57.9587 71.7824 59.1281 70.6516 60.6188 69.8292C62.1351 69.0067 63.8699 68.5955 65.8232 68.5955C67.211 68.5955 68.4318 68.814 69.4855 69.2509C70.5392 69.6878 71.4131 70.2661 72.107 70.9857C72.8266 71.6796 73.3663 72.4506 73.7261 73.2988C74.1116 74.1469 74.3044 74.9693 74.3044 75.766C74.3044 77.1282 73.9703 78.1176 73.3021 78.7345C72.6595 79.3513 71.85 79.6597 70.8733 79.6597H60.6959C60.7216 80.5335 60.9914 81.2917 61.5054 81.9342C62.0452 82.5767 62.7134 83.0779 63.5101 83.4377C64.3325 83.7718 65.1678 83.9388 66.0159 83.9388C66.6584 83.9388 67.2238 83.9003 67.7122 83.8232C68.2262 83.7461 68.6631 83.6561 69.0229 83.5533C69.3827 83.4248 69.6911 83.2963 69.9481 83.1678C70.2308 83.0393 70.4878 82.9237 70.7191 82.8209C70.9504 82.7181 71.1689 82.6538 71.3745 82.6281C71.6572 82.6024 71.9399 82.6667 72.2226 82.8209C72.5053 82.9751 72.7366 83.2449 72.9165 83.6304C73.0707 83.8874 73.1736 84.1316 73.225 84.3629C73.3021 84.5685 73.3406 84.7741 73.3406 84.9797C73.3406 85.4937 73.0322 85.982 72.4154 86.4447C71.7986 86.8816 70.9247 87.2414 69.7939 87.5241C68.6888 87.8325 67.378 87.9867 65.8617 87.9867ZM60.6959 76.9226H68.5988C69.0357 76.9226 69.3699 76.8583 69.6012 76.7298C69.8325 76.5756 69.9481 76.2672 69.9481 75.8046C69.9481 75.2135 69.7682 74.6866 69.4084 74.224C69.0486 73.7357 68.5603 73.363 67.9435 73.106C67.3266 72.8233 66.607 72.6819 65.7846 72.6819C64.8337 72.6819 63.9727 72.8747 63.2017 73.2602C62.4307 73.62 61.8138 74.1212 61.3512 74.7637C60.9143 75.4062 60.6959 76.1258 60.6959 76.9226Z" fill="white" stroke="white" stroke-width="0.2"/>
<path d="M52.0992 87.7567C51.1482 87.7567 50.3001 87.6925 49.5548 87.564C48.8352 87.4355 48.2055 87.217 47.6658 86.9086C47.1518 86.6002 46.7277 86.189 46.3936 85.675C46.0595 85.1353 45.8025 84.4799 45.6226 83.7089C45.4684 82.9379 45.3913 82.0126 45.3913 80.9332V62.3516C45.3913 61.9147 45.4298 61.5292 45.5069 61.1951C45.6098 60.8353 45.8154 60.5526 46.1238 60.347C46.4579 60.1157 46.9847 60 47.7044 60C48.424 60 48.938 60.1028 49.2464 60.3084C49.5805 60.514 49.7861 60.7967 49.8632 61.1565C49.966 61.4906 50.0174 61.8762 50.0174 62.3131V80.7405C50.0174 81.2288 50.0431 81.64 50.0945 81.9741C50.1716 82.2825 50.2873 82.5395 50.4415 82.7451C50.6214 82.925 50.8398 83.0535 51.0968 83.1306C51.3796 83.2077 51.7137 83.2463 52.0992 83.2463C52.4333 83.2463 52.7288 83.2848 52.9858 83.3619C53.2686 83.439 53.487 83.6318 53.6412 83.9402C53.8211 84.2486 53.9111 84.7498 53.9111 85.4437C53.9111 86.1633 53.8211 86.6902 53.6412 87.0243C53.487 87.3584 53.2686 87.564 52.9858 87.6411C52.7031 87.7182 52.4076 87.7567 52.0992 87.7567Z" fill="white" stroke="white" stroke-width="0.2"/>
<path d="M38.9371 87.7562C38.2432 87.7562 37.7291 87.6406 37.395 87.4093C37.0609 87.2037 36.8553 86.9338 36.7782 86.5997C36.7011 86.2399 36.6626 85.8415 36.6626 85.4046V71.0636C36.6626 70.6524 36.7011 70.2798 36.7782 69.9457C36.881 69.5858 37.0866 69.3031 37.395 69.0975C37.7291 68.8919 38.256 68.7891 38.9756 68.7891C39.6952 68.7891 40.2093 68.8919 40.5177 69.0975C40.8518 69.3031 41.0574 69.5858 41.1345 69.9457C41.2116 70.3055 41.2501 70.7038 41.2501 71.1407V85.4432C41.2501 85.8801 41.2116 86.2784 41.1345 86.6382C41.0574 86.9724 40.8518 87.2422 40.5177 87.4478C40.2093 87.6534 39.6824 87.7562 38.9371 87.7562ZM38.9371 65.0497C38.1918 65.0497 37.6392 64.9469 37.2794 64.7413C36.9453 64.51 36.7268 64.2016 36.624 63.816C36.5469 63.4305 36.5084 63.0065 36.5084 62.5439C36.5084 62.0555 36.5469 61.6315 36.624 61.2717C36.7268 60.9119 36.9581 60.6292 37.3179 60.4236C37.6777 60.1923 38.2303 60.0766 38.9756 60.0766C39.7466 60.0766 40.2992 60.1923 40.6333 60.4236C40.9674 60.6549 41.1859 60.9633 41.2887 61.3488C41.3915 61.7086 41.4429 62.1327 41.4429 62.621C41.4429 63.0579 41.3915 63.4691 41.2887 63.8546C41.1859 64.2401 40.9674 64.5357 40.6333 64.7413C40.2992 64.9469 39.7338 65.0497 38.9371 65.0497Z" fill="white" stroke="white" stroke-width="0.2"/>
<path d="M7.27451 87.7173C6.60629 87.7173 6.10513 87.6145 5.77102 87.4089C5.43691 87.2033 5.21846 86.9206 5.11565 86.5608C5.03855 86.201 5 85.8026 5 85.3657V63.1218C5 62.7105 5.03855 62.3379 5.11565 62.0038C5.21846 61.644 5.43691 61.3613 5.77102 61.1557C6.10513 60.9243 6.63199 60.8087 7.35161 60.8087C7.89133 60.8087 8.28969 60.8472 8.54669 60.9243C8.8294 60.9757 9.04786 61.0657 9.20206 61.1942C9.35626 61.297 9.51047 61.4384 9.66467 61.6183L19.0711 74.7642H18.1844L27.6294 61.5797C27.8094 61.3741 27.9893 61.2199 28.1692 61.1171C28.3491 61.0143 28.5804 60.9372 28.8631 60.8858C29.1458 60.8344 29.5185 60.8087 29.9811 60.8087C30.675 60.8087 31.189 60.9243 31.5231 61.1557C31.8572 61.3613 32.0628 61.644 32.1399 62.0038C32.2427 62.3636 32.2941 62.7619 32.2941 63.1989V85.4428C32.2941 85.8283 32.2427 86.201 32.1399 86.5608C32.0628 86.9206 31.8572 87.2033 31.5231 87.4089C31.189 87.6145 30.6621 87.7173 29.9425 87.7173C29.2486 87.7173 28.7346 87.6016 28.4005 87.3703C28.0664 87.1647 27.8479 86.882 27.7451 86.5222C27.668 86.1624 27.6294 85.7769 27.6294 85.3657V68.8273L20.6132 78.9662C20.5361 79.069 20.4204 79.2104 20.2662 79.3903C20.112 79.5445 19.9064 79.6858 19.6494 79.8143C19.3924 79.9428 19.0454 80.0071 18.6085 80.0071C18.1973 80.0071 17.8632 79.9428 17.6062 79.8143C17.3492 79.6858 17.1436 79.5445 16.9894 79.3903C16.8609 79.2361 16.7324 79.0819 16.6039 78.9277L9.62612 68.8273V85.4428C9.62612 85.8283 9.57472 86.201 9.47192 86.5608C9.39482 86.9206 9.18921 87.2033 8.8551 87.4089C8.52099 87.6145 7.99413 87.7173 7.27451 87.7173Z" fill="white" stroke="white" stroke-width="0.2"/>
</svg>
