<svg width="180" height="110" viewBox="0 0 180 110" fill="none" xmlns="http://www.w3.org/2000/svg">
<path d="M81.7656 81.8079C81.7656 81.0872 82.3499 80.5029 83.0706 80.5029H173.112C173.832 80.5029 174.417 81.0872 174.417 81.8079V81.8079C174.417 82.5286 173.832 83.1128 173.112 83.1128H83.0706C82.3499 83.1128 81.7656 82.5286 81.7656 81.8079V81.8079Z" fill="#FFBB00"/>
<path d="M8.39036 72.1849V69.026C7.86656 68.2154 7.37314 67.4162 6.91007 66.6284C6.44701 65.8405 6.01051 65.0679 5.60059 64.3103H6.89868C7.18715 64.9315 7.50978 65.564 7.86656 66.2079C8.22335 66.8443 8.59153 67.4579 8.97109 68.0488C9.34306 67.4579 9.70743 66.8443 10.0642 66.2079C10.421 65.564 10.7474 64.9315 11.0435 64.3103H12.2733C11.8633 65.0679 11.4268 65.8405 10.9638 66.6284C10.5007 67.4086 10.0111 68.2003 9.49488 69.0033V72.1849H8.39036Z" fill="#27235C"/>
<path d="M17.9192 69.2305C17.9192 69.7002 17.8509 70.1244 17.7142 70.5032C17.5776 70.8819 17.384 71.2077 17.1335 71.4804C16.8906 71.7531 16.5983 71.9652 16.2567 72.1167C15.9151 72.2607 15.5431 72.3326 15.1408 72.3326C14.7385 72.3326 14.3665 72.2607 14.0249 72.1167C13.6833 71.9652 13.3872 71.7531 13.1367 71.4804C12.8938 71.2077 12.704 70.8819 12.5674 70.5032C12.4307 70.1244 12.3624 69.7002 12.3624 69.2305C12.3624 68.7684 12.4307 68.348 12.5674 67.9692C12.704 67.5829 12.8938 67.2533 13.1367 66.9806C13.3872 66.7079 13.6833 66.4996 14.0249 66.3557C14.3665 66.2042 14.7385 66.1284 15.1408 66.1284C15.5431 66.1284 15.9151 66.2042 16.2567 66.3557C16.5983 66.4996 16.8906 66.7079 17.1335 66.9806C17.384 67.2533 17.5776 67.5829 17.7142 67.9692C17.8509 68.348 17.9192 68.7684 17.9192 69.2305ZM16.8147 69.2305C16.8147 68.5639 16.6628 68.0374 16.3592 67.6511C16.0631 67.2571 15.657 67.0602 15.1408 67.0602C14.6246 67.0602 14.2147 67.2571 13.911 67.6511C13.615 68.0374 13.4669 68.5639 13.4669 69.2305C13.4669 69.8971 13.615 70.4274 13.911 70.8213C14.2147 71.2077 14.6246 71.4009 15.1408 71.4009C15.657 71.4009 16.0631 71.2077 16.3592 70.8213C16.6628 70.4274 16.8147 69.8971 16.8147 69.2305Z" fill="#27235C"/>
<path d="M24.1232 72.0145C23.8803 72.0751 23.5577 72.1395 23.1553 72.2076C22.7606 72.2758 22.3013 72.3099 21.7775 72.3099C21.3221 72.3099 20.9387 72.2455 20.6275 72.1167C20.3162 71.9804 20.0657 71.791 19.8759 71.5486C19.6861 71.3062 19.5495 71.0221 19.466 70.6963C19.3825 70.363 19.3407 69.9956 19.3407 69.5941V66.2761H20.3997V69.3669C20.3997 70.0865 20.5136 70.6017 20.7413 70.9122C20.9691 71.2228 21.3524 71.3781 21.8914 71.3781C22.0053 71.3781 22.1229 71.3743 22.2444 71.3668C22.3658 71.3592 22.4797 71.3516 22.586 71.344C22.6923 71.3289 22.7872 71.3175 22.8707 71.31C22.9618 71.2948 23.0263 71.2797 23.0642 71.2645V66.2761H24.1232V72.0145Z" fill="#27235C"/>
<path d="M28.1339 66.1511C28.225 66.1511 28.3274 66.1587 28.4413 66.1739C28.5628 66.1814 28.6804 66.1966 28.7943 66.2193C28.9082 66.2345 29.0107 66.2534 29.1018 66.2761C29.2004 66.2913 29.2726 66.3064 29.3181 66.3216L29.1359 67.242C29.0524 67.2117 28.912 67.1776 28.7146 67.1397C28.5248 67.0943 28.2781 67.0715 27.9745 67.0715C27.7771 67.0715 27.5797 67.0943 27.3823 67.1397C27.1926 67.1776 27.0673 67.2041 27.0066 67.2193V72.1849H25.9476V66.5261C26.1981 66.4352 26.5093 66.3519 26.8813 66.2761C27.2533 66.1928 27.6708 66.1511 28.1339 66.1511Z" fill="#27235C"/>
<path d="M38.0084 64.3103H39.1129V72.1849H38.0084V68.5487H34.1482V72.1849H33.0437V64.3103H34.1482V67.5942H38.0084V64.3103Z" fill="#27235C"/>
<path d="M46.2306 69.2305C46.2306 69.7002 46.1622 70.1244 46.0256 70.5032C45.889 70.8819 45.6954 71.2077 45.4449 71.4804C45.2019 71.7531 44.9097 71.9652 44.5681 72.1167C44.2265 72.2607 43.8545 72.3326 43.4522 72.3326C43.0498 72.3326 42.6779 72.2607 42.3363 72.1167C41.9947 71.9652 41.6986 71.7531 41.4481 71.4804C41.2052 71.2077 41.0154 70.8819 40.8788 70.5032C40.7421 70.1244 40.6738 69.7002 40.6738 69.2305C40.6738 68.7684 40.7421 68.348 40.8788 67.9692C41.0154 67.5829 41.2052 67.2533 41.4481 66.9806C41.6986 66.7079 41.9947 66.4996 42.3363 66.3557C42.6779 66.2042 43.0498 66.1284 43.4522 66.1284C43.8545 66.1284 44.2265 66.2042 44.5681 66.3557C44.9097 66.4996 45.2019 66.7079 45.4449 66.9806C45.6954 67.2533 45.889 67.5829 46.0256 67.9692C46.1622 68.348 46.2306 68.7684 46.2306 69.2305ZM45.126 69.2305C45.126 68.5639 44.9742 68.0374 44.6706 67.6511C44.3745 67.2571 43.9684 67.0602 43.4522 67.0602C42.936 67.0602 42.526 67.2571 42.2224 67.6511C41.9263 68.0374 41.7783 68.5639 41.7783 69.2305C41.7783 69.8971 41.9263 70.4274 42.2224 70.8213C42.526 71.2077 42.936 71.4009 43.4522 71.4009C43.9684 71.4009 44.3745 71.2077 44.6706 70.8213C44.9742 70.4274 45.126 69.8971 45.126 69.2305Z" fill="#27235C"/>
<path d="M49.0983 71.4236C49.531 71.4236 49.8498 71.3668 50.0548 71.2531C50.2673 71.1395 50.3736 70.9577 50.3736 70.7077C50.3736 70.4502 50.2711 70.2456 50.0661 70.0941C49.8612 69.9426 49.5234 69.7722 49.0527 69.5828C48.825 69.4919 48.6048 69.401 48.3923 69.3101C48.1873 69.2116 48.0089 69.0979 47.8571 68.9692C47.7053 68.8404 47.5838 68.6851 47.4927 68.5033C47.4016 68.3215 47.3561 68.098 47.3561 67.8329C47.3561 67.3102 47.5497 66.8973 47.9368 66.5943C48.324 66.2837 48.8515 66.1284 49.5196 66.1284C49.6866 66.1284 49.8536 66.1398 50.0206 66.1625C50.1876 66.1776 50.3432 66.2004 50.4875 66.2307C50.6317 66.2534 50.7569 66.2799 50.8632 66.3102C50.9771 66.3405 51.0644 66.367 51.1251 66.3898L50.9315 67.2988C50.8177 67.2382 50.6393 67.1776 50.3964 67.117C50.1534 67.0488 49.8612 67.0147 49.5196 67.0147C49.2235 67.0147 48.9654 67.0753 48.7453 67.1965C48.5251 67.3102 48.4151 67.492 48.4151 67.742C48.4151 67.8707 48.4378 67.9844 48.4834 68.0828C48.5365 68.1813 48.6124 68.2722 48.7111 68.3556C48.8174 68.4313 48.9464 68.5033 49.0983 68.5715C49.2501 68.6396 49.4323 68.7116 49.6448 68.7874C49.9257 68.8934 50.1762 68.9995 50.3964 69.1055C50.6165 69.204 50.8025 69.3214 50.9543 69.4578C51.1137 69.5941 51.2352 69.7608 51.3187 69.9578C51.4022 70.1471 51.4439 70.382 51.4439 70.6623C51.4439 71.2077 51.239 71.6205 50.8291 71.9008C50.4267 72.1811 49.8498 72.3213 49.0983 72.3213C48.5745 72.3213 48.1645 72.2758 47.8685 72.1849C47.5724 72.1016 47.3713 72.0372 47.265 71.9917L47.4586 71.0827C47.58 71.1281 47.7736 71.1963 48.0393 71.2872C48.305 71.3781 48.658 71.4236 49.0983 71.4236Z" fill="#27235C"/>
<path d="M53.7929 66.2761H56.0361V67.1624H53.7929V69.8896C53.7929 70.185 53.8157 70.4312 53.8612 70.6282C53.9068 70.8176 53.9751 70.9691 54.0662 71.0827C54.1573 71.1887 54.2712 71.2645 54.4078 71.31C54.5445 71.3554 54.7039 71.3781 54.8861 71.3781C55.2049 71.3781 55.4592 71.344 55.649 71.2759C55.8463 71.2001 55.983 71.1471 56.0589 71.1168L56.2639 71.9917C56.1576 72.0448 55.9716 72.1092 55.7059 72.1849C55.4402 72.2682 55.1366 72.3099 54.795 72.3099C54.3926 72.3099 54.0586 72.2607 53.7929 72.1622C53.5348 72.0561 53.3261 71.9008 53.1666 71.6963C53.0072 71.4918 52.8934 71.2418 52.825 70.9463C52.7643 70.6433 52.734 70.2949 52.734 69.9009V64.6285L53.7929 64.4467V66.2761Z" fill="#27235C"/>
<path d="M58.4427 72.1849H57.3837V66.2761H58.4427V72.1849ZM57.9075 65.208C57.7177 65.208 57.5545 65.1474 57.4178 65.0262C57.2888 64.8974 57.2243 64.727 57.2243 64.5149C57.2243 64.3027 57.2888 64.1361 57.4178 64.0149C57.5545 63.8861 57.7177 63.8217 57.9075 63.8217C58.0973 63.8217 58.2567 63.8861 58.3857 64.0149C58.5224 64.1361 58.5907 64.3027 58.5907 64.5149C58.5907 64.727 58.5224 64.8974 58.3857 65.0262C58.2567 65.1474 58.0973 65.208 57.9075 65.208Z" fill="#27235C"/>
<path d="M60.2638 66.4466C60.5067 66.386 60.8293 66.3216 61.2316 66.2534C61.634 66.1852 62.097 66.1511 62.6208 66.1511C63.0915 66.1511 63.4824 66.2193 63.7937 66.3557C64.1049 66.4844 64.3516 66.67 64.5338 66.9125C64.7236 67.1473 64.8564 67.4314 64.9324 67.7647C65.0083 68.098 65.0462 68.4654 65.0462 68.8669V72.1849H63.9872V69.0942C63.9872 68.7305 63.9607 68.42 63.9075 68.1624C63.862 67.9048 63.7823 67.6965 63.6684 67.5374C63.5545 67.3783 63.4027 67.2647 63.2129 67.1965C63.0232 67.1208 62.7878 67.0829 62.507 67.0829C62.3931 67.0829 62.2754 67.0867 62.154 67.0943C62.0325 67.1018 61.9148 67.1132 61.801 67.1284C61.6947 67.1359 61.596 67.1473 61.5049 67.1624C61.4214 67.1776 61.3607 67.189 61.3227 67.1965V72.1849H60.2638V66.4466Z" fill="#27235C"/>
<path d="M70.5144 71.594C70.4233 71.6546 70.2449 71.7342 69.9792 71.8327C69.7211 71.9236 69.4175 71.969 69.0683 71.969C68.7115 71.969 68.3737 71.9122 68.0548 71.7986C67.7436 71.6849 67.4703 71.5107 67.235 71.2759C66.9997 71.0335 66.8137 70.7342 66.677 70.3782C66.5404 70.0221 66.4721 69.5979 66.4721 69.1055C66.4721 68.6737 66.5366 68.2798 66.6656 67.9238C66.7947 67.5601 66.9807 67.2496 67.2236 66.992C67.4741 66.7269 67.7778 66.5223 68.1345 66.3784C68.4913 66.2269 68.8937 66.1511 69.3415 66.1511C69.835 66.1511 70.2639 66.189 70.6283 66.2648C71.0002 66.3329 71.3115 66.3973 71.562 66.4579V71.7304C71.562 72.6394 71.3266 73.2985 70.856 73.7076C70.3853 74.1166 69.6718 74.3212 68.7153 74.3212C68.3433 74.3212 67.9903 74.2909 67.6563 74.2303C67.3299 74.1697 67.0452 74.0977 66.8023 74.0144L66.9959 73.094C67.2084 73.1773 67.4665 73.2492 67.7702 73.3098C68.0814 73.378 68.404 73.4121 68.738 73.4121C69.3681 73.4121 69.8198 73.2871 70.0931 73.0371C70.3739 72.7872 70.5144 72.3894 70.5144 71.844V71.594ZM70.503 67.2079C70.3967 67.1776 70.2525 67.1511 70.0703 67.1284C69.8957 67.0981 69.6566 67.0829 69.3529 67.0829C68.7836 67.0829 68.3433 67.2685 68.0321 67.6397C67.7284 68.0109 67.5766 68.5033 67.5766 69.1169C67.5766 69.4578 67.6183 69.7494 67.7018 69.9918C67.7929 70.2343 67.9106 70.435 68.0548 70.5941C68.2067 70.7532 68.3775 70.8706 68.5672 70.9463C68.7646 71.0221 68.9658 71.06 69.1707 71.06C69.4516 71.06 69.7097 71.0221 69.945 70.9463C70.1804 70.863 70.3664 70.7683 70.503 70.6623V67.2079Z" fill="#27235C"/>
<path d="M74.5012 70.8895C74.5088 70.9501 74.5126 71.0107 74.5126 71.0713C74.5126 71.1244 74.5126 71.1812 74.5126 71.2418C74.5126 71.719 74.4405 72.1887 74.2962 72.6508C74.1596 73.1205 73.9698 73.5674 73.7269 73.9916L72.907 73.7303C73.0968 73.3439 73.2221 72.95 73.2828 72.5485C73.3435 72.1546 73.3739 71.7834 73.3739 71.4349C73.3739 71.3365 73.3701 71.2418 73.3625 71.1509C73.3625 71.06 73.3587 70.9729 73.3511 70.8895H74.5012Z" fill="#27235C"/>
<path d="M78.5724 68.2419C78.5724 67.5677 78.6711 66.9731 78.8685 66.4579C79.0735 65.9428 79.3467 65.5148 79.6883 65.1739C80.0375 64.8254 80.4399 64.5641 80.8953 64.3899C81.3584 64.2156 81.848 64.1285 82.3642 64.1285C82.8729 64.1285 83.3511 64.2156 83.799 64.3899C84.2545 64.5641 84.653 64.8254 84.9946 65.1739C85.3362 65.5148 85.6057 65.9428 85.8031 66.4579C86.008 66.9731 86.1105 67.5677 86.1105 68.2419C86.1105 68.9161 86.008 69.5108 85.8031 70.0259C85.6057 70.5411 85.3362 70.9729 84.9946 71.3213C84.653 71.6622 84.2545 71.9198 83.799 72.094C83.3511 72.2682 82.8729 72.3554 82.3642 72.3554C81.848 72.3554 81.3584 72.2682 80.8953 72.094C80.4399 71.9198 80.0375 71.6622 79.6883 71.3213C79.3467 70.9729 79.0735 70.5411 78.8685 70.0259C78.6711 69.5108 78.5724 68.9161 78.5724 68.2419ZM79.7339 68.2419C79.7339 68.7192 79.7946 69.1548 79.9161 69.5487C80.0375 69.935 80.2083 70.2646 80.4285 70.5373C80.6562 70.81 80.9295 71.0221 81.2483 71.1736C81.5748 71.3175 81.9391 71.3895 82.3415 71.3895C82.7438 71.3895 83.1044 71.3175 83.4232 71.1736C83.7421 71.0221 84.0115 70.81 84.2317 70.5373C84.4594 70.2646 84.634 69.935 84.7555 69.5487C84.8769 69.1548 84.9377 68.7192 84.9377 68.2419C84.9377 67.7647 84.8769 67.3329 84.7555 66.9465C84.634 66.5526 84.4594 66.2193 84.2317 65.9466C84.0115 65.6739 83.7421 65.4656 83.4232 65.3216C83.1044 65.1701 82.7438 65.0944 82.3415 65.0944C81.9391 65.0944 81.5748 65.1701 81.2483 65.3216C80.9295 65.4656 80.6562 65.6739 80.4285 65.9466C80.2083 66.2193 80.0375 66.5526 79.9161 66.9465C79.7946 67.3329 79.7339 67.7647 79.7339 68.2419Z" fill="#27235C"/>
<path d="M92.3997 72.0145C92.1568 72.0751 91.8341 72.1395 91.4318 72.2076C91.0371 72.2758 90.5778 72.3099 90.054 72.3099C89.5985 72.3099 89.2152 72.2455 88.9039 72.1167C88.5927 71.9804 88.3422 71.791 88.1524 71.5486C87.9626 71.3062 87.826 71.0221 87.7425 70.6963C87.659 70.363 87.6172 69.9956 87.6172 69.5941V66.2761H88.6762V69.3669C88.6762 70.0865 88.7901 70.6017 89.0178 70.9122C89.2455 71.2228 89.6289 71.3781 90.1679 71.3781C90.2817 71.3781 90.3994 71.3743 90.5209 71.3668C90.6423 71.3592 90.7562 71.3516 90.8625 71.344C90.9687 71.3289 91.0636 71.3175 91.1471 71.31C91.2382 71.2948 91.3028 71.2797 91.3407 71.2645V66.2761H92.3997V72.0145Z" fill="#27235C"/>
<path d="M96.4103 66.1511C96.5014 66.1511 96.6039 66.1587 96.7178 66.1739C96.8392 66.1814 96.9569 66.1966 97.0708 66.2193C97.1846 66.2345 97.2871 66.2534 97.3782 66.2761C97.4769 66.2913 97.549 66.3064 97.5946 66.3216L97.4124 67.242C97.3289 67.2117 97.1884 67.1776 96.9911 67.1397C96.8013 67.0943 96.5546 67.0715 96.2509 67.0715C96.0536 67.0715 95.8562 67.0943 95.6588 67.1397C95.469 67.1776 95.3438 67.2041 95.283 67.2193V72.1849H94.2241V66.5261C94.4746 66.4352 94.7858 66.3519 95.1578 66.2761C95.5298 66.1928 95.9473 66.1511 96.4103 66.1511Z" fill="#27235C"/>
<path d="M105.18 68.8896C105.302 69.0411 105.454 69.2419 105.636 69.4919C105.826 69.7343 106.019 70.007 106.217 70.31C106.414 70.6054 106.607 70.916 106.797 71.2418C106.995 71.5675 107.162 71.8819 107.298 72.1849H106.091C105.939 71.897 105.772 71.6054 105.59 71.31C105.416 71.0145 105.237 70.7342 105.055 70.4691C104.873 70.1964 104.691 69.9426 104.509 69.7078C104.334 69.4729 104.175 69.2684 104.03 69.0942C103.932 69.1017 103.829 69.1055 103.723 69.1055C103.624 69.1055 103.522 69.1055 103.415 69.1055H102.425V72.1849H101.32V64.424C101.631 64.3482 101.977 64.299 102.356 64.2762C102.744 64.2459 103.097 64.2308 103.415 64.2308C104.524 64.2308 105.366 64.4391 105.943 64.8557C106.528 65.2724 106.82 65.8936 106.82 66.7193C106.82 67.242 106.68 67.6889 106.399 68.0601C106.125 68.4313 105.719 68.7078 105.18 68.8896ZM103.506 65.1966C103.036 65.1966 102.675 65.208 102.425 65.2307V68.1965H103.21C103.59 68.1965 103.932 68.1775 104.235 68.1397C104.539 68.1018 104.793 68.0298 104.998 67.9238C105.211 67.8177 105.374 67.67 105.488 67.4806C105.602 67.2836 105.659 67.0261 105.659 66.7079C105.659 66.4125 105.602 66.1663 105.488 65.9693C105.374 65.7724 105.218 65.6171 105.021 65.5034C104.831 65.3898 104.603 65.3103 104.338 65.2648C104.08 65.2194 103.803 65.1966 103.506 65.1966Z" fill="#27235C"/>
<path d="M108.083 69.2419C108.083 68.7192 108.159 68.2647 108.311 67.8783C108.462 67.4844 108.664 67.1587 108.914 66.9011C109.165 66.6435 109.453 66.4504 109.78 66.3216C110.106 66.1928 110.44 66.1284 110.782 66.1284C111.579 66.1284 112.19 66.3784 112.615 66.8784C113.04 67.3708 113.253 68.1245 113.253 69.1396C113.253 69.1851 113.253 69.2457 113.253 69.3214C113.253 69.3896 113.249 69.454 113.241 69.5146H109.187C109.233 70.1282 109.411 70.5941 109.723 70.9122C110.034 71.2304 110.52 71.3895 111.18 71.3895C111.552 71.3895 111.863 71.3592 112.114 71.2986C112.372 71.2304 112.566 71.166 112.695 71.1054L112.843 71.9917C112.714 72.0599 112.486 72.1319 112.159 72.2076C111.841 72.2834 111.476 72.3213 111.066 72.3213C110.55 72.3213 110.102 72.2455 109.723 72.094C109.351 71.9349 109.043 71.719 108.8 71.4463C108.557 71.1736 108.375 70.8516 108.254 70.4805C108.14 70.1017 108.083 69.6888 108.083 69.2419ZM112.148 68.6624C112.156 68.1851 112.034 67.795 111.784 67.492C111.541 67.1814 111.203 67.0261 110.77 67.0261C110.527 67.0261 110.311 67.0753 110.121 67.1738C109.939 67.2647 109.783 67.3859 109.654 67.5374C109.525 67.6889 109.423 67.8632 109.347 68.0601C109.279 68.2571 109.233 68.4578 109.21 68.6624H112.148Z" fill="#27235C"/>
<path d="M116.152 71.4236C116.584 71.4236 116.903 71.3668 117.108 71.2531C117.321 71.1395 117.427 70.9577 117.427 70.7077C117.427 70.4502 117.324 70.2456 117.119 70.0941C116.914 69.9426 116.577 69.7722 116.106 69.5828C115.878 69.4919 115.658 69.401 115.446 69.3101C115.241 69.2116 115.062 69.0979 114.91 68.9692C114.759 68.8404 114.637 68.6851 114.546 68.5033C114.455 68.3215 114.409 68.098 114.409 67.8329C114.409 67.3102 114.603 66.8973 114.99 66.5943C115.377 66.2837 115.905 66.1284 116.573 66.1284C116.74 66.1284 116.907 66.1398 117.074 66.1625C117.241 66.1776 117.397 66.2004 117.541 66.2307C117.685 66.2534 117.81 66.2799 117.916 66.3102C118.03 66.3405 118.118 66.367 118.178 66.3898L117.985 67.2988C117.871 67.2382 117.693 67.1776 117.45 67.117C117.207 67.0488 116.914 67.0147 116.573 67.0147C116.277 67.0147 116.019 67.0753 115.799 67.1965C115.578 67.3102 115.468 67.492 115.468 67.742C115.468 67.8707 115.491 67.9844 115.537 68.0828C115.59 68.1813 115.666 68.2722 115.764 68.3556C115.871 68.4313 116 68.5033 116.152 68.5715C116.303 68.6396 116.486 68.7116 116.698 68.7874C116.979 68.8934 117.229 68.9995 117.45 69.1055C117.67 69.204 117.856 69.3214 118.008 69.4578C118.167 69.5941 118.288 69.7608 118.372 69.9578C118.455 70.1471 118.497 70.382 118.497 70.6623C118.497 71.2077 118.292 71.6205 117.882 71.9008C117.48 72.1811 116.903 72.3213 116.152 72.3213C115.628 72.3213 115.218 72.2758 114.922 72.1849C114.626 72.1016 114.425 72.0372 114.318 71.9917L114.512 71.0827C114.633 71.1281 114.827 71.1963 115.093 71.2872C115.358 71.3781 115.711 71.4236 116.152 71.4236Z" fill="#27235C"/>
<path d="M123.966 69.2419C123.966 68.5525 123.795 68.0222 123.454 67.6511C123.112 67.2799 122.657 67.0943 122.087 67.0943C121.769 67.0943 121.518 67.1056 121.336 67.1284C121.161 67.1511 121.021 67.1776 120.915 67.2079V70.935C121.044 71.041 121.23 71.1433 121.472 71.2418C121.715 71.3403 121.981 71.3895 122.27 71.3895C122.573 71.3895 122.831 71.3365 123.044 71.2304C123.264 71.1168 123.442 70.9653 123.579 70.7759C123.716 70.5789 123.814 70.3517 123.875 70.0941C123.936 69.829 123.966 69.5449 123.966 69.2419ZM125.071 69.2419C125.071 69.6888 125.01 70.1017 124.889 70.4805C124.775 70.8592 124.604 71.185 124.376 71.4577C124.148 71.7304 123.868 71.9425 123.533 72.094C123.207 72.2455 122.831 72.3213 122.406 72.3213C122.065 72.3213 121.761 72.2758 121.495 72.1849C121.237 72.094 121.044 72.0069 120.915 71.9236V74.2871H119.856V66.4579C120.106 66.3973 120.417 66.3329 120.789 66.2648C121.169 66.189 121.605 66.1511 122.099 66.1511C122.554 66.1511 122.964 66.2231 123.329 66.367C123.693 66.511 124.004 66.7155 124.262 66.9806C124.52 67.2458 124.718 67.5715 124.854 67.9579C124.999 68.3366 125.071 68.7646 125.071 69.2419Z" fill="#27235C"/>
<path d="M131.787 69.2305C131.787 69.7002 131.719 70.1244 131.582 70.5032C131.446 70.8819 131.252 71.2077 131.002 71.4804C130.759 71.7531 130.467 71.9652 130.125 72.1167C129.783 72.2607 129.411 72.3326 129.009 72.3326C128.607 72.3326 128.235 72.2607 127.893 72.1167C127.552 71.9652 127.255 71.7531 127.005 71.4804C126.762 71.2077 126.572 70.8819 126.436 70.5032C126.299 70.1244 126.231 69.7002 126.231 69.2305C126.231 68.7684 126.299 68.348 126.436 67.9692C126.572 67.5829 126.762 67.2533 127.005 66.9806C127.255 66.7079 127.552 66.4996 127.893 66.3557C128.235 66.2042 128.607 66.1284 129.009 66.1284C129.411 66.1284 129.783 66.2042 130.125 66.3557C130.467 66.4996 130.759 66.7079 131.002 66.9806C131.252 67.2533 131.446 67.5829 131.582 67.9692C131.719 68.348 131.787 68.7684 131.787 69.2305ZM130.683 69.2305C130.683 68.5639 130.531 68.0374 130.227 67.6511C129.931 67.2571 129.525 67.0602 129.009 67.0602C128.493 67.0602 128.083 67.2571 127.779 67.6511C127.483 68.0374 127.335 68.5639 127.335 69.2305C127.335 69.8971 127.483 70.4274 127.779 70.8213C128.083 71.2077 128.493 71.4009 129.009 71.4009C129.525 71.4009 129.931 71.2077 130.227 70.8213C130.531 70.4274 130.683 69.8971 130.683 69.2305Z" fill="#27235C"/>
<path d="M133.277 66.4466C133.52 66.386 133.843 66.3216 134.245 66.2534C134.648 66.1852 135.111 66.1511 135.634 66.1511C136.105 66.1511 136.496 66.2193 136.807 66.3557C137.118 66.4844 137.365 66.67 137.547 66.9125C137.737 67.1473 137.87 67.4314 137.946 67.7647C138.022 68.098 138.06 68.4654 138.06 68.8669V72.1849H137.001V69.0942C137.001 68.7305 136.974 68.42 136.921 68.1624C136.876 67.9048 136.796 67.6965 136.682 67.5374C136.568 67.3783 136.416 67.2647 136.227 67.1965C136.037 67.1208 135.801 67.0829 135.521 67.0829C135.407 67.0829 135.289 67.0867 135.168 67.0943C135.046 67.1018 134.928 67.1132 134.815 67.1284C134.708 67.1359 134.61 67.1473 134.518 67.1624C134.435 67.1776 134.374 67.189 134.336 67.1965V72.1849H133.277V66.4466Z" fill="#27235C"/>
<path d="M141.194 71.4236C141.626 71.4236 141.945 71.3668 142.15 71.2531C142.363 71.1395 142.469 70.9577 142.469 70.7077C142.469 70.4502 142.367 70.2456 142.162 70.0941C141.957 69.9426 141.619 69.7722 141.148 69.5828C140.92 69.4919 140.7 69.401 140.488 69.3101C140.283 69.2116 140.104 69.0979 139.953 68.9692C139.801 68.8404 139.679 68.6851 139.588 68.5033C139.497 68.3215 139.451 68.098 139.451 67.8329C139.451 67.3102 139.645 66.8973 140.032 66.5943C140.419 66.2837 140.947 66.1284 141.615 66.1284C141.782 66.1284 141.949 66.1398 142.116 66.1625C142.283 66.1776 142.439 66.2004 142.583 66.2307C142.727 66.2534 142.852 66.2799 142.959 66.3102C143.072 66.3405 143.16 66.367 143.221 66.3898L143.027 67.2988C142.913 67.2382 142.735 67.1776 142.492 67.117C142.249 67.0488 141.957 67.0147 141.615 67.0147C141.319 67.0147 141.061 67.0753 140.841 67.1965C140.621 67.3102 140.51 67.492 140.51 67.742C140.51 67.8707 140.533 67.9844 140.579 68.0828C140.632 68.1813 140.708 68.2722 140.807 68.3556C140.913 68.4313 141.042 68.5033 141.194 68.5715C141.345 68.6396 141.528 68.7116 141.74 68.7874C142.021 68.8934 142.272 68.9995 142.492 69.1055C142.712 69.204 142.898 69.3214 143.05 69.4578C143.209 69.5941 143.331 69.7608 143.414 69.9578C143.498 70.1471 143.539 70.382 143.539 70.6623C143.539 71.2077 143.334 71.6205 142.924 71.9008C142.522 72.1811 141.945 72.3213 141.194 72.3213C140.67 72.3213 140.26 72.2758 139.964 72.1849C139.668 72.1016 139.467 72.0372 139.36 71.9917L139.554 71.0827C139.675 71.1281 139.869 71.1963 140.135 71.2872C140.4 71.3781 140.753 71.4236 141.194 71.4236Z" fill="#27235C"/>
<path d="M145.957 72.1849H144.898V66.2761H145.957V72.1849ZM145.421 65.208C145.232 65.208 145.068 65.1474 144.932 65.0262C144.803 64.8974 144.738 64.727 144.738 64.5149C144.738 64.3027 144.803 64.1361 144.932 64.0149C145.068 63.8861 145.232 63.8217 145.421 63.8217C145.611 63.8217 145.771 63.8861 145.9 64.0149C146.036 64.1361 146.105 64.3027 146.105 64.5149C146.105 64.727 146.036 64.8974 145.9 65.0262C145.771 65.1474 145.611 65.208 145.421 65.208Z" fill="#27235C"/>
<path d="M148.837 66.5375C148.966 66.4541 149.159 66.367 149.417 66.2761C149.683 66.1852 149.987 66.1398 150.328 66.1398C150.753 66.1398 151.129 66.2155 151.456 66.367C151.79 66.5185 152.071 66.7306 152.298 67.0034C152.526 67.2761 152.697 67.6018 152.811 67.9806C152.932 68.3594 152.993 68.776 152.993 69.2305C152.993 69.7078 152.921 70.1396 152.777 70.5259C152.64 70.9047 152.443 71.2266 152.184 71.4918C151.926 71.7569 151.615 71.9614 151.251 72.1054C150.886 72.2493 150.476 72.3213 150.021 72.3213C149.528 72.3213 149.091 72.2872 148.711 72.219C148.332 72.1508 148.021 72.0826 147.778 72.0145V63.549L148.837 63.3672V66.5375ZM148.837 71.2645C148.943 71.2948 149.091 71.3251 149.281 71.3554C149.478 71.3781 149.721 71.3895 150.01 71.3895C150.579 71.3895 151.034 71.2039 151.376 70.8327C151.718 70.4539 151.888 69.9199 151.888 69.2305C151.888 68.9275 151.858 68.6434 151.797 68.3783C151.737 68.1132 151.638 67.8859 151.501 67.6965C151.365 67.4995 151.186 67.348 150.966 67.242C150.753 67.1284 150.495 67.0715 150.192 67.0715C149.903 67.0715 149.638 67.1208 149.395 67.2193C149.152 67.3177 148.966 67.42 148.837 67.5261V71.2645Z" fill="#27235C"/>
<path d="M155.542 72.1849H154.483V66.2761H155.542V72.1849ZM155.007 65.208C154.817 65.208 154.654 65.1474 154.517 65.0262C154.388 64.8974 154.324 64.727 154.324 64.5149C154.324 64.3027 154.388 64.1361 154.517 64.0149C154.654 63.8861 154.817 63.8217 155.007 63.8217C155.197 63.8217 155.356 63.8861 155.485 64.0149C155.622 64.1361 155.69 64.3027 155.69 64.5149C155.69 64.727 155.622 64.8974 155.485 65.0262C155.356 65.1474 155.197 65.208 155.007 65.208Z" fill="#27235C"/>
<path d="M159.139 72.2985C158.487 72.2834 158.024 72.1432 157.75 71.8781C157.477 71.613 157.34 71.2001 157.34 70.6395V63.549L158.399 63.3672V70.4691C158.399 70.6433 158.415 70.7873 158.445 70.9009C158.475 71.0145 158.525 71.1054 158.593 71.1736C158.661 71.2418 158.752 71.2948 158.866 71.3327C158.98 71.363 159.121 71.3895 159.288 71.4122L159.139 72.2985Z" fill="#27235C"/>
<path d="M161.536 72.1849H160.477V66.2761H161.536V72.1849ZM161.001 65.208C160.811 65.208 160.648 65.1474 160.511 65.0262C160.382 64.8974 160.317 64.727 160.317 64.5149C160.317 64.3027 160.382 64.1361 160.511 64.0149C160.648 63.8861 160.811 63.8217 161.001 63.8217C161.19 63.8217 161.35 63.8861 161.479 64.0149C161.615 64.1361 161.684 64.3027 161.684 64.5149C161.684 64.727 161.615 64.8974 161.479 65.0262C161.35 65.1474 161.19 65.208 161.001 65.208Z" fill="#27235C"/>
<path d="M164.347 66.2761H166.591V67.1624H164.347V69.8896C164.347 70.185 164.37 70.4312 164.416 70.6282C164.461 70.8176 164.53 70.9691 164.621 71.0827C164.712 71.1887 164.826 71.2645 164.962 71.31C165.099 71.3554 165.258 71.3781 165.441 71.3781C165.759 71.3781 166.014 71.344 166.203 71.2759C166.401 71.2001 166.537 71.1471 166.613 71.1168L166.818 71.9917C166.712 72.0448 166.526 72.1092 166.26 72.1849C165.995 72.2682 165.691 72.3099 165.349 72.3099C164.947 72.3099 164.613 72.2607 164.347 72.1622C164.089 72.0561 163.881 71.9008 163.721 71.6963C163.562 71.4918 163.448 71.2418 163.38 70.9463C163.319 70.6433 163.288 70.2949 163.288 69.9009V64.6285L164.347 64.4467V66.2761Z" fill="#27235C"/>
<path d="M167.244 73.2871C167.327 73.325 167.433 73.3591 167.562 73.3894C167.699 73.4273 167.832 73.4462 167.961 73.4462C168.378 73.4462 168.705 73.3515 168.94 73.1621C169.176 72.9803 169.388 72.6811 169.578 72.2644C169.1 71.3554 168.652 70.3933 168.234 69.3782C167.824 68.3556 167.483 67.3215 167.209 66.2761H168.348C168.432 66.617 168.53 66.9844 168.644 67.3783C168.766 67.7723 168.898 68.1775 169.043 68.5942C169.187 69.0108 169.343 69.4275 169.51 69.8441C169.677 70.2608 169.851 70.6623 170.033 71.0486C170.322 70.2532 170.572 69.4654 170.785 68.6851C170.997 67.9048 171.199 67.1018 171.388 66.2761H172.482C172.208 67.3897 171.905 68.4616 171.571 69.4919C171.237 70.5145 170.876 71.4728 170.489 72.3667C170.337 72.7076 170.178 72.9993 170.011 73.2417C169.851 73.4917 169.673 73.6962 169.475 73.8553C169.278 74.0144 169.054 74.1318 168.804 74.2075C168.561 74.2833 168.284 74.3212 167.972 74.3212C167.889 74.3212 167.802 74.3136 167.71 74.2984C167.619 74.2909 167.528 74.2757 167.437 74.253C167.354 74.2378 167.274 74.2189 167.198 74.1962C167.13 74.1734 167.08 74.1545 167.05 74.1394L167.244 73.2871Z" fill="#27235C"/>
<path d="M174.54 71.5713C174.54 71.7758 174.472 71.9539 174.335 72.1054C174.199 72.2569 174.013 72.3326 173.777 72.3326C173.542 72.3326 173.356 72.2569 173.219 72.1054C173.083 71.9539 173.014 71.7758 173.014 71.5713C173.014 71.3668 173.083 71.1887 173.219 71.0372C173.356 70.8857 173.542 70.81 173.777 70.81C174.013 70.81 174.199 70.8857 174.335 71.0372C174.472 71.1887 174.54 71.3668 174.54 71.5713Z" fill="#27235C"/>
<path d="M165.349 55.6528C164.047 55.6528 162.878 55.4004 161.842 54.8956C160.832 54.3642 159.969 53.6469 159.252 52.7435C158.561 51.8402 158.029 50.804 157.657 49.635C157.312 48.4394 157.139 47.1641 157.139 45.8091C157.166 44.4541 157.365 43.192 157.737 42.023C158.109 40.8274 158.641 39.7912 159.331 38.9144C160.049 38.0111 160.912 37.307 161.922 36.8022C162.931 36.2974 164.074 36.045 165.349 36.045C166.571 36.045 167.714 36.2974 168.777 36.8022C169.866 37.307 170.822 38.0111 171.646 38.9144C172.496 39.7912 173.16 40.8274 173.639 42.023C174.117 43.192 174.356 44.4408 174.356 45.7692C174.356 47.1508 174.117 48.4527 173.639 49.6748C173.16 50.8704 172.509 51.9199 171.686 52.8232C170.862 53.7 169.906 54.3908 168.816 54.8956C167.727 55.4004 166.571 55.6528 165.349 55.6528ZM164.711 50.99C165.641 50.99 166.478 50.7774 167.222 50.3523C167.966 49.9007 168.551 49.2896 168.976 48.5191C169.427 47.7486 169.653 46.8718 169.653 45.8888C169.653 44.8792 169.427 43.9891 168.976 43.2186C168.551 42.4215 167.966 41.8104 167.222 41.3853C166.478 40.9337 165.641 40.7078 164.711 40.7078C163.808 40.7078 162.985 40.9337 162.241 41.3853C161.497 41.837 160.899 42.4481 160.447 43.2186C160.022 43.9891 159.81 44.8792 159.81 45.8888C159.81 46.8718 160.022 47.7486 160.447 48.5191C160.899 49.2896 161.497 49.9007 162.241 50.3523C162.985 50.7774 163.808 50.99 164.711 50.99ZM157.339 55.6927C156.621 55.6927 156.09 55.5731 155.745 55.334C155.399 55.1214 155.187 54.8425 155.107 54.4971C155.027 54.1251 154.987 53.7133 154.987 53.2616V29.5091C154.987 29.0574 155.027 28.6589 155.107 28.3135C155.187 27.9415 155.399 27.6493 155.745 27.4367C156.09 27.2241 156.621 27.1179 157.339 27.1179C158.083 27.1179 158.614 27.2241 158.933 27.4367C159.252 27.6493 159.451 27.9415 159.531 28.3135C159.61 28.6854 159.65 29.084 159.65 29.5091V54.0587C159.544 54.6432 159.318 55.055 158.973 55.2941C158.654 55.5598 158.109 55.6927 157.339 55.6927Z" fill="#27235C" stroke="#27235C" stroke-width="0.2"/>
<path d="M143.108 55.9324C141.381 55.9324 139.867 55.6534 138.565 55.0954C137.289 54.5375 136.213 53.7803 135.337 52.8238C134.486 51.8407 133.835 50.7514 133.384 49.5558C132.959 48.3337 132.746 47.0716 132.746 45.7698C132.746 43.8568 133.184 42.1564 134.061 40.6685C134.938 39.1807 136.147 38.0117 137.688 37.1615C139.255 36.3113 141.049 35.8862 143.068 35.8862C144.503 35.8862 145.765 36.112 146.854 36.5637C147.943 37.0153 148.847 37.6131 149.564 38.3571C150.308 39.0744 150.866 39.8715 151.238 40.7483C151.637 41.625 151.836 42.4752 151.836 43.2989C151.836 44.707 151.49 45.7299 150.8 46.3676C150.135 47.0052 149.298 47.324 148.289 47.324H137.768C137.794 48.2274 138.073 49.0112 138.605 49.6754C139.162 50.3396 139.853 50.8577 140.677 51.2297C141.527 51.5751 142.391 51.7478 143.267 51.7478C143.932 51.7478 144.516 51.7079 145.021 51.6282C145.552 51.5485 146.004 51.4555 146.376 51.3492C146.748 51.2164 147.067 51.0835 147.332 50.9507C147.625 50.8178 147.89 50.6983 148.129 50.592C148.369 50.4857 148.594 50.4193 148.807 50.3927C149.099 50.3662 149.391 50.4326 149.684 50.592C149.976 50.7514 150.215 51.0304 150.401 51.4289C150.56 51.6946 150.667 51.947 150.72 52.1861C150.8 52.3987 150.839 52.6112 150.839 52.8238C150.839 53.3552 150.521 53.86 149.883 54.3382C149.245 54.7899 148.342 55.1619 147.173 55.4541C146.03 55.7729 144.675 55.9324 143.108 55.9324ZM137.768 44.4945H145.937C146.389 44.4945 146.735 44.428 146.974 44.2952C147.213 44.1358 147.332 43.817 147.332 43.3387C147.332 42.7276 147.146 42.183 146.774 41.7047C146.402 41.1999 145.898 40.8147 145.26 40.549C144.622 40.2567 143.878 40.1106 143.028 40.1106C142.045 40.1106 141.155 40.3099 140.358 40.7084C139.561 41.0804 138.923 41.5985 138.445 42.2627C137.993 42.9269 137.768 43.6708 137.768 44.4945Z" fill="#27235C" stroke="#27235C" stroke-width="0.2"/>
<path d="M107.455 55.5746C106.924 55.5746 106.499 55.4816 106.18 55.2956C105.861 55.0831 105.622 54.8439 105.462 54.5783C105.329 54.3126 105.236 54.0867 105.183 53.9008L97.3721 31.025C97.1064 30.1748 97.0666 29.5371 97.2526 29.112C97.4385 28.6603 97.9832 28.2884 98.8865 27.9961C99.4976 27.7836 99.9891 27.6906 100.361 27.7172C100.733 27.7437 101.039 27.9031 101.278 28.1954C101.543 28.4611 101.769 28.8862 101.955 29.4707L107.694 46.8467L112.835 29.6301C112.915 29.3644 113.021 29.0987 113.154 28.833C113.313 28.5408 113.553 28.3017 113.871 28.1157C114.19 27.9297 114.629 27.8367 115.186 27.8367C115.824 27.8367 116.302 27.943 116.621 28.1555C116.94 28.3681 117.166 28.6072 117.299 28.8729C117.458 29.112 117.564 29.3379 117.618 29.5504L122.759 46.9663L128.537 29.5106C128.723 28.8995 128.936 28.4478 129.175 28.1555C129.441 27.8633 129.773 27.7039 130.171 27.6773C130.57 27.6242 131.061 27.7039 131.646 27.9164C132.257 28.129 132.695 28.3681 132.961 28.6338C133.227 28.8729 133.36 29.1917 133.36 29.5903C133.36 29.9622 133.267 30.4405 133.081 31.025L125.309 53.9406C125.256 54.1 125.15 54.3126 124.99 54.5783C124.858 54.8439 124.632 55.0831 124.313 55.2956C123.994 55.4816 123.556 55.5746 122.998 55.5746C122.44 55.5746 122.001 55.455 121.683 55.2159C121.364 54.9768 121.125 54.7111 120.965 54.4188C120.806 54.1266 120.7 53.914 120.646 53.7812L115.226 36.2458L109.806 53.7413C109.753 53.9273 109.647 54.1664 109.487 54.4587C109.355 54.751 109.129 55.0166 108.81 55.2558C108.491 55.4683 108.039 55.5746 107.455 55.5746Z" fill="#27235C" stroke="#27235C" stroke-width="0.2"/>
<path d="M86.7314 55.9327C86.0406 55.9327 85.31 55.853 84.5395 55.6936C83.769 55.5607 83.025 55.3615 82.3077 55.0958C81.5903 54.8035 80.966 54.4714 80.4346 54.0994C79.9298 53.7009 79.611 53.2625 79.4781 52.7843C79.3718 52.5186 79.332 52.2662 79.3586 52.0271C79.3851 51.7614 79.4648 51.4957 79.5977 51.23C79.7305 50.9378 79.9298 50.6455 80.1955 50.3532C80.4346 50.061 80.6737 49.9016 80.9128 49.875C81.1785 49.8219 81.5106 49.9016 81.9092 50.1141C82.2546 50.247 82.6265 50.4197 83.025 50.6322C83.4502 50.8448 83.8753 51.0573 84.3004 51.2699C84.752 51.4824 85.2037 51.6551 85.6554 51.788C86.1336 51.9208 86.5986 51.9872 87.0502 51.9872C88.0333 51.9872 88.817 51.8278 89.4016 51.509C89.9861 51.1636 90.2783 50.6854 90.2783 50.0743C90.2783 49.7289 90.1853 49.4233 89.9994 49.1576C89.8134 48.892 89.561 48.6794 89.2421 48.52C88.9499 48.334 88.5912 48.1746 88.1661 48.0418C87.7676 47.8823 87.3292 47.7495 86.851 47.6432C86.3993 47.5104 85.921 47.3642 85.4162 47.2048C84.752 47.0189 84.0878 46.793 83.4236 46.5273C82.7594 46.2616 82.1616 45.9162 81.6302 45.4911C81.1254 45.066 80.7136 44.5347 80.3947 43.897C80.0759 43.2594 79.9165 42.4623 79.9165 41.5058C79.9165 40.3102 80.1955 39.3006 80.7534 38.477C81.3379 37.6268 82.1748 36.9758 83.2642 36.5242C84.3535 36.0725 85.6686 35.8466 87.2096 35.8466C87.741 35.8466 88.2458 35.8865 88.7241 35.9662C89.2289 36.0459 89.7071 36.1655 90.1588 36.3249C90.637 36.4577 91.0887 36.6304 91.5138 36.843C91.9654 37.0555 92.3905 37.2947 92.7891 37.5603C93.4533 37.9323 93.7987 38.3707 93.8253 38.8755C93.8518 39.3537 93.6659 39.8718 93.2673 40.4298C92.9751 40.8017 92.6828 41.0674 92.3906 41.2268C92.0983 41.3597 91.7928 41.3597 91.4739 41.2268C91.0488 41.0143 90.5839 40.7885 90.0791 40.5493C89.6008 40.2836 89.096 40.0578 88.5646 39.8718C88.0598 39.6858 87.5285 39.5929 86.9705 39.5929C86.4391 39.5929 85.9609 39.6726 85.5358 39.832C85.1107 39.9914 84.7919 40.2172 84.5793 40.5095C84.3668 40.8017 84.2605 41.1471 84.2605 41.5457C84.2605 41.9176 84.3668 42.2232 84.5793 42.4623C84.7919 42.7014 85.0708 42.9007 85.4162 43.0601C85.7616 43.2195 86.1734 43.3656 86.6517 43.4985C87.1299 43.6048 87.6347 43.711 88.1661 43.8173C88.91 43.9767 89.6672 44.176 90.4377 44.4151C91.2082 44.6542 91.9123 44.9863 92.55 45.4114C93.2142 45.8365 93.7456 46.4078 94.1441 47.1251C94.5426 47.8159 94.7419 48.7193 94.7419 49.8351C94.7419 51.7747 94.0245 53.2758 92.5898 54.3386C91.1817 55.4013 89.2289 55.9327 86.7314 55.9327Z" fill="#27235C" stroke="#27235C" stroke-width="0.2"/>
<path d="M67.9175 55.9321C66.1905 55.9321 64.6761 55.6531 63.3742 55.0952C62.0989 54.5372 61.0229 53.78 60.1461 52.8235C59.2959 51.8405 58.645 50.7512 58.1933 49.5556C57.7682 48.3334 57.5557 47.0714 57.5557 45.7695C57.5557 43.8566 57.994 42.1561 58.8708 40.6683C59.7476 39.1804 60.9565 38.0114 62.4975 37.1612C64.065 36.311 65.8584 35.8859 67.8776 35.8859C69.3124 35.8859 70.5744 36.1117 71.6637 36.5634C72.753 37.0151 73.6563 37.6129 74.3737 38.3568C75.1176 39.0742 75.6756 39.8712 76.0475 40.748C76.4461 41.6248 76.6453 42.475 76.6453 43.2986C76.6453 44.7068 76.2999 45.7297 75.6092 46.3673C74.9449 47.005 74.108 47.3238 73.0984 47.3238H62.5772C62.6037 48.2271 62.8827 49.0109 63.4141 49.6751C63.972 50.3394 64.6628 50.8574 65.4864 51.2294C66.3366 51.5748 67.2001 51.7475 68.0769 51.7475C68.7411 51.7475 69.3256 51.7076 69.8304 51.6279C70.3618 51.5482 70.8135 51.4552 71.1855 51.349C71.5574 51.2161 71.8762 51.0833 72.1419 50.9504C72.4342 50.8176 72.6999 50.698 72.939 50.5918C73.1781 50.4855 73.4039 50.4191 73.6165 50.3925C73.9088 50.3659 74.201 50.4323 74.4933 50.5918C74.7855 50.7512 75.0246 51.0301 75.2106 51.4287C75.37 51.6944 75.4763 51.9468 75.5294 52.1859C75.6092 52.3984 75.649 52.611 75.649 52.8235C75.649 53.3549 75.3302 53.8597 74.6925 54.338C74.0549 54.7896 73.1515 55.1616 71.9825 55.4539C70.8401 55.7727 69.4851 55.9321 67.9175 55.9321ZM62.5772 44.4942H70.7471C71.1987 44.4942 71.5441 44.4278 71.7833 44.2949C72.0224 44.1355 72.1419 43.8167 72.1419 43.3385C72.1419 42.7274 71.9559 42.1827 71.584 41.7045C71.212 41.1997 70.7072 40.8144 70.0696 40.5487C69.4319 40.2565 68.688 40.1103 67.8378 40.1103C66.8547 40.1103 65.9647 40.3096 65.1676 40.7081C64.3706 41.0801 63.7329 41.5982 63.2547 42.2624C62.803 42.9266 62.5772 43.6706 62.5772 44.4942Z" fill="#27235C" stroke="#27235C" stroke-width="0.2"/>
<path d="M53.6903 55.6944C52.7073 55.6944 51.8305 55.6279 51.06 55.4951C50.3161 55.3622 49.6651 55.1364 49.1072 54.8176C48.5758 54.4988 48.1374 54.0737 47.792 53.5423C47.4466 52.9843 47.181 52.3068 46.995 51.5098C46.8356 50.7127 46.7559 49.7562 46.7559 48.6403V29.431C46.7559 28.9794 46.7957 28.5808 46.8754 28.2355C46.9817 27.8635 47.1942 27.5712 47.5131 27.3587C47.8585 27.1196 48.4031 27 49.1471 27C49.891 27 50.4224 27.1063 50.7412 27.3188C51.0866 27.5314 51.2991 27.8236 51.3788 28.1956C51.4851 28.541 51.5382 28.9395 51.5382 29.3912V48.4411C51.5382 48.9459 51.5648 49.371 51.6179 49.7164C51.6977 50.0352 51.8172 50.3009 51.9766 50.5134C52.1626 50.6994 52.3884 50.8323 52.6541 50.912C52.9464 50.9917 53.2918 51.0315 53.6903 51.0315C54.0357 51.0315 54.3412 51.0714 54.6069 51.1511C54.8992 51.2308 55.125 51.4301 55.2844 51.7489C55.4704 52.0677 55.5634 52.5858 55.5634 53.3032C55.5634 54.0471 55.4704 54.5918 55.2844 54.9371C55.125 55.2825 54.8992 55.4951 54.6069 55.5748C54.3147 55.6545 54.0091 55.6944 53.6903 55.6944Z" fill="#27235C" stroke="#27235C" stroke-width="0.2"/>
<path d="M40.082 55.6938C39.3647 55.6938 38.8333 55.5743 38.4879 55.3352C38.1425 55.1226 37.93 54.8436 37.8503 54.4982C37.7706 54.1263 37.7307 53.7145 37.7307 53.2628V38.4374C37.7307 38.0123 37.7706 37.627 37.8503 37.2816C37.9565 36.9097 38.1691 36.6174 38.4879 36.4049C38.8333 36.1923 39.378 36.086 40.1219 36.086C40.8658 36.086 41.3972 36.1923 41.716 36.4049C42.0614 36.6174 42.274 36.9097 42.3537 37.2816C42.4334 37.6536 42.4732 38.0654 42.4732 38.5171V53.3026C42.4732 53.7543 42.4334 54.1661 42.3537 54.5381C42.274 54.8835 42.0614 55.1625 41.716 55.375C41.3972 55.5876 40.8525 55.6938 40.082 55.6938ZM40.082 32.2203C39.3115 32.2203 38.7403 32.114 38.3684 31.9014C38.023 31.6623 37.7971 31.3435 37.6908 30.945C37.6111 30.5464 37.5713 30.108 37.5713 29.6298C37.5713 29.125 37.6111 28.6866 37.6908 28.3146C37.7971 27.9427 38.0362 27.6504 38.4082 27.4379C38.7802 27.1988 39.3514 27.0792 40.1219 27.0792C40.919 27.0792 41.4902 27.1988 41.8356 27.4379C42.181 27.677 42.4068 27.9958 42.5131 28.3944C42.6194 28.7663 42.6725 29.2047 42.6725 29.7095C42.6725 30.1612 42.6194 30.5863 42.5131 30.9848C42.4068 31.3833 42.181 31.6889 41.8356 31.9014C41.4902 32.114 40.9057 32.2203 40.082 32.2203Z" fill="#27235C" stroke="#27235C" stroke-width="0.2"/>
<path d="M7.35134 55.6536C6.66055 55.6536 6.14246 55.5473 5.79706 55.3348C5.45167 55.1222 5.22583 54.83 5.11956 54.458C5.03985 54.086 5 53.6742 5 53.2226V30.2272C5 29.8021 5.03985 29.4169 5.11956 29.0715C5.22583 28.6995 5.45167 28.4073 5.79706 28.1947C6.14246 27.9556 6.68712 27.836 7.43104 27.836C7.98899 27.836 8.4008 27.8759 8.66649 27.9556C8.95875 28.0087 9.18458 28.1017 9.344 28.2346C9.50341 28.3408 9.66282 28.487 9.82223 28.6729L19.5464 42.2629H18.6298L28.3938 28.6331C28.5798 28.4205 28.7658 28.2611 28.9518 28.1549C29.1377 28.0486 29.3769 27.9689 29.6691 27.9157C29.9614 27.8626 30.3466 27.836 30.8249 27.836C31.5422 27.836 32.0736 27.9556 32.419 28.1947C32.7644 28.4073 32.9769 28.6995 33.0566 29.0715C33.1629 29.4434 33.2161 29.8553 33.2161 30.3069V53.3023C33.2161 53.7008 33.1629 54.086 33.0566 54.458C32.9769 54.83 32.7644 55.1222 32.419 55.3348C32.0736 55.5473 31.5289 55.6536 30.785 55.6536C30.0676 55.6536 29.5363 55.534 29.1909 55.2949C28.8455 55.0824 28.6197 54.7901 28.5134 54.4182C28.4337 54.0462 28.3938 53.6477 28.3938 53.2226V36.1255L21.1405 46.6069C21.0608 46.7132 20.9413 46.8593 20.7819 47.0453C20.6224 47.2047 20.4099 47.3508 20.1442 47.4837C19.8785 47.6165 19.5198 47.683 19.0682 47.683C18.6431 47.683 18.2977 47.6165 18.032 47.4837C17.7663 47.3508 17.5538 47.2047 17.3943 47.0453C17.2615 46.8859 17.1287 46.7265 16.9958 46.5671L9.78238 36.1255V53.3023C9.78238 53.7008 9.72924 54.086 9.62297 54.458C9.54326 54.83 9.33071 55.1222 8.98532 55.3348C8.63992 55.5473 8.09526 55.6536 7.35134 55.6536Z" fill="#27235C" stroke="#27235C" stroke-width="0.2"/>
</svg>
