<svg width="299" height="107" viewBox="0 0 299 107" fill="none" xmlns="http://www.w3.org/2000/svg">
<path d="M135.367 99.9316C135.367 98.6701 136.39 97.6475 137.651 97.6475H295.253C296.514 97.6475 297.537 98.6701 297.537 99.9316V99.9316C297.537 101.193 296.514 102.216 295.253 102.216H137.651C136.39 102.216 135.367 101.193 135.367 99.9316V99.9316Z" fill="#FFBB00"/>
<path d="M6.93379 83.0883V77.5591C6.01698 76.1404 5.15332 74.7415 4.34281 73.3626C3.53229 71.9836 2.76829 70.6311 2.05078 69.3052H4.32288C4.82779 70.3925 5.39249 71.4996 6.01698 72.6267C6.64148 73.7404 7.2859 74.8145 7.95026 75.8487C8.60133 74.8145 9.23911 73.7404 9.8636 72.6267C10.4881 71.4996 11.0594 70.3925 11.5776 69.3052H13.7301C13.0126 70.6311 12.2486 71.9836 11.4381 73.3626C10.6276 74.7283 9.77059 76.1139 8.86707 77.5194V83.0883H6.93379Z" fill="#27235C"/>
<path d="M23.6123 77.9171C23.6123 78.7392 23.4927 79.4817 23.2536 80.1447C23.0144 80.8077 22.6756 81.3778 22.2371 81.8552C21.8119 82.3325 21.3004 82.7038 20.7025 82.9689C20.1045 83.2209 19.4535 83.3468 18.7493 83.3468C18.045 83.3468 17.394 83.2209 16.796 82.9689C16.1981 82.7038 15.6799 82.3325 15.2415 81.8552C14.8163 81.3778 14.4841 80.8077 14.2449 80.1447C14.0058 79.4817 13.8862 78.7392 13.8862 77.9171C13.8862 77.1083 14.0058 76.3724 14.2449 75.7095C14.4841 75.0332 14.8163 74.4564 15.2415 73.9791C15.6799 73.5018 16.1981 73.1371 16.796 72.8852C17.394 72.62 18.045 72.4874 18.7493 72.4874C19.4535 72.4874 20.1045 72.62 20.7025 72.8852C21.3004 73.1371 21.8119 73.5018 22.2371 73.9791C22.6756 74.4564 23.0144 75.0332 23.2536 75.7095C23.4927 76.3724 23.6123 77.1083 23.6123 77.9171ZM21.6791 77.9171C21.6791 76.7503 21.4133 75.8288 20.8818 75.1526C20.3636 74.4631 19.6528 74.1183 18.7493 74.1183C17.8457 74.1183 17.1282 74.4631 16.5967 75.1526C16.0785 75.8288 15.8194 76.7503 15.8194 77.9171C15.8194 79.084 16.0785 80.0121 16.5967 80.7016C17.1282 81.3778 17.8457 81.7159 18.7493 81.7159C19.6528 81.7159 20.3636 81.3778 20.8818 80.7016C21.4133 80.0121 21.6791 79.084 21.6791 77.9171Z" fill="#27235C"/>
<path d="M34.4714 82.7899C34.0462 82.896 33.4815 83.0087 32.7773 83.1281C32.0864 83.2474 31.2825 83.3071 30.3657 83.3071C29.5685 83.3071 28.8975 83.1944 28.3527 82.9689C27.8079 82.7303 27.3695 82.3988 27.0373 81.9745C26.7051 81.5502 26.4659 81.053 26.3198 80.4828C26.1736 79.8994 26.1005 79.2563 26.1005 78.5536V72.746H27.9541V78.1558C27.9541 79.4154 28.1534 80.3171 28.552 80.8607C28.9506 81.4043 29.6216 81.6762 30.565 81.6762C30.7643 81.6762 30.9703 81.6695 31.1829 81.6563C31.3955 81.643 31.5948 81.6298 31.7808 81.6165C31.9668 81.59 32.1329 81.5701 32.2791 81.5568C32.4385 81.5303 32.5514 81.5038 32.6179 81.4773V72.746H34.4714V82.7899Z" fill="#27235C"/>
<path d="M41.4914 72.5272C41.6508 72.5272 41.8302 72.5405 42.0295 72.567C42.2421 72.5803 42.4481 72.6068 42.6474 72.6465C42.8467 72.6731 43.026 72.7062 43.1855 72.746C43.3582 72.7725 43.4844 72.799 43.5642 72.8255L43.2453 74.4366C43.0991 74.3835 42.8533 74.3239 42.5078 74.2576C42.1757 74.178 41.7438 74.1382 41.2124 74.1382C40.8669 74.1382 40.5214 74.178 40.176 74.2576C39.8438 74.3239 39.6245 74.3703 39.5182 74.3968V83.0883H37.6647V73.1836C38.1032 73.0244 38.6479 72.8786 39.299 72.746C39.9501 72.6001 40.6809 72.5272 41.4914 72.5272Z" fill="#27235C"/>
<path d="M58.775 69.3052H60.7083V83.0883H58.775V76.7238H52.0185V83.0883H50.0852V69.3052H52.0185V75.0531H58.775V69.3052Z" fill="#27235C"/>
<path d="M73.1665 77.9171C73.1665 78.7392 73.0469 79.4817 72.8077 80.1447C72.5686 80.8077 72.2298 81.3778 71.7913 81.8552C71.3661 82.3325 70.8545 82.7038 70.2566 82.9689C69.6587 83.2209 69.0076 83.3468 68.3034 83.3468C67.5992 83.3468 66.9481 83.2209 66.3502 82.9689C65.7523 82.7038 65.2341 82.3325 64.7956 81.8552C64.3704 81.3778 64.0383 80.8077 63.7991 80.1447C63.5599 79.4817 63.4403 78.7392 63.4403 77.9171C63.4403 77.1083 63.5599 76.3724 63.7991 75.7095C64.0383 75.0332 64.3704 74.4564 64.7956 73.9791C65.2341 73.5018 65.7523 73.1371 66.3502 72.8852C66.9481 72.62 67.5992 72.4874 68.3034 72.4874C69.0076 72.4874 69.6587 72.62 70.2566 72.8852C70.8545 73.1371 71.3661 73.5018 71.7913 73.9791C72.2298 74.4564 72.5686 75.0332 72.8077 75.7095C73.0469 76.3724 73.1665 77.1083 73.1665 77.9171ZM71.2332 77.9171C71.2332 76.7503 70.9675 75.8288 70.436 75.1526C69.9178 74.4631 69.2069 74.1183 68.3034 74.1183C67.3999 74.1183 66.6824 74.4631 66.1509 75.1526C65.6327 75.8288 65.3736 76.7503 65.3736 77.9171C65.3736 79.084 65.6327 80.0121 66.1509 80.7016C66.6824 81.3778 67.3999 81.7159 68.3034 81.7159C69.2069 81.7159 69.9178 81.3778 70.436 80.7016C70.9675 80.0121 71.2332 79.084 71.2332 77.9171Z" fill="#27235C"/>
<path d="M78.1859 81.7557C78.9433 81.7557 79.5013 81.6563 79.8601 81.4574C80.2321 81.2585 80.4181 80.9403 80.4181 80.5027C80.4181 80.0519 80.2388 79.6939 79.88 79.4287C79.5213 79.1635 78.93 78.8652 78.1062 78.5337C77.7076 78.3746 77.3222 78.2155 76.9502 78.0564C76.5915 77.884 76.2792 77.6851 76.0135 77.4597C75.7477 77.2343 75.5351 76.9625 75.3757 76.6442C75.2162 76.326 75.1365 75.9349 75.1365 75.4708C75.1365 74.5559 75.4753 73.8333 76.153 73.3029C76.8306 72.7593 77.7541 72.4874 78.9233 72.4874C79.2157 72.4874 79.508 72.5073 79.8003 72.5471C80.0926 72.5736 80.365 72.6134 80.6174 72.6664C80.8699 72.7062 81.0891 72.7526 81.2752 72.8057C81.4745 72.8587 81.6273 72.9051 81.7336 72.9449L81.3947 74.536C81.1954 74.4299 80.8832 74.3239 80.458 74.2178C80.0328 74.0984 79.5213 74.0388 78.9233 74.0388C78.4051 74.0388 77.9534 74.1449 77.5681 74.357C77.1827 74.5559 76.9901 74.8741 76.9901 75.3117C76.9901 75.5371 77.0299 75.736 77.1097 75.9083C77.2027 76.0807 77.3355 76.2398 77.5083 76.3857C77.6943 76.5183 77.9202 76.6442 78.1859 76.7636C78.4517 76.8829 78.7705 77.0089 79.1426 77.1415C79.6342 77.3271 80.0727 77.5127 80.458 77.6984C80.8433 77.8707 81.1689 78.0762 81.4346 78.3149C81.7136 78.5536 81.9262 78.8453 82.0724 79.19C82.2185 79.5215 82.2916 79.9326 82.2916 80.4232C82.2916 81.3778 81.9329 82.1005 81.2154 82.5911C80.5111 83.0817 79.5013 83.327 78.1859 83.327C77.2691 83.327 76.5516 83.2474 76.0334 83.0883C75.5152 82.9424 75.1631 82.8297 74.9771 82.7502L75.3159 81.159C75.5285 81.2386 75.8673 81.3579 76.3324 81.517C76.7974 81.6762 77.4153 81.7557 78.1859 81.7557Z" fill="#27235C"/>
<path d="M86.4031 72.746H90.3294V74.2973H86.4031V79.0707C86.4031 79.5878 86.443 80.0187 86.5227 80.3635C86.6024 80.695 86.722 80.9602 86.8814 81.159C87.0409 81.3447 87.2402 81.4773 87.4794 81.5568C87.7185 81.6364 87.9976 81.6762 88.3164 81.6762C88.8745 81.6762 89.3196 81.6165 89.6518 81.4972C89.9973 81.3646 90.2364 81.2718 90.3693 81.2187L90.7281 82.7502C90.542 82.843 90.2165 82.9557 89.7515 83.0883C89.2864 83.2341 88.7549 83.3071 88.157 83.3071C87.4528 83.3071 86.8682 83.2209 86.4031 83.0485C85.9513 82.8629 85.5859 82.5911 85.3069 82.2331C85.0279 81.8751 84.8286 81.4375 84.709 80.9204C84.6027 80.39 84.5496 79.7801 84.5496 79.0906V69.8621L86.4031 69.5439V72.746Z" fill="#27235C"/>
<path d="M94.5417 83.0883H92.6881V72.746H94.5417V83.0883ZM93.6049 70.8764C93.2727 70.8764 92.9871 70.7703 92.7479 70.5582C92.522 70.3328 92.4091 70.0345 92.4091 69.6632C92.4091 69.2919 92.522 69.0002 92.7479 68.7881C92.9871 68.5627 93.2727 68.45 93.6049 68.45C93.9371 68.45 94.2161 68.5627 94.442 68.7881C94.6812 69.0002 94.8008 69.2919 94.8008 69.6632C94.8008 70.0345 94.6812 70.3328 94.442 70.5582C94.2161 70.7703 93.9371 70.8764 93.6049 70.8764Z" fill="#27235C"/>
<path d="M97.7292 73.0443C98.1544 72.9383 98.7191 72.8255 99.4233 72.7062C100.127 72.5869 100.938 72.5272 101.855 72.5272C102.679 72.5272 103.363 72.6465 103.908 72.8852C104.452 73.1106 104.884 73.4355 105.203 73.8598C105.535 74.2708 105.768 74.768 105.901 75.3515C106.034 75.9349 106.1 76.5779 106.1 77.2807V83.0883H104.246V77.6785C104.246 77.042 104.2 76.4984 104.107 76.0476C104.027 75.5968 103.888 75.2321 103.688 74.9537C103.489 74.6752 103.223 74.4763 102.891 74.357C102.559 74.2244 102.147 74.1581 101.656 74.1581C101.456 74.1581 101.25 74.1647 101.038 74.178C100.825 74.1913 100.619 74.2112 100.42 74.2377C100.234 74.2509 100.061 74.2708 99.9016 74.2973C99.7554 74.3239 99.6491 74.3437 99.5827 74.357V83.0883H97.7292V73.0443Z" fill="#27235C"/>
<path d="M115.671 82.0541C115.512 82.1601 115.199 82.2994 114.734 82.4717C114.283 82.6308 113.751 82.7104 113.14 82.7104C112.515 82.7104 111.924 82.6109 111.366 82.4121C110.821 82.2132 110.343 81.9082 109.931 81.4972C109.519 81.0729 109.194 80.5491 108.954 79.9259C108.715 79.3027 108.596 78.5602 108.596 77.6984C108.596 76.9426 108.709 76.2531 108.935 75.6299C109.16 74.9935 109.486 74.4498 109.911 73.999C110.35 73.5349 110.881 73.1769 111.506 72.925C112.13 72.6598 112.834 72.5272 113.618 72.5272C114.482 72.5272 115.233 72.5935 115.87 72.7261C116.521 72.8454 117.066 72.9581 117.505 73.0642V82.2927C117.505 83.8838 117.093 85.0374 116.269 85.7534C115.445 86.4694 114.196 86.8274 112.522 86.8274C111.871 86.8274 111.253 86.7744 110.669 86.6683C110.097 86.5622 109.599 86.4363 109.174 86.2904L109.513 84.6794C109.885 84.8253 110.336 84.9512 110.868 85.0573C111.413 85.1766 111.977 85.2363 112.562 85.2363C113.665 85.2363 114.455 85.0175 114.934 84.58C115.425 84.1424 115.671 83.4463 115.671 82.4916V82.0541ZM115.651 74.3769C115.465 74.3239 115.213 74.2774 114.894 74.2377C114.588 74.1846 114.17 74.1581 113.638 74.1581C112.642 74.1581 111.871 74.483 111.326 75.1327C110.795 75.7824 110.529 76.6442 110.529 77.7182C110.529 78.3149 110.602 78.8254 110.748 79.2497C110.908 79.674 111.114 80.0254 111.366 80.3038C111.632 80.5823 111.931 80.7878 112.263 80.9204C112.608 81.053 112.961 81.1193 113.319 81.1193C113.811 81.1193 114.263 81.053 114.675 80.9204C115.086 80.7745 115.412 80.6088 115.651 80.4232V74.3769Z" fill="#27235C"/>
<path d="M122.649 80.8209C122.663 80.927 122.669 81.0331 122.669 81.1392C122.669 81.232 122.669 81.3314 122.669 81.4375C122.669 82.2728 122.543 83.0949 122.291 83.9037C122.051 84.7258 121.719 85.5081 121.294 86.2506L119.859 85.7932C120.191 85.117 120.41 84.4275 120.517 83.7247C120.623 83.0352 120.676 82.3855 120.676 81.7756C120.676 81.6032 120.67 81.4375 120.656 81.2784C120.656 81.1193 120.65 80.9668 120.636 80.8209H122.649Z" fill="#27235C"/>
<path d="M129.775 76.1868C129.775 75.0067 129.948 73.9659 130.294 73.0642C130.652 72.1626 131.131 71.4134 131.729 70.8168C132.34 70.2068 133.044 69.7494 133.841 69.4444C134.652 69.1394 135.509 68.987 136.412 68.987C137.302 68.987 138.14 69.1394 138.924 69.4444C139.721 69.7494 140.418 70.2068 141.016 70.8168C141.614 71.4134 142.086 72.1626 142.431 73.0642C142.79 73.9659 142.969 75.0067 142.969 76.1868C142.969 77.3669 142.79 78.4077 142.431 79.3094C142.086 80.211 141.614 80.9668 141.016 81.5767C140.418 82.1734 139.721 82.6242 138.924 82.9292C138.14 83.2341 137.302 83.3866 136.412 83.3866C135.509 83.3866 134.652 83.2341 133.841 82.9292C133.044 82.6242 132.34 82.1734 131.729 81.5767C131.131 80.9668 130.652 80.211 130.294 79.3094C129.948 78.4077 129.775 77.3669 129.775 76.1868ZM131.808 76.1868C131.808 77.0221 131.915 77.7845 132.127 78.474C132.34 79.1503 132.639 79.727 133.024 80.2044C133.423 80.6817 133.901 81.053 134.459 81.3182C135.03 81.5701 135.668 81.6961 136.372 81.6961C137.077 81.6961 137.708 81.5701 138.266 81.3182C138.824 81.053 139.296 80.6817 139.681 80.2044C140.079 79.727 140.385 79.1503 140.598 78.474C140.81 77.7845 140.917 77.0221 140.917 76.1868C140.917 75.3515 140.81 74.5957 140.598 73.9194C140.385 73.23 140.079 72.6465 139.681 72.1692C139.296 71.6919 138.824 71.3272 138.266 71.0753C137.708 70.8101 137.077 70.6775 136.372 70.6775C135.668 70.6775 135.03 70.8101 134.459 71.0753C133.901 71.3272 133.423 71.6919 133.024 72.1692C132.639 72.6465 132.34 73.23 132.127 73.9194C131.915 74.5957 131.808 75.3515 131.808 76.1868Z" fill="#27235C"/>
<path d="M153.978 82.7899C153.552 82.896 152.988 83.0087 152.283 83.1281C151.593 83.2474 150.789 83.3071 149.872 83.3071C149.075 83.3071 148.404 83.1944 147.859 82.9689C147.314 82.7303 146.876 82.3988 146.543 81.9745C146.211 81.5502 145.972 81.053 145.826 80.4828C145.68 79.8994 145.607 79.2563 145.607 78.5536V72.746H147.46V78.1558C147.46 79.4154 147.66 80.3171 148.058 80.8607C148.457 81.4043 149.128 81.6762 150.071 81.6762C150.27 81.6762 150.476 81.6695 150.689 81.6563C150.902 81.643 151.101 81.6298 151.287 81.6165C151.473 81.59 151.639 81.5701 151.785 81.5568C151.945 81.5303 152.058 81.5038 152.124 81.4773V72.746H153.978V82.7899Z" fill="#27235C"/>
<path d="M160.997 72.5272C161.157 72.5272 161.336 72.5405 161.536 72.567C161.748 72.5803 161.954 72.6068 162.153 72.6465C162.353 72.6731 162.532 72.7062 162.692 72.746C162.864 72.7725 162.991 72.799 163.07 72.8255L162.751 74.4366C162.605 74.3835 162.359 74.3239 162.014 74.2576C161.682 74.178 161.25 74.1382 160.718 74.1382C160.373 74.1382 160.028 74.178 159.682 74.2576C159.35 74.3239 159.131 74.3703 159.024 74.3968V83.0883H157.171V73.1836C157.609 73.0244 158.154 72.8786 158.805 72.746C159.456 72.6001 160.187 72.5272 160.997 72.5272Z" fill="#27235C"/>
<path d="M176.348 77.3205C176.56 77.5857 176.826 77.937 177.145 78.3746C177.477 78.7989 177.816 79.2762 178.162 79.8066C178.507 80.3237 178.846 80.8673 179.178 81.4375C179.523 82.0076 179.816 82.5579 180.055 83.0883H177.942C177.677 82.5844 177.384 82.0739 177.065 81.5568C176.76 81.0397 176.447 80.5491 176.129 80.085C175.81 79.6077 175.491 79.1635 175.172 78.7525C174.866 78.3414 174.587 77.9834 174.335 77.6785C174.162 77.6917 173.983 77.6984 173.797 77.6984C173.624 77.6984 173.445 77.6984 173.259 77.6984H171.525V83.0883H169.591V69.5041C170.136 69.3715 170.741 69.2853 171.405 69.2455C172.083 69.1925 172.701 69.166 173.259 69.166C175.199 69.166 176.673 69.5306 177.683 70.2599C178.706 70.9891 179.218 72.0764 179.218 73.5217C179.218 74.4366 178.972 75.2189 178.48 75.8686C178.002 76.5183 177.291 77.0022 176.348 77.3205ZM173.418 70.8565C172.594 70.8565 171.963 70.8764 171.525 70.9162V76.1072H172.9C173.564 76.1072 174.162 76.0741 174.694 76.0078C175.225 75.9415 175.67 75.8155 176.029 75.6299C176.401 75.4443 176.687 75.1857 176.886 74.8542C177.085 74.5095 177.185 74.0587 177.185 73.5018C177.185 72.9847 177.085 72.5537 176.886 72.209C176.687 71.8642 176.414 71.5924 176.069 71.3935C175.737 71.1946 175.338 71.0554 174.873 70.9759C174.421 70.8963 173.936 70.8565 173.418 70.8565Z" fill="#27235C"/>
<path d="M181.428 77.937C181.428 77.0221 181.561 76.2266 181.827 75.5503C182.093 74.8609 182.445 74.2907 182.883 73.8399C183.322 73.3891 183.827 73.051 184.398 72.8255C184.969 72.6001 185.554 72.4874 186.152 72.4874C187.547 72.4874 188.617 72.925 189.361 73.8001C190.105 74.662 190.477 75.9813 190.477 77.758C190.477 77.8376 190.477 77.9437 190.477 78.0762C190.477 78.1956 190.47 78.3083 190.457 78.4144H183.362C183.441 79.4884 183.754 80.3038 184.298 80.8607C184.843 81.4176 185.693 81.6961 186.849 81.6961C187.501 81.6961 188.045 81.643 188.484 81.5369C188.936 81.4176 189.274 81.3049 189.5 81.1988L189.759 82.7502C189.533 82.8695 189.135 82.9955 188.563 83.1281C188.005 83.2607 187.368 83.327 186.65 83.327C185.747 83.327 184.963 83.1944 184.298 82.9292C183.647 82.6507 183.109 82.2728 182.684 81.7955C182.259 81.3182 181.94 80.7546 181.727 80.1049C181.528 79.442 181.428 78.7193 181.428 77.937ZM188.544 76.9227C188.557 76.0873 188.344 75.4045 187.906 74.8741C187.481 74.3305 186.889 74.0587 186.132 74.0587C185.707 74.0587 185.328 74.1449 184.996 74.3172C184.677 74.4763 184.405 74.6885 184.179 74.9537C183.953 75.2189 183.773 75.5238 183.641 75.8686C183.521 76.2133 183.441 76.5647 183.401 76.9227H188.544Z" fill="#27235C"/>
<path d="M195.551 81.7557C196.308 81.7557 196.866 81.6563 197.225 81.4574C197.597 81.2585 197.783 80.9403 197.783 80.5027C197.783 80.0519 197.604 79.6939 197.245 79.4287C196.886 79.1635 196.295 78.8652 195.471 78.5337C195.073 78.3746 194.687 78.2155 194.315 78.0564C193.957 77.884 193.644 77.6851 193.379 77.4597C193.113 77.2343 192.9 76.9625 192.741 76.6442C192.581 76.326 192.502 75.9349 192.502 75.4708C192.502 74.5559 192.84 73.8333 193.518 73.3029C194.196 72.7593 195.119 72.4874 196.288 72.4874C196.581 72.4874 196.873 72.5073 197.165 72.5471C197.458 72.5736 197.73 72.6134 197.983 72.6664C198.235 72.7062 198.454 72.7526 198.64 72.8057C198.84 72.8587 198.992 72.9051 199.099 72.9449L198.76 74.536C198.561 74.4299 198.248 74.3239 197.823 74.2178C197.398 74.0984 196.886 74.0388 196.288 74.0388C195.77 74.0388 195.319 74.1449 194.933 74.357C194.548 74.5559 194.355 74.8741 194.355 75.3117C194.355 75.5371 194.395 75.736 194.475 75.9083C194.568 76.0807 194.701 76.2398 194.873 76.3857C195.059 76.5183 195.285 76.6442 195.551 76.7636C195.817 76.8829 196.136 77.0089 196.508 77.1415C196.999 77.3271 197.438 77.5127 197.823 77.6984C198.208 77.8707 198.534 78.0762 198.8 78.3149C199.079 78.5536 199.291 78.8453 199.438 79.19C199.584 79.5215 199.657 79.9326 199.657 80.4232C199.657 81.3778 199.298 82.1005 198.58 82.5911C197.876 83.0817 196.866 83.327 195.551 83.327C194.634 83.327 193.917 83.2474 193.399 83.0883C192.88 82.9424 192.528 82.8297 192.342 82.7502L192.681 81.159C192.894 81.2386 193.232 81.3579 193.697 81.517C194.163 81.6762 194.78 81.7557 195.551 81.7557Z" fill="#27235C"/>
<path d="M209.229 77.937C209.229 76.7304 208.93 75.8023 208.332 75.1526C207.734 74.5029 206.937 74.178 205.941 74.178C205.383 74.178 204.944 74.1979 204.625 74.2377C204.32 74.2774 204.074 74.3239 203.888 74.3769V80.9005C204.114 81.0861 204.439 81.2651 204.864 81.4375C205.29 81.6099 205.755 81.6961 206.26 81.6961C206.791 81.6961 207.243 81.6032 207.615 81.4176C208 81.2187 208.312 80.9535 208.552 80.622C208.791 80.2773 208.963 79.8795 209.07 79.4287C209.176 78.9646 209.229 78.4674 209.229 77.937ZM211.163 77.937C211.163 78.7193 211.056 79.442 210.844 80.1049C210.644 80.7679 210.345 81.338 209.947 81.8154C209.548 82.2927 209.056 82.664 208.472 82.9292C207.901 83.1944 207.243 83.327 206.499 83.327C205.901 83.327 205.369 83.2474 204.904 83.0883C204.453 82.9292 204.114 82.7767 203.888 82.6308V86.7678H202.034V73.0642C202.473 72.9581 203.017 72.8454 203.669 72.7261C204.333 72.5935 205.097 72.5272 205.961 72.5272C206.758 72.5272 207.475 72.6532 208.113 72.9051C208.751 73.157 209.296 73.515 209.747 73.9791C210.199 74.4432 210.545 75.0133 210.784 75.6896C211.036 76.3525 211.163 77.1017 211.163 77.937Z" fill="#27235C"/>
<path d="M222.919 77.9171C222.919 78.7392 222.799 79.4817 222.56 80.1447C222.321 80.8077 221.982 81.3778 221.544 81.8552C221.119 82.3325 220.607 82.7038 220.009 82.9689C219.411 83.2209 218.76 83.3468 218.056 83.3468C217.352 83.3468 216.701 83.2209 216.103 82.9689C215.505 82.7038 214.987 82.3325 214.548 81.8552C214.123 81.3778 213.791 80.8077 213.552 80.1447C213.312 79.4817 213.193 78.7392 213.193 77.9171C213.193 77.1083 213.312 76.3724 213.552 75.7095C213.791 75.0332 214.123 74.4564 214.548 73.9791C214.987 73.5018 215.505 73.1371 216.103 72.8852C216.701 72.62 217.352 72.4874 218.056 72.4874C218.76 72.4874 219.411 72.62 220.009 72.8852C220.607 73.1371 221.119 73.5018 221.544 73.9791C221.982 74.4564 222.321 75.0332 222.56 75.7095C222.799 76.3724 222.919 77.1083 222.919 77.9171ZM220.986 77.9171C220.986 76.7503 220.72 75.8288 220.188 75.1526C219.67 74.4631 218.959 74.1183 218.056 74.1183C217.152 74.1183 216.435 74.4631 215.903 75.1526C215.385 75.8288 215.126 76.7503 215.126 77.9171C215.126 79.084 215.385 80.0121 215.903 80.7016C216.435 81.3778 217.152 81.7159 218.056 81.7159C218.959 81.7159 219.67 81.3778 220.188 80.7016C220.72 80.0121 220.986 79.084 220.986 77.9171Z" fill="#27235C"/>
<path d="M225.527 73.0443C225.952 72.9383 226.517 72.8255 227.221 72.7062C227.925 72.5869 228.736 72.5272 229.652 72.5272C230.476 72.5272 231.16 72.6465 231.705 72.8852C232.25 73.1106 232.682 73.4355 233.001 73.8598C233.333 74.2708 233.565 74.768 233.698 75.3515C233.831 75.9349 233.898 76.5779 233.898 77.2807V83.0883H232.044V77.6785C232.044 77.042 231.998 76.4984 231.905 76.0476C231.825 75.5968 231.685 75.2321 231.486 74.9537C231.287 74.6752 231.021 74.4763 230.689 74.357C230.357 74.2244 229.945 74.1581 229.453 74.1581C229.254 74.1581 229.048 74.1647 228.835 74.178C228.623 74.1913 228.417 74.2112 228.217 74.2377C228.031 74.2509 227.859 74.2708 227.699 74.2973C227.553 74.3239 227.447 74.3437 227.38 74.357V83.0883H225.527V73.0443Z" fill="#27235C"/>
<path d="M239.383 81.7557C240.14 81.7557 240.698 81.6563 241.057 81.4574C241.429 81.2585 241.615 80.9403 241.615 80.5027C241.615 80.0519 241.436 79.6939 241.077 79.4287C240.718 79.1635 240.127 78.8652 239.303 78.5337C238.905 78.3746 238.519 78.2155 238.147 78.0564C237.788 77.884 237.476 77.6851 237.21 77.4597C236.945 77.2343 236.732 76.9625 236.573 76.6442C236.413 76.326 236.334 75.9349 236.334 75.4708C236.334 74.5559 236.672 73.8333 237.35 73.3029C238.028 72.7593 238.951 72.4874 240.12 72.4874C240.413 72.4874 240.705 72.5073 240.997 72.5471C241.29 72.5736 241.562 72.6134 241.814 72.6664C242.067 72.7062 242.286 72.7526 242.472 72.8057C242.671 72.8587 242.824 72.9051 242.931 72.9449L242.592 74.536C242.392 74.4299 242.08 74.3239 241.655 74.2178C241.23 74.0984 240.718 74.0388 240.12 74.0388C239.602 74.0388 239.15 74.1449 238.765 74.357C238.38 74.5559 238.187 74.8741 238.187 75.3117C238.187 75.5371 238.227 75.736 238.307 75.9083C238.4 76.0807 238.533 76.2398 238.705 76.3857C238.891 76.5183 239.117 76.6442 239.383 76.7636C239.649 76.8829 239.968 77.0089 240.34 77.1415C240.831 77.3271 241.27 77.5127 241.655 77.6984C242.04 77.8707 242.366 78.0762 242.632 78.3149C242.911 78.5536 243.123 78.8453 243.269 79.19C243.416 79.5215 243.489 79.9326 243.489 80.4232C243.489 81.3778 243.13 82.1005 242.412 82.5911C241.708 83.0817 240.698 83.327 239.383 83.327C238.466 83.327 237.749 83.2474 237.23 83.0883C236.712 82.9424 236.36 82.8297 236.174 82.7502L236.513 81.159C236.725 81.2386 237.064 81.3579 237.529 81.517C237.994 81.6762 238.612 81.7557 239.383 81.7557Z" fill="#27235C"/>
<path d="M247.72 83.0883H245.866V72.746H247.72V83.0883ZM246.783 70.8764C246.451 70.8764 246.165 70.7703 245.926 70.5582C245.7 70.3328 245.587 70.0345 245.587 69.6632C245.587 69.2919 245.7 69.0002 245.926 68.7881C246.165 68.5627 246.451 68.45 246.783 68.45C247.115 68.45 247.394 68.5627 247.62 68.7881C247.859 69.0002 247.979 69.2919 247.979 69.6632C247.979 70.0345 247.859 70.3328 247.62 70.5582C247.394 70.7703 247.115 70.8764 246.783 70.8764Z" fill="#27235C"/>
<path d="M252.761 73.2034C252.987 73.0576 253.325 72.9051 253.777 72.746C254.242 72.5869 254.774 72.5073 255.372 72.5073C256.116 72.5073 256.773 72.6399 257.345 72.9051C257.929 73.1703 258.421 73.5416 258.82 74.0189C259.218 74.4962 259.517 75.0664 259.717 75.7293C259.929 76.3923 260.035 77.1216 260.035 77.9171C260.035 78.7525 259.909 79.5083 259.657 80.1845C259.418 80.8475 259.072 81.411 258.62 81.8751C258.169 82.3391 257.624 82.6971 256.986 82.9491C256.348 83.201 255.631 83.327 254.834 83.327C253.97 83.327 253.206 83.2673 252.542 83.1479C251.877 83.0286 251.332 82.9093 250.907 82.7899V67.9726L252.761 67.6544V73.2034ZM252.761 81.4773C252.947 81.5303 253.206 81.5833 253.538 81.6364C253.884 81.6762 254.309 81.6961 254.814 81.6961C255.81 81.6961 256.607 81.3712 257.205 80.7215C257.803 80.0585 258.102 79.1237 258.102 77.9171C258.102 77.3868 258.049 76.8895 257.943 76.4255C257.836 75.9614 257.664 75.5636 257.425 75.2321C257.185 74.8874 256.873 74.6222 256.488 74.4366C256.116 74.2377 255.664 74.1382 255.133 74.1382C254.628 74.1382 254.163 74.2244 253.737 74.3968C253.312 74.5692 252.987 74.7482 252.761 74.9338V81.4773Z" fill="#27235C"/>
<path d="M264.497 83.0883H262.644V72.746H264.497V83.0883ZM263.561 70.8764C263.228 70.8764 262.943 70.7703 262.704 70.5582C262.478 70.3328 262.365 70.0345 262.365 69.6632C262.365 69.2919 262.478 69.0002 262.704 68.7881C262.943 68.5627 263.228 68.45 263.561 68.45C263.893 68.45 264.172 68.5627 264.398 68.7881C264.637 69.0002 264.756 69.2919 264.756 69.6632C264.756 70.0345 264.637 70.3328 264.398 70.5582C264.172 70.7703 263.893 70.8764 263.561 70.8764Z" fill="#27235C"/>
<path d="M270.794 83.2872C269.651 83.2607 268.841 83.0154 268.362 82.5513C267.884 82.0872 267.645 81.3646 267.645 80.3834V67.9726L269.498 67.6544V80.085C269.498 80.39 269.525 80.6419 269.578 80.8408C269.631 81.0397 269.718 81.1988 269.837 81.3182C269.957 81.4375 270.116 81.5303 270.316 81.5966C270.515 81.6496 270.761 81.6961 271.053 81.7358L270.794 83.2872Z" fill="#27235C"/>
<path d="M274.988 83.0883H273.135V72.746H274.988V83.0883ZM274.051 70.8764C273.719 70.8764 273.434 70.7703 273.194 70.5582C272.968 70.3328 272.856 70.0345 272.856 69.6632C272.856 69.2919 272.968 69.0002 273.194 68.7881C273.434 68.5627 273.719 68.45 274.051 68.45C274.384 68.45 274.663 68.5627 274.888 68.7881C275.128 69.0002 275.247 69.2919 275.247 69.6632C275.247 70.0345 275.128 70.3328 274.888 70.5582C274.663 70.7703 274.384 70.8764 274.051 70.8764Z" fill="#27235C"/>
<path d="M279.91 72.746H283.836V74.2973H279.91V79.0707C279.91 79.5878 279.949 80.0187 280.029 80.3635C280.109 80.695 280.228 80.9602 280.388 81.159C280.547 81.3447 280.747 81.4773 280.986 81.5568C281.225 81.6364 281.504 81.6762 281.823 81.6762C282.381 81.6762 282.826 81.6165 283.158 81.4972C283.504 81.3646 283.743 81.2718 283.876 81.2187L284.235 82.7502C284.049 82.843 283.723 82.9557 283.258 83.0883C282.793 83.2341 282.261 83.3071 281.663 83.3071C280.959 83.3071 280.375 83.2209 279.91 83.0485C279.458 82.8629 279.092 82.5911 278.813 82.2331C278.534 81.8751 278.335 81.4375 278.215 80.9204C278.109 80.39 278.056 79.7801 278.056 79.0906V69.8621L279.91 69.5439V72.746Z" fill="#27235C"/>
<path d="M284.979 85.0175C285.125 85.0838 285.311 85.1435 285.537 85.1965C285.776 85.2628 286.009 85.296 286.234 85.296C286.965 85.296 287.537 85.1302 287.948 84.7987C288.36 84.4805 288.732 83.9568 289.065 83.2275C288.228 81.6364 287.444 79.9524 286.713 78.1757C285.995 76.3857 285.397 74.5758 284.919 72.746H286.912C287.058 73.3427 287.231 73.9857 287.43 74.6752C287.643 75.3647 287.875 76.0741 288.128 76.8034C288.38 77.5326 288.653 78.2619 288.945 78.9911C289.237 79.7204 289.543 80.4232 289.862 81.0994C290.367 79.7071 290.805 78.3282 291.177 76.9625C291.549 75.5968 291.901 74.1913 292.234 72.746H294.147C293.669 74.6951 293.137 76.5713 292.552 78.3746C291.968 80.1646 291.337 81.8419 290.659 83.4065C290.393 84.0032 290.114 84.5137 289.822 84.938C289.543 85.3755 289.231 85.7335 288.885 86.012C288.54 86.2904 288.148 86.4959 287.709 86.6285C287.284 86.7611 286.799 86.8274 286.254 86.8274C286.108 86.8274 285.955 86.8142 285.796 86.7876C285.637 86.7744 285.477 86.7479 285.318 86.7081C285.171 86.6816 285.032 86.6484 284.899 86.6086C284.78 86.5689 284.693 86.5357 284.64 86.5092L284.979 85.0175Z" fill="#27235C"/>
<path d="M297.75 82.0143C297.75 82.3723 297.631 82.6839 297.392 82.9491C297.153 83.2142 296.827 83.3468 296.415 83.3468C296.003 83.3468 295.678 83.2142 295.439 82.9491C295.199 82.6839 295.08 82.3723 295.08 82.0143C295.08 81.6563 295.199 81.3447 295.439 81.0795C295.678 80.8143 296.003 80.6817 296.415 80.6817C296.827 80.6817 297.153 80.8143 297.392 81.0795C297.631 81.3447 297.75 81.6563 297.75 82.0143Z" fill="#27235C"/>
<path d="M281.662 54.1518C279.383 54.1518 277.337 53.71 275.523 52.8264C273.756 51.8963 272.245 50.6407 270.989 49.0595C269.78 47.4784 268.85 45.6647 268.199 43.6186C267.594 41.5259 267.292 39.2937 267.292 36.922C267.339 34.5503 267.687 32.3413 268.339 30.2951C268.99 28.2024 269.92 26.3888 271.129 24.8541C272.384 23.273 273.896 22.0406 275.663 21.1571C277.43 20.2735 279.43 19.8317 281.662 19.8317C283.801 19.8317 285.801 20.2735 287.661 21.1571C289.568 22.0406 291.242 23.273 292.683 24.8541C294.172 26.3888 295.334 28.2024 296.171 30.2951C297.008 32.3413 297.427 34.527 297.427 36.8522C297.427 39.2704 297.008 41.5491 296.171 43.6883C295.334 45.781 294.195 47.6179 292.753 49.1991C291.312 50.7337 289.637 51.9428 287.731 52.8264C285.824 53.71 283.801 54.1518 281.662 54.1518ZM280.546 45.9903C282.174 45.9903 283.638 45.6182 284.94 44.8742C286.243 44.0836 287.266 43.014 288.01 41.6654C288.8 40.3168 289.196 38.7821 289.196 37.0615C289.196 35.2943 288.8 33.7364 288.01 32.3878C287.266 30.9927 286.243 29.9231 284.94 29.179C283.638 28.3885 282.174 27.9932 280.546 27.9932C278.965 27.9932 277.523 28.3885 276.221 29.179C274.919 29.9696 273.873 31.0392 273.082 32.3878C272.338 33.7364 271.966 35.2943 271.966 37.0615C271.966 38.7821 272.338 40.3168 273.082 41.6654C273.873 43.014 274.919 44.0836 276.221 44.8742C277.523 45.6182 278.965 45.9903 280.546 45.9903ZM267.641 54.2215C266.385 54.2215 265.455 54.0122 264.851 53.5937C264.246 53.2217 263.874 52.7334 263.735 52.1288C263.595 51.4778 263.525 50.7569 263.525 49.9664V8.39169C263.525 7.60112 263.595 6.90355 263.735 6.299C263.874 5.64794 264.246 5.13639 264.851 4.76436C265.455 4.39233 266.385 4.20631 267.641 4.20631C268.943 4.20631 269.873 4.39233 270.431 4.76436C270.989 5.13639 271.338 5.64794 271.478 6.299C271.617 6.95006 271.687 7.64762 271.687 8.39169V51.3615C271.501 52.3846 271.106 53.1054 270.501 53.5239C269.943 53.989 268.99 54.2215 267.641 54.2215Z" fill="#27235C" stroke="#27235C" stroke-width="0.2"/>
<path d="M242.734 54.641C239.711 54.641 237.061 54.1528 234.782 53.1762C232.55 52.1996 230.666 50.8742 229.132 49.2001C227.644 47.4794 226.504 45.5727 225.714 43.4801C224.97 41.3409 224.598 39.1319 224.598 36.8532C224.598 33.5049 225.365 30.5287 226.9 27.9244C228.434 25.3202 230.55 23.274 233.247 21.7859C235.991 20.2977 239.13 19.5537 242.664 19.5537C245.176 19.5537 247.385 19.949 249.291 20.7395C251.198 21.5301 252.779 22.5764 254.035 23.8786C255.337 25.1342 256.313 26.5293 256.964 28.0639C257.662 29.5986 258.011 31.0867 258.011 32.5283C258.011 34.9931 257.406 36.7835 256.197 37.8996C255.035 39.0157 253.57 39.5737 251.803 39.5737H233.387C233.433 41.1549 233.922 42.5267 234.852 43.6893C235.828 44.8519 237.037 45.7588 238.479 46.4098C239.967 47.0144 241.479 47.3167 243.013 47.3167C244.176 47.3167 245.199 47.2469 246.083 47.1074C247.013 46.9679 247.803 46.8051 248.454 46.6191C249.105 46.3866 249.663 46.154 250.128 45.9215C250.64 45.689 251.105 45.4797 251.524 45.2937C251.942 45.1077 252.337 44.9914 252.709 44.9449C253.221 44.8984 253.732 45.0147 254.244 45.2937C254.756 45.5727 255.174 46.061 255.5 46.7586C255.779 47.2236 255.965 47.6654 256.058 48.084C256.197 48.456 256.267 48.828 256.267 49.2001C256.267 50.1302 255.709 51.0137 254.593 51.8508C253.477 52.6414 251.896 53.2924 249.849 53.804C247.85 54.362 245.478 54.641 242.734 54.641ZM233.387 34.621H247.687C248.477 34.621 249.082 34.5048 249.501 34.2722C249.919 33.9932 250.128 33.4352 250.128 32.5981C250.128 31.5285 249.803 30.5752 249.152 29.7381C248.501 28.8545 247.617 28.1802 246.501 27.7152C245.385 27.2036 244.083 26.9478 242.595 26.9478C240.874 26.9478 239.316 27.2966 237.921 27.9942C236.526 28.6452 235.41 29.5521 234.573 30.7147C233.782 31.8773 233.387 33.1794 233.387 34.621Z" fill="#27235C" stroke="#27235C" stroke-width="0.2"/>
<path d="M180.33 54.0148C179.4 54.0148 178.656 53.8521 178.098 53.5265C177.54 53.1545 177.121 52.736 176.842 52.2709C176.61 51.8059 176.447 51.4106 176.354 51.0851L162.682 11.045C162.217 9.55688 162.147 8.44078 162.473 7.69672C162.798 6.90615 163.751 6.25509 165.333 5.74354C166.402 5.37151 167.262 5.20875 167.914 5.25525C168.565 5.30175 169.099 5.58078 169.518 6.09233C169.983 6.55737 170.378 7.30143 170.704 8.32452L180.749 38.7382L189.747 8.60354C189.887 8.1385 190.073 7.67346 190.305 7.20842C190.584 6.69688 191.003 6.27834 191.561 5.95281C192.119 5.62728 192.886 5.46452 193.863 5.46452C194.979 5.46452 195.816 5.65054 196.374 6.02257C196.932 6.3946 197.327 6.81314 197.56 7.27818C197.839 7.69672 198.025 8.092 198.118 8.46404L207.116 38.9475L217.231 8.39428C217.557 7.32469 217.929 6.53411 218.347 6.02257C218.812 5.51102 219.394 5.232 220.091 5.1855C220.789 5.09249 221.649 5.232 222.672 5.60403C223.742 5.97607 224.509 6.3946 224.974 6.85964C225.439 7.27818 225.672 7.83623 225.672 8.53379C225.672 9.18485 225.509 10.0219 225.183 11.045L211.581 51.1548C211.488 51.4338 211.302 51.8059 211.023 52.2709C210.79 52.736 210.395 53.1545 209.837 53.5265C209.279 53.8521 208.512 54.0148 207.535 54.0148C206.558 54.0148 205.791 53.8056 205.233 53.387C204.675 52.9685 204.256 52.5034 203.977 51.9919C203.698 51.4803 203.512 51.1083 203.419 50.8758L193.933 20.1831L184.446 50.806C184.353 51.1316 184.167 51.5501 183.888 52.0616C183.655 52.5732 183.26 53.0382 182.702 53.4568C182.144 53.8288 181.353 54.0148 180.33 54.0148Z" fill="#27235C" stroke="#27235C" stroke-width="0.2"/>
<path d="M144.056 54.6416C142.846 54.6416 141.568 54.5021 140.219 54.2231C138.87 53.9906 137.568 53.6418 136.313 53.1768C135.057 52.6652 133.964 52.0839 133.034 51.4328C132.151 50.7353 131.592 49.968 131.36 49.1309C131.174 48.6659 131.104 48.2241 131.151 47.8055C131.197 47.3405 131.337 46.8754 131.569 46.4104C131.802 45.8989 132.151 45.3873 132.616 44.8758C133.034 44.3642 133.453 44.0852 133.871 44.0387C134.336 43.9457 134.917 44.0852 135.615 44.4572C136.22 44.6898 136.871 44.992 137.568 45.3641C138.312 45.7361 139.056 46.1081 139.8 46.4802C140.591 46.8522 141.382 47.1545 142.172 47.387C143.009 47.6195 143.823 47.7358 144.614 47.7358C146.334 47.7358 147.706 47.4567 148.729 46.8987C149.752 46.2941 150.264 45.4571 150.264 44.3875C150.264 43.7829 150.101 43.2481 149.776 42.7831C149.45 42.318 149.008 41.946 148.45 41.667C147.939 41.3415 147.311 41.0624 146.567 40.8299C145.869 40.5509 145.102 40.3184 144.265 40.1323C143.474 39.8998 142.637 39.6441 141.754 39.365C140.591 39.0395 139.428 38.6442 138.266 38.1792C137.103 37.7141 136.057 37.1096 135.127 36.3655C134.243 35.6214 133.522 34.6914 132.964 33.5753C132.406 32.4592 132.127 31.064 132.127 29.3899C132.127 27.2972 132.616 25.53 133.592 24.0884C134.615 22.6003 136.08 21.4609 137.987 20.6704C139.893 19.8798 142.195 19.4845 144.893 19.4845C145.823 19.4845 146.706 19.5543 147.543 19.6938C148.427 19.8333 149.264 20.0426 150.055 20.3216C150.892 20.5541 151.682 20.8564 152.426 21.2284C153.217 21.6005 153.961 22.019 154.658 22.484C155.821 23.1351 156.426 23.9024 156.472 24.786C156.519 25.6231 156.193 26.5299 155.496 27.5065C154.984 28.1575 154.472 28.6226 153.961 28.9016C153.449 29.1341 152.915 29.1341 152.357 28.9016C151.612 28.5296 150.799 28.1343 149.915 27.7157C149.078 27.2507 148.194 26.8554 147.264 26.5299C146.381 26.2044 145.451 26.0416 144.474 26.0416C143.544 26.0416 142.707 26.1811 141.963 26.4601C141.219 26.7392 140.661 27.1344 140.289 27.646C139.917 28.1575 139.731 28.7621 139.731 29.4597C139.731 30.1107 139.917 30.6455 140.289 31.064C140.661 31.4826 141.149 31.8314 141.754 32.1104C142.358 32.3894 143.079 32.6452 143.916 32.8777C144.753 33.0637 145.637 33.2497 146.567 33.4358C147.869 33.7148 149.194 34.0636 150.543 34.4821C151.891 34.9006 153.124 35.4819 154.24 36.226C155.403 36.9701 156.333 37.9699 157.03 39.2255C157.728 40.4346 158.077 42.0158 158.077 43.9689C158.077 47.3637 156.821 49.9912 154.31 51.8514C151.845 53.7116 148.427 54.6416 144.056 54.6416Z" fill="#27235C" stroke="#27235C" stroke-width="0.2"/>
<path d="M111.127 54.6406C108.104 54.6406 105.453 54.1523 103.175 53.1757C100.942 52.1991 99.059 50.8737 97.5244 49.1996C96.0363 47.4789 94.8969 45.5723 94.1063 43.4796C93.3623 41.3404 92.9902 39.1314 92.9902 36.8527C92.9902 33.5044 93.7576 30.5282 95.2922 27.9239C96.8268 25.3197 98.9428 23.2735 101.64 21.7854C104.384 20.2973 107.523 19.5532 111.057 19.5532C113.568 19.5532 115.777 19.9485 117.684 20.739C119.591 21.5296 121.172 22.576 122.427 23.8781C123.729 25.1337 124.706 26.5288 125.357 28.0634C126.055 29.5981 126.403 31.0862 126.403 32.5278C126.403 34.9926 125.799 36.783 124.59 37.8991C123.427 39.0152 121.962 39.5732 120.195 39.5732H101.78C101.826 41.1544 102.314 42.5262 103.244 43.6888C104.221 44.8514 105.43 45.7583 106.872 46.4093C108.36 47.0139 109.871 47.3162 111.406 47.3162C112.568 47.3162 113.592 47.2464 114.475 47.1069C115.405 46.9674 116.196 46.8046 116.847 46.6186C117.498 46.3861 118.056 46.1536 118.521 45.921C119.033 45.6885 119.498 45.4792 119.916 45.2932C120.335 45.1072 120.73 44.991 121.102 44.9444C121.613 44.8979 122.125 45.0142 122.637 45.2932C123.148 45.5723 123.567 46.0606 123.892 46.7581C124.171 47.2232 124.357 47.6649 124.45 48.0835C124.59 48.4555 124.659 48.8275 124.659 49.1996C124.659 50.1297 124.101 51.0132 122.985 51.8503C121.869 52.6409 120.288 53.2919 118.242 53.8035C116.242 54.3615 113.871 54.6406 111.127 54.6406ZM101.78 34.6205H116.08C116.87 34.6205 117.475 34.5043 117.893 34.2717C118.312 33.9927 118.521 33.4347 118.521 32.5976C118.521 31.528 118.195 30.5747 117.544 29.7376C116.893 28.854 116.01 28.1797 114.894 27.7147C113.778 27.2031 112.475 26.9473 110.987 26.9473C109.267 26.9473 107.709 27.2961 106.314 27.9937C104.919 28.6447 103.802 29.5516 102.965 30.7142C102.175 31.8768 101.78 33.1789 101.78 34.6205Z" fill="#27235C" stroke="#27235C" stroke-width="0.2"/>
<path d="M86.2254 54.2245C84.5048 54.2245 82.9702 54.1082 81.6215 53.8757C80.3194 53.6432 79.1801 53.2479 78.2035 52.6898C77.2734 52.1318 76.5061 51.3877 75.9015 50.4576C75.297 49.481 74.832 48.2952 74.5064 46.9001C74.2274 45.5049 74.0879 43.8308 74.0879 41.8776V8.25513C74.0879 7.46456 74.1576 6.767 74.2972 6.16244C74.4832 5.51138 74.8552 4.99984 75.4133 4.6278C76.0178 4.20927 76.9711 4 78.2733 4C79.5754 4 80.5054 4.18602 81.0635 4.55805C81.668 4.93008 82.0401 5.44163 82.1796 6.09269C82.3656 6.69724 82.4586 7.3948 82.4586 8.18537V41.5288C82.4586 42.4124 82.5051 43.1565 82.5981 43.761C82.7376 44.3191 82.9469 44.7841 83.2259 45.1562C83.5515 45.4817 83.9468 45.7142 84.4118 45.8537C84.9233 45.9932 85.5279 46.063 86.2254 46.063C86.83 46.063 87.3648 46.1327 87.8298 46.2723C88.3414 46.4118 88.7367 46.7606 89.0157 47.3186C89.3412 47.8767 89.504 48.7835 89.504 50.0391C89.504 51.3412 89.3412 52.2945 89.0157 52.8991C88.7367 53.5036 88.3414 53.8757 87.8298 54.0152C87.3183 54.1547 86.7835 54.2245 86.2254 54.2245Z" fill="#27235C" stroke="#27235C" stroke-width="0.2"/>
<path d="M62.4024 54.2235C61.1468 54.2235 60.2168 54.0143 59.6122 53.5957C59.0076 53.2237 58.6356 52.7354 58.4961 52.1308C58.3566 51.4798 58.2868 50.759 58.2868 49.9684V24.0191C58.2868 23.275 58.3566 22.6007 58.4961 21.9962C58.6821 21.3451 59.0542 20.8336 59.6122 20.4615C60.2168 20.0895 61.1701 19.9035 62.4722 19.9035C63.7743 19.9035 64.7044 20.0895 65.2624 20.4615C65.867 20.8336 66.239 21.3451 66.3785 21.9962C66.5181 22.6472 66.5878 23.368 66.5878 24.1586V50.0382C66.5878 50.8287 66.5181 51.5495 66.3785 52.2006C66.239 52.8051 65.867 53.2934 65.2624 53.6655C64.7044 54.0375 63.7511 54.2235 62.4024 54.2235ZM62.4024 13.1371C61.0538 13.1371 60.054 12.9511 59.4029 12.5791C58.7984 12.1605 58.4031 11.6025 58.2171 10.9049C58.0776 10.2074 58.0078 9.44005 58.0078 8.60297C58.0078 7.71939 58.0776 6.95208 58.2171 6.30102C58.4031 5.64996 58.8216 5.13842 59.4727 4.76638C60.1237 4.34785 61.1236 4.13858 62.4722 4.13858C63.8673 4.13858 64.8672 4.34785 65.4717 4.76638C66.0763 5.18492 66.4716 5.74297 66.6576 6.44053C66.8436 7.09159 66.9366 7.85891 66.9366 8.74249C66.9366 9.53306 66.8436 10.2771 66.6576 10.9747C66.4716 11.6722 66.0763 12.207 65.4717 12.5791C64.8672 12.9511 63.8441 13.1371 62.4024 13.1371Z" fill="#27235C" stroke="#27235C" stroke-width="0.2"/>
<path d="M5.11561 54.1531C3.9065 54.1531 2.99967 53.9671 2.39512 53.5951C1.79057 53.223 1.39528 52.7115 1.20927 52.0604C1.06976 51.4094 1 50.6886 1 49.898V9.64869C1 8.90462 1.06976 8.23031 1.20927 7.62576C1.39528 6.9747 1.79057 6.46315 2.39512 6.09112C2.99967 5.67259 3.95301 5.46332 5.25512 5.46332C6.23171 5.46332 6.95252 5.53307 7.41756 5.67258C7.9291 5.76559 8.32439 5.92836 8.60341 6.16088C8.88244 6.34689 9.16146 6.60267 9.44049 6.92819L26.461 30.7151H24.8566L41.9468 6.85844C42.2723 6.48641 42.5979 6.20738 42.9234 6.02136C43.2489 5.83535 43.6675 5.69584 44.179 5.60283C44.6906 5.50982 45.3649 5.46332 46.2019 5.46332C47.4576 5.46332 48.3876 5.67259 48.9922 6.09112C49.5967 6.46315 49.9688 6.9747 50.1083 7.62576C50.2943 8.27681 50.3873 8.99763 50.3873 9.7882V50.0375C50.3873 50.7351 50.2943 51.4094 50.1083 52.0604C49.9688 52.7115 49.5967 53.223 48.9922 53.5951C48.3876 53.9671 47.4343 54.1531 46.1322 54.1531C44.8766 54.1531 43.9465 53.9439 43.3419 53.5253C42.7374 53.1533 42.3421 52.6417 42.1561 51.9907C42.0166 51.3396 41.9468 50.6421 41.9468 49.898V19.9726L29.2512 38.3185C29.1117 38.5045 28.9024 38.7603 28.6234 39.0858C28.3444 39.3648 27.9724 39.6206 27.5073 39.8531C27.0423 40.0856 26.4145 40.2019 25.6239 40.2019C24.8798 40.2019 24.2753 40.0856 23.8102 39.8531C23.3452 39.6206 22.9732 39.3648 22.6941 39.0858C22.4616 38.8068 22.2291 38.5277 21.9966 38.2487L9.37073 19.9726V50.0375C9.37073 50.7351 9.27772 51.4094 9.0917 52.0604C8.95219 52.7115 8.58016 53.223 7.97561 53.5951C7.37106 53.9671 6.41772 54.1531 5.11561 54.1531Z" fill="#27235C" stroke="#27235C" stroke-width="0.2"/>
</svg>
