<svg width="1201" height="1200" viewBox="0 0 1201 1200" fill="none" xmlns="http://www.w3.org/2000/svg">
<path d="M545.226 779.069C545.226 776.308 547.464 774.069 550.226 774.069H1174.15C1176.91 774.069 1179.15 776.308 1179.15 779.069V786.926C1179.15 789.688 1176.91 791.926 1174.15 791.926H550.226C547.464 791.926 545.226 789.688 545.226 786.926V779.069Z" fill="#FFBB00"/>
<path d="M43.1916 717.157V695.544C39.6077 689.998 36.2317 684.53 33.0633 679.139C29.895 673.749 26.9085 668.462 24.1038 663.279H32.9854C34.9591 667.529 37.1666 671.857 39.6077 676.263C42.0489 680.616 44.568 684.815 47.1649 688.857C49.71 684.815 52.2031 680.616 54.6442 676.263C57.0854 671.857 59.3188 667.529 61.3444 663.279H69.7586C66.9539 668.462 63.9674 673.749 60.7991 679.139C57.6308 684.478 54.2807 689.894 50.7488 695.388V717.157H43.1916Z" fill="#27235C"/>
<path d="M108.388 696.943C108.388 700.157 107.921 703.059 106.986 705.651C106.051 708.242 104.727 710.471 103.013 712.337C101.35 714.203 99.3508 715.654 97.0135 716.691C94.6763 717.675 92.1312 718.168 89.3784 718.168C86.6256 718.168 84.0806 717.675 81.7433 716.691C79.406 715.654 77.3804 714.203 75.6664 712.337C74.0043 710.471 72.7058 708.242 71.7709 705.651C70.836 703.059 70.3685 700.157 70.3685 696.943C70.3685 693.781 70.836 690.905 71.7709 688.313C72.7058 685.67 74.0043 683.415 75.6664 681.549C77.3804 679.683 79.406 678.258 81.7433 677.273C84.0806 676.237 86.6256 675.718 89.3784 675.718C92.1312 675.718 94.6763 676.237 97.0135 677.273C99.3508 678.258 101.35 679.683 103.013 681.549C104.727 683.415 106.051 685.67 106.986 688.313C107.921 690.905 108.388 693.781 108.388 696.943ZM100.831 696.943C100.831 692.382 99.7923 688.78 97.7147 686.136C95.6891 683.441 92.9103 682.094 89.3784 682.094C85.8465 682.094 83.0418 683.441 80.9642 686.136C78.9386 688.78 77.9257 692.382 77.9257 696.943C77.9257 701.504 78.9386 705.132 80.9642 707.828C83.0418 710.471 85.8465 711.793 89.3784 711.793C92.9103 711.793 95.6891 710.471 97.7147 707.828C99.7923 705.132 100.831 701.504 100.831 696.943Z" fill="#27235C"/>
<path d="M150.837 715.991C149.175 716.406 146.967 716.846 144.214 717.313C141.514 717.779 138.371 718.012 134.787 718.012C131.671 718.012 129.048 717.572 126.919 716.691C124.789 715.758 123.075 714.462 121.777 712.803C120.478 711.145 119.543 709.201 118.972 706.972C118.4 704.692 118.115 702.178 118.115 699.431V676.729H125.36V697.876C125.36 702.8 126.139 706.324 127.698 708.45C129.256 710.575 131.879 711.637 135.567 711.637C136.346 711.637 137.151 711.611 137.982 711.559C138.813 711.508 139.592 711.456 140.319 711.404C141.046 711.3 141.695 711.223 142.267 711.171C142.89 711.067 143.331 710.963 143.591 710.86V676.729H150.837V715.991Z" fill="#27235C"/>
<path d="M178.278 675.874C178.901 675.874 179.602 675.926 180.381 676.029C181.212 676.081 182.018 676.185 182.797 676.34C183.576 676.444 184.277 676.574 184.9 676.729C185.575 676.833 186.069 676.936 186.38 677.04L185.134 683.337C184.563 683.13 183.602 682.897 182.251 682.638C180.953 682.327 179.265 682.171 177.187 682.171C175.837 682.171 174.486 682.327 173.136 682.638C171.837 682.897 170.98 683.078 170.565 683.182V717.157H163.319V678.439C165.033 677.817 167.163 677.247 169.708 676.729C172.253 676.159 175.11 675.874 178.278 675.874Z" fill="#27235C"/>
<path d="M245.84 663.279H253.397V717.157H245.84V692.278H219.429V717.157H211.871V663.279H219.429V685.748H245.84V663.279Z" fill="#27235C"/>
<path d="M302.097 696.943C302.097 700.157 301.629 703.059 300.694 705.651C299.759 708.242 298.435 710.471 296.721 712.337C295.059 714.203 293.059 715.654 290.722 716.691C288.385 717.675 285.839 718.168 283.087 718.168C280.334 718.168 277.789 717.675 275.452 716.691C273.114 715.654 271.089 714.203 269.375 712.337C267.713 710.471 266.414 708.242 265.479 705.651C264.544 703.059 264.077 700.157 264.077 696.943C264.077 693.781 264.544 690.905 265.479 688.313C266.414 685.67 267.713 683.415 269.375 681.549C271.089 679.683 273.114 678.258 275.452 677.273C277.789 676.237 280.334 675.718 283.087 675.718C285.839 675.718 288.385 676.237 290.722 677.273C293.059 678.258 295.059 679.683 296.721 681.549C298.435 683.415 299.759 685.67 300.694 688.313C301.629 690.905 302.097 693.781 302.097 696.943ZM294.539 696.943C294.539 692.382 293.501 688.78 291.423 686.136C289.397 683.441 286.619 682.094 283.087 682.094C279.555 682.094 276.75 683.441 274.672 686.136C272.647 688.78 271.634 692.382 271.634 696.943C271.634 701.504 272.647 705.132 274.672 707.828C276.75 710.471 279.555 711.793 283.087 711.793C286.619 711.793 289.397 710.471 291.423 707.828C293.501 705.132 294.539 701.504 294.539 696.943Z" fill="#27235C"/>
<path d="M321.718 711.948C324.678 711.948 326.86 711.559 328.262 710.782C329.716 710.004 330.443 708.761 330.443 707.05C330.443 705.288 329.742 703.888 328.34 702.852C326.937 701.815 324.626 700.649 321.406 699.353C319.848 698.731 318.341 698.109 316.887 697.487C315.485 696.814 314.264 696.036 313.225 695.155C312.187 694.274 311.356 693.211 310.732 691.967C310.109 690.723 309.797 689.194 309.797 687.38C309.797 683.804 311.122 680.979 313.771 678.906C316.42 676.781 320.03 675.718 324.6 675.718C325.743 675.718 326.886 675.796 328.028 675.952C329.171 676.055 330.236 676.211 331.222 676.418C332.209 676.574 333.066 676.755 333.793 676.962C334.573 677.17 335.17 677.351 335.585 677.506L334.261 683.726C333.482 683.312 332.261 682.897 330.599 682.482C328.937 682.016 326.937 681.783 324.6 681.783C322.575 681.783 320.809 682.197 319.302 683.026C317.796 683.804 317.043 685.048 317.043 686.758C317.043 687.639 317.199 688.417 317.51 689.091C317.874 689.765 318.393 690.386 319.069 690.957C319.796 691.475 320.679 691.967 321.718 692.434C322.756 692.9 324.003 693.393 325.457 693.911C327.379 694.637 329.093 695.362 330.599 696.088C332.105 696.762 333.378 697.565 334.417 698.498C335.508 699.431 336.339 700.571 336.91 701.919C337.481 703.215 337.767 704.821 337.767 706.739C337.767 710.471 336.364 713.296 333.56 715.214C330.807 717.131 326.86 718.09 321.718 718.09C318.134 718.09 315.329 717.779 313.303 717.157C311.278 716.587 309.901 716.146 309.174 715.835L310.499 709.616C311.33 709.927 312.654 710.393 314.472 711.015C316.29 711.637 318.705 711.948 321.718 711.948Z" fill="#27235C"/>
<path d="M353.839 676.729H369.187V682.793H353.839V701.452C353.839 703.474 353.995 705.158 354.306 706.506C354.618 707.802 355.085 708.838 355.709 709.616C356.332 710.341 357.111 710.86 358.046 711.171C358.981 711.482 360.071 711.637 361.318 711.637C363.499 711.637 365.239 711.404 366.538 710.937C367.888 710.419 368.823 710.056 369.343 709.849L370.745 715.835C370.018 716.198 368.745 716.639 366.928 717.157C365.11 717.727 363.032 718.012 360.695 718.012C357.942 718.012 355.657 717.675 353.839 717.002C352.073 716.276 350.644 715.214 349.554 713.814C348.463 712.415 347.684 710.704 347.216 708.683C346.801 706.61 346.593 704.225 346.593 701.53V665.456L353.839 664.212V676.729Z" fill="#27235C"/>
<path d="M385.653 717.157H378.407V676.729H385.653V717.157ZM381.991 669.421C380.692 669.421 379.576 669.006 378.641 668.177C377.758 667.296 377.316 666.13 377.316 664.678C377.316 663.227 377.758 662.087 378.641 661.257C379.576 660.376 380.692 659.936 381.991 659.936C383.289 659.936 384.38 660.376 385.263 661.257C386.198 662.087 386.665 663.227 386.665 664.678C386.665 666.13 386.198 667.296 385.263 668.177C384.38 669.006 383.289 669.421 381.991 669.421Z" fill="#27235C"/>
<path d="M398.113 677.895C399.775 677.481 401.982 677.04 404.735 676.574C407.488 676.107 410.656 675.874 414.24 675.874C417.46 675.874 420.135 676.34 422.264 677.273C424.394 678.154 426.082 679.424 427.329 681.083C428.627 682.69 429.536 684.633 430.055 686.914C430.575 689.194 430.834 691.708 430.834 694.455V717.157H423.589V696.01C423.589 693.522 423.407 691.397 423.044 689.635C422.732 687.873 422.187 686.447 421.407 685.359C420.628 684.27 419.59 683.493 418.291 683.026C416.993 682.508 415.382 682.249 413.461 682.249C412.682 682.249 411.877 682.275 411.046 682.327C410.214 682.379 409.409 682.456 408.63 682.56C407.903 682.612 407.228 682.69 406.605 682.793C406.033 682.897 405.618 682.975 405.358 683.026V717.157H398.113V677.895Z" fill="#27235C"/>
<path d="M468.248 713.114C467.625 713.529 466.404 714.073 464.586 714.747C462.82 715.369 460.743 715.68 458.354 715.68C455.912 715.68 453.601 715.291 451.42 714.514C449.29 713.736 447.42 712.544 445.81 710.937C444.2 709.279 442.927 707.232 441.993 704.795C441.058 702.359 440.59 699.457 440.59 696.088C440.59 693.134 441.032 690.438 441.915 688.002C442.798 685.514 444.07 683.389 445.732 681.627C447.446 679.813 449.524 678.414 451.965 677.429C454.406 676.392 457.159 675.874 460.223 675.874C463.599 675.874 466.534 676.133 469.027 676.651C471.572 677.118 473.702 677.558 475.416 677.973V714.047C475.416 720.267 473.806 724.776 470.585 727.575C467.365 730.374 462.483 731.774 455.938 731.774C453.393 731.774 450.978 731.566 448.693 731.152C446.459 730.737 444.512 730.244 442.85 729.674L444.174 723.377C445.628 723.947 447.394 724.439 449.472 724.854C451.601 725.321 453.809 725.554 456.094 725.554C460.405 725.554 463.496 724.699 465.365 722.988C467.287 721.278 468.248 718.557 468.248 714.825V713.114ZM468.17 683.104C467.443 682.897 466.456 682.715 465.21 682.56C464.015 682.353 462.379 682.249 460.301 682.249C456.406 682.249 453.393 683.519 451.264 686.059C449.186 688.598 448.147 691.967 448.147 696.166C448.147 698.498 448.433 700.494 449.004 702.152C449.628 703.811 450.433 705.184 451.42 706.273C452.458 707.361 453.627 708.164 454.926 708.683C456.276 709.201 457.652 709.46 459.055 709.46C460.977 709.46 462.742 709.201 464.353 708.683C465.963 708.113 467.235 707.465 468.17 706.739V683.104Z" fill="#27235C"/>
<path d="M495.526 708.294C495.578 708.709 495.604 709.123 495.604 709.538C495.604 709.901 495.604 710.29 495.604 710.704C495.604 713.97 495.111 717.183 494.124 720.345C493.189 723.558 491.89 726.616 490.228 729.519L484.619 727.731C485.917 725.087 486.774 722.392 487.19 719.645C487.605 716.95 487.813 714.41 487.813 712.026C487.813 711.352 487.787 710.704 487.735 710.082C487.735 709.46 487.709 708.864 487.657 708.294H495.526Z" fill="#27235C"/>
<path d="M523.382 690.179C523.382 685.566 524.057 681.497 525.407 677.973C526.81 674.448 528.68 671.52 531.017 669.188C533.406 666.803 536.159 665.015 539.275 663.823C542.444 662.631 545.794 662.035 549.325 662.035C552.805 662.035 556.078 662.631 559.142 663.823C562.258 665.015 564.985 666.803 567.323 669.188C569.66 671.52 571.504 674.448 572.854 677.973C574.257 681.497 574.958 685.566 574.958 690.179C574.958 694.792 574.257 698.861 572.854 702.385C571.504 705.91 569.66 708.864 567.323 711.248C564.985 713.581 562.258 715.343 559.142 716.535C556.078 717.727 552.805 718.323 549.325 718.323C545.794 718.323 542.444 717.727 539.275 716.535C536.159 715.343 533.406 713.581 531.017 711.248C528.68 708.864 526.81 705.91 525.407 702.385C524.057 698.861 523.382 694.792 523.382 690.179ZM531.328 690.179C531.328 693.445 531.744 696.425 532.575 699.12C533.406 701.763 534.575 704.018 536.081 705.884C537.639 707.75 539.509 709.201 541.69 710.238C543.924 711.223 546.417 711.715 549.17 711.715C551.923 711.715 554.39 711.223 556.571 710.238C558.753 709.201 560.596 707.75 562.103 705.884C563.661 704.018 564.855 701.763 565.686 699.12C566.518 696.425 566.933 693.445 566.933 690.179C566.933 686.914 566.518 683.959 565.686 681.316C564.855 678.621 563.661 676.34 562.103 674.474C560.596 672.608 558.753 671.183 556.571 670.198C554.39 669.162 551.923 668.643 549.17 668.643C546.417 668.643 543.924 669.162 541.69 670.198C539.509 671.183 537.639 672.608 536.081 674.474C534.575 676.34 533.406 678.621 532.575 681.316C531.744 683.959 531.328 686.914 531.328 690.179Z" fill="#27235C"/>
<path d="M617.989 715.991C616.327 716.406 614.119 716.846 611.366 717.313C608.665 717.779 605.523 718.012 601.939 718.012C598.823 718.012 596.2 717.572 594.07 716.691C591.941 715.758 590.227 714.462 588.928 712.803C587.63 711.145 586.695 709.201 586.124 706.972C585.552 704.692 585.267 702.178 585.267 699.431V676.729H592.512V697.876C592.512 702.8 593.291 706.324 594.85 708.45C596.408 710.575 599.031 711.637 602.718 711.637C603.497 711.637 604.303 711.611 605.134 711.559C605.965 711.508 606.744 711.456 607.471 711.404C608.198 711.3 608.847 711.223 609.419 711.171C610.042 711.067 610.483 710.963 610.743 710.86V676.729H617.989V715.991Z" fill="#27235C"/>
<path d="M645.43 675.874C646.053 675.874 646.754 675.926 647.533 676.029C648.364 676.081 649.169 676.185 649.949 676.34C650.728 676.444 651.429 676.574 652.052 676.729C652.727 676.833 653.221 676.936 653.532 677.04L652.286 683.337C651.714 683.13 650.754 682.897 649.403 682.638C648.105 682.327 646.417 682.171 644.339 682.171C642.989 682.171 641.638 682.327 640.288 682.638C638.989 682.897 638.132 683.078 637.717 683.182V717.157H630.471V678.439C632.185 677.817 634.315 677.247 636.86 676.729C639.405 676.159 642.261 675.874 645.43 675.874Z" fill="#27235C"/>
<path d="M705.435 694.611C706.266 695.647 707.304 697.021 708.551 698.731C709.849 700.39 711.174 702.256 712.524 704.329C713.875 706.35 715.199 708.475 716.498 710.704C717.848 712.933 718.991 715.084 719.926 717.157H711.667C710.629 715.188 709.486 713.192 708.239 711.171C707.045 709.149 705.824 707.232 704.578 705.417C703.331 703.552 702.084 701.815 700.838 700.208C699.643 698.602 698.553 697.202 697.566 696.01C696.891 696.062 696.189 696.088 695.462 696.088C694.787 696.088 694.086 696.088 693.359 696.088H686.58V717.157H679.023V664.056C681.153 663.538 683.516 663.201 686.113 663.046C688.762 662.838 691.177 662.735 693.359 662.735C700.942 662.735 706.707 664.16 710.654 667.011C714.654 669.861 716.654 674.112 716.654 679.761C716.654 683.337 715.693 686.395 713.771 688.935C711.901 691.475 709.122 693.367 705.435 694.611ZM693.982 669.343C690.762 669.343 688.294 669.421 686.58 669.576V689.868H691.956C694.553 689.868 696.891 689.739 698.968 689.479C701.046 689.22 702.786 688.728 704.188 688.002C705.642 687.277 706.759 686.266 707.538 684.97C708.317 683.623 708.707 681.86 708.707 679.683C708.707 677.662 708.317 675.977 707.538 674.63C706.759 673.282 705.694 672.22 704.344 671.442C703.045 670.665 701.487 670.121 699.669 669.81C697.903 669.499 696.008 669.343 693.982 669.343Z" fill="#27235C"/>
<path d="M725.294 697.021C725.294 693.445 725.814 690.335 726.852 687.691C727.891 684.996 729.268 682.767 730.982 681.005C732.696 679.243 734.669 677.921 736.903 677.04C739.136 676.159 741.421 675.718 743.759 675.718C749.212 675.718 753.393 677.429 756.302 680.85C759.211 684.219 760.665 689.376 760.665 696.321C760.665 696.632 760.665 697.047 760.665 697.565C760.665 698.032 760.639 698.472 760.587 698.887H732.851C733.163 703.085 734.384 706.273 736.513 708.45C738.643 710.626 741.967 711.715 746.486 711.715C749.031 711.715 751.16 711.508 752.874 711.093C754.64 710.626 755.964 710.186 756.847 709.771L757.86 715.835C756.977 716.302 755.419 716.794 753.186 717.313C751.004 717.831 748.511 718.09 745.706 718.09C742.175 718.09 739.11 717.572 736.513 716.535C733.968 715.447 731.865 713.97 730.202 712.104C728.54 710.238 727.294 708.035 726.463 705.495C725.684 702.904 725.294 700.079 725.294 697.021ZM753.108 693.056C753.16 689.79 752.329 687.121 750.615 685.048C748.953 682.923 746.641 681.86 743.681 681.86C742.019 681.86 740.538 682.197 739.24 682.871C737.993 683.493 736.929 684.322 736.046 685.359C735.163 686.395 734.461 687.588 733.942 688.935C733.475 690.283 733.163 691.656 733.007 693.056H753.108Z" fill="#27235C"/>
<path d="M780.5 711.948C783.461 711.948 785.642 711.559 787.045 710.782C788.499 710.004 789.226 708.761 789.226 707.05C789.226 705.288 788.525 703.888 787.123 702.852C785.72 701.815 783.409 700.649 780.189 699.353C778.63 698.731 777.124 698.109 775.67 697.487C774.268 696.814 773.047 696.036 772.008 695.155C770.969 694.274 770.138 693.211 769.515 691.967C768.892 690.723 768.58 689.194 768.58 687.38C768.58 683.804 769.905 680.979 772.553 678.906C775.202 676.781 778.812 675.718 783.383 675.718C784.526 675.718 785.668 675.796 786.811 675.952C787.954 676.055 789.018 676.211 790.005 676.418C790.992 676.574 791.849 676.755 792.576 676.962C793.355 677.17 793.953 677.351 794.368 677.506L793.044 683.726C792.265 683.312 791.044 682.897 789.382 682.482C787.72 682.016 785.72 681.783 783.383 681.783C781.357 681.783 779.591 682.197 778.085 683.026C776.579 683.804 775.826 685.048 775.826 686.758C775.826 687.639 775.982 688.417 776.293 689.091C776.657 689.765 777.176 690.386 777.851 690.957C778.578 691.475 779.462 691.967 780.5 692.434C781.539 692.9 782.786 693.393 784.24 693.911C786.162 694.637 787.876 695.362 789.382 696.088C790.888 696.762 792.161 697.565 793.199 698.498C794.29 699.431 795.121 700.571 795.693 701.919C796.264 703.215 796.55 704.821 796.55 706.739C796.55 710.471 795.147 713.296 792.342 715.214C789.59 717.131 785.642 718.09 780.5 718.09C776.916 718.09 774.112 717.779 772.086 717.157C770.06 716.587 768.684 716.146 767.957 715.835L769.281 709.616C770.112 709.927 771.437 710.393 773.255 711.015C775.073 711.637 777.488 711.948 780.5 711.948Z" fill="#27235C"/>
<path d="M833.969 697.021C833.969 692.304 832.8 688.676 830.463 686.136C828.125 683.597 825.009 682.327 821.114 682.327C818.932 682.327 817.218 682.405 815.972 682.56C814.777 682.715 813.816 682.897 813.089 683.104V708.605C813.972 709.331 815.244 710.03 816.906 710.704C818.569 711.378 820.386 711.715 822.36 711.715C824.438 711.715 826.204 711.352 827.658 710.626C829.164 709.849 830.385 708.812 831.32 707.517C832.255 706.169 832.93 704.614 833.345 702.852C833.761 701.038 833.969 699.094 833.969 697.021ZM841.526 697.021C841.526 700.079 841.11 702.904 840.279 705.495C839.5 708.087 838.331 710.315 836.773 712.181C835.215 714.047 833.293 715.499 831.008 716.535C828.775 717.572 826.204 718.09 823.295 718.09C820.958 718.09 818.88 717.779 817.062 717.157C815.296 716.535 813.972 715.939 813.089 715.369V731.54H805.843V677.973C807.557 677.558 809.687 677.118 812.232 676.651C814.829 676.133 817.815 675.874 821.191 675.874C824.308 675.874 827.113 676.366 829.606 677.351C832.099 678.336 834.228 679.735 835.994 681.549C837.76 683.363 839.111 685.592 840.046 688.235C841.032 690.827 841.526 693.755 841.526 697.021Z" fill="#27235C"/>
<path d="M887.482 696.943C887.482 700.157 887.015 703.059 886.08 705.651C885.145 708.242 883.82 710.471 882.106 712.337C880.444 714.203 878.444 715.654 876.107 716.691C873.77 717.675 871.225 718.168 868.472 718.168C865.719 718.168 863.174 717.675 860.837 716.691C858.5 715.654 856.474 714.203 854.76 712.337C853.098 710.471 851.799 708.242 850.865 705.651C849.93 703.059 849.462 700.157 849.462 696.943C849.462 693.781 849.93 690.905 850.865 688.313C851.799 685.67 853.098 683.415 854.76 681.549C856.474 679.683 858.5 678.258 860.837 677.273C863.174 676.237 865.719 675.718 868.472 675.718C871.225 675.718 873.77 676.237 876.107 677.273C878.444 678.258 880.444 679.683 882.106 681.549C883.82 683.415 885.145 685.67 886.08 688.313C887.015 690.905 887.482 693.781 887.482 696.943ZM879.925 696.943C879.925 692.382 878.886 688.78 876.808 686.136C874.783 683.441 872.004 682.094 868.472 682.094C864.94 682.094 862.136 683.441 860.058 686.136C858.032 688.78 857.019 692.382 857.019 696.943C857.019 701.504 858.032 705.132 860.058 707.828C862.136 710.471 864.94 711.793 868.472 711.793C872.004 711.793 874.783 710.471 876.808 707.828C878.886 705.132 879.925 701.504 879.925 696.943Z" fill="#27235C"/>
<path d="M897.676 677.895C899.338 677.481 901.545 677.04 904.298 676.574C907.051 676.107 910.219 675.874 913.803 675.874C917.023 675.874 919.698 676.34 921.828 677.273C923.957 678.154 925.645 679.424 926.892 681.083C928.19 682.69 929.099 684.633 929.619 686.914C930.138 689.194 930.398 691.708 930.398 694.455V717.157H923.152V696.01C923.152 693.522 922.971 691.397 922.607 689.635C922.295 687.873 921.75 686.447 920.971 685.359C920.192 684.27 919.153 683.493 917.854 683.026C916.556 682.508 914.946 682.249 913.024 682.249C912.245 682.249 911.44 682.275 910.609 682.327C909.778 682.379 908.973 682.456 908.194 682.56C907.467 682.612 906.791 682.69 906.168 682.793C905.597 682.897 905.181 682.975 904.922 683.026V717.157H897.676V677.895Z" fill="#27235C"/>
<path d="M951.84 711.948C954.801 711.948 956.982 711.559 958.384 710.782C959.839 710.004 960.566 708.761 960.566 707.05C960.566 705.288 959.865 703.888 958.462 702.852C957.06 701.815 954.749 700.649 951.528 699.353C949.97 698.731 948.464 698.109 947.01 697.487C945.607 696.814 944.387 696.036 943.348 695.155C942.309 694.274 941.478 693.211 940.855 691.967C940.232 690.723 939.92 689.194 939.92 687.38C939.92 683.804 941.244 680.979 943.893 678.906C946.542 676.781 950.152 675.718 954.723 675.718C955.865 675.718 957.008 675.796 958.151 675.952C959.293 676.055 960.358 676.211 961.345 676.418C962.332 676.574 963.189 676.755 963.916 676.962C964.695 677.17 965.292 677.351 965.708 677.506L964.383 683.726C963.604 683.312 962.384 682.897 960.722 682.482C959.06 682.016 957.06 681.783 954.723 681.783C952.697 681.783 950.931 682.197 949.425 683.026C947.919 683.804 947.165 685.048 947.165 686.758C947.165 687.639 947.321 688.417 947.633 689.091C947.996 689.765 948.516 690.386 949.191 690.957C949.918 691.475 950.801 691.967 951.84 692.434C952.879 692.9 954.125 693.393 955.58 693.911C957.501 694.637 959.215 695.362 960.722 696.088C962.228 696.762 963.5 697.565 964.539 698.498C965.63 699.431 966.461 700.571 967.032 701.919C967.604 703.215 967.889 704.821 967.889 706.739C967.889 710.471 966.487 713.296 963.682 715.214C960.929 717.131 956.982 718.09 951.84 718.09C948.256 718.09 945.451 717.779 943.426 717.157C941.4 716.587 940.024 716.146 939.297 715.835L940.621 709.616C941.452 709.927 942.777 710.393 944.594 711.015C946.412 711.637 948.828 711.948 951.84 711.948Z" fill="#27235C"/>
<path d="M984.429 717.157H977.183V676.729H984.429V717.157ZM980.767 669.421C979.468 669.421 978.352 669.006 977.417 668.177C976.534 667.296 976.092 666.13 976.092 664.678C976.092 663.227 976.534 662.087 977.417 661.257C978.352 660.376 979.468 659.936 980.767 659.936C982.065 659.936 983.156 660.376 984.039 661.257C984.974 662.087 985.441 663.227 985.441 664.678C985.441 666.13 984.974 667.296 984.039 668.177C983.156 669.006 982.065 669.421 980.767 669.421Z" fill="#27235C"/>
<path d="M1004.13 678.517C1005.02 677.947 1006.34 677.351 1008.11 676.729C1009.93 676.107 1012 675.796 1014.34 675.796C1017.25 675.796 1019.82 676.314 1022.05 677.351C1024.34 678.388 1026.26 679.839 1027.82 681.705C1029.38 683.571 1030.55 685.799 1031.32 688.391C1032.16 690.983 1032.57 693.833 1032.57 696.943C1032.57 700.208 1032.08 703.163 1031.09 705.806C1030.16 708.398 1028.81 710.601 1027.04 712.415C1025.27 714.229 1023.14 715.628 1020.65 716.613C1018.16 717.598 1015.35 718.09 1012.24 718.09C1008.86 718.09 1005.87 717.857 1003.28 717.39C1000.68 716.924 998.551 716.457 996.889 715.991V658.07L1004.13 656.826V678.517ZM1004.13 710.86C1004.86 711.067 1005.87 711.274 1007.17 711.482C1008.52 711.637 1010.19 711.715 1012.16 711.715C1016.05 711.715 1019.17 710.445 1021.51 707.905C1023.85 705.314 1025.01 701.66 1025.01 696.943C1025.01 694.87 1024.81 692.926 1024.39 691.112C1023.98 689.298 1023.3 687.743 1022.37 686.447C1021.43 685.1 1020.21 684.063 1018.7 683.337C1017.25 682.56 1015.48 682.171 1013.41 682.171C1011.43 682.171 1009.61 682.508 1007.95 683.182C1006.29 683.856 1005.02 684.555 1004.13 685.281V710.86Z" fill="#27235C"/>
<path d="M1050.01 717.157H1042.77V676.729H1050.01V717.157ZM1046.35 669.421C1045.05 669.421 1043.94 669.006 1043 668.177C1042.12 667.296 1041.68 666.13 1041.68 664.678C1041.68 663.227 1042.12 662.087 1043 661.257C1043.94 660.376 1045.05 659.936 1046.35 659.936C1047.65 659.936 1048.74 660.376 1049.62 661.257C1050.56 662.087 1051.03 663.227 1051.03 664.678C1051.03 666.13 1050.56 667.296 1049.62 668.177C1048.74 669.006 1047.65 669.421 1046.35 669.421Z" fill="#27235C"/>
<path d="M1074.63 717.935C1070.16 717.831 1066.99 716.872 1065.12 715.058C1063.25 713.244 1062.32 710.419 1062.32 706.584V658.07L1069.56 656.826V705.417C1069.56 706.61 1069.67 707.594 1069.87 708.372C1070.08 709.149 1070.42 709.771 1070.89 710.238C1071.35 710.704 1071.98 711.067 1072.76 711.326C1073.54 711.534 1074.5 711.715 1075.64 711.87L1074.63 717.935Z" fill="#27235C"/>
<path d="M1091.02 717.157H1083.78V676.729H1091.02V717.157ZM1087.36 669.421C1086.06 669.421 1084.94 669.006 1084.01 668.177C1083.13 667.296 1082.69 666.13 1082.69 664.678C1082.69 663.227 1083.13 662.087 1084.01 661.257C1084.94 660.376 1086.06 659.936 1087.36 659.936C1088.66 659.936 1089.75 660.376 1090.63 661.257C1091.57 662.087 1092.03 663.227 1092.03 664.678C1092.03 666.13 1091.57 667.296 1090.63 668.177C1089.75 669.006 1088.66 669.421 1087.36 669.421Z" fill="#27235C"/>
<path d="M1110.26 676.729H1125.61V682.793H1110.26V701.452C1110.26 703.474 1110.42 705.158 1110.73 706.506C1111.04 707.802 1111.51 708.838 1112.13 709.616C1112.75 710.341 1113.53 710.86 1114.47 711.171C1115.4 711.482 1116.49 711.637 1117.74 711.637C1119.92 711.637 1121.66 711.404 1122.96 710.937C1124.31 710.419 1125.24 710.056 1125.76 709.849L1127.17 715.835C1126.44 716.198 1125.17 716.639 1123.35 717.157C1121.53 717.727 1119.45 718.012 1117.12 718.012C1114.36 718.012 1112.08 717.675 1110.26 717.002C1108.49 716.276 1107.07 715.214 1105.97 713.814C1104.88 712.415 1104.1 710.704 1103.64 708.683C1103.22 706.61 1103.01 704.225 1103.01 701.53V665.456L1110.26 664.212V676.729Z" fill="#27235C"/>
<path d="M1130.08 724.699C1130.65 724.958 1131.37 725.191 1132.26 725.398C1133.19 725.657 1134.1 725.787 1134.98 725.787C1137.84 725.787 1140.07 725.139 1141.68 723.843C1143.29 722.599 1144.75 720.552 1146.05 717.701C1142.77 711.482 1139.71 704.899 1136.85 697.954C1134.05 690.957 1131.71 683.882 1129.84 676.729H1137.63C1138.2 679.061 1138.88 681.575 1139.66 684.27C1140.49 686.966 1141.4 689.739 1142.39 692.589C1143.37 695.44 1144.44 698.291 1145.58 701.141C1146.72 703.992 1147.92 706.739 1149.16 709.383C1151.14 703.94 1152.85 698.55 1154.31 693.211C1155.76 687.873 1157.14 682.379 1158.43 676.729H1165.91C1164.04 684.348 1161.97 691.682 1159.68 698.731C1157.4 705.728 1154.93 712.285 1152.28 718.401C1151.24 720.734 1150.15 722.729 1149.01 724.388C1147.92 726.098 1146.7 727.497 1145.35 728.586C1144 729.674 1142.46 730.478 1140.75 730.996C1139.09 731.514 1137.19 731.774 1135.06 731.774C1134.49 731.774 1133.89 731.722 1133.27 731.618C1132.65 731.566 1132.02 731.463 1131.4 731.307C1130.83 731.203 1130.28 731.074 1129.76 730.918C1129.3 730.763 1128.96 730.633 1128.75 730.53L1130.08 724.699Z" fill="#27235C"/>
<path d="M1180 712.959C1180 714.358 1179.53 715.576 1178.6 716.613C1177.66 717.65 1176.39 718.168 1174.78 718.168C1173.17 718.168 1171.9 717.65 1170.96 716.613C1170.03 715.576 1169.56 714.358 1169.56 712.959C1169.56 711.559 1170.03 710.341 1170.96 709.305C1171.9 708.268 1173.17 707.75 1174.78 707.75C1176.39 707.75 1177.66 708.268 1178.6 709.305C1179.53 710.341 1180 711.559 1180 712.959Z" fill="#27235C"/>
<path d="M1117.12 604.044C1108.21 604.044 1100.21 602.317 1093.12 598.863C1086.21 595.227 1080.31 590.319 1075.4 584.138C1070.67 577.958 1067.04 570.868 1064.49 562.87C1062.13 554.689 1060.95 545.964 1060.95 536.692C1061.13 527.421 1062.49 518.787 1065.04 510.788C1067.58 502.608 1071.22 495.518 1075.94 489.519C1080.85 483.338 1086.76 478.521 1093.67 475.067C1100.57 471.613 1108.39 469.886 1117.12 469.886C1125.48 469.886 1133.3 471.613 1140.57 475.067C1148.02 478.521 1154.57 483.338 1160.2 489.519C1166.02 495.518 1170.56 502.608 1173.83 510.788C1177.11 518.787 1178.74 527.331 1178.74 536.42C1178.74 545.873 1177.11 554.78 1173.83 563.142C1170.56 571.323 1166.11 578.503 1160.47 584.684C1154.84 590.683 1148.29 595.409 1140.84 598.863C1133.39 602.317 1125.48 604.044 1117.12 604.044ZM1112.75 572.141C1119.12 572.141 1124.84 570.686 1129.93 567.778C1135.02 564.687 1139.02 560.506 1141.93 555.235C1145.02 549.963 1146.57 543.964 1146.57 537.238C1146.57 530.33 1145.02 524.24 1141.93 518.968C1139.02 513.515 1135.02 509.334 1129.93 506.425C1124.84 503.335 1119.12 501.79 1112.75 501.79C1106.57 501.79 1100.94 503.335 1095.85 506.425C1090.76 509.516 1086.67 513.697 1083.58 518.968C1080.67 524.24 1079.22 530.33 1079.22 537.238C1079.22 543.964 1080.67 549.963 1083.58 555.235C1086.67 560.506 1090.76 564.687 1095.85 567.778C1100.94 570.686 1106.57 572.141 1112.75 572.141ZM1062.31 604.317C1057.4 604.317 1053.77 603.499 1051.4 601.862C1049.04 600.408 1047.58 598.499 1047.04 596.136C1046.49 593.591 1046.22 590.774 1046.22 587.683V425.167C1046.22 422.077 1046.49 419.35 1047.04 416.987C1047.58 414.442 1049.04 412.442 1051.4 410.988C1053.77 409.534 1057.4 408.806 1062.31 408.806C1067.4 408.806 1071.03 409.534 1073.22 410.988C1075.4 412.442 1076.76 414.442 1077.31 416.987C1077.85 419.532 1078.12 422.259 1078.12 425.167V593.137C1077.4 597.136 1075.85 599.954 1073.49 601.59C1071.31 603.408 1067.58 604.317 1062.31 604.317Z" fill="#27235C" stroke="#27235C" stroke-width="0.5"/>
<path d="M964.95 605.956C953.134 605.956 942.772 604.048 933.865 600.23C925.139 596.413 917.777 591.232 911.778 584.687C905.961 577.961 901.507 570.508 898.417 562.328C895.508 553.966 894.054 545.331 894.054 536.423C894.054 523.335 897.053 511.701 903.052 501.521C909.051 491.341 917.322 483.342 927.866 477.525C938.591 471.708 950.862 468.799 964.677 468.799C974.494 468.799 983.129 470.344 990.582 473.435C998.035 476.525 1004.22 480.615 1009.12 485.705C1014.21 490.614 1018.03 496.067 1020.58 502.066C1023.3 508.065 1024.67 513.882 1024.67 519.517C1024.67 529.152 1022.3 536.151 1017.58 540.514C1013.03 544.876 1007.31 547.058 1000.4 547.058H928.411C928.593 553.239 930.502 558.601 934.137 563.146C937.955 567.691 942.681 571.235 948.317 573.78C954.134 576.144 960.042 577.325 966.041 577.325C970.585 577.325 974.585 577.052 978.039 576.507C981.674 575.962 984.765 575.325 987.31 574.598C989.855 573.689 992.036 572.78 993.854 571.872C995.854 570.963 997.671 570.145 999.307 569.417C1000.94 568.69 1002.49 568.236 1003.94 568.054C1005.94 567.872 1007.94 568.327 1009.94 569.417C1011.94 570.508 1013.58 572.417 1014.85 575.144C1015.94 576.962 1016.67 578.689 1017.03 580.325C1017.58 581.779 1017.85 583.233 1017.85 584.687C1017.85 588.323 1015.67 591.777 1011.31 595.049C1006.94 598.14 1000.76 600.685 992.763 602.684C984.946 604.866 975.675 605.956 964.95 605.956ZM928.411 527.698H984.31C987.4 527.698 989.764 527.243 991.4 526.334C993.036 525.244 993.854 523.062 993.854 519.79C993.854 515.609 992.581 511.882 990.036 508.61C987.491 505.156 984.037 502.52 979.675 500.703C975.312 498.703 970.222 497.703 964.405 497.703C957.679 497.703 951.589 499.067 946.135 501.793C940.682 504.338 936.319 507.883 933.047 512.428C929.956 516.972 928.411 522.062 928.411 527.698Z" fill="#27235C" stroke="#27235C" stroke-width="0.5"/>
<path d="M720.994 603.509C717.359 603.509 714.45 602.873 712.269 601.6C710.087 600.146 708.451 598.51 707.36 596.692C706.452 594.874 705.815 593.329 705.452 592.056L652.007 435.539C650.189 429.722 649.916 425.359 651.189 422.451C652.461 419.36 656.188 416.815 662.369 414.816C666.55 413.362 669.913 412.725 672.458 412.907C675.003 413.089 677.093 414.18 678.729 416.179C680.547 417.997 682.092 420.906 683.365 424.905L722.63 543.792L757.806 425.996C758.351 424.178 759.078 422.36 759.987 420.542C761.078 418.542 762.714 416.906 764.896 415.634C767.077 414.361 770.076 413.725 773.894 413.725C778.257 413.725 781.529 414.452 783.71 415.907C785.892 417.361 787.437 418.997 788.346 420.815C789.437 422.451 790.164 423.996 790.527 425.45L825.703 544.611L865.241 425.178C866.513 420.997 867.968 417.906 869.604 415.907C871.422 413.907 873.694 412.816 876.421 412.634C879.148 412.271 882.511 412.816 886.51 414.27C890.691 415.725 893.69 417.361 895.508 419.179C897.326 420.815 898.235 422.996 898.235 425.723C898.235 428.268 897.599 431.54 896.326 435.539L843.154 592.329C842.79 593.42 842.063 594.874 840.973 596.692C840.064 598.51 838.519 600.146 836.337 601.6C834.156 602.873 831.156 603.509 827.339 603.509C823.521 603.509 820.522 602.691 818.34 601.055C816.159 599.419 814.523 597.601 813.432 595.601C812.341 593.602 811.614 592.147 811.251 591.238L774.167 471.26L737.082 590.966C736.719 592.238 735.992 593.874 734.901 595.874C733.992 597.874 732.447 599.691 730.265 601.328C728.084 602.782 724.994 603.509 720.994 603.509Z" fill="#27235C" stroke="#27235C" stroke-width="0.5"/>
<path d="M579.207 605.959C574.481 605.959 569.482 605.413 564.21 604.323C558.938 603.414 553.848 602.05 548.94 600.233C544.032 598.233 539.76 595.961 536.124 593.416C532.67 590.689 530.489 587.689 529.58 584.417C528.853 582.599 528.58 580.872 528.762 579.236C528.944 577.419 529.489 575.601 530.398 573.783C531.307 571.783 532.67 569.784 534.488 567.784C536.124 565.784 537.76 564.694 539.397 564.512C541.214 564.148 543.487 564.694 546.213 566.148C548.577 567.057 551.122 568.238 553.848 569.693C556.757 571.147 559.666 572.601 562.574 574.055C565.664 575.51 568.755 576.691 571.845 577.6C575.117 578.509 578.299 578.964 581.389 578.964C588.115 578.964 593.478 577.873 597.477 575.692C601.476 573.328 603.476 570.056 603.476 565.875C603.476 563.512 602.84 561.421 601.567 559.604C600.295 557.786 598.568 556.331 596.386 555.241C594.387 553.968 591.932 552.877 589.024 551.969C586.297 550.878 583.298 549.969 580.025 549.242C576.935 548.333 573.663 547.333 570.209 546.242C565.664 544.97 561.12 543.425 556.575 541.607C552.031 539.789 547.94 537.426 544.305 534.517C540.851 531.609 538.033 527.973 535.852 523.61C533.67 519.247 532.58 513.794 532.58 507.249C532.58 499.069 534.488 492.161 538.306 486.526C542.305 480.709 548.031 476.255 555.484 473.165C562.938 470.074 571.936 468.529 582.48 468.529C586.115 468.529 589.569 468.802 592.841 469.347C596.295 469.893 599.567 470.711 602.658 471.801C605.93 472.71 609.02 473.892 611.929 475.346C615.019 476.8 617.928 478.436 620.655 480.254C625.199 482.799 627.562 485.799 627.744 489.253C627.926 492.525 626.653 496.07 623.927 499.887C621.927 502.432 619.927 504.25 617.928 505.341C615.928 506.25 613.838 506.25 611.656 505.341C608.748 503.886 605.566 502.341 602.112 500.705C598.84 498.887 595.386 497.342 591.751 496.07C588.297 494.797 584.661 494.161 580.844 494.161C577.208 494.161 573.936 494.706 571.027 495.797C568.119 496.888 565.937 498.433 564.483 500.432C563.029 502.432 562.301 504.795 562.301 507.522C562.301 510.067 563.029 512.158 564.483 513.794C565.937 515.43 567.846 516.793 570.209 517.884C572.572 518.975 575.39 519.974 578.662 520.883C581.934 521.61 585.388 522.338 589.024 523.065C594.114 524.155 599.295 525.519 604.567 527.155C609.838 528.791 614.656 531.063 619.018 533.972C623.563 536.88 627.199 540.789 629.926 545.697C632.652 550.423 634.016 556.604 634.016 564.239C634.016 577.509 629.108 587.78 619.291 595.052C609.657 602.323 596.295 605.959 579.207 605.959Z" fill="#27235C" stroke="#27235C" stroke-width="0.5"/>
<path d="M450.486 605.955C438.67 605.955 428.308 604.046 419.4 600.228C410.675 596.411 403.312 591.23 397.313 584.686C391.496 577.96 387.043 570.507 383.952 562.326C381.044 553.964 379.589 545.329 379.589 536.422C379.589 523.333 382.589 511.699 388.588 501.519C394.587 491.339 402.858 483.341 413.401 477.523C424.127 471.706 436.397 468.798 450.213 468.798C460.029 468.798 468.664 470.343 476.117 473.433C483.571 476.524 489.751 480.614 494.659 485.704C499.749 490.612 503.567 496.066 506.112 502.064C508.839 508.063 510.202 513.88 510.202 519.516C510.202 529.15 507.839 536.149 503.112 540.512C498.568 544.875 492.842 547.056 485.934 547.056H413.947C414.129 553.237 416.037 558.6 419.673 563.144C423.491 567.689 428.217 571.234 433.852 573.779C439.669 576.142 445.577 577.324 451.576 577.324C456.121 577.324 460.12 577.051 463.574 576.506C467.21 575.96 470.3 575.324 472.845 574.597C475.39 573.688 477.572 572.779 479.389 571.87C481.389 570.961 483.207 570.143 484.843 569.416C486.479 568.689 488.024 568.234 489.479 568.052C491.478 567.871 493.478 568.325 495.477 569.416C497.477 570.507 499.113 572.415 500.386 575.142C501.476 576.96 502.204 578.687 502.567 580.323C503.112 581.777 503.385 583.232 503.385 584.686C503.385 588.322 501.204 591.775 496.841 595.048C492.478 598.138 486.297 600.683 478.299 602.683C470.482 604.864 461.211 605.955 450.486 605.955ZM413.947 527.696H469.846C472.936 527.696 475.299 527.242 476.935 526.333C478.571 525.242 479.389 523.061 479.389 519.788C479.389 515.607 478.117 511.881 475.572 508.609C473.027 505.155 469.573 502.519 465.21 500.701C460.847 498.701 455.757 497.702 449.94 497.702C443.214 497.702 437.124 499.065 431.671 501.792C426.217 504.337 421.854 507.882 418.582 512.426C415.492 516.971 413.947 522.061 413.947 527.696Z" fill="#27235C" stroke="#27235C" stroke-width="0.5"/>
<path d="M353.14 604.328C346.414 604.328 340.415 603.874 335.144 602.965C330.054 602.056 325.6 600.511 321.782 598.329C318.147 596.148 315.147 593.239 312.784 589.604C310.421 585.786 308.603 581.151 307.33 575.697C306.24 570.243 305.694 563.699 305.694 556.064V424.633C305.694 421.543 305.967 418.816 306.512 416.453C307.24 413.908 308.694 411.908 310.875 410.454C313.238 408.818 316.965 408 322.055 408C327.145 408 330.781 408.727 332.962 410.181C335.325 411.636 336.78 413.635 337.325 416.18C338.052 418.544 338.416 421.27 338.416 424.361V554.701C338.416 558.155 338.597 561.063 338.961 563.426C339.506 565.608 340.324 567.426 341.415 568.88C342.688 570.153 344.233 571.061 346.051 571.607C348.05 572.152 350.414 572.425 353.14 572.425C355.504 572.425 357.594 572.698 359.412 573.243C361.412 573.788 362.957 575.152 364.047 577.333C365.32 579.514 365.956 583.059 365.956 587.967C365.956 593.057 365.32 596.784 364.047 599.147C362.957 601.51 361.412 602.965 359.412 603.51C357.412 604.055 355.322 604.328 353.14 604.328Z" fill="#27235C" stroke="#27235C" stroke-width="0.5"/>
<path d="M260.043 604.325C255.135 604.325 251.499 603.507 249.136 601.87C246.773 600.416 245.318 598.507 244.773 596.144C244.228 593.599 243.955 590.782 243.955 587.691V486.255C243.955 483.346 244.228 480.711 244.773 478.347C245.5 475.802 246.954 473.803 249.136 472.348C251.499 470.894 255.226 470.167 260.316 470.167C265.406 470.167 269.041 470.894 271.223 472.348C273.586 473.803 275.04 475.802 275.586 478.347C276.131 480.892 276.404 483.71 276.404 486.8V587.964C276.404 591.054 276.131 593.872 275.586 596.417C275.04 598.78 273.586 600.689 271.223 602.143C269.041 603.597 265.315 604.325 260.043 604.325ZM260.043 443.717C254.771 443.717 250.863 442.99 248.318 441.536C245.955 439.9 244.409 437.718 243.682 434.992C243.137 432.265 242.864 429.265 242.864 425.993C242.864 422.539 243.137 419.54 243.682 416.995C244.409 414.45 246.045 412.45 248.59 410.996C251.135 409.36 255.044 408.542 260.316 408.542C265.769 408.542 269.678 409.36 272.041 410.996C274.404 412.632 275.949 414.813 276.676 417.54C277.403 420.085 277.767 423.085 277.767 426.539C277.767 429.629 277.403 432.537 276.676 435.264C275.949 437.991 274.404 440.082 272.041 441.536C269.678 442.99 265.678 443.717 260.043 443.717Z" fill="#27235C" stroke="#27235C" stroke-width="0.5"/>
<path d="M36.088 604.049C31.3616 604.049 27.8168 603.322 25.4536 601.868C23.0904 600.413 21.5452 598.414 20.818 595.869C20.2727 593.324 20 590.506 20 587.416V430.081C20 427.172 20.2727 424.536 20.818 422.173C21.5452 419.628 23.0904 417.628 25.4536 416.174C27.8168 414.538 31.5434 413.72 36.6334 413.72C40.4508 413.72 43.2685 413.993 45.0864 414.538C47.086 414.902 48.6312 415.538 49.7219 416.447C50.8126 417.174 51.9033 418.174 52.994 419.446L119.527 512.429H113.256L180.062 419.174C181.334 417.719 182.607 416.629 183.879 415.901C185.152 415.174 186.788 414.629 188.788 414.265C190.787 413.902 193.423 413.72 196.695 413.72C201.604 413.72 205.239 414.538 207.602 416.174C209.966 417.628 211.42 419.628 211.965 422.173C212.692 424.718 213.056 427.536 213.056 430.626V587.961C213.056 590.688 212.692 593.324 211.965 595.869C211.42 598.414 209.966 600.413 207.602 601.868C205.239 603.322 201.513 604.049 196.423 604.049C191.514 604.049 187.879 603.231 185.516 601.595C183.152 600.141 181.607 598.141 180.88 595.596C180.335 593.051 180.062 590.324 180.062 587.416V470.437L130.435 542.151C129.889 542.878 129.071 543.878 127.98 545.151C126.89 546.241 125.435 547.241 123.618 548.15C121.8 549.059 119.346 549.514 116.255 549.514C113.347 549.514 110.984 549.059 109.166 548.15C107.348 547.241 105.894 546.241 104.803 545.151C103.894 544.06 102.985 542.969 102.076 541.879L52.7214 470.437V587.961C52.7214 590.688 52.3578 593.324 51.6306 595.869C51.0853 598.414 49.631 600.413 47.2678 601.868C44.9046 603.322 41.178 604.049 36.088 604.049Z" fill="#27235C" stroke="#27235C" stroke-width="0.5"/>
</svg>
