<svg width="209" height="69" viewBox="0 0 209 69" fill="none" xmlns="http://www.w3.org/2000/svg">
<path d="M23.6516 41.4008C19.8516 41.4008 17.9516 43.3008 17.9516 47.1008V50.9008C17.9516 52.3575 18.3632 53.5291 19.1866 54.4158C20.0732 55.2391 21.2449 55.6508 22.7016 55.6508H36.9516C38.4082 55.6508 39.5482 55.2391 40.3716 54.4158C41.2582 53.5291 41.7016 52.3575 41.7016 50.9008V47.1008C41.7016 43.3008 39.8016 41.4008 36.0016 41.4008H23.6516ZM25.5516 13.8508C21.7516 13.8508 19.8516 15.7508 19.8516 19.5508V22.4008C19.8516 26.2008 21.7516 28.1008 25.5516 28.1008H34.1016C37.9016 28.1008 39.8016 26.2008 39.8016 22.4008V19.5508C39.8016 15.7508 37.9016 13.8508 34.1016 13.8508H25.5516ZM58.8016 50.9008C58.8016 57.1075 57.3449 61.6675 54.4316 64.5808C51.5182 67.4941 46.9582 68.9508 40.7516 68.9508H18.9016C12.6949 68.9508 8.1349 67.4941 5.22156 64.5808C2.30823 61.6675 0.851562 57.1075 0.851562 50.9008V49.9508C0.851562 45.1375 2.0549 41.1475 4.46156 37.9808C6.36156 35.4475 8.95823 33.7375 12.2516 32.8508C9.40156 31.9008 7.0899 30.2541 5.31656 27.9108C3.60656 25.5041 2.75156 22.4008 2.75156 18.6008V17.6508C2.75156 11.8874 4.20823 7.61245 7.12156 4.82578C10.0349 1.97578 14.5949 0.550781 20.8016 0.550781H38.8516C45.0582 0.550781 49.6182 1.97578 52.5316 4.82578C55.4449 7.61245 56.9016 11.8874 56.9016 17.6508V18.6008C56.9016 22.4008 56.0149 25.5041 54.2416 27.9108C52.5316 30.2541 50.2516 31.9008 47.4016 32.8508C52.5316 34.2441 56.0149 37.6641 57.8516 43.1108C58.4849 45.0741 58.8016 47.3541 58.8016 49.9508V50.9008Z" fill="#674DFF"/>
<path d="M107.244 19.5508C107.244 15.7508 105.344 13.8508 101.544 13.8508H91.0941C87.2941 13.8508 85.3941 15.7508 85.3941 19.5508V49.9508C85.3941 53.7508 87.2941 55.6508 91.0941 55.6508H101.544C105.344 55.6508 107.244 53.7508 107.244 49.9508V19.5508ZM124.344 49.9508C124.344 56.6008 122.824 61.4458 119.784 64.4858C116.807 67.4625 111.994 68.9508 105.344 68.9508H87.2941C80.6441 68.9508 75.7991 67.4625 72.7591 64.4858C69.7825 61.4458 68.2941 56.6008 68.2941 49.9508V19.5508C68.2941 12.9008 69.7825 8.08745 72.7591 5.11078C75.7991 2.07078 80.6441 0.550781 87.2941 0.550781H105.344C111.994 0.550781 116.807 2.07078 119.784 5.11078C122.824 8.08745 124.344 12.9008 124.344 19.5508V49.9508Z" fill="#674DFF"/>
<path d="M140.403 30.9995L154.803 5.79945H160.203L146.163 30.9995H140.403ZM147.963 14.2595C147.963 15.6995 147.567 16.8155 146.775 17.6075C146.007 18.3755 144.903 18.7595 143.463 18.7595H140.223C138.783 18.7595 137.667 18.3755 136.875 17.6075C136.107 16.8155 135.723 15.6995 135.723 14.2595V9.93945C135.723 8.49945 136.107 7.39545 136.875 6.62745C137.667 5.83545 138.783 5.43945 140.223 5.43945H143.463C144.903 5.43945 146.007 5.83545 146.775 6.62745C147.567 7.39545 147.963 8.49945 147.963 9.93945V14.2595ZM143.643 9.93945C143.643 9.09945 143.223 8.67945 142.383 8.67945H141.303C140.463 8.67945 140.043 9.09945 140.043 9.93945V14.2595C140.043 15.0995 140.463 15.5195 141.303 15.5195H142.383C143.223 15.5195 143.643 15.0995 143.643 14.2595V9.93945ZM165.243 26.8595C165.243 28.2995 164.847 29.4155 164.055 30.2075C163.287 30.9755 162.183 31.3595 160.743 31.3595H157.503C156.063 31.3595 154.947 30.9755 154.155 30.2075C153.387 29.4155 153.003 28.2995 153.003 26.8595V22.5395C153.003 21.0995 153.387 19.9955 154.155 19.2275C154.947 18.4355 156.063 18.0395 157.503 18.0395H160.743C162.183 18.0395 163.287 18.4355 164.055 19.2275C164.847 19.9955 165.243 21.0995 165.243 22.5395V26.8595ZM160.923 22.5395C160.923 21.6995 160.503 21.2795 159.663 21.2795H158.583C157.743 21.2795 157.323 21.6995 157.323 22.5395V26.8595C157.323 27.6995 157.743 28.1195 158.583 28.1195H159.663C160.503 28.1195 160.923 27.6995 160.923 26.8595V22.5395Z" fill="#674DFF"/>
<path d="M153.363 46.6395C153.363 45.1995 152.643 44.4795 151.203 44.4795H145.083C143.643 44.4795 142.923 45.1995 142.923 46.6395V58.1595C142.923 59.5995 143.643 60.3195 145.083 60.3195H151.203C152.643 60.3195 153.363 59.5995 153.363 58.1595V46.6395ZM159.843 58.1595C159.843 60.6795 159.267 62.5155 158.115 63.6675C156.987 64.7955 155.163 65.3595 152.643 65.3595H143.643C141.123 65.3595 139.287 64.7955 138.135 63.6675C137.007 62.5155 136.443 60.6795 136.443 58.1595V46.6395C136.443 44.1195 137.007 42.2955 138.135 41.1675C139.287 40.0155 141.123 39.4395 143.643 39.4395H152.643C155.163 39.4395 156.987 40.0155 158.115 41.1675C159.267 42.2955 159.843 44.1195 159.843 46.6395V58.1595Z" fill="#674DFF"/>
<path d="M171.02 64.9995H164.54V39.7995H184.52V44.8395H171.02V50.7795H181.64V55.8195H171.02V64.9995Z" fill="#674DFF"/>
<path d="M194.6 64.9995H188.12V39.7995H208.1V44.8395H194.6V50.7795H205.22V55.8195H194.6V64.9995Z" fill="#674DFF"/>
</svg>
