<svg width="16" height="17" viewBox="0 0 16 17" fill="none" xmlns="http://www.w3.org/2000/svg">
<g clip-path="url(#clip0_1020_1532)">
<path d="M13.7344 15.6016H5.76562C4.79626 15.6016 4.00781 14.8131 4.00781 13.8438V5.875C4.00781 4.90564 4.79626 4.11719 5.76562 4.11719H13.7344C14.7037 4.11719 15.4922 4.90564 15.4922 5.875V13.8438C15.4922 14.8131 14.7037 15.6016 13.7344 15.6016ZM5.76562 5.28906C5.44254 5.28906 5.17969 5.55191 5.17969 5.875V13.8438C5.17969 14.1668 5.44254 14.4297 5.76562 14.4297H13.7344C14.0575 14.4297 14.3203 14.1668 14.3203 13.8438V5.875C14.3203 5.55191 14.0575 5.28906 13.7344 5.28906H5.76562ZM2.83594 10.9141H2.25C1.92691 10.9141 1.66406 10.6512 1.66406 10.3281V2.35938C1.66406 2.03629 1.92691 1.77344 2.25 1.77344H10.2188C10.5418 1.77344 10.8047 2.03629 10.8047 2.35938V2.91602H11.9766V2.35938C11.9766 1.39001 11.1881 0.601562 10.2188 0.601562H2.25C1.28064 0.601562 0.492188 1.39001 0.492188 2.35938V10.3281C0.492188 11.2975 1.28064 12.0859 2.25 12.0859H2.83594V10.9141Z" fill="white" stroke="#131729" stroke-width="0.5"/>
</g>
<defs>
<clipPath id="clip0_1020_1532">
<rect width="16" height="16" fill="white" transform="translate(0 0.109375)"/>
</clipPath>
</defs>
</svg>
