<svg width="17" height="17" viewBox="0 0 17 17" fill="none" xmlns="http://www.w3.org/2000/svg">
<g clip-path="url(#clip0_1020_1530)">
<path d="M13.8438 15.6016H5.875C4.90564 15.6016 4.11719 14.8131 4.11719 13.8438V5.875C4.11719 4.90564 4.90564 4.11719 5.875 4.11719H13.8438C14.8131 4.11719 15.6016 4.90564 15.6016 5.875V13.8438C15.6016 14.8131 14.8131 15.6016 13.8438 15.6016ZM5.875 5.28906C5.55191 5.28906 5.28906 5.55191 5.28906 5.875V13.8438C5.28906 14.1668 5.55191 14.4297 5.875 14.4297H13.8438C14.1668 14.4297 14.4297 14.1668 14.4297 13.8438V5.875C14.4297 5.55191 14.1668 5.28906 13.8438 5.28906H5.875ZM2.94531 10.9141H2.35938C2.03629 10.9141 1.77344 10.6512 1.77344 10.3281V2.35938C1.77344 2.03629 2.03629 1.77344 2.35938 1.77344H10.3281C10.6512 1.77344 10.9141 2.03629 10.9141 2.35938V2.91602H12.0859V2.35938C12.0859 1.39001 11.2975 0.601562 10.3281 0.601562H2.35938C1.39001 0.601562 0.601562 1.39001 0.601562 2.35938V10.3281C0.601562 11.2975 1.39001 12.0859 2.35938 12.0859H2.94531V10.9141Z" fill="white"/>
</g>
<defs>
<clipPath id="clip0_1020_1530">
<rect width="16" height="16" fill="white" transform="translate(0.109375 0.109375)"/>
</clipPath>
</defs>
</svg>
