<svg width="70" height="54" viewBox="0 0 70 54" fill="none" xmlns="http://www.w3.org/2000/svg">
<mask id="mask0_130_6764" style="mask-type:alpha" maskUnits="userSpaceOnUse" x="0" y="0" width="70" height="54">
<rect width="70" height="54" fill="#D9D9D9"/>
</mask>
<g mask="url(#mask0_130_6764)">
<g opacity="0.45">
<path d="M22.3708 78H22.357C22.2872 77.9982 22.2185 77.9831 22.1547 77.9555C22.0909 77.9279 22.0333 77.8883 21.9853 77.839C21.9372 77.7898 21.8996 77.7317 21.8746 77.6683C21.8496 77.6049 21.8377 77.5373 21.8395 77.4693L22.3163 40.5439C22.3156 40.4751 22.3294 40.407 22.357 40.3436C22.3846 40.2803 22.4254 40.2233 22.4767 40.176C22.528 40.1287 22.5888 40.0923 22.6552 40.0689C22.7217 40.0455 22.7924 40.0358 22.8629 40.0403C22.9326 40.0422 23.0014 40.0575 23.0651 40.0853C23.1288 40.113 23.1862 40.1528 23.2342 40.2022C23.2821 40.2516 23.3195 40.3097 23.3444 40.3732C23.3692 40.4367 23.3809 40.5043 23.3789 40.5722L22.9021 77.4977C22.8989 77.6325 22.8414 77.7606 22.742 77.8546C22.6427 77.9485 22.5094 78.0007 22.3708 78Z" fill="#5E6899"/>
<path d="M38.5991 45.7909C38.5536 45.7907 38.5084 45.7843 38.4646 45.7721C8.47899 37.2058 8.87565 35.7304 9.02491 35.1754C9.44444 33.6341 28.5223 -5.28029 30.7033 -9.71326C30.7625 -9.83019 30.8635 -9.92064 30.9863 -9.96668C31.109 -10.0127 31.2446 -10.011 31.3662 -9.96185L60.4496 2.24863C60.5148 2.27633 60.5736 2.31712 60.6224 2.36846C60.6712 2.41981 60.7089 2.48063 60.7333 2.54714C60.7576 2.61365 60.768 2.68445 60.7638 2.75514C60.7597 2.82583 60.741 2.89492 60.7091 2.95813L39.0818 45.4684C39.0467 45.5527 38.9902 45.6264 38.9177 45.682C38.8259 45.7515 38.7142 45.7896 38.5991 45.7909ZM10.0858 35.2708C11.7626 36.6992 27.9696 41.6925 38.3355 44.6621L59.5392 2.98499L31.416 -8.82237C25.5506 3.1328 11.2113 32.4638 10.0858 35.2708Z" fill="#5E6899"/>
<path d="M40.1221 41.1896C40.0647 41.1897 40.0078 41.1799 39.9539 41.1607L13.9436 32.3884C13.8159 32.3437 13.7114 32.2517 13.6527 32.1323C13.5941 32.0129 13.586 31.8758 13.6303 31.7506C13.6746 31.6255 13.7676 31.5224 13.8892 31.4638C14.0109 31.4052 14.1513 31.3957 14.28 31.4374L40.2903 40.2098C40.4049 40.2493 40.5015 40.327 40.5632 40.4292C40.6249 40.5314 40.6477 40.6516 40.6276 40.7686C40.6075 40.8856 40.5459 40.9919 40.4534 41.0689C40.361 41.1459 40.2436 41.1886 40.1221 41.1896Z" fill="#5E6899"/>
<path fill-rule="evenodd" clip-rule="evenodd" d="M33.4443 -4.24838C34.5511 -4.24838 35.4574 -3.21898 35.4574 -1.94704C35.4574 -0.6751 34.5635 0.352925 33.4443 0.352925C32.3252 0.352925 31.4313 -0.676478 31.4313 -1.94704C31.4313 -3.2176 32.3307 -4.24838 33.4443 -4.24838Z" fill="#606BA2"/>
<path d="M33.4443 0.928071C32.0173 0.928071 30.8561 -0.363453 30.8561 -1.94915C30.8561 -3.53484 32.0173 -4.82357 33.4443 -4.82357C34.8713 -4.82357 36.0326 -3.53484 36.0326 -1.94915C36.0326 -0.363453 34.8699 0.928071 33.4443 0.928071ZM33.4443 -3.74916C32.6049 -3.74916 31.9306 -2.9423 31.9306 -1.94915C31.9306 -0.955986 32.6091 -0.147734 33.4443 -0.147734C34.2795 -0.147734 34.9581 -0.954586 34.9581 -1.94915C34.9581 -2.9437 34.2795 -3.74496 33.4443 -3.74496V-3.74916Z" fill="#5E6899"/>
<path fill-rule="evenodd" clip-rule="evenodd" d="M40.3466 -0.797393C41.452 -0.797393 42.3596 0.232012 42.3596 1.50395C42.3596 2.77589 41.4657 3.80392 40.3466 3.80392C39.2274 3.80392 38.3335 2.77451 38.3335 1.50395C38.3335 0.23339 39.2261 -0.797393 40.3466 -0.797393Z" fill="#606BA2"/>
<path d="M40.3469 4.37906C38.9195 4.37906 37.7579 3.08924 37.7579 1.50394C37.7579 -0.0813669 38.9195 -1.37258 40.3469 -1.37258C41.7743 -1.37258 42.9344 -0.0813669 42.9344 1.50394C42.9344 3.08924 41.7743 4.37906 40.3469 4.37906ZM40.3469 -0.297034C39.5072 -0.297034 38.8313 0.511022 38.8313 1.50394C38.8313 2.49686 39.5114 3.30351 40.3469 3.30351C41.1823 3.30351 41.861 2.49686 41.861 1.50394C41.861 0.511022 41.1823 -0.290033 40.3469 -0.290033V-0.297034Z" fill="#5E6899"/>
<path fill-rule="evenodd" clip-rule="evenodd" d="M47.5363 1.50323C48.485 1.50323 49.2618 2.5337 49.2618 3.80388C49.2618 5.07407 48.4967 6.10454 47.5363 6.10454C46.5759 6.10454 45.8108 5.07407 45.8108 3.80388C45.8108 2.5337 46.577 1.50323 47.5363 1.50323Z" fill="#606BA2"/>
<path d="M47.5371 6.10462C46.2687 6.10462 45.2352 4.94351 45.2352 3.51638C45.2352 2.08926 46.2687 0.92815 47.5371 0.92815C48.8056 0.92815 49.8365 2.08926 49.8365 3.51638C49.8365 4.94351 48.8044 6.10462 47.5371 6.10462ZM47.5371 1.89511C46.791 1.89511 46.1903 2.62128 46.1903 3.51638C46.1903 4.41149 46.7947 5.13766 47.5371 5.13766C48.2796 5.13766 48.8814 4.41023 48.8814 3.51638C48.8814 2.62254 48.2796 1.89511 47.5371 1.89511Z" fill="#5E6899"/>
<path fill-rule="evenodd" clip-rule="evenodd" d="M53.0002 4.37914C54.107 4.37914 55.0133 5.2808 55.0133 6.39221C55.0133 7.50362 54.1194 8.40528 53.0002 8.40528C51.8811 8.40528 50.9872 7.50362 50.9872 6.39221C50.9872 5.2808 51.8797 4.37914 53.0002 4.37914Z" fill="#606BA2"/>
<path d="M53.0006 8.98043C51.5731 8.98043 50.4116 7.81863 50.4116 6.3922C50.4116 4.96577 51.5731 3.80396 53.0006 3.80396C54.428 3.80396 55.5881 4.96577 55.5881 6.3922C55.5881 7.81863 54.428 8.98043 53.0006 8.98043ZM53.0006 4.77171C52.1609 4.77171 51.4864 5.49879 51.4864 6.3922C51.4864 7.28561 52.1651 8.01268 53.0006 8.01268C53.836 8.01268 54.5147 7.28561 54.5147 6.3922C54.5147 5.49879 53.836 4.77297 53.0006 4.77297V4.77171Z" fill="#5E6899"/>
<path fill-rule="evenodd" clip-rule="evenodd" d="M29.4178 3.22878C30.5246 3.22878 31.4309 4.25818 31.4309 5.52875C31.4309 6.79931 30.5384 7.83009 29.4178 7.83009C28.2973 7.83009 27.4048 6.80069 27.4048 5.52875C27.4048 4.25681 28.2987 3.22878 29.4178 3.22878Z" fill="#606BA2"/>
<path d="M29.4187 8.40523C27.9931 8.40523 26.8304 7.11402 26.8304 5.52872C26.8304 3.94341 27.9931 2.65359 29.4187 2.65359C30.8443 2.65359 32.0069 3.94341 32.0069 5.52872C32.0069 7.11402 30.8429 8.40523 29.4187 8.40523ZM29.4187 3.72774C28.5793 3.72774 27.9049 4.5358 27.9049 5.52872C27.9049 6.52163 28.5834 7.32969 29.4187 7.32969C30.2539 7.32969 30.9325 6.52163 30.9325 5.52872C30.9325 4.5358 30.2539 3.72774 29.4187 3.72774Z" fill="#5E6899"/>
<path fill-rule="evenodd" clip-rule="evenodd" d="M36.3201 6.67977C37.4269 6.67977 38.3332 7.58143 38.3332 8.69284C38.3332 9.80425 37.4406 10.7059 36.3201 10.7059C35.1996 10.7059 34.307 9.80425 34.307 8.69284C34.307 7.58143 35.1982 6.67977 36.3201 6.67977Z" fill="#606BA2"/>
<path d="M36.3198 11.2811C34.8924 11.2811 33.7323 10.1202 33.7323 8.69345C33.7323 7.26667 34.8924 6.10459 36.3198 6.10459C37.7472 6.10459 38.9088 7.26667 38.9088 8.69345C38.9088 10.1202 37.7445 11.2811 36.3198 11.2811ZM36.3198 7.07257C35.4802 7.07257 34.8057 7.79982 34.8057 8.69345C34.8057 9.58707 35.4802 10.3105 36.3198 10.3105C37.1595 10.3105 37.8354 9.5833 37.8354 8.68967C37.8354 7.79605 37.1595 7.07257 36.3198 7.07257Z" fill="#5E6899"/>
<path fill-rule="evenodd" clip-rule="evenodd" d="M43.2227 8.40521C44.3212 8.40521 45.2357 9.43462 45.2357 10.7066C45.2357 11.9785 44.3418 13.0065 43.2227 13.0065C42.1035 13.0065 41.2096 11.9771 41.2096 10.7066C41.2096 9.43599 42.1022 8.40521 43.2227 8.40521Z" fill="#606BA2"/>
<path d="M43.2235 13.5817C41.796 13.5817 40.6345 12.4196 40.6345 10.9941C40.6345 9.56856 41.796 8.40521 43.2235 8.40521C44.6509 8.40521 45.811 9.5673 45.811 10.9941C45.811 12.4209 44.6495 13.5817 43.2235 13.5817ZM43.2235 9.3732C42.3838 9.3732 41.7093 10.0992 41.7093 10.9941C41.7093 11.889 42.388 12.615 43.2235 12.615C44.0589 12.615 44.7362 11.8877 44.7362 10.9941C44.7362 10.1005 44.0589 9.37194 43.2235 9.37194V9.3732Z" fill="#5E6899"/>
<path fill-rule="evenodd" clip-rule="evenodd" d="M48.9738 11.281C50.0806 11.281 50.9868 12.3104 50.9868 13.5824C50.9868 14.8543 50.0929 15.8823 48.9738 15.8823C47.8546 15.8823 46.9607 14.8529 46.9607 13.5824C46.9607 12.3118 47.8546 11.281 48.9738 11.281Z" fill="#606BA2"/>
<path d="M48.9739 16.4575C47.5465 16.4575 46.3864 15.2954 46.3864 13.8699C46.3864 12.4444 47.5465 11.281 48.9739 11.281C50.4013 11.281 51.5628 12.4431 51.5628 13.8699C51.5628 15.2967 50.4013 16.4575 48.9739 16.4575ZM48.9739 12.249C48.1342 12.249 47.4597 12.975 47.4597 13.8699C47.4597 14.7648 48.1384 15.4908 48.9739 15.4908C49.8093 15.4908 50.4881 14.7635 50.4881 13.8699C50.4881 12.9763 49.8065 12.2515 48.9739 12.2515V12.249Z" fill="#5E6899"/>
<path fill-rule="evenodd" clip-rule="evenodd" d="M25.9678 9.55557C27.0663 9.55557 27.9809 10.585 27.9809 11.8569C27.9809 13.1289 27.0869 14.1569 25.9678 14.1569C24.8486 14.1569 23.9547 13.1275 23.9547 11.8569C23.9547 10.5864 24.8473 9.55557 25.9678 9.55557Z" fill="#606BA2"/>
<path d="M25.9685 14.732C24.541 14.732 23.3795 13.57 23.3795 12.1432C23.3795 10.7164 24.541 9.55557 25.9685 9.55557C27.3959 9.55557 28.556 10.7177 28.556 12.1432C28.556 13.5687 27.3945 14.732 25.9685 14.732ZM25.9685 10.5223C25.1288 10.5223 24.4543 11.2496 24.4543 12.1432C24.4543 13.0368 25.133 13.7641 25.9685 13.7641C26.8039 13.7641 27.4812 13.0381 27.4812 12.1432C27.4812 11.2483 26.8039 10.5223 25.9685 10.5223Z" fill="#5E6899"/>
<path fill-rule="evenodd" clip-rule="evenodd" d="M32.8692 13.0066C33.9746 13.0066 34.8822 14.0367 34.8822 15.3065C34.8822 16.5763 33.9855 17.6079 32.8692 17.6079C31.7528 17.6079 30.8561 16.5777 30.8561 15.3079C30.8561 14.0381 31.7486 13.0066 32.8692 13.0066Z" fill="#606BA2"/>
<path d="M32.8703 18.183C31.4429 18.183 30.2814 16.8921 30.2814 15.3072C30.2814 13.7223 31.4429 12.4314 32.8703 12.4314C34.2977 12.4314 35.4578 13.7223 35.4578 15.3072C35.4578 16.8921 34.2977 18.183 32.8703 18.183ZM32.8703 13.5067C32.0307 13.5067 31.3547 14.3145 31.3547 15.3072C31.3547 16.2999 32.0349 17.1077 32.8703 17.1077C33.7058 17.1077 34.3845 16.2999 34.3845 15.3072C34.3845 14.3145 33.7058 13.5067 32.8703 13.5067Z" fill="#5E6899"/>
<path fill-rule="evenodd" clip-rule="evenodd" d="M39.771 15.3072C40.8778 15.3072 41.7841 16.3377 41.7841 17.6078C41.7841 18.878 40.8915 19.9085 39.771 19.9085C38.6505 19.9085 37.7579 18.878 37.7579 17.6078C37.7579 16.3377 38.6505 15.3072 39.771 15.3072Z" fill="#606BA2"/>
<path d="M39.7706 20.4836C38.3432 20.4836 37.1831 19.1938 37.1831 17.6085C37.1831 16.0232 38.3432 14.732 39.7706 14.732C41.1981 14.732 42.3596 16.0232 42.3596 17.6085C42.3596 19.1938 41.1981 20.4836 39.7706 20.4836ZM39.7706 15.8076C38.931 15.8076 38.2565 16.6156 38.2565 17.6085C38.2565 18.6014 38.9352 19.4095 39.7706 19.4095C40.6061 19.4095 41.2876 18.6014 41.2876 17.6099C41.2876 16.6184 40.6061 15.8076 39.7706 15.8076Z" fill="#5E6899"/>
<path fill-rule="evenodd" clip-rule="evenodd" d="M45.5235 18.183C46.6224 18.183 47.5359 19.2135 47.5359 20.4837C47.5359 21.7538 46.643 22.7843 45.5235 22.7843C44.404 22.7843 43.5098 21.7538 43.5098 20.4837C43.5098 19.2135 44.4026 18.183 45.5235 18.183Z" fill="#606BA2"/>
<path d="M45.5219 23.3595C44.0959 23.3595 42.9343 22.0686 42.9343 20.4836C42.9343 18.8987 44.0959 17.6078 45.5219 17.6078C46.9479 17.6078 48.1108 18.8987 48.1108 20.4836C48.1108 22.0686 46.9493 23.3595 45.5219 23.3595ZM45.5219 18.6831C44.6822 18.6831 44.0077 19.491 44.0077 20.4836C44.0077 21.4763 44.6864 22.2842 45.5219 22.2842C46.3573 22.2842 47.0374 21.4763 47.0374 20.4836C47.0374 19.491 46.3573 18.6831 45.5219 18.6831Z" fill="#5E6899"/>
<path fill-rule="evenodd" clip-rule="evenodd" d="M23.666 16.4576C24.7714 16.4576 25.6791 17.487 25.6791 18.7575C25.6791 20.0281 24.7852 21.0589 23.666 21.0589C22.5469 21.0589 21.653 20.0295 21.653 18.7575C21.653 17.4856 22.5455 16.4576 23.666 16.4576Z" fill="#606BA2"/>
<path d="M23.6676 21.634C22.2401 21.634 21.0786 20.4742 21.0786 19.0471C21.0786 17.6199 22.2401 16.4576 23.6676 16.4576C25.095 16.4576 26.2551 17.6199 26.2551 19.0471C26.2551 20.4742 25.0936 21.634 23.6676 21.634ZM23.6676 17.4258C22.8279 17.4258 22.152 18.1519 22.152 19.0471C22.152 19.9422 22.8321 20.6671 23.6676 20.6671C24.503 20.6671 25.1817 19.9409 25.1817 19.0471C25.1817 18.1532 24.503 17.4258 23.6676 17.4258Z" fill="#5E6899"/>
<path fill-rule="evenodd" clip-rule="evenodd" d="M30.569 19.9085C31.6675 19.9085 32.5821 20.939 32.5821 22.2092C32.5821 23.4794 31.6881 24.5099 30.569 24.5099C29.4498 24.5099 28.5559 23.4794 28.5559 22.2092C28.5559 20.939 29.4485 19.9085 30.569 19.9085Z" fill="#606BA2"/>
<path d="M30.5672 25.085C29.1416 25.085 27.9803 23.7938 27.9803 22.2085C27.9803 20.6232 29.1416 19.3334 30.5672 19.3334C31.9928 19.3334 33.1568 20.6232 33.1568 22.2085C33.1568 23.7938 31.9942 25.085 30.5672 25.085ZM30.5672 20.4075C29.7278 20.4075 29.0548 21.2156 29.0548 22.2085C29.0548 23.2014 29.732 24.0095 30.5672 24.0095C31.4024 24.0095 32.0824 23.2028 32.0824 22.2085C32.0824 21.2142 31.4024 20.4061 30.5672 20.4061V20.4075Z" fill="#5E6899"/>
<path fill-rule="evenodd" clip-rule="evenodd" d="M37.7587 22.2092C38.7074 22.2092 39.4842 23.2386 39.4842 24.5105C39.4842 25.7825 38.7191 26.8105 37.7587 26.8105C36.7983 26.8105 36.0332 25.7811 36.0332 24.5105C36.0332 23.24 36.7994 22.2092 37.7587 22.2092Z" fill="#606BA2"/>
<path d="M37.7578 27.3856C36.489 27.3856 35.4578 26.0958 35.4578 24.5105C35.4578 22.9252 36.489 21.634 37.7578 21.634C39.0266 21.634 40.0591 22.9252 40.0591 24.5105C40.0591 26.0958 39.0266 27.3856 37.7578 27.3856ZM37.7578 22.7095C37.0114 22.7095 36.4119 23.5176 36.4119 24.5105C36.4119 25.5034 37.0152 26.3101 37.7578 26.3101C38.5004 26.3101 39.105 25.5034 39.105 24.5105C39.105 23.5176 38.5004 22.7095 37.7578 22.7095Z" fill="#5E6899"/>
<path fill-rule="evenodd" clip-rule="evenodd" d="M43.2227 25.085C44.3212 25.085 45.2357 26.1155 45.2357 27.3856C45.2357 28.6558 44.3418 29.6863 43.2227 29.6863C42.1035 29.6863 41.2096 28.6558 41.2096 27.3856C41.2096 26.1155 42.1022 25.085 43.2227 25.085Z" fill="#606BA2"/>
<path d="M43.2221 30.2614C41.796 30.2614 40.6345 28.9699 40.6345 27.3842C40.6345 25.7985 41.796 24.5098 43.2221 24.5098C44.6481 24.5098 45.811 25.7999 45.811 27.3842C45.811 28.9685 44.6495 30.2614 43.2221 30.2614ZM43.2221 25.5842C42.3824 25.5842 41.7093 26.391 41.7093 27.3842C41.7093 28.3774 42.3866 29.1898 43.2221 29.1898C44.0575 29.1898 44.7376 28.383 44.7376 27.3884C44.7376 26.3939 44.0575 25.5842 43.2221 25.5842Z" fill="#5E6899"/>
<path fill-rule="evenodd" clip-rule="evenodd" d="M19.9282 23.3595C20.8757 23.3595 21.6537 24.3889 21.6537 25.6609C21.6537 26.9328 20.8875 27.9608 19.9282 27.9608C18.969 27.9608 18.2028 26.9314 18.2028 25.6609C18.2028 24.3903 18.9678 23.3595 19.9282 23.3595Z" fill="#606BA2"/>
<path d="M19.9285 28.536C18.6597 28.536 17.6272 27.2448 17.6272 25.6595C17.6272 24.0742 18.6597 22.7844 19.9285 22.7844C21.1973 22.7844 22.2285 24.0742 22.2285 25.6595C22.2285 27.2448 21.1936 28.536 19.9285 28.536ZM19.9285 23.8585C19.1821 23.8585 18.5813 24.6666 18.5813 25.6595C18.5813 26.6524 19.1858 27.4604 19.9285 27.4604C20.6711 27.4604 21.2744 26.6538 21.2744 25.6595C21.2744 24.6651 20.6711 23.8585 19.9285 23.8585Z" fill="#5E6899"/>
<path fill-rule="evenodd" clip-rule="evenodd" d="M26.5425 26.8105C27.641 26.8105 28.5556 27.841 28.5556 29.1112C28.5556 30.3814 27.6616 31.4118 26.5425 31.4118C25.4234 31.4118 24.5294 30.3814 24.5294 29.1112C24.5294 27.841 25.4206 26.8105 26.5425 26.8105Z" fill="#606BA2"/>
<path d="M26.8301 31.987C25.5616 31.987 24.5294 30.6972 24.5294 29.1119C24.5294 27.5266 25.5616 26.2353 26.8301 26.2353C28.0985 26.2353 29.1307 27.5266 29.1307 29.1119C29.1307 30.6972 28.0961 31.987 26.8301 31.987ZM26.8301 27.3109C26.0839 27.3109 25.4845 28.1189 25.4845 29.1119C25.4845 30.1048 26.0876 30.9128 26.8301 30.9128C27.5725 30.9128 28.1756 30.1048 28.1756 29.1119C28.1756 28.1189 27.5762 27.3109 26.8301 27.3109Z" fill="#5E6899"/>
<path fill-rule="evenodd" clip-rule="evenodd" d="M34.0199 29.1111C35.1267 29.1111 36.033 30.1416 36.033 31.4118C36.033 32.682 35.1404 33.7125 34.0199 33.7125C32.8994 33.7125 32.0068 32.682 32.0068 31.4118C32.0068 30.1416 32.9008 29.1111 34.0199 29.1111Z" fill="#606BA2"/>
<path d="M34.0188 34.2876C32.5914 34.2876 31.4313 32.9978 31.4313 31.4125C31.4313 29.8272 32.5914 28.536 34.0188 28.536C35.4462 28.536 36.6077 29.8272 36.6077 31.4125C36.6077 32.9978 35.4462 34.2876 34.0188 34.2876ZM34.0188 29.6115C33.1792 29.6115 32.5046 30.4182 32.5046 31.4125C32.5046 32.4068 33.1834 33.2135 34.0188 33.2135C34.8543 33.2135 35.5344 32.4054 35.5344 31.4125C35.5344 30.4196 34.8543 29.6115 34.0188 29.6115Z" fill="#5E6899"/>
<path fill-rule="evenodd" clip-rule="evenodd" d="M39.4834 31.987C40.425 31.987 41.2089 33.0164 41.2089 34.2883C41.2089 35.5602 40.4427 36.5883 39.4834 36.5883C38.5242 36.5883 37.7579 35.5589 37.7579 34.2883C37.7579 33.0177 38.523 31.987 39.4834 31.987Z" fill="#606BA2"/>
<path d="M39.4825 36.5882C38.2153 36.5882 37.1831 35.4274 37.1831 34.0007C37.1831 32.5739 38.2153 31.4118 39.4825 31.4118C40.7497 31.4118 41.7844 32.5739 41.7844 34.0007C41.7844 35.4274 40.751 36.5882 39.4825 36.5882ZM39.4825 32.3798C38.7364 32.3798 38.1382 33.1058 38.1382 34.0007C38.1382 34.8955 38.7401 35.6215 39.4825 35.6215C40.2249 35.6215 40.8293 34.8943 40.8293 34.0007C40.8293 33.107 40.2225 32.3798 39.4825 32.3798Z" fill="#5E6899"/>
</g>
</g>
</svg>
