<svg width="70" height="54" viewBox="0 0 70 54" fill="none" xmlns="http://www.w3.org/2000/svg">
<mask id="mask0_130_6810" style="mask-type:alpha" maskUnits="userSpaceOnUse" x="0" y="0" width="70" height="54">
<rect width="70" height="54" transform="matrix(-1 0 0 1 70 0)" fill="#D9D9D9"/>
</mask>
<g mask="url(#mask0_130_6810)">
<g opacity="0.45">
<path d="M47.6292 78H47.643C47.7128 77.9982 47.7815 77.9831 47.8453 77.9555C47.9091 77.9279 47.9667 77.8883 48.0147 77.839C48.0628 77.7898 48.1004 77.7317 48.1254 77.6683C48.1504 77.6049 48.1623 77.5373 48.1605 77.4693L47.6837 40.5439C47.6844 40.4751 47.6706 40.407 47.643 40.3436C47.6154 40.2803 47.5746 40.2233 47.5233 40.176C47.472 40.1287 47.4112 40.0923 47.3448 40.0689C47.2783 40.0455 47.2076 40.0358 47.1371 40.0403C47.0674 40.0422 46.9986 40.0575 46.9349 40.0853C46.8712 40.113 46.8138 40.1528 46.7658 40.2022C46.7179 40.2516 46.6805 40.3097 46.6556 40.3732C46.6308 40.4367 46.6191 40.5043 46.6211 40.5722L47.0979 77.4977C47.1011 77.6325 47.1586 77.7606 47.258 77.8546C47.3573 77.9485 47.4906 78.0007 47.6292 78Z" fill="#454E73"/>
<path d="M31.4009 45.7909C31.4464 45.7907 31.4916 45.7843 31.5354 45.7721C61.521 37.2058 61.1243 35.7304 60.9751 35.1754C60.5556 33.6341 41.4777 -5.28029 39.2967 -9.71326C39.2375 -9.83019 39.1365 -9.92064 39.0137 -9.96668C38.891 -10.0127 38.7554 -10.011 38.6338 -9.96185L9.55045 2.24863C9.48523 2.27633 9.42641 2.31712 9.37761 2.36846C9.32881 2.41981 9.29106 2.48063 9.26673 2.54714C9.2424 2.61365 9.23201 2.68445 9.23617 2.75514C9.24033 2.82583 9.25898 2.89492 9.29094 2.95813L30.9182 45.4684C30.9533 45.5527 31.0098 45.6264 31.0823 45.682C31.1741 45.7515 31.2858 45.7896 31.4009 45.7909ZM59.9142 35.2708C58.2374 36.6992 42.0304 41.6925 31.6645 44.6621L10.4608 2.98499L38.584 -8.82237C44.4494 3.1328 58.7887 32.4638 59.9142 35.2708Z" fill="#454E73"/>
<path d="M29.8779 41.1896C29.9353 41.1897 29.9922 41.1799 30.0461 41.1607L56.0564 32.3884C56.1841 32.3437 56.2886 32.2517 56.3473 32.1323C56.4059 32.0129 56.414 31.8758 56.3697 31.7506C56.3254 31.6255 56.2324 31.5224 56.1108 31.4638C55.9891 31.4052 55.8487 31.3957 55.72 31.4374L29.7097 40.2098C29.5951 40.2493 29.4985 40.327 29.4368 40.4292C29.3751 40.5314 29.3523 40.6516 29.3724 40.7686C29.3925 40.8856 29.4541 40.9919 29.5466 41.0689C29.639 41.1459 29.7564 41.1886 29.8779 41.1896Z" fill="#454E73"/>
<path fill-rule="evenodd" clip-rule="evenodd" d="M36.5558 -4.24838C35.449 -4.24838 34.5427 -3.21898 34.5427 -1.94704C34.5427 -0.6751 35.4366 0.352925 36.5558 0.352925C37.6749 0.352925 38.5688 -0.676478 38.5688 -1.94704C38.5688 -3.2176 37.6694 -4.24838 36.5558 -4.24838Z" fill="#475286"/>
<path d="M36.5556 0.928071C37.9826 0.928071 39.1438 -0.363453 39.1438 -1.94915C39.1438 -3.53484 37.9826 -4.82357 36.5556 -4.82357C35.1285 -4.82357 33.9673 -3.53484 33.9673 -1.94915C33.9673 -0.363453 35.1299 0.928071 36.5556 0.928071ZM36.5556 -3.74916C37.395 -3.74916 38.0693 -2.9423 38.0693 -1.94915C38.0693 -0.955986 37.3908 -0.147734 36.5556 -0.147734C35.7203 -0.147734 35.0418 -0.954586 35.0418 -1.94915C35.0418 -2.9437 35.7203 -3.74496 36.5556 -3.74496V-3.74916Z" fill="#454E73"/>
<path fill-rule="evenodd" clip-rule="evenodd" d="M29.6534 -0.797393C28.548 -0.797393 27.6404 0.232012 27.6404 1.50395C27.6404 2.77589 28.5343 3.80392 29.6534 3.80392C30.7726 3.80392 31.6665 2.77451 31.6665 1.50395C31.6665 0.23339 30.7739 -0.797393 29.6534 -0.797393Z" fill="#475286"/>
<path d="M29.6533 4.37906C31.0807 4.37906 32.2422 3.08924 32.2422 1.50394C32.2422 -0.0813669 31.0807 -1.37258 29.6533 -1.37258C28.2258 -1.37258 27.0657 -0.0813669 27.0657 1.50394C27.0657 3.08924 28.2258 4.37906 29.6533 4.37906ZM29.6533 -0.297034C30.4929 -0.297034 31.1688 0.511022 31.1688 1.50394C31.1688 2.49686 30.4887 3.30351 29.6533 3.30351C28.8178 3.30351 28.1391 2.49686 28.1391 1.50394C28.1391 0.511022 28.8178 -0.290033 29.6533 -0.290033V-0.297034Z" fill="#454E73"/>
<path fill-rule="evenodd" clip-rule="evenodd" d="M22.4637 1.50323C21.515 1.50323 20.7382 2.5337 20.7382 3.80388C20.7382 5.07407 21.5033 6.10454 22.4637 6.10454C23.4241 6.10454 24.1892 5.07407 24.1892 3.80388C24.1892 2.5337 23.423 1.50323 22.4637 1.50323Z" fill="#475286"/>
<path d="M22.4627 6.10462C23.7312 6.10462 24.7646 4.94351 24.7646 3.51638C24.7646 2.08926 23.7312 0.92815 22.4627 0.92815C21.1943 0.92815 20.1633 2.08926 20.1633 3.51638C20.1633 4.94351 21.1955 6.10462 22.4627 6.10462ZM22.4627 1.89511C23.2089 1.89511 23.8096 2.62128 23.8096 3.51638C23.8096 4.41149 23.2052 5.13766 22.4627 5.13766C21.7203 5.13766 21.1184 4.41023 21.1184 3.51638C21.1184 2.62254 21.7203 1.89511 22.4627 1.89511Z" fill="#454E73"/>
<path fill-rule="evenodd" clip-rule="evenodd" d="M16.9999 4.37914C15.8931 4.37914 14.9868 5.2808 14.9868 6.39221C14.9868 7.50362 15.8807 8.40528 16.9999 8.40528C18.119 8.40528 19.0129 7.50362 19.0129 6.39221C19.0129 5.2808 18.1204 4.37914 16.9999 4.37914Z" fill="#475286"/>
<path d="M16.9994 8.98043C18.4269 8.98043 19.5884 7.81863 19.5884 6.3922C19.5884 4.96577 18.4269 3.80396 16.9994 3.80396C15.572 3.80396 14.4119 4.96577 14.4119 6.3922C14.4119 7.81863 15.572 8.98043 16.9994 8.98043ZM16.9994 4.77171C17.8391 4.77171 18.5136 5.49879 18.5136 6.3922C18.5136 7.28561 17.8349 8.01268 16.9994 8.01268C16.164 8.01268 15.4853 7.28561 15.4853 6.3922C15.4853 5.49879 16.164 4.77297 16.9994 4.77297V4.77171Z" fill="#454E73"/>
<path fill-rule="evenodd" clip-rule="evenodd" d="M40.5822 3.22878C39.4754 3.22878 38.5691 4.25818 38.5691 5.52875C38.5691 6.79931 39.4616 7.83009 40.5822 7.83009C41.7027 7.83009 42.5952 6.80069 42.5952 5.52875C42.5952 4.25681 41.7013 3.22878 40.5822 3.22878Z" fill="#475286"/>
<path d="M40.5812 8.40523C42.0068 8.40523 43.1694 7.11402 43.1694 5.52872C43.1694 3.94341 42.0068 2.65359 40.5812 2.65359C39.1556 2.65359 37.993 3.94341 37.993 5.52872C37.993 7.11402 39.157 8.40523 40.5812 8.40523ZM40.5812 3.72774C41.4206 3.72774 42.095 4.5358 42.095 5.52872C42.095 6.52163 41.4164 7.32969 40.5812 7.32969C39.746 7.32969 39.0674 6.52163 39.0674 5.52872C39.0674 4.5358 39.746 3.72774 40.5812 3.72774Z" fill="#454E73"/>
<path fill-rule="evenodd" clip-rule="evenodd" d="M33.6798 6.67977C32.573 6.67977 31.6667 7.58143 31.6667 8.69284C31.6667 9.80425 32.5593 10.7059 33.6798 10.7059C34.8003 10.7059 35.6929 9.80425 35.6929 8.69284C35.6929 7.58143 34.8017 6.67977 33.6798 6.67977Z" fill="#475286"/>
<path d="M33.6803 11.2811C35.1077 11.2811 36.2678 10.1202 36.2678 8.69345C36.2678 7.26667 35.1077 6.10459 33.6803 6.10459C32.2529 6.10459 31.0913 7.26667 31.0913 8.69345C31.0913 10.1202 32.2557 11.2811 33.6803 11.2811ZM33.6803 7.07257C34.5199 7.07257 35.1945 7.79982 35.1945 8.69345C35.1945 9.58707 34.5199 10.3105 33.6803 10.3105C32.8406 10.3105 32.1647 9.5833 32.1647 8.68967C32.1647 7.79605 32.8406 7.07257 33.6803 7.07257Z" fill="#454E73"/>
<path fill-rule="evenodd" clip-rule="evenodd" d="M26.7772 8.40521C25.6787 8.40521 24.7641 9.43462 24.7641 10.7066C24.7641 11.9785 25.6581 13.0065 26.7772 13.0065C27.8963 13.0065 28.7903 11.9771 28.7903 10.7066C28.7903 9.43599 27.8977 8.40521 26.7772 8.40521Z" fill="#475286"/>
<path d="M26.7765 13.5817C28.204 13.5817 29.3655 12.4196 29.3655 10.9941C29.3655 9.56856 28.204 8.40521 26.7765 8.40521C25.3491 8.40521 24.189 9.5673 24.189 10.9941C24.189 12.4209 25.3505 13.5817 26.7765 13.5817ZM26.7765 9.3732C27.6162 9.3732 28.2907 10.0992 28.2907 10.9941C28.2907 11.889 27.612 12.615 26.7765 12.615C25.9411 12.615 25.2638 11.8877 25.2638 10.9941C25.2638 10.1005 25.9411 9.37194 26.7765 9.37194V9.3732Z" fill="#454E73"/>
<path fill-rule="evenodd" clip-rule="evenodd" d="M21.0262 11.281C19.9194 11.281 19.0132 12.3104 19.0132 13.5824C19.0132 14.8543 19.9071 15.8823 21.0262 15.8823C22.1454 15.8823 23.0393 14.8529 23.0393 13.5824C23.0393 12.3118 22.1454 11.281 21.0262 11.281Z" fill="#475286"/>
<path d="M21.026 16.4575C22.4534 16.4575 23.6135 15.2954 23.6135 13.8699C23.6135 12.4444 22.4534 11.281 21.026 11.281C19.5986 11.281 18.4371 12.4431 18.4371 13.8699C18.4371 15.2967 19.5986 16.4575 21.026 16.4575ZM21.026 12.249C21.8656 12.249 22.5402 12.975 22.5402 13.8699C22.5402 14.7648 21.8614 15.4908 21.026 15.4908C20.1905 15.4908 19.5118 14.7635 19.5118 13.8699C19.5118 12.9763 20.1933 12.2515 21.026 12.2515V12.249Z" fill="#454E73"/>
<path fill-rule="evenodd" clip-rule="evenodd" d="M44.0323 9.55557C42.9338 9.55557 42.0193 10.585 42.0193 11.8569C42.0193 13.1289 42.9132 14.1569 44.0323 14.1569C45.1515 14.1569 46.0454 13.1275 46.0454 11.8569C46.0454 10.5864 45.1529 9.55557 44.0323 9.55557Z" fill="#475286"/>
<path d="M44.0314 14.732C45.4588 14.732 46.6204 13.57 46.6204 12.1432C46.6204 10.7164 45.4588 9.55557 44.0314 9.55557C42.604 9.55557 41.4439 10.7177 41.4439 12.1432C41.4439 13.5687 42.6054 14.732 44.0314 14.732ZM44.0314 10.5223C44.8711 10.5223 45.5456 11.2496 45.5456 12.1432C45.5456 13.0368 44.8669 13.7641 44.0314 13.7641C43.196 13.7641 42.5186 13.0381 42.5186 12.1432C42.5186 11.2483 43.196 10.5223 44.0314 10.5223Z" fill="#454E73"/>
<path fill-rule="evenodd" clip-rule="evenodd" d="M37.1307 13.0066C36.0253 13.0066 35.1177 14.0367 35.1177 15.3065C35.1177 16.5763 36.0143 17.6079 37.1307 17.6079C38.2471 17.6079 39.1438 16.5777 39.1438 15.3079C39.1438 14.0381 38.2512 13.0066 37.1307 13.0066Z" fill="#475286"/>
<path d="M37.1298 18.183C38.5572 18.183 39.7188 16.8921 39.7188 15.3072C39.7188 13.7223 38.5572 12.4314 37.1298 12.4314C35.7024 12.4314 34.5423 13.7223 34.5423 15.3072C34.5423 16.8921 35.7024 18.183 37.1298 18.183ZM37.1298 13.5067C37.9695 13.5067 38.6454 14.3145 38.6454 15.3072C38.6454 16.2999 37.9653 17.1077 37.1298 17.1077C36.2944 17.1077 35.6156 16.2999 35.6156 15.3072C35.6156 14.3145 36.2944 13.5067 37.1298 13.5067Z" fill="#454E73"/>
<path fill-rule="evenodd" clip-rule="evenodd" d="M30.2291 15.3072C29.1223 15.3072 28.216 16.3377 28.216 17.6078C28.216 18.878 29.1086 19.9085 30.2291 19.9085C31.3496 19.9085 32.2422 18.878 32.2422 17.6078C32.2422 16.3377 31.3496 15.3072 30.2291 15.3072Z" fill="#475286"/>
<path d="M30.2294 20.4836C31.6568 20.4836 32.8169 19.1938 32.8169 17.6085C32.8169 16.0232 31.6568 14.732 30.2294 14.732C28.8019 14.732 27.6404 16.0232 27.6404 17.6085C27.6404 19.1938 28.8019 20.4836 30.2294 20.4836ZM30.2294 15.8076C31.069 15.8076 31.7435 16.6156 31.7435 17.6085C31.7435 18.6014 31.0648 19.4095 30.2294 19.4095C29.3939 19.4095 28.7124 18.6014 28.7124 17.6099C28.7124 16.6184 29.3939 15.8076 30.2294 15.8076Z" fill="#454E73"/>
<path fill-rule="evenodd" clip-rule="evenodd" d="M24.4765 18.183C23.3776 18.183 22.4641 19.2135 22.4641 20.4837C22.4641 21.7538 23.357 22.7843 24.4765 22.7843C25.596 22.7843 26.4902 21.7538 26.4902 20.4837C26.4902 19.2135 25.5974 18.183 24.4765 18.183Z" fill="#475286"/>
<path d="M24.4781 23.3595C25.9041 23.3595 27.0657 22.0686 27.0657 20.4836C27.0657 18.8987 25.9041 17.6078 24.4781 17.6078C23.0521 17.6078 21.8892 18.8987 21.8892 20.4836C21.8892 22.0686 23.0507 23.3595 24.4781 23.3595ZM24.4781 18.6831C25.3178 18.6831 25.9923 19.491 25.9923 20.4836C25.9923 21.4763 25.3136 22.2842 24.4781 22.2842C23.6427 22.2842 22.9626 21.4763 22.9626 20.4836C22.9626 19.491 23.6427 18.6831 24.4781 18.6831Z" fill="#454E73"/>
<path fill-rule="evenodd" clip-rule="evenodd" d="M46.3341 16.4576C45.2287 16.4576 44.321 17.487 44.321 18.7575C44.321 20.0281 45.215 21.0589 46.3341 21.0589C47.4532 21.0589 48.3472 20.0295 48.3472 18.7575C48.3472 17.4856 47.4546 16.4576 46.3341 16.4576Z" fill="#475286"/>
<path d="M46.3324 21.634C47.7599 21.634 48.9214 20.4742 48.9214 19.0471C48.9214 17.6199 47.7599 16.4576 46.3324 16.4576C44.905 16.4576 43.7449 17.6199 43.7449 19.0471C43.7449 20.4742 44.9064 21.634 46.3324 21.634ZM46.3324 17.4258C47.1721 17.4258 47.848 18.1519 47.848 19.0471C47.848 19.9422 47.1679 20.6671 46.3324 20.6671C45.497 20.6671 44.8183 19.9409 44.8183 19.0471C44.8183 18.1532 45.497 17.4258 46.3324 17.4258Z" fill="#454E73"/>
<path fill-rule="evenodd" clip-rule="evenodd" d="M39.431 19.9085C38.3325 19.9085 37.4179 20.939 37.4179 22.2092C37.4179 23.4794 38.3119 24.5099 39.431 24.5099C40.5502 24.5099 41.4441 23.4794 41.4441 22.2092C41.4441 20.939 40.5515 19.9085 39.431 19.9085Z" fill="#475286"/>
<path d="M39.4327 25.085C40.8583 25.085 42.0195 23.7938 42.0195 22.2085C42.0195 20.6232 40.8583 19.3334 39.4327 19.3334C38.0071 19.3334 36.8431 20.6232 36.8431 22.2085C36.8431 23.7938 38.0057 25.085 39.4327 25.085ZM39.4327 20.4075C40.2721 20.4075 40.9451 21.2156 40.9451 22.2085C40.9451 23.2014 40.2679 24.0095 39.4327 24.0095C38.5975 24.0095 37.9175 23.2028 37.9175 22.2085C37.9175 21.2142 38.5975 20.4061 39.4327 20.4061V20.4075Z" fill="#454E73"/>
<path fill-rule="evenodd" clip-rule="evenodd" d="M32.2413 22.2092C31.2926 22.2092 30.5158 23.2386 30.5158 24.5105C30.5158 25.7825 31.2809 26.8105 32.2413 26.8105C33.2017 26.8105 33.9668 25.7811 33.9668 24.5105C33.9668 23.24 33.2006 22.2092 32.2413 22.2092Z" fill="#475286"/>
<path d="M32.2422 27.3856C33.511 27.3856 34.5422 26.0958 34.5422 24.5105C34.5422 22.9252 33.511 21.634 32.2422 21.634C30.9734 21.634 29.9409 22.9252 29.9409 24.5105C29.9409 26.0958 30.9734 27.3856 32.2422 27.3856ZM32.2422 22.7095C32.9886 22.7095 33.5881 23.5176 33.5881 24.5105C33.5881 25.5034 32.9848 26.3101 32.2422 26.3101C31.4996 26.3101 30.895 25.5034 30.895 24.5105C30.895 23.5176 31.4996 22.7095 32.2422 22.7095Z" fill="#454E73"/>
<path fill-rule="evenodd" clip-rule="evenodd" d="M26.7772 25.085C25.6787 25.085 24.7641 26.1155 24.7641 27.3856C24.7641 28.6558 25.6581 29.6863 26.7772 29.6863C27.8963 29.6863 28.7903 28.6558 28.7903 27.3856C28.7903 26.1155 27.8977 25.085 26.7772 25.085Z" fill="#475286"/>
<path d="M26.7779 30.2614C28.204 30.2614 29.3655 28.9699 29.3655 27.3842C29.3655 25.7985 28.204 24.5098 26.7779 24.5098C25.3519 24.5098 24.189 25.7999 24.189 27.3842C24.189 28.9685 25.3505 30.2614 26.7779 30.2614ZM26.7779 25.5842C27.6176 25.5842 28.2907 26.391 28.2907 27.3842C28.2907 28.3774 27.6134 29.1898 26.7779 29.1898C25.9425 29.1898 25.2624 28.383 25.2624 27.3884C25.2624 26.3939 25.9425 25.5842 26.7779 25.5842Z" fill="#454E73"/>
<path fill-rule="evenodd" clip-rule="evenodd" d="M50.0716 23.3595C49.1241 23.3595 48.3461 24.3889 48.3461 25.6609C48.3461 26.9328 49.1124 27.9608 50.0716 27.9608C51.0309 27.9608 51.7971 26.9314 51.7971 25.6609C51.7971 24.3903 51.0321 23.3595 50.0716 23.3595Z" fill="#475286"/>
<path d="M50.0715 28.536C51.3403 28.536 52.3728 27.2448 52.3728 25.6595C52.3728 24.0742 51.3403 22.7844 50.0715 22.7844C48.8027 22.7844 47.7715 24.0742 47.7715 25.6595C47.7715 27.2448 48.8064 28.536 50.0715 28.536ZM50.0715 23.8585C50.8179 23.8585 51.4187 24.6666 51.4187 25.6595C51.4187 26.6524 50.8142 27.4604 50.0715 27.4604C49.3289 27.4604 48.7256 26.6538 48.7256 25.6595C48.7256 24.6651 49.3289 23.8585 50.0715 23.8585Z" fill="#454E73"/>
<path fill-rule="evenodd" clip-rule="evenodd" d="M43.4574 26.8105C42.3588 26.8105 41.4443 27.841 41.4443 29.1112C41.4443 30.3814 42.3383 31.4118 43.4574 31.4118C44.5765 31.4118 45.4705 30.3814 45.4705 29.1112C45.4705 27.841 44.5793 26.8105 43.4574 26.8105Z" fill="#475286"/>
<path d="M43.1698 31.987C44.4383 31.987 45.4705 30.6972 45.4705 29.1119C45.4705 27.5266 44.4383 26.2353 43.1698 26.2353C41.9013 26.2353 40.8692 27.5266 40.8692 29.1119C40.8692 30.6972 41.9038 31.987 43.1698 31.987ZM43.1698 27.3109C43.916 27.3109 44.5154 28.1189 44.5154 29.1119C44.5154 30.1048 43.9122 30.9128 43.1698 30.9128C42.4274 30.9128 41.8242 30.1048 41.8242 29.1119C41.8242 28.1189 42.4236 27.3109 43.1698 27.3109Z" fill="#454E73"/>
<path fill-rule="evenodd" clip-rule="evenodd" d="M35.9801 29.1111C34.8733 29.1111 33.967 30.1416 33.967 31.4118C33.967 32.682 34.8596 33.7125 35.9801 33.7125C37.1006 33.7125 37.9932 32.682 37.9932 31.4118C37.9932 30.1416 37.0992 29.1111 35.9801 29.1111Z" fill="#475286"/>
<path d="M35.9813 34.2876C37.4087 34.2876 38.5688 32.9978 38.5688 31.4125C38.5688 29.8272 37.4087 28.536 35.9813 28.536C34.5539 28.536 33.3924 29.8272 33.3924 31.4125C33.3924 32.9978 34.5539 34.2876 35.9813 34.2876ZM35.9813 29.6115C36.821 29.6115 37.4955 30.4182 37.4955 31.4125C37.4955 32.4068 36.8168 33.2135 35.9813 33.2135C35.1459 33.2135 34.4657 32.4054 34.4657 31.4125C34.4657 30.4196 35.1459 29.6115 35.9813 29.6115Z" fill="#454E73"/>
<path fill-rule="evenodd" clip-rule="evenodd" d="M30.5167 31.987C29.5751 31.987 28.7912 33.0164 28.7912 34.2883C28.7912 35.5602 29.5574 36.5883 30.5167 36.5883C31.476 36.5883 32.2422 35.5589 32.2422 34.2883C32.2422 33.0177 31.4771 31.987 30.5167 31.987Z" fill="#475286"/>
<path d="M30.5175 36.5882C31.7847 36.5882 32.8169 35.4274 32.8169 34.0007C32.8169 32.5739 31.7847 31.4118 30.5175 31.4118C29.2503 31.4118 28.2156 32.5739 28.2156 34.0007C28.2156 35.4274 29.249 36.5882 30.5175 36.5882ZM30.5175 32.3798C31.2636 32.3798 31.8618 33.1058 31.8618 34.0007C31.8618 34.8955 31.2599 35.6215 30.5175 35.6215C29.7751 35.6215 29.1707 34.8943 29.1707 34.0007C29.1707 33.107 29.7775 32.3798 30.5175 32.3798Z" fill="#454E73"/>
</g>
</g>
</svg>
