<svg width="369" height="206" viewBox="0 0 369 206" fill="none" xmlns="http://www.w3.org/2000/svg">
<path d="M4.79873 60.3452C4.79873 45.3585 6.8594 33.8375 10.9807 25.7822C15.2894 17.7269 20.8157 11.8259 27.5597 8.07919C34.4911 4.33253 42.2654 2.17819 50.8827 1.61619C59.6874 0.866855 68.4921 0.492188 77.2967 0.492188C86.1014 0.492188 94.8124 0.866855 103.43 1.61619C112.234 2.17819 120.009 4.33253 126.753 8.07919C133.684 11.8259 139.21 17.7269 143.332 25.7822C147.64 33.8375 149.795 45.3585 149.795 60.3452C149.795 71.5852 148.015 80.4835 144.456 87.0402C141.084 93.5969 137.243 97.9055 132.935 99.9662C131.998 100.528 131.53 100.903 131.53 101.09C131.53 101.465 131.998 101.84 132.935 102.214C140.053 105.212 145.392 110.082 148.952 116.826C152.698 123.383 154.572 133.312 154.572 146.612C154.572 159.351 153.073 169.561 150.076 177.241C147.078 184.922 142.395 190.823 136.026 194.944C129.844 199.066 121.882 201.876 112.141 203.374C102.399 204.686 90.7847 205.341 77.2967 205.341C63.8087 205.341 52.1941 204.686 42.4527 203.374C32.7114 201.876 24.7497 199.066 18.5677 194.944C12.3857 190.823 7.79607 184.922 4.79873 177.241C1.8014 169.561 0.302734 159.351 0.302734 146.612C0.302734 133.312 2.0824 123.383 5.64173 116.826C9.20107 110.082 14.5401 105.212 21.6587 102.214C22.5954 101.84 23.0637 101.465 23.0637 101.09C23.0637 100.903 22.5954 100.528 21.6587 99.9662C17.5374 97.9055 13.6971 93.5969 10.1377 87.0402C6.5784 80.4835 4.79873 71.5852 4.79873 60.3452ZM113.827 142.397C113.827 137.152 112.703 132.75 110.455 129.19C108.207 125.631 105.303 122.727 101.744 120.479C98.3717 118.231 94.4377 116.639 89.9417 115.702C85.6331 114.766 81.4181 114.297 77.2967 114.297C72.9881 114.297 68.6794 114.766 64.3707 115.702C60.0621 116.639 56.1281 118.231 52.5687 120.479C49.1967 122.727 46.3867 125.631 44.1387 129.19C41.8907 132.75 40.7667 137.152 40.7667 142.397C40.7667 145.207 41.3287 148.298 42.4527 151.67C43.5767 155.042 45.5437 158.227 48.3537 161.224C51.1637 164.034 54.9104 166.47 59.5937 168.53C64.2771 170.404 70.1781 171.34 77.2967 171.34C84.4154 171.34 90.3164 170.404 94.9997 168.53C99.6831 166.47 103.43 164.034 106.24 161.224C109.05 158.227 111.017 155.042 112.141 151.67C113.265 148.298 113.827 145.207 113.827 142.397ZM110.455 56.9732C110.455 52.6645 109.424 49.1989 107.364 46.5762C105.49 43.7662 102.961 41.6119 99.7767 40.1132C96.7794 38.6145 93.2201 37.6779 89.0987 37.3032C85.1647 36.7412 81.2307 36.4602 77.2967 36.4602C73.3627 36.4602 69.4287 36.7412 65.4947 37.3032C61.5607 37.6779 58.0014 38.6145 54.8167 40.1132C51.8194 41.6119 49.2904 43.7662 47.2297 46.5762C45.3564 49.1989 44.4197 52.6645 44.4197 56.9732V59.7832C44.4197 69.3372 47.4171 75.8939 53.4117 79.4532C59.4064 82.8252 67.3681 84.5112 77.2967 84.5112C87.2254 84.5112 95.1871 82.8252 101.182 79.4532C107.364 75.8939 110.455 69.3372 110.455 59.7832V56.9732Z" fill="url(#paint0_linear_4974_6778)"/>
<path d="M189.749 13.4197C181.881 20.7257 177.947 31.4037 177.947 45.4537V149.986C177.947 159.914 178.978 168.344 181.038 175.276C183.099 182.02 186.19 187.546 190.311 191.855C194.62 195.976 199.865 198.973 206.047 200.847C212.417 202.72 219.91 203.657 228.527 203.657H285.008C291.94 203.657 298.215 202.72 303.835 200.847C309.455 198.973 314.232 195.976 318.166 191.855C322.1 187.546 325.098 182.02 327.158 175.276C329.406 168.344 330.53 159.914 330.53 149.986V124.66H292.876V146.333C292.876 153.826 291.378 159.446 288.38 163.193C285.383 166.752 279.295 168.532 270.115 168.532H237.8C229.745 168.532 224.031 166.752 220.659 163.193C217.475 159.446 215.882 153.826 215.882 146.333V59.2227C215.882 51.3547 217.943 45.7347 222.064 42.3627C226.186 38.9907 231.525 37.3047 238.081 37.3047H270.115C274.237 37.3047 277.702 37.9604 280.512 39.2717C283.322 40.583 285.664 42.269 287.537 44.3297C289.411 46.3903 290.722 48.732 291.471 51.3547C292.408 53.9774 292.876 56.6 292.876 59.2227V75.8089H330.53V45.4537C330.53 31.4037 326.409 20.7257 318.166 13.4197C309.924 5.92635 298.965 2.17969 285.289 2.17969H222.907C208.857 2.17969 197.805 5.92635 189.749 13.4197Z" fill="url(#paint1_linear_4974_6778)"/>
<path d="M350.239 14.6067L349.931 13.8041L349.385 14.469L344.6 20.306L337.554 23.0124L336.752 23.3207L337.417 23.8659L343.254 28.6511L345.96 35.6971L346.268 36.4997L346.813 35.8348L351.599 29.9978L358.645 27.2914L359.447 26.9831L358.782 26.4379L352.945 21.6527L350.239 14.6067Z" fill="#FF883F" stroke="#F8AD7E"/>
<path d="M259.323 111.858V106.323C259.323 105.585 259.5 104.847 259.856 104.109C260.648 102.441 262.152 101.608 264.366 101.608H268.958C269.34 101.608 269.723 101.649 270.106 101.731C272.675 102.305 273.96 103.835 273.96 106.323V111.858C273.96 113.279 273.481 114.427 272.525 115.302C271.595 116.149 270.406 116.573 268.958 116.573H264.366C261.632 116.573 259.979 115.247 259.405 112.596C259.35 112.295 259.323 112.049 259.323 111.858ZM238.454 97.4666V91.8906C238.454 91.6992 238.481 91.4669 238.536 91.1936C238.946 88.9796 240.326 87.6812 242.677 87.2986C243.005 87.2439 243.278 87.2166 243.497 87.2166H248.048C250.863 87.2166 252.503 88.5422 252.968 91.1936C253.022 91.4942 253.05 91.7266 253.05 91.8906V97.4666C253.05 97.6306 253.022 97.8629 252.968 98.1636C252.585 100.405 251.205 101.717 248.827 102.1C248.471 102.154 248.212 102.182 248.048 102.182H243.497C243.278 102.182 243.005 102.154 242.677 102.1C240.326 101.717 238.946 100.405 238.536 98.1636C238.454 97.7536 238.426 97.5212 238.454 97.4666ZM265.719 111.489H267.564C268.302 111.489 268.766 111.174 268.958 110.546C269.012 110.382 269.04 110.149 269.04 109.849V108.373C269.04 107.853 268.917 107.443 268.671 107.143C268.288 106.842 267.919 106.692 267.564 106.692H265.719C265.008 106.692 264.557 107.006 264.366 107.635C264.311 107.799 264.284 108.045 264.284 108.373V109.849C264.284 110.942 264.762 111.489 265.719 111.489ZM244.809 97.0566H246.736C247.064 97.0566 247.405 96.9199 247.761 96.6466C248.007 96.3186 248.13 95.9086 248.13 95.4166V93.9406C248.13 92.8472 247.665 92.3006 246.736 92.3006H244.809C244.289 92.3006 243.893 92.5329 243.62 92.9976C243.483 93.1889 243.415 93.5032 243.415 93.9406V95.4166C243.415 95.9086 243.551 96.3049 243.825 96.6056C244.125 96.9062 244.453 97.0566 244.809 97.0566ZM245.67 116.163C245.615 116.272 245.588 116.34 245.588 116.368C245.588 116.532 245.711 116.614 245.957 116.614H250.508C250.726 116.614 250.877 116.573 250.959 116.491C251.068 116.409 251.164 116.299 251.246 116.163L266.826 87.6676C266.88 87.5582 266.908 87.4899 266.908 87.4626C266.908 87.2986 266.785 87.2166 266.539 87.2166H261.988C261.769 87.2166 261.605 87.2576 261.496 87.3396C261.414 87.4216 261.332 87.5309 261.25 87.6676L245.67 116.163Z" fill="#EA7738"/>
<path d="M292.289 102.141V101.895C292.289 100.282 292.303 98.8879 292.33 97.7126C292.357 96.5372 292.439 95.5806 292.576 94.8426C292.795 93.7766 293.027 92.8199 293.273 91.9726C293.519 91.1252 293.847 90.4282 294.257 89.8816C294.804 89.1709 295.487 88.5559 296.307 88.0366C297.127 87.4899 298.002 87.1072 298.931 86.8886C299.587 86.7519 300.448 86.6699 301.514 86.6426C302.58 86.6152 303.851 86.6016 305.327 86.6016C306.803 86.6016 308.074 86.6152 309.14 86.6426C310.206 86.6699 311.067 86.7519 311.723 86.8886C312.652 87.1072 313.527 87.4899 314.347 88.0366C315.167 88.5559 315.85 89.1709 316.397 89.8816C316.807 90.4282 317.135 91.1252 317.381 91.9726C317.627 92.8199 317.859 93.7766 318.078 94.8426C318.215 95.5806 318.297 96.5372 318.324 97.7126C318.351 98.8879 318.365 100.282 318.365 101.895V102.141C318.365 103.753 318.351 105.147 318.324 106.323C318.297 107.498 318.215 108.455 318.078 109.193C317.859 110.259 317.627 111.215 317.381 112.063C317.135 112.91 316.807 113.607 316.397 114.154C315.85 114.864 315.167 115.493 314.347 116.04C313.527 116.559 312.652 116.928 311.723 117.147C311.067 117.283 310.206 117.365 309.14 117.393C308.074 117.42 306.803 117.434 305.327 117.434C303.851 117.434 302.58 117.42 301.514 117.393C300.448 117.365 299.587 117.283 298.931 117.147C298.002 116.928 297.127 116.559 296.307 116.04C295.487 115.493 294.804 114.864 294.257 114.154C293.847 113.607 293.519 112.91 293.273 112.063C293.027 111.215 292.795 110.259 292.576 109.193C292.439 108.455 292.357 107.498 292.33 106.323C292.303 105.147 292.289 103.753 292.289 102.141ZM305.327 92.2596C304.48 92.2596 303.673 92.2869 302.908 92.3416C302.143 92.3689 301.487 92.4509 300.94 92.5876C299.956 92.8336 299.259 93.3256 298.849 94.0636C298.439 94.7742 298.234 95.8539 298.234 97.3026V106.733C298.234 108.181 298.439 109.275 298.849 110.013C299.259 110.723 299.956 111.202 300.94 111.448C301.487 111.584 302.143 111.68 302.908 111.735C303.673 111.762 304.48 111.776 305.327 111.776C306.174 111.776 306.981 111.762 307.746 111.735C308.511 111.68 309.167 111.584 309.714 111.448C310.698 111.202 311.395 110.723 311.805 110.013C312.215 109.275 312.42 108.181 312.42 106.733V97.3026C312.42 95.8539 312.215 94.7742 311.805 94.0636C311.395 93.3256 310.698 92.8336 309.714 92.5876C309.167 92.4509 308.511 92.3689 307.746 92.3416C306.981 92.2869 306.174 92.2596 305.327 92.2596Z" fill="#EA7738"/>
<path d="M323.531 116.204V92.7106C323.531 91.7812 323.682 90.9749 323.982 90.2916C324.283 89.6082 324.693 89.0479 325.212 88.6106C325.759 88.1459 326.388 87.8042 327.098 87.5856C327.836 87.3396 328.629 87.2166 329.476 87.2166H343.826C344.1 87.2166 344.236 87.3532 344.236 87.6266V92.1366C344.236 92.4099 344.1 92.5466 343.826 92.5466H331.444C330.706 92.5466 330.187 92.7516 329.886 93.1616C329.613 93.5442 329.476 94.1046 329.476 94.8426V98.7376C329.476 99.0382 329.613 99.1886 329.886 99.1886H342.473C342.747 99.1886 342.883 99.3252 342.883 99.5986V104.109C342.883 104.382 342.747 104.519 342.473 104.519H329.886C329.613 104.519 329.476 104.669 329.476 104.97V116.204C329.476 116.477 329.34 116.614 329.066 116.614H323.941C323.668 116.614 323.531 116.477 323.531 116.204Z" fill="#EA7738"/>
<path d="M348.283 116.204V92.7106C348.283 91.7812 348.434 90.9749 348.734 90.2916C349.035 89.6082 349.445 89.0479 349.964 88.6106C350.511 88.1459 351.14 87.8042 351.85 87.5856C352.588 87.3396 353.381 87.2166 354.228 87.2166H368.578C368.852 87.2166 368.988 87.3532 368.988 87.6266V92.1366C368.988 92.4099 368.852 92.5466 368.578 92.5466H356.196C355.458 92.5466 354.939 92.7516 354.638 93.1616C354.365 93.5442 354.228 94.1046 354.228 94.8426V98.7376C354.228 99.0382 354.365 99.1886 354.638 99.1886H367.225C367.499 99.1886 367.635 99.3252 367.635 99.5986V104.109C367.635 104.382 367.499 104.519 367.225 104.519H354.638C354.365 104.519 354.228 104.669 354.228 104.97V116.204C354.228 116.477 354.092 116.614 353.818 116.614H348.693C348.42 116.614 348.283 116.477 348.283 116.204Z" fill="#EA7738"/>
<defs>
<linearGradient id="paint0_linear_4974_6778" x1="206.141" y1="2.65625" x2="99.4094" y2="203.656" gradientUnits="userSpaceOnUse">
<stop offset="0.228274" stop-color="#EC6B25"/>
<stop offset="0.469342" stop-color="#FFF2EB"/>
<stop offset="0.612086" stop-color="#BEECA3"/>
<stop offset="0.858383" stop-color="#259B25"/>
</linearGradient>
<linearGradient id="paint1_linear_4974_6778" x1="206.141" y1="2.65625" x2="99.4094" y2="203.656" gradientUnits="userSpaceOnUse">
<stop offset="0.228274" stop-color="#EC6B25"/>
<stop offset="0.469342" stop-color="#FFF2EB"/>
<stop offset="0.612086" stop-color="#BEECA3"/>
<stop offset="0.858383" stop-color="#259B25"/>
</linearGradient>
</defs>
</svg>
