<svg width="21" height="21" viewBox="0 0 21 21" fill="none" xmlns="http://www.w3.org/2000/svg">
<path d="M8.72343 4.8805L9.2504 6.34394C9.83577 7.96816 11.1148 9.24719 12.739 9.83257L14.2025 10.3595C14.3344 10.4074 14.3344 10.5945 14.2025 10.6417L12.739 11.1687C11.1148 11.7541 9.83577 13.0331 9.2504 14.6573L8.72343 16.1208C8.67552 16.2527 8.48849 16.2527 8.44124 16.1208L7.91427 14.6573C7.3289 13.0331 6.04987 11.7541 4.42565 11.1687L2.96221 10.6417C2.8303 10.5938 2.8303 10.4068 2.96221 10.3595L4.42565 9.83257C6.04987 9.24719 7.3289 7.96816 7.91427 6.34394L8.44124 4.8805C8.48849 4.74794 8.67552 4.74794 8.72343 4.8805Z" fill="white"/>
<path d="M15.3116 1.36303L15.5787 2.10393C15.8754 2.92622 16.5231 3.57393 17.3454 3.87056L18.0863 4.13765C18.1532 4.16193 18.1532 4.25643 18.0863 4.28071L17.3454 4.54781C16.5231 4.84443 15.8754 5.49215 15.5787 6.31443L15.3116 7.05534C15.2874 7.12228 15.1929 7.12228 15.1686 7.05534L14.9015 6.31443C14.6049 5.49215 13.9571 4.84443 13.1349 4.54781L12.394 4.28071C12.327 4.25643 12.327 4.16193 12.394 4.13765L13.1349 3.87056C13.9571 3.57393 14.6049 2.92622 14.9015 2.10393L15.1686 1.36303C15.1929 1.29543 15.288 1.29543 15.3116 1.36303Z" fill="white"/>
<path d="M15.3116 13.9446L15.5787 14.6855C15.8754 15.5078 16.5231 16.1555 17.3454 16.4521L18.0863 16.7192C18.1532 16.7435 18.1532 16.838 18.0863 16.8623L17.3454 17.1293C16.5231 17.426 15.8754 18.0737 15.5787 18.896L15.3116 19.6369C15.2874 19.7038 15.1929 19.7038 15.1686 19.6369L14.9015 18.896C14.6049 18.0737 13.9571 17.426 13.1349 17.1293L12.394 16.8623C12.327 16.838 12.327 16.7435 12.394 16.7192L13.1349 16.4521C13.9571 16.1555 14.6049 15.5078 14.9015 14.6855L15.1686 13.9446C15.1929 13.8776 15.288 13.8776 15.3116 13.9446Z" fill="white"/>
</svg>
