<svg width="167" height="134" viewBox="0 0 167 134" fill="none" xmlns="http://www.w3.org/2000/svg">
<path d="M26.0852 128.875L22.3652 114.875H24.9252L27.5452 126.135L30.5852 114.875H33.2452L36.1852 126.155L38.8252 114.875H41.4052L37.5852 128.875H34.7452L31.8652 118.275L28.9052 128.875H26.0852Z" fill="#15297C"/>
<path d="M47.1091 129.115C46.1091 129.115 45.2291 128.902 44.4691 128.475C43.7091 128.035 43.1158 127.422 42.6891 126.635C42.2625 125.848 42.0491 124.942 42.0491 123.915C42.0491 122.848 42.2558 121.915 42.6691 121.115C43.0958 120.315 43.6891 119.688 44.4491 119.235C45.2225 118.782 46.1158 118.555 47.1291 118.555C48.1158 118.555 48.9758 118.775 49.7091 119.215C50.4425 119.655 51.0091 120.248 51.4091 120.995C51.8091 121.728 52.0091 122.555 52.0091 123.475C52.0091 123.608 52.0091 123.755 52.0091 123.915C52.0091 124.075 51.9958 124.242 51.9691 124.415H43.7691V122.875H49.5891C49.5625 122.142 49.3158 121.568 48.8491 121.155C48.3825 120.728 47.8025 120.515 47.1091 120.515C46.6158 120.515 46.1625 120.628 45.7491 120.855C45.3358 121.082 45.0091 121.422 44.7691 121.875C44.5291 122.315 44.4091 122.875 44.4091 123.555V124.135C44.4091 124.762 44.5225 125.302 44.7491 125.755C44.9891 126.208 45.3091 126.555 45.7091 126.795C46.1225 127.022 46.5825 127.135 47.0891 127.135C47.6491 127.135 48.1091 127.015 48.4691 126.775C48.8425 126.535 49.1158 126.215 49.2891 125.815H51.7291C51.5425 126.442 51.2358 127.008 50.8091 127.515C50.3825 128.008 49.8558 128.402 49.2291 128.695C48.6025 128.975 47.8958 129.115 47.1091 129.115Z" fill="#15297C"/>
<path d="M60.1851 129.115C59.6517 129.115 59.1717 129.042 58.7451 128.895C58.3184 128.762 57.9451 128.575 57.6251 128.335C57.3051 128.082 57.0384 127.795 56.8251 127.475L56.5651 128.875H54.4251V114.475H56.8251V120.275C57.1451 119.782 57.5784 119.375 58.1251 119.055C58.6717 118.722 59.3517 118.555 60.1651 118.555C61.1117 118.555 61.9451 118.788 62.6651 119.255C63.3984 119.708 63.9717 120.335 64.3851 121.135C64.8117 121.922 65.0251 122.828 65.0251 123.855C65.0251 124.855 64.8184 125.755 64.4051 126.555C63.9917 127.355 63.4184 127.982 62.6851 128.435C61.9651 128.888 61.1317 129.115 60.1851 129.115ZM59.6851 127.035C60.2451 127.035 60.7451 126.902 61.1851 126.635C61.6251 126.355 61.9651 125.982 62.2051 125.515C62.4584 125.035 62.5851 124.475 62.5851 123.835C62.5851 123.208 62.4584 122.655 62.2051 122.175C61.9651 121.695 61.6251 121.322 61.1851 121.055C60.7451 120.788 60.2451 120.655 59.6851 120.655C59.1117 120.655 58.6051 120.788 58.1651 121.055C57.7384 121.322 57.3984 121.695 57.1451 122.175C56.9051 122.655 56.7851 123.208 56.7851 123.835C56.7851 124.475 56.9051 125.035 57.1451 125.515C57.3984 125.982 57.7384 126.355 58.1651 126.635C58.6051 126.902 59.1117 127.035 59.6851 127.035Z" fill="#15297C"/>
<path d="M81.5576 128.875V114.875H83.9576V128.875H81.5576ZM72.7176 128.875V114.875H75.1176V128.875H72.7176ZM74.7576 122.715V120.755H82.0176V122.715H74.7576Z" fill="#15297C"/>
<path d="M91.6196 129.115C90.6596 129.115 89.7929 128.895 89.0196 128.455C88.2596 128.002 87.6596 127.382 87.2196 126.595C86.7929 125.795 86.5796 124.882 86.5796 123.855C86.5796 122.802 86.7996 121.882 87.2396 121.095C87.6796 120.295 88.2796 119.675 89.0396 119.235C89.8129 118.782 90.6796 118.555 91.6396 118.555C92.5996 118.555 93.4596 118.782 94.2196 119.235C94.9929 119.675 95.5929 120.288 96.0196 121.075C96.4596 121.862 96.6796 122.782 96.6796 123.835C96.6796 124.888 96.4596 125.808 96.0196 126.595C95.5796 127.382 94.9729 128.002 94.1996 128.455C93.4396 128.895 92.5796 129.115 91.6196 129.115ZM91.6196 127.055C92.0996 127.055 92.5329 126.935 92.9196 126.695C93.3196 126.455 93.6396 126.095 93.8796 125.615C94.1196 125.135 94.2396 124.542 94.2396 123.835C94.2396 123.128 94.1196 122.542 93.8796 122.075C93.6529 121.595 93.3396 121.235 92.9396 120.995C92.5529 120.755 92.1196 120.635 91.6396 120.635C91.1729 120.635 90.7396 120.755 90.3396 120.995C89.9396 121.235 89.6196 121.595 89.3796 122.075C89.1396 122.542 89.0196 123.128 89.0196 123.835C89.0196 124.542 89.1396 125.135 89.3796 125.615C89.6196 126.095 89.9329 126.455 90.3196 126.695C90.7196 126.935 91.1529 127.055 91.6196 127.055Z" fill="#15297C"/>
<path d="M103.249 129.115C102.356 129.115 101.576 128.975 100.909 128.695C100.256 128.402 99.7356 128.002 99.349 127.495C98.9756 126.975 98.7556 126.382 98.689 125.715H101.089C101.156 125.995 101.276 126.255 101.449 126.495C101.622 126.722 101.856 126.902 102.149 127.035C102.456 127.168 102.816 127.235 103.229 127.235C103.629 127.235 103.956 127.182 104.209 127.075C104.462 126.955 104.649 126.802 104.769 126.615C104.889 126.428 104.949 126.228 104.949 126.015C104.949 125.695 104.862 125.448 104.689 125.275C104.516 125.102 104.262 124.968 103.929 124.875C103.609 124.768 103.222 124.668 102.769 124.575C102.289 124.482 101.822 124.368 101.369 124.235C100.929 124.088 100.529 123.908 100.169 123.695C99.8223 123.482 99.5423 123.208 99.329 122.875C99.129 122.542 99.029 122.135 99.029 121.655C99.029 121.068 99.1823 120.542 99.489 120.075C99.809 119.608 100.262 119.242 100.849 118.975C101.449 118.695 102.162 118.555 102.989 118.555C104.162 118.555 105.096 118.828 105.789 119.375C106.496 119.908 106.909 120.662 107.029 121.635H104.749C104.682 121.262 104.496 120.975 104.189 120.775C103.882 120.562 103.476 120.455 102.969 120.455C102.449 120.455 102.049 120.555 101.769 120.755C101.502 120.942 101.369 121.195 101.369 121.515C101.369 121.715 101.449 121.902 101.609 122.075C101.782 122.235 102.029 122.375 102.349 122.495C102.669 122.602 103.062 122.708 103.529 122.815C104.276 122.962 104.936 123.135 105.509 123.335C106.082 123.535 106.536 123.828 106.869 124.215C107.202 124.602 107.369 125.148 107.369 125.855C107.382 126.495 107.216 127.062 106.869 127.555C106.536 128.048 106.062 128.435 105.449 128.715C104.836 128.982 104.102 129.115 103.249 129.115Z" fill="#15297C"/>
<path d="M113.926 128.875C113.246 128.875 112.653 128.768 112.146 128.555C111.653 128.342 111.266 127.988 110.986 127.495C110.706 127.002 110.566 126.335 110.566 125.495V120.815H108.846V118.795H110.566L110.846 116.135H112.966V118.795H115.706V120.815H112.966V125.495C112.966 126.002 113.073 126.355 113.286 126.555C113.513 126.742 113.886 126.835 114.406 126.835H115.646V128.875H113.926Z" fill="#15297C"/>
<path d="M118.264 128.875V118.795H120.664V128.875H118.264ZM119.464 117.195C119.024 117.195 118.657 117.062 118.364 116.795C118.084 116.515 117.944 116.175 117.944 115.775C117.944 115.362 118.084 115.028 118.364 114.775C118.657 114.508 119.024 114.375 119.464 114.375C119.904 114.375 120.264 114.508 120.544 114.775C120.837 115.028 120.984 115.362 120.984 115.775C120.984 116.175 120.837 116.515 120.544 116.795C120.264 117.062 119.904 117.195 119.464 117.195Z" fill="#15297C"/>
<path d="M123.638 128.875V118.795H125.758L125.938 120.475C126.244 119.888 126.684 119.422 127.258 119.075C127.831 118.728 128.511 118.555 129.298 118.555C130.111 118.555 130.804 118.728 131.378 119.075C131.951 119.408 132.391 119.902 132.698 120.555C133.018 121.208 133.178 122.022 133.178 122.995V128.875H130.778V123.215C130.778 122.375 130.591 121.728 130.218 121.275C129.844 120.822 129.291 120.595 128.558 120.595C128.078 120.595 127.644 120.708 127.258 120.935C126.884 121.162 126.584 121.495 126.358 121.935C126.144 122.362 126.038 122.882 126.038 123.495V128.875H123.638Z" fill="#15297C"/>
<path d="M140.148 133.515C139.201 133.515 138.368 133.395 137.648 133.155C136.941 132.928 136.388 132.575 135.988 132.095C135.601 131.628 135.408 131.042 135.408 130.335C135.408 129.922 135.508 129.515 135.708 129.115C135.921 128.728 136.235 128.368 136.648 128.035C137.075 127.688 137.615 127.388 138.268 127.135L139.328 128.295C138.688 128.522 138.241 128.795 137.988 129.115C137.735 129.435 137.608 129.762 137.608 130.095C137.608 130.442 137.715 130.728 137.928 130.955C138.155 131.195 138.455 131.375 138.828 131.495C139.215 131.615 139.648 131.675 140.128 131.675C140.595 131.675 141.001 131.608 141.348 131.475C141.695 131.355 141.961 131.182 142.148 130.955C142.348 130.728 142.448 130.455 142.448 130.135C142.448 129.735 142.308 129.408 142.028 129.155C141.748 128.915 141.195 128.768 140.368 128.715C139.661 128.662 139.041 128.588 138.508 128.495C137.975 128.388 137.515 128.268 137.128 128.135C136.755 128.002 136.435 127.855 136.168 127.695C135.901 127.522 135.681 127.348 135.508 127.175V126.715L137.608 124.515L139.388 125.095L137.028 127.395L137.648 126.235C137.781 126.328 137.915 126.415 138.048 126.495C138.195 126.575 138.375 126.648 138.588 126.715C138.815 126.768 139.108 126.822 139.468 126.875C139.828 126.928 140.295 126.982 140.868 127.035C141.761 127.102 142.488 127.262 143.048 127.515C143.608 127.768 144.021 128.108 144.288 128.535C144.555 128.962 144.688 129.475 144.688 130.075C144.688 130.662 144.521 131.215 144.188 131.735C143.868 132.255 143.375 132.682 142.708 133.015C142.041 133.348 141.188 133.515 140.148 133.515ZM140.148 125.855C139.308 125.855 138.581 125.695 137.968 125.375C137.368 125.042 136.908 124.602 136.588 124.055C136.268 123.495 136.108 122.882 136.108 122.215C136.108 121.535 136.268 120.922 136.588 120.375C136.908 119.828 137.368 119.388 137.968 119.055C138.581 118.722 139.308 118.555 140.148 118.555C140.988 118.555 141.708 118.722 142.308 119.055C142.908 119.388 143.368 119.828 143.688 120.375C144.008 120.922 144.168 121.535 144.168 122.215C144.168 122.882 144.008 123.495 143.688 124.055C143.368 124.602 142.908 125.042 142.308 125.375C141.708 125.695 140.988 125.855 140.148 125.855ZM140.148 123.995C140.721 123.995 141.181 123.842 141.528 123.535C141.875 123.228 142.048 122.788 142.048 122.215C142.048 121.642 141.875 121.208 141.528 120.915C141.181 120.608 140.721 120.455 140.148 120.455C139.575 120.455 139.108 120.608 138.748 120.915C138.388 121.208 138.208 121.642 138.208 122.215C138.208 122.788 138.388 123.228 138.748 123.535C139.108 123.842 139.575 123.995 140.148 123.995ZM141.808 120.555L141.348 118.795H145.488V120.295L141.808 120.555Z" fill="#15297C"/>
<path d="M52.9098 45.6484C61.3164 50.6751 65.5198 57.9984 65.5198 67.6184C65.5198 76.0251 62.5731 82.6551 56.6798 87.5084C50.8731 92.3618 42.9431 94.7884 32.8898 94.7884C22.7498 94.7884 14.7764 92.3618 8.96977 87.5084C3.1631 82.6551 0.259766 76.0251 0.259766 67.6184C0.259766 57.9984 4.41977 50.6751 12.7398 45.6484C6.4131 41.0551 3.24977 34.7718 3.24977 26.7984C3.24977 18.3918 6.06643 11.8484 11.6998 7.16844C17.4198 2.48844 24.4831 0.148438 32.8898 0.148438C41.2964 0.148438 48.3164 2.48844 53.9498 7.16844C59.5831 11.8484 62.3998 18.3918 62.3998 26.7984C62.3998 34.8584 59.2364 41.1418 52.9098 45.6484ZM41.3398 19.9084C39.1731 18.0018 36.3564 17.0484 32.8898 17.0484C29.4231 17.0484 26.6064 18.0018 24.4398 19.9084C22.2731 21.8151 21.1898 24.4151 21.1898 27.7084C21.1898 31.0018 22.2731 33.6451 24.4398 35.6384C26.6064 37.5451 29.4231 38.4984 32.8898 38.4984C36.3564 38.4984 39.1731 37.5451 41.3398 35.6384C43.5064 33.6451 44.5898 31.0018 44.5898 27.7084C44.5898 24.4151 43.5064 21.8151 41.3398 19.9084ZM22.0998 74.6384C24.8731 76.8051 28.4698 77.8884 32.8898 77.8884C37.3098 77.8884 40.8631 76.8051 43.5498 74.6384C46.3231 72.3851 47.7098 69.2651 47.7098 65.2784C47.7098 61.3784 46.3231 58.3451 43.5498 56.1784C40.8631 53.9251 37.3098 52.7984 32.8898 52.7984C28.4698 52.7984 24.8731 53.9251 22.0998 56.1784C19.4131 58.3451 18.0698 61.3784 18.0698 65.2784C18.0698 69.2651 19.4131 72.3851 22.0998 74.6384Z" fill="#4E6DEC"/>
<path d="M85.3251 81.9184C91.8251 90.4984 100.752 94.7884 112.105 94.7884C123.545 94.7884 132.472 90.4984 138.885 81.9184C142.686 76.7817 145.361 70.6555 146.909 63.5398H128.61C127.889 65.8123 126.98 67.8218 125.885 69.5684C122.765 74.6818 118.172 77.2384 112.105 77.2384C106.038 77.2384 101.445 74.7251 98.3251 69.6984C95.2051 64.5851 93.6451 57.1751 93.6451 47.4684C93.6451 37.7618 95.2051 30.3518 98.3251 25.2384C101.445 20.1251 106.038 17.5684 112.105 17.5684C118.172 17.5684 122.765 20.1251 125.885 25.2384C127.898 28.4475 129.279 32.5612 130.028 37.5794H147.941C146.763 27.7936 143.745 19.6499 138.885 13.1484C132.472 4.48177 123.545 0.148438 112.105 0.148438C100.752 0.148438 91.8251 4.48177 85.3251 13.1484C78.9117 21.7284 75.7051 33.1684 75.7051 47.4684C75.7051 61.7684 78.9117 73.2518 85.3251 81.9184Z" fill="#4E6DEC"/>
<path d="M115.921 48.328C115.281 48.9546 114.481 49.268 113.521 49.268C112.561 49.268 111.754 48.948 111.101 48.308C110.461 47.668 110.141 46.888 110.141 45.968C110.141 45.048 110.461 44.268 111.101 43.628C111.754 42.988 112.561 42.668 113.521 42.668C114.481 42.668 115.281 42.988 115.921 43.628C116.561 44.2546 116.881 45.0346 116.881 45.968C116.881 46.9013 116.561 47.688 115.921 48.328ZM111.561 54.828L120.681 44.688L121.901 45.368L112.761 55.528L111.561 54.828ZM112.601 46.888C112.841 47.128 113.141 47.248 113.501 47.248C113.861 47.248 114.161 47.128 114.401 46.888C114.641 46.6346 114.761 46.328 114.761 45.968C114.761 45.608 114.641 45.308 114.401 45.068C114.161 44.828 113.861 44.708 113.501 44.708C113.141 44.708 112.841 44.828 112.601 45.068C112.374 45.308 112.261 45.608 112.261 45.968C112.261 46.328 112.374 46.6346 112.601 46.888ZM122.681 56.228C122.041 56.868 121.241 57.188 120.281 57.188C119.321 57.188 118.521 56.868 117.881 56.228C117.241 55.588 116.921 54.808 116.921 53.888C116.921 52.968 117.241 52.188 117.881 51.548C118.521 50.908 119.321 50.588 120.281 50.588C121.241 50.588 122.041 50.908 122.681 51.548C123.321 52.188 123.641 52.968 123.641 53.888C123.641 54.808 123.321 55.588 122.681 56.228ZM119.381 54.808C119.621 55.048 119.921 55.168 120.281 55.168C120.641 55.168 120.934 55.0413 121.161 54.788C121.401 54.5346 121.521 54.2346 121.521 53.888C121.521 53.528 121.401 53.228 121.161 52.988C120.934 52.7346 120.641 52.608 120.281 52.608C119.921 52.608 119.621 52.7346 119.381 52.988C119.154 53.228 119.041 53.528 119.041 53.888C119.041 54.248 119.154 54.5546 119.381 54.808Z" fill="#15297C"/>
<path d="M143.014 55.128C141.6 56.528 139.88 57.228 137.854 57.228C135.827 57.228 134.107 56.528 132.694 55.128C131.294 53.7146 130.594 51.988 130.594 49.948C130.594 47.908 131.294 46.188 132.694 44.788C134.107 43.3746 135.827 42.668 137.854 42.668C139.88 42.668 141.6 43.3746 143.014 44.788C144.427 46.188 145.134 47.908 145.134 49.948C145.134 51.988 144.427 53.7146 143.014 55.128ZM134.634 53.248C135.5 54.1013 136.574 54.528 137.854 54.528C139.134 54.528 140.207 54.1013 141.074 53.248C141.94 52.3813 142.374 51.2813 142.374 49.948C142.374 48.6146 141.94 47.5146 141.074 46.648C140.207 45.7813 139.134 45.348 137.854 45.348C136.574 45.348 135.5 45.7813 134.634 46.648C133.767 47.5146 133.334 48.6146 133.334 49.948C133.334 51.2813 133.767 52.3813 134.634 53.248Z" fill="#15297C"/>
<path d="M155.633 45.588H150.033V48.908H155.473V51.548H150.033V56.948H147.273V42.948H155.633V45.588Z" fill="#15297C"/>
<path d="M166.205 45.588H160.605V48.908H166.045V51.548H160.605V56.948H157.845V42.948H166.205V45.588Z" fill="#15297C"/>
</svg>
