<svg width="209" height="34" viewBox="0 0 209 34" fill="none" xmlns="http://www.w3.org/2000/svg">
<path d="M11.1184 19.9945C9.31836 19.9945 8.41836 20.8945 8.41836 22.6945V24.4945C8.41836 25.1845 8.61336 25.7395 9.00336 26.1595C9.42336 26.5495 9.97836 26.7445 10.6684 26.7445H17.4184C18.1084 26.7445 18.6484 26.5495 19.0384 26.1595C19.4584 25.7395 19.6684 25.1845 19.6684 24.4945V22.6945C19.6684 20.8945 18.7684 19.9945 16.9684 19.9945H11.1184ZM12.0184 6.94453C10.2184 6.94453 9.31836 7.84453 9.31836 9.64453V10.9945C9.31836 12.7945 10.2184 13.6945 12.0184 13.6945H16.0684C17.8684 13.6945 18.7684 12.7945 18.7684 10.9945V9.64453C18.7684 7.84453 17.8684 6.94453 16.0684 6.94453H12.0184ZM27.7684 24.4945C27.7684 27.4345 27.0784 29.5945 25.6984 30.9745C24.3184 32.3545 22.1584 33.0445 19.2184 33.0445H8.86836C5.92836 33.0445 3.76836 32.3545 2.38836 30.9745C1.00836 29.5945 0.318359 27.4345 0.318359 24.4945V24.0445C0.318359 21.7645 0.888359 19.8745 2.02836 18.3745C2.92836 17.1745 4.15836 16.3645 5.71836 15.9445C4.36836 15.4945 3.27336 14.7145 2.43336 13.6045C1.62336 12.4645 1.21836 10.9945 1.21836 9.19453V8.74453C1.21836 6.01453 1.90836 3.98953 3.28836 2.66953C4.66836 1.31953 6.82836 0.644531 9.76836 0.644531H18.3184C21.2584 0.644531 23.4184 1.31953 24.7984 2.66953C26.1784 3.98953 26.8684 6.01453 26.8684 8.74453V9.19453C26.8684 10.9945 26.4484 12.4645 25.6084 13.6045C24.7984 14.7145 23.7184 15.4945 22.3684 15.9445C24.7984 16.6045 26.4484 18.2245 27.3184 20.8045C27.6184 21.7345 27.7684 22.8145 27.7684 24.0445V24.4945Z" fill="#293C8B"/>
<path d="M50.7148 9.64453C50.7148 7.84453 49.8148 6.94453 48.0148 6.94453H43.0648C41.2648 6.94453 40.3648 7.84453 40.3648 9.64453V24.0445C40.3648 25.8445 41.2648 26.7445 43.0648 26.7445H48.0148C49.8148 26.7445 50.7148 25.8445 50.7148 24.0445V9.64453ZM58.8148 24.0445C58.8148 27.1945 58.0948 29.4895 56.6548 30.9295C55.2448 32.3395 52.9648 33.0445 49.8148 33.0445H41.2648C38.1148 33.0445 35.8198 32.3395 34.3798 30.9295C32.9698 29.4895 32.2648 27.1945 32.2648 24.0445V9.64453C32.2648 6.49453 32.9698 4.21453 34.3798 2.80453C35.8198 1.36453 38.1148 0.644531 41.2648 0.644531H49.8148C52.9648 0.644531 55.2448 1.36453 56.6548 2.80453C58.0948 4.21453 58.8148 6.49453 58.8148 9.64453V24.0445Z" fill="#293C8B"/>
<path d="M68.7113 32.5945L86.7113 1.09453H93.4613L75.9113 32.5945H68.7113ZM78.1613 11.6695C78.1613 13.4695 77.6663 14.8645 76.6763 15.8545C75.7163 16.8145 74.3363 17.2945 72.5363 17.2945H68.4863C66.6863 17.2945 65.2913 16.8145 64.3013 15.8545C63.3413 14.8645 62.8613 13.4695 62.8613 11.6695V6.26953C62.8613 4.46953 63.3413 3.08953 64.3013 2.12953C65.2913 1.13953 66.6863 0.644531 68.4863 0.644531H72.5363C74.3363 0.644531 75.7163 1.13953 76.6763 2.12953C77.6663 3.08953 78.1613 4.46953 78.1613 6.26953V11.6695ZM72.7613 6.26953C72.7613 5.21953 72.2363 4.69453 71.1863 4.69453H69.8363C68.7863 4.69453 68.2613 5.21953 68.2613 6.26953V11.6695C68.2613 12.7195 68.7863 13.2445 69.8363 13.2445H71.1863C72.2363 13.2445 72.7613 12.7195 72.7613 11.6695V6.26953ZM99.7613 27.4195C99.7613 29.2195 99.2663 30.6145 98.2763 31.6045C97.3163 32.5645 95.9363 33.0445 94.1363 33.0445H90.0863C88.2863 33.0445 86.8913 32.5645 85.9013 31.6045C84.9413 30.6145 84.4613 29.2195 84.4613 27.4195V22.0195C84.4613 20.2195 84.9413 18.8395 85.9013 17.8795C86.8913 16.8895 88.2863 16.3945 90.0863 16.3945H94.1363C95.9363 16.3945 97.3163 16.8895 98.2763 17.8795C99.2663 18.8395 99.7613 20.2195 99.7613 22.0195V27.4195ZM94.3613 22.0195C94.3613 20.9695 93.8363 20.4445 92.7863 20.4445H91.4363C90.3863 20.4445 89.8613 20.9695 89.8613 22.0195V27.4195C89.8613 28.4695 90.3863 28.9945 91.4363 28.9945H92.7863C93.8363 28.9945 94.3613 28.4695 94.3613 27.4195V22.0195Z" fill="#293C8B"/>
<path d="M139.818 9.64453C139.818 7.84453 138.918 6.94453 137.118 6.94453H129.468C127.668 6.94453 126.768 7.84453 126.768 9.64453V24.0445C126.768 25.8445 127.668 26.7445 129.468 26.7445H137.118C138.918 26.7445 139.818 25.8445 139.818 24.0445V9.64453ZM147.918 24.0445C147.918 27.1945 147.198 29.4895 145.758 30.9295C144.348 32.3395 142.068 33.0445 138.918 33.0445H127.668C124.518 33.0445 122.223 32.3395 120.783 30.9295C119.373 29.4895 118.668 27.1945 118.668 24.0445V9.64453C118.668 6.49453 119.373 4.21453 120.783 2.80453C122.223 1.36453 124.518 0.644531 127.668 0.644531H138.918C142.068 0.644531 144.348 1.36453 145.758 2.80453C147.198 4.21453 147.918 6.49453 147.918 9.64453V24.0445Z" fill="#293C8B"/>
<path d="M161.889 32.5945H153.789V1.09453H178.764V7.39453H161.889V14.8195H175.164V21.1195H161.889V32.5945Z" fill="#293C8B"/>
<path d="M191.364 32.5945H183.264V1.09453H208.239V7.39453H191.364V14.8195H204.639V21.1195H191.364V32.5945Z" fill="#293C8B"/>
</svg>
