<svg xmlns="http://www.w3.org/2000/svg" width="117" height="30" fill="none" xmlns:v="https://vecta.io/nano"><path d="M39.055 21.128a24.9 24.9 0 0 1-1.776-.064 7.91 7.91 0 0 1-1.568-.224V10.072l.752-.112.816-.096.816-.048.784-.016a10.29 10.29 0 0 1 1.872.16c.576.096 1.072.261 1.488.496.427.235.757.544.992.928s.352.859.352 1.424c0 .523-.128.971-.384 1.344-.245.373-.592.672-1.04.896.672.224 1.168.555 1.488.992s.48.992.48 1.664c0 1.141-.416 2-1.248 2.576-.832.565-2.107.848-3.824.848zm-1.36-5.12v3.376l.72.048.704.016c.416 0 .8-.027 1.152-.08.363-.053.672-.144.928-.272a1.64 1.64 0 0 0 .624-.544c.16-.224.24-.512.24-.864 0-.629-.229-1.067-.688-1.312s-1.093-.368-1.904-.368h-1.776zm0-1.584h1.424c.768 0 1.371-.107 1.808-.32.437-.224.656-.619.656-1.184 0-.533-.229-.912-.688-1.136-.448-.224-1.035-.336-1.76-.336l-.832.016-.608.048v2.912zM46.226 21V9.912h7.12v1.712h-5.104v2.736h4.544v1.68h-4.544v3.248h5.488V21h-7.504zm12.063-1.504c.725 0 1.253-.123 1.584-.368s.496-.592.496-1.04c0-.267-.059-.496-.176-.688a1.55 1.55 0 0 0-.48-.512c-.203-.16-.453-.304-.752-.432-.299-.139-.64-.272-1.024-.4l-1.12-.448c-.352-.171-.667-.379-.944-.624-.267-.245-.485-.539-.656-.88-.16-.341-.24-.752-.24-1.232 0-1.003.347-1.787 1.04-2.352.693-.576 1.637-.864 2.832-.864.693 0 1.307.08 1.84.24.544.149.971.315 1.28.496l-.624 1.632c-.363-.203-.763-.357-1.2-.464-.427-.107-.869-.16-1.328-.16-.544 0-.971.112-1.28.336-.299.224-.448.539-.448.944a1.35 1.35 0 0 0 .144.64c.107.171.251.325.432.464.192.139.411.267.656.384l.832.336c.523.192.987.389 1.392.592.416.192.763.427 1.04.704.288.267.507.587.656.96.149.363.224.805.224 1.328 0 1.003-.357 1.781-1.072 2.336-.704.544-1.739.816-3.104.816a7.71 7.71 0 0 1-1.264-.096 7.6 7.6 0 0 1-1.008-.208l-.752-.256-.512-.256.592-1.648c.288.16.677.32 1.168.48s1.083.24 1.776.24zM71.97 9.912v1.744h-3.408V21H66.53v-9.344h-3.408V9.912h8.848zm7.288 9.424l.464.032h.784c1.355 0 2.363-.341 3.024-1.024.672-.693 1.008-1.659 1.008-2.896 0-1.259-.325-2.224-.976-2.896s-1.659-1.008-3.024-1.008l-1.28.048v7.744zm7.392-3.888c0 .96-.149 1.797-.448 2.512a4.78 4.78 0 0 1-1.28 1.776c-.544.469-1.205.821-1.984 1.056-.768.224-1.621.336-2.56.336-.448 0-.955-.021-1.52-.064-.565-.032-1.104-.107-1.616-.224V10.072c.512-.117 1.056-.192 1.632-.224L80.41 9.8c.928 0 1.776.112 2.544.336.768.213 1.424.555 1.968 1.024a4.48 4.48 0 0 1 1.28 1.76c.299.704.448 1.547.448 2.528zM88.851 21V9.912h7.12v1.712h-5.104v2.736h4.544v1.68h-4.544v3.248h5.488V21h-7.504zm16.97 0l-.464-1.296-.464-1.312h-4.672l-.464 1.328-.448 1.28h-2.096l1.184-3.28 1.088-2.848 1.072-2.56 1.088-2.4h1.904l1.088 2.4 1.056 2.56 1.104 2.848 1.2 3.28h-2.176zm-3.264-8.944l-.848 2.064-.976 2.64h3.648l-.992-2.656-.832-2.048zm13.849 7.2V21h-7.008V9.912h2.016v9.344h4.992z" fill="#fff"/><path d="M.399 14.355s1.163 1.708 3.6 3.154c0 0-1.765-14.918 9.736-17.509-2.947 10.815 3.748 13.865 6.189 8.151 4.076 5.441.981 10.189.981 10.189 1.671.241 3.075-1.585 3.075-1.585a12.24 12.24 0 0 1 .02.679c0 6.627-5.372 12-12 12s-12-5.373-12-12c0-1.065.139-2.097.399-3.079z" fill="#ff6536"/><path d="M23.979 16.755s-1.404 1.826-3.075 1.585c0 0 3.094-4.747-.981-10.189-2.44 5.714-9.135 2.664-6.189-8.151a12.9 12.9 0 0 0-1.736.518v28.916c6.628 0 12-5.373 12-12 0-.228-.007-.454-.02-.679z" fill="#ff421d"/><path d="M6.739 24.171c0 2.907 2.356 5.263 5.263 5.263s5.263-2.356 5.263-5.263a5.25 5.25 0 0 0-1.748-3.917c-2.035 2.764-4.934-1.429-2.675-4.491 0 0-6.103.765-6.103 8.408z" fill="#fbbf00"/><path d="M17.261 24.171a5.25 5.25 0 0 0-1.748-3.917c-2.035 2.764-4.934-1.429-2.675-4.491 0 0-.332.042-.84.202v13.469c2.906 0 5.263-2.356 5.263-5.263z" fill="#ffa900"/></svg>