<svg width="115" height="29" viewBox="0 0 115 29" fill="none" xmlns="http://www.w3.org/2000/svg">
<path d="M31.7677 20.5V9.3H36.4237C37.2024 9.3 37.8584 9.42267 38.3917 9.668C38.925 9.91333 39.3304 10.2547 39.6077 10.692C39.885 11.1187 40.0237 11.62 40.0237 12.196C40.0237 12.7507 39.901 13.22 39.6557 13.604C39.4104 13.988 39.085 14.2867 38.6797 14.5C38.285 14.7027 37.8477 14.82 37.3677 14.852L37.6237 14.676C38.1357 14.6973 38.589 14.836 38.9837 15.092C39.389 15.348 39.7037 15.684 39.9277 16.1C40.1624 16.5053 40.2797 16.9533 40.2797 17.444C40.2797 18.0413 40.1357 18.5747 39.8477 19.044C39.5597 19.5027 39.1384 19.86 38.5837 20.116C38.0397 20.372 37.373 20.5 36.5837 20.5H31.7677ZM34.0077 18.676H36.2317C36.797 18.676 37.2344 18.548 37.5437 18.292C37.853 18.0253 38.0077 17.652 38.0077 17.172C38.0077 16.692 37.8477 16.3133 37.5277 16.036C37.2077 15.7587 36.765 15.62 36.1997 15.62H34.0077V18.676ZM34.0077 13.956H36.0557C36.5997 13.956 37.0157 13.8333 37.3037 13.588C37.5917 13.332 37.7357 12.9747 37.7357 12.516C37.7357 12.068 37.5917 11.7213 37.3037 11.476C37.0157 11.22 36.5944 11.092 36.0397 11.092H34.0077V13.956ZM42.0177 20.5V9.3H49.4257V11.108H44.2577V13.94H48.9457V15.684H44.2577V18.692H49.4257V20.5H42.0177ZM55.2651 20.692C54.4544 20.692 53.7291 20.5533 53.0891 20.276C52.4597 19.9987 51.9584 19.5933 51.5851 19.06C51.2117 18.5267 51.0197 17.8813 51.0091 17.124H53.3771C53.3877 17.444 53.4677 17.732 53.6171 17.988C53.7771 18.244 53.9957 18.4467 54.2731 18.596C54.5504 18.7453 54.8757 18.82 55.2491 18.82C55.5797 18.82 55.8624 18.7667 56.0971 18.66C56.3424 18.5533 56.5291 18.404 56.6571 18.212C56.7957 18.02 56.8651 17.7853 56.8651 17.508C56.8651 17.2093 56.7851 16.9533 56.6251 16.74C56.4757 16.5267 56.2677 16.3453 56.0011 16.196C55.7344 16.0467 55.4251 15.9133 55.0731 15.796C54.7317 15.668 54.3637 15.54 53.9691 15.412C53.0837 15.124 52.4064 14.74 51.9371 14.26C51.4784 13.78 51.2491 13.14 51.2491 12.34C51.2491 11.6573 51.4091 11.076 51.7291 10.596C52.0597 10.116 52.5131 9.748 53.0891 9.492C53.6757 9.236 54.3371 9.108 55.0731 9.108C55.8304 9.108 56.4971 9.24133 57.0731 9.508C57.6491 9.764 58.1024 10.1373 58.4331 10.628C58.7744 11.1187 58.9557 11.7 58.9771 12.372H56.5771C56.5664 12.1267 56.4971 11.9027 56.3691 11.7C56.2411 11.4867 56.0651 11.316 55.8411 11.188C55.6171 11.06 55.3504 10.996 55.0411 10.996C54.7744 10.9853 54.5291 11.028 54.3051 11.124C54.0917 11.2093 53.9211 11.3427 53.7931 11.524C53.6651 11.6947 53.6011 11.9133 53.6011 12.18C53.6011 12.4467 53.6651 12.6707 53.7931 12.852C53.9211 13.0227 54.0971 13.172 54.3211 13.3C54.5557 13.428 54.8277 13.5507 55.1371 13.668C55.4464 13.7747 55.7824 13.8867 56.1451 14.004C56.7104 14.196 57.2277 14.4253 57.6971 14.692C58.1664 14.948 58.5397 15.284 58.8171 15.7C59.1051 16.116 59.2491 16.6653 59.2491 17.348C59.2491 17.9453 59.0944 18.5 58.7851 19.012C58.4757 19.5133 58.0277 19.9187 57.4411 20.228C56.8544 20.5373 56.1291 20.692 55.2651 20.692ZM63.5944 20.5V11.108H60.3304V9.3H69.0824V11.108H65.8184V20.5H63.5944ZM74.3146 20.5V9.3H78.1226C79.4132 9.3 80.4852 9.53467 81.3386 10.004C82.1919 10.4627 82.8212 11.1133 83.2266 11.956C83.6426 12.788 83.8506 13.7693 83.8506 14.9C83.8506 16.02 83.6426 17.0013 83.2266 17.844C82.8212 18.6867 82.1919 19.3427 81.3386 19.812C80.4959 20.2707 79.4186 20.5 78.1066 20.5H74.3146ZM76.5546 18.58H77.9946C78.8906 18.58 79.5946 18.436 80.1066 18.148C80.6292 17.8493 81.0026 17.428 81.2266 16.884C81.4506 16.3293 81.5626 15.668 81.5626 14.9C81.5626 14.132 81.4506 13.476 81.2266 12.932C81.0026 12.3773 80.6292 11.9507 80.1066 11.652C79.5946 11.3533 78.8906 11.204 77.9946 11.204H76.5546V18.58ZM85.6583 20.5V9.3H93.0663V11.108H87.8983V13.94H92.5863V15.684H87.8983V18.692H93.0663V20.5H85.6583ZM94.2817 20.5L98.3617 9.3H100.906L104.986 20.5H102.618L99.6257 11.844L96.6177 20.5H94.2817ZM96.0737 17.988L96.6657 16.244H102.426L103.002 17.988H96.0737ZM106.424 20.5V9.3H108.664V18.756H113.56V20.5H106.424Z" fill="#15222E"/>
<path fill-rule="evenodd" clip-rule="evenodd" d="M9.09122 14.4714C10.027 15.0117 10.3476 16.2082 9.80732 17.144C9.26708 18.0797 8.07053 18.4003 7.13478 17.8601C6.19904 17.3198 5.87844 16.1233 6.41869 15.1875C6.95893 14.2518 8.15547 13.9312 9.09122 14.4714ZM8.40373 15.6622C8.68183 15.8228 8.7771 16.1783 8.61655 16.4564C8.45597 16.7345 8.1004 16.8298 7.82231 16.6693C7.54422 16.5087 7.44891 16.1531 7.60949 15.875C7.77003 15.5969 8.12564 15.5016 8.40373 15.6622Z" fill="#15222E"/>
<path d="M9.09385 22.2812C8.76504 22.0914 8.65238 21.6709 8.84222 21.3421L12.9593 14.211C13.1492 13.8822 13.5696 13.7696 13.8985 13.9594C14.2273 14.1493 14.3399 14.5697 14.1501 14.8986L10.033 22.0296C9.84315 22.3584 9.42269 22.4711 9.09385 22.2812Z" fill="#15222E"/>
<path fill-rule="evenodd" clip-rule="evenodd" d="M15.8647 18.3834C16.8004 18.9237 17.121 20.1202 16.5808 21.0559C16.0405 21.9917 14.844 22.3123 13.9082 21.772C12.9725 21.2318 12.6519 20.0353 13.1921 19.0995C13.7324 18.1638 14.9289 17.8432 15.8647 18.3834ZM15.1772 19.5742C15.4553 19.7348 15.5505 20.0904 15.39 20.3685C15.2294 20.6465 14.8738 20.7418 14.5957 20.5813C14.3177 20.4207 14.2223 20.0651 14.3829 19.787C14.5435 19.5089 14.8991 19.4136 15.1772 19.5742Z" fill="#15222E"/>
<path fill-rule="evenodd" clip-rule="evenodd" d="M3.30253 9.29569C3.50284 9.66341 3.7308 9.98483 3.96698 10.2528C4.4306 10.7787 4.92593 11.0987 5.30645 11.1584C5.30645 10.6841 5.34041 10.2027 5.4067 9.72004C5.95071 5.75984 8.67044 1.72123 12.6424 0.907642C13.1146 0.810909 13.6045 0.759766 14.1106 0.759766C13.9638 1.25649 13.8523 1.71671 13.7729 2.14423C13.0458 6.06149 15.0198 7.23247 17.273 8.5691C19.7216 10.0216 22.5 11.6697 22.5 17.2503C22.5 23.3254 17.5751 28.2503 11.5 28.2503C5.42485 28.2503 0.5 23.3254 0.5 17.2503C0.5 14.2592 0.65708 11.5212 1.76235 9.2548C2.0248 8.71661 2.34071 8.20504 2.72067 7.72294C2.84703 8.30955 3.05341 8.83841 3.30253 9.29569ZM8.8164 4.9884C9.77142 3.75126 10.9688 2.83485 12.3379 2.40559C12.1001 4.10902 12.3187 5.49036 12.9813 6.64936C13.8228 8.12139 15.2657 8.97714 16.4266 9.66572L16.4956 9.70664C17.7635 10.4591 18.8592 11.1117 19.6928 12.1718C20.4868 13.1816 21.125 14.682 21.125 17.2503C21.125 22.566 16.8157 26.8753 11.5 26.8753C6.18425 26.8753 1.87501 22.566 1.87501 17.2503C1.87501 14.6898 2.00381 12.5439 2.61906 10.772C2.68094 10.8548 2.74387 10.9349 2.80766 11.0121C3.38321 11.7093 4.19653 12.3762 5.09344 12.5168L6.68143 12.7658V11.1584C6.68143 9.05232 7.45864 6.74727 8.8164 4.9884Z" fill="#15222E"/>
</svg>
