<svg width="114" height="29" viewBox="0 0 114 29" fill="none" xmlns="http://www.w3.org/2000/svg">
<path d="M31.2677 20.5V9.3H35.9237C36.7024 9.3 37.3584 9.42267 37.8917 9.668C38.425 9.91333 38.8304 10.2547 39.1077 10.692C39.385 11.1187 39.5237 11.62 39.5237 12.196C39.5237 12.7507 39.401 13.22 39.1557 13.604C38.9104 13.988 38.585 14.2867 38.1797 14.5C37.785 14.7027 37.3477 14.82 36.8677 14.852L37.1237 14.676C37.6357 14.6973 38.089 14.836 38.4837 15.092C38.889 15.348 39.2037 15.684 39.4277 16.1C39.6624 16.5053 39.7797 16.9533 39.7797 17.444C39.7797 18.0413 39.6357 18.5747 39.3477 19.044C39.0597 19.5027 38.6384 19.86 38.0837 20.116C37.5397 20.372 36.873 20.5 36.0837 20.5H31.2677ZM33.5077 18.676H35.7317C36.297 18.676 36.7344 18.548 37.0437 18.292C37.353 18.0253 37.5077 17.652 37.5077 17.172C37.5077 16.692 37.3477 16.3133 37.0277 16.036C36.7077 15.7587 36.265 15.62 35.6997 15.62H33.5077V18.676ZM33.5077 13.956H35.5557C36.0997 13.956 36.5157 13.8333 36.8037 13.588C37.0917 13.332 37.2357 12.9747 37.2357 12.516C37.2357 12.068 37.0917 11.7213 36.8037 11.476C36.5157 11.22 36.0944 11.092 35.5397 11.092H33.5077V13.956ZM41.5177 20.5V9.3H48.9257V11.108H43.7577V13.94H48.4457V15.684H43.7577V18.692H48.9257V20.5H41.5177ZM54.7651 20.692C53.9544 20.692 53.2291 20.5533 52.5891 20.276C51.9597 19.9987 51.4584 19.5933 51.0851 19.06C50.7117 18.5267 50.5197 17.8813 50.5091 17.124H52.8771C52.8877 17.444 52.9677 17.732 53.1171 17.988C53.2771 18.244 53.4957 18.4467 53.7731 18.596C54.0504 18.7453 54.3757 18.82 54.7491 18.82C55.0797 18.82 55.3624 18.7667 55.5971 18.66C55.8424 18.5533 56.0291 18.404 56.1571 18.212C56.2957 18.02 56.3651 17.7853 56.3651 17.508C56.3651 17.2093 56.2851 16.9533 56.1251 16.74C55.9757 16.5267 55.7677 16.3453 55.5011 16.196C55.2344 16.0467 54.9251 15.9133 54.5731 15.796C54.2317 15.668 53.8637 15.54 53.4691 15.412C52.5837 15.124 51.9064 14.74 51.4371 14.26C50.9784 13.78 50.7491 13.14 50.7491 12.34C50.7491 11.6573 50.9091 11.076 51.2291 10.596C51.5597 10.116 52.0131 9.748 52.5891 9.492C53.1757 9.236 53.8371 9.108 54.5731 9.108C55.3304 9.108 55.9971 9.24133 56.5731 9.508C57.1491 9.764 57.6024 10.1373 57.9331 10.628C58.2744 11.1187 58.4557 11.7 58.4771 12.372H56.0771C56.0664 12.1267 55.9971 11.9027 55.8691 11.7C55.7411 11.4867 55.5651 11.316 55.3411 11.188C55.1171 11.06 54.8504 10.996 54.5411 10.996C54.2744 10.9853 54.0291 11.028 53.8051 11.124C53.5917 11.2093 53.4211 11.3427 53.2931 11.524C53.1651 11.6947 53.1011 11.9133 53.1011 12.18C53.1011 12.4467 53.1651 12.6707 53.2931 12.852C53.4211 13.0227 53.5971 13.172 53.8211 13.3C54.0557 13.428 54.3277 13.5507 54.6371 13.668C54.9464 13.7747 55.2824 13.8867 55.6451 14.004C56.2104 14.196 56.7277 14.4253 57.1971 14.692C57.6664 14.948 58.0397 15.284 58.3171 15.7C58.6051 16.116 58.7491 16.6653 58.7491 17.348C58.7491 17.9453 58.5944 18.5 58.2851 19.012C57.9757 19.5133 57.5277 19.9187 56.9411 20.228C56.3544 20.5373 55.6291 20.692 54.7651 20.692ZM63.0944 20.5V11.108H59.8304V9.3H68.5824V11.108H65.3184V20.5H63.0944ZM73.8146 20.5V9.3H77.6226C78.9132 9.3 79.9852 9.53467 80.8386 10.004C81.6919 10.4627 82.3212 11.1133 82.7266 11.956C83.1426 12.788 83.3506 13.7693 83.3506 14.9C83.3506 16.02 83.1426 17.0013 82.7266 17.844C82.3212 18.6867 81.6919 19.3427 80.8386 19.812C79.9959 20.2707 78.9186 20.5 77.6066 20.5H73.8146ZM76.0546 18.58H77.4946C78.3906 18.58 79.0946 18.436 79.6066 18.148C80.1292 17.8493 80.5026 17.428 80.7266 16.884C80.9506 16.3293 81.0626 15.668 81.0626 14.9C81.0626 14.132 80.9506 13.476 80.7266 12.932C80.5026 12.3773 80.1292 11.9507 79.6066 11.652C79.0946 11.3533 78.3906 11.204 77.4946 11.204H76.0546V18.58ZM85.1583 20.5V9.3H92.5663V11.108H87.3983V13.94H92.0863V15.684H87.3983V18.692H92.5663V20.5H85.1583ZM93.7817 20.5L97.8617 9.3H100.406L104.486 20.5H102.118L99.1257 11.844L96.1177 20.5H93.7817ZM95.5737 17.988L96.1657 16.244H101.926L102.502 17.988H95.5737ZM105.924 20.5V9.3H108.164V18.756H113.06V20.5H105.924Z" fill="#123455"/>
<path fill-rule="evenodd" clip-rule="evenodd" d="M8.59122 14.4714C9.52697 15.0117 9.84757 16.2082 9.30732 17.144C8.76708 18.0797 7.57053 18.4003 6.63478 17.8601C5.69904 17.3198 5.37844 16.1233 5.91869 15.1875C6.45893 14.2518 7.65547 13.9312 8.59122 14.4714ZM7.90373 15.6622C8.18183 15.8228 8.2771 16.1783 8.11655 16.4564C7.95597 16.7345 7.6004 16.8298 7.32231 16.6693C7.04422 16.5087 6.94891 16.1531 7.10949 15.875C7.27003 15.5969 7.62564 15.5016 7.90373 15.6622Z" fill="#123455"/>
<path d="M8.59385 22.2812C8.26504 22.0914 8.15238 21.6709 8.34222 21.3421L12.4593 14.211C12.6492 13.8822 13.0696 13.7696 13.3985 13.9594C13.7273 14.1493 13.8399 14.5697 13.6501 14.8986L9.533 22.0296C9.34315 22.3584 8.92269 22.4711 8.59385 22.2812Z" fill="#123455"/>
<path fill-rule="evenodd" clip-rule="evenodd" d="M15.3647 18.3835C16.3004 18.9238 16.621 20.1203 16.0808 21.0561C15.5405 21.9918 14.344 22.3124 13.4082 21.7722C12.4725 21.2319 12.1519 20.0354 12.6921 19.0996C13.2324 18.1639 14.4289 17.8433 15.3647 18.3835ZM14.6772 19.5743C14.9553 19.7349 15.0505 20.0905 14.89 20.3686C14.7294 20.6467 14.3738 20.7419 14.0957 20.5814C13.8177 20.4208 13.7223 20.0652 13.8829 19.7872C14.0435 19.5091 14.3991 19.4138 14.6772 19.5743Z" fill="#123455"/>
<path fill-rule="evenodd" clip-rule="evenodd" d="M2.80253 9.29569C3.00284 9.66341 3.2308 9.98483 3.46698 10.2528C3.9306 10.7787 4.42593 11.0987 4.80645 11.1584C4.80645 10.6841 4.84041 10.2027 4.9067 9.72004C5.45071 5.75984 8.17044 1.72123 12.1424 0.907642C12.6146 0.810909 13.1045 0.759766 13.6106 0.759766C13.4638 1.25649 13.3523 1.71671 13.2729 2.14423C12.5458 6.06149 14.5198 7.23247 16.773 8.5691C19.2216 10.0216 22 11.6697 22 17.2503C22 23.3254 17.0751 28.2503 11 28.2503C4.92485 28.2503 0 23.3254 0 17.2503C0 14.2592 0.15708 11.5212 1.26235 9.2548C1.5248 8.71661 1.84071 8.20504 2.22067 7.72294C2.34703 8.30955 2.55341 8.83841 2.80253 9.29569ZM8.3164 4.9884C9.27142 3.75126 10.4688 2.83485 11.8379 2.40559C11.6001 4.10902 11.8187 5.49036 12.4813 6.64936C13.3228 8.12139 14.7657 8.97714 15.9266 9.66572L15.9956 9.70664C17.2635 10.4591 18.3592 11.1117 19.1928 12.1718C19.9868 13.1816 20.625 14.682 20.625 17.2503C20.625 22.566 16.3157 26.8753 11 26.8753C5.68425 26.8753 1.37501 22.566 1.37501 17.2503C1.37501 14.6898 1.50381 12.5439 2.11906 10.772C2.18094 10.8548 2.24387 10.9349 2.30766 11.0121C2.88321 11.7093 3.69653 12.3762 4.59344 12.5168L6.18143 12.7658V11.1584C6.18143 9.05232 6.95864 6.74727 8.3164 4.9884Z" fill="#123455"/>
</svg>
