<svg width="116" height="29" fill="none" xmlns="http://www.w3.org/2000/svg"><path d="M34.185 9.078h3.555c1.521 0 2.672.214 3.453.64.782.428 1.172 1.178 1.172 2.25 0 .433-.07.824-.21 1.173a2.122 2.122 0 0 1-.595.859c-.26.224-.578.37-.953.438v.078c.38.078.724.213 1.032.406.307.187.552.463.734.828.188.36.281.838.281 1.438 0 .692-.169 1.286-.508 1.78-.338.495-.822.876-1.453 1.141-.625.26-1.37.391-2.234.391h-4.274V9.078Zm2.422 4.524h1.407c.703 0 1.19-.11 1.46-.329.271-.223.407-.552.407-.984 0-.437-.162-.75-.484-.937-.318-.193-.823-.29-1.516-.29h-1.274v2.54Zm0 1.921V18.5h1.578c.73 0 1.237-.14 1.524-.422.286-.281.43-.659.43-1.133 0-.28-.063-.528-.188-.742-.125-.213-.336-.38-.633-.5-.291-.12-.695-.18-1.21-.18h-1.5ZM51.514 20.5h-6.579V9.078h6.579v1.985h-4.157v2.507h3.868v1.985h-3.868V18.5h4.157v2Zm9.133-3.172c0 .677-.165 1.266-.493 1.766-.328.5-.807.885-1.437 1.156-.625.27-1.386.406-2.282.406-.395 0-.783-.026-1.163-.078a8.033 8.033 0 0 1-1.087-.226 6.779 6.779 0 0 1-.984-.383v-2.25c.542.24 1.104.455 1.688.648a5.504 5.504 0 0 0 1.734.29c.396 0 .714-.053.953-.157.245-.104.422-.247.531-.43.11-.182.165-.39.165-.625a1.03 1.03 0 0 0-.29-.734 3.02 3.02 0 0 0-.797-.57c-.333-.177-.71-.368-1.132-.57a13.019 13.019 0 0 1-.867-.454 5.077 5.077 0 0 1-.891-.664 3.203 3.203 0 0 1-.695-.945c-.178-.375-.266-.823-.266-1.344 0-.682.156-1.266.469-1.75.312-.484.758-.854 1.336-1.11.583-.26 1.27-.39 2.062-.39.594 0 1.159.07 1.696.211.541.135 1.106.333 1.695.594l-.782 1.883a12.931 12.931 0 0 0-1.413-.493 4.587 4.587 0 0 0-1.274-.18c-.302 0-.56.05-.773.15-.214.093-.375.228-.485.405-.11.172-.164.373-.164.602 0 .27.078.5.234.687.162.183.402.36.72.532a32 32 0 0 0 1.202.601c.584.276 1.081.565 1.493.867.416.297.737.649.96 1.055.224.401.337.901.337 1.5Zm6.476 3.172h-2.422v-9.406H61.6V9.078h8.625v2.016h-3.102V20.5Zm18.492-5.82c0 1.286-.247 2.362-.742 3.226-.49.86-1.2 1.508-2.133 1.946-.932.432-2.054.648-3.367.648h-3.234V9.078h3.586c1.198 0 2.237.214 3.117.64a4.624 4.624 0 0 1 2.047 1.884c.484.828.726 1.854.726 3.078Zm-2.515.062c0-.844-.125-1.536-.375-2.078-.245-.547-.61-.95-1.094-1.21-.48-.261-1.073-.392-1.781-.392h-1.29V18.5h1.04c1.182 0 2.06-.315 2.632-.945.579-.63.868-1.568.868-2.813ZM94.56 20.5h-6.578V9.078h6.579v1.985h-4.157v2.507h3.868v1.985h-3.868V18.5h4.157v2Zm9.383 0-.828-2.719h-4.164l-.828 2.719h-2.61l4.032-11.469h2.961l4.047 11.469h-2.61Zm-1.406-4.75-.828-2.656a27.723 27.723 0 0 0-.211-.68 62.326 62.326 0 0 0-.258-.851 20.997 20.997 0 0 1-.203-.758c-.052.213-.125.479-.219.797a74.413 74.413 0 0 1-.437 1.492l-.82 2.656h2.976Zm5.461 4.75V9.078h2.422V18.5h4.633v2h-7.055Z" fill="#fff"/><path fill-rule="evenodd" clip-rule="evenodd" d="M8.767 14.47a1.956 1.956 0 1 1-1.956 3.389 1.956 1.956 0 0 1 1.956-3.389Zm-.687 1.19a.582.582 0 1 1-.582 1.008.582.582 0 0 1 .582-1.007Z" fill="#fff"/><path d="M8.775 22.282a.687.687 0 0 1-.251-.94l4.117-7.13a.688.688 0 0 1 1.19.687L9.716 22.03a.687.687 0 0 1-.94.252Z" fill="#fff"/><path fill-rule="evenodd" clip-rule="evenodd" d="M15.544 18.383a1.956 1.956 0 1 1-1.956 3.389 1.956 1.956 0 0 1 1.956-3.389Zm-.687 1.19a.582.582 0 1 1-.582 1.008.582.582 0 0 1 .582-1.007Z" fill="#fff"/><path fill-rule="evenodd" clip-rule="evenodd" d="M2.98 9.295c.2.368.429.69.665.957.463.526.959.846 1.34.906 0-.474.033-.956.1-1.438.543-3.96 3.263-8 7.235-8.813A7.303 7.303 0 0 1 13.788.76a13.75 13.75 0 0 0-.337 1.385c-.728 3.917 1.246 5.088 3.5 6.425 2.448 1.452 5.227 3.1 5.227 8.68 0 6.076-4.925 11-11 11s-11-4.924-11-11c0-2.99.157-5.728 1.262-7.995.263-.538.578-1.05.958-1.532.127.587.333 1.116.582 1.573Zm5.514-4.307c.955-1.237 2.153-2.154 3.522-2.583-.238 1.704-.02 3.085.643 4.244.842 1.472 2.284 2.328 3.445 3.016l.07.041c1.267.753 2.363 1.405 3.197 2.465.794 1.01 1.432 2.51 1.432 5.079a9.625 9.625 0 0 1-9.625 9.625 9.625 9.625 0 0 1-9.625-9.625c0-2.56.129-4.707.744-6.479.062.083.125.163.188.24.576.698 1.39 1.365 2.286 1.505l1.588.25v-1.608c0-2.106.777-4.411 2.135-6.17Z" fill="#fff"/></svg>