<svg width="21" height="21" viewBox="0 0 21 21" fill="none" xmlns="http://www.w3.org/2000/svg">
<g clip-path="url(#clip0_1_6632)">
<path d="M10.5 0C4.97326 0 0.5 4.4725 0.5 10C0.5 11.754 0.957458 13.4671 1.82614 14.978L0.537689 18.9792C0.447815 19.2581 0.521667 19.5639 0.728882 19.7711C0.934112 19.9763 1.23914 20.0529 1.52081 19.9623L5.52197 18.6739C7.0329 19.5425 8.746 20 10.5 20C16.0267 20 20.5 15.5275 20.5 10C20.5 4.47326 16.0275 0 10.5 0ZM10.5 18.4375C8.91568 18.4375 7.37134 17.9954 6.0339 17.1591C5.84149 17.0389 5.60254 17.0064 5.38022 17.0779L2.49188 18.0081L3.42206 15.1198C3.49255 14.9007 3.4628 14.6614 3.34073 14.4661C2.50455 13.1287 2.0625 11.5843 2.0625 10C2.0625 5.34759 5.84759 1.5625 10.5 1.5625C15.1524 1.5625 18.9375 5.34759 18.9375 10C18.9375 14.6524 15.1524 18.4375 10.5 18.4375ZM11.4766 10C11.4766 10.5392 11.0394 10.9766 10.5 10.9766C9.9606 10.9766 9.52343 10.5392 9.52343 10C9.52343 9.4606 9.9606 9.02343 10.5 9.02343C11.0394 9.02343 11.4766 9.4606 11.4766 10ZM15.3828 10C15.3828 10.5392 14.9456 10.9766 14.4062 10.9766C13.8668 10.9766 13.4297 10.5392 13.4297 10C13.4297 9.4606 13.8668 9.02343 14.4062 9.02343C14.9456 9.02343 15.3828 9.4606 15.3828 10ZM7.57031 10C7.57031 10.5392 7.13315 10.9766 6.59375 10.9766C6.0545 10.9766 5.61719 10.5392 5.61719 10C5.61719 9.4606 6.0545 9.02343 6.59375 9.02343C7.13315 9.02343 7.57031 9.4606 7.57031 10Z" fill="#007FFF"/>
</g>
<defs>
<clipPath id="clip0_1_6632">
<rect width="20" height="20" fill="white" transform="translate(0.5)"/>
</clipPath>
</defs>
</svg>
