<svg width="88" height="22" viewBox="0 0 88 22" fill="none" xmlns="http://www.w3.org/2000/svg">
<path d="M8.6291 6.29888H13.9802L13.1522 9.40209C13.0384 9.81612 12.7889 10.1822 12.4419 10.4442C12.0969 10.706 11.671 10.8448 11.2344 10.8379H8.74749C8.20596 10.8306 7.6777 11.0019 7.24793 11.3242C6.80762 11.6576 6.48813 12.1202 6.33636 12.6442C6.22673 13.0293 6.21454 13.4346 6.30084 13.8253C6.38013 14.1816 6.53648 14.5172 6.75939 14.8095C6.98524 15.0991 7.27713 15.333 7.61177 15.4927C7.96485 15.6639 8.35423 15.7511 8.74828 15.7474H10.2636C10.3989 15.7452 10.5329 15.7744 10.6543 15.8328C10.7758 15.8912 10.8813 15.9771 10.9621 16.0832C11.0506 16.1858 11.1115 16.3084 11.1391 16.4399C11.1666 16.5714 11.1601 16.7075 11.12 16.8359L10.1729 20.2633H8.51545C7.42454 20.274 6.34751 20.0235 5.37822 19.5338C4.44738 19.0691 3.63316 18.4088 2.99392 17.6001C2.36012 16.7923 1.91921 15.8559 1.70351 14.8597C1.47467 13.8131 1.50334 12.7284 1.78717 11.6948L1.88188 11.3474C2.2824 9.89645 3.15991 8.61473 4.37904 7.69996C4.9769 7.25658 5.64287 6.90874 6.35214 6.66941C7.08431 6.42112 7.85418 6.29584 8.6291 6.29888Z" fill="#123455" stroke="white" stroke-width="1.5"/>
<path d="M11.3281 20.2633L15.9933 3.17247C16.1071 2.75843 16.3567 2.39234 16.7037 2.13034C17.0485 1.86877 17.4741 1.7299 17.9104 1.73665H22.8597C23.9507 1.726 25.0277 1.97644 25.997 2.46614C26.9269 2.93016 27.7396 3.5906 28.3764 4.39967C29.0132 5.20874 29.458 6.14617 29.6788 7.14411C29.9158 8.19048 29.8832 9.27804 29.5841 10.3091L29.4894 10.6564C29.2897 11.3854 28.9698 12.0777 28.5423 12.7059C27.9096 13.6374 27.0508 14.401 26.0426 14.9284C25.0345 15.4558 23.9083 15.7305 22.765 15.7281H18.4794L19.3318 12.6017C19.4503 12.1961 19.6994 11.8388 20.0421 11.5828C20.3872 11.321 20.8131 11.1822 21.2497 11.1891H22.623C23.1761 11.1897 23.7136 11.0102 24.1509 10.6789C24.5882 10.3477 24.9003 9.8835 25.038 9.35958C25.1474 8.98884 25.1583 8.59695 25.0696 8.22096C24.9894 7.86439 24.8319 7.52878 24.6079 7.23674C24.3804 6.94579 24.0892 6.70839 23.7555 6.54199C23.4059 6.3642 23.017 6.27277 22.623 6.27567H19.9711L16.5142 18.8506C16.3958 19.2562 16.1467 19.6136 15.8039 19.8696C15.4666 20.1287 15.049 20.2676 14.6201 20.2633H11.3281Z" fill="#123455" stroke="white" stroke-width="1.5"/>
<path d="M40.8527 11.1387L40.9237 10.884C40.94 10.8316 40.943 10.7762 40.9327 10.7225C40.9224 10.6688 40.899 10.6182 40.8645 10.5752C40.8287 10.5329 40.7833 10.4994 40.7319 10.4773C40.6806 10.4552 40.6246 10.4451 40.5686 10.4478H32.8735C32.5606 10.4521 32.2514 10.3805 31.9737 10.2394C31.7146 10.1095 31.4882 9.9249 31.3108 9.69904C31.1345 9.47114 31.0131 9.20727 30.9556 8.9271C30.8918 8.62831 30.8999 8.31911 30.9793 8.02392L31.4528 6.2639H41.8708C42.4889 6.2572 43.099 6.40042 43.6466 6.68075C44.1685 6.94526 44.6261 7.31647 44.9883 7.76918C45.3467 8.22441 45.5974 8.7517 45.7223 9.31307C45.8555 9.90568 45.8433 10.5207 45.6868 11.1078L43.8163 17.9164C43.6353 18.5905 43.2297 19.1865 42.6637 19.6101C42.0977 20.0337 41.4036 20.2607 40.6909 20.2553L32.9958 20.2322C32.3626 20.236 31.7371 20.0953 31.1692 19.8212C30.6013 19.5472 30.1066 19.1474 29.7244 18.6536C29.3562 18.1725 29.0978 17.6196 28.9667 17.0325C28.8248 16.4168 28.8411 15.7763 29.0141 15.1682L29.1088 14.8209C29.2183 14.3899 29.4068 13.9818 29.6652 13.6166C29.9163 13.2554 30.2239 12.935 30.5768 12.6672C30.9272 12.4028 31.319 12.1956 31.737 12.0535C32.1708 11.9055 32.6272 11.8311 33.0866 11.8335H39.5505L39.0769 13.5703C38.9579 13.9757 38.7089 14.3329 38.3666 14.5893C38.0292 14.8482 37.6116 14.9871 37.1827 14.983H34.2941C34.0252 14.983 33.8516 15.1142 33.7732 15.3767C33.7483 15.4536 33.744 15.5355 33.7605 15.6145C33.7771 15.6935 33.8141 15.7671 33.8679 15.8283C33.9184 15.8913 33.9832 15.9419 34.0572 15.9761C34.1312 16.0103 34.2123 16.0271 34.2941 16.0251H38.9585C39.1201 16.0286 39.2782 15.9798 39.4084 15.8862C39.5322 15.7962 39.6168 15.6639 39.6452 15.5156L39.6925 15.3304L40.8527 11.1387Z" fill="#123455" stroke="white" stroke-width="1.5"/>
<path d="M54.6366 6.29923C55.7339 6.28736 56.8176 6.53778 57.7935 7.02872C58.7225 7.49287 59.5353 8.15182 60.1739 8.95857C60.8095 9.771 61.2503 10.7128 61.4635 11.7144C61.6918 12.7647 61.6555 13.8536 61.3577 14.8871L60.1739 19.2408C60.101 19.5398 59.9202 19.8029 59.6648 19.9819C59.414 20.1644 59.1092 20.2619 58.7966 20.2598H56.2474C56.1108 20.2629 55.9753 20.2345 55.8521 20.1767C55.7289 20.119 55.6213 20.0336 55.5382 19.9275C55.455 19.8215 55.3986 19.6977 55.3736 19.5663C55.3486 19.4349 55.3557 19.2996 55.3942 19.1714L56.8149 13.9144C56.9248 13.5452 56.9371 13.1548 56.8504 12.7797C56.7701 12.4233 56.6129 12.0877 56.3895 11.7955C56.1615 11.5049 55.8703 11.2676 55.5371 11.1007C55.1862 10.9225 54.796 10.831 54.4006 10.8344H51.7487L49.4504 19.2447C49.3784 19.544 49.1975 19.8074 48.9414 19.9858C48.684 20.17 48.3724 20.2676 48.0535 20.2637H45.52C45.3848 20.2659 45.251 20.2367 45.1297 20.1783C45.0083 20.1199 44.903 20.034 44.8223 19.9279C44.734 19.8252 44.6733 19.7026 44.6457 19.5711C44.6181 19.4397 44.6246 19.3036 44.6645 19.1752L48.1687 6.29923H54.6366Z" fill="#123455" stroke="white" stroke-width="1.5"/>
<path d="M68.5784 10.7107C68.3895 10.8565 68.2494 11.054 68.1758 11.278L67.1104 15.2149C67.0811 15.3183 67.0767 15.4268 67.0976 15.5321C67.1184 15.6373 67.1638 15.7365 67.2303 15.8217C67.2968 15.9069 67.3826 15.9759 67.4809 16.0234C67.5792 16.0708 67.6874 16.0953 67.797 16.095H77.5994L76.8433 18.8508C76.7248 19.2564 76.4757 19.6137 76.133 19.8698C75.7957 20.1289 75.378 20.2678 74.9491 20.2634H66.0212C65.4045 20.2705 64.7953 20.1314 64.2454 19.8582C63.72 19.5989 63.2614 19.2268 62.9037 18.7697C62.5468 18.3107 62.2964 17.7813 62.1697 17.2181C62.0353 16.631 62.0557 16.02 62.2289 15.4427L63.6732 10.1857C63.8264 9.62447 64.0745 9.09221 64.4072 8.61098C65.0514 7.66698 65.9939 6.95526 67.0906 6.58464C67.6496 6.39187 68.2382 6.29397 68.8309 6.29516H75.1527C75.7708 6.2883 76.381 6.43153 76.9285 6.71201C77.4505 6.97632 77.9082 7.34756 78.2702 7.80044C78.6294 8.25666 78.8765 8.78754 78.9924 9.35205C79.1186 9.94196 79.1024 10.5525 78.945 11.1352L78.5189 12.71C78.3476 13.3844 77.9433 13.9803 77.3745 14.3967C76.8141 14.8144 76.1272 15.0372 75.4227 15.0297H68.2721L68.7457 13.316C68.849 12.9097 69.0913 12.5501 69.4323 12.297C69.7773 12.0353 70.2033 11.8964 70.6399 11.9033H73.5285C73.7968 11.9033 73.9705 11.7721 74.0494 11.5096L74.1441 11.1622C74.1655 11.0837 74.1682 11.0014 74.1522 10.9216C74.1361 10.8419 74.1017 10.7667 74.0514 10.7019C74.0012 10.6372 73.9365 10.5845 73.8623 10.5479C73.7881 10.5112 73.7063 10.4917 73.6232 10.4907H69.2192C68.9859 10.4889 68.7593 10.5667 68.5784 10.7107Z" fill="#123455" stroke="white" stroke-width="1.5"/>
<path d="M77.5781 20.2633L82.3373 2.77883C82.4104 2.47747 82.5898 2.21098 82.8439 2.02618C83.099 1.83463 83.4126 1.73266 83.7342 1.73671H86.2677C86.4066 1.73267 86.5446 1.76102 86.6702 1.8194C86.7957 1.87779 86.9053 1.96454 86.9898 2.0725C87.0782 2.17515 87.1389 2.29777 87.1665 2.42922C87.194 2.56066 87.1876 2.69676 87.1477 2.82514L83.5961 15.7243C83.4302 16.3856 83.1456 17.0129 82.7555 17.5769C82.3796 18.1212 81.9158 18.6022 81.3823 19.0012C80.8472 19.398 80.252 19.7105 79.6183 19.9275C78.9629 20.1529 78.2728 20.2665 77.5781 20.2633Z" fill="#123455" stroke="white" stroke-width="1.5"/>
</svg>
