<svg width="30" height="30" viewBox="0 0 30 30" fill="none" xmlns="http://www.w3.org/2000/svg">
<g clip-path="url(#clip0_4452_4138)">
<path d="M0.296875 5.11865H29.6971V24.8793H0.296875V5.11865Z" fill="white" stroke="white"/>
<path d="M0.539062 18.1313H29.4587V24.638H0.539062V18.1313Z" fill="#11892E"/>
<path d="M0.539062 5.35767H29.4587V11.8648H0.539062V5.35767Z" fill="#F2963B"/>
<path d="M0.539062 11.8687H29.4605V18.1343H0.539062V11.8687Z" fill="white"/>
<path d="M17.6316 14.6519C17.4405 13.2007 16.1088 12.1786 14.6576 12.3696C13.2047 12.5614 12.1836 13.8923 12.3745 15.3435C12.5655 16.7947 13.8972 17.8159 15.35 17.6257C16.8012 17.4338 17.8225 16.1032 17.6316 14.6519ZM17.3176 15.1692C17.2462 15.1617 17.1799 15.2114 17.1715 15.2829C17.1615 15.3543 17.2096 15.4198 17.2811 15.4306C17.271 15.4846 17.2577 15.5387 17.2445 15.5917L16.0324 15.1948L15.4579 15.0826C15.461 15.066 15.4646 15.0495 15.4662 15.0328L16.0471 15.0734L17.3224 15.0045C17.3227 15.0595 17.3193 15.1143 17.3176 15.1692ZM12.6901 14.8262C12.7614 14.8337 12.8262 14.783 12.8362 14.7125C12.8462 14.6411 12.7964 14.5763 12.7249 14.5639C12.7349 14.5108 12.7482 14.4568 12.7614 14.4037L13.9736 14.8006L14.5497 14.9126C14.5465 14.9284 14.5431 14.945 14.5415 14.9625L13.9585 14.9219L12.685 14.9908C12.685 14.9358 12.6866 14.881 12.6901 14.8262ZM12.7249 15.4306C12.7964 15.4198 12.8462 15.3542 12.8362 15.2829C12.8262 15.2114 12.7614 15.1616 12.6901 15.1692C12.6867 15.1143 12.685 15.0588 12.685 15.0048L13.9585 15.0737L14.5431 15.0331C14.5448 15.0414 14.5431 15.0497 14.5448 15.0588C14.5448 15.0672 14.5481 15.0745 14.5497 15.0829L13.9736 15.1951L12.7614 15.592C12.7482 15.5387 12.7365 15.4854 12.7249 15.4306ZM16.0474 14.9219L15.4646 14.9625C15.4629 14.9542 15.4646 14.9459 15.4629 14.9368C15.4629 14.9285 15.4596 14.9202 15.4579 14.9126L16.0324 14.8006L17.2445 14.4037C17.2577 14.4568 17.271 14.5108 17.2811 14.5648C17.2096 14.5764 17.1614 14.6412 17.1715 14.7125C17.1799 14.7831 17.2445 14.8337 17.316 14.8262C17.3191 14.881 17.3226 14.9366 17.3226 14.9906L16.0474 14.9219ZM17.1932 14.2336C17.2098 14.285 17.228 14.3373 17.2431 14.3905L15.9928 14.6537L15.4415 14.8437C15.4348 14.828 15.4266 14.8131 15.4201 14.7973L15.9466 14.5407L17.0144 13.8441C17.0426 13.8914 17.0676 13.9396 17.0922 13.9894C17.0277 14.0193 16.9959 14.0949 17.0238 14.1613C17.0502 14.2269 17.1267 14.2592 17.1932 14.2336ZM16.7382 13.6673C16.7813 13.7238 16.8628 13.7345 16.9192 13.6938C16.9523 13.7387 16.9806 13.7852 17.0072 13.8325L15.8698 14.4095L15.385 14.7366C15.3748 14.7233 15.3667 14.7084 15.3551 14.6959L15.7951 14.3123L16.6469 13.3626C16.685 13.4016 16.7235 13.4414 16.7598 13.4839C16.7034 13.5294 16.695 13.61 16.7382 13.6673ZM16.3347 13.2629C16.3911 13.3069 16.4726 13.2961 16.5174 13.2413C16.5591 13.277 16.599 13.3143 16.6387 13.3534L15.689 14.2052L15.3035 14.6469C15.2903 14.6361 15.2788 14.6253 15.2636 14.6162L15.5923 14.1305L16.1685 12.9931C16.2148 13.0205 16.2613 13.0505 16.3077 13.0812C16.2667 13.1393 16.2765 13.2198 16.3347 13.2629ZM15.8399 12.9773C15.9062 13.0048 15.981 12.9741 16.0108 12.9093C16.0606 12.9333 16.1103 12.959 16.157 12.9864L15.4596 14.055L15.2039 14.5797C15.1888 14.5722 15.1723 14.5672 15.1558 14.5615L15.3482 14.0078L15.609 12.76C15.6622 12.774 15.7153 12.7907 15.7684 12.809C15.742 12.8753 15.7735 12.9499 15.8399 12.9773ZM15.174 12.6851C15.1673 12.7557 15.2171 12.8204 15.2886 12.8296C15.36 12.8388 15.4247 12.7905 15.4363 12.7192C15.4914 12.73 15.5444 12.7425 15.5973 12.7566L15.2005 13.9687L15.0892 14.544C15.0708 14.5407 15.0561 14.5366 15.0377 14.5349L15.0793 13.9521L15.0098 12.6785C15.0644 12.6785 15.1208 12.6811 15.174 12.6851ZM14.7174 12.8296C14.7888 12.8205 14.8403 12.7557 14.8337 12.6851C14.8868 12.681 14.9432 12.6793 14.9965 12.6785L14.9283 13.9521L14.9681 14.5365C14.9599 14.5374 14.9516 14.5365 14.9432 14.5374C14.935 14.5382 14.925 14.5423 14.9167 14.544L14.8054 13.9687L14.4086 12.7557C14.4617 12.7425 14.5148 12.73 14.5696 12.7192C14.5813 12.7905 14.6461 12.8387 14.7174 12.8296ZM14.1662 12.9773C14.2343 12.9499 14.2642 12.8744 14.2392 12.8072C14.2907 12.7897 14.3438 12.774 14.3969 12.7599L14.6593 14.0076L14.8486 14.5598C14.8336 14.5665 14.8187 14.5739 14.8037 14.5814L14.5464 14.0551L13.8506 12.9857C13.8971 12.9591 13.9453 12.9333 13.9951 12.9093C14.025 12.9741 14.0997 13.0048 14.1662 12.9773ZM13.673 13.2629C13.7295 13.2197 13.7412 13.1384 13.6979 13.0802C13.7443 13.0494 13.7892 13.0204 13.8391 12.993L14.4135 14.1304L14.7423 14.6161C14.729 14.6252 14.714 14.6353 14.7008 14.6459L14.3172 14.2051L13.3674 13.3533C13.4089 13.3142 13.447 13.2769 13.4902 13.2412C13.5335 13.2961 13.6149 13.3069 13.673 13.2629ZM13.2695 13.6673C13.3126 13.61 13.3027 13.5295 13.2479 13.4839C13.2811 13.4424 13.3209 13.4025 13.3592 13.3626L14.211 14.3123L14.6527 14.6967C14.6428 14.7092 14.6311 14.7233 14.6212 14.7366L14.1364 14.4095L12.9989 13.8325C13.0255 13.7852 13.0554 13.7379 13.0869 13.693C13.1433 13.7345 13.2264 13.7237 13.2695 13.6673ZM12.9822 14.1612C13.0105 14.0949 12.9805 14.0193 12.9141 13.9893C12.9389 13.9403 12.9639 13.8913 12.9921 13.844L14.0597 14.5406L14.5862 14.7972C14.5795 14.8121 14.5729 14.8287 14.5679 14.8445L14.0134 14.6536L12.7647 14.3912C12.7797 14.3372 12.7963 14.2858 12.8128 14.2335C12.8793 14.2592 12.9557 14.2269 12.9822 14.1612ZM12.8129 15.7619C12.7964 15.7104 12.7798 15.6573 12.7648 15.6042L14.0135 15.3411L14.5664 15.1517C14.5714 15.1674 14.5797 15.1825 14.5863 15.1974L14.0598 15.4549L12.9922 16.1513C12.9639 16.1041 12.939 16.056 12.9142 16.006C12.9806 15.977 13.0105 15.9006 12.9823 15.8343C12.9557 15.7677 12.8793 15.7353 12.8129 15.7619ZM13.2695 16.3282C13.2264 16.2717 13.1433 16.2609 13.0868 16.3025C13.0552 16.2566 13.0254 16.2103 12.9988 16.163L14.1362 15.586L14.6211 15.258C14.631 15.2722 14.641 15.2862 14.6526 15.2996L14.2109 15.6831L13.3591 16.632C13.3209 16.5931 13.2827 16.5533 13.2478 16.5116C13.3028 16.4659 13.3127 16.3854 13.2695 16.3282ZM13.673 16.7324C13.6149 16.6883 13.5336 16.6992 13.4903 16.754C13.4487 16.7183 13.4089 16.681 13.3675 16.6419L14.3173 15.7901L14.7026 15.3475C14.7158 15.3591 14.7291 15.3699 14.7424 15.3782L14.4136 15.8639L13.8392 17.002C13.791 16.9746 13.7444 16.9448 13.698 16.914C13.7411 16.8568 13.7295 16.7756 13.673 16.7324ZM14.1662 17.0171C14.0997 16.9905 14.025 17.0203 13.9952 17.0859C13.9453 17.0617 13.8972 17.0352 13.8507 17.0087L14.5465 15.9402L14.8039 15.4146C14.8188 15.4221 14.8354 15.4278 14.8503 15.4329L14.6593 15.9874L14.3969 17.2352C14.3438 17.2211 14.2924 17.2053 14.2392 17.187C14.2642 17.12 14.2326 17.0453 14.1662 17.0171ZM14.8337 17.3102C14.8404 17.2396 14.7888 17.1751 14.7174 17.1658C14.6461 17.1558 14.5813 17.2057 14.5696 17.2754C14.5147 17.2655 14.4616 17.253 14.4086 17.2389L14.8054 16.0268L14.9167 15.4515C14.935 15.4546 14.9516 15.4588 14.9681 15.4606L14.9283 16.0425L14.9965 17.317C14.9415 17.3169 14.8868 17.3152 14.8337 17.3102ZM15.2886 17.1658C15.2171 17.175 15.1673 17.2388 15.174 17.3102C15.1191 17.3135 15.0644 17.3162 15.0096 17.3162L15.0792 16.0425L15.0375 15.4581C15.0458 15.4573 15.0561 15.459 15.0624 15.4573C15.0705 15.4564 15.0807 15.4531 15.089 15.4515L15.2003 16.0268L15.5971 17.2389C15.544 17.253 15.4908 17.2655 15.4361 17.2754C15.4248 17.2057 15.36 17.1558 15.2886 17.1658ZM15.8399 17.0171C15.7734 17.0453 15.7419 17.12 15.7684 17.1871C15.7153 17.2053 15.6622 17.2211 15.609 17.2353L15.3482 15.9875L15.1573 15.4355C15.1723 15.4288 15.187 15.4214 15.2037 15.4131L15.4594 15.9402L16.1567 17.0087C16.1104 17.0361 16.0604 17.0618 16.0106 17.0859C15.981 17.0206 15.9062 16.9905 15.8399 17.0171ZM16.3347 16.7324C16.2765 16.7756 16.2666 16.8568 16.3081 16.9151C16.2617 16.945 16.2169 16.9748 16.1687 17.0023L15.5927 15.8641L15.2642 15.3784C15.2793 15.3701 15.2939 15.3602 15.3058 15.3495L15.6894 15.7903L16.6391 16.6421C16.5993 16.6811 16.5594 16.7185 16.5179 16.7542C16.4724 16.6991 16.3911 16.6883 16.3347 16.7324ZM16.7382 16.3282C16.695 16.3854 16.7051 16.466 16.7598 16.5109C16.725 16.5532 16.685 16.5931 16.6469 16.6321L15.7951 15.6832L15.3533 15.2988C15.3634 15.2856 15.3748 15.2723 15.385 15.2581L15.8698 15.5861L17.0072 16.1622C16.9806 16.2104 16.9507 16.2569 16.9192 16.3026C16.8611 16.2608 16.7813 16.2716 16.7382 16.3282ZM17.0237 15.8343C16.9953 15.9006 17.027 15.9762 17.0919 16.0061C17.067 16.055 17.0419 16.1032 17.0139 16.1513L15.9462 15.4549L15.4215 15.1983C15.4282 15.1834 15.4331 15.1668 15.4398 15.1511L15.9928 15.3412L17.2417 15.6043C17.2283 15.6574 17.2099 15.7106 17.1935 15.7611C17.1267 15.7361 17.0502 15.7685 17.0237 15.8343Z" fill="#21296F"/>
</g>
<defs>
<clipPath id="clip0_4452_4138">
<rect width="30" height="30" fill="white"/>
</clipPath>
</defs>
</svg>
