<svg width="36" height="36" viewBox="0 0 36 36" fill="none" xmlns="http://www.w3.org/2000/svg">
<path d="M35.4202 6.38867H0.585938V29.6118H35.4202V6.38867Z" fill="#F0F0F0"/>
<path d="M35.4202 9.29199H0.585938V12.1946H35.4202V9.29199Z" fill="#D80027"/>
<path d="M35.4202 15.0977H0.585938V18.0003H35.4202V15.0977Z" fill="#D80027"/>
<path d="M35.4202 20.9033H0.585938V23.8059H35.4202V20.9033Z" fill="#D80027"/>
<path d="M35.4202 26.709H0.585938V29.6116H35.4202V26.709Z" fill="#D80027"/>
<path d="M18.0031 6.38867H0.585938V18.8934H18.0031V6.38867Z" fill="#2E52B2"/>
<path d="M7.37924 11.5088L7.09873 12.3718H6.19141L6.92558 12.9048L6.64507 13.7677L7.37924 13.2347L8.11294 13.7677L7.8325 12.9048L8.56667 12.3718H7.65928L7.37924 11.5088Z" fill="#F0F0F0"/>
<path d="M7.65928 15.4889L7.37924 14.626L7.09873 15.4889H6.19141L6.92558 16.022L6.64507 16.8849L7.37924 16.3518L8.11294 16.8849L7.8325 16.022L8.56667 15.4889H7.65928Z" fill="#F0F0F0"/>
<path d="M3.8195 15.4889L3.5394 14.626L3.25889 15.4889H2.35156L3.08574 16.022L2.80522 16.8849L3.5394 16.3518L4.27316 16.8849L3.99272 16.022L4.72676 15.4889H3.8195Z" fill="#F0F0F0"/>
<path d="M3.5394 11.5088L3.25889 12.3718H2.35156L3.08574 12.9048L2.80522 13.7677L3.5394 13.2347L4.27316 13.7677L3.99272 12.9048L4.72676 12.3718H3.8195L3.5394 11.5088Z" fill="#F0F0F0"/>
<path d="M7.37924 8.39551L7.09873 9.25854H6.19141L6.92558 9.79167L6.64507 10.6546L7.37924 10.1214L8.11294 10.6546L7.8325 9.79167L8.56667 9.25854H7.65928L7.37924 8.39551Z" fill="#F0F0F0"/>
<path d="M3.5394 8.39551L3.25889 9.25854H2.35156L3.08574 9.79167L2.80522 10.6546L3.5394 10.1214L4.27316 10.6546L3.99272 9.79167L4.72676 9.25854H3.8195L3.5394 8.39551Z" fill="#F0F0F0"/>
<path d="M11.2151 11.5088L10.9347 12.3718H10.0273L10.7614 12.9048L10.4811 13.7677L11.2151 13.2347L11.9489 13.7677L11.6684 12.9048L12.4026 12.3718H11.4953L11.2151 11.5088Z" fill="#F0F0F0"/>
<path d="M11.4953 15.4889L11.2151 14.626L10.9347 15.4889H10.0273L10.7614 16.022L10.4811 16.8849L11.2151 16.3518L11.9489 16.8849L11.6684 16.022L12.4026 15.4889H11.4953Z" fill="#F0F0F0"/>
<path d="M15.3194 15.4889L15.0393 14.626L14.7588 15.4889H13.8516L14.5856 16.022L14.3052 16.8849L15.0393 16.3518L15.7731 16.8849L15.4926 16.022L16.2268 15.4889H15.3194Z" fill="#F0F0F0"/>
<path d="M15.0393 11.5088L14.7588 12.3718H13.8516L14.5856 12.9048L14.3052 13.7677L15.0393 13.2347L15.7731 13.7677L15.4926 12.9048L16.2268 12.3718H15.3194L15.0393 11.5088Z" fill="#F0F0F0"/>
<path d="M11.2151 8.39551L10.9347 9.25854H10.0273L10.7614 9.79167L10.4811 10.6546L11.2151 10.1214L11.9489 10.6546L11.6684 9.79167L12.4026 9.25854H11.4953L11.2151 8.39551Z" fill="#F0F0F0"/>
<path d="M15.0393 8.39551L14.7588 9.25854H13.8516L14.5856 9.79167L14.3052 10.6546L15.0393 10.1214L15.7731 10.6546L15.4926 9.79167L16.2268 9.25854H15.3194L15.0393 8.39551Z" fill="#F0F0F0"/>
</svg>
