<svg width="46" height="31" viewBox="0 0 46 31" fill="none" xmlns="http://www.w3.org/2000/svg">
<path d="M0.640625 0.751953H45.6406V30.752H0.640625V0.751953Z" fill="#D6D4D1"/>
<path d="M1.01562 20.5044H45.28V30.3825H1.01562V20.5044Z" fill="#11892E"/>
<path d="M1.01562 1.11133H45.28V10.9903H1.01562V1.11133Z" fill="#F2963B"/>
<path d="M1.01562 10.9927H45.2828V20.505H1.01562V10.9927Z" fill="white"/>
<path d="M27.1831 15.2248C26.8907 13.0216 24.8524 11.4699 22.6312 11.76C20.4074 12.0511 18.8445 14.0716 19.1367 16.2748C19.4291 18.4779 21.4673 20.0283 23.6909 19.7396C25.9121 19.4483 27.4754 17.4281 27.1831 15.2248ZM26.7027 16.0101C26.5933 15.9987 26.4917 16.0742 26.4789 16.1827C26.4637 16.2912 26.5373 16.3906 26.6468 16.407C26.6312 16.489 26.611 16.5711 26.5907 16.6516L24.7354 16.049L23.8561 15.8787C23.8608 15.8535 23.8663 15.8284 23.8688 15.803L24.7579 15.8647L26.7099 15.7601C26.7104 15.8437 26.7052 15.9267 26.7027 16.0101ZM19.6198 15.4894C19.7289 15.5008 19.8281 15.4238 19.8433 15.3168C19.8587 15.2084 19.7824 15.11 19.673 15.0912C19.6883 15.0106 19.7087 14.9286 19.7289 14.848L21.5842 15.4505L22.4661 15.6207C22.4611 15.6446 22.4559 15.6698 22.4535 15.6963L21.5612 15.6346L19.612 15.7392C19.612 15.6558 19.6144 15.5726 19.6198 15.4894ZM19.673 16.407C19.7824 16.3906 19.8587 16.291 19.8433 16.1827C19.8281 16.0742 19.7289 15.9986 19.6198 16.0101C19.6146 15.9267 19.612 15.8426 19.612 15.7606L21.5612 15.8652L22.4559 15.8035C22.4585 15.8162 22.4559 15.8287 22.4585 15.8426C22.4585 15.8552 22.4635 15.8663 22.4661 15.8792L21.5842 16.0495L19.7289 16.652C19.7087 16.5711 19.6907 16.4902 19.673 16.407ZM24.7584 15.6346L23.8663 15.6963C23.8638 15.6838 23.8664 15.6711 23.8638 15.6573C23.8638 15.6448 23.8587 15.6321 23.8561 15.6207L24.7354 15.4505L26.5907 14.848C26.611 14.9286 26.6312 15.0106 26.6468 15.0925C26.5373 15.1102 26.4636 15.2085 26.4789 15.3168C26.4917 15.424 26.5907 15.5008 26.7001 15.4894C26.7049 15.5726 26.7103 15.657 26.7103 15.7391L24.7584 15.6346ZM26.5122 14.5898C26.5376 14.6679 26.5654 14.7472 26.5886 14.8279L24.6748 15.2275L23.831 15.5161C23.8208 15.4921 23.8082 15.4695 23.7983 15.4455L24.6041 15.056L26.2385 13.9985C26.2816 14.0703 26.3199 14.1434 26.3576 14.2191C26.2588 14.2644 26.2102 14.3791 26.253 14.48C26.2933 14.5796 26.4104 14.6287 26.5122 14.5898ZM25.8158 13.73C25.8817 13.8158 26.0064 13.832 26.0928 13.7703C26.1435 13.8385 26.1867 13.909 26.2275 13.9808L24.4866 14.8568L23.7445 15.3535C23.729 15.3332 23.7165 15.3106 23.6989 15.2916L24.3722 14.7093L25.676 13.2674C25.7343 13.3267 25.7932 13.3871 25.8488 13.4515C25.7625 13.5206 25.7497 13.6431 25.8158 13.73ZM25.1981 13.1161C25.2844 13.1829 25.4092 13.1665 25.4778 13.0833C25.5417 13.1374 25.6027 13.1941 25.6635 13.2534L24.2098 14.5467L23.6198 15.2172C23.5995 15.2008 23.5821 15.1844 23.5587 15.1706L24.0619 14.4333L24.9438 12.7065C25.0147 12.7481 25.0858 12.7936 25.1568 12.8402C25.0941 12.9284 25.1091 13.0507 25.1981 13.1161ZM24.4408 12.6826C24.5423 12.7242 24.6567 12.6776 24.7024 12.5792C24.7787 12.6157 24.8547 12.6548 24.9261 12.6964L23.8587 14.3185L23.4674 15.1152C23.4442 15.1038 23.4189 15.0962 23.3937 15.0875L23.6882 14.2469L24.0875 12.3525C24.1688 12.3739 24.2501 12.3991 24.3314 12.4269C24.2909 12.5277 24.3392 12.6409 24.4408 12.6826ZM23.4215 12.2389C23.4113 12.3461 23.4876 12.4443 23.597 12.4583C23.7063 12.4722 23.8053 12.399 23.8231 12.2907C23.9073 12.3071 23.9885 12.326 24.0695 12.3474L23.4622 14.1876L23.2918 15.061C23.2636 15.056 23.2411 15.0498 23.213 15.0472L23.2767 14.1624L23.1703 12.2288C23.2539 12.2288 23.3402 12.2328 23.4215 12.2389ZM22.7227 12.4583C22.832 12.4444 22.9108 12.3461 22.9007 12.2389C22.982 12.2327 23.0684 12.2301 23.1499 12.2288L23.0455 14.1624L23.1065 15.0496C23.0938 15.0509 23.0812 15.0496 23.0684 15.0509C23.0557 15.0522 23.0405 15.0585 23.0277 15.061L22.8575 14.1876L22.25 12.3461C22.3313 12.326 22.4126 12.3071 22.4966 12.2907C22.5144 12.399 22.6135 12.4721 22.7227 12.4583ZM21.879 12.6826C21.9832 12.6409 22.029 12.5262 21.9908 12.4242C22.0695 12.3977 22.1509 12.3739 22.2322 12.3524L22.6338 14.2467L22.9236 15.085C22.9006 15.0951 22.8777 15.1063 22.8549 15.1177L22.4609 14.3187L21.396 12.6952C21.4671 12.6549 21.541 12.6157 21.6171 12.5792C21.6629 12.6776 21.7773 12.7242 21.879 12.6826ZM21.1242 13.1161C21.2107 13.0505 21.2285 12.9271 21.1622 12.8387C21.2333 12.792 21.302 12.7479 21.3783 12.7063L22.2576 14.4331L22.7608 15.1704C22.7405 15.1843 22.7175 15.1995 22.6973 15.2158L22.1102 14.5465L20.6563 13.2533C20.72 13.194 20.7783 13.1373 20.8444 13.0831C20.9107 13.1665 21.0352 13.1829 21.1242 13.1161ZM20.5065 13.73C20.5726 13.6431 20.5574 13.5208 20.4734 13.4515C20.5243 13.3886 20.5852 13.328 20.6439 13.2674L21.9476 14.7093L22.6237 15.2929C22.6085 15.3118 22.5907 15.3332 22.5754 15.3535L21.8334 14.8568L20.0924 13.9808C20.1331 13.909 20.1788 13.8372 20.2271 13.769C20.3134 13.832 20.4406 13.8156 20.5065 13.73ZM20.0668 14.4799C20.1101 14.3791 20.0643 14.2644 19.9625 14.2189C20.0006 14.1445 20.0388 14.0701 20.0819 13.9983L21.7161 15.0559L22.5218 15.4454C22.5116 15.468 22.5016 15.4932 22.494 15.5172L21.6451 15.2273L19.734 14.829C19.7568 14.7471 19.7822 14.669 19.8075 14.5896C19.9094 14.6287 20.0262 14.5796 20.0668 14.4799ZM19.8077 16.9099C19.7824 16.8318 19.757 16.7512 19.7341 16.6705L21.6453 16.2711L22.4915 15.9836C22.4993 16.0074 22.5119 16.0304 22.522 16.053L21.7162 16.444L20.0821 17.5012C20.0388 17.4295 20.0008 17.3564 19.9627 17.2806C20.0644 17.2366 20.1101 17.1206 20.067 17.0198C20.0262 16.9188 19.9094 16.8696 19.8077 16.9099ZM20.5065 17.7697C20.4406 17.6839 20.3134 17.6675 20.2269 17.7306C20.1786 17.6611 20.1329 17.5907 20.0923 17.5189L21.8332 16.6429L22.5753 16.1449C22.5905 16.1665 22.6057 16.1878 22.6236 16.2081L21.9474 16.7904L20.6437 18.231C20.5852 18.1719 20.5267 18.1114 20.4733 18.0481C20.5575 17.9787 20.5727 17.8566 20.5065 17.7697ZM21.1242 18.3833C21.0352 18.3165 20.9108 18.333 20.8446 18.4161C20.7809 18.3619 20.72 18.3054 20.6565 18.2459L22.1104 16.9528L22.7 16.2809C22.7203 16.2984 22.7407 16.3148 22.7609 16.3275L22.2578 17.0648L21.3785 18.7927C21.3048 18.7511 21.2335 18.7058 21.1624 18.659C21.2283 18.5723 21.2107 18.4489 21.1242 18.3833ZM21.879 18.8155C21.7773 18.7752 21.6629 18.8205 21.6173 18.92C21.541 18.8833 21.4673 18.843 21.3961 18.8028L22.4611 17.1807L22.855 16.3827C22.8779 16.3942 22.9033 16.4028 22.9262 16.4105L22.6338 17.2523L22.2322 19.1467C22.1509 19.1253 22.0721 19.1014 21.9908 19.0736C22.029 18.9719 21.9806 18.8584 21.879 18.8155ZM22.9007 19.2606C22.9109 19.1534 22.832 19.0554 22.7227 19.0413C22.6135 19.0262 22.5144 19.1019 22.4966 19.2077C22.4125 19.1926 22.3312 19.1737 22.25 19.1523L22.8575 17.3121L23.0277 16.4387C23.0557 16.4435 23.0812 16.4497 23.1065 16.4525L23.0455 17.336L23.1499 19.2709C23.0658 19.2707 22.982 19.2682 22.9007 19.2606ZM23.597 19.0413C23.4876 19.0553 23.4113 19.1521 23.4215 19.2606C23.3376 19.2656 23.2539 19.2696 23.17 19.2696L23.2765 17.336L23.2127 16.4488C23.2254 16.4475 23.2411 16.4501 23.2508 16.4475C23.2631 16.4462 23.2788 16.4412 23.2914 16.4387L23.4619 17.3121L24.0692 19.1523C23.9878 19.1737 23.9065 19.1926 23.8228 19.2077C23.8054 19.1019 23.7063 19.0262 23.597 19.0413ZM24.4408 18.8155C24.339 18.8584 24.2908 18.9719 24.3314 19.0737C24.2501 19.1014 24.1688 19.1253 24.0875 19.1468L23.6882 17.2525L23.3961 16.4144C23.4189 16.4043 23.4414 16.393 23.467 16.3805L23.8584 17.1807L24.9258 18.8028C24.8548 18.8445 24.7784 18.8835 24.7021 18.92C24.6567 18.8208 24.5423 18.7752 24.4408 18.8155ZM25.1981 18.3833C25.1091 18.4489 25.0939 18.5723 25.1574 18.6608C25.0865 18.7061 25.0178 18.7514 24.9441 18.793L24.0625 17.0651L23.5597 16.3278C23.5827 16.3151 23.6051 16.3002 23.6234 16.2839L24.2104 16.9531L25.6641 18.2463C25.6032 18.3055 25.5421 18.3623 25.4785 18.4164C25.409 18.3329 25.2844 18.3165 25.1981 18.3833ZM25.8158 17.7697C25.7497 17.8566 25.765 17.9789 25.8488 18.047C25.7955 18.1113 25.7343 18.1719 25.676 18.2312L24.3722 16.7905L23.6961 16.207C23.7115 16.1869 23.729 16.1666 23.7445 16.1451L24.4866 16.643L26.2275 17.5178C26.1867 17.5909 26.141 17.6614 26.0928 17.7308C26.0038 17.6673 25.8817 17.6837 25.8158 17.7697ZM26.2528 17.0198C26.2092 17.1206 26.2578 17.2353 26.3571 17.2808C26.3191 17.355 26.2807 17.4281 26.2377 17.5012L24.6036 16.444L23.8004 16.0543C23.8106 16.0317 23.8182 16.0064 23.8284 15.9827L24.6748 16.2712L26.5863 16.6707C26.5659 16.7513 26.5377 16.8322 26.5126 16.9088C26.4104 16.8709 26.2933 16.92 26.2528 17.0198Z" fill="#21296F"/>
</svg>
