<svg width="36" height="36" viewBox="0 0 36 36" fill="none" xmlns="http://www.w3.org/2000/svg">
<path d="M35.4244 6.38184H0.570312V29.6181H35.4244V6.38184Z" fill="#F0F0F0"/>
<path d="M20.1757 6.38184H15.819V15.8214H0.570312V20.1782H15.819V29.6178H20.1757V20.1782H35.4244V15.8214H20.1757V6.38184Z" fill="#D80027"/>
<path d="M27.3828 22.04L35.4302 26.5109V22.04H27.3828Z" fill="#0052B4"/>
<path d="M21.7852 22.04L35.4237 29.617V27.4744L25.6419 22.04H21.7852Z" fill="#0052B4"/>
<path d="M31.7909 29.6168L21.7852 24.0576V29.6168H31.7909Z" fill="#0052B4"/>
<path d="M21.7852 22.041L35.4237 29.618V27.4754L25.6419 22.041H21.7852Z" fill="#F0F0F0"/>
<path d="M21.7852 22.041L35.4237 29.618V27.4754L25.6419 22.041H21.7852Z" fill="#D80027"/>
<path d="M6.72021 22.04L0.570312 25.4567V22.04H6.72021Z" fill="#0052B4"/>
<path d="M14.2041 23.0029V29.6164H2.30078L14.2041 23.0029Z" fill="#0052B4"/>
<path d="M10.3521 22.041L0.570312 27.4754V29.618L14.2089 22.041H10.3521Z" fill="#D80027"/>
<path d="M8.61772 13.9591L0.570312 9.48828V13.9591H8.61772Z" fill="#0052B4"/>
<path d="M14.2089 13.9588L0.570312 6.38184V8.52441L10.3521 13.9588H14.2089Z" fill="#0052B4"/>
<path d="M4.21094 6.38184L14.2166 11.9411V6.38184H4.21094Z" fill="#0052B4"/>
<path d="M14.2089 13.9588L0.570312 6.38184V8.52441L10.3521 13.9588H14.2089Z" fill="#F0F0F0"/>
<path d="M14.2089 13.9588L0.570312 6.38184V8.52441L10.3521 13.9588H14.2089Z" fill="#D80027"/>
<path d="M29.2812 13.9577L35.4312 10.541V13.9577H29.2812Z" fill="#0052B4"/>
<path d="M21.7852 12.9953V6.38184H33.6884L21.7852 12.9953Z" fill="#0052B4"/>
<path d="M25.6419 13.9588L35.4237 8.52441V6.38184L21.7852 13.9588H25.6419Z" fill="#D80027"/>
</svg>
