<svg xmlns="http://www.w3.org/2000/svg" width="25" height="17" fill="none" xmlns:v="https://vecta.io/nano"><path d="M.25.267h24.5v16.467H.25V.267z" fill="#d6d4d1"/><path d="M.456 11.108h24.1v5.422H.456v-5.422z" fill="#11892e"/><path d="M.456.464h24.1v5.423H.456V.464z" fill="#f2963b"/><path d="M.454 5.888h24.101v5.221H.454V5.888z" fill="#fff"/><path d="M14.695 8.211a2.21 2.21 0 0 0-2.478-1.902 2.21 2.21 0 0 0-1.903 2.478 2.21 2.21 0 0 0 2.48 1.902 2.21 2.21 0 0 0 1.901-2.478zm-.262.431a.11.11 0 0 0-.122.095c-.008.06.032.114.091.123l-.03.134-1.01-.331-.479-.093.007-.042.484.034 1.063-.057-.004.137zm-3.856-.286c.059.006.113-.036.122-.095s-.033-.114-.093-.124l.03-.134 1.01.331.48.093-.007.042-.486-.034-1.061.057.004-.137zm.029.504c.06-.009.101-.064.093-.123s-.062-.101-.122-.095l-.004-.137 1.061.057.487-.034c.001.007 0 .014.001.021s.003.013.004.02l-.48.093-1.01.331-.03-.134zm2.769-.424l-.486.034c-.001-.007 0-.014-.001-.021s-.003-.014-.004-.02l.479-.093 1.01-.331.03.134c-.06.01-.1.064-.091.123s.061.101.12.095l.005.137-1.063-.057zm.955-.574l.042.131-1.042.219-.459.158-.018-.039.439-.214.89-.58.065.121c-.054.025-.08.088-.057.143a.11.11 0 0 0 .141.06zm-.379-.472a.11.11 0 0 0 .151.022c.028.037.051.076.073.116l-.948.481-.404.273c-.008-.011-.015-.024-.025-.034l.367-.32.71-.791.094.101a.11.11 0 0 0-.018.153zm-.336-.337a.11.11 0 0 0 .152-.018l.101.093-.792.71-.321.368c-.011-.009-.021-.018-.033-.026l.274-.405.48-.948.116.073c-.034.048-.026.116.022.151zm-.412-.238a.11.11 0 0 0 .142-.057l.122.064-.581.89-.213.437c-.013-.006-.026-.01-.04-.015l.16-.461.217-1.04.133.041c-.022.055.004.117.059.14zm-.555-.244c-.006.059.036.113.095.12a.11.11 0 0 0 .123-.092l.134.031-.331 1.01-.093.479-.043-.008.035-.486-.058-1.061.137.006zm-.38.12c.059-.008.102-.062.097-.12l.136-.006-.057 1.061.033.487c-.007.001-.014 0-.021.001s-.015.004-.022.006l-.093-.479-.331-1.011.134-.03a.11.11 0 0 0 .123.092zm-.459.123a.11.11 0 0 0 .061-.142L12 6.634l.219 1.04.158.46-.037.018-.214-.439-.58-.891.12-.064c.025.054.087.08.143.057zm-.411.238c.047-.036.057-.104.021-.152l.118-.073.479.948.274.405-.035.025-.32-.367-.791-.71.102-.093a.11.11 0 0 0 .152.018zm-.336.337c.036-.048.028-.115-.018-.153.028-.035.061-.068.093-.101l.71.791.368.32-.026.033-.404-.273-.948-.481a1.41 1.41 0 0 1 .073-.116c.047.035.116.026.152-.021zm-.239.412c.024-.055-.001-.118-.057-.143l.065-.121.89.581.439.214a.38.38 0 0 0-.015.039l-.462-.159-1.04-.219.04-.131a.11.11 0 0 0 .141-.06zm-.141 1.334l-.04-.131 1.04-.219.461-.158c.004.013.011.026.017.038l-.439.215-.89.58-.065-.121c.055-.024.08-.088.057-.143s-.086-.082-.141-.06zm.38.472c-.036-.047-.105-.056-.152-.021l-.073-.116.948-.481.404-.273.026.035-.368.32-.71.791-.093-.1c.046-.038.054-.105.018-.153zm.336.337a.11.11 0 0 0-.152.018l-.102-.093.792-.71.321-.369c.011.01.022.019.033.026l-.274.405-.479.948-.118-.073c.036-.048.026-.115-.021-.151zm.411.237c-.055-.022-.118.003-.143.057l-.12-.064.58-.89.214-.438c.013.006.026.011.039.015l-.159.462-.219 1.04-.131-.04c.021-.056-.005-.118-.061-.142zm.556.244c.006-.059-.037-.113-.097-.12a.11.11 0 0 0-.123.091l-.134-.03.331-1.01.093-.479.043.008-.033.485.057 1.062-.136-.006zm.379-.12a.11.11 0 0 0-.095.12l-.137.005.058-1.061-.035-.487c.007-.001.015.001.021-.001s.015-.003.022-.005l.093.479.331 1.01-.134.03a.11.11 0 0 0-.123-.091zm.459-.124a.11.11 0 0 0-.059.142l-.133.04-.217-1.04-.159-.46.039-.019.213.439.581.89-.122.064c-.025-.054-.087-.079-.142-.057zm.412-.237a.11.11 0 0 0-.022.152l-.116.073-.48-.948-.274-.405c.012-.007.025-.015.035-.024l.32.367.791.71-.101.093c-.038-.046-.106-.055-.153-.018zm.336-.337c-.036.048-.028.115.018.152-.029.035-.062.069-.094.101l-.71-.791-.368-.32.026-.034.404.273.948.48c-.022.04-.047.079-.073.117-.048-.035-.115-.026-.151.021zm.238-.412c-.024.055.003.118.057.143l-.065.121-.89-.58-.437-.214.015-.039.461.158 1.041.219c-.011.044-.026.089-.04.131-.056-.021-.119.006-.141.061z" fill="#21296f"/></svg>