<svg xmlns="http://www.w3.org/2000/svg" width="93" height="17" fill="#63798f" xmlns:v="https://vecta.io/nano"><path d="M8.528 0l2.507 5.034 5.542.839-3.992 3.95.918 5.553-4.974-2.593-4.975 2.593.918-5.553L.48 5.873l5.542-.839L8.528 0zm18.807 0l2.507 5.034 5.542.839-3.992 3.95.918 5.553-4.975-2.593-4.974 2.593.918-5.553-3.992-3.95 5.542-.839L27.335 0zm18.808 0l2.507 5.034 5.542.839-3.992 3.95.918 5.553-4.974-2.593-4.975 2.593.918-5.553-3.992-3.95 5.542-.839L46.143 0zM64.95 0l2.507 5.034 5.542.839-3.992 3.95.918 5.553-4.975-2.593-4.975 2.593.918-5.553-3.992-3.95 5.542-.839L64.95 0zm18.806 0l2.507 5.034 5.542.839-3.992 3.95.918 5.553-4.975-2.593-4.975 2.593.918-5.553-3.992-3.95 5.542-.839L83.756 0z" fill-opacity=".7"/></svg>