<svg width="150" height="53" viewBox="0 0 150 53" fill="none" xmlns="http://www.w3.org/2000/svg">
<path d="M23.3765 4.05972C23.3765 4.55683 23.2729 5.04703 23.0658 5.53033C22.8587 5.99983 22.5894 6.46241 22.258 6.91809C21.9404 7.35997 21.5745 7.79494 21.1602 8.22301C20.746 8.63726 20.3317 9.04461 19.9175 9.44506C19.6965 9.65219 19.448 9.90075 19.1718 10.1907C18.8956 10.4807 18.6333 10.7707 18.3847 11.0607C18.1362 11.3506 17.9221 11.6337 17.7426 11.9099C17.5631 12.1723 17.4664 12.3932 17.4526 12.5727H23.8322V14.6854H14.6978C14.684 14.5749 14.6771 14.4438 14.6771 14.2919C14.6771 14.1262 14.6771 14.0019 14.6771 13.919C14.6771 13.2562 14.7807 12.6487 14.9878 12.0963C15.2087 11.5302 15.4918 11.0054 15.837 10.5221C16.1822 10.0388 16.5689 9.58315 16.9969 9.15508C17.425 8.72702 17.8531 8.30586 18.2811 7.8916C18.6126 7.574 18.9301 7.26331 19.2339 6.95952C19.5377 6.65573 19.8001 6.35885 20.021 6.06887C20.2558 5.76508 20.4422 5.46129 20.5803 5.1575C20.7184 4.83991 20.7874 4.5154 20.7874 4.184C20.7874 3.46595 20.5803 2.95503 20.166 2.65125C19.7518 2.34746 19.2477 2.19556 18.654 2.19556C18.2673 2.19556 17.9083 2.2508 17.5769 2.36127C17.2455 2.47174 16.9486 2.60292 16.6863 2.75481C16.4377 2.90671 16.2168 3.0655 16.0234 3.23121C15.8301 3.3831 15.6851 3.50738 15.5885 3.60404L14.3457 1.84345C14.9257 1.2911 15.6023 0.849228 16.3756 0.517822C17.1627 0.172608 18.005 0 18.9025 0C20.4353 0 21.5607 0.365927 22.2787 1.09778C23.0106 1.81583 23.3765 2.80314 23.3765 4.05972Z" fill="#212528"/>
<path d="M7.29093 2.29913C5.81341 2.29913 4.68111 2.76171 3.89402 3.68689C3.12074 4.59826 2.7341 5.86864 2.7341 7.49806C2.7341 8.27134 2.82385 8.98248 3.00337 9.63148C3.19669 10.2667 3.47286 10.8121 3.83188 11.2678C4.20471 11.7235 4.66039 12.0825 5.19893 12.3449C5.75127 12.5934 6.39337 12.7177 7.12522 12.7177C7.58091 12.7177 7.97445 12.7039 8.30586 12.6763C8.63726 12.6348 8.89963 12.5865 9.09295 12.5313V7.37378H11.7028V14.2712C11.3437 14.4092 10.7362 14.5611 9.88004 14.7268C9.0239 14.8925 8.03659 14.9754 6.9181 14.9754C5.88245 14.9754 4.93657 14.8097 4.08043 14.4783C3.2243 14.1469 2.49245 13.6636 1.88487 13.0284C1.2911 12.3932 0.828514 11.613 0.497109 10.6878C0.165703 9.76266 0 8.6994 0 7.49806C0 6.29671 0.179511 5.23345 0.538534 4.30828C0.911366 3.3831 1.41538 2.60292 2.05057 1.96772C2.68577 1.31872 3.43143 0.828515 4.28756 0.497109C5.14369 0.165703 6.05506 0 7.02166 0C7.68447 0 8.27134 0.0483303 8.78225 0.144991C9.30698 0.227842 9.75576 0.324502 10.1286 0.434971C10.5014 0.54544 10.8052 0.662813 11.04 0.78709C11.2885 0.911366 11.4611 1.00112 11.5578 1.05636L10.7707 3.18978C10.3564 2.94123 9.83861 2.7341 9.21722 2.56839C8.60965 2.38888 7.96755 2.29913 7.29093 2.29913Z" fill="#212528"/>
<rect y="26.3994" width="26.3153" height="26.3153" rx="2" fill="#1EB059"/>
<path d="M13.1584 29.4648L15.4242 36.4382H22.7564L16.8245 40.748L19.0903 47.7214L13.1584 43.4116L7.22647 47.7214L9.49226 40.748L3.56034 36.4382H10.8926L13.1584 29.4648Z" fill="white"/>
<rect x="30.9219" y="26.3994" width="26.3153" height="26.3153" rx="2" fill="#1EB059"/>
<path d="M44.0803 29.4648L46.346 36.4382H53.6783L47.7464 40.748L50.0122 47.7214L44.0803 43.4116L38.1483 47.7214L40.4141 40.748L34.4822 36.4382H41.8145L44.0803 29.4648Z" fill="white"/>
<rect x="61.8359" y="26.3999" width="26.3153" height="26.3153" rx="2" fill="#1EB059"/>
<path d="M74.9943 29.4653L77.2601 36.4387H84.5924L78.6604 40.7485L80.9262 47.7219L74.9943 43.4121L69.0624 47.7219L71.3282 40.7485L65.3963 36.4387H72.7285L74.9943 29.4653Z" fill="white"/>
<rect x="92.7578" y="26.3994" width="26.3153" height="26.3153" rx="2" fill="#1EB059"/>
<path d="M105.916 29.4648L108.182 36.4382H115.514L109.582 40.748L111.848 47.7214L105.916 43.4116L99.9843 47.7214L102.25 40.748L96.3182 36.4382H103.65L105.916 29.4648Z" fill="white"/>
<rect x="123.686" y="26.3999" width="26.3153" height="26.3153" rx="2" fill="#1EB059"/>
<path d="M136.844 29.4653L139.11 36.4387H146.442L140.51 40.7485L142.776 47.7219L136.844 43.4121L130.912 47.7219L133.178 40.7485L127.246 36.4387H134.578L136.844 29.4653Z" fill="white"/>
<mask id="mask0_619_1387" style="mask-type:alpha" maskUnits="userSpaceOnUse" x="127" y="29" width="20" height="19">
<path d="M136.846 29.4653L139.112 36.4387H146.444L140.512 40.7485L142.778 47.7219L136.846 43.4121L130.914 47.7219L133.18 40.7485L127.248 36.4387H134.58L136.846 29.4653Z" fill="white"/>
</mask>
<g mask="url(#mask0_619_1387)">
<rect x="140.887" y="28.2881" width="6.69972" height="21.3613" fill="#1EB059"/>
</g>
</svg>
