<svg width="150" height="57" viewBox="0 0 150 57" fill="none" xmlns="http://www.w3.org/2000/svg">
<rect y="30.686" width="26.3156" height="26.3156" rx="2" fill="#1EB059"/>
<path d="M13.1585 33.752L15.4243 40.7254H22.7566L16.8247 45.0352L19.0905 52.0087L13.1585 47.6989L7.22651 52.0087L9.49233 45.0352L3.56035 40.7254H10.8927L13.1585 33.752Z" fill="white"/>
<rect x="30.9219" y="30.6865" width="26.3156" height="26.3156" rx="2" fill="#1EB059"/>
<path d="M44.0804 33.752L46.3462 40.7254H53.6785L47.7465 45.0352L50.0123 52.0087L44.0804 47.6989L38.1484 52.0087L40.4142 45.0352L34.4822 40.7254H41.8146L44.0804 33.752Z" fill="white"/>
<rect x="61.8398" y="30.686" width="26.3156" height="26.3156" rx="2" fill="#1EB059"/>
<path d="M74.9983 33.752L77.2642 40.7254H84.5965L78.6645 45.0352L80.9303 52.0087L74.9983 47.6989L69.0664 52.0087L71.3322 45.0352L65.4002 40.7254H72.7325L74.9983 33.752Z" fill="white"/>
<rect x="92.7578" y="30.6865" width="26.3156" height="26.3156" rx="2" fill="#1EB059"/>
<path d="M105.916 33.752L108.182 40.7254H115.514L109.582 45.0352L111.848 52.0087L105.916 47.6989L99.9843 52.0087L102.25 45.0352L96.3182 40.7254H103.65L105.916 33.752Z" fill="white"/>
<rect x="123.684" y="30.6865" width="26.3156" height="26.3156" rx="2" fill="#1EB059"/>
<path d="M136.842 33.752L139.108 40.7254H146.44L140.508 45.0352L142.774 52.0087L136.842 47.6989L130.91 52.0087L133.176 45.0352L127.244 40.7254H134.576L136.842 33.752Z" fill="white"/>
<mask id="mask0_619_1452" style="mask-type:alpha" maskUnits="userSpaceOnUse" x="127" y="33" width="20" height="20">
<path d="M136.843 33.7549L139.108 40.7273H146.439L140.508 45.0365L142.774 52.009L136.843 47.6998L130.911 52.009L133.177 45.0365L127.246 40.7273H134.577L136.843 33.7549Z" fill="white"/>
</mask>
<g mask="url(#mask0_619_1452)">
<rect x="137.486" y="32.5776" width="10.095" height="21.3584" fill="#1EB059"/>
</g>
<path d="M54.5898 9.88967C54.5898 9.00972 54.7174 8.23816 54.9724 7.57501C55.2402 6.91186 55.591 6.36348 56.0246 5.92988C56.4582 5.48353 56.9555 5.15195 57.5166 4.93515C58.0778 4.7056 58.6517 4.59082 59.2383 4.59082C60.6156 4.59082 61.6869 5.01804 62.452 5.87249C63.23 6.72694 63.6189 8.00223 63.6189 9.69838C63.6189 9.82591 63.6126 9.97256 63.5998 10.1384C63.5998 10.2914 63.5934 10.4317 63.5807 10.5592H56.981C57.0448 11.3626 57.3254 11.9875 57.8227 12.4339C58.3328 12.8675 59.0661 13.0843 60.0226 13.0843C60.5837 13.0843 61.0938 13.0333 61.553 12.9313C62.0248 12.8292 62.3946 12.7208 62.6625 12.606L62.9685 14.4999C62.841 14.5636 62.6625 14.6338 62.4329 14.7103C62.2161 14.7741 61.9611 14.8314 61.6677 14.8824C61.3872 14.9462 61.0811 14.9972 60.7495 15.0355C60.4179 15.0737 60.08 15.0929 59.7357 15.0929C58.8557 15.0929 58.0905 14.9653 57.4401 14.7103C56.7897 14.4425 56.2541 14.079 55.8333 13.6199C55.4124 13.148 55.1 12.5997 54.8959 11.9748C54.6919 11.3371 54.5898 10.6421 54.5898 9.88967ZM61.3043 8.85668C61.3043 8.53786 61.2596 8.23816 61.1704 7.9576C61.0811 7.66428 60.9472 7.4156 60.7687 7.21155C60.6029 6.99475 60.3924 6.82896 60.1374 6.71419C59.8951 6.58666 59.6018 6.52289 59.2574 6.52289C58.9003 6.52289 58.5879 6.59303 58.3201 6.73332C58.0523 6.86085 57.8227 7.03301 57.6314 7.24981C57.4529 7.46661 57.3126 7.71529 57.2106 7.99586C57.1086 8.27642 57.0384 8.56336 57.0002 8.85668H61.3043Z" fill="#63798F" fill-opacity="0.7"/>
<path d="M52.5667 15.0357C51.878 15.023 51.3041 14.9465 50.845 14.8062C50.3987 14.6659 50.0416 14.4682 49.7738 14.2132C49.506 13.9454 49.3147 13.6202 49.1999 13.2376C49.0979 12.8422 49.0469 12.3959 49.0469 11.8985V0.382588L51.3615 0V11.4585C51.3615 11.7391 51.3807 11.975 51.4189 12.1663C51.4699 12.3576 51.5528 12.5234 51.6676 12.6637C51.7824 12.7912 51.9354 12.8932 52.1267 12.9698C52.3308 13.0335 52.5858 13.0845 52.8919 13.1228L52.5667 15.0357Z" fill="#63798F" fill-opacity="0.7"/>
<path d="M39.3096 9.58343C39.3096 10.5654 39.52 11.2859 39.9408 11.7451C40.3744 12.1914 40.9292 12.4146 41.6051 12.4146C41.9749 12.4146 42.3192 12.3636 42.6381 12.2615C42.9696 12.1595 43.2375 12.0384 43.4415 11.8981V6.71401C43.2757 6.67575 43.0717 6.64387 42.8294 6.61837C42.5871 6.58011 42.281 6.56098 41.9112 6.56098C41.0695 6.56098 40.4254 6.84154 39.9791 7.40267C39.5327 7.95105 39.3096 8.67797 39.3096 9.58343ZM45.7562 13.8302C45.7562 15.4243 45.3481 16.5912 44.5319 17.3308C43.7284 18.0705 42.4914 18.4404 40.8208 18.4404C40.2086 18.4404 39.6092 18.3893 39.0226 18.2873C38.4487 18.1853 37.9259 18.0514 37.454 17.8856L37.8748 15.9153C38.2702 16.0811 38.7165 16.215 39.2139 16.317C39.724 16.419 40.2724 16.47 40.859 16.47C41.79 16.47 42.4532 16.2787 42.8485 15.8961C43.2438 15.5135 43.4415 14.946 43.4415 14.1936V13.811C43.212 13.9258 42.9059 14.0406 42.5233 14.1554C42.1535 14.2701 41.7262 14.3275 41.2416 14.3275C40.604 14.3275 40.0173 14.2255 39.4817 14.0215C38.9588 13.8174 38.5061 13.5177 38.1235 13.1224C37.7537 12.727 37.4604 12.236 37.2436 11.6494C37.0395 11.05 36.9375 10.3614 36.9375 9.58343C36.9375 8.85651 37.0459 8.18698 37.2627 7.57484C37.4923 6.9627 37.8175 6.43983 38.2383 6.00623C38.6719 5.57262 39.1948 5.23467 39.8069 4.99237C40.4191 4.75006 41.1141 4.62891 41.892 4.62891C42.6444 4.62891 43.3586 4.68629 44.0345 4.80107C44.7104 4.91585 45.2843 5.037 45.7562 5.16453V13.8302Z" fill="#63798F" fill-opacity="0.7"/>
<path d="M34.726 9.83228C34.726 10.623 34.6112 11.3435 34.3817 11.9939C34.1521 12.6443 33.8269 13.1991 33.4061 13.6582C32.9852 14.1173 32.4751 14.4744 31.8757 14.7294C31.2891 14.9845 30.6387 15.112 29.9245 15.112C29.2104 15.112 28.56 14.9845 27.9733 14.7294C27.3867 14.4744 26.883 14.1173 26.4621 13.6582C26.0413 13.1991 25.7097 12.6443 25.4674 11.9939C25.2378 11.3435 25.123 10.623 25.123 9.83228C25.123 9.0416 25.2378 8.32743 25.4674 7.68979C25.7097 7.03939 26.0413 6.48463 26.4621 6.02553C26.8957 5.56642 27.4058 5.21572 27.9925 4.97341C28.5791 4.71835 29.2231 4.59082 29.9245 4.59082C30.6259 4.59082 31.27 4.71835 31.8566 4.97341C32.456 5.21572 32.9661 5.56642 33.387 6.02553C33.8078 6.48463 34.133 7.03939 34.3626 7.68979C34.6049 8.32743 34.726 9.0416 34.726 9.83228ZM32.354 9.83228C32.354 8.83755 32.1372 8.05325 31.7036 7.47936C31.2827 6.89273 30.6897 6.59941 29.9245 6.59941C29.1594 6.59941 28.56 6.89273 28.1264 7.47936C27.7055 8.05325 27.4951 8.83755 27.4951 9.83228C27.4951 10.8398 27.7055 11.6368 28.1264 12.2235C28.56 12.8101 29.1594 13.1034 29.9245 13.1034C30.6897 13.1034 31.2827 12.8101 31.7036 12.2235C32.1372 11.6368 32.354 10.8398 32.354 9.83228Z" fill="#63798F" fill-opacity="0.7"/>
<path d="M22.9096 9.83228C22.9096 10.623 22.7948 11.3435 22.5653 11.9939C22.3357 12.6443 22.0105 13.1991 21.5897 13.6582C21.1688 14.1173 20.6587 14.4744 20.0593 14.7294C19.4727 14.9845 18.8223 15.112 18.1081 15.112C17.394 15.112 16.7436 14.9845 16.1569 14.7294C15.5703 14.4744 15.0665 14.1173 14.6457 13.6582C14.2249 13.1991 13.8933 12.6443 13.651 11.9939C13.4214 11.3435 13.3066 10.623 13.3066 9.83228C13.3066 9.0416 13.4214 8.32743 13.651 7.68979C13.8933 7.03939 14.2249 6.48463 14.6457 6.02553C15.0793 5.56642 15.5894 5.21572 16.1761 4.97341C16.7627 4.71835 17.4067 4.59082 18.1081 4.59082C18.8095 4.59082 19.4536 4.71835 20.0402 4.97341C20.6396 5.21572 21.1497 5.56642 21.5706 6.02553C21.9914 6.48463 22.3166 7.03939 22.5462 7.68979C22.7885 8.32743 22.9096 9.0416 22.9096 9.83228ZM20.5376 9.83228C20.5376 8.83755 20.3208 8.05325 19.8872 7.47936C19.4663 6.89273 18.8733 6.59941 18.1081 6.59941C17.343 6.59941 16.7436 6.89273 16.31 7.47936C15.8891 8.05325 15.6787 8.83755 15.6787 9.83228C15.6787 10.8398 15.8891 11.6368 16.31 12.2235C16.7436 12.8101 17.343 13.1034 18.1081 13.1034C18.8733 13.1034 19.4663 12.8101 19.8872 12.2235C20.3208 11.6368 20.5376 10.8398 20.5376 9.83228Z" fill="#63798F" fill-opacity="0.7"/>
<path d="M6.73356 3.4051C5.36899 3.4051 4.32325 3.83233 3.59633 4.68678C2.88217 5.52847 2.52508 6.70174 2.52508 8.20659C2.52508 8.92076 2.60798 9.57753 2.77377 10.1769C2.95231 10.7636 3.20737 11.2673 3.53894 11.6881C3.88327 12.109 4.30412 12.4406 4.80149 12.6829C5.3116 12.9124 5.90462 13.0272 6.58052 13.0272C7.00137 13.0272 7.36483 13.0145 7.6709 12.9889C7.97697 12.9507 8.21928 12.9061 8.39782 12.855V8.09181H10.8081V14.4619C10.4765 14.5894 9.91542 14.7297 9.12474 14.8828C8.33405 15.0358 7.42222 15.1123 6.38923 15.1123C5.43276 15.1123 4.55918 14.9593 3.7685 14.6532C2.97781 14.3471 2.30191 13.9008 1.74078 13.3141C1.1924 12.7275 0.765177 12.007 0.459106 11.1525C0.153035 10.2981 0 9.3161 0 8.20659C0 7.09708 0.165788 6.11511 0.497365 5.26066C0.841695 4.40621 1.30718 3.68567 1.89381 3.09903C2.48045 2.49965 3.16911 2.04692 3.95979 1.74084C4.75047 1.43477 5.59217 1.28174 6.48488 1.28174C7.09702 1.28174 7.63902 1.32637 8.11088 1.41564C8.59549 1.49216 9.00996 1.58143 9.35429 1.68346C9.69862 1.78548 9.97918 1.89388 10.196 2.00866C10.4255 2.12343 10.5849 2.20633 10.6742 2.25734L9.9473 4.22767C9.56471 3.99812 9.08648 3.80682 8.5126 3.65379C7.95147 3.488 7.35845 3.4051 6.73356 3.4051Z" fill="#63798F" fill-opacity="0.7"/>
</svg>
