<svg xmlns="http://www.w3.org/2000/svg" width="28" height="31" fill="#007fff" stroke="#007fff" stroke-width=".5" xmlns:v="https://vecta.io/nano"><path d="M13.734 30.003a1.33 1.33 0 0 0 .391.059c.129 0 .258-.02.382-.058 1.884-.54 3.665-1.392 5.268-2.52a.47.47 0 0 0 .095-.641.47.47 0 0 0-.636-.124 16.63 16.63 0 0 1-4.994 2.386.39.39 0 0 1-.239 0 16.44 16.44 0 0 1-6.319-3.428.47.47 0 0 0-.159-.103c-.059-.023-.123-.034-.187-.032a.47.47 0 0 0-.45.512.47.47 0 0 0 .178.326c1.929 1.684 4.207 2.921 6.669 3.621zM1.736 8.056a.47.47 0 0 0-.527.402c-.33 2.471-.724 8.807 2.745 14.282a.47.47 0 0 0 .293.207.49.49 0 0 0 .183.005.46.46 0 0 0 .171-.066.47.47 0 0 0 .146-.647c-3.306-5.214-2.926-11.287-2.61-13.656a.47.47 0 0 0-.402-.527zm3.502 15.7a.47.47 0 0 0-.071.66l.446.523a.47.47 0 0 0 .663.04.47.47 0 0 0 .04-.663l-.417-.489a.47.47 0 0 0-.499-.157.47.47 0 0 0-.162.085zM25.839 6.915a25.47 25.47 0 0 1-4.98-1.399c-2.104-.833-4.087-1.941-5.899-3.297a1.39 1.39 0 0 0-1.67 0 25.73 25.73 0 0 1-2.831 1.841.47.47 0 0 0-.181.639.47.47 0 0 0 .64.179 26.67 26.67 0 0 0 2.936-1.913c.078-.06.173-.092.271-.092a.44.44 0 0 1 .271.092 26.46 26.46 0 0 0 6.118 3.422 26.47 26.47 0 0 0 5.168 1.453.45.45 0 0 1 .252.134c.068.071.111.161.123.257.301 1.981.76 7.119-1.486 12.03a.47.47 0 0 0 .227.628.47.47 0 0 0 .624-.238c2.352-5.141 1.875-10.497 1.561-12.562-.043-.292-.176-.562-.382-.773a1.39 1.39 0 0 0-.764-.4zm-14.615 7.592a1.49 1.49 0 0 0-2.086 0l-.587.599a1.51 1.51 0 0 0 0 2.102l3.592 3.665c.136.139.298.25.477.326a1.45 1.45 0 0 0 .566.114c.194 0 .387-.039.566-.114s.341-.186.477-.326l6.596-6.732a1.51 1.51 0 0 0 0-2.102l-.587-.599a1.45 1.45 0 0 0-2.086 0l-4.594 4.688a.53.53 0 0 1-.746 0l-1.588-1.621zm3.004 2.277l4.594-4.687a.52.52 0 0 1 .746 0l.587.599c.103.106.16.247.16.395s-.057.289-.16.395l-6.597 6.732a.53.53 0 0 1-.746 0L9.22 16.552c-.103-.106-.16-.247-.16-.395s.057-.289.16-.395l.587-.599a.53.53 0 0 1 .747 0l1.588 1.621a1.49 1.49 0 0 0 2.086 0zM1.125 5.687a.47.47 0 0 0 .384.461c2.972.548 3.295.87 3.844 3.844a.47.47 0 0 0 .461.383.47.47 0 0 0 .461-.383c.548-2.972.87-3.295 3.844-3.844a.47.47 0 0 0 .383-.461.47.47 0 0 0-.383-.461c-2.972-.547-3.295-.87-3.844-3.844a.47.47 0 0 0-.923.001c-.548 2.972-.87 3.295-3.844 3.844a.47.47 0 0 0-.384.461zM5.813 3.48c.139.531.417 1.015.805 1.402a3.1 3.1 0 0 0 1.402.805c-.531.139-1.015.417-1.402.805a3.1 3.1 0 0 0-.805 1.402c-.139-.531-.417-1.015-.805-1.402a3.1 3.1 0 0 0-1.402-.805c.531-.139 1.015-.417 1.402-.805a3.1 3.1 0 0 0 .805-1.402zm21.304 20.746c-2.972-.548-3.295-.87-3.844-3.844a.47.47 0 0 0-.461-.383.47.47 0 0 0-.461.383c-.548 2.972-.87 3.295-3.844 3.844a.47.47 0 0 0-.383.461.47.47 0 0 0 .383.461c2.972.547 3.295.87 3.844 3.844a.47.47 0 0 0 .461.383.47.47 0 0 0 .461-.383c.547-2.972.87-3.295 3.844-3.844a.47.47 0 0 0 .383-.461.47.47 0 0 0-.383-.461zm-4.304 2.668c-.139-.531-.417-1.015-.805-1.402a3.1 3.1 0 0 0-1.402-.805c.531-.139 1.015-.417 1.402-.805a3.1 3.1 0 0 0 .805-1.402c.139.531.417 1.015.805 1.402a3.1 3.1 0 0 0 1.402.805c-.531.139-1.015.417-1.402.805a3.1 3.1 0 0 0-.805 1.402z"/></svg>