<svg width="150" height="54" viewBox="0 0 150 54" fill="none" xmlns="http://www.w3.org/2000/svg">
<path d="M87.709 9.83655C87.709 8.96136 87.8358 8.19399 88.0895 7.53443C88.3559 6.87487 88.7047 6.32946 89.1359 5.89821C89.5672 5.45428 90.0618 5.1245 90.6199 4.90887C91.178 4.68056 91.7488 4.56641 92.3322 4.56641C93.7021 4.56641 94.7675 4.99132 95.5286 5.84113C96.3023 6.69095 96.6892 7.95934 96.6892 9.64629C96.6892 9.77313 96.6828 9.91899 96.6701 10.0839C96.6701 10.2361 96.6638 10.3756 96.6511 10.5024H90.0872C90.1506 11.3015 90.4297 11.923 90.9243 12.367C91.4317 12.7982 92.161 13.0139 93.1123 13.0139C93.6704 13.0139 94.1777 12.9631 94.6344 12.8616C95.1037 12.7602 95.4715 12.6524 95.7379 12.5382L96.0423 14.4218C95.9154 14.4852 95.7379 14.5549 95.5096 14.631C95.2939 14.6945 95.0403 14.7515 94.7485 14.8023C94.4695 14.8657 94.1651 14.9164 93.8353 14.9545C93.5055 14.9925 93.1694 15.0116 92.8269 15.0116C91.9517 15.0116 91.1907 14.8847 90.5438 14.631C89.8969 14.3647 89.3642 14.0032 88.9457 13.5466C88.5271 13.0773 88.2163 12.5319 88.0134 11.9104C87.8105 11.2762 87.709 10.5849 87.709 9.83655ZM94.387 8.80916C94.387 8.49206 94.3426 8.19399 94.2539 7.91494C94.1651 7.62322 94.0319 7.37588 93.8543 7.17294C93.6894 6.95731 93.4801 6.79242 93.2265 6.67827C92.9855 6.55143 92.6937 6.48801 92.3513 6.48801C91.9961 6.48801 91.6854 6.55777 91.419 6.69729C91.1526 6.82413 90.9243 6.99536 90.7341 7.21099C90.5565 7.42661 90.417 7.67395 90.3155 7.953C90.214 8.23204 90.1443 8.51743 90.1062 8.80916H94.387Z" fill="#63798F" fill-opacity="0.7"/>
<path d="M78.3555 9.7985C78.3555 9.06283 78.4696 8.3779 78.6979 7.74371C78.9262 7.09683 79.2497 6.53875 79.6682 6.06944C80.0995 5.60014 80.6195 5.23231 81.2284 4.96595C81.8372 4.69959 82.5221 4.56641 83.2831 4.56641C84.2218 4.56641 85.1096 4.73764 85.9468 5.0801L85.4521 6.96365C85.1857 6.8495 84.8813 6.75437 84.5388 6.67827C84.2091 6.60216 83.8539 6.56411 83.4734 6.56411C82.5728 6.56411 81.8879 6.8495 81.4186 7.42027C80.9493 7.97836 80.7147 8.7711 80.7147 9.7985C80.7147 10.7878 80.9366 11.5742 81.3806 12.1577C81.8245 12.7285 82.5728 13.0139 83.6256 13.0139C84.0188 13.0139 84.4057 12.9758 84.7862 12.8997C85.1667 12.8236 85.4965 12.7285 85.7755 12.6143L86.099 14.5169C85.8453 14.6437 85.4584 14.7579 84.9384 14.8594C84.431 14.9608 83.9047 15.0116 83.3592 15.0116C82.5094 15.0116 81.7674 14.8847 81.1332 14.631C80.5117 14.3647 79.9917 14.0032 79.5731 13.5466C79.1672 13.0773 78.8628 12.5255 78.6599 11.8913C78.4569 11.2445 78.3555 10.5468 78.3555 9.7985Z" fill="#63798F" fill-opacity="0.7"/>
<path d="M75.5895 14.7639H73.2873V4.81346H75.5895V14.7639ZM75.8368 1.90252C75.8368 2.33377 75.6973 2.67623 75.4182 2.92991C75.1392 3.18359 74.8094 3.31043 74.4289 3.31043C74.0357 3.31043 73.6996 3.18359 73.4205 2.92991C73.1415 2.67623 73.002 2.33377 73.002 1.90252C73.002 1.45858 73.1415 1.10978 73.4205 0.856102C73.6996 0.602425 74.0357 0.475586 74.4289 0.475586C74.8094 0.475586 75.1392 0.602425 75.4182 0.856102C75.6973 1.10978 75.8368 1.45858 75.8368 1.90252Z" fill="#63798F" fill-opacity="0.7"/>
<path d="M65.4214 14.764C64.7872 13.4575 64.134 11.9608 63.4617 10.2739C62.8022 8.57424 62.1997 6.75411 61.6543 4.81348H64.1086C64.2481 5.37157 64.4067 5.97405 64.5843 6.62092C64.7745 7.25512 64.9711 7.89565 65.1741 8.54253C65.3897 9.17672 65.6053 9.79823 65.8209 10.4071C66.0493 11.0032 66.2585 11.5423 66.4488 12.0242C66.6391 11.5423 66.842 11.0032 67.0576 10.4071C67.2732 9.79823 67.4825 9.17672 67.6855 8.54253C67.9011 7.89565 68.104 7.25512 68.2943 6.62092C68.4846 5.97405 68.6494 5.37157 68.789 4.81348H71.1672C70.6218 6.75411 70.013 8.57424 69.3407 10.2739C68.6812 11.9608 68.0343 13.4575 67.4001 14.764H65.4214Z" fill="#63798F" fill-opacity="0.7"/>
<path d="M52.9647 9.76022C52.9647 10.7749 53.2057 11.574 53.6876 12.1575C54.1696 12.7282 54.8355 13.0136 55.6853 13.0136C56.0532 13.0136 56.3639 13.0009 56.6176 12.9756C56.884 12.9375 57.0996 12.8995 57.2645 12.8614V7.15369C57.0615 7.01417 56.7888 6.88733 56.4464 6.77318C56.1166 6.64634 55.7615 6.58292 55.3809 6.58292C54.5438 6.58292 53.9286 6.86831 53.5354 7.43908C53.1549 8.00985 52.9647 8.78357 52.9647 9.76022ZM59.5666 14.4596C59.11 14.5991 58.5329 14.726 57.8353 14.8401C57.1503 14.9543 56.4274 15.0113 55.6663 15.0113C54.8799 15.0113 54.176 14.8908 53.5545 14.6499C52.933 14.4089 52.4002 14.0664 51.9563 13.6225C51.525 13.1658 51.1889 12.6204 50.9479 11.9862C50.7196 11.3394 50.6055 10.6164 50.6055 9.8173C50.6055 9.0309 50.7006 8.32061 50.8909 7.68642C51.0938 7.03954 51.3855 6.48779 51.766 6.03117C52.1466 5.57455 52.6095 5.22575 53.1549 4.98475C53.7003 4.73108 54.3282 4.60424 55.0385 4.60424C55.5205 4.60424 55.9454 4.66132 56.3132 4.77547C56.681 4.88963 56.9981 5.01646 57.2645 5.15599V0.380515L59.5666 0V14.4596Z" fill="#63798F" fill-opacity="0.7"/>
<path d="M44.1149 13.147C44.8251 13.147 45.3642 13.109 45.732 13.0329V10.4834C45.6052 10.4454 45.4213 10.4073 45.1803 10.3693C44.9393 10.3312 44.6729 10.3122 44.3812 10.3122C44.1275 10.3122 43.8675 10.3312 43.6012 10.3693C43.3475 10.4073 43.1128 10.4771 42.8972 10.5786C42.6943 10.68 42.5294 10.8259 42.4025 11.0161C42.2757 11.1937 42.2123 11.422 42.2123 11.7011C42.2123 12.2465 42.3835 12.627 42.726 12.8426C43.0684 13.0456 43.5314 13.147 44.1149 13.147ZM43.9246 4.56641C44.6856 4.56641 45.3262 4.66154 45.8462 4.85179C46.3662 5.04205 46.7785 5.30841 47.0829 5.65088C47.4 5.99334 47.6219 6.41191 47.7488 6.90658C47.8883 7.38856 47.9581 7.92129 47.9581 8.50474V14.5359C47.6029 14.612 47.0638 14.7008 46.3409 14.8023C45.6306 14.9164 44.8252 14.9735 43.9246 14.9735C43.3285 14.9735 42.783 14.9164 42.2884 14.8023C41.7937 14.6881 41.3688 14.5042 41.0137 14.2505C40.6712 13.9969 40.3985 13.6671 40.1955 13.2612C40.0053 12.8553 39.9102 12.3543 39.9102 11.7582C39.9102 11.1874 40.018 10.7054 40.2336 10.3122C40.4619 9.91899 40.7663 9.6019 41.1468 9.3609C41.5273 9.10723 41.9649 8.92965 42.4596 8.82818C42.967 8.71403 43.4933 8.65695 44.0387 8.65695C44.2924 8.65695 44.5588 8.67597 44.8378 8.71403C45.1169 8.73939 45.4149 8.79013 45.732 8.86623V8.48572C45.732 8.21936 45.7003 7.96568 45.6369 7.72469C45.5735 7.48369 45.4593 7.27441 45.2945 7.09683C45.1422 6.90658 44.933 6.76071 44.6666 6.65924C44.4129 6.55777 44.0895 6.50704 43.6963 6.50704C43.1636 6.50704 42.6752 6.54509 42.2313 6.62119C41.7874 6.69729 41.4259 6.78608 41.1468 6.88755L40.8614 5.02302C41.1532 4.92155 41.5781 4.82008 42.1362 4.71861C42.6943 4.61714 43.2904 4.56641 43.9246 4.56641Z" fill="#63798F" fill-opacity="0.7"/>
<path d="M32.166 2.18813L34.4681 1.80762V4.81369H38.0069V6.73529H34.4681V10.7878C34.4681 11.5869 34.595 12.1576 34.8486 12.5001C35.1023 12.8426 35.5336 13.0138 36.1424 13.0138C36.561 13.0138 36.9288 12.9694 37.2459 12.8806C37.5757 12.7918 37.8357 12.7094 38.026 12.6333L38.4065 14.4598C38.1401 14.5739 37.7913 14.6881 37.3601 14.8022C36.9288 14.9291 36.4214 14.9925 35.838 14.9925C35.1277 14.9925 34.5316 14.8974 34.0496 14.7071C33.5803 14.5168 33.2061 14.2441 32.927 13.889C32.648 13.5212 32.4514 13.0836 32.3372 12.5762C32.2231 12.0562 32.166 11.4664 32.166 10.8068V2.18813Z" fill="#63798F" fill-opacity="0.7"/>
<path d="M25.6968 13.109C26.3056 13.109 26.7495 13.0392 27.0286 12.8997C27.3076 12.7475 27.4471 12.4938 27.4471 12.1387C27.4471 11.8089 27.2949 11.5362 26.9905 11.3206C26.6988 11.1049 26.2105 10.8703 25.5255 10.6166C25.107 10.4644 24.7201 10.3058 24.365 10.141C24.0225 9.96339 23.7244 9.76044 23.4708 9.53214C23.2171 9.30383 23.0141 9.03112 22.8619 8.71403C22.7224 8.38425 22.6526 7.9847 22.6526 7.5154C22.6526 6.60216 22.9888 5.88553 23.661 5.36549C24.3333 4.83277 25.2465 4.56641 26.4007 4.56641C26.9842 4.56641 27.5423 4.62348 28.075 4.73764C28.6077 4.83911 29.0073 4.94058 29.2736 5.04205L28.855 6.90658C28.6014 6.79242 28.2779 6.69095 27.8847 6.60216C27.4915 6.50069 27.0349 6.44996 26.5149 6.44996C26.0456 6.44996 25.6651 6.5324 25.3733 6.69729C25.0816 6.8495 24.9357 7.09049 24.9357 7.42027C24.9357 7.58516 24.9611 7.73103 25.0118 7.85787C25.0753 7.9847 25.1767 8.1052 25.3163 8.21936C25.4558 8.32083 25.6397 8.42864 25.868 8.54279C26.0963 8.64427 26.3754 8.75208 26.7051 8.86623C27.2505 9.06917 27.7135 9.27212 28.094 9.47506C28.4745 9.66532 28.7853 9.88728 29.0263 10.141C29.28 10.382 29.4639 10.661 29.578 10.9781C29.6922 11.2952 29.7493 11.6757 29.7493 12.1196C29.7493 13.0709 29.3941 13.7939 28.6838 14.2886C27.9862 14.7706 26.9842 15.0116 25.6777 15.0116C24.8026 15.0116 24.0986 14.9355 23.5659 14.7833C23.0332 14.6437 22.659 14.5296 22.4434 14.4408L22.8429 12.5192C23.1854 12.6587 23.5912 12.7919 24.0606 12.9187C24.5425 13.0456 25.0879 13.109 25.6968 13.109Z" fill="#63798F" fill-opacity="0.7"/>
<path d="M20.4552 9.77947C20.4552 10.5659 20.3411 11.2825 20.1128 11.9294C19.8845 12.5763 19.561 13.128 19.1425 13.5846C18.7239 14.0412 18.2165 14.3964 17.6204 14.6501C17.0369 14.9037 16.3901 15.0306 15.6798 15.0306C14.9695 15.0306 14.3226 14.9037 13.7391 14.6501C13.1557 14.3964 12.6547 14.0412 12.2361 13.5846C11.8175 13.128 11.4878 12.5763 11.2468 11.9294C11.0185 11.2825 10.9043 10.5659 10.9043 9.77947C10.9043 8.99307 11.0185 8.28278 11.2468 7.64858C11.4878 7.00171 11.8175 6.44996 12.2361 5.99334C12.6674 5.53672 13.1747 5.18792 13.7582 4.94692C14.3416 4.69325 14.9822 4.56641 15.6798 4.56641C16.3774 4.56641 17.0179 4.69325 17.6014 4.94692C18.1975 5.18792 18.7049 5.53672 19.1234 5.99334C19.542 6.44996 19.8654 7.00171 20.0937 7.64858C20.3347 8.28278 20.4552 8.99307 20.4552 9.77947ZM18.096 9.77947C18.096 8.79013 17.8804 8.01007 17.4492 7.4393C17.0306 6.85584 16.4408 6.56411 15.6798 6.56411C14.9187 6.56411 14.3226 6.85584 13.8913 7.4393C13.4728 8.01007 13.2635 8.79013 13.2635 9.77947C13.2635 10.7815 13.4728 11.5742 13.8913 12.1577C14.3226 12.7412 14.9187 13.0329 15.6798 13.0329C16.4408 13.0329 17.0306 12.7412 17.4492 12.1577C17.8804 11.5742 18.096 10.7815 18.096 9.77947Z" fill="#63798F" fill-opacity="0.7"/>
<path d="M0 14.764V0.380515L2.30212 0V4.92768C2.5558 4.83889 2.84753 4.76279 3.17731 4.69937C3.51977 4.63595 3.85589 4.60424 4.18567 4.60424C4.98476 4.60424 5.64432 4.71839 6.16435 4.9467C6.69708 5.16233 7.12198 5.47308 7.43908 5.87897C7.75618 6.27217 7.97815 6.74781 8.10498 7.3059C8.24451 7.86399 8.31427 8.4855 8.31427 9.17043V14.764H6.01215V9.53192C6.01215 8.99919 5.9741 8.54892 5.89799 8.18109C5.83457 7.80057 5.72042 7.49616 5.55553 7.26785C5.40332 7.02686 5.19404 6.85562 4.92768 6.75415C4.66132 6.64 4.33154 6.58292 3.93834 6.58292C3.63392 6.58292 3.32317 6.61463 3.00607 6.67805C2.68898 6.74147 2.45433 6.79855 2.30212 6.84928V14.764H0Z" fill="#63798F" fill-opacity="0.7"/>
<rect y="27.2764" width="26.3156" height="26.3156" rx="2" fill="#1EB059"/>
<path d="M13.1585 30.3418L15.4243 37.3153H22.7566L16.8247 41.6251L19.0905 48.5985L13.1585 44.2887L7.22651 48.5985L9.49233 41.6251L3.56035 37.3153H10.8927L13.1585 30.3418Z" fill="white"/>
<rect x="30.9199" y="27.2759" width="26.3156" height="26.3156" rx="2" fill="#1EB059"/>
<path d="M44.0784 30.3413L46.3442 37.3148H53.6766L47.7446 41.6246L50.0104 48.5981L44.0784 44.2882L38.1464 48.5981L40.4122 41.6246L34.4803 37.3148H41.8126L44.0784 30.3413Z" fill="white"/>
<rect x="61.834" y="27.2759" width="26.3156" height="26.3156" rx="2" fill="#1EB059"/>
<path d="M74.9925 30.3413L77.2583 37.3148H84.5906L78.6586 41.6246L80.9245 48.5981L74.9925 44.2882L69.0605 48.5981L71.3263 41.6246L65.3943 37.3148H72.7267L74.9925 30.3413Z" fill="white"/>
<rect x="92.7578" y="27.2759" width="26.3156" height="26.3156" rx="2" fill="#1EB059"/>
<path d="M105.916 30.3413L108.182 37.3148H115.514L109.582 41.6246L111.848 48.5981L105.916 44.2882L99.9843 48.5981L102.25 41.6246L96.3182 37.3148H103.65L105.916 30.3413Z" fill="white"/>
<rect x="123.684" y="27.2759" width="26.3156" height="26.3156" rx="2" fill="#1EB059"/>
<path d="M136.842 30.3413L139.108 37.3148H146.44L140.508 41.6246L142.774 48.5981L136.842 44.2882L130.91 48.5981L133.176 41.6246L127.244 37.3148H134.576L136.842 30.3413Z" fill="white"/>
<mask id="mask0_619_1480" style="mask-type:alpha" maskUnits="userSpaceOnUse" x="127" y="30" width="20" height="19">
<path d="M136.843 30.3442L139.108 37.3167H146.439L140.508 41.6259L142.774 48.5983L136.843 44.2891L130.911 48.5983L133.177 41.6259L127.246 37.3167H134.577L136.843 30.3442Z" fill="white"/>
</mask>
<g mask="url(#mask0_619_1480)">
<rect x="139.729" y="29.167" width="7.20347" height="21.3584" fill="#1EB059"/>
</g>
</svg>
