<svg width="111" height="29" viewBox="0 0 111 29" fill="none" xmlns="http://www.w3.org/2000/svg">
<path d="M40.5893 20.5V9.3H42.8293V20.5H40.5893ZM33.5333 20.5V9.3H35.7733V20.5H33.5333ZM35.4853 15.684V13.876H40.9573V15.684H35.4853ZM50.1861 20.692C49.0981 20.692 48.1381 20.4467 47.3061 19.956C46.4741 19.4653 45.8181 18.788 45.3381 17.924C44.8687 17.0493 44.6341 16.0413 44.6341 14.9C44.6341 13.7587 44.8687 12.756 45.3381 11.892C45.8181 11.0173 46.4741 10.3347 47.3061 9.844C48.1381 9.35333 49.0981 9.108 50.1861 9.108C51.2847 9.108 52.2501 9.35333 53.0821 9.844C53.9247 10.3347 54.5754 11.0173 55.0341 11.892C55.5034 12.756 55.7381 13.7587 55.7381 14.9C55.7381 16.0413 55.5034 17.0493 55.0341 17.924C54.5754 18.788 53.9247 19.4653 53.0821 19.956C52.2501 20.4467 51.2847 20.692 50.1861 20.692ZM50.1861 18.676C50.8581 18.676 51.4394 18.5213 51.9301 18.212C52.4207 17.9027 52.7994 17.4707 53.0661 16.916C53.3327 16.3507 53.4661 15.6787 53.4661 14.9C53.4661 14.1213 53.3327 13.4547 53.0661 12.9C52.7994 12.3347 52.4207 11.8973 51.9301 11.588C51.4394 11.2787 50.8581 11.124 50.1861 11.124C49.5247 11.124 48.9487 11.2787 48.4581 11.588C47.9781 11.8973 47.5994 12.3347 47.3221 12.9C47.0554 13.4547 46.9221 14.1213 46.9221 14.9C46.9221 15.6787 47.0554 16.3507 47.3221 16.916C47.5994 17.4707 47.9781 17.9027 48.4581 18.212C48.9487 18.5213 49.5247 18.676 50.1861 18.676ZM59.8288 20.5V11.108H56.5648V9.3H65.3168V11.108H62.0528V20.5H59.8288ZM70.5489 20.5V9.3H74.3569C75.6476 9.3 76.7196 9.53467 77.5729 10.004C78.4263 10.4627 79.0556 11.1133 79.4609 11.956C79.8769 12.788 80.0849 13.7693 80.0849 14.9C80.0849 16.02 79.8769 17.0013 79.4609 17.844C79.0556 18.6867 78.4263 19.3427 77.5729 19.812C76.7303 20.2707 75.6529 20.5 74.3409 20.5H70.5489ZM72.7889 18.58H74.2289C75.1249 18.58 75.8289 18.436 76.3409 18.148C76.8636 17.8493 77.2369 17.428 77.4609 16.884C77.6849 16.3293 77.7969 15.668 77.7969 14.9C77.7969 14.132 77.6849 13.476 77.4609 12.932C77.2369 12.3773 76.8636 11.9507 76.3409 11.652C75.8289 11.3533 75.1249 11.204 74.2289 11.204H72.7889V18.58ZM81.8927 20.5V9.3H89.3007V11.108H84.1327V13.94H88.8207V15.684H84.1327V18.692H89.3007V20.5H81.8927ZM90.5161 20.5L94.5961 9.3H97.1401L101.22 20.5H98.8521L95.8601 11.844L92.8521 20.5H90.5161ZM92.3081 17.988L92.9001 16.244H98.6601L99.2361 17.988H92.3081ZM102.658 20.5V9.3H104.898V18.756H109.794V20.5H102.658Z" fill="white"/>
<path fill-rule="evenodd" clip-rule="evenodd" d="M8.59122 14.4714C9.52697 15.0117 9.84757 16.2082 9.30732 17.144C8.76708 18.0797 7.57053 18.4003 6.63478 17.8601C5.69904 17.3198 5.37844 16.1233 5.91869 15.1875C6.45893 14.2518 7.65547 13.9312 8.59122 14.4714ZM7.90373 15.6622C8.18183 15.8228 8.2771 16.1783 8.11655 16.4564C7.95597 16.7345 7.6004 16.8298 7.32231 16.6693C7.04422 16.5087 6.94891 16.1531 7.10949 15.875C7.27003 15.5969 7.62564 15.5016 7.90373 15.6622Z" fill="white"/>
<path d="M8.59385 22.2812C8.26504 22.0914 8.15238 21.6709 8.34222 21.3421L12.4593 14.211C12.6492 13.8822 13.0696 13.7696 13.3985 13.9594C13.7273 14.1493 13.8399 14.5697 13.6501 14.8986L9.533 22.0296C9.34315 22.3584 8.92269 22.4711 8.59385 22.2812Z" fill="white"/>
<path fill-rule="evenodd" clip-rule="evenodd" d="M15.3647 18.3835C16.3004 18.9238 16.621 20.1203 16.0808 21.0561C15.5405 21.9918 14.344 22.3124 13.4082 21.7722C12.4725 21.2319 12.1519 20.0354 12.6921 19.0996C13.2324 18.1639 14.4289 17.8433 15.3647 18.3835ZM14.6772 19.5743C14.9553 19.7349 15.0505 20.0905 14.89 20.3686C14.7294 20.6467 14.3738 20.7419 14.0957 20.5814C13.8177 20.4208 13.7223 20.0652 13.8829 19.7872C14.0435 19.5091 14.3991 19.4138 14.6772 19.5743Z" fill="white"/>
<path fill-rule="evenodd" clip-rule="evenodd" d="M2.80253 9.29569C3.00284 9.66341 3.2308 9.98483 3.46698 10.2528C3.9306 10.7787 4.42593 11.0987 4.80645 11.1584C4.80645 10.6841 4.84041 10.2027 4.9067 9.72004C5.45071 5.75984 8.17044 1.72123 12.1424 0.907642C12.6146 0.810909 13.1045 0.759766 13.6106 0.759766C13.4638 1.25649 13.3523 1.71671 13.2729 2.14423C12.5458 6.06149 14.5198 7.23247 16.773 8.5691C19.2216 10.0216 22 11.6697 22 17.2503C22 23.3254 17.0751 28.2503 11 28.2503C4.92485 28.2503 0 23.3254 0 17.2503C0 14.2592 0.15708 11.5212 1.26235 9.2548C1.5248 8.71661 1.84071 8.20504 2.22067 7.72294C2.34703 8.30955 2.55341 8.83841 2.80253 9.29569ZM8.3164 4.9884C9.27142 3.75126 10.4688 2.83485 11.8379 2.40559C11.6001 4.10902 11.8187 5.49036 12.4813 6.64936C13.3228 8.12139 14.7657 8.97714 15.9266 9.66572L15.9956 9.70664C17.2635 10.4591 18.3592 11.1117 19.1928 12.1718C19.9868 13.1816 20.625 14.682 20.625 17.2503C20.625 22.566 16.3157 26.8753 11 26.8753C5.68425 26.8753 1.37501 22.566 1.37501 17.2503C1.37501 14.6898 1.50381 12.5439 2.11906 10.772C2.18094 10.8548 2.24387 10.9349 2.30766 11.0121C2.88321 11.7093 3.69653 12.3762 4.59344 12.5168L6.18143 12.7658V11.1584C6.18143 9.05232 6.95864 6.74727 8.3164 4.9884Z" fill="white"/>
</svg>
