<svg xmlns="http://www.w3.org/2000/svg" width="77" height="75" fill="#123455" xmlns:v="https://vecta.io/nano"><path d="M44.58 53.518l3.877-12.545-6.676-6.676-6.676-6.622-12.491 3.823c-.431.108-.754.431-.861.915l-5.546 23.475 1.4 1.4 11.845-11.845c-.754-1.292-.592-2.961.538-4.038 1.292-1.292 3.392-1.292 4.738 0 1.292 1.292 1.292 3.392 0 4.738-1.077 1.077-2.746 1.292-4.038.538L18.844 58.525l1.4 1.4 23.475-5.546c.377-.162.7-.431.861-.861zm10.176-16.745L39.304 21.321c-1.131-1.131-2.907-1.131-3.984 0-1.131 1.131-1.131 2.907 0 3.984l15.452 15.452c1.131 1.131 2.907 1.131 3.984 0 1.077-1.077 1.077-2.853 0-3.984zm3.984-6.568L45.872 17.337c-.915-.915-2.584-.754-3.661.323-1.131 1.131-1.238 2.746-.323 3.661l12.868 12.868c.915.915 2.584.754 3.661-.323 1.131-1.131 1.238-2.746.323-3.661zM11.737 15.937l-.054-.054c-.538-.485-1.346-.377-1.777.161a20.42 20.42 0 0 0-1.615 2.154c-.377.592-.269 1.346.323 1.723l.054.054c.538.377 1.292.215 1.669-.323l1.561-2.046a1.25 1.25 0 0 0-.162-1.669zm7.215-6.192l-.054-.054c-.377-.592-1.184-.754-1.723-.323-.754.485-1.454 1.077-2.154 1.615-.538.431-.646 1.238-.162 1.777l.054.054a1.25 1.25 0 0 0 1.669.162c.646-.538 1.346-1.023 2.046-1.508.485-.431.646-1.131.323-1.723zm8.614-3.93c-.215-.646-.915-1.023-1.561-.808-.861.269-1.723.592-2.53.969-.646.269-.969 1.023-.646 1.669l.054.054c.269.592.969.861 1.561.646l2.369-.861c.646-.215.969-.861.808-1.508l-.054-.162zM4.684 28.589h.054c.646.161 1.292-.162 1.508-.808l.915-2.369c.269-.592 0-1.292-.592-1.561h-.108c-.646-.269-1.4 0-1.669.646-.377.808-.646 1.669-.969 2.531-.215.646.162 1.346.861 1.561zm62.24-8.668c.592-.377.754-1.184.323-1.723l-1.615-2.154c-.431-.538-1.238-.592-1.777-.162l-.054.054a1.25 1.25 0 0 0-.162 1.669l1.561 2.046c.377.538 1.131.7 1.669.323l.054-.054zm-6.192-7.161c.485-.538.377-1.346-.162-1.777-.7-.592-1.454-1.131-2.154-1.615-.592-.377-1.346-.215-1.723.323l-.054.054c-.377.538-.215 1.292.323 1.669l2.046 1.508c.485.431 1.238.323 1.669-.162h.054zm-7.968-5.168c.269-.646 0-1.4-.646-1.669l-2.53-.969c-.646-.215-1.4.162-1.561.808v.054c-.161.646.162 1.292.808 1.508l2.369.861c.592.269 1.292 0 1.561-.646v.054zM71.07 46.411h-.054c-.646-.162-1.292.215-1.454.808l-.862 2.423c-.215.592.054 1.292.646 1.561l.054.054c.646.269 1.4-.054 1.615-.7l.915-2.584c.215-.7-.215-1.4-.862-1.561zm-1.777-18.575c.215.646.862.969 1.508.808h.054c.646-.215 1.023-.915.808-1.561-.269-.861-.592-1.723-.969-2.53-.269-.646-1.023-.915-1.669-.646l-.054.054c-.592.269-.862.969-.592 1.561.377.7.646 1.507.915 2.315zm-1.938 27.351l-.054-.054a1.28 1.28 0 0 0-1.669.377l-1.507 2.046c-.377.538-.323 1.238.161 1.669l.054.054c.538.431 1.346.377 1.777-.215l1.561-2.208a1.12 1.12 0 0 0-.323-1.669zm-6.084 7.268a1.19 1.19 0 0 0-1.669-.108l-1.992 1.561c-.538.377-.646 1.131-.269 1.669l.054.054c.377.592 1.184.7 1.723.323l2.154-1.669c.485-.485.538-1.292 0-1.831zm-7.861 5.33c-.269-.592-.969-.861-1.615-.592l-2.369.969c-.592.215-.969.915-.754 1.508v.054c.215.646.915 1.023 1.615.808l2.531-1.023c.646-.269.915-1.023.592-1.669v-.054zm-25.682 3.662c-.592-.592-1.454-.754-2.207-.484l-7.484-7.484 1.561-1.561-4.846-4.846-1.561 1.561-7.484-7.484c.269-.754.108-1.615-.485-2.207-.808-.808-2.154-.808-2.961 0s-.808 2.154 0 2.961c.592.592 1.454.754 2.207.485l7.484 7.484-2.1 2.1 4.846 4.846 2.1-2.1 7.538 7.43c-.269.754-.108 1.615.485 2.207.808.808 2.154.808 2.961 0a2.1 2.1 0 0 0-.054-2.907zm48.187-31.013h-7.107c-.538 0-.969-.431-.969-.969v-7.107c0-.538.431-.969.969-.969h7.107c.538 0 .969.431.969.969v7.107c0 .538-.431.969-.969.969zm-6.138-1.992h5.169v-5.169h-5.169v5.169zM8.076 40.434H.969c-.538 0-.969-.431-.969-.969v-7.107c0-.538.431-.969.969-.969h7.107c.538 0 .969.431.969.969v7.107c0 .538-.431.969-.969.969zm-6.138-1.992h5.169v-5.169H1.938v5.169zM41.35 9.045h-7.053c-.538 0-.969-.431-.969-.969V.969c0-.538.431-.969.969-.969h7.107c.538 0 .969.431.969.969v7.107c0 .538-.484.969-1.023.969zm-6.084-1.938h5.115V1.938h-5.169v5.169h.054z"/></svg>