<svg width="155" height="50" viewBox="0 0 155 50" fill="none" xmlns="http://www.w3.org/2000/svg">
<path d="M71.6729 46.3186C71.6729 45.749 72.1346 45.2872 72.7042 45.2872H143.87C144.44 45.2872 144.902 45.749 144.902 46.3186C144.902 46.8883 144.44 47.35 143.87 47.35H72.7042C72.1346 47.35 71.6729 46.8883 71.6729 46.3186Z" fill="#FFBB00"/>
<path d="M13.6793 38.7129V36.2162C13.2654 35.5755 12.8754 34.9438 12.5094 34.3212C12.1434 33.6985 11.7984 33.0878 11.4744 32.489H12.5004C12.7284 32.98 12.9834 33.4799 13.2654 33.9889C13.5474 34.4918 13.8383 34.9768 14.1384 35.4438C14.4324 34.9768 14.7203 34.4918 15.0024 33.9889C15.2843 33.4799 15.5424 32.98 15.7763 32.489H16.7483C16.4243 33.0878 16.0793 33.6985 15.7133 34.3212C15.3474 34.9379 14.9603 35.5635 14.5524 36.1982V38.7129H13.6793Z" fill="white"/>
<path d="M21.2108 36.3779C21.2108 36.7491 21.1568 37.0844 21.0488 37.3838C20.9408 37.6831 20.7878 37.9406 20.5898 38.1561C20.3978 38.3717 20.1668 38.5393 19.8968 38.6591C19.6268 38.7728 19.3328 38.8297 19.0148 38.8297C18.6968 38.8297 18.4028 38.7728 18.1328 38.6591C17.8628 38.5393 17.6288 38.3717 17.4308 38.1561C17.2389 37.9406 17.0888 37.6831 16.9809 37.3838C16.8729 37.0844 16.8188 36.7491 16.8188 36.3779C16.8188 36.0126 16.8729 35.6803 16.9809 35.3809C17.0888 35.0756 17.2389 34.8151 17.4308 34.5996C17.6288 34.3841 17.8628 34.2194 18.1328 34.1057C18.4028 33.9859 18.6968 33.926 19.0148 33.926C19.3328 33.926 19.6268 33.9859 19.8968 34.1057C20.1668 34.2194 20.3978 34.3841 20.5898 34.5996C20.7878 34.8151 20.9408 35.0756 21.0488 35.3809C21.1568 35.6803 21.2108 36.0126 21.2108 36.3779ZM20.3378 36.3779C20.3378 35.851 20.2178 35.4348 19.9778 35.1295C19.7438 34.8182 19.4228 34.6625 19.0148 34.6625C18.6069 34.6625 18.2829 34.8182 18.0428 35.1295C17.8089 35.4348 17.6919 35.851 17.6919 36.3779C17.6919 36.9048 17.8089 37.3238 18.0428 37.6352C18.2829 37.9406 18.6069 38.0933 19.0148 38.0933C19.4228 38.0933 19.7438 37.9406 19.9778 37.6352C20.2178 37.3238 20.3378 36.9048 20.3378 36.3779Z" fill="white"/>
<path d="M26.1144 38.5782C25.9224 38.6262 25.6674 38.6771 25.3494 38.731C25.0374 38.7848 24.6744 38.8118 24.2604 38.8118C23.9004 38.8118 23.5974 38.7609 23.3514 38.6591C23.1054 38.5513 22.9074 38.4017 22.7575 38.2101C22.6075 38.0185 22.4995 37.7939 22.4335 37.5364C22.3674 37.2731 22.3345 36.9827 22.3345 36.6653V34.0428H23.1715V36.4857C23.1715 37.0545 23.2614 37.4616 23.4414 37.7071C23.6214 37.9526 23.9244 38.0753 24.3505 38.0753C24.4405 38.0753 24.5334 38.0723 24.6294 38.0664C24.7255 38.0604 24.8154 38.0544 24.8994 38.0484C24.9834 38.0364 25.0584 38.0275 25.1244 38.0214C25.1964 38.0095 25.2474 37.9975 25.2774 37.9856V34.0428H26.1144V38.5782Z" fill="white"/>
<path d="M29.2844 33.9441C29.3564 33.9441 29.4374 33.9501 29.5274 33.9621C29.6234 33.9681 29.7164 33.98 29.8064 33.9981C29.8964 34.01 29.9774 34.025 30.0494 34.0429C30.1274 34.0549 30.1844 34.0669 30.2204 34.0789L30.0764 34.8063C30.0104 34.7824 29.8994 34.7554 29.7434 34.7255C29.5934 34.6896 29.3984 34.6716 29.1584 34.6716C29.0024 34.6716 28.8464 34.6896 28.6904 34.7255C28.5404 34.7554 28.4414 34.7763 28.3934 34.7883V38.7131H27.5564V34.2405C27.7544 34.1686 28.0004 34.1028 28.2944 34.0429C28.5884 33.9771 28.9184 33.9441 29.2844 33.9441Z" fill="white"/>
<path d="M37.0887 32.489H37.9617V38.7129H37.0887V35.839H34.0377V38.7129H33.1648V32.489H34.0377V35.0846H37.0887V32.489Z" fill="white"/>
<path d="M43.5872 36.3779C43.5872 36.7491 43.5332 37.0844 43.4252 37.3838C43.3172 37.6831 43.1643 37.9406 42.9663 38.1561C42.7742 38.3717 42.5433 38.5393 42.2732 38.6591C42.0033 38.7728 41.7093 38.8297 41.3913 38.8297C41.0732 38.8297 40.7793 38.7728 40.5093 38.6591C40.2393 38.5393 40.0053 38.3717 39.8073 38.1561C39.6153 37.9406 39.4653 37.6831 39.3573 37.3838C39.2493 37.0844 39.1953 36.7491 39.1953 36.3779C39.1953 36.0126 39.2493 35.6803 39.3573 35.3809C39.4653 35.0756 39.6153 34.8151 39.8073 34.5996C40.0053 34.3841 40.2393 34.2194 40.5093 34.1057C40.7793 33.9859 41.0732 33.926 41.3913 33.926C41.7093 33.926 42.0033 33.9859 42.2732 34.1057C42.5433 34.2194 42.7742 34.3841 42.9663 34.5996C43.1643 34.8151 43.3172 35.0756 43.4252 35.3809C43.5332 35.6803 43.5872 36.0126 43.5872 36.3779ZM42.7142 36.3779C42.7142 35.851 42.5943 35.4348 42.3543 35.1295C42.1203 34.8182 41.7992 34.6625 41.3913 34.6625C40.9832 34.6625 40.6592 34.8182 40.4193 35.1295C40.1853 35.4348 40.0682 35.851 40.0682 36.3779C40.0682 36.9048 40.1853 37.3238 40.4193 37.6352C40.6592 37.9406 40.9832 38.0933 41.3913 38.0933C41.7992 38.0933 42.1203 37.9406 42.3543 37.6352C42.5943 37.3238 42.7142 36.9048 42.7142 36.3779Z" fill="white"/>
<path d="M45.8541 38.1112C46.196 38.1112 46.448 38.0663 46.61 37.9765C46.778 37.8867 46.862 37.743 46.862 37.5454C46.862 37.3419 46.7811 37.1802 46.619 37.0604C46.457 36.9406 46.1901 36.8059 45.818 36.6563C45.6381 36.5844 45.464 36.5126 45.2961 36.4408C45.134 36.3629 44.993 36.2731 44.8731 36.1713C44.7531 36.0695 44.6571 35.9468 44.5851 35.8031C44.513 35.6594 44.4771 35.4828 44.4771 35.2732C44.4771 34.8601 44.63 34.5337 44.936 34.2943C45.242 34.0487 45.6591 33.926 46.187 33.926C46.3191 33.926 46.451 33.935 46.5831 33.953C46.715 33.9649 46.838 33.9829 46.952 34.0068C47.0661 34.0249 47.165 34.0458 47.249 34.0697C47.339 34.0937 47.408 34.1146 47.456 34.1326L47.303 34.8511C47.2131 34.8032 47.072 34.7553 46.88 34.7074C46.688 34.6535 46.4571 34.6265 46.187 34.6265C45.9531 34.6265 45.7491 34.6745 45.575 34.7703C45.4011 34.8601 45.3141 35.0038 45.3141 35.2014C45.3141 35.3031 45.3321 35.3929 45.368 35.4708C45.41 35.5486 45.4701 35.6204 45.548 35.6863C45.632 35.7462 45.734 35.8031 45.8541 35.8569C45.9741 35.9108 46.118 35.9678 46.286 36.0276C46.508 36.1115 46.706 36.1953 46.88 36.2791C47.054 36.3569 47.201 36.4497 47.3211 36.5575C47.447 36.6653 47.543 36.7969 47.609 36.9526C47.675 37.1024 47.708 37.288 47.708 37.5094C47.708 37.9406 47.546 38.2669 47.222 38.4884C46.904 38.7099 46.448 38.8207 45.8541 38.8207C45.4401 38.8207 45.1161 38.7848 44.8821 38.713C44.6481 38.6471 44.4891 38.5962 44.405 38.5603L44.5581 37.8418C44.6541 37.8777 44.807 37.9316 45.0171 38.0034C45.2271 38.0753 45.506 38.1112 45.8541 38.1112Z" fill="white"/>
<path d="M49.5645 34.0429H51.3375V34.7434H49.5645V36.8989C49.5645 37.1324 49.5825 37.327 49.6186 37.4826C49.6546 37.6324 49.7086 37.7521 49.7805 37.8419C49.8526 37.9257 49.9426 37.9856 50.0506 38.0215C50.1586 38.0575 50.2846 38.0754 50.4285 38.0754C50.6806 38.0754 50.8815 38.0484 51.0315 37.9946C51.1875 37.9347 51.2955 37.8928 51.3555 37.8689L51.5176 38.5604C51.4335 38.6023 51.2865 38.6532 51.0765 38.7131C50.8666 38.779 50.6265 38.8119 50.3566 38.8119C50.0386 38.8119 49.7746 38.7729 49.5645 38.6951C49.3606 38.6113 49.1956 38.4886 49.0696 38.3269C48.9435 38.1652 48.8536 37.9676 48.7996 37.7341C48.7516 37.4946 48.7275 37.2192 48.7275 36.9079V32.7406L49.5645 32.5969V34.0429Z" fill="white"/>
<path d="M53.2396 38.7129H52.4026V34.0427H53.2396V38.7129ZM52.8166 33.1985C52.6666 33.1985 52.5376 33.1505 52.4296 33.0548C52.3276 32.953 52.2766 32.8183 52.2766 32.6507C52.2766 32.483 52.3276 32.3513 52.4296 32.2555C52.5376 32.1537 52.6666 32.1028 52.8166 32.1028C52.9666 32.1028 53.0926 32.1537 53.1946 32.2555C53.3026 32.3513 53.3566 32.483 53.3566 32.6507C53.3566 32.8183 53.3026 32.953 53.1946 33.0548C53.0926 33.1505 52.9666 33.1985 52.8166 33.1985Z" fill="white"/>
<path d="M54.6787 34.1776C54.8707 34.1297 55.1258 34.0789 55.4437 34.025C55.7617 33.971 56.1277 33.9441 56.5417 33.9441C56.9137 33.9441 57.2227 33.9981 57.4687 34.1058C57.7146 34.2075 57.9097 34.3543 58.0537 34.5459C58.2037 34.7315 58.3087 34.956 58.3687 35.2194C58.4287 35.4829 58.4587 35.7733 58.4587 36.0906V38.7131H57.6217V36.2703C57.6217 35.9828 57.6007 35.7373 57.5587 35.5338C57.5227 35.3302 57.4597 35.1656 57.3697 35.0398C57.2797 34.9141 57.1597 34.8243 57.0097 34.7704C56.8597 34.7105 56.6737 34.6806 56.4517 34.6806C56.3617 34.6806 56.2687 34.6835 56.1727 34.6896C56.0767 34.6955 55.9837 34.7045 55.8937 34.7165C55.8097 34.7225 55.7317 34.7315 55.6597 34.7434C55.5937 34.7554 55.5457 34.7644 55.5157 34.7704V38.7131H54.6787V34.1776Z" fill="white"/>
<path d="M62.7806 38.246C62.7086 38.294 62.5676 38.3569 62.3576 38.4347C62.1536 38.5065 61.9136 38.5425 61.6376 38.5425C61.3556 38.5425 61.0886 38.4975 60.8367 38.4077C60.5907 38.3179 60.3747 38.1802 60.1887 37.9946C60.0027 37.803 59.8557 37.5665 59.7476 37.285C59.6396 37.0037 59.5857 36.6684 59.5857 36.2792C59.5857 35.9379 59.6367 35.6266 59.7386 35.3452C59.8407 35.0578 59.9877 34.8123 60.1797 34.6087C60.3776 34.3992 60.6176 34.2375 60.8996 34.1237C61.1817 34.004 61.4996 33.9441 61.8536 33.9441C62.2437 33.9441 62.5826 33.9741 62.8706 34.0339C63.1646 34.0878 63.4106 34.1387 63.6086 34.1866V38.3538C63.6086 39.0723 63.4226 39.5932 63.0507 39.9166C62.6786 40.2398 62.1146 40.4015 61.3587 40.4015C61.0647 40.4015 60.7857 40.3776 60.5217 40.3297C60.2637 40.2817 60.0387 40.2249 59.8466 40.159L59.9997 39.4316C60.1677 39.4974 60.3716 39.5543 60.6117 39.6022C60.8577 39.6561 61.1127 39.683 61.3767 39.683C61.8746 39.683 62.2316 39.5843 62.4476 39.3867C62.6696 39.1891 62.7806 38.8747 62.7806 38.4436V38.246ZM62.7716 34.7794C62.6876 34.7554 62.5736 34.7344 62.4296 34.7165C62.2916 34.6925 62.1026 34.6806 61.8626 34.6806C61.4126 34.6806 61.0647 34.8272 60.8187 35.1207C60.5786 35.414 60.4586 35.8032 60.4586 36.2882C60.4586 36.5576 60.4917 36.7881 60.5576 36.9797C60.6297 37.1713 60.7226 37.33 60.8367 37.4557C60.9567 37.5815 61.0917 37.6743 61.2417 37.7341C61.3977 37.794 61.5567 37.8239 61.7186 37.8239C61.9406 37.8239 62.1447 37.794 62.3306 37.7341C62.5166 37.6682 62.6636 37.5935 62.7716 37.5096V34.7794Z" fill="white"/>
<path d="M65.9319 37.6891C65.9379 37.737 65.9409 37.7849 65.9409 37.8328C65.9409 37.8747 65.9409 37.9196 65.9409 37.9675C65.9409 38.3447 65.8839 38.7159 65.7699 39.0811C65.6619 39.4524 65.5118 39.8056 65.3199 40.1409L64.6719 39.9344C64.8219 39.629 64.9208 39.3176 64.9689 39.0003C65.0169 38.689 65.0408 38.3956 65.0408 38.1202C65.0408 38.0424 65.0379 37.9675 65.0319 37.8957C65.0319 37.8238 65.0288 37.7549 65.0229 37.6891H65.9319Z" fill="white"/>
<path d="M69.1497 35.5965C69.1497 35.0636 69.2276 34.5937 69.3836 34.1865C69.5456 33.7793 69.7616 33.441 70.0316 33.1716C70.3076 32.8962 70.6256 32.6896 70.9856 32.5519C71.3516 32.4143 71.7385 32.3453 72.1466 32.3453C72.5486 32.3453 72.9266 32.4143 73.2806 32.5519C73.6406 32.6896 73.9556 32.8962 74.2255 33.1716C74.4955 33.441 74.7085 33.7793 74.8645 34.1865C75.0265 34.5937 75.1076 35.0636 75.1076 35.5965C75.1076 36.1294 75.0265 36.5994 74.8645 37.0065C74.7085 37.4137 74.4955 37.755 74.2255 38.0304C73.9556 38.2998 73.6406 38.5034 73.2806 38.6411C72.9266 38.7788 72.5486 38.8477 72.1466 38.8477C71.7385 38.8477 71.3516 38.7788 70.9856 38.6411C70.6256 38.5034 70.3076 38.2998 70.0316 38.0304C69.7616 37.755 69.5456 37.4137 69.3836 37.0065C69.2276 36.5994 69.1497 36.1294 69.1497 35.5965ZM70.0676 35.5965C70.0676 35.9737 70.1156 36.318 70.2116 36.6294C70.3076 36.9347 70.4426 37.1952 70.6166 37.4107C70.7966 37.6262 71.0126 37.7939 71.2646 37.9136C71.5225 38.0274 71.8106 38.0843 72.1286 38.0843C72.4465 38.0843 72.7315 38.0274 72.9836 37.9136C73.2355 37.7939 73.4485 37.6262 73.6226 37.4107C73.8025 37.1952 73.9405 36.9347 74.0366 36.6294C74.1326 36.318 74.1805 35.9737 74.1805 35.5965C74.1805 35.2193 74.1326 34.878 74.0366 34.5727C73.9405 34.2613 73.8025 33.9979 73.6226 33.7823C73.4485 33.5668 73.2355 33.4021 72.9836 33.2884C72.7315 33.1687 72.4465 33.1087 72.1286 33.1087C71.8106 33.1087 71.5225 33.1687 71.2646 33.2884C71.0126 33.4021 70.7966 33.5668 70.6166 33.7823C70.4426 33.9979 70.3076 34.2613 70.2116 34.5727C70.1156 34.878 70.0676 35.2193 70.0676 35.5965Z" fill="white"/>
<path d="M80.0783 38.5782C79.8863 38.6262 79.6313 38.6771 79.3133 38.731C79.0013 38.7848 78.6383 38.8118 78.2243 38.8118C77.8643 38.8118 77.5613 38.7609 77.3153 38.6591C77.0693 38.5513 76.8713 38.4017 76.7213 38.2101C76.5714 38.0185 76.4634 37.7939 76.3973 37.5364C76.3313 37.2731 76.2983 36.9827 76.2983 36.6653V34.0428H77.1353V36.4857C77.1353 37.0545 77.2253 37.4616 77.4053 37.7071C77.5853 37.9526 77.8884 38.0753 78.3143 38.0753C78.4043 38.0753 78.4973 38.0723 78.5933 38.0664C78.6893 38.0604 78.7793 38.0544 78.8633 38.0484C78.9473 38.0364 79.0223 38.0275 79.0883 38.0214C79.1603 38.0095 79.2113 37.9975 79.2413 37.9856V34.0428H80.0783V38.5782Z" fill="white"/>
<path d="M83.2482 33.9441C83.3206 33.9441 83.401 33.9501 83.4911 33.9621C83.5876 33.9681 83.68 33.98 83.7701 33.9981C83.8602 34.01 83.9414 34.025 84.013 34.0429C84.091 34.0549 84.1481 34.0669 84.1843 34.0789L84.0403 34.8063C83.9744 34.7824 83.8634 34.7554 83.7074 34.7255C83.557 34.6896 83.3624 34.6716 83.1219 34.6716C82.9659 34.6716 82.8099 34.6896 82.6539 34.7255C82.5043 34.7554 82.4054 34.7763 82.3572 34.7883V38.7131H81.5203V34.2405C81.7183 34.1686 81.9639 34.1028 82.2583 34.0429C82.5526 33.9771 82.8823 33.9441 83.2482 33.9441Z" fill="white"/>
<path d="M90.1792 36.1083C90.2757 36.228 90.3955 36.3867 90.5394 36.5843C90.6898 36.7759 90.8426 36.9914 90.9986 37.2309C91.1546 37.4644 91.3074 37.71 91.4578 37.9674C91.6138 38.2249 91.7457 38.4733 91.8535 38.7128H90.8997C90.7799 38.4853 90.6472 38.2548 90.5032 38.0213C90.3657 37.7878 90.2242 37.5662 90.0802 37.3567C89.9363 37.1412 89.7923 36.9405 89.6484 36.7549C89.5109 36.5693 89.3846 36.4077 89.2704 36.27C89.1924 36.2759 89.1112 36.2789 89.0276 36.2789C88.9496 36.2789 88.8683 36.2789 88.7847 36.2789H88.0014V38.7128H87.1289V32.5787C87.3742 32.5189 87.6476 32.48 87.9476 32.462C88.2539 32.438 88.5322 32.426 88.7847 32.426C89.6605 32.426 90.3263 32.5907 90.7823 32.92C91.2447 33.2493 91.4755 33.7403 91.4755 34.3929C91.4755 34.8061 91.3645 35.1593 91.1426 35.4527C90.9262 35.7461 90.6054 35.9646 90.1792 36.1083ZM88.8563 33.1894C88.4848 33.1894 88.1993 33.1984 88.0014 33.2164V35.5605H88.6223C88.9222 35.5605 89.1924 35.5455 89.4329 35.5155C89.6725 35.4856 89.8736 35.4287 90.0352 35.3449C90.2033 35.2611 90.3328 35.1443 90.4228 34.9946C90.5129 34.839 90.5579 34.6354 90.5579 34.384C90.5579 34.1504 90.5129 33.9558 90.4228 33.8002C90.3328 33.6445 90.2097 33.5217 90.0537 33.432C89.9033 33.3421 89.7232 33.2793 89.5133 33.2433C89.3098 33.2074 89.0903 33.1894 88.8563 33.1894Z" fill="white"/>
<path d="M92.4734 36.3868C92.4734 35.9737 92.5337 35.6145 92.6535 35.3091C92.7733 34.9978 92.9326 34.7403 93.1304 34.5367C93.3282 34.3332 93.5566 34.1805 93.8148 34.0787C94.0729 33.9769 94.3367 33.926 94.6069 33.926C95.2365 33.926 95.7199 34.1236 96.0552 34.5188C96.3913 34.9079 96.5594 35.5037 96.5594 36.306C96.5594 36.3419 96.5594 36.3899 96.5594 36.4497C96.5594 36.5036 96.5562 36.5545 96.5506 36.6024H93.3467C93.3829 37.0873 93.5236 37.4556 93.7697 37.707C94.0158 37.9585 94.3994 38.0843 94.9213 38.0843C95.2156 38.0843 95.4617 38.0603 95.6595 38.0125C95.8638 37.9585 96.0166 37.9077 96.1187 37.8597L96.2353 38.5603C96.1332 38.6141 95.9539 38.671 95.6957 38.7309C95.4432 38.7907 95.1553 38.8207 94.8312 38.8207C94.4235 38.8207 94.0697 38.7608 93.7697 38.6411C93.4754 38.5154 93.2325 38.3447 93.0403 38.1291C92.8489 37.9136 92.7042 37.6592 92.6085 37.3658C92.5184 37.0664 92.4734 36.7401 92.4734 36.3868ZM95.6869 35.9288C95.6925 35.5516 95.5968 35.2433 95.3982 35.0038C95.2068 34.7583 94.9398 34.6356 94.5972 34.6356C94.4058 34.6356 94.2345 34.6745 94.0842 34.7523C93.9402 34.8241 93.8172 34.9199 93.7158 35.0397C93.6137 35.1594 93.5325 35.2971 93.4722 35.4528C93.4183 35.6084 93.3829 35.7672 93.3644 35.9288H95.6869Z" fill="white"/>
<path d="M98.8509 38.1112C99.1935 38.1112 99.4452 38.0663 99.6068 37.9765C99.7749 37.8867 99.8594 37.743 99.8594 37.5454C99.8594 37.3419 99.7781 37.1802 99.6165 37.0604C99.454 36.9406 99.1871 36.8059 98.8155 36.6563C98.6354 36.5844 98.4609 36.5126 98.2936 36.4408C98.1312 36.3629 97.9904 36.2731 97.8706 36.1713C97.75 36.0695 97.6543 35.9468 97.5819 35.8031C97.5103 35.6594 97.4742 35.4828 97.4742 35.2732C97.4742 34.8601 97.627 34.5337 97.9333 34.2943C98.2389 34.0487 98.6563 33.926 99.1838 33.926C99.3165 33.926 99.4484 33.935 99.5803 33.953C99.7122 33.9649 99.8352 33.9829 99.9494 34.0068C100.063 34.0249 100.163 34.0458 100.246 34.0697C100.336 34.0937 100.405 34.1146 100.453 34.1326L100.3 34.8511C100.21 34.8032 100.069 34.7553 99.877 34.7074C99.6848 34.6535 99.454 34.6265 99.1838 34.6265C98.9498 34.6265 98.7464 34.6745 98.5719 34.7703C98.3982 34.8601 98.3113 35.0038 98.3113 35.2014C98.3113 35.3031 98.329 35.3929 98.3652 35.4708C98.407 35.5486 98.4673 35.6204 98.5453 35.6863C98.629 35.7462 98.7311 35.8031 98.8509 35.8569C98.9715 35.9108 99.1155 35.9678 99.2836 36.0276C99.5055 36.1115 99.7033 36.1953 99.877 36.2791C100.052 36.3569 100.198 36.4497 100.319 36.5575C100.444 36.6653 100.54 36.7969 100.606 36.9526C100.672 37.1024 100.705 37.288 100.705 37.5094C100.705 37.9406 100.543 38.2669 100.219 38.4884C99.9012 38.7099 99.4452 38.8207 98.8509 38.8207C98.4376 38.8207 98.1135 38.7848 97.8795 38.713C97.6455 38.6471 97.4862 38.5962 97.4026 38.5603L97.5554 37.8418C97.6511 37.8777 97.8039 37.9316 98.0146 38.0034C98.2245 38.0753 98.5035 38.1112 98.8509 38.1112Z" fill="white"/>
<path d="M105.028 36.3869C105.028 35.8421 104.893 35.423 104.622 35.1296C104.353 34.8362 103.993 34.6896 103.542 34.6896C103.291 34.6896 103.093 34.6986 102.949 34.7165C102.811 34.7344 102.7 34.7554 102.616 34.7794V37.7252C102.717 37.809 102.864 37.8898 103.057 37.9676C103.249 38.0455 103.459 38.0844 103.686 38.0844C103.927 38.0844 104.131 38.0425 104.298 37.9586C104.473 37.8689 104.614 37.7491 104.721 37.5994C104.83 37.4437 104.908 37.2641 104.955 37.0605C105.004 36.851 105.028 36.6265 105.028 36.3869ZM105.9 36.3869C105.9 36.7402 105.853 37.0666 105.756 37.3659C105.666 37.6653 105.532 37.9228 105.352 38.1383C105.172 38.3538 104.95 38.5215 104.686 38.6412C104.428 38.761 104.13 38.8209 103.795 38.8209C103.525 38.8209 103.285 38.7849 103.074 38.7131C102.871 38.6412 102.717 38.5724 102.616 38.5065V40.3745H101.779V34.1866C101.977 34.1387 102.223 34.0878 102.517 34.0339C102.817 33.9741 103.162 33.9441 103.552 33.9441C103.911 33.9441 104.236 34.001 104.523 34.1147C104.811 34.2285 105.057 34.3902 105.262 34.5997C105.466 34.8093 105.622 35.0667 105.73 35.3722C105.844 35.6715 105.9 36.0098 105.9 36.3869Z" fill="white"/>
<path d="M111.209 36.3779C111.209 36.7491 111.155 37.0844 111.047 37.3838C110.939 37.6831 110.786 37.9406 110.588 38.1561C110.396 38.3717 110.165 38.5393 109.895 38.6591C109.625 38.7728 109.331 38.8297 109.013 38.8297C108.695 38.8297 108.401 38.7728 108.131 38.6591C107.861 38.5393 107.627 38.3717 107.43 38.1561C107.237 37.9406 107.087 37.6831 106.979 37.3838C106.872 37.0844 106.818 36.7491 106.818 36.3779C106.818 36.0126 106.872 35.6803 106.979 35.3809C107.087 35.0756 107.237 34.8151 107.43 34.5996C107.627 34.3841 107.861 34.2194 108.131 34.1057C108.401 33.9859 108.695 33.926 109.013 33.926C109.331 33.926 109.625 33.9859 109.895 34.1057C110.165 34.2194 110.396 34.3841 110.588 34.5996C110.786 34.8151 110.939 35.0756 111.047 35.3809C111.155 35.6803 111.209 36.0126 111.209 36.3779ZM110.336 36.3779C110.336 35.851 110.216 35.4348 109.976 35.1295C109.742 34.8182 109.422 34.6625 109.013 34.6625C108.605 34.6625 108.281 34.8182 108.042 35.1295C107.808 35.4348 107.69 35.851 107.69 36.3779C107.69 36.9048 107.808 37.3238 108.042 37.6352C108.281 37.9406 108.605 38.0933 109.013 38.0933C109.422 38.0933 109.742 37.9406 109.976 37.6352C110.216 37.3238 110.336 36.9048 110.336 36.3779Z" fill="white"/>
<path d="M112.387 34.1776C112.579 34.1297 112.834 34.0789 113.151 34.025C113.47 33.971 113.836 33.9441 114.25 33.9441C114.622 33.9441 114.931 33.9981 115.177 34.1058C115.422 34.2075 115.618 34.3543 115.762 34.5459C115.912 34.7315 116.017 34.956 116.077 35.2194C116.137 35.4829 116.167 35.7733 116.167 36.0906V38.7131H115.33V36.2703C115.33 35.9828 115.309 35.7373 115.266 35.5338C115.231 35.3302 115.168 35.1656 115.078 35.0398C114.988 34.9141 114.868 34.8243 114.718 34.7704C114.568 34.7105 114.382 34.6806 114.16 34.6806C114.07 34.6806 113.977 34.6835 113.881 34.6896C113.785 34.6955 113.692 34.7045 113.602 34.7165C113.518 34.7225 113.44 34.7315 113.368 34.7434C113.302 34.7554 113.254 34.7644 113.224 34.7704V38.7131H112.387V34.1776Z" fill="white"/>
<path d="M118.644 38.1112C118.986 38.1112 119.238 38.0663 119.4 37.9765C119.568 37.8867 119.652 37.743 119.652 37.5454C119.652 37.3419 119.571 37.1802 119.409 37.0604C119.247 36.9406 118.98 36.8059 118.608 36.6563C118.428 36.5844 118.254 36.5126 118.086 36.4408C117.924 36.3629 117.783 36.2731 117.663 36.1713C117.543 36.0695 117.447 35.9468 117.375 35.8031C117.303 35.6594 117.267 35.4828 117.267 35.2732C117.267 34.8601 117.42 34.5337 117.726 34.2943C118.032 34.0487 118.449 33.926 118.977 33.926C119.109 33.926 119.241 33.935 119.373 33.953C119.505 33.9649 119.628 33.9829 119.742 34.0068C119.856 34.0249 119.955 34.0458 120.039 34.0697C120.129 34.0937 120.198 34.1146 120.246 34.1326L120.093 34.8511C120.003 34.8032 119.862 34.7553 119.67 34.7074C119.478 34.6535 119.247 34.6265 118.977 34.6265C118.743 34.6265 118.539 34.6745 118.365 34.7703C118.191 34.8601 118.104 35.0038 118.104 35.2014C118.104 35.3031 118.122 35.3929 118.158 35.4708C118.2 35.5486 118.26 35.6204 118.338 35.6863C118.422 35.7462 118.524 35.8031 118.644 35.8569C118.764 35.9108 118.908 35.9678 119.076 36.0276C119.298 36.1115 119.496 36.1953 119.67 36.2791C119.844 36.3569 119.991 36.4497 120.111 36.5575C120.237 36.6653 120.333 36.7969 120.399 36.9526C120.465 37.1024 120.498 37.288 120.498 37.5094C120.498 37.9406 120.336 38.2669 120.012 38.4884C119.694 38.7099 119.238 38.8207 118.644 38.8207C118.23 38.8207 117.906 38.7848 117.672 38.713C117.438 38.6471 117.279 38.5962 117.195 38.5603L117.348 37.8418C117.444 37.8777 117.597 37.9316 117.807 38.0034C118.017 38.0753 118.296 38.1112 118.644 38.1112Z" fill="white"/>
<path d="M122.408 38.7129H121.571V34.0427H122.408V38.7129ZM121.985 33.1985C121.835 33.1985 121.706 33.1505 121.599 33.0548C121.497 32.953 121.445 32.8183 121.445 32.6507C121.445 32.483 121.497 32.3513 121.599 32.2555C121.706 32.1537 121.835 32.1028 121.985 32.1028C122.135 32.1028 122.261 32.1537 122.363 32.2555C122.471 32.3513 122.525 32.483 122.525 32.6507C122.525 32.8183 122.471 32.953 122.363 33.0548C122.261 33.1505 122.135 33.1985 121.985 33.1985Z" fill="white"/>
<path d="M124.685 34.2495C124.786 34.1836 124.94 34.1147 125.143 34.0429C125.353 33.971 125.594 33.9352 125.864 33.9352C126.199 33.9352 126.497 33.995 126.755 34.1147C127.019 34.2345 127.24 34.4021 127.421 34.6177C127.601 34.8333 127.735 35.0907 127.825 35.3901C127.922 35.6895 127.969 36.0188 127.969 36.378C127.969 36.7552 127.913 37.0965 127.799 37.4018C127.69 37.7012 127.535 37.9556 127.331 38.1652C127.126 38.3748 126.88 38.5364 126.592 38.6502C126.304 38.7639 125.98 38.8209 125.62 38.8209C125.231 38.8209 124.885 38.7939 124.585 38.74C124.285 38.6862 124.04 38.6322 123.848 38.5783V31.8875L124.685 31.7438V34.2495ZM124.685 37.9856C124.768 38.0095 124.886 38.0335 125.035 38.0575C125.191 38.0754 125.384 38.0844 125.611 38.0844C126.062 38.0844 126.422 37.9377 126.691 37.6443C126.961 37.345 127.097 36.9228 127.097 36.378C127.097 36.1385 127.072 35.914 127.024 35.7044C126.977 35.4949 126.899 35.3152 126.79 35.1656C126.682 35.0099 126.542 34.8901 126.367 34.8063C126.199 34.7165 125.996 34.6716 125.755 34.6716C125.528 34.6716 125.318 34.7105 125.125 34.7883C124.933 34.8662 124.786 34.947 124.685 35.0309V37.9856Z" fill="white"/>
<path d="M129.985 38.7129H129.148V34.0427H129.985V38.7129ZM129.562 33.1985C129.411 33.1985 129.283 33.1505 129.175 33.0548C129.073 32.953 129.021 32.8183 129.021 32.6507C129.021 32.483 129.073 32.3513 129.175 32.2555C129.283 32.1537 129.411 32.1028 129.562 32.1028C129.711 32.1028 129.837 32.1537 129.94 32.2555C130.047 32.3513 130.101 32.483 130.101 32.6507C130.101 32.8183 130.047 32.953 129.94 33.0548C129.837 33.1505 129.711 33.1985 129.562 33.1985Z" fill="white"/>
<path d="M132.828 38.8028C132.312 38.7909 131.946 38.6801 131.73 38.4706C131.514 38.261 131.406 37.9347 131.406 37.4916V31.8875L132.243 31.7438V37.3569C132.243 37.4946 132.255 37.6084 132.279 37.6982C132.303 37.7881 132.342 37.8599 132.396 37.9137C132.45 37.9676 132.522 38.0095 132.612 38.0395C132.702 38.0634 132.813 38.0844 132.945 38.1023L132.828 38.8028Z" fill="white"/>
<path d="M134.722 38.7129H133.885V34.0427H134.722V38.7129ZM134.299 33.1985C134.148 33.1985 134.02 33.1505 133.911 33.0548C133.81 32.953 133.758 32.8183 133.758 32.6507C133.758 32.483 133.81 32.3513 133.911 32.2555C134.02 32.1537 134.148 32.1028 134.299 32.1028C134.448 32.1028 134.575 32.1537 134.677 32.2555C134.784 32.3513 134.838 32.483 134.838 32.6507C134.838 32.8183 134.784 32.953 134.677 33.0548C134.575 33.1505 134.448 33.1985 134.299 33.1985Z" fill="white"/>
<path d="M136.944 34.0429H138.717V34.7434H136.944V36.8989C136.944 37.1324 136.962 37.327 136.998 37.4826C137.034 37.6324 137.088 37.7521 137.16 37.8419C137.232 37.9257 137.322 37.9856 137.43 38.0215C137.538 38.0575 137.664 38.0754 137.808 38.0754C138.06 38.0754 138.261 38.0484 138.411 37.9946C138.567 37.9347 138.675 37.8928 138.735 37.8689L138.897 38.5604C138.813 38.6023 138.666 38.6532 138.456 38.7131C138.246 38.779 138.006 38.8119 137.736 38.8119C137.418 38.8119 137.154 38.7729 136.944 38.6951C136.74 38.6113 136.575 38.4886 136.449 38.3269C136.323 38.1652 136.233 37.9676 136.179 37.7341C136.131 37.4946 136.107 37.2192 136.107 36.9079V32.7406L136.944 32.5969V34.0429Z" fill="white"/>
<path d="M139.233 39.5842C139.299 39.6141 139.383 39.641 139.485 39.665C139.593 39.6949 139.698 39.7099 139.8 39.7099C140.13 39.7099 140.388 39.635 140.574 39.4854C140.76 39.3417 140.928 39.1051 141.078 38.7758C140.7 38.0574 140.346 37.297 140.016 36.4947C139.692 35.6863 139.422 34.8691 139.206 34.0428H140.106C140.172 34.3122 140.25 34.6026 140.34 34.914C140.435 35.2253 140.541 35.5457 140.655 35.875C140.769 36.2043 140.891 36.5336 141.024 36.8629C141.156 37.1922 141.293 37.5095 141.437 37.8149C141.666 37.1862 141.864 36.5635 142.032 35.9468C142.2 35.3301 142.359 34.6954 142.509 34.0428H143.373C143.157 34.923 142.917 35.7702 142.653 36.5845C142.389 37.3928 142.104 38.1502 141.798 38.8567C141.678 39.1261 141.552 39.3566 141.42 39.5482C141.293 39.7458 141.153 39.9075 140.997 40.0332C140.841 40.1589 140.664 40.2517 140.466 40.3117C140.274 40.3715 140.055 40.4014 139.809 40.4014C139.743 40.4014 139.674 40.3954 139.602 40.3835C139.53 40.3775 139.458 40.3655 139.386 40.3475C139.32 40.3355 139.257 40.3206 139.197 40.3026C139.143 40.2847 139.104 40.2697 139.08 40.2578L139.233 39.5842Z" fill="white"/>
<path d="M145 38.2281C145 38.3898 144.946 38.5305 144.838 38.6502C144.73 38.77 144.583 38.8298 144.397 38.8298C144.211 38.8298 144.064 38.77 143.956 38.6502C143.848 38.5305 143.794 38.3898 143.794 38.2281C143.794 38.0665 143.848 37.9257 143.956 37.806C144.064 37.6863 144.211 37.6263 144.397 37.6263C144.583 37.6263 144.73 37.6863 144.838 37.806C144.946 37.9257 145 38.0665 145 38.2281Z" fill="white"/>
<path d="M137.736 25.6462C136.708 25.6462 135.784 25.4467 134.964 25.0478C134.166 24.6277 133.484 24.0608 132.917 23.3468C132.371 22.6328 131.951 21.8139 131.657 20.8899C131.384 19.9449 131.247 18.9369 131.247 17.866C131.268 16.795 131.426 15.7975 131.72 14.8736C132.014 13.9286 132.434 13.1096 132.98 12.4166C133.547 11.7026 134.229 11.1462 135.028 10.7472C135.825 10.3482 136.729 10.1487 137.736 10.1487C138.702 10.1487 139.605 10.3482 140.445 10.7472C141.306 11.1462 142.062 11.7026 142.713 12.4166C143.385 13.1096 143.91 13.9286 144.288 14.8736C144.666 15.7975 144.855 16.7845 144.855 17.8345C144.855 18.9265 144.666 19.9554 144.288 20.9214C143.91 21.8664 143.395 22.6958 142.745 23.4098C142.093 24.1028 141.337 24.6487 140.477 25.0478C139.616 25.4467 138.702 25.6462 137.736 25.6462ZM137.232 21.9609C137.967 21.9609 138.629 21.7929 139.217 21.4569C139.804 21.0998 140.267 20.6168 140.602 20.0079C140.959 19.3989 141.138 18.7059 141.138 17.9289C141.138 17.131 140.959 16.4275 140.602 15.8185C140.267 15.1886 139.804 14.7056 139.217 14.3696C138.629 14.0126 137.967 13.8341 137.232 13.8341C136.519 13.8341 135.867 14.0126 135.279 14.3696C134.692 14.7266 134.219 15.2095 133.862 15.8185C133.525 16.4275 133.358 17.131 133.358 17.9289C133.358 18.7059 133.525 19.3989 133.862 20.0079C134.219 20.6168 134.692 21.0998 135.279 21.4569C135.867 21.7929 136.519 21.9609 137.232 21.9609ZM131.405 25.6777C130.838 25.6777 130.418 25.5832 130.145 25.3942C129.872 25.2262 129.704 25.0057 129.641 24.7328C129.578 24.4388 129.546 24.1132 129.546 23.7563V4.98284C129.546 4.62585 129.578 4.31086 129.641 4.03787C129.704 3.74388 129.872 3.51289 130.145 3.34489C130.418 3.17689 130.838 3.0929 131.405 3.0929C131.993 3.0929 132.412 3.17689 132.665 3.34489C132.917 3.51289 133.074 3.74388 133.137 4.03787C133.201 4.33186 133.232 4.64685 133.232 4.98284V24.3863C133.148 24.8483 132.969 25.1737 132.696 25.3627C132.445 25.5727 132.014 25.6777 131.405 25.6777Z" fill="white" stroke="white" stroke-width="0.4"/>
<path d="M120.159 25.8675C118.793 25.8675 117.596 25.647 116.567 25.206C115.559 24.7651 114.709 24.1665 114.016 23.4106C113.344 22.6336 112.829 21.7726 112.472 20.8276C112.137 19.8617 111.969 18.8642 111.969 17.8352C111.969 16.3233 112.315 14.9793 113.008 13.8034C113.701 12.6274 114.656 11.7034 115.875 11.0315C117.113 10.3594 118.531 10.0234 120.127 10.0234C121.261 10.0234 122.258 10.202 123.119 10.5589C123.98 10.9159 124.694 11.3884 125.261 11.9764C125.849 12.5434 126.29 13.1734 126.584 13.8664C126.899 14.5593 127.057 15.2313 127.057 15.8823C127.057 16.9953 126.783 17.8037 126.237 18.3078C125.713 18.8117 125.051 19.0637 124.253 19.0637H115.937C115.958 19.7777 116.179 20.3972 116.599 20.9221C117.04 21.4471 117.586 21.8566 118.237 22.1506C118.909 22.4236 119.592 22.5601 120.284 22.5601C120.809 22.5601 121.271 22.5286 121.67 22.4656C122.09 22.4026 122.447 22.3291 122.742 22.2451C123.035 22.1401 123.287 22.0351 123.497 21.9301C123.728 21.8251 123.938 21.7306 124.127 21.6466C124.316 21.5626 124.495 21.5102 124.663 21.4891C124.893 21.4681 125.124 21.5206 125.356 21.6466C125.587 21.7726 125.776 21.9931 125.923 22.3081C126.048 22.5181 126.133 22.7176 126.175 22.9066C126.237 23.0746 126.269 23.2426 126.269 23.4106C126.269 23.8305 126.017 24.2296 125.513 24.6075C125.009 24.9645 124.295 25.2585 123.371 25.4895C122.468 25.7415 121.397 25.8675 120.159 25.8675ZM115.937 16.8273H122.395C122.752 16.8273 123.025 16.7748 123.214 16.6698C123.403 16.5438 123.497 16.2918 123.497 15.9138C123.497 15.4308 123.35 15.0003 123.056 14.6224C122.762 14.2233 122.364 13.9189 121.859 13.7088C121.355 13.4779 120.767 13.3624 120.095 13.3624C119.318 13.3624 118.614 13.5198 117.985 13.8348C117.355 14.1288 116.851 14.5383 116.473 15.0633C116.116 15.5883 115.937 16.1763 115.937 16.8273Z" fill="white" stroke="white" stroke-width="0.4"/>
<path d="M91.9767 25.5845C91.557 25.5845 91.2208 25.511 90.9683 25.364C90.7166 25.196 90.5276 25.007 90.4014 24.7971C90.2968 24.587 90.2228 24.4086 90.181 24.2616L84.0073 6.1811C83.7974 5.50912 83.7661 5.00514 83.9132 4.66914C84.0596 4.31215 84.4906 4.01816 85.2048 3.78717C85.6873 3.61918 86.0757 3.54568 86.37 3.56668C86.6635 3.58768 86.9056 3.71368 87.0946 3.94467C87.3045 4.15466 87.483 4.49065 87.6302 4.95264L92.1657 18.6862L96.2292 5.07863C96.292 4.86864 96.3764 4.65865 96.4809 4.44865C96.6072 4.21766 96.7962 4.02866 97.0479 3.88167C97.2996 3.73467 97.6462 3.66118 98.0877 3.66118C98.5911 3.66118 98.9691 3.74518 99.2216 3.91317C99.4733 4.08116 99.6518 4.27016 99.7572 4.48015C99.8826 4.66914 99.9671 4.84764 100.009 5.01564L104.072 18.7807L108.639 4.98414C108.786 4.50115 108.955 4.14416 109.144 3.91317C109.353 3.68218 109.616 3.55618 109.931 3.53518C110.246 3.49319 110.634 3.55618 111.097 3.72418C111.579 3.89217 111.926 4.08116 112.136 4.29116C112.346 4.48015 112.451 4.73214 112.451 5.04713C112.451 5.34112 112.377 5.71911 112.231 6.1811L106.088 24.2931C106.046 24.419 105.962 24.587 105.836 24.7971C105.731 25.007 105.553 25.196 105.3 25.364C105.049 25.511 104.702 25.5845 104.261 25.5845C103.821 25.5845 103.474 25.49 103.222 25.301C102.97 25.1121 102.781 24.902 102.655 24.671C102.529 24.4401 102.445 24.272 102.403 24.1671L98.1191 10.3075L93.8352 24.1355C93.7934 24.2825 93.7089 24.4715 93.5835 24.7026C93.4781 24.9335 93.2996 25.1435 93.0479 25.3325C92.7954 25.5005 92.4383 25.5845 91.9767 25.5845Z" fill="white" stroke="white" stroke-width="0.4"/>
<path d="M75.5983 25.8676C75.0523 25.8676 74.4748 25.8045 73.8658 25.6785C73.2569 25.5736 72.6688 25.416 72.1019 25.2061C71.5349 24.9751 71.0414 24.7126 70.6214 24.4186C70.2224 24.1036 69.9704 23.7571 69.8655 23.3791C69.7814 23.1692 69.7499 22.9696 69.771 22.7807C69.792 22.5706 69.8549 22.3606 69.96 22.1507C70.0649 21.9197 70.2224 21.6887 70.4324 21.4577C70.6214 21.2267 70.8104 21.1007 70.9994 21.0797C71.2094 21.0377 71.4719 21.1007 71.7869 21.2687C72.0598 21.3737 72.3538 21.5102 72.6688 21.6782C73.0048 21.8462 73.3408 22.0142 73.6768 22.1822C74.0338 22.3502 74.3908 22.4867 74.7478 22.5917C75.1258 22.6966 75.4933 22.7491 75.8502 22.7491C76.6272 22.7491 77.2467 22.6231 77.7087 22.3712C78.1707 22.0982 78.4017 21.7202 78.4017 21.2372C78.4017 20.9642 78.3282 20.7227 78.1812 20.5127C78.0341 20.3028 77.8347 20.1348 77.5827 20.0087C77.3517 19.8617 77.0682 19.7357 76.7322 19.6308C76.4172 19.5048 76.0707 19.3997 75.6928 19.3158C75.3357 19.2108 74.9578 19.0953 74.5588 18.9693C74.0338 18.8223 73.5088 18.6438 72.9838 18.4338C72.4589 18.2238 71.9864 17.9508 71.5664 17.6148C71.1674 17.2788 70.8419 16.8589 70.59 16.3549C70.3379 15.8508 70.2119 15.2209 70.2119 14.4649C70.2119 13.5199 70.4324 12.7219 70.8734 12.0709C71.3354 11.399 71.9969 10.8845 72.8578 10.5275C73.7189 10.1705 74.7582 9.99207 75.9763 9.99207C76.3962 9.99207 76.7952 10.0235 77.1732 10.0866C77.5722 10.1495 77.9502 10.244 78.3072 10.37C78.6851 10.4751 79.0422 10.6115 79.3782 10.7795C79.7351 10.9475 80.0711 11.1365 80.3861 11.3465C80.9111 11.6405 81.1841 11.987 81.2051 12.3859C81.2261 12.764 81.0791 13.1735 80.7641 13.6144C80.5331 13.9084 80.3021 14.1184 80.0711 14.2444C79.8401 14.3494 79.5986 14.3494 79.3466 14.2444C79.0107 14.0764 78.6432 13.8979 78.2442 13.7089C77.8662 13.4989 77.4672 13.3204 77.0472 13.1735C76.6482 13.0265 76.2282 12.953 75.7873 12.953C75.3673 12.953 74.9893 13.0159 74.6533 13.1419C74.3173 13.268 74.0653 13.4464 73.8973 13.6775C73.7293 13.9084 73.6453 14.1814 73.6453 14.4964C73.6453 14.7904 73.7293 15.0318 73.8973 15.2209C74.0653 15.4099 74.2858 15.5674 74.5588 15.6934C74.8317 15.8194 75.1573 15.9349 75.5352 16.0399C75.9132 16.1238 76.3122 16.2079 76.7322 16.2918C77.3202 16.4178 77.9187 16.5753 78.5277 16.7644C79.1367 16.9534 79.6931 17.2158 80.1971 17.5518C80.7221 17.8878 81.1421 18.3393 81.4571 18.9063C81.7724 19.4523 81.9293 20.1662 81.9293 21.0482C81.9293 22.5811 81.3626 23.7676 80.2286 24.6076C79.1156 25.4476 77.5722 25.8676 75.5983 25.8676Z" fill="white" stroke="white" stroke-width="0.4"/>
<path d="M60.7283 25.8673C59.3634 25.8673 58.1664 25.6468 57.1374 25.2058C56.1295 24.7647 55.279 24.1663 54.586 23.4103C53.914 22.6333 53.3995 21.7724 53.0426 20.8274C52.7066 19.8614 52.5386 18.8639 52.5386 17.835C52.5386 16.323 52.8851 14.9791 53.5781 13.8031C54.271 12.6271 55.2265 11.7032 56.4445 11.0312C57.6835 10.3592 59.1009 10.0232 60.6968 10.0232C61.8308 10.0232 62.8283 10.2017 63.6892 10.5587C64.5502 10.9157 65.2642 11.3882 65.8312 11.9761C66.4192 12.5432 66.8601 13.1732 67.1541 13.8661C67.4691 14.5591 67.6266 15.231 67.6266 15.882C67.6266 16.995 67.3536 17.8035 66.8077 18.3074C66.2826 18.8115 65.6212 19.0634 64.8232 19.0634H56.5074C56.5284 19.7774 56.7489 20.3969 57.1689 20.9219C57.61 21.4469 58.1559 21.8563 58.8069 22.1504C59.4789 22.4234 60.1614 22.5598 60.8543 22.5598C61.3793 22.5598 61.8413 22.5283 62.2403 22.4654C62.6603 22.4024 63.0173 22.3289 63.3113 22.2448C63.6053 22.1398 63.8572 22.0349 64.0672 21.9299C64.2982 21.8248 64.5082 21.7303 64.6972 21.6464C64.8862 21.5623 65.0647 21.5099 65.2327 21.4888C65.4636 21.4679 65.6947 21.5204 65.9256 21.6464C66.1567 21.7724 66.3457 21.9929 66.4927 22.3078C66.6186 22.5179 66.7026 22.7173 66.7446 22.9064C66.8077 23.0744 66.8391 23.2423 66.8391 23.4103C66.8391 23.8303 66.5872 24.2293 66.0832 24.6073C65.5792 24.9643 64.8652 25.2583 63.9413 25.4892C63.0382 25.7413 61.9673 25.8673 60.7283 25.8673ZM56.5074 16.827H62.9647C63.3217 16.827 63.5947 16.7745 63.7837 16.6695C63.9727 16.5435 64.0672 16.2915 64.0672 15.9136C64.0672 15.4306 63.9202 15.0001 63.6263 14.622C63.3323 14.2231 62.9332 13.9186 62.4292 13.7086C61.9253 13.4776 61.3373 13.3621 60.6654 13.3621C59.8884 13.3621 59.1849 13.5196 58.5549 13.8346C57.9249 14.1286 57.4209 14.5381 57.0429 15.0631C56.686 15.588 56.5074 16.176 56.5074 16.827Z" fill="white" stroke="white" stroke-width="0.4"/>
<path d="M49.483 25.6793C48.706 25.6793 48.013 25.6268 47.404 25.5218C46.8161 25.4169 46.3016 25.2383 45.8607 24.9863C45.4406 24.7344 45.0941 24.3984 44.8212 23.9783C44.5482 23.5374 44.3382 23.0019 44.1912 22.3719C44.0652 21.7419 44.0022 20.9859 44.0022 20.104V4.92144C44.0022 4.56446 44.0336 4.24946 44.0967 3.97647C44.1806 3.68248 44.3486 3.45149 44.6007 3.28349C44.8737 3.0945 45.3042 3 45.8921 3C46.4801 3 46.9001 3.084 47.1521 3.25199C47.4251 3.41999 47.5931 3.65098 47.6561 3.94497C47.7401 4.21796 47.7821 4.53296 47.7821 4.88994V19.9465C47.7821 20.3455 47.8031 20.6815 47.845 20.9545C47.908 21.2064 48.0026 21.4165 48.1285 21.5845C48.2755 21.7314 48.454 21.8364 48.664 21.8994C48.8951 21.9624 49.168 21.994 49.483 21.994C49.756 21.994 49.9975 22.0254 50.2075 22.0884C50.4384 22.1514 50.617 22.309 50.743 22.5609C50.89 22.8129 50.9635 23.2224 50.9635 23.7894C50.9635 24.3774 50.89 24.8079 50.743 25.0808C50.617 25.3538 50.4384 25.5218 50.2075 25.5849C49.9765 25.6478 49.735 25.6793 49.483 25.6793Z" fill="white" stroke="white" stroke-width="0.4"/>
<path d="M38.7285 25.6788C38.1616 25.6788 37.7416 25.5843 37.4686 25.3953C37.1956 25.2273 37.0276 25.0068 36.9646 24.7339C36.9016 24.4399 36.8702 24.1143 36.8702 23.7574V12.0398C36.8702 11.7038 36.9016 11.3992 36.9646 11.1262C37.0486 10.8323 37.2166 10.6012 37.4686 10.4333C37.7416 10.2653 38.1721 10.1813 38.7601 10.1813C39.3481 10.1813 39.768 10.2653 40.02 10.4333C40.293 10.6012 40.461 10.8323 40.524 11.1262C40.587 11.4202 40.6185 11.7458 40.6185 12.1027V23.7889C40.6185 24.1459 40.587 24.4714 40.524 24.7653C40.461 25.0383 40.293 25.2588 40.02 25.4268C39.768 25.5948 39.3375 25.6788 38.7285 25.6788ZM38.7285 7.12587C38.1196 7.12587 37.6681 7.04188 37.3741 6.87388C37.1011 6.68489 36.9226 6.4329 36.8386 6.11791C36.7757 5.80291 36.7441 5.45642 36.7441 5.07844C36.7441 4.67945 36.7757 4.33296 36.8386 4.03897C36.9226 3.74498 37.1117 3.51398 37.4056 3.34599C37.6996 3.157 38.1511 3.0625 38.7601 3.0625C39.39 3.0625 39.8415 3.157 40.1145 3.34599C40.3875 3.53499 40.566 3.78698 40.65 4.10196C40.734 4.39596 40.776 4.74245 40.776 5.14144C40.776 5.49843 40.734 5.83441 40.65 6.14941C40.566 6.4644 40.3875 6.70589 40.1145 6.87388C39.8415 7.04188 39.3795 7.12587 38.7285 7.12587Z" fill="white" stroke="white" stroke-width="0.4"/>
<path d="M12.8585 25.6471C12.3124 25.6471 11.9029 25.5631 11.63 25.3951C11.357 25.2271 11.1785 24.9962 11.0945 24.7021C11.0315 24.4081 11 24.0826 11 23.7256V5.55071C11 5.21472 11.0315 4.91023 11.0945 4.63723C11.1785 4.34324 11.357 4.11225 11.63 3.94426C11.9029 3.75526 12.3335 3.66077 12.9214 3.66077C13.3624 3.66077 13.6879 3.69227 13.8979 3.75526C14.1289 3.79726 14.3074 3.87075 14.4334 3.97576C14.5594 4.05975 14.6854 4.17525 14.8114 4.32224L22.4971 15.0634H21.7727L29.4899 4.29074C29.6369 4.12275 29.7839 3.99675 29.9309 3.91276C30.0779 3.82876 30.2669 3.76576 30.4979 3.72376C30.7289 3.68176 31.0334 3.66077 31.4113 3.66077C31.9783 3.66077 32.3983 3.75526 32.6713 3.94426C32.9443 4.11225 33.1123 4.34324 33.1753 4.63723C33.2593 4.93122 33.3013 5.25671 33.3013 5.6137V23.7887C33.3013 24.1037 33.2593 24.4081 33.1753 24.7021C33.1123 24.9962 32.9443 25.2271 32.6713 25.3951C32.3983 25.5631 31.9678 25.6471 31.3799 25.6471C30.8129 25.6471 30.3929 25.5526 30.1199 25.3636C29.8469 25.1956 29.6684 24.9646 29.5844 24.6706C29.5214 24.3766 29.4899 24.0616 29.4899 23.7256V10.2125L23.7571 18.4968C23.6941 18.5808 23.5996 18.6963 23.4736 18.8433C23.3476 18.9693 23.1796 19.0848 22.9696 19.1898C22.7597 19.2948 22.4761 19.3473 22.1191 19.3473C21.7831 19.3473 21.5101 19.2948 21.3002 19.1898C21.0902 19.0848 20.9222 18.9693 20.7962 18.8433C20.6911 18.7173 20.5862 18.5913 20.4812 18.4653L14.7799 10.2125V23.7887C14.7799 24.1037 14.7379 24.4081 14.6539 24.7021C14.5909 24.9962 14.4229 25.2271 14.1499 25.3951C13.8769 25.5631 13.4464 25.6471 12.8585 25.6471Z" fill="white" stroke="white" stroke-width="0.4"/>
</svg>
