<svg width="145" height="42" viewBox="0 0 145 42" fill="none" xmlns="http://www.w3.org/2000/svg">
<path d="M67.4282 39.1464C67.4282 38.6448 67.8348 38.2382 68.3364 38.2382H131.005C131.507 38.2382 131.914 38.6448 131.914 39.1464C131.914 39.648 131.507 40.0547 131.005 40.0547H68.3364C67.8348 40.0547 67.4282 39.648 67.4282 39.1464Z" fill="#FFBB00"/>
<path d="M16.3594 32.4488V30.2502C15.9949 29.686 15.6515 29.1297 15.3292 28.5814C15.0068 28.0331 14.703 27.4953 14.4177 26.968H15.3213C15.522 27.4003 15.7466 27.8406 15.9949 28.2888C16.2432 28.7317 16.4994 29.1588 16.7636 29.57C17.0225 29.1588 17.2761 28.7317 17.5245 28.2888C17.7728 27.8406 18 27.4003 18.206 26.968H19.062C18.7766 27.4953 18.4728 28.0331 18.1506 28.5814C17.8283 29.1245 17.4874 29.6754 17.1282 30.2343V32.4488H16.3594Z" fill="white"/>
<path d="M22.9915 30.3925C22.9915 30.7194 22.944 31.0146 22.8489 31.2783C22.7538 31.5419 22.6191 31.7686 22.4447 31.9584C22.2756 32.1482 22.0722 32.2958 21.8345 32.4013C21.5967 32.5015 21.3378 32.5515 21.0578 32.5515C20.7778 32.5515 20.5189 32.5015 20.2811 32.4013C20.0434 32.2958 19.8373 32.1482 19.6629 31.9584C19.4939 31.7686 19.3618 31.5419 19.2667 31.2783C19.1716 31.0146 19.124 30.7194 19.124 30.3925C19.124 30.0709 19.1716 29.7782 19.2667 29.5146C19.3618 29.2457 19.4939 29.0163 19.6629 28.8266C19.8373 28.6368 20.0434 28.4917 20.2811 28.3916C20.5189 28.2862 20.7778 28.2334 21.0578 28.2334C21.3378 28.2334 21.5967 28.2862 21.8345 28.3916C22.0722 28.4917 22.2756 28.6368 22.4447 28.8266C22.6191 29.0163 22.7538 29.2457 22.8489 29.5146C22.944 29.7782 22.9915 30.0709 22.9915 30.3925ZM22.2228 30.3925C22.2228 29.9285 22.1171 29.562 21.9058 29.2932C21.6997 29.019 21.417 28.8819 21.0578 28.8819C20.6985 28.8819 20.4132 29.019 20.2018 29.2932C19.9958 29.562 19.8928 29.9285 19.8928 30.3925C19.8928 30.8565 19.9958 31.2255 20.2018 31.4997C20.4132 31.7686 20.6985 31.9031 21.0578 31.9031C21.417 31.9031 21.6997 31.7686 21.9058 31.4997C22.1171 31.2255 22.2228 30.8565 22.2228 30.3925Z" fill="white"/>
<path d="M27.3096 32.3302C27.1405 32.3724 26.9159 32.4172 26.6359 32.4646C26.3611 32.5121 26.0415 32.5358 25.6769 32.5358C25.3599 32.5358 25.0931 32.491 24.8765 32.4014C24.6599 32.3064 24.4855 32.1747 24.3534 32.006C24.2214 31.8372 24.1263 31.6395 24.0681 31.4127C24.01 31.1808 23.981 30.9251 23.981 30.6457V28.3363H24.718V30.4875C24.718 30.9883 24.7972 31.3469 24.9557 31.563C25.1142 31.7792 25.3811 31.8873 25.7562 31.8873C25.8355 31.8873 25.9173 31.8847 26.0019 31.8794C26.0864 31.8741 26.1657 31.8689 26.2396 31.8636C26.3136 31.853 26.3796 31.8451 26.4378 31.8398C26.5011 31.8293 26.5461 31.8187 26.5725 31.8083V28.3363H27.3096V32.3302Z" fill="white"/>
<path d="M30.101 28.2493C30.1644 28.2493 30.2357 28.2546 30.315 28.2651C30.3995 28.2704 30.4815 28.2809 30.5607 28.2968C30.6399 28.3073 30.7112 28.3205 30.7747 28.3363C30.8433 28.3469 30.8935 28.3574 30.9253 28.368L30.7984 29.0086C30.7404 28.9875 30.6426 28.9637 30.5052 28.9374C30.3731 28.9057 30.2014 28.8899 29.9901 28.8899C29.8527 28.8899 29.7153 28.9057 29.5779 28.9374C29.4458 28.9637 29.3587 28.9821 29.3164 28.9927V32.4488H28.5793V28.5103C28.7537 28.447 28.9703 28.389 29.2292 28.3363C29.4881 28.2783 29.7787 28.2493 30.101 28.2493Z" fill="white"/>
<path d="M36.9737 26.968H37.7425V32.4488H36.9737V29.918H34.287V32.4488H33.5183V26.968H34.287V29.2537H36.9737V26.968Z" fill="white"/>
<path d="M42.6961 30.3925C42.6961 30.7194 42.6485 31.0146 42.5534 31.2783C42.4583 31.5419 42.3236 31.7686 42.1493 31.9584C41.9802 32.1482 41.7768 32.2958 41.539 32.4013C41.3013 32.5015 41.0424 32.5515 40.7624 32.5515C40.4823 32.5515 40.2235 32.5015 39.9857 32.4013C39.7479 32.2958 39.5419 32.1482 39.3675 31.9584C39.1984 31.7686 39.0663 31.5419 38.9712 31.2783C38.8761 31.0146 38.8286 30.7194 38.8286 30.3925C38.8286 30.0709 38.8761 29.7782 38.9712 29.5146C39.0663 29.2457 39.1984 29.0163 39.3675 28.8266C39.5419 28.6368 39.7479 28.4917 39.9857 28.3916C40.2235 28.2862 40.4823 28.2334 40.7624 28.2334C41.0424 28.2334 41.3013 28.2862 41.539 28.3916C41.7768 28.4917 41.9802 28.6368 42.1493 28.8266C42.3236 29.0163 42.4583 29.2457 42.5534 29.5146C42.6485 29.7782 42.6961 30.0709 42.6961 30.3925ZM41.9274 30.3925C41.9274 29.9285 41.8217 29.562 41.6104 29.2932C41.4043 29.019 41.1216 28.8819 40.7624 28.8819C40.4031 28.8819 40.1177 29.019 39.9064 29.2932C39.7004 29.562 39.5973 29.9285 39.5973 30.3925C39.5973 30.8565 39.7004 31.2255 39.9064 31.4997C40.1177 31.7686 40.4031 31.9031 40.7624 31.9031C41.1216 31.9031 41.4043 31.7686 41.6104 31.4997C41.8217 31.2255 41.9274 30.8565 41.9274 30.3925Z" fill="white"/>
<path d="M44.6923 31.9189C44.9934 31.9189 45.2153 31.8793 45.358 31.8002C45.5059 31.7211 45.5799 31.5946 45.5799 31.4206C45.5799 31.2414 45.5086 31.099 45.3659 30.9935C45.2233 30.8881 44.9882 30.7694 44.6606 30.6377C44.5021 30.5744 44.3488 30.5111 44.2009 30.4479C44.0582 30.3793 43.9341 30.3002 43.8284 30.2106C43.7228 30.1209 43.6382 30.0129 43.5748 29.8863C43.5114 29.7598 43.4797 29.6042 43.4797 29.4197C43.4797 29.0559 43.6144 28.7686 43.8839 28.5577C44.1533 28.3415 44.5206 28.2334 44.9855 28.2334C45.1017 28.2334 45.218 28.2413 45.3342 28.2571C45.4504 28.2677 45.5587 28.2835 45.6591 28.3046C45.7595 28.3204 45.8467 28.3388 45.9207 28.3599C45.9999 28.3811 46.0607 28.3995 46.1029 28.4153L45.9682 29.048C45.889 29.0059 45.7648 28.9636 45.5958 28.9214C45.4266 28.874 45.2233 28.8503 44.9855 28.8503C44.7795 28.8503 44.5998 28.8925 44.4466 28.9768C44.2934 29.0559 44.2168 29.1825 44.2168 29.3565C44.2168 29.446 44.2326 29.5251 44.2643 29.5937C44.3012 29.6622 44.3541 29.7255 44.4228 29.7835C44.4968 29.8362 44.5866 29.8863 44.6923 29.9338C44.7979 29.9812 44.9247 30.0313 45.0726 30.084C45.2682 30.1579 45.4425 30.2317 45.5958 30.3055C45.7489 30.374 45.8784 30.4557 45.9841 30.5506C46.095 30.6456 46.1796 30.7615 46.2377 30.8986C46.2958 31.0305 46.3249 31.1939 46.3249 31.3889C46.3249 31.7686 46.1822 32.056 45.8969 32.2511C45.6169 32.4461 45.2153 32.5437 44.6923 32.5437C44.3277 32.5437 44.0424 32.512 43.8363 32.4488C43.6303 32.3908 43.4903 32.3459 43.4163 32.3143L43.551 31.6816C43.6356 31.7132 43.7703 31.7607 43.9552 31.824C44.1401 31.8872 44.3858 31.9189 44.6923 31.9189Z" fill="white"/>
<path d="M47.9597 28.3363H49.521V28.9532H47.9597V30.8513C47.9597 31.0569 47.9756 31.2283 48.0073 31.3653C48.039 31.4972 48.0865 31.6026 48.1499 31.6817C48.2134 31.7555 48.2926 31.8082 48.3877 31.8399C48.4828 31.8715 48.5938 31.8873 48.7205 31.8873C48.9425 31.8873 49.1195 31.8636 49.2515 31.8161C49.3889 31.7634 49.484 31.7265 49.5368 31.7054L49.6795 32.3144C49.6055 32.3513 49.4761 32.3961 49.2912 32.4489C49.1063 32.5069 48.8949 32.5358 48.6572 32.5358C48.3772 32.5358 48.1447 32.5016 47.9597 32.433C47.7801 32.3592 47.6348 32.2512 47.5238 32.1087C47.4129 31.9664 47.3336 31.7924 47.2861 31.5868C47.2438 31.3759 47.2227 31.1333 47.2227 30.8592V27.1895L47.9597 27.063V28.3363Z" fill="white"/>
<path d="M51.1959 32.4488H50.4589V28.3362H51.1959V32.4488ZM50.8234 27.5928C50.6914 27.5928 50.5777 27.5506 50.4827 27.4662C50.3928 27.3766 50.3479 27.258 50.3479 27.1104C50.3479 26.9627 50.3928 26.8467 50.4827 26.7624C50.5777 26.6728 50.6914 26.6279 50.8234 26.6279C50.9555 26.6279 51.0665 26.6728 51.1563 26.7624C51.2514 26.8467 51.299 26.9627 51.299 27.1104C51.299 27.258 51.2514 27.3766 51.1563 27.4662C51.0665 27.5506 50.9555 27.5928 50.8234 27.5928Z" fill="white"/>
<path d="M52.4634 28.4549C52.6325 28.4127 52.857 28.368 53.137 28.3205C53.4171 28.273 53.7393 28.2493 54.1039 28.2493C54.4315 28.2493 54.7036 28.2968 54.9202 28.3917C55.1368 28.4813 55.3085 28.6105 55.4354 28.7792C55.5674 28.9426 55.6599 29.1403 55.7128 29.3723C55.7656 29.6043 55.792 29.86 55.792 30.1395V32.4488H55.055V30.2977C55.055 30.0446 55.0365 29.8284 54.9995 29.6492C54.9678 29.4698 54.9123 29.3249 54.833 29.2141C54.7538 29.1034 54.6481 29.0243 54.516 28.9769C54.384 28.9241 54.2202 28.8978 54.0247 28.8978C53.9454 28.8978 53.8635 28.9004 53.779 28.9057C53.6944 28.911 53.6126 28.9189 53.5333 28.9295C53.4593 28.9347 53.3906 28.9426 53.3273 28.9532C53.2691 28.9637 53.2268 28.9717 53.2004 28.9769V32.4488H52.4634V28.4549Z" fill="white"/>
<path d="M59.5979 32.0376C59.5345 32.0798 59.4103 32.1351 59.2254 32.2037C59.0457 32.2669 58.8344 32.2986 58.5914 32.2986C58.343 32.2986 58.1079 32.259 57.886 32.1799C57.6694 32.1009 57.4792 31.9796 57.3154 31.8161C57.1516 31.6474 57.0221 31.4392 56.927 31.1913C56.8319 30.9435 56.7844 30.6483 56.7844 30.3055C56.7844 30.005 56.8293 29.7309 56.9191 29.4831C57.009 29.23 57.1384 29.0138 57.3075 28.8346C57.4818 28.65 57.6931 28.5077 57.9415 28.4075C58.1898 28.302 58.4698 28.2493 58.7816 28.2493C59.125 28.2493 59.4235 28.2757 59.6771 28.3284C59.936 28.3758 60.1526 28.4206 60.327 28.4628V32.1324C60.327 32.7652 60.1632 33.2239 59.8357 33.5086C59.5081 33.7933 59.0114 33.9356 58.3457 33.9356C58.0868 33.9356 57.8411 33.9146 57.6086 33.8724C57.3815 33.8302 57.1833 33.7801 57.0142 33.7221L57.149 33.0815C57.2969 33.1395 57.4765 33.1896 57.6879 33.2318C57.9045 33.2792 58.1291 33.303 58.3616 33.303C58.8 33.303 59.1144 33.216 59.3046 33.042C59.5001 32.868 59.5979 32.5912 59.5979 32.2115V32.0376ZM59.5899 28.9848C59.516 28.9637 59.4156 28.9452 59.2887 28.9295C59.1672 28.9084 59.0008 28.8978 58.7895 28.8978C58.3932 28.8978 58.0868 29.027 57.8702 29.2854C57.6588 29.5437 57.5531 29.8864 57.5531 30.3135C57.5531 30.5507 57.5822 30.7537 57.6403 30.9224C57.7037 31.0912 57.7856 31.2309 57.886 31.3416C57.9917 31.4523 58.1106 31.5341 58.2427 31.5867C58.38 31.6395 58.52 31.6658 58.6627 31.6658C58.8582 31.6658 59.0378 31.6395 59.2016 31.5867C59.3654 31.5287 59.4948 31.4629 59.5899 31.389V28.9848Z" fill="white"/>
<path d="M62.3727 31.5472C62.378 31.5894 62.3807 31.6316 62.3807 31.6738C62.3807 31.7107 62.3807 31.7503 62.3807 31.7924C62.3807 32.1246 62.3304 32.4515 62.2301 32.7731C62.135 33.1 62.0029 33.411 61.8338 33.7063L61.2632 33.5244C61.3953 33.2555 61.4824 32.9813 61.5247 32.7019C61.567 32.4278 61.5881 32.1694 61.5881 31.9269C61.5881 31.8583 61.5855 31.7924 61.5802 31.7292C61.5802 31.6659 61.5775 31.6052 61.5723 31.5472H62.3727Z" fill="white"/>
<path d="M65.2063 29.7044C65.2063 29.2351 65.2749 28.8213 65.4123 28.4628C65.555 28.1042 65.7452 27.8063 65.9829 27.5691C66.226 27.3265 66.506 27.1446 66.823 27.0234C67.1453 26.9021 67.4861 26.8414 67.8454 26.8414C68.1994 26.8414 68.5322 26.9021 68.844 27.0234C69.161 27.1446 69.4384 27.3265 69.6761 27.5691C69.9138 27.8063 70.1014 28.1042 70.2388 28.4628C70.3814 28.8213 70.4528 29.2351 70.4528 29.7044C70.4528 30.1737 70.3814 30.5876 70.2388 30.946C70.1014 31.3046 69.9138 31.6051 69.6761 31.8477C69.4384 32.0849 69.161 32.2642 68.844 32.3854C68.5322 32.5068 68.1994 32.5674 67.8454 32.5674C67.4861 32.5674 67.1453 32.5068 66.823 32.3854C66.506 32.2642 66.226 32.0849 65.9829 31.8477C65.7452 31.6051 65.555 31.3046 65.4123 30.946C65.2749 30.5876 65.2063 30.1737 65.2063 29.7044ZM66.0147 29.7044C66.0147 30.0366 66.0569 30.3397 66.1414 30.6139C66.226 30.8828 66.3449 31.1122 66.4981 31.302C66.6566 31.4918 66.8468 31.6394 67.0687 31.7448C67.2959 31.8451 67.5495 31.8951 67.8295 31.8951C68.1095 31.8951 68.3605 31.8451 68.5824 31.7448C68.8043 31.6394 68.9919 31.4918 69.1451 31.302C69.3036 31.1122 69.4251 30.8828 69.5097 30.6139C69.5942 30.3397 69.6365 30.0366 69.6365 29.7044C69.6365 29.3722 69.5942 29.0717 69.5097 28.8028C69.4251 28.5286 69.3036 28.2967 69.1451 28.1068C68.9919 27.917 68.8043 27.772 68.5824 27.6719C68.3605 27.5664 68.1095 27.5137 67.8295 27.5137C67.5495 27.5137 67.2959 27.5664 67.0687 27.6719C66.8468 27.772 66.6566 27.917 66.4981 28.1068C66.3449 28.2967 66.226 28.5286 66.1414 28.8028C66.0569 29.0717 66.0147 29.3722 66.0147 29.7044Z" fill="white"/>
<path d="M74.8301 32.3302C74.661 32.3724 74.4364 32.4172 74.1564 32.4646C73.8817 32.5121 73.5621 32.5358 73.1975 32.5358C72.8805 32.5358 72.6136 32.491 72.397 32.4014C72.1804 32.3064 72.006 32.1747 71.874 32.006C71.7419 31.8372 71.6468 31.6395 71.5886 31.4127C71.5305 31.1808 71.5015 30.9251 71.5015 30.6457V28.3363H72.2385V30.4875C72.2385 30.9883 72.3178 31.3469 72.4762 31.563C72.6348 31.7792 72.9016 31.8873 73.2767 31.8873C73.356 31.8873 73.4378 31.8847 73.5224 31.8794C73.607 31.8741 73.6862 31.8689 73.7602 31.8636C73.8341 31.853 73.9002 31.8451 73.9583 31.8398C74.0217 31.8293 74.0666 31.8187 74.093 31.8083V28.3363H74.8301V32.3302Z" fill="white"/>
<path d="M77.6215 28.2493C77.6852 28.2493 77.756 28.2546 77.8353 28.2651C77.9203 28.2704 78.0017 28.2809 78.0811 28.2968C78.1604 28.3073 78.2319 28.3205 78.2949 28.3363C78.3636 28.3469 78.4139 28.3574 78.4458 28.368L78.319 29.0086C78.2609 28.9875 78.1632 28.9637 78.0258 28.9374C77.8934 28.9057 77.722 28.8899 77.5103 28.8899C77.3729 28.8899 77.2355 28.9057 77.0981 28.9374C76.9664 28.9637 76.8793 28.9821 76.8368 28.9927V32.4488H76.0999V28.5103C76.2742 28.447 76.4905 28.389 76.7497 28.3363C77.0089 28.2783 77.2993 28.2493 77.6215 28.2493Z" fill="white"/>
<path d="M83.7251 30.1552C83.8101 30.2606 83.9156 30.4003 84.0424 30.5743C84.1748 30.7431 84.3093 30.9329 84.4467 31.1438C84.5841 31.3494 84.7186 31.5656 84.8511 31.7923C84.9885 32.019 85.1046 32.2378 85.1995 32.4488H84.3596C84.2541 32.2483 84.1372 32.0454 84.0105 31.8397C83.8894 31.6342 83.7648 31.4391 83.638 31.2545C83.5112 31.0647 83.3845 30.888 83.2577 30.7246C83.1366 30.5612 83.0254 30.4188 82.9249 30.2976C82.8562 30.3028 82.7847 30.3054 82.711 30.3054C82.6423 30.3054 82.5708 30.3054 82.4972 30.3054H81.8074V32.4488H81.0391V27.0471C81.2551 26.9944 81.4958 26.9601 81.76 26.9442C82.0298 26.9231 82.2748 26.9126 82.4972 26.9126C83.2683 26.9126 83.8547 27.0576 84.2562 27.3476C84.6634 27.6376 84.8666 28.0699 84.8666 28.6446C84.8666 29.0085 84.7689 29.3195 84.5735 29.5779C84.383 29.8362 84.1004 30.0286 83.7251 30.1552ZM82.5602 27.5848C82.233 27.5848 81.9816 27.5928 81.8074 27.6086V29.6728H82.3541C82.6183 29.6728 82.8562 29.6596 83.0679 29.6332C83.279 29.6068 83.456 29.5568 83.5983 29.483C83.7463 29.4091 83.8604 29.3063 83.9397 29.1745C84.019 29.0374 84.0586 28.8582 84.0586 28.6367C84.0586 28.4311 84.019 28.2597 83.9397 28.1227C83.8604 27.9856 83.752 27.8775 83.6146 27.7984C83.4822 27.7193 83.3236 27.664 83.1387 27.6323C82.9596 27.6007 82.7663 27.5848 82.5602 27.5848Z" fill="white"/>
<path d="M85.7454 30.4004C85.7454 30.0366 85.7985 29.7202 85.904 29.4514C86.0095 29.1772 86.1497 28.9505 86.3239 28.7712C86.4981 28.5919 86.6992 28.4575 86.9266 28.3679C87.1539 28.2782 87.3862 28.2334 87.6241 28.2334C88.1786 28.2334 88.6042 28.4074 88.8995 28.7554C89.1955 29.0981 89.3435 29.6227 89.3435 30.3292C89.3435 30.3608 89.3435 30.403 89.3435 30.4557C89.3435 30.5032 89.3407 30.548 89.3357 30.5902H86.5144C86.5463 31.0172 86.6702 31.3415 86.8869 31.5629C87.1036 31.7844 87.4414 31.8951 87.901 31.8951C88.1602 31.8951 88.3769 31.874 88.5511 31.8319C88.7309 31.7844 88.8655 31.7396 88.9554 31.6974L89.0581 32.3143C88.9682 32.3617 88.8103 32.4118 88.5829 32.4646C88.3606 32.5173 88.1071 32.5437 87.8217 32.5437C87.4626 32.5437 87.1511 32.4909 86.8869 32.3855C86.6277 32.2748 86.4139 32.1245 86.2446 31.9346C86.0761 31.7449 85.9486 31.5208 85.8643 31.2625C85.785 30.9988 85.7454 30.7115 85.7454 30.4004ZM88.5752 29.9971C88.5801 29.6649 88.4958 29.3934 88.3209 29.1825C88.1524 28.9663 87.9173 28.8582 87.6156 28.8582C87.4471 28.8582 87.2962 28.8925 87.1638 28.961C87.037 29.0243 86.9287 29.1086 86.8395 29.2141C86.7495 29.3195 86.678 29.4408 86.6249 29.5779C86.5774 29.7149 86.5463 29.8547 86.53 29.9971H88.5752Z" fill="white"/>
<path d="M91.3611 31.9189C91.6628 31.9189 91.8844 31.8793 92.0267 31.8002C92.1748 31.7211 92.2491 31.5946 92.2491 31.4206C92.2491 31.2414 92.1776 31.099 92.0352 30.9935C91.8922 30.8881 91.6571 30.7694 91.3299 30.6377C91.1713 30.5744 91.0176 30.5111 90.8703 30.4479C90.7273 30.3793 90.6034 30.3002 90.4978 30.2106C90.3916 30.1209 90.3073 30.0129 90.2436 29.8863C90.1806 29.7598 90.1487 29.6042 90.1487 29.4197C90.1487 29.0559 90.2833 28.7686 90.5531 28.5577C90.8222 28.3415 91.1897 28.2334 91.6543 28.2334C91.7711 28.2334 91.8872 28.2413 92.0034 28.2571C92.1195 28.2677 92.2279 28.2835 92.3284 28.3046C92.4283 28.3204 92.5161 28.3388 92.5897 28.3599C92.669 28.3811 92.7299 28.3995 92.7717 28.4153L92.6372 29.048C92.5579 29.0059 92.4339 28.9636 92.2647 28.9214C92.0954 28.874 91.8922 28.8503 91.6543 28.8503C91.4482 28.8503 91.269 28.8925 91.1154 28.9768C90.9624 29.0559 90.8859 29.1825 90.8859 29.3565C90.8859 29.446 90.9015 29.5251 90.9334 29.5937C90.9702 29.6622 91.0233 29.7255 91.092 29.7835C91.1656 29.8362 91.2556 29.8863 91.3611 29.9338C91.4673 29.9812 91.5941 30.0313 91.7421 30.084C91.9375 30.1579 92.1117 30.2317 92.2647 30.3055C92.4184 30.374 92.5472 30.4557 92.6535 30.5506C92.7639 30.6456 92.8489 30.7615 92.907 30.8986C92.9651 31.0305 92.9941 31.1939 92.9941 31.3889C92.9941 31.7686 92.851 32.056 92.5657 32.2511C92.2859 32.4461 91.8844 32.5437 91.3611 32.5437C90.9971 32.5437 90.7117 32.512 90.5056 32.4488C90.2996 32.3908 90.1593 32.3459 90.0857 32.3143L90.2202 31.6816C90.3045 31.7132 90.4391 31.7607 90.6246 31.824C90.8094 31.8872 91.0552 31.9189 91.3611 31.9189Z" fill="white"/>
<path d="M96.8004 30.4004C96.8004 29.9207 96.6814 29.5516 96.4435 29.2932C96.2063 29.0349 95.889 28.9057 95.4924 28.9057C95.2708 28.9057 95.0966 28.9137 94.9698 28.9295C94.848 28.9452 94.7503 28.9637 94.6766 28.9848V31.5789C94.7659 31.6527 94.8955 31.7238 95.0647 31.7924C95.234 31.8609 95.4188 31.8952 95.6192 31.8952C95.8309 31.8952 96.0108 31.8583 96.1581 31.7845C96.3118 31.7054 96.4357 31.6 96.5306 31.4681C96.6262 31.331 96.6949 31.1729 96.7367 30.9936C96.7792 30.8091 96.8004 30.6114 96.8004 30.4004ZM97.5688 30.4004C97.5688 30.7115 97.527 30.9989 97.442 31.2625C97.3627 31.5261 97.2444 31.7529 97.0858 31.9427C96.9272 32.1324 96.7317 32.2801 96.4994 32.3855C96.2721 32.491 96.0101 32.5437 95.7148 32.5437C95.4769 32.5437 95.2658 32.5121 95.0803 32.4488C94.9011 32.3855 94.7659 32.3249 94.6766 32.2669V33.9119H93.9395V28.4628C94.1137 28.4206 94.3304 28.3758 94.5895 28.3284C94.8537 28.2757 95.1575 28.2493 95.5009 28.2493C95.8175 28.2493 96.1029 28.2994 96.3564 28.3995C96.6099 28.4997 96.8266 28.6421 97.0065 28.8266C97.1863 29.0112 97.3237 29.2379 97.4186 29.5068C97.5192 29.7704 97.5688 30.0683 97.5688 30.4004Z" fill="white"/>
<path d="M102.244 30.3925C102.244 30.7194 102.197 31.0146 102.101 31.2783C102.006 31.5419 101.871 31.7686 101.697 31.9584C101.528 32.1482 101.325 32.2958 101.087 32.4013C100.849 32.5015 100.59 32.5515 100.31 32.5515C100.03 32.5515 99.7711 32.5015 99.5331 32.4013C99.2959 32.2958 99.0898 32.1482 98.9156 31.9584C98.7464 31.7686 98.6139 31.5419 98.5191 31.2783C98.4242 31.0146 98.3767 30.7194 98.3767 30.3925C98.3767 30.0709 98.4242 29.7782 98.5191 29.5146C98.6139 29.2457 98.7464 29.0163 98.9156 28.8266C99.0898 28.6368 99.2959 28.4917 99.5331 28.3916C99.7711 28.2862 100.03 28.2334 100.31 28.2334C100.59 28.2334 100.849 28.2862 101.087 28.3916C101.325 28.4917 101.528 28.6368 101.697 28.8266C101.871 29.0163 102.006 29.2457 102.101 29.5146C102.197 29.7782 102.244 30.0709 102.244 30.3925ZM101.475 30.3925C101.475 29.9285 101.369 29.562 101.158 29.2932C100.952 29.019 100.67 28.8819 100.31 28.8819C99.9509 28.8819 99.6656 29.019 99.4545 29.2932C99.2485 29.562 99.1451 29.9285 99.1451 30.3925C99.1451 30.8565 99.2485 31.2255 99.4545 31.4997C99.6656 31.7686 99.9509 31.9031 100.31 31.9031C100.67 31.9031 100.952 31.7686 101.158 31.4997C101.369 31.2255 101.475 30.8565 101.475 30.3925Z" fill="white"/>
<path d="M103.281 28.4549C103.45 28.4127 103.674 28.368 103.954 28.3205C104.235 28.273 104.557 28.2493 104.922 28.2493C105.249 28.2493 105.521 28.2968 105.738 28.3917C105.954 28.4813 106.126 28.6105 106.253 28.7792C106.385 28.9426 106.477 29.1403 106.53 29.3723C106.583 29.6043 106.61 29.86 106.61 30.1395V32.4488H105.873V30.2977C105.873 30.0446 105.854 29.8284 105.817 29.6492C105.786 29.4698 105.73 29.3249 105.65 29.2141C105.572 29.1034 105.465 29.0243 105.334 28.9769C105.201 28.9241 105.038 28.8978 104.842 28.8978C104.763 28.8978 104.681 28.9004 104.597 28.9057C104.512 28.911 104.43 28.9189 104.351 28.9295C104.277 28.9347 104.208 28.9426 104.145 28.9532C104.087 28.9637 104.044 28.9717 104.018 28.9769V32.4488H103.281V28.4549Z" fill="white"/>
<path d="M108.791 31.9189C109.092 31.9189 109.314 31.8793 109.457 31.8002C109.605 31.7211 109.678 31.5946 109.678 31.4206C109.678 31.2414 109.607 31.099 109.464 30.9935C109.322 30.8881 109.087 30.7694 108.759 30.6377C108.6 30.5744 108.448 30.5111 108.3 30.4479C108.156 30.3793 108.033 30.3002 107.927 30.2106C107.822 30.1209 107.737 30.0129 107.674 29.8863C107.61 29.7598 107.578 29.6042 107.578 29.4197C107.578 29.0559 107.713 28.7686 107.982 28.5577C108.252 28.3415 108.619 28.2334 109.084 28.2334C109.2 28.2334 109.316 28.2413 109.433 28.2571C109.549 28.2677 109.657 28.2835 109.758 28.3046C109.858 28.3204 109.945 28.3388 110.019 28.3599C110.098 28.3811 110.159 28.3995 110.202 28.4153L110.067 29.048C109.988 29.0059 109.863 28.9636 109.695 28.9214C109.525 28.874 109.322 28.8503 109.084 28.8503C108.878 28.8503 108.698 28.8925 108.545 28.9768C108.392 29.0559 108.315 29.1825 108.315 29.3565C108.315 29.446 108.331 29.5251 108.363 29.5937C108.4 29.6622 108.452 29.7255 108.521 29.7835C108.596 29.8362 108.685 29.8863 108.791 29.9338C108.897 29.9812 109.023 30.0313 109.171 30.084C109.367 30.1579 109.541 30.2317 109.695 30.3055C109.848 30.374 109.977 30.4557 110.083 30.5506C110.194 30.6456 110.278 30.7615 110.336 30.8986C110.394 31.0305 110.423 31.1939 110.423 31.3889C110.423 31.7686 110.281 32.056 109.996 32.2511C109.715 32.4461 109.314 32.5437 108.791 32.5437C108.426 32.5437 108.141 32.512 107.935 32.4488C107.729 32.3908 107.589 32.3459 107.515 32.3143L107.649 31.6816C107.734 31.7132 107.869 31.7607 108.054 31.824C108.239 31.8872 108.484 31.9189 108.791 31.9189Z" fill="white"/>
<path d="M112.106 32.4488H111.369V28.3362H112.106V32.4488ZM111.733 27.5928C111.601 27.5928 111.488 27.5506 111.393 27.4662C111.303 27.3766 111.258 27.258 111.258 27.1104C111.258 26.9627 111.303 26.8467 111.393 26.7624C111.488 26.6728 111.601 26.6279 111.733 26.6279C111.865 26.6279 111.976 26.6728 112.066 26.7624C112.161 26.8467 112.209 26.9627 112.209 27.1104C112.209 27.258 112.161 27.3766 112.066 27.4662C111.976 27.5506 111.865 27.5928 111.733 27.5928Z" fill="white"/>
<path d="M114.11 28.5182C114.2 28.4602 114.335 28.3995 114.514 28.3363C114.699 28.273 114.911 28.2414 115.149 28.2414C115.444 28.2414 115.706 28.2941 115.933 28.3995C116.166 28.5049 116.361 28.6526 116.52 28.8424C116.678 29.0322 116.797 29.2589 116.876 29.5226C116.961 29.7862 117.003 30.0762 117.003 30.3925C117.003 30.7247 116.953 31.0252 116.852 31.2941C116.757 31.5577 116.62 31.7818 116.44 31.9663C116.26 32.1509 116.044 32.2932 115.79 32.3934C115.537 32.4936 115.251 32.5437 114.934 32.5437C114.591 32.5437 114.287 32.52 114.023 32.4725C113.759 32.4251 113.543 32.3776 113.373 32.3301V26.4382L114.11 26.3116V28.5182ZM114.11 31.8082C114.184 31.8292 114.288 31.8503 114.419 31.8715C114.557 31.8872 114.726 31.8952 114.926 31.8952C115.323 31.8952 115.64 31.766 115.877 31.5077C116.115 31.244 116.234 30.8723 116.234 30.3925C116.234 30.1816 116.213 29.9839 116.171 29.7994C116.129 29.6148 116.06 29.4566 115.964 29.3249C115.87 29.1878 115.746 29.0823 115.592 29.0085C115.444 28.9294 115.265 28.8899 115.053 28.8899C114.853 28.8899 114.668 28.9241 114.499 28.9927C114.329 29.0612 114.2 29.1324 114.11 29.2062V31.8082Z" fill="white"/>
<path d="M118.777 32.4488H118.04V28.3362H118.777V32.4488ZM118.405 27.5928C118.272 27.5928 118.159 27.5506 118.064 27.4662C117.974 27.3766 117.929 27.258 117.929 27.1104C117.929 26.9627 117.974 26.8467 118.064 26.7624C118.159 26.6728 118.272 26.6279 118.405 26.6279C118.537 26.6279 118.648 26.6728 118.738 26.7624C118.833 26.8467 118.88 26.9627 118.88 27.1104C118.88 27.258 118.833 27.3766 118.738 27.4662C118.648 27.5506 118.537 27.5928 118.405 27.5928Z" fill="white"/>
<path d="M121.282 32.5278C120.827 32.5173 120.505 32.4198 120.314 32.2352C120.124 32.0507 120.029 31.7634 120.029 31.3732V26.4382L120.766 26.3116V31.2546C120.766 31.3758 120.777 31.476 120.798 31.5551C120.819 31.6342 120.853 31.6975 120.901 31.7449C120.948 31.7924 121.012 31.8292 121.091 31.8557C121.17 31.8767 121.268 31.8952 121.384 31.911L121.282 32.5278Z" fill="white"/>
<path d="M122.949 32.4488H122.212V28.3362H122.949V32.4488ZM122.576 27.5928C122.444 27.5928 122.331 27.5506 122.235 27.4662C122.146 27.3766 122.101 27.258 122.101 27.1104C122.101 26.9627 122.146 26.8467 122.235 26.7624C122.331 26.6728 122.444 26.6279 122.576 26.6279C122.708 26.6279 122.819 26.6728 122.909 26.7624C123.004 26.8467 123.052 26.9627 123.052 27.1104C123.052 27.258 123.004 27.3766 122.909 27.4662C122.819 27.5506 122.708 27.5928 122.576 27.5928Z" fill="white"/>
<path d="M124.906 28.3363H126.467V28.9532H124.906V30.8513C124.906 31.0569 124.921 31.2283 124.953 31.3653C124.985 31.4972 125.033 31.6026 125.096 31.6817C125.159 31.7555 125.239 31.8082 125.334 31.8399C125.429 31.8715 125.54 31.8873 125.666 31.8873C125.889 31.8873 126.066 31.8636 126.198 31.8161C126.335 31.7634 126.431 31.7265 126.483 31.7054L126.626 32.3144C126.552 32.3513 126.422 32.3961 126.237 32.4489C126.052 32.5069 125.841 32.5358 125.603 32.5358C125.323 32.5358 125.091 32.5016 124.906 32.433C124.726 32.3592 124.581 32.2512 124.47 32.1087C124.359 31.9664 124.28 31.7924 124.232 31.5868C124.19 31.3759 124.169 31.1333 124.169 30.8592V27.1895L124.906 27.063V28.3363Z" fill="white"/>
<path d="M126.922 33.216C126.98 33.2423 127.054 33.2661 127.144 33.2872C127.238 33.3135 127.331 33.3267 127.421 33.3267C127.711 33.3267 127.939 33.2608 128.102 33.129C128.266 33.0024 128.414 32.7941 128.546 32.5042C128.214 31.8715 127.902 31.2019 127.611 30.4954C127.326 29.7836 127.088 29.0639 126.898 28.3363H127.69C127.748 28.5735 127.817 28.8292 127.896 29.1034C127.981 29.3776 128.073 29.6597 128.174 29.9497C128.274 30.2397 128.382 30.5297 128.499 30.8196C128.615 31.1096 128.736 31.389 128.863 31.658C129.064 31.1043 129.238 30.556 129.386 30.0129C129.534 29.4698 129.674 28.911 129.806 28.3363H130.567C130.377 29.1114 130.166 29.8574 129.933 30.5744C129.701 31.2863 129.45 31.9532 129.18 32.5753C129.075 32.8126 128.963 33.0156 128.847 33.1843C128.736 33.3583 128.612 33.5007 128.475 33.6114C128.337 33.7221 128.182 33.8038 128.007 33.8566C127.838 33.9093 127.646 33.9356 127.429 33.9356C127.371 33.9356 127.31 33.9304 127.246 33.9198C127.183 33.9146 127.119 33.904 127.056 33.8882C126.998 33.8776 126.942 33.8645 126.89 33.8487C126.843 33.8329 126.808 33.8196 126.787 33.8091L126.922 33.216Z" fill="white"/>
<path d="M132 32.0217C132 32.1641 131.953 32.288 131.858 32.3934C131.762 32.4989 131.632 32.5516 131.469 32.5516C131.305 32.5516 131.176 32.4989 131.081 32.3934C130.986 32.288 130.938 32.1641 130.938 32.0217C130.938 31.8794 130.986 31.7555 131.081 31.65C131.176 31.5446 131.305 31.4918 131.469 31.4918C131.632 31.4918 131.762 31.5446 131.858 31.65C131.953 31.7555 132 31.8794 132 32.0217Z" fill="white"/>
<path d="M125.603 20.9423C124.698 20.9423 123.884 20.7666 123.162 20.4153C122.46 20.0454 121.859 19.5462 121.359 18.9174C120.879 18.2887 120.509 17.5675 120.25 16.7538C120.01 15.9217 119.889 15.0341 119.889 14.091C119.908 13.1479 120.047 12.2695 120.306 11.4559C120.564 10.6238 120.935 9.90258 121.415 9.29236C121.915 8.66359 122.515 8.17361 123.218 7.82223C123.921 7.47091 124.716 7.29522 125.603 7.29522C126.454 7.29522 127.249 7.47091 127.989 7.82223C128.747 8.17361 129.413 8.66359 129.986 9.29236C130.578 9.90258 131.04 10.6238 131.373 11.4559C131.706 12.2695 131.872 13.1387 131.872 14.0633C131.872 15.0249 131.706 15.931 131.373 16.7816C131.04 17.6138 130.587 18.3442 130.014 18.9729C129.44 19.5831 128.775 20.0639 128.017 20.4153C127.258 20.7666 126.454 20.9423 125.603 20.9423ZM125.159 17.697C125.807 17.697 126.39 17.549 126.907 17.2532C127.425 16.9387 127.832 16.5134 128.127 15.9772C128.442 15.4409 128.599 14.8307 128.599 14.1465C128.599 13.4438 128.442 12.8243 128.127 12.2881C127.832 11.7333 127.425 11.308 126.907 11.0121C126.39 10.6978 125.807 10.5406 125.159 10.5406C124.531 10.5406 123.958 10.6978 123.44 11.0121C122.922 11.3265 122.506 11.7518 122.192 12.2881C121.896 12.8243 121.748 13.4438 121.748 14.1465C121.748 14.8307 121.896 15.4409 122.192 15.9772C122.506 16.5134 122.922 16.9387 123.44 17.2532C123.958 17.549 124.531 17.697 125.159 17.697ZM120.028 20.97C119.529 20.97 119.159 20.8868 118.918 20.7204C118.678 20.5724 118.53 20.3783 118.475 20.1379C118.419 19.879 118.392 19.5924 118.392 19.278V2.74619C118.392 2.43182 118.419 2.15445 118.475 1.91405C118.53 1.65516 118.678 1.45175 118.918 1.30382C119.159 1.15588 119.529 1.08191 120.028 1.08191C120.546 1.08191 120.915 1.15588 121.138 1.30382C121.359 1.45175 121.498 1.65516 121.554 1.91405C121.609 2.17294 121.637 2.45031 121.637 2.74619V19.8328C121.563 20.2396 121.406 20.5262 121.165 20.6926C120.944 20.8776 120.564 20.97 120.028 20.97Z" fill="white" stroke="white" stroke-width="0.4"/>
<path d="M110.124 21.1371C108.922 21.1371 107.868 20.9429 106.962 20.5545C106.075 20.1662 105.325 19.6392 104.716 18.9735C104.124 18.2893 103.67 17.5311 103.356 16.699C103.061 15.8483 102.913 14.9699 102.913 14.0638C102.913 12.7324 103.218 11.549 103.828 10.5134C104.438 9.47782 105.279 8.66422 106.352 8.07249C107.443 7.48068 108.691 7.18481 110.097 7.18481C111.095 7.18481 111.973 7.34203 112.732 7.65638C113.49 7.97073 114.118 8.38684 114.618 8.90457C115.135 9.40389 115.524 9.95866 115.783 10.5689C116.06 11.1791 116.199 11.7708 116.199 12.3441C116.199 13.3242 115.958 14.0361 115.477 14.48C115.016 14.9238 114.433 15.1456 113.73 15.1456H106.407C106.426 15.7744 106.62 16.3199 106.99 16.7822C107.378 17.2445 107.859 17.6051 108.432 17.864C109.024 18.1044 109.625 18.2245 110.235 18.2245C110.697 18.2245 111.105 18.1968 111.456 18.1413C111.825 18.0859 112.14 18.0212 112.399 17.9472C112.658 17.8547 112.879 17.7623 113.065 17.6698C113.268 17.5774 113.453 17.4941 113.619 17.4202C113.786 17.3461 113.943 17.3 114.091 17.2814C114.294 17.2629 114.497 17.3092 114.701 17.4202C114.905 17.5311 115.071 17.7253 115.201 18.0027C115.311 18.1876 115.385 18.3633 115.422 18.5297C115.477 18.6776 115.506 18.8256 115.506 18.9735C115.506 19.3433 115.283 19.6947 114.839 20.0275C114.396 20.3419 113.767 20.6008 112.954 20.8041C112.158 21.0261 111.215 21.1371 110.124 21.1371ZM106.407 13.1762H112.094C112.408 13.1762 112.648 13.13 112.815 13.0376C112.981 12.9266 113.065 12.7047 113.065 12.3718C113.065 11.9465 112.935 11.5675 112.676 11.2346C112.417 10.8832 112.066 10.6151 111.622 10.4302C111.178 10.2268 110.661 10.1251 110.069 10.1251C109.384 10.1251 108.765 10.2637 108.21 10.5411C107.656 10.8 107.212 11.1606 106.879 11.6229C106.565 12.0852 106.407 12.603 106.407 13.1762Z" fill="white" stroke="white" stroke-width="0.4"/>
<path d="M85.3078 20.888C84.9381 20.888 84.6421 20.8233 84.4197 20.6938C84.1981 20.5459 84.0317 20.3795 83.9205 20.1946C83.8284 20.0096 83.7633 19.8524 83.7264 19.723L78.2899 3.80141C78.1051 3.20967 78.0775 2.76586 78.2071 2.46998C78.336 2.15562 78.7155 1.89673 79.3444 1.69332C79.7693 1.54539 80.1113 1.48067 80.3705 1.49916C80.629 1.51765 80.8421 1.6286 81.0085 1.83201C81.1934 2.01693 81.3506 2.3128 81.4802 2.71963L85.4742 14.8133L89.0525 2.83058C89.1077 2.64566 89.1821 2.46074 89.2741 2.27582C89.3853 2.07241 89.5517 1.90598 89.7734 1.77654C89.995 1.64709 90.3003 1.58237 90.689 1.58237C91.1323 1.58237 91.4652 1.65634 91.6875 1.80428C91.9092 1.95221 92.0664 2.11864 92.1592 2.30356C92.2696 2.46999 92.344 2.62717 92.3808 2.77511L95.9591 14.8966L99.9807 2.74737C100.11 2.32205 100.258 2.00769 100.425 1.80428C100.61 1.60086 100.841 1.48991 101.118 1.47142C101.396 1.43444 101.738 1.48991 102.145 1.63785C102.57 1.78579 102.875 1.95221 103.06 2.13713C103.245 2.30356 103.337 2.52546 103.337 2.80284C103.337 3.06173 103.272 3.39458 103.143 3.80141L97.7345 19.7508C97.6969 19.8617 97.6233 20.0096 97.5121 20.1946C97.4201 20.3795 97.2628 20.5459 97.0405 20.6938C96.8188 20.8233 96.5136 20.888 96.1256 20.888C95.7375 20.888 95.4323 20.8048 95.2099 20.6384C94.9883 20.4719 94.8218 20.287 94.7107 20.0836C94.6002 19.8802 94.5258 19.7322 94.489 19.6398L90.7167 7.43507L86.9443 19.612C86.9075 19.7415 86.8331 19.9079 86.7227 20.1113C86.6299 20.3147 86.4727 20.4996 86.251 20.666C86.0287 20.814 85.7142 20.888 85.3078 20.888Z" fill="white" stroke="white" stroke-width="0.4"/>
<path d="M70.8851 21.1373C70.4043 21.1373 69.8958 21.0818 69.3595 20.9708C68.8233 20.8784 68.3055 20.7396 67.8062 20.5547C67.3069 20.3514 66.8724 20.1202 66.5025 19.8613C66.1512 19.5839 65.9292 19.2788 65.8368 18.946C65.7628 18.7611 65.7351 18.5854 65.7536 18.4189C65.7721 18.234 65.8276 18.0491 65.92 17.8642C66.0125 17.6608 66.1512 17.4573 66.3361 17.254C66.5025 17.0505 66.6689 16.9396 66.8354 16.9211C67.0203 16.8841 67.2514 16.9396 67.5288 17.0875C67.7692 17.18 68.0281 17.3002 68.3055 17.4481C68.6013 17.5961 68.8972 17.744 69.1931 17.8919C69.5074 18.0399 69.8218 18.16 70.1362 18.2525C70.469 18.3449 70.7927 18.3912 71.107 18.3912C71.7912 18.3912 72.3367 18.2802 72.7435 18.0584C73.1504 17.8179 73.3538 17.4851 73.3538 17.0598C73.3538 16.8194 73.289 16.6067 73.1596 16.4218C73.0301 16.2369 72.8545 16.089 72.6326 15.978C72.4292 15.8486 72.1795 15.7376 71.8836 15.6452C71.6063 15.5342 71.3012 15.4417 70.9683 15.3678C70.6539 15.2753 70.3211 15.1736 69.9698 15.0626C69.5074 14.9332 69.0451 14.776 68.5828 14.5911C68.1206 14.4062 67.7045 14.1658 67.3346 13.8699C66.9833 13.574 66.6967 13.2042 66.4748 12.7604C66.2529 12.3166 66.1419 11.7619 66.1419 11.0961C66.1419 10.264 66.3361 9.56126 66.7244 8.988C67.1313 8.39627 67.7137 7.94326 68.4719 7.62884C69.2301 7.31449 70.1454 7.15735 71.218 7.15735C71.5878 7.15735 71.9392 7.18504 72.272 7.24056C72.6234 7.29601 72.9562 7.37921 73.2706 7.49018C73.6034 7.58267 73.9178 7.70284 74.2137 7.85077C74.528 7.99871 74.8239 8.16513 75.1013 8.35002C75.5636 8.60893 75.804 8.91407 75.8225 9.26539C75.841 9.59829 75.7115 9.95889 75.4341 10.3472C75.2307 10.6061 75.0273 10.791 74.8239 10.9019C74.6204 10.9944 74.4078 10.9944 74.1859 10.9019C73.8901 10.754 73.5664 10.5968 73.2151 10.4304C72.8822 10.2455 72.5309 10.0883 72.161 9.95889C71.8097 9.82943 71.4398 9.76471 71.0516 9.76471C70.6817 9.76471 70.3488 9.82016 70.053 9.93113C69.7571 10.0421 69.5352 10.1992 69.3872 10.4027C69.2393 10.6061 69.1654 10.8465 69.1654 11.1239C69.1654 11.3827 69.2393 11.5954 69.3872 11.7619C69.5352 11.9283 69.7294 12.0669 69.9698 12.1779C70.2101 12.2889 70.4968 12.3906 70.8296 12.483C71.1624 12.557 71.5138 12.631 71.8836 12.7049C72.4014 12.8159 72.9284 12.9545 73.4647 13.121C74.001 13.2874 74.491 13.5186 74.9349 13.8144C75.3972 14.1103 75.767 14.5079 76.0443 15.0072C76.3221 15.488 76.4602 16.1167 76.4602 16.8934C76.4602 18.2433 75.9611 19.2881 74.9626 20.0277C73.9825 20.7674 72.6234 21.1373 70.8851 21.1373Z" fill="white" stroke="white" stroke-width="0.4"/>
<path d="M57.7905 21.1368C56.5885 21.1368 55.5344 20.9426 54.6283 20.5543C53.7407 20.1659 52.9918 19.6389 52.3816 18.9732C51.7898 18.289 51.3368 17.5309 51.0224 16.6987C50.7265 15.8481 50.5786 14.9697 50.5786 14.0636C50.5786 12.7322 50.8838 11.5487 51.494 10.5131C52.1042 9.47758 52.9456 8.66398 54.0181 8.07224C55.1092 7.48044 56.3574 7.18457 57.7627 7.18457C58.7613 7.18457 59.6397 7.34178 60.3978 7.65613C61.156 7.97048 61.7848 8.38659 62.284 8.90433C62.8018 9.40365 63.1901 9.95842 63.449 10.5686C63.7264 11.1789 63.8651 11.7706 63.8651 12.3438C63.8651 13.3239 63.6247 14.0358 63.1439 14.4796C62.6816 14.9235 62.0991 15.1454 61.3964 15.1454H54.0736C54.0921 15.7741 54.2862 16.3196 54.6561 16.7819C55.0445 17.2442 55.5252 17.6048 56.0985 17.8637C56.6902 18.1041 57.2912 18.2243 57.9014 18.2243C58.3637 18.2243 58.7706 18.1965 59.1219 18.1411C59.4918 18.0856 59.8061 18.0209 60.065 17.9469C60.3239 17.8544 60.5458 17.762 60.7307 17.6695C60.9341 17.577 61.119 17.4938 61.2854 17.4199C61.4519 17.3459 61.6091 17.2997 61.757 17.2812C61.9604 17.2627 62.1638 17.3089 62.3672 17.4199C62.5707 17.5309 62.7371 17.7251 62.8665 18.0024C62.9774 18.1873 63.0514 18.363 63.0884 18.5294C63.1439 18.6774 63.1716 18.8253 63.1716 18.9732C63.1716 19.343 62.9497 19.6944 62.5059 20.0273C62.0621 20.3416 61.4334 20.6005 60.6198 20.8039C59.8246 21.0258 58.8815 21.1368 57.7905 21.1368ZM54.0736 13.176H59.7599C60.0742 13.176 60.3146 13.1298 60.481 13.0373C60.6475 12.9264 60.7307 12.7044 60.7307 12.3716C60.7307 11.9463 60.6012 11.5672 60.3424 11.2343C60.0835 10.883 59.7321 10.6149 59.2883 10.4299C58.8445 10.2265 58.3268 10.1248 57.735 10.1248C57.0508 10.1248 56.4313 10.2635 55.8765 10.5409C55.3218 10.7998 54.878 11.1604 54.5451 11.6227C54.2308 12.0849 54.0736 12.6027 54.0736 13.176Z" fill="white" stroke="white" stroke-width="0.4"/>
<path d="M47.8881 20.9714C47.2039 20.9714 46.5937 20.9251 46.0574 20.8326C45.5397 20.7402 45.0866 20.583 44.6983 20.3611C44.3284 20.1392 44.0233 19.8433 43.783 19.4735C43.5425 19.0852 43.3576 18.6136 43.2282 18.0588C43.1172 17.5041 43.0618 16.8383 43.0618 16.0617V2.69201C43.0618 2.37765 43.0895 2.10027 43.145 1.85988C43.2189 1.60099 43.3668 1.39758 43.5888 1.24964C43.8292 1.08322 44.2083 1 44.726 1C45.2438 1 45.6136 1.07397 45.8355 1.2219C46.076 1.36984 46.2239 1.57325 46.2793 1.83214C46.3533 2.07253 46.3903 2.34992 46.3903 2.66427V15.923C46.3903 16.2744 46.4088 16.5702 46.4458 16.8107C46.5012 17.0325 46.5845 17.2175 46.6954 17.3654C46.8248 17.4948 46.9821 17.5873 47.167 17.6427C47.3704 17.6983 47.6108 17.726 47.8881 17.726C48.1286 17.726 48.3412 17.7537 48.5261 17.8092C48.7295 17.8647 48.8867 18.0034 48.9977 18.2253C49.1271 18.4472 49.1919 18.8078 49.1919 19.307C49.1919 19.8248 49.1271 20.2039 48.9977 20.4443C48.8867 20.6847 48.7295 20.8326 48.5261 20.8881C48.3227 20.9436 48.1101 20.9714 47.8881 20.9714Z" fill="white" stroke="white" stroke-width="0.4"/>
<path d="M38.4179 20.971C37.9186 20.971 37.5487 20.8878 37.3084 20.7214C37.068 20.5734 36.92 20.3793 36.8646 20.1389C36.8091 19.88 36.7814 19.5933 36.7814 19.279V8.96052C36.7814 8.66466 36.8091 8.39648 36.8646 8.15606C36.9385 7.89723 37.0865 7.69377 37.3084 7.54584C37.5487 7.3979 37.9279 7.32397 38.4456 7.32397C38.9634 7.32397 39.3332 7.3979 39.5552 7.54584C39.7955 7.69377 39.9434 7.89723 39.999 8.15606C40.0544 8.41496 40.0822 8.70162 40.0822 9.01597V19.3068C40.0822 19.6211 40.0544 19.9078 39.999 20.1666C39.9434 20.407 39.7955 20.6012 39.5552 20.7491C39.3332 20.8971 38.9541 20.971 38.4179 20.971ZM38.4179 4.63337C37.8816 4.63337 37.484 4.5594 37.2252 4.41147C36.9848 4.24504 36.8276 4.02314 36.7536 3.74576C36.6982 3.46837 36.6704 3.16326 36.6704 2.8304C36.6704 2.47906 36.6982 2.17394 36.7536 1.91505C36.8276 1.65617 36.994 1.45275 37.2529 1.30482C37.5118 1.13839 37.9093 1.05518 38.4456 1.05518C39.0004 1.05518 39.3979 1.13839 39.6384 1.30482C39.8788 1.47125 40.0359 1.69315 40.1099 1.97052C40.1839 2.22941 40.2208 2.53454 40.2208 2.88588C40.2208 3.20024 40.1839 3.49611 40.1099 3.7735C40.0359 4.05088 39.8788 4.26353 39.6384 4.41147C39.3979 4.5594 38.9911 4.63337 38.4179 4.63337Z" fill="white" stroke="white" stroke-width="0.4"/>
<path d="M15.6365 20.943C15.1557 20.943 14.7951 20.869 14.5548 20.7211C14.3144 20.5732 14.1572 20.3698 14.0832 20.1109C14.0278 19.852 14 19.5653 14 19.251V3.24618C14 2.95032 14.0278 2.68218 14.0832 2.44178C14.1572 2.18289 14.3144 1.97948 14.5548 1.83155C14.7951 1.66512 15.1743 1.58191 15.692 1.58191C16.0804 1.58191 16.3669 1.60965 16.5519 1.66512C16.7553 1.7021 16.9125 1.76682 17.0234 1.85929C17.1344 1.93325 17.2453 2.03496 17.3563 2.1644L24.1243 11.6231H23.4864L30.2821 2.13666C30.4116 1.98873 30.541 1.87778 30.6705 1.80381C30.7999 1.72984 30.9664 1.67437 31.1697 1.63738C31.3732 1.6004 31.6413 1.58191 31.9741 1.58191C32.4735 1.58191 32.8433 1.66512 33.0837 1.83155C33.3241 1.97948 33.472 2.18289 33.5275 2.44178C33.6015 2.70067 33.6384 2.98729 33.6384 3.30166V19.3065C33.6384 19.5839 33.6015 19.852 33.5275 20.1109C33.472 20.3698 33.3241 20.5732 33.0837 20.7211C32.8433 20.869 32.4642 20.943 31.9464 20.943C31.4471 20.943 31.0773 20.8597 30.8369 20.6933C30.5965 20.5454 30.4394 20.342 30.3653 20.0831C30.3099 19.8242 30.2821 19.5468 30.2821 19.251V7.35139L25.2338 14.6465C25.1784 14.7205 25.0952 14.8222 24.9842 14.9516C24.8732 15.0626 24.7253 15.1643 24.5404 15.2567C24.3555 15.3492 24.1058 15.3954 23.7915 15.3954C23.4956 15.3954 23.2552 15.3492 23.0703 15.2567C22.8854 15.1643 22.7374 15.0626 22.6265 14.9516C22.534 14.8406 22.4416 14.7297 22.3491 14.6188L17.3285 7.35139V19.3065C17.3285 19.5839 17.2916 19.852 17.2176 20.1109C17.1621 20.3698 17.0142 20.5732 16.7738 20.7211C16.5334 20.869 16.1543 20.943 15.6365 20.943Z" fill="white" stroke="white" stroke-width="0.4"/>
</svg>
