<svg width="135" height="39" viewBox="0 0 135 39" fill="none" xmlns="http://www.w3.org/2000/svg">
<path d="M62.7136 37.1929C62.7136 36.717 63.0994 36.3312 63.5753 36.3312H123.035C123.511 36.3312 123.897 36.717 123.897 37.1929C123.897 37.6688 123.511 38.0546 123.035 38.0546H63.5753C63.0994 38.0546 62.7136 37.6688 62.7136 37.1929Z" fill="#FFBB00"/>
<path d="M14.26 30.8383V28.7523C13.9141 28.217 13.5883 27.6892 13.2825 27.169C12.9767 26.6487 12.6884 26.1385 12.4177 25.6382H13.275C13.4655 26.0484 13.6785 26.4661 13.9141 26.8913C14.1497 27.3115 14.3928 27.7167 14.6435 28.1069C14.8891 27.7167 15.1297 27.3115 15.3654 26.8913C15.6009 26.4661 15.8166 26.0484 16.012 25.6382H16.8241C16.5534 26.1385 16.2652 26.6487 15.9594 27.169C15.6536 27.6842 15.3302 28.207 14.9894 28.7372V30.8383H14.26Z" fill="white"/>
<path d="M20.5525 28.8873C20.5525 29.1974 20.5074 29.4775 20.4172 29.7277C20.327 29.9778 20.1991 30.1929 20.0337 30.373C19.8732 30.5531 19.6803 30.6931 19.4547 30.7932C19.2291 30.8882 18.9835 30.9357 18.7178 30.9357C18.4521 30.9357 18.2065 30.8882 17.9809 30.7932C17.7553 30.6931 17.5598 30.5531 17.3944 30.373C17.234 30.1929 17.1086 29.9778 17.0184 29.7277C16.9282 29.4775 16.8831 29.1974 16.8831 28.8873C16.8831 28.5821 16.9282 28.3045 17.0184 28.0543C17.1086 27.7992 17.234 27.5816 17.3944 27.4015C17.5598 27.2215 17.7553 27.0839 17.9809 26.9888C18.2065 26.8888 18.4521 26.8387 18.7178 26.8387C18.9835 26.8387 19.2291 26.8888 19.4547 26.9888C19.6803 27.0839 19.8732 27.2215 20.0337 27.4015C20.1991 27.5816 20.327 27.7992 20.4172 28.0543C20.5074 28.3045 20.5525 28.5821 20.5525 28.8873ZM19.8231 28.8873C19.8231 28.4471 19.7229 28.0993 19.5224 27.8442C19.3269 27.5841 19.0586 27.4541 18.7178 27.4541C18.3769 27.4541 18.1062 27.5841 17.9057 27.8442C17.7102 28.0993 17.6125 28.4471 17.6125 28.8873C17.6125 29.3275 17.7102 29.6776 17.9057 29.9378C18.1062 30.1929 18.3769 30.3205 18.7178 30.3205C19.0586 30.3205 19.3269 30.1929 19.5224 29.9378C19.7229 29.6776 19.8231 29.3275 19.8231 28.8873Z" fill="white"/>
<path d="M24.6494 30.7257C24.4889 30.7658 24.2759 30.8083 24.0102 30.8533C23.7495 30.8983 23.4462 30.9209 23.1003 30.9209C22.7996 30.9209 22.5464 30.8783 22.3409 30.7933C22.1354 30.7032 21.9699 30.5782 21.8446 30.4181C21.7193 30.258 21.6291 30.0704 21.5739 29.8553C21.5188 29.6353 21.4912 29.3926 21.4912 29.1275V26.9364H22.1905V28.9774C22.1905 29.4526 22.2657 29.7928 22.4161 29.9979C22.5664 30.203 22.8196 30.3055 23.1756 30.3055C23.2508 30.3055 23.3284 30.303 23.4087 30.2981C23.4889 30.293 23.5641 30.2881 23.6342 30.283C23.7044 30.273 23.767 30.2656 23.8222 30.2605C23.8823 30.2505 23.925 30.2405 23.9501 30.2305V26.9364H24.6494V30.7257Z" fill="white"/>
<path d="M27.298 26.8539C27.3581 26.8539 27.4258 26.8589 27.501 26.8689C27.5812 26.8739 27.6589 26.8839 27.7341 26.899C27.8093 26.9089 27.877 26.9215 27.9372 26.9365C28.0023 26.9465 28.0499 26.9565 28.08 26.9665L27.9597 27.5743C27.9046 27.5543 27.8118 27.5318 27.6815 27.5068C27.5561 27.4767 27.3932 27.4617 27.1927 27.4617C27.0624 27.4617 26.932 27.4767 26.8017 27.5068C26.6764 27.5318 26.5937 27.5492 26.5536 27.5592V30.8384H25.8542V27.1015C26.0197 27.0415 26.2252 26.9864 26.4708 26.9365C26.7165 26.8814 26.9922 26.8539 27.298 26.8539Z" fill="white"/>
<path d="M33.8187 25.6382H34.5481V30.8383H33.8187V28.4371H31.2696V30.8383H30.5403V25.6382H31.2696V27.8068H33.8187V25.6382Z" fill="white"/>
<path d="M39.2481 28.8873C39.2481 29.1974 39.2029 29.4775 39.1127 29.7277C39.0225 29.9778 38.8947 30.1929 38.7292 30.373C38.5688 30.5531 38.3758 30.6931 38.1502 30.7932C37.9247 30.8882 37.679 30.9357 37.4133 30.9357C37.1476 30.9357 36.902 30.8882 36.6764 30.7932C36.4509 30.6931 36.2553 30.5531 36.0899 30.373C35.9295 30.1929 35.8042 29.9778 35.7139 29.7277C35.6237 29.4775 35.5786 29.1974 35.5786 28.8873C35.5786 28.5821 35.6237 28.3045 35.7139 28.0543C35.8042 27.7992 35.9295 27.5816 36.0899 27.4015C36.2553 27.2215 36.4509 27.0839 36.6764 26.9888C36.902 26.8888 37.1476 26.8387 37.4133 26.8387C37.679 26.8387 37.9247 26.8888 38.1502 26.9888C38.3758 27.0839 38.5688 27.2215 38.7292 27.4015C38.8947 27.5816 39.0225 27.7992 39.1127 28.0543C39.2029 28.3045 39.2481 28.5821 39.2481 28.8873ZM38.5187 28.8873C38.5187 28.4471 38.4184 28.0993 38.2179 27.8442C38.0224 27.5841 37.7542 27.4541 37.4133 27.4541C37.0724 27.4541 36.8017 27.5841 36.6012 27.8442C36.4057 28.0993 36.308 28.4471 36.308 28.8873C36.308 29.3275 36.4057 29.6776 36.6012 29.9378C36.8017 30.1929 37.0724 30.3205 37.4133 30.3205C37.7542 30.3205 38.0224 30.1929 38.2179 29.9378C38.4184 29.6776 38.5187 29.3275 38.5187 28.8873Z" fill="white"/>
<path d="M41.1418 30.3355C41.4275 30.3355 41.6381 30.298 41.7734 30.2229C41.9138 30.1479 41.984 30.0278 41.984 29.8627C41.984 29.6927 41.9163 29.5576 41.7809 29.4575C41.6456 29.3575 41.4225 29.2449 41.1117 29.1199C40.9614 29.0598 40.816 28.9998 40.6756 28.9398C40.5402 28.8748 40.4224 28.7997 40.3222 28.7147C40.2219 28.6296 40.1417 28.5271 40.0816 28.407C40.0214 28.2869 39.9914 28.1394 39.9914 27.9643C39.9914 27.6191 40.1191 27.3465 40.3748 27.1464C40.6305 26.9413 40.9789 26.8387 41.42 26.8387C41.5303 26.8387 41.6406 26.8463 41.7509 26.8613C41.8612 26.8713 41.9639 26.8862 42.0592 26.9063C42.1544 26.9213 42.2372 26.9388 42.3073 26.9588C42.3825 26.9788 42.4401 26.9963 42.4802 27.0114L42.3524 27.6116C42.2773 27.5716 42.1594 27.5316 41.999 27.4916C41.8386 27.4465 41.6456 27.424 41.42 27.424C41.2245 27.424 41.0541 27.4641 40.9087 27.5441C40.7634 27.6191 40.6907 27.7392 40.6907 27.9043C40.6907 27.9893 40.7057 28.0643 40.7357 28.1294C40.7708 28.1944 40.821 28.2544 40.8861 28.3094C40.9563 28.3595 41.0415 28.407 41.1418 28.452C41.2421 28.497 41.3623 28.5446 41.5027 28.5946C41.6882 28.6647 41.8536 28.7347 41.999 28.8047C42.1444 28.8697 42.2672 28.9473 42.3675 29.0373C42.4727 29.1274 42.5529 29.2374 42.6081 29.3675C42.6632 29.4926 42.6908 29.6477 42.6908 29.8327C42.6908 30.1929 42.5554 30.4655 42.2847 30.6507C42.0191 30.8357 41.6381 30.9283 41.1418 30.9283C40.7959 30.9283 40.5252 30.8982 40.3297 30.8382C40.1342 30.7832 40.0014 30.7407 39.9312 30.7107L40.059 30.1104C40.1392 30.1404 40.267 30.1854 40.4425 30.2454C40.618 30.3054 40.851 30.3355 41.1418 30.3355Z" fill="white"/>
<path d="M44.242 26.9364H45.7233V27.5217H44.242V29.3226C44.242 29.5177 44.2571 29.6803 44.2872 29.8103C44.3173 29.9354 44.3624 30.0354 44.4225 30.1105C44.4827 30.1805 44.5579 30.2305 44.6481 30.2605C44.7384 30.2905 44.8436 30.3055 44.9639 30.3055C45.1745 30.3055 45.3424 30.283 45.4677 30.238C45.598 30.188 45.6883 30.1529 45.7384 30.133L45.8738 30.7107C45.8036 30.7458 45.6808 30.7883 45.5053 30.8383C45.3299 30.8934 45.1293 30.9208 44.9038 30.9208C44.6381 30.9208 44.4175 30.8883 44.242 30.8233C44.0716 30.7533 43.9338 30.6507 43.8285 30.5156C43.7232 30.3806 43.648 30.2155 43.6029 30.0204C43.5628 29.8203 43.5427 29.5902 43.5427 29.3301V25.8483L44.242 25.7283V26.9364Z" fill="white"/>
<path d="M47.3124 30.8383H46.6131V26.9364H47.3124V30.8383ZM46.959 26.231C46.8337 26.231 46.7258 26.191 46.6357 26.1109C46.5504 26.0259 46.5078 25.9133 46.5078 25.7733C46.5078 25.6332 46.5504 25.5232 46.6357 25.4431C46.7258 25.3581 46.8337 25.3156 46.959 25.3156C47.0843 25.3156 47.1896 25.3581 47.2748 25.4431C47.365 25.5232 47.4102 25.6332 47.4102 25.7733C47.4102 25.9133 47.365 26.0259 47.2748 26.1109C47.1896 26.191 47.0843 26.231 46.959 26.231Z" fill="white"/>
<path d="M48.5151 27.049C48.6756 27.009 48.8886 26.9665 49.1543 26.9215C49.42 26.8764 49.7258 26.8539 50.0716 26.8539C50.3825 26.8539 50.6406 26.899 50.8461 26.989C51.0517 27.074 51.2146 27.1966 51.3349 27.3567C51.4602 27.5117 51.548 27.6993 51.5981 27.9194C51.6482 28.1395 51.6733 28.3822 51.6733 28.6473V30.8384H50.974V28.7974C50.974 28.5573 50.9565 28.3521 50.9214 28.1821C50.8913 28.012 50.8387 27.8744 50.7634 27.7693C50.6882 27.6643 50.588 27.5893 50.4627 27.5443C50.3374 27.4942 50.182 27.4692 49.9965 27.4692C49.9213 27.4692 49.8436 27.4717 49.7634 27.4767C49.6832 27.4817 49.6055 27.4892 49.5302 27.4992C49.4601 27.5042 49.3949 27.5117 49.3348 27.5217C49.2796 27.5318 49.2395 27.5393 49.2144 27.5443V30.8384H48.5151V27.049Z" fill="white"/>
<path d="M55.2841 30.4482C55.224 30.4882 55.1061 30.5408 54.9307 30.6058C54.7602 30.6658 54.5597 30.6958 54.3291 30.6958C54.0935 30.6958 53.8704 30.6583 53.6599 30.5832C53.4544 30.5082 53.2739 30.3931 53.1185 30.2381C52.9631 30.078 52.8403 29.8804 52.7501 29.6453C52.6598 29.4102 52.6147 29.13 52.6147 28.8049C52.6147 28.5197 52.6573 28.2596 52.7425 28.0245C52.8278 27.7844 52.9506 27.5793 53.111 27.4092C53.2764 27.2341 53.4769 27.0991 53.7125 27.004C53.9482 26.9039 54.2138 26.8539 54.5096 26.8539C54.8355 26.8539 55.1187 26.8789 55.3593 26.9289C55.6049 26.974 55.8105 27.0165 55.9759 27.0565V30.5382C55.9759 31.1385 55.8205 31.5737 55.5097 31.8439C55.1989 32.114 54.7276 32.249 54.0961 32.249C53.8504 32.249 53.6173 32.2291 53.3968 32.189C53.1812 32.149 52.9932 32.1015 52.8328 32.0465L52.9606 31.4387C53.101 31.4937 53.2714 31.5412 53.4719 31.5812C53.6775 31.6263 53.8905 31.6488 54.1111 31.6488C54.5271 31.6488 54.8254 31.5663 55.0059 31.4012C55.1914 31.2361 55.2841 30.9734 55.2841 30.6132V30.4482ZM55.2766 27.5518C55.2064 27.5318 55.1112 27.5142 54.9908 27.4992C54.8755 27.4792 54.7176 27.4692 54.5171 27.4692C54.1411 27.4692 53.8504 27.5918 53.6449 27.8369C53.4443 28.082 53.3441 28.4072 53.3441 28.8124C53.3441 29.0375 53.3717 29.2301 53.4268 29.3901C53.487 29.5502 53.5647 29.6828 53.6599 29.7878C53.7602 29.8929 53.873 29.9705 53.9983 30.0204C54.1286 30.0705 54.2615 30.0955 54.3968 30.0955C54.5823 30.0955 54.7528 30.0705 54.9081 30.0204C55.0635 29.9654 55.1863 29.9029 55.2766 29.8328V27.5518Z" fill="white"/>
<path d="M57.9174 29.9829C57.9224 30.023 57.9249 30.063 57.9249 30.103C57.9249 30.138 57.9249 30.1756 57.9249 30.2156C57.9249 30.5309 57.8773 30.8412 57.782 31.1464C57.6917 31.4567 57.5663 31.7519 57.4059 32.0322L56.8643 31.8595C56.9896 31.6043 57.0724 31.3441 57.1125 31.0788C57.1526 30.8187 57.1726 30.5735 57.1726 30.3432C57.1726 30.2782 57.1702 30.2156 57.1652 30.1556C57.1652 30.0955 57.1626 30.038 57.1577 29.9829H57.9174Z" fill="white"/>
<path d="M60.6055 28.2345C60.6055 27.7892 60.6706 27.3965 60.8009 27.0564C60.9363 26.7162 61.1168 26.4335 61.3423 26.2084C61.5729 25.9783 61.8386 25.8057 62.1394 25.6907C62.4452 25.5756 62.7685 25.5181 63.1094 25.5181C63.4453 25.5181 63.7611 25.5756 64.0568 25.6907C64.3576 25.8057 64.6208 25.9783 64.8464 26.2084C65.0719 26.4335 65.2499 26.7162 65.3803 27.0564C65.5156 27.3965 65.5833 27.7892 65.5833 28.2345C65.5833 28.6797 65.5156 29.0724 65.3803 29.4125C65.2499 29.7527 65.0719 30.0378 64.8464 30.2679C64.6208 30.493 64.3576 30.6631 64.0568 30.7782C63.7611 30.8933 63.4453 30.9508 63.1094 30.9508C62.7685 30.9508 62.4452 30.8933 62.1394 30.7782C61.8386 30.6631 61.5729 30.493 61.3423 30.2679C61.1168 30.0378 60.9363 29.7527 60.8009 29.4125C60.6706 29.0724 60.6055 28.6797 60.6055 28.2345ZM61.3724 28.2345C61.3724 28.5496 61.4125 28.8372 61.4927 29.0974C61.5729 29.3525 61.6857 29.5701 61.8311 29.7502C61.9815 29.9302 62.162 30.0703 62.3725 30.1704C62.588 30.2655 62.8287 30.313 63.0944 30.313C63.36 30.313 63.5981 30.2655 63.8087 30.1704C64.0192 30.0703 64.1972 29.9302 64.3426 29.7502C64.493 29.5701 64.6083 29.3525 64.6885 29.0974C64.7687 28.8372 64.8088 28.5496 64.8088 28.2345C64.8088 27.9193 64.7687 27.6341 64.6885 27.379C64.6083 27.1188 64.493 26.8988 64.3426 26.7187C64.1972 26.5386 64.0192 26.401 63.8087 26.306C63.5981 26.2059 63.36 26.1559 63.0944 26.1559C62.8287 26.1559 62.588 26.2059 62.3725 26.306C62.162 26.401 61.9815 26.5386 61.8311 26.7187C61.6857 26.8988 61.5729 27.1188 61.4927 27.379C61.4125 27.6341 61.3724 27.9193 61.3724 28.2345Z" fill="white"/>
<path d="M69.7363 30.7257C69.5758 30.7658 69.3628 30.8083 69.0971 30.8533C68.8365 30.8983 68.5332 30.9209 68.1873 30.9209C67.8865 30.9209 67.6333 30.8783 67.4278 30.7933C67.2223 30.7032 67.0568 30.5782 66.9315 30.4181C66.8062 30.258 66.716 30.0704 66.6608 29.8553C66.6057 29.6353 66.5781 29.3926 66.5781 29.1275V26.9364H67.2774V28.9774C67.2774 29.4526 67.3526 29.7928 67.503 29.9979C67.6534 30.203 67.9066 30.3055 68.2625 30.3055C68.3377 30.3055 68.4153 30.303 68.4956 30.2981C68.5758 30.293 68.651 30.2881 68.7212 30.283C68.7913 30.273 68.854 30.2656 68.9091 30.2605C68.9693 30.2505 69.0119 30.2405 69.037 30.2305V26.9364H69.7363V30.7257Z" fill="white"/>
<path d="M72.3849 26.8539C72.4453 26.8539 72.5125 26.8589 72.5878 26.8689C72.6684 26.8739 72.7457 26.8839 72.8209 26.899C72.8962 26.9089 72.964 26.9215 73.0238 26.9365C73.089 26.9465 73.1367 26.9565 73.1669 26.9665L73.0467 27.5743C72.9916 27.5543 72.8989 27.5318 72.7685 27.5068C72.6429 27.4767 72.4803 27.4617 72.2794 27.4617C72.149 27.4617 72.0187 27.4767 71.8883 27.5068C71.7634 27.5318 71.6807 27.5492 71.6404 27.5592V30.8384H70.9412V27.1015C71.1066 27.0415 71.3118 26.9864 71.5578 26.9365C71.8037 26.8814 72.0791 26.8539 72.3849 26.8539Z" fill="white"/>
<path d="M78.1759 28.6621C78.2566 28.7621 78.3567 28.8947 78.4769 29.0598C78.6026 29.2199 78.7302 29.4 78.8606 29.6001C78.9909 29.7952 79.1186 30.0003 79.2442 30.2154C79.3746 30.4305 79.4848 30.6381 79.5748 30.8382H78.7779C78.6778 30.6481 78.567 30.4555 78.4467 30.2604C78.3318 30.0653 78.2136 29.8802 78.0933 29.7051C77.973 29.5251 77.8527 29.3574 77.7325 29.2024C77.6176 29.0473 77.5121 28.9122 77.4167 28.7972C77.3515 28.8022 77.2837 28.8047 77.2138 28.8047C77.1486 28.8047 77.0807 28.8047 77.0109 28.8047H76.3564V30.8382H75.6274V25.7132C75.8324 25.6632 76.0608 25.6307 76.3114 25.6156C76.5674 25.5956 76.7999 25.5856 77.0109 25.5856C77.7426 25.5856 78.2989 25.7232 78.6798 25.9983C79.0662 26.2735 79.259 26.6836 79.259 27.2289C79.259 27.5741 79.1663 27.8692 78.9808 28.1144C78.8001 28.3595 78.532 28.542 78.1759 28.6621ZM77.0707 26.2234C76.7603 26.2234 76.5217 26.2309 76.3564 26.2459V28.2044H76.8751C77.1258 28.2044 77.3515 28.1919 77.5524 28.1668C77.7526 28.1418 77.9206 28.0943 78.0557 28.0243C78.1961 27.9543 78.3043 27.8567 78.3795 27.7317C78.4548 27.6016 78.4924 27.4315 78.4924 27.2214C78.4924 27.0263 78.4548 26.8637 78.3795 26.7337C78.3043 26.6036 78.2015 26.501 78.0711 26.426C77.9455 26.351 77.795 26.2984 77.6196 26.2684C77.4496 26.2384 77.2662 26.2234 77.0707 26.2234Z" fill="white"/>
<path d="M80.0928 28.8947C80.0928 28.5496 80.1432 28.2494 80.2433 27.9943C80.3434 27.7342 80.4764 27.5191 80.6417 27.349C80.807 27.1789 80.9978 27.0513 81.2135 26.9663C81.4292 26.8813 81.6495 26.8387 81.8753 26.8387C82.4014 26.8387 82.8052 27.0038 83.0854 27.334C83.3662 27.6591 83.5066 28.1569 83.5066 28.8272C83.5066 28.8572 83.5066 28.8973 83.5066 28.9473C83.5066 28.9923 83.504 29.0348 83.4993 29.0749H80.8224C80.8527 29.48 80.9703 29.7877 81.1759 29.9978C81.3815 30.2079 81.702 30.313 82.138 30.313C82.3839 30.313 82.5895 30.2929 82.7548 30.253C82.9255 30.2079 83.0531 30.1654 83.1385 30.1254L83.2359 30.7107C83.1505 30.7557 83.0007 30.8032 82.785 30.8532C82.5741 30.9032 82.3335 30.9283 82.0628 30.9283C81.7221 30.9283 81.4265 30.8782 81.1759 30.7782C80.9299 30.6732 80.727 30.5306 80.5665 30.3505C80.4065 30.1704 80.2856 29.9578 80.2057 29.7127C80.1304 29.4625 80.0928 29.1899 80.0928 28.8947ZM82.7776 28.5121C82.7824 28.1969 82.7024 27.9393 82.5364 27.7392C82.3765 27.5341 82.1535 27.4316 81.8672 27.4316C81.7073 27.4316 81.5642 27.4641 81.4386 27.5291C81.3183 27.5891 81.2155 27.6691 81.1308 27.7692C81.0455 27.8692 80.9777 27.9843 80.9273 28.1144C80.8822 28.2444 80.8527 28.377 80.8372 28.5121H82.7776Z" fill="white"/>
<path d="M85.4208 30.3355C85.707 30.3355 85.9173 30.298 86.0523 30.2229C86.1928 30.1479 86.2633 30.0278 86.2633 29.8627C86.2633 29.6927 86.1955 29.5576 86.0604 29.4575C85.9247 29.3575 85.7016 29.2449 85.3912 29.1199C85.2407 29.0598 85.0949 28.9998 84.9552 28.9398C84.8194 28.8748 84.7018 28.7997 84.6017 28.7147C84.501 28.6296 84.421 28.5271 84.3605 28.407C84.3007 28.2869 84.2705 28.1394 84.2705 27.9643C84.2705 27.6191 84.3981 27.3465 84.6541 27.1464C84.9095 26.9413 85.2582 26.8387 85.6989 26.8387C85.8098 26.8387 85.92 26.8463 86.0302 26.8613C86.1404 26.8713 86.2432 26.8862 86.3386 26.9063C86.4333 26.9213 86.5166 26.9388 86.5865 26.9588C86.6618 26.9788 86.7195 26.9963 86.7592 27.0114L86.6315 27.6116C86.5563 27.5716 86.4387 27.5316 86.2781 27.4916C86.1175 27.4465 85.9247 27.424 85.6989 27.424C85.5034 27.424 85.3334 27.4641 85.1876 27.5441C85.0425 27.6191 84.9699 27.7392 84.9699 27.9043C84.9699 27.9893 84.9847 28.0643 85.0149 28.1294C85.0499 28.1944 85.1003 28.2544 85.1654 28.3094C85.2353 28.3595 85.3207 28.407 85.4208 28.452C85.5216 28.497 85.6418 28.5446 85.7822 28.5946C85.9677 28.6647 86.133 28.7347 86.2781 28.8047C86.4239 28.8697 86.5462 28.9473 86.647 29.0373C86.7518 29.1274 86.8324 29.2374 86.8875 29.3675C86.9426 29.4926 86.9702 29.6477 86.9702 29.8327C86.9702 30.1929 86.8344 30.4655 86.5637 30.6507C86.2983 30.8357 85.9173 30.9283 85.4208 30.9283C85.0754 30.9283 84.8046 30.8982 84.6091 30.8382C84.4136 30.7832 84.2806 30.7407 84.2107 30.7107L84.3384 30.1104C84.4183 30.1404 84.546 30.1854 84.722 30.2454C84.8974 30.3054 85.1305 30.3355 85.4208 30.3355Z" fill="white"/>
<path d="M90.5816 28.8949C90.5816 28.4397 90.4687 28.0895 90.243 27.8444C90.0179 27.5993 89.7169 27.4767 89.3406 27.4767C89.1303 27.4767 88.9651 27.4843 88.8448 27.4992C88.7292 27.5142 88.6365 27.5318 88.5666 27.5518V30.013C88.6513 30.083 88.7742 30.1505 88.9348 30.2156C89.0954 30.2806 89.2708 30.3131 89.4609 30.3131C89.6618 30.3131 89.8325 30.2781 89.9722 30.208C90.118 30.133 90.2356 30.033 90.3256 29.9079C90.4163 29.7778 90.4815 29.6278 90.5212 29.4577C90.5615 29.2826 90.5816 29.095 90.5816 28.8949ZM91.3106 28.8949C91.3106 29.19 91.271 29.4627 91.1904 29.7128C91.1151 29.9629 91.0029 30.1781 90.8524 30.3581C90.7019 30.5382 90.5164 30.6783 90.2961 30.7783C90.0804 30.8784 89.8318 30.9284 89.5516 30.9284C89.3259 30.9284 89.1256 30.8984 88.9496 30.8384C88.7796 30.7783 88.6513 30.7208 88.5666 30.6658V32.2265H87.8672V27.0565C88.0325 27.0165 88.2381 26.974 88.484 26.9289C88.7346 26.8789 89.0228 26.8539 89.3487 26.8539C89.649 26.8539 89.9198 26.9015 90.1603 26.9965C90.4009 27.0915 90.6065 27.2266 90.7771 27.4017C90.9478 27.5768 91.0782 27.7918 91.1682 28.047C91.2636 28.2971 91.3106 28.5798 91.3106 28.8949Z" fill="white"/>
<path d="M95.7463 28.8873C95.7463 29.1974 95.7013 29.4775 95.6106 29.7277C95.5206 29.9778 95.3929 30.1929 95.2277 30.373C95.0671 30.5531 94.8742 30.6931 94.6485 30.7932C94.4227 30.8882 94.1775 30.9357 93.9114 30.9357C93.646 30.9357 93.4001 30.8882 93.1744 30.7932C92.9493 30.6931 92.7537 30.5531 92.5885 30.373C92.4279 30.1929 92.3022 29.9778 92.2122 29.7277C92.1222 29.4775 92.0771 29.1974 92.0771 28.8873C92.0771 28.5821 92.1222 28.3045 92.2122 28.0543C92.3022 27.7992 92.4279 27.5816 92.5885 27.4015C92.7537 27.2215 92.9493 27.0839 93.1744 26.9888C93.4001 26.8888 93.646 26.8387 93.9114 26.8387C94.1775 26.8387 94.4227 26.8888 94.6485 26.9888C94.8742 27.0839 95.0671 27.2215 95.2277 27.4015C95.3929 27.5816 95.5206 27.7992 95.6106 28.0543C95.7013 28.3045 95.7463 28.5821 95.7463 28.8873ZM95.0167 28.8873C95.0167 28.4471 94.9166 28.0993 94.7163 27.8442C94.5208 27.5841 94.2527 27.4541 93.9114 27.4541C93.5708 27.4541 93.3 27.5841 93.0998 27.8442C92.9042 28.0993 92.8062 28.4471 92.8062 28.8873C92.8062 29.3275 92.9042 29.6776 93.0998 29.9378C93.3 30.1929 93.5708 30.3205 93.9114 30.3205C94.2527 30.3205 94.5208 30.1929 94.7163 29.9378C94.9166 29.6776 95.0167 29.3275 95.0167 28.8873Z" fill="white"/>
<path d="M96.73 27.049C96.8906 27.009 97.1036 26.9665 97.369 26.9215C97.635 26.8764 97.9407 26.8539 98.2868 26.8539C98.5972 26.8539 98.8558 26.899 99.0614 26.989C99.2664 27.074 99.4296 27.1966 99.5499 27.3567C99.6756 27.5117 99.7629 27.6993 99.8133 27.9194C99.863 28.1395 99.8885 28.3822 99.8885 28.6473V30.8384H99.1891V28.7974C99.1891 28.5573 99.1716 28.3521 99.136 28.1821C99.1065 28.012 99.0534 27.8744 98.9781 27.7693C98.9036 27.6643 98.8028 27.5893 98.6778 27.5443C98.5522 27.4942 98.3969 27.4692 98.2115 27.4692C98.1363 27.4692 98.0583 27.4717 97.9784 27.4767C97.8984 27.4817 97.8205 27.4892 97.7452 27.4992C97.6753 27.5042 97.6102 27.5117 97.5497 27.5217C97.4946 27.5318 97.4543 27.5393 97.4294 27.5443V30.8384H96.73V27.049Z" fill="white"/>
<path d="M101.958 30.3355C102.244 30.3355 102.454 30.298 102.59 30.2229C102.73 30.1479 102.8 30.0278 102.8 29.8627C102.8 29.6927 102.732 29.5576 102.597 29.4575C102.462 29.3575 102.239 29.2449 101.928 29.1199C101.777 29.0598 101.632 28.9998 101.492 28.9398C101.356 28.8748 101.238 28.7997 101.138 28.7147C101.038 28.6296 100.958 28.5271 100.898 28.407C100.837 28.2869 100.807 28.1394 100.807 27.9643C100.807 27.6191 100.935 27.3465 101.191 27.1464C101.447 26.9413 101.795 26.8387 102.236 26.8387C102.346 26.8387 102.457 26.8463 102.567 26.8613C102.677 26.8713 102.78 26.8862 102.875 26.9063C102.971 26.9213 103.053 26.9388 103.123 26.9588C103.198 26.9788 103.256 26.9963 103.296 27.0114L103.169 27.6116C103.094 27.5716 102.975 27.5316 102.815 27.4916C102.655 27.4465 102.462 27.424 102.236 27.424C102.041 27.424 101.87 27.4641 101.725 27.5441C101.579 27.6191 101.507 27.7392 101.507 27.9043C101.507 27.9893 101.522 28.0643 101.552 28.1294C101.587 28.1944 101.637 28.2544 101.702 28.3094C101.773 28.3595 101.857 28.407 101.958 28.452C102.058 28.497 102.178 28.5446 102.319 28.5946C102.504 28.6647 102.67 28.7347 102.815 28.8047C102.961 28.8697 103.083 28.9473 103.184 29.0373C103.289 29.1274 103.369 29.2374 103.424 29.3675C103.479 29.4926 103.507 29.6477 103.507 29.8327C103.507 30.1929 103.372 30.4655 103.101 30.6507C102.835 30.8357 102.454 30.9283 101.958 30.9283C101.612 30.9283 101.341 30.8982 101.146 30.8382C100.95 30.7832 100.817 30.7407 100.747 30.7107L100.875 30.1104C100.956 30.1404 101.083 30.1854 101.259 30.2454C101.434 30.3054 101.667 30.3355 101.958 30.3355Z" fill="white"/>
<path d="M105.103 30.8383H104.404V26.9364H105.103V30.8383ZM104.75 26.231C104.624 26.231 104.517 26.191 104.427 26.1109C104.341 26.0259 104.298 25.9133 104.298 25.7733C104.298 25.6332 104.341 25.5232 104.427 25.4431C104.517 25.3581 104.624 25.3156 104.75 25.3156C104.875 25.3156 104.98 25.3581 105.066 25.4431C105.156 25.5232 105.201 25.6332 105.201 25.7733C105.201 25.9133 105.156 26.0259 105.066 26.1109C104.98 26.191 104.875 26.231 104.75 26.231Z" fill="white"/>
<path d="M107.005 27.1089C107.09 27.0539 107.218 26.9963 107.388 26.9363C107.563 26.8763 107.764 26.8463 107.99 26.8463C108.27 26.8463 108.519 26.8963 108.735 26.9963C108.955 27.0964 109.14 27.2365 109.291 27.4165C109.441 27.5967 109.554 27.8117 109.629 28.0619C109.709 28.312 109.749 28.5872 109.749 28.8873C109.749 29.2024 109.702 29.4876 109.607 29.7427C109.516 29.9928 109.386 30.2054 109.216 30.3805C109.045 30.5556 108.839 30.6906 108.599 30.7857C108.358 30.8807 108.088 30.9283 107.787 30.9283C107.461 30.9283 107.172 30.9058 106.922 30.8608C106.671 30.8158 106.466 30.7707 106.306 30.7257V25.1354L107.005 25.0154V27.1089ZM107.005 30.2305C107.075 30.2504 107.173 30.2704 107.298 30.2905C107.428 30.3055 107.589 30.313 107.779 30.313C108.155 30.313 108.456 30.1904 108.681 29.9453C108.907 29.6952 109.02 29.3425 109.02 28.8873C109.02 28.6872 109 28.4996 108.96 28.3245C108.92 28.1494 108.855 27.9993 108.764 27.8743C108.674 27.7442 108.557 27.6442 108.411 27.5741C108.27 27.4991 108.1 27.4616 107.899 27.4616C107.709 27.4616 107.534 27.4941 107.373 27.5591C107.213 27.6241 107.09 27.6917 107.005 27.7617V30.2305Z" fill="white"/>
<path d="M111.433 30.8383H110.734V26.9364H111.433V30.8383ZM111.08 26.231C110.954 26.231 110.847 26.191 110.757 26.1109C110.671 26.0259 110.628 25.9133 110.628 25.7733C110.628 25.6332 110.671 25.5232 110.757 25.4431C110.847 25.3581 110.954 25.3156 111.08 25.3156C111.205 25.3156 111.31 25.3581 111.395 25.4431C111.486 25.5232 111.531 25.6332 111.531 25.7733C111.531 25.9133 111.486 26.0259 111.395 26.1109C111.31 26.191 111.205 26.231 111.08 26.231Z" fill="white"/>
<path d="M113.809 30.9132C113.378 30.9032 113.072 30.8107 112.891 30.6356C112.711 30.4605 112.62 30.1879 112.62 29.8177V25.1354L113.32 25.0154V29.7052C113.32 29.8202 113.33 29.9153 113.35 29.9903C113.37 30.0654 113.402 30.1254 113.447 30.1704C113.492 30.2154 113.553 30.2504 113.628 30.2755C113.703 30.2954 113.796 30.313 113.906 30.328L113.809 30.9132Z" fill="white"/>
<path d="M115.391 30.8383H114.692V26.9364H115.391V30.8383ZM115.038 26.231C114.912 26.231 114.805 26.191 114.714 26.1109C114.629 26.0259 114.586 25.9133 114.586 25.7733C114.586 25.6332 114.629 25.5232 114.714 25.4431C114.805 25.3581 114.912 25.3156 115.038 25.3156C115.163 25.3156 115.268 25.3581 115.353 25.4431C115.444 25.5232 115.489 25.6332 115.489 25.7733C115.489 25.9133 115.444 26.0259 115.353 26.1109C115.268 26.191 115.163 26.231 115.038 26.231Z" fill="white"/>
<path d="M117.248 26.9364H118.729V27.5217H117.248V29.3226C117.248 29.5177 117.263 29.6803 117.293 29.8103C117.323 29.9354 117.368 30.0354 117.429 30.1105C117.488 30.1805 117.564 30.2305 117.654 30.2605C117.744 30.2905 117.849 30.3055 117.969 30.3055C118.18 30.3055 118.348 30.283 118.473 30.238C118.604 30.188 118.694 30.1529 118.744 30.133L118.88 30.7107C118.809 30.7458 118.686 30.7883 118.511 30.8383C118.336 30.8934 118.135 30.9208 117.91 30.9208C117.644 30.9208 117.423 30.8883 117.248 30.8233C117.077 30.7533 116.939 30.6507 116.835 30.5156C116.729 30.3806 116.654 30.2155 116.609 30.0204C116.568 29.8203 116.548 29.5902 116.548 29.3301V25.8483L117.248 25.7283V26.9364Z" fill="white"/>
<path d="M119.161 31.5662C119.216 31.5912 119.286 31.6137 119.371 31.6337C119.461 31.6587 119.549 31.6712 119.634 31.6712C119.91 31.6712 120.125 31.6087 120.281 31.4836C120.436 31.3636 120.576 31.166 120.702 30.8908C120.386 30.2905 120.09 29.6552 119.814 28.9849C119.544 28.3095 119.318 27.6267 119.138 26.9364H119.89C119.945 27.1615 120.01 27.4041 120.085 27.6643C120.165 27.9243 120.253 28.192 120.348 28.4672C120.444 28.7423 120.546 29.0174 120.657 29.2925C120.767 29.5677 120.882 29.8328 121.002 30.088C121.193 29.5627 121.358 29.0424 121.499 28.5272C121.639 28.0119 121.772 27.4816 121.897 26.9364H122.619C122.439 27.6718 122.238 28.3796 122.017 29.0599C121.797 29.7353 121.559 30.3681 121.303 30.9583C121.203 31.1835 121.098 31.3761 120.987 31.5362C120.882 31.7013 120.764 31.8363 120.634 31.9414C120.504 32.0464 120.356 32.1239 120.191 32.174C120.03 32.224 119.847 32.249 119.642 32.249C119.587 32.249 119.529 32.244 119.468 32.234C119.408 32.229 119.348 32.219 119.288 32.204C119.233 32.1939 119.18 32.1815 119.13 32.1665C119.085 32.1515 119.052 32.1389 119.032 32.129L119.161 31.5662Z" fill="white"/>
<path d="M123.979 30.4333C123.979 30.5684 123.934 30.686 123.844 30.7861C123.753 30.8862 123.63 30.9362 123.475 30.9362C123.32 30.9362 123.197 30.8862 123.106 30.7861C123.016 30.686 122.971 30.5684 122.971 30.4333C122.971 30.2982 123.016 30.1805 123.106 30.0805C123.197 29.9804 123.32 29.9303 123.475 29.9303C123.63 29.9303 123.753 29.9804 123.844 30.0805C123.934 30.1805 123.979 30.2982 123.979 30.4333Z" fill="white"/>
<path d="M117.91 19.9211C117.05 19.9211 116.278 19.7544 115.594 19.4211C114.927 19.0702 114.357 18.5965 113.883 17.9999C113.427 17.4034 113.076 16.7191 112.83 15.9471C112.602 15.1576 112.488 14.3154 112.488 13.4207C112.506 12.5259 112.637 11.6924 112.883 10.9205C113.129 10.131 113.48 9.44672 113.936 8.86775C114.41 8.27118 114.98 7.80629 115.647 7.4729C116.313 7.13958 117.068 6.97288 117.91 6.97288C118.717 6.97288 119.471 7.13958 120.173 7.4729C120.892 7.80629 121.524 8.27118 122.068 8.86775C122.629 9.44672 123.068 10.131 123.384 10.9205C123.699 11.6924 123.857 12.5171 123.857 13.3943C123.857 14.3067 123.699 15.1664 123.384 15.9735C123.068 16.763 122.638 17.456 122.094 18.0526C121.55 18.6315 120.918 19.0877 120.199 19.4211C119.48 19.7544 118.717 19.9211 117.91 19.9211ZM117.488 16.842C118.103 16.842 118.655 16.7016 119.147 16.4209C119.638 16.1226 120.024 15.719 120.304 15.2103C120.603 14.7014 120.752 14.1225 120.752 13.4733C120.752 12.8066 120.603 12.2188 120.304 11.7101C120.024 11.1837 119.638 10.7802 119.147 10.4994C118.655 10.2012 118.103 10.052 117.488 10.052C116.892 10.052 116.348 10.2012 115.857 10.4994C115.366 10.7977 114.971 11.2012 114.673 11.7101C114.392 12.2188 114.252 12.8066 114.252 13.4733C114.252 14.1225 114.392 14.7014 114.673 15.2103C114.971 15.719 115.366 16.1226 115.857 16.4209C116.348 16.7016 116.892 16.842 117.488 16.842ZM112.62 19.9474C112.146 19.9474 111.795 19.8684 111.567 19.7105C111.339 19.5702 111.199 19.3859 111.146 19.1579C111.093 18.9123 111.067 18.6403 111.067 18.342V2.65681C111.067 2.35854 111.093 2.09537 111.146 1.86728C111.199 1.62165 111.339 1.42866 111.567 1.2883C111.795 1.14794 112.146 1.07776 112.62 1.07776C113.111 1.07776 113.462 1.14794 113.673 1.2883C113.883 1.42866 114.015 1.62165 114.067 1.86728C114.12 2.11292 114.146 2.37609 114.146 2.65681V18.8684C114.076 19.2544 113.927 19.5263 113.699 19.6842C113.489 19.8597 113.129 19.9474 112.62 19.9474Z" fill="white" stroke="white" stroke-width="0.4"/>
<path d="M103.223 20.1058C102.083 20.1058 101.083 19.9215 100.223 19.5531C99.3809 19.1847 98.67 18.6846 98.0915 18.053C97.5298 17.4038 97.0998 16.6845 96.8015 15.895C96.5213 15.0879 96.3809 14.2545 96.3809 13.3948C96.3809 12.1316 96.6704 11.0087 97.2489 10.0262C97.8281 9.04363 98.6263 8.27169 99.6442 7.71026C100.679 7.14876 101.863 6.86804 103.197 6.86804C104.145 6.86804 104.978 7.0172 105.697 7.31545C106.416 7.61371 107.013 8.00851 107.487 8.49973C107.978 8.97348 108.347 9.49984 108.592 10.0788C108.855 10.6578 108.987 11.2192 108.987 11.7631C108.987 12.693 108.758 13.3685 108.302 13.7896C107.864 14.2107 107.311 14.4212 106.645 14.4212H99.6967C99.7141 15.0177 99.8982 15.5353 100.25 15.9739C100.618 16.4125 101.074 16.7547 101.618 17.0003C102.179 17.2284 102.75 17.3424 103.328 17.3424C103.767 17.3424 104.153 17.3161 104.487 17.2635C104.837 17.2109 105.136 17.1495 105.382 17.0792C105.627 16.9915 105.837 16.9038 106.013 16.8161C106.206 16.7284 106.381 16.6494 106.539 16.5792C106.697 16.509 106.846 16.4652 106.987 16.4476C107.18 16.4301 107.372 16.4739 107.566 16.5792C107.759 16.6845 107.917 16.8687 108.04 17.1319C108.144 17.3074 108.215 17.4741 108.25 17.6319C108.302 17.7723 108.329 17.9127 108.329 18.053C108.329 18.4039 108.118 18.7373 107.697 19.0531C107.276 19.3513 106.68 19.597 105.908 19.7899C105.153 20.0005 104.258 20.1058 103.223 20.1058ZM99.6967 12.5526H105.092C105.39 12.5526 105.618 12.5088 105.776 12.4211C105.934 12.3158 106.013 12.1052 106.013 11.7894C106.013 11.3859 105.89 11.0262 105.644 10.7105C105.399 10.3771 105.066 10.1227 104.644 9.94719C104.223 9.75422 103.732 9.65774 103.17 9.65774C102.521 9.65774 101.933 9.78929 101.407 10.0525C100.881 10.2981 100.46 10.6402 100.144 11.0789C99.8458 11.5175 99.6967 12.0088 99.6967 12.5526Z" fill="white" stroke="white" stroke-width="0.4"/>
<path d="M79.6776 19.8695C79.3268 19.8695 79.046 19.8081 78.835 19.6853C78.6247 19.5449 78.4668 19.387 78.3613 19.2116C78.274 19.0361 78.2122 18.887 78.1772 18.7642L73.0191 3.65796C72.8438 3.09652 72.8176 2.67544 72.9405 2.39472C73.0628 2.09645 73.4229 1.85082 74.0196 1.65783C74.4227 1.51747 74.7472 1.45607 74.9931 1.47361C75.2384 1.49115 75.4406 1.59643 75.5985 1.78942C75.7739 1.96487 75.923 2.24559 76.046 2.63158L79.8355 14.106L83.2305 2.73685C83.2829 2.5614 83.3535 2.38595 83.4408 2.2105C83.5463 2.01751 83.7042 1.8596 83.9145 1.73678C84.1248 1.61397 84.4144 1.55257 84.7833 1.55257C85.2039 1.55257 85.5197 1.62274 85.7306 1.7631C85.9409 1.90346 86.0901 2.06137 86.1781 2.23682C86.2829 2.39472 86.3535 2.54385 86.3884 2.68422L89.7835 14.1849L93.5992 2.6579C93.7221 2.25436 93.8626 1.9561 94.0204 1.7631C94.1958 1.57011 94.4155 1.46484 94.6782 1.44729C94.9416 1.41221 95.2661 1.46484 95.6525 1.6052C96.0556 1.74556 96.3452 1.90346 96.5205 2.07891C96.6959 2.23682 96.7839 2.44736 96.7839 2.71053C96.7839 2.95616 96.7221 3.27197 96.5998 3.65796L91.4679 18.7905C91.4323 18.8958 91.3624 19.0361 91.257 19.2116C91.1696 19.387 91.0204 19.5449 90.8095 19.6853C90.5992 19.8081 90.3096 19.8695 89.9414 19.8695C89.5732 19.8695 89.2836 19.7906 89.0726 19.6327C88.8623 19.4748 88.7044 19.2993 88.5989 19.1063C88.4941 18.9134 88.4236 18.7729 88.3886 18.6853L84.8095 7.10554L81.2303 18.6589C81.1954 18.7817 81.1248 18.9396 81.02 19.1327C80.932 19.3256 80.7828 19.5011 80.5725 19.659C80.3616 19.7993 80.0632 19.8695 79.6776 19.8695Z" fill="white" stroke="white" stroke-width="0.4"/>
<path d="M65.9934 20.1061C65.5372 20.1061 65.0547 20.0534 64.5459 19.9481C64.0371 19.8604 63.5458 19.7288 63.0722 19.5534C62.5984 19.3604 62.1861 19.1411 61.8352 18.8954C61.5019 18.6323 61.2913 18.3427 61.2036 18.027C61.1334 17.8515 61.1071 17.6848 61.1247 17.5269C61.1422 17.3514 61.1948 17.176 61.2826 17.0006C61.3703 16.8076 61.5019 16.6146 61.6773 16.4216C61.8352 16.2286 61.9931 16.1233 62.1511 16.1057C62.3265 16.0707 62.5458 16.1233 62.809 16.2637C63.037 16.3514 63.2827 16.4655 63.5458 16.6058C63.8266 16.7462 64.1073 16.8865 64.388 17.0269C64.6862 17.1673 64.9846 17.2813 65.2828 17.369C65.5986 17.4567 65.9057 17.5006 66.2039 17.5006C66.8531 17.5006 67.3706 17.3953 67.7566 17.1848C68.1426 16.9567 68.3356 16.6409 68.3356 16.2374C68.3356 16.0093 68.2742 15.8075 68.1514 15.6321C68.0286 15.4566 67.8619 15.3163 67.6514 15.211C67.4584 15.0882 67.2215 14.9829 66.9408 14.8952C66.6776 14.7899 66.3881 14.7022 66.0723 14.632C65.774 14.5443 65.4582 14.4478 65.1249 14.3425C64.6862 14.2197 64.2476 14.0706 63.809 13.8951C63.3704 13.7197 62.9757 13.4915 62.6247 13.2108C62.2914 12.9301 62.0194 12.5793 61.8089 12.1582C61.5984 11.737 61.4931 11.2107 61.4931 10.5791C61.4931 9.78956 61.6773 9.12284 62.0458 8.57895C62.4318 8.01751 62.9844 7.58771 63.7037 7.28939C64.4231 6.99113 65.2915 6.84204 66.3092 6.84204C66.6601 6.84204 66.9934 6.86831 67.3092 6.92099C67.6426 6.9736 67.9584 7.05254 68.2567 7.15783C68.5725 7.24558 68.8708 7.3596 69.1515 7.49996C69.4497 7.64031 69.7305 7.79821 69.9936 7.97364C70.4322 8.21928 70.6604 8.5088 70.6779 8.84213C70.6954 9.15798 70.5726 9.50011 70.3094 9.86851C70.1165 10.1142 69.9234 10.2896 69.7305 10.3949C69.5374 10.4826 69.3357 10.4826 69.1252 10.3949C68.8444 10.2545 68.5374 10.1054 68.2041 9.94746C67.8882 9.77202 67.5549 9.62287 67.2039 9.50011C66.8706 9.37729 66.5197 9.31588 66.1513 9.31588C65.8004 9.31588 65.4846 9.36849 65.2039 9.47377C64.9231 9.57906 64.7126 9.72815 64.5722 9.92118C64.4319 10.1142 64.3617 10.3423 64.3617 10.6054C64.3617 10.851 64.4319 11.0528 64.5722 11.2107C64.7126 11.3686 64.8968 11.5002 65.1249 11.6055C65.353 11.7108 65.6249 11.8073 65.9407 11.895C66.2565 11.9651 66.5899 12.0354 66.9408 12.1055C67.4321 12.2108 67.9321 12.3423 68.4409 12.5003C68.9497 12.6582 69.4146 12.8775 69.8357 13.1582C70.2744 13.4389 70.6252 13.8161 70.8884 14.2899C71.1519 14.746 71.2829 15.3425 71.2829 16.0795C71.2829 17.3602 70.8094 18.3515 69.862 19.0533C68.9321 19.7551 67.6426 20.1061 65.9934 20.1061Z" fill="white" stroke="white" stroke-width="0.4"/>
<path d="M53.5693 20.1055C52.4289 20.1055 51.4288 19.9213 50.5692 19.5528C49.727 19.1844 49.0164 18.6844 48.4374 18.0528C47.876 17.4036 47.4461 16.6843 47.1479 15.8947C46.8672 15.0876 46.7268 14.2542 46.7268 13.3946C46.7268 12.1313 47.0163 11.0085 47.5953 10.0259C48.1743 9.04338 48.9726 8.27145 49.9902 7.71001C51.0254 7.14851 52.2096 6.8678 53.543 6.8678C54.4904 6.8678 55.3239 7.01696 56.0432 7.31521C56.7625 7.61346 57.3591 8.00827 57.8328 8.49949C58.3241 8.97324 58.6925 9.4996 58.9381 10.0786C59.2013 10.6575 59.3329 11.219 59.3329 11.7629C59.3329 12.6928 59.1048 13.3682 58.6486 13.7893C58.21 14.2104 57.6573 14.4209 56.9906 14.4209H50.0428C50.0603 15.0174 50.2446 15.5351 50.5955 15.9737C50.964 16.4123 51.4201 16.7544 51.964 17.0001C52.5254 17.2282 53.0957 17.3422 53.6746 17.3422C54.1132 17.3422 54.4992 17.3158 54.8326 17.2632C55.1835 17.2106 55.4818 17.1492 55.7274 17.079C55.973 16.9913 56.1835 16.9036 56.359 16.8158C56.552 16.7281 56.7274 16.6491 56.8853 16.579C57.0432 16.5088 57.1924 16.465 57.3327 16.4474C57.5257 16.4298 57.7187 16.4737 57.9117 16.579C58.1047 16.6843 58.2626 16.8685 58.3855 17.1316C58.4907 17.3071 58.5609 17.4737 58.596 17.6317C58.6486 17.7721 58.6749 17.9124 58.6749 18.0528C58.6749 18.4036 58.4644 18.737 58.0433 19.0528C57.6223 19.3511 57.0257 19.5967 56.2538 19.7897C55.4993 20.0003 54.6045 20.1055 53.5693 20.1055ZM50.0428 12.5524H55.4379C55.7361 12.5524 55.9642 12.5085 56.1221 12.4208C56.28 12.3156 56.359 12.105 56.359 11.7892C56.359 11.3857 56.2362 11.026 55.9906 10.7101C55.7449 10.3768 55.4115 10.1224 54.9905 9.94694C54.5694 9.75397 54.0782 9.65749 53.5167 9.65749C52.8676 9.65749 52.2798 9.78905 51.7534 10.0522C51.2271 10.2979 50.806 10.64 50.4902 11.0786C50.192 11.5172 50.0428 12.0085 50.0428 12.5524Z" fill="white" stroke="white" stroke-width="0.4"/>
<path d="M44.1742 19.9486C43.525 19.9486 42.946 19.9047 42.4372 19.817C41.946 19.7293 41.5161 19.5801 41.1477 19.3696C40.7968 19.1591 40.5073 18.8784 40.2792 18.5274C40.0511 18.159 39.8757 17.7116 39.7529 17.1853C39.6476 16.6589 39.595 16.0273 39.595 15.2904V2.60536C39.595 2.3071 39.6212 2.04392 39.6739 1.81584C39.7441 1.57021 39.8844 1.37722 40.095 1.23686C40.3231 1.07895 40.6828 1 41.174 1C41.6653 1 42.0161 1.07018 42.2267 1.21054C42.4548 1.3509 42.5952 1.5439 42.6478 1.78953C42.718 2.01761 42.7531 2.28079 42.7531 2.57905V15.1588C42.7531 15.4922 42.7706 15.7729 42.8057 16.001C42.8583 16.2115 42.9373 16.387 43.0425 16.5273C43.1653 16.6501 43.3145 16.7378 43.4899 16.7905C43.683 16.8431 43.911 16.8695 44.1742 16.8695C44.4023 16.8695 44.6041 16.8957 44.7795 16.9484C44.9725 17.001 45.1216 17.1327 45.2269 17.3432C45.3497 17.5537 45.4111 17.8959 45.4111 18.3695C45.4111 18.8608 45.3497 19.2205 45.2269 19.4485C45.1216 19.6766 44.9725 19.817 44.7795 19.8697C44.5865 19.9223 44.3847 19.9486 44.1742 19.9486Z" fill="white" stroke="white" stroke-width="0.4"/>
<path d="M35.1887 19.9483C34.715 19.9483 34.3641 19.8693 34.1361 19.7115C33.908 19.5711 33.7676 19.3869 33.715 19.1588C33.6623 18.9132 33.636 18.6412 33.636 18.3429V8.55288C33.636 8.27216 33.6623 8.01772 33.715 7.78961C33.7851 7.54403 33.9255 7.351 34.1361 7.21064C34.3641 7.07028 34.7238 7.00014 35.2151 7.00014C35.7063 7.00014 36.0572 7.07028 36.2678 7.21064C36.4958 7.351 36.6362 7.54403 36.6889 7.78961C36.7415 8.03525 36.7678 8.30724 36.7678 8.60549V18.3693C36.7678 18.6675 36.7415 18.9395 36.6889 19.1851C36.6362 19.4132 36.4958 19.5974 36.2678 19.7378C36.0572 19.8781 35.6975 19.9483 35.1887 19.9483ZM35.1887 4.44732C34.68 4.44732 34.3027 4.37714 34.0571 4.23678C33.829 4.07888 33.6799 3.86834 33.6097 3.60517C33.5571 3.34199 33.5308 3.05249 33.5308 2.73669C33.5308 2.40333 33.5571 2.11384 33.6097 1.86821C33.6799 1.62258 33.8378 1.42958 34.0834 1.28922C34.329 1.13132 34.7062 1.05237 35.2151 1.05237C35.7414 1.05237 36.1186 1.13132 36.3467 1.28922C36.5748 1.44713 36.7239 1.65767 36.7941 1.92084C36.8643 2.16647 36.8994 2.45597 36.8994 2.78932C36.8994 3.08759 36.8643 3.3683 36.7941 3.63148C36.7239 3.89466 36.5748 4.09643 36.3467 4.23678C36.1186 4.37714 35.7326 4.44732 35.1887 4.44732Z" fill="white" stroke="white" stroke-width="0.4"/>
<path d="M13.5742 19.9218C13.118 19.9218 12.7759 19.8515 12.5478 19.7112C12.3197 19.5708 12.1706 19.3779 12.1004 19.1322C12.0478 18.8866 12.0215 18.6146 12.0215 18.3163V3.13117C12.0215 2.85045 12.0478 2.59605 12.1004 2.36796C12.1706 2.12233 12.3197 1.92934 12.5478 1.78898C12.7759 1.63107 13.1356 1.55212 13.6268 1.55212C13.9953 1.55212 14.2672 1.57844 14.4427 1.63107C14.6357 1.66616 14.7848 1.72757 14.8901 1.8153C14.9953 1.88548 15.1006 1.98197 15.2059 2.10479L21.6273 11.0791H21.0221L27.4698 2.07847C27.5926 1.93811 27.7155 1.83284 27.8383 1.76266C27.9611 1.69248 28.119 1.63985 28.312 1.60475C28.505 1.56967 28.7594 1.55212 29.0752 1.55212C29.5489 1.55212 29.8998 1.63107 30.1279 1.78898C30.356 1.92934 30.4963 2.12233 30.549 2.36796C30.6192 2.61359 30.6542 2.88554 30.6542 3.18381V18.369C30.6542 18.6322 30.6192 18.8866 30.549 19.1322C30.4963 19.3779 30.356 19.5708 30.1279 19.7112C29.8998 19.8515 29.5401 19.9218 29.0489 19.9218C28.5751 19.9218 28.2243 19.8427 27.9962 19.6848C27.7681 19.5445 27.619 19.3515 27.5488 19.1059C27.4961 18.8602 27.4698 18.5971 27.4698 18.3163V7.02614L22.68 13.9476C22.6274 14.0178 22.5485 14.1143 22.4432 14.2372C22.3379 14.3424 22.1975 14.4389 22.0221 14.5267C21.8467 14.6144 21.6098 14.6582 21.3115 14.6582C21.0308 14.6582 20.8027 14.6144 20.6273 14.5267C20.4518 14.4389 20.3115 14.3424 20.2062 14.2372C20.1184 14.1319 20.0308 14.0266 19.943 13.9214L15.1796 7.02614V18.369C15.1796 18.6322 15.1445 18.8866 15.0743 19.1322C15.0217 19.3779 14.8813 19.5708 14.6532 19.7112C14.4252 19.8515 14.0654 19.9218 13.5742 19.9218Z" fill="white" stroke="white" stroke-width="0.4"/>
</svg>
