<svg width="21" height="20" viewBox="0 0 21 20" fill="none" xmlns="http://www.w3.org/2000/svg">
<path d="M7.92744 5.47996L8.56163 7.13809C9.2661 8.97839 10.8054 10.4276 12.76 11.0908L14.5212 11.6879C14.68 11.7422 14.68 11.9541 14.5212 12.0076L12.76 12.6047C10.8054 13.268 9.2661 14.7171 8.56163 16.5574L7.92744 18.2156C7.86979 18.365 7.64471 18.365 7.58784 18.2156L6.95366 16.5574C6.24919 14.7171 4.70992 13.268 2.75524 12.6047L0.994058 12.0076C0.835314 11.9534 0.835314 11.7414 0.994058 11.6879L2.75524 11.0908C4.70992 10.4276 6.24919 8.97839 6.95366 7.13809L7.58784 5.47996C7.64471 5.32976 7.86979 5.32976 7.92744 5.47996Z" fill="#A6A6A6"/>
<path d="M15.8569 1.4964L16.1783 2.33588C16.5353 3.26755 17.3148 4.00144 18.3044 4.33753L19.196 4.64016C19.2766 4.66767 19.2766 4.77474 19.196 4.80225L18.3044 5.10488C17.3148 5.44097 16.5353 6.17486 16.1783 7.10653L15.8569 7.94601C15.8277 8.02185 15.7139 8.02185 15.6847 7.94601L15.3633 7.10653C15.0063 6.17486 14.2268 5.44097 13.2372 5.10488L12.3456 4.80225C12.265 4.77474 12.265 4.66767 12.3456 4.64016L13.2372 4.33753C14.2268 4.00144 15.0063 3.26755 15.3633 2.33588L15.6847 1.4964C15.7139 1.41982 15.8285 1.41982 15.8569 1.4964Z" fill="#A6A6A6"/>
</svg>
