<svg width="20" height="18" viewBox="0 0 20 18" fill="none" xmlns="http://www.w3.org/2000/svg">
<path d="M7.92744 4.47996L8.56163 6.13809C9.2661 7.97839 10.8054 9.42758 12.76 10.0908L14.5212 10.6879C14.68 10.7422 14.68 10.9541 14.5212 11.0076L12.76 11.6047C10.8054 12.268 9.2661 13.7171 8.56163 15.5574L7.92744 17.2156C7.86979 17.365 7.64471 17.365 7.58784 17.2156L6.95366 15.5574C6.24919 13.7171 4.70992 12.268 2.75524 11.6047L0.994058 11.0076C0.835314 10.9534 0.835314 10.7414 0.994058 10.6879L2.75524 10.0908C4.70992 9.42758 6.24919 7.97839 6.95366 6.13809L7.58784 4.47996C7.64471 4.32976 7.86979 4.32976 7.92744 4.47996Z" fill="white"/>
<path d="M15.8569 0.496435L16.1783 1.33591C16.5353 2.26758 17.3148 3.00147 18.3044 3.33756L19.196 3.64019C19.2766 3.6677 19.2766 3.77477 19.196 3.80228L18.3044 4.10491C17.3148 4.441 16.5353 5.17489 16.1783 6.10656L15.8569 6.94604C15.8277 7.02188 15.7139 7.02188 15.6847 6.94604L15.3633 6.10656C15.0063 5.17489 14.2268 4.441 13.2372 4.10491L12.3456 3.80228C12.265 3.77477 12.265 3.6677 12.3456 3.64019L13.2372 3.33756C14.2268 3.00147 15.0063 2.26758 15.3633 1.33591L15.6847 0.496435C15.7139 0.419849 15.8285 0.419849 15.8569 0.496435Z" fill="white"/>
</svg>
