<svg width="172" height="20" viewBox="0 0 172 20" fill="none" xmlns="http://www.w3.org/2000/svg">
<path d="M4.61505 14.308C5.43105 14.308 6.02505 14.17 6.39705 13.894C6.76905 13.618 6.95505 13.228 6.95505 12.724C6.95505 12.424 6.88905 12.166 6.75705 11.95C6.63705 11.734 6.45705 11.542 6.21705 11.374C5.98905 11.194 5.70705 11.032 5.37105 10.888C5.03505 10.732 4.65105 10.582 4.21905 10.438C3.78705 10.282 3.36705 10.114 2.95905 9.934C2.56305 9.742 2.20905 9.508 1.89705 9.232C1.59705 8.956 1.35105 8.626 1.15905 8.242C0.979046 7.858 0.889046 7.396 0.889046 6.856C0.889046 5.728 1.27905 4.846 2.05905 4.21C2.83905 3.562 3.90105 3.238 5.24505 3.238C6.02505 3.238 6.71505 3.328 7.31505 3.508C7.92705 3.676 8.40705 3.862 8.75505 4.066L8.05305 5.902C7.64505 5.674 7.19505 5.5 6.70305 5.38C6.22305 5.26 5.72505 5.2 5.20905 5.2C4.59705 5.2 4.11705 5.326 3.76905 5.578C3.43305 5.83 3.26505 6.184 3.26505 6.64C3.26505 6.916 3.31905 7.156 3.42705 7.36C3.54705 7.552 3.70905 7.726 3.91305 7.882C4.12905 8.038 4.37505 8.182 4.65105 8.314C4.93905 8.446 5.25105 8.572 5.58705 8.692C6.17505 8.908 6.69705 9.13 7.15305 9.358C7.62105 9.574 8.01105 9.838 8.32305 10.15C8.64705 10.45 8.89305 10.81 9.06105 11.23C9.22905 11.638 9.31305 12.136 9.31305 12.724C9.31305 13.852 8.91105 14.728 8.10705 15.352C7.31505 15.964 6.15105 16.27 4.61505 16.27C4.09905 16.27 3.62505 16.234 3.19305 16.162C2.77305 16.102 2.39505 16.024 2.05905 15.928C1.73505 15.832 1.45305 15.736 1.21305 15.64C0.973046 15.532 0.781046 15.436 0.637046 15.352L1.30305 13.498C1.62705 13.678 2.06505 13.858 2.61705 14.038C3.16905 14.218 3.83505 14.308 4.61505 14.308ZM11.0417 11.338C11.0417 10.51 11.1617 9.784 11.4017 9.16C11.6537 8.536 11.9837 8.02 12.3917 7.612C12.7997 7.192 13.2677 6.88 13.7957 6.676C14.3237 6.46 14.8637 6.352 15.4157 6.352C16.7117 6.352 17.7197 6.754 18.4397 7.558C19.1717 8.362 19.5377 9.562 19.5377 11.158C19.5377 11.278 19.5317 11.416 19.5197 11.572C19.5197 11.716 19.5137 11.848 19.5017 11.968H13.2917C13.3517 12.724 13.6157 13.312 14.0837 13.732C14.5637 14.14 15.2537 14.344 16.1537 14.344C16.6817 14.344 17.1617 14.296 17.5937 14.2C18.0377 14.104 18.3857 14.002 18.6377 13.894L18.9257 15.676C18.8057 15.736 18.6377 15.802 18.4217 15.874C18.2177 15.934 17.9777 15.988 17.7017 16.036C17.4377 16.096 17.1497 16.144 16.8377 16.18C16.5257 16.216 16.2077 16.234 15.8837 16.234C15.0557 16.234 14.3357 16.114 13.7237 15.874C13.1117 15.622 12.6077 15.28 12.2117 14.848C11.8157 14.404 11.5217 13.888 11.3297 13.3C11.1377 12.7 11.0417 12.046 11.0417 11.338ZM17.3597 10.366C17.3597 10.066 17.3177 9.784 17.2337 9.52C17.1497 9.244 17.0237 9.01 16.8557 8.818C16.6997 8.614 16.5017 8.458 16.2617 8.35C16.0337 8.23 15.7577 8.17 15.4337 8.17C15.0977 8.17 14.8037 8.236 14.5517 8.368C14.2997 8.488 14.0837 8.65 13.9037 8.854C13.7357 9.058 13.6037 9.292 13.5077 9.556C13.4117 9.82 13.3457 10.09 13.3097 10.366H17.3597ZM27.571 8.548C27.391 8.488 27.139 8.428 26.815 8.368C26.503 8.296 26.137 8.26 25.717 8.26C25.477 8.26 25.219 8.284 24.943 8.332C24.679 8.38 24.493 8.422 24.385 8.458V16H22.207V7.036C22.627 6.88 23.149 6.736 23.773 6.604C24.409 6.46 25.111 6.388 25.879 6.388C26.023 6.388 26.191 6.4 26.383 6.424C26.575 6.436 26.767 6.46 26.959 6.496C27.151 6.52 27.337 6.556 27.517 6.604C27.697 6.64 27.841 6.676 27.949 6.712L27.571 8.548ZM29.3047 11.302C29.3047 10.606 29.4127 9.958 29.6287 9.358C29.8447 8.746 30.1507 8.218 30.5467 7.774C30.9547 7.33 31.4467 6.982 32.0227 6.73C32.5987 6.478 33.2467 6.352 33.9667 6.352C34.8547 6.352 35.6947 6.514 36.4867 6.838L36.0187 8.62C35.7667 8.512 35.4787 8.422 35.1547 8.35C34.8427 8.278 34.5067 8.242 34.1467 8.242C33.2947 8.242 32.6467 8.512 32.2027 9.052C31.7587 9.58 31.5367 10.33 31.5367 11.302C31.5367 12.238 31.7467 12.982 32.1667 13.534C32.5867 14.074 33.2947 14.344 34.2907 14.344C34.6627 14.344 35.0287 14.308 35.3887 14.236C35.7487 14.164 36.0607 14.074 36.3247 13.966L36.6307 15.766C36.3907 15.886 36.0247 15.994 35.5327 16.09C35.0527 16.186 34.5547 16.234 34.0387 16.234C33.2347 16.234 32.5327 16.114 31.9327 15.874C31.3447 15.622 30.8527 15.28 30.4567 14.848C30.0727 14.404 29.7847 13.882 29.5927 13.282C29.4007 12.67 29.3047 12.01 29.3047 11.302ZM38.677 16V2.392L40.855 2.032V6.694C41.095 6.61 41.371 6.538 41.683 6.478C42.007 6.418 42.325 6.388 42.637 6.388C43.393 6.388 44.017 6.496 44.509 6.712C45.013 6.916 45.415 7.21 45.715 7.594C46.015 7.966 46.225 8.416 46.345 8.944C46.477 9.472 46.543 10.06 46.543 10.708V16H44.365V11.05C44.365 10.546 44.329 10.12 44.257 9.772C44.197 9.412 44.089 9.124 43.933 8.908C43.789 8.68 43.591 8.518 43.339 8.422C43.087 8.314 42.775 8.26 42.403 8.26C42.115 8.26 41.821 8.29 41.521 8.35C41.221 8.41 40.999 8.464 40.855 8.512V16H38.677ZM48.9915 11.338C48.9915 10.51 49.1115 9.784 49.3515 9.16C49.6035 8.536 49.9335 8.02 50.3415 7.612C50.7495 7.192 51.2175 6.88 51.7455 6.676C52.2735 6.46 52.8135 6.352 53.3655 6.352C54.6615 6.352 55.6695 6.754 56.3895 7.558C57.1215 8.362 57.4875 9.562 57.4875 11.158C57.4875 11.278 57.4815 11.416 57.4695 11.572C57.4695 11.716 57.4635 11.848 57.4515 11.968H51.2415C51.3015 12.724 51.5655 13.312 52.0335 13.732C52.5135 14.14 53.2035 14.344 54.1035 14.344C54.6315 14.344 55.1115 14.296 55.5435 14.2C55.9875 14.104 56.3355 14.002 56.5875 13.894L56.8755 15.676C56.7555 15.736 56.5875 15.802 56.3715 15.874C56.1675 15.934 55.9275 15.988 55.6515 16.036C55.3875 16.096 55.0995 16.144 54.7875 16.18C54.4755 16.216 54.1575 16.234 53.8335 16.234C53.0055 16.234 52.2855 16.114 51.6735 15.874C51.0615 15.622 50.5575 15.28 50.1615 14.848C49.7655 14.404 49.4715 13.888 49.2795 13.3C49.0875 12.7 48.9915 12.046 48.9915 11.338ZM55.3095 10.366C55.3095 10.066 55.2675 9.784 55.1835 9.52C55.0995 9.244 54.9735 9.01 54.8055 8.818C54.6495 8.614 54.4515 8.458 54.2115 8.35C53.9835 8.23 53.7075 8.17 53.3835 8.17C53.0475 8.17 52.7535 8.236 52.5015 8.368C52.2495 8.488 52.0335 8.65 51.8535 8.854C51.6855 9.058 51.5535 9.292 51.4575 9.556C51.3615 9.82 51.2955 10.09 51.2595 10.366H55.3095ZM60.1567 6.892C60.5767 6.772 61.1227 6.658 61.7947 6.55C62.4667 6.442 63.2107 6.388 64.0267 6.388C64.7947 6.388 65.4367 6.496 65.9527 6.712C66.4687 6.916 66.8767 7.21 67.1767 7.594C67.4887 7.966 67.7047 8.422 67.8247 8.962C67.9567 9.49 68.0227 10.072 68.0227 10.708V16H65.8447V11.05C65.8447 10.546 65.8087 10.12 65.7367 9.772C65.6767 9.412 65.5687 9.124 65.4127 8.908C65.2687 8.68 65.0647 8.518 64.8007 8.422C64.5487 8.314 64.2367 8.26 63.8647 8.26C63.5887 8.26 63.3007 8.278 63.0007 8.314C62.7007 8.35 62.4787 8.38 62.3347 8.404V16H60.1567V6.892Z" fill="#63798F" fill-opacity="0.7"/>
<path d="M87.6249 1L90.1321 6.03417L95.6739 6.87336L91.6816 10.8238L92.5995 16.3766L87.6249 13.784L82.6504 16.3766L83.5683 10.8238L79.576 6.87336L85.1178 6.03417L87.6249 1Z" fill="#63798F" fill-opacity="0.7"/>
<path d="M106.432 1L108.939 6.03417L114.481 6.87336L110.489 10.8238L111.407 16.3766L106.432 13.784L101.458 16.3766L102.376 10.8238L98.3832 6.87336L103.925 6.03417L106.432 1Z" fill="#63798F" fill-opacity="0.7"/>
<path d="M125.24 1L127.747 6.03417L133.289 6.87336L129.296 10.8238L130.214 16.3766L125.24 13.784L120.265 16.3766L121.183 10.8238L117.191 6.87336L122.732 6.03417L125.24 1Z" fill="#63798F" fill-opacity="0.7"/>
<path d="M144.047 1L146.554 6.03417L152.096 6.87336L148.104 10.8238L149.021 16.3766L144.047 13.784L139.072 16.3766L139.99 10.8238L135.998 6.87336L141.54 6.03417L144.047 1Z" fill="#63798F" fill-opacity="0.7"/>
<path d="M162.853 1L165.361 6.03417L170.902 6.87336L166.91 10.8238L167.828 16.3766L162.853 13.784L157.879 16.3766L158.797 10.8238L154.804 6.87336L160.346 6.03417L162.853 1Z" fill="#63798F" fill-opacity="0.7"/>
</svg>
