<svg width="75" height="75" viewBox="0 0 75 75" fill="none" xmlns="http://www.w3.org/2000/svg">
<path d="M72.4038 35.8387C69.6969 33.6099 65.6999 33.7084 63.1068 36.072L54.3002 44.0967C53.0464 42.3763 51.0602 41.328 48.8612 41.328H39.5385C38.3636 41.328 37.2263 41.1266 36.1588 40.7308C33.5262 39.755 28.332 38.4381 23.0978 40.5993C22.1013 41.0112 21.1071 41.6267 20.1421 42.4321L11.0253 50.048C9.60824 49.2133 7.75522 49.3911 6.54057 50.6067L2.37441 54.7722C0.930072 56.2154 0.929047 58.5553 2.37441 59.9995L16.2825 73.9082C17.7216 75.3485 20.0675 75.3483 21.5098 73.9082L25.6754 69.7415C27.1169 68.2999 27.1169 65.9557 25.6754 64.5142L25.5282 64.367L26.5477 63.3471C28.4441 61.4513 30.9966 60.4526 33.5656 60.6265C40.0773 61.0516 53.1472 60.6603 57.7597 56.0445L72.6592 41.1449C74.1547 39.6508 74.0379 37.1863 72.4038 35.8387ZM24.0189 68.085L19.8538 72.2506C19.3253 72.7781 18.466 72.7769 17.9385 72.2518L4.03085 58.3431C4.03085 58.3431 4.03085 58.3431 4.03027 58.3419C3.50439 57.8184 3.49955 56.9614 4.03085 56.429L8.19702 52.2634C8.7267 51.7349 9.58188 51.7355 10.1111 52.2634C10.5397 52.692 24.2485 66.4008 24.0188 66.1711C24.5476 66.7008 24.548 67.5546 24.0189 68.085ZM71.0028 39.4884L56.1033 54.3879C52.089 58.4021 39.2986 58.6517 33.718 58.288C30.4824 58.0856 27.2642 59.3176 24.8913 61.6905L23.8716 62.7102C8.74282 47.4734 13.9607 52.7286 12.8319 51.5918L21.6437 44.2306C22.425 43.5785 23.2152 43.0854 23.992 42.7651C28.4854 40.9104 33.0326 42.0706 35.3431 42.9275C36.6726 43.4206 38.0844 43.6712 39.5385 43.6712H48.8612C51.3184 43.6712 53.2509 45.6713 53.2317 48.0646C53.2266 48.799 52.6134 49.3974 51.8652 49.3974H30.9115C30.2644 49.3974 29.7399 49.9214 29.7399 50.569C29.7399 51.2166 30.2644 51.7406 30.9115 51.7406H51.8649C53.8962 51.7406 55.5602 50.0988 55.5746 48.0819C55.5791 47.4766 55.5037 46.8829 55.3503 46.3097L64.6845 37.8045C66.4206 36.22 69.0977 36.1536 70.914 37.6501C71.4847 38.119 71.5206 38.9695 71.0028 39.4884Z" fill="#123455"/>
<path d="M37.612 23.8224C38.017 24.216 38.2012 24.7835 38.1056 25.3406L37.4862 28.9525C36.92 32.2533 40.3874 34.8004 43.3776 33.2267L46.6114 31.5221C47.1131 31.259 47.7109 31.259 48.2115 31.5221L51.4338 33.2245C54.4085 34.7976 57.8916 32.2706 57.3294 28.9593L56.715 25.3382C56.6213 24.7822 56.8054 24.2171 57.2087 23.8235L59.8177 21.279C62.2233 18.9328 60.895 14.8438 57.5702 14.3595L53.9526 13.832C53.3944 13.7497 52.912 13.3996 52.6627 12.8928L51.0461 9.6149C49.5579 6.5963 45.2588 6.60114 43.7708 9.60919L42.1436 12.8963C41.8936 13.4008 41.4119 13.7499 40.8549 13.831L37.243 14.3585C33.9166 14.8429 32.5893 18.9375 35 21.2814L37.612 23.8224ZM37.5817 16.6765L41.1924 16.149C42.5109 15.958 43.6515 15.1308 44.2431 13.9352L45.8699 10.6482C46.4996 9.37657 48.3144 9.37511 48.944 10.6516L50.5606 13.9295C51.1504 15.1273 52.2922 15.9568 53.6142 16.1502L57.2318 16.6776C58.6391 16.8851 59.2012 18.6077 58.1815 19.6019L55.5729 22.1463C54.6187 23.0765 54.1817 24.4163 54.4048 25.7297L55.0192 29.3507C55.2574 30.7557 53.7897 31.8151 52.5285 31.1538L49.3055 29.4514C48.1208 28.8244 46.7044 28.8233 45.5186 29.449L42.2848 31.1537C41.0224 31.8192 39.5545 30.7504 39.7959 29.3483L40.4154 25.7364C40.6414 24.4173 40.2037 23.074 39.245 22.1428L36.6336 19.6018C35.6119 18.6068 36.1734 16.8838 37.5817 16.6765Z" fill="#123455"/>
<path d="M47.4064 4.04214C48.0535 4.04214 48.578 3.51816 48.578 2.87056V1.18306C48.578 0.535449 48.0535 0.0114746 47.4064 0.0114746C46.7594 0.0114746 46.2349 0.535449 46.2349 1.18306V2.87056C46.2349 3.51816 46.7594 4.04214 47.4064 4.04214Z" fill="#123455"/>
<path d="M37.5645 5.82125C37.8906 6.38727 38.6108 6.57008 39.1645 6.25031C39.7251 5.92658 39.9167 5.21027 39.593 4.64967L38.7493 3.18864C38.4261 2.62687 37.7082 2.43468 37.1492 2.75958C36.5886 3.08331 36.397 3.79962 36.7207 4.36022L37.5645 5.82125Z" fill="#123455"/>
<path d="M30.0689 11.8701L31.53 12.7132C32.0915 13.0364 32.8076 12.8433 33.1306 12.2842C33.4538 11.7236 33.2616 11.0074 32.7016 10.6835L31.2405 9.84037C30.6782 9.51547 29.9626 9.71 29.6399 10.2694C29.3167 10.83 29.5089 11.5462 30.0689 11.8701Z" fill="#123455"/>
<path d="M28.0634 21.6977H29.7503C30.3974 21.6977 30.9219 21.1737 30.9219 20.5261C30.9219 19.8785 30.3974 19.3545 29.7503 19.3545H28.0634C27.4164 19.3545 26.8918 19.8785 26.8918 20.5261C26.8918 21.1737 27.4164 21.6977 28.0634 21.6977Z" fill="#123455"/>
<path d="M63.8917 20.5263C63.8917 21.1739 64.4163 21.6979 65.0633 21.6979H66.7502C67.3972 21.6979 67.9218 21.1739 67.9218 20.5263C67.9218 19.8787 67.3972 19.3547 66.7502 19.3547H65.0633C64.4163 19.3547 63.8917 19.8787 63.8917 20.5263Z" fill="#123455"/>
<path d="M63.2836 12.7132L64.7446 11.8701C65.3047 11.5463 65.4968 10.83 65.1737 10.2694C64.8494 9.71 64.1337 9.51547 63.5731 9.84037L62.112 10.6835C61.552 11.0073 61.3598 11.7236 61.683 12.2842C62.0074 12.8442 62.7229 13.0361 63.2836 12.7132Z" fill="#123455"/>
<path d="M55.6492 6.25031C56.2037 6.57067 56.9236 6.38639 57.2492 5.82125L58.093 4.36022C58.4167 3.79962 58.2251 3.08346 57.6645 2.75958C57.1039 2.43468 56.3871 2.62687 56.0644 3.18864L55.2207 4.64967C54.8968 5.21041 55.0886 5.92658 55.6492 6.25031Z" fill="#123455"/>
</svg>
