<svg width="150" height="54" viewBox="0 0 150 54" fill="none" xmlns="http://www.w3.org/2000/svg">
<path d="M25.3809 9.25221V10.0937H27.3234H29.2659V14.9826V19.8715H30.2793H31.2927V14.9826V10.0937H33.2352H35.1777V9.25221V8.41064H30.2793H25.3809V9.25221Z" fill="#454545"/>
<path d="M75.377 9.25221V10.0938H76.3061H77.2352V9.25221V8.41064H76.3061H75.377V9.25221Z" fill="#454545"/>
<path d="M79.0117 14.1411V19.8715H79.9833H80.9542V14.1411V8.41064H79.9833H79.0117V14.1411Z" fill="#454545"/>
<path d="M60.0768 10.3095L60.0519 11.5759L59.3587 11.5999L58.6582 11.6239V12.2571V12.8983H59.3675H60.0856L60.1105 15.7995C60.1362 18.6207 60.1442 18.7169 60.3215 19.0695C60.5413 19.4863 60.9129 19.7508 61.4448 19.8629C61.8757 19.9591 62.7542 19.9752 63.3368 19.903L63.7259 19.8469V19.1817V18.5165L63.2694 18.5646C63.0078 18.5886 62.6868 18.5646 62.5007 18.5085C61.9775 18.3401 61.9519 18.2199 61.9519 15.3828V12.8983H62.8385H63.7259V12.2571V11.6239L62.8642 11.5999L61.9944 11.5759L61.9687 10.3095L61.9438 9.05127H61.0228H60.1024L60.0768 10.3095Z" fill="#454545"/>
<path d="M93.369 10.3336V11.6159H92.6517H91.9336V12.2572V12.8983H92.6429H93.3522L93.3947 15.7194C93.4115 17.6029 93.4621 18.6528 93.5295 18.8452C93.6731 19.2619 93.986 19.5905 94.4 19.7508C94.8301 19.911 95.8611 19.9912 96.5279 19.9191L97.0013 19.863V19.2058V18.5486H96.3594C95.7593 18.5486 95.7087 18.5325 95.5145 18.3242L95.3116 18.0998V15.4951V12.8983H96.1564H97.0013V12.2572V11.6159H96.1564H95.3116V10.3336V9.05127H94.3407H93.369V10.3336Z" fill="#454545"/>
<path d="M38.2435 11.5684C37.6522 11.8328 37.0528 12.3698 36.8161 12.8587L36.6131 13.2594V12.4339V11.6164H35.7265H34.8398V15.744V19.8715H35.769H36.6981V17.6675C36.6981 15.3433 36.7486 14.8784 37.0864 14.2533C37.3312 13.7964 37.9306 13.2755 38.3702 13.1553C38.5556 13.0991 38.9696 13.0591 39.3074 13.0591H39.9076V12.2175V11.376H39.2994C38.826 11.376 38.5813 11.4241 38.2435 11.5684Z" fill="#454545"/>
<path d="M52.8745 11.456C51.7511 11.6724 50.7883 12.3296 50.5685 13.0268C50.3574 13.7161 50.4674 14.4535 50.8557 14.9905C51.2954 15.5915 51.9622 15.8801 53.8292 16.2647C55.4676 16.6094 55.9659 16.8498 56.1176 17.3547C56.3623 18.1963 55.645 18.6852 54.1751 18.6852C53.0437 18.6852 52.3425 18.2604 52.1908 17.4829L52.1395 17.2265H51.2191H50.2988V17.507C50.2988 18.2043 50.8982 19.118 51.6163 19.5187C52.8833 20.2239 54.9943 20.2801 56.4048 19.6469C57.3596 19.2221 57.8242 18.6932 57.9927 17.8356C58.17 16.9299 57.7897 16.1044 56.9962 15.6236C56.4979 15.3271 56.1264 15.2068 54.5385 14.8622C53.1536 14.5657 52.6297 14.3493 52.4436 14.0046C52.0303 13.2432 52.8576 12.6582 54.2007 12.7624C54.9606 12.8265 55.4252 13.067 55.6618 13.5157L55.8304 13.8604H56.7932H57.748L57.6886 13.5638C57.4944 12.5861 56.6247 11.8006 55.4083 11.4961C54.8763 11.3678 53.4658 11.3438 52.8745 11.456Z" fill="#454545"/>
<path d="M68.5152 11.5365C67.9407 11.7049 67.5267 11.9934 67.1808 12.4422L66.9354 12.7628V12.1938V11.6167H66.0487H65.1621V17.307V22.9974H66.0912H67.0203V20.9137C67.0203 19.7675 67.0372 18.8298 67.0621 18.8298C67.0877 18.8298 67.2394 18.9741 67.4087 19.1504C68.0674 19.8396 69.4692 20.2324 70.6519 20.04C72.0287 19.8236 72.9827 19.0141 73.4979 17.6197C73.7939 16.8101 73.8613 15.3595 73.6583 14.4699C73.2956 12.923 72.2903 11.8491 70.8629 11.4884C70.2547 11.3281 69.1065 11.3522 68.5152 11.5365ZM70.4489 12.9631C70.9303 13.1955 71.4542 13.7807 71.674 14.3336C72.0287 15.2392 71.9693 16.6579 71.5385 17.4674C71.2937 17.9242 70.7955 18.381 70.3646 18.5493C69.9338 18.7176 69.0134 18.7256 68.5906 18.5573C67.7208 18.2127 67.164 17.4273 67.0035 16.3133C66.758 14.6943 67.4505 13.2116 68.6251 12.8589C69.1402 12.6986 70.01 12.7468 70.4489 12.9631Z" fill="#454545"/>
<path d="M85.6036 11.504C84.6327 11.7525 83.6867 12.3856 83.1965 13.131C82.3524 14.3973 82.2505 16.4651 82.9686 17.9157C84.3704 20.7609 89.2527 20.841 90.7387 18.0359C91.1271 17.3147 91.2795 16.6654 91.2795 15.7438C91.2876 13.5638 90.1225 11.9849 88.1712 11.496C87.5461 11.3438 86.2118 11.3438 85.6036 11.504ZM87.648 12.8505C88.8468 13.2593 89.455 14.3492 89.3788 15.9361C89.2864 17.6833 88.3741 18.6852 86.8625 18.6852C86.1781 18.6852 85.8066 18.5489 85.3083 18.1081C83.7205 16.7135 84.2187 13.4115 86.1019 12.8585C86.5921 12.7223 87.234 12.7143 87.648 12.8505Z" fill="#454545"/>
<path d="M41.1909 14.7976C41.2166 17.9312 41.2247 17.9954 41.4188 18.4682C41.6892 19.1255 42.3142 19.7105 42.9481 19.8948C43.6999 20.1112 44.5272 20.1513 45.1097 19.999C45.7347 19.8227 46.3934 19.4219 46.6638 19.0373C46.7825 18.8769 46.9005 18.7487 46.943 18.7487C46.9767 18.7487 47.0016 18.9972 47.0016 19.3098V19.8708H47.9308H48.8599V15.7433V11.6157H47.889H46.9174V14.3728C46.9174 17.3141 46.8925 17.4984 46.4785 18.0275C46.1744 18.4282 45.5325 18.6766 44.8144 18.6766C43.8178 18.6846 43.3196 18.3239 43.1254 17.4584C43.066 17.2179 43.0323 15.9757 43.0323 14.3407V11.6157H42.0951H41.166L41.1909 14.7976Z" fill="#454545"/>
<path d="M75.377 15.7433V19.8708H76.3061H77.2352V15.7433V11.6157H76.3061H75.377V15.7433Z" fill="#454545"/>
<path d="M11.2499 1.00517C11.1657 1.2456 11.1232 1.47805 11.1569 1.5341C11.1906 1.58221 11.1825 1.59828 11.14 1.57422C11.0726 1.54216 10.5655 2.9046 10.5575 3.13705C10.5575 3.16111 10.5318 3.20915 10.4981 3.24121C10.4644 3.27333 10.4644 3.34544 10.49 3.40955C10.5149 3.47366 10.4981 3.52177 10.4564 3.52177C10.3882 3.52177 10.1098 4.21905 10.0592 4.52361C10.0504 4.56366 9.97493 4.79604 9.88994 5.02049C9.81446 5.25287 9.77197 5.48532 9.80568 5.53344C9.83938 5.58948 9.8313 5.60555 9.78 5.58149C9.72944 5.54943 9.66205 5.6376 9.62835 5.78988C9.59464 5.92617 9.55215 6.06238 9.54409 6.08644C9.5353 6.1105 9.48472 6.23065 9.43416 6.35087C9.37481 6.47916 9.34991 6.61538 9.38362 6.65543C9.40853 6.69555 9.38359 6.72761 9.34109 6.72761C9.29053 6.72761 9.24802 6.76766 9.24802 6.81577C9.24802 6.85582 9.29054 6.87182 9.33304 6.84783C9.3836 6.82377 9.4173 6.83976 9.4173 6.87988C9.4173 6.92793 9.35796 6.96805 9.27369 6.96805C9.19748 6.96805 9.16378 6.99204 9.18943 7.02409C9.22314 7.04815 9.21434 7.11226 9.17257 7.16038C9.13007 7.2085 9.01209 7.51305 8.91903 7.8256L8.73294 8.41066L4.36645 8.42665L0 8.45071L0.616245 8.87549C0.954043 9.10794 1.27498 9.27621 1.32628 9.24415C1.3849 9.2121 1.3937 9.22016 1.36 9.27621C1.32629 9.33232 1.40177 9.42848 1.53733 9.50866C1.66409 9.58883 2.06927 9.86133 2.42393 10.1098C2.77858 10.3662 3.11637 10.5746 3.15887 10.5746C3.20943 10.5746 3.25194 10.6067 3.25194 10.6467C3.25194 10.7429 3.86012 11.1035 3.9693 11.0715C4.02059 11.0555 4.02868 11.0715 3.99497 11.1035C3.91877 11.1676 4.52693 11.6165 4.61998 11.5684C4.66248 11.5444 4.68738 11.5684 4.68738 11.6085C4.68738 11.6565 4.84788 11.7928 5.05085 11.913C5.24503 12.0333 5.4304 12.1615 5.45605 12.2015C5.48169 12.2336 5.56596 12.2417 5.63337 12.2176C5.72643 12.1775 5.76823 12.2096 5.76017 12.3138C5.75137 12.3939 5.79384 12.45 5.85319 12.442C5.90375 12.426 5.95431 12.45 5.95431 12.482C5.95431 12.5222 6.19908 12.7145 6.49511 12.9229L7.04391 13.3076L6.89154 13.7243C6.80727 13.9568 6.73102 14.1571 6.73102 14.1812C6.73102 14.2052 6.70613 14.2773 6.68049 14.3414C6.33463 15.2952 4.9153 19.5429 4.90724 19.6311C4.89845 19.6952 4.87351 19.7673 4.8398 19.7914C4.80536 19.8154 4.76361 19.9277 4.73796 20.0318C4.72111 20.144 4.64492 20.3845 4.56945 20.5688C4.47639 20.8253 4.46757 20.9134 4.54378 20.9134C4.60313 20.9134 4.57748 20.9535 4.502 21.0016C4.417 21.0416 4.34959 21.1138 4.34959 21.1619C4.34959 21.21 4.39209 21.2019 4.45071 21.1539C4.51006 21.1058 4.73796 20.9455 4.95778 20.8012C5.17761 20.657 5.32928 20.5127 5.29558 20.4807C5.26187 20.4486 5.27875 20.4325 5.32125 20.4486C5.43043 20.4807 6.37641 19.8795 6.37641 19.7754C6.37641 19.7433 6.41889 19.7113 6.46139 19.7113C6.56251 19.7113 7.81256 18.8617 7.95618 18.6934C8.00674 18.6293 8.08298 18.5732 8.12474 18.5732C8.27715 18.5652 8.90219 18.0763 8.85163 18.0042C8.82599 17.956 8.84285 17.948 8.89341 17.9801C8.98647 18.0281 10.0255 17.371 10.076 17.2187C10.0929 17.1786 10.1435 17.1465 10.194 17.1465C10.2365 17.1465 10.5487 16.9542 10.8784 16.7218C11.2162 16.4814 12.0017 15.9364 12.6267 15.5036C13.2518 15.0708 13.8087 14.67 13.8512 14.622C13.9017 14.5659 13.9611 14.5178 14.0036 14.5178C14.0879 14.5018 14.6873 14.077 14.721 13.9968C14.7378 13.9648 14.7891 13.9407 14.8309 13.9407C14.9664 13.9407 15.6669 13.4038 15.6083 13.3477C15.5827 13.3236 15.6332 13.2995 15.7263 13.2995C15.8193 13.2995 15.9967 13.2114 16.1235 13.0992C16.2502 12.987 16.3682 12.8988 16.385 12.8988C16.4693 12.8988 17.5252 12.1454 17.5252 12.0813C17.5252 12.0493 17.5846 12.0172 17.652 12.0172C17.7194 12.0172 17.7787 11.9772 17.7787 11.9371C17.7787 11.889 17.8205 11.8569 17.863 11.8569C18.0322 11.8569 19.1299 11.0394 19.0794 10.9593C19.0457 10.9032 19.0625 10.8951 19.113 10.9272C19.2142 10.9833 19.9748 10.5185 19.9748 10.3983C19.9748 10.3662 20.0253 10.3342 20.0928 10.3342C20.1521 10.3342 20.2701 10.254 20.3463 10.1498C20.4225 10.0537 20.4643 10.0216 20.4306 10.0857C20.3968 10.1498 20.5573 10.0617 20.7852 9.90138C21.0131 9.73304 21.1904 9.56477 21.1735 9.51665C21.1655 9.4766 21.1904 9.46054 21.2329 9.4846C21.2835 9.51665 21.6638 9.29227 22.0946 8.99571L22.8713 8.45071L18.5137 8.42665L14.1553 8.41066L13.4709 6.38293C13.0913 5.27693 12.7535 4.34727 12.711 4.32321C12.6773 4.29916 12.6517 4.22705 12.6517 4.15488C12.6517 4.08277 12.6011 3.85839 12.5425 3.64999C12.4494 3.32938 12.4157 3.29732 12.3058 3.37749C12.1959 3.46566 12.1871 3.45767 12.2721 3.31338C12.3732 3.12905 12.2465 2.55999 12.1029 2.55999C12.0611 2.55999 12.0435 2.52794 12.0691 2.48789C12.1197 2.41571 11.968 1.91083 11.8749 1.83865C11.8493 1.81466 11.8244 1.75055 11.8156 1.69444C11.7907 1.38182 11.7738 1.34977 11.6808 1.40588C11.6214 1.43793 11.6134 1.42994 11.6471 1.36583C11.7057 1.27767 11.5709 0.740689 11.4529 0.620466C11.4272 0.588411 11.3342 0.764733 11.2499 1.00517Z" fill="#15C16B"/>
<path d="M16.0041 15.3107C15.8437 15.3587 15.6495 15.4148 15.5821 15.4389C15.5147 15.4629 15.4216 15.4789 15.3791 15.4709C15.3454 15.4629 15.2612 15.503 15.1937 15.551C15.1256 15.6071 15.0501 15.6232 15.0245 15.5992C14.9995 15.5751 14.8559 15.5912 14.7123 15.6392C14.5599 15.6793 14.4082 15.7194 14.3576 15.7354C12.9889 16.048 12.6262 16.1442 12.6262 16.2003C12.6262 16.2323 12.5756 16.2403 12.5162 16.2163C12.4488 16.1923 12.2884 16.2243 12.1528 16.2724C11.9249 16.3605 11.8575 16.3846 11.6545 16.4087C11.6128 16.4167 11.8912 16.641 12.2627 16.9055C12.7273 17.2261 13.0057 17.3704 13.1076 17.3383C13.2175 17.3063 13.2255 17.3143 13.1493 17.3624C13.0739 17.4185 13.3267 17.6429 14.1041 18.1799C14.6955 18.5806 15.2106 18.8931 15.2523 18.8611C15.2948 18.837 15.3205 18.8611 15.3117 18.9252C15.2948 18.9813 15.3542 19.0214 15.4297 19.0214C15.5147 19.0134 15.5652 19.0374 15.5396 19.0695C15.5147 19.1015 15.6326 19.2298 15.7931 19.342C15.9536 19.4622 16.0884 19.5423 16.0884 19.5183C16.0884 19.4943 16.2071 19.5824 16.3507 19.7027C16.4944 19.8309 16.7134 19.9832 16.8321 20.0393C16.9589 20.1034 17.1025 20.2075 17.1612 20.2716C17.2205 20.3358 17.2711 20.3678 17.2711 20.3358C17.2711 20.3037 17.3641 20.3678 17.4821 20.48C17.6008 20.5923 17.7356 20.6564 17.795 20.6243C17.8536 20.5923 17.8624 20.6003 17.8287 20.6564C17.7693 20.7445 17.8793 20.7926 18.0566 20.7605C18.0991 20.7525 18.1071 20.7766 18.0822 20.8166C18.0566 20.8567 18.1577 20.9689 18.2933 21.0651L18.5548 21.2494L18.4955 21.0651C18.4618 20.9609 18.3944 20.7846 18.3438 20.6724C18.2932 20.5602 18.2676 20.44 18.2676 20.4079C18.2764 20.3759 18.2339 20.3278 18.1665 20.3037C18.1072 20.2797 18.0654 20.1995 18.0903 20.1274C18.1072 20.0473 18.0822 19.8789 18.0229 19.7507C17.9723 19.6145 17.9129 19.4541 17.9049 19.39C17.8712 19.1015 17.5671 18.3802 17.4484 18.284C17.3722 18.2199 17.3641 18.1959 17.4235 18.2279C17.5327 18.284 17.5671 18.1718 17.4652 18.0756C17.3978 18.0115 17.3898 17.9715 17.3641 17.739C17.3641 17.6669 17.3135 17.6429 17.2542 17.6749C17.1948 17.707 17.1868 17.699 17.2205 17.6429C17.2879 17.5306 16.8739 16.1923 16.7134 16.0159C16.646 15.9438 16.6211 15.8717 16.646 15.8396C16.6798 15.8155 16.6717 15.7274 16.6379 15.6473C16.5617 15.4789 16.5361 15.4148 16.5193 15.3026C16.5112 15.2064 16.4013 15.2064 16.0041 15.3107Z" fill="#15C16B"/>
<path d="M15.7804 13.2866L16.3878 15.3024L11.2285 16.4543L15.7804 13.2866Z" fill="#01522C"/>
<rect x="2.00586" y="30.0488" width="22.9515" height="22.9515" rx="2" fill="#1EB059"/>
<path d="M13.4816 32.7227L15.4578 38.8047H21.8528L16.6791 42.5635L18.6553 48.6455L13.4816 44.8866L8.30798 48.6455L10.2841 42.5635L5.11049 38.8047H11.5055L13.4816 32.7227Z" fill="white"/>
<rect x="28.9785" y="30.0488" width="22.9515" height="22.9515" rx="2" fill="#1EB059"/>
<path d="M40.4543 32.7227L42.4305 38.8047H48.8254L43.6518 42.5635L45.6279 48.6455L40.4543 44.8866L35.2806 48.6455L37.2568 42.5635L32.0831 38.8047H38.4781L40.4543 32.7227Z" fill="white"/>
<rect x="55.9395" y="30.0488" width="22.9515" height="22.9515" rx="2" fill="#1EB059"/>
<path d="M67.4152 32.7227L69.3914 38.8047H75.7864L70.6127 42.5635L72.5889 48.6455L67.4152 44.8866L62.2416 48.6455L64.2177 42.5635L59.0441 38.8047H65.4391L67.4152 32.7227Z" fill="white"/>
<rect x="82.9082" y="30.0488" width="22.9515" height="22.9515" rx="2" fill="#1EB059"/>
<path d="M94.384 32.7231L96.3601 38.8051H102.755L97.5815 42.564L99.5576 48.646L94.384 44.8871L89.2103 48.646L91.1865 42.564L86.0128 38.8051H92.4078L94.384 32.7231Z" fill="white"/>
<rect x="109.883" y="30.0488" width="22.9515" height="22.9515" rx="2" fill="#1EB059"/>
<path d="M121.359 32.7227L123.335 38.8047H129.73L124.556 42.5635L126.532 48.6455L121.359 44.8866L116.185 48.6455L118.161 42.5635L112.987 38.8047H119.382L121.359 32.7227Z" fill="white"/>
<mask id="mask0_780_1953" style="mask-type:alpha" maskUnits="userSpaceOnUse" x="112" y="32" width="18" height="17">
<path d="M121.359 32.7227L123.335 38.8047H129.73L124.556 42.5635L126.532 48.6455L121.359 44.8866L116.185 48.6455L118.161 42.5635L112.987 38.8047H119.382L121.359 32.7227Z" fill="white"/>
</mask>
<g mask="url(#mask0_780_1953)">
<rect x="128.158" y="31.6958" width="2.56789" height="18.6307" fill="#1EB059"/>
</g>
</svg>
