<svg width="75" height="75" viewBox="0 0 75 75" fill="none" xmlns="http://www.w3.org/2000/svg">
<path d="M68.2292 23.8646C69.5209 23.8646 70.573 22.8125 70.573 21.5208V10.9688C70.573 9.67708 69.5209 8.625 68.2292 8.625H23.4688C22.1771 8.625 21.125 9.67708 21.125 10.9688V21.5208C21.125 22.8125 22.1771 23.8646 23.4688 23.8646H24.6146V27.0521H23.4688C22.1771 27.0521 21.125 28.1042 21.125 29.3958V36.4375C15.7917 36.7083 11.5209 41.0521 11.3959 46.4271C7.26046 47.8229 4.42712 51.7292 4.42712 56.125C4.42712 61.7708 9.02087 66.375 14.6771 66.375C16.948 66.375 19.1563 65.6146 20.948 64.2188C22.7396 65.6146 24.948 66.375 27.2188 66.375C29.698 66.375 32.0417 65.5 33.8959 63.8958C35.75 65.5 38.0938 66.375 40.573 66.375C44.6042 66.375 48.0938 64.0208 49.7605 60.625H68.2292C69.5209 60.625 70.573 59.5729 70.573 58.2813V47.7396C70.573 46.4479 69.5209 45.3958 68.2292 45.3958H67.0834V42.2917H68.2292C69.5209 42.2917 70.573 41.2396 70.573 39.9479V29.3958C70.573 28.1042 69.5209 27.0521 68.2292 27.0521H67.0834V23.8646H68.2292ZM22.6875 21.5208V10.9688C22.6875 10.5417 23.0417 10.1875 23.4688 10.1875H68.2292C68.6563 10.1875 69.0105 10.5417 69.0105 10.9688V21.5208C69.0105 21.9479 68.6563 22.3021 68.2292 22.3021H66.3021H25.3959H23.4688C23.0313 22.3021 22.6875 21.9479 22.6875 21.5208ZM40.573 64.8125C38.2605 64.8125 36.0834 63.9167 34.448 62.2813C34.2917 62.125 34.0938 62.0521 33.8959 62.0521C33.698 62.0521 33.5 62.125 33.3438 62.2813C31.7084 63.9167 29.5313 64.8125 27.2188 64.8125C25.1042 64.8125 23.0625 64.0313 21.4688 62.625C21.1771 62.3646 20.7292 62.3646 20.4375 62.625C18.8438 64.0417 16.8021 64.8125 14.6875 64.8125C9.89587 64.8125 6.00004 60.9167 6.00004 56.125C6.00004 52.2188 8.63546 48.7813 12.4063 47.75C12.7605 47.6563 12.9896 47.3333 12.9792 46.9688L12.9584 46.6563C12.9584 41.8646 16.8542 37.9688 21.6459 37.9688C24.3125 37.9688 26.8021 39.1771 28.4688 41.2917C28.7292 41.625 29.2188 41.6875 29.5625 41.4271C30.948 40.3542 32.5938 39.7813 34.3334 39.7813C38.3959 39.7813 41.8021 42.9583 42.0834 47.0104C42.1042 47.3438 42.3438 47.6354 42.6771 47.7083C46.5521 48.6771 49.2605 52.1354 49.2605 56.125C49.25 60.9167 45.3542 64.8125 40.573 64.8125ZM69.0105 47.7396V58.2813C69.0105 58.7083 68.6563 59.0625 68.2292 59.0625H50.3855C50.6667 58.1354 50.823 57.1458 50.823 56.125C50.823 52.1667 48.573 48.6563 45.1459 46.9583H66.3125H68.2396C68.6563 46.9583 69.0105 47.3125 69.0105 47.7396ZM65.5209 45.3958H43.4063C43.1355 44.2708 42.6563 43.2188 42.0209 42.2917H65.5209V45.3958ZM69.0105 29.3958V39.9479C69.0105 40.375 68.6563 40.7292 68.2292 40.7292H66.6355C66.5313 40.6771 66.4167 40.6458 66.3021 40.6458H40.5834C38.9167 39.1354 36.7188 38.2188 34.323 38.2188C32.4792 38.2188 30.7188 38.75 29.198 39.7604C27.4896 37.8854 25.1875 36.7292 22.6771 36.4688V29.3958C22.6771 28.9688 23.0313 28.6146 23.4584 28.6146H25.3855H66.2917H68.2188C68.6563 28.6146 69.0105 28.9688 69.0105 29.3958ZM65.5209 27.0521H26.1771V23.8646H65.5209V27.0521Z" fill="#123455"/>
<path d="M26.0105 15.4061C26.4376 15.4061 26.7917 15.0519 26.7917 14.6248V13.0415C26.7917 12.6144 26.4376 12.2603 26.0105 12.2603C25.5834 12.2603 25.2292 12.6144 25.2292 13.0415V14.6248C25.2292 15.0623 25.5834 15.4061 26.0105 15.4061Z" fill="#123455"/>
<path d="M29.5938 15.4061C30.0208 15.4061 30.375 15.0519 30.375 14.6248V13.0415C30.375 12.6144 30.0208 12.2603 29.5938 12.2603C29.1667 12.2603 28.8125 12.6144 28.8125 13.0415V14.6248C28.8125 15.0623 29.1667 15.4061 29.5938 15.4061Z" fill="#123455"/>
<path d="M33.1771 15.4061C33.6042 15.4061 33.9584 15.0519 33.9584 14.6248V13.0415C33.9584 12.6144 33.6042 12.2603 33.1771 12.2603C32.75 12.2603 32.3959 12.6144 32.3959 13.0415V14.6248C32.3959 15.0623 32.75 15.4061 33.1771 15.4061Z" fill="#123455"/>
<path d="M36.7605 15.4061C37.1876 15.4061 37.5417 15.0519 37.5417 14.6248V13.0415C37.5417 12.6144 37.1876 12.2603 36.7605 12.2603C36.3334 12.2603 35.9792 12.6144 35.9792 13.0415V14.6248C35.9792 15.0623 36.3334 15.4061 36.7605 15.4061Z" fill="#123455"/>
<path d="M26.0105 20.2293C26.4376 20.2293 26.7917 19.8752 26.7917 19.4481V17.8647C26.7917 17.4377 26.4376 17.0835 26.0105 17.0835C25.5834 17.0835 25.2292 17.4377 25.2292 17.8647V19.4481C25.2292 19.8752 25.5834 20.2293 26.0105 20.2293Z" fill="#123455"/>
<path d="M29.5938 20.2293C30.0208 20.2293 30.375 19.8752 30.375 19.4481V17.8647C30.375 17.4377 30.0208 17.0835 29.5938 17.0835C29.1667 17.0835 28.8125 17.4377 28.8125 17.8647V19.4481C28.8125 19.8752 29.1667 20.2293 29.5938 20.2293Z" fill="#123455"/>
<path d="M33.1771 20.2293C33.6042 20.2293 33.9584 19.8752 33.9584 19.4481V17.8647C33.9584 17.4377 33.6042 17.0835 33.1771 17.0835C32.75 17.0835 32.3959 17.4377 32.3959 17.8647V19.4481C32.3959 19.8752 32.75 20.2293 33.1771 20.2293Z" fill="#123455"/>
<path d="M36.7605 20.2293C37.1876 20.2293 37.5417 19.8752 37.5417 19.4481V17.8647C37.5417 17.4377 37.1876 17.0835 36.7605 17.0835C36.3334 17.0835 35.9792 17.4377 35.9792 17.8647V19.4481C35.9792 19.8752 36.3334 20.2293 36.7605 20.2293Z" fill="#123455"/>
<path d="M63.4584 19.4165C65.1146 19.4165 66.4584 18.0728 66.4584 16.4165C66.4584 14.7603 65.1146 13.4165 63.4584 13.4165C61.8021 13.4165 60.4584 14.7603 60.4584 16.4165C60.4584 18.0623 61.8125 19.4165 63.4584 19.4165ZM63.4584 14.979C64.25 14.979 64.8959 15.6248 64.8959 16.4165C64.8959 17.2082 64.25 17.854 63.4584 17.854C62.6667 17.854 62.0209 17.2082 62.0209 16.4165C62.0209 15.6248 62.6667 14.979 63.4584 14.979Z" fill="#123455"/>
<path d="M55.0417 19.4165C56.698 19.4165 58.0417 18.0728 58.0417 16.4165C58.0417 14.7603 56.698 13.4165 55.0417 13.4165C53.3855 13.4165 52.0417 14.7603 52.0417 16.4165C52.0417 18.0623 53.3959 19.4165 55.0417 19.4165ZM55.0417 14.979C55.8334 14.979 56.4792 15.6248 56.4792 16.4165C56.4792 17.2082 55.8334 17.854 55.0417 17.854C54.2501 17.854 53.6042 17.2082 53.6042 16.4165C53.6042 15.6248 54.2501 14.979 55.0417 14.979Z" fill="#123455"/>
<path d="M41.4584 17.0312H48.7188C49.1459 17.0312 49.5 16.6771 49.5 16.25C49.5 15.8229 49.1459 15.4688 48.7188 15.4688H41.4584C41.0313 15.4688 40.6771 15.8229 40.6771 16.25C40.6771 16.6771 41.0313 17.0312 41.4584 17.0312Z" fill="#123455"/>
<path d="M26.0105 30.6875C25.5834 30.6875 25.2292 31.0417 25.2292 31.4688V33.0521C25.2292 33.4792 25.5834 33.8333 26.0105 33.8333C26.4376 33.8333 26.7917 33.4792 26.7917 33.0521V31.4688C26.7917 31.0417 26.448 30.6875 26.0105 30.6875Z" fill="#123455"/>
<path d="M29.5938 30.6875C29.1667 30.6875 28.8125 31.0417 28.8125 31.4688V33.0521C28.8125 33.4792 29.1667 33.8333 29.5938 33.8333C30.0208 33.8333 30.375 33.4792 30.375 33.0521V31.4688C30.375 31.0417 30.0312 30.6875 29.5938 30.6875Z" fill="#123455"/>
<path d="M33.1771 30.6875C32.75 30.6875 32.3959 31.0417 32.3959 31.4688V33.0521C32.3959 33.4792 32.75 33.8333 33.1771 33.8333C33.6042 33.8333 33.9584 33.4792 33.9584 33.0521V31.4688C33.9584 31.0417 33.6146 30.6875 33.1771 30.6875Z" fill="#123455"/>
<path d="M36.7605 30.6875C36.3334 30.6875 35.9792 31.0417 35.9792 31.4688V33.0521C35.9792 33.4792 36.3334 33.8333 36.7605 33.8333C37.1876 33.8333 37.5417 33.4792 37.5417 33.0521V31.4688C37.5417 31.0417 37.198 30.6875 36.7605 30.6875Z" fill="#123455"/>
<path d="M63.4584 31.8438C61.8021 31.8438 60.4584 33.1875 60.4584 34.8438C60.4584 36.5 61.8021 37.8438 63.4584 37.8438C65.1146 37.8438 66.4584 36.5 66.4584 34.8438C66.4584 33.1875 65.1146 31.8438 63.4584 31.8438ZM63.4584 36.2708C62.6667 36.2708 62.0209 35.625 62.0209 34.8333C62.0209 34.0417 62.6667 33.3958 63.4584 33.3958C64.25 33.3958 64.8959 34.0417 64.8959 34.8333C64.8959 35.625 64.25 36.2708 63.4584 36.2708Z" fill="#123455"/>
<path d="M55.0417 31.8438C53.3855 31.8438 52.0417 33.1875 52.0417 34.8438C52.0417 36.5 53.3855 37.8438 55.0417 37.8438C56.698 37.8438 58.0417 36.5 58.0417 34.8438C58.0417 33.1875 56.698 31.8438 55.0417 31.8438ZM55.0417 36.2708C54.2501 36.2708 53.6042 35.625 53.6042 34.8333C53.6042 34.0417 54.2501 33.3958 55.0417 33.3958C55.8334 33.3958 56.4792 34.0417 56.4792 34.8333C56.4792 35.625 55.8334 36.2708 55.0417 36.2708Z" fill="#123455"/>
<path d="M48.7292 33.8853H41.4584C41.0313 33.8853 40.6771 34.2394 40.6771 34.6665C40.6771 35.0936 41.0313 35.4478 41.4584 35.4478H48.7188C49.1459 35.4478 49.5 35.0936 49.5 34.6665C49.5 34.2394 49.1563 33.8853 48.7292 33.8853Z" fill="#123455"/>
<path d="M63.4584 50.1772C61.8021 50.1772 60.4584 51.521 60.4584 53.1772C60.4584 54.8335 61.8021 56.1772 63.4584 56.1772C65.1146 56.1772 66.4584 54.8335 66.4584 53.1772C66.4584 51.521 65.1146 50.1772 63.4584 50.1772ZM63.4584 54.6147C62.6667 54.6147 62.0209 53.9689 62.0209 53.1772C62.0209 52.3856 62.6667 51.7397 63.4584 51.7397C64.25 51.7397 64.8959 52.3856 64.8959 53.1772C64.8959 53.9689 64.25 54.6147 63.4584 54.6147Z" fill="#123455"/>
<path d="M55.0417 50.1772C53.3855 50.1772 52.0417 51.521 52.0417 53.1772C52.0417 54.8335 53.3855 56.1772 55.0417 56.1772C56.698 56.1772 58.0417 54.8335 58.0417 53.1772C58.0417 51.521 56.698 50.1772 55.0417 50.1772ZM55.0417 54.6147C54.2501 54.6147 53.6042 53.9689 53.6042 53.1772C53.6042 52.3856 54.2501 51.7397 55.0417 51.7397C55.8334 51.7397 56.4792 52.3856 56.4792 53.1772C56.4792 53.9689 55.8334 54.6147 55.0417 54.6147Z" fill="#123455"/>
<path d="M36.948 53.4061C36.1355 53.4061 35.4688 52.7394 35.4688 51.9269C35.4688 51.1144 36.1355 50.4478 36.948 50.4478C37.6355 50.4478 38.2397 50.9373 38.3959 51.604C38.4897 52.0311 38.9167 52.2915 39.3334 52.1978C39.7501 52.104 40.0209 51.6873 39.9272 51.2603C39.6147 49.8644 38.3959 48.8853 36.9584 48.8853C35.2813 48.8853 33.9167 50.2498 33.9167 51.9269C33.9167 53.604 35.2813 54.9686 36.9584 54.9686C37.7709 54.9686 38.4376 55.6353 38.4376 56.4478C38.4376 57.2603 37.7709 57.9269 36.9584 57.9269C36.2292 57.9269 35.6042 57.3853 35.5001 56.6769C35.4376 56.2498 35.0313 55.9582 34.6147 56.0207C34.1876 56.0832 33.8959 56.4894 33.9584 56.9061C34.1876 58.3748 35.4792 59.4894 36.9688 59.4894C38.6459 59.4894 40.0105 58.1248 40.0105 56.4478C40.0001 54.7707 38.6355 53.4061 36.948 53.4061Z" fill="#123455"/>
<path d="M23.1459 49.1667C22.7397 49.0104 22.2917 49.2083 22.1355 49.6146L19.448 56.5521L16.7605 49.6146C16.6042 49.2083 16.1563 49.0104 15.7501 49.1667C15.3438 49.3229 15.1459 49.7708 15.3022 50.1771L18.7188 58.9896C18.8334 59.2917 19.1251 59.4896 19.448 59.4896C19.7709 59.4896 20.0626 59.2917 20.1772 58.9896L23.5938 50.1771C23.7501 49.7812 23.5522 49.3229 23.1459 49.1667Z" fill="#123455"/>
<path d="M29.2187 48.8853H26.5625C26.1354 48.8853 25.7812 49.2394 25.7812 49.6665V49.9061V53.8332V58.7186C25.7812 59.1457 26.1354 59.4998 26.5625 59.4998C26.9896 59.4998 27.3438 59.1457 27.3438 58.7186V54.6144H29.2187C30.8021 54.6144 32.0833 53.3332 32.0833 51.7498C32.0833 50.1665 30.8021 48.8853 29.2187 48.8853ZM29.2187 53.0415H27.3438V50.4373H29.2187C29.9375 50.4373 30.5208 51.0207 30.5208 51.7394C30.5208 52.4582 29.9375 53.0415 29.2187 53.0415Z" fill="#123455"/>
<path d="M25.3855 40.5834C21.0418 39.1667 18.5001 40.7292 17.1355 42.2813C16.8543 42.6042 16.8855 43.1042 17.2084 43.3854C17.3543 43.5209 17.5418 43.5834 17.7188 43.5834C17.9376 43.5834 18.1563 43.4896 18.3022 43.3125C19.8334 41.5625 22.0522 41.1459 24.8959 42.0729C25.3022 42.2084 25.7501 41.9792 25.8751 41.5729C26.0209 41.1667 25.8022 40.7188 25.3855 40.5834Z" fill="#123455"/>
<path d="M15.9793 46.5207C16.0418 46.5312 16.0938 46.5416 16.1563 46.5416C16.5105 46.5416 16.8334 46.302 16.9168 45.9374C16.9272 45.9166 16.9897 45.6353 17.1459 45.2395C17.3022 44.8437 17.1147 44.3853 16.7084 44.2291C16.3126 44.0624 15.8543 44.2603 15.698 44.6666C15.4897 45.1978 15.4063 45.552 15.3959 45.5937C15.3022 46.0103 15.5626 46.427 15.9793 46.5207Z" fill="#123455"/>
</svg>
