<svg width="114" height="29" viewBox="0 0 114 29" fill="none" xmlns="http://www.w3.org/2000/svg">
<g clip-path="url(#clip0_4544_20987)">
<path d="M31.2676 20.5014V9.30138H35.9236C36.7023 9.30138 37.3583 9.42405 37.8916 9.66938C38.4249 9.91471 38.8303 10.2561 39.1076 10.6934C39.3849 11.1201 39.5236 11.6214 39.5236 12.1974C39.5236 12.7521 39.4009 13.2214 39.1556 13.6054C38.9103 13.9894 38.5849 14.2881 38.1796 14.5014C37.7849 14.7041 37.3476 14.8214 36.8676 14.8534L37.1236 14.6774C37.6356 14.6987 38.0889 14.8374 38.4836 15.0934C38.8889 15.3494 39.2036 15.6854 39.4276 16.1014C39.6623 16.5067 39.7796 16.9547 39.7796 17.4454C39.7796 18.0427 39.6356 18.5761 39.3476 19.0454C39.0596 19.5041 38.6383 19.8614 38.0836 20.1174C37.5396 20.3734 36.8729 20.5014 36.0836 20.5014H31.2676ZM33.5076 18.6774H35.7316C36.2969 18.6774 36.7343 18.5494 37.0436 18.2934C37.3529 18.0267 37.5076 17.6534 37.5076 17.1734C37.5076 16.6934 37.3476 16.3147 37.0276 16.0374C36.7076 15.7601 36.2649 15.6214 35.6996 15.6214H33.5076V18.6774ZM33.5076 13.9574H35.5556C36.0996 13.9574 36.5156 13.8347 36.8036 13.5894C37.0916 13.3334 37.2356 12.9761 37.2356 12.5174C37.2356 12.0694 37.0916 11.7227 36.8036 11.4774C36.5156 11.2214 36.0943 11.0934 35.5396 11.0934H33.5076V13.9574ZM41.5176 20.5014V9.30138H48.9256V11.1094H43.7576V13.9414H48.4456V15.6854H43.7576V18.6934H48.9256V20.5014H41.5176ZM54.765 20.6934C53.9543 20.6934 53.229 20.5547 52.589 20.2774C51.9596 20.0001 51.4583 19.5947 51.085 19.0614C50.7116 18.5281 50.5196 17.8827 50.509 17.1254H52.877C52.8876 17.4454 52.9676 17.7334 53.117 17.9894C53.277 18.2454 53.4956 18.4481 53.773 18.5974C54.0503 18.7467 54.3756 18.8214 54.749 18.8214C55.0796 18.8214 55.3623 18.7681 55.597 18.6614C55.8423 18.5547 56.029 18.4054 56.157 18.2134C56.2956 18.0214 56.365 17.7867 56.365 17.5094C56.365 17.2107 56.285 16.9547 56.125 16.7414C55.9756 16.5281 55.7676 16.3467 55.501 16.1974C55.2343 16.0481 54.925 15.9147 54.573 15.7974C54.2316 15.6694 53.8636 15.5414 53.469 15.4134C52.5836 15.1254 51.9063 14.7414 51.437 14.2614C50.9783 13.7814 50.749 13.1414 50.749 12.3414C50.749 11.6587 50.909 11.0774 51.229 10.5974C51.5596 10.1174 52.013 9.74937 52.589 9.49337C53.1756 9.23737 53.837 9.10938 54.573 9.10938C55.3303 9.10938 55.997 9.24271 56.573 9.50938C57.149 9.76538 57.6023 10.1387 57.933 10.6294C58.2743 11.1201 58.4556 11.7014 58.477 12.3734H56.077C56.0663 12.1281 55.997 11.9041 55.869 11.7014C55.741 11.4881 55.565 11.3174 55.341 11.1894C55.117 11.0614 54.8503 10.9974 54.541 10.9974C54.2743 10.9867 54.029 11.0294 53.805 11.1254C53.5916 11.2107 53.421 11.3441 53.293 11.5254C53.165 11.6961 53.101 11.9147 53.101 12.1814C53.101 12.4481 53.165 12.6721 53.293 12.8534C53.421 13.0241 53.597 13.1734 53.821 13.3014C54.0556 13.4294 54.3276 13.5521 54.637 13.6694C54.9463 13.7761 55.2823 13.8881 55.645 14.0054C56.2103 14.1974 56.7276 14.4267 57.197 14.6934C57.6663 14.9494 58.0396 15.2854 58.317 15.7014C58.605 16.1174 58.749 16.6667 58.749 17.3494C58.749 17.9467 58.5943 18.5014 58.285 19.0134C57.9756 19.5147 57.5276 19.9201 56.941 20.2294C56.3543 20.5387 55.629 20.6934 54.765 20.6934ZM63.0943 20.5014V11.1094H59.8303V9.30138H68.5823V11.1094H65.3183V20.5014H63.0943ZM73.8145 20.5014V9.30138H77.6225C78.9131 9.30138 79.9851 9.53604 80.8385 10.0054C81.6918 10.4641 82.3211 11.1147 82.7265 11.9574C83.1425 12.7894 83.3505 13.7707 83.3505 14.9014C83.3505 16.0214 83.1425 17.0027 82.7265 17.8454C82.3211 18.6881 81.6918 19.3441 80.8385 19.8134C79.9958 20.2721 78.9185 20.5014 77.6065 20.5014H73.8145ZM76.0545 18.5814H77.4945C78.3905 18.5814 79.0945 18.4374 79.6065 18.1494C80.1291 17.8507 80.5025 17.4294 80.7265 16.8854C80.9505 16.3307 81.0625 15.6694 81.0625 14.9014C81.0625 14.1334 80.9505 13.4774 80.7265 12.9334C80.5025 12.3787 80.1291 11.9521 79.6065 11.6534C79.0945 11.3547 78.3905 11.2054 77.4945 11.2054H76.0545V18.5814ZM85.1582 20.5014V9.30138H92.5662V11.1094H87.3982V13.9414H92.0862V15.6854H87.3982V18.6934H92.5662V20.5014H85.1582ZM93.7816 20.5014L97.8616 9.30138H100.406L104.486 20.5014H102.118L99.1256 11.8454L96.1176 20.5014H93.7816ZM95.5736 17.9894L96.1656 16.2454H101.926L102.502 17.9894H95.5736ZM105.924 20.5014V9.30138H108.164V18.7574H113.06V20.5014H105.924Z" fill="white"/>
<path fill-rule="evenodd" clip-rule="evenodd" d="M8.59122 14.4733C9.52697 15.0136 9.84757 16.2101 9.30732 17.1459C8.76708 18.0816 7.57053 18.4022 6.63478 17.862C5.69904 17.3217 5.37844 16.1252 5.91869 15.1894C6.45893 14.2537 7.65547 13.9331 8.59122 14.4733ZM7.90373 15.6641C8.18183 15.8247 8.2771 16.1802 8.11655 16.4583C7.95597 16.7364 7.6004 16.8317 7.32231 16.6712C7.04422 16.5106 6.94891 16.155 7.10949 15.8769C7.27003 15.5988 7.62564 15.5035 7.90373 15.6641Z" fill="white"/>
<path d="M8.59385 22.2812C8.26504 22.0914 8.15238 21.6709 8.34222 21.3421L12.4593 14.211C12.6492 13.8822 13.0696 13.7696 13.3985 13.9594C13.7273 14.1493 13.8399 14.5697 13.6501 14.8986L9.533 22.0296C9.34315 22.3584 8.92269 22.4711 8.59385 22.2812Z" fill="white"/>
<path fill-rule="evenodd" clip-rule="evenodd" d="M15.3647 18.3835C16.3004 18.9238 16.621 20.1203 16.0808 21.0561C15.5405 21.9918 14.344 22.3124 13.4082 21.7722C12.4725 21.2319 12.1519 20.0354 12.6921 19.0996C13.2324 18.1639 14.4289 17.8433 15.3647 18.3835ZM14.6772 19.5743C14.9553 19.7349 15.0505 20.0905 14.89 20.3686C14.7294 20.6467 14.3738 20.7419 14.0957 20.5814C13.8177 20.4208 13.7223 20.0652 13.8829 19.7872C14.0435 19.5091 14.3991 19.4138 14.6772 19.5743Z" fill="white"/>
<path fill-rule="evenodd" clip-rule="evenodd" d="M2.80253 9.29764C3.00284 9.66536 3.2308 9.98678 3.46698 10.2548C3.9306 10.7807 4.42593 11.1007 4.80645 11.1604C4.80645 10.6861 4.84041 10.2047 4.9067 9.72199C5.45071 5.76179 8.17044 1.72318 12.1424 0.909595C12.6146 0.812862 13.1045 0.761719 13.6106 0.761719C13.4638 1.25844 13.3523 1.71866 13.2729 2.14618C12.5458 6.06344 14.5198 7.23442 16.773 8.57105C19.2216 10.0236 22 11.6717 22 17.2523C22 23.3274 17.0751 28.2523 11 28.2523C4.92485 28.2523 0 23.3274 0 17.2523C0 14.2612 0.15708 11.5232 1.26235 9.25675C1.5248 8.71856 1.84071 8.20699 2.22067 7.72489C2.34703 8.3115 2.55341 8.84036 2.80253 9.29764ZM8.3164 4.99035C9.27142 3.75321 10.4688 2.8368 11.8379 2.40754C11.6001 4.11097 11.8187 5.49231 12.4813 6.65131C13.3228 8.12334 14.7657 8.97909 15.9266 9.66767L15.9956 9.70859C17.2635 10.4611 18.3592 11.1137 19.1928 12.1738C19.9868 13.1836 20.625 14.684 20.625 17.2523C20.625 22.568 16.3157 26.8773 11 26.8773C5.68425 26.8773 1.37501 22.568 1.37501 17.2523C1.37501 14.6918 1.50381 12.5459 2.11906 10.774C2.18094 10.8568 2.24387 10.9369 2.30766 11.0141C2.88321 11.7113 3.69653 12.3782 4.59344 12.5188L6.18143 12.7678V11.1604C6.18143 9.05427 6.95864 6.74922 8.3164 4.99035Z" fill="white"/>
</g>
<defs>
<clipPath id="clip0_4544_20987">
<rect width="114" height="29" fill="white"/>
</clipPath>
</defs>
</svg>
