<svg width="150" height="31" viewBox="0 0 150 31" fill="none" xmlns="http://www.w3.org/2000/svg">
<g clip-path="url(#clip0_5383_6974)">
<path d="M66.1992 11.7269C66.1992 11.5315 66.1992 11.3686 66.1992 11.2058C66.2651 11.1732 66.3309 11.1406 66.4296 11.1406C68.6352 11.1406 70.8408 11.1406 73.0463 11.2058C73.9022 11.2383 74.6923 11.4989 75.4165 11.9875C77.0954 13.1275 77.1941 15.4076 75.5811 16.6454C75.0215 17.0688 74.2973 17.2968 73.606 17.6551C73.6389 17.6877 73.7376 17.818 73.8364 17.9157C74.6923 18.7952 75.4823 19.6746 76.3711 20.4889C77.26 21.3032 78.2804 21.7918 79.5314 21.6615C80.5518 21.5313 80.9469 21.1404 81.0127 20.1306C81.0785 19.3163 81.0785 18.502 81.0785 17.6877C81.0785 16.3522 81.0785 14.9842 81.0456 13.6487C80.9798 12.2481 80.6506 11.9224 79.2351 11.7921C79.1363 11.7921 79.0376 11.7595 78.9059 11.7595C78.9059 11.6618 78.873 11.5966 78.873 11.4989C78.873 11.4012 78.873 11.3361 78.9059 11.2383C78.9717 11.2383 79.0705 11.2058 79.1363 11.2058C81.4407 11.2383 83.745 11.2058 86.0493 11.2709C87.399 11.3035 88.7157 11.6944 89.835 12.5412C91.5467 13.8116 92.0734 15.6031 91.8101 17.6226C91.5467 19.5443 90.4275 20.8798 88.6499 21.6615C87.4319 22.1827 86.1481 22.313 84.8313 22.313C81.7369 22.313 78.6425 22.313 75.5482 22.313C75.3507 22.313 75.0544 22.1827 74.9227 22.0198C73.8364 20.6844 72.7501 19.3489 71.6637 18.0134C71.4333 17.7203 71.2029 17.59 70.8079 17.7528C70.8408 18.7952 70.7091 19.8375 71.0383 20.8798C71.2029 21.401 71.6308 21.5964 72.1246 21.6941C72.388 21.7267 72.6842 21.7593 72.9805 21.7918C72.9805 21.9873 72.9805 22.1501 72.9805 22.3456C70.7749 22.3456 68.5694 22.3456 66.3309 22.3456C66.3309 22.1501 66.3309 22.0198 66.3309 21.7918C66.5613 21.7593 66.7588 21.7267 66.9893 21.7267C67.9768 21.629 68.3719 21.2381 68.4377 20.2609C68.5035 19.6421 68.5035 19.0557 68.5035 18.4369C68.5035 16.8082 68.5035 15.1796 68.4377 13.551C68.3719 12.3132 68.0427 11.9875 66.7588 11.8572C66.5284 11.7595 66.3638 11.7595 66.1992 11.7269ZM83.3499 16.1894C83.3829 16.1894 83.3829 16.1894 83.4158 16.1894C83.4158 17.5574 83.3829 18.9255 83.4158 20.2609C83.4487 20.945 83.7779 21.2381 84.4692 21.2381C84.7984 21.2381 85.1276 21.2381 85.4568 21.2381C87.2673 21.1404 88.5511 20.1632 88.9791 18.4043C89.2753 17.2643 89.2753 16.0916 88.9791 14.919C88.584 13.4207 87.6623 12.4435 86.0822 12.2155C85.3251 12.0852 84.535 12.1504 83.745 12.0852C83.4158 12.0527 83.3499 12.2155 83.3499 12.5087C83.3499 13.7464 83.3499 14.9842 83.3499 16.1894ZM70.7091 16.6454C71.3675 16.6128 71.9929 16.6454 72.6184 16.5477C73.6389 16.3848 74.2643 15.6031 74.2973 14.463C74.3302 13.3881 73.7706 12.4761 72.8159 12.2481C72.1575 12.1178 71.4333 12.1504 70.7091 12.0852C70.7091 13.6487 70.7091 15.1145 70.7091 16.6454Z" fill="#363636"/>
<path d="M117.85 11.7269C117.85 11.5315 117.85 11.3686 117.85 11.1732C121.141 11.1732 124.4 11.1732 127.725 11.1732C127.791 12.1829 127.89 13.1927 127.956 14.2024C127.626 14.3327 127.429 14.3002 127.363 13.9419C127.33 13.8116 127.297 13.6813 127.264 13.551C127.067 12.7692 126.573 12.3132 125.783 12.2481C124.664 12.1829 123.512 12.1504 122.359 12.0852C122.359 13.3881 122.359 14.6259 122.359 15.8962C123.117 15.9288 123.841 15.9288 124.565 15.6682C124.927 15.5379 125.092 15.2448 125.158 14.8865C125.19 14.5933 125.223 14.3002 125.256 13.9744C125.421 13.9744 125.618 13.9744 125.849 13.9744C125.849 14.3327 125.849 14.7236 125.849 15.0819C125.849 16.1894 125.849 17.2968 125.849 18.4043C125.849 18.8277 125.717 18.9906 125.256 18.8277C125.223 18.5672 125.19 18.274 125.158 17.9809C125.092 17.4923 124.828 17.134 124.335 17.0688C123.709 16.9711 123.051 16.9385 122.327 16.8734C122.392 18.1437 122.195 19.3163 122.557 20.4564C122.722 21.0101 123.215 21.2055 123.742 21.2381C124.532 21.2707 125.355 21.2381 126.178 21.2055C127.231 21.173 127.857 20.6192 128.054 19.5769C128.12 19.2838 128.219 19.0232 128.647 19.2186C128.581 20.1958 128.515 21.2055 128.449 22.2479C128.285 22.2479 128.12 22.2804 127.956 22.2804C123.643 22.2804 119.331 22.2804 115.019 22.2804C114.689 22.2804 114.492 22.1827 114.294 21.9547C113.241 20.6192 112.155 19.2838 111.068 17.9483C110.838 17.6551 110.607 17.5248 110.212 17.6551C110.245 18.6974 110.081 19.7398 110.41 20.7821C110.574 21.3032 111.002 21.5313 111.496 21.5964C111.76 21.629 112.056 21.6615 112.352 21.6941C112.352 21.8896 112.352 22.0524 112.352 22.2479C112.22 22.2479 112.089 22.2804 111.957 22.2804C110.015 22.2804 108.106 22.2804 106.163 22.2804C105.67 22.2804 105.67 22.2804 105.735 21.6941C105.966 21.6615 106.196 21.629 106.427 21.629C107.283 21.5313 107.678 21.173 107.809 20.3261C107.875 19.9352 107.908 19.5443 107.908 19.186C107.908 17.5574 107.908 15.8962 107.908 14.2676C107.908 13.8116 107.875 13.3881 107.776 12.9321C107.645 12.2155 107.283 11.9224 106.558 11.8246C106.295 11.7921 106.032 11.7595 105.768 11.7269C105.637 11.1732 105.67 11.1406 106.196 11.1406C108.303 11.1732 110.41 11.1406 112.517 11.2058C113.373 11.2383 114.196 11.4989 114.92 11.9875C116.566 13.1275 116.632 15.3751 115.051 16.6128C114.755 16.8408 114.426 17.0037 114.097 17.1665C113.768 17.2968 113.406 17.3945 113.043 17.4923C113.109 17.59 113.142 17.6551 113.208 17.7528C114.064 18.6323 114.887 19.5118 115.743 20.3912C116.302 20.945 116.994 21.3358 117.784 21.5313C119.002 21.857 119.792 21.3684 119.956 20.1306C120.022 19.4792 120.022 18.8277 120.022 18.1763C120.022 16.8408 120.022 15.4728 120.022 14.1373C120.022 14.007 120.022 13.9093 120.022 13.779C119.923 11.9875 119.43 11.7921 118.08 11.7269C117.981 11.7595 117.948 11.7269 117.85 11.7269ZM110.179 12.0852C110.179 13.6487 110.179 15.1145 110.179 16.6454C110.838 16.6128 111.463 16.6454 112.089 16.5477C113.109 16.4174 113.702 15.6356 113.768 14.4956C113.833 13.4207 113.274 12.4761 112.319 12.2481C111.661 12.1178 110.904 12.1504 110.179 12.0852Z" fill="#363636"/>
<path d="M39.9295 17.8175C40.0283 17.5569 40.0612 17.4266 40.1271 17.2638C41.1475 14.2671 42.168 11.2378 43.1885 8.24117C43.2543 8.01316 43.2873 7.78516 43.6494 7.78516C44.0115 7.78516 44.0444 8.01316 44.1432 8.24117C45.1307 11.2378 46.1512 14.2345 47.1388 17.1986C47.2046 17.3615 47.2705 17.5243 47.3363 17.7849C47.4021 17.5895 47.468 17.4918 47.5009 17.3615C48.2251 15.2117 48.9822 13.0945 49.7064 10.9447C49.8381 10.5864 49.9369 10.1955 50.0027 9.83722C50.1344 9.08806 49.8052 8.63204 49.0481 8.50175C48.686 8.43661 48.3239 8.40403 47.9617 8.37146C47.9617 8.2086 47.9617 8.01316 47.9617 7.81773C50.0356 7.81773 52.1095 7.81773 54.2163 7.81773C54.2163 7.98059 54.2163 8.17603 54.2163 8.37146C53.9201 8.40403 53.5909 8.43661 53.2617 8.46918C52.4387 8.5669 51.8133 8.95777 51.4511 9.70693C51.122 10.4561 50.7928 11.2053 50.5294 11.9544C49.3443 15.4397 48.1922 18.8924 47.0071 22.3776C46.9413 22.5405 46.8096 22.7359 46.6779 22.7685C46.3816 22.8662 46.3816 22.5405 46.3158 22.3776C45.2624 19.2181 44.209 16.026 43.1885 12.8665C43.1556 12.7362 43.0898 12.6059 42.991 12.3453C42.8922 12.5733 42.8264 12.7362 42.7935 12.8665C41.7401 15.9934 40.6867 19.153 39.6333 22.2799C39.5674 22.4754 39.6004 22.8337 39.2382 22.7685C39.0737 22.7359 38.942 22.4754 38.8761 22.3125C38.1519 20.1953 37.4606 18.0455 36.7693 15.8957C36.2426 14.2671 35.683 12.6385 35.1563 11.0098C35.0576 10.7167 34.9259 10.4235 34.8271 10.1304C34.3992 8.95777 33.5433 8.37146 32.2924 8.40403C32.1936 8.40403 32.1278 8.37146 31.9961 8.37146C31.9961 8.17603 31.9961 8.01316 31.9961 7.81773C34.465 7.81773 36.9339 7.81773 39.4358 7.81773C39.4358 8.01316 39.4358 8.17603 39.4358 8.37146C39.1066 8.40403 38.7774 8.43661 38.4482 8.50175C37.5594 8.63204 37.1644 9.12063 37.3948 9.96751C37.6911 11.1727 38.119 12.3453 38.4811 13.5179C38.9091 14.7882 39.337 16.0586 39.732 17.3615C39.7649 17.4918 39.8308 17.6221 39.9295 17.8175Z" fill="#363636"/>
<path d="M0 15.016C0 6.67748 6.84713 -0.0324544 15.2414 0.000118089C23.6687 0.0326906 30.417 6.74263 30.417 15.0486C30.3841 23.3872 23.6028 30.0971 15.1756 30.0646C6.74837 30.032 0 23.322 0 15.016ZM0.88881 14.9835C0.790053 22.7357 7.17631 29.1199 15.1427 29.1851C23.0103 29.2502 29.4624 22.9963 29.5282 15.1463C29.627 7.32893 23.2736 0.977294 15.3073 0.879576C7.40675 0.781858 0.954647 7.06835 0.88881 14.9835Z" fill="#363636"/>
<path d="M97.4391 16.0579C97.5049 17.3934 97.5049 18.6637 97.6366 19.934C97.7683 21.1066 98.3608 21.5626 99.5788 21.6278C99.7434 21.6278 99.9409 21.6278 100.106 21.6278C100.27 22.2467 100.237 22.2792 99.6776 22.2792C97.4391 22.2792 95.2335 22.2792 92.995 22.2792C92.4354 22.2792 92.4354 22.2467 92.5342 21.6604C92.8963 21.6278 93.2255 21.5952 93.5876 21.5301C94.3118 21.4323 94.7726 20.9763 94.9372 20.2923C95.036 19.8037 95.1347 19.2826 95.1347 18.7614C95.1677 16.2859 95.1677 13.7778 95.1347 11.3023C95.1347 10.8463 95.0689 10.3577 94.9702 9.90168C94.7726 9.02222 94.3776 8.66392 93.4559 8.53363C93.1596 8.50106 92.8633 8.46849 92.5342 8.43591C92.5342 8.27305 92.5342 8.07762 92.5342 7.88218C92.6329 7.88218 92.7646 7.84961 92.8633 7.84961C95.2335 7.84961 97.6037 7.84961 99.9409 7.84961C100.863 7.84961 101.751 8.04504 102.574 8.46849C104.023 9.18508 104.846 10.3251 104.846 11.9537C104.846 13.5498 104.056 14.6573 102.64 15.3739C101.587 15.9276 100.402 16.0253 99.2496 16.0579C98.6571 16.0579 98.1304 16.0579 97.4391 16.0579ZM97.5378 14.8201C98.3608 14.8201 99.1509 14.8853 99.908 14.8201C101.192 14.6898 101.883 14.0058 102.146 12.7355C102.245 12.312 102.245 11.8886 102.212 11.4652C102.114 10.26 101.356 9.2828 100.237 9.11994C99.3484 8.98965 98.4596 9.02222 97.5378 8.95707C97.5378 10.944 97.5378 12.8658 97.5378 14.8201Z" fill="#363636"/>
<path d="M58.4303 22.7033C56.521 22.6707 54.5788 21.8564 53.1962 19.9998C51.4186 17.6546 51.7807 14.6253 53.9863 12.5733C56.5868 10.1629 61.0967 10.1629 63.6973 12.6058C66.4296 15.2116 66.1333 19.2832 63.006 21.433C61.7551 22.2799 60.3396 22.7033 58.4303 22.7033ZM54.6117 16.71C54.6117 17.6871 54.8092 18.6317 55.2372 19.5112C55.9614 20.9444 57.1794 21.661 58.7595 21.661C60.3725 21.661 61.6564 21.0095 62.3806 19.5438C63.3352 17.6546 63.3023 15.7002 62.3477 13.811C61.6234 12.3778 60.3725 11.7264 58.7595 11.7264C57.1794 11.7264 55.9943 12.443 55.2372 13.8436C54.8092 14.7556 54.6117 15.7002 54.6117 16.71Z" fill="#363636"/>
<path d="M147.248 11.5955C147.675 11.4001 147.445 10.488 148.268 10.8138C148.268 12.0841 148.268 13.3544 148.268 14.6248C147.807 14.755 147.61 14.6573 147.511 14.2013C147.149 12.703 146.293 11.8887 144.943 11.8235C144.449 11.7909 143.923 11.9212 143.495 12.1492C142.738 12.5401 142.639 13.4847 143.264 14.071C143.561 14.3642 143.956 14.6248 144.351 14.8202C145.272 15.3088 146.227 15.6996 147.116 16.1882C147.61 16.4488 148.103 16.7745 148.466 17.1654C149.749 18.5009 149.552 20.5855 148.005 21.7907C146.523 22.9633 144.318 22.9959 142.573 21.8884C142.441 21.7907 142.31 21.693 142.112 21.5627C141.981 21.8233 141.783 22.0513 141.717 22.3444C141.618 22.7679 141.388 22.7679 141.026 22.6702C141.026 22.5724 140.993 22.4747 140.993 22.377C140.993 20.9764 140.993 19.6083 140.993 18.1752C141.223 18.1752 141.388 18.1752 141.618 18.1752C141.651 18.3054 141.684 18.4683 141.717 18.5986C142.145 20.5204 143.692 21.7256 145.667 21.6278C146.49 21.5953 147.149 21.1393 147.346 20.5204C147.577 19.8364 147.346 19.1849 146.655 18.6637C146.194 18.338 145.667 18.0449 145.141 17.7843C144.417 17.426 143.659 17.1328 142.968 16.742C141.816 16.1231 141.026 15.2111 140.993 13.843C140.96 12.4098 142.013 11.2046 143.594 10.9115C144.812 10.6509 145.931 10.8463 146.984 11.5304C147.083 11.5304 147.182 11.5629 147.248 11.5955Z" fill="#363636"/>
<path d="M137.007 11.5952C137.764 10.7483 137.764 10.7483 138.028 10.7809C138.028 12.0512 138.028 13.3215 138.028 14.5593C137.468 14.7222 137.435 14.6896 137.304 14.1684C136.941 12.6701 136.053 11.8558 134.703 11.7581C134.275 11.7255 133.781 11.8232 133.353 12.0186C132.497 12.4421 132.366 13.4193 133.057 14.0707C133.353 14.3639 133.748 14.5919 134.143 14.7873C135.065 15.2433 135.987 15.6993 136.908 16.1554C137.731 16.5462 138.39 17.1 138.785 17.9468C139.41 19.2172 138.982 20.8458 137.731 21.7904C136.25 22.9304 134.045 22.963 132.366 21.8555C132.234 21.7578 132.102 21.6601 131.905 21.5298C131.773 21.7904 131.576 22.0184 131.51 22.2464C131.411 22.6373 131.181 22.735 130.818 22.6047C130.818 22.4744 130.786 22.3767 130.786 22.2464C130.786 20.8784 130.786 19.5103 130.786 18.1097C131.016 18.1097 131.214 18.1097 131.378 18.1097C131.477 18.468 131.543 18.8263 131.674 19.152C132.333 20.9109 134.242 21.9533 135.921 21.4972C136.513 21.3344 136.974 21.0087 137.139 20.3898C137.336 19.7383 137.106 19.2172 136.612 18.7937C136.217 18.468 135.756 18.1748 135.328 17.9468C134.472 17.4908 133.584 17.1325 132.761 16.6765C131.674 16.0902 130.917 15.2433 130.786 14.0056C130.621 12.4747 131.74 11.1718 133.386 10.846C134.637 10.618 135.625 10.7809 137.007 11.5952Z" fill="#363636"/>
<path d="M23.6025 5.73213C21.7261 5.92757 21.1006 7.65391 21.6603 8.98938C21.9236 9.60826 22.2528 10.1946 22.6149 10.7809C23.372 12.0512 23.8987 13.3867 23.7012 14.8524C23.6025 15.7645 23.372 16.6765 23.1087 17.5885C22.6149 19.2172 22.0882 20.8458 21.5286 22.6047C19.9814 18.0771 18.5 13.6798 16.9858 9.21739C17.4796 9.18482 17.9404 9.15224 18.3684 9.0871C18.7963 9.02195 19.0597 8.63108 18.7963 8.33793C18.6646 8.17507 18.3684 8.04478 18.1709 8.07735C16.5907 8.07735 15.0436 8.1425 13.4635 8.1425C12.8709 8.1425 12.3113 8.07735 11.7188 8.04478C11.3566 8.01221 11.0933 8.1425 11.0604 8.53337C11.0275 8.92424 11.2908 9.0871 11.62 9.11967H11.6529C12.6734 8.95681 13.0355 9.54311 13.2989 10.39C13.6939 11.6603 14.2206 12.9307 14.6814 14.201C14.7473 14.3964 14.7802 14.657 14.7144 14.8199C13.8914 17.3279 13.0355 19.836 12.1796 22.3441C12.1467 22.4093 12.1138 22.507 12.0479 22.6698C10.5008 18.1097 8.98648 13.6798 7.47222 9.18482C7.76849 9.15224 8.06476 9.11967 8.32811 9.0871C8.4927 9.05453 8.69021 9.05453 8.85481 9.02195C9.184 8.95681 9.38151 8.79395 9.34859 8.46822C9.31567 8.10992 9.08524 7.97963 8.72313 7.97963C7.80141 8.01221 6.9126 8.07735 5.99087 8.10992C5.56292 8.10992 5.1679 8.10992 4.70703 8.10992C8.42686 2.01886 17.8746 0.422812 23.6025 5.73213Z" fill="#363636"/>
<path d="M11.6523 27.0355C12.9033 23.4199 14.1542 19.8369 15.438 16.1562C16.7548 19.7718 18.0715 23.2571 19.3883 26.84C16.8206 27.7195 14.2859 27.7521 11.6523 27.0355Z" fill="#363636"/>
<path d="M3.61992 10.0332C5.62797 15.4728 7.6031 20.8147 9.57824 26.1892C3.7516 23.6159 0.788898 16.1243 3.61992 10.0332Z" fill="#363636"/>
<path d="M21.6289 25.7975C21.9581 24.8854 22.2214 24.0386 22.5177 23.1917C23.604 20.0647 24.7233 16.9052 25.8096 13.7782C26.3692 12.1822 26.5009 10.9118 26.3692 9.2832C29.2661 14.1039 28.1139 21.9865 21.6289 25.7975Z" fill="#363636"/>
</g>
<defs>
<clipPath id="clip0_5383_6974">
<rect width="149.32" height="30.0644" fill="white"/>
</clipPath>
</defs>
</svg>
