<svg width="143" height="26" viewBox="0 0 143 26" fill="none" xmlns="http://www.w3.org/2000/svg">
<path d="M85.7935 3.80078C89.5868 3.80078 92.9045 5.58312 94.0979 8.92244L90.0595 10.0931C89.0674 8.15565 87.4334 7.64641 85.7935 7.64641C83.0244 7.64641 80.9176 9.83848 80.9176 12.7154C80.9176 15.5923 83.074 17.8107 85.919 17.8107C88.1541 17.8107 89.7794 16.64 90.4155 14.7553H85.207V11.1877H94.5794C94.6456 11.7031 94.6797 12.2221 94.6815 12.7417C94.6815 17.9131 90.9991 21.6329 85.8693 21.6329C80.7396 21.6329 76.7012 17.7258 76.7012 12.7154C76.7012 7.70495 80.6871 3.80078 85.7935 3.80078ZM59.5234 8.00054C62.6835 8.00054 64.7756 9.44631 65.2863 11.653L61.5951 12.3876C61.4696 11.6003 60.7197 10.8921 59.4708 10.8921C58.3854 10.8921 57.8397 11.3486 57.7405 11.8813C57.6734 12.2296 57.8397 12.5193 58.9923 12.7593C59.2928 12.8243 59.8369 12.9361 60.3789 13.0463L60.5335 13.0776C61.2783 13.2288 61.9744 13.368 61.9744 13.368C64.3759 13.8743 65.4759 15.3201 65.4759 17.1961C65.4759 20.0116 63.0482 21.4837 59.7101 21.4837C56.728 21.4837 54.166 20.392 53.7429 17.7814L57.7026 16.9766C57.8776 18.0682 58.8697 18.4751 59.9523 18.4751C61.0348 18.4751 61.8635 18.0156 61.8869 17.4595C61.9248 16.6166 61.2654 16.1162 60.3316 15.9347C59.6868 15.8118 57.7522 15.4284 57.7522 15.4284C55.4003 14.9982 54.061 14.3163 54.061 12.3115C54.061 9.70093 56.3107 8.00054 59.5234 8.00054ZM101.693 7.78397C105.277 7.78982 107.535 9.5985 107.535 12.8588V20.9598H103.625V20.0174C102.561 20.9154 101.204 21.3875 99.8141 21.3432C96.9721 21.3432 95.0667 19.6867 95.0667 17.1639C95.0667 14.6411 96.9721 13.0432 100.366 13.0432H103.616V12.7886C103.643 12.3046 103.462 11.8322 103.12 11.4897C102.778 11.1472 102.307 10.9671 101.825 10.9945C100.605 10.9945 99.8929 11.4774 99.6916 12.5983L95.8574 11.8081C96.4147 9.33802 98.6499 7.78397 101.693 7.78397ZM72.3331 3.89151V8.17321H76.0914V11.3925H72.3535V15.8411C72.3535 17.1639 72.9867 17.6995 74.0547 17.6995C74.7034 17.6767 75.3379 17.5023 75.9075 17.1903L76.8325 20.4008C75.7761 21.0167 74.5763 21.3418 73.3543 21.3432C70.1796 21.3432 68.2684 19.6106 68.2684 16.2625V11.4072H65.9632V8.18784H68.2684V4.76951L72.3331 3.89151ZM114.523 3.89151V8.17321H118.282V11.3925H114.518V15.8411C114.518 17.1639 115.154 17.6995 116.219 17.6995C116.868 17.6771 117.504 17.5027 118.075 17.1903L119.014 20.4008C117.958 21.0157 116.76 21.3408 115.539 21.3432C112.364 21.3432 110.462 19.6106 110.462 16.2479V11.4072H108.151V8.18784H110.462V4.76951L114.523 3.89151ZM46.524 7.83372C50.3085 7.8425 53.5095 10.5409 53.5095 14.565C53.5095 18.6155 50.2998 21.3168 46.524 21.3168C42.6636 21.3168 39.4626 18.6155 39.4626 14.565C39.4626 10.5145 42.6723 7.83372 46.524 7.83372ZM125.439 7.83372C129.224 7.8425 132.422 10.5409 132.422 14.565C132.422 18.6155 129.212 21.3168 125.439 21.3168C121.579 21.3168 118.378 18.6155 118.378 14.565C118.378 10.5145 121.588 7.83372 125.439 7.83372ZM27.0964 3.89151V10.5409H34.2599V3.89151H38.4238V20.9598H34.2599V14.2138H27.0964V20.9598H22.9062V3.89151H27.0964ZM141.894 7.98298C142.203 7.97898 142.511 8.01738 142.81 8.09712L142.632 12.1652H141.894C139.052 12.1652 137.502 13.6285 137.502 16.9561V20.9598H133.437V9.05121L137.502 8.17321V10.617C138.415 9.08926 139.813 7.98298 141.894 7.98298ZM103.625 15.6245H100.83C99.8141 15.6245 99.1809 16.1601 99.1809 16.9503C99.1809 17.7405 99.89 18.2731 100.958 18.2731C102.356 18.2848 103.625 17.3424 103.625 15.9172V15.6245ZM46.5211 11.255C45.6627 11.2647 44.8447 11.6216 44.2524 12.2448C43.6602 12.868 43.344 13.7047 43.3755 14.565C43.3755 16.5786 44.8724 17.878 46.524 17.878C48.0997 17.878 49.5936 16.5786 49.5936 14.565C49.5936 12.5778 48.0967 11.255 46.5211 11.255ZM125.439 11.255C124.58 11.2631 123.76 11.6193 123.167 12.2427C122.573 12.8661 122.256 13.7037 122.288 14.565C122.288 16.5786 123.788 17.878 125.439 17.878C127.012 17.878 128.512 16.5786 128.512 14.565C128.512 12.5778 127.012 11.255 125.439 11.255Z" fill="#717171"/>
<path d="M13.8029 18.4258C13.0909 19.1165 12.3819 20.0647 11.6641 20.7495C12.0055 22.5494 11.3373 23.3396 12.1426 23.9864C12.4344 24.2176 14.1852 24.7122 15.1918 24.1386C15.2123 23.205 14.7045 22.927 14.1618 22.5787C13.6103 21.408 13.8087 19.5935 13.7971 18.4258" fill="#2E93EE"/>
<path d="M14.2069 24.405C14.0899 23.8703 13.7127 23.4304 13.2031 23.2344C13.6074 23.4822 13.8463 23.9301 13.8276 24.405C13.956 24.4109 14.0814 24.4109 14.2069 24.405Z" fill="#2E578B"/>
<path d="M15.0604 24.2097C14.9466 23.6753 14.5711 23.2349 14.0625 23.0391C14.5819 23.44 14.7482 23.8702 14.6753 24.3385C14.8074 24.308 14.9364 24.2649 15.0604 24.2097Z" fill="#2E578B"/>
<path d="M12.9715 9.10771C12.6038 9.64329 12.4404 10.7671 15.3642 12.4148C15.3642 12.4148 14.1357 14.5425 13.7477 14.9318C13.3596 15.321 13.1232 16.357 13.5026 16.878C13.6989 17.152 13.9239 17.4041 14.1737 17.6301C14.1737 17.6301 15.1424 17.8116 15.5568 17.5775C16.0693 17.009 16.1849 16.1848 15.8486 15.4966C15.8486 15.4966 18.3142 12.9094 18.1567 12.131C17.9991 11.3525 14.1357 7.41025 12.9715 9.10771Z" fill="#2E93EE"/>
<path d="M15.8309 15.4961C15.8309 15.4961 14.833 16.3214 14.582 16.4619C14.7853 16.4002 14.9811 16.3158 15.1656 16.2102C15.1656 16.2102 15.6091 16.7546 15.2853 17.214C15.2853 17.214 15.8688 16.8716 15.4808 16.0844C15.6152 15.9144 15.7381 15.7354 15.8484 15.5488L15.8309 15.4961Z" fill="#2E578B"/>
<path d="M5.55568 15.0156C5.54859 15.2071 5.49012 15.3931 5.38644 15.5541C5.2172 15.8204 5.12091 15.7912 5.54109 16.0195C5.85398 16.1784 6.19136 16.2833 6.53903 16.3297C7.12261 16.4263 6.99131 16.3619 6.73161 15.8058C6.61744 15.5554 6.48173 15.3155 6.32602 15.0888C5.74243 14.2839 5.57903 14.3396 5.55568 15.0098" fill="#2E93EE"/>
<path d="M3.45873 14.7387C3.24281 15.1396 3.57253 15.204 3.99563 15.3533C4.15421 15.4086 4.31876 15.445 4.48584 15.4616C4.96147 15.5142 4.83891 15.444 4.62882 15.0577C4.50229 14.8194 4.36199 14.5888 4.20864 14.367C3.37119 13.1612 3.77095 14.1534 3.45873 14.7387Z" fill="#2E93EE"/>
<path d="M1.6505 14.5598C1.65759 14.6514 1.65759 14.7433 1.6505 14.8349C1.62132 15.1685 1.58339 15.1129 1.99482 15.151C2.17807 15.1717 2.36305 15.1717 2.5463 15.151C3.07153 15.072 2.87895 14.8876 2.60466 14.5803C2.51096 14.4732 2.4074 14.3752 2.29536 14.2876C1.25658 13.4857 1.64758 14.0506 1.66217 14.5627" fill="#2E93EE"/>
<path d="M8.60751 2.80078C8.60751 2.80078 5.6283 4.3402 5.65456 4.82896C5.68083 5.31771 6.49493 5.2504 6.82174 5.90597C6.82174 5.90597 4.99803 7.17028 5.11475 7.74976C5.23146 8.32924 6.40739 8.11852 6.69918 8.57801C6.69918 8.57801 6.40739 9.73111 6.67292 10.1525C6.93845 10.574 6.8976 10.2111 7.25651 10.7379C7.28277 10.7496 7.07268 6.4474 8.60751 2.80078Z" fill="#2E93EE"/>
<path d="M7.98588 4.198C9.03634 5.19891 10.3611 5.82815 11.5691 6.60371C12.4006 7.10231 13.1336 7.75014 13.7313 8.51482C14.4549 9.48647 14.0231 10.6308 14.204 11.8219C14.2594 12.2258 14.2857 12.6356 14.3032 13.0453C14.3343 13.7902 14.3129 14.5364 14.239 15.2783C14.0552 17.0519 13.9647 18.4977 12.7158 19.8264C11.1577 21.4887 9.44193 21.875 7.49567 20.4293C6.80971 19.9796 6.1849 19.4424 5.63695 18.8313C5.23719 18.363 4.74114 18.0645 4.31221 17.6284C3.76754 17.0493 3.11792 16.5795 2.39805 16.2441C1.64522 15.9515 1.12583 16.3495 0.755252 16.5192C0.565587 16.607 0.302973 16.7768 0.0899643 16.607C0.0079026 16.5454 -0.0221118 16.4358 0.0170161 16.3407C0.128068 16.074 0.296451 15.8352 0.510146 15.6412C1.65689 14.5876 3.50978 14.5642 4.88704 15.3047C5.40935 15.5973 5.97835 15.9046 6.58236 15.9427C7.00839 15.9924 7.43665 15.8703 7.77287 15.6032C8.03369 15.3629 8.20549 15.041 8.26017 14.6901C8.35749 14.2019 8.32222 13.6965 8.15804 13.2267C7.93336 12.5478 7.53069 11.9332 7.26807 11.263C6.39269 8.98309 6.1009 6.38421 7.52193 4.2536L7.72035 3.96094L7.98588 4.198Z" fill="#2E93EE"/>
<path d="M2.64062 16.3419C3.64439 16.8452 4.71236 17.972 5.73655 19.1866C7.07588 20.7816 10.4052 23.1317 13.1802 19.4383C15.7801 15.9614 14.5575 11.0885 14.4057 10.5354L14.3882 10.4768C14.3007 10.3656 11.9838 7.39799 9.85958 6.96484C9.29351 7.45652 9.18262 8.32574 9.93545 9.82419C11.2048 12.344 12.2202 16.017 9.96463 18.2735C9.62878 18.618 9.21701 18.8786 8.76244 19.0344C7.1605 19.5641 6.31138 18.5895 5.30761 17.6472C4.57701 16.9424 3.64406 16.4858 2.64062 16.3419Z" fill="#FFCF00"/>
<path d="M13.4951 18.9959C12.5184 18.8848 11.5913 18.505 10.8164 17.8984C11.37 18.7082 12.2209 19.2649 13.1828 19.4466C13.2937 19.3003 13.4134 19.1481 13.4951 18.9959Z" fill="#ECA93F"/>
<path d="M8.98438 19.2188C9.36544 20.029 9.91692 20.7469 10.6009 21.323C10.8194 21.2715 11.0324 21.199 11.237 21.1064C10.3196 20.7096 9.53691 20.0537 8.98438 19.2188Z" fill="#ECA93F"/>
<path d="M5.57812 19.0025L5.74153 19.1956L5.8174 19.2864C5.76538 19.0486 5.79095 18.8003 5.89034 18.5781C5.77656 18.7121 5.67223 18.8539 5.57812 19.0025Z" fill="#ECA93F"/>
<path d="M6.70312 20.1262C6.81984 20.2198 6.93948 20.3135 7.06495 20.4188C6.98033 20.0149 6.9424 19.5935 7.07954 19.3594C6.92618 19.6002 6.79993 19.8574 6.70312 20.1262Z" fill="#ECA93F"/>
<path d="M4.5 17.8317L4.7597 18.0981C4.75541 17.91 4.77502 17.7222 4.81805 17.5391C4.70475 17.6283 4.59842 17.7262 4.5 17.8317Z" fill="#FF9144"/>
<path d="M11.5312 15.9694C12.5465 15.6622 13.6295 15.6622 14.6447 15.9694C14.6709 15.8231 14.6943 15.6767 14.7147 15.5363C12.6751 15.0504 11.5312 15.9694 11.5312 15.9694Z" fill="#ECA93F"/>
<path d="M14.7796 12.767C14.765 12.5914 14.7475 12.4246 14.73 12.2636C12.5678 12.211 11.4531 13.2645 11.4531 13.2645C12.4785 12.7402 13.6463 12.5655 14.7796 12.767Z" fill="#ECA93F"/>
<path d="M13.9285 9.93034C13.8439 9.83376 13.7505 9.7284 13.6367 9.61719C11.3403 9.61719 10.7188 10.6883 10.7188 10.6883C11.6748 10.0845 12.8043 9.81779 13.9285 9.93034Z" fill="#ECA93F"/>
<path d="M14.7516 12.4356C14.695 11.9153 14.6103 11.3985 14.4977 10.8874L14.3314 10.785C13.599 10.305 10.3717 8.35877 9.42634 7.77344C9.40997 7.91735 9.40997 8.06267 9.42634 8.20658C10.4184 9.59967 12.6448 11.9586 14.7516 12.4356Z" fill="#ECA93F"/>
<path d="M7.43198 18.0662C7.7285 17.6289 8.2372 17.3861 8.76255 17.4311C10.239 17.6243 9.77216 19.3773 9.41909 20.4075C9.17382 21.1482 9.03241 21.9194 8.99891 22.6991C8.99891 23.7176 9.38699 24.0249 8.91429 24.4229C8.16182 24.9516 7.25143 25.2057 6.33484 25.1429C5.5149 24.9555 5.49447 23.2639 6.8017 22.8337C7.16353 22.0435 7.14894 21.2358 7.11976 20.3929C7.09933 19.8076 7.04973 18.6369 7.43198 18.0516" fill="#2E93EE"/>
<path d="M7.11328 25.1362C7.23 25.1186 7.34672 25.0982 7.46051 25.0718C7.35791 24.5745 7.51141 24.0588 7.86902 23.6992C7.33213 24.0065 7.15705 24.5304 7.11328 25.1362Z" fill="#2E578B"/>
<path d="M6.3238 25.1449C6.20187 24.6017 6.34853 24.033 6.71772 23.6172C6.2638 23.8988 5.98438 24.3931 5.97656 24.9283C6.06637 25.0358 6.18802 25.1116 6.3238 25.1449Z" fill="#2E578B"/>
<path d="M7.08174 15.9252C7.08174 15.9252 6.9125 16.9056 7.57779 17.2334C8.13804 17.5261 8.82667 17.5261 9.17098 17.1076C9.64661 16.5222 10.3382 15.3516 8.44442 14.2014C7.27725 13.4902 7.2043 15.9047 7.2043 15.9047L7.08174 15.9252Z" fill="#2E578B"/>
<path d="M7.24219 11.2238C7.49021 11.7652 7.71489 12.1838 7.72656 12.2218C7.73824 12.2598 9.26723 10.3048 8.98127 9.98876C8.69532 9.67268 7.48438 10.7994 7.24219 11.2238Z" fill="#2E578B"/>
<path d="M8.74336 8.42241C10.3978 10.0233 6.96342 12.1422 6.96342 12.1422C7.33692 12.3793 7.80962 13.1899 8.16269 13.7811C8.51576 14.3723 8.65582 14.2757 9.08767 14.7674C9.51953 15.2591 8.28816 15.9937 8.28816 15.9937C8.28816 15.9937 4.15637 13.7548 4.16799 12.3207C4.16799 12.1422 5.12804 10.5472 6.09679 9.55795C6.58409 9.06042 7.9526 7.65855 8.74336 8.42241Z" fill="#2E93EE"/>
<path d="M7.13934 15.1966C7.13934 15.1966 6.84754 16.7214 7.74043 17.1662C7.74043 17.1662 8.47867 17.213 8.85216 16.9438C8.85216 16.9438 9.78298 15.5097 9.08851 14.7664C8.39405 14.023 7.13934 15.1966 7.13934 15.1966Z" fill="#2E93EE"/>
<path d="M7.12105 15.3047C7.12105 15.3047 8.31448 15.9456 8.52165 16.0042C8.3139 16.0328 8.10231 16.0014 7.91181 15.9134C7.91181 15.9134 7.62001 16.4988 7.96141 16.8617C7.96141 16.8617 7.41284 16.7651 7.60834 15.8461L7.10938 15.331L7.12105 15.3047Z" fill="#2E578B"/>
<path d="M8.19531 3.73845C8.19531 3.73845 8.81683 0.0625647 10.3371 0.00110483C11.3379 -0.0427951 11.8427 1.23616 11.8427 1.23616C12.4558 1.23887 13.0552 1.41762 13.5701 1.75125C13.5701 1.75125 13.8619 1.24494 14.3259 1.40883C14.7898 1.57272 15.318 2.63802 15.1283 4.38817C15.5874 4.45889 15.9892 4.73583 16.2196 5.14032C16.0967 5.3173 15.9089 5.4383 15.6973 5.47688C15.3822 5.50322 14.0224 5.00569 13.6548 5.33055C13.2803 5.59342 13.0905 6.04931 13.1675 6.50122C13.1675 6.50122 11.6647 6.34903 10.9965 5.49152C10.3283 4.63401 9.75349 2.97166 8.19531 3.73845Z" fill="#2E93EE"/>
<path d="M13.3672 4.00618C13.3672 4.00618 13.7407 2.77113 14.4585 2.42578C14.484 3.0236 14.5493 3.61904 14.654 4.20812C14.2293 4.1157 13.7997 4.04828 13.3672 4.00618Z" fill="#F1F1F2"/>
<path d="M10.115 1.47266C10.115 1.47266 11.04 1.92044 11.6615 3.84325C10.9692 3.72506 10.2686 3.66242 9.56641 3.65594C9.91061 2.97881 10.0981 2.23253 10.115 1.47266Z" fill="#F1F1F2"/>
<path d="M10.4944 2.32812C10.7191 2.32812 10.903 2.57982 10.903 2.89297C10.903 3.20612 10.7191 3.45489 10.4944 3.45489C10.2698 3.45489 10.0859 3.2032 10.0859 2.89297C10.0859 2.58274 10.2668 2.32812 10.4944 2.32812Z" fill="#2E578B"/>
<path d="M13.9519 3.82724C14.1299 3.82724 14.2729 3.63701 14.2729 3.39995C14.2729 3.16289 14.1299 2.97266 13.9519 2.97266C13.9178 2.97456 13.8842 2.98249 13.8527 2.99607C13.7547 3.10991 13.6803 3.24225 13.6339 3.38532C13.6325 3.39502 13.6325 3.40488 13.6339 3.41458C13.631 3.63701 13.774 3.82724 13.9519 3.82724Z" fill="#2E578B"/>
<path d="M10.2046 4.65281C10.2046 4.65281 9.09581 3.77481 8.53265 4.40112C7.86153 5.1562 8.53265 6.32979 8.53265 6.32979C8.53265 6.32979 8.61435 5.8264 8.8653 5.65958C8.8653 5.65958 8.96451 7.24876 11.544 9.01646C14.1234 10.7842 15.2468 10.591 15.81 10.4417C16.3731 10.2925 16.945 9.88861 16.7291 9.43498C16.5132 8.98134 15.0571 7.74922 15.0571 7.74922C15.0571 7.74922 14.5057 7.81653 13.3823 7.42143C12.2588 7.02633 10.7561 6.25077 9.78736 4.90451C9.93069 4.82789 10.07 4.74388 10.2046 4.65281Z" fill="#FF9144"/>
<path d="M9.55469 6.71884C10.9992 6.37128 12.5209 6.78232 13.596 7.81048L13.3042 7.65244C13.3042 7.65244 14.629 7.58806 14.8128 7.77244C15.5989 8.30524 16.1029 9.1657 16.1842 10.1138C16.2222 10.5674 15.1513 10.8249 12.7644 9.63379C11.2821 8.88457 9.55469 6.71884 9.55469 6.71884Z" fill="#FF6B17"/>
<path d="M14.9462 7.74094C14.9462 7.74094 14.6252 9.06087 14.1291 8.91161C13.9628 8.86185 14.0299 8.48724 13.9628 8.22969C13.8957 7.97215 13.7031 7.48047 13.7031 7.48047L14.9462 7.74094Z" fill="#EBEEF2"/>
<path d="M17.4041 7.24018C17.4041 7.24018 17.302 8.59522 16.7884 8.53084C16.6162 8.51035 16.6221 8.12988 16.5141 7.88697C16.4062 7.64406 16.1406 7.1875 16.1406 7.1875L17.4041 7.24018Z" fill="#EBEEF2"/>
<path d="M17.9448 6.05464C17.8806 5.10054 16.6259 4.68203 15.7039 5.35224C14.951 5.18542 14.1165 4.68203 13.3695 5.43711C13.0641 5.69317 12.9694 6.12366 13.139 6.48485C13.139 6.48485 11.575 6.23316 11.0352 5.43418C10.4954 4.63521 9.78921 3.56405 9.03347 3.48795C8.6308 3.44991 7.95092 3.39138 7.557 4.16109C7.16308 4.9308 6.97341 6.32096 9.89134 8.52181C12.8093 10.7227 14.0873 11.3168 14.7234 11.3139C15.5317 11.3139 15.5813 11.0212 16.5121 10.8807C16.9877 10.8134 17.3496 10.0027 16.8273 9.3003C16.3909 8.74967 15.8615 8.28014 15.2633 7.91306C15.2341 7.94233 16.3954 8.87594 16.6113 9.32957C16.8273 9.7832 16.1882 10.07 15.628 10.2076C15.0677 10.3451 14.347 10.5002 11.7705 8.74424C9.19396 6.98824 8.91675 5.21176 8.91675 5.21176C8.58994 5.162 8.55201 5.87318 8.55201 5.87318C8.55201 5.87318 8.1756 5.05079 8.6804 4.55911C9.29025 3.97378 9.92052 4.69667 9.92052 4.69667H9.88259C9.50034 4.51229 9.44782 4.843 9.44782 4.843C10.4639 6.15491 11.8064 7.17539 13.3403 7.80185C14.4637 8.19695 15.0532 7.7521 15.0532 7.7521C15.5866 7.7483 16.1191 7.70526 16.6463 7.62333C17.049 7.51504 18.0353 7.34529 17.9448 6.05464Z" fill="#FFCF00"/>
<path d="M14.2116 5.94964C14.4742 5.8677 14.6755 6.22182 14.3312 6.37401C14.2816 6.50571 14.3604 6.64911 14.5705 6.69887C14.3642 6.79827 14.1166 6.71114 14.0175 6.50424C13.9184 6.29735 14.0053 6.04905 14.2116 5.94964Z" fill="#ECA93F"/>
<path d="M17.1687 5.84276C16.9528 5.77252 16.7865 6.06519 17.0724 6.19396C17.1104 6.30225 17.0462 6.41932 16.8711 6.46029C17.4255 6.57443 17.4547 5.9452 17.1629 5.84276" fill="#ECA93F"/>
</svg>
