<svg width="217" height="70" viewBox="0 0 217 70" fill="none" xmlns="http://www.w3.org/2000/svg">
<path d="M13 2H64.3V15.3L42.45 68.5H23.45L46.25 15.3H13V2Z" fill="white"/>
<path d="M69.0092 2H120.309V15.3L98.4592 68.5H79.4592L102.259 15.3H69.0092V2Z" fill="white"/>
<path d="M136.45 31.5L150.85 6.3H156.25L142.21 31.5H136.45ZM144.01 14.76C144.01 16.2 143.614 17.316 142.822 18.108C142.054 18.876 140.95 19.26 139.51 19.26H136.27C134.83 19.26 133.714 18.876 132.922 18.108C132.154 17.316 131.77 16.2 131.77 14.76V10.44C131.77 9 132.154 7.896 132.922 7.128C133.714 6.336 134.83 5.94 136.27 5.94H139.51C140.95 5.94 142.054 6.336 142.822 7.128C143.614 7.896 144.01 9 144.01 10.44V14.76ZM139.69 10.44C139.69 9.6 139.27 9.18 138.43 9.18H137.35C136.51 9.18 136.09 9.6 136.09 10.44V14.76C136.09 15.6 136.51 16.02 137.35 16.02H138.43C139.27 16.02 139.69 15.6 139.69 14.76V10.44ZM161.29 27.36C161.29 28.8 160.894 29.916 160.102 30.708C159.334 31.476 158.23 31.86 156.79 31.86H153.55C152.11 31.86 150.994 31.476 150.202 30.708C149.434 29.916 149.05 28.8 149.05 27.36V23.04C149.05 21.6 149.434 20.496 150.202 19.728C150.994 18.936 152.11 18.54 153.55 18.54H156.79C158.23 18.54 159.334 18.936 160.102 19.728C160.894 20.496 161.29 21.6 161.29 23.04V27.36ZM156.97 23.04C156.97 22.2 156.55 21.78 155.71 21.78H154.63C153.79 21.78 153.37 22.2 153.37 23.04V27.36C153.37 28.2 153.79 28.62 154.63 28.62H155.71C156.55 28.62 156.97 28.2 156.97 27.36V23.04Z" fill="white"/>
<path d="M149.41 47.14C149.41 45.7 148.69 44.98 147.25 44.98H141.13C139.69 44.98 138.97 45.7 138.97 47.14V58.66C138.97 60.1 139.69 60.82 141.13 60.82H147.25C148.69 60.82 149.41 60.1 149.41 58.66V47.14ZM155.89 58.66C155.89 61.18 155.314 63.016 154.162 64.168C153.034 65.296 151.21 65.86 148.69 65.86H139.69C137.17 65.86 135.334 65.296 134.182 64.168C133.054 63.016 132.49 61.18 132.49 58.66V47.14C132.49 44.62 133.054 42.796 134.182 41.668C135.334 40.516 137.17 39.94 139.69 39.94H148.69C151.21 39.94 153.034 40.516 154.162 41.668C155.314 42.796 155.89 44.62 155.89 47.14V58.66Z" fill="white"/>
<path d="M167.067 65.5H160.587V40.3H180.567V45.34H167.067V51.28H177.687V56.32H167.067V65.5Z" fill="white"/>
<path d="M190.647 65.5H184.167V40.3H204.147V45.34H190.647V51.28H201.267V56.32H190.647V65.5Z" fill="white"/>
</svg>
