<svg width="217" height="70" viewBox="0 0 217 70" fill="none" xmlns="http://www.w3.org/2000/svg">
<path d="M25.65 41.4C21.85 41.4 19.95 43.3 19.95 47.1V50.9C19.95 52.3567 20.3617 53.5283 21.185 54.415C22.0717 55.2383 23.2433 55.65 24.7 55.65H38.95C40.4067 55.65 41.5467 55.2383 42.37 54.415C43.2567 53.5283 43.7 52.3567 43.7 50.9V47.1C43.7 43.3 41.8 41.4 38 41.4H25.65ZM27.55 13.85C23.75 13.85 21.85 15.75 21.85 19.55V22.4C21.85 26.2 23.75 28.1 27.55 28.1H36.1C39.9 28.1 41.8 26.2 41.8 22.4V19.55C41.8 15.75 39.9 13.85 36.1 13.85H27.55ZM60.8 50.9C60.8 57.1067 59.3433 61.6667 56.43 64.58C53.5167 67.4933 48.9567 68.95 42.75 68.95H20.9C14.6933 68.95 10.1333 67.4933 7.22 64.58C4.30667 61.6667 2.85 57.1067 2.85 50.9V49.95C2.85 45.1367 4.05333 41.1467 6.46 37.98C8.36 35.4467 10.9567 33.7367 14.25 32.85C11.4 31.9 9.08833 30.2533 7.315 27.91C5.605 25.5033 4.75 22.4 4.75 18.6V17.65C4.75 11.8867 6.20667 7.61166 9.12 4.825C12.0333 1.975 16.5933 0.549996 22.8 0.549996H40.85C47.0567 0.549996 51.6167 1.975 54.53 4.825C57.4433 7.61166 58.9 11.8867 58.9 17.65V18.6C58.9 22.4 58.0133 25.5033 56.24 27.91C54.53 30.2533 52.25 31.9 49.4 32.85C54.53 34.2433 58.0133 37.6633 59.85 43.11C60.4833 45.0733 60.8 47.3533 60.8 49.95V50.9ZM109.243 19.55C109.243 15.75 107.343 13.85 103.543 13.85H93.0926C89.2926 13.85 87.3926 15.75 87.3926 19.55V49.95C87.3926 53.75 89.2926 55.65 93.0926 55.65H103.543C107.343 55.65 109.243 53.75 109.243 49.95V19.55ZM126.343 49.95C126.343 56.6 124.823 61.445 121.783 64.485C118.806 67.4617 113.993 68.95 107.343 68.95H89.2926C82.6426 68.95 77.7976 67.4617 74.7576 64.485C71.7809 61.445 70.2926 56.6 70.2926 49.95V19.55C70.2926 12.9 71.7809 8.08666 74.7576 5.10999C77.7976 2.07 82.6426 0.549996 89.2926 0.549996H107.343C113.993 0.549996 118.806 2.07 121.783 5.10999C124.823 8.08666 126.343 12.9 126.343 19.55V49.95Z" fill="white"/>
<path d="M142.4 31L156.8 5.8H162.2L148.16 31H142.4ZM149.96 14.26C149.96 15.7 149.564 16.816 148.772 17.608C148.004 18.376 146.9 18.76 145.46 18.76H142.22C140.78 18.76 139.664 18.376 138.872 17.608C138.104 16.816 137.72 15.7 137.72 14.26V9.94C137.72 8.5 138.104 7.396 138.872 6.628C139.664 5.836 140.78 5.44 142.22 5.44H145.46C146.9 5.44 148.004 5.836 148.772 6.628C149.564 7.396 149.96 8.5 149.96 9.94V14.26ZM145.64 9.94C145.64 9.1 145.22 8.68 144.38 8.68H143.3C142.46 8.68 142.04 9.1 142.04 9.94V14.26C142.04 15.1 142.46 15.52 143.3 15.52H144.38C145.22 15.52 145.64 15.1 145.64 14.26V9.94ZM167.24 26.86C167.24 28.3 166.844 29.416 166.052 30.208C165.284 30.976 164.18 31.36 162.74 31.36H159.5C158.06 31.36 156.944 30.976 156.152 30.208C155.384 29.416 155 28.3 155 26.86V22.54C155 21.1 155.384 19.996 156.152 19.228C156.944 18.436 158.06 18.04 159.5 18.04H162.74C164.18 18.04 165.284 18.436 166.052 19.228C166.844 19.996 167.24 21.1 167.24 22.54V26.86ZM162.92 22.54C162.92 21.7 162.5 21.28 161.66 21.28H160.58C159.74 21.28 159.32 21.7 159.32 22.54V26.86C159.32 27.7 159.74 28.12 160.58 28.12H161.66C162.5 28.12 162.92 27.7 162.92 26.86V22.54ZM155.36 46.64C155.36 45.2 154.64 44.48 153.2 44.48H147.08C145.64 44.48 144.92 45.2 144.92 46.64V58.16C144.92 59.6 145.64 60.32 147.08 60.32H153.2C154.64 60.32 155.36 59.6 155.36 58.16V46.64ZM161.84 58.16C161.84 60.68 161.264 62.516 160.112 63.668C158.984 64.796 157.16 65.36 154.64 65.36H145.64C143.12 65.36 141.284 64.796 140.132 63.668C139.004 62.516 138.44 60.68 138.44 58.16V46.64C138.44 44.12 139.004 42.296 140.132 41.168C141.284 40.016 143.12 39.44 145.64 39.44H154.64C157.16 39.44 158.984 40.016 160.112 41.168C161.264 42.296 161.84 44.12 161.84 46.64V58.16ZM173.017 65H166.537V39.8H186.517V44.84H173.017V50.78H183.637V55.82H173.017V65ZM196.597 65H190.117V39.8H210.097V44.84H196.597V50.78H207.217V55.82H196.597V65Z" fill="white"/>
</svg>
