<svg width="190" height="61" viewBox="0 0 190 61" fill="none" xmlns="http://www.w3.org/2000/svg">
<path d="M169.597 44.161C168.318 44.161 167.169 43.9129 166.15 43.4168C165.158 42.8945 164.309 42.1895 163.604 41.3016C162.925 40.4138 162.403 39.3954 162.037 38.2464C161.698 37.0714 161.528 35.818 161.528 34.4862C161.554 33.1544 161.75 31.9141 162.116 30.7651C162.481 29.59 163.004 28.5716 163.683 27.7099C164.388 26.8221 165.236 26.1301 166.229 25.6339C167.221 25.1378 168.344 24.8897 169.597 24.8897C170.798 24.8897 171.921 25.1378 172.966 25.6339C174.036 26.1301 174.976 26.8221 175.786 27.7099C176.621 28.5716 177.274 29.59 177.744 30.7651C178.214 31.9141 178.449 33.1414 178.449 34.447C178.449 35.8049 178.214 37.0844 177.744 38.2856C177.274 39.4607 176.634 40.4921 175.825 41.38C175.015 42.2417 174.075 42.9206 173.005 43.4168C171.934 43.9129 170.798 44.161 169.597 44.161ZM168.97 39.5782C169.884 39.5782 170.707 39.3693 171.438 38.9515C172.169 38.5076 172.744 37.907 173.161 37.1497C173.605 36.3924 173.827 35.5307 173.827 34.5645C173.827 33.5722 173.605 32.6975 173.161 31.9402C172.744 31.1568 172.169 30.5562 171.438 30.1384C170.707 29.6945 169.884 29.4725 168.97 29.4725C168.083 29.4725 167.273 29.6945 166.542 30.1384C165.811 30.5823 165.223 31.1829 164.779 31.9402C164.361 32.6975 164.153 33.5722 164.153 34.5645C164.153 35.5307 164.361 36.3924 164.779 37.1497C165.223 37.907 165.811 38.5076 166.542 38.9515C167.273 39.3693 168.083 39.5782 168.97 39.5782ZM161.724 44.2002C161.019 44.2002 160.497 44.0827 160.157 43.8476C159.818 43.6387 159.609 43.3646 159.531 43.0251C159.452 42.6595 159.413 42.2548 159.413 41.8108V18.466C159.413 18.0221 159.452 17.6304 159.531 17.2909C159.609 16.9253 159.818 16.6381 160.157 16.4292C160.497 16.2203 161.019 16.1158 161.724 16.1158C162.455 16.1158 162.977 16.2203 163.291 16.4292C163.604 16.6381 163.8 16.9253 163.878 17.2909C163.957 17.6565 163.996 18.0482 163.996 18.466V42.5942C163.891 43.1687 163.669 43.5735 163.33 43.8085C163.017 44.0696 162.481 44.2002 161.724 44.2002Z" fill="white" stroke="white" stroke-width="0.4"/>
<path d="M147.739 44.4358C146.041 44.4358 144.553 44.1616 143.273 43.6132C142.02 43.0649 140.962 42.3206 140.101 41.3806C139.265 40.4144 138.625 39.3438 138.181 38.1687C137.764 36.9675 137.555 35.7271 137.555 34.4476C137.555 32.5675 137.986 30.8963 138.847 29.434C139.709 27.9716 140.897 26.8227 142.412 25.9871C143.952 25.1514 145.715 24.7336 147.7 24.7336C149.11 24.7336 150.35 24.9556 151.421 25.3995C152.491 25.8434 153.379 26.431 154.084 27.1621C154.815 27.8672 155.364 28.6506 155.729 29.5123C156.121 30.374 156.317 31.2096 156.317 32.0191C156.317 33.4031 155.977 34.4084 155.298 35.0352C154.646 35.6619 153.823 35.9752 152.831 35.9752H142.49C142.516 36.8631 142.79 37.6334 143.313 38.2862C143.861 38.939 144.54 39.4482 145.349 39.8138C146.185 40.1533 147.034 40.323 147.895 40.323C148.548 40.323 149.123 40.2838 149.619 40.2055C150.141 40.1272 150.585 40.0358 150.951 39.9313C151.316 39.8007 151.629 39.6702 151.891 39.5396C152.178 39.4091 152.439 39.2915 152.674 39.1871C152.909 39.0826 153.131 39.0174 153.34 38.9912C153.627 38.9651 153.914 39.0304 154.202 39.1871C154.489 39.3438 154.724 39.618 154.907 40.0097C155.063 40.2708 155.168 40.5189 155.22 40.7539C155.298 40.9628 155.338 41.1717 155.338 41.3806C155.338 41.9028 155.024 42.399 154.397 42.869C153.771 43.3129 152.883 43.6785 151.734 43.9657C150.611 44.2791 149.279 44.4358 147.739 44.4358ZM142.49 33.1942H150.52C150.964 33.1942 151.303 33.1289 151.538 32.9984C151.773 32.8417 151.891 32.5283 151.891 32.0583C151.891 31.4577 151.708 30.9224 151.342 30.4524C150.977 29.9562 150.481 29.5776 149.854 29.3164C149.227 29.0292 148.496 28.8856 147.66 28.8856C146.694 28.8856 145.819 29.0814 145.036 29.4731C144.253 29.8387 143.626 30.3479 143.156 31.0007C142.712 31.6535 142.49 32.3847 142.49 33.1942Z" fill="white" stroke="white" stroke-width="0.4"/>
<path d="M112.695 44.0841C112.173 44.0841 111.755 43.9927 111.441 43.8099C111.128 43.601 110.893 43.366 110.736 43.1049C110.606 42.8437 110.514 42.6218 110.462 42.439L102.785 19.9558C102.524 19.1202 102.485 18.4935 102.668 18.0757C102.85 17.6318 103.386 17.2662 104.274 16.979C104.874 16.7701 105.357 16.6787 105.723 16.7048C106.088 16.7309 106.389 16.8876 106.624 17.1748C106.885 17.436 107.107 17.8538 107.29 18.4282L112.93 35.506L117.983 18.5849C118.061 18.3238 118.166 18.0627 118.296 17.8015C118.453 17.5143 118.688 17.2793 119.001 17.0965C119.314 16.9137 119.745 16.8223 120.294 16.8223C120.92 16.8223 121.39 16.9268 121.704 17.1357C122.017 17.3446 122.239 17.5796 122.37 17.8407C122.526 18.0757 122.631 18.2977 122.683 18.5066L127.736 35.6235L133.415 18.4674C133.598 17.8668 133.807 17.4229 134.042 17.1357C134.303 16.8484 134.63 16.6917 135.021 16.6656C135.413 16.6134 135.896 16.6917 136.471 16.9006C137.071 17.1095 137.502 17.3446 137.763 17.6057C138.024 17.8407 138.155 18.1541 138.155 18.5458C138.155 18.9113 138.063 19.3814 137.881 19.9558L130.243 42.4782C130.19 42.6348 130.086 42.8437 129.929 43.1049C129.799 43.366 129.577 43.601 129.263 43.8099C128.95 43.9927 128.519 44.0841 127.971 44.0841C127.423 44.0841 126.992 43.9666 126.678 43.7316C126.365 43.4966 126.13 43.2354 125.973 42.9482C125.817 42.661 125.712 42.452 125.66 42.3215L120.333 25.087L115.006 42.2823C114.954 42.4651 114.849 42.7001 114.693 42.9874C114.562 43.2746 114.34 43.5357 114.027 43.7707C113.713 43.9796 113.269 44.0841 112.695 44.0841Z" fill="white" stroke="white" stroke-width="0.4"/>
<path d="M92.3284 44.4361C91.6494 44.4361 90.9313 44.3577 90.174 44.201C89.4168 44.0705 88.6856 43.8746 87.9806 43.6135C87.2755 43.3263 86.6619 42.9999 86.1396 42.6343C85.6435 42.2426 85.3301 41.8117 85.1996 41.3417C85.0951 41.0806 85.0559 40.8325 85.0821 40.5975C85.1082 40.3363 85.1865 40.0752 85.3171 39.8141C85.4476 39.5269 85.6435 39.2396 85.9046 38.9524C86.1396 38.6651 86.3746 38.5085 86.6097 38.4823C86.8708 38.4301 87.1972 38.5085 87.5889 38.7174C87.9283 38.8479 88.2939 39.0177 88.6856 39.2266C89.1034 39.4355 89.5212 39.6444 89.939 39.8533C90.3829 40.0622 90.8269 40.2319 91.2708 40.3625C91.7408 40.493 92.1978 40.5583 92.6417 40.5583C93.6079 40.5583 94.3782 40.4016 94.9527 40.0883C95.5272 39.7488 95.8144 39.2788 95.8144 38.6782C95.8144 38.3387 95.723 38.0384 95.5402 37.7773C95.3574 37.5162 95.1094 37.3073 94.796 37.1506C94.5088 36.9678 94.1562 36.8111 93.7384 36.6806C93.3467 36.5239 92.9159 36.3933 92.4459 36.2889C92.0019 36.1583 91.5319 36.0147 91.0358 35.858C90.3829 35.6752 89.7301 35.4533 89.0773 35.1921C88.4245 34.931 87.837 34.5915 87.3147 34.1737C86.8186 33.7559 86.4138 33.2337 86.1005 32.607C85.7871 31.9802 85.6304 31.1969 85.6304 30.2568C85.6304 29.0817 85.9046 28.0894 86.453 27.2799C87.0275 26.4443 87.85 25.8046 88.9206 25.3606C89.9913 24.9167 91.2838 24.6948 92.7984 24.6948C93.3206 24.6948 93.8168 24.7339 94.2868 24.8123C94.783 24.8906 95.253 25.0081 95.6969 25.1648C96.1669 25.2954 96.6109 25.4651 97.0287 25.674C97.4726 25.8829 97.8904 26.1179 98.2821 26.379C98.9349 26.7446 99.2744 27.1755 99.3005 27.6716C99.3266 28.1417 99.1438 28.6509 98.7521 29.1992C98.4649 29.5648 98.1776 29.8259 97.8904 29.9826C97.6031 30.1132 97.3028 30.1132 96.9895 29.9826C96.5717 29.7737 96.1147 29.5517 95.6186 29.3167C95.1485 29.0556 94.6524 28.8336 94.1301 28.6509C93.634 28.4681 93.1117 28.3767 92.5634 28.3767C92.0411 28.3767 91.5711 28.455 91.1533 28.6117C90.7355 28.7684 90.4221 28.9903 90.2132 29.2776C90.0043 29.5648 89.8999 29.9043 89.8999 30.296C89.8999 30.6615 90.0043 30.9618 90.2132 31.1969C90.4221 31.4319 90.6963 31.6277 91.0358 31.7844C91.3752 31.9411 91.78 32.0847 92.25 32.2153C92.72 32.3197 93.2162 32.4242 93.7384 32.5286C94.4696 32.6853 95.2138 32.8811 95.9711 33.1162C96.7284 33.3512 97.4203 33.6776 98.0471 34.0954C98.6999 34.5132 99.2221 35.0746 99.6138 35.7797C100.006 36.4586 100.201 37.3464 100.201 38.4432C100.201 40.3494 99.4963 41.8248 98.0862 42.8693C96.7022 43.9138 94.783 44.4361 92.3284 44.4361Z" fill="white" stroke="white" stroke-width="0.4"/>
<path d="M73.8373 44.4355C72.14 44.4355 70.6515 44.1613 69.372 43.6129C68.1186 43.0645 67.061 42.3203 66.1993 41.3803C65.3637 40.4141 64.7239 39.3435 64.28 38.1684C63.8622 36.9672 63.6533 35.7268 63.6533 34.4473C63.6533 32.5672 64.0842 30.896 64.9459 29.4336C65.8076 27.9713 66.9958 26.8224 68.5103 25.9868C70.051 25.1511 71.8136 24.7333 73.7981 24.7333C75.2082 24.7333 76.4486 24.9553 77.5192 25.3992C78.5898 25.8431 79.4777 26.4307 80.1827 27.1618C80.9139 27.8669 81.4622 28.6503 81.8278 29.512C82.2195 30.3737 82.4154 31.2093 82.4154 32.0188C82.4154 33.4028 82.0759 34.4081 81.397 35.0348C80.7441 35.6616 79.9216 35.9749 78.9293 35.9749H68.5886C68.6147 36.8627 68.8889 37.6331 69.4112 38.2859C69.9596 38.9387 70.6385 39.4479 71.448 39.8135C72.2836 40.153 73.1323 40.3227 73.994 40.3227C74.6468 40.3227 75.2213 40.2835 75.7174 40.2052C76.2397 40.1269 76.6836 40.0355 77.0492 39.931C77.4148 39.8004 77.7281 39.6699 77.9892 39.5393C78.2765 39.4087 78.5376 39.2912 78.7726 39.1868C79.0076 39.0823 79.2296 39.0171 79.4385 38.9909C79.7257 38.9648 80.013 39.0301 80.3002 39.1868C80.5875 39.3435 80.8225 39.6177 81.0053 40.0093C81.1619 40.2705 81.2664 40.5185 81.3186 40.7536C81.397 40.9625 81.4361 41.1714 81.4361 41.3803C81.4361 41.9025 81.1228 42.3987 80.4961 42.8687C79.8694 43.3126 78.9815 43.6782 77.8326 43.9654C76.7097 44.2788 75.378 44.4355 73.8373 44.4355ZM68.5886 33.1939H76.6183C77.0622 33.1939 77.4017 33.1286 77.6367 32.998C77.8717 32.8414 77.9892 32.528 77.9892 32.058C77.9892 31.4574 77.8064 30.9221 77.4409 30.452C77.0753 29.9559 76.5791 29.5773 75.9524 29.3161C75.3257 29.0289 74.5946 28.8853 73.759 28.8853C72.7928 28.8853 71.918 29.0811 71.1346 29.4728C70.3512 29.8384 69.7245 30.3476 69.2545 31.0004C68.8106 31.6532 68.5886 32.3844 68.5886 33.1939Z" fill="white" stroke="white" stroke-width="0.4"/>
<path d="M59.854 44.2019C58.8878 44.2019 58.0261 44.1366 57.2688 44.006C56.5377 43.8755 55.8979 43.6535 55.3496 43.3401C54.8273 43.0268 54.3964 42.609 54.057 42.0867C53.7175 41.5384 53.4564 40.8725 53.2736 40.0891C53.1169 39.3057 53.0386 38.3656 53.0386 37.2689V18.3893C53.0386 17.9454 53.0777 17.5537 53.1561 17.2142C53.2605 16.8487 53.4694 16.5614 53.7828 16.3525C54.1223 16.1175 54.6576 16 55.3887 16C56.1199 16 56.6421 16.1045 56.9555 16.3134C57.295 16.5223 57.5039 16.8095 57.5822 17.1751C57.6867 17.5145 57.7389 17.9062 57.7389 18.3502V37.0731C57.7389 37.5692 57.765 37.987 57.8172 38.3265C57.8955 38.6398 58.0131 38.901 58.1697 39.1099C58.3525 39.2926 58.5745 39.4232 58.8356 39.5015C59.1229 39.5799 59.4623 39.6191 59.854 39.6191C60.1935 39.6191 60.4938 39.6582 60.7549 39.7366C61.0421 39.8149 61.2641 40.0108 61.4208 40.3241C61.6036 40.6375 61.695 41.1467 61.695 41.8517C61.695 42.5829 61.6036 43.1182 61.4208 43.4576C61.2641 43.7971 61.0421 44.006 60.7549 44.0844C60.4677 44.1627 60.1674 44.2019 59.854 44.2019Z" fill="white" stroke="white" stroke-width="0.4"/>
<path d="M46.4808 44.2014C45.7758 44.2014 45.2535 44.0839 44.9141 43.8489C44.5746 43.64 44.3657 43.3658 44.2874 43.0263C44.209 42.6607 44.1699 42.256 44.1699 41.812V27.2411C44.1699 26.8233 44.209 26.4446 44.2874 26.1052C44.3918 25.7396 44.6007 25.4524 44.9141 25.2435C45.2535 25.0346 45.7889 24.9301 46.52 24.9301C47.2512 24.9301 47.7734 25.0346 48.0868 25.2435C48.4262 25.4524 48.6351 25.7396 48.7135 26.1052C48.7918 26.4708 48.831 26.8755 48.831 27.3194V41.8512C48.831 42.2951 48.7918 42.6999 48.7135 43.0655C48.6351 43.4049 48.4262 43.6791 48.0868 43.888C47.7734 44.0969 47.2381 44.2014 46.4808 44.2014ZM46.4808 21.1307C45.7236 21.1307 45.1621 21.0262 44.7966 20.8173C44.4571 20.5823 44.2351 20.269 44.1307 19.8773C44.0524 19.4856 44.0132 19.0547 44.0132 18.5847C44.0132 18.0885 44.0524 17.6577 44.1307 17.2921C44.2351 16.9265 44.4702 16.6393 44.8357 16.4304C45.2013 16.1954 45.7627 16.0779 46.52 16.0779C47.3034 16.0779 47.8648 16.1954 48.2043 16.4304C48.5438 16.6654 48.7657 16.9787 48.8702 17.3704C48.9746 17.736 49.0268 18.1669 49.0268 18.663C49.0268 19.1069 48.9746 19.5247 48.8702 19.9164C48.7657 20.3081 48.5438 20.6084 48.2043 20.8173C47.8648 21.0262 47.2903 21.1307 46.4808 21.1307Z" fill="white" stroke="white" stroke-width="0.4"/>
<path d="M14.311 44.1618C13.632 44.1618 13.1228 44.0574 12.7834 43.8485C12.4439 43.6396 12.222 43.3523 12.1175 42.9867C12.0392 42.6212 12 42.2164 12 41.7725V19.1718C12 18.754 12.0392 18.3754 12.1175 18.0359C12.222 17.6704 12.4439 17.3831 12.7834 17.1742C13.1228 16.9392 13.6582 16.8217 14.3893 16.8217C14.9377 16.8217 15.3424 16.8609 15.6036 16.9392C15.8908 16.9914 16.1128 17.0828 16.2694 17.2134C16.4261 17.3178 16.5828 17.4614 16.7395 17.6442L26.2967 31.001H25.3959L34.9923 17.6051C35.1751 17.3962 35.3579 17.2395 35.5407 17.135C35.7235 17.0306 35.9585 16.9522 36.2457 16.9C36.533 16.8478 36.9116 16.8217 37.3816 16.8217C38.0867 16.8217 38.6089 16.9392 38.9484 17.1742C39.2879 17.3831 39.4968 17.6704 39.5751 18.0359C39.6796 18.4015 39.7318 18.8063 39.7318 19.2502V41.8508C39.7318 42.2425 39.6796 42.6212 39.5751 42.9867C39.4968 43.3523 39.2879 43.6396 38.9484 43.8485C38.6089 44.0574 38.0736 44.1618 37.3425 44.1618C36.6374 44.1618 36.1152 44.0443 35.7757 43.8093C35.4362 43.6004 35.2143 43.3131 35.1098 42.9476C35.0315 42.582 34.9923 42.1903 34.9923 41.7725V24.9689L27.8635 35.2704C27.7852 35.3749 27.6677 35.5185 27.511 35.7013C27.3543 35.8579 27.1454 36.0016 26.8843 36.1321C26.6232 36.2627 26.2706 36.328 25.8267 36.328C25.4089 36.328 25.0694 36.2627 24.8083 36.1321C24.5472 36.0016 24.3383 35.8579 24.1816 35.7013C24.051 35.5446 23.9205 35.3879 23.7899 35.2312L16.7003 24.9689V41.8508C16.7003 42.2425 16.6481 42.6212 16.5436 42.9867C16.4653 43.3523 16.2564 43.6396 15.9169 43.8485C15.5775 44.0574 15.0421 44.1618 14.311 44.1618Z" fill="white" stroke="white" stroke-width="0.4"/>
</svg>
