<svg width="20" height="20" viewBox="0 0 20 20" fill="none" xmlns="http://www.w3.org/2000/svg">
<g clip-path="url(#clip0_4281_6933)">
<path d="M19.9992 10.4167C19.9992 12.8408 18.6092 14.9425 16.5858 15.9783C16.6333 15.6583 16.6658 15.3333 16.6658 15C16.6658 14.6625 16.6325 14.3342 16.5842 14.0108C17.6467 13.1708 18.3325 11.8733 18.3325 10.4167C18.3325 8.1775 16.7333 6.27833 14.53 5.9L14.0408 5.81583L13.8817 5.34583C13.1367 3.145 11.0742 1.66667 8.74917 1.66667C5.7625 1.66667 3.3325 4.09667 3.3325 7.08333C3.3325 7.59417 3.40333 8.09917 3.54333 8.58417L3.72583 9.2175L3.1525 9.54167C2.23583 10.0592 1.66583 11.0333 1.66583 12.0842C1.66583 13.3533 2.36917 14.425 3.34167 14.825C3.34 14.8842 3.3325 14.9417 3.3325 15.0008C3.3325 15.5567 3.40833 16.0933 3.53583 16.6092C1.5375 16.2725 0 14.3742 0 12.0833C0 10.6483 0.675 9.30417 1.79667 8.44417C1.71 7.9975 1.66583 7.5425 1.66583 7.08333C1.66583 3.17833 4.84333 0 8.74917 0C11.6267 0 14.1975 1.7325 15.2892 4.35917C18.0458 5.05333 19.9992 7.52833 19.9992 10.4175V10.4167ZM14.7483 13.2258L13.5675 13.9058C13.675 14.2542 13.7492 14.6167 13.7492 14.9992C13.7492 15.3817 13.675 15.745 13.5675 16.0925L14.7483 16.7725L13.9158 18.2158L12.7408 17.5383C12.2367 18.0817 11.58 18.4767 10.8333 18.6475V19.9983H9.16667V18.6475C8.42 18.4767 7.7625 18.0825 7.25917 17.5383L6.08417 18.2158L5.25167 16.7725L6.4325 16.0925C6.325 15.7442 6.25083 15.3817 6.25083 14.9992C6.25083 14.6167 6.325 14.2533 6.4325 13.9058L5.25167 13.2258L6.08417 11.7825L7.25917 12.46C7.76333 11.9167 8.42 11.5217 9.16667 11.3508V10H10.8333V11.3508C11.58 11.5217 12.2375 11.9158 12.7408 12.46L13.9158 11.7825L14.7483 13.2258ZM12.0825 15C12.0825 13.8508 11.1475 12.9167 9.99917 12.9167C8.85083 12.9167 7.91583 13.8508 7.91583 15C7.91583 16.1492 8.85083 17.0833 9.99917 17.0833C11.1475 17.0833 12.0825 16.1492 12.0825 15Z" fill="#15222E"/>
</g>
<defs>
<clipPath id="clip0_4281_6933">
<rect width="20" height="20" fill="white"/>
</clipPath>
</defs>
</svg>
