<svg width="20" height="20" viewBox="0 0 20 20" fill="none" xmlns="http://www.w3.org/2000/svg">
<path d="M15.7798 1H4.22017C2.44457 1 1 2.44457 1 4.22017V15.7799C1 17.5554 2.44457 19 4.22017 19H15.7799C17.5554 19 19 17.5554 19 15.7798V4.22017C19 2.44457 17.5554 1 15.7798 1ZM17.9453 15.7798C17.9453 16.9739 16.9739 17.9453 15.7798 17.9453H4.22017C3.02612 17.9453 2.05469 16.9739 2.05469 15.7798V4.22017C2.05469 3.02612 3.02612 2.05469 4.22017 2.05469H15.7799C16.9739 2.05469 17.9453 3.02612 17.9453 4.22017V15.7798Z" fill="#15222E"/>
<path d="M16.2117 4.95389H8.17986C7.95905 4.29805 7.33872 3.82422 6.60936 3.82422C5.88001 3.82422 5.25968 4.29805 5.03886 4.95389H3.78516C3.49392 4.95389 3.25781 5.19 3.25781 5.48124C3.25781 5.77247 3.49392 6.00858 3.78516 6.00858H5.0389C5.25971 6.66442 5.88005 7.13826 6.6094 7.13826C7.33875 7.13826 7.95908 6.66442 8.1799 6.00858H16.2117C16.503 6.00858 16.7391 5.77247 16.7391 5.48124C16.7391 5.19 16.503 4.95389 16.2117 4.95389ZM6.60936 6.08357C6.27724 6.08357 6.00703 5.81336 6.00703 5.48124C6.00703 5.14912 6.27724 4.87891 6.60936 4.87891C6.94148 4.87891 7.2117 5.14912 7.2117 5.48124C7.2117 5.81336 6.94148 6.08357 6.60936 6.08357Z" fill="#15222E"/>
<path d="M16.2117 9.47257H14.958C14.7371 8.81673 14.1168 8.3429 13.3875 8.3429C12.6581 8.3429 12.0378 8.81673 11.817 9.47257H3.78516C3.49392 9.47257 3.25781 9.70868 3.25781 9.99991C3.25781 10.2911 3.49392 10.5273 3.78516 10.5273H11.817C12.0378 11.1831 12.6582 11.6569 13.3875 11.6569C14.1168 11.6569 14.7372 11.1831 14.958 10.5273H16.2117C16.503 10.5273 16.7391 10.2911 16.7391 9.99991C16.7391 9.70868 16.503 9.47257 16.2117 9.47257ZM13.3875 10.6022C13.0554 10.6022 12.7852 10.332 12.7852 9.99991C12.7852 9.66779 13.0554 9.39758 13.3875 9.39758C13.7196 9.39758 13.9898 9.66779 13.9898 9.99991C13.9898 10.332 13.7196 10.6022 13.3875 10.6022Z" fill="#15222E"/>
<path d="M16.2117 13.9914H10.4393C10.2184 13.3355 9.5981 12.8617 8.86875 12.8617C8.1394 12.8617 7.51907 13.3355 7.29825 13.9914H3.78516C3.49392 13.9914 3.25781 14.2275 3.25781 14.5187C3.25781 14.8099 3.49392 15.0461 3.78516 15.0461H7.29825C7.51907 15.7019 8.1394 16.1757 8.86875 16.1757C9.5981 16.1757 10.2184 15.7019 10.4393 15.0461H16.2117C16.503 15.0461 16.7391 14.8099 16.7391 14.5187C16.7391 14.2275 16.503 13.9914 16.2117 13.9914ZM8.86875 15.1211C8.53663 15.1211 8.26642 14.8509 8.26642 14.5187C8.26642 14.1866 8.53663 13.9164 8.86875 13.9164C9.20087 13.9164 9.47108 14.1866 9.47108 14.5187C9.47108 14.8508 9.20087 15.1211 8.86875 15.1211Z" fill="#15222E"/>
</svg>
