<svg width="20" height="20" viewBox="0 0 20 20" fill="none" xmlns="http://www.w3.org/2000/svg">
<path fill-rule="evenodd" clip-rule="evenodd" d="M20 7C20 8.10458 19.0816 9 17.9487 9C16.9929 9 16.1898 8.36263 15.9621 7.5H13.0982C12.5968 7.5 12.1689 7.85342 12.0865 8.3356L12.0022 8.8288C11.9221 9.29707 11.6792 9.70463 11.3356 10C11.6792 10.2954 11.9221 10.7029 12.0022 11.1712L12.0865 11.6644C12.1689 12.1466 12.5968 12.5 13.0982 12.5H13.9108C14.1385 11.6374 14.9416 11 15.8974 11C17.0303 11 17.9487 11.8954 17.9487 13C17.9487 14.1046 17.0303 15 15.8974 15C14.9416 15 14.1385 14.3626 13.9108 13.5H13.0982C12.0954 13.5 11.2396 12.7932 11.0748 11.8288L10.9905 11.3356C10.908 10.8534 10.4801 10.5 9.97879 10.5H9.14215C8.8861 11.32 8.10425 11.9167 7.17948 11.9167C6.25471 11.9167 5.47289 11.32 5.21684 10.5H4.01394C3.75789 11.32 2.97604 11.9167 2.05128 11.9167C0.918392 11.9167 0 11.0212 0 9.91668C0 8.8121 0.918392 7.91668 2.05128 7.91668C3.03763 7.91668 3.86138 8.59543 4.05799 9.5H5.17279C5.3694 8.59543 6.19315 7.91668 7.17948 7.91668C8.16584 7.91668 8.98959 8.59543 9.1862 9.5H9.97879C10.4801 9.5 10.908 9.14658 10.9905 8.6644L11.0748 8.1712C11.2396 7.20683 12.0954 6.5 13.0982 6.5H15.9621C16.1898 5.63739 16.9929 5 17.9487 5C19.0816 5 20 5.89543 20 7ZM18.9744 7C18.9744 7.55228 18.5152 8 17.9487 8C17.3823 8 16.9231 7.55228 16.9231 7C16.9231 6.44771 17.3823 6 17.9487 6C18.5152 6 18.9744 6.44771 18.9744 7ZM2.05128 10.9167C2.61774 10.9167 3.07692 10.469 3.07692 9.91668C3.07692 9.36438 2.61774 8.91668 2.05128 8.91668C1.48484 8.91668 1.02564 9.36438 1.02564 9.91668C1.02564 10.469 1.48484 10.9167 2.05128 10.9167ZM7.17948 10.9167C7.74594 10.9167 8.20512 10.469 8.20512 9.91668C8.20512 9.36438 7.74594 8.91668 7.17948 8.91668C6.61305 8.91668 6.15384 9.36438 6.15384 9.91668C6.15384 10.469 6.61305 10.9167 7.17948 10.9167ZM15.8974 14C16.4639 14 16.9231 13.5523 16.9231 13C16.9231 12.4477 16.4639 12 15.8974 12C15.331 12 14.8718 12.4477 14.8718 13C14.8718 13.5523 15.331 14 15.8974 14Z" fill="#15222E"/>
</svg>
