<svg width="20" height="20" viewBox="0 0 20 20" fill="none" xmlns="http://www.w3.org/2000/svg">
<path fill-rule="evenodd" clip-rule="evenodd" d="M10.4314 1.11419C10.165 0.961938 9.83571 0.961938 9.56936 1.11419L2.43102 5.18585C2.16391 5.3381 2 5.61934 2 5.92383V14.0732C2 14.3777 2.16467 14.6589 2.43102 14.8112L9.56936 18.8858C9.83647 19.0381 10.165 19.0381 10.4322 18.8858L17.569 14.8112C17.8353 14.6589 18 14.3777 18 14.0732V5.92383C18 5.61934 17.8353 5.3381 17.569 5.18585L10.4314 1.11419Z" stroke="#15222E"/>
<path d="M11.4364 11.5944C11.5914 11.8888 11.832 12.1363 12.1306 12.3085C12.4292 12.4806 12.7736 12.5703 13.1242 12.5673C13.8327 12.5673 14.2856 12.2357 14.2856 11.7769C14.2856 11.228 13.8206 11.0334 13.04 10.7117L12.6122 10.5398C11.378 10.0477 10.5579 9.43054 10.5579 8.12525C10.5602 7.82832 10.6284 7.53508 10.7583 7.26416C10.8881 6.99325 11.0768 6.75059 11.3122 6.55162C11.5476 6.35265 11.8247 6.20171 12.1258 6.10841C12.4269 6.01511 12.7455 5.98148 13.0613 6.00966C13.5575 5.97619 14.0533 6.08057 14.4865 6.30973C14.9196 6.5389 15.2709 6.88265 15.4963 7.29791L14.1642 8.09826C14.0768 7.89285 13.9247 7.7172 13.7281 7.59467C13.5315 7.47213 13.2997 7.4085 13.0635 7.41224C12.9607 7.40258 12.8568 7.41307 12.7585 7.44304C12.6601 7.47301 12.5696 7.52182 12.4925 7.58635C12.4155 7.65087 12.3536 7.72971 12.3108 7.81785C12.2681 7.90598 12.2454 8.00148 12.2443 8.09826C12.2443 8.57905 12.5621 8.77363 13.2964 9.07119L13.7243 9.24234C15.1777 9.8261 16 10.4212 16 11.7585C16 13.2008 14.7901 13.9905 13.1652 13.9905C12.5321 14.0283 11.9009 13.8938 11.3477 13.6032C10.7945 13.3126 10.3429 12.8784 10.0474 12.3529L11.4364 11.5944ZM5.39276 11.7364C5.66129 12.1824 5.90632 12.5602 6.49346 12.5602C7.05557 12.5602 7.41058 12.3543 7.41058 11.5532V6.10483H9.12118V11.5731C9.16152 11.8973 9.12339 12.2259 9.00963 12.5345C8.89586 12.8431 8.70937 13.1237 8.46399 13.3556C8.2186 13.5875 7.92061 13.7647 7.5921 13.8742C7.26359 13.9836 6.91299 14.0224 6.56628 13.9877C6.03074 14.015 5.49891 13.8899 5.04083 13.6287C4.58274 13.3676 4.21987 12.9827 4 12.5247L5.39276 11.7364Z" fill="#15222E"/>
</svg>
