<svg width="20" height="20" viewBox="0 0 20 20" fill="none" xmlns="http://www.w3.org/2000/svg">
<path d="M19.4993 10C19.4974 9.47236 19.3749 8.95196 19.1411 8.47766C18.9073 8.00336 18.5681 7.58741 18.1488 7.26088C18.7288 6.80886 19.1516 6.18913 19.3583 5.48815C19.565 4.78717 19.5451 4.0399 19.3016 3.35058C19.0581 2.66126 18.603 2.06427 17.9999 1.6429C17.3967 1.22153 16.6756 0.996794 15.9371 1.00003H4.06294C3.3244 0.996794 2.60325 1.22153 2.0001 1.6429C1.39695 2.06427 0.941877 2.66126 0.698363 3.35058C0.45485 4.0399 0.435042 4.78717 0.641703 5.48815C0.848364 6.18913 1.27119 6.80886 1.85119 7.26088C1.43048 7.58611 1.09022 8.00178 0.856205 8.47638C0.622191 8.95097 0.500571 9.47202 0.500571 10C0.500571 10.528 0.622191 11.049 0.856205 11.5236C1.09022 11.9982 1.43048 12.4139 1.85119 12.7391C1.27119 13.1911 0.848364 13.8109 0.641703 14.5119C0.435042 15.2128 0.45485 15.9601 0.698363 16.6494C0.941877 17.3387 1.39695 17.9357 2.0001 18.3571C2.60325 18.7785 3.3244 19.0032 4.06294 19H15.9371C16.6756 19.0032 17.3967 18.7785 17.9999 18.3571C18.603 17.9357 19.0581 17.3387 19.3016 16.6494C19.5451 15.9601 19.565 15.2128 19.3583 14.5119C19.1516 13.8109 18.7288 13.1911 18.1488 12.7391C18.5681 12.4126 18.9073 11.9966 19.1411 11.5223C19.3749 11.048 19.4974 10.5276 19.4993 10ZM2.08392 4.52176C2.08392 4.00286 2.29242 3.50521 2.66356 3.1383C3.0347 2.77138 3.53807 2.56525 4.06294 2.56525H4.45874V3.34785C4.45874 3.55541 4.54215 3.75447 4.6906 3.90124C4.83906 4.048 5.0404 4.13046 5.25035 4.13046C5.4603 4.13046 5.66165 4.048 5.8101 3.90124C5.95856 3.75447 6.04196 3.55541 6.04196 3.34785V2.56525H7.62518V3.34785C7.62518 3.55541 7.70858 3.75447 7.85703 3.90124C8.00549 4.048 8.20684 4.13046 8.41678 4.13046C8.62673 4.13046 8.82808 4.048 8.97654 3.90124C9.12499 3.75447 9.20839 3.55541 9.20839 3.34785V2.56525H15.9371C16.4619 2.56525 16.9653 2.77138 17.3364 3.1383C17.7076 3.50521 17.9161 4.00286 17.9161 4.52176C17.9161 5.04066 17.7076 5.53831 17.3364 5.90522C16.9653 6.27214 16.4619 6.47827 15.9371 6.47827H4.06294C3.53807 6.47827 3.0347 6.27214 2.66356 5.90522C2.29242 5.53831 2.08392 5.04066 2.08392 4.52176ZM17.9161 15.4782C17.9161 15.9971 17.7076 16.4948 17.3364 16.8617C16.9653 17.2286 16.4619 17.4348 15.9371 17.4348H4.06294C3.53807 17.4348 3.0347 17.2286 2.66356 16.8617C2.29242 16.4948 2.08392 15.9971 2.08392 15.4782C2.08392 14.9593 2.29242 14.4617 2.66356 14.0948C3.0347 13.7279 3.53807 13.5217 4.06294 13.5217H4.45874V14.3043C4.45874 14.5119 4.54215 14.711 4.6906 14.8577C4.83906 15.0045 5.0404 15.0869 5.25035 15.0869C5.4603 15.0869 5.66165 15.0045 5.8101 14.8577C5.95856 14.711 6.04196 14.5119 6.04196 14.3043V13.5217H7.62518V14.3043C7.62518 14.5119 7.70858 14.711 7.85703 14.8577C8.00549 15.0045 8.20684 15.0869 8.41678 15.0869C8.62673 15.0869 8.82808 15.0045 8.97654 14.8577C9.12499 14.711 9.20839 14.5119 9.20839 14.3043V13.5217H15.9371C16.4619 13.5217 16.9653 13.7279 17.3364 14.0948C17.7076 14.4617 17.9161 14.9593 17.9161 15.4782ZM4.06294 11.9565C3.53807 11.9565 3.0347 11.7504 2.66356 11.3835C2.29242 11.0165 2.08392 10.5189 2.08392 10C2.08392 9.4811 2.29242 8.98345 2.66356 8.61654C3.0347 8.24962 3.53807 8.04349 4.06294 8.04349H4.45874V8.82609C4.45874 9.03365 4.54215 9.23271 4.6906 9.37948C4.83906 9.52624 5.0404 9.6087 5.25035 9.6087C5.4603 9.6087 5.66165 9.52624 5.8101 9.37948C5.95856 9.23271 6.04196 9.03365 6.04196 8.82609V8.04349H7.62518V8.82609C7.62518 9.03365 7.70858 9.23271 7.85703 9.37948C8.00549 9.52624 8.20684 9.6087 8.41678 9.6087C8.62673 9.6087 8.82808 9.52624 8.97654 9.37948C9.12499 9.23271 9.20839 9.03365 9.20839 8.82609V8.04349H15.9371C16.4619 8.04349 16.9653 8.24962 17.3364 8.61654C17.7076 8.98345 17.9161 9.4811 17.9161 10C17.9161 10.5189 17.7076 11.0165 17.3364 11.3835C16.9653 11.7504 16.4619 11.9565 15.9371 11.9565H4.06294Z" fill="#15222E"/>
</svg>
