<svg width="20" height="20" viewBox="0 0 20 20" fill="none" xmlns="http://www.w3.org/2000/svg">
<g clip-path="url(#clip0_4281_6922)">
<path d="M15.9375 1H4.0625C2.09837 1 0.5 2.65191 0.5 4.68182V15.3182C0.5 17.3481 2.09837 19 4.0625 19H15.9375C17.9016 19 19.5 17.3481 19.5 15.3182V4.68182C19.5 2.65191 17.9016 1 15.9375 1ZM4.0625 1.81818H15.9375C17.4654 1.81818 18.7083 3.10273 18.7083 4.68182V6.72727H1.29167V4.68182C1.29167 3.10273 2.53458 1.81818 4.0625 1.81818ZM15.9375 18.1818H4.0625C2.53458 18.1818 1.29167 16.8973 1.29167 15.3182V7.54545H18.7083V15.3182C18.7083 16.8973 17.4654 18.1818 15.9375 18.1818ZM2.875 4.27273C2.875 3.82109 3.22967 3.45455 3.66667 3.45455C4.10367 3.45455 4.45833 3.82109 4.45833 4.27273C4.45833 4.72436 4.10367 5.09091 3.66667 5.09091C3.22967 5.09091 2.875 4.72436 2.875 4.27273ZM5.25 4.27273C5.25 3.82109 5.60467 3.45455 6.04167 3.45455C6.47867 3.45455 6.83333 3.82109 6.83333 4.27273C6.83333 4.72436 6.47867 5.09091 6.04167 5.09091C5.60467 5.09091 5.25 4.72436 5.25 4.27273ZM7.625 4.27273C7.625 3.82109 7.97967 3.45455 8.41667 3.45455C8.85367 3.45455 9.20833 3.82109 9.20833 4.27273C9.20833 4.72436 8.85367 5.09091 8.41667 5.09091C7.97967 5.09091 7.625 4.72436 7.625 4.27273ZM15.5417 11.2273C15.5417 11.4531 15.3643 11.6364 15.1458 11.6364H4.85417C4.63567 11.6364 4.45833 11.4531 4.45833 11.2273C4.45833 11.0015 4.63567 10.8182 4.85417 10.8182H15.1458C15.3643 10.8182 15.5417 11.0015 15.5417 11.2273ZM12.375 14.5C12.375 14.7258 12.1977 14.9091 11.9792 14.9091H4.85417C4.63567 14.9091 4.45833 14.7258 4.45833 14.5C4.45833 14.2742 4.63567 14.0909 4.85417 14.0909H11.9792C12.1977 14.0909 12.375 14.2742 12.375 14.5Z" fill="#15222E" stroke="#15222E" stroke-width="0.5"/>
</g>
<defs>
<clipPath id="clip0_4281_6922">
<rect width="20" height="20" fill="white"/>
</clipPath>
</defs>
</svg>
