<svg width="20" height="20" viewBox="0 0 20 20" fill="none" xmlns="http://www.w3.org/2000/svg">
<path d="M13.7372 10.7208C14.0416 10.612 14.2459 10.3214 14.2459 9.99828C14.2459 9.67516 14.0416 9.38453 13.7384 9.27578L12.3447 8.77328C10.9684 8.27766 9.89469 7.20328 9.39844 5.82703L8.89594 4.43328C8.78656 4.13016 8.49656 3.92578 8.17469 3.92578C7.85219 3.92578 7.56156 4.12953 7.45156 4.43328L6.94969 5.82703C6.45344 7.20391 5.37969 8.27766 4.00281 8.77328L2.61031 9.27578C2.30594 9.38516 2.10156 9.67516 2.10156 9.99828C2.10156 10.3214 2.30594 10.6114 2.60906 10.7208L4.00281 11.2233C5.37906 11.7189 6.45281 12.7927 6.94906 14.1695L7.45156 15.5639C7.56094 15.867 7.85156 16.0708 8.17406 16.0708C8.49656 16.0708 8.78719 15.8664 8.89594 15.5633L9.39844 14.1695C9.89406 12.7933 10.9684 11.7195 12.3447 11.2233L13.7372 10.7208ZM11.9209 10.047C10.1928 10.6695 8.84469 12.0177 8.22219 13.7458L8.17344 13.8808L8.12469 13.7458C7.50156 12.0177 6.15344 10.6695 4.42594 10.047L4.29156 9.99828L4.42656 9.94953C6.15469 9.32703 7.50281 7.97891 8.12531 6.25078L8.17406 6.11578L8.22281 6.25078C8.84531 7.97891 10.1934 9.32703 11.9209 9.94953L12.0559 9.99828L11.9209 10.047Z" fill="#15222E"/>
<path d="M11.5941 4.66437L12.2997 4.91875C12.9103 5.13875 13.3859 5.615 13.6059 6.225L13.8597 6.93C13.9591 7.20625 14.2228 7.39187 14.5159 7.39187C14.8091 7.39187 15.0734 7.20625 15.1722 6.93062L15.4266 6.225C15.6466 5.61438 16.1228 5.13812 16.7328 4.91875L17.4391 4.66437C17.7134 4.565 17.8991 4.30187 17.8997 4.01C17.9003 3.71812 17.7166 3.45375 17.4391 3.3525L16.7328 3.09812C16.1228 2.87812 15.6466 2.40188 15.4266 1.79188L15.1722 1.08625C15.0728 0.81 14.8097 0.625 14.5166 0.625C14.2228 0.625 13.9591 0.810625 13.8603 1.08625L13.6059 1.79188C13.3859 2.4025 12.9097 2.87812 12.2997 3.09812L11.5922 3.35312C11.3172 3.45312 11.1322 3.7175 11.1328 4.01C11.1334 4.3025 11.3191 4.56562 11.5941 4.66437ZM14.5166 2.78437C14.8128 3.29187 15.2334 3.7125 15.7403 4.00813C15.2328 4.30438 14.8122 4.725 14.5166 5.23188C14.2203 4.725 13.7997 4.30375 13.2928 4.00813C13.7997 3.71187 14.2203 3.29125 14.5166 2.78437Z" fill="#15222E"/>
<path d="M17.4391 15.3369L16.7334 15.0825C16.1234 14.8625 15.6472 14.3863 15.4272 13.7763L15.1728 13.0706C15.0734 12.795 14.8097 12.6094 14.5166 12.6094C14.2228 12.6094 13.9591 12.795 13.8603 13.0706L13.6059 13.7763C13.3859 14.3869 12.9097 14.8631 12.2997 15.0825L11.5947 15.3362C11.3191 15.435 11.1334 15.6987 11.1328 15.9912C11.1322 16.2837 11.3166 16.5481 11.5941 16.6487L12.2997 16.9031C12.9103 17.1231 13.3866 17.5987 13.6059 18.2094L13.8597 18.9144C13.9597 19.1906 14.2234 19.3762 14.5172 19.3762C14.8109 19.3762 15.0747 19.1906 15.1734 18.915L15.4278 18.2094C15.6478 17.5994 16.1241 17.1231 16.7341 16.9031L17.4428 16.6481C17.7172 16.5475 17.9016 16.2837 17.9009 15.9912C17.9003 15.6987 17.7141 15.4363 17.4391 15.3369ZM14.5172 17.2169C14.2209 16.7094 13.8003 16.2887 13.2934 15.9931C13.8003 15.6969 14.2216 15.2762 14.5172 14.7694C14.8134 15.2762 15.2341 15.6975 15.7409 15.9931C15.2341 16.2894 14.8128 16.71 14.5172 17.2169Z" fill="#15222E"/>
</svg>
